%TF.GenerationSoftware,KiCad,Pcbnew,(5.1.12)-1*%
%TF.CreationDate,2022-03-08T20:35:16+00:00*%
%TF.ProjectId,RGBtoHDMI CDTV v2,52474274-6f48-4444-9d49-204344545620,1*%
%TF.SameCoordinates,Original*%
%TF.FileFunction,Soldermask,Bot*%
%TF.FilePolarity,Negative*%
%FSLAX46Y46*%
G04 Gerber Fmt 4.6, Leading zero omitted, Abs format (unit mm)*
G04 Created by KiCad (PCBNEW (5.1.12)-1) date 2022-03-08 20:35:16*
%MOMM*%
%LPD*%
G01*
G04 APERTURE LIST*
%ADD10C,0.100000*%
%ADD11O,2.000000X2.000000*%
%ADD12C,2.300000*%
%ADD13C,1.900000*%
%ADD14C,4.300000*%
%ADD15O,1.700000X3.500000*%
%ADD16C,1.100000*%
%ADD17C,2.000000*%
%ADD18C,5.300000*%
G04 APERTURE END LIST*
D10*
G36*
X55372000Y-40233600D02*
G01*
X49149000Y-40233600D01*
X49149000Y-37566600D01*
X55372000Y-37566600D01*
X55372000Y-40233600D01*
G37*
X55372000Y-40233600D02*
X49149000Y-40233600D01*
X49149000Y-37566600D01*
X55372000Y-37566600D01*
X55372000Y-40233600D01*
G36*
X116713000Y-159258000D02*
G01*
X74803000Y-159258000D01*
X74803000Y-149352000D01*
X116713000Y-149352000D01*
X116713000Y-159258000D01*
G37*
X116713000Y-159258000D02*
X74803000Y-159258000D01*
X74803000Y-149352000D01*
X116713000Y-149352000D01*
X116713000Y-159258000D01*
G36*
X143002000Y-40259000D02*
G01*
X137033000Y-40259000D01*
X137033000Y-37592000D01*
X143129000Y-37592000D01*
X143002000Y-40259000D01*
G37*
X143002000Y-40259000D02*
X137033000Y-40259000D01*
X137033000Y-37592000D01*
X143129000Y-37592000D01*
X143002000Y-40259000D01*
D11*
%TO.C,P1*%
X88519000Y-138557000D03*
X85979000Y-138557000D03*
X83439000Y-138557000D03*
G36*
G01*
X81749000Y-139557000D02*
X80049000Y-139557000D01*
G75*
G02*
X79899000Y-139407000I0J150000D01*
G01*
X79899000Y-137707000D01*
G75*
G02*
X80049000Y-137557000I150000J0D01*
G01*
X81749000Y-137557000D01*
G75*
G02*
X81899000Y-137707000I0J-150000D01*
G01*
X81899000Y-139407000D01*
G75*
G02*
X81749000Y-139557000I-150000J0D01*
G01*
G37*
%TD*%
%TO.C,FPV20*%
G36*
G01*
X134635000Y-121129000D02*
X133335000Y-121129000D01*
G75*
G02*
X133185000Y-120979000I0J150000D01*
G01*
X133185000Y-120679000D01*
G75*
G02*
X133335000Y-120529000I150000J0D01*
G01*
X134635000Y-120529000D01*
G75*
G02*
X134785000Y-120679000I0J-150000D01*
G01*
X134785000Y-120979000D01*
G75*
G02*
X134635000Y-121129000I-150000J0D01*
G01*
G37*
G36*
G01*
X134635000Y-121629000D02*
X133335000Y-121629000D01*
G75*
G02*
X133185000Y-121479000I0J150000D01*
G01*
X133185000Y-121179000D01*
G75*
G02*
X133335000Y-121029000I150000J0D01*
G01*
X134635000Y-121029000D01*
G75*
G02*
X134785000Y-121179000I0J-150000D01*
G01*
X134785000Y-121479000D01*
G75*
G02*
X134635000Y-121629000I-150000J0D01*
G01*
G37*
G36*
G01*
X134635000Y-119629000D02*
X133335000Y-119629000D01*
G75*
G02*
X133185000Y-119479000I0J150000D01*
G01*
X133185000Y-119179000D01*
G75*
G02*
X133335000Y-119029000I150000J0D01*
G01*
X134635000Y-119029000D01*
G75*
G02*
X134785000Y-119179000I0J-150000D01*
G01*
X134785000Y-119479000D01*
G75*
G02*
X134635000Y-119629000I-150000J0D01*
G01*
G37*
G36*
G01*
X134635000Y-120129000D02*
X133335000Y-120129000D01*
G75*
G02*
X133185000Y-119979000I0J150000D01*
G01*
X133185000Y-119679000D01*
G75*
G02*
X133335000Y-119529000I150000J0D01*
G01*
X134635000Y-119529000D01*
G75*
G02*
X134785000Y-119679000I0J-150000D01*
G01*
X134785000Y-119979000D01*
G75*
G02*
X134635000Y-120129000I-150000J0D01*
G01*
G37*
G36*
G01*
X134635000Y-120629000D02*
X133335000Y-120629000D01*
G75*
G02*
X133185000Y-120479000I0J150000D01*
G01*
X133185000Y-120179000D01*
G75*
G02*
X133335000Y-120029000I150000J0D01*
G01*
X134635000Y-120029000D01*
G75*
G02*
X134785000Y-120179000I0J-150000D01*
G01*
X134785000Y-120479000D01*
G75*
G02*
X134635000Y-120629000I-150000J0D01*
G01*
G37*
G36*
G01*
X133135000Y-118829000D02*
X130135000Y-118829000D01*
G75*
G02*
X129985000Y-118679000I0J150000D01*
G01*
X129985000Y-116679000D01*
G75*
G02*
X130135000Y-116529000I150000J0D01*
G01*
X133135000Y-116529000D01*
G75*
G02*
X133285000Y-116679000I0J-150000D01*
G01*
X133285000Y-118679000D01*
G75*
G02*
X133135000Y-118829000I-150000J0D01*
G01*
G37*
G36*
G01*
X133135000Y-131629000D02*
X130135000Y-131629000D01*
G75*
G02*
X129985000Y-131479000I0J150000D01*
G01*
X129985000Y-129479000D01*
G75*
G02*
X130135000Y-129329000I150000J0D01*
G01*
X133135000Y-129329000D01*
G75*
G02*
X133285000Y-129479000I0J-150000D01*
G01*
X133285000Y-131479000D01*
G75*
G02*
X133135000Y-131629000I-150000J0D01*
G01*
G37*
G36*
G01*
X134635000Y-122129000D02*
X133335000Y-122129000D01*
G75*
G02*
X133185000Y-121979000I0J150000D01*
G01*
X133185000Y-121679000D01*
G75*
G02*
X133335000Y-121529000I150000J0D01*
G01*
X134635000Y-121529000D01*
G75*
G02*
X134785000Y-121679000I0J-150000D01*
G01*
X134785000Y-121979000D01*
G75*
G02*
X134635000Y-122129000I-150000J0D01*
G01*
G37*
G36*
G01*
X134635000Y-122629000D02*
X133335000Y-122629000D01*
G75*
G02*
X133185000Y-122479000I0J150000D01*
G01*
X133185000Y-122179000D01*
G75*
G02*
X133335000Y-122029000I150000J0D01*
G01*
X134635000Y-122029000D01*
G75*
G02*
X134785000Y-122179000I0J-150000D01*
G01*
X134785000Y-122479000D01*
G75*
G02*
X134635000Y-122629000I-150000J0D01*
G01*
G37*
G36*
G01*
X134635000Y-123129000D02*
X133335000Y-123129000D01*
G75*
G02*
X133185000Y-122979000I0J150000D01*
G01*
X133185000Y-122679000D01*
G75*
G02*
X133335000Y-122529000I150000J0D01*
G01*
X134635000Y-122529000D01*
G75*
G02*
X134785000Y-122679000I0J-150000D01*
G01*
X134785000Y-122979000D01*
G75*
G02*
X134635000Y-123129000I-150000J0D01*
G01*
G37*
G36*
G01*
X134635000Y-123629000D02*
X133335000Y-123629000D01*
G75*
G02*
X133185000Y-123479000I0J150000D01*
G01*
X133185000Y-123179000D01*
G75*
G02*
X133335000Y-123029000I150000J0D01*
G01*
X134635000Y-123029000D01*
G75*
G02*
X134785000Y-123179000I0J-150000D01*
G01*
X134785000Y-123479000D01*
G75*
G02*
X134635000Y-123629000I-150000J0D01*
G01*
G37*
G36*
G01*
X134635000Y-124129000D02*
X133335000Y-124129000D01*
G75*
G02*
X133185000Y-123979000I0J150000D01*
G01*
X133185000Y-123679000D01*
G75*
G02*
X133335000Y-123529000I150000J0D01*
G01*
X134635000Y-123529000D01*
G75*
G02*
X134785000Y-123679000I0J-150000D01*
G01*
X134785000Y-123979000D01*
G75*
G02*
X134635000Y-124129000I-150000J0D01*
G01*
G37*
G36*
G01*
X134635000Y-124629000D02*
X133335000Y-124629000D01*
G75*
G02*
X133185000Y-124479000I0J150000D01*
G01*
X133185000Y-124179000D01*
G75*
G02*
X133335000Y-124029000I150000J0D01*
G01*
X134635000Y-124029000D01*
G75*
G02*
X134785000Y-124179000I0J-150000D01*
G01*
X134785000Y-124479000D01*
G75*
G02*
X134635000Y-124629000I-150000J0D01*
G01*
G37*
G36*
G01*
X134635000Y-125129000D02*
X133335000Y-125129000D01*
G75*
G02*
X133185000Y-124979000I0J150000D01*
G01*
X133185000Y-124679000D01*
G75*
G02*
X133335000Y-124529000I150000J0D01*
G01*
X134635000Y-124529000D01*
G75*
G02*
X134785000Y-124679000I0J-150000D01*
G01*
X134785000Y-124979000D01*
G75*
G02*
X134635000Y-125129000I-150000J0D01*
G01*
G37*
G36*
G01*
X134635000Y-125629000D02*
X133335000Y-125629000D01*
G75*
G02*
X133185000Y-125479000I0J150000D01*
G01*
X133185000Y-125179000D01*
G75*
G02*
X133335000Y-125029000I150000J0D01*
G01*
X134635000Y-125029000D01*
G75*
G02*
X134785000Y-125179000I0J-150000D01*
G01*
X134785000Y-125479000D01*
G75*
G02*
X134635000Y-125629000I-150000J0D01*
G01*
G37*
G36*
G01*
X134635000Y-126129000D02*
X133335000Y-126129000D01*
G75*
G02*
X133185000Y-125979000I0J150000D01*
G01*
X133185000Y-125679000D01*
G75*
G02*
X133335000Y-125529000I150000J0D01*
G01*
X134635000Y-125529000D01*
G75*
G02*
X134785000Y-125679000I0J-150000D01*
G01*
X134785000Y-125979000D01*
G75*
G02*
X134635000Y-126129000I-150000J0D01*
G01*
G37*
G36*
G01*
X134635000Y-126629000D02*
X133335000Y-126629000D01*
G75*
G02*
X133185000Y-126479000I0J150000D01*
G01*
X133185000Y-126179000D01*
G75*
G02*
X133335000Y-126029000I150000J0D01*
G01*
X134635000Y-126029000D01*
G75*
G02*
X134785000Y-126179000I0J-150000D01*
G01*
X134785000Y-126479000D01*
G75*
G02*
X134635000Y-126629000I-150000J0D01*
G01*
G37*
G36*
G01*
X134635000Y-127129000D02*
X133335000Y-127129000D01*
G75*
G02*
X133185000Y-126979000I0J150000D01*
G01*
X133185000Y-126679000D01*
G75*
G02*
X133335000Y-126529000I150000J0D01*
G01*
X134635000Y-126529000D01*
G75*
G02*
X134785000Y-126679000I0J-150000D01*
G01*
X134785000Y-126979000D01*
G75*
G02*
X134635000Y-127129000I-150000J0D01*
G01*
G37*
G36*
G01*
X134635000Y-127629000D02*
X133335000Y-127629000D01*
G75*
G02*
X133185000Y-127479000I0J150000D01*
G01*
X133185000Y-127179000D01*
G75*
G02*
X133335000Y-127029000I150000J0D01*
G01*
X134635000Y-127029000D01*
G75*
G02*
X134785000Y-127179000I0J-150000D01*
G01*
X134785000Y-127479000D01*
G75*
G02*
X134635000Y-127629000I-150000J0D01*
G01*
G37*
G36*
G01*
X134635000Y-128129000D02*
X133335000Y-128129000D01*
G75*
G02*
X133185000Y-127979000I0J150000D01*
G01*
X133185000Y-127679000D01*
G75*
G02*
X133335000Y-127529000I150000J0D01*
G01*
X134635000Y-127529000D01*
G75*
G02*
X134785000Y-127679000I0J-150000D01*
G01*
X134785000Y-127979000D01*
G75*
G02*
X134635000Y-128129000I-150000J0D01*
G01*
G37*
G36*
G01*
X134635000Y-128629000D02*
X133335000Y-128629000D01*
G75*
G02*
X133185000Y-128479000I0J150000D01*
G01*
X133185000Y-128179000D01*
G75*
G02*
X133335000Y-128029000I150000J0D01*
G01*
X134635000Y-128029000D01*
G75*
G02*
X134785000Y-128179000I0J-150000D01*
G01*
X134785000Y-128479000D01*
G75*
G02*
X134635000Y-128629000I-150000J0D01*
G01*
G37*
G36*
G01*
X134635000Y-129129000D02*
X133335000Y-129129000D01*
G75*
G02*
X133185000Y-128979000I0J150000D01*
G01*
X133185000Y-128679000D01*
G75*
G02*
X133335000Y-128529000I150000J0D01*
G01*
X134635000Y-128529000D01*
G75*
G02*
X134785000Y-128679000I0J-150000D01*
G01*
X134785000Y-128979000D01*
G75*
G02*
X134635000Y-129129000I-150000J0D01*
G01*
G37*
%TD*%
%TO.C,CN10*%
G36*
G01*
X89909000Y-157178000D02*
X89909000Y-151178000D01*
G75*
G02*
X91059000Y-150028000I1150000J0D01*
G01*
X91059000Y-150028000D01*
G75*
G02*
X92209000Y-151178000I0J-1150000D01*
G01*
X92209000Y-157178000D01*
G75*
G02*
X91059000Y-158328000I-1150000J0D01*
G01*
X91059000Y-158328000D01*
G75*
G02*
X89909000Y-157178000I0J1150000D01*
G01*
G37*
G36*
G01*
X92449000Y-157178000D02*
X92449000Y-151178000D01*
G75*
G02*
X93599000Y-150028000I1150000J0D01*
G01*
X93599000Y-150028000D01*
G75*
G02*
X94749000Y-151178000I0J-1150000D01*
G01*
X94749000Y-157178000D01*
G75*
G02*
X93599000Y-158328000I-1150000J0D01*
G01*
X93599000Y-158328000D01*
G75*
G02*
X92449000Y-157178000I0J1150000D01*
G01*
G37*
G36*
G01*
X77209000Y-157178000D02*
X77209000Y-151178000D01*
G75*
G02*
X78359000Y-150028000I1150000J0D01*
G01*
X78359000Y-150028000D01*
G75*
G02*
X79509000Y-151178000I0J-1150000D01*
G01*
X79509000Y-157178000D01*
G75*
G02*
X78359000Y-158328000I-1150000J0D01*
G01*
X78359000Y-158328000D01*
G75*
G02*
X77209000Y-157178000I0J1150000D01*
G01*
G37*
G36*
G01*
X94963600Y-157178000D02*
X94963600Y-151178000D01*
G75*
G02*
X96113600Y-150028000I1150000J0D01*
G01*
X96113600Y-150028000D01*
G75*
G02*
X97263600Y-151178000I0J-1150000D01*
G01*
X97263600Y-157178000D01*
G75*
G02*
X96113600Y-158328000I-1150000J0D01*
G01*
X96113600Y-158328000D01*
G75*
G02*
X94963600Y-157178000I0J1150000D01*
G01*
G37*
G36*
G01*
X107689000Y-157178000D02*
X107689000Y-151178000D01*
G75*
G02*
X108839000Y-150028000I1150000J0D01*
G01*
X108839000Y-150028000D01*
G75*
G02*
X109989000Y-151178000I0J-1150000D01*
G01*
X109989000Y-157178000D01*
G75*
G02*
X108839000Y-158328000I-1150000J0D01*
G01*
X108839000Y-158328000D01*
G75*
G02*
X107689000Y-157178000I0J1150000D01*
G01*
G37*
G36*
G01*
X82314400Y-157178000D02*
X82314400Y-151178000D01*
G75*
G02*
X83464400Y-150028000I1150000J0D01*
G01*
X83464400Y-150028000D01*
G75*
G02*
X84614400Y-151178000I0J-1150000D01*
G01*
X84614400Y-157178000D01*
G75*
G02*
X83464400Y-158328000I-1150000J0D01*
G01*
X83464400Y-158328000D01*
G75*
G02*
X82314400Y-157178000I0J1150000D01*
G01*
G37*
G36*
G01*
X105149000Y-157178000D02*
X105149000Y-151178000D01*
G75*
G02*
X106299000Y-150028000I1150000J0D01*
G01*
X106299000Y-150028000D01*
G75*
G02*
X107449000Y-151178000I0J-1150000D01*
G01*
X107449000Y-157178000D01*
G75*
G02*
X106299000Y-158328000I-1150000J0D01*
G01*
X106299000Y-158328000D01*
G75*
G02*
X105149000Y-157178000I0J1150000D01*
G01*
G37*
G36*
G01*
X84829000Y-157178000D02*
X84829000Y-151178000D01*
G75*
G02*
X85979000Y-150028000I1150000J0D01*
G01*
X85979000Y-150028000D01*
G75*
G02*
X87129000Y-151178000I0J-1150000D01*
G01*
X87129000Y-157178000D01*
G75*
G02*
X85979000Y-158328000I-1150000J0D01*
G01*
X85979000Y-158328000D01*
G75*
G02*
X84829000Y-157178000I0J1150000D01*
G01*
G37*
G36*
G01*
X110229000Y-157178000D02*
X110229000Y-151178000D01*
G75*
G02*
X111379000Y-150028000I1150000J0D01*
G01*
X111379000Y-150028000D01*
G75*
G02*
X112529000Y-151178000I0J-1150000D01*
G01*
X112529000Y-157178000D01*
G75*
G02*
X111379000Y-158328000I-1150000J0D01*
G01*
X111379000Y-158328000D01*
G75*
G02*
X110229000Y-157178000I0J1150000D01*
G01*
G37*
G36*
G01*
X79749000Y-157178000D02*
X79749000Y-151178000D01*
G75*
G02*
X80899000Y-150028000I1150000J0D01*
G01*
X80899000Y-150028000D01*
G75*
G02*
X82049000Y-151178000I0J-1150000D01*
G01*
X82049000Y-157178000D01*
G75*
G02*
X80899000Y-158328000I-1150000J0D01*
G01*
X80899000Y-158328000D01*
G75*
G02*
X79749000Y-157178000I0J1150000D01*
G01*
G37*
G36*
G01*
X97529000Y-157178000D02*
X97529000Y-151178000D01*
G75*
G02*
X98679000Y-150028000I1150000J0D01*
G01*
X98679000Y-150028000D01*
G75*
G02*
X99829000Y-151178000I0J-1150000D01*
G01*
X99829000Y-157178000D01*
G75*
G02*
X98679000Y-158328000I-1150000J0D01*
G01*
X98679000Y-158328000D01*
G75*
G02*
X97529000Y-157178000I0J1150000D01*
G01*
G37*
G36*
G01*
X100069000Y-157178000D02*
X100069000Y-151178000D01*
G75*
G02*
X101219000Y-150028000I1150000J0D01*
G01*
X101219000Y-150028000D01*
G75*
G02*
X102369000Y-151178000I0J-1150000D01*
G01*
X102369000Y-157178000D01*
G75*
G02*
X101219000Y-158328000I-1150000J0D01*
G01*
X101219000Y-158328000D01*
G75*
G02*
X100069000Y-157178000I0J1150000D01*
G01*
G37*
G36*
G01*
X102609000Y-157178000D02*
X102609000Y-151178000D01*
G75*
G02*
X103759000Y-150028000I1150000J0D01*
G01*
X103759000Y-150028000D01*
G75*
G02*
X104909000Y-151178000I0J-1150000D01*
G01*
X104909000Y-157178000D01*
G75*
G02*
X103759000Y-158328000I-1150000J0D01*
G01*
X103759000Y-158328000D01*
G75*
G02*
X102609000Y-157178000I0J1150000D01*
G01*
G37*
G36*
G01*
X112769000Y-157178000D02*
X112769000Y-151178000D01*
G75*
G02*
X113919000Y-150028000I1150000J0D01*
G01*
X113919000Y-150028000D01*
G75*
G02*
X115069000Y-151178000I0J-1150000D01*
G01*
X115069000Y-157178000D01*
G75*
G02*
X113919000Y-158328000I-1150000J0D01*
G01*
X113919000Y-158328000D01*
G75*
G02*
X112769000Y-157178000I0J1150000D01*
G01*
G37*
G36*
G01*
X87343600Y-157178000D02*
X87343600Y-151178000D01*
G75*
G02*
X88493600Y-150028000I1150000J0D01*
G01*
X88493600Y-150028000D01*
G75*
G02*
X89643600Y-151178000I0J-1150000D01*
G01*
X89643600Y-157178000D01*
G75*
G02*
X88493600Y-158328000I-1150000J0D01*
G01*
X88493600Y-158328000D01*
G75*
G02*
X87343600Y-157178000I0J1150000D01*
G01*
G37*
%TD*%
%TO.C,A1*%
X134620000Y-137160000D03*
X132080000Y-137160000D03*
X129540000Y-137160000D03*
G36*
G01*
X127850000Y-138160000D02*
X126150000Y-138160000D01*
G75*
G02*
X126000000Y-138010000I0J150000D01*
G01*
X126000000Y-136310000D01*
G75*
G02*
X126150000Y-136160000I150000J0D01*
G01*
X127850000Y-136160000D01*
G75*
G02*
X128000000Y-136310000I0J-150000D01*
G01*
X128000000Y-138010000D01*
G75*
G02*
X127850000Y-138160000I-150000J0D01*
G01*
G37*
%TD*%
%TO.C,JP15*%
X123190000Y-66929000D03*
G36*
G01*
X124880000Y-65929000D02*
X126580000Y-65929000D01*
G75*
G02*
X126730000Y-66079000I0J-150000D01*
G01*
X126730000Y-67779000D01*
G75*
G02*
X126580000Y-67929000I-150000J0D01*
G01*
X124880000Y-67929000D01*
G75*
G02*
X124730000Y-67779000I0J150000D01*
G01*
X124730000Y-66079000D01*
G75*
G02*
X124880000Y-65929000I150000J0D01*
G01*
G37*
%TD*%
%TO.C,TS1*%
G36*
G01*
X124222000Y-55111000D02*
X126222000Y-55111000D01*
G75*
G02*
X126372000Y-55261000I0J-150000D01*
G01*
X126372000Y-57261000D01*
G75*
G02*
X126222000Y-57411000I-150000J0D01*
G01*
X124222000Y-57411000D01*
G75*
G02*
X124072000Y-57261000I0J150000D01*
G01*
X124072000Y-55261000D01*
G75*
G02*
X124222000Y-55111000I150000J0D01*
G01*
G37*
D12*
X125222000Y-60071000D03*
X125222000Y-63881000D03*
X122682000Y-43561000D03*
X127762000Y-43561000D03*
X125222000Y-43561000D03*
%TD*%
%TO.C,PORT2*%
G36*
G01*
X66487000Y-47536000D02*
X66487000Y-45936000D01*
G75*
G02*
X66637000Y-45786000I150000J0D01*
G01*
X68237000Y-45786000D01*
G75*
G02*
X68387000Y-45936000I0J-150000D01*
G01*
X68387000Y-47536000D01*
G75*
G02*
X68237000Y-47686000I-150000J0D01*
G01*
X66637000Y-47686000D01*
G75*
G02*
X66487000Y-47536000I0J150000D01*
G01*
G37*
D13*
X70207000Y-46736000D03*
X72977000Y-46736000D03*
X75747000Y-46736000D03*
X78517000Y-46736000D03*
X68822000Y-43896000D03*
X71592000Y-43896000D03*
X74362000Y-43896000D03*
X77132000Y-43896000D03*
D14*
X60477000Y-45316000D03*
X85477000Y-45316000D03*
%TD*%
%TO.C,PORT1*%
X117354000Y-45316000D03*
X92354000Y-45316000D03*
D13*
X109009000Y-43896000D03*
X106239000Y-43896000D03*
X103469000Y-43896000D03*
X100699000Y-43896000D03*
X110394000Y-46736000D03*
X107624000Y-46736000D03*
X104854000Y-46736000D03*
X102084000Y-46736000D03*
G36*
G01*
X98364000Y-47536000D02*
X98364000Y-45936000D01*
G75*
G02*
X98514000Y-45786000I150000J0D01*
G01*
X100114000Y-45786000D01*
G75*
G02*
X100264000Y-45936000I0J-150000D01*
G01*
X100264000Y-47536000D01*
G75*
G02*
X100114000Y-47686000I-150000J0D01*
G01*
X98514000Y-47686000D01*
G75*
G02*
X98364000Y-47536000I0J150000D01*
G01*
G37*
%TD*%
D11*
%TO.C,CN1*%
X78827000Y-64135000D03*
X78827000Y-66675000D03*
X76287000Y-64135000D03*
X76287000Y-66675000D03*
X73747000Y-64135000D03*
X73747000Y-66675000D03*
X71207000Y-64135000D03*
X71207000Y-66675000D03*
X68667000Y-64135000D03*
X68667000Y-66675000D03*
X66127000Y-64135000D03*
G36*
G01*
X65277000Y-65675000D02*
X66977000Y-65675000D01*
G75*
G02*
X67127000Y-65825000I0J-150000D01*
G01*
X67127000Y-67525000D01*
G75*
G02*
X66977000Y-67675000I-150000J0D01*
G01*
X65277000Y-67675000D01*
G75*
G02*
X65127000Y-67525000I0J150000D01*
G01*
X65127000Y-65825000D01*
G75*
G02*
X65277000Y-65675000I150000J0D01*
G01*
G37*
%TD*%
%TO.C,CN2*%
G36*
G01*
X133689000Y-47195700D02*
X133689000Y-46784300D01*
G75*
G02*
X134033300Y-46440000I344300J0D01*
G01*
X134444700Y-46440000D01*
G75*
G02*
X134789000Y-46784300I0J-344300D01*
G01*
X134789000Y-47195700D01*
G75*
G02*
X134444700Y-47540000I-344300J0D01*
G01*
X134033300Y-47540000D01*
G75*
G02*
X133689000Y-47195700I0J344300D01*
G01*
G37*
D15*
X130489000Y-46240000D03*
D16*
X133239000Y-47567500D03*
X134239000Y-48145000D03*
X133239000Y-48722500D03*
X134239000Y-49300000D03*
X133239000Y-49877500D03*
X134239000Y-50455000D03*
X133239000Y-51032500D03*
X134239000Y-51610000D03*
X133239000Y-52187500D03*
X134239000Y-52765000D03*
X133239000Y-53342500D03*
X134239000Y-53920000D03*
X133239000Y-54497500D03*
X134239000Y-55075000D03*
X133239000Y-55652500D03*
X134239000Y-56230000D03*
X133239000Y-56807500D03*
X134239000Y-57385000D03*
D15*
X136989000Y-48840000D03*
X136989000Y-58340000D03*
X130489000Y-55240000D03*
D17*
X135239000Y-45090000D03*
X131739000Y-58340000D03*
%TD*%
D11*
%TO.C,BT3*%
X66040000Y-59055000D03*
G36*
G01*
X65040000Y-57365000D02*
X65040000Y-55665000D01*
G75*
G02*
X65190000Y-55515000I150000J0D01*
G01*
X66890000Y-55515000D01*
G75*
G02*
X67040000Y-55665000I0J-150000D01*
G01*
X67040000Y-57365000D01*
G75*
G02*
X66890000Y-57515000I-150000J0D01*
G01*
X65190000Y-57515000D01*
G75*
G02*
X65040000Y-57365000I0J150000D01*
G01*
G37*
%TD*%
%TO.C,BT2*%
X68580000Y-59055000D03*
G36*
G01*
X67580000Y-57365000D02*
X67580000Y-55665000D01*
G75*
G02*
X67730000Y-55515000I150000J0D01*
G01*
X69430000Y-55515000D01*
G75*
G02*
X69580000Y-55665000I0J-150000D01*
G01*
X69580000Y-57365000D01*
G75*
G02*
X69430000Y-57515000I-150000J0D01*
G01*
X67730000Y-57515000D01*
G75*
G02*
X67580000Y-57365000I0J150000D01*
G01*
G37*
%TD*%
%TO.C,BT1*%
X71120000Y-59055000D03*
G36*
G01*
X70120000Y-57365000D02*
X70120000Y-55665000D01*
G75*
G02*
X70270000Y-55515000I150000J0D01*
G01*
X71970000Y-55515000D01*
G75*
G02*
X72120000Y-55665000I0J-150000D01*
G01*
X72120000Y-57365000D01*
G75*
G02*
X71970000Y-57515000I-150000J0D01*
G01*
X70270000Y-57515000D01*
G75*
G02*
X70120000Y-57365000I0J150000D01*
G01*
G37*
%TD*%
D18*
%TO.C,H4*%
X90297000Y-132740400D03*
D16*
X90297000Y-134615400D03*
X88971175Y-134066225D03*
X88422000Y-132740400D03*
X88971175Y-131414575D03*
X90297000Y-130865400D03*
X91622825Y-131414575D03*
X92172000Y-132740400D03*
X91622825Y-134066225D03*
%TD*%
D18*
%TO.C,H2*%
X116127000Y-66942000D03*
D16*
X118002000Y-66942000D03*
X117452825Y-68267825D03*
X116127000Y-68817000D03*
X114801175Y-68267825D03*
X114252000Y-66942000D03*
X114801175Y-65616175D03*
X116127000Y-65067000D03*
X117452825Y-65616175D03*
%TD*%
D18*
%TO.C,H3*%
X90297000Y-74701400D03*
D16*
X90297000Y-76576400D03*
X88971175Y-76027225D03*
X88422000Y-74701400D03*
X88971175Y-73375575D03*
X90297000Y-72826400D03*
X91622825Y-73375575D03*
X92172000Y-74701400D03*
X91622825Y-76027225D03*
%TD*%
%TO.C,H1*%
X57452825Y-57616175D03*
X56127000Y-57067000D03*
X54801175Y-57616175D03*
X54252000Y-58942000D03*
X54801175Y-60267825D03*
X56127000Y-60817000D03*
X57452825Y-60267825D03*
X58002000Y-58942000D03*
D18*
X56127000Y-58942000D03*
%TD*%
D11*
%TO.C,Pi0*%
X66040000Y-79679800D03*
X68580000Y-79679800D03*
X66040000Y-82219800D03*
X68580000Y-82219800D03*
X66040000Y-84759800D03*
X68580000Y-84759800D03*
X66040000Y-87299800D03*
X68580000Y-87299800D03*
X66040000Y-89839800D03*
X68580000Y-89839800D03*
X66040000Y-92379800D03*
X68580000Y-92379800D03*
X66040000Y-94919800D03*
X68580000Y-94919800D03*
X66040000Y-97459800D03*
X68580000Y-97459800D03*
X66040000Y-99999800D03*
X68580000Y-99999800D03*
X66040000Y-102539800D03*
X68580000Y-102539800D03*
X66040000Y-105079800D03*
X68580000Y-105079800D03*
X66040000Y-107619800D03*
X68580000Y-107619800D03*
X66040000Y-110159800D03*
X68580000Y-110159800D03*
X66040000Y-112699800D03*
X68580000Y-112699800D03*
X66040000Y-115239800D03*
X68580000Y-115239800D03*
X66040000Y-117779800D03*
X68580000Y-117779800D03*
X66040000Y-120319800D03*
X68580000Y-120319800D03*
X66040000Y-122859800D03*
X68580000Y-122859800D03*
X66040000Y-125399800D03*
X68580000Y-125399800D03*
X66040000Y-127939800D03*
G36*
G01*
X67580000Y-128789800D02*
X67580000Y-127089800D01*
G75*
G02*
X67730000Y-126939800I150000J0D01*
G01*
X69430000Y-126939800D01*
G75*
G02*
X69580000Y-127089800I0J-150000D01*
G01*
X69580000Y-128789800D01*
G75*
G02*
X69430000Y-128939800I-150000J0D01*
G01*
X67730000Y-128939800D01*
G75*
G02*
X67580000Y-128789800I0J150000D01*
G01*
G37*
%TD*%
M02*
