%TF.GenerationSoftware,KiCad,Pcbnew,(5.1.12)-1*%
%TF.CreationDate,2022-03-08T20:35:16+00:00*%
%TF.ProjectId,RGBtoHDMI CDTV v2,52474274-6f48-4444-9d49-204344545620,1*%
%TF.SameCoordinates,Original*%
%TF.FileFunction,Legend,Bot*%
%TF.FilePolarity,Positive*%
%FSLAX46Y46*%
G04 Gerber Fmt 4.6, Leading zero omitted, Abs format (unit mm)*
G04 Created by KiCad (PCBNEW (5.1.12)-1) date 2022-03-08 20:35:16*
%MOMM*%
%LPD*%
G01*
G04 APERTURE LIST*
%ADD10C,0.100000*%
%ADD11C,0.150000*%
%ADD12C,0.075000*%
%ADD13C,0.300000*%
%ADD14C,0.120000*%
%ADD15C,0.254000*%
%ADD16C,0.152000*%
G04 APERTURE END LIST*
D10*
X106503428Y-127373000D02*
X106532000Y-127344428D01*
X106589142Y-127258714D01*
X106617714Y-127201571D01*
X106646285Y-127115857D01*
X106674857Y-126973000D01*
X106674857Y-126858714D01*
X106646285Y-126715857D01*
X106617714Y-126630142D01*
X106589142Y-126573000D01*
X106532000Y-126487285D01*
X106503428Y-126458714D01*
X106074857Y-126830142D02*
X105989142Y-126858714D01*
X105960571Y-126887285D01*
X105932000Y-126944428D01*
X105932000Y-127030142D01*
X105960571Y-127087285D01*
X105989142Y-127115857D01*
X106046285Y-127144428D01*
X106274857Y-127144428D01*
X106274857Y-126544428D01*
X106074857Y-126544428D01*
X106017714Y-126573000D01*
X105989142Y-126601571D01*
X105960571Y-126658714D01*
X105960571Y-126715857D01*
X105989142Y-126773000D01*
X106017714Y-126801571D01*
X106074857Y-126830142D01*
X106274857Y-126830142D01*
X105589142Y-127144428D02*
X105646285Y-127115857D01*
X105674857Y-127087285D01*
X105703428Y-127030142D01*
X105703428Y-126858714D01*
X105674857Y-126801571D01*
X105646285Y-126773000D01*
X105589142Y-126744428D01*
X105503428Y-126744428D01*
X105446285Y-126773000D01*
X105417714Y-126801571D01*
X105389142Y-126858714D01*
X105389142Y-127030142D01*
X105417714Y-127087285D01*
X105446285Y-127115857D01*
X105503428Y-127144428D01*
X105589142Y-127144428D01*
X105217714Y-126744428D02*
X104989142Y-126744428D01*
X105132000Y-126544428D02*
X105132000Y-127058714D01*
X105103428Y-127115857D01*
X105046285Y-127144428D01*
X104989142Y-127144428D01*
X104874857Y-126744428D02*
X104646285Y-126744428D01*
X104789142Y-126544428D02*
X104789142Y-127058714D01*
X104760571Y-127115857D01*
X104703428Y-127144428D01*
X104646285Y-127144428D01*
X104360571Y-127144428D02*
X104417714Y-127115857D01*
X104446285Y-127087285D01*
X104474857Y-127030142D01*
X104474857Y-126858714D01*
X104446285Y-126801571D01*
X104417714Y-126773000D01*
X104360571Y-126744428D01*
X104274857Y-126744428D01*
X104217714Y-126773000D01*
X104189142Y-126801571D01*
X104160571Y-126858714D01*
X104160571Y-127030142D01*
X104189142Y-127087285D01*
X104217714Y-127115857D01*
X104274857Y-127144428D01*
X104360571Y-127144428D01*
X103903428Y-127144428D02*
X103903428Y-126744428D01*
X103903428Y-126801571D02*
X103874857Y-126773000D01*
X103817714Y-126744428D01*
X103732000Y-126744428D01*
X103674857Y-126773000D01*
X103646285Y-126830142D01*
X103646285Y-127144428D01*
X103646285Y-126830142D02*
X103617714Y-126773000D01*
X103560571Y-126744428D01*
X103474857Y-126744428D01*
X103417714Y-126773000D01*
X103389142Y-126830142D01*
X103389142Y-127144428D01*
X102732000Y-126544428D02*
X102532000Y-127144428D01*
X102332000Y-126544428D01*
X102132000Y-127144428D02*
X102132000Y-126744428D01*
X102132000Y-126544428D02*
X102160571Y-126573000D01*
X102132000Y-126601571D01*
X102103428Y-126573000D01*
X102132000Y-126544428D01*
X102132000Y-126601571D01*
X101617714Y-127115857D02*
X101674857Y-127144428D01*
X101789142Y-127144428D01*
X101846285Y-127115857D01*
X101874857Y-127058714D01*
X101874857Y-126830142D01*
X101846285Y-126773000D01*
X101789142Y-126744428D01*
X101674857Y-126744428D01*
X101617714Y-126773000D01*
X101589142Y-126830142D01*
X101589142Y-126887285D01*
X101874857Y-126944428D01*
X101389142Y-126744428D02*
X101274857Y-127144428D01*
X101160571Y-126858714D01*
X101046285Y-127144428D01*
X100932000Y-126744428D01*
X100760571Y-127373000D02*
X100732000Y-127344428D01*
X100674857Y-127258714D01*
X100646285Y-127201571D01*
X100617714Y-127115857D01*
X100589142Y-126973000D01*
X100589142Y-126858714D01*
X100617714Y-126715857D01*
X100646285Y-126630142D01*
X100674857Y-126573000D01*
X100732000Y-126487285D01*
X100760571Y-126458714D01*
D11*
X86050428Y-143272095D02*
X86050428Y-144034000D01*
X86431380Y-145034000D02*
X86431380Y-144462571D01*
X86431380Y-144748285D02*
X85431380Y-144748285D01*
X85574238Y-144653047D01*
X85669476Y-144557809D01*
X85717095Y-144462571D01*
X85526619Y-145414952D02*
X85479000Y-145462571D01*
X85431380Y-145557809D01*
X85431380Y-145795904D01*
X85479000Y-145891142D01*
X85526619Y-145938761D01*
X85621857Y-145986380D01*
X85717095Y-145986380D01*
X85859952Y-145938761D01*
X86431380Y-145367333D01*
X86431380Y-145986380D01*
X85431380Y-146272095D02*
X86431380Y-146605428D01*
X85431380Y-146938761D01*
X83573928Y-143272095D02*
X83573928Y-144034000D01*
X83954880Y-143653047D02*
X83192976Y-143653047D01*
X83954880Y-145034000D02*
X83954880Y-144462571D01*
X83954880Y-144748285D02*
X82954880Y-144748285D01*
X83097738Y-144653047D01*
X83192976Y-144557809D01*
X83240595Y-144462571D01*
X83050119Y-145414952D02*
X83002500Y-145462571D01*
X82954880Y-145557809D01*
X82954880Y-145795904D01*
X83002500Y-145891142D01*
X83050119Y-145938761D01*
X83145357Y-145986380D01*
X83240595Y-145986380D01*
X83383452Y-145938761D01*
X83954880Y-145367333D01*
X83954880Y-145986380D01*
X82954880Y-146272095D02*
X83954880Y-146605428D01*
X82954880Y-146938761D01*
X81033928Y-143938785D02*
X81033928Y-144700690D01*
X81414880Y-144319738D02*
X80652976Y-144319738D01*
X80414880Y-145653071D02*
X80414880Y-145176880D01*
X80891071Y-145129261D01*
X80843452Y-145176880D01*
X80795833Y-145272119D01*
X80795833Y-145510214D01*
X80843452Y-145605452D01*
X80891071Y-145653071D01*
X80986309Y-145700690D01*
X81224404Y-145700690D01*
X81319642Y-145653071D01*
X81367261Y-145605452D01*
X81414880Y-145510214D01*
X81414880Y-145272119D01*
X81367261Y-145176880D01*
X81319642Y-145129261D01*
X80414880Y-145986404D02*
X81414880Y-146319738D01*
X80414880Y-146653071D01*
D10*
X135204142Y-118092571D02*
X135175571Y-118064000D01*
X135118428Y-118035428D01*
X134975571Y-118035428D01*
X134918428Y-118064000D01*
X134889857Y-118092571D01*
X134861285Y-118149714D01*
X134861285Y-118206857D01*
X134889857Y-118292571D01*
X135232714Y-118635428D01*
X134861285Y-118635428D01*
X134489857Y-118035428D02*
X134432714Y-118035428D01*
X134375571Y-118064000D01*
X134347000Y-118092571D01*
X134318428Y-118149714D01*
X134289857Y-118264000D01*
X134289857Y-118406857D01*
X134318428Y-118521142D01*
X134347000Y-118578285D01*
X134375571Y-118606857D01*
X134432714Y-118635428D01*
X134489857Y-118635428D01*
X134547000Y-118606857D01*
X134575571Y-118578285D01*
X134604142Y-118521142D01*
X134632714Y-118406857D01*
X134632714Y-118264000D01*
X134604142Y-118149714D01*
X134575571Y-118092571D01*
X134547000Y-118064000D01*
X134489857Y-118035428D01*
X134575571Y-130065428D02*
X134918428Y-130065428D01*
X134747000Y-130065428D02*
X134747000Y-129465428D01*
X134804142Y-129551142D01*
X134861285Y-129608285D01*
X134918428Y-129636857D01*
X110387523Y-115878857D02*
X110654190Y-115878857D01*
X110654190Y-116297904D02*
X110654190Y-115497904D01*
X110273238Y-115497904D01*
X109968476Y-116297904D02*
X109968476Y-115497904D01*
X109663714Y-115497904D01*
X109587523Y-115536000D01*
X109549428Y-115574095D01*
X109511333Y-115650285D01*
X109511333Y-115764571D01*
X109549428Y-115840761D01*
X109587523Y-115878857D01*
X109663714Y-115916952D01*
X109968476Y-115916952D01*
X109282761Y-115497904D02*
X109016095Y-116297904D01*
X108749428Y-115497904D01*
X107606571Y-115878857D02*
X107873238Y-115878857D01*
X107873238Y-116297904D02*
X107873238Y-115497904D01*
X107492285Y-115497904D01*
X106920857Y-115878857D02*
X107187523Y-115878857D01*
X107187523Y-116297904D02*
X107187523Y-115497904D01*
X106806571Y-115497904D01*
X106044666Y-116221714D02*
X106082761Y-116259809D01*
X106197047Y-116297904D01*
X106273238Y-116297904D01*
X106387523Y-116259809D01*
X106463714Y-116183619D01*
X106501809Y-116107428D01*
X106539904Y-115955047D01*
X106539904Y-115840761D01*
X106501809Y-115688380D01*
X106463714Y-115612190D01*
X106387523Y-115536000D01*
X106273238Y-115497904D01*
X106197047Y-115497904D01*
X106082761Y-115536000D01*
X106044666Y-115574095D01*
X104939904Y-115497904D02*
X104863714Y-115497904D01*
X104787523Y-115536000D01*
X104749428Y-115574095D01*
X104711333Y-115650285D01*
X104673238Y-115802666D01*
X104673238Y-115993142D01*
X104711333Y-116145523D01*
X104749428Y-116221714D01*
X104787523Y-116259809D01*
X104863714Y-116297904D01*
X104939904Y-116297904D01*
X105016095Y-116259809D01*
X105054190Y-116221714D01*
X105092285Y-116145523D01*
X105130380Y-115993142D01*
X105130380Y-115802666D01*
X105092285Y-115650285D01*
X105054190Y-115574095D01*
X105016095Y-115536000D01*
X104939904Y-115497904D01*
X104330380Y-116221714D02*
X104292285Y-116259809D01*
X104330380Y-116297904D01*
X104368476Y-116259809D01*
X104330380Y-116221714D01*
X104330380Y-116297904D01*
X103568476Y-115497904D02*
X103949428Y-115497904D01*
X103987523Y-115878857D01*
X103949428Y-115840761D01*
X103873238Y-115802666D01*
X103682761Y-115802666D01*
X103606571Y-115840761D01*
X103568476Y-115878857D01*
X103530380Y-115955047D01*
X103530380Y-116145523D01*
X103568476Y-116221714D01*
X103606571Y-116259809D01*
X103682761Y-116297904D01*
X103873238Y-116297904D01*
X103949428Y-116259809D01*
X103987523Y-116221714D01*
X103187523Y-116297904D02*
X103187523Y-115764571D01*
X103187523Y-115840761D02*
X103149428Y-115802666D01*
X103073238Y-115764571D01*
X102958952Y-115764571D01*
X102882761Y-115802666D01*
X102844666Y-115878857D01*
X102844666Y-116297904D01*
X102844666Y-115878857D02*
X102806571Y-115802666D01*
X102730380Y-115764571D01*
X102616095Y-115764571D01*
X102539904Y-115802666D01*
X102501809Y-115878857D01*
X102501809Y-116297904D01*
X102120857Y-116297904D02*
X102120857Y-115764571D01*
X102120857Y-115840761D02*
X102082761Y-115802666D01*
X102006571Y-115764571D01*
X101892285Y-115764571D01*
X101816095Y-115802666D01*
X101778000Y-115878857D01*
X101778000Y-116297904D01*
X101778000Y-115878857D02*
X101739904Y-115802666D01*
X101663714Y-115764571D01*
X101549428Y-115764571D01*
X101473238Y-115802666D01*
X101435142Y-115878857D01*
X101435142Y-116297904D01*
X100482761Y-115574095D02*
X100444666Y-115536000D01*
X100368476Y-115497904D01*
X100178000Y-115497904D01*
X100101809Y-115536000D01*
X100063714Y-115574095D01*
X100025619Y-115650285D01*
X100025619Y-115726476D01*
X100063714Y-115840761D01*
X100520857Y-116297904D01*
X100025619Y-116297904D01*
X99530380Y-115497904D02*
X99454190Y-115497904D01*
X99378000Y-115536000D01*
X99339904Y-115574095D01*
X99301809Y-115650285D01*
X99263714Y-115802666D01*
X99263714Y-115993142D01*
X99301809Y-116145523D01*
X99339904Y-116221714D01*
X99378000Y-116259809D01*
X99454190Y-116297904D01*
X99530380Y-116297904D01*
X99606571Y-116259809D01*
X99644666Y-116221714D01*
X99682761Y-116145523D01*
X99720857Y-115993142D01*
X99720857Y-115802666D01*
X99682761Y-115650285D01*
X99644666Y-115574095D01*
X99606571Y-115536000D01*
X99530380Y-115497904D01*
X98920857Y-115993142D02*
X98311333Y-115993142D01*
X97930380Y-115764571D02*
X97930380Y-116564571D01*
X97930380Y-115802666D02*
X97854190Y-115764571D01*
X97701809Y-115764571D01*
X97625619Y-115802666D01*
X97587523Y-115840761D01*
X97549428Y-115916952D01*
X97549428Y-116145523D01*
X97587523Y-116221714D01*
X97625619Y-116259809D01*
X97701809Y-116297904D01*
X97854190Y-116297904D01*
X97930380Y-116259809D01*
X97206571Y-116297904D02*
X97206571Y-115764571D01*
X97206571Y-115497904D02*
X97244666Y-115536000D01*
X97206571Y-115574095D01*
X97168476Y-115536000D01*
X97206571Y-115497904D01*
X97206571Y-115574095D01*
X96825619Y-115764571D02*
X96825619Y-116297904D01*
X96825619Y-115840761D02*
X96787523Y-115802666D01*
X96711333Y-115764571D01*
X96597047Y-115764571D01*
X96520857Y-115802666D01*
X96482761Y-115878857D01*
X96482761Y-116297904D01*
X96063714Y-116259809D02*
X96063714Y-116297904D01*
X96101809Y-116374095D01*
X96139904Y-116412190D01*
X107873238Y-117559809D02*
X107949428Y-117597904D01*
X108101809Y-117597904D01*
X108178000Y-117559809D01*
X108216095Y-117521714D01*
X108254190Y-117445523D01*
X108254190Y-117216952D01*
X108216095Y-117140761D01*
X108178000Y-117102666D01*
X108101809Y-117064571D01*
X107949428Y-117064571D01*
X107873238Y-117102666D01*
X107416095Y-117597904D02*
X107492285Y-117559809D01*
X107530380Y-117521714D01*
X107568476Y-117445523D01*
X107568476Y-117216952D01*
X107530380Y-117140761D01*
X107492285Y-117102666D01*
X107416095Y-117064571D01*
X107301809Y-117064571D01*
X107225619Y-117102666D01*
X107187523Y-117140761D01*
X107149428Y-117216952D01*
X107149428Y-117445523D01*
X107187523Y-117521714D01*
X107225619Y-117559809D01*
X107301809Y-117597904D01*
X107416095Y-117597904D01*
X106806571Y-117064571D02*
X106806571Y-117597904D01*
X106806571Y-117140761D02*
X106768476Y-117102666D01*
X106692285Y-117064571D01*
X106578000Y-117064571D01*
X106501809Y-117102666D01*
X106463714Y-117178857D01*
X106463714Y-117597904D01*
X106197047Y-117064571D02*
X105892285Y-117064571D01*
X106082761Y-116797904D02*
X106082761Y-117483619D01*
X106044666Y-117559809D01*
X105968476Y-117597904D01*
X105892285Y-117597904D01*
X105282761Y-117597904D02*
X105282761Y-117178857D01*
X105320857Y-117102666D01*
X105397047Y-117064571D01*
X105549428Y-117064571D01*
X105625619Y-117102666D01*
X105282761Y-117559809D02*
X105358952Y-117597904D01*
X105549428Y-117597904D01*
X105625619Y-117559809D01*
X105663714Y-117483619D01*
X105663714Y-117407428D01*
X105625619Y-117331238D01*
X105549428Y-117293142D01*
X105358952Y-117293142D01*
X105282761Y-117255047D01*
X104558952Y-117559809D02*
X104635142Y-117597904D01*
X104787523Y-117597904D01*
X104863714Y-117559809D01*
X104901809Y-117521714D01*
X104939904Y-117445523D01*
X104939904Y-117216952D01*
X104901809Y-117140761D01*
X104863714Y-117102666D01*
X104787523Y-117064571D01*
X104635142Y-117064571D01*
X104558952Y-117102666D01*
X104330380Y-117064571D02*
X104025619Y-117064571D01*
X104216095Y-116797904D02*
X104216095Y-117483619D01*
X104178000Y-117559809D01*
X104101809Y-117597904D01*
X104025619Y-117597904D01*
X103797047Y-117559809D02*
X103720857Y-117597904D01*
X103568476Y-117597904D01*
X103492285Y-117559809D01*
X103454190Y-117483619D01*
X103454190Y-117445523D01*
X103492285Y-117369333D01*
X103568476Y-117331238D01*
X103682761Y-117331238D01*
X103758952Y-117293142D01*
X103797047Y-117216952D01*
X103797047Y-117178857D01*
X103758952Y-117102666D01*
X103682761Y-117064571D01*
X103568476Y-117064571D01*
X103492285Y-117102666D01*
X102387523Y-117597904D02*
X102463714Y-117559809D01*
X102501809Y-117521714D01*
X102539904Y-117445523D01*
X102539904Y-117216952D01*
X102501809Y-117140761D01*
X102463714Y-117102666D01*
X102387523Y-117064571D01*
X102273238Y-117064571D01*
X102197047Y-117102666D01*
X102158952Y-117140761D01*
X102120857Y-117216952D01*
X102120857Y-117445523D01*
X102158952Y-117521714D01*
X102197047Y-117559809D01*
X102273238Y-117597904D01*
X102387523Y-117597904D01*
X101778000Y-117064571D02*
X101778000Y-117597904D01*
X101778000Y-117140761D02*
X101739904Y-117102666D01*
X101663714Y-117064571D01*
X101549428Y-117064571D01*
X101473238Y-117102666D01*
X101435142Y-117178857D01*
X101435142Y-117597904D01*
X100558952Y-117064571D02*
X100254190Y-117064571D01*
X100444666Y-116797904D02*
X100444666Y-117483619D01*
X100406571Y-117559809D01*
X100330380Y-117597904D01*
X100254190Y-117597904D01*
X99873238Y-117597904D02*
X99949428Y-117559809D01*
X99987523Y-117521714D01*
X100025619Y-117445523D01*
X100025619Y-117216952D01*
X99987523Y-117140761D01*
X99949428Y-117102666D01*
X99873238Y-117064571D01*
X99758952Y-117064571D01*
X99682761Y-117102666D01*
X99644666Y-117140761D01*
X99606571Y-117216952D01*
X99606571Y-117445523D01*
X99644666Y-117521714D01*
X99682761Y-117559809D01*
X99758952Y-117597904D01*
X99873238Y-117597904D01*
X99263714Y-117064571D02*
X99263714Y-117864571D01*
X99263714Y-117102666D02*
X99187523Y-117064571D01*
X99035142Y-117064571D01*
X98958952Y-117102666D01*
X98920857Y-117140761D01*
X98882761Y-117216952D01*
X98882761Y-117445523D01*
X98920857Y-117521714D01*
X98958952Y-117559809D01*
X99035142Y-117597904D01*
X99187523Y-117597904D01*
X99263714Y-117559809D01*
X98539904Y-117521714D02*
X98501809Y-117559809D01*
X98539904Y-117597904D01*
X98578000Y-117559809D01*
X98539904Y-117521714D01*
X98539904Y-117597904D01*
D12*
X96901000Y-123571000D02*
X96774000Y-123317000D01*
X96774000Y-123317000D02*
X97917000Y-123317000D01*
X97917000Y-123571000D02*
X97917000Y-123317000D01*
X95631000Y-123571000D02*
X96901000Y-123571000D01*
X94615000Y-123317000D02*
X95758000Y-123317000D01*
X95631000Y-123571000D02*
X95758000Y-123317000D01*
X94615000Y-123571000D02*
X94615000Y-123317000D01*
X97917000Y-123571000D02*
X99060000Y-123571000D01*
X93345000Y-123571000D02*
X94615000Y-123571000D01*
X99060000Y-126619000D02*
X99060000Y-120650000D01*
D13*
X125095000Y-123190000D02*
X126365000Y-123825000D01*
X125095000Y-124460000D02*
X126365000Y-123825000D01*
X108204000Y-123825000D02*
X109474000Y-123190000D01*
X108204000Y-123825000D02*
X109474000Y-124460000D01*
X108204000Y-123825000D02*
X125984000Y-123825000D01*
D14*
X107188000Y-127254000D02*
G75*
G02*
X106553000Y-127889000I-635000J0D01*
G01*
X106553000Y-119380000D02*
G75*
G02*
X107188000Y-120015000I0J-635000D01*
G01*
X99695000Y-120015000D02*
G75*
G02*
X100330000Y-119380000I635000J0D01*
G01*
X100330000Y-127889000D02*
G75*
G02*
X99695000Y-127254000I0J635000D01*
G01*
D10*
X106006600Y-129071857D02*
X106273266Y-129071857D01*
X106273266Y-129490904D02*
X106273266Y-128690904D01*
X105892314Y-128690904D01*
X105587552Y-129490904D02*
X105587552Y-128690904D01*
X105282790Y-128690904D01*
X105206600Y-128729000D01*
X105168504Y-128767095D01*
X105130409Y-128843285D01*
X105130409Y-128957571D01*
X105168504Y-129033761D01*
X105206600Y-129071857D01*
X105282790Y-129109952D01*
X105587552Y-129109952D01*
X104901838Y-128690904D02*
X104635171Y-129490904D01*
X104368504Y-128690904D01*
X103492314Y-129490904D02*
X103492314Y-128690904D01*
X103492314Y-129071857D02*
X103035171Y-129071857D01*
X103035171Y-129490904D02*
X103035171Y-128690904D01*
X102654219Y-129490904D02*
X102654219Y-128690904D01*
X102463742Y-128690904D01*
X102349457Y-128729000D01*
X102273266Y-128805190D01*
X102235171Y-128881380D01*
X102197076Y-129033761D01*
X102197076Y-129148047D01*
X102235171Y-129300428D01*
X102273266Y-129376619D01*
X102349457Y-129452809D01*
X102463742Y-129490904D01*
X102654219Y-129490904D01*
X101854219Y-129490904D02*
X101854219Y-128690904D01*
X101587552Y-129262333D01*
X101320885Y-128690904D01*
X101320885Y-129490904D01*
X100939933Y-129490904D02*
X100939933Y-128690904D01*
X105930409Y-129990904D02*
X105473266Y-129990904D01*
X105701838Y-130790904D02*
X105701838Y-129990904D01*
X105282790Y-130257571D02*
X105092314Y-130790904D01*
X104901838Y-130257571D02*
X105092314Y-130790904D01*
X105168504Y-130981380D01*
X105206600Y-131019476D01*
X105282790Y-131057571D01*
X104597076Y-130257571D02*
X104597076Y-131057571D01*
X104597076Y-130295666D02*
X104520885Y-130257571D01*
X104368504Y-130257571D01*
X104292314Y-130295666D01*
X104254219Y-130333761D01*
X104216123Y-130409952D01*
X104216123Y-130638523D01*
X104254219Y-130714714D01*
X104292314Y-130752809D01*
X104368504Y-130790904D01*
X104520885Y-130790904D01*
X104597076Y-130752809D01*
X103568504Y-130752809D02*
X103644695Y-130790904D01*
X103797076Y-130790904D01*
X103873266Y-130752809D01*
X103911361Y-130676619D01*
X103911361Y-130371857D01*
X103873266Y-130295666D01*
X103797076Y-130257571D01*
X103644695Y-130257571D01*
X103568504Y-130295666D01*
X103530409Y-130371857D01*
X103530409Y-130448047D01*
X103911361Y-130524238D01*
X102120885Y-130714714D02*
X102158980Y-130752809D01*
X102273266Y-130790904D01*
X102349457Y-130790904D01*
X102463742Y-130752809D01*
X102539933Y-130676619D01*
X102578028Y-130600428D01*
X102616123Y-130448047D01*
X102616123Y-130333761D01*
X102578028Y-130181380D01*
X102539933Y-130105190D01*
X102463742Y-130029000D01*
X102349457Y-129990904D01*
X102273266Y-129990904D01*
X102158980Y-130029000D01*
X102120885Y-130067095D01*
X101358980Y-130790904D02*
X101816123Y-130790904D01*
X101587552Y-130790904D02*
X101587552Y-129990904D01*
X101663742Y-130105190D01*
X101739933Y-130181380D01*
X101816123Y-130219476D01*
X106692314Y-132395666D02*
X106730409Y-132357571D01*
X106806600Y-132243285D01*
X106844695Y-132167095D01*
X106882790Y-132052809D01*
X106920885Y-131862333D01*
X106920885Y-131709952D01*
X106882790Y-131519476D01*
X106844695Y-131405190D01*
X106806600Y-131329000D01*
X106730409Y-131214714D01*
X106692314Y-131176619D01*
X106387552Y-132090904D02*
X106387552Y-131290904D01*
X106120885Y-131862333D01*
X105854219Y-131290904D01*
X105854219Y-132090904D01*
X105473266Y-132090904D02*
X105473266Y-131557571D01*
X105473266Y-131290904D02*
X105511361Y-131329000D01*
X105473266Y-131367095D01*
X105435171Y-131329000D01*
X105473266Y-131290904D01*
X105473266Y-131367095D01*
X105092314Y-131557571D02*
X105092314Y-132090904D01*
X105092314Y-131633761D02*
X105054219Y-131595666D01*
X104978028Y-131557571D01*
X104863742Y-131557571D01*
X104787552Y-131595666D01*
X104749457Y-131671857D01*
X104749457Y-132090904D01*
X104368504Y-132090904D02*
X104368504Y-131557571D01*
X104368504Y-131290904D02*
X104406600Y-131329000D01*
X104368504Y-131367095D01*
X104330409Y-131329000D01*
X104368504Y-131290904D01*
X104368504Y-131367095D01*
X103378028Y-132090904D02*
X103378028Y-131290904D01*
X103378028Y-131671857D02*
X102920885Y-131671857D01*
X102920885Y-132090904D02*
X102920885Y-131290904D01*
X102539933Y-132090904D02*
X102539933Y-131290904D01*
X102349457Y-131290904D01*
X102235171Y-131329000D01*
X102158980Y-131405190D01*
X102120885Y-131481380D01*
X102082790Y-131633761D01*
X102082790Y-131748047D01*
X102120885Y-131900428D01*
X102158980Y-131976619D01*
X102235171Y-132052809D01*
X102349457Y-132090904D01*
X102539933Y-132090904D01*
X101739933Y-132090904D02*
X101739933Y-131290904D01*
X101473266Y-131862333D01*
X101206600Y-131290904D01*
X101206600Y-132090904D01*
X100825647Y-132090904D02*
X100825647Y-131290904D01*
X100520885Y-132395666D02*
X100482790Y-132357571D01*
X100406600Y-132243285D01*
X100368504Y-132167095D01*
X100330409Y-132052809D01*
X100292314Y-131862333D01*
X100292314Y-131709952D01*
X100330409Y-131519476D01*
X100368504Y-131405190D01*
X100406600Y-131329000D01*
X100482790Y-131214714D01*
X100520885Y-131176619D01*
D12*
X93345000Y-126238000D02*
X99695000Y-126238000D01*
X93345000Y-121158000D02*
X99695000Y-121158000D01*
D14*
X107188000Y-127254000D02*
X107188000Y-120015000D01*
X100330000Y-119380000D02*
X106553000Y-119380000D01*
X106553000Y-127889000D02*
X100330000Y-127889000D01*
D13*
X99822000Y-121412000D02*
X100965000Y-121412000D01*
X99822000Y-121920000D02*
X100965000Y-121920000D01*
X99822000Y-122428000D02*
X100965000Y-122428000D01*
X99822000Y-122936000D02*
X100965000Y-122936000D01*
X99822000Y-123444000D02*
X100965000Y-123444000D01*
X99822000Y-123952000D02*
X100965000Y-123952000D01*
X99822000Y-124460000D02*
X100965000Y-124460000D01*
X99822000Y-124968000D02*
X100965000Y-124968000D01*
X99822000Y-125476000D02*
X100965000Y-125476000D01*
X99822000Y-125984000D02*
X100965000Y-125984000D01*
D14*
X99695000Y-126619000D02*
X93345000Y-126619000D01*
X99695000Y-120015000D02*
X99695000Y-127254000D01*
X93345000Y-120650000D02*
X99695000Y-120650000D01*
X93345000Y-126619000D02*
X93345000Y-120650000D01*
D10*
X138581523Y-113719857D02*
X138848190Y-113719857D01*
X138848190Y-114138904D02*
X138848190Y-113338904D01*
X138467238Y-113338904D01*
X138162476Y-114138904D02*
X138162476Y-113338904D01*
X137857714Y-113338904D01*
X137781523Y-113377000D01*
X137743428Y-113415095D01*
X137705333Y-113491285D01*
X137705333Y-113605571D01*
X137743428Y-113681761D01*
X137781523Y-113719857D01*
X137857714Y-113757952D01*
X138162476Y-113757952D01*
X137476761Y-113338904D02*
X137210095Y-114138904D01*
X136943428Y-113338904D01*
X135800571Y-113719857D02*
X136067238Y-113719857D01*
X136067238Y-114138904D02*
X136067238Y-113338904D01*
X135686285Y-113338904D01*
X135114857Y-113719857D02*
X135381523Y-113719857D01*
X135381523Y-114138904D02*
X135381523Y-113338904D01*
X135000571Y-113338904D01*
X134238666Y-114062714D02*
X134276761Y-114100809D01*
X134391047Y-114138904D01*
X134467238Y-114138904D01*
X134581523Y-114100809D01*
X134657714Y-114024619D01*
X134695809Y-113948428D01*
X134733904Y-113796047D01*
X134733904Y-113681761D01*
X134695809Y-113529380D01*
X134657714Y-113453190D01*
X134581523Y-113377000D01*
X134467238Y-113338904D01*
X134391047Y-113338904D01*
X134276761Y-113377000D01*
X134238666Y-113415095D01*
X133133904Y-113338904D02*
X133057714Y-113338904D01*
X132981523Y-113377000D01*
X132943428Y-113415095D01*
X132905333Y-113491285D01*
X132867238Y-113643666D01*
X132867238Y-113834142D01*
X132905333Y-113986523D01*
X132943428Y-114062714D01*
X132981523Y-114100809D01*
X133057714Y-114138904D01*
X133133904Y-114138904D01*
X133210095Y-114100809D01*
X133248190Y-114062714D01*
X133286285Y-113986523D01*
X133324380Y-113834142D01*
X133324380Y-113643666D01*
X133286285Y-113491285D01*
X133248190Y-113415095D01*
X133210095Y-113377000D01*
X133133904Y-113338904D01*
X132524380Y-114062714D02*
X132486285Y-114100809D01*
X132524380Y-114138904D01*
X132562476Y-114100809D01*
X132524380Y-114062714D01*
X132524380Y-114138904D01*
X131762476Y-113338904D02*
X132143428Y-113338904D01*
X132181523Y-113719857D01*
X132143428Y-113681761D01*
X132067238Y-113643666D01*
X131876761Y-113643666D01*
X131800571Y-113681761D01*
X131762476Y-113719857D01*
X131724380Y-113796047D01*
X131724380Y-113986523D01*
X131762476Y-114062714D01*
X131800571Y-114100809D01*
X131876761Y-114138904D01*
X132067238Y-114138904D01*
X132143428Y-114100809D01*
X132181523Y-114062714D01*
X131381523Y-114138904D02*
X131381523Y-113605571D01*
X131381523Y-113681761D02*
X131343428Y-113643666D01*
X131267238Y-113605571D01*
X131152952Y-113605571D01*
X131076761Y-113643666D01*
X131038666Y-113719857D01*
X131038666Y-114138904D01*
X131038666Y-113719857D02*
X131000571Y-113643666D01*
X130924380Y-113605571D01*
X130810095Y-113605571D01*
X130733904Y-113643666D01*
X130695809Y-113719857D01*
X130695809Y-114138904D01*
X130314857Y-114138904D02*
X130314857Y-113605571D01*
X130314857Y-113681761D02*
X130276761Y-113643666D01*
X130200571Y-113605571D01*
X130086285Y-113605571D01*
X130010095Y-113643666D01*
X129972000Y-113719857D01*
X129972000Y-114138904D01*
X129972000Y-113719857D02*
X129933904Y-113643666D01*
X129857714Y-113605571D01*
X129743428Y-113605571D01*
X129667238Y-113643666D01*
X129629142Y-113719857D01*
X129629142Y-114138904D01*
X128676761Y-113415095D02*
X128638666Y-113377000D01*
X128562476Y-113338904D01*
X128372000Y-113338904D01*
X128295809Y-113377000D01*
X128257714Y-113415095D01*
X128219619Y-113491285D01*
X128219619Y-113567476D01*
X128257714Y-113681761D01*
X128714857Y-114138904D01*
X128219619Y-114138904D01*
X127724380Y-113338904D02*
X127648190Y-113338904D01*
X127572000Y-113377000D01*
X127533904Y-113415095D01*
X127495809Y-113491285D01*
X127457714Y-113643666D01*
X127457714Y-113834142D01*
X127495809Y-113986523D01*
X127533904Y-114062714D01*
X127572000Y-114100809D01*
X127648190Y-114138904D01*
X127724380Y-114138904D01*
X127800571Y-114100809D01*
X127838666Y-114062714D01*
X127876761Y-113986523D01*
X127914857Y-113834142D01*
X127914857Y-113643666D01*
X127876761Y-113491285D01*
X127838666Y-113415095D01*
X127800571Y-113377000D01*
X127724380Y-113338904D01*
X127114857Y-113834142D02*
X126505333Y-113834142D01*
X126124380Y-113605571D02*
X126124380Y-114405571D01*
X126124380Y-113643666D02*
X126048190Y-113605571D01*
X125895809Y-113605571D01*
X125819619Y-113643666D01*
X125781523Y-113681761D01*
X125743428Y-113757952D01*
X125743428Y-113986523D01*
X125781523Y-114062714D01*
X125819619Y-114100809D01*
X125895809Y-114138904D01*
X126048190Y-114138904D01*
X126124380Y-114100809D01*
X125400571Y-114138904D02*
X125400571Y-113605571D01*
X125400571Y-113338904D02*
X125438666Y-113377000D01*
X125400571Y-113415095D01*
X125362476Y-113377000D01*
X125400571Y-113338904D01*
X125400571Y-113415095D01*
X125019619Y-113605571D02*
X125019619Y-114138904D01*
X125019619Y-113681761D02*
X124981523Y-113643666D01*
X124905333Y-113605571D01*
X124791047Y-113605571D01*
X124714857Y-113643666D01*
X124676761Y-113719857D01*
X124676761Y-114138904D01*
X124257714Y-114100809D02*
X124257714Y-114138904D01*
X124295809Y-114215095D01*
X124333904Y-114253190D01*
X136067238Y-115400809D02*
X136143428Y-115438904D01*
X136295809Y-115438904D01*
X136372000Y-115400809D01*
X136410095Y-115362714D01*
X136448190Y-115286523D01*
X136448190Y-115057952D01*
X136410095Y-114981761D01*
X136372000Y-114943666D01*
X136295809Y-114905571D01*
X136143428Y-114905571D01*
X136067238Y-114943666D01*
X135610095Y-115438904D02*
X135686285Y-115400809D01*
X135724380Y-115362714D01*
X135762476Y-115286523D01*
X135762476Y-115057952D01*
X135724380Y-114981761D01*
X135686285Y-114943666D01*
X135610095Y-114905571D01*
X135495809Y-114905571D01*
X135419619Y-114943666D01*
X135381523Y-114981761D01*
X135343428Y-115057952D01*
X135343428Y-115286523D01*
X135381523Y-115362714D01*
X135419619Y-115400809D01*
X135495809Y-115438904D01*
X135610095Y-115438904D01*
X135000571Y-114905571D02*
X135000571Y-115438904D01*
X135000571Y-114981761D02*
X134962476Y-114943666D01*
X134886285Y-114905571D01*
X134772000Y-114905571D01*
X134695809Y-114943666D01*
X134657714Y-115019857D01*
X134657714Y-115438904D01*
X134391047Y-114905571D02*
X134086285Y-114905571D01*
X134276761Y-114638904D02*
X134276761Y-115324619D01*
X134238666Y-115400809D01*
X134162476Y-115438904D01*
X134086285Y-115438904D01*
X133476761Y-115438904D02*
X133476761Y-115019857D01*
X133514857Y-114943666D01*
X133591047Y-114905571D01*
X133743428Y-114905571D01*
X133819619Y-114943666D01*
X133476761Y-115400809D02*
X133552952Y-115438904D01*
X133743428Y-115438904D01*
X133819619Y-115400809D01*
X133857714Y-115324619D01*
X133857714Y-115248428D01*
X133819619Y-115172238D01*
X133743428Y-115134142D01*
X133552952Y-115134142D01*
X133476761Y-115096047D01*
X132752952Y-115400809D02*
X132829142Y-115438904D01*
X132981523Y-115438904D01*
X133057714Y-115400809D01*
X133095809Y-115362714D01*
X133133904Y-115286523D01*
X133133904Y-115057952D01*
X133095809Y-114981761D01*
X133057714Y-114943666D01*
X132981523Y-114905571D01*
X132829142Y-114905571D01*
X132752952Y-114943666D01*
X132524380Y-114905571D02*
X132219619Y-114905571D01*
X132410095Y-114638904D02*
X132410095Y-115324619D01*
X132372000Y-115400809D01*
X132295809Y-115438904D01*
X132219619Y-115438904D01*
X131991047Y-115400809D02*
X131914857Y-115438904D01*
X131762476Y-115438904D01*
X131686285Y-115400809D01*
X131648190Y-115324619D01*
X131648190Y-115286523D01*
X131686285Y-115210333D01*
X131762476Y-115172238D01*
X131876761Y-115172238D01*
X131952952Y-115134142D01*
X131991047Y-115057952D01*
X131991047Y-115019857D01*
X131952952Y-114943666D01*
X131876761Y-114905571D01*
X131762476Y-114905571D01*
X131686285Y-114943666D01*
X130581523Y-115438904D02*
X130657714Y-115400809D01*
X130695809Y-115362714D01*
X130733904Y-115286523D01*
X130733904Y-115057952D01*
X130695809Y-114981761D01*
X130657714Y-114943666D01*
X130581523Y-114905571D01*
X130467238Y-114905571D01*
X130391047Y-114943666D01*
X130352952Y-114981761D01*
X130314857Y-115057952D01*
X130314857Y-115286523D01*
X130352952Y-115362714D01*
X130391047Y-115400809D01*
X130467238Y-115438904D01*
X130581523Y-115438904D01*
X129972000Y-114905571D02*
X129972000Y-115438904D01*
X129972000Y-114981761D02*
X129933904Y-114943666D01*
X129857714Y-114905571D01*
X129743428Y-114905571D01*
X129667238Y-114943666D01*
X129629142Y-115019857D01*
X129629142Y-115438904D01*
X128752952Y-114905571D02*
X128448190Y-114905571D01*
X128638666Y-114638904D02*
X128638666Y-115324619D01*
X128600571Y-115400809D01*
X128524380Y-115438904D01*
X128448190Y-115438904D01*
X128067238Y-115438904D02*
X128143428Y-115400809D01*
X128181523Y-115362714D01*
X128219619Y-115286523D01*
X128219619Y-115057952D01*
X128181523Y-114981761D01*
X128143428Y-114943666D01*
X128067238Y-114905571D01*
X127952952Y-114905571D01*
X127876761Y-114943666D01*
X127838666Y-114981761D01*
X127800571Y-115057952D01*
X127800571Y-115286523D01*
X127838666Y-115362714D01*
X127876761Y-115400809D01*
X127952952Y-115438904D01*
X128067238Y-115438904D01*
X127457714Y-114905571D02*
X127457714Y-115705571D01*
X127457714Y-114943666D02*
X127381523Y-114905571D01*
X127229142Y-114905571D01*
X127152952Y-114943666D01*
X127114857Y-114981761D01*
X127076761Y-115057952D01*
X127076761Y-115286523D01*
X127114857Y-115362714D01*
X127152952Y-115400809D01*
X127229142Y-115438904D01*
X127381523Y-115438904D01*
X127457714Y-115400809D01*
X126733904Y-115362714D02*
X126695809Y-115400809D01*
X126733904Y-115438904D01*
X126772000Y-115400809D01*
X126733904Y-115362714D01*
X126733904Y-115438904D01*
X125671790Y-125363504D02*
X125671790Y-126011123D01*
X125633695Y-126087314D01*
X125595600Y-126125409D01*
X125519409Y-126163504D01*
X125367028Y-126163504D01*
X125290838Y-126125409D01*
X125252742Y-126087314D01*
X125214647Y-126011123D01*
X125214647Y-125363504D01*
X124871790Y-126125409D02*
X124795600Y-126163504D01*
X124643219Y-126163504D01*
X124567028Y-126125409D01*
X124528933Y-126049219D01*
X124528933Y-126011123D01*
X124567028Y-125934933D01*
X124643219Y-125896838D01*
X124757504Y-125896838D01*
X124833695Y-125858742D01*
X124871790Y-125782552D01*
X124871790Y-125744457D01*
X124833695Y-125668266D01*
X124757504Y-125630171D01*
X124643219Y-125630171D01*
X124567028Y-125668266D01*
X123881314Y-126125409D02*
X123957504Y-126163504D01*
X124109885Y-126163504D01*
X124186076Y-126125409D01*
X124224171Y-126049219D01*
X124224171Y-125744457D01*
X124186076Y-125668266D01*
X124109885Y-125630171D01*
X123957504Y-125630171D01*
X123881314Y-125668266D01*
X123843219Y-125744457D01*
X123843219Y-125820647D01*
X124224171Y-125896838D01*
X122928933Y-125439695D02*
X122890838Y-125401600D01*
X122814647Y-125363504D01*
X122624171Y-125363504D01*
X122547980Y-125401600D01*
X122509885Y-125439695D01*
X122471790Y-125515885D01*
X122471790Y-125592076D01*
X122509885Y-125706361D01*
X122967028Y-126163504D01*
X122471790Y-126163504D01*
X121976552Y-125363504D02*
X121900361Y-125363504D01*
X121824171Y-125401600D01*
X121786076Y-125439695D01*
X121747980Y-125515885D01*
X121709885Y-125668266D01*
X121709885Y-125858742D01*
X121747980Y-126011123D01*
X121786076Y-126087314D01*
X121824171Y-126125409D01*
X121900361Y-126163504D01*
X121976552Y-126163504D01*
X122052742Y-126125409D01*
X122090838Y-126087314D01*
X122128933Y-126011123D01*
X122167028Y-125858742D01*
X122167028Y-125668266D01*
X122128933Y-125515885D01*
X122090838Y-125439695D01*
X122052742Y-125401600D01*
X121976552Y-125363504D01*
X121367028Y-125858742D02*
X120757504Y-125858742D01*
X120376552Y-125630171D02*
X120376552Y-126430171D01*
X120376552Y-125668266D02*
X120300361Y-125630171D01*
X120147980Y-125630171D01*
X120071790Y-125668266D01*
X120033695Y-125706361D01*
X119995600Y-125782552D01*
X119995600Y-126011123D01*
X120033695Y-126087314D01*
X120071790Y-126125409D01*
X120147980Y-126163504D01*
X120300361Y-126163504D01*
X120376552Y-126125409D01*
X119652742Y-126163504D02*
X119652742Y-125630171D01*
X119652742Y-125363504D02*
X119690838Y-125401600D01*
X119652742Y-125439695D01*
X119614647Y-125401600D01*
X119652742Y-125363504D01*
X119652742Y-125439695D01*
X119271790Y-125630171D02*
X119271790Y-126163504D01*
X119271790Y-125706361D02*
X119233695Y-125668266D01*
X119157504Y-125630171D01*
X119043219Y-125630171D01*
X118967028Y-125668266D01*
X118928933Y-125744457D01*
X118928933Y-126163504D01*
X117786076Y-125363504D02*
X117709885Y-125363504D01*
X117633695Y-125401600D01*
X117595600Y-125439695D01*
X117557504Y-125515885D01*
X117519409Y-125668266D01*
X117519409Y-125858742D01*
X117557504Y-126011123D01*
X117595600Y-126087314D01*
X117633695Y-126125409D01*
X117709885Y-126163504D01*
X117786076Y-126163504D01*
X117862266Y-126125409D01*
X117900361Y-126087314D01*
X117938457Y-126011123D01*
X117976552Y-125858742D01*
X117976552Y-125668266D01*
X117938457Y-125515885D01*
X117900361Y-125439695D01*
X117862266Y-125401600D01*
X117786076Y-125363504D01*
X117176552Y-126087314D02*
X117138457Y-126125409D01*
X117176552Y-126163504D01*
X117214647Y-126125409D01*
X117176552Y-126087314D01*
X117176552Y-126163504D01*
X116414647Y-125363504D02*
X116795600Y-125363504D01*
X116833695Y-125744457D01*
X116795600Y-125706361D01*
X116719409Y-125668266D01*
X116528933Y-125668266D01*
X116452742Y-125706361D01*
X116414647Y-125744457D01*
X116376552Y-125820647D01*
X116376552Y-126011123D01*
X116414647Y-126087314D01*
X116452742Y-126125409D01*
X116528933Y-126163504D01*
X116719409Y-126163504D01*
X116795600Y-126125409D01*
X116833695Y-126087314D01*
X116033695Y-126163504D02*
X116033695Y-125630171D01*
X116033695Y-125706361D02*
X115995600Y-125668266D01*
X115919409Y-125630171D01*
X115805123Y-125630171D01*
X115728933Y-125668266D01*
X115690838Y-125744457D01*
X115690838Y-126163504D01*
X115690838Y-125744457D02*
X115652742Y-125668266D01*
X115576552Y-125630171D01*
X115462266Y-125630171D01*
X115386076Y-125668266D01*
X115347980Y-125744457D01*
X115347980Y-126163504D01*
X114967028Y-126163504D02*
X114967028Y-125630171D01*
X114967028Y-125706361D02*
X114928933Y-125668266D01*
X114852742Y-125630171D01*
X114738457Y-125630171D01*
X114662266Y-125668266D01*
X114624171Y-125744457D01*
X114624171Y-126163504D01*
X114624171Y-125744457D02*
X114586076Y-125668266D01*
X114509885Y-125630171D01*
X114395600Y-125630171D01*
X114319409Y-125668266D01*
X114281314Y-125744457D01*
X114281314Y-126163504D01*
X113024171Y-125744457D02*
X113290838Y-125744457D01*
X113290838Y-126163504D02*
X113290838Y-125363504D01*
X112909885Y-125363504D01*
X112605123Y-126163504D02*
X112605123Y-125363504D01*
X112300361Y-125363504D01*
X112224171Y-125401600D01*
X112186076Y-125439695D01*
X112147980Y-125515885D01*
X112147980Y-125630171D01*
X112186076Y-125706361D01*
X112224171Y-125744457D01*
X112300361Y-125782552D01*
X112605123Y-125782552D01*
X111919409Y-125363504D02*
X111652742Y-126163504D01*
X111386076Y-125363504D01*
X110243219Y-125744457D02*
X110509885Y-125744457D01*
X110509885Y-126163504D02*
X110509885Y-125363504D01*
X110128933Y-125363504D01*
X109557504Y-125744457D02*
X109824171Y-125744457D01*
X109824171Y-126163504D02*
X109824171Y-125363504D01*
X109443219Y-125363504D01*
X108681314Y-126087314D02*
X108719409Y-126125409D01*
X108833695Y-126163504D01*
X108909885Y-126163504D01*
X109024171Y-126125409D01*
X109100361Y-126049219D01*
X109138457Y-125973028D01*
X109176552Y-125820647D01*
X109176552Y-125706361D01*
X109138457Y-125553980D01*
X109100361Y-125477790D01*
X109024171Y-125401600D01*
X108909885Y-125363504D01*
X108833695Y-125363504D01*
X108719409Y-125401600D01*
X108681314Y-125439695D01*
X124509885Y-126930171D02*
X124205123Y-126930171D01*
X124395600Y-127463504D02*
X124395600Y-126777790D01*
X124357504Y-126701600D01*
X124281314Y-126663504D01*
X124205123Y-126663504D01*
X123824171Y-127463504D02*
X123900361Y-127425409D01*
X123938457Y-127349219D01*
X123938457Y-126663504D01*
X123214647Y-127425409D02*
X123290838Y-127463504D01*
X123443219Y-127463504D01*
X123519409Y-127425409D01*
X123557504Y-127349219D01*
X123557504Y-127044457D01*
X123519409Y-126968266D01*
X123443219Y-126930171D01*
X123290838Y-126930171D01*
X123214647Y-126968266D01*
X123176552Y-127044457D01*
X123176552Y-127120647D01*
X123557504Y-127196838D01*
X122909885Y-127463504D02*
X122490838Y-126930171D01*
X122909885Y-126930171D02*
X122490838Y-127463504D01*
X121233695Y-127425409D02*
X121309885Y-127463504D01*
X121462266Y-127463504D01*
X121538457Y-127425409D01*
X121576552Y-127387314D01*
X121614647Y-127311123D01*
X121614647Y-127082552D01*
X121576552Y-127006361D01*
X121538457Y-126968266D01*
X121462266Y-126930171D01*
X121309885Y-126930171D01*
X121233695Y-126968266D01*
X120547980Y-127463504D02*
X120547980Y-127044457D01*
X120586076Y-126968266D01*
X120662266Y-126930171D01*
X120814647Y-126930171D01*
X120890838Y-126968266D01*
X120547980Y-127425409D02*
X120624171Y-127463504D01*
X120814647Y-127463504D01*
X120890838Y-127425409D01*
X120928933Y-127349219D01*
X120928933Y-127273028D01*
X120890838Y-127196838D01*
X120814647Y-127158742D01*
X120624171Y-127158742D01*
X120547980Y-127120647D01*
X120167028Y-127463504D02*
X120167028Y-126663504D01*
X120167028Y-126968266D02*
X120090838Y-126930171D01*
X119938457Y-126930171D01*
X119862266Y-126968266D01*
X119824171Y-127006361D01*
X119786076Y-127082552D01*
X119786076Y-127311123D01*
X119824171Y-127387314D01*
X119862266Y-127425409D01*
X119938457Y-127463504D01*
X120090838Y-127463504D01*
X120167028Y-127425409D01*
X119328933Y-127463504D02*
X119405123Y-127425409D01*
X119443219Y-127349219D01*
X119443219Y-126663504D01*
X118719409Y-127425409D02*
X118795600Y-127463504D01*
X118947980Y-127463504D01*
X119024171Y-127425409D01*
X119062266Y-127349219D01*
X119062266Y-127044457D01*
X119024171Y-126968266D01*
X118947980Y-126930171D01*
X118795600Y-126930171D01*
X118719409Y-126968266D01*
X118681314Y-127044457D01*
X118681314Y-127120647D01*
X119062266Y-127196838D01*
X117805123Y-126930171D02*
X117652742Y-127463504D01*
X117500361Y-127082552D01*
X117347980Y-127463504D01*
X117195600Y-126930171D01*
X116890838Y-127463504D02*
X116890838Y-126930171D01*
X116890838Y-126663504D02*
X116928933Y-126701600D01*
X116890838Y-126739695D01*
X116852742Y-126701600D01*
X116890838Y-126663504D01*
X116890838Y-126739695D01*
X116624171Y-126930171D02*
X116319409Y-126930171D01*
X116509885Y-126663504D02*
X116509885Y-127349219D01*
X116471790Y-127425409D01*
X116395600Y-127463504D01*
X116319409Y-127463504D01*
X116052742Y-127463504D02*
X116052742Y-126663504D01*
X115709885Y-127463504D02*
X115709885Y-127044457D01*
X115747980Y-126968266D01*
X115824171Y-126930171D01*
X115938457Y-126930171D01*
X116014647Y-126968266D01*
X116052742Y-127006361D01*
X114376552Y-127425409D02*
X114452742Y-127463504D01*
X114605123Y-127463504D01*
X114681314Y-127425409D01*
X114719409Y-127387314D01*
X114757504Y-127311123D01*
X114757504Y-127082552D01*
X114719409Y-127006361D01*
X114681314Y-126968266D01*
X114605123Y-126930171D01*
X114452742Y-126930171D01*
X114376552Y-126968266D01*
X113919409Y-127463504D02*
X113995600Y-127425409D01*
X114033695Y-127387314D01*
X114071790Y-127311123D01*
X114071790Y-127082552D01*
X114033695Y-127006361D01*
X113995600Y-126968266D01*
X113919409Y-126930171D01*
X113805123Y-126930171D01*
X113728933Y-126968266D01*
X113690838Y-127006361D01*
X113652742Y-127082552D01*
X113652742Y-127311123D01*
X113690838Y-127387314D01*
X113728933Y-127425409D01*
X113805123Y-127463504D01*
X113919409Y-127463504D01*
X113309885Y-126930171D02*
X113309885Y-127463504D01*
X113309885Y-127006361D02*
X113271790Y-126968266D01*
X113195600Y-126930171D01*
X113081314Y-126930171D01*
X113005123Y-126968266D01*
X112967028Y-127044457D01*
X112967028Y-127463504D01*
X112700361Y-126930171D02*
X112395600Y-126930171D01*
X112586076Y-126663504D02*
X112586076Y-127349219D01*
X112547980Y-127425409D01*
X112471790Y-127463504D01*
X112395600Y-127463504D01*
X111786076Y-127463504D02*
X111786076Y-127044457D01*
X111824171Y-126968266D01*
X111900361Y-126930171D01*
X112052742Y-126930171D01*
X112128933Y-126968266D01*
X111786076Y-127425409D02*
X111862266Y-127463504D01*
X112052742Y-127463504D01*
X112128933Y-127425409D01*
X112167028Y-127349219D01*
X112167028Y-127273028D01*
X112128933Y-127196838D01*
X112052742Y-127158742D01*
X111862266Y-127158742D01*
X111786076Y-127120647D01*
X111062266Y-127425409D02*
X111138457Y-127463504D01*
X111290838Y-127463504D01*
X111367028Y-127425409D01*
X111405123Y-127387314D01*
X111443219Y-127311123D01*
X111443219Y-127082552D01*
X111405123Y-127006361D01*
X111367028Y-126968266D01*
X111290838Y-126930171D01*
X111138457Y-126930171D01*
X111062266Y-126968266D01*
X110833695Y-126930171D02*
X110528933Y-126930171D01*
X110719409Y-126663504D02*
X110719409Y-127349219D01*
X110681314Y-127425409D01*
X110605123Y-127463504D01*
X110528933Y-127463504D01*
X110300361Y-127425409D02*
X110224171Y-127463504D01*
X110071790Y-127463504D01*
X109995600Y-127425409D01*
X109957504Y-127349219D01*
X109957504Y-127311123D01*
X109995600Y-127234933D01*
X110071790Y-127196838D01*
X110186076Y-127196838D01*
X110262266Y-127158742D01*
X110300361Y-127082552D01*
X110300361Y-127044457D01*
X110262266Y-126968266D01*
X110186076Y-126930171D01*
X110071790Y-126930171D01*
X109995600Y-126968266D01*
X123138457Y-128763504D02*
X123214647Y-128725409D01*
X123252742Y-128687314D01*
X123290838Y-128611123D01*
X123290838Y-128382552D01*
X123252742Y-128306361D01*
X123214647Y-128268266D01*
X123138457Y-128230171D01*
X123024171Y-128230171D01*
X122947980Y-128268266D01*
X122909885Y-128306361D01*
X122871790Y-128382552D01*
X122871790Y-128611123D01*
X122909885Y-128687314D01*
X122947980Y-128725409D01*
X123024171Y-128763504D01*
X123138457Y-128763504D01*
X122528933Y-128230171D02*
X122528933Y-128763504D01*
X122528933Y-128306361D02*
X122490838Y-128268266D01*
X122414647Y-128230171D01*
X122300361Y-128230171D01*
X122224171Y-128268266D01*
X122186076Y-128344457D01*
X122186076Y-128763504D01*
X121043219Y-127963504D02*
X120890838Y-127963504D01*
X120814647Y-128001600D01*
X120738457Y-128077790D01*
X120700361Y-128230171D01*
X120700361Y-128496838D01*
X120738457Y-128649219D01*
X120814647Y-128725409D01*
X120890838Y-128763504D01*
X121043219Y-128763504D01*
X121119409Y-128725409D01*
X121195600Y-128649219D01*
X121233695Y-128496838D01*
X121233695Y-128230171D01*
X121195600Y-128077790D01*
X121119409Y-128001600D01*
X121043219Y-127963504D01*
X120357504Y-128763504D02*
X120357504Y-127963504D01*
X120052742Y-127963504D01*
X119976552Y-128001600D01*
X119938457Y-128039695D01*
X119900361Y-128115885D01*
X119900361Y-128230171D01*
X119938457Y-128306361D01*
X119976552Y-128344457D01*
X120052742Y-128382552D01*
X120357504Y-128382552D01*
X119557504Y-128763504D02*
X119557504Y-127963504D01*
X119252742Y-127963504D01*
X119176552Y-128001600D01*
X119138457Y-128039695D01*
X119100361Y-128115885D01*
X119100361Y-128230171D01*
X119138457Y-128306361D01*
X119176552Y-128344457D01*
X119252742Y-128382552D01*
X119557504Y-128382552D01*
X118605123Y-127963504D02*
X118452742Y-127963504D01*
X118376552Y-128001600D01*
X118300361Y-128077790D01*
X118262266Y-128230171D01*
X118262266Y-128496838D01*
X118300361Y-128649219D01*
X118376552Y-128725409D01*
X118452742Y-128763504D01*
X118605123Y-128763504D01*
X118681314Y-128725409D01*
X118757504Y-128649219D01*
X118795600Y-128496838D01*
X118795600Y-128230171D01*
X118757504Y-128077790D01*
X118681314Y-128001600D01*
X118605123Y-127963504D01*
X117957504Y-128725409D02*
X117843219Y-128763504D01*
X117652742Y-128763504D01*
X117576552Y-128725409D01*
X117538457Y-128687314D01*
X117500361Y-128611123D01*
X117500361Y-128534933D01*
X117538457Y-128458742D01*
X117576552Y-128420647D01*
X117652742Y-128382552D01*
X117805123Y-128344457D01*
X117881314Y-128306361D01*
X117919409Y-128268266D01*
X117957504Y-128192076D01*
X117957504Y-128115885D01*
X117919409Y-128039695D01*
X117881314Y-128001600D01*
X117805123Y-127963504D01*
X117614647Y-127963504D01*
X117500361Y-128001600D01*
X117157504Y-128763504D02*
X117157504Y-127963504D01*
X116890838Y-127963504D02*
X116433695Y-127963504D01*
X116662266Y-128763504D02*
X116662266Y-127963504D01*
X116167028Y-128344457D02*
X115900361Y-128344457D01*
X115786076Y-128763504D02*
X116167028Y-128763504D01*
X116167028Y-127963504D01*
X115786076Y-127963504D01*
X114871790Y-128725409D02*
X114795600Y-128763504D01*
X114643219Y-128763504D01*
X114567028Y-128725409D01*
X114528933Y-128649219D01*
X114528933Y-128611123D01*
X114567028Y-128534933D01*
X114643219Y-128496838D01*
X114757504Y-128496838D01*
X114833695Y-128458742D01*
X114871790Y-128382552D01*
X114871790Y-128344457D01*
X114833695Y-128268266D01*
X114757504Y-128230171D01*
X114643219Y-128230171D01*
X114567028Y-128268266D01*
X114186076Y-128763504D02*
X114186076Y-128230171D01*
X114186076Y-127963504D02*
X114224171Y-128001600D01*
X114186076Y-128039695D01*
X114147980Y-128001600D01*
X114186076Y-127963504D01*
X114186076Y-128039695D01*
X113462266Y-128763504D02*
X113462266Y-127963504D01*
X113462266Y-128725409D02*
X113538457Y-128763504D01*
X113690838Y-128763504D01*
X113767028Y-128725409D01*
X113805123Y-128687314D01*
X113843219Y-128611123D01*
X113843219Y-128382552D01*
X113805123Y-128306361D01*
X113767028Y-128268266D01*
X113690838Y-128230171D01*
X113538457Y-128230171D01*
X113462266Y-128268266D01*
X112776552Y-128725409D02*
X112852742Y-128763504D01*
X113005123Y-128763504D01*
X113081314Y-128725409D01*
X113119409Y-128649219D01*
X113119409Y-128344457D01*
X113081314Y-128268266D01*
X113005123Y-128230171D01*
X112852742Y-128230171D01*
X112776552Y-128268266D01*
X112738457Y-128344457D01*
X112738457Y-128420647D01*
X113119409Y-128496838D01*
X112433695Y-128725409D02*
X112357504Y-128763504D01*
X112205123Y-128763504D01*
X112128933Y-128725409D01*
X112090838Y-128649219D01*
X112090838Y-128611123D01*
X112128933Y-128534933D01*
X112205123Y-128496838D01*
X112319409Y-128496838D01*
X112395600Y-128458742D01*
X112433695Y-128382552D01*
X112433695Y-128344457D01*
X112395600Y-128268266D01*
X112319409Y-128230171D01*
X112205123Y-128230171D01*
X112128933Y-128268266D01*
X111747980Y-128687314D02*
X111709885Y-128725409D01*
X111747980Y-128763504D01*
X111786076Y-128725409D01*
X111747980Y-128687314D01*
X111747980Y-128763504D01*
D11*
X124666285Y-137326666D02*
X124190095Y-137326666D01*
X124761523Y-137612380D02*
X124428190Y-136612380D01*
X124094857Y-137612380D01*
X123237714Y-137612380D02*
X123809142Y-137612380D01*
X123523428Y-137612380D02*
X123523428Y-136612380D01*
X123618666Y-136755238D01*
X123713904Y-136850476D01*
X123809142Y-136898095D01*
X135199380Y-140009523D02*
X135199380Y-139533333D01*
X134199380Y-139533333D01*
X131580000Y-139573095D02*
X131532380Y-139477857D01*
X131532380Y-139335000D01*
X131580000Y-139192142D01*
X131675238Y-139096904D01*
X131770476Y-139049285D01*
X131960952Y-139001666D01*
X132103809Y-139001666D01*
X132294285Y-139049285D01*
X132389523Y-139096904D01*
X132484761Y-139192142D01*
X132532380Y-139335000D01*
X132532380Y-139430238D01*
X132484761Y-139573095D01*
X132437142Y-139620714D01*
X132103809Y-139620714D01*
X132103809Y-139430238D01*
X132532380Y-140049285D02*
X131532380Y-140049285D01*
X132532380Y-140620714D01*
X131532380Y-140620714D01*
X132532380Y-141096904D02*
X131532380Y-141096904D01*
X131532380Y-141335000D01*
X131580000Y-141477857D01*
X131675238Y-141573095D01*
X131770476Y-141620714D01*
X131960952Y-141668333D01*
X132103809Y-141668333D01*
X132294285Y-141620714D01*
X132389523Y-141573095D01*
X132484761Y-141477857D01*
X132532380Y-141335000D01*
X132532380Y-141096904D01*
X129040000Y-139700095D02*
X128992380Y-139604857D01*
X128992380Y-139462000D01*
X129040000Y-139319142D01*
X129135238Y-139223904D01*
X129230476Y-139176285D01*
X129420952Y-139128666D01*
X129563809Y-139128666D01*
X129754285Y-139176285D01*
X129849523Y-139223904D01*
X129944761Y-139319142D01*
X129992380Y-139462000D01*
X129992380Y-139557238D01*
X129944761Y-139700095D01*
X129897142Y-139747714D01*
X129563809Y-139747714D01*
X129563809Y-139557238D01*
X129992380Y-140176285D02*
X128992380Y-140176285D01*
X129992380Y-140747714D01*
X128992380Y-140747714D01*
X129992380Y-141223904D02*
X128992380Y-141223904D01*
X128992380Y-141462000D01*
X129040000Y-141604857D01*
X129135238Y-141700095D01*
X129230476Y-141747714D01*
X129420952Y-141795333D01*
X129563809Y-141795333D01*
X129754285Y-141747714D01*
X129849523Y-141700095D01*
X129944761Y-141604857D01*
X129992380Y-141462000D01*
X129992380Y-141223904D01*
X127325380Y-140136523D02*
X126849190Y-139803190D01*
X127325380Y-139565095D02*
X126325380Y-139565095D01*
X126325380Y-139946047D01*
X126373000Y-140041285D01*
X126420619Y-140088904D01*
X126515857Y-140136523D01*
X126658714Y-140136523D01*
X126753952Y-140088904D01*
X126801571Y-140041285D01*
X126849190Y-139946047D01*
X126849190Y-139565095D01*
X90736000Y-145237285D02*
X90693142Y-145151571D01*
X90693142Y-145023000D01*
X90736000Y-144894428D01*
X90821714Y-144808714D01*
X90907428Y-144765857D01*
X91078857Y-144723000D01*
X91207428Y-144723000D01*
X91378857Y-144765857D01*
X91464571Y-144808714D01*
X91550285Y-144894428D01*
X91593142Y-145023000D01*
X91593142Y-145108714D01*
X91550285Y-145237285D01*
X91507428Y-145280142D01*
X91207428Y-145280142D01*
X91207428Y-145108714D01*
X91593142Y-145665857D02*
X90693142Y-145665857D01*
X91593142Y-146180142D01*
X90693142Y-146180142D01*
X91593142Y-146608714D02*
X90693142Y-146608714D01*
X90693142Y-146823000D01*
X90736000Y-146951571D01*
X90821714Y-147037285D01*
X90907428Y-147080142D01*
X91078857Y-147123000D01*
X91207428Y-147123000D01*
X91378857Y-147080142D01*
X91464571Y-147037285D01*
X91550285Y-146951571D01*
X91593142Y-146823000D01*
X91593142Y-146608714D01*
X113596000Y-145237285D02*
X113553142Y-145151571D01*
X113553142Y-145023000D01*
X113596000Y-144894428D01*
X113681714Y-144808714D01*
X113767428Y-144765857D01*
X113938857Y-144723000D01*
X114067428Y-144723000D01*
X114238857Y-144765857D01*
X114324571Y-144808714D01*
X114410285Y-144894428D01*
X114453142Y-145023000D01*
X114453142Y-145108714D01*
X114410285Y-145237285D01*
X114367428Y-145280142D01*
X114067428Y-145280142D01*
X114067428Y-145108714D01*
X114453142Y-145665857D02*
X113553142Y-145665857D01*
X114453142Y-146180142D01*
X113553142Y-146180142D01*
X114453142Y-146608714D02*
X113553142Y-146608714D01*
X113553142Y-146823000D01*
X113596000Y-146951571D01*
X113681714Y-147037285D01*
X113767428Y-147080142D01*
X113938857Y-147123000D01*
X114067428Y-147123000D01*
X114238857Y-147080142D01*
X114324571Y-147037285D01*
X114410285Y-146951571D01*
X114453142Y-146823000D01*
X114453142Y-146608714D01*
X105849000Y-145237285D02*
X105806142Y-145151571D01*
X105806142Y-145023000D01*
X105849000Y-144894428D01*
X105934714Y-144808714D01*
X106020428Y-144765857D01*
X106191857Y-144723000D01*
X106320428Y-144723000D01*
X106491857Y-144765857D01*
X106577571Y-144808714D01*
X106663285Y-144894428D01*
X106706142Y-145023000D01*
X106706142Y-145108714D01*
X106663285Y-145237285D01*
X106620428Y-145280142D01*
X106320428Y-145280142D01*
X106320428Y-145108714D01*
X106706142Y-145665857D02*
X105806142Y-145665857D01*
X106706142Y-146180142D01*
X105806142Y-146180142D01*
X106706142Y-146608714D02*
X105806142Y-146608714D01*
X105806142Y-146823000D01*
X105849000Y-146951571D01*
X105934714Y-147037285D01*
X106020428Y-147080142D01*
X106191857Y-147123000D01*
X106320428Y-147123000D01*
X106491857Y-147080142D01*
X106577571Y-147037285D01*
X106663285Y-146951571D01*
X106706142Y-146823000D01*
X106706142Y-146608714D01*
X88069000Y-145237285D02*
X88026142Y-145151571D01*
X88026142Y-145023000D01*
X88069000Y-144894428D01*
X88154714Y-144808714D01*
X88240428Y-144765857D01*
X88411857Y-144723000D01*
X88540428Y-144723000D01*
X88711857Y-144765857D01*
X88797571Y-144808714D01*
X88883285Y-144894428D01*
X88926142Y-145023000D01*
X88926142Y-145108714D01*
X88883285Y-145237285D01*
X88840428Y-145280142D01*
X88540428Y-145280142D01*
X88540428Y-145108714D01*
X88926142Y-145665857D02*
X88026142Y-145665857D01*
X88926142Y-146180142D01*
X88026142Y-146180142D01*
X88926142Y-146608714D02*
X88026142Y-146608714D01*
X88026142Y-146823000D01*
X88069000Y-146951571D01*
X88154714Y-147037285D01*
X88240428Y-147080142D01*
X88411857Y-147123000D01*
X88540428Y-147123000D01*
X88711857Y-147080142D01*
X88797571Y-147037285D01*
X88883285Y-146951571D01*
X88926142Y-146823000D01*
X88926142Y-146608714D01*
X79120904Y-147756619D02*
X79073285Y-147709000D01*
X78978047Y-147661380D01*
X78739952Y-147661380D01*
X78644714Y-147709000D01*
X78597095Y-147756619D01*
X78549476Y-147851857D01*
X78549476Y-147947095D01*
X78597095Y-148089952D01*
X79168523Y-148661380D01*
X78549476Y-148661380D01*
X78073285Y-148661380D02*
X77882809Y-148661380D01*
X77787571Y-148613761D01*
X77739952Y-148566142D01*
X77644714Y-148423285D01*
X77597095Y-148232809D01*
X77597095Y-147851857D01*
X77644714Y-147756619D01*
X77692333Y-147709000D01*
X77787571Y-147661380D01*
X77978047Y-147661380D01*
X78073285Y-147709000D01*
X78120904Y-147756619D01*
X78168523Y-147851857D01*
X78168523Y-148089952D01*
X78120904Y-148185190D01*
X78073285Y-148232809D01*
X77978047Y-148280428D01*
X77787571Y-148280428D01*
X77692333Y-148232809D01*
X77644714Y-148185190D01*
X77597095Y-148089952D01*
X81660904Y-147756619D02*
X81613285Y-147709000D01*
X81518047Y-147661380D01*
X81279952Y-147661380D01*
X81184714Y-147709000D01*
X81137095Y-147756619D01*
X81089476Y-147851857D01*
X81089476Y-147947095D01*
X81137095Y-148089952D01*
X81708523Y-148661380D01*
X81089476Y-148661380D01*
X80756142Y-147661380D02*
X80089476Y-147661380D01*
X80518047Y-148661380D01*
X84200904Y-147756619D02*
X84153285Y-147709000D01*
X84058047Y-147661380D01*
X83819952Y-147661380D01*
X83724714Y-147709000D01*
X83677095Y-147756619D01*
X83629476Y-147851857D01*
X83629476Y-147947095D01*
X83677095Y-148089952D01*
X84248523Y-148661380D01*
X83629476Y-148661380D01*
X82724714Y-147661380D02*
X83200904Y-147661380D01*
X83248523Y-148137571D01*
X83200904Y-148089952D01*
X83105666Y-148042333D01*
X82867571Y-148042333D01*
X82772333Y-148089952D01*
X82724714Y-148137571D01*
X82677095Y-148232809D01*
X82677095Y-148470904D01*
X82724714Y-148566142D01*
X82772333Y-148613761D01*
X82867571Y-148661380D01*
X83105666Y-148661380D01*
X83200904Y-148613761D01*
X83248523Y-148566142D01*
X86740904Y-147756619D02*
X86693285Y-147709000D01*
X86598047Y-147661380D01*
X86359952Y-147661380D01*
X86264714Y-147709000D01*
X86217095Y-147756619D01*
X86169476Y-147851857D01*
X86169476Y-147947095D01*
X86217095Y-148089952D01*
X86788523Y-148661380D01*
X86169476Y-148661380D01*
X85836142Y-147661380D02*
X85217095Y-147661380D01*
X85550428Y-148042333D01*
X85407571Y-148042333D01*
X85312333Y-148089952D01*
X85264714Y-148137571D01*
X85217095Y-148232809D01*
X85217095Y-148470904D01*
X85264714Y-148566142D01*
X85312333Y-148613761D01*
X85407571Y-148661380D01*
X85693285Y-148661380D01*
X85788523Y-148613761D01*
X85836142Y-148566142D01*
X89153904Y-147756619D02*
X89106285Y-147709000D01*
X89011047Y-147661380D01*
X88772952Y-147661380D01*
X88677714Y-147709000D01*
X88630095Y-147756619D01*
X88582476Y-147851857D01*
X88582476Y-147947095D01*
X88630095Y-148089952D01*
X89201523Y-148661380D01*
X88582476Y-148661380D01*
X87630095Y-148661380D02*
X88201523Y-148661380D01*
X87915809Y-148661380D02*
X87915809Y-147661380D01*
X88011047Y-147804238D01*
X88106285Y-147899476D01*
X88201523Y-147947095D01*
X91249476Y-148788380D02*
X91820904Y-148788380D01*
X91535190Y-148788380D02*
X91535190Y-147788380D01*
X91630428Y-147931238D01*
X91725666Y-148026476D01*
X91820904Y-148074095D01*
X90773285Y-148788380D02*
X90582809Y-148788380D01*
X90487571Y-148740761D01*
X90439952Y-148693142D01*
X90344714Y-148550285D01*
X90297095Y-148359809D01*
X90297095Y-147978857D01*
X90344714Y-147883619D01*
X90392333Y-147836000D01*
X90487571Y-147788380D01*
X90678047Y-147788380D01*
X90773285Y-147836000D01*
X90820904Y-147883619D01*
X90868523Y-147978857D01*
X90868523Y-148216952D01*
X90820904Y-148312190D01*
X90773285Y-148359809D01*
X90678047Y-148407428D01*
X90487571Y-148407428D01*
X90392333Y-148359809D01*
X90344714Y-148312190D01*
X90297095Y-148216952D01*
X93916476Y-148788380D02*
X94487904Y-148788380D01*
X94202190Y-148788380D02*
X94202190Y-147788380D01*
X94297428Y-147931238D01*
X94392666Y-148026476D01*
X94487904Y-148074095D01*
X93583142Y-147788380D02*
X92916476Y-147788380D01*
X93345047Y-148788380D01*
X96456476Y-148788380D02*
X97027904Y-148788380D01*
X96742190Y-148788380D02*
X96742190Y-147788380D01*
X96837428Y-147931238D01*
X96932666Y-148026476D01*
X97027904Y-148074095D01*
X95551714Y-147788380D02*
X96027904Y-147788380D01*
X96075523Y-148264571D01*
X96027904Y-148216952D01*
X95932666Y-148169333D01*
X95694571Y-148169333D01*
X95599333Y-148216952D01*
X95551714Y-148264571D01*
X95504095Y-148359809D01*
X95504095Y-148597904D01*
X95551714Y-148693142D01*
X95599333Y-148740761D01*
X95694571Y-148788380D01*
X95932666Y-148788380D01*
X96027904Y-148740761D01*
X96075523Y-148693142D01*
X98996476Y-148788380D02*
X99567904Y-148788380D01*
X99282190Y-148788380D02*
X99282190Y-147788380D01*
X99377428Y-147931238D01*
X99472666Y-148026476D01*
X99567904Y-148074095D01*
X98663142Y-147788380D02*
X98044095Y-147788380D01*
X98377428Y-148169333D01*
X98234571Y-148169333D01*
X98139333Y-148216952D01*
X98091714Y-148264571D01*
X98044095Y-148359809D01*
X98044095Y-148597904D01*
X98091714Y-148693142D01*
X98139333Y-148740761D01*
X98234571Y-148788380D01*
X98520285Y-148788380D01*
X98615523Y-148740761D01*
X98663142Y-148693142D01*
X101536476Y-148788380D02*
X102107904Y-148788380D01*
X101822190Y-148788380D02*
X101822190Y-147788380D01*
X101917428Y-147931238D01*
X102012666Y-148026476D01*
X102107904Y-148074095D01*
X100584095Y-148788380D02*
X101155523Y-148788380D01*
X100869809Y-148788380D02*
X100869809Y-147788380D01*
X100965047Y-147931238D01*
X101060285Y-148026476D01*
X101155523Y-148074095D01*
X103949476Y-148788380D02*
X103759000Y-148788380D01*
X103663761Y-148740761D01*
X103616142Y-148693142D01*
X103520904Y-148550285D01*
X103473285Y-148359809D01*
X103473285Y-147978857D01*
X103520904Y-147883619D01*
X103568523Y-147836000D01*
X103663761Y-147788380D01*
X103854238Y-147788380D01*
X103949476Y-147836000D01*
X103997095Y-147883619D01*
X104044714Y-147978857D01*
X104044714Y-148216952D01*
X103997095Y-148312190D01*
X103949476Y-148359809D01*
X103854238Y-148407428D01*
X103663761Y-148407428D01*
X103568523Y-148359809D01*
X103520904Y-148312190D01*
X103473285Y-148216952D01*
X106632333Y-147788380D02*
X105965666Y-147788380D01*
X106394238Y-148788380D01*
X135453238Y-63571380D02*
X135453238Y-62571380D01*
X135453238Y-63047571D02*
X134881809Y-63047571D01*
X134881809Y-63571380D02*
X134881809Y-62571380D01*
X134405619Y-63571380D02*
X134405619Y-62571380D01*
X134167523Y-62571380D01*
X134024666Y-62619000D01*
X133929428Y-62714238D01*
X133881809Y-62809476D01*
X133834190Y-62999952D01*
X133834190Y-63142809D01*
X133881809Y-63333285D01*
X133929428Y-63428523D01*
X134024666Y-63523761D01*
X134167523Y-63571380D01*
X134405619Y-63571380D01*
X133405619Y-63571380D02*
X133405619Y-62571380D01*
X133072285Y-63285666D01*
X132738952Y-62571380D01*
X132738952Y-63571380D01*
X132262761Y-63571380D02*
X132262761Y-62571380D01*
X125769523Y-69302380D02*
X125769523Y-70016666D01*
X125817142Y-70159523D01*
X125912380Y-70254761D01*
X126055238Y-70302380D01*
X126150476Y-70302380D01*
X125293333Y-70302380D02*
X125293333Y-69302380D01*
X124912380Y-69302380D01*
X124817142Y-69350000D01*
X124769523Y-69397619D01*
X124721904Y-69492857D01*
X124721904Y-69635714D01*
X124769523Y-69730952D01*
X124817142Y-69778571D01*
X124912380Y-69826190D01*
X125293333Y-69826190D01*
X123769523Y-70302380D02*
X124340952Y-70302380D01*
X124055238Y-70302380D02*
X124055238Y-69302380D01*
X124150476Y-69445238D01*
X124245714Y-69540476D01*
X124340952Y-69588095D01*
X122864761Y-69302380D02*
X123340952Y-69302380D01*
X123388571Y-69778571D01*
X123340952Y-69730952D01*
X123245714Y-69683333D01*
X123007619Y-69683333D01*
X122912380Y-69730952D01*
X122864761Y-69778571D01*
X122817142Y-69873809D01*
X122817142Y-70111904D01*
X122864761Y-70207142D01*
X122912380Y-70254761D01*
X123007619Y-70302380D01*
X123245714Y-70302380D01*
X123340952Y-70254761D01*
X123388571Y-70207142D01*
X108600904Y-147788380D02*
X109077095Y-147788380D01*
X109124714Y-148264571D01*
X109077095Y-148216952D01*
X108981857Y-148169333D01*
X108743761Y-148169333D01*
X108648523Y-148216952D01*
X108600904Y-148264571D01*
X108553285Y-148359809D01*
X108553285Y-148597904D01*
X108600904Y-148693142D01*
X108648523Y-148740761D01*
X108743761Y-148788380D01*
X108981857Y-148788380D01*
X109077095Y-148740761D01*
X109124714Y-148693142D01*
X111712333Y-147788380D02*
X111093285Y-147788380D01*
X111426619Y-148169333D01*
X111283761Y-148169333D01*
X111188523Y-148216952D01*
X111140904Y-148264571D01*
X111093285Y-148359809D01*
X111093285Y-148597904D01*
X111140904Y-148693142D01*
X111188523Y-148740761D01*
X111283761Y-148788380D01*
X111569476Y-148788380D01*
X111664714Y-148740761D01*
X111712333Y-148693142D01*
X113633285Y-148788380D02*
X114204714Y-148788380D01*
X113919000Y-148788380D02*
X113919000Y-147788380D01*
X114014238Y-147931238D01*
X114109476Y-148026476D01*
X114204714Y-148074095D01*
D10*
X64071428Y-112401000D02*
X64142857Y-112365285D01*
X64250000Y-112365285D01*
X64357142Y-112401000D01*
X64428571Y-112472428D01*
X64464285Y-112543857D01*
X64500000Y-112686714D01*
X64500000Y-112793857D01*
X64464285Y-112936714D01*
X64428571Y-113008142D01*
X64357142Y-113079571D01*
X64250000Y-113115285D01*
X64178571Y-113115285D01*
X64071428Y-113079571D01*
X64035714Y-113043857D01*
X64035714Y-112793857D01*
X64178571Y-112793857D01*
X63714285Y-113115285D02*
X63714285Y-112365285D01*
X63285714Y-113115285D01*
X63285714Y-112365285D01*
X62928571Y-113115285D02*
X62928571Y-112365285D01*
X62750000Y-112365285D01*
X62642857Y-112401000D01*
X62571428Y-112472428D01*
X62535714Y-112543857D01*
X62500000Y-112686714D01*
X62500000Y-112793857D01*
X62535714Y-112936714D01*
X62571428Y-113008142D01*
X62642857Y-113079571D01*
X62750000Y-113115285D01*
X62928571Y-113115285D01*
X64464285Y-126799571D02*
X63892857Y-126799571D01*
X64178571Y-127085285D02*
X64178571Y-126513857D01*
X63178571Y-126335285D02*
X63535714Y-126335285D01*
X63571428Y-126692428D01*
X63535714Y-126656714D01*
X63464285Y-126621000D01*
X63285714Y-126621000D01*
X63214285Y-126656714D01*
X63178571Y-126692428D01*
X63142857Y-126763857D01*
X63142857Y-126942428D01*
X63178571Y-127013857D01*
X63214285Y-127049571D01*
X63285714Y-127085285D01*
X63464285Y-127085285D01*
X63535714Y-127049571D01*
X63571428Y-127013857D01*
X62928571Y-126335285D02*
X62678571Y-127085285D01*
X62428571Y-126335285D01*
X64452428Y-119731285D02*
X64023857Y-119731285D01*
X64238142Y-120481285D02*
X64238142Y-119731285D01*
X63845285Y-119731285D02*
X63345285Y-120481285D01*
X63345285Y-119731285D02*
X63845285Y-120481285D01*
X64006000Y-118195285D02*
X64256000Y-117838142D01*
X64434571Y-118195285D02*
X64434571Y-117445285D01*
X64148857Y-117445285D01*
X64077428Y-117481000D01*
X64041714Y-117516714D01*
X64006000Y-117588142D01*
X64006000Y-117695285D01*
X64041714Y-117766714D01*
X64077428Y-117802428D01*
X64148857Y-117838142D01*
X64434571Y-117838142D01*
X63756000Y-117445285D02*
X63256000Y-118195285D01*
X63256000Y-117445285D02*
X63756000Y-118195285D01*
D11*
X134921047Y-146518380D02*
X134921047Y-147232666D01*
X134968666Y-147375523D01*
X135063904Y-147470761D01*
X135206761Y-147518380D01*
X135302000Y-147518380D01*
X133968666Y-147518380D02*
X134444857Y-147518380D01*
X134444857Y-146518380D01*
X133063904Y-147423142D02*
X133111523Y-147470761D01*
X133254380Y-147518380D01*
X133349619Y-147518380D01*
X133492476Y-147470761D01*
X133587714Y-147375523D01*
X133635333Y-147280285D01*
X133682952Y-147089809D01*
X133682952Y-146946952D01*
X133635333Y-146756476D01*
X133587714Y-146661238D01*
X133492476Y-146566000D01*
X133349619Y-146518380D01*
X133254380Y-146518380D01*
X133111523Y-146566000D01*
X133063904Y-146613619D01*
X132349619Y-146518380D02*
X132349619Y-147232666D01*
X132397238Y-147375523D01*
X132492476Y-147470761D01*
X132635333Y-147518380D01*
X132730571Y-147518380D01*
X131397238Y-147518380D02*
X131873428Y-147518380D01*
X131873428Y-146518380D01*
X130492476Y-147423142D02*
X130540095Y-147470761D01*
X130682952Y-147518380D01*
X130778190Y-147518380D01*
X130921047Y-147470761D01*
X131016285Y-147375523D01*
X131063904Y-147280285D01*
X131111523Y-147089809D01*
X131111523Y-146946952D01*
X131063904Y-146756476D01*
X131016285Y-146661238D01*
X130921047Y-146566000D01*
X130778190Y-146518380D01*
X130682952Y-146518380D01*
X130540095Y-146566000D01*
X130492476Y-146613619D01*
X129778190Y-146518380D02*
X129778190Y-147232666D01*
X129825809Y-147375523D01*
X129921047Y-147470761D01*
X130063904Y-147518380D01*
X130159142Y-147518380D01*
X128825809Y-147518380D02*
X129302000Y-147518380D01*
X129302000Y-146518380D01*
X127921047Y-147423142D02*
X127968666Y-147470761D01*
X128111523Y-147518380D01*
X128206761Y-147518380D01*
X128349619Y-147470761D01*
X128444857Y-147375523D01*
X128492476Y-147280285D01*
X128540095Y-147089809D01*
X128540095Y-146946952D01*
X128492476Y-146756476D01*
X128444857Y-146661238D01*
X128349619Y-146566000D01*
X128206761Y-146518380D01*
X128111523Y-146518380D01*
X127968666Y-146566000D01*
X127921047Y-146613619D01*
X127206761Y-146518380D02*
X127206761Y-147232666D01*
X127254380Y-147375523D01*
X127349619Y-147470761D01*
X127492476Y-147518380D01*
X127587714Y-147518380D01*
X126254380Y-147518380D02*
X126730571Y-147518380D01*
X126730571Y-146518380D01*
X125349619Y-147423142D02*
X125397238Y-147470761D01*
X125540095Y-147518380D01*
X125635333Y-147518380D01*
X125778190Y-147470761D01*
X125873428Y-147375523D01*
X125921047Y-147280285D01*
X125968666Y-147089809D01*
X125968666Y-146946952D01*
X125921047Y-146756476D01*
X125873428Y-146661238D01*
X125778190Y-146566000D01*
X125635333Y-146518380D01*
X125540095Y-146518380D01*
X125397238Y-146566000D01*
X125349619Y-146613619D01*
D15*
%TO.C,FPV20*%
X134185000Y-130329000D02*
X134185000Y-129829000D01*
X133685000Y-129829000D02*
X134185000Y-130329000D01*
X134185000Y-129331000D02*
X133685000Y-129829000D01*
X134185000Y-129829000D02*
X134185000Y-129331000D01*
X133510000Y-129210000D02*
X133510000Y-132079000D01*
X133510000Y-116079000D02*
X133510000Y-118948000D01*
X129010000Y-116079000D02*
X133510000Y-116079000D01*
X129010000Y-132079000D02*
X129010000Y-116079000D01*
X133510000Y-132079000D02*
X129010000Y-132079000D01*
D14*
%TO.C,TS1*%
X122682000Y-43561000D02*
X122682000Y-36576000D01*
X121412000Y-43561000D02*
X129032000Y-43561000D01*
X121412000Y-53721000D02*
X121412000Y-43561000D01*
X129032000Y-43561000D02*
X129032000Y-53721000D01*
X121412000Y-53721000D02*
X129032000Y-53721000D01*
X122682000Y-36576000D02*
X127762000Y-36576000D01*
X127762000Y-36576000D02*
X127762000Y-43561000D01*
%TO.C,PORT2*%
X57492000Y-36256000D02*
X57492000Y-48596000D01*
X57492000Y-48596000D02*
X88462000Y-48596000D01*
X88462000Y-48596000D02*
X88462000Y-36256000D01*
X67187000Y-49490338D02*
X67687000Y-49490338D01*
X67687000Y-49490338D02*
X67437000Y-49057325D01*
X67437000Y-49057325D02*
X67187000Y-49490338D01*
%TO.C,PORT1*%
X99314000Y-49057325D02*
X99064000Y-49490338D01*
X99564000Y-49490338D02*
X99314000Y-49057325D01*
X99064000Y-49490338D02*
X99564000Y-49490338D01*
X120339000Y-48596000D02*
X120339000Y-36256000D01*
X89369000Y-48596000D02*
X120339000Y-48596000D01*
X89369000Y-36256000D02*
X89369000Y-48596000D01*
%TO.C,CN1*%
X64797000Y-66675000D02*
X64797000Y-68005000D01*
X64797000Y-68005000D02*
X66127000Y-68005000D01*
X64797000Y-65405000D02*
X67397000Y-65405000D01*
X67397000Y-65405000D02*
X67397000Y-68005000D01*
X67397000Y-68005000D02*
X80157000Y-68005000D01*
X80157000Y-62805000D02*
X80157000Y-68005000D01*
X64797000Y-62805000D02*
X80157000Y-62805000D01*
X64797000Y-62805000D02*
X64797000Y-65405000D01*
%TO.C,CN2*%
X136524000Y-44980000D02*
X137599000Y-44980000D01*
X136524000Y-36480000D02*
X136524000Y-44980000D01*
X130954000Y-36480000D02*
X130954000Y-44490000D01*
X137599000Y-56690000D02*
X137599000Y-50490000D01*
X129879000Y-53590000D02*
X129879000Y-47890000D01*
X129879000Y-59850000D02*
X129879000Y-56890000D01*
X137599000Y-44980000D02*
X137599000Y-47190000D01*
X130954000Y-36480000D02*
X136524000Y-36480000D01*
X129879000Y-59850000D02*
X136239000Y-59850000D01*
%TO.C,Pi0*%
X64710000Y-129269800D02*
X67310000Y-129269800D01*
X64710000Y-129269800D02*
X64710000Y-78349800D01*
X64710000Y-78349800D02*
X69910000Y-78349800D01*
X69910000Y-126669800D02*
X69910000Y-78349800D01*
X67310000Y-126669800D02*
X69910000Y-126669800D01*
X67310000Y-129269800D02*
X67310000Y-126669800D01*
X69910000Y-129269800D02*
X69910000Y-127939800D01*
X68580000Y-129269800D02*
X69910000Y-129269800D01*
%TO.C,FPV20*%
D16*
X133630228Y-133268357D02*
X134011228Y-133268357D01*
X134011228Y-133867071D02*
X134011228Y-132724071D01*
X133466942Y-132724071D01*
X133031514Y-133867071D02*
X133031514Y-132724071D01*
X132596085Y-132724071D01*
X132487228Y-132778500D01*
X132432800Y-132832928D01*
X132378371Y-132941785D01*
X132378371Y-133105071D01*
X132432800Y-133213928D01*
X132487228Y-133268357D01*
X132596085Y-133322785D01*
X133031514Y-133322785D01*
X132051800Y-132724071D02*
X131670800Y-133867071D01*
X131289800Y-132724071D01*
X130963228Y-132832928D02*
X130908800Y-132778500D01*
X130799942Y-132724071D01*
X130527800Y-132724071D01*
X130418942Y-132778500D01*
X130364514Y-132832928D01*
X130310085Y-132941785D01*
X130310085Y-133050642D01*
X130364514Y-133213928D01*
X131017657Y-133867071D01*
X130310085Y-133867071D01*
X129602514Y-132724071D02*
X129493657Y-132724071D01*
X129384800Y-132778500D01*
X129330371Y-132832928D01*
X129275942Y-132941785D01*
X129221514Y-133159500D01*
X129221514Y-133431642D01*
X129275942Y-133649357D01*
X129330371Y-133758214D01*
X129384800Y-133812642D01*
X129493657Y-133867071D01*
X129602514Y-133867071D01*
X129711371Y-133812642D01*
X129765800Y-133758214D01*
X129820228Y-133649357D01*
X129874657Y-133431642D01*
X129874657Y-133159500D01*
X129820228Y-132941785D01*
X129765800Y-132832928D01*
X129711371Y-132778500D01*
X129602514Y-132724071D01*
%TO.C,TS1*%
D11*
X123158095Y-59777380D02*
X122586666Y-59777380D01*
X122872380Y-60777380D02*
X122872380Y-59777380D01*
X122300952Y-60729761D02*
X122158095Y-60777380D01*
X121920000Y-60777380D01*
X121824761Y-60729761D01*
X121777142Y-60682142D01*
X121729523Y-60586904D01*
X121729523Y-60491666D01*
X121777142Y-60396428D01*
X121824761Y-60348809D01*
X121920000Y-60301190D01*
X122110476Y-60253571D01*
X122205714Y-60205952D01*
X122253333Y-60158333D01*
X122300952Y-60063095D01*
X122300952Y-59967857D01*
X122253333Y-59872619D01*
X122205714Y-59825000D01*
X122110476Y-59777380D01*
X121872380Y-59777380D01*
X121729523Y-59825000D01*
X120777142Y-60777380D02*
X121348571Y-60777380D01*
X121062857Y-60777380D02*
X121062857Y-59777380D01*
X121158095Y-59920238D01*
X121253333Y-60015476D01*
X121348571Y-60063095D01*
%TO.C,PORT2*%
X75119857Y-50888380D02*
X75119857Y-49888380D01*
X74738904Y-49888380D01*
X74643666Y-49936000D01*
X74596047Y-49983619D01*
X74548428Y-50078857D01*
X74548428Y-50221714D01*
X74596047Y-50316952D01*
X74643666Y-50364571D01*
X74738904Y-50412190D01*
X75119857Y-50412190D01*
X73929380Y-49888380D02*
X73738904Y-49888380D01*
X73643666Y-49936000D01*
X73548428Y-50031238D01*
X73500809Y-50221714D01*
X73500809Y-50555047D01*
X73548428Y-50745523D01*
X73643666Y-50840761D01*
X73738904Y-50888380D01*
X73929380Y-50888380D01*
X74024619Y-50840761D01*
X74119857Y-50745523D01*
X74167476Y-50555047D01*
X74167476Y-50221714D01*
X74119857Y-50031238D01*
X74024619Y-49936000D01*
X73929380Y-49888380D01*
X72500809Y-50888380D02*
X72834142Y-50412190D01*
X73072238Y-50888380D02*
X73072238Y-49888380D01*
X72691285Y-49888380D01*
X72596047Y-49936000D01*
X72548428Y-49983619D01*
X72500809Y-50078857D01*
X72500809Y-50221714D01*
X72548428Y-50316952D01*
X72596047Y-50364571D01*
X72691285Y-50412190D01*
X73072238Y-50412190D01*
X72215095Y-49888380D02*
X71643666Y-49888380D01*
X71929380Y-50888380D02*
X71929380Y-49888380D01*
X71357952Y-49983619D02*
X71310333Y-49936000D01*
X71215095Y-49888380D01*
X70977000Y-49888380D01*
X70881761Y-49936000D01*
X70834142Y-49983619D01*
X70786523Y-50078857D01*
X70786523Y-50174095D01*
X70834142Y-50316952D01*
X71405571Y-50888380D01*
X70786523Y-50888380D01*
%TO.C,PORT1*%
X106996857Y-50888380D02*
X106996857Y-49888380D01*
X106615904Y-49888380D01*
X106520666Y-49936000D01*
X106473047Y-49983619D01*
X106425428Y-50078857D01*
X106425428Y-50221714D01*
X106473047Y-50316952D01*
X106520666Y-50364571D01*
X106615904Y-50412190D01*
X106996857Y-50412190D01*
X105806380Y-49888380D02*
X105615904Y-49888380D01*
X105520666Y-49936000D01*
X105425428Y-50031238D01*
X105377809Y-50221714D01*
X105377809Y-50555047D01*
X105425428Y-50745523D01*
X105520666Y-50840761D01*
X105615904Y-50888380D01*
X105806380Y-50888380D01*
X105901619Y-50840761D01*
X105996857Y-50745523D01*
X106044476Y-50555047D01*
X106044476Y-50221714D01*
X105996857Y-50031238D01*
X105901619Y-49936000D01*
X105806380Y-49888380D01*
X104377809Y-50888380D02*
X104711142Y-50412190D01*
X104949238Y-50888380D02*
X104949238Y-49888380D01*
X104568285Y-49888380D01*
X104473047Y-49936000D01*
X104425428Y-49983619D01*
X104377809Y-50078857D01*
X104377809Y-50221714D01*
X104425428Y-50316952D01*
X104473047Y-50364571D01*
X104568285Y-50412190D01*
X104949238Y-50412190D01*
X104092095Y-49888380D02*
X103520666Y-49888380D01*
X103806380Y-50888380D02*
X103806380Y-49888380D01*
X102663523Y-50888380D02*
X103234952Y-50888380D01*
X102949238Y-50888380D02*
X102949238Y-49888380D01*
X103044476Y-50031238D01*
X103139714Y-50126476D01*
X103234952Y-50174095D01*
%TO.C,CN1*%
X63714142Y-64714523D02*
X63761761Y-64666904D01*
X63809380Y-64524047D01*
X63809380Y-64428809D01*
X63761761Y-64285952D01*
X63666523Y-64190714D01*
X63571285Y-64143095D01*
X63380809Y-64095476D01*
X63237952Y-64095476D01*
X63047476Y-64143095D01*
X62952238Y-64190714D01*
X62857000Y-64285952D01*
X62809380Y-64428809D01*
X62809380Y-64524047D01*
X62857000Y-64666904D01*
X62904619Y-64714523D01*
X63809380Y-65143095D02*
X62809380Y-65143095D01*
X63809380Y-65714523D01*
X62809380Y-65714523D01*
X63809380Y-66714523D02*
X63809380Y-66143095D01*
X63809380Y-66428809D02*
X62809380Y-66428809D01*
X62952238Y-66333571D01*
X63047476Y-66238333D01*
X63095095Y-66143095D01*
%TO.C,CN2*%
X134429476Y-61952142D02*
X134477095Y-61999761D01*
X134619952Y-62047380D01*
X134715190Y-62047380D01*
X134858047Y-61999761D01*
X134953285Y-61904523D01*
X135000904Y-61809285D01*
X135048523Y-61618809D01*
X135048523Y-61475952D01*
X135000904Y-61285476D01*
X134953285Y-61190238D01*
X134858047Y-61095000D01*
X134715190Y-61047380D01*
X134619952Y-61047380D01*
X134477095Y-61095000D01*
X134429476Y-61142619D01*
X134000904Y-62047380D02*
X134000904Y-61047380D01*
X133429476Y-62047380D01*
X133429476Y-61047380D01*
X133000904Y-61142619D02*
X132953285Y-61095000D01*
X132858047Y-61047380D01*
X132619952Y-61047380D01*
X132524714Y-61095000D01*
X132477095Y-61142619D01*
X132429476Y-61237857D01*
X132429476Y-61333095D01*
X132477095Y-61475952D01*
X133048523Y-62047380D01*
X132429476Y-62047380D01*
%TO.C,Pi0*%
X68286190Y-131162180D02*
X68286190Y-130162180D01*
X67905238Y-130162180D01*
X67810000Y-130209800D01*
X67762380Y-130257419D01*
X67714761Y-130352657D01*
X67714761Y-130495514D01*
X67762380Y-130590752D01*
X67810000Y-130638371D01*
X67905238Y-130685990D01*
X68286190Y-130685990D01*
X67286190Y-131162180D02*
X67286190Y-130495514D01*
X67286190Y-130162180D02*
X67333809Y-130209800D01*
X67286190Y-130257419D01*
X67238571Y-130209800D01*
X67286190Y-130162180D01*
X67286190Y-130257419D01*
X66619523Y-130162180D02*
X66524285Y-130162180D01*
X66429047Y-130209800D01*
X66381428Y-130257419D01*
X66333809Y-130352657D01*
X66286190Y-130543133D01*
X66286190Y-130781228D01*
X66333809Y-130971704D01*
X66381428Y-131066942D01*
X66429047Y-131114561D01*
X66524285Y-131162180D01*
X66619523Y-131162180D01*
X66714761Y-131114561D01*
X66762380Y-131066942D01*
X66810000Y-130971704D01*
X66857619Y-130781228D01*
X66857619Y-130543133D01*
X66810000Y-130352657D01*
X66762380Y-130257419D01*
X66714761Y-130209800D01*
X66619523Y-130162180D01*
%TD*%
M02*
