%TF.GenerationSoftware,KiCad,Pcbnew,(5.1.12)-1*%
%TF.CreationDate,2022-03-08T20:35:16+00:00*%
%TF.ProjectId,RGBtoHDMI CDTV v2,52474274-6f48-4444-9d49-204344545620,1*%
%TF.SameCoordinates,Original*%
%TF.FileFunction,Soldermask,Top*%
%TF.FilePolarity,Negative*%
%FSLAX46Y46*%
G04 Gerber Fmt 4.6, Leading zero omitted, Abs format (unit mm)*
G04 Created by KiCad (PCBNEW (5.1.12)-1) date 2022-03-08 20:35:16*
%MOMM*%
%LPD*%
G01*
G04 APERTURE LIST*
%ADD10C,0.100000*%
%ADD11O,2.000000X2.000000*%
%ADD12C,2.300000*%
%ADD13C,1.900000*%
%ADD14C,4.300000*%
%ADD15O,1.700000X3.500000*%
%ADD16C,1.100000*%
%ADD17C,2.000000*%
%ADD18C,5.300000*%
G04 APERTURE END LIST*
D10*
G36*
X116713000Y-159258000D02*
G01*
X74803000Y-159258000D01*
X74803000Y-149352000D01*
X116713000Y-149352000D01*
X116713000Y-159258000D01*
G37*
X116713000Y-159258000D02*
X74803000Y-159258000D01*
X74803000Y-149352000D01*
X116713000Y-149352000D01*
X116713000Y-159258000D01*
G36*
X143129000Y-40259000D02*
G01*
X137033000Y-40259000D01*
X137033000Y-37592000D01*
X143129000Y-37592000D01*
X143129000Y-40259000D01*
G37*
X143129000Y-40259000D02*
X137033000Y-40259000D01*
X137033000Y-37592000D01*
X143129000Y-37592000D01*
X143129000Y-40259000D01*
G36*
X55372000Y-40233600D02*
G01*
X49174400Y-40233600D01*
X49174400Y-37566600D01*
X55372000Y-37566600D01*
X55372000Y-40233600D01*
G37*
X55372000Y-40233600D02*
X49174400Y-40233600D01*
X49174400Y-37566600D01*
X55372000Y-37566600D01*
X55372000Y-40233600D01*
%TO.C,solarmon1*%
G36*
X115824000Y-118491000D02*
G01*
X115189000Y-118491000D01*
X115189000Y-117856000D01*
X115824000Y-117856000D01*
X115824000Y-118491000D01*
G37*
X115824000Y-118491000D02*
X115189000Y-118491000D01*
X115189000Y-117856000D01*
X115824000Y-117856000D01*
X115824000Y-118491000D01*
G36*
X115824000Y-119126000D02*
G01*
X115189000Y-119126000D01*
X115189000Y-118491000D01*
X115824000Y-118491000D01*
X115824000Y-119126000D01*
G37*
X115824000Y-119126000D02*
X115189000Y-119126000D01*
X115189000Y-118491000D01*
X115824000Y-118491000D01*
X115824000Y-119126000D01*
G36*
X116459000Y-119126000D02*
G01*
X115824000Y-119126000D01*
X115824000Y-118491000D01*
X116459000Y-118491000D01*
X116459000Y-119126000D01*
G37*
X116459000Y-119126000D02*
X115824000Y-119126000D01*
X115824000Y-118491000D01*
X116459000Y-118491000D01*
X116459000Y-119126000D01*
G36*
X115189000Y-119126000D02*
G01*
X114554000Y-119126000D01*
X114554000Y-118491000D01*
X115189000Y-118491000D01*
X115189000Y-119126000D01*
G37*
X115189000Y-119126000D02*
X114554000Y-119126000D01*
X114554000Y-118491000D01*
X115189000Y-118491000D01*
X115189000Y-119126000D01*
G36*
X114554000Y-118491000D02*
G01*
X113919000Y-118491000D01*
X113919000Y-117856000D01*
X114554000Y-117856000D01*
X114554000Y-118491000D01*
G37*
X114554000Y-118491000D02*
X113919000Y-118491000D01*
X113919000Y-117856000D01*
X114554000Y-117856000D01*
X114554000Y-118491000D01*
G36*
X117729000Y-117856000D02*
G01*
X117094000Y-117856000D01*
X117094000Y-117221000D01*
X117729000Y-117221000D01*
X117729000Y-117856000D01*
G37*
X117729000Y-117856000D02*
X117094000Y-117856000D01*
X117094000Y-117221000D01*
X117729000Y-117221000D01*
X117729000Y-117856000D01*
G36*
X117729000Y-121666000D02*
G01*
X117094000Y-121666000D01*
X117094000Y-121031000D01*
X117729000Y-121031000D01*
X117729000Y-121666000D01*
G37*
X117729000Y-121666000D02*
X117094000Y-121666000D01*
X117094000Y-121031000D01*
X117729000Y-121031000D01*
X117729000Y-121666000D01*
G36*
X116459000Y-117221000D02*
G01*
X115824000Y-117221000D01*
X115824000Y-116586000D01*
X116459000Y-116586000D01*
X116459000Y-117221000D01*
G37*
X116459000Y-117221000D02*
X115824000Y-117221000D01*
X115824000Y-116586000D01*
X116459000Y-116586000D01*
X116459000Y-117221000D01*
G36*
X116459000Y-117856000D02*
G01*
X115824000Y-117856000D01*
X115824000Y-117221000D01*
X116459000Y-117221000D01*
X116459000Y-117856000D01*
G37*
X116459000Y-117856000D02*
X115824000Y-117856000D01*
X115824000Y-117221000D01*
X116459000Y-117221000D01*
X116459000Y-117856000D01*
G36*
X115824000Y-117856000D02*
G01*
X115189000Y-117856000D01*
X115189000Y-117221000D01*
X115824000Y-117221000D01*
X115824000Y-117856000D01*
G37*
X115824000Y-117856000D02*
X115189000Y-117856000D01*
X115189000Y-117221000D01*
X115824000Y-117221000D01*
X115824000Y-117856000D01*
G36*
X115189000Y-117856000D02*
G01*
X114554000Y-117856000D01*
X114554000Y-117221000D01*
X115189000Y-117221000D01*
X115189000Y-117856000D01*
G37*
X115189000Y-117856000D02*
X114554000Y-117856000D01*
X114554000Y-117221000D01*
X115189000Y-117221000D01*
X115189000Y-117856000D01*
G36*
X115189000Y-117221000D02*
G01*
X114554000Y-117221000D01*
X114554000Y-116586000D01*
X115189000Y-116586000D01*
X115189000Y-117221000D01*
G37*
X115189000Y-117221000D02*
X114554000Y-117221000D01*
X114554000Y-116586000D01*
X115189000Y-116586000D01*
X115189000Y-117221000D01*
G36*
X114554000Y-117856000D02*
G01*
X113919000Y-117856000D01*
X113919000Y-117221000D01*
X114554000Y-117221000D01*
X114554000Y-117856000D01*
G37*
X114554000Y-117856000D02*
X113919000Y-117856000D01*
X113919000Y-117221000D01*
X114554000Y-117221000D01*
X114554000Y-117856000D01*
G36*
X113919000Y-117856000D02*
G01*
X113284000Y-117856000D01*
X113284000Y-117221000D01*
X113919000Y-117221000D01*
X113919000Y-117856000D01*
G37*
X113919000Y-117856000D02*
X113284000Y-117856000D01*
X113284000Y-117221000D01*
X113919000Y-117221000D01*
X113919000Y-117856000D01*
G36*
X113284000Y-120396000D02*
G01*
X112649000Y-120396000D01*
X112649000Y-119761000D01*
X113284000Y-119761000D01*
X113284000Y-120396000D01*
G37*
X113284000Y-120396000D02*
X112649000Y-120396000D01*
X112649000Y-119761000D01*
X113284000Y-119761000D01*
X113284000Y-120396000D01*
G36*
X113919000Y-121666000D02*
G01*
X113284000Y-121666000D01*
X113284000Y-121031000D01*
X113919000Y-121031000D01*
X113919000Y-121666000D01*
G37*
X113919000Y-121666000D02*
X113284000Y-121666000D01*
X113284000Y-121031000D01*
X113919000Y-121031000D01*
X113919000Y-121666000D01*
G36*
X116459000Y-121666000D02*
G01*
X115824000Y-121666000D01*
X115824000Y-121031000D01*
X116459000Y-121031000D01*
X116459000Y-121666000D01*
G37*
X116459000Y-121666000D02*
X115824000Y-121666000D01*
X115824000Y-121031000D01*
X116459000Y-121031000D01*
X116459000Y-121666000D01*
G36*
X117729000Y-119761000D02*
G01*
X117094000Y-119761000D01*
X117094000Y-119126000D01*
X117729000Y-119126000D01*
X117729000Y-119761000D01*
G37*
X117729000Y-119761000D02*
X117094000Y-119761000D01*
X117094000Y-119126000D01*
X117729000Y-119126000D01*
X117729000Y-119761000D01*
%TD*%
D11*
%TO.C,P1*%
X88519000Y-138557000D03*
X85979000Y-138557000D03*
X83439000Y-138557000D03*
G36*
G01*
X81749000Y-139557000D02*
X80049000Y-139557000D01*
G75*
G02*
X79899000Y-139407000I0J150000D01*
G01*
X79899000Y-137707000D01*
G75*
G02*
X80049000Y-137557000I150000J0D01*
G01*
X81749000Y-137557000D01*
G75*
G02*
X81899000Y-137707000I0J-150000D01*
G01*
X81899000Y-139407000D01*
G75*
G02*
X81749000Y-139557000I-150000J0D01*
G01*
G37*
%TD*%
%TO.C,RN2*%
G36*
G01*
X100070400Y-121236400D02*
X100070400Y-120736400D01*
G75*
G02*
X100220400Y-120586400I150000J0D01*
G01*
X101020400Y-120586400D01*
G75*
G02*
X101170400Y-120736400I0J-150000D01*
G01*
X101170400Y-121236400D01*
G75*
G02*
X101020400Y-121386400I-150000J0D01*
G01*
X100220400Y-121386400D01*
G75*
G02*
X100070400Y-121236400I0J150000D01*
G01*
G37*
G36*
G01*
X100070400Y-120386400D02*
X100070400Y-119986400D01*
G75*
G02*
X100220400Y-119836400I150000J0D01*
G01*
X101020400Y-119836400D01*
G75*
G02*
X101170400Y-119986400I0J-150000D01*
G01*
X101170400Y-120386400D01*
G75*
G02*
X101020400Y-120536400I-150000J0D01*
G01*
X100220400Y-120536400D01*
G75*
G02*
X100070400Y-120386400I0J150000D01*
G01*
G37*
G36*
G01*
X100070400Y-118836400D02*
X100070400Y-118336400D01*
G75*
G02*
X100220400Y-118186400I150000J0D01*
G01*
X101020400Y-118186400D01*
G75*
G02*
X101170400Y-118336400I0J-150000D01*
G01*
X101170400Y-118836400D01*
G75*
G02*
X101020400Y-118986400I-150000J0D01*
G01*
X100220400Y-118986400D01*
G75*
G02*
X100070400Y-118836400I0J150000D01*
G01*
G37*
G36*
G01*
X100070400Y-119586400D02*
X100070400Y-119186400D01*
G75*
G02*
X100220400Y-119036400I150000J0D01*
G01*
X101020400Y-119036400D01*
G75*
G02*
X101170400Y-119186400I0J-150000D01*
G01*
X101170400Y-119586400D01*
G75*
G02*
X101020400Y-119736400I-150000J0D01*
G01*
X100220400Y-119736400D01*
G75*
G02*
X100070400Y-119586400I0J150000D01*
G01*
G37*
G36*
G01*
X98270400Y-121236400D02*
X98270400Y-120736400D01*
G75*
G02*
X98420400Y-120586400I150000J0D01*
G01*
X99220400Y-120586400D01*
G75*
G02*
X99370400Y-120736400I0J-150000D01*
G01*
X99370400Y-121236400D01*
G75*
G02*
X99220400Y-121386400I-150000J0D01*
G01*
X98420400Y-121386400D01*
G75*
G02*
X98270400Y-121236400I0J150000D01*
G01*
G37*
G36*
G01*
X98270400Y-119586400D02*
X98270400Y-119186400D01*
G75*
G02*
X98420400Y-119036400I150000J0D01*
G01*
X99220400Y-119036400D01*
G75*
G02*
X99370400Y-119186400I0J-150000D01*
G01*
X99370400Y-119586400D01*
G75*
G02*
X99220400Y-119736400I-150000J0D01*
G01*
X98420400Y-119736400D01*
G75*
G02*
X98270400Y-119586400I0J150000D01*
G01*
G37*
G36*
G01*
X98270400Y-120386400D02*
X98270400Y-119986400D01*
G75*
G02*
X98420400Y-119836400I150000J0D01*
G01*
X99220400Y-119836400D01*
G75*
G02*
X99370400Y-119986400I0J-150000D01*
G01*
X99370400Y-120386400D01*
G75*
G02*
X99220400Y-120536400I-150000J0D01*
G01*
X98420400Y-120536400D01*
G75*
G02*
X98270400Y-120386400I0J150000D01*
G01*
G37*
G36*
G01*
X98270400Y-118836400D02*
X98270400Y-118336400D01*
G75*
G02*
X98420400Y-118186400I150000J0D01*
G01*
X99220400Y-118186400D01*
G75*
G02*
X99370400Y-118336400I0J-150000D01*
G01*
X99370400Y-118836400D01*
G75*
G02*
X99220400Y-118986400I-150000J0D01*
G01*
X98420400Y-118986400D01*
G75*
G02*
X98270400Y-118836400I0J150000D01*
G01*
G37*
%TD*%
%TO.C,RN1*%
G36*
G01*
X79115400Y-84025400D02*
X79115400Y-83525400D01*
G75*
G02*
X79265400Y-83375400I150000J0D01*
G01*
X80065400Y-83375400D01*
G75*
G02*
X80215400Y-83525400I0J-150000D01*
G01*
X80215400Y-84025400D01*
G75*
G02*
X80065400Y-84175400I-150000J0D01*
G01*
X79265400Y-84175400D01*
G75*
G02*
X79115400Y-84025400I0J150000D01*
G01*
G37*
G36*
G01*
X79115400Y-83175400D02*
X79115400Y-82775400D01*
G75*
G02*
X79265400Y-82625400I150000J0D01*
G01*
X80065400Y-82625400D01*
G75*
G02*
X80215400Y-82775400I0J-150000D01*
G01*
X80215400Y-83175400D01*
G75*
G02*
X80065400Y-83325400I-150000J0D01*
G01*
X79265400Y-83325400D01*
G75*
G02*
X79115400Y-83175400I0J150000D01*
G01*
G37*
G36*
G01*
X79115400Y-81625400D02*
X79115400Y-81125400D01*
G75*
G02*
X79265400Y-80975400I150000J0D01*
G01*
X80065400Y-80975400D01*
G75*
G02*
X80215400Y-81125400I0J-150000D01*
G01*
X80215400Y-81625400D01*
G75*
G02*
X80065400Y-81775400I-150000J0D01*
G01*
X79265400Y-81775400D01*
G75*
G02*
X79115400Y-81625400I0J150000D01*
G01*
G37*
G36*
G01*
X79115400Y-82375400D02*
X79115400Y-81975400D01*
G75*
G02*
X79265400Y-81825400I150000J0D01*
G01*
X80065400Y-81825400D01*
G75*
G02*
X80215400Y-81975400I0J-150000D01*
G01*
X80215400Y-82375400D01*
G75*
G02*
X80065400Y-82525400I-150000J0D01*
G01*
X79265400Y-82525400D01*
G75*
G02*
X79115400Y-82375400I0J150000D01*
G01*
G37*
G36*
G01*
X77315400Y-84025400D02*
X77315400Y-83525400D01*
G75*
G02*
X77465400Y-83375400I150000J0D01*
G01*
X78265400Y-83375400D01*
G75*
G02*
X78415400Y-83525400I0J-150000D01*
G01*
X78415400Y-84025400D01*
G75*
G02*
X78265400Y-84175400I-150000J0D01*
G01*
X77465400Y-84175400D01*
G75*
G02*
X77315400Y-84025400I0J150000D01*
G01*
G37*
G36*
G01*
X77315400Y-82375400D02*
X77315400Y-81975400D01*
G75*
G02*
X77465400Y-81825400I150000J0D01*
G01*
X78265400Y-81825400D01*
G75*
G02*
X78415400Y-81975400I0J-150000D01*
G01*
X78415400Y-82375400D01*
G75*
G02*
X78265400Y-82525400I-150000J0D01*
G01*
X77465400Y-82525400D01*
G75*
G02*
X77315400Y-82375400I0J150000D01*
G01*
G37*
G36*
G01*
X77315400Y-83175400D02*
X77315400Y-82775400D01*
G75*
G02*
X77465400Y-82625400I150000J0D01*
G01*
X78265400Y-82625400D01*
G75*
G02*
X78415400Y-82775400I0J-150000D01*
G01*
X78415400Y-83175400D01*
G75*
G02*
X78265400Y-83325400I-150000J0D01*
G01*
X77465400Y-83325400D01*
G75*
G02*
X77315400Y-83175400I0J150000D01*
G01*
G37*
G36*
G01*
X77315400Y-81625400D02*
X77315400Y-81125400D01*
G75*
G02*
X77465400Y-80975400I150000J0D01*
G01*
X78265400Y-80975400D01*
G75*
G02*
X78415400Y-81125400I0J-150000D01*
G01*
X78415400Y-81625400D01*
G75*
G02*
X78265400Y-81775400I-150000J0D01*
G01*
X77465400Y-81775400D01*
G75*
G02*
X77315400Y-81625400I0J150000D01*
G01*
G37*
%TD*%
%TO.C,CN10*%
G36*
G01*
X87343600Y-157178000D02*
X87343600Y-151178000D01*
G75*
G02*
X88493600Y-150028000I1150000J0D01*
G01*
X88493600Y-150028000D01*
G75*
G02*
X89643600Y-151178000I0J-1150000D01*
G01*
X89643600Y-157178000D01*
G75*
G02*
X88493600Y-158328000I-1150000J0D01*
G01*
X88493600Y-158328000D01*
G75*
G02*
X87343600Y-157178000I0J1150000D01*
G01*
G37*
G36*
G01*
X84829000Y-157178000D02*
X84829000Y-151178000D01*
G75*
G02*
X85979000Y-150028000I1150000J0D01*
G01*
X85979000Y-150028000D01*
G75*
G02*
X87129000Y-151178000I0J-1150000D01*
G01*
X87129000Y-157178000D01*
G75*
G02*
X85979000Y-158328000I-1150000J0D01*
G01*
X85979000Y-158328000D01*
G75*
G02*
X84829000Y-157178000I0J1150000D01*
G01*
G37*
G36*
G01*
X89909000Y-157178000D02*
X89909000Y-151178000D01*
G75*
G02*
X91059000Y-150028000I1150000J0D01*
G01*
X91059000Y-150028000D01*
G75*
G02*
X92209000Y-151178000I0J-1150000D01*
G01*
X92209000Y-157178000D01*
G75*
G02*
X91059000Y-158328000I-1150000J0D01*
G01*
X91059000Y-158328000D01*
G75*
G02*
X89909000Y-157178000I0J1150000D01*
G01*
G37*
G36*
G01*
X92449000Y-157178000D02*
X92449000Y-151178000D01*
G75*
G02*
X93599000Y-150028000I1150000J0D01*
G01*
X93599000Y-150028000D01*
G75*
G02*
X94749000Y-151178000I0J-1150000D01*
G01*
X94749000Y-157178000D01*
G75*
G02*
X93599000Y-158328000I-1150000J0D01*
G01*
X93599000Y-158328000D01*
G75*
G02*
X92449000Y-157178000I0J1150000D01*
G01*
G37*
G36*
G01*
X79749000Y-157178000D02*
X79749000Y-151178000D01*
G75*
G02*
X80899000Y-150028000I1150000J0D01*
G01*
X80899000Y-150028000D01*
G75*
G02*
X82049000Y-151178000I0J-1150000D01*
G01*
X82049000Y-157178000D01*
G75*
G02*
X80899000Y-158328000I-1150000J0D01*
G01*
X80899000Y-158328000D01*
G75*
G02*
X79749000Y-157178000I0J1150000D01*
G01*
G37*
G36*
G01*
X77209000Y-157178000D02*
X77209000Y-151178000D01*
G75*
G02*
X78359000Y-150028000I1150000J0D01*
G01*
X78359000Y-150028000D01*
G75*
G02*
X79509000Y-151178000I0J-1150000D01*
G01*
X79509000Y-157178000D01*
G75*
G02*
X78359000Y-158328000I-1150000J0D01*
G01*
X78359000Y-158328000D01*
G75*
G02*
X77209000Y-157178000I0J1150000D01*
G01*
G37*
G36*
G01*
X82314400Y-157178000D02*
X82314400Y-151178000D01*
G75*
G02*
X83464400Y-150028000I1150000J0D01*
G01*
X83464400Y-150028000D01*
G75*
G02*
X84614400Y-151178000I0J-1150000D01*
G01*
X84614400Y-157178000D01*
G75*
G02*
X83464400Y-158328000I-1150000J0D01*
G01*
X83464400Y-158328000D01*
G75*
G02*
X82314400Y-157178000I0J1150000D01*
G01*
G37*
G36*
G01*
X97529000Y-157178000D02*
X97529000Y-151178000D01*
G75*
G02*
X98679000Y-150028000I1150000J0D01*
G01*
X98679000Y-150028000D01*
G75*
G02*
X99829000Y-151178000I0J-1150000D01*
G01*
X99829000Y-157178000D01*
G75*
G02*
X98679000Y-158328000I-1150000J0D01*
G01*
X98679000Y-158328000D01*
G75*
G02*
X97529000Y-157178000I0J1150000D01*
G01*
G37*
G36*
G01*
X94963600Y-157178000D02*
X94963600Y-151178000D01*
G75*
G02*
X96113600Y-150028000I1150000J0D01*
G01*
X96113600Y-150028000D01*
G75*
G02*
X97263600Y-151178000I0J-1150000D01*
G01*
X97263600Y-157178000D01*
G75*
G02*
X96113600Y-158328000I-1150000J0D01*
G01*
X96113600Y-158328000D01*
G75*
G02*
X94963600Y-157178000I0J1150000D01*
G01*
G37*
G36*
G01*
X100069000Y-157178000D02*
X100069000Y-151178000D01*
G75*
G02*
X101219000Y-150028000I1150000J0D01*
G01*
X101219000Y-150028000D01*
G75*
G02*
X102369000Y-151178000I0J-1150000D01*
G01*
X102369000Y-157178000D01*
G75*
G02*
X101219000Y-158328000I-1150000J0D01*
G01*
X101219000Y-158328000D01*
G75*
G02*
X100069000Y-157178000I0J1150000D01*
G01*
G37*
G36*
G01*
X102609000Y-157178000D02*
X102609000Y-151178000D01*
G75*
G02*
X103759000Y-150028000I1150000J0D01*
G01*
X103759000Y-150028000D01*
G75*
G02*
X104909000Y-151178000I0J-1150000D01*
G01*
X104909000Y-157178000D01*
G75*
G02*
X103759000Y-158328000I-1150000J0D01*
G01*
X103759000Y-158328000D01*
G75*
G02*
X102609000Y-157178000I0J1150000D01*
G01*
G37*
G36*
G01*
X105149000Y-157178000D02*
X105149000Y-151178000D01*
G75*
G02*
X106299000Y-150028000I1150000J0D01*
G01*
X106299000Y-150028000D01*
G75*
G02*
X107449000Y-151178000I0J-1150000D01*
G01*
X107449000Y-157178000D01*
G75*
G02*
X106299000Y-158328000I-1150000J0D01*
G01*
X106299000Y-158328000D01*
G75*
G02*
X105149000Y-157178000I0J1150000D01*
G01*
G37*
G36*
G01*
X107689000Y-157178000D02*
X107689000Y-151178000D01*
G75*
G02*
X108839000Y-150028000I1150000J0D01*
G01*
X108839000Y-150028000D01*
G75*
G02*
X109989000Y-151178000I0J-1150000D01*
G01*
X109989000Y-157178000D01*
G75*
G02*
X108839000Y-158328000I-1150000J0D01*
G01*
X108839000Y-158328000D01*
G75*
G02*
X107689000Y-157178000I0J1150000D01*
G01*
G37*
G36*
G01*
X110229000Y-157178000D02*
X110229000Y-151178000D01*
G75*
G02*
X111379000Y-150028000I1150000J0D01*
G01*
X111379000Y-150028000D01*
G75*
G02*
X112529000Y-151178000I0J-1150000D01*
G01*
X112529000Y-157178000D01*
G75*
G02*
X111379000Y-158328000I-1150000J0D01*
G01*
X111379000Y-158328000D01*
G75*
G02*
X110229000Y-157178000I0J1150000D01*
G01*
G37*
G36*
G01*
X112769000Y-157178000D02*
X112769000Y-151178000D01*
G75*
G02*
X113919000Y-150028000I1150000J0D01*
G01*
X113919000Y-150028000D01*
G75*
G02*
X115069000Y-151178000I0J-1150000D01*
G01*
X115069000Y-157178000D01*
G75*
G02*
X113919000Y-158328000I-1150000J0D01*
G01*
X113919000Y-158328000D01*
G75*
G02*
X112769000Y-157178000I0J1150000D01*
G01*
G37*
%TD*%
%TO.C,A1*%
X134620000Y-137160000D03*
X132080000Y-137160000D03*
X129540000Y-137160000D03*
G36*
G01*
X127850000Y-138160000D02*
X126150000Y-138160000D01*
G75*
G02*
X126000000Y-138010000I0J150000D01*
G01*
X126000000Y-136310000D01*
G75*
G02*
X126150000Y-136160000I150000J0D01*
G01*
X127850000Y-136160000D01*
G75*
G02*
X128000000Y-136310000I0J-150000D01*
G01*
X128000000Y-138010000D01*
G75*
G02*
X127850000Y-138160000I-150000J0D01*
G01*
G37*
%TD*%
%TO.C,JP15*%
X123190000Y-66929000D03*
G36*
G01*
X124880000Y-65929000D02*
X126580000Y-65929000D01*
G75*
G02*
X126730000Y-66079000I0J-150000D01*
G01*
X126730000Y-67779000D01*
G75*
G02*
X126580000Y-67929000I-150000J0D01*
G01*
X124880000Y-67929000D01*
G75*
G02*
X124730000Y-67779000I0J150000D01*
G01*
X124730000Y-66079000D01*
G75*
G02*
X124880000Y-65929000I150000J0D01*
G01*
G37*
%TD*%
%TO.C,TS1*%
G36*
G01*
X124222000Y-55111000D02*
X126222000Y-55111000D01*
G75*
G02*
X126372000Y-55261000I0J-150000D01*
G01*
X126372000Y-57261000D01*
G75*
G02*
X126222000Y-57411000I-150000J0D01*
G01*
X124222000Y-57411000D01*
G75*
G02*
X124072000Y-57261000I0J150000D01*
G01*
X124072000Y-55261000D01*
G75*
G02*
X124222000Y-55111000I150000J0D01*
G01*
G37*
D12*
X125222000Y-60071000D03*
X125222000Y-63881000D03*
X122682000Y-43561000D03*
X127762000Y-43561000D03*
X125222000Y-43561000D03*
%TD*%
%TO.C,PORT2*%
G36*
G01*
X66487000Y-47536000D02*
X66487000Y-45936000D01*
G75*
G02*
X66637000Y-45786000I150000J0D01*
G01*
X68237000Y-45786000D01*
G75*
G02*
X68387000Y-45936000I0J-150000D01*
G01*
X68387000Y-47536000D01*
G75*
G02*
X68237000Y-47686000I-150000J0D01*
G01*
X66637000Y-47686000D01*
G75*
G02*
X66487000Y-47536000I0J150000D01*
G01*
G37*
D13*
X70207000Y-46736000D03*
X72977000Y-46736000D03*
X75747000Y-46736000D03*
X78517000Y-46736000D03*
X68822000Y-43896000D03*
X71592000Y-43896000D03*
X74362000Y-43896000D03*
X77132000Y-43896000D03*
D14*
X60477000Y-45316000D03*
X85477000Y-45316000D03*
%TD*%
%TO.C,PORT1*%
X117354000Y-45316000D03*
X92354000Y-45316000D03*
D13*
X109009000Y-43896000D03*
X106239000Y-43896000D03*
X103469000Y-43896000D03*
X100699000Y-43896000D03*
X110394000Y-46736000D03*
X107624000Y-46736000D03*
X104854000Y-46736000D03*
X102084000Y-46736000D03*
G36*
G01*
X98364000Y-47536000D02*
X98364000Y-45936000D01*
G75*
G02*
X98514000Y-45786000I150000J0D01*
G01*
X100114000Y-45786000D01*
G75*
G02*
X100264000Y-45936000I0J-150000D01*
G01*
X100264000Y-47536000D01*
G75*
G02*
X100114000Y-47686000I-150000J0D01*
G01*
X98514000Y-47686000D01*
G75*
G02*
X98364000Y-47536000I0J150000D01*
G01*
G37*
%TD*%
%TO.C,FFC1*%
G36*
G01*
X116136000Y-107900000D02*
X113136000Y-107900000D01*
G75*
G02*
X112986000Y-107750000I0J150000D01*
G01*
X112986000Y-105250000D01*
G75*
G02*
X113136000Y-105100000I150000J0D01*
G01*
X116136000Y-105100000D01*
G75*
G02*
X116286000Y-105250000I0J-150000D01*
G01*
X116286000Y-107750000D01*
G75*
G02*
X116136000Y-107900000I-150000J0D01*
G01*
G37*
G36*
G01*
X116136000Y-85400000D02*
X113136000Y-85400000D01*
G75*
G02*
X112986000Y-85250000I0J150000D01*
G01*
X112986000Y-82750000D01*
G75*
G02*
X113136000Y-82600000I150000J0D01*
G01*
X116136000Y-82600000D01*
G75*
G02*
X116286000Y-82750000I0J-150000D01*
G01*
X116286000Y-85250000D01*
G75*
G02*
X116136000Y-85400000I-150000J0D01*
G01*
G37*
G36*
G01*
X113186000Y-87200000D02*
X111186000Y-87200000D01*
G75*
G02*
X111036000Y-87050000I0J150000D01*
G01*
X111036000Y-86450000D01*
G75*
G02*
X111186000Y-86300000I150000J0D01*
G01*
X113186000Y-86300000D01*
G75*
G02*
X113336000Y-86450000I0J-150000D01*
G01*
X113336000Y-87050000D01*
G75*
G02*
X113186000Y-87200000I-150000J0D01*
G01*
G37*
G36*
G01*
X113186000Y-88200000D02*
X111186000Y-88200000D01*
G75*
G02*
X111036000Y-88050000I0J150000D01*
G01*
X111036000Y-87450000D01*
G75*
G02*
X111186000Y-87300000I150000J0D01*
G01*
X113186000Y-87300000D01*
G75*
G02*
X113336000Y-87450000I0J-150000D01*
G01*
X113336000Y-88050000D01*
G75*
G02*
X113186000Y-88200000I-150000J0D01*
G01*
G37*
G36*
G01*
X113186000Y-89200000D02*
X111186000Y-89200000D01*
G75*
G02*
X111036000Y-89050000I0J150000D01*
G01*
X111036000Y-88450000D01*
G75*
G02*
X111186000Y-88300000I150000J0D01*
G01*
X113186000Y-88300000D01*
G75*
G02*
X113336000Y-88450000I0J-150000D01*
G01*
X113336000Y-89050000D01*
G75*
G02*
X113186000Y-89200000I-150000J0D01*
G01*
G37*
G36*
G01*
X113186000Y-90200000D02*
X111186000Y-90200000D01*
G75*
G02*
X111036000Y-90050000I0J150000D01*
G01*
X111036000Y-89450000D01*
G75*
G02*
X111186000Y-89300000I150000J0D01*
G01*
X113186000Y-89300000D01*
G75*
G02*
X113336000Y-89450000I0J-150000D01*
G01*
X113336000Y-90050000D01*
G75*
G02*
X113186000Y-90200000I-150000J0D01*
G01*
G37*
G36*
G01*
X113186000Y-91200000D02*
X111186000Y-91200000D01*
G75*
G02*
X111036000Y-91050000I0J150000D01*
G01*
X111036000Y-90450000D01*
G75*
G02*
X111186000Y-90300000I150000J0D01*
G01*
X113186000Y-90300000D01*
G75*
G02*
X113336000Y-90450000I0J-150000D01*
G01*
X113336000Y-91050000D01*
G75*
G02*
X113186000Y-91200000I-150000J0D01*
G01*
G37*
G36*
G01*
X113186000Y-92200000D02*
X111186000Y-92200000D01*
G75*
G02*
X111036000Y-92050000I0J150000D01*
G01*
X111036000Y-91450000D01*
G75*
G02*
X111186000Y-91300000I150000J0D01*
G01*
X113186000Y-91300000D01*
G75*
G02*
X113336000Y-91450000I0J-150000D01*
G01*
X113336000Y-92050000D01*
G75*
G02*
X113186000Y-92200000I-150000J0D01*
G01*
G37*
G36*
G01*
X113186000Y-93200000D02*
X111186000Y-93200000D01*
G75*
G02*
X111036000Y-93050000I0J150000D01*
G01*
X111036000Y-92450000D01*
G75*
G02*
X111186000Y-92300000I150000J0D01*
G01*
X113186000Y-92300000D01*
G75*
G02*
X113336000Y-92450000I0J-150000D01*
G01*
X113336000Y-93050000D01*
G75*
G02*
X113186000Y-93200000I-150000J0D01*
G01*
G37*
G36*
G01*
X113186000Y-94200000D02*
X111186000Y-94200000D01*
G75*
G02*
X111036000Y-94050000I0J150000D01*
G01*
X111036000Y-93450000D01*
G75*
G02*
X111186000Y-93300000I150000J0D01*
G01*
X113186000Y-93300000D01*
G75*
G02*
X113336000Y-93450000I0J-150000D01*
G01*
X113336000Y-94050000D01*
G75*
G02*
X113186000Y-94200000I-150000J0D01*
G01*
G37*
G36*
G01*
X113186000Y-95200000D02*
X111186000Y-95200000D01*
G75*
G02*
X111036000Y-95050000I0J150000D01*
G01*
X111036000Y-94450000D01*
G75*
G02*
X111186000Y-94300000I150000J0D01*
G01*
X113186000Y-94300000D01*
G75*
G02*
X113336000Y-94450000I0J-150000D01*
G01*
X113336000Y-95050000D01*
G75*
G02*
X113186000Y-95200000I-150000J0D01*
G01*
G37*
G36*
G01*
X113186000Y-96200000D02*
X111186000Y-96200000D01*
G75*
G02*
X111036000Y-96050000I0J150000D01*
G01*
X111036000Y-95450000D01*
G75*
G02*
X111186000Y-95300000I150000J0D01*
G01*
X113186000Y-95300000D01*
G75*
G02*
X113336000Y-95450000I0J-150000D01*
G01*
X113336000Y-96050000D01*
G75*
G02*
X113186000Y-96200000I-150000J0D01*
G01*
G37*
G36*
G01*
X113186000Y-97200000D02*
X111186000Y-97200000D01*
G75*
G02*
X111036000Y-97050000I0J150000D01*
G01*
X111036000Y-96450000D01*
G75*
G02*
X111186000Y-96300000I150000J0D01*
G01*
X113186000Y-96300000D01*
G75*
G02*
X113336000Y-96450000I0J-150000D01*
G01*
X113336000Y-97050000D01*
G75*
G02*
X113186000Y-97200000I-150000J0D01*
G01*
G37*
G36*
G01*
X113186000Y-98200000D02*
X111186000Y-98200000D01*
G75*
G02*
X111036000Y-98050000I0J150000D01*
G01*
X111036000Y-97450000D01*
G75*
G02*
X111186000Y-97300000I150000J0D01*
G01*
X113186000Y-97300000D01*
G75*
G02*
X113336000Y-97450000I0J-150000D01*
G01*
X113336000Y-98050000D01*
G75*
G02*
X113186000Y-98200000I-150000J0D01*
G01*
G37*
G36*
G01*
X113186000Y-99200000D02*
X111186000Y-99200000D01*
G75*
G02*
X111036000Y-99050000I0J150000D01*
G01*
X111036000Y-98450000D01*
G75*
G02*
X111186000Y-98300000I150000J0D01*
G01*
X113186000Y-98300000D01*
G75*
G02*
X113336000Y-98450000I0J-150000D01*
G01*
X113336000Y-99050000D01*
G75*
G02*
X113186000Y-99200000I-150000J0D01*
G01*
G37*
G36*
G01*
X113186000Y-100200000D02*
X111186000Y-100200000D01*
G75*
G02*
X111036000Y-100050000I0J150000D01*
G01*
X111036000Y-99450000D01*
G75*
G02*
X111186000Y-99300000I150000J0D01*
G01*
X113186000Y-99300000D01*
G75*
G02*
X113336000Y-99450000I0J-150000D01*
G01*
X113336000Y-100050000D01*
G75*
G02*
X113186000Y-100200000I-150000J0D01*
G01*
G37*
G36*
G01*
X113186000Y-101200000D02*
X111186000Y-101200000D01*
G75*
G02*
X111036000Y-101050000I0J150000D01*
G01*
X111036000Y-100450000D01*
G75*
G02*
X111186000Y-100300000I150000J0D01*
G01*
X113186000Y-100300000D01*
G75*
G02*
X113336000Y-100450000I0J-150000D01*
G01*
X113336000Y-101050000D01*
G75*
G02*
X113186000Y-101200000I-150000J0D01*
G01*
G37*
G36*
G01*
X113186000Y-102200000D02*
X111186000Y-102200000D01*
G75*
G02*
X111036000Y-102050000I0J150000D01*
G01*
X111036000Y-101450000D01*
G75*
G02*
X111186000Y-101300000I150000J0D01*
G01*
X113186000Y-101300000D01*
G75*
G02*
X113336000Y-101450000I0J-150000D01*
G01*
X113336000Y-102050000D01*
G75*
G02*
X113186000Y-102200000I-150000J0D01*
G01*
G37*
G36*
G01*
X113186000Y-103200000D02*
X111186000Y-103200000D01*
G75*
G02*
X111036000Y-103050000I0J150000D01*
G01*
X111036000Y-102450000D01*
G75*
G02*
X111186000Y-102300000I150000J0D01*
G01*
X113186000Y-102300000D01*
G75*
G02*
X113336000Y-102450000I0J-150000D01*
G01*
X113336000Y-103050000D01*
G75*
G02*
X113186000Y-103200000I-150000J0D01*
G01*
G37*
G36*
G01*
X113186000Y-104200000D02*
X111186000Y-104200000D01*
G75*
G02*
X111036000Y-104050000I0J150000D01*
G01*
X111036000Y-103450000D01*
G75*
G02*
X111186000Y-103300000I150000J0D01*
G01*
X113186000Y-103300000D01*
G75*
G02*
X113336000Y-103450000I0J-150000D01*
G01*
X113336000Y-104050000D01*
G75*
G02*
X113186000Y-104200000I-150000J0D01*
G01*
G37*
%TD*%
%TO.C,FFC2*%
G36*
G01*
X130625000Y-82600000D02*
X133625000Y-82600000D01*
G75*
G02*
X133775000Y-82750000I0J-150000D01*
G01*
X133775000Y-85250000D01*
G75*
G02*
X133625000Y-85400000I-150000J0D01*
G01*
X130625000Y-85400000D01*
G75*
G02*
X130475000Y-85250000I0J150000D01*
G01*
X130475000Y-82750000D01*
G75*
G02*
X130625000Y-82600000I150000J0D01*
G01*
G37*
G36*
G01*
X130625000Y-105100000D02*
X133625000Y-105100000D01*
G75*
G02*
X133775000Y-105250000I0J-150000D01*
G01*
X133775000Y-107750000D01*
G75*
G02*
X133625000Y-107900000I-150000J0D01*
G01*
X130625000Y-107900000D01*
G75*
G02*
X130475000Y-107750000I0J150000D01*
G01*
X130475000Y-105250000D01*
G75*
G02*
X130625000Y-105100000I150000J0D01*
G01*
G37*
G36*
G01*
X133575000Y-103300000D02*
X135575000Y-103300000D01*
G75*
G02*
X135725000Y-103450000I0J-150000D01*
G01*
X135725000Y-104050000D01*
G75*
G02*
X135575000Y-104200000I-150000J0D01*
G01*
X133575000Y-104200000D01*
G75*
G02*
X133425000Y-104050000I0J150000D01*
G01*
X133425000Y-103450000D01*
G75*
G02*
X133575000Y-103300000I150000J0D01*
G01*
G37*
G36*
G01*
X133575000Y-102300000D02*
X135575000Y-102300000D01*
G75*
G02*
X135725000Y-102450000I0J-150000D01*
G01*
X135725000Y-103050000D01*
G75*
G02*
X135575000Y-103200000I-150000J0D01*
G01*
X133575000Y-103200000D01*
G75*
G02*
X133425000Y-103050000I0J150000D01*
G01*
X133425000Y-102450000D01*
G75*
G02*
X133575000Y-102300000I150000J0D01*
G01*
G37*
G36*
G01*
X133575000Y-101300000D02*
X135575000Y-101300000D01*
G75*
G02*
X135725000Y-101450000I0J-150000D01*
G01*
X135725000Y-102050000D01*
G75*
G02*
X135575000Y-102200000I-150000J0D01*
G01*
X133575000Y-102200000D01*
G75*
G02*
X133425000Y-102050000I0J150000D01*
G01*
X133425000Y-101450000D01*
G75*
G02*
X133575000Y-101300000I150000J0D01*
G01*
G37*
G36*
G01*
X133575000Y-100300000D02*
X135575000Y-100300000D01*
G75*
G02*
X135725000Y-100450000I0J-150000D01*
G01*
X135725000Y-101050000D01*
G75*
G02*
X135575000Y-101200000I-150000J0D01*
G01*
X133575000Y-101200000D01*
G75*
G02*
X133425000Y-101050000I0J150000D01*
G01*
X133425000Y-100450000D01*
G75*
G02*
X133575000Y-100300000I150000J0D01*
G01*
G37*
G36*
G01*
X133575000Y-99300000D02*
X135575000Y-99300000D01*
G75*
G02*
X135725000Y-99450000I0J-150000D01*
G01*
X135725000Y-100050000D01*
G75*
G02*
X135575000Y-100200000I-150000J0D01*
G01*
X133575000Y-100200000D01*
G75*
G02*
X133425000Y-100050000I0J150000D01*
G01*
X133425000Y-99450000D01*
G75*
G02*
X133575000Y-99300000I150000J0D01*
G01*
G37*
G36*
G01*
X133575000Y-98300000D02*
X135575000Y-98300000D01*
G75*
G02*
X135725000Y-98450000I0J-150000D01*
G01*
X135725000Y-99050000D01*
G75*
G02*
X135575000Y-99200000I-150000J0D01*
G01*
X133575000Y-99200000D01*
G75*
G02*
X133425000Y-99050000I0J150000D01*
G01*
X133425000Y-98450000D01*
G75*
G02*
X133575000Y-98300000I150000J0D01*
G01*
G37*
G36*
G01*
X133575000Y-97300000D02*
X135575000Y-97300000D01*
G75*
G02*
X135725000Y-97450000I0J-150000D01*
G01*
X135725000Y-98050000D01*
G75*
G02*
X135575000Y-98200000I-150000J0D01*
G01*
X133575000Y-98200000D01*
G75*
G02*
X133425000Y-98050000I0J150000D01*
G01*
X133425000Y-97450000D01*
G75*
G02*
X133575000Y-97300000I150000J0D01*
G01*
G37*
G36*
G01*
X133575000Y-96300000D02*
X135575000Y-96300000D01*
G75*
G02*
X135725000Y-96450000I0J-150000D01*
G01*
X135725000Y-97050000D01*
G75*
G02*
X135575000Y-97200000I-150000J0D01*
G01*
X133575000Y-97200000D01*
G75*
G02*
X133425000Y-97050000I0J150000D01*
G01*
X133425000Y-96450000D01*
G75*
G02*
X133575000Y-96300000I150000J0D01*
G01*
G37*
G36*
G01*
X133575000Y-95300000D02*
X135575000Y-95300000D01*
G75*
G02*
X135725000Y-95450000I0J-150000D01*
G01*
X135725000Y-96050000D01*
G75*
G02*
X135575000Y-96200000I-150000J0D01*
G01*
X133575000Y-96200000D01*
G75*
G02*
X133425000Y-96050000I0J150000D01*
G01*
X133425000Y-95450000D01*
G75*
G02*
X133575000Y-95300000I150000J0D01*
G01*
G37*
G36*
G01*
X133575000Y-94300000D02*
X135575000Y-94300000D01*
G75*
G02*
X135725000Y-94450000I0J-150000D01*
G01*
X135725000Y-95050000D01*
G75*
G02*
X135575000Y-95200000I-150000J0D01*
G01*
X133575000Y-95200000D01*
G75*
G02*
X133425000Y-95050000I0J150000D01*
G01*
X133425000Y-94450000D01*
G75*
G02*
X133575000Y-94300000I150000J0D01*
G01*
G37*
G36*
G01*
X133575000Y-93300000D02*
X135575000Y-93300000D01*
G75*
G02*
X135725000Y-93450000I0J-150000D01*
G01*
X135725000Y-94050000D01*
G75*
G02*
X135575000Y-94200000I-150000J0D01*
G01*
X133575000Y-94200000D01*
G75*
G02*
X133425000Y-94050000I0J150000D01*
G01*
X133425000Y-93450000D01*
G75*
G02*
X133575000Y-93300000I150000J0D01*
G01*
G37*
G36*
G01*
X133575000Y-92300000D02*
X135575000Y-92300000D01*
G75*
G02*
X135725000Y-92450000I0J-150000D01*
G01*
X135725000Y-93050000D01*
G75*
G02*
X135575000Y-93200000I-150000J0D01*
G01*
X133575000Y-93200000D01*
G75*
G02*
X133425000Y-93050000I0J150000D01*
G01*
X133425000Y-92450000D01*
G75*
G02*
X133575000Y-92300000I150000J0D01*
G01*
G37*
G36*
G01*
X133575000Y-91300000D02*
X135575000Y-91300000D01*
G75*
G02*
X135725000Y-91450000I0J-150000D01*
G01*
X135725000Y-92050000D01*
G75*
G02*
X135575000Y-92200000I-150000J0D01*
G01*
X133575000Y-92200000D01*
G75*
G02*
X133425000Y-92050000I0J150000D01*
G01*
X133425000Y-91450000D01*
G75*
G02*
X133575000Y-91300000I150000J0D01*
G01*
G37*
G36*
G01*
X133575000Y-90300000D02*
X135575000Y-90300000D01*
G75*
G02*
X135725000Y-90450000I0J-150000D01*
G01*
X135725000Y-91050000D01*
G75*
G02*
X135575000Y-91200000I-150000J0D01*
G01*
X133575000Y-91200000D01*
G75*
G02*
X133425000Y-91050000I0J150000D01*
G01*
X133425000Y-90450000D01*
G75*
G02*
X133575000Y-90300000I150000J0D01*
G01*
G37*
G36*
G01*
X133575000Y-89300000D02*
X135575000Y-89300000D01*
G75*
G02*
X135725000Y-89450000I0J-150000D01*
G01*
X135725000Y-90050000D01*
G75*
G02*
X135575000Y-90200000I-150000J0D01*
G01*
X133575000Y-90200000D01*
G75*
G02*
X133425000Y-90050000I0J150000D01*
G01*
X133425000Y-89450000D01*
G75*
G02*
X133575000Y-89300000I150000J0D01*
G01*
G37*
G36*
G01*
X133575000Y-88300000D02*
X135575000Y-88300000D01*
G75*
G02*
X135725000Y-88450000I0J-150000D01*
G01*
X135725000Y-89050000D01*
G75*
G02*
X135575000Y-89200000I-150000J0D01*
G01*
X133575000Y-89200000D01*
G75*
G02*
X133425000Y-89050000I0J150000D01*
G01*
X133425000Y-88450000D01*
G75*
G02*
X133575000Y-88300000I150000J0D01*
G01*
G37*
G36*
G01*
X133575000Y-87300000D02*
X135575000Y-87300000D01*
G75*
G02*
X135725000Y-87450000I0J-150000D01*
G01*
X135725000Y-88050000D01*
G75*
G02*
X135575000Y-88200000I-150000J0D01*
G01*
X133575000Y-88200000D01*
G75*
G02*
X133425000Y-88050000I0J150000D01*
G01*
X133425000Y-87450000D01*
G75*
G02*
X133575000Y-87300000I150000J0D01*
G01*
G37*
G36*
G01*
X133575000Y-86300000D02*
X135575000Y-86300000D01*
G75*
G02*
X135725000Y-86450000I0J-150000D01*
G01*
X135725000Y-87050000D01*
G75*
G02*
X135575000Y-87200000I-150000J0D01*
G01*
X133575000Y-87200000D01*
G75*
G02*
X133425000Y-87050000I0J150000D01*
G01*
X133425000Y-86450000D01*
G75*
G02*
X133575000Y-86300000I150000J0D01*
G01*
G37*
%TD*%
D11*
%TO.C,CN1*%
X78827000Y-64135000D03*
X78827000Y-66675000D03*
X76287000Y-64135000D03*
X76287000Y-66675000D03*
X73747000Y-64135000D03*
X73747000Y-66675000D03*
X71207000Y-64135000D03*
X71207000Y-66675000D03*
X68667000Y-64135000D03*
X68667000Y-66675000D03*
X66127000Y-64135000D03*
G36*
G01*
X65277000Y-65675000D02*
X66977000Y-65675000D01*
G75*
G02*
X67127000Y-65825000I0J-150000D01*
G01*
X67127000Y-67525000D01*
G75*
G02*
X66977000Y-67675000I-150000J0D01*
G01*
X65277000Y-67675000D01*
G75*
G02*
X65127000Y-67525000I0J150000D01*
G01*
X65127000Y-65825000D01*
G75*
G02*
X65277000Y-65675000I150000J0D01*
G01*
G37*
%TD*%
%TO.C,CN2*%
G36*
G01*
X133689000Y-47195700D02*
X133689000Y-46784300D01*
G75*
G02*
X134033300Y-46440000I344300J0D01*
G01*
X134444700Y-46440000D01*
G75*
G02*
X134789000Y-46784300I0J-344300D01*
G01*
X134789000Y-47195700D01*
G75*
G02*
X134444700Y-47540000I-344300J0D01*
G01*
X134033300Y-47540000D01*
G75*
G02*
X133689000Y-47195700I0J344300D01*
G01*
G37*
D15*
X130489000Y-46240000D03*
D16*
X133239000Y-47567500D03*
X134239000Y-48145000D03*
X133239000Y-48722500D03*
X134239000Y-49300000D03*
X133239000Y-49877500D03*
X134239000Y-50455000D03*
X133239000Y-51032500D03*
X134239000Y-51610000D03*
X133239000Y-52187500D03*
X134239000Y-52765000D03*
X133239000Y-53342500D03*
X134239000Y-53920000D03*
X133239000Y-54497500D03*
X134239000Y-55075000D03*
X133239000Y-55652500D03*
X134239000Y-56230000D03*
X133239000Y-56807500D03*
X134239000Y-57385000D03*
D15*
X136989000Y-48840000D03*
X136989000Y-58340000D03*
X130489000Y-55240000D03*
D17*
X135239000Y-45090000D03*
X131739000Y-58340000D03*
%TD*%
D11*
%TO.C,BT3*%
X66040000Y-59055000D03*
G36*
G01*
X65040000Y-57365000D02*
X65040000Y-55665000D01*
G75*
G02*
X65190000Y-55515000I150000J0D01*
G01*
X66890000Y-55515000D01*
G75*
G02*
X67040000Y-55665000I0J-150000D01*
G01*
X67040000Y-57365000D01*
G75*
G02*
X66890000Y-57515000I-150000J0D01*
G01*
X65190000Y-57515000D01*
G75*
G02*
X65040000Y-57365000I0J150000D01*
G01*
G37*
%TD*%
%TO.C,BT2*%
X68580000Y-59055000D03*
G36*
G01*
X67580000Y-57365000D02*
X67580000Y-55665000D01*
G75*
G02*
X67730000Y-55515000I150000J0D01*
G01*
X69430000Y-55515000D01*
G75*
G02*
X69580000Y-55665000I0J-150000D01*
G01*
X69580000Y-57365000D01*
G75*
G02*
X69430000Y-57515000I-150000J0D01*
G01*
X67730000Y-57515000D01*
G75*
G02*
X67580000Y-57365000I0J150000D01*
G01*
G37*
%TD*%
%TO.C,BT1*%
X71120000Y-59055000D03*
G36*
G01*
X70120000Y-57365000D02*
X70120000Y-55665000D01*
G75*
G02*
X70270000Y-55515000I150000J0D01*
G01*
X71970000Y-55515000D01*
G75*
G02*
X72120000Y-55665000I0J-150000D01*
G01*
X72120000Y-57365000D01*
G75*
G02*
X71970000Y-57515000I-150000J0D01*
G01*
X70270000Y-57515000D01*
G75*
G02*
X70120000Y-57365000I0J150000D01*
G01*
G37*
%TD*%
D18*
%TO.C,H4*%
X90297000Y-132740400D03*
D16*
X90297000Y-134615400D03*
X88971175Y-134066225D03*
X88422000Y-132740400D03*
X88971175Y-131414575D03*
X90297000Y-130865400D03*
X91622825Y-131414575D03*
X92172000Y-132740400D03*
X91622825Y-134066225D03*
%TD*%
D18*
%TO.C,H2*%
X116127000Y-66942000D03*
D16*
X118002000Y-66942000D03*
X117452825Y-68267825D03*
X116127000Y-68817000D03*
X114801175Y-68267825D03*
X114252000Y-66942000D03*
X114801175Y-65616175D03*
X116127000Y-65067000D03*
X117452825Y-65616175D03*
%TD*%
D18*
%TO.C,H3*%
X90297000Y-74701400D03*
D16*
X90297000Y-76576400D03*
X88971175Y-76027225D03*
X88422000Y-74701400D03*
X88971175Y-73375575D03*
X90297000Y-72826400D03*
X91622825Y-73375575D03*
X92172000Y-74701400D03*
X91622825Y-76027225D03*
%TD*%
%TO.C,H1*%
X57452825Y-57616175D03*
X56127000Y-57067000D03*
X54801175Y-57616175D03*
X54252000Y-58942000D03*
X54801175Y-60267825D03*
X56127000Y-60817000D03*
X57452825Y-60267825D03*
X58002000Y-58942000D03*
D18*
X56127000Y-58942000D03*
%TD*%
%TO.C,C3*%
G36*
G01*
X88973829Y-113965000D02*
X90096171Y-113965000D01*
G75*
G02*
X90410000Y-114278829I0J-313829D01*
G01*
X90410000Y-115126171D01*
G75*
G02*
X90096171Y-115440000I-313829J0D01*
G01*
X88973829Y-115440000D01*
G75*
G02*
X88660000Y-115126171I0J313829D01*
G01*
X88660000Y-114278829D01*
G75*
G02*
X88973829Y-113965000I313829J0D01*
G01*
G37*
G36*
G01*
X88973829Y-111890000D02*
X90096171Y-111890000D01*
G75*
G02*
X90410000Y-112203829I0J-313829D01*
G01*
X90410000Y-113051171D01*
G75*
G02*
X90096171Y-113365000I-313829J0D01*
G01*
X88973829Y-113365000D01*
G75*
G02*
X88660000Y-113051171I0J313829D01*
G01*
X88660000Y-112203829D01*
G75*
G02*
X88973829Y-111890000I313829J0D01*
G01*
G37*
%TD*%
%TO.C,C2*%
G36*
G01*
X102308829Y-104059000D02*
X103431171Y-104059000D01*
G75*
G02*
X103745000Y-104372829I0J-313829D01*
G01*
X103745000Y-105220171D01*
G75*
G02*
X103431171Y-105534000I-313829J0D01*
G01*
X102308829Y-105534000D01*
G75*
G02*
X101995000Y-105220171I0J313829D01*
G01*
X101995000Y-104372829D01*
G75*
G02*
X102308829Y-104059000I313829J0D01*
G01*
G37*
G36*
G01*
X102308829Y-101984000D02*
X103431171Y-101984000D01*
G75*
G02*
X103745000Y-102297829I0J-313829D01*
G01*
X103745000Y-103145171D01*
G75*
G02*
X103431171Y-103459000I-313829J0D01*
G01*
X102308829Y-103459000D01*
G75*
G02*
X101995000Y-103145171I0J313829D01*
G01*
X101995000Y-102297829D01*
G75*
G02*
X102308829Y-101984000I313829J0D01*
G01*
G37*
%TD*%
%TO.C,C1*%
G36*
G01*
X94795171Y-89235000D02*
X93672829Y-89235000D01*
G75*
G02*
X93359000Y-88921171I0J313829D01*
G01*
X93359000Y-88073829D01*
G75*
G02*
X93672829Y-87760000I313829J0D01*
G01*
X94795171Y-87760000D01*
G75*
G02*
X95109000Y-88073829I0J-313829D01*
G01*
X95109000Y-88921171D01*
G75*
G02*
X94795171Y-89235000I-313829J0D01*
G01*
G37*
G36*
G01*
X94795171Y-91310000D02*
X93672829Y-91310000D01*
G75*
G02*
X93359000Y-90996171I0J313829D01*
G01*
X93359000Y-90148829D01*
G75*
G02*
X93672829Y-89835000I313829J0D01*
G01*
X94795171Y-89835000D01*
G75*
G02*
X95109000Y-90148829I0J-313829D01*
G01*
X95109000Y-90996171D01*
G75*
G02*
X94795171Y-91310000I-313829J0D01*
G01*
G37*
%TD*%
%TO.C,U1*%
G36*
G01*
X87334000Y-96368200D02*
X86784000Y-96368200D01*
G75*
G02*
X86634000Y-96218200I0J150000D01*
G01*
X86634000Y-94718200D01*
G75*
G02*
X86784000Y-94568200I150000J0D01*
G01*
X87334000Y-94568200D01*
G75*
G02*
X87484000Y-94718200I0J-150000D01*
G01*
X87484000Y-96218200D01*
G75*
G02*
X87334000Y-96368200I-150000J0D01*
G01*
G37*
G36*
G01*
X88134000Y-96368200D02*
X87584000Y-96368200D01*
G75*
G02*
X87434000Y-96218200I0J150000D01*
G01*
X87434000Y-94718200D01*
G75*
G02*
X87584000Y-94568200I150000J0D01*
G01*
X88134000Y-94568200D01*
G75*
G02*
X88284000Y-94718200I0J-150000D01*
G01*
X88284000Y-96218200D01*
G75*
G02*
X88134000Y-96368200I-150000J0D01*
G01*
G37*
G36*
G01*
X88934000Y-96368200D02*
X88384000Y-96368200D01*
G75*
G02*
X88234000Y-96218200I0J150000D01*
G01*
X88234000Y-94718200D01*
G75*
G02*
X88384000Y-94568200I150000J0D01*
G01*
X88934000Y-94568200D01*
G75*
G02*
X89084000Y-94718200I0J-150000D01*
G01*
X89084000Y-96218200D01*
G75*
G02*
X88934000Y-96368200I-150000J0D01*
G01*
G37*
G36*
G01*
X89734000Y-96368200D02*
X89184000Y-96368200D01*
G75*
G02*
X89034000Y-96218200I0J150000D01*
G01*
X89034000Y-94718200D01*
G75*
G02*
X89184000Y-94568200I150000J0D01*
G01*
X89734000Y-94568200D01*
G75*
G02*
X89884000Y-94718200I0J-150000D01*
G01*
X89884000Y-96218200D01*
G75*
G02*
X89734000Y-96368200I-150000J0D01*
G01*
G37*
G36*
G01*
X90534000Y-96368200D02*
X89984000Y-96368200D01*
G75*
G02*
X89834000Y-96218200I0J150000D01*
G01*
X89834000Y-94718200D01*
G75*
G02*
X89984000Y-94568200I150000J0D01*
G01*
X90534000Y-94568200D01*
G75*
G02*
X90684000Y-94718200I0J-150000D01*
G01*
X90684000Y-96218200D01*
G75*
G02*
X90534000Y-96368200I-150000J0D01*
G01*
G37*
G36*
G01*
X91334000Y-96368200D02*
X90784000Y-96368200D01*
G75*
G02*
X90634000Y-96218200I0J150000D01*
G01*
X90634000Y-94718200D01*
G75*
G02*
X90784000Y-94568200I150000J0D01*
G01*
X91334000Y-94568200D01*
G75*
G02*
X91484000Y-94718200I0J-150000D01*
G01*
X91484000Y-96218200D01*
G75*
G02*
X91334000Y-96368200I-150000J0D01*
G01*
G37*
G36*
G01*
X92134000Y-96368200D02*
X91584000Y-96368200D01*
G75*
G02*
X91434000Y-96218200I0J150000D01*
G01*
X91434000Y-94718200D01*
G75*
G02*
X91584000Y-94568200I150000J0D01*
G01*
X92134000Y-94568200D01*
G75*
G02*
X92284000Y-94718200I0J-150000D01*
G01*
X92284000Y-96218200D01*
G75*
G02*
X92134000Y-96368200I-150000J0D01*
G01*
G37*
G36*
G01*
X92934000Y-96368200D02*
X92384000Y-96368200D01*
G75*
G02*
X92234000Y-96218200I0J150000D01*
G01*
X92234000Y-94718200D01*
G75*
G02*
X92384000Y-94568200I150000J0D01*
G01*
X92934000Y-94568200D01*
G75*
G02*
X93084000Y-94718200I0J-150000D01*
G01*
X93084000Y-96218200D01*
G75*
G02*
X92934000Y-96368200I-150000J0D01*
G01*
G37*
G36*
G01*
X93734000Y-96368200D02*
X93184000Y-96368200D01*
G75*
G02*
X93034000Y-96218200I0J150000D01*
G01*
X93034000Y-94718200D01*
G75*
G02*
X93184000Y-94568200I150000J0D01*
G01*
X93734000Y-94568200D01*
G75*
G02*
X93884000Y-94718200I0J-150000D01*
G01*
X93884000Y-96218200D01*
G75*
G02*
X93734000Y-96368200I-150000J0D01*
G01*
G37*
G36*
G01*
X94534000Y-96368200D02*
X93984000Y-96368200D01*
G75*
G02*
X93834000Y-96218200I0J150000D01*
G01*
X93834000Y-94718200D01*
G75*
G02*
X93984000Y-94568200I150000J0D01*
G01*
X94534000Y-94568200D01*
G75*
G02*
X94684000Y-94718200I0J-150000D01*
G01*
X94684000Y-96218200D01*
G75*
G02*
X94534000Y-96368200I-150000J0D01*
G01*
G37*
G36*
G01*
X95334000Y-96368200D02*
X94784000Y-96368200D01*
G75*
G02*
X94634000Y-96218200I0J150000D01*
G01*
X94634000Y-94718200D01*
G75*
G02*
X94784000Y-94568200I150000J0D01*
G01*
X95334000Y-94568200D01*
G75*
G02*
X95484000Y-94718200I0J-150000D01*
G01*
X95484000Y-96218200D01*
G75*
G02*
X95334000Y-96368200I-150000J0D01*
G01*
G37*
G36*
G01*
X95859000Y-97443200D02*
X95859000Y-96893200D01*
G75*
G02*
X96009000Y-96743200I150000J0D01*
G01*
X97509000Y-96743200D01*
G75*
G02*
X97659000Y-96893200I0J-150000D01*
G01*
X97659000Y-97443200D01*
G75*
G02*
X97509000Y-97593200I-150000J0D01*
G01*
X96009000Y-97593200D01*
G75*
G02*
X95859000Y-97443200I0J150000D01*
G01*
G37*
G36*
G01*
X95859000Y-98243200D02*
X95859000Y-97693200D01*
G75*
G02*
X96009000Y-97543200I150000J0D01*
G01*
X97509000Y-97543200D01*
G75*
G02*
X97659000Y-97693200I0J-150000D01*
G01*
X97659000Y-98243200D01*
G75*
G02*
X97509000Y-98393200I-150000J0D01*
G01*
X96009000Y-98393200D01*
G75*
G02*
X95859000Y-98243200I0J150000D01*
G01*
G37*
G36*
G01*
X95859000Y-99043200D02*
X95859000Y-98493200D01*
G75*
G02*
X96009000Y-98343200I150000J0D01*
G01*
X97509000Y-98343200D01*
G75*
G02*
X97659000Y-98493200I0J-150000D01*
G01*
X97659000Y-99043200D01*
G75*
G02*
X97509000Y-99193200I-150000J0D01*
G01*
X96009000Y-99193200D01*
G75*
G02*
X95859000Y-99043200I0J150000D01*
G01*
G37*
G36*
G01*
X95859000Y-99843200D02*
X95859000Y-99293200D01*
G75*
G02*
X96009000Y-99143200I150000J0D01*
G01*
X97509000Y-99143200D01*
G75*
G02*
X97659000Y-99293200I0J-150000D01*
G01*
X97659000Y-99843200D01*
G75*
G02*
X97509000Y-99993200I-150000J0D01*
G01*
X96009000Y-99993200D01*
G75*
G02*
X95859000Y-99843200I0J150000D01*
G01*
G37*
G36*
G01*
X95859000Y-100643200D02*
X95859000Y-100093200D01*
G75*
G02*
X96009000Y-99943200I150000J0D01*
G01*
X97509000Y-99943200D01*
G75*
G02*
X97659000Y-100093200I0J-150000D01*
G01*
X97659000Y-100643200D01*
G75*
G02*
X97509000Y-100793200I-150000J0D01*
G01*
X96009000Y-100793200D01*
G75*
G02*
X95859000Y-100643200I0J150000D01*
G01*
G37*
G36*
G01*
X95859000Y-101443200D02*
X95859000Y-100893200D01*
G75*
G02*
X96009000Y-100743200I150000J0D01*
G01*
X97509000Y-100743200D01*
G75*
G02*
X97659000Y-100893200I0J-150000D01*
G01*
X97659000Y-101443200D01*
G75*
G02*
X97509000Y-101593200I-150000J0D01*
G01*
X96009000Y-101593200D01*
G75*
G02*
X95859000Y-101443200I0J150000D01*
G01*
G37*
G36*
G01*
X95859000Y-102243200D02*
X95859000Y-101693200D01*
G75*
G02*
X96009000Y-101543200I150000J0D01*
G01*
X97509000Y-101543200D01*
G75*
G02*
X97659000Y-101693200I0J-150000D01*
G01*
X97659000Y-102243200D01*
G75*
G02*
X97509000Y-102393200I-150000J0D01*
G01*
X96009000Y-102393200D01*
G75*
G02*
X95859000Y-102243200I0J150000D01*
G01*
G37*
G36*
G01*
X95859000Y-103043200D02*
X95859000Y-102493200D01*
G75*
G02*
X96009000Y-102343200I150000J0D01*
G01*
X97509000Y-102343200D01*
G75*
G02*
X97659000Y-102493200I0J-150000D01*
G01*
X97659000Y-103043200D01*
G75*
G02*
X97509000Y-103193200I-150000J0D01*
G01*
X96009000Y-103193200D01*
G75*
G02*
X95859000Y-103043200I0J150000D01*
G01*
G37*
G36*
G01*
X95859000Y-103843200D02*
X95859000Y-103293200D01*
G75*
G02*
X96009000Y-103143200I150000J0D01*
G01*
X97509000Y-103143200D01*
G75*
G02*
X97659000Y-103293200I0J-150000D01*
G01*
X97659000Y-103843200D01*
G75*
G02*
X97509000Y-103993200I-150000J0D01*
G01*
X96009000Y-103993200D01*
G75*
G02*
X95859000Y-103843200I0J150000D01*
G01*
G37*
G36*
G01*
X95859000Y-104643200D02*
X95859000Y-104093200D01*
G75*
G02*
X96009000Y-103943200I150000J0D01*
G01*
X97509000Y-103943200D01*
G75*
G02*
X97659000Y-104093200I0J-150000D01*
G01*
X97659000Y-104643200D01*
G75*
G02*
X97509000Y-104793200I-150000J0D01*
G01*
X96009000Y-104793200D01*
G75*
G02*
X95859000Y-104643200I0J150000D01*
G01*
G37*
G36*
G01*
X95859000Y-105443200D02*
X95859000Y-104893200D01*
G75*
G02*
X96009000Y-104743200I150000J0D01*
G01*
X97509000Y-104743200D01*
G75*
G02*
X97659000Y-104893200I0J-150000D01*
G01*
X97659000Y-105443200D01*
G75*
G02*
X97509000Y-105593200I-150000J0D01*
G01*
X96009000Y-105593200D01*
G75*
G02*
X95859000Y-105443200I0J150000D01*
G01*
G37*
G36*
G01*
X95334000Y-107768200D02*
X94784000Y-107768200D01*
G75*
G02*
X94634000Y-107618200I0J150000D01*
G01*
X94634000Y-106118200D01*
G75*
G02*
X94784000Y-105968200I150000J0D01*
G01*
X95334000Y-105968200D01*
G75*
G02*
X95484000Y-106118200I0J-150000D01*
G01*
X95484000Y-107618200D01*
G75*
G02*
X95334000Y-107768200I-150000J0D01*
G01*
G37*
G36*
G01*
X94534000Y-107768200D02*
X93984000Y-107768200D01*
G75*
G02*
X93834000Y-107618200I0J150000D01*
G01*
X93834000Y-106118200D01*
G75*
G02*
X93984000Y-105968200I150000J0D01*
G01*
X94534000Y-105968200D01*
G75*
G02*
X94684000Y-106118200I0J-150000D01*
G01*
X94684000Y-107618200D01*
G75*
G02*
X94534000Y-107768200I-150000J0D01*
G01*
G37*
G36*
G01*
X93734000Y-107768200D02*
X93184000Y-107768200D01*
G75*
G02*
X93034000Y-107618200I0J150000D01*
G01*
X93034000Y-106118200D01*
G75*
G02*
X93184000Y-105968200I150000J0D01*
G01*
X93734000Y-105968200D01*
G75*
G02*
X93884000Y-106118200I0J-150000D01*
G01*
X93884000Y-107618200D01*
G75*
G02*
X93734000Y-107768200I-150000J0D01*
G01*
G37*
G36*
G01*
X92934000Y-107768200D02*
X92384000Y-107768200D01*
G75*
G02*
X92234000Y-107618200I0J150000D01*
G01*
X92234000Y-106118200D01*
G75*
G02*
X92384000Y-105968200I150000J0D01*
G01*
X92934000Y-105968200D01*
G75*
G02*
X93084000Y-106118200I0J-150000D01*
G01*
X93084000Y-107618200D01*
G75*
G02*
X92934000Y-107768200I-150000J0D01*
G01*
G37*
G36*
G01*
X92134000Y-107768200D02*
X91584000Y-107768200D01*
G75*
G02*
X91434000Y-107618200I0J150000D01*
G01*
X91434000Y-106118200D01*
G75*
G02*
X91584000Y-105968200I150000J0D01*
G01*
X92134000Y-105968200D01*
G75*
G02*
X92284000Y-106118200I0J-150000D01*
G01*
X92284000Y-107618200D01*
G75*
G02*
X92134000Y-107768200I-150000J0D01*
G01*
G37*
G36*
G01*
X91334000Y-107768200D02*
X90784000Y-107768200D01*
G75*
G02*
X90634000Y-107618200I0J150000D01*
G01*
X90634000Y-106118200D01*
G75*
G02*
X90784000Y-105968200I150000J0D01*
G01*
X91334000Y-105968200D01*
G75*
G02*
X91484000Y-106118200I0J-150000D01*
G01*
X91484000Y-107618200D01*
G75*
G02*
X91334000Y-107768200I-150000J0D01*
G01*
G37*
G36*
G01*
X90534000Y-107768200D02*
X89984000Y-107768200D01*
G75*
G02*
X89834000Y-107618200I0J150000D01*
G01*
X89834000Y-106118200D01*
G75*
G02*
X89984000Y-105968200I150000J0D01*
G01*
X90534000Y-105968200D01*
G75*
G02*
X90684000Y-106118200I0J-150000D01*
G01*
X90684000Y-107618200D01*
G75*
G02*
X90534000Y-107768200I-150000J0D01*
G01*
G37*
G36*
G01*
X89734000Y-107768200D02*
X89184000Y-107768200D01*
G75*
G02*
X89034000Y-107618200I0J150000D01*
G01*
X89034000Y-106118200D01*
G75*
G02*
X89184000Y-105968200I150000J0D01*
G01*
X89734000Y-105968200D01*
G75*
G02*
X89884000Y-106118200I0J-150000D01*
G01*
X89884000Y-107618200D01*
G75*
G02*
X89734000Y-107768200I-150000J0D01*
G01*
G37*
G36*
G01*
X88934000Y-107768200D02*
X88384000Y-107768200D01*
G75*
G02*
X88234000Y-107618200I0J150000D01*
G01*
X88234000Y-106118200D01*
G75*
G02*
X88384000Y-105968200I150000J0D01*
G01*
X88934000Y-105968200D01*
G75*
G02*
X89084000Y-106118200I0J-150000D01*
G01*
X89084000Y-107618200D01*
G75*
G02*
X88934000Y-107768200I-150000J0D01*
G01*
G37*
G36*
G01*
X88134000Y-107768200D02*
X87584000Y-107768200D01*
G75*
G02*
X87434000Y-107618200I0J150000D01*
G01*
X87434000Y-106118200D01*
G75*
G02*
X87584000Y-105968200I150000J0D01*
G01*
X88134000Y-105968200D01*
G75*
G02*
X88284000Y-106118200I0J-150000D01*
G01*
X88284000Y-107618200D01*
G75*
G02*
X88134000Y-107768200I-150000J0D01*
G01*
G37*
G36*
G01*
X87334000Y-107768200D02*
X86784000Y-107768200D01*
G75*
G02*
X86634000Y-107618200I0J150000D01*
G01*
X86634000Y-106118200D01*
G75*
G02*
X86784000Y-105968200I150000J0D01*
G01*
X87334000Y-105968200D01*
G75*
G02*
X87484000Y-106118200I0J-150000D01*
G01*
X87484000Y-107618200D01*
G75*
G02*
X87334000Y-107768200I-150000J0D01*
G01*
G37*
G36*
G01*
X84459000Y-105443200D02*
X84459000Y-104893200D01*
G75*
G02*
X84609000Y-104743200I150000J0D01*
G01*
X86109000Y-104743200D01*
G75*
G02*
X86259000Y-104893200I0J-150000D01*
G01*
X86259000Y-105443200D01*
G75*
G02*
X86109000Y-105593200I-150000J0D01*
G01*
X84609000Y-105593200D01*
G75*
G02*
X84459000Y-105443200I0J150000D01*
G01*
G37*
G36*
G01*
X84459000Y-104643200D02*
X84459000Y-104093200D01*
G75*
G02*
X84609000Y-103943200I150000J0D01*
G01*
X86109000Y-103943200D01*
G75*
G02*
X86259000Y-104093200I0J-150000D01*
G01*
X86259000Y-104643200D01*
G75*
G02*
X86109000Y-104793200I-150000J0D01*
G01*
X84609000Y-104793200D01*
G75*
G02*
X84459000Y-104643200I0J150000D01*
G01*
G37*
G36*
G01*
X84459000Y-103843200D02*
X84459000Y-103293200D01*
G75*
G02*
X84609000Y-103143200I150000J0D01*
G01*
X86109000Y-103143200D01*
G75*
G02*
X86259000Y-103293200I0J-150000D01*
G01*
X86259000Y-103843200D01*
G75*
G02*
X86109000Y-103993200I-150000J0D01*
G01*
X84609000Y-103993200D01*
G75*
G02*
X84459000Y-103843200I0J150000D01*
G01*
G37*
G36*
G01*
X84459000Y-103043200D02*
X84459000Y-102493200D01*
G75*
G02*
X84609000Y-102343200I150000J0D01*
G01*
X86109000Y-102343200D01*
G75*
G02*
X86259000Y-102493200I0J-150000D01*
G01*
X86259000Y-103043200D01*
G75*
G02*
X86109000Y-103193200I-150000J0D01*
G01*
X84609000Y-103193200D01*
G75*
G02*
X84459000Y-103043200I0J150000D01*
G01*
G37*
G36*
G01*
X84459000Y-102243200D02*
X84459000Y-101693200D01*
G75*
G02*
X84609000Y-101543200I150000J0D01*
G01*
X86109000Y-101543200D01*
G75*
G02*
X86259000Y-101693200I0J-150000D01*
G01*
X86259000Y-102243200D01*
G75*
G02*
X86109000Y-102393200I-150000J0D01*
G01*
X84609000Y-102393200D01*
G75*
G02*
X84459000Y-102243200I0J150000D01*
G01*
G37*
G36*
G01*
X84459000Y-101443200D02*
X84459000Y-100893200D01*
G75*
G02*
X84609000Y-100743200I150000J0D01*
G01*
X86109000Y-100743200D01*
G75*
G02*
X86259000Y-100893200I0J-150000D01*
G01*
X86259000Y-101443200D01*
G75*
G02*
X86109000Y-101593200I-150000J0D01*
G01*
X84609000Y-101593200D01*
G75*
G02*
X84459000Y-101443200I0J150000D01*
G01*
G37*
G36*
G01*
X84459000Y-100643200D02*
X84459000Y-100093200D01*
G75*
G02*
X84609000Y-99943200I150000J0D01*
G01*
X86109000Y-99943200D01*
G75*
G02*
X86259000Y-100093200I0J-150000D01*
G01*
X86259000Y-100643200D01*
G75*
G02*
X86109000Y-100793200I-150000J0D01*
G01*
X84609000Y-100793200D01*
G75*
G02*
X84459000Y-100643200I0J150000D01*
G01*
G37*
G36*
G01*
X84459000Y-99843200D02*
X84459000Y-99293200D01*
G75*
G02*
X84609000Y-99143200I150000J0D01*
G01*
X86109000Y-99143200D01*
G75*
G02*
X86259000Y-99293200I0J-150000D01*
G01*
X86259000Y-99843200D01*
G75*
G02*
X86109000Y-99993200I-150000J0D01*
G01*
X84609000Y-99993200D01*
G75*
G02*
X84459000Y-99843200I0J150000D01*
G01*
G37*
G36*
G01*
X84459000Y-99043200D02*
X84459000Y-98493200D01*
G75*
G02*
X84609000Y-98343200I150000J0D01*
G01*
X86109000Y-98343200D01*
G75*
G02*
X86259000Y-98493200I0J-150000D01*
G01*
X86259000Y-99043200D01*
G75*
G02*
X86109000Y-99193200I-150000J0D01*
G01*
X84609000Y-99193200D01*
G75*
G02*
X84459000Y-99043200I0J150000D01*
G01*
G37*
G36*
G01*
X84459000Y-98243200D02*
X84459000Y-97693200D01*
G75*
G02*
X84609000Y-97543200I150000J0D01*
G01*
X86109000Y-97543200D01*
G75*
G02*
X86259000Y-97693200I0J-150000D01*
G01*
X86259000Y-98243200D01*
G75*
G02*
X86109000Y-98393200I-150000J0D01*
G01*
X84609000Y-98393200D01*
G75*
G02*
X84459000Y-98243200I0J150000D01*
G01*
G37*
G36*
G01*
X84459000Y-97443200D02*
X84459000Y-96893200D01*
G75*
G02*
X84609000Y-96743200I150000J0D01*
G01*
X86109000Y-96743200D01*
G75*
G02*
X86259000Y-96893200I0J-150000D01*
G01*
X86259000Y-97443200D01*
G75*
G02*
X86109000Y-97593200I-150000J0D01*
G01*
X84609000Y-97593200D01*
G75*
G02*
X84459000Y-97443200I0J150000D01*
G01*
G37*
%TD*%
D11*
%TO.C,Pi0*%
X66040000Y-79679800D03*
X68580000Y-79679800D03*
X66040000Y-82219800D03*
X68580000Y-82219800D03*
X66040000Y-84759800D03*
X68580000Y-84759800D03*
X66040000Y-87299800D03*
X68580000Y-87299800D03*
X66040000Y-89839800D03*
X68580000Y-89839800D03*
X66040000Y-92379800D03*
X68580000Y-92379800D03*
X66040000Y-94919800D03*
X68580000Y-94919800D03*
X66040000Y-97459800D03*
X68580000Y-97459800D03*
X66040000Y-99999800D03*
X68580000Y-99999800D03*
X66040000Y-102539800D03*
X68580000Y-102539800D03*
X66040000Y-105079800D03*
X68580000Y-105079800D03*
X66040000Y-107619800D03*
X68580000Y-107619800D03*
X66040000Y-110159800D03*
X68580000Y-110159800D03*
X66040000Y-112699800D03*
X68580000Y-112699800D03*
X66040000Y-115239800D03*
X68580000Y-115239800D03*
X66040000Y-117779800D03*
X68580000Y-117779800D03*
X66040000Y-120319800D03*
X68580000Y-120319800D03*
X66040000Y-122859800D03*
X68580000Y-122859800D03*
X66040000Y-125399800D03*
X68580000Y-125399800D03*
X66040000Y-127939800D03*
G36*
G01*
X67580000Y-128789800D02*
X67580000Y-127089800D01*
G75*
G02*
X67730000Y-126939800I150000J0D01*
G01*
X69430000Y-126939800D01*
G75*
G02*
X69580000Y-127089800I0J-150000D01*
G01*
X69580000Y-128789800D01*
G75*
G02*
X69430000Y-128939800I-150000J0D01*
G01*
X67730000Y-128939800D01*
G75*
G02*
X67580000Y-128789800I0J150000D01*
G01*
G37*
%TD*%
M02*
