%TF.GenerationSoftware,KiCad,Pcbnew,(5.1.12)-1*%
%TF.CreationDate,2022-03-08T20:35:16+00:00*%
%TF.ProjectId,RGBtoHDMI CDTV v2,52474274-6f48-4444-9d49-204344545620,1*%
%TF.SameCoordinates,Original*%
%TF.FileFunction,Profile,NP*%
%FSLAX46Y46*%
G04 Gerber Fmt 4.6, Leading zero omitted, Abs format (unit mm)*
G04 Created by KiCad (PCBNEW (5.1.12)-1) date 2022-03-08 20:35:16*
%MOMM*%
%LPD*%
G01*
G04 APERTURE LIST*
%TA.AperFunction,Profile*%
%ADD10C,0.050000*%
%TD*%
G04 APERTURE END LIST*
D10*
X143129000Y-38100000D02*
X142773400Y-37642800D01*
X49149000Y-37973000D02*
X49352200Y-37642800D01*
X118745000Y-108077000D02*
X118745000Y-81280000D01*
X118745000Y-81280000D02*
X128016000Y-81280000D01*
X128016000Y-108077000D02*
X118745000Y-108077000D01*
X128016000Y-81280000D02*
X128016000Y-108077000D01*
X52466666Y-147320000D02*
G75*
G03*
X52466666Y-147320000I-1666666J0D01*
G01*
X48300000Y-147320000D02*
X53300000Y-147320000D01*
X50800000Y-144820000D02*
X50800000Y-149820000D01*
X137375900Y-37642800D02*
X137020300Y-38100000D01*
X55092600Y-37642800D02*
X55295800Y-37973000D01*
X55295800Y-39243000D02*
X137020300Y-39243000D01*
X137375900Y-37642800D02*
X142773400Y-37642800D01*
X137020300Y-39243000D02*
X137020300Y-38100000D01*
X55295800Y-37973000D02*
X55295800Y-39243000D01*
X49352200Y-37642800D02*
X55092600Y-37642800D01*
X143129000Y-147345400D02*
X141224000Y-149250400D01*
X49174400Y-147345400D02*
X51079400Y-149250400D01*
X141224000Y-149250400D02*
X116128800Y-149250400D01*
X116128800Y-158623000D02*
X115493800Y-159232600D01*
X115493800Y-159232600D02*
X76809600Y-159232600D01*
X76809600Y-159232600D02*
X76174600Y-158597600D01*
X116128800Y-158623000D02*
X116128800Y-149250400D01*
X76174600Y-158597600D02*
X76174600Y-149225000D01*
X49174400Y-147345400D02*
X49149000Y-37973000D01*
X76174600Y-149225000D02*
X51079400Y-149250400D01*
X143129000Y-38100000D02*
X143129000Y-147345400D01*
M02*
