  0
SECTION
  2
HEADER
  9
$ANGBASE
  50
0.0
  9
$ANGDIR
  70
1
  9
$MEASUREMENT
  70
1
  0
ENDSEC
  0
SECTION
  2
TABLES
  0
TABLE
  2
LTYPE
  70
4
  0
LTYPE
  5
40F
  2
CONTINUOUS
  70
0
  3
Solid line
  72
65
  73
0
  40
0.0
  0
LTYPE
  5
410
  2
DASHDOT
 70
0
  3
Dash Dot ____ _ ____ _
 72
65
 73
4
 40
2.0
 49
1.25
 49
-0.25
 49
0.25
 49
-0.25
  0
LTYPE
  5
411
  2
DASHED
 70
0
  3
Dashed __ __ __ __ __
 72
65
 73
2
 40
0.75
 49
0.5
 49
-0.25
  0
LTYPE
  5
43B
  2
DOTTED
 70
0
  3
Dotted .  .  .  .
 72
65
 73
2
 40
0.2
 49
0.0
 49
-0.2
  0
ENDTAB
  0
TABLE
  2
STYLE
  70
4
  0
STYLE
  2
KICAD
  70
0
  40
0
  41
1
  42
1
  50
0
  71
0
  3
isocp.shx
  0
STYLE
  2
KICADB
  70
0
  40
0
  41
1
  42
1
  50
0
  71
0
  3
isocp.shx
  0
STYLE
  2
KICADI
  70
0
  40
0
  41
1
  42
1
  50
15
  71
0
  3
isocp.shx
  0
STYLE
  2
KICADBI
  70
0
  40
0
  41
1
  42
1
  50
15
  71
0
  3
isocp.shx
  0
ENDTAB
  0
TABLE
  2
LAYER
  70
1
  0
LAYER
  2
BLACK
  70
0
  62
7
  6
CONTINUOUS
  0
ENDTAB
  0
ENDSEC
  0
SECTION
  2
ENTITIES
0
LINE
8
BLACK
6
CONTINUOUS
10
133.135
20
-131.479
11
130.135
21
-131.479
0
LINE
8
BLACK
6
CONTINUOUS
10
130.135
20
-131.479
11
130.135
21
-129.479
0
LINE
8
BLACK
6
CONTINUOUS
10
130.135
20
-129.479
11
133.135
21
-129.479
0
LINE
8
BLACK
6
CONTINUOUS
10
133.135
20
-129.479
11
133.135
21
-131.479
0
LINE
8
BLACK
6
CONTINUOUS
10
134.635
20
-128.979
11
133.335
21
-128.979
0
LINE
8
BLACK
6
CONTINUOUS
10
133.335
20
-128.979
11
133.335
21
-128.679
0
LINE
8
BLACK
6
CONTINUOUS
10
133.335
20
-128.679
11
134.635
21
-128.679
0
LINE
8
BLACK
6
CONTINUOUS
10
134.635
20
-128.679
11
134.635
21
-128.979
0
LINE
8
BLACK
6
CONTINUOUS
10
134.635
20
-128.479
11
133.335
21
-128.479
0
LINE
8
BLACK
6
CONTINUOUS
10
133.335
20
-128.479
11
133.335
21
-128.179
0
LINE
8
BLACK
6
CONTINUOUS
10
133.335
20
-128.179
11
134.635
21
-128.179
0
LINE
8
BLACK
6
CONTINUOUS
10
134.635
20
-128.179
11
134.635
21
-128.479
0
LINE
8
BLACK
6
CONTINUOUS
10
134.635
20
-127.979
11
133.335
21
-127.979
0
LINE
8
BLACK
6
CONTINUOUS
10
133.335
20
-127.979
11
133.335
21
-127.679
0
LINE
8
BLACK
6
CONTINUOUS
10
133.335
20
-127.679
11
134.635
21
-127.679
0
LINE
8
BLACK
6
CONTINUOUS
10
134.635
20
-127.679
11
134.635
21
-127.979
0
LINE
8
BLACK
6
CONTINUOUS
10
134.635
20
-127.479
11
133.335
21
-127.479
0
LINE
8
BLACK
6
CONTINUOUS
10
133.335
20
-127.479
11
133.335
21
-127.179
0
LINE
8
BLACK
6
CONTINUOUS
10
133.335
20
-127.179
11
134.635
21
-127.179
0
LINE
8
BLACK
6
CONTINUOUS
10
134.635
20
-127.179
11
134.635
21
-127.479
0
LINE
8
BLACK
6
CONTINUOUS
10
134.635
20
-126.979
11
133.335
21
-126.979
0
LINE
8
BLACK
6
CONTINUOUS
10
133.335
20
-126.979
11
133.335
21
-126.679
0
LINE
8
BLACK
6
CONTINUOUS
10
133.335
20
-126.679
11
134.635
21
-126.679
0
LINE
8
BLACK
6
CONTINUOUS
10
134.635
20
-126.679
11
134.635
21
-126.979
0
LINE
8
BLACK
6
CONTINUOUS
10
134.635
20
-126.479
11
133.335
21
-126.479
0
LINE
8
BLACK
6
CONTINUOUS
10
133.335
20
-126.479
11
133.335
21
-126.179
0
LINE
8
BLACK
6
CONTINUOUS
10
133.335
20
-126.179
11
134.635
21
-126.179
0
LINE
8
BLACK
6
CONTINUOUS
10
134.635
20
-126.179
11
134.635
21
-126.479
0
LINE
8
BLACK
6
CONTINUOUS
10
134.635
20
-125.979
11
133.335
21
-125.979
0
LINE
8
BLACK
6
CONTINUOUS
10
133.335
20
-125.979
11
133.335
21
-125.679
0
LINE
8
BLACK
6
CONTINUOUS
10
133.335
20
-125.679
11
134.635
21
-125.679
0
LINE
8
BLACK
6
CONTINUOUS
10
134.635
20
-125.679
11
134.635
21
-125.979
0
LINE
8
BLACK
6
CONTINUOUS
10
134.635
20
-125.479
11
133.335
21
-125.479
0
LINE
8
BLACK
6
CONTINUOUS
10
133.335
20
-125.479
11
133.335
21
-125.179
0
LINE
8
BLACK
6
CONTINUOUS
10
133.335
20
-125.179
11
134.635
21
-125.179
0
LINE
8
BLACK
6
CONTINUOUS
10
134.635
20
-125.179
11
134.635
21
-125.479
0
LINE
8
BLACK
6
CONTINUOUS
10
134.635
20
-124.979
11
133.335
21
-124.979
0
LINE
8
BLACK
6
CONTINUOUS
10
133.335
20
-124.979
11
133.335
21
-124.679
0
LINE
8
BLACK
6
CONTINUOUS
10
133.335
20
-124.679
11
134.635
21
-124.679
0
LINE
8
BLACK
6
CONTINUOUS
10
134.635
20
-124.679
11
134.635
21
-124.979
0
LINE
8
BLACK
6
CONTINUOUS
10
134.635
20
-124.479
11
133.335
21
-124.479
0
LINE
8
BLACK
6
CONTINUOUS
10
133.335
20
-124.479
11
133.335
21
-124.179
0
LINE
8
BLACK
6
CONTINUOUS
10
133.335
20
-124.179
11
134.635
21
-124.179
0
LINE
8
BLACK
6
CONTINUOUS
10
134.635
20
-124.179
11
134.635
21
-124.479
0
LINE
8
BLACK
6
CONTINUOUS
10
134.635
20
-123.979
11
133.335
21
-123.979
0
LINE
8
BLACK
6
CONTINUOUS
10
133.335
20
-123.979
11
133.335
21
-123.679
0
LINE
8
BLACK
6
CONTINUOUS
10
133.335
20
-123.679
11
134.635
21
-123.679
0
LINE
8
BLACK
6
CONTINUOUS
10
134.635
20
-123.679
11
134.635
21
-123.979
0
LINE
8
BLACK
6
CONTINUOUS
10
134.635
20
-123.479
11
133.335
21
-123.479
0
LINE
8
BLACK
6
CONTINUOUS
10
133.335
20
-123.479
11
133.335
21
-123.179
0
LINE
8
BLACK
6
CONTINUOUS
10
133.335
20
-123.179
11
134.635
21
-123.179
0
LINE
8
BLACK
6
CONTINUOUS
10
134.635
20
-123.179
11
134.635
21
-123.479
0
LINE
8
BLACK
6
CONTINUOUS
10
134.635
20
-122.979
11
133.335
21
-122.979
0
LINE
8
BLACK
6
CONTINUOUS
10
133.335
20
-122.979
11
133.335
21
-122.679
0
LINE
8
BLACK
6
CONTINUOUS
10
133.335
20
-122.679
11
134.635
21
-122.679
0
LINE
8
BLACK
6
CONTINUOUS
10
134.635
20
-122.679
11
134.635
21
-122.979
0
LINE
8
BLACK
6
CONTINUOUS
10
134.635
20
-122.479
11
133.335
21
-122.479
0
LINE
8
BLACK
6
CONTINUOUS
10
133.335
20
-122.479
11
133.335
21
-122.179
0
LINE
8
BLACK
6
CONTINUOUS
10
133.335
20
-122.179
11
134.635
21
-122.179
0
LINE
8
BLACK
6
CONTINUOUS
10
134.635
20
-122.179
11
134.635
21
-122.479
0
LINE
8
BLACK
6
CONTINUOUS
10
134.635
20
-121.979
11
133.335
21
-121.979
0
LINE
8
BLACK
6
CONTINUOUS
10
133.335
20
-121.979
11
133.335
21
-121.679
0
LINE
8
BLACK
6
CONTINUOUS
10
133.335
20
-121.679
11
134.635
21
-121.679
0
LINE
8
BLACK
6
CONTINUOUS
10
134.635
20
-121.679
11
134.635
21
-121.979
0
LINE
8
BLACK
6
CONTINUOUS
10
134.635
20
-121.479
11
133.335
21
-121.479
0
LINE
8
BLACK
6
CONTINUOUS
10
133.335
20
-121.479
11
133.335
21
-121.179
0
LINE
8
BLACK
6
CONTINUOUS
10
133.335
20
-121.179
11
134.635
21
-121.179
0
LINE
8
BLACK
6
CONTINUOUS
10
134.635
20
-121.179
11
134.635
21
-121.479
0
LINE
8
BLACK
6
CONTINUOUS
10
134.635
20
-120.979
11
133.335
21
-120.979
0
LINE
8
BLACK
6
CONTINUOUS
10
133.335
20
-120.979
11
133.335
21
-120.679
0
LINE
8
BLACK
6
CONTINUOUS
10
133.335
20
-120.679
11
134.635
21
-120.679
0
LINE
8
BLACK
6
CONTINUOUS
10
134.635
20
-120.679
11
134.635
21
-120.979
0
LINE
8
BLACK
6
CONTINUOUS
10
134.635
20
-120.479
11
133.335
21
-120.479
0
LINE
8
BLACK
6
CONTINUOUS
10
133.335
20
-120.479
11
133.335
21
-120.179
0
LINE
8
BLACK
6
CONTINUOUS
10
133.335
20
-120.179
11
134.635
21
-120.179
0
LINE
8
BLACK
6
CONTINUOUS
10
134.635
20
-120.179
11
134.635
21
-120.479
0
LINE
8
BLACK
6
CONTINUOUS
10
134.635
20
-119.979
11
133.335
21
-119.979
0
LINE
8
BLACK
6
CONTINUOUS
10
133.335
20
-119.979
11
133.335
21
-119.679
0
LINE
8
BLACK
6
CONTINUOUS
10
133.335
20
-119.679
11
134.635
21
-119.679
0
LINE
8
BLACK
6
CONTINUOUS
10
134.635
20
-119.679
11
134.635
21
-119.979
0
LINE
8
BLACK
6
CONTINUOUS
10
134.635
20
-119.479
11
133.335
21
-119.479
0
LINE
8
BLACK
6
CONTINUOUS
10
133.335
20
-119.479
11
133.335
21
-119.179
0
LINE
8
BLACK
6
CONTINUOUS
10
133.335
20
-119.179
11
134.635
21
-119.179
0
LINE
8
BLACK
6
CONTINUOUS
10
134.635
20
-119.179
11
134.635
21
-119.479
0
LINE
8
BLACK
6
CONTINUOUS
10
133.135
20
-118.679
11
130.135
21
-118.679
0
LINE
8
BLACK
6
CONTINUOUS
10
130.135
20
-118.679
11
130.135
21
-116.679
0
LINE
8
BLACK
6
CONTINUOUS
10
130.135
20
-116.679
11
133.135
21
-116.679
0
LINE
8
BLACK
6
CONTINUOUS
10
133.135
20
-116.679
11
133.135
21
-118.679
  0
ENDSEC
  0
EOF
