  0
SECTION
  2
HEADER
  9
$ANGBASE
  50
0.0
  9
$ANGDIR
  70
1
  9
$MEASUREMENT
  70
1
  0
ENDSEC
  0
SECTION
  2
TABLES
  0
TABLE
  2
LTYPE
  70
4
  0
LTYPE
  5
40F
  2
CONTINUOUS
  70
0
  3
Solid line
  72
65
  73
0
  40
0.0
  0
LTYPE
  5
410
  2
DASHDOT
 70
0
  3
Dash Dot ____ _ ____ _
 72
65
 73
4
 40
2.0
 49
1.25
 49
-0.25
 49
0.25
 49
-0.25
  0
LTYPE
  5
411
  2
DASHED
 70
0
  3
Dashed __ __ __ __ __
 72
65
 73
2
 40
0.75
 49
0.5
 49
-0.25
  0
LTYPE
  5
43B
  2
DOTTED
 70
0
  3
Dotted .  .  .  .
 72
65
 73
2
 40
0.2
 49
0.0
 49
-0.2
  0
ENDTAB
  0
TABLE
  2
STYLE
  70
4
  0
STYLE
  2
KICAD
  70
0
  40
0
  41
1
  42
1
  50
0
  71
0
  3
isocp.shx
  0
STYLE
  2
KICADB
  70
0
  40
0
  41
1
  42
1
  50
0
  71
0
  3
isocp.shx
  0
STYLE
  2
KICADI
  70
0
  40
0
  41
1
  42
1
  50
15
  71
0
  3
isocp.shx
  0
STYLE
  2
KICADBI
  70
0
  40
0
  41
1
  42
1
  50
15
  71
0
  3
isocp.shx
  0
ENDTAB
  0
TABLE
  2
LAYER
  70
1
  0
LAYER
  2
BLACK
  70
0
  62
7
  6
CONTINUOUS
  0
ENDTAB
  0
ENDSEC
  0
SECTION
  2
ENTITIES
0
LINE
8
BLACK
6
CONTINUOUS
10
55.0955
20
-37.618
11
55.0975
21
-37.6182
0
LINE
8
BLACK
6
CONTINUOUS
10
55.0975
20
-37.6182
11
55.0979
21
-37.6183
0
LINE
8
BLACK
6
CONTINUOUS
10
55.0979
20
-37.6183
11
55.0984
21
-37.6184
0
LINE
8
BLACK
6
CONTINUOUS
10
55.0984
20
-37.6184
11
55.1003
21
-37.619
0
LINE
8
BLACK
6
CONTINUOUS
10
55.1003
20
-37.619
11
55.1022
21
-37.6196
0
LINE
8
BLACK
6
CONTINUOUS
10
55.1022
20
-37.6196
11
55.1026
21
-37.6198
0
LINE
8
BLACK
6
CONTINUOUS
10
55.1026
20
-37.6198
11
55.1031
21
-37.62
0
LINE
8
BLACK
6
CONTINUOUS
10
55.1031
20
-37.62
11
55.1048
21
-37.621
0
LINE
8
BLACK
6
CONTINUOUS
10
55.1048
20
-37.621
11
55.1066
21
-37.6219
0
LINE
8
BLACK
6
CONTINUOUS
10
55.1066
20
-37.6219
11
55.1069
21
-37.6222
0
LINE
8
BLACK
6
CONTINUOUS
10
55.1069
20
-37.6222
11
55.1073
21
-37.6225
0
LINE
8
BLACK
6
CONTINUOUS
10
55.1073
20
-37.6225
11
55.1088
21
-37.6238
0
LINE
8
BLACK
6
CONTINUOUS
10
55.1088
20
-37.6238
11
55.1104
21
-37.625
0
LINE
8
BLACK
6
CONTINUOUS
10
55.1104
20
-37.625
11
55.1107
21
-37.6254
0
LINE
8
BLACK
6
CONTINUOUS
10
55.1107
20
-37.6254
11
55.111
21
-37.6257
0
LINE
8
BLACK
6
CONTINUOUS
10
55.111
20
-37.6257
11
55.1122
21
-37.6273
0
LINE
8
BLACK
6
CONTINUOUS
10
55.1122
20
-37.6273
11
55.1135
21
-37.6288
0
LINE
8
BLACK
6
CONTINUOUS
10
55.1135
20
-37.6288
11
55.1143
21
-37.6303
0
LINE
8
BLACK
6
CONTINUOUS
10
55.1143
20
-37.6303
11
55.3162
21
-37.9585
0
LINE
8
BLACK
6
CONTINUOUS
10
55.3162
20
-37.9585
11
55.3167
21
-37.959
0
LINE
8
BLACK
6
CONTINUOUS
10
55.3167
20
-37.959
11
55.3175
21
-37.9605
0
LINE
8
BLACK
6
CONTINUOUS
10
55.3175
20
-37.9605
11
55.3177
21
-37.9609
0
LINE
8
BLACK
6
CONTINUOUS
10
55.3177
20
-37.9609
11
55.3181
21
-37.9616
0
LINE
8
BLACK
6
CONTINUOUS
10
55.3181
20
-37.9616
11
55.319
21
-37.9634
0
LINE
8
BLACK
6
CONTINUOUS
10
55.319
20
-37.9634
11
55.3191
21
-37.9638
0
LINE
8
BLACK
6
CONTINUOUS
10
55.3191
20
-37.9638
11
55.3194
21
-37.9643
0
LINE
8
BLACK
6
CONTINUOUS
10
55.3194
20
-37.9643
11
55.3199
21
-37.9662
0
LINE
8
BLACK
6
CONTINUOUS
10
55.3199
20
-37.9662
11
55.3204
21
-37.9681
0
LINE
8
BLACK
6
CONTINUOUS
10
55.3204
20
-37.9681
11
55.3205
21
-37.9686
0
LINE
8
BLACK
6
CONTINUOUS
10
55.3205
20
-37.9686
11
55.3206
21
-37.969
0
LINE
8
BLACK
6
CONTINUOUS
10
55.3206
20
-37.969
11
55.3207
21
-37.971
0
LINE
8
BLACK
6
CONTINUOUS
10
55.3207
20
-37.971
11
55.3208
21
-37.9718
0
LINE
8
BLACK
6
CONTINUOUS
10
55.3208
20
-37.9718
11
55.3208
21
-37.9723
0
LINE
8
BLACK
6
CONTINUOUS
10
55.3208
20
-37.9723
11
55.3209
21
-37.9739
0
LINE
8
BLACK
6
CONTINUOUS
10
55.3209
20
-37.9739
11
55.3208
21
-37.9747
0
LINE
8
BLACK
6
CONTINUOUS
10
55.3208
20
-37.9747
11
55.3208
21
-39.218
0
LINE
8
BLACK
6
CONTINUOUS
10
55.3208
20
-39.218
11
136.995
21
-39.218
0
LINE
8
BLACK
6
CONTINUOUS
10
136.995
20
-39.218
11
136.995
21
-38.1003
0
LINE
8
BLACK
6
CONTINUOUS
10
136.995
20
-38.1003
11
136.995
21
-38.0982
0
LINE
8
BLACK
6
CONTINUOUS
10
136.995
20
-38.0982
11
136.996
21
-38.0966
0
LINE
8
BLACK
6
CONTINUOUS
10
136.996
20
-38.0966
11
136.996
21
-38.0951
0
LINE
8
BLACK
6
CONTINUOUS
10
136.996
20
-38.0951
11
136.996
21
-38.0942
0
LINE
8
BLACK
6
CONTINUOUS
10
136.996
20
-38.0942
11
136.996
21
-38.0933
0
LINE
8
BLACK
6
CONTINUOUS
10
136.996
20
-38.0933
11
136.997
21
-38.0919
0
LINE
8
BLACK
6
CONTINUOUS
10
136.997
20
-38.0919
11
136.997
21
-38.0904
0
LINE
8
BLACK
6
CONTINUOUS
10
136.997
20
-38.0904
11
136.998
21
-38.0896
0
LINE
8
BLACK
6
CONTINUOUS
10
136.998
20
-38.0896
11
136.998
21
-38.0887
0
LINE
8
BLACK
6
CONTINUOUS
10
136.998
20
-38.0887
11
136.999
21
-38.0874
0
LINE
8
BLACK
6
CONTINUOUS
10
136.999
20
-38.0874
11
136.999
21
-38.086
0
LINE
8
BLACK
6
CONTINUOUS
10
136.999
20
-38.086
11
137.001
21
-38.0844
0
LINE
8
BLACK
6
CONTINUOUS
10
137.001
20
-38.0844
11
137.355
21
-37.6291
0
LINE
8
BLACK
6
CONTINUOUS
10
137.355
20
-37.6291
11
137.355
21
-37.6288
0
LINE
8
BLACK
6
CONTINUOUS
10
137.355
20
-37.6288
11
137.356
21
-37.6272
0
LINE
8
BLACK
6
CONTINUOUS
10
137.356
20
-37.6272
11
137.357
21
-37.6265
0
LINE
8
BLACK
6
CONTINUOUS
10
137.357
20
-37.6265
11
137.357
21
-37.6263
0
LINE
8
BLACK
6
CONTINUOUS
10
137.357
20
-37.6263
11
137.358
21
-37.625
0
LINE
8
BLACK
6
CONTINUOUS
10
137.358
20
-37.625
11
137.359
21
-37.6245
0
LINE
8
BLACK
6
CONTINUOUS
10
137.359
20
-37.6245
11
137.359
21
-37.6238
0
LINE
8
BLACK
6
CONTINUOUS
10
137.359
20
-37.6238
11
137.361
21
-37.6229
0
LINE
8
BLACK
6
CONTINUOUS
10
137.361
20
-37.6229
11
137.362
21
-37.6219
0
LINE
8
BLACK
6
CONTINUOUS
10
137.362
20
-37.6219
11
137.363
21
-37.6215
0
LINE
8
BLACK
6
CONTINUOUS
10
137.363
20
-37.6215
11
137.363
21
-37.621
0
LINE
8
BLACK
6
CONTINUOUS
10
137.363
20
-37.621
11
137.365
21
-37.6203
0
LINE
8
BLACK
6
CONTINUOUS
10
137.365
20
-37.6203
11
137.366
21
-37.6196
0
LINE
8
BLACK
6
CONTINUOUS
10
137.366
20
-37.6196
11
137.367
21
-37.6193
0
LINE
8
BLACK
6
CONTINUOUS
10
137.367
20
-37.6193
11
137.368
21
-37.619
0
LINE
8
BLACK
6
CONTINUOUS
10
137.368
20
-37.619
11
137.37
21
-37.6186
0
LINE
8
BLACK
6
CONTINUOUS
10
137.37
20
-37.6186
11
137.371
21
-37.6182
0
LINE
8
BLACK
6
CONTINUOUS
10
137.371
20
-37.6182
11
137.372
21
-37.6181
0
LINE
8
BLACK
6
CONTINUOUS
10
137.372
20
-37.6181
11
137.373
21
-37.6179
0
LINE
8
BLACK
6
CONTINUOUS
10
137.373
20
-37.6179
11
137.374
21
-37.6178
0
LINE
8
BLACK
6
CONTINUOUS
10
137.374
20
-37.6178
11
137.375
21
-37.6178
0
LINE
8
BLACK
6
CONTINUOUS
10
137.375
20
-37.6178
11
137.376
21
-37.6178
0
LINE
8
BLACK
6
CONTINUOUS
10
137.376
20
-37.6178
11
137.378
21
-37.6177
0
LINE
8
BLACK
6
CONTINUOUS
10
137.378
20
-37.6177
11
137.378
21
-37.6178
0
LINE
8
BLACK
6
CONTINUOUS
10
137.378
20
-37.6178
11
142.771
21
-37.6178
0
LINE
8
BLACK
6
CONTINUOUS
10
142.771
20
-37.6178
11
142.772
21
-37.6177
0
LINE
8
BLACK
6
CONTINUOUS
10
142.772
20
-37.6177
11
142.774
21
-37.6178
0
LINE
8
BLACK
6
CONTINUOUS
10
142.774
20
-37.6178
11
142.775
21
-37.6178
0
LINE
8
BLACK
6
CONTINUOUS
10
142.775
20
-37.6178
11
142.775
21
-37.6178
0
LINE
8
BLACK
6
CONTINUOUS
10
142.775
20
-37.6178
11
142.777
21
-37.6179
0
LINE
8
BLACK
6
CONTINUOUS
10
142.777
20
-37.6179
11
142.777
21
-37.6181
0
LINE
8
BLACK
6
CONTINUOUS
10
142.777
20
-37.6181
11
142.778
21
-37.6182
0
LINE
8
BLACK
6
CONTINUOUS
10
142.778
20
-37.6182
11
142.78
21
-37.6186
0
LINE
8
BLACK
6
CONTINUOUS
10
142.78
20
-37.6186
11
142.781
21
-37.619
0
LINE
8
BLACK
6
CONTINUOUS
10
142.781
20
-37.619
11
142.782
21
-37.6193
0
LINE
8
BLACK
6
CONTINUOUS
10
142.782
20
-37.6193
11
142.783
21
-37.6196
0
LINE
8
BLACK
6
CONTINUOUS
10
142.783
20
-37.6196
11
142.784
21
-37.6203
0
LINE
8
BLACK
6
CONTINUOUS
10
142.784
20
-37.6203
11
142.786
21
-37.621
0
LINE
8
BLACK
6
CONTINUOUS
10
142.786
20
-37.621
11
142.787
21
-37.6215
0
LINE
8
BLACK
6
CONTINUOUS
10
142.787
20
-37.6215
11
142.787
21
-37.6219
0
LINE
8
BLACK
6
CONTINUOUS
10
142.787
20
-37.6219
11
142.789
21
-37.6229
0
LINE
8
BLACK
6
CONTINUOUS
10
142.789
20
-37.6229
11
142.79
21
-37.6238
0
LINE
8
BLACK
6
CONTINUOUS
10
142.79
20
-37.6238
11
142.79
21
-37.6245
0
LINE
8
BLACK
6
CONTINUOUS
10
142.79
20
-37.6245
11
142.791
21
-37.625
0
LINE
8
BLACK
6
CONTINUOUS
10
142.791
20
-37.625
11
142.792
21
-37.6263
0
LINE
8
BLACK
6
CONTINUOUS
10
142.792
20
-37.6263
11
142.792
21
-37.6265
0
LINE
8
BLACK
6
CONTINUOUS
10
142.792
20
-37.6265
11
142.793
21
-37.6272
0
LINE
8
BLACK
6
CONTINUOUS
10
142.793
20
-37.6272
11
142.794
21
-37.6288
0
LINE
8
BLACK
6
CONTINUOUS
10
142.794
20
-37.6288
11
142.794
21
-37.6291
0
LINE
8
BLACK
6
CONTINUOUS
10
142.794
20
-37.6291
11
143.149
21
-38.0844
0
LINE
8
BLACK
6
CONTINUOUS
10
143.149
20
-38.0844
11
143.15
21
-38.086
0
LINE
8
BLACK
6
CONTINUOUS
10
143.15
20
-38.086
11
143.151
21
-38.0874
0
LINE
8
BLACK
6
CONTINUOUS
10
143.151
20
-38.0874
11
143.151
21
-38.0887
0
LINE
8
BLACK
6
CONTINUOUS
10
143.151
20
-38.0887
11
143.152
21
-38.0896
0
LINE
8
BLACK
6
CONTINUOUS
10
143.152
20
-38.0896
11
143.152
21
-38.0904
0
LINE
8
BLACK
6
CONTINUOUS
10
143.152
20
-38.0904
11
143.153
21
-38.0919
0
LINE
8
BLACK
6
CONTINUOUS
10
143.153
20
-38.0919
11
143.153
21
-38.0933
0
LINE
8
BLACK
6
CONTINUOUS
10
143.153
20
-38.0933
11
143.153
21
-38.0942
0
LINE
8
BLACK
6
CONTINUOUS
10
143.153
20
-38.0942
11
143.154
21
-38.0951
0
LINE
8
BLACK
6
CONTINUOUS
10
143.154
20
-38.0951
11
143.154
21
-38.0966
0
LINE
8
BLACK
6
CONTINUOUS
10
143.154
20
-38.0966
11
143.154
21
-38.0982
0
LINE
8
BLACK
6
CONTINUOUS
10
143.154
20
-38.0982
11
143.154
21
-38.1003
0
LINE
8
BLACK
6
CONTINUOUS
10
143.154
20
-38.1003
11
143.154
21
-147.344
0
LINE
8
BLACK
6
CONTINUOUS
10
143.154
20
-147.344
11
143.154
21
-147.345
0
LINE
8
BLACK
6
CONTINUOUS
10
143.154
20
-147.345
11
143.154
21
-147.347
0
LINE
8
BLACK
6
CONTINUOUS
10
143.154
20
-147.347
11
143.154
21
-147.35
0
LINE
8
BLACK
6
CONTINUOUS
10
143.154
20
-147.35
11
143.154
21
-147.35
0
LINE
8
BLACK
6
CONTINUOUS
10
143.154
20
-147.35
11
143.152
21
-147.355
0
LINE
8
BLACK
6
CONTINUOUS
10
143.152
20
-147.355
11
143.151
21
-147.357
0
LINE
8
BLACK
6
CONTINUOUS
10
143.151
20
-147.357
11
143.15
21
-147.359
0
LINE
8
BLACK
6
CONTINUOUS
10
143.15
20
-147.359
11
143.147
21
-147.363
0
LINE
8
BLACK
6
CONTINUOUS
10
143.147
20
-147.363
11
143.146
21
-147.364
0
LINE
8
BLACK
6
CONTINUOUS
10
143.146
20
-147.364
11
141.243
21
-149.267
0
LINE
8
BLACK
6
CONTINUOUS
10
141.243
20
-149.267
11
141.242
21
-149.268
0
LINE
8
BLACK
6
CONTINUOUS
10
141.242
20
-149.268
11
141.238
21
-149.271
0
LINE
8
BLACK
6
CONTINUOUS
10
141.238
20
-149.271
11
141.234
21
-149.274
0
LINE
8
BLACK
6
CONTINUOUS
10
141.234
20
-149.274
11
141.229
21
-149.275
0
LINE
8
BLACK
6
CONTINUOUS
10
141.229
20
-149.275
11
141.225
21
-149.275
0
LINE
8
BLACK
6
CONTINUOUS
10
141.225
20
-149.275
11
141.225
21
-149.275
0
LINE
8
BLACK
6
CONTINUOUS
10
141.225
20
-149.275
11
141.224
21
-149.276
0
LINE
8
BLACK
6
CONTINUOUS
10
141.224
20
-149.276
11
141.223
21
-149.275
0
LINE
8
BLACK
6
CONTINUOUS
10
141.223
20
-149.275
11
116.154
21
-149.275
0
LINE
8
BLACK
6
CONTINUOUS
10
116.154
20
-149.275
11
116.154
21
-158.622
0
LINE
8
BLACK
6
CONTINUOUS
10
116.154
20
-158.622
11
116.154
21
-158.624
0
LINE
8
BLACK
6
CONTINUOUS
10
116.154
20
-158.624
11
116.154
21
-158.626
0
LINE
8
BLACK
6
CONTINUOUS
10
116.154
20
-158.626
11
116.153
21
-158.628
0
LINE
8
BLACK
6
CONTINUOUS
10
116.153
20
-158.628
11
116.153
21
-158.628
0
LINE
8
BLACK
6
CONTINUOUS
10
116.153
20
-158.628
11
116.153
21
-158.628
0
LINE
8
BLACK
6
CONTINUOUS
10
116.153
20
-158.628
11
116.153
21
-158.63
0
LINE
8
BLACK
6
CONTINUOUS
10
116.153
20
-158.63
11
116.152
21
-158.633
0
LINE
8
BLACK
6
CONTINUOUS
10
116.152
20
-158.633
11
116.152
21
-158.633
0
LINE
8
BLACK
6
CONTINUOUS
10
116.152
20
-158.633
11
116.152
21
-158.633
0
LINE
8
BLACK
6
CONTINUOUS
10
116.152
20
-158.633
11
116.151
21
-158.635
0
LINE
8
BLACK
6
CONTINUOUS
10
116.151
20
-158.635
11
116.15
21
-158.637
0
LINE
8
BLACK
6
CONTINUOUS
10
116.15
20
-158.637
11
116.15
21
-158.637
0
LINE
8
BLACK
6
CONTINUOUS
10
116.15
20
-158.637
11
116.149
21
-158.637
0
LINE
8
BLACK
6
CONTINUOUS
10
116.149
20
-158.637
11
116.148
21
-158.639
0
LINE
8
BLACK
6
CONTINUOUS
10
116.148
20
-158.639
11
116.147
21
-158.641
0
LINE
8
BLACK
6
CONTINUOUS
10
116.147
20
-158.641
11
116.145
21
-158.642
0
LINE
8
BLACK
6
CONTINUOUS
10
116.145
20
-158.642
11
115.512
21
-159.25
0
LINE
8
BLACK
6
CONTINUOUS
10
115.512
20
-159.25
11
115.512
21
-159.25
0
LINE
8
BLACK
6
CONTINUOUS
10
115.512
20
-159.25
11
115.51
21
-159.251
0
LINE
8
BLACK
6
CONTINUOUS
10
115.51
20
-159.251
11
115.51
21
-159.251
0
LINE
8
BLACK
6
CONTINUOUS
10
115.51
20
-159.251
11
115.51
21
-159.252
0
LINE
8
BLACK
6
CONTINUOUS
10
115.51
20
-159.252
11
115.508
21
-159.253
0
LINE
8
BLACK
6
CONTINUOUS
10
115.508
20
-159.253
11
115.508
21
-159.254
0
LINE
8
BLACK
6
CONTINUOUS
10
115.508
20
-159.254
11
115.507
21
-159.254
0
LINE
8
BLACK
6
CONTINUOUS
10
115.507
20
-159.254
11
115.505
21
-159.255
0
LINE
8
BLACK
6
CONTINUOUS
10
115.505
20
-159.255
11
115.503
21
-159.256
0
LINE
8
BLACK
6
CONTINUOUS
10
115.503
20
-159.256
11
115.503
21
-159.256
0
LINE
8
BLACK
6
CONTINUOUS
10
115.503
20
-159.256
11
115.503
21
-159.256
0
LINE
8
BLACK
6
CONTINUOUS
10
115.503
20
-159.256
11
115.501
21
-159.257
0
LINE
8
BLACK
6
CONTINUOUS
10
115.501
20
-159.257
11
115.499
21
-159.257
0
LINE
8
BLACK
6
CONTINUOUS
10
115.499
20
-159.257
11
115.498
21
-159.257
0
LINE
8
BLACK
6
CONTINUOUS
10
115.498
20
-159.257
11
115.498
21
-159.257
0
LINE
8
BLACK
6
CONTINUOUS
10
115.498
20
-159.257
11
115.496
21
-159.258
0
LINE
8
BLACK
6
CONTINUOUS
10
115.496
20
-159.258
11
115.495
21
-159.258
0
LINE
8
BLACK
6
CONTINUOUS
10
115.495
20
-159.258
11
115.495
21
-159.258
0
LINE
8
BLACK
6
CONTINUOUS
10
115.495
20
-159.258
11
115.493
21
-159.258
0
LINE
8
BLACK
6
CONTINUOUS
10
115.493
20
-159.258
11
115.492
21
-159.258
0
LINE
8
BLACK
6
CONTINUOUS
10
115.492
20
-159.258
11
76.8108
21
-159.258
0
LINE
8
BLACK
6
CONTINUOUS
10
76.8108
20
-159.258
11
76.8096
21
-159.258
0
LINE
8
BLACK
6
CONTINUOUS
10
76.8096
20
-159.258
11
76.8047
21
-159.257
0
LINE
8
BLACK
6
CONTINUOUS
10
76.8047
20
-159.257
11
76.8
21
-159.256
0
LINE
8
BLACK
6
CONTINUOUS
10
76.8
20
-159.256
11
76.7996
21
-159.256
0
LINE
8
BLACK
6
CONTINUOUS
10
76.7996
20
-159.256
11
76.7956
21
-159.253
0
LINE
8
BLACK
6
CONTINUOUS
10
76.7956
20
-159.253
11
76.7918
21
-159.25
0
LINE
8
BLACK
6
CONTINUOUS
10
76.7918
20
-159.25
11
76.7911
21
-159.249
0
LINE
8
BLACK
6
CONTINUOUS
10
76.7911
20
-159.249
11
76.1578
21
-158.616
0
LINE
8
BLACK
6
CONTINUOUS
10
76.1578
20
-158.616
11
76.1568
21
-158.615
0
LINE
8
BLACK
6
CONTINUOUS
10
76.1568
20
-158.615
11
76.1537
21
-158.612
0
LINE
8
BLACK
6
CONTINUOUS
10
76.1537
20
-158.612
11
76.1514
21
-158.607
0
LINE
8
BLACK
6
CONTINUOUS
10
76.1514
20
-158.607
11
76.15
21
-158.602
0
LINE
8
BLACK
6
CONTINUOUS
10
76.15
20
-158.602
11
76.1496
21
-158.599
0
LINE
8
BLACK
6
CONTINUOUS
10
76.1496
20
-158.599
11
76.1495
21
-158.598
0
LINE
8
BLACK
6
CONTINUOUS
10
76.1495
20
-158.598
11
76.1496
21
-158.596
0
LINE
8
BLACK
6
CONTINUOUS
10
76.1496
20
-158.596
11
76.1496
21
-149.25
0
LINE
8
BLACK
6
CONTINUOUS
10
76.1496
20
-149.25
11
51.0806
21
-149.275
0
LINE
8
BLACK
6
CONTINUOUS
10
51.0806
20
-149.275
11
51.0794
21
-149.276
0
LINE
8
BLACK
6
CONTINUOUS
10
51.0794
20
-149.276
11
51.0764
21
-149.275
0
LINE
8
BLACK
6
CONTINUOUS
10
51.0764
20
-149.275
11
51.0745
21
-149.275
0
LINE
8
BLACK
6
CONTINUOUS
10
51.0745
20
-149.275
11
51.0745
21
-149.275
0
LINE
8
BLACK
6
CONTINUOUS
10
51.0745
20
-149.275
11
51.0745
21
-149.275
0
LINE
8
BLACK
6
CONTINUOUS
10
51.0745
20
-149.275
11
51.0711
21
-149.274
0
LINE
8
BLACK
6
CONTINUOUS
10
51.0711
20
-149.274
11
51.0698
21
-149.274
0
LINE
8
BLACK
6
CONTINUOUS
10
51.0698
20
-149.274
11
51.0698
21
-149.274
0
LINE
8
BLACK
6
CONTINUOUS
10
51.0698
20
-149.274
11
51.0698
21
-149.274
0
LINE
8
BLACK
6
CONTINUOUS
10
51.0698
20
-149.274
11
51.0673
21
-149.272
0
LINE
8
BLACK
6
CONTINUOUS
10
51.0673
20
-149.272
11
51.0655
21
-149.271
0
LINE
8
BLACK
6
CONTINUOUS
10
51.0655
20
-149.271
11
51.0655
21
-149.271
0
LINE
8
BLACK
6
CONTINUOUS
10
51.0655
20
-149.271
11
51.0654
21
-149.271
0
LINE
8
BLACK
6
CONTINUOUS
10
51.0654
20
-149.271
11
51.0633
21
-149.27
0
LINE
8
BLACK
6
CONTINUOUS
10
51.0633
20
-149.27
11
51.0617
21
-149.268
0
LINE
8
BLACK
6
CONTINUOUS
10
51.0617
20
-149.268
11
51.0609
21
-149.267
0
LINE
8
BLACK
6
CONTINUOUS
10
51.0609
20
-149.267
11
49.1576
21
-147.364
0
LINE
8
BLACK
6
CONTINUOUS
10
49.1576
20
-147.364
11
49.1566
21
-147.363
0
LINE
8
BLACK
6
CONTINUOUS
10
49.1566
20
-147.363
11
49.1535
21
-147.359
0
LINE
8
BLACK
6
CONTINUOUS
10
49.1535
20
-147.359
11
49.1512
21
-147.355
0
LINE
8
BLACK
6
CONTINUOUS
10
49.1512
20
-147.355
11
49.1498
21
-147.35
0
LINE
8
BLACK
6
CONTINUOUS
10
49.1498
20
-147.35
11
49.1498
21
-147.35
0
LINE
8
BLACK
6
CONTINUOUS
10
49.1498
20
-147.35
11
49.1498
21
-147.35
0
LINE
8
BLACK
6
CONTINUOUS
10
49.1498
20
-147.35
11
49.1496
21
-147.349
0
LINE
8
BLACK
6
CONTINUOUS
10
49.1496
20
-147.349
11
49.1494
21
-147.347
0
LINE
8
BLACK
6
CONTINUOUS
10
49.1494
20
-147.347
11
49.1494
21
-147.347
0
LINE
8
BLACK
6
CONTINUOUS
10
49.1494
20
-147.347
11
49.1493
21
-147.345
0
LINE
8
BLACK
6
CONTINUOUS
10
49.1493
20
-147.345
11
49.1494
21
-147.344
0
LINE
8
BLACK
6
CONTINUOUS
10
49.1494
20
-147.344
11
49.124
21
-37.9747
0
LINE
8
BLACK
6
CONTINUOUS
10
49.124
20
-37.9747
11
49.1239
21
-37.9739
0
LINE
8
BLACK
6
CONTINUOUS
10
49.1239
20
-37.9739
11
49.124
21
-37.9723
0
LINE
8
BLACK
6
CONTINUOUS
10
49.124
20
-37.9723
11
49.124
21
-37.9718
0
LINE
8
BLACK
6
CONTINUOUS
10
49.124
20
-37.9718
11
49.1241
21
-37.971
0
LINE
8
BLACK
6
CONTINUOUS
10
49.1241
20
-37.971
11
49.1242
21
-37.969
0
LINE
8
BLACK
6
CONTINUOUS
10
49.1242
20
-37.969
11
49.1243
21
-37.9686
0
LINE
8
BLACK
6
CONTINUOUS
10
49.1243
20
-37.9686
11
49.1244
21
-37.9681
0
LINE
8
BLACK
6
CONTINUOUS
10
49.1244
20
-37.9681
11
49.1249
21
-37.9662
0
LINE
8
BLACK
6
CONTINUOUS
10
49.1249
20
-37.9662
11
49.1255
21
-37.9643
0
LINE
8
BLACK
6
CONTINUOUS
10
49.1255
20
-37.9643
11
49.1257
21
-37.9638
0
LINE
8
BLACK
6
CONTINUOUS
10
49.1257
20
-37.9638
11
49.1258
21
-37.9634
0
LINE
8
BLACK
6
CONTINUOUS
10
49.1258
20
-37.9634
11
49.1267
21
-37.9616
0
LINE
8
BLACK
6
CONTINUOUS
10
49.1267
20
-37.9616
11
49.1271
21
-37.9609
0
LINE
8
BLACK
6
CONTINUOUS
10
49.1271
20
-37.9609
11
49.1273
21
-37.9605
0
LINE
8
BLACK
6
CONTINUOUS
10
49.1273
20
-37.9605
11
49.1281
21
-37.959
0
LINE
8
BLACK
6
CONTINUOUS
10
49.1281
20
-37.959
11
49.1286
21
-37.9585
0
LINE
8
BLACK
6
CONTINUOUS
10
49.1286
20
-37.9585
11
49.3305
21
-37.6303
0
LINE
8
BLACK
6
CONTINUOUS
10
49.3305
20
-37.6303
11
49.3313
21
-37.6288
0
LINE
8
BLACK
6
CONTINUOUS
10
49.3313
20
-37.6288
11
49.3326
21
-37.6273
0
LINE
8
BLACK
6
CONTINUOUS
10
49.3326
20
-37.6273
11
49.3338
21
-37.6257
0
LINE
8
BLACK
6
CONTINUOUS
10
49.3338
20
-37.6257
11
49.3341
21
-37.6254
0
LINE
8
BLACK
6
CONTINUOUS
10
49.3341
20
-37.6254
11
49.3344
21
-37.625
0
LINE
8
BLACK
6
CONTINUOUS
10
49.3344
20
-37.625
11
49.336
21
-37.6238
0
LINE
8
BLACK
6
CONTINUOUS
10
49.336
20
-37.6238
11
49.3375
21
-37.6225
0
LINE
8
BLACK
6
CONTINUOUS
10
49.3375
20
-37.6225
11
49.3379
21
-37.6222
0
LINE
8
BLACK
6
CONTINUOUS
10
49.3379
20
-37.6222
11
49.3382
21
-37.6219
0
LINE
8
BLACK
6
CONTINUOUS
10
49.3382
20
-37.6219
11
49.34
21
-37.621
0
LINE
8
BLACK
6
CONTINUOUS
10
49.34
20
-37.621
11
49.3417
21
-37.62
0
LINE
8
BLACK
6
CONTINUOUS
10
49.3417
20
-37.62
11
49.3422
21
-37.6198
0
LINE
8
BLACK
6
CONTINUOUS
10
49.3422
20
-37.6198
11
49.3426
21
-37.6196
0
LINE
8
BLACK
6
CONTINUOUS
10
49.3426
20
-37.6196
11
49.3445
21
-37.619
0
LINE
8
BLACK
6
CONTINUOUS
10
49.3445
20
-37.619
11
49.3464
21
-37.6184
0
LINE
8
BLACK
6
CONTINUOUS
10
49.3464
20
-37.6184
11
49.3469
21
-37.6183
0
LINE
8
BLACK
6
CONTINUOUS
10
49.3469
20
-37.6183
11
49.3473
21
-37.6182
0
LINE
8
BLACK
6
CONTINUOUS
10
49.3473
20
-37.6182
11
49.3493
21
-37.618
0
LINE
8
BLACK
6
CONTINUOUS
10
49.3493
20
-37.618
11
49.3513
21
-37.6177
0
LINE
8
BLACK
6
CONTINUOUS
10
49.3513
20
-37.6177
11
49.3529
21
-37.6178
0
LINE
8
BLACK
6
CONTINUOUS
10
49.3529
20
-37.6178
11
55.0919
21
-37.6178
0
LINE
8
BLACK
6
CONTINUOUS
10
55.0919
20
-37.6178
11
55.0935
21
-37.6177
0
LINE
8
BLACK
6
CONTINUOUS
10
55.0935
20
-37.6177
11
55.0955
21
-37.618
0
LINE
8
BLACK
6
CONTINUOUS
10
49.3662
20
-37.6678
11
49.174
21
-37.9801
0
LINE
8
BLACK
6
CONTINUOUS
10
49.174
20
-37.9801
11
49.1994
21
-147.335
0
LINE
8
BLACK
6
CONTINUOUS
10
49.1994
20
-147.335
11
51.0897
21
-149.225
0
LINE
8
BLACK
6
CONTINUOUS
10
51.0897
20
-149.225
11
76.1734
21
-149.2
0
LINE
8
BLACK
6
CONTINUOUS
10
76.1734
20
-149.2
11
76.1746
21
-149.2
0
LINE
8
BLACK
6
CONTINUOUS
10
76.1746
20
-149.2
11
76.1776
21
-149.2
0
LINE
8
BLACK
6
CONTINUOUS
10
76.1776
20
-149.2
11
76.1795
21
-149.2
0
LINE
8
BLACK
6
CONTINUOUS
10
76.1795
20
-149.2
11
76.1795
21
-149.2
0
LINE
8
BLACK
6
CONTINUOUS
10
76.1795
20
-149.2
11
76.1795
21
-149.2
0
LINE
8
BLACK
6
CONTINUOUS
10
76.1795
20
-149.2
11
76.1827
21
-149.201
0
LINE
8
BLACK
6
CONTINUOUS
10
76.1827
20
-149.201
11
76.1842
21
-149.202
0
LINE
8
BLACK
6
CONTINUOUS
10
76.1842
20
-149.202
11
76.1842
21
-149.202
0
LINE
8
BLACK
6
CONTINUOUS
10
76.1842
20
-149.202
11
76.1842
21
-149.202
0
LINE
8
BLACK
6
CONTINUOUS
10
76.1842
20
-149.202
11
76.1869
21
-149.203
0
LINE
8
BLACK
6
CONTINUOUS
10
76.1869
20
-149.203
11
76.1885
21
-149.204
0
LINE
8
BLACK
6
CONTINUOUS
10
76.1885
20
-149.204
11
76.1885
21
-149.204
0
LINE
8
BLACK
6
CONTINUOUS
10
76.1885
20
-149.204
11
76.1886
21
-149.204
0
LINE
8
BLACK
6
CONTINUOUS
10
76.1886
20
-149.204
11
76.191
21
-149.206
0
LINE
8
BLACK
6
CONTINUOUS
10
76.191
20
-149.206
11
76.1923
21
-149.207
0
LINE
8
BLACK
6
CONTINUOUS
10
76.1923
20
-149.207
11
76.1924
21
-149.207
0
LINE
8
BLACK
6
CONTINUOUS
10
76.1924
20
-149.207
11
76.1924
21
-149.207
0
LINE
8
BLACK
6
CONTINUOUS
10
76.1924
20
-149.207
11
76.1941
21
-149.209
0
LINE
8
BLACK
6
CONTINUOUS
10
76.1941
20
-149.209
11
76.1955
21
-149.211
0
LINE
8
BLACK
6
CONTINUOUS
10
76.1955
20
-149.211
11
76.1955
21
-149.211
0
LINE
8
BLACK
6
CONTINUOUS
10
76.1955
20
-149.211
11
76.1955
21
-149.211
0
LINE
8
BLACK
6
CONTINUOUS
10
76.1955
20
-149.211
11
76.1967
21
-149.213
0
LINE
8
BLACK
6
CONTINUOUS
10
76.1967
20
-149.213
11
76.1978
21
-149.215
0
LINE
8
BLACK
6
CONTINUOUS
10
76.1978
20
-149.215
11
76.1978
21
-149.215
0
LINE
8
BLACK
6
CONTINUOUS
10
76.1978
20
-149.215
11
76.1978
21
-149.215
0
LINE
8
BLACK
6
CONTINUOUS
10
76.1978
20
-149.215
11
76.1986
21
-149.218
0
LINE
8
BLACK
6
CONTINUOUS
10
76.1986
20
-149.218
11
76.1992
21
-149.22
0
LINE
8
BLACK
6
CONTINUOUS
10
76.1992
20
-149.22
11
76.1992
21
-149.22
0
LINE
8
BLACK
6
CONTINUOUS
10
76.1992
20
-149.22
11
76.1992
21
-149.22
0
LINE
8
BLACK
6
CONTINUOUS
10
76.1992
20
-149.22
11
76.1995
21
-149.223
0
LINE
8
BLACK
6
CONTINUOUS
10
76.1995
20
-149.223
11
76.1997
21
-149.225
0
LINE
8
BLACK
6
CONTINUOUS
10
76.1997
20
-149.225
11
76.1996
21
-149.226
0
LINE
8
BLACK
6
CONTINUOUS
10
76.1996
20
-149.226
11
76.1996
21
-158.587
0
LINE
8
BLACK
6
CONTINUOUS
10
76.1996
20
-158.587
11
76.82
21
-159.208
0
LINE
8
BLACK
6
CONTINUOUS
10
76.82
20
-159.208
11
115.484
21
-159.208
0
LINE
8
BLACK
6
CONTINUOUS
10
115.484
20
-159.208
11
116.104
21
-158.612
0
LINE
8
BLACK
6
CONTINUOUS
10
116.104
20
-158.612
11
116.104
21
-149.252
0
LINE
8
BLACK
6
CONTINUOUS
10
116.104
20
-149.252
11
116.104
21
-149.25
0
LINE
8
BLACK
6
CONTINUOUS
10
116.104
20
-149.25
11
116.104
21
-149.245
0
LINE
8
BLACK
6
CONTINUOUS
10
116.104
20
-149.245
11
116.106
21
-149.241
0
LINE
8
BLACK
6
CONTINUOUS
10
116.106
20
-149.241
11
116.108
21
-149.236
0
LINE
8
BLACK
6
CONTINUOUS
10
116.108
20
-149.236
11
116.111
21
-149.233
0
LINE
8
BLACK
6
CONTINUOUS
10
116.111
20
-149.233
11
116.115
21
-149.23
0
LINE
8
BLACK
6
CONTINUOUS
10
116.115
20
-149.23
11
116.119
21
-149.227
0
LINE
8
BLACK
6
CONTINUOUS
10
116.119
20
-149.227
11
116.124
21
-149.226
0
LINE
8
BLACK
6
CONTINUOUS
10
116.124
20
-149.226
11
116.128
21
-149.225
0
LINE
8
BLACK
6
CONTINUOUS
10
116.128
20
-149.225
11
116.128
21
-149.225
0
LINE
8
BLACK
6
CONTINUOUS
10
116.128
20
-149.225
11
116.129
21
-149.225
0
LINE
8
BLACK
6
CONTINUOUS
10
116.129
20
-149.225
11
116.13
21
-149.225
0
LINE
8
BLACK
6
CONTINUOUS
10
116.13
20
-149.225
11
141.214
21
-149.225
0
LINE
8
BLACK
6
CONTINUOUS
10
141.214
20
-149.225
11
143.104
21
-147.335
0
LINE
8
BLACK
6
CONTINUOUS
10
143.104
20
-147.335
11
143.104
21
-38.1086
0
LINE
8
BLACK
6
CONTINUOUS
10
143.104
20
-38.1086
11
142.761
21
-37.6678
0
LINE
8
BLACK
6
CONTINUOUS
10
142.761
20
-37.6678
11
137.388
21
-37.6678
0
LINE
8
BLACK
6
CONTINUOUS
10
137.388
20
-37.6678
11
137.045
21
-38.1086
0
LINE
8
BLACK
6
CONTINUOUS
10
137.045
20
-38.1086
11
137.045
21
-39.2418
0
LINE
8
BLACK
6
CONTINUOUS
10
137.045
20
-39.2418
11
137.045
21
-39.243
0
LINE
8
BLACK
6
CONTINUOUS
10
137.045
20
-39.243
11
137.045
21
-39.2479
0
LINE
8
BLACK
6
CONTINUOUS
10
137.045
20
-39.2479
11
137.044
21
-39.2526
0
LINE
8
BLACK
6
CONTINUOUS
10
137.044
20
-39.2526
11
137.041
21
-39.257
0
LINE
8
BLACK
6
CONTINUOUS
10
137.041
20
-39.257
11
137.038
21
-39.2608
0
LINE
8
BLACK
6
CONTINUOUS
10
137.038
20
-39.2608
11
137.034
21
-39.2639
0
LINE
8
BLACK
6
CONTINUOUS
10
137.034
20
-39.2639
11
137.03
21
-39.2662
0
LINE
8
BLACK
6
CONTINUOUS
10
137.03
20
-39.2662
11
137.025
21
-39.2676
0
LINE
8
BLACK
6
CONTINUOUS
10
137.025
20
-39.2676
11
137.022
21
-39.268
0
LINE
8
BLACK
6
CONTINUOUS
10
137.022
20
-39.268
11
137.022
21
-39.268
0
LINE
8
BLACK
6
CONTINUOUS
10
137.022
20
-39.268
11
137.02
21
-39.2681
0
LINE
8
BLACK
6
CONTINUOUS
10
137.02
20
-39.2681
11
137.019
21
-39.268
0
LINE
8
BLACK
6
CONTINUOUS
10
137.019
20
-39.268
11
55.297
21
-39.268
0
LINE
8
BLACK
6
CONTINUOUS
10
55.297
20
-39.268
11
55.2958
21
-39.2681
0
LINE
8
BLACK
6
CONTINUOUS
10
55.2958
20
-39.2681
11
55.2946
21
-39.268
0
LINE
8
BLACK
6
CONTINUOUS
10
55.2946
20
-39.268
11
55.2946
21
-39.268
0
LINE
8
BLACK
6
CONTINUOUS
10
55.2946
20
-39.268
11
55.2909
21
-39.2676
0
LINE
8
BLACK
6
CONTINUOUS
10
55.2909
20
-39.2676
11
55.2862
21
-39.2662
0
LINE
8
BLACK
6
CONTINUOUS
10
55.2862
20
-39.2662
11
55.2818
21
-39.2639
0
LINE
8
BLACK
6
CONTINUOUS
10
55.2818
20
-39.2639
11
55.278
21
-39.2608
0
LINE
8
BLACK
6
CONTINUOUS
10
55.278
20
-39.2608
11
55.2749
21
-39.257
0
LINE
8
BLACK
6
CONTINUOUS
10
55.2749
20
-39.257
11
55.2726
21
-39.2526
0
LINE
8
BLACK
6
CONTINUOUS
10
55.2726
20
-39.2526
11
55.2712
21
-39.2479
0
LINE
8
BLACK
6
CONTINUOUS
10
55.2712
20
-39.2479
11
55.2707
21
-39.243
0
LINE
8
BLACK
6
CONTINUOUS
10
55.2707
20
-39.243
11
55.2708
21
-39.2418
0
LINE
8
BLACK
6
CONTINUOUS
10
55.2708
20
-39.2418
11
55.2708
21
-37.9801
0
LINE
8
BLACK
6
CONTINUOUS
10
55.2708
20
-37.9801
11
55.0786
21
-37.6678
0
LINE
8
BLACK
6
CONTINUOUS
10
55.0786
20
-37.6678
11
49.3662
21
-37.6678
0
LINE
8
BLACK
6
CONTINUOUS
10
128.017
20
-81.255
11
128.017
21
-81.255
0
LINE
8
BLACK
6
CONTINUOUS
10
128.017
20
-81.255
11
128.021
21
-81.2554
0
LINE
8
BLACK
6
CONTINUOUS
10
128.021
20
-81.2554
11
128.026
21
-81.2568
0
LINE
8
BLACK
6
CONTINUOUS
10
128.026
20
-81.2568
11
128.03
21
-81.2591
0
LINE
8
BLACK
6
CONTINUOUS
10
128.03
20
-81.2591
11
128.034
21
-81.2622
0
LINE
8
BLACK
6
CONTINUOUS
10
128.034
20
-81.2622
11
128.037
21
-81.266
0
LINE
8
BLACK
6
CONTINUOUS
10
128.037
20
-81.266
11
128.039
21
-81.2704
0
LINE
8
BLACK
6
CONTINUOUS
10
128.039
20
-81.2704
11
128.041
21
-81.2751
0
LINE
8
BLACK
6
CONTINUOUS
10
128.041
20
-81.2751
11
128.041
21
-81.28
0
LINE
8
BLACK
6
CONTINUOUS
10
128.041
20
-81.28
11
128.041
21
-81.2812
0
LINE
8
BLACK
6
CONTINUOUS
10
128.041
20
-81.2812
11
128.041
21
-108.076
0
LINE
8
BLACK
6
CONTINUOUS
10
128.041
20
-108.076
11
128.041
21
-108.077
0
LINE
8
BLACK
6
CONTINUOUS
10
128.041
20
-108.077
11
128.041
21
-108.078
0
LINE
8
BLACK
6
CONTINUOUS
10
128.041
20
-108.078
11
128.041
21
-108.078
0
LINE
8
BLACK
6
CONTINUOUS
10
128.041
20
-108.078
11
128.041
21
-108.082
0
LINE
8
BLACK
6
CONTINUOUS
10
128.041
20
-108.082
11
128.039
21
-108.087
0
LINE
8
BLACK
6
CONTINUOUS
10
128.039
20
-108.087
11
128.037
21
-108.091
0
LINE
8
BLACK
6
CONTINUOUS
10
128.037
20
-108.091
11
128.034
21
-108.095
0
LINE
8
BLACK
6
CONTINUOUS
10
128.034
20
-108.095
11
128.03
21
-108.098
0
LINE
8
BLACK
6
CONTINUOUS
10
128.03
20
-108.098
11
128.026
21
-108.1
0
LINE
8
BLACK
6
CONTINUOUS
10
128.026
20
-108.1
11
128.021
21
-108.102
0
LINE
8
BLACK
6
CONTINUOUS
10
128.021
20
-108.102
11
128.016
21
-108.102
0
LINE
8
BLACK
6
CONTINUOUS
10
128.016
20
-108.102
11
128.015
21
-108.102
0
LINE
8
BLACK
6
CONTINUOUS
10
128.015
20
-108.102
11
118.746
21
-108.102
0
LINE
8
BLACK
6
CONTINUOUS
10
118.746
20
-108.102
11
118.745
21
-108.102
0
LINE
8
BLACK
6
CONTINUOUS
10
118.745
20
-108.102
11
118.74
21
-108.102
0
LINE
8
BLACK
6
CONTINUOUS
10
118.74
20
-108.102
11
118.735
21
-108.1
0
LINE
8
BLACK
6
CONTINUOUS
10
118.735
20
-108.1
11
118.731
21
-108.098
0
LINE
8
BLACK
6
CONTINUOUS
10
118.731
20
-108.098
11
118.727
21
-108.095
0
LINE
8
BLACK
6
CONTINUOUS
10
118.727
20
-108.095
11
118.724
21
-108.091
0
LINE
8
BLACK
6
CONTINUOUS
10
118.724
20
-108.091
11
118.722
21
-108.087
0
LINE
8
BLACK
6
CONTINUOUS
10
118.722
20
-108.087
11
118.72
21
-108.082
0
LINE
8
BLACK
6
CONTINUOUS
10
118.72
20
-108.082
11
118.72
21
-108.077
0
LINE
8
BLACK
6
CONTINUOUS
10
118.72
20
-108.077
11
118.72
21
-108.076
0
LINE
8
BLACK
6
CONTINUOUS
10
118.72
20
-108.076
11
118.72
21
-81.2812
0
LINE
8
BLACK
6
CONTINUOUS
10
118.72
20
-81.2812
11
118.72
21
-81.28
0
LINE
8
BLACK
6
CONTINUOUS
10
118.72
20
-81.28
11
118.72
21
-81.2751
0
LINE
8
BLACK
6
CONTINUOUS
10
118.72
20
-81.2751
11
118.722
21
-81.2704
0
LINE
8
BLACK
6
CONTINUOUS
10
118.722
20
-81.2704
11
118.724
21
-81.266
0
LINE
8
BLACK
6
CONTINUOUS
10
118.724
20
-81.266
11
118.727
21
-81.2622
0
LINE
8
BLACK
6
CONTINUOUS
10
118.727
20
-81.2622
11
118.731
21
-81.2591
0
LINE
8
BLACK
6
CONTINUOUS
10
118.731
20
-81.2591
11
118.735
21
-81.2568
0
LINE
8
BLACK
6
CONTINUOUS
10
118.735
20
-81.2568
11
118.74
21
-81.2554
0
LINE
8
BLACK
6
CONTINUOUS
10
118.74
20
-81.2554
11
118.744
21
-81.255
0
LINE
8
BLACK
6
CONTINUOUS
10
118.744
20
-81.255
11
118.744
21
-81.255
0
LINE
8
BLACK
6
CONTINUOUS
10
118.744
20
-81.255
11
118.745
21
-81.2549
0
LINE
8
BLACK
6
CONTINUOUS
10
118.745
20
-81.2549
11
118.746
21
-81.255
0
LINE
8
BLACK
6
CONTINUOUS
10
118.746
20
-81.255
11
128.015
21
-81.255
0
LINE
8
BLACK
6
CONTINUOUS
10
128.015
20
-81.255
11
128.016
21
-81.2549
0
LINE
8
BLACK
6
CONTINUOUS
10
128.016
20
-81.2549
11
128.017
21
-81.255
0
LINE
8
BLACK
6
CONTINUOUS
10
118.77
20
-81.305
11
118.77
21
-108.052
0
LINE
8
BLACK
6
CONTINUOUS
10
118.77
20
-108.052
11
127.991
21
-108.052
0
LINE
8
BLACK
6
CONTINUOUS
10
127.991
20
-108.052
11
127.991
21
-81.305
0
LINE
8
BLACK
6
CONTINUOUS
10
127.991
20
-81.305
11
118.77
21
-81.305
  0
ENDSEC
  0
EOF
