M48
; DRILL file {KiCad (5.1.12)-1} date 03/08/22 20:35:03
; FORMAT={-:-/ absolute / inch / decimal}
; #@! TF.CreationDate,2022-03-08T20:35:03+00:00
; #@! TF.GenerationSoftware,Kicad,Pcbnew,(5.1.12)-1
; #@! TF.FileFunction,Plated,1,2,PTH
FMAT,2
INCH
T1C0.0079
T2C0.0157
T3C0.0197
T4C0.0217
T5C0.0354
T6C0.0394
T7C0.0630
T8C0.0984
T9C0.1260
%
G90
G05
T1
X3.135Y-3.92
X3.265Y-3.92
X3.41Y-3.92
X3.51Y-3.92
X4.508Y-4.046
X4.536Y-3.966
X4.67Y-3.015
X4.95Y-3.019
X4.98Y-4.745
X4.992Y-2.73
X5.005Y-4.793
X5.045Y-4.86
X5.12Y-4.895
X5.16Y-4.615
X5.16Y-4.645
X5.165Y-5.12
X5.165Y-5.155
X5.189Y-4.86
X5.19Y-4.908
X5.19Y-4.793
X5.195Y-4.747
X5.198Y-2.368
X5.199Y-4.939
X5.2Y-4.615
X5.2Y-4.645
X5.205Y-5.12
X5.205Y-5.155
X5.216Y-4.808
X5.217Y-4.845
X5.221Y-4.961
X5.222Y-4.722
X5.337Y-4.985
X5.339Y-4.75
X5.339Y-4.787
X5.339Y-4.864
X5.339Y-4.896
X5.339Y-4.925
X5.357Y-4.816
X5.378Y-4.619
X5.3825Y-4.935
X5.39Y-4.684
X5.404Y-4.836
X5.428Y-4.985
X5.47Y-5.005
X5.5075Y-4.9325
X5.537Y-4.836
X5.55Y-4.685
X5.55Y-4.591
X5.561Y-4.791
T2
X2.105Y-5.1
X2.155Y-2.853
X2.3Y-5.805
X2.315Y-3.695
X2.415Y-4.715
X2.655Y-5.5
X2.815Y-3.18
X2.839Y-3.234
X2.855Y-2.99
X2.875Y-2.075
X2.929Y-3.286
X2.98Y-2.37
X3.035Y-2.32
X3.0825Y-5.6025
X3.09Y-2.42
X3.1Y-5.25
X3.155Y-4.735
X3.155Y-4.835
X3.185Y-5.605
X3.2Y-4.275
X3.205Y-3.635
X3.21Y-4.165
X3.25Y-4.625
X3.265Y-2.13
X3.265Y-4.14
X3.31Y-3.235
X3.335Y-4.285
X3.41Y-3.435
X3.425Y-2.5
X3.455Y-4.14
X3.475Y-4.515
X3.49Y-3.84
X3.5Y-4.07
X3.522Y-4.131
X3.525Y-4.56
X3.54Y-3.985
X3.55Y-4.345
X3.575Y-4.515
X3.5825Y-3.3925
X3.585Y-5.455
X3.61Y-3.865
X3.61Y-4.125
X3.6115Y-4.07
X3.615Y-3.69
X3.64Y-3.62
X3.6491Y-3.805
X3.65Y-4.33
X3.66Y-3.485
X3.6795Y-4.1505
X3.68Y-3.89
X3.705Y-4.03
X3.71Y-3.44
X3.725Y-4.435
X3.75Y-4.01
X3.755Y-2.045
X3.76Y-3.485
X3.78Y-3.615
X3.79Y-2.67
X3.795Y-4.645
X3.7954Y-4.699
X3.81Y-3.65
X3.815Y-4.34
X3.82Y-4.53
X3.8208Y-3.5658
X3.825Y-3.76
X3.87Y-4.09
X3.9Y-4.015
X3.91Y-3.765
X3.95Y-3.495
X3.9525Y-4.0075
X3.955Y-3.945
X3.975Y-3.26
X3.9925Y-4.38
X4.0Y-4.125
X4.0Y-4.67
X4.0Y-4.7
X4.04Y-4.255
X4.04Y-4.3125
X4.05Y-4.17
X4.055Y-3.935
X4.07Y-3.57
X4.07Y-3.73
X4.1Y-4.125
X4.11Y-3.69
X4.125Y-3.805
X4.16Y-4.045
X4.175Y-3.84
X4.185Y-5.77
X4.215Y-3.865
X4.22Y-3.935
X4.225Y-3.77
X4.25Y-3.5
X4.255Y-3.13
X4.26Y-3.61
X4.26Y-3.89
X4.3Y-3.77
X4.315Y-4.03
X4.34Y-3.65
X4.41Y-2.35
X4.485Y-3.285
X4.485Y-3.33
X4.485Y-4.17
X4.485Y-4.215
X4.485Y-5.6
X4.485Y-5.685
X4.485Y-5.77
X4.51Y-3.495
X4.54Y-3.285
X4.54Y-3.33
X4.54Y-4.17
X4.54Y-4.215
X4.835Y-3.155
X5.095Y-2.485
X5.125Y-2.9
X5.155Y-3.64
X5.165Y-3.89
X5.17Y-3.29
X5.17Y-3.33
X5.175Y-4.17
X5.175Y-4.215
X5.18Y-4.045
X5.19Y-3.15
X5.195Y-3.81
X5.2Y-2.59
X5.2Y-2.93
X5.215Y-3.575
X5.215Y-3.93
X5.225Y-3.29
X5.225Y-3.33
X5.23Y-4.17
X5.23Y-4.215
X5.27Y-2.72
X5.3Y-3.08
X5.36Y-3.93
X5.37Y-4.085
X5.375Y-5.0523
X5.49Y-5.75
T3
X2.1359Y-2.3206
X2.1575Y-2.2684
X2.1575Y-2.3727
X2.2097Y-2.2467
X2.2097Y-2.3944
X2.2619Y-2.2684
X2.2619Y-2.3727
X2.2835Y-2.3206
X3.4812Y-2.941
X3.4812Y-5.226
X3.5028Y-2.8888
X3.5028Y-2.9932
X3.5028Y-5.1738
X3.5028Y-5.2782
X3.555Y-2.8672
X3.555Y-3.0148
X3.555Y-5.1522
X3.555Y-5.2998
X3.6072Y-2.8888
X3.6072Y-2.9932
X3.6072Y-5.1738
X3.6072Y-5.2782
X3.6288Y-2.941
X3.6288Y-5.226
X4.4981Y-2.6355
X4.5197Y-2.5833
X4.5197Y-2.6877
X4.5719Y-2.5617
X4.5719Y-2.7093
X4.6241Y-2.5833
X4.6241Y-2.6877
X4.6457Y-2.6355
T4
X5.2456Y-1.8727
X5.2456Y-1.9182
X5.2456Y-1.9637
X5.2456Y-2.0092
X5.2456Y-2.0546
X5.2456Y-2.1001
X5.2456Y-2.1456
X5.2456Y-2.191
X5.2456Y-2.2365
X5.285Y-1.85
X5.285Y-1.8955
X5.285Y-1.9409
X5.285Y-1.9864
X5.285Y-2.0319
X5.285Y-2.0774
X5.285Y-2.1228
X5.285Y-2.1683
X5.285Y-2.2138
X5.285Y-2.2593
T6
X2.6Y-2.225
X2.6Y-2.325
X2.6Y-3.137
X2.6Y-3.237
X2.6Y-3.337
X2.6Y-3.437
X2.6Y-3.537
X2.6Y-3.637
X2.6Y-3.737
X2.6Y-3.837
X2.6Y-3.937
X2.6Y-4.037
X2.6Y-4.137
X2.6Y-4.237
X2.6Y-4.337
X2.6Y-4.437
X2.6Y-4.537
X2.6Y-4.637
X2.6Y-4.737
X2.6Y-4.837
X2.6Y-4.937
X2.6Y-5.037
X2.6034Y-2.525
X2.6034Y-2.625
X2.655Y-1.84
X2.7Y-2.225
X2.7Y-2.325
X2.7Y-3.137
X2.7Y-3.237
X2.7Y-3.337
X2.7Y-3.437
X2.7Y-3.537
X2.7Y-3.637
X2.7Y-3.737
X2.7Y-3.837
X2.7Y-3.937
X2.7Y-4.037
X2.7Y-4.137
X2.7Y-4.237
X2.7Y-4.337
X2.7Y-4.437
X2.7Y-4.537
X2.7Y-4.637
X2.7Y-4.737
X2.7Y-4.837
X2.7Y-4.937
X2.7Y-5.037
X2.7034Y-2.525
X2.7034Y-2.625
X2.7095Y-1.7282
X2.7641Y-1.84
X2.8Y-2.225
X2.8Y-2.325
X2.8034Y-2.525
X2.8034Y-2.625
X2.8186Y-1.7282
X2.8731Y-1.84
X2.9034Y-2.525
X2.9034Y-2.625
X2.9276Y-1.7282
X2.9822Y-1.84
X3.0034Y-2.525
X3.0034Y-2.625
X3.0367Y-1.7282
X3.0912Y-1.84
X3.1034Y-2.525
X3.1034Y-2.625
X3.185Y-5.455
X3.285Y-5.455
X3.385Y-5.455
X3.485Y-5.455
X3.91Y-1.84
X3.9645Y-1.7282
X4.0191Y-1.84
X4.0736Y-1.7282
X4.1281Y-1.84
X4.1826Y-1.7282
X4.2372Y-1.84
X4.2917Y-1.7282
X4.3462Y-1.84
X4.85Y-2.635
X4.95Y-2.635
X5.0Y-5.4
X5.1Y-5.4
X5.2Y-5.4
X5.3Y-5.4
T7
X4.83Y-1.715
X4.93Y-1.715
X4.93Y-2.215
X4.93Y-2.365
X4.93Y-2.515
X5.03Y-1.715
T8
X2.2097Y-2.3206
X3.555Y-2.941
X3.555Y-5.226
X4.5719Y-2.6355
T9
X2.381Y-1.7841
X3.3652Y-1.7841
X3.636Y-1.7841
X4.6202Y-1.7841
T5
G00X5.1374Y-1.785
M15
G01X5.1374Y-1.8559
M16
G05
G00X5.1374Y-2.1394
M15
G01X5.1374Y-2.2102
M16
G05
G00X5.3933Y-1.8874
M15
G01X5.3933Y-1.9583
M16
G05
G00X5.3933Y-2.2614
M15
G01X5.3933Y-2.3323
M16
G05
T0
M30
