  0
SECTION
  2
HEADER
  9
$ANGBASE
  50
0.0
  9
$ANGDIR
  70
1
  9
$MEASUREMENT
  70
1
  0
ENDSEC
  0
SECTION
  2
TABLES
  0
TABLE
  2
LTYPE
  70
4
  0
LTYPE
  5
40F
  2
CONTINUOUS
  70
0
  3
Solid line
  72
65
  73
0
  40
0.0
  0
LTYPE
  5
410
  2
DASHDOT
 70
0
  3
Dash Dot ____ _ ____ _
 72
65
 73
4
 40
2.0
 49
1.25
 49
-0.25
 49
0.25
 49
-0.25
  0
LTYPE
  5
411
  2
DASHED
 70
0
  3
Dashed __ __ __ __ __
 72
65
 73
2
 40
0.75
 49
0.5
 49
-0.25
  0
LTYPE
  5
43B
  2
DOTTED
 70
0
  3
Dotted .  .  .  .
 72
65
 73
2
 40
0.2
 49
0.0
 49
-0.2
  0
ENDTAB
  0
TABLE
  2
STYLE
  70
4
  0
STYLE
  2
KICAD
  70
0
  40
0
  41
1
  42
1
  50
0
  71
0
  3
isocp.shx
  0
STYLE
  2
KICADB
  70
0
  40
0
  41
1
  42
1
  50
0
  71
0
  3
isocp.shx
  0
STYLE
  2
KICADI
  70
0
  40
0
  41
1
  42
1
  50
15
  71
0
  3
isocp.shx
  0
STYLE
  2
KICADBI
  70
0
  40
0
  41
1
  42
1
  50
15
  71
0
  3
isocp.shx
  0
ENDTAB
  0
TABLE
  2
LAYER
  70
1
  0
LAYER
  2
BLACK
  70
0
  62
7
  6
CONTINUOUS
  0
ENDTAB
  0
ENDSEC
  0
SECTION
  2
ENTITIES
0
LINE
8
BLACK
6
CONTINUOUS
10
99.2204
20
-121.236
11
98.4204
21
-121.236
0
LINE
8
BLACK
6
CONTINUOUS
10
98.4204
20
-121.236
11
98.4204
21
-120.736
0
LINE
8
BLACK
6
CONTINUOUS
10
98.4204
20
-120.736
11
99.2204
21
-120.736
0
LINE
8
BLACK
6
CONTINUOUS
10
99.2204
20
-120.736
11
99.2204
21
-121.236
0
LINE
8
BLACK
6
CONTINUOUS
10
101.02
20
-121.236
11
100.22
21
-121.236
0
LINE
8
BLACK
6
CONTINUOUS
10
100.22
20
-121.236
11
100.22
21
-120.736
0
LINE
8
BLACK
6
CONTINUOUS
10
100.22
20
-120.736
11
101.02
21
-120.736
0
LINE
8
BLACK
6
CONTINUOUS
10
101.02
20
-120.736
11
101.02
21
-121.236
0
LINE
8
BLACK
6
CONTINUOUS
10
101.02
20
-120.386
11
100.22
21
-120.386
0
LINE
8
BLACK
6
CONTINUOUS
10
100.22
20
-120.386
11
100.22
21
-119.986
0
LINE
8
BLACK
6
CONTINUOUS
10
100.22
20
-119.986
11
101.02
21
-119.986
0
LINE
8
BLACK
6
CONTINUOUS
10
101.02
20
-119.986
11
101.02
21
-120.386
0
LINE
8
BLACK
6
CONTINUOUS
10
99.2204
20
-120.386
11
98.4204
21
-120.386
0
LINE
8
BLACK
6
CONTINUOUS
10
98.4204
20
-120.386
11
98.4204
21
-119.986
0
LINE
8
BLACK
6
CONTINUOUS
10
98.4204
20
-119.986
11
99.2204
21
-119.986
0
LINE
8
BLACK
6
CONTINUOUS
10
99.2204
20
-119.986
11
99.2204
21
-120.386
0
LINE
8
BLACK
6
CONTINUOUS
10
101.02
20
-119.586
11
100.22
21
-119.586
0
LINE
8
BLACK
6
CONTINUOUS
10
100.22
20
-119.586
11
100.22
21
-119.186
0
LINE
8
BLACK
6
CONTINUOUS
10
100.22
20
-119.186
11
101.02
21
-119.186
0
LINE
8
BLACK
6
CONTINUOUS
10
101.02
20
-119.186
11
101.02
21
-119.586
0
LINE
8
BLACK
6
CONTINUOUS
10
99.2204
20
-119.586
11
98.4204
21
-119.586
0
LINE
8
BLACK
6
CONTINUOUS
10
98.4204
20
-119.586
11
98.4204
21
-119.186
0
LINE
8
BLACK
6
CONTINUOUS
10
98.4204
20
-119.186
11
99.2204
21
-119.186
0
LINE
8
BLACK
6
CONTINUOUS
10
99.2204
20
-119.186
11
99.2204
21
-119.586
0
LINE
8
BLACK
6
CONTINUOUS
10
101.02
20
-118.836
11
100.22
21
-118.836
0
LINE
8
BLACK
6
CONTINUOUS
10
100.22
20
-118.836
11
100.22
21
-118.336
0
LINE
8
BLACK
6
CONTINUOUS
10
100.22
20
-118.336
11
101.02
21
-118.336
0
LINE
8
BLACK
6
CONTINUOUS
10
101.02
20
-118.336
11
101.02
21
-118.836
0
LINE
8
BLACK
6
CONTINUOUS
10
99.2204
20
-118.836
11
98.4204
21
-118.836
0
LINE
8
BLACK
6
CONTINUOUS
10
98.4204
20
-118.836
11
98.4204
21
-118.336
0
LINE
8
BLACK
6
CONTINUOUS
10
98.4204
20
-118.336
11
99.2204
21
-118.336
0
LINE
8
BLACK
6
CONTINUOUS
10
99.2204
20
-118.336
11
99.2204
21
-118.836
0
LINE
8
BLACK
6
CONTINUOUS
10
90.0588
20
-114.12
11
90.1057
21
-114.134
0
LINE
8
BLACK
6
CONTINUOUS
10
90.1057
20
-114.134
11
90.1489
21
-114.157
0
LINE
8
BLACK
6
CONTINUOUS
10
90.1489
20
-114.157
11
90.1868
21
-114.188
0
LINE
8
BLACK
6
CONTINUOUS
10
90.1868
20
-114.188
11
90.2179
21
-114.226
0
LINE
8
BLACK
6
CONTINUOUS
10
90.2179
20
-114.226
11
90.241
21
-114.269
0
LINE
8
BLACK
6
CONTINUOUS
10
90.241
20
-114.269
11
90.2552
21
-114.316
0
LINE
8
BLACK
6
CONTINUOUS
10
90.2552
20
-114.316
11
90.26
21
-114.365
0
LINE
8
BLACK
6
CONTINUOUS
10
90.26
20
-114.365
11
90.26
21
-115.04
0
LINE
8
BLACK
6
CONTINUOUS
10
90.26
20
-115.04
11
90.2552
21
-115.089
0
LINE
8
BLACK
6
CONTINUOUS
10
90.2552
20
-115.089
11
90.241
21
-115.136
0
LINE
8
BLACK
6
CONTINUOUS
10
90.241
20
-115.136
11
90.2179
21
-115.179
0
LINE
8
BLACK
6
CONTINUOUS
10
90.2179
20
-115.179
11
90.1868
21
-115.217
0
LINE
8
BLACK
6
CONTINUOUS
10
90.1868
20
-115.217
11
90.1489
21
-115.248
0
LINE
8
BLACK
6
CONTINUOUS
10
90.1489
20
-115.248
11
90.1057
21
-115.271
0
LINE
8
BLACK
6
CONTINUOUS
10
90.1057
20
-115.271
11
90.0588
21
-115.285
0
LINE
8
BLACK
6
CONTINUOUS
10
90.0588
20
-115.285
11
90.01
21
-115.29
0
LINE
8
BLACK
6
CONTINUOUS
10
90.01
20
-115.29
11
89.06
21
-115.29
0
LINE
8
BLACK
6
CONTINUOUS
10
89.06
20
-115.29
11
89.0112
21
-115.285
0
LINE
8
BLACK
6
CONTINUOUS
10
89.0112
20
-115.285
11
88.9643
21
-115.271
0
LINE
8
BLACK
6
CONTINUOUS
10
88.9643
20
-115.271
11
88.9211
21
-115.248
0
LINE
8
BLACK
6
CONTINUOUS
10
88.9211
20
-115.248
11
88.8832
21
-115.217
0
LINE
8
BLACK
6
CONTINUOUS
10
88.8832
20
-115.217
11
88.8521
21
-115.179
0
LINE
8
BLACK
6
CONTINUOUS
10
88.8521
20
-115.179
11
88.829
21
-115.136
0
LINE
8
BLACK
6
CONTINUOUS
10
88.829
20
-115.136
11
88.8148
21
-115.089
0
LINE
8
BLACK
6
CONTINUOUS
10
88.8148
20
-115.089
11
88.81
21
-115.04
0
LINE
8
BLACK
6
CONTINUOUS
10
88.81
20
-115.04
11
88.81
21
-114.365
0
LINE
8
BLACK
6
CONTINUOUS
10
88.81
20
-114.365
11
88.8148
21
-114.316
0
LINE
8
BLACK
6
CONTINUOUS
10
88.8148
20
-114.316
11
88.829
21
-114.269
0
LINE
8
BLACK
6
CONTINUOUS
10
88.829
20
-114.269
11
88.8521
21
-114.226
0
LINE
8
BLACK
6
CONTINUOUS
10
88.8521
20
-114.226
11
88.8832
21
-114.188
0
LINE
8
BLACK
6
CONTINUOUS
10
88.8832
20
-114.188
11
88.9211
21
-114.157
0
LINE
8
BLACK
6
CONTINUOUS
10
88.9211
20
-114.157
11
88.9643
21
-114.134
0
LINE
8
BLACK
6
CONTINUOUS
10
88.9643
20
-114.134
11
89.0112
21
-114.12
0
LINE
8
BLACK
6
CONTINUOUS
10
89.0112
20
-114.12
11
89.06
21
-114.115
0
LINE
8
BLACK
6
CONTINUOUS
10
89.06
20
-114.115
11
90.01
21
-114.115
0
LINE
8
BLACK
6
CONTINUOUS
10
90.01
20
-114.115
11
90.0588
21
-114.12
0
LINE
8
BLACK
6
CONTINUOUS
10
90.0588
20
-112.045
11
90.1057
21
-112.059
0
LINE
8
BLACK
6
CONTINUOUS
10
90.1057
20
-112.059
11
90.1489
21
-112.082
0
LINE
8
BLACK
6
CONTINUOUS
10
90.1489
20
-112.082
11
90.1868
21
-112.113
0
LINE
8
BLACK
6
CONTINUOUS
10
90.1868
20
-112.113
11
90.2179
21
-112.151
0
LINE
8
BLACK
6
CONTINUOUS
10
90.2179
20
-112.151
11
90.241
21
-112.194
0
LINE
8
BLACK
6
CONTINUOUS
10
90.241
20
-112.194
11
90.2552
21
-112.241
0
LINE
8
BLACK
6
CONTINUOUS
10
90.2552
20
-112.241
11
90.26
21
-112.29
0
LINE
8
BLACK
6
CONTINUOUS
10
90.26
20
-112.29
11
90.26
21
-112.965
0
LINE
8
BLACK
6
CONTINUOUS
10
90.26
20
-112.965
11
90.2552
21
-113.014
0
LINE
8
BLACK
6
CONTINUOUS
10
90.2552
20
-113.014
11
90.241
21
-113.061
0
LINE
8
BLACK
6
CONTINUOUS
10
90.241
20
-113.061
11
90.2179
21
-113.104
0
LINE
8
BLACK
6
CONTINUOUS
10
90.2179
20
-113.104
11
90.1868
21
-113.142
0
LINE
8
BLACK
6
CONTINUOUS
10
90.1868
20
-113.142
11
90.1489
21
-113.173
0
LINE
8
BLACK
6
CONTINUOUS
10
90.1489
20
-113.173
11
90.1057
21
-113.196
0
LINE
8
BLACK
6
CONTINUOUS
10
90.1057
20
-113.196
11
90.0588
21
-113.21
0
LINE
8
BLACK
6
CONTINUOUS
10
90.0588
20
-113.21
11
90.01
21
-113.215
0
LINE
8
BLACK
6
CONTINUOUS
10
90.01
20
-113.215
11
89.06
21
-113.215
0
LINE
8
BLACK
6
CONTINUOUS
10
89.06
20
-113.215
11
89.0112
21
-113.21
0
LINE
8
BLACK
6
CONTINUOUS
10
89.0112
20
-113.21
11
88.9643
21
-113.196
0
LINE
8
BLACK
6
CONTINUOUS
10
88.9643
20
-113.196
11
88.9211
21
-113.173
0
LINE
8
BLACK
6
CONTINUOUS
10
88.9211
20
-113.173
11
88.8832
21
-113.142
0
LINE
8
BLACK
6
CONTINUOUS
10
88.8832
20
-113.142
11
88.8521
21
-113.104
0
LINE
8
BLACK
6
CONTINUOUS
10
88.8521
20
-113.104
11
88.829
21
-113.061
0
LINE
8
BLACK
6
CONTINUOUS
10
88.829
20
-113.061
11
88.8148
21
-113.014
0
LINE
8
BLACK
6
CONTINUOUS
10
88.8148
20
-113.014
11
88.81
21
-112.965
0
LINE
8
BLACK
6
CONTINUOUS
10
88.81
20
-112.965
11
88.81
21
-112.29
0
LINE
8
BLACK
6
CONTINUOUS
10
88.81
20
-112.29
11
88.8148
21
-112.241
0
LINE
8
BLACK
6
CONTINUOUS
10
88.8148
20
-112.241
11
88.829
21
-112.194
0
LINE
8
BLACK
6
CONTINUOUS
10
88.829
20
-112.194
11
88.8521
21
-112.151
0
LINE
8
BLACK
6
CONTINUOUS
10
88.8521
20
-112.151
11
88.8832
21
-112.113
0
LINE
8
BLACK
6
CONTINUOUS
10
88.8832
20
-112.113
11
88.9211
21
-112.082
0
LINE
8
BLACK
6
CONTINUOUS
10
88.9211
20
-112.082
11
88.9643
21
-112.059
0
LINE
8
BLACK
6
CONTINUOUS
10
88.9643
20
-112.059
11
89.0112
21
-112.045
0
LINE
8
BLACK
6
CONTINUOUS
10
89.0112
20
-112.045
11
89.06
21
-112.04
0
LINE
8
BLACK
6
CONTINUOUS
10
89.06
20
-112.04
11
90.01
21
-112.04
0
LINE
8
BLACK
6
CONTINUOUS
10
90.01
20
-112.04
11
90.0588
21
-112.045
0
LINE
8
BLACK
6
CONTINUOUS
10
133.625
20
-107.75
11
130.625
21
-107.75
0
LINE
8
BLACK
6
CONTINUOUS
10
130.625
20
-107.75
11
130.625
21
-105.25
0
LINE
8
BLACK
6
CONTINUOUS
10
130.625
20
-105.25
11
133.625
21
-105.25
0
LINE
8
BLACK
6
CONTINUOUS
10
133.625
20
-105.25
11
133.625
21
-107.75
0
LINE
8
BLACK
6
CONTINUOUS
10
116.136
20
-107.75
11
113.136
21
-107.75
0
LINE
8
BLACK
6
CONTINUOUS
10
113.136
20
-107.75
11
113.136
21
-105.25
0
LINE
8
BLACK
6
CONTINUOUS
10
113.136
20
-105.25
11
116.136
21
-105.25
0
LINE
8
BLACK
6
CONTINUOUS
10
116.136
20
-105.25
11
116.136
21
-107.75
0
LINE
8
BLACK
6
CONTINUOUS
10
94.534
20
-107.618
11
93.984
21
-107.618
0
LINE
8
BLACK
6
CONTINUOUS
10
93.984
20
-107.618
11
93.984
21
-106.118
0
LINE
8
BLACK
6
CONTINUOUS
10
93.984
20
-106.118
11
94.534
21
-106.118
0
LINE
8
BLACK
6
CONTINUOUS
10
94.534
20
-106.118
11
94.534
21
-107.618
0
LINE
8
BLACK
6
CONTINUOUS
10
92.134
20
-107.618
11
91.584
21
-107.618
0
LINE
8
BLACK
6
CONTINUOUS
10
91.584
20
-107.618
11
91.584
21
-106.118
0
LINE
8
BLACK
6
CONTINUOUS
10
91.584
20
-106.118
11
92.134
21
-106.118
0
LINE
8
BLACK
6
CONTINUOUS
10
92.134
20
-106.118
11
92.134
21
-107.618
0
LINE
8
BLACK
6
CONTINUOUS
10
93.734
20
-107.618
11
93.184
21
-107.618
0
LINE
8
BLACK
6
CONTINUOUS
10
93.184
20
-107.618
11
93.184
21
-106.118
0
LINE
8
BLACK
6
CONTINUOUS
10
93.184
20
-106.118
11
93.734
21
-106.118
0
LINE
8
BLACK
6
CONTINUOUS
10
93.734
20
-106.118
11
93.734
21
-107.618
0
LINE
8
BLACK
6
CONTINUOUS
10
92.934
20
-107.618
11
92.384
21
-107.618
0
LINE
8
BLACK
6
CONTINUOUS
10
92.384
20
-107.618
11
92.384
21
-106.118
0
LINE
8
BLACK
6
CONTINUOUS
10
92.384
20
-106.118
11
92.934
21
-106.118
0
LINE
8
BLACK
6
CONTINUOUS
10
92.934
20
-106.118
11
92.934
21
-107.618
0
LINE
8
BLACK
6
CONTINUOUS
10
95.334
20
-107.618
11
94.784
21
-107.618
0
LINE
8
BLACK
6
CONTINUOUS
10
94.784
20
-107.618
11
94.784
21
-106.118
0
LINE
8
BLACK
6
CONTINUOUS
10
94.784
20
-106.118
11
95.334
21
-106.118
0
LINE
8
BLACK
6
CONTINUOUS
10
95.334
20
-106.118
11
95.334
21
-107.618
0
LINE
8
BLACK
6
CONTINUOUS
10
91.334
20
-107.618
11
90.784
21
-107.618
0
LINE
8
BLACK
6
CONTINUOUS
10
90.784
20
-107.618
11
90.784
21
-106.118
0
LINE
8
BLACK
6
CONTINUOUS
10
90.784
20
-106.118
11
91.334
21
-106.118
0
LINE
8
BLACK
6
CONTINUOUS
10
91.334
20
-106.118
11
91.334
21
-107.618
0
LINE
8
BLACK
6
CONTINUOUS
10
90.534
20
-107.618
11
89.984
21
-107.618
0
LINE
8
BLACK
6
CONTINUOUS
10
89.984
20
-107.618
11
89.984
21
-106.118
0
LINE
8
BLACK
6
CONTINUOUS
10
89.984
20
-106.118
11
90.534
21
-106.118
0
LINE
8
BLACK
6
CONTINUOUS
10
90.534
20
-106.118
11
90.534
21
-107.618
0
LINE
8
BLACK
6
CONTINUOUS
10
89.734
20
-107.618
11
89.184
21
-107.618
0
LINE
8
BLACK
6
CONTINUOUS
10
89.184
20
-107.618
11
89.184
21
-106.118
0
LINE
8
BLACK
6
CONTINUOUS
10
89.184
20
-106.118
11
89.734
21
-106.118
0
LINE
8
BLACK
6
CONTINUOUS
10
89.734
20
-106.118
11
89.734
21
-107.618
0
LINE
8
BLACK
6
CONTINUOUS
10
88.934
20
-107.618
11
88.384
21
-107.618
0
LINE
8
BLACK
6
CONTINUOUS
10
88.384
20
-107.618
11
88.384
21
-106.118
0
LINE
8
BLACK
6
CONTINUOUS
10
88.384
20
-106.118
11
88.934
21
-106.118
0
LINE
8
BLACK
6
CONTINUOUS
10
88.934
20
-106.118
11
88.934
21
-107.618
0
LINE
8
BLACK
6
CONTINUOUS
10
87.334
20
-107.618
11
86.784
21
-107.618
0
LINE
8
BLACK
6
CONTINUOUS
10
86.784
20
-107.618
11
86.784
21
-106.118
0
LINE
8
BLACK
6
CONTINUOUS
10
86.784
20
-106.118
11
87.334
21
-106.118
0
LINE
8
BLACK
6
CONTINUOUS
10
87.334
20
-106.118
11
87.334
21
-107.618
0
LINE
8
BLACK
6
CONTINUOUS
10
88.134
20
-107.618
11
87.584
21
-107.618
0
LINE
8
BLACK
6
CONTINUOUS
10
87.584
20
-107.618
11
87.584
21
-106.118
0
LINE
8
BLACK
6
CONTINUOUS
10
87.584
20
-106.118
11
88.134
21
-106.118
0
LINE
8
BLACK
6
CONTINUOUS
10
88.134
20
-106.118
11
88.134
21
-107.618
0
LINE
8
BLACK
6
CONTINUOUS
10
86.109
20
-105.443
11
84.609
21
-105.443
0
LINE
8
BLACK
6
CONTINUOUS
10
84.609
20
-105.443
11
84.609
21
-104.893
0
LINE
8
BLACK
6
CONTINUOUS
10
84.609
20
-104.893
11
86.109
21
-104.893
0
LINE
8
BLACK
6
CONTINUOUS
10
86.109
20
-104.893
11
86.109
21
-105.443
0
LINE
8
BLACK
6
CONTINUOUS
10
97.509
20
-105.443
11
96.009
21
-105.443
0
LINE
8
BLACK
6
CONTINUOUS
10
96.009
20
-105.443
11
96.009
21
-104.893
0
LINE
8
BLACK
6
CONTINUOUS
10
96.009
20
-104.893
11
97.509
21
-104.893
0
LINE
8
BLACK
6
CONTINUOUS
10
97.509
20
-104.893
11
97.509
21
-105.443
0
LINE
8
BLACK
6
CONTINUOUS
10
103.394
20
-104.214
11
103.441
21
-104.228
0
LINE
8
BLACK
6
CONTINUOUS
10
103.441
20
-104.228
11
103.484
21
-104.251
0
LINE
8
BLACK
6
CONTINUOUS
10
103.484
20
-104.251
11
103.522
21
-104.282
0
LINE
8
BLACK
6
CONTINUOUS
10
103.522
20
-104.282
11
103.553
21
-104.32
0
LINE
8
BLACK
6
CONTINUOUS
10
103.553
20
-104.32
11
103.576
21
-104.363
0
LINE
8
BLACK
6
CONTINUOUS
10
103.576
20
-104.363
11
103.59
21
-104.41
0
LINE
8
BLACK
6
CONTINUOUS
10
103.59
20
-104.41
11
103.595
21
-104.459
0
LINE
8
BLACK
6
CONTINUOUS
10
103.595
20
-104.459
11
103.595
21
-105.134
0
LINE
8
BLACK
6
CONTINUOUS
10
103.595
20
-105.134
11
103.59
21
-105.183
0
LINE
8
BLACK
6
CONTINUOUS
10
103.59
20
-105.183
11
103.576
21
-105.23
0
LINE
8
BLACK
6
CONTINUOUS
10
103.576
20
-105.23
11
103.553
21
-105.273
0
LINE
8
BLACK
6
CONTINUOUS
10
103.553
20
-105.273
11
103.522
21
-105.311
0
LINE
8
BLACK
6
CONTINUOUS
10
103.522
20
-105.311
11
103.484
21
-105.342
0
LINE
8
BLACK
6
CONTINUOUS
10
103.484
20
-105.342
11
103.441
21
-105.365
0
LINE
8
BLACK
6
CONTINUOUS
10
103.441
20
-105.365
11
103.394
21
-105.379
0
LINE
8
BLACK
6
CONTINUOUS
10
103.394
20
-105.379
11
103.345
21
-105.384
0
LINE
8
BLACK
6
CONTINUOUS
10
103.345
20
-105.384
11
102.395
21
-105.384
0
LINE
8
BLACK
6
CONTINUOUS
10
102.395
20
-105.384
11
102.346
21
-105.379
0
LINE
8
BLACK
6
CONTINUOUS
10
102.346
20
-105.379
11
102.299
21
-105.365
0
LINE
8
BLACK
6
CONTINUOUS
10
102.299
20
-105.365
11
102.256
21
-105.342
0
LINE
8
BLACK
6
CONTINUOUS
10
102.256
20
-105.342
11
102.218
21
-105.311
0
LINE
8
BLACK
6
CONTINUOUS
10
102.218
20
-105.311
11
102.187
21
-105.273
0
LINE
8
BLACK
6
CONTINUOUS
10
102.187
20
-105.273
11
102.164
21
-105.23
0
LINE
8
BLACK
6
CONTINUOUS
10
102.164
20
-105.23
11
102.15
21
-105.183
0
LINE
8
BLACK
6
CONTINUOUS
10
102.15
20
-105.183
11
102.145
21
-105.134
0
LINE
8
BLACK
6
CONTINUOUS
10
102.145
20
-105.134
11
102.145
21
-104.459
0
LINE
8
BLACK
6
CONTINUOUS
10
102.145
20
-104.459
11
102.15
21
-104.41
0
LINE
8
BLACK
6
CONTINUOUS
10
102.15
20
-104.41
11
102.164
21
-104.363
0
LINE
8
BLACK
6
CONTINUOUS
10
102.164
20
-104.363
11
102.187
21
-104.32
0
LINE
8
BLACK
6
CONTINUOUS
10
102.187
20
-104.32
11
102.218
21
-104.282
0
LINE
8
BLACK
6
CONTINUOUS
10
102.218
20
-104.282
11
102.256
21
-104.251
0
LINE
8
BLACK
6
CONTINUOUS
10
102.256
20
-104.251
11
102.299
21
-104.228
0
LINE
8
BLACK
6
CONTINUOUS
10
102.299
20
-104.228
11
102.346
21
-104.214
0
LINE
8
BLACK
6
CONTINUOUS
10
102.346
20
-104.214
11
102.395
21
-104.209
0
LINE
8
BLACK
6
CONTINUOUS
10
102.395
20
-104.209
11
103.345
21
-104.209
0
LINE
8
BLACK
6
CONTINUOUS
10
103.345
20
-104.209
11
103.394
21
-104.214
0
LINE
8
BLACK
6
CONTINUOUS
10
86.109
20
-104.643
11
84.609
21
-104.643
0
LINE
8
BLACK
6
CONTINUOUS
10
84.609
20
-104.643
11
84.609
21
-104.093
0
LINE
8
BLACK
6
CONTINUOUS
10
84.609
20
-104.093
11
86.109
21
-104.093
0
LINE
8
BLACK
6
CONTINUOUS
10
86.109
20
-104.093
11
86.109
21
-104.643
0
LINE
8
BLACK
6
CONTINUOUS
10
97.509
20
-104.643
11
96.009
21
-104.643
0
LINE
8
BLACK
6
CONTINUOUS
10
96.009
20
-104.643
11
96.009
21
-104.093
0
LINE
8
BLACK
6
CONTINUOUS
10
96.009
20
-104.093
11
97.509
21
-104.093
0
LINE
8
BLACK
6
CONTINUOUS
10
97.509
20
-104.093
11
97.509
21
-104.643
0
LINE
8
BLACK
6
CONTINUOUS
10
135.575
20
-104.05
11
133.575
21
-104.05
0
LINE
8
BLACK
6
CONTINUOUS
10
133.575
20
-104.05
11
133.575
21
-103.45
0
LINE
8
BLACK
6
CONTINUOUS
10
133.575
20
-103.45
11
135.575
21
-103.45
0
LINE
8
BLACK
6
CONTINUOUS
10
135.575
20
-103.45
11
135.575
21
-104.05
0
LINE
8
BLACK
6
CONTINUOUS
10
113.186
20
-104.05
11
111.186
21
-104.05
0
LINE
8
BLACK
6
CONTINUOUS
10
111.186
20
-104.05
11
111.186
21
-103.45
0
LINE
8
BLACK
6
CONTINUOUS
10
111.186
20
-103.45
11
113.186
21
-103.45
0
LINE
8
BLACK
6
CONTINUOUS
10
113.186
20
-103.45
11
113.186
21
-104.05
0
LINE
8
BLACK
6
CONTINUOUS
10
97.509
20
-103.843
11
96.009
21
-103.843
0
LINE
8
BLACK
6
CONTINUOUS
10
96.009
20
-103.843
11
96.009
21
-103.293
0
LINE
8
BLACK
6
CONTINUOUS
10
96.009
20
-103.293
11
97.509
21
-103.293
0
LINE
8
BLACK
6
CONTINUOUS
10
97.509
20
-103.293
11
97.509
21
-103.843
0
LINE
8
BLACK
6
CONTINUOUS
10
86.109
20
-103.843
11
84.609
21
-103.843
0
LINE
8
BLACK
6
CONTINUOUS
10
84.609
20
-103.843
11
84.609
21
-103.293
0
LINE
8
BLACK
6
CONTINUOUS
10
84.609
20
-103.293
11
86.109
21
-103.293
0
LINE
8
BLACK
6
CONTINUOUS
10
86.109
20
-103.293
11
86.109
21
-103.843
0
LINE
8
BLACK
6
CONTINUOUS
10
103.394
20
-102.139
11
103.441
21
-102.153
0
LINE
8
BLACK
6
CONTINUOUS
10
103.441
20
-102.153
11
103.484
21
-102.176
0
LINE
8
BLACK
6
CONTINUOUS
10
103.484
20
-102.176
11
103.522
21
-102.207
0
LINE
8
BLACK
6
CONTINUOUS
10
103.522
20
-102.207
11
103.553
21
-102.245
0
LINE
8
BLACK
6
CONTINUOUS
10
103.553
20
-102.245
11
103.576
21
-102.288
0
LINE
8
BLACK
6
CONTINUOUS
10
103.576
20
-102.288
11
103.59
21
-102.335
0
LINE
8
BLACK
6
CONTINUOUS
10
103.59
20
-102.335
11
103.595
21
-102.384
0
LINE
8
BLACK
6
CONTINUOUS
10
103.595
20
-102.384
11
103.595
21
-103.059
0
LINE
8
BLACK
6
CONTINUOUS
10
103.595
20
-103.059
11
103.59
21
-103.108
0
LINE
8
BLACK
6
CONTINUOUS
10
103.59
20
-103.108
11
103.576
21
-103.155
0
LINE
8
BLACK
6
CONTINUOUS
10
103.576
20
-103.155
11
103.553
21
-103.198
0
LINE
8
BLACK
6
CONTINUOUS
10
103.553
20
-103.198
11
103.522
21
-103.236
0
LINE
8
BLACK
6
CONTINUOUS
10
103.522
20
-103.236
11
103.484
21
-103.267
0
LINE
8
BLACK
6
CONTINUOUS
10
103.484
20
-103.267
11
103.441
21
-103.29
0
LINE
8
BLACK
6
CONTINUOUS
10
103.441
20
-103.29
11
103.394
21
-103.304
0
LINE
8
BLACK
6
CONTINUOUS
10
103.394
20
-103.304
11
103.345
21
-103.309
0
LINE
8
BLACK
6
CONTINUOUS
10
103.345
20
-103.309
11
102.395
21
-103.309
0
LINE
8
BLACK
6
CONTINUOUS
10
102.395
20
-103.309
11
102.346
21
-103.304
0
LINE
8
BLACK
6
CONTINUOUS
10
102.346
20
-103.304
11
102.299
21
-103.29
0
LINE
8
BLACK
6
CONTINUOUS
10
102.299
20
-103.29
11
102.256
21
-103.267
0
LINE
8
BLACK
6
CONTINUOUS
10
102.256
20
-103.267
11
102.218
21
-103.236
0
LINE
8
BLACK
6
CONTINUOUS
10
102.218
20
-103.236
11
102.187
21
-103.198
0
LINE
8
BLACK
6
CONTINUOUS
10
102.187
20
-103.198
11
102.164
21
-103.155
0
LINE
8
BLACK
6
CONTINUOUS
10
102.164
20
-103.155
11
102.15
21
-103.108
0
LINE
8
BLACK
6
CONTINUOUS
10
102.15
20
-103.108
11
102.145
21
-103.059
0
LINE
8
BLACK
6
CONTINUOUS
10
102.145
20
-103.059
11
102.145
21
-102.384
0
LINE
8
BLACK
6
CONTINUOUS
10
102.145
20
-102.384
11
102.15
21
-102.335
0
LINE
8
BLACK
6
CONTINUOUS
10
102.15
20
-102.335
11
102.164
21
-102.288
0
LINE
8
BLACK
6
CONTINUOUS
10
102.164
20
-102.288
11
102.187
21
-102.245
0
LINE
8
BLACK
6
CONTINUOUS
10
102.187
20
-102.245
11
102.218
21
-102.207
0
LINE
8
BLACK
6
CONTINUOUS
10
102.218
20
-102.207
11
102.256
21
-102.176
0
LINE
8
BLACK
6
CONTINUOUS
10
102.256
20
-102.176
11
102.299
21
-102.153
0
LINE
8
BLACK
6
CONTINUOUS
10
102.299
20
-102.153
11
102.346
21
-102.139
0
LINE
8
BLACK
6
CONTINUOUS
10
102.346
20
-102.139
11
102.395
21
-102.134
0
LINE
8
BLACK
6
CONTINUOUS
10
102.395
20
-102.134
11
103.345
21
-102.134
0
LINE
8
BLACK
6
CONTINUOUS
10
103.345
20
-102.134
11
103.394
21
-102.139
0
LINE
8
BLACK
6
CONTINUOUS
10
113.186
20
-103.05
11
111.186
21
-103.05
0
LINE
8
BLACK
6
CONTINUOUS
10
111.186
20
-103.05
11
111.186
21
-102.45
0
LINE
8
BLACK
6
CONTINUOUS
10
111.186
20
-102.45
11
113.186
21
-102.45
0
LINE
8
BLACK
6
CONTINUOUS
10
113.186
20
-102.45
11
113.186
21
-103.05
0
LINE
8
BLACK
6
CONTINUOUS
10
135.575
20
-103.05
11
133.575
21
-103.05
0
LINE
8
BLACK
6
CONTINUOUS
10
133.575
20
-103.05
11
133.575
21
-102.45
0
LINE
8
BLACK
6
CONTINUOUS
10
133.575
20
-102.45
11
135.575
21
-102.45
0
LINE
8
BLACK
6
CONTINUOUS
10
135.575
20
-102.45
11
135.575
21
-103.05
0
LINE
8
BLACK
6
CONTINUOUS
10
97.509
20
-103.043
11
96.009
21
-103.043
0
LINE
8
BLACK
6
CONTINUOUS
10
96.009
20
-103.043
11
96.009
21
-102.493
0
LINE
8
BLACK
6
CONTINUOUS
10
96.009
20
-102.493
11
97.509
21
-102.493
0
LINE
8
BLACK
6
CONTINUOUS
10
97.509
20
-102.493
11
97.509
21
-103.043
0
LINE
8
BLACK
6
CONTINUOUS
10
86.109
20
-103.043
11
84.609
21
-103.043
0
LINE
8
BLACK
6
CONTINUOUS
10
84.609
20
-103.043
11
84.609
21
-102.493
0
LINE
8
BLACK
6
CONTINUOUS
10
84.609
20
-102.493
11
86.109
21
-102.493
0
LINE
8
BLACK
6
CONTINUOUS
10
86.109
20
-102.493
11
86.109
21
-103.043
0
LINE
8
BLACK
6
CONTINUOUS
10
97.509
20
-102.243
11
96.009
21
-102.243
0
LINE
8
BLACK
6
CONTINUOUS
10
96.009
20
-102.243
11
96.009
21
-101.693
0
LINE
8
BLACK
6
CONTINUOUS
10
96.009
20
-101.693
11
97.509
21
-101.693
0
LINE
8
BLACK
6
CONTINUOUS
10
97.509
20
-101.693
11
97.509
21
-102.243
0
LINE
8
BLACK
6
CONTINUOUS
10
86.109
20
-102.243
11
84.609
21
-102.243
0
LINE
8
BLACK
6
CONTINUOUS
10
84.609
20
-102.243
11
84.609
21
-101.693
0
LINE
8
BLACK
6
CONTINUOUS
10
84.609
20
-101.693
11
86.109
21
-101.693
0
LINE
8
BLACK
6
CONTINUOUS
10
86.109
20
-101.693
11
86.109
21
-102.243
0
LINE
8
BLACK
6
CONTINUOUS
10
113.186
20
-102.05
11
111.186
21
-102.05
0
LINE
8
BLACK
6
CONTINUOUS
10
111.186
20
-102.05
11
111.186
21
-101.45
0
LINE
8
BLACK
6
CONTINUOUS
10
111.186
20
-101.45
11
113.186
21
-101.45
0
LINE
8
BLACK
6
CONTINUOUS
10
113.186
20
-101.45
11
113.186
21
-102.05
0
LINE
8
BLACK
6
CONTINUOUS
10
135.575
20
-102.05
11
133.575
21
-102.05
0
LINE
8
BLACK
6
CONTINUOUS
10
133.575
20
-102.05
11
133.575
21
-101.45
0
LINE
8
BLACK
6
CONTINUOUS
10
133.575
20
-101.45
11
135.575
21
-101.45
0
LINE
8
BLACK
6
CONTINUOUS
10
135.575
20
-101.45
11
135.575
21
-102.05
0
LINE
8
BLACK
6
CONTINUOUS
10
97.509
20
-101.443
11
96.009
21
-101.443
0
LINE
8
BLACK
6
CONTINUOUS
10
96.009
20
-101.443
11
96.009
21
-100.893
0
LINE
8
BLACK
6
CONTINUOUS
10
96.009
20
-100.893
11
97.509
21
-100.893
0
LINE
8
BLACK
6
CONTINUOUS
10
97.509
20
-100.893
11
97.509
21
-101.443
0
LINE
8
BLACK
6
CONTINUOUS
10
86.109
20
-101.443
11
84.609
21
-101.443
0
LINE
8
BLACK
6
CONTINUOUS
10
84.609
20
-101.443
11
84.609
21
-100.893
0
LINE
8
BLACK
6
CONTINUOUS
10
84.609
20
-100.893
11
86.109
21
-100.893
0
LINE
8
BLACK
6
CONTINUOUS
10
86.109
20
-100.893
11
86.109
21
-101.443
0
LINE
8
BLACK
6
CONTINUOUS
10
135.575
20
-101.05
11
133.575
21
-101.05
0
LINE
8
BLACK
6
CONTINUOUS
10
133.575
20
-101.05
11
133.575
21
-100.45
0
LINE
8
BLACK
6
CONTINUOUS
10
133.575
20
-100.45
11
135.575
21
-100.45
0
LINE
8
BLACK
6
CONTINUOUS
10
135.575
20
-100.45
11
135.575
21
-101.05
0
LINE
8
BLACK
6
CONTINUOUS
10
113.186
20
-101.05
11
111.186
21
-101.05
0
LINE
8
BLACK
6
CONTINUOUS
10
111.186
20
-101.05
11
111.186
21
-100.45
0
LINE
8
BLACK
6
CONTINUOUS
10
111.186
20
-100.45
11
113.186
21
-100.45
0
LINE
8
BLACK
6
CONTINUOUS
10
113.186
20
-100.45
11
113.186
21
-101.05
0
LINE
8
BLACK
6
CONTINUOUS
10
97.509
20
-100.643
11
96.009
21
-100.643
0
LINE
8
BLACK
6
CONTINUOUS
10
96.009
20
-100.643
11
96.009
21
-100.093
0
LINE
8
BLACK
6
CONTINUOUS
10
96.009
20
-100.093
11
97.509
21
-100.093
0
LINE
8
BLACK
6
CONTINUOUS
10
97.509
20
-100.093
11
97.509
21
-100.643
0
LINE
8
BLACK
6
CONTINUOUS
10
86.109
20
-100.643
11
84.609
21
-100.643
0
LINE
8
BLACK
6
CONTINUOUS
10
84.609
20
-100.643
11
84.609
21
-100.093
0
LINE
8
BLACK
6
CONTINUOUS
10
84.609
20
-100.093
11
86.109
21
-100.093
0
LINE
8
BLACK
6
CONTINUOUS
10
86.109
20
-100.093
11
86.109
21
-100.643
0
LINE
8
BLACK
6
CONTINUOUS
10
135.575
20
-100.05
11
133.575
21
-100.05
0
LINE
8
BLACK
6
CONTINUOUS
10
133.575
20
-100.05
11
133.575
21
-99.45
0
LINE
8
BLACK
6
CONTINUOUS
10
133.575
20
-99.45
11
135.575
21
-99.45
0
LINE
8
BLACK
6
CONTINUOUS
10
135.575
20
-99.45
11
135.575
21
-100.05
0
LINE
8
BLACK
6
CONTINUOUS
10
113.186
20
-100.05
11
111.186
21
-100.05
0
LINE
8
BLACK
6
CONTINUOUS
10
111.186
20
-100.05
11
111.186
21
-99.45
0
LINE
8
BLACK
6
CONTINUOUS
10
111.186
20
-99.45
11
113.186
21
-99.45
0
LINE
8
BLACK
6
CONTINUOUS
10
113.186
20
-99.45
11
113.186
21
-100.05
0
LINE
8
BLACK
6
CONTINUOUS
10
97.509
20
-99.8432
11
96.009
21
-99.8432
0
LINE
8
BLACK
6
CONTINUOUS
10
96.009
20
-99.8432
11
96.009
21
-99.2932
0
LINE
8
BLACK
6
CONTINUOUS
10
96.009
20
-99.2932
11
97.509
21
-99.2932
0
LINE
8
BLACK
6
CONTINUOUS
10
97.509
20
-99.2932
11
97.509
21
-99.8432
0
LINE
8
BLACK
6
CONTINUOUS
10
86.109
20
-99.8432
11
84.609
21
-99.8432
0
LINE
8
BLACK
6
CONTINUOUS
10
84.609
20
-99.8432
11
84.609
21
-99.2932
0
LINE
8
BLACK
6
CONTINUOUS
10
84.609
20
-99.2932
11
86.109
21
-99.2932
0
LINE
8
BLACK
6
CONTINUOUS
10
86.109
20
-99.2932
11
86.109
21
-99.8432
0
LINE
8
BLACK
6
CONTINUOUS
10
113.186
20
-99.05
11
111.186
21
-99.05
0
LINE
8
BLACK
6
CONTINUOUS
10
111.186
20
-99.05
11
111.186
21
-98.45
0
LINE
8
BLACK
6
CONTINUOUS
10
111.186
20
-98.45
11
113.186
21
-98.45
0
LINE
8
BLACK
6
CONTINUOUS
10
113.186
20
-98.45
11
113.186
21
-99.05
0
LINE
8
BLACK
6
CONTINUOUS
10
135.575
20
-99.05
11
133.575
21
-99.05
0
LINE
8
BLACK
6
CONTINUOUS
10
133.575
20
-99.05
11
133.575
21
-98.45
0
LINE
8
BLACK
6
CONTINUOUS
10
133.575
20
-98.45
11
135.575
21
-98.45
0
LINE
8
BLACK
6
CONTINUOUS
10
135.575
20
-98.45
11
135.575
21
-99.05
0
LINE
8
BLACK
6
CONTINUOUS
10
97.509
20
-99.0432
11
96.009
21
-99.0432
0
LINE
8
BLACK
6
CONTINUOUS
10
96.009
20
-99.0432
11
96.009
21
-98.4932
0
LINE
8
BLACK
6
CONTINUOUS
10
96.009
20
-98.4932
11
97.509
21
-98.4932
0
LINE
8
BLACK
6
CONTINUOUS
10
97.509
20
-98.4932
11
97.509
21
-99.0432
0
LINE
8
BLACK
6
CONTINUOUS
10
86.109
20
-99.0432
11
84.609
21
-99.0432
0
LINE
8
BLACK
6
CONTINUOUS
10
84.609
20
-99.0432
11
84.609
21
-98.4932
0
LINE
8
BLACK
6
CONTINUOUS
10
84.609
20
-98.4932
11
86.109
21
-98.4932
0
LINE
8
BLACK
6
CONTINUOUS
10
86.109
20
-98.4932
11
86.109
21
-99.0432
0
LINE
8
BLACK
6
CONTINUOUS
10
97.509
20
-98.2432
11
96.009
21
-98.2432
0
LINE
8
BLACK
6
CONTINUOUS
10
96.009
20
-98.2432
11
96.009
21
-97.6932
0
LINE
8
BLACK
6
CONTINUOUS
10
96.009
20
-97.6932
11
97.509
21
-97.6932
0
LINE
8
BLACK
6
CONTINUOUS
10
97.509
20
-97.6932
11
97.509
21
-98.2432
0
LINE
8
BLACK
6
CONTINUOUS
10
86.109
20
-98.2432
11
84.609
21
-98.2432
0
LINE
8
BLACK
6
CONTINUOUS
10
84.609
20
-98.2432
11
84.609
21
-97.6932
0
LINE
8
BLACK
6
CONTINUOUS
10
84.609
20
-97.6932
11
86.109
21
-97.6932
0
LINE
8
BLACK
6
CONTINUOUS
10
86.109
20
-97.6932
11
86.109
21
-98.2432
0
LINE
8
BLACK
6
CONTINUOUS
10
135.575
20
-98.05
11
133.575
21
-98.05
0
LINE
8
BLACK
6
CONTINUOUS
10
133.575
20
-98.05
11
133.575
21
-97.45
0
LINE
8
BLACK
6
CONTINUOUS
10
133.575
20
-97.45
11
135.575
21
-97.45
0
LINE
8
BLACK
6
CONTINUOUS
10
135.575
20
-97.45
11
135.575
21
-98.05
0
LINE
8
BLACK
6
CONTINUOUS
10
113.186
20
-98.05
11
111.186
21
-98.05
0
LINE
8
BLACK
6
CONTINUOUS
10
111.186
20
-98.05
11
111.186
21
-97.45
0
LINE
8
BLACK
6
CONTINUOUS
10
111.186
20
-97.45
11
113.186
21
-97.45
0
LINE
8
BLACK
6
CONTINUOUS
10
113.186
20
-97.45
11
113.186
21
-98.05
0
LINE
8
BLACK
6
CONTINUOUS
10
86.109
20
-97.4432
11
84.609
21
-97.4432
0
LINE
8
BLACK
6
CONTINUOUS
10
84.609
20
-97.4432
11
84.609
21
-96.8932
0
LINE
8
BLACK
6
CONTINUOUS
10
84.609
20
-96.8932
11
86.109
21
-96.8932
0
LINE
8
BLACK
6
CONTINUOUS
10
86.109
20
-96.8932
11
86.109
21
-97.4432
0
LINE
8
BLACK
6
CONTINUOUS
10
97.509
20
-97.4432
11
96.009
21
-97.4432
0
LINE
8
BLACK
6
CONTINUOUS
10
96.009
20
-97.4432
11
96.009
21
-96.8932
0
LINE
8
BLACK
6
CONTINUOUS
10
96.009
20
-96.8932
11
97.509
21
-96.8932
0
LINE
8
BLACK
6
CONTINUOUS
10
97.509
20
-96.8932
11
97.509
21
-97.4432
0
LINE
8
BLACK
6
CONTINUOUS
10
113.186
20
-97.05
11
111.186
21
-97.05
0
LINE
8
BLACK
6
CONTINUOUS
10
111.186
20
-97.05
11
111.186
21
-96.45
0
LINE
8
BLACK
6
CONTINUOUS
10
111.186
20
-96.45
11
113.186
21
-96.45
0
LINE
8
BLACK
6
CONTINUOUS
10
113.186
20
-96.45
11
113.186
21
-97.05
0
LINE
8
BLACK
6
CONTINUOUS
10
135.575
20
-97.05
11
133.575
21
-97.05
0
LINE
8
BLACK
6
CONTINUOUS
10
133.575
20
-97.05
11
133.575
21
-96.45
0
LINE
8
BLACK
6
CONTINUOUS
10
133.575
20
-96.45
11
135.575
21
-96.45
0
LINE
8
BLACK
6
CONTINUOUS
10
135.575
20
-96.45
11
135.575
21
-97.05
0
LINE
8
BLACK
6
CONTINUOUS
10
87.334
20
-96.2182
11
86.784
21
-96.2182
0
LINE
8
BLACK
6
CONTINUOUS
10
86.784
20
-96.2182
11
86.784
21
-94.7182
0
LINE
8
BLACK
6
CONTINUOUS
10
86.784
20
-94.7182
11
87.334
21
-94.7182
0
LINE
8
BLACK
6
CONTINUOUS
10
87.334
20
-94.7182
11
87.334
21
-96.2182
0
LINE
8
BLACK
6
CONTINUOUS
10
88.134
20
-96.2182
11
87.584
21
-96.2182
0
LINE
8
BLACK
6
CONTINUOUS
10
87.584
20
-96.2182
11
87.584
21
-94.7182
0
LINE
8
BLACK
6
CONTINUOUS
10
87.584
20
-94.7182
11
88.134
21
-94.7182
0
LINE
8
BLACK
6
CONTINUOUS
10
88.134
20
-94.7182
11
88.134
21
-96.2182
0
LINE
8
BLACK
6
CONTINUOUS
10
88.934
20
-96.2182
11
88.384
21
-96.2182
0
LINE
8
BLACK
6
CONTINUOUS
10
88.384
20
-96.2182
11
88.384
21
-94.7182
0
LINE
8
BLACK
6
CONTINUOUS
10
88.384
20
-94.7182
11
88.934
21
-94.7182
0
LINE
8
BLACK
6
CONTINUOUS
10
88.934
20
-94.7182
11
88.934
21
-96.2182
0
LINE
8
BLACK
6
CONTINUOUS
10
89.734
20
-96.2182
11
89.184
21
-96.2182
0
LINE
8
BLACK
6
CONTINUOUS
10
89.184
20
-96.2182
11
89.184
21
-94.7182
0
LINE
8
BLACK
6
CONTINUOUS
10
89.184
20
-94.7182
11
89.734
21
-94.7182
0
LINE
8
BLACK
6
CONTINUOUS
10
89.734
20
-94.7182
11
89.734
21
-96.2182
0
LINE
8
BLACK
6
CONTINUOUS
10
90.534
20
-96.2182
11
89.984
21
-96.2182
0
LINE
8
BLACK
6
CONTINUOUS
10
89.984
20
-96.2182
11
89.984
21
-94.7182
0
LINE
8
BLACK
6
CONTINUOUS
10
89.984
20
-94.7182
11
90.534
21
-94.7182
0
LINE
8
BLACK
6
CONTINUOUS
10
90.534
20
-94.7182
11
90.534
21
-96.2182
0
LINE
8
BLACK
6
CONTINUOUS
10
91.334
20
-96.2182
11
90.784
21
-96.2182
0
LINE
8
BLACK
6
CONTINUOUS
10
90.784
20
-96.2182
11
90.784
21
-94.7182
0
LINE
8
BLACK
6
CONTINUOUS
10
90.784
20
-94.7182
11
91.334
21
-94.7182
0
LINE
8
BLACK
6
CONTINUOUS
10
91.334
20
-94.7182
11
91.334
21
-96.2182
0
LINE
8
BLACK
6
CONTINUOUS
10
92.134
20
-96.2182
11
91.584
21
-96.2182
0
LINE
8
BLACK
6
CONTINUOUS
10
91.584
20
-96.2182
11
91.584
21
-94.7182
0
LINE
8
BLACK
6
CONTINUOUS
10
91.584
20
-94.7182
11
92.134
21
-94.7182
0
LINE
8
BLACK
6
CONTINUOUS
10
92.134
20
-94.7182
11
92.134
21
-96.2182
0
LINE
8
BLACK
6
CONTINUOUS
10
92.934
20
-96.2182
11
92.384
21
-96.2182
0
LINE
8
BLACK
6
CONTINUOUS
10
92.384
20
-96.2182
11
92.384
21
-94.7182
0
LINE
8
BLACK
6
CONTINUOUS
10
92.384
20
-94.7182
11
92.934
21
-94.7182
0
LINE
8
BLACK
6
CONTINUOUS
10
92.934
20
-94.7182
11
92.934
21
-96.2182
0
LINE
8
BLACK
6
CONTINUOUS
10
93.734
20
-96.2182
11
93.184
21
-96.2182
0
LINE
8
BLACK
6
CONTINUOUS
10
93.184
20
-96.2182
11
93.184
21
-94.7182
0
LINE
8
BLACK
6
CONTINUOUS
10
93.184
20
-94.7182
11
93.734
21
-94.7182
0
LINE
8
BLACK
6
CONTINUOUS
10
93.734
20
-94.7182
11
93.734
21
-96.2182
0
LINE
8
BLACK
6
CONTINUOUS
10
94.534
20
-96.2182
11
93.984
21
-96.2182
0
LINE
8
BLACK
6
CONTINUOUS
10
93.984
20
-96.2182
11
93.984
21
-94.7182
0
LINE
8
BLACK
6
CONTINUOUS
10
93.984
20
-94.7182
11
94.534
21
-94.7182
0
LINE
8
BLACK
6
CONTINUOUS
10
94.534
20
-94.7182
11
94.534
21
-96.2182
0
LINE
8
BLACK
6
CONTINUOUS
10
95.334
20
-96.2182
11
94.784
21
-96.2182
0
LINE
8
BLACK
6
CONTINUOUS
10
94.784
20
-96.2182
11
94.784
21
-94.7182
0
LINE
8
BLACK
6
CONTINUOUS
10
94.784
20
-94.7182
11
95.334
21
-94.7182
0
LINE
8
BLACK
6
CONTINUOUS
10
95.334
20
-94.7182
11
95.334
21
-96.2182
0
LINE
8
BLACK
6
CONTINUOUS
10
135.575
20
-96.05
11
133.575
21
-96.05
0
LINE
8
BLACK
6
CONTINUOUS
10
133.575
20
-96.05
11
133.575
21
-95.45
0
LINE
8
BLACK
6
CONTINUOUS
10
133.575
20
-95.45
11
135.575
21
-95.45
0
LINE
8
BLACK
6
CONTINUOUS
10
135.575
20
-95.45
11
135.575
21
-96.05
0
LINE
8
BLACK
6
CONTINUOUS
10
113.186
20
-96.05
11
111.186
21
-96.05
0
LINE
8
BLACK
6
CONTINUOUS
10
111.186
20
-96.05
11
111.186
21
-95.45
0
LINE
8
BLACK
6
CONTINUOUS
10
111.186
20
-95.45
11
113.186
21
-95.45
0
LINE
8
BLACK
6
CONTINUOUS
10
113.186
20
-95.45
11
113.186
21
-96.05
0
LINE
8
BLACK
6
CONTINUOUS
10
135.575
20
-95.05
11
133.575
21
-95.05
0
LINE
8
BLACK
6
CONTINUOUS
10
133.575
20
-95.05
11
133.575
21
-94.45
0
LINE
8
BLACK
6
CONTINUOUS
10
133.575
20
-94.45
11
135.575
21
-94.45
0
LINE
8
BLACK
6
CONTINUOUS
10
135.575
20
-94.45
11
135.575
21
-95.05
0
LINE
8
BLACK
6
CONTINUOUS
10
113.186
20
-95.05
11
111.186
21
-95.05
0
LINE
8
BLACK
6
CONTINUOUS
10
111.186
20
-95.05
11
111.186
21
-94.45
0
LINE
8
BLACK
6
CONTINUOUS
10
111.186
20
-94.45
11
113.186
21
-94.45
0
LINE
8
BLACK
6
CONTINUOUS
10
113.186
20
-94.45
11
113.186
21
-95.05
0
LINE
8
BLACK
6
CONTINUOUS
10
135.575
20
-94.05
11
133.575
21
-94.05
0
LINE
8
BLACK
6
CONTINUOUS
10
133.575
20
-94.05
11
133.575
21
-93.45
0
LINE
8
BLACK
6
CONTINUOUS
10
133.575
20
-93.45
11
135.575
21
-93.45
0
LINE
8
BLACK
6
CONTINUOUS
10
135.575
20
-93.45
11
135.575
21
-94.05
0
LINE
8
BLACK
6
CONTINUOUS
10
113.186
20
-94.05
11
111.186
21
-94.05
0
LINE
8
BLACK
6
CONTINUOUS
10
111.186
20
-94.05
11
111.186
21
-93.45
0
LINE
8
BLACK
6
CONTINUOUS
10
111.186
20
-93.45
11
113.186
21
-93.45
0
LINE
8
BLACK
6
CONTINUOUS
10
113.186
20
-93.45
11
113.186
21
-94.05
0
LINE
8
BLACK
6
CONTINUOUS
10
135.575
20
-93.05
11
133.575
21
-93.05
0
LINE
8
BLACK
6
CONTINUOUS
10
133.575
20
-93.05
11
133.575
21
-92.45
0
LINE
8
BLACK
6
CONTINUOUS
10
133.575
20
-92.45
11
135.575
21
-92.45
0
LINE
8
BLACK
6
CONTINUOUS
10
135.575
20
-92.45
11
135.575
21
-93.05
0
LINE
8
BLACK
6
CONTINUOUS
10
113.186
20
-93.05
11
111.186
21
-93.05
0
LINE
8
BLACK
6
CONTINUOUS
10
111.186
20
-93.05
11
111.186
21
-92.45
0
LINE
8
BLACK
6
CONTINUOUS
10
111.186
20
-92.45
11
113.186
21
-92.45
0
LINE
8
BLACK
6
CONTINUOUS
10
113.186
20
-92.45
11
113.186
21
-93.05
0
LINE
8
BLACK
6
CONTINUOUS
10
135.575
20
-92.05
11
133.575
21
-92.05
0
LINE
8
BLACK
6
CONTINUOUS
10
133.575
20
-92.05
11
133.575
21
-91.45
0
LINE
8
BLACK
6
CONTINUOUS
10
133.575
20
-91.45
11
135.575
21
-91.45
0
LINE
8
BLACK
6
CONTINUOUS
10
135.575
20
-91.45
11
135.575
21
-92.05
0
LINE
8
BLACK
6
CONTINUOUS
10
113.186
20
-92.05
11
111.186
21
-92.05
0
LINE
8
BLACK
6
CONTINUOUS
10
111.186
20
-92.05
11
111.186
21
-91.45
0
LINE
8
BLACK
6
CONTINUOUS
10
111.186
20
-91.45
11
113.186
21
-91.45
0
LINE
8
BLACK
6
CONTINUOUS
10
113.186
20
-91.45
11
113.186
21
-92.05
0
LINE
8
BLACK
6
CONTINUOUS
10
94.7578
20
-89.9898
11
94.8047
21
-90.004
0
LINE
8
BLACK
6
CONTINUOUS
10
94.8047
20
-90.004
11
94.8479
21
-90.0271
0
LINE
8
BLACK
6
CONTINUOUS
10
94.8479
20
-90.0271
11
94.8858
21
-90.0582
0
LINE
8
BLACK
6
CONTINUOUS
10
94.8858
20
-90.0582
11
94.9169
21
-90.0961
0
LINE
8
BLACK
6
CONTINUOUS
10
94.9169
20
-90.0961
11
94.94
21
-90.1393
0
LINE
8
BLACK
6
CONTINUOUS
10
94.94
20
-90.1393
11
94.9542
21
-90.1862
0
LINE
8
BLACK
6
CONTINUOUS
10
94.9542
20
-90.1862
11
94.959
21
-90.235
0
LINE
8
BLACK
6
CONTINUOUS
10
94.959
20
-90.235
11
94.959
21
-90.91
0
LINE
8
BLACK
6
CONTINUOUS
10
94.959
20
-90.91
11
94.9542
21
-90.9588
0
LINE
8
BLACK
6
CONTINUOUS
10
94.9542
20
-90.9588
11
94.94
21
-91.0057
0
LINE
8
BLACK
6
CONTINUOUS
10
94.94
20
-91.0057
11
94.9169
21
-91.0489
0
LINE
8
BLACK
6
CONTINUOUS
10
94.9169
20
-91.0489
11
94.8858
21
-91.0868
0
LINE
8
BLACK
6
CONTINUOUS
10
94.8858
20
-91.0868
11
94.8479
21
-91.1179
0
LINE
8
BLACK
6
CONTINUOUS
10
94.8479
20
-91.1179
11
94.8047
21
-91.141
0
LINE
8
BLACK
6
CONTINUOUS
10
94.8047
20
-91.141
11
94.7578
21
-91.1552
0
LINE
8
BLACK
6
CONTINUOUS
10
94.7578
20
-91.1552
11
94.709
21
-91.16
0
LINE
8
BLACK
6
CONTINUOUS
10
94.709
20
-91.16
11
93.759
21
-91.16
0
LINE
8
BLACK
6
CONTINUOUS
10
93.759
20
-91.16
11
93.7102
21
-91.1552
0
LINE
8
BLACK
6
CONTINUOUS
10
93.7102
20
-91.1552
11
93.6633
21
-91.141
0
LINE
8
BLACK
6
CONTINUOUS
10
93.6633
20
-91.141
11
93.6201
21
-91.1179
0
LINE
8
BLACK
6
CONTINUOUS
10
93.6201
20
-91.1179
11
93.5822
21
-91.0868
0
LINE
8
BLACK
6
CONTINUOUS
10
93.5822
20
-91.0868
11
93.5511
21
-91.0489
0
LINE
8
BLACK
6
CONTINUOUS
10
93.5511
20
-91.0489
11
93.528
21
-91.0057
0
LINE
8
BLACK
6
CONTINUOUS
10
93.528
20
-91.0057
11
93.5138
21
-90.9588
0
LINE
8
BLACK
6
CONTINUOUS
10
93.5138
20
-90.9588
11
93.509
21
-90.91
0
LINE
8
BLACK
6
CONTINUOUS
10
93.509
20
-90.91
11
93.509
21
-90.235
0
LINE
8
BLACK
6
CONTINUOUS
10
93.509
20
-90.235
11
93.5138
21
-90.1862
0
LINE
8
BLACK
6
CONTINUOUS
10
93.5138
20
-90.1862
11
93.528
21
-90.1393
0
LINE
8
BLACK
6
CONTINUOUS
10
93.528
20
-90.1393
11
93.5511
21
-90.0961
0
LINE
8
BLACK
6
CONTINUOUS
10
93.5511
20
-90.0961
11
93.5822
21
-90.0582
0
LINE
8
BLACK
6
CONTINUOUS
10
93.5822
20
-90.0582
11
93.6201
21
-90.0271
0
LINE
8
BLACK
6
CONTINUOUS
10
93.6201
20
-90.0271
11
93.6633
21
-90.004
0
LINE
8
BLACK
6
CONTINUOUS
10
93.6633
20
-90.004
11
93.7102
21
-89.9898
0
LINE
8
BLACK
6
CONTINUOUS
10
93.7102
20
-89.9898
11
93.759
21
-89.985
0
LINE
8
BLACK
6
CONTINUOUS
10
93.759
20
-89.985
11
94.709
21
-89.985
0
LINE
8
BLACK
6
CONTINUOUS
10
94.709
20
-89.985
11
94.7578
21
-89.9898
0
LINE
8
BLACK
6
CONTINUOUS
10
135.575
20
-91.05
11
133.575
21
-91.05
0
LINE
8
BLACK
6
CONTINUOUS
10
133.575
20
-91.05
11
133.575
21
-90.45
0
LINE
8
BLACK
6
CONTINUOUS
10
133.575
20
-90.45
11
135.575
21
-90.45
0
LINE
8
BLACK
6
CONTINUOUS
10
135.575
20
-90.45
11
135.575
21
-91.05
0
LINE
8
BLACK
6
CONTINUOUS
10
113.186
20
-91.05
11
111.186
21
-91.05
0
LINE
8
BLACK
6
CONTINUOUS
10
111.186
20
-91.05
11
111.186
21
-90.45
0
LINE
8
BLACK
6
CONTINUOUS
10
111.186
20
-90.45
11
113.186
21
-90.45
0
LINE
8
BLACK
6
CONTINUOUS
10
113.186
20
-90.45
11
113.186
21
-91.05
0
LINE
8
BLACK
6
CONTINUOUS
10
135.575
20
-90.05
11
133.575
21
-90.05
0
LINE
8
BLACK
6
CONTINUOUS
10
133.575
20
-90.05
11
133.575
21
-89.45
0
LINE
8
BLACK
6
CONTINUOUS
10
133.575
20
-89.45
11
135.575
21
-89.45
0
LINE
8
BLACK
6
CONTINUOUS
10
135.575
20
-89.45
11
135.575
21
-90.05
0
LINE
8
BLACK
6
CONTINUOUS
10
113.186
20
-90.05
11
111.186
21
-90.05
0
LINE
8
BLACK
6
CONTINUOUS
10
111.186
20
-90.05
11
111.186
21
-89.45
0
LINE
8
BLACK
6
CONTINUOUS
10
111.186
20
-89.45
11
113.186
21
-89.45
0
LINE
8
BLACK
6
CONTINUOUS
10
113.186
20
-89.45
11
113.186
21
-90.05
0
LINE
8
BLACK
6
CONTINUOUS
10
94.7578
20
-87.9148
11
94.8047
21
-87.929
0
LINE
8
BLACK
6
CONTINUOUS
10
94.8047
20
-87.929
11
94.8479
21
-87.9521
0
LINE
8
BLACK
6
CONTINUOUS
10
94.8479
20
-87.9521
11
94.8858
21
-87.9832
0
LINE
8
BLACK
6
CONTINUOUS
10
94.8858
20
-87.9832
11
94.9169
21
-88.0211
0
LINE
8
BLACK
6
CONTINUOUS
10
94.9169
20
-88.0211
11
94.94
21
-88.0643
0
LINE
8
BLACK
6
CONTINUOUS
10
94.94
20
-88.0643
11
94.9542
21
-88.1112
0
LINE
8
BLACK
6
CONTINUOUS
10
94.9542
20
-88.1112
11
94.959
21
-88.16
0
LINE
8
BLACK
6
CONTINUOUS
10
94.959
20
-88.16
11
94.959
21
-88.835
0
LINE
8
BLACK
6
CONTINUOUS
10
94.959
20
-88.835
11
94.9542
21
-88.8838
0
LINE
8
BLACK
6
CONTINUOUS
10
94.9542
20
-88.8838
11
94.94
21
-88.9307
0
LINE
8
BLACK
6
CONTINUOUS
10
94.94
20
-88.9307
11
94.9169
21
-88.9739
0
LINE
8
BLACK
6
CONTINUOUS
10
94.9169
20
-88.9739
11
94.8858
21
-89.0118
0
LINE
8
BLACK
6
CONTINUOUS
10
94.8858
20
-89.0118
11
94.8479
21
-89.0429
0
LINE
8
BLACK
6
CONTINUOUS
10
94.8479
20
-89.0429
11
94.8047
21
-89.066
0
LINE
8
BLACK
6
CONTINUOUS
10
94.8047
20
-89.066
11
94.7578
21
-89.0802
0
LINE
8
BLACK
6
CONTINUOUS
10
94.7578
20
-89.0802
11
94.709
21
-89.085
0
LINE
8
BLACK
6
CONTINUOUS
10
94.709
20
-89.085
11
93.759
21
-89.085
0
LINE
8
BLACK
6
CONTINUOUS
10
93.759
20
-89.085
11
93.7102
21
-89.0802
0
LINE
8
BLACK
6
CONTINUOUS
10
93.7102
20
-89.0802
11
93.6633
21
-89.066
0
LINE
8
BLACK
6
CONTINUOUS
10
93.6633
20
-89.066
11
93.6201
21
-89.0429
0
LINE
8
BLACK
6
CONTINUOUS
10
93.6201
20
-89.0429
11
93.5822
21
-89.0118
0
LINE
8
BLACK
6
CONTINUOUS
10
93.5822
20
-89.0118
11
93.5511
21
-88.9739
0
LINE
8
BLACK
6
CONTINUOUS
10
93.5511
20
-88.9739
11
93.528
21
-88.9307
0
LINE
8
BLACK
6
CONTINUOUS
10
93.528
20
-88.9307
11
93.5138
21
-88.8838
0
LINE
8
BLACK
6
CONTINUOUS
10
93.5138
20
-88.8838
11
93.509
21
-88.835
0
LINE
8
BLACK
6
CONTINUOUS
10
93.509
20
-88.835
11
93.509
21
-88.16
0
LINE
8
BLACK
6
CONTINUOUS
10
93.509
20
-88.16
11
93.5138
21
-88.1112
0
LINE
8
BLACK
6
CONTINUOUS
10
93.5138
20
-88.1112
11
93.528
21
-88.0643
0
LINE
8
BLACK
6
CONTINUOUS
10
93.528
20
-88.0643
11
93.5511
21
-88.0211
0
LINE
8
BLACK
6
CONTINUOUS
10
93.5511
20
-88.0211
11
93.5822
21
-87.9832
0
LINE
8
BLACK
6
CONTINUOUS
10
93.5822
20
-87.9832
11
93.6201
21
-87.9521
0
LINE
8
BLACK
6
CONTINUOUS
10
93.6201
20
-87.9521
11
93.6633
21
-87.929
0
LINE
8
BLACK
6
CONTINUOUS
10
93.6633
20
-87.929
11
93.7102
21
-87.9148
0
LINE
8
BLACK
6
CONTINUOUS
10
93.7102
20
-87.9148
11
93.759
21
-87.91
0
LINE
8
BLACK
6
CONTINUOUS
10
93.759
20
-87.91
11
94.709
21
-87.91
0
LINE
8
BLACK
6
CONTINUOUS
10
94.709
20
-87.91
11
94.7578
21
-87.9148
0
LINE
8
BLACK
6
CONTINUOUS
10
135.575
20
-89.05
11
133.575
21
-89.05
0
LINE
8
BLACK
6
CONTINUOUS
10
133.575
20
-89.05
11
133.575
21
-88.45
0
LINE
8
BLACK
6
CONTINUOUS
10
133.575
20
-88.45
11
135.575
21
-88.45
0
LINE
8
BLACK
6
CONTINUOUS
10
135.575
20
-88.45
11
135.575
21
-89.05
0
LINE
8
BLACK
6
CONTINUOUS
10
113.186
20
-89.05
11
111.186
21
-89.05
0
LINE
8
BLACK
6
CONTINUOUS
10
111.186
20
-89.05
11
111.186
21
-88.45
0
LINE
8
BLACK
6
CONTINUOUS
10
111.186
20
-88.45
11
113.186
21
-88.45
0
LINE
8
BLACK
6
CONTINUOUS
10
113.186
20
-88.45
11
113.186
21
-89.05
0
LINE
8
BLACK
6
CONTINUOUS
10
135.575
20
-88.05
11
133.575
21
-88.05
0
LINE
8
BLACK
6
CONTINUOUS
10
133.575
20
-88.05
11
133.575
21
-87.45
0
LINE
8
BLACK
6
CONTINUOUS
10
133.575
20
-87.45
11
135.575
21
-87.45
0
LINE
8
BLACK
6
CONTINUOUS
10
135.575
20
-87.45
11
135.575
21
-88.05
0
LINE
8
BLACK
6
CONTINUOUS
10
113.186
20
-88.05
11
111.186
21
-88.05
0
LINE
8
BLACK
6
CONTINUOUS
10
111.186
20
-88.05
11
111.186
21
-87.45
0
LINE
8
BLACK
6
CONTINUOUS
10
111.186
20
-87.45
11
113.186
21
-87.45
0
LINE
8
BLACK
6
CONTINUOUS
10
113.186
20
-87.45
11
113.186
21
-88.05
0
LINE
8
BLACK
6
CONTINUOUS
10
135.575
20
-87.05
11
133.575
21
-87.05
0
LINE
8
BLACK
6
CONTINUOUS
10
133.575
20
-87.05
11
133.575
21
-86.45
0
LINE
8
BLACK
6
CONTINUOUS
10
133.575
20
-86.45
11
135.575
21
-86.45
0
LINE
8
BLACK
6
CONTINUOUS
10
135.575
20
-86.45
11
135.575
21
-87.05
0
LINE
8
BLACK
6
CONTINUOUS
10
113.186
20
-87.05
11
111.186
21
-87.05
0
LINE
8
BLACK
6
CONTINUOUS
10
111.186
20
-87.05
11
111.186
21
-86.45
0
LINE
8
BLACK
6
CONTINUOUS
10
111.186
20
-86.45
11
113.186
21
-86.45
0
LINE
8
BLACK
6
CONTINUOUS
10
113.186
20
-86.45
11
113.186
21
-87.05
0
LINE
8
BLACK
6
CONTINUOUS
10
116.136
20
-85.25
11
113.136
21
-85.25
0
LINE
8
BLACK
6
CONTINUOUS
10
113.136
20
-85.25
11
113.136
21
-82.75
0
LINE
8
BLACK
6
CONTINUOUS
10
113.136
20
-82.75
11
116.136
21
-82.75
0
LINE
8
BLACK
6
CONTINUOUS
10
116.136
20
-82.75
11
116.136
21
-85.25
0
LINE
8
BLACK
6
CONTINUOUS
10
133.625
20
-85.25
11
130.625
21
-85.25
0
LINE
8
BLACK
6
CONTINUOUS
10
130.625
20
-85.25
11
130.625
21
-82.75
0
LINE
8
BLACK
6
CONTINUOUS
10
130.625
20
-82.75
11
133.625
21
-82.75
0
LINE
8
BLACK
6
CONTINUOUS
10
133.625
20
-82.75
11
133.625
21
-85.25
0
LINE
8
BLACK
6
CONTINUOUS
10
78.2654
20
-84.0254
11
77.4654
21
-84.0254
0
LINE
8
BLACK
6
CONTINUOUS
10
77.4654
20
-84.0254
11
77.4654
21
-83.5254
0
LINE
8
BLACK
6
CONTINUOUS
10
77.4654
20
-83.5254
11
78.2654
21
-83.5254
0
LINE
8
BLACK
6
CONTINUOUS
10
78.2654
20
-83.5254
11
78.2654
21
-84.0254
0
LINE
8
BLACK
6
CONTINUOUS
10
80.0654
20
-84.0254
11
79.2654
21
-84.0254
0
LINE
8
BLACK
6
CONTINUOUS
10
79.2654
20
-84.0254
11
79.2654
21
-83.5254
0
LINE
8
BLACK
6
CONTINUOUS
10
79.2654
20
-83.5254
11
80.0654
21
-83.5254
0
LINE
8
BLACK
6
CONTINUOUS
10
80.0654
20
-83.5254
11
80.0654
21
-84.0254
0
LINE
8
BLACK
6
CONTINUOUS
10
78.2654
20
-83.1754
11
77.4654
21
-83.1754
0
LINE
8
BLACK
6
CONTINUOUS
10
77.4654
20
-83.1754
11
77.4654
21
-82.7754
0
LINE
8
BLACK
6
CONTINUOUS
10
77.4654
20
-82.7754
11
78.2654
21
-82.7754
0
LINE
8
BLACK
6
CONTINUOUS
10
78.2654
20
-82.7754
11
78.2654
21
-83.1754
0
LINE
8
BLACK
6
CONTINUOUS
10
80.0654
20
-83.1754
11
79.2654
21
-83.1754
0
LINE
8
BLACK
6
CONTINUOUS
10
79.2654
20
-83.1754
11
79.2654
21
-82.7754
0
LINE
8
BLACK
6
CONTINUOUS
10
79.2654
20
-82.7754
11
80.0654
21
-82.7754
0
LINE
8
BLACK
6
CONTINUOUS
10
80.0654
20
-82.7754
11
80.0654
21
-83.1754
0
LINE
8
BLACK
6
CONTINUOUS
10
78.2654
20
-82.3754
11
77.4654
21
-82.3754
0
LINE
8
BLACK
6
CONTINUOUS
10
77.4654
20
-82.3754
11
77.4654
21
-81.9754
0
LINE
8
BLACK
6
CONTINUOUS
10
77.4654
20
-81.9754
11
78.2654
21
-81.9754
0
LINE
8
BLACK
6
CONTINUOUS
10
78.2654
20
-81.9754
11
78.2654
21
-82.3754
0
LINE
8
BLACK
6
CONTINUOUS
10
80.0654
20
-82.3754
11
79.2654
21
-82.3754
0
LINE
8
BLACK
6
CONTINUOUS
10
79.2654
20
-82.3754
11
79.2654
21
-81.9754
0
LINE
8
BLACK
6
CONTINUOUS
10
79.2654
20
-81.9754
11
80.0654
21
-81.9754
0
LINE
8
BLACK
6
CONTINUOUS
10
80.0654
20
-81.9754
11
80.0654
21
-82.3754
0
LINE
8
BLACK
6
CONTINUOUS
10
78.2654
20
-81.6254
11
77.4654
21
-81.6254
0
LINE
8
BLACK
6
CONTINUOUS
10
77.4654
20
-81.6254
11
77.4654
21
-81.1254
0
LINE
8
BLACK
6
CONTINUOUS
10
77.4654
20
-81.1254
11
78.2654
21
-81.1254
0
LINE
8
BLACK
6
CONTINUOUS
10
78.2654
20
-81.1254
11
78.2654
21
-81.6254
0
LINE
8
BLACK
6
CONTINUOUS
10
80.0654
20
-81.6254
11
79.2654
21
-81.6254
0
LINE
8
BLACK
6
CONTINUOUS
10
79.2654
20
-81.6254
11
79.2654
21
-81.1254
0
LINE
8
BLACK
6
CONTINUOUS
10
79.2654
20
-81.1254
11
80.0654
21
-81.1254
0
LINE
8
BLACK
6
CONTINUOUS
10
80.0654
20
-81.1254
11
80.0654
21
-81.6254
  0
ENDSEC
  0
EOF
