%TF.GenerationSoftware,KiCad,Pcbnew,(5.1.12)-1*%
%TF.CreationDate,2022-03-08T20:47:42+00:00*%
%TF.ProjectId,RGBtoHDMI CDTV v2 - Daughter Board,52474274-6f48-4444-9d49-204344545620,1*%
%TF.SameCoordinates,Original*%
%TF.FileFunction,Soldermask,Bot*%
%TF.FilePolarity,Negative*%
%FSLAX46Y46*%
G04 Gerber Fmt 4.6, Leading zero omitted, Abs format (unit mm)*
G04 Created by KiCad (PCBNEW (5.1.12)-1) date 2022-03-08 20:47:42*
%MOMM*%
%LPD*%
G01*
G04 APERTURE LIST*
%ADD10C,0.100000*%
%ADD11O,2.000000X2.000000*%
%ADD12C,2.000000*%
%ADD13C,2.500000*%
%ADD14C,1.100000*%
%ADD15C,5.300000*%
G04 APERTURE END LIST*
D10*
%TO.C,solarmon1*%
G36*
X114798000Y-78302000D02*
G01*
X115433000Y-78302000D01*
X115433000Y-77667000D01*
X114798000Y-77667000D01*
X114798000Y-78302000D01*
G37*
X114798000Y-78302000D02*
X115433000Y-78302000D01*
X115433000Y-77667000D01*
X114798000Y-77667000D01*
X114798000Y-78302000D01*
G36*
X114798000Y-78937000D02*
G01*
X115433000Y-78937000D01*
X115433000Y-78302000D01*
X114798000Y-78302000D01*
X114798000Y-78937000D01*
G37*
X114798000Y-78937000D02*
X115433000Y-78937000D01*
X115433000Y-78302000D01*
X114798000Y-78302000D01*
X114798000Y-78937000D01*
G36*
X114163000Y-78937000D02*
G01*
X114798000Y-78937000D01*
X114798000Y-78302000D01*
X114163000Y-78302000D01*
X114163000Y-78937000D01*
G37*
X114163000Y-78937000D02*
X114798000Y-78937000D01*
X114798000Y-78302000D01*
X114163000Y-78302000D01*
X114163000Y-78937000D01*
G36*
X115433000Y-78937000D02*
G01*
X116068000Y-78937000D01*
X116068000Y-78302000D01*
X115433000Y-78302000D01*
X115433000Y-78937000D01*
G37*
X115433000Y-78937000D02*
X116068000Y-78937000D01*
X116068000Y-78302000D01*
X115433000Y-78302000D01*
X115433000Y-78937000D01*
G36*
X116068000Y-78302000D02*
G01*
X116703000Y-78302000D01*
X116703000Y-77667000D01*
X116068000Y-77667000D01*
X116068000Y-78302000D01*
G37*
X116068000Y-78302000D02*
X116703000Y-78302000D01*
X116703000Y-77667000D01*
X116068000Y-77667000D01*
X116068000Y-78302000D01*
G36*
X112893000Y-77667000D02*
G01*
X113528000Y-77667000D01*
X113528000Y-77032000D01*
X112893000Y-77032000D01*
X112893000Y-77667000D01*
G37*
X112893000Y-77667000D02*
X113528000Y-77667000D01*
X113528000Y-77032000D01*
X112893000Y-77032000D01*
X112893000Y-77667000D01*
G36*
X112893000Y-81477000D02*
G01*
X113528000Y-81477000D01*
X113528000Y-80842000D01*
X112893000Y-80842000D01*
X112893000Y-81477000D01*
G37*
X112893000Y-81477000D02*
X113528000Y-81477000D01*
X113528000Y-80842000D01*
X112893000Y-80842000D01*
X112893000Y-81477000D01*
G36*
X114163000Y-77032000D02*
G01*
X114798000Y-77032000D01*
X114798000Y-76397000D01*
X114163000Y-76397000D01*
X114163000Y-77032000D01*
G37*
X114163000Y-77032000D02*
X114798000Y-77032000D01*
X114798000Y-76397000D01*
X114163000Y-76397000D01*
X114163000Y-77032000D01*
G36*
X114163000Y-77667000D02*
G01*
X114798000Y-77667000D01*
X114798000Y-77032000D01*
X114163000Y-77032000D01*
X114163000Y-77667000D01*
G37*
X114163000Y-77667000D02*
X114798000Y-77667000D01*
X114798000Y-77032000D01*
X114163000Y-77032000D01*
X114163000Y-77667000D01*
G36*
X114798000Y-77667000D02*
G01*
X115433000Y-77667000D01*
X115433000Y-77032000D01*
X114798000Y-77032000D01*
X114798000Y-77667000D01*
G37*
X114798000Y-77667000D02*
X115433000Y-77667000D01*
X115433000Y-77032000D01*
X114798000Y-77032000D01*
X114798000Y-77667000D01*
G36*
X115433000Y-77667000D02*
G01*
X116068000Y-77667000D01*
X116068000Y-77032000D01*
X115433000Y-77032000D01*
X115433000Y-77667000D01*
G37*
X115433000Y-77667000D02*
X116068000Y-77667000D01*
X116068000Y-77032000D01*
X115433000Y-77032000D01*
X115433000Y-77667000D01*
G36*
X115433000Y-77032000D02*
G01*
X116068000Y-77032000D01*
X116068000Y-76397000D01*
X115433000Y-76397000D01*
X115433000Y-77032000D01*
G37*
X115433000Y-77032000D02*
X116068000Y-77032000D01*
X116068000Y-76397000D01*
X115433000Y-76397000D01*
X115433000Y-77032000D01*
G36*
X116068000Y-77667000D02*
G01*
X116703000Y-77667000D01*
X116703000Y-77032000D01*
X116068000Y-77032000D01*
X116068000Y-77667000D01*
G37*
X116068000Y-77667000D02*
X116703000Y-77667000D01*
X116703000Y-77032000D01*
X116068000Y-77032000D01*
X116068000Y-77667000D01*
G36*
X116703000Y-77667000D02*
G01*
X117338000Y-77667000D01*
X117338000Y-77032000D01*
X116703000Y-77032000D01*
X116703000Y-77667000D01*
G37*
X116703000Y-77667000D02*
X117338000Y-77667000D01*
X117338000Y-77032000D01*
X116703000Y-77032000D01*
X116703000Y-77667000D01*
G36*
X117338000Y-80207000D02*
G01*
X117973000Y-80207000D01*
X117973000Y-79572000D01*
X117338000Y-79572000D01*
X117338000Y-80207000D01*
G37*
X117338000Y-80207000D02*
X117973000Y-80207000D01*
X117973000Y-79572000D01*
X117338000Y-79572000D01*
X117338000Y-80207000D01*
G36*
X116703000Y-81477000D02*
G01*
X117338000Y-81477000D01*
X117338000Y-80842000D01*
X116703000Y-80842000D01*
X116703000Y-81477000D01*
G37*
X116703000Y-81477000D02*
X117338000Y-81477000D01*
X117338000Y-80842000D01*
X116703000Y-80842000D01*
X116703000Y-81477000D01*
G36*
X114163000Y-81477000D02*
G01*
X114798000Y-81477000D01*
X114798000Y-80842000D01*
X114163000Y-80842000D01*
X114163000Y-81477000D01*
G37*
X114163000Y-81477000D02*
X114798000Y-81477000D01*
X114798000Y-80842000D01*
X114163000Y-80842000D01*
X114163000Y-81477000D01*
G36*
X112893000Y-79572000D02*
G01*
X113528000Y-79572000D01*
X113528000Y-78937000D01*
X112893000Y-78937000D01*
X112893000Y-79572000D01*
G37*
X112893000Y-79572000D02*
X113528000Y-79572000D01*
X113528000Y-78937000D01*
X112893000Y-78937000D01*
X112893000Y-79572000D01*
%TD*%
%TO.C,RN12*%
G36*
G01*
X98735000Y-74396000D02*
X98235000Y-74396000D01*
G75*
G02*
X98085000Y-74246000I0J150000D01*
G01*
X98085000Y-73446000D01*
G75*
G02*
X98235000Y-73296000I150000J0D01*
G01*
X98735000Y-73296000D01*
G75*
G02*
X98885000Y-73446000I0J-150000D01*
G01*
X98885000Y-74246000D01*
G75*
G02*
X98735000Y-74396000I-150000J0D01*
G01*
G37*
G36*
G01*
X99485000Y-74396000D02*
X99085000Y-74396000D01*
G75*
G02*
X98935000Y-74246000I0J150000D01*
G01*
X98935000Y-73446000D01*
G75*
G02*
X99085000Y-73296000I150000J0D01*
G01*
X99485000Y-73296000D01*
G75*
G02*
X99635000Y-73446000I0J-150000D01*
G01*
X99635000Y-74246000D01*
G75*
G02*
X99485000Y-74396000I-150000J0D01*
G01*
G37*
G36*
G01*
X101135000Y-74396000D02*
X100635000Y-74396000D01*
G75*
G02*
X100485000Y-74246000I0J150000D01*
G01*
X100485000Y-73446000D01*
G75*
G02*
X100635000Y-73296000I150000J0D01*
G01*
X101135000Y-73296000D01*
G75*
G02*
X101285000Y-73446000I0J-150000D01*
G01*
X101285000Y-74246000D01*
G75*
G02*
X101135000Y-74396000I-150000J0D01*
G01*
G37*
G36*
G01*
X100285000Y-74396000D02*
X99885000Y-74396000D01*
G75*
G02*
X99735000Y-74246000I0J150000D01*
G01*
X99735000Y-73446000D01*
G75*
G02*
X99885000Y-73296000I150000J0D01*
G01*
X100285000Y-73296000D01*
G75*
G02*
X100435000Y-73446000I0J-150000D01*
G01*
X100435000Y-74246000D01*
G75*
G02*
X100285000Y-74396000I-150000J0D01*
G01*
G37*
G36*
G01*
X98735000Y-76196000D02*
X98235000Y-76196000D01*
G75*
G02*
X98085000Y-76046000I0J150000D01*
G01*
X98085000Y-75246000D01*
G75*
G02*
X98235000Y-75096000I150000J0D01*
G01*
X98735000Y-75096000D01*
G75*
G02*
X98885000Y-75246000I0J-150000D01*
G01*
X98885000Y-76046000D01*
G75*
G02*
X98735000Y-76196000I-150000J0D01*
G01*
G37*
G36*
G01*
X100285000Y-76196000D02*
X99885000Y-76196000D01*
G75*
G02*
X99735000Y-76046000I0J150000D01*
G01*
X99735000Y-75246000D01*
G75*
G02*
X99885000Y-75096000I150000J0D01*
G01*
X100285000Y-75096000D01*
G75*
G02*
X100435000Y-75246000I0J-150000D01*
G01*
X100435000Y-76046000D01*
G75*
G02*
X100285000Y-76196000I-150000J0D01*
G01*
G37*
G36*
G01*
X99485000Y-76196000D02*
X99085000Y-76196000D01*
G75*
G02*
X98935000Y-76046000I0J150000D01*
G01*
X98935000Y-75246000D01*
G75*
G02*
X99085000Y-75096000I150000J0D01*
G01*
X99485000Y-75096000D01*
G75*
G02*
X99635000Y-75246000I0J-150000D01*
G01*
X99635000Y-76046000D01*
G75*
G02*
X99485000Y-76196000I-150000J0D01*
G01*
G37*
G36*
G01*
X101135000Y-76196000D02*
X100635000Y-76196000D01*
G75*
G02*
X100485000Y-76046000I0J150000D01*
G01*
X100485000Y-75246000D01*
G75*
G02*
X100635000Y-75096000I150000J0D01*
G01*
X101135000Y-75096000D01*
G75*
G02*
X101285000Y-75246000I0J-150000D01*
G01*
X101285000Y-76046000D01*
G75*
G02*
X101135000Y-76196000I-150000J0D01*
G01*
G37*
%TD*%
%TO.C,RN11*%
G36*
G01*
X127686000Y-75096000D02*
X128186000Y-75096000D01*
G75*
G02*
X128336000Y-75246000I0J-150000D01*
G01*
X128336000Y-76046000D01*
G75*
G02*
X128186000Y-76196000I-150000J0D01*
G01*
X127686000Y-76196000D01*
G75*
G02*
X127536000Y-76046000I0J150000D01*
G01*
X127536000Y-75246000D01*
G75*
G02*
X127686000Y-75096000I150000J0D01*
G01*
G37*
G36*
G01*
X126936000Y-75096000D02*
X127336000Y-75096000D01*
G75*
G02*
X127486000Y-75246000I0J-150000D01*
G01*
X127486000Y-76046000D01*
G75*
G02*
X127336000Y-76196000I-150000J0D01*
G01*
X126936000Y-76196000D01*
G75*
G02*
X126786000Y-76046000I0J150000D01*
G01*
X126786000Y-75246000D01*
G75*
G02*
X126936000Y-75096000I150000J0D01*
G01*
G37*
G36*
G01*
X125286000Y-75096000D02*
X125786000Y-75096000D01*
G75*
G02*
X125936000Y-75246000I0J-150000D01*
G01*
X125936000Y-76046000D01*
G75*
G02*
X125786000Y-76196000I-150000J0D01*
G01*
X125286000Y-76196000D01*
G75*
G02*
X125136000Y-76046000I0J150000D01*
G01*
X125136000Y-75246000D01*
G75*
G02*
X125286000Y-75096000I150000J0D01*
G01*
G37*
G36*
G01*
X126136000Y-75096000D02*
X126536000Y-75096000D01*
G75*
G02*
X126686000Y-75246000I0J-150000D01*
G01*
X126686000Y-76046000D01*
G75*
G02*
X126536000Y-76196000I-150000J0D01*
G01*
X126136000Y-76196000D01*
G75*
G02*
X125986000Y-76046000I0J150000D01*
G01*
X125986000Y-75246000D01*
G75*
G02*
X126136000Y-75096000I150000J0D01*
G01*
G37*
G36*
G01*
X127686000Y-73296000D02*
X128186000Y-73296000D01*
G75*
G02*
X128336000Y-73446000I0J-150000D01*
G01*
X128336000Y-74246000D01*
G75*
G02*
X128186000Y-74396000I-150000J0D01*
G01*
X127686000Y-74396000D01*
G75*
G02*
X127536000Y-74246000I0J150000D01*
G01*
X127536000Y-73446000D01*
G75*
G02*
X127686000Y-73296000I150000J0D01*
G01*
G37*
G36*
G01*
X126136000Y-73296000D02*
X126536000Y-73296000D01*
G75*
G02*
X126686000Y-73446000I0J-150000D01*
G01*
X126686000Y-74246000D01*
G75*
G02*
X126536000Y-74396000I-150000J0D01*
G01*
X126136000Y-74396000D01*
G75*
G02*
X125986000Y-74246000I0J150000D01*
G01*
X125986000Y-73446000D01*
G75*
G02*
X126136000Y-73296000I150000J0D01*
G01*
G37*
G36*
G01*
X126936000Y-73296000D02*
X127336000Y-73296000D01*
G75*
G02*
X127486000Y-73446000I0J-150000D01*
G01*
X127486000Y-74246000D01*
G75*
G02*
X127336000Y-74396000I-150000J0D01*
G01*
X126936000Y-74396000D01*
G75*
G02*
X126786000Y-74246000I0J150000D01*
G01*
X126786000Y-73446000D01*
G75*
G02*
X126936000Y-73296000I150000J0D01*
G01*
G37*
G36*
G01*
X125286000Y-73296000D02*
X125786000Y-73296000D01*
G75*
G02*
X125936000Y-73446000I0J-150000D01*
G01*
X125936000Y-74246000D01*
G75*
G02*
X125786000Y-74396000I-150000J0D01*
G01*
X125286000Y-74396000D01*
G75*
G02*
X125136000Y-74246000I0J150000D01*
G01*
X125136000Y-73446000D01*
G75*
G02*
X125286000Y-73296000I150000J0D01*
G01*
G37*
%TD*%
D11*
%TO.C,CN11*%
X102733000Y-80160000D03*
X102733000Y-82700000D03*
X100193000Y-80160000D03*
X100193000Y-82700000D03*
X97653000Y-80160000D03*
X97653000Y-82700000D03*
X95113000Y-80160000D03*
X95113000Y-82700000D03*
X92573000Y-80160000D03*
X92573000Y-82700000D03*
X90033000Y-80160000D03*
G36*
G01*
X90883000Y-83700000D02*
X89183000Y-83700000D01*
G75*
G02*
X89033000Y-83550000I0J150000D01*
G01*
X89033000Y-81850000D01*
G75*
G02*
X89183000Y-81700000I150000J0D01*
G01*
X90883000Y-81700000D01*
G75*
G02*
X91033000Y-81850000I0J-150000D01*
G01*
X91033000Y-83550000D01*
G75*
G02*
X90883000Y-83700000I-150000J0D01*
G01*
G37*
%TD*%
%TO.C,D2*%
X96510000Y-66745000D03*
G36*
G01*
X93120000Y-65745000D02*
X94820000Y-65745000D01*
G75*
G02*
X94970000Y-65895000I0J-150000D01*
G01*
X94970000Y-67595000D01*
G75*
G02*
X94820000Y-67745000I-150000J0D01*
G01*
X93120000Y-67745000D01*
G75*
G02*
X92970000Y-67595000I0J150000D01*
G01*
X92970000Y-65895000D01*
G75*
G02*
X93120000Y-65745000I150000J0D01*
G01*
G37*
%TD*%
%TO.C,D1*%
X105400000Y-66745000D03*
G36*
G01*
X102010000Y-65745000D02*
X103710000Y-65745000D01*
G75*
G02*
X103860000Y-65895000I0J-150000D01*
G01*
X103860000Y-67595000D01*
G75*
G02*
X103710000Y-67745000I-150000J0D01*
G01*
X102010000Y-67745000D01*
G75*
G02*
X101860000Y-67595000I0J150000D01*
G01*
X101860000Y-65895000D01*
G75*
G02*
X102010000Y-65745000I150000J0D01*
G01*
G37*
%TD*%
%TO.C,SER1*%
X77587000Y-63650000D03*
X80127000Y-63650000D03*
X82667000Y-63650000D03*
G36*
G01*
X86057000Y-64650000D02*
X84357000Y-64650000D01*
G75*
G02*
X84207000Y-64500000I0J150000D01*
G01*
X84207000Y-62800000D01*
G75*
G02*
X84357000Y-62650000I150000J0D01*
G01*
X86057000Y-62650000D01*
G75*
G02*
X86207000Y-62800000I0J-150000D01*
G01*
X86207000Y-64500000D01*
G75*
G02*
X86057000Y-64650000I-150000J0D01*
G01*
G37*
%TD*%
D12*
%TO.C,BT1*%
X141510000Y-65094000D03*
X137010000Y-65094000D03*
D13*
X142760000Y-67594000D03*
X135760000Y-67594000D03*
%TD*%
D12*
%TO.C,BT2*%
X128810000Y-65094000D03*
X124310000Y-65094000D03*
D13*
X130060000Y-67594000D03*
X123060000Y-67594000D03*
%TD*%
D12*
%TO.C,BT3*%
X116110000Y-65094000D03*
X111610000Y-65094000D03*
D13*
X117360000Y-67594000D03*
X110360000Y-67594000D03*
%TD*%
D14*
%TO.C,H2*%
X141325825Y-81674175D03*
X140000000Y-81125000D03*
X138674175Y-81674175D03*
X138125000Y-83000000D03*
X138674175Y-84325825D03*
X140000000Y-84875000D03*
X141325825Y-84325825D03*
X141875000Y-83000000D03*
D15*
X140000000Y-83000000D03*
%TD*%
D14*
%TO.C,H1*%
X81325825Y-73674175D03*
X80000000Y-73125000D03*
X78674175Y-73674175D03*
X78125000Y-75000000D03*
X78674175Y-76325825D03*
X80000000Y-76875000D03*
X81325825Y-76325825D03*
X81875000Y-75000000D03*
D15*
X80000000Y-75000000D03*
%TD*%
M02*
