%TF.GenerationSoftware,KiCad,Pcbnew,(5.1.12)-1*%
%TF.CreationDate,2022-03-08T20:47:42+00:00*%
%TF.ProjectId,RGBtoHDMI CDTV v2 - Daughter Board,52474274-6f48-4444-9d49-204344545620,1*%
%TF.SameCoordinates,Original*%
%TF.FileFunction,Copper,L2,Bot*%
%TF.FilePolarity,Positive*%
%FSLAX46Y46*%
G04 Gerber Fmt 4.6, Leading zero omitted, Abs format (unit mm)*
G04 Created by KiCad (PCBNEW (5.1.12)-1) date 2022-03-08 20:47:42*
%MOMM*%
%LPD*%
G01*
G04 APERTURE LIST*
%TA.AperFunction,EtchedComponent*%
%ADD10C,0.100000*%
%TD*%
%TA.AperFunction,SMDPad,CuDef*%
%ADD11R,0.500000X0.800000*%
%TD*%
%TA.AperFunction,SMDPad,CuDef*%
%ADD12R,0.400000X0.800000*%
%TD*%
%TA.AperFunction,ComponentPad*%
%ADD13O,1.700000X1.700000*%
%TD*%
%TA.AperFunction,ComponentPad*%
%ADD14R,1.700000X1.700000*%
%TD*%
%TA.AperFunction,ComponentPad*%
%ADD15C,1.700000*%
%TD*%
%TA.AperFunction,ComponentPad*%
%ADD16C,2.200000*%
%TD*%
%TA.AperFunction,ComponentPad*%
%ADD17C,0.800000*%
%TD*%
%TA.AperFunction,ComponentPad*%
%ADD18C,5.000000*%
%TD*%
%TA.AperFunction,ViaPad*%
%ADD19C,0.600000*%
%TD*%
%TA.AperFunction,ViaPad*%
%ADD20C,0.800000*%
%TD*%
%TA.AperFunction,Conductor*%
%ADD21C,0.400000*%
%TD*%
%TA.AperFunction,Conductor*%
%ADD22C,0.500000*%
%TD*%
%TA.AperFunction,Conductor*%
%ADD23C,0.254000*%
%TD*%
%TA.AperFunction,Conductor*%
%ADD24C,0.100000*%
%TD*%
G04 APERTURE END LIST*
D10*
%TO.C,solarmon1*%
G36*
X112893000Y-77667000D02*
G01*
X113528000Y-77667000D01*
X113528000Y-77032000D01*
X112893000Y-77032000D01*
X112893000Y-77667000D01*
G37*
X112893000Y-77667000D02*
X113528000Y-77667000D01*
X113528000Y-77032000D01*
X112893000Y-77032000D01*
X112893000Y-77667000D01*
G36*
X112893000Y-81477000D02*
G01*
X113528000Y-81477000D01*
X113528000Y-80842000D01*
X112893000Y-80842000D01*
X112893000Y-81477000D01*
G37*
X112893000Y-81477000D02*
X113528000Y-81477000D01*
X113528000Y-80842000D01*
X112893000Y-80842000D01*
X112893000Y-81477000D01*
G36*
X114163000Y-77032000D02*
G01*
X114798000Y-77032000D01*
X114798000Y-76397000D01*
X114163000Y-76397000D01*
X114163000Y-77032000D01*
G37*
X114163000Y-77032000D02*
X114798000Y-77032000D01*
X114798000Y-76397000D01*
X114163000Y-76397000D01*
X114163000Y-77032000D01*
G36*
X114163000Y-77667000D02*
G01*
X114798000Y-77667000D01*
X114798000Y-77032000D01*
X114163000Y-77032000D01*
X114163000Y-77667000D01*
G37*
X114163000Y-77667000D02*
X114798000Y-77667000D01*
X114798000Y-77032000D01*
X114163000Y-77032000D01*
X114163000Y-77667000D01*
G36*
X114798000Y-77667000D02*
G01*
X115433000Y-77667000D01*
X115433000Y-77032000D01*
X114798000Y-77032000D01*
X114798000Y-77667000D01*
G37*
X114798000Y-77667000D02*
X115433000Y-77667000D01*
X115433000Y-77032000D01*
X114798000Y-77032000D01*
X114798000Y-77667000D01*
G36*
X115433000Y-77667000D02*
G01*
X116068000Y-77667000D01*
X116068000Y-77032000D01*
X115433000Y-77032000D01*
X115433000Y-77667000D01*
G37*
X115433000Y-77667000D02*
X116068000Y-77667000D01*
X116068000Y-77032000D01*
X115433000Y-77032000D01*
X115433000Y-77667000D01*
G36*
X115433000Y-77032000D02*
G01*
X116068000Y-77032000D01*
X116068000Y-76397000D01*
X115433000Y-76397000D01*
X115433000Y-77032000D01*
G37*
X115433000Y-77032000D02*
X116068000Y-77032000D01*
X116068000Y-76397000D01*
X115433000Y-76397000D01*
X115433000Y-77032000D01*
G36*
X116068000Y-77667000D02*
G01*
X116703000Y-77667000D01*
X116703000Y-77032000D01*
X116068000Y-77032000D01*
X116068000Y-77667000D01*
G37*
X116068000Y-77667000D02*
X116703000Y-77667000D01*
X116703000Y-77032000D01*
X116068000Y-77032000D01*
X116068000Y-77667000D01*
G36*
X116703000Y-77667000D02*
G01*
X117338000Y-77667000D01*
X117338000Y-77032000D01*
X116703000Y-77032000D01*
X116703000Y-77667000D01*
G37*
X116703000Y-77667000D02*
X117338000Y-77667000D01*
X117338000Y-77032000D01*
X116703000Y-77032000D01*
X116703000Y-77667000D01*
G36*
X116703000Y-80207000D02*
G01*
X117338000Y-80207000D01*
X117338000Y-79572000D01*
X116703000Y-79572000D01*
X116703000Y-80207000D01*
G37*
X116703000Y-80207000D02*
X117338000Y-80207000D01*
X117338000Y-79572000D01*
X116703000Y-79572000D01*
X116703000Y-80207000D01*
G36*
X116068000Y-80207000D02*
G01*
X116703000Y-80207000D01*
X116703000Y-79572000D01*
X116068000Y-79572000D01*
X116068000Y-80207000D01*
G37*
X116068000Y-80207000D02*
X116703000Y-80207000D01*
X116703000Y-79572000D01*
X116068000Y-79572000D01*
X116068000Y-80207000D01*
G36*
X115433000Y-80207000D02*
G01*
X116068000Y-80207000D01*
X116068000Y-79572000D01*
X115433000Y-79572000D01*
X115433000Y-80207000D01*
G37*
X115433000Y-80207000D02*
X116068000Y-80207000D01*
X116068000Y-79572000D01*
X115433000Y-79572000D01*
X115433000Y-80207000D01*
G36*
X114163000Y-80207000D02*
G01*
X114798000Y-80207000D01*
X114798000Y-79572000D01*
X114163000Y-79572000D01*
X114163000Y-80207000D01*
G37*
X114163000Y-80207000D02*
X114798000Y-80207000D01*
X114798000Y-79572000D01*
X114163000Y-79572000D01*
X114163000Y-80207000D01*
G36*
X114163000Y-81477000D02*
G01*
X114798000Y-81477000D01*
X114798000Y-80842000D01*
X114163000Y-80842000D01*
X114163000Y-81477000D01*
G37*
X114163000Y-81477000D02*
X114798000Y-81477000D01*
X114798000Y-80842000D01*
X114163000Y-80842000D01*
X114163000Y-81477000D01*
G36*
X116703000Y-81477000D02*
G01*
X117338000Y-81477000D01*
X117338000Y-80842000D01*
X116703000Y-80842000D01*
X116703000Y-81477000D01*
G37*
X116703000Y-81477000D02*
X117338000Y-81477000D01*
X117338000Y-80842000D01*
X116703000Y-80842000D01*
X116703000Y-81477000D01*
%TD*%
D11*
%TO.P,RN12,5*%
%TO.N,Net-(D2-Pad2)*%
X98485000Y-73846000D03*
D12*
%TO.P,RN12,6*%
%TO.N,Net-(RN12-Pad6)*%
X99285000Y-73846000D03*
D11*
%TO.P,RN12,8*%
%TO.N,Net-(D1-Pad2)*%
X100885000Y-73846000D03*
D12*
%TO.P,RN12,7*%
%TO.N,Net-(RN12-Pad7)*%
X100085000Y-73846000D03*
D11*
%TO.P,RN12,4*%
%TO.N,+3V3*%
X98485000Y-75646000D03*
D12*
%TO.P,RN12,2*%
%TO.N,Net-(RN12-Pad2)*%
X100085000Y-75646000D03*
%TO.P,RN12,3*%
%TO.N,Net-(RN12-Pad3)*%
X99285000Y-75646000D03*
D11*
%TO.P,RN12,1*%
%TO.N,+5V*%
X100885000Y-75646000D03*
%TD*%
%TO.P,RN11,5*%
%TO.N,Net-(RN11-Pad5)*%
X127936000Y-75646000D03*
D12*
%TO.P,RN11,6*%
%TO.N,+3V3*%
X127136000Y-75646000D03*
D11*
%TO.P,RN11,8*%
X125536000Y-75646000D03*
D12*
%TO.P,RN11,7*%
X126336000Y-75646000D03*
D11*
%TO.P,RN11,4*%
%TO.N,Net-(RN11-Pad4)*%
X127936000Y-73846000D03*
D12*
%TO.P,RN11,2*%
%TO.N,GPIO26*%
X126336000Y-73846000D03*
%TO.P,RN11,3*%
%TO.N,GPIO16*%
X127136000Y-73846000D03*
D11*
%TO.P,RN11,1*%
%TO.N,GPIO19*%
X125536000Y-73846000D03*
%TD*%
D13*
%TO.P,CN11,12*%
%TO.N,+3V3*%
X102733000Y-80160000D03*
%TO.P,CN11,11*%
%TO.N,+5V*%
X102733000Y-82700000D03*
%TO.P,CN11,10*%
%TO.N,GPIO16*%
X100193000Y-80160000D03*
%TO.P,CN11,9*%
%TO.N,GND*%
X100193000Y-82700000D03*
%TO.P,CN11,8*%
%TO.N,GPIO26*%
X97653000Y-80160000D03*
%TO.P,CN11,7*%
%TO.N,GND*%
X97653000Y-82700000D03*
%TO.P,CN11,6*%
%TO.N,GPIO19*%
X95113000Y-80160000D03*
%TO.P,CN11,5*%
%TO.N,GND*%
X95113000Y-82700000D03*
%TO.P,CN11,4*%
%TO.N,GPIO14*%
X92573000Y-80160000D03*
%TO.P,CN11,3*%
%TO.N,GND*%
X92573000Y-82700000D03*
%TO.P,CN11,2*%
%TO.N,GPIO15*%
X90033000Y-80160000D03*
D14*
%TO.P,CN11,1*%
%TO.N,GND*%
X90033000Y-82700000D03*
%TD*%
D13*
%TO.P,D2,2*%
%TO.N,Net-(D2-Pad2)*%
X96510000Y-66745000D03*
D14*
%TO.P,D2,1*%
%TO.N,GND*%
X93970000Y-66745000D03*
%TD*%
D13*
%TO.P,D1,2*%
%TO.N,Net-(D1-Pad2)*%
X105400000Y-66745000D03*
D14*
%TO.P,D1,1*%
%TO.N,GND*%
X102860000Y-66745000D03*
%TD*%
D13*
%TO.P,SER1,4*%
%TO.N,GPIO15*%
X77587000Y-63650000D03*
%TO.P,SER1,3*%
%TO.N,GPIO14*%
X80127000Y-63650000D03*
%TO.P,SER1,2*%
%TO.N,GND*%
X82667000Y-63650000D03*
D14*
%TO.P,SER1,1*%
%TO.N,+5V*%
X85207000Y-63650000D03*
%TD*%
D15*
%TO.P,BT1,1*%
%TO.N,GND*%
X141510000Y-65094000D03*
%TO.P,BT1,2*%
%TO.N,GPIO16*%
X137010000Y-65094000D03*
D16*
%TO.P,BT1,*%
%TO.N,*%
X142760000Y-67594000D03*
X135760000Y-67594000D03*
%TD*%
D15*
%TO.P,BT2,1*%
%TO.N,GND*%
X128810000Y-65094000D03*
%TO.P,BT2,2*%
%TO.N,GPIO26*%
X124310000Y-65094000D03*
D16*
%TO.P,BT2,*%
%TO.N,*%
X130060000Y-67594000D03*
X123060000Y-67594000D03*
%TD*%
D15*
%TO.P,BT3,1*%
%TO.N,GND*%
X116110000Y-65094000D03*
%TO.P,BT3,2*%
%TO.N,GPIO19*%
X111610000Y-65094000D03*
D16*
%TO.P,BT3,*%
%TO.N,*%
X117360000Y-67594000D03*
X110360000Y-67594000D03*
%TD*%
D17*
%TO.P,H2,1*%
%TO.N,GND*%
X141325825Y-81674175D03*
X140000000Y-81125000D03*
X138674175Y-81674175D03*
X138125000Y-83000000D03*
X138674175Y-84325825D03*
X140000000Y-84875000D03*
X141325825Y-84325825D03*
X141875000Y-83000000D03*
D18*
X140000000Y-83000000D03*
%TD*%
D17*
%TO.P,H1,1*%
%TO.N,GND*%
X81325825Y-73674175D03*
X80000000Y-73125000D03*
X78674175Y-73674175D03*
X78125000Y-75000000D03*
X78674175Y-76325825D03*
X80000000Y-76875000D03*
X81325825Y-76325825D03*
X81875000Y-75000000D03*
D18*
X80000000Y-75000000D03*
%TD*%
D19*
%TO.N,+3V3*%
X127142406Y-77794000D03*
X126329590Y-77794000D03*
X125516800Y-77794000D03*
D20*
%TO.N,GPIO16*%
X128768000Y-71190000D03*
%TD*%
D21*
%TO.N,+3V3*%
X127142400Y-75685800D02*
X127142400Y-77793994D01*
X127142400Y-77793994D02*
X127142406Y-77794000D01*
X126329600Y-75635000D02*
X126329600Y-77793990D01*
X126329600Y-77793990D02*
X126329590Y-77794000D01*
X125516800Y-75660400D02*
X125516800Y-77794000D01*
X98465800Y-76146802D02*
X98465800Y-75609600D01*
X102478998Y-80160000D02*
X98465800Y-76146802D01*
X102733000Y-80160000D02*
X102478998Y-80160000D01*
D22*
%TO.N,+5V*%
X105146000Y-77286000D02*
X103520400Y-75660400D01*
X105146000Y-81731000D02*
X105146000Y-77286000D01*
X103520400Y-75660400D02*
X100878800Y-75660400D01*
X104177000Y-82700000D02*
X105146000Y-81731000D01*
X102733000Y-82700000D02*
X104177000Y-82700000D01*
X94453000Y-74746000D02*
X85207000Y-65500000D01*
X85207000Y-65500000D02*
X85207000Y-63650000D01*
X100777200Y-74746000D02*
X94453000Y-74746000D01*
X100878800Y-74847600D02*
X100777200Y-74746000D01*
X100878800Y-75533400D02*
X100878800Y-74847600D01*
%TO.N,GPIO15*%
X77587000Y-65856000D02*
X77587000Y-63650000D01*
X82079000Y-68142000D02*
X79873000Y-68142000D01*
X90033000Y-76096000D02*
X82079000Y-68142000D01*
X79873000Y-68142000D02*
X77587000Y-65856000D01*
X90033000Y-80160000D02*
X90033000Y-76096000D01*
%TO.N,GPIO14*%
X80127000Y-65602000D02*
X80127000Y-63650000D01*
X81143000Y-66618000D02*
X80127000Y-65602000D01*
X83095000Y-66618000D02*
X81143000Y-66618000D01*
X92573000Y-76096000D02*
X83095000Y-66618000D01*
X92573000Y-80160000D02*
X92573000Y-76096000D01*
D21*
%TO.N,GPIO19*%
X112893000Y-66377000D02*
X111610000Y-65094000D01*
X112893000Y-70936000D02*
X112893000Y-66377000D01*
X114417000Y-72460000D02*
X112893000Y-70936000D01*
X124678600Y-72460000D02*
X114417000Y-72460000D01*
X125516800Y-73298200D02*
X124678600Y-72460000D01*
X125516800Y-73857000D02*
X125516800Y-73298200D01*
%TO.N,GPIO26*%
X126329600Y-67113600D02*
X124310000Y-65094000D01*
X126329600Y-73780800D02*
X126329600Y-67113600D01*
%TO.N,GPIO16*%
X128133000Y-71190000D02*
X128768000Y-71190000D01*
X127142400Y-72180600D02*
X128133000Y-71190000D01*
X127142400Y-73882400D02*
X127142400Y-72180600D01*
X137150000Y-71190000D02*
X128768000Y-71190000D01*
X137859999Y-70480001D02*
X137150000Y-71190000D01*
X137859999Y-65943999D02*
X137859999Y-70480001D01*
X137010000Y-65094000D02*
X137859999Y-65943999D01*
%TO.N,Net-(D1-Pad2)*%
X105400000Y-68650000D02*
X105400000Y-66745000D01*
X100878800Y-73171200D02*
X105400000Y-68650000D01*
X100878800Y-73831600D02*
X100878800Y-73171200D01*
%TO.N,Net-(D2-Pad2)*%
X98465800Y-68700800D02*
X96510000Y-66745000D01*
X98465800Y-73780800D02*
X98465800Y-68700800D01*
%TD*%
D23*
%TO.N,GND*%
X86198001Y-62444628D02*
X86131689Y-62424513D01*
X86057000Y-62417157D01*
X84357000Y-62417157D01*
X84282311Y-62424513D01*
X84210492Y-62446299D01*
X84144304Y-62481678D01*
X84086289Y-62529289D01*
X84038678Y-62587304D01*
X84003299Y-62653492D01*
X83981513Y-62725311D01*
X83974157Y-62800000D01*
X83974157Y-64500000D01*
X83981513Y-64574689D01*
X84003299Y-64646508D01*
X84038678Y-64712696D01*
X84086289Y-64770711D01*
X84144304Y-64818322D01*
X84210492Y-64853701D01*
X84282311Y-64875487D01*
X84357000Y-64882843D01*
X84576000Y-64882843D01*
X84576000Y-65469009D01*
X84572948Y-65500000D01*
X84576000Y-65530990D01*
X84576000Y-65530997D01*
X84585130Y-65623697D01*
X84621211Y-65742641D01*
X84679804Y-65852260D01*
X84758657Y-65948343D01*
X84782737Y-65968105D01*
X93984899Y-75170268D01*
X94004657Y-75194343D01*
X94028732Y-75214101D01*
X94028734Y-75214103D01*
X94100739Y-75273196D01*
X94210358Y-75331789D01*
X94329302Y-75367870D01*
X94453000Y-75380053D01*
X94483998Y-75377000D01*
X97852157Y-75377000D01*
X97852157Y-76046000D01*
X97859513Y-76120689D01*
X97881299Y-76192508D01*
X97887664Y-76204415D01*
X97893207Y-76260697D01*
X97926429Y-76370216D01*
X97980379Y-76471149D01*
X98052983Y-76559619D01*
X98075160Y-76577819D01*
X100454175Y-78956834D01*
X100314243Y-78929000D01*
X100071757Y-78929000D01*
X99833931Y-78976307D01*
X99609903Y-79069102D01*
X99408283Y-79203820D01*
X99236820Y-79375283D01*
X99102102Y-79576903D01*
X99009307Y-79800931D01*
X98962000Y-80038757D01*
X98962000Y-80281243D01*
X99009307Y-80519069D01*
X99102102Y-80743097D01*
X99236820Y-80944717D01*
X99408283Y-81116180D01*
X99609903Y-81250898D01*
X99833931Y-81343693D01*
X100071757Y-81391000D01*
X100314243Y-81391000D01*
X100552069Y-81343693D01*
X100776097Y-81250898D01*
X100977717Y-81116180D01*
X101149180Y-80944717D01*
X101283898Y-80743097D01*
X101376693Y-80519069D01*
X101424000Y-80281243D01*
X101424000Y-80038757D01*
X101396166Y-79898825D01*
X101507657Y-80010317D01*
X101502000Y-80038757D01*
X101502000Y-80281243D01*
X101549307Y-80519069D01*
X101642102Y-80743097D01*
X101776820Y-80944717D01*
X101948283Y-81116180D01*
X102149903Y-81250898D01*
X102373931Y-81343693D01*
X102611757Y-81391000D01*
X102854243Y-81391000D01*
X103092069Y-81343693D01*
X103316097Y-81250898D01*
X103517717Y-81116180D01*
X103689180Y-80944717D01*
X103823898Y-80743097D01*
X103916693Y-80519069D01*
X103964000Y-80281243D01*
X103964000Y-80038757D01*
X103916693Y-79800931D01*
X103823898Y-79576903D01*
X103689180Y-79375283D01*
X103517717Y-79203820D01*
X103316097Y-79069102D01*
X103092069Y-78976307D01*
X102854243Y-78929000D01*
X102611757Y-78929000D01*
X102373931Y-78976307D01*
X102192227Y-79051571D01*
X99561571Y-76420916D01*
X99631508Y-76399701D01*
X99685000Y-76371108D01*
X99738492Y-76399701D01*
X99810311Y-76421487D01*
X99885000Y-76428843D01*
X100285000Y-76428843D01*
X100359689Y-76421487D01*
X100431508Y-76399701D01*
X100460000Y-76384471D01*
X100488492Y-76399701D01*
X100560311Y-76421487D01*
X100635000Y-76428843D01*
X101135000Y-76428843D01*
X101209689Y-76421487D01*
X101281508Y-76399701D01*
X101347696Y-76364322D01*
X101405711Y-76316711D01*
X101426483Y-76291400D01*
X103259032Y-76291400D01*
X104515001Y-77547370D01*
X104515000Y-81469631D01*
X103915632Y-82069000D01*
X103791890Y-82069000D01*
X103689180Y-81915283D01*
X103517717Y-81743820D01*
X103316097Y-81609102D01*
X103092069Y-81516307D01*
X102854243Y-81469000D01*
X102611757Y-81469000D01*
X102373931Y-81516307D01*
X102149903Y-81609102D01*
X101948283Y-81743820D01*
X101776820Y-81915283D01*
X101642102Y-82116903D01*
X101549307Y-82340931D01*
X101502000Y-82578757D01*
X101502000Y-82821243D01*
X101549307Y-83059069D01*
X101642102Y-83283097D01*
X101776820Y-83484717D01*
X101948283Y-83656180D01*
X102149903Y-83790898D01*
X102373931Y-83883693D01*
X102611757Y-83931000D01*
X102854243Y-83931000D01*
X103092069Y-83883693D01*
X103316097Y-83790898D01*
X103517717Y-83656180D01*
X103689180Y-83484717D01*
X103791890Y-83331000D01*
X104146010Y-83331000D01*
X104177000Y-83334052D01*
X104207990Y-83331000D01*
X104207998Y-83331000D01*
X104300698Y-83321870D01*
X104419642Y-83285789D01*
X104529261Y-83227196D01*
X104625343Y-83148343D01*
X104645105Y-83124263D01*
X105570269Y-82199100D01*
X105594343Y-82179343D01*
X105673196Y-82083261D01*
X105731789Y-81973642D01*
X105767870Y-81854698D01*
X105777000Y-81761998D01*
X105777000Y-81761991D01*
X105780052Y-81731000D01*
X105777000Y-81700010D01*
X105777000Y-77316998D01*
X105780053Y-77286000D01*
X105767870Y-77162302D01*
X105731789Y-77043358D01*
X105673196Y-76933739D01*
X105614103Y-76861734D01*
X105614101Y-76861732D01*
X105594343Y-76837657D01*
X105570268Y-76817899D01*
X104387369Y-75635000D01*
X111369000Y-75635000D01*
X111369000Y-83255000D01*
X111371440Y-83279776D01*
X111378667Y-83303601D01*
X111390403Y-83325557D01*
X111406197Y-83344803D01*
X111425443Y-83360597D01*
X111447399Y-83372333D01*
X111471224Y-83379560D01*
X111496000Y-83382000D01*
X119116000Y-83382000D01*
X119140776Y-83379560D01*
X119164601Y-83372333D01*
X119186557Y-83360597D01*
X119205803Y-83344803D01*
X119221597Y-83325557D01*
X119233333Y-83303601D01*
X119240560Y-83279776D01*
X119243000Y-83255000D01*
X119243000Y-83013357D01*
X137105091Y-83013357D01*
X137163322Y-83577869D01*
X137330565Y-84120174D01*
X137585550Y-84597220D01*
X137932556Y-84887839D01*
X139820395Y-83000000D01*
X140179605Y-83000000D01*
X142067444Y-84887839D01*
X142414450Y-84597220D01*
X142679659Y-84095494D01*
X142841890Y-83551668D01*
X142894909Y-82986643D01*
X142836678Y-82422131D01*
X142669435Y-81879826D01*
X142414450Y-81402780D01*
X142067444Y-81112161D01*
X140179605Y-83000000D01*
X139820395Y-83000000D01*
X137932556Y-81112161D01*
X137585550Y-81402780D01*
X137320341Y-81904506D01*
X137158110Y-82448332D01*
X137105091Y-83013357D01*
X119243000Y-83013357D01*
X119243000Y-80932556D01*
X138112161Y-80932556D01*
X140000000Y-82820395D01*
X141887839Y-80932556D01*
X141597220Y-80585550D01*
X141095494Y-80320341D01*
X140551668Y-80158110D01*
X139986643Y-80105091D01*
X139422131Y-80163322D01*
X138879826Y-80330565D01*
X138402780Y-80585550D01*
X138112161Y-80932556D01*
X119243000Y-80932556D01*
X119243000Y-77726927D01*
X124835800Y-77726927D01*
X124835800Y-77861073D01*
X124861971Y-77992640D01*
X124913306Y-78116574D01*
X124987833Y-78228112D01*
X125082688Y-78322967D01*
X125194226Y-78397494D01*
X125318160Y-78448829D01*
X125449727Y-78475000D01*
X125583873Y-78475000D01*
X125715440Y-78448829D01*
X125839374Y-78397494D01*
X125923195Y-78341487D01*
X126007016Y-78397494D01*
X126130950Y-78448829D01*
X126262517Y-78475000D01*
X126396663Y-78475000D01*
X126528230Y-78448829D01*
X126652164Y-78397494D01*
X126735998Y-78341478D01*
X126819832Y-78397494D01*
X126943766Y-78448829D01*
X127075333Y-78475000D01*
X127209479Y-78475000D01*
X127341046Y-78448829D01*
X127464980Y-78397494D01*
X127576518Y-78322967D01*
X127671373Y-78228112D01*
X127745900Y-78116574D01*
X127797235Y-77992640D01*
X127823406Y-77861073D01*
X127823406Y-77726927D01*
X127797235Y-77595360D01*
X127745900Y-77471426D01*
X127723400Y-77437752D01*
X127723400Y-76428843D01*
X128186000Y-76428843D01*
X128260689Y-76421487D01*
X128332508Y-76399701D01*
X128398696Y-76364322D01*
X128456711Y-76316711D01*
X128504322Y-76258696D01*
X128539701Y-76192508D01*
X128561487Y-76120689D01*
X128568843Y-76046000D01*
X128568843Y-75246000D01*
X128561487Y-75171311D01*
X128539701Y-75099492D01*
X128504322Y-75033304D01*
X128456711Y-74975289D01*
X128398696Y-74927678D01*
X128332508Y-74892299D01*
X128260689Y-74870513D01*
X128186000Y-74863157D01*
X127686000Y-74863157D01*
X127611311Y-74870513D01*
X127539492Y-74892299D01*
X127511000Y-74907529D01*
X127482508Y-74892299D01*
X127410689Y-74870513D01*
X127336000Y-74863157D01*
X126936000Y-74863157D01*
X126861311Y-74870513D01*
X126789492Y-74892299D01*
X126736000Y-74920892D01*
X126682508Y-74892299D01*
X126610689Y-74870513D01*
X126536000Y-74863157D01*
X126136000Y-74863157D01*
X126061311Y-74870513D01*
X125989492Y-74892299D01*
X125961000Y-74907529D01*
X125932508Y-74892299D01*
X125860689Y-74870513D01*
X125786000Y-74863157D01*
X125286000Y-74863157D01*
X125211311Y-74870513D01*
X125139492Y-74892299D01*
X125073304Y-74927678D01*
X125015289Y-74975289D01*
X124967678Y-75033304D01*
X124932299Y-75099492D01*
X124910513Y-75171311D01*
X124903157Y-75246000D01*
X124903157Y-76046000D01*
X124910513Y-76120689D01*
X124932299Y-76192508D01*
X124935800Y-76199058D01*
X124935801Y-77437760D01*
X124913306Y-77471426D01*
X124861971Y-77595360D01*
X124835800Y-77726927D01*
X119243000Y-77726927D01*
X119243000Y-75635000D01*
X119240560Y-75610224D01*
X119233333Y-75586399D01*
X119221597Y-75564443D01*
X119205803Y-75545197D01*
X119186557Y-75529403D01*
X119164601Y-75517667D01*
X119140776Y-75510440D01*
X119116000Y-75508000D01*
X111496000Y-75508000D01*
X111471224Y-75510440D01*
X111447399Y-75517667D01*
X111425443Y-75529403D01*
X111406197Y-75545197D01*
X111390403Y-75564443D01*
X111378667Y-75586399D01*
X111371440Y-75610224D01*
X111369000Y-75635000D01*
X104387369Y-75635000D01*
X103988505Y-75236137D01*
X103968743Y-75212057D01*
X103872661Y-75133204D01*
X103763042Y-75074611D01*
X103644098Y-75038530D01*
X103551398Y-75029400D01*
X103551390Y-75029400D01*
X103520400Y-75026348D01*
X103489410Y-75029400D01*
X101509800Y-75029400D01*
X101509800Y-74878587D01*
X101512852Y-74847599D01*
X101509800Y-74816612D01*
X101509800Y-74816602D01*
X101500670Y-74723902D01*
X101464589Y-74604958D01*
X101412801Y-74508071D01*
X101453322Y-74458696D01*
X101488701Y-74392508D01*
X101510487Y-74320689D01*
X101517843Y-74246000D01*
X101517843Y-73446000D01*
X101510487Y-73371311D01*
X101508127Y-73363530D01*
X105790646Y-69081012D01*
X105812817Y-69062817D01*
X105885421Y-68974348D01*
X105939371Y-68873415D01*
X105972593Y-68763896D01*
X105981000Y-68678540D01*
X105981000Y-68678538D01*
X105983811Y-68650001D01*
X105981000Y-68621464D01*
X105981000Y-67836767D01*
X105983097Y-67835898D01*
X106184717Y-67701180D01*
X106356180Y-67529717D01*
X106410691Y-67448134D01*
X108879000Y-67448134D01*
X108879000Y-67739866D01*
X108935914Y-68025992D01*
X109047555Y-68295517D01*
X109209632Y-68538083D01*
X109415917Y-68744368D01*
X109658483Y-68906445D01*
X109928008Y-69018086D01*
X110214134Y-69075000D01*
X110505866Y-69075000D01*
X110791992Y-69018086D01*
X111061517Y-68906445D01*
X111304083Y-68744368D01*
X111510368Y-68538083D01*
X111672445Y-68295517D01*
X111784086Y-68025992D01*
X111841000Y-67739866D01*
X111841000Y-67448134D01*
X111784086Y-67162008D01*
X111672445Y-66892483D01*
X111510368Y-66649917D01*
X111304083Y-66443632D01*
X111061517Y-66281555D01*
X110791992Y-66169914D01*
X110505866Y-66113000D01*
X110214134Y-66113000D01*
X109928008Y-66169914D01*
X109658483Y-66281555D01*
X109415917Y-66443632D01*
X109209632Y-66649917D01*
X109047555Y-66892483D01*
X108935914Y-67162008D01*
X108879000Y-67448134D01*
X106410691Y-67448134D01*
X106490898Y-67328097D01*
X106583693Y-67104069D01*
X106631000Y-66866243D01*
X106631000Y-66623757D01*
X106583693Y-66385931D01*
X106490898Y-66161903D01*
X106356180Y-65960283D01*
X106184717Y-65788820D01*
X105983097Y-65654102D01*
X105759069Y-65561307D01*
X105521243Y-65514000D01*
X105278757Y-65514000D01*
X105040931Y-65561307D01*
X104816903Y-65654102D01*
X104615283Y-65788820D01*
X104443820Y-65960283D01*
X104309102Y-66161903D01*
X104216307Y-66385931D01*
X104169000Y-66623757D01*
X104169000Y-66866243D01*
X104216307Y-67104069D01*
X104309102Y-67328097D01*
X104443820Y-67529717D01*
X104615283Y-67701180D01*
X104816903Y-67835898D01*
X104819000Y-67836767D01*
X104819000Y-68409342D01*
X100488156Y-72740187D01*
X100465984Y-72758383D01*
X100421343Y-72812779D01*
X100393379Y-72846853D01*
X100379501Y-72872817D01*
X100339429Y-72947785D01*
X100313703Y-73032593D01*
X100306207Y-73057305D01*
X100305432Y-73065169D01*
X100285000Y-73063157D01*
X99885000Y-73063157D01*
X99810311Y-73070513D01*
X99738492Y-73092299D01*
X99685000Y-73120892D01*
X99631508Y-73092299D01*
X99559689Y-73070513D01*
X99485000Y-73063157D01*
X99085000Y-73063157D01*
X99046800Y-73066919D01*
X99046800Y-68729340D01*
X99049611Y-68700800D01*
X99038393Y-68586904D01*
X99005171Y-68477385D01*
X98951221Y-68376452D01*
X98878617Y-68287983D01*
X98856445Y-68269787D01*
X98181658Y-67595000D01*
X101627157Y-67595000D01*
X101634513Y-67669689D01*
X101656299Y-67741508D01*
X101691678Y-67807696D01*
X101739289Y-67865711D01*
X101797304Y-67913322D01*
X101863492Y-67948701D01*
X101935311Y-67970487D01*
X102010000Y-67977843D01*
X102637750Y-67976000D01*
X102733000Y-67880750D01*
X102733000Y-66872000D01*
X102987000Y-66872000D01*
X102987000Y-67880750D01*
X103082250Y-67976000D01*
X103710000Y-67977843D01*
X103784689Y-67970487D01*
X103856508Y-67948701D01*
X103922696Y-67913322D01*
X103980711Y-67865711D01*
X104028322Y-67807696D01*
X104063701Y-67741508D01*
X104085487Y-67669689D01*
X104092843Y-67595000D01*
X104091000Y-66967250D01*
X103995750Y-66872000D01*
X102987000Y-66872000D01*
X102733000Y-66872000D01*
X101724250Y-66872000D01*
X101629000Y-66967250D01*
X101627157Y-67595000D01*
X98181658Y-67595000D01*
X97692824Y-67106167D01*
X97693693Y-67104069D01*
X97741000Y-66866243D01*
X97741000Y-66623757D01*
X97693693Y-66385931D01*
X97600898Y-66161903D01*
X97466180Y-65960283D01*
X97400897Y-65895000D01*
X101627157Y-65895000D01*
X101629000Y-66522750D01*
X101724250Y-66618000D01*
X102733000Y-66618000D01*
X102733000Y-65609250D01*
X102987000Y-65609250D01*
X102987000Y-66618000D01*
X103995750Y-66618000D01*
X104091000Y-66522750D01*
X104092843Y-65895000D01*
X104085487Y-65820311D01*
X104063701Y-65748492D01*
X104028322Y-65682304D01*
X103980711Y-65624289D01*
X103922696Y-65576678D01*
X103856508Y-65541299D01*
X103784689Y-65519513D01*
X103710000Y-65512157D01*
X103082250Y-65514000D01*
X102987000Y-65609250D01*
X102733000Y-65609250D01*
X102637750Y-65514000D01*
X102010000Y-65512157D01*
X101935311Y-65519513D01*
X101863492Y-65541299D01*
X101797304Y-65576678D01*
X101739289Y-65624289D01*
X101691678Y-65682304D01*
X101656299Y-65748492D01*
X101634513Y-65820311D01*
X101627157Y-65895000D01*
X97400897Y-65895000D01*
X97294717Y-65788820D01*
X97093097Y-65654102D01*
X96869069Y-65561307D01*
X96631243Y-65514000D01*
X96388757Y-65514000D01*
X96150931Y-65561307D01*
X95926903Y-65654102D01*
X95725283Y-65788820D01*
X95553820Y-65960283D01*
X95419102Y-66161903D01*
X95326307Y-66385931D01*
X95279000Y-66623757D01*
X95279000Y-66866243D01*
X95326307Y-67104069D01*
X95419102Y-67328097D01*
X95553820Y-67529717D01*
X95725283Y-67701180D01*
X95926903Y-67835898D01*
X96150931Y-67928693D01*
X96388757Y-67976000D01*
X96631243Y-67976000D01*
X96869069Y-67928693D01*
X96871167Y-67927824D01*
X97884801Y-68941459D01*
X97884800Y-73292942D01*
X97881299Y-73299492D01*
X97859513Y-73371311D01*
X97852157Y-73446000D01*
X97852157Y-74115000D01*
X94714369Y-74115000D01*
X88194369Y-67595000D01*
X92737157Y-67595000D01*
X92744513Y-67669689D01*
X92766299Y-67741508D01*
X92801678Y-67807696D01*
X92849289Y-67865711D01*
X92907304Y-67913322D01*
X92973492Y-67948701D01*
X93045311Y-67970487D01*
X93120000Y-67977843D01*
X93747750Y-67976000D01*
X93843000Y-67880750D01*
X93843000Y-66872000D01*
X94097000Y-66872000D01*
X94097000Y-67880750D01*
X94192250Y-67976000D01*
X94820000Y-67977843D01*
X94894689Y-67970487D01*
X94966508Y-67948701D01*
X95032696Y-67913322D01*
X95090711Y-67865711D01*
X95138322Y-67807696D01*
X95173701Y-67741508D01*
X95195487Y-67669689D01*
X95202843Y-67595000D01*
X95201000Y-66967250D01*
X95105750Y-66872000D01*
X94097000Y-66872000D01*
X93843000Y-66872000D01*
X92834250Y-66872000D01*
X92739000Y-66967250D01*
X92737157Y-67595000D01*
X88194369Y-67595000D01*
X86494369Y-65895000D01*
X92737157Y-65895000D01*
X92739000Y-66522750D01*
X92834250Y-66618000D01*
X93843000Y-66618000D01*
X93843000Y-65609250D01*
X94097000Y-65609250D01*
X94097000Y-66618000D01*
X95105750Y-66618000D01*
X95201000Y-66522750D01*
X95202843Y-65895000D01*
X95195487Y-65820311D01*
X95173701Y-65748492D01*
X95138322Y-65682304D01*
X95090711Y-65624289D01*
X95032696Y-65576678D01*
X94966508Y-65541299D01*
X94894689Y-65519513D01*
X94820000Y-65512157D01*
X94192250Y-65514000D01*
X94097000Y-65609250D01*
X93843000Y-65609250D01*
X93747750Y-65514000D01*
X93120000Y-65512157D01*
X93045311Y-65519513D01*
X92973492Y-65541299D01*
X92907304Y-65576678D01*
X92849289Y-65624289D01*
X92801678Y-65682304D01*
X92766299Y-65748492D01*
X92744513Y-65820311D01*
X92737157Y-65895000D01*
X86494369Y-65895000D01*
X85838000Y-65238632D01*
X85838000Y-64882843D01*
X86057000Y-64882843D01*
X86131689Y-64875487D01*
X86203508Y-64853701D01*
X86269696Y-64818322D01*
X86327711Y-64770711D01*
X86375322Y-64712696D01*
X86410701Y-64646508D01*
X86432487Y-64574689D01*
X86439843Y-64500000D01*
X86439843Y-64196615D01*
X86447879Y-64200910D01*
X86524410Y-64224125D01*
X86584059Y-64230000D01*
X86584060Y-64230000D01*
X86604000Y-64231964D01*
X86623941Y-64230000D01*
X110733103Y-64230000D01*
X110653820Y-64309283D01*
X110519102Y-64510903D01*
X110426307Y-64734931D01*
X110379000Y-64972757D01*
X110379000Y-65215243D01*
X110426307Y-65453069D01*
X110519102Y-65677097D01*
X110653820Y-65878717D01*
X110825283Y-66050180D01*
X111026903Y-66184898D01*
X111250931Y-66277693D01*
X111488757Y-66325000D01*
X111731243Y-66325000D01*
X111969069Y-66277693D01*
X111971167Y-66276824D01*
X112312001Y-66617659D01*
X112312000Y-70907460D01*
X112309189Y-70936000D01*
X112312202Y-70966586D01*
X112320407Y-71049895D01*
X112353629Y-71159414D01*
X112407579Y-71260347D01*
X112480183Y-71348817D01*
X112502360Y-71367017D01*
X113985987Y-72850645D01*
X114004183Y-72872817D01*
X114092652Y-72945421D01*
X114193585Y-72999371D01*
X114303104Y-73032593D01*
X114388460Y-73041000D01*
X114388462Y-73041000D01*
X114416999Y-73043811D01*
X114445536Y-73041000D01*
X124437943Y-73041000D01*
X124903157Y-73506215D01*
X124903157Y-74246000D01*
X124910513Y-74320689D01*
X124932299Y-74392508D01*
X124967678Y-74458696D01*
X125015289Y-74516711D01*
X125073304Y-74564322D01*
X125139492Y-74599701D01*
X125211311Y-74621487D01*
X125286000Y-74628843D01*
X125786000Y-74628843D01*
X125860689Y-74621487D01*
X125932508Y-74599701D01*
X125961000Y-74584471D01*
X125989492Y-74599701D01*
X126061311Y-74621487D01*
X126136000Y-74628843D01*
X126536000Y-74628843D01*
X126610689Y-74621487D01*
X126682508Y-74599701D01*
X126736000Y-74571108D01*
X126789492Y-74599701D01*
X126861311Y-74621487D01*
X126936000Y-74628843D01*
X127336000Y-74628843D01*
X127410689Y-74621487D01*
X127482508Y-74599701D01*
X127511000Y-74584471D01*
X127539492Y-74599701D01*
X127611311Y-74621487D01*
X127686000Y-74628843D01*
X128186000Y-74628843D01*
X128260689Y-74621487D01*
X128332508Y-74599701D01*
X128398696Y-74564322D01*
X128456711Y-74516711D01*
X128504322Y-74458696D01*
X128539701Y-74392508D01*
X128561487Y-74320689D01*
X128568843Y-74246000D01*
X128568843Y-73446000D01*
X128561487Y-73371311D01*
X128539701Y-73299492D01*
X128504322Y-73233304D01*
X128456711Y-73175289D01*
X128398696Y-73127678D01*
X128332508Y-73092299D01*
X128260689Y-73070513D01*
X128186000Y-73063157D01*
X127723400Y-73063157D01*
X127723400Y-72421257D01*
X128316824Y-71827834D01*
X128398058Y-71882113D01*
X128540191Y-71940987D01*
X128691078Y-71971000D01*
X128844922Y-71971000D01*
X128995809Y-71940987D01*
X129137942Y-71882113D01*
X129265859Y-71796642D01*
X129291501Y-71771000D01*
X137121460Y-71771000D01*
X137150000Y-71773811D01*
X137178540Y-71771000D01*
X137263896Y-71762593D01*
X137373415Y-71729371D01*
X137474348Y-71675421D01*
X137562817Y-71602817D01*
X137581017Y-71580640D01*
X138250644Y-70911014D01*
X138272816Y-70892818D01*
X138345420Y-70804349D01*
X138399370Y-70703416D01*
X138432592Y-70593897D01*
X138440999Y-70508541D01*
X138440999Y-70508539D01*
X138443810Y-70480002D01*
X138440999Y-70451465D01*
X138440999Y-65986100D01*
X140797505Y-65986100D01*
X140889523Y-66164078D01*
X141110207Y-66264566D01*
X141346255Y-66320069D01*
X141588596Y-66328456D01*
X141827917Y-66289402D01*
X142055020Y-66204411D01*
X142130477Y-66164078D01*
X142222495Y-65986100D01*
X141510000Y-65273605D01*
X140797505Y-65986100D01*
X138440999Y-65986100D01*
X138440999Y-65972538D01*
X138443810Y-65943998D01*
X138432592Y-65830103D01*
X138399370Y-65720584D01*
X138396106Y-65714477D01*
X138345420Y-65619651D01*
X138272816Y-65531182D01*
X138250645Y-65512987D01*
X138192824Y-65455166D01*
X138193693Y-65453069D01*
X138241000Y-65215243D01*
X138241000Y-64972757D01*
X138193693Y-64734931D01*
X138100898Y-64510903D01*
X137966180Y-64309283D01*
X137886897Y-64230000D01*
X140625548Y-64230000D01*
X140545970Y-64309578D01*
X140617898Y-64381506D01*
X140439922Y-64473523D01*
X140339434Y-64694207D01*
X140283931Y-64930255D01*
X140275544Y-65172596D01*
X140314598Y-65411917D01*
X140399589Y-65639020D01*
X140439922Y-65714477D01*
X140617900Y-65806495D01*
X141330395Y-65094000D01*
X141316253Y-65079858D01*
X141495858Y-64900253D01*
X141510000Y-64914395D01*
X141524143Y-64900253D01*
X141703748Y-65079858D01*
X141689605Y-65094000D01*
X142402100Y-65806495D01*
X142580078Y-65714477D01*
X142680566Y-65493793D01*
X142736069Y-65257745D01*
X142744456Y-65015404D01*
X142705402Y-64776083D01*
X142620411Y-64548980D01*
X142580078Y-64473523D01*
X142402102Y-64381506D01*
X142474030Y-64309578D01*
X142394452Y-64230000D01*
X143856000Y-64230000D01*
X143856000Y-66595549D01*
X143704083Y-66443632D01*
X143461517Y-66281555D01*
X143191992Y-66169914D01*
X142905866Y-66113000D01*
X142614134Y-66113000D01*
X142328008Y-66169914D01*
X142058483Y-66281555D01*
X141815917Y-66443632D01*
X141609632Y-66649917D01*
X141447555Y-66892483D01*
X141335914Y-67162008D01*
X141279000Y-67448134D01*
X141279000Y-67739866D01*
X141335914Y-68025992D01*
X141447555Y-68295517D01*
X141609632Y-68538083D01*
X141815917Y-68744368D01*
X142058483Y-68906445D01*
X142328008Y-69018086D01*
X142614134Y-69075000D01*
X142905866Y-69075000D01*
X143191992Y-69018086D01*
X143461517Y-68906445D01*
X143704083Y-68744368D01*
X143856000Y-68592451D01*
X143856001Y-82727136D01*
X143796518Y-83333790D01*
X143626102Y-83898235D01*
X143349298Y-84418827D01*
X142976653Y-84875735D01*
X142522349Y-85251568D01*
X142003704Y-85531998D01*
X141440467Y-85706349D01*
X140834956Y-85769990D01*
X140832145Y-85770000D01*
X140794080Y-85770000D01*
X141120174Y-85669435D01*
X141597220Y-85414450D01*
X141887839Y-85067444D01*
X140000000Y-83179605D01*
X138112161Y-85067444D01*
X138402780Y-85414450D01*
X138904506Y-85679659D01*
X139207344Y-85770000D01*
X79638854Y-85770000D01*
X79032210Y-85710518D01*
X78467765Y-85540102D01*
X77947173Y-85263298D01*
X77490265Y-84890653D01*
X77114432Y-84436349D01*
X76834002Y-83917704D01*
X76720179Y-83550000D01*
X88800157Y-83550000D01*
X88807513Y-83624689D01*
X88829299Y-83696508D01*
X88864678Y-83762696D01*
X88912289Y-83820711D01*
X88970304Y-83868322D01*
X89036492Y-83903701D01*
X89108311Y-83925487D01*
X89183000Y-83932843D01*
X89810750Y-83931000D01*
X89906000Y-83835750D01*
X89906000Y-82827000D01*
X90160000Y-82827000D01*
X90160000Y-83835750D01*
X90255250Y-83931000D01*
X90883000Y-83932843D01*
X90957689Y-83925487D01*
X91029508Y-83903701D01*
X91095696Y-83868322D01*
X91153711Y-83820711D01*
X91201322Y-83762696D01*
X91236701Y-83696508D01*
X91258487Y-83624689D01*
X91265843Y-83550000D01*
X91264279Y-83016981D01*
X91383505Y-83016981D01*
X91468201Y-83242949D01*
X91595353Y-83448052D01*
X91760076Y-83624408D01*
X91956039Y-83765239D01*
X92175712Y-83865134D01*
X92256020Y-83889489D01*
X92446000Y-83828627D01*
X92446000Y-82827000D01*
X92700000Y-82827000D01*
X92700000Y-83828627D01*
X92889980Y-83889489D01*
X92970288Y-83865134D01*
X93189961Y-83765239D01*
X93385924Y-83624408D01*
X93550647Y-83448052D01*
X93677799Y-83242949D01*
X93762495Y-83016981D01*
X93923505Y-83016981D01*
X94008201Y-83242949D01*
X94135353Y-83448052D01*
X94300076Y-83624408D01*
X94496039Y-83765239D01*
X94715712Y-83865134D01*
X94796020Y-83889489D01*
X94986000Y-83828627D01*
X94986000Y-82827000D01*
X95240000Y-82827000D01*
X95240000Y-83828627D01*
X95429980Y-83889489D01*
X95510288Y-83865134D01*
X95729961Y-83765239D01*
X95925924Y-83624408D01*
X96090647Y-83448052D01*
X96217799Y-83242949D01*
X96302495Y-83016981D01*
X96463505Y-83016981D01*
X96548201Y-83242949D01*
X96675353Y-83448052D01*
X96840076Y-83624408D01*
X97036039Y-83765239D01*
X97255712Y-83865134D01*
X97336020Y-83889489D01*
X97526000Y-83828627D01*
X97526000Y-82827000D01*
X97780000Y-82827000D01*
X97780000Y-83828627D01*
X97969980Y-83889489D01*
X98050288Y-83865134D01*
X98269961Y-83765239D01*
X98465924Y-83624408D01*
X98630647Y-83448052D01*
X98757799Y-83242949D01*
X98842495Y-83016981D01*
X99003505Y-83016981D01*
X99088201Y-83242949D01*
X99215353Y-83448052D01*
X99380076Y-83624408D01*
X99576039Y-83765239D01*
X99795712Y-83865134D01*
X99876020Y-83889489D01*
X100066000Y-83828627D01*
X100066000Y-82827000D01*
X100320000Y-82827000D01*
X100320000Y-83828627D01*
X100509980Y-83889489D01*
X100590288Y-83865134D01*
X100809961Y-83765239D01*
X101005924Y-83624408D01*
X101170647Y-83448052D01*
X101297799Y-83242949D01*
X101382495Y-83016981D01*
X101322187Y-82827000D01*
X100320000Y-82827000D01*
X100066000Y-82827000D01*
X99063813Y-82827000D01*
X99003505Y-83016981D01*
X98842495Y-83016981D01*
X98782187Y-82827000D01*
X97780000Y-82827000D01*
X97526000Y-82827000D01*
X96523813Y-82827000D01*
X96463505Y-83016981D01*
X96302495Y-83016981D01*
X96242187Y-82827000D01*
X95240000Y-82827000D01*
X94986000Y-82827000D01*
X93983813Y-82827000D01*
X93923505Y-83016981D01*
X93762495Y-83016981D01*
X93702187Y-82827000D01*
X92700000Y-82827000D01*
X92446000Y-82827000D01*
X91443813Y-82827000D01*
X91383505Y-83016981D01*
X91264279Y-83016981D01*
X91264000Y-82922250D01*
X91168750Y-82827000D01*
X90160000Y-82827000D01*
X89906000Y-82827000D01*
X88897250Y-82827000D01*
X88802000Y-82922250D01*
X88800157Y-83550000D01*
X76720179Y-83550000D01*
X76659651Y-83354467D01*
X76596010Y-82748956D01*
X76596000Y-82746145D01*
X76596000Y-81850000D01*
X88800157Y-81850000D01*
X88802000Y-82477750D01*
X88897250Y-82573000D01*
X89906000Y-82573000D01*
X89906000Y-81564250D01*
X90160000Y-81564250D01*
X90160000Y-82573000D01*
X91168750Y-82573000D01*
X91264000Y-82477750D01*
X91264278Y-82383019D01*
X91383505Y-82383019D01*
X91443813Y-82573000D01*
X92446000Y-82573000D01*
X92446000Y-81571373D01*
X92700000Y-81571373D01*
X92700000Y-82573000D01*
X93702187Y-82573000D01*
X93762495Y-82383019D01*
X93923505Y-82383019D01*
X93983813Y-82573000D01*
X94986000Y-82573000D01*
X94986000Y-81571373D01*
X95240000Y-81571373D01*
X95240000Y-82573000D01*
X96242187Y-82573000D01*
X96302495Y-82383019D01*
X96463505Y-82383019D01*
X96523813Y-82573000D01*
X97526000Y-82573000D01*
X97526000Y-81571373D01*
X97780000Y-81571373D01*
X97780000Y-82573000D01*
X98782187Y-82573000D01*
X98842495Y-82383019D01*
X99003505Y-82383019D01*
X99063813Y-82573000D01*
X100066000Y-82573000D01*
X100066000Y-81571373D01*
X100320000Y-81571373D01*
X100320000Y-82573000D01*
X101322187Y-82573000D01*
X101382495Y-82383019D01*
X101297799Y-82157051D01*
X101170647Y-81951948D01*
X101005924Y-81775592D01*
X100809961Y-81634761D01*
X100590288Y-81534866D01*
X100509980Y-81510511D01*
X100320000Y-81571373D01*
X100066000Y-81571373D01*
X99876020Y-81510511D01*
X99795712Y-81534866D01*
X99576039Y-81634761D01*
X99380076Y-81775592D01*
X99215353Y-81951948D01*
X99088201Y-82157051D01*
X99003505Y-82383019D01*
X98842495Y-82383019D01*
X98757799Y-82157051D01*
X98630647Y-81951948D01*
X98465924Y-81775592D01*
X98269961Y-81634761D01*
X98050288Y-81534866D01*
X97969980Y-81510511D01*
X97780000Y-81571373D01*
X97526000Y-81571373D01*
X97336020Y-81510511D01*
X97255712Y-81534866D01*
X97036039Y-81634761D01*
X96840076Y-81775592D01*
X96675353Y-81951948D01*
X96548201Y-82157051D01*
X96463505Y-82383019D01*
X96302495Y-82383019D01*
X96217799Y-82157051D01*
X96090647Y-81951948D01*
X95925924Y-81775592D01*
X95729961Y-81634761D01*
X95510288Y-81534866D01*
X95429980Y-81510511D01*
X95240000Y-81571373D01*
X94986000Y-81571373D01*
X94796020Y-81510511D01*
X94715712Y-81534866D01*
X94496039Y-81634761D01*
X94300076Y-81775592D01*
X94135353Y-81951948D01*
X94008201Y-82157051D01*
X93923505Y-82383019D01*
X93762495Y-82383019D01*
X93677799Y-82157051D01*
X93550647Y-81951948D01*
X93385924Y-81775592D01*
X93189961Y-81634761D01*
X92970288Y-81534866D01*
X92889980Y-81510511D01*
X92700000Y-81571373D01*
X92446000Y-81571373D01*
X92256020Y-81510511D01*
X92175712Y-81534866D01*
X91956039Y-81634761D01*
X91760076Y-81775592D01*
X91595353Y-81951948D01*
X91468201Y-82157051D01*
X91383505Y-82383019D01*
X91264278Y-82383019D01*
X91265843Y-81850000D01*
X91258487Y-81775311D01*
X91236701Y-81703492D01*
X91201322Y-81637304D01*
X91153711Y-81579289D01*
X91095696Y-81531678D01*
X91029508Y-81496299D01*
X90957689Y-81474513D01*
X90883000Y-81467157D01*
X90255250Y-81469000D01*
X90160000Y-81564250D01*
X89906000Y-81564250D01*
X89810750Y-81469000D01*
X89183000Y-81467157D01*
X89108311Y-81474513D01*
X89036492Y-81496299D01*
X88970304Y-81531678D01*
X88912289Y-81579289D01*
X88864678Y-81637304D01*
X88829299Y-81703492D01*
X88807513Y-81775311D01*
X88800157Y-81850000D01*
X76596000Y-81850000D01*
X76596000Y-77067444D01*
X78112161Y-77067444D01*
X78402780Y-77414450D01*
X78904506Y-77679659D01*
X79448332Y-77841890D01*
X80013357Y-77894909D01*
X80577869Y-77836678D01*
X81120174Y-77669435D01*
X81597220Y-77414450D01*
X81887839Y-77067444D01*
X80000000Y-75179605D01*
X78112161Y-77067444D01*
X76596000Y-77067444D01*
X76596000Y-75013357D01*
X77105091Y-75013357D01*
X77163322Y-75577869D01*
X77330565Y-76120174D01*
X77585550Y-76597220D01*
X77932556Y-76887839D01*
X79820395Y-75000000D01*
X80179605Y-75000000D01*
X82067444Y-76887839D01*
X82414450Y-76597220D01*
X82679659Y-76095494D01*
X82841890Y-75551668D01*
X82894909Y-74986643D01*
X82836678Y-74422131D01*
X82669435Y-73879826D01*
X82414450Y-73402780D01*
X82067444Y-73112161D01*
X80179605Y-75000000D01*
X79820395Y-75000000D01*
X77932556Y-73112161D01*
X77585550Y-73402780D01*
X77320341Y-73904506D01*
X77158110Y-74448332D01*
X77105091Y-75013357D01*
X76596000Y-75013357D01*
X76596000Y-72932556D01*
X78112161Y-72932556D01*
X80000000Y-74820395D01*
X81887839Y-72932556D01*
X81597220Y-72585550D01*
X81095494Y-72320341D01*
X80551668Y-72158110D01*
X79986643Y-72105091D01*
X79422131Y-72163322D01*
X78879826Y-72330565D01*
X78402780Y-72585550D01*
X78112161Y-72932556D01*
X76596000Y-72932556D01*
X76596000Y-64382605D01*
X76630820Y-64434717D01*
X76802283Y-64606180D01*
X76956001Y-64708891D01*
X76956000Y-65825009D01*
X76952948Y-65856000D01*
X76956000Y-65886990D01*
X76956000Y-65886997D01*
X76965130Y-65979697D01*
X77001211Y-66098641D01*
X77059804Y-66208260D01*
X77138657Y-66304343D01*
X77162737Y-66324105D01*
X79404899Y-68566268D01*
X79424657Y-68590343D01*
X79520739Y-68669196D01*
X79630358Y-68727789D01*
X79749302Y-68763870D01*
X79842002Y-68773000D01*
X79842011Y-68773000D01*
X79872999Y-68776052D01*
X79903987Y-68773000D01*
X81817632Y-68773000D01*
X89402001Y-76357370D01*
X89402000Y-79101110D01*
X89248283Y-79203820D01*
X89076820Y-79375283D01*
X88942102Y-79576903D01*
X88849307Y-79800931D01*
X88802000Y-80038757D01*
X88802000Y-80281243D01*
X88849307Y-80519069D01*
X88942102Y-80743097D01*
X89076820Y-80944717D01*
X89248283Y-81116180D01*
X89449903Y-81250898D01*
X89673931Y-81343693D01*
X89911757Y-81391000D01*
X90154243Y-81391000D01*
X90392069Y-81343693D01*
X90616097Y-81250898D01*
X90817717Y-81116180D01*
X90989180Y-80944717D01*
X91123898Y-80743097D01*
X91216693Y-80519069D01*
X91264000Y-80281243D01*
X91264000Y-80038757D01*
X91216693Y-79800931D01*
X91123898Y-79576903D01*
X90989180Y-79375283D01*
X90817717Y-79203820D01*
X90664000Y-79101110D01*
X90664000Y-76126990D01*
X90667052Y-76096000D01*
X90664000Y-76065009D01*
X90664000Y-76065002D01*
X90654870Y-75972302D01*
X90618789Y-75853358D01*
X90560196Y-75743739D01*
X90537261Y-75715793D01*
X90501103Y-75671734D01*
X90501101Y-75671732D01*
X90481343Y-75647657D01*
X90457268Y-75627899D01*
X82547105Y-67717737D01*
X82527343Y-67693657D01*
X82431261Y-67614804D01*
X82321642Y-67556211D01*
X82202698Y-67520130D01*
X82109998Y-67511000D01*
X82109990Y-67511000D01*
X82079000Y-67507948D01*
X82048010Y-67511000D01*
X80134369Y-67511000D01*
X78218000Y-65594632D01*
X78218000Y-64708890D01*
X78371717Y-64606180D01*
X78543180Y-64434717D01*
X78677898Y-64233097D01*
X78770693Y-64009069D01*
X78818000Y-63771243D01*
X78818000Y-63528757D01*
X78896000Y-63528757D01*
X78896000Y-63771243D01*
X78943307Y-64009069D01*
X79036102Y-64233097D01*
X79170820Y-64434717D01*
X79342283Y-64606180D01*
X79496000Y-64708891D01*
X79496000Y-65571009D01*
X79492948Y-65602000D01*
X79496000Y-65632990D01*
X79496000Y-65632997D01*
X79505130Y-65725697D01*
X79541211Y-65844641D01*
X79599804Y-65954260D01*
X79678657Y-66050343D01*
X79702737Y-66070105D01*
X80674899Y-67042268D01*
X80694657Y-67066343D01*
X80790739Y-67145196D01*
X80900358Y-67203789D01*
X81019302Y-67239870D01*
X81112002Y-67249000D01*
X81112009Y-67249000D01*
X81143000Y-67252052D01*
X81173990Y-67249000D01*
X82833632Y-67249000D01*
X91942001Y-76357370D01*
X91942000Y-79101110D01*
X91788283Y-79203820D01*
X91616820Y-79375283D01*
X91482102Y-79576903D01*
X91389307Y-79800931D01*
X91342000Y-80038757D01*
X91342000Y-80281243D01*
X91389307Y-80519069D01*
X91482102Y-80743097D01*
X91616820Y-80944717D01*
X91788283Y-81116180D01*
X91989903Y-81250898D01*
X92213931Y-81343693D01*
X92451757Y-81391000D01*
X92694243Y-81391000D01*
X92932069Y-81343693D01*
X93156097Y-81250898D01*
X93357717Y-81116180D01*
X93529180Y-80944717D01*
X93663898Y-80743097D01*
X93756693Y-80519069D01*
X93804000Y-80281243D01*
X93804000Y-80038757D01*
X93882000Y-80038757D01*
X93882000Y-80281243D01*
X93929307Y-80519069D01*
X94022102Y-80743097D01*
X94156820Y-80944717D01*
X94328283Y-81116180D01*
X94529903Y-81250898D01*
X94753931Y-81343693D01*
X94991757Y-81391000D01*
X95234243Y-81391000D01*
X95472069Y-81343693D01*
X95696097Y-81250898D01*
X95897717Y-81116180D01*
X96069180Y-80944717D01*
X96203898Y-80743097D01*
X96296693Y-80519069D01*
X96344000Y-80281243D01*
X96344000Y-80038757D01*
X96422000Y-80038757D01*
X96422000Y-80281243D01*
X96469307Y-80519069D01*
X96562102Y-80743097D01*
X96696820Y-80944717D01*
X96868283Y-81116180D01*
X97069903Y-81250898D01*
X97293931Y-81343693D01*
X97531757Y-81391000D01*
X97774243Y-81391000D01*
X98012069Y-81343693D01*
X98236097Y-81250898D01*
X98437717Y-81116180D01*
X98609180Y-80944717D01*
X98743898Y-80743097D01*
X98836693Y-80519069D01*
X98884000Y-80281243D01*
X98884000Y-80038757D01*
X98836693Y-79800931D01*
X98743898Y-79576903D01*
X98609180Y-79375283D01*
X98437717Y-79203820D01*
X98236097Y-79069102D01*
X98012069Y-78976307D01*
X97774243Y-78929000D01*
X97531757Y-78929000D01*
X97293931Y-78976307D01*
X97069903Y-79069102D01*
X96868283Y-79203820D01*
X96696820Y-79375283D01*
X96562102Y-79576903D01*
X96469307Y-79800931D01*
X96422000Y-80038757D01*
X96344000Y-80038757D01*
X96296693Y-79800931D01*
X96203898Y-79576903D01*
X96069180Y-79375283D01*
X95897717Y-79203820D01*
X95696097Y-79069102D01*
X95472069Y-78976307D01*
X95234243Y-78929000D01*
X94991757Y-78929000D01*
X94753931Y-78976307D01*
X94529903Y-79069102D01*
X94328283Y-79203820D01*
X94156820Y-79375283D01*
X94022102Y-79576903D01*
X93929307Y-79800931D01*
X93882000Y-80038757D01*
X93804000Y-80038757D01*
X93756693Y-79800931D01*
X93663898Y-79576903D01*
X93529180Y-79375283D01*
X93357717Y-79203820D01*
X93204000Y-79101110D01*
X93204000Y-76126987D01*
X93207052Y-76095999D01*
X93204000Y-76065011D01*
X93204000Y-76065002D01*
X93194870Y-75972302D01*
X93158789Y-75853358D01*
X93100196Y-75743739D01*
X93077261Y-75715793D01*
X93041103Y-75671734D01*
X93041101Y-75671732D01*
X93021343Y-75647657D01*
X92997268Y-75627899D01*
X83563105Y-66193737D01*
X83543343Y-66169657D01*
X83447261Y-66090804D01*
X83337642Y-66032211D01*
X83218698Y-65996130D01*
X83125998Y-65987000D01*
X83125990Y-65987000D01*
X83095000Y-65983948D01*
X83064010Y-65987000D01*
X81404369Y-65987000D01*
X80758000Y-65340632D01*
X80758000Y-64708890D01*
X80911717Y-64606180D01*
X81083180Y-64434717D01*
X81217898Y-64233097D01*
X81310693Y-64009069D01*
X81319064Y-63966981D01*
X81477505Y-63966981D01*
X81562201Y-64192949D01*
X81689353Y-64398052D01*
X81854076Y-64574408D01*
X82050039Y-64715239D01*
X82269712Y-64815134D01*
X82350020Y-64839489D01*
X82540000Y-64778627D01*
X82540000Y-63777000D01*
X82794000Y-63777000D01*
X82794000Y-64778627D01*
X82983980Y-64839489D01*
X83064288Y-64815134D01*
X83283961Y-64715239D01*
X83479924Y-64574408D01*
X83644647Y-64398052D01*
X83771799Y-64192949D01*
X83856495Y-63966981D01*
X83796187Y-63777000D01*
X82794000Y-63777000D01*
X82540000Y-63777000D01*
X81537813Y-63777000D01*
X81477505Y-63966981D01*
X81319064Y-63966981D01*
X81358000Y-63771243D01*
X81358000Y-63528757D01*
X81319065Y-63333019D01*
X81477505Y-63333019D01*
X81537813Y-63523000D01*
X82540000Y-63523000D01*
X82540000Y-62521373D01*
X82794000Y-62521373D01*
X82794000Y-63523000D01*
X83796187Y-63523000D01*
X83856495Y-63333019D01*
X83771799Y-63107051D01*
X83644647Y-62901948D01*
X83479924Y-62725592D01*
X83283961Y-62584761D01*
X83064288Y-62484866D01*
X82983980Y-62460511D01*
X82794000Y-62521373D01*
X82540000Y-62521373D01*
X82350020Y-62460511D01*
X82269712Y-62484866D01*
X82050039Y-62584761D01*
X81854076Y-62725592D01*
X81689353Y-62901948D01*
X81562201Y-63107051D01*
X81477505Y-63333019D01*
X81319065Y-63333019D01*
X81310693Y-63290931D01*
X81217898Y-63066903D01*
X81083180Y-62865283D01*
X80911717Y-62693820D01*
X80710097Y-62559102D01*
X80486069Y-62466307D01*
X80248243Y-62419000D01*
X80005757Y-62419000D01*
X79767931Y-62466307D01*
X79543903Y-62559102D01*
X79342283Y-62693820D01*
X79170820Y-62865283D01*
X79036102Y-63066903D01*
X78943307Y-63290931D01*
X78896000Y-63528757D01*
X78818000Y-63528757D01*
X78770693Y-63290931D01*
X78677898Y-63066903D01*
X78543180Y-62865283D01*
X78371717Y-62693820D01*
X78170097Y-62559102D01*
X77946069Y-62466307D01*
X77708243Y-62419000D01*
X77465757Y-62419000D01*
X77227931Y-62466307D01*
X77003903Y-62559102D01*
X76802283Y-62693820D01*
X76630820Y-62865283D01*
X76596000Y-62917395D01*
X76596000Y-59992000D01*
X86198000Y-59992000D01*
X86198001Y-62444628D01*
%TA.AperFunction,Conductor*%
D24*
G36*
X86198001Y-62444628D02*
G01*
X86131689Y-62424513D01*
X86057000Y-62417157D01*
X84357000Y-62417157D01*
X84282311Y-62424513D01*
X84210492Y-62446299D01*
X84144304Y-62481678D01*
X84086289Y-62529289D01*
X84038678Y-62587304D01*
X84003299Y-62653492D01*
X83981513Y-62725311D01*
X83974157Y-62800000D01*
X83974157Y-64500000D01*
X83981513Y-64574689D01*
X84003299Y-64646508D01*
X84038678Y-64712696D01*
X84086289Y-64770711D01*
X84144304Y-64818322D01*
X84210492Y-64853701D01*
X84282311Y-64875487D01*
X84357000Y-64882843D01*
X84576000Y-64882843D01*
X84576000Y-65469009D01*
X84572948Y-65500000D01*
X84576000Y-65530990D01*
X84576000Y-65530997D01*
X84585130Y-65623697D01*
X84621211Y-65742641D01*
X84679804Y-65852260D01*
X84758657Y-65948343D01*
X84782737Y-65968105D01*
X93984899Y-75170268D01*
X94004657Y-75194343D01*
X94028732Y-75214101D01*
X94028734Y-75214103D01*
X94100739Y-75273196D01*
X94210358Y-75331789D01*
X94329302Y-75367870D01*
X94453000Y-75380053D01*
X94483998Y-75377000D01*
X97852157Y-75377000D01*
X97852157Y-76046000D01*
X97859513Y-76120689D01*
X97881299Y-76192508D01*
X97887664Y-76204415D01*
X97893207Y-76260697D01*
X97926429Y-76370216D01*
X97980379Y-76471149D01*
X98052983Y-76559619D01*
X98075160Y-76577819D01*
X100454175Y-78956834D01*
X100314243Y-78929000D01*
X100071757Y-78929000D01*
X99833931Y-78976307D01*
X99609903Y-79069102D01*
X99408283Y-79203820D01*
X99236820Y-79375283D01*
X99102102Y-79576903D01*
X99009307Y-79800931D01*
X98962000Y-80038757D01*
X98962000Y-80281243D01*
X99009307Y-80519069D01*
X99102102Y-80743097D01*
X99236820Y-80944717D01*
X99408283Y-81116180D01*
X99609903Y-81250898D01*
X99833931Y-81343693D01*
X100071757Y-81391000D01*
X100314243Y-81391000D01*
X100552069Y-81343693D01*
X100776097Y-81250898D01*
X100977717Y-81116180D01*
X101149180Y-80944717D01*
X101283898Y-80743097D01*
X101376693Y-80519069D01*
X101424000Y-80281243D01*
X101424000Y-80038757D01*
X101396166Y-79898825D01*
X101507657Y-80010317D01*
X101502000Y-80038757D01*
X101502000Y-80281243D01*
X101549307Y-80519069D01*
X101642102Y-80743097D01*
X101776820Y-80944717D01*
X101948283Y-81116180D01*
X102149903Y-81250898D01*
X102373931Y-81343693D01*
X102611757Y-81391000D01*
X102854243Y-81391000D01*
X103092069Y-81343693D01*
X103316097Y-81250898D01*
X103517717Y-81116180D01*
X103689180Y-80944717D01*
X103823898Y-80743097D01*
X103916693Y-80519069D01*
X103964000Y-80281243D01*
X103964000Y-80038757D01*
X103916693Y-79800931D01*
X103823898Y-79576903D01*
X103689180Y-79375283D01*
X103517717Y-79203820D01*
X103316097Y-79069102D01*
X103092069Y-78976307D01*
X102854243Y-78929000D01*
X102611757Y-78929000D01*
X102373931Y-78976307D01*
X102192227Y-79051571D01*
X99561571Y-76420916D01*
X99631508Y-76399701D01*
X99685000Y-76371108D01*
X99738492Y-76399701D01*
X99810311Y-76421487D01*
X99885000Y-76428843D01*
X100285000Y-76428843D01*
X100359689Y-76421487D01*
X100431508Y-76399701D01*
X100460000Y-76384471D01*
X100488492Y-76399701D01*
X100560311Y-76421487D01*
X100635000Y-76428843D01*
X101135000Y-76428843D01*
X101209689Y-76421487D01*
X101281508Y-76399701D01*
X101347696Y-76364322D01*
X101405711Y-76316711D01*
X101426483Y-76291400D01*
X103259032Y-76291400D01*
X104515001Y-77547370D01*
X104515000Y-81469631D01*
X103915632Y-82069000D01*
X103791890Y-82069000D01*
X103689180Y-81915283D01*
X103517717Y-81743820D01*
X103316097Y-81609102D01*
X103092069Y-81516307D01*
X102854243Y-81469000D01*
X102611757Y-81469000D01*
X102373931Y-81516307D01*
X102149903Y-81609102D01*
X101948283Y-81743820D01*
X101776820Y-81915283D01*
X101642102Y-82116903D01*
X101549307Y-82340931D01*
X101502000Y-82578757D01*
X101502000Y-82821243D01*
X101549307Y-83059069D01*
X101642102Y-83283097D01*
X101776820Y-83484717D01*
X101948283Y-83656180D01*
X102149903Y-83790898D01*
X102373931Y-83883693D01*
X102611757Y-83931000D01*
X102854243Y-83931000D01*
X103092069Y-83883693D01*
X103316097Y-83790898D01*
X103517717Y-83656180D01*
X103689180Y-83484717D01*
X103791890Y-83331000D01*
X104146010Y-83331000D01*
X104177000Y-83334052D01*
X104207990Y-83331000D01*
X104207998Y-83331000D01*
X104300698Y-83321870D01*
X104419642Y-83285789D01*
X104529261Y-83227196D01*
X104625343Y-83148343D01*
X104645105Y-83124263D01*
X105570269Y-82199100D01*
X105594343Y-82179343D01*
X105673196Y-82083261D01*
X105731789Y-81973642D01*
X105767870Y-81854698D01*
X105777000Y-81761998D01*
X105777000Y-81761991D01*
X105780052Y-81731000D01*
X105777000Y-81700010D01*
X105777000Y-77316998D01*
X105780053Y-77286000D01*
X105767870Y-77162302D01*
X105731789Y-77043358D01*
X105673196Y-76933739D01*
X105614103Y-76861734D01*
X105614101Y-76861732D01*
X105594343Y-76837657D01*
X105570268Y-76817899D01*
X104387369Y-75635000D01*
X111369000Y-75635000D01*
X111369000Y-83255000D01*
X111371440Y-83279776D01*
X111378667Y-83303601D01*
X111390403Y-83325557D01*
X111406197Y-83344803D01*
X111425443Y-83360597D01*
X111447399Y-83372333D01*
X111471224Y-83379560D01*
X111496000Y-83382000D01*
X119116000Y-83382000D01*
X119140776Y-83379560D01*
X119164601Y-83372333D01*
X119186557Y-83360597D01*
X119205803Y-83344803D01*
X119221597Y-83325557D01*
X119233333Y-83303601D01*
X119240560Y-83279776D01*
X119243000Y-83255000D01*
X119243000Y-83013357D01*
X137105091Y-83013357D01*
X137163322Y-83577869D01*
X137330565Y-84120174D01*
X137585550Y-84597220D01*
X137932556Y-84887839D01*
X139820395Y-83000000D01*
X140179605Y-83000000D01*
X142067444Y-84887839D01*
X142414450Y-84597220D01*
X142679659Y-84095494D01*
X142841890Y-83551668D01*
X142894909Y-82986643D01*
X142836678Y-82422131D01*
X142669435Y-81879826D01*
X142414450Y-81402780D01*
X142067444Y-81112161D01*
X140179605Y-83000000D01*
X139820395Y-83000000D01*
X137932556Y-81112161D01*
X137585550Y-81402780D01*
X137320341Y-81904506D01*
X137158110Y-82448332D01*
X137105091Y-83013357D01*
X119243000Y-83013357D01*
X119243000Y-80932556D01*
X138112161Y-80932556D01*
X140000000Y-82820395D01*
X141887839Y-80932556D01*
X141597220Y-80585550D01*
X141095494Y-80320341D01*
X140551668Y-80158110D01*
X139986643Y-80105091D01*
X139422131Y-80163322D01*
X138879826Y-80330565D01*
X138402780Y-80585550D01*
X138112161Y-80932556D01*
X119243000Y-80932556D01*
X119243000Y-77726927D01*
X124835800Y-77726927D01*
X124835800Y-77861073D01*
X124861971Y-77992640D01*
X124913306Y-78116574D01*
X124987833Y-78228112D01*
X125082688Y-78322967D01*
X125194226Y-78397494D01*
X125318160Y-78448829D01*
X125449727Y-78475000D01*
X125583873Y-78475000D01*
X125715440Y-78448829D01*
X125839374Y-78397494D01*
X125923195Y-78341487D01*
X126007016Y-78397494D01*
X126130950Y-78448829D01*
X126262517Y-78475000D01*
X126396663Y-78475000D01*
X126528230Y-78448829D01*
X126652164Y-78397494D01*
X126735998Y-78341478D01*
X126819832Y-78397494D01*
X126943766Y-78448829D01*
X127075333Y-78475000D01*
X127209479Y-78475000D01*
X127341046Y-78448829D01*
X127464980Y-78397494D01*
X127576518Y-78322967D01*
X127671373Y-78228112D01*
X127745900Y-78116574D01*
X127797235Y-77992640D01*
X127823406Y-77861073D01*
X127823406Y-77726927D01*
X127797235Y-77595360D01*
X127745900Y-77471426D01*
X127723400Y-77437752D01*
X127723400Y-76428843D01*
X128186000Y-76428843D01*
X128260689Y-76421487D01*
X128332508Y-76399701D01*
X128398696Y-76364322D01*
X128456711Y-76316711D01*
X128504322Y-76258696D01*
X128539701Y-76192508D01*
X128561487Y-76120689D01*
X128568843Y-76046000D01*
X128568843Y-75246000D01*
X128561487Y-75171311D01*
X128539701Y-75099492D01*
X128504322Y-75033304D01*
X128456711Y-74975289D01*
X128398696Y-74927678D01*
X128332508Y-74892299D01*
X128260689Y-74870513D01*
X128186000Y-74863157D01*
X127686000Y-74863157D01*
X127611311Y-74870513D01*
X127539492Y-74892299D01*
X127511000Y-74907529D01*
X127482508Y-74892299D01*
X127410689Y-74870513D01*
X127336000Y-74863157D01*
X126936000Y-74863157D01*
X126861311Y-74870513D01*
X126789492Y-74892299D01*
X126736000Y-74920892D01*
X126682508Y-74892299D01*
X126610689Y-74870513D01*
X126536000Y-74863157D01*
X126136000Y-74863157D01*
X126061311Y-74870513D01*
X125989492Y-74892299D01*
X125961000Y-74907529D01*
X125932508Y-74892299D01*
X125860689Y-74870513D01*
X125786000Y-74863157D01*
X125286000Y-74863157D01*
X125211311Y-74870513D01*
X125139492Y-74892299D01*
X125073304Y-74927678D01*
X125015289Y-74975289D01*
X124967678Y-75033304D01*
X124932299Y-75099492D01*
X124910513Y-75171311D01*
X124903157Y-75246000D01*
X124903157Y-76046000D01*
X124910513Y-76120689D01*
X124932299Y-76192508D01*
X124935800Y-76199058D01*
X124935801Y-77437760D01*
X124913306Y-77471426D01*
X124861971Y-77595360D01*
X124835800Y-77726927D01*
X119243000Y-77726927D01*
X119243000Y-75635000D01*
X119240560Y-75610224D01*
X119233333Y-75586399D01*
X119221597Y-75564443D01*
X119205803Y-75545197D01*
X119186557Y-75529403D01*
X119164601Y-75517667D01*
X119140776Y-75510440D01*
X119116000Y-75508000D01*
X111496000Y-75508000D01*
X111471224Y-75510440D01*
X111447399Y-75517667D01*
X111425443Y-75529403D01*
X111406197Y-75545197D01*
X111390403Y-75564443D01*
X111378667Y-75586399D01*
X111371440Y-75610224D01*
X111369000Y-75635000D01*
X104387369Y-75635000D01*
X103988505Y-75236137D01*
X103968743Y-75212057D01*
X103872661Y-75133204D01*
X103763042Y-75074611D01*
X103644098Y-75038530D01*
X103551398Y-75029400D01*
X103551390Y-75029400D01*
X103520400Y-75026348D01*
X103489410Y-75029400D01*
X101509800Y-75029400D01*
X101509800Y-74878587D01*
X101512852Y-74847599D01*
X101509800Y-74816612D01*
X101509800Y-74816602D01*
X101500670Y-74723902D01*
X101464589Y-74604958D01*
X101412801Y-74508071D01*
X101453322Y-74458696D01*
X101488701Y-74392508D01*
X101510487Y-74320689D01*
X101517843Y-74246000D01*
X101517843Y-73446000D01*
X101510487Y-73371311D01*
X101508127Y-73363530D01*
X105790646Y-69081012D01*
X105812817Y-69062817D01*
X105885421Y-68974348D01*
X105939371Y-68873415D01*
X105972593Y-68763896D01*
X105981000Y-68678540D01*
X105981000Y-68678538D01*
X105983811Y-68650001D01*
X105981000Y-68621464D01*
X105981000Y-67836767D01*
X105983097Y-67835898D01*
X106184717Y-67701180D01*
X106356180Y-67529717D01*
X106410691Y-67448134D01*
X108879000Y-67448134D01*
X108879000Y-67739866D01*
X108935914Y-68025992D01*
X109047555Y-68295517D01*
X109209632Y-68538083D01*
X109415917Y-68744368D01*
X109658483Y-68906445D01*
X109928008Y-69018086D01*
X110214134Y-69075000D01*
X110505866Y-69075000D01*
X110791992Y-69018086D01*
X111061517Y-68906445D01*
X111304083Y-68744368D01*
X111510368Y-68538083D01*
X111672445Y-68295517D01*
X111784086Y-68025992D01*
X111841000Y-67739866D01*
X111841000Y-67448134D01*
X111784086Y-67162008D01*
X111672445Y-66892483D01*
X111510368Y-66649917D01*
X111304083Y-66443632D01*
X111061517Y-66281555D01*
X110791992Y-66169914D01*
X110505866Y-66113000D01*
X110214134Y-66113000D01*
X109928008Y-66169914D01*
X109658483Y-66281555D01*
X109415917Y-66443632D01*
X109209632Y-66649917D01*
X109047555Y-66892483D01*
X108935914Y-67162008D01*
X108879000Y-67448134D01*
X106410691Y-67448134D01*
X106490898Y-67328097D01*
X106583693Y-67104069D01*
X106631000Y-66866243D01*
X106631000Y-66623757D01*
X106583693Y-66385931D01*
X106490898Y-66161903D01*
X106356180Y-65960283D01*
X106184717Y-65788820D01*
X105983097Y-65654102D01*
X105759069Y-65561307D01*
X105521243Y-65514000D01*
X105278757Y-65514000D01*
X105040931Y-65561307D01*
X104816903Y-65654102D01*
X104615283Y-65788820D01*
X104443820Y-65960283D01*
X104309102Y-66161903D01*
X104216307Y-66385931D01*
X104169000Y-66623757D01*
X104169000Y-66866243D01*
X104216307Y-67104069D01*
X104309102Y-67328097D01*
X104443820Y-67529717D01*
X104615283Y-67701180D01*
X104816903Y-67835898D01*
X104819000Y-67836767D01*
X104819000Y-68409342D01*
X100488156Y-72740187D01*
X100465984Y-72758383D01*
X100421343Y-72812779D01*
X100393379Y-72846853D01*
X100379501Y-72872817D01*
X100339429Y-72947785D01*
X100313703Y-73032593D01*
X100306207Y-73057305D01*
X100305432Y-73065169D01*
X100285000Y-73063157D01*
X99885000Y-73063157D01*
X99810311Y-73070513D01*
X99738492Y-73092299D01*
X99685000Y-73120892D01*
X99631508Y-73092299D01*
X99559689Y-73070513D01*
X99485000Y-73063157D01*
X99085000Y-73063157D01*
X99046800Y-73066919D01*
X99046800Y-68729340D01*
X99049611Y-68700800D01*
X99038393Y-68586904D01*
X99005171Y-68477385D01*
X98951221Y-68376452D01*
X98878617Y-68287983D01*
X98856445Y-68269787D01*
X98181658Y-67595000D01*
X101627157Y-67595000D01*
X101634513Y-67669689D01*
X101656299Y-67741508D01*
X101691678Y-67807696D01*
X101739289Y-67865711D01*
X101797304Y-67913322D01*
X101863492Y-67948701D01*
X101935311Y-67970487D01*
X102010000Y-67977843D01*
X102637750Y-67976000D01*
X102733000Y-67880750D01*
X102733000Y-66872000D01*
X102987000Y-66872000D01*
X102987000Y-67880750D01*
X103082250Y-67976000D01*
X103710000Y-67977843D01*
X103784689Y-67970487D01*
X103856508Y-67948701D01*
X103922696Y-67913322D01*
X103980711Y-67865711D01*
X104028322Y-67807696D01*
X104063701Y-67741508D01*
X104085487Y-67669689D01*
X104092843Y-67595000D01*
X104091000Y-66967250D01*
X103995750Y-66872000D01*
X102987000Y-66872000D01*
X102733000Y-66872000D01*
X101724250Y-66872000D01*
X101629000Y-66967250D01*
X101627157Y-67595000D01*
X98181658Y-67595000D01*
X97692824Y-67106167D01*
X97693693Y-67104069D01*
X97741000Y-66866243D01*
X97741000Y-66623757D01*
X97693693Y-66385931D01*
X97600898Y-66161903D01*
X97466180Y-65960283D01*
X97400897Y-65895000D01*
X101627157Y-65895000D01*
X101629000Y-66522750D01*
X101724250Y-66618000D01*
X102733000Y-66618000D01*
X102733000Y-65609250D01*
X102987000Y-65609250D01*
X102987000Y-66618000D01*
X103995750Y-66618000D01*
X104091000Y-66522750D01*
X104092843Y-65895000D01*
X104085487Y-65820311D01*
X104063701Y-65748492D01*
X104028322Y-65682304D01*
X103980711Y-65624289D01*
X103922696Y-65576678D01*
X103856508Y-65541299D01*
X103784689Y-65519513D01*
X103710000Y-65512157D01*
X103082250Y-65514000D01*
X102987000Y-65609250D01*
X102733000Y-65609250D01*
X102637750Y-65514000D01*
X102010000Y-65512157D01*
X101935311Y-65519513D01*
X101863492Y-65541299D01*
X101797304Y-65576678D01*
X101739289Y-65624289D01*
X101691678Y-65682304D01*
X101656299Y-65748492D01*
X101634513Y-65820311D01*
X101627157Y-65895000D01*
X97400897Y-65895000D01*
X97294717Y-65788820D01*
X97093097Y-65654102D01*
X96869069Y-65561307D01*
X96631243Y-65514000D01*
X96388757Y-65514000D01*
X96150931Y-65561307D01*
X95926903Y-65654102D01*
X95725283Y-65788820D01*
X95553820Y-65960283D01*
X95419102Y-66161903D01*
X95326307Y-66385931D01*
X95279000Y-66623757D01*
X95279000Y-66866243D01*
X95326307Y-67104069D01*
X95419102Y-67328097D01*
X95553820Y-67529717D01*
X95725283Y-67701180D01*
X95926903Y-67835898D01*
X96150931Y-67928693D01*
X96388757Y-67976000D01*
X96631243Y-67976000D01*
X96869069Y-67928693D01*
X96871167Y-67927824D01*
X97884801Y-68941459D01*
X97884800Y-73292942D01*
X97881299Y-73299492D01*
X97859513Y-73371311D01*
X97852157Y-73446000D01*
X97852157Y-74115000D01*
X94714369Y-74115000D01*
X88194369Y-67595000D01*
X92737157Y-67595000D01*
X92744513Y-67669689D01*
X92766299Y-67741508D01*
X92801678Y-67807696D01*
X92849289Y-67865711D01*
X92907304Y-67913322D01*
X92973492Y-67948701D01*
X93045311Y-67970487D01*
X93120000Y-67977843D01*
X93747750Y-67976000D01*
X93843000Y-67880750D01*
X93843000Y-66872000D01*
X94097000Y-66872000D01*
X94097000Y-67880750D01*
X94192250Y-67976000D01*
X94820000Y-67977843D01*
X94894689Y-67970487D01*
X94966508Y-67948701D01*
X95032696Y-67913322D01*
X95090711Y-67865711D01*
X95138322Y-67807696D01*
X95173701Y-67741508D01*
X95195487Y-67669689D01*
X95202843Y-67595000D01*
X95201000Y-66967250D01*
X95105750Y-66872000D01*
X94097000Y-66872000D01*
X93843000Y-66872000D01*
X92834250Y-66872000D01*
X92739000Y-66967250D01*
X92737157Y-67595000D01*
X88194369Y-67595000D01*
X86494369Y-65895000D01*
X92737157Y-65895000D01*
X92739000Y-66522750D01*
X92834250Y-66618000D01*
X93843000Y-66618000D01*
X93843000Y-65609250D01*
X94097000Y-65609250D01*
X94097000Y-66618000D01*
X95105750Y-66618000D01*
X95201000Y-66522750D01*
X95202843Y-65895000D01*
X95195487Y-65820311D01*
X95173701Y-65748492D01*
X95138322Y-65682304D01*
X95090711Y-65624289D01*
X95032696Y-65576678D01*
X94966508Y-65541299D01*
X94894689Y-65519513D01*
X94820000Y-65512157D01*
X94192250Y-65514000D01*
X94097000Y-65609250D01*
X93843000Y-65609250D01*
X93747750Y-65514000D01*
X93120000Y-65512157D01*
X93045311Y-65519513D01*
X92973492Y-65541299D01*
X92907304Y-65576678D01*
X92849289Y-65624289D01*
X92801678Y-65682304D01*
X92766299Y-65748492D01*
X92744513Y-65820311D01*
X92737157Y-65895000D01*
X86494369Y-65895000D01*
X85838000Y-65238632D01*
X85838000Y-64882843D01*
X86057000Y-64882843D01*
X86131689Y-64875487D01*
X86203508Y-64853701D01*
X86269696Y-64818322D01*
X86327711Y-64770711D01*
X86375322Y-64712696D01*
X86410701Y-64646508D01*
X86432487Y-64574689D01*
X86439843Y-64500000D01*
X86439843Y-64196615D01*
X86447879Y-64200910D01*
X86524410Y-64224125D01*
X86584059Y-64230000D01*
X86584060Y-64230000D01*
X86604000Y-64231964D01*
X86623941Y-64230000D01*
X110733103Y-64230000D01*
X110653820Y-64309283D01*
X110519102Y-64510903D01*
X110426307Y-64734931D01*
X110379000Y-64972757D01*
X110379000Y-65215243D01*
X110426307Y-65453069D01*
X110519102Y-65677097D01*
X110653820Y-65878717D01*
X110825283Y-66050180D01*
X111026903Y-66184898D01*
X111250931Y-66277693D01*
X111488757Y-66325000D01*
X111731243Y-66325000D01*
X111969069Y-66277693D01*
X111971167Y-66276824D01*
X112312001Y-66617659D01*
X112312000Y-70907460D01*
X112309189Y-70936000D01*
X112312202Y-70966586D01*
X112320407Y-71049895D01*
X112353629Y-71159414D01*
X112407579Y-71260347D01*
X112480183Y-71348817D01*
X112502360Y-71367017D01*
X113985987Y-72850645D01*
X114004183Y-72872817D01*
X114092652Y-72945421D01*
X114193585Y-72999371D01*
X114303104Y-73032593D01*
X114388460Y-73041000D01*
X114388462Y-73041000D01*
X114416999Y-73043811D01*
X114445536Y-73041000D01*
X124437943Y-73041000D01*
X124903157Y-73506215D01*
X124903157Y-74246000D01*
X124910513Y-74320689D01*
X124932299Y-74392508D01*
X124967678Y-74458696D01*
X125015289Y-74516711D01*
X125073304Y-74564322D01*
X125139492Y-74599701D01*
X125211311Y-74621487D01*
X125286000Y-74628843D01*
X125786000Y-74628843D01*
X125860689Y-74621487D01*
X125932508Y-74599701D01*
X125961000Y-74584471D01*
X125989492Y-74599701D01*
X126061311Y-74621487D01*
X126136000Y-74628843D01*
X126536000Y-74628843D01*
X126610689Y-74621487D01*
X126682508Y-74599701D01*
X126736000Y-74571108D01*
X126789492Y-74599701D01*
X126861311Y-74621487D01*
X126936000Y-74628843D01*
X127336000Y-74628843D01*
X127410689Y-74621487D01*
X127482508Y-74599701D01*
X127511000Y-74584471D01*
X127539492Y-74599701D01*
X127611311Y-74621487D01*
X127686000Y-74628843D01*
X128186000Y-74628843D01*
X128260689Y-74621487D01*
X128332508Y-74599701D01*
X128398696Y-74564322D01*
X128456711Y-74516711D01*
X128504322Y-74458696D01*
X128539701Y-74392508D01*
X128561487Y-74320689D01*
X128568843Y-74246000D01*
X128568843Y-73446000D01*
X128561487Y-73371311D01*
X128539701Y-73299492D01*
X128504322Y-73233304D01*
X128456711Y-73175289D01*
X128398696Y-73127678D01*
X128332508Y-73092299D01*
X128260689Y-73070513D01*
X128186000Y-73063157D01*
X127723400Y-73063157D01*
X127723400Y-72421257D01*
X128316824Y-71827834D01*
X128398058Y-71882113D01*
X128540191Y-71940987D01*
X128691078Y-71971000D01*
X128844922Y-71971000D01*
X128995809Y-71940987D01*
X129137942Y-71882113D01*
X129265859Y-71796642D01*
X129291501Y-71771000D01*
X137121460Y-71771000D01*
X137150000Y-71773811D01*
X137178540Y-71771000D01*
X137263896Y-71762593D01*
X137373415Y-71729371D01*
X137474348Y-71675421D01*
X137562817Y-71602817D01*
X137581017Y-71580640D01*
X138250644Y-70911014D01*
X138272816Y-70892818D01*
X138345420Y-70804349D01*
X138399370Y-70703416D01*
X138432592Y-70593897D01*
X138440999Y-70508541D01*
X138440999Y-70508539D01*
X138443810Y-70480002D01*
X138440999Y-70451465D01*
X138440999Y-65986100D01*
X140797505Y-65986100D01*
X140889523Y-66164078D01*
X141110207Y-66264566D01*
X141346255Y-66320069D01*
X141588596Y-66328456D01*
X141827917Y-66289402D01*
X142055020Y-66204411D01*
X142130477Y-66164078D01*
X142222495Y-65986100D01*
X141510000Y-65273605D01*
X140797505Y-65986100D01*
X138440999Y-65986100D01*
X138440999Y-65972538D01*
X138443810Y-65943998D01*
X138432592Y-65830103D01*
X138399370Y-65720584D01*
X138396106Y-65714477D01*
X138345420Y-65619651D01*
X138272816Y-65531182D01*
X138250645Y-65512987D01*
X138192824Y-65455166D01*
X138193693Y-65453069D01*
X138241000Y-65215243D01*
X138241000Y-64972757D01*
X138193693Y-64734931D01*
X138100898Y-64510903D01*
X137966180Y-64309283D01*
X137886897Y-64230000D01*
X140625548Y-64230000D01*
X140545970Y-64309578D01*
X140617898Y-64381506D01*
X140439922Y-64473523D01*
X140339434Y-64694207D01*
X140283931Y-64930255D01*
X140275544Y-65172596D01*
X140314598Y-65411917D01*
X140399589Y-65639020D01*
X140439922Y-65714477D01*
X140617900Y-65806495D01*
X141330395Y-65094000D01*
X141316253Y-65079858D01*
X141495858Y-64900253D01*
X141510000Y-64914395D01*
X141524143Y-64900253D01*
X141703748Y-65079858D01*
X141689605Y-65094000D01*
X142402100Y-65806495D01*
X142580078Y-65714477D01*
X142680566Y-65493793D01*
X142736069Y-65257745D01*
X142744456Y-65015404D01*
X142705402Y-64776083D01*
X142620411Y-64548980D01*
X142580078Y-64473523D01*
X142402102Y-64381506D01*
X142474030Y-64309578D01*
X142394452Y-64230000D01*
X143856000Y-64230000D01*
X143856000Y-66595549D01*
X143704083Y-66443632D01*
X143461517Y-66281555D01*
X143191992Y-66169914D01*
X142905866Y-66113000D01*
X142614134Y-66113000D01*
X142328008Y-66169914D01*
X142058483Y-66281555D01*
X141815917Y-66443632D01*
X141609632Y-66649917D01*
X141447555Y-66892483D01*
X141335914Y-67162008D01*
X141279000Y-67448134D01*
X141279000Y-67739866D01*
X141335914Y-68025992D01*
X141447555Y-68295517D01*
X141609632Y-68538083D01*
X141815917Y-68744368D01*
X142058483Y-68906445D01*
X142328008Y-69018086D01*
X142614134Y-69075000D01*
X142905866Y-69075000D01*
X143191992Y-69018086D01*
X143461517Y-68906445D01*
X143704083Y-68744368D01*
X143856000Y-68592451D01*
X143856001Y-82727136D01*
X143796518Y-83333790D01*
X143626102Y-83898235D01*
X143349298Y-84418827D01*
X142976653Y-84875735D01*
X142522349Y-85251568D01*
X142003704Y-85531998D01*
X141440467Y-85706349D01*
X140834956Y-85769990D01*
X140832145Y-85770000D01*
X140794080Y-85770000D01*
X141120174Y-85669435D01*
X141597220Y-85414450D01*
X141887839Y-85067444D01*
X140000000Y-83179605D01*
X138112161Y-85067444D01*
X138402780Y-85414450D01*
X138904506Y-85679659D01*
X139207344Y-85770000D01*
X79638854Y-85770000D01*
X79032210Y-85710518D01*
X78467765Y-85540102D01*
X77947173Y-85263298D01*
X77490265Y-84890653D01*
X77114432Y-84436349D01*
X76834002Y-83917704D01*
X76720179Y-83550000D01*
X88800157Y-83550000D01*
X88807513Y-83624689D01*
X88829299Y-83696508D01*
X88864678Y-83762696D01*
X88912289Y-83820711D01*
X88970304Y-83868322D01*
X89036492Y-83903701D01*
X89108311Y-83925487D01*
X89183000Y-83932843D01*
X89810750Y-83931000D01*
X89906000Y-83835750D01*
X89906000Y-82827000D01*
X90160000Y-82827000D01*
X90160000Y-83835750D01*
X90255250Y-83931000D01*
X90883000Y-83932843D01*
X90957689Y-83925487D01*
X91029508Y-83903701D01*
X91095696Y-83868322D01*
X91153711Y-83820711D01*
X91201322Y-83762696D01*
X91236701Y-83696508D01*
X91258487Y-83624689D01*
X91265843Y-83550000D01*
X91264279Y-83016981D01*
X91383505Y-83016981D01*
X91468201Y-83242949D01*
X91595353Y-83448052D01*
X91760076Y-83624408D01*
X91956039Y-83765239D01*
X92175712Y-83865134D01*
X92256020Y-83889489D01*
X92446000Y-83828627D01*
X92446000Y-82827000D01*
X92700000Y-82827000D01*
X92700000Y-83828627D01*
X92889980Y-83889489D01*
X92970288Y-83865134D01*
X93189961Y-83765239D01*
X93385924Y-83624408D01*
X93550647Y-83448052D01*
X93677799Y-83242949D01*
X93762495Y-83016981D01*
X93923505Y-83016981D01*
X94008201Y-83242949D01*
X94135353Y-83448052D01*
X94300076Y-83624408D01*
X94496039Y-83765239D01*
X94715712Y-83865134D01*
X94796020Y-83889489D01*
X94986000Y-83828627D01*
X94986000Y-82827000D01*
X95240000Y-82827000D01*
X95240000Y-83828627D01*
X95429980Y-83889489D01*
X95510288Y-83865134D01*
X95729961Y-83765239D01*
X95925924Y-83624408D01*
X96090647Y-83448052D01*
X96217799Y-83242949D01*
X96302495Y-83016981D01*
X96463505Y-83016981D01*
X96548201Y-83242949D01*
X96675353Y-83448052D01*
X96840076Y-83624408D01*
X97036039Y-83765239D01*
X97255712Y-83865134D01*
X97336020Y-83889489D01*
X97526000Y-83828627D01*
X97526000Y-82827000D01*
X97780000Y-82827000D01*
X97780000Y-83828627D01*
X97969980Y-83889489D01*
X98050288Y-83865134D01*
X98269961Y-83765239D01*
X98465924Y-83624408D01*
X98630647Y-83448052D01*
X98757799Y-83242949D01*
X98842495Y-83016981D01*
X99003505Y-83016981D01*
X99088201Y-83242949D01*
X99215353Y-83448052D01*
X99380076Y-83624408D01*
X99576039Y-83765239D01*
X99795712Y-83865134D01*
X99876020Y-83889489D01*
X100066000Y-83828627D01*
X100066000Y-82827000D01*
X100320000Y-82827000D01*
X100320000Y-83828627D01*
X100509980Y-83889489D01*
X100590288Y-83865134D01*
X100809961Y-83765239D01*
X101005924Y-83624408D01*
X101170647Y-83448052D01*
X101297799Y-83242949D01*
X101382495Y-83016981D01*
X101322187Y-82827000D01*
X100320000Y-82827000D01*
X100066000Y-82827000D01*
X99063813Y-82827000D01*
X99003505Y-83016981D01*
X98842495Y-83016981D01*
X98782187Y-82827000D01*
X97780000Y-82827000D01*
X97526000Y-82827000D01*
X96523813Y-82827000D01*
X96463505Y-83016981D01*
X96302495Y-83016981D01*
X96242187Y-82827000D01*
X95240000Y-82827000D01*
X94986000Y-82827000D01*
X93983813Y-82827000D01*
X93923505Y-83016981D01*
X93762495Y-83016981D01*
X93702187Y-82827000D01*
X92700000Y-82827000D01*
X92446000Y-82827000D01*
X91443813Y-82827000D01*
X91383505Y-83016981D01*
X91264279Y-83016981D01*
X91264000Y-82922250D01*
X91168750Y-82827000D01*
X90160000Y-82827000D01*
X89906000Y-82827000D01*
X88897250Y-82827000D01*
X88802000Y-82922250D01*
X88800157Y-83550000D01*
X76720179Y-83550000D01*
X76659651Y-83354467D01*
X76596010Y-82748956D01*
X76596000Y-82746145D01*
X76596000Y-81850000D01*
X88800157Y-81850000D01*
X88802000Y-82477750D01*
X88897250Y-82573000D01*
X89906000Y-82573000D01*
X89906000Y-81564250D01*
X90160000Y-81564250D01*
X90160000Y-82573000D01*
X91168750Y-82573000D01*
X91264000Y-82477750D01*
X91264278Y-82383019D01*
X91383505Y-82383019D01*
X91443813Y-82573000D01*
X92446000Y-82573000D01*
X92446000Y-81571373D01*
X92700000Y-81571373D01*
X92700000Y-82573000D01*
X93702187Y-82573000D01*
X93762495Y-82383019D01*
X93923505Y-82383019D01*
X93983813Y-82573000D01*
X94986000Y-82573000D01*
X94986000Y-81571373D01*
X95240000Y-81571373D01*
X95240000Y-82573000D01*
X96242187Y-82573000D01*
X96302495Y-82383019D01*
X96463505Y-82383019D01*
X96523813Y-82573000D01*
X97526000Y-82573000D01*
X97526000Y-81571373D01*
X97780000Y-81571373D01*
X97780000Y-82573000D01*
X98782187Y-82573000D01*
X98842495Y-82383019D01*
X99003505Y-82383019D01*
X99063813Y-82573000D01*
X100066000Y-82573000D01*
X100066000Y-81571373D01*
X100320000Y-81571373D01*
X100320000Y-82573000D01*
X101322187Y-82573000D01*
X101382495Y-82383019D01*
X101297799Y-82157051D01*
X101170647Y-81951948D01*
X101005924Y-81775592D01*
X100809961Y-81634761D01*
X100590288Y-81534866D01*
X100509980Y-81510511D01*
X100320000Y-81571373D01*
X100066000Y-81571373D01*
X99876020Y-81510511D01*
X99795712Y-81534866D01*
X99576039Y-81634761D01*
X99380076Y-81775592D01*
X99215353Y-81951948D01*
X99088201Y-82157051D01*
X99003505Y-82383019D01*
X98842495Y-82383019D01*
X98757799Y-82157051D01*
X98630647Y-81951948D01*
X98465924Y-81775592D01*
X98269961Y-81634761D01*
X98050288Y-81534866D01*
X97969980Y-81510511D01*
X97780000Y-81571373D01*
X97526000Y-81571373D01*
X97336020Y-81510511D01*
X97255712Y-81534866D01*
X97036039Y-81634761D01*
X96840076Y-81775592D01*
X96675353Y-81951948D01*
X96548201Y-82157051D01*
X96463505Y-82383019D01*
X96302495Y-82383019D01*
X96217799Y-82157051D01*
X96090647Y-81951948D01*
X95925924Y-81775592D01*
X95729961Y-81634761D01*
X95510288Y-81534866D01*
X95429980Y-81510511D01*
X95240000Y-81571373D01*
X94986000Y-81571373D01*
X94796020Y-81510511D01*
X94715712Y-81534866D01*
X94496039Y-81634761D01*
X94300076Y-81775592D01*
X94135353Y-81951948D01*
X94008201Y-82157051D01*
X93923505Y-82383019D01*
X93762495Y-82383019D01*
X93677799Y-82157051D01*
X93550647Y-81951948D01*
X93385924Y-81775592D01*
X93189961Y-81634761D01*
X92970288Y-81534866D01*
X92889980Y-81510511D01*
X92700000Y-81571373D01*
X92446000Y-81571373D01*
X92256020Y-81510511D01*
X92175712Y-81534866D01*
X91956039Y-81634761D01*
X91760076Y-81775592D01*
X91595353Y-81951948D01*
X91468201Y-82157051D01*
X91383505Y-82383019D01*
X91264278Y-82383019D01*
X91265843Y-81850000D01*
X91258487Y-81775311D01*
X91236701Y-81703492D01*
X91201322Y-81637304D01*
X91153711Y-81579289D01*
X91095696Y-81531678D01*
X91029508Y-81496299D01*
X90957689Y-81474513D01*
X90883000Y-81467157D01*
X90255250Y-81469000D01*
X90160000Y-81564250D01*
X89906000Y-81564250D01*
X89810750Y-81469000D01*
X89183000Y-81467157D01*
X89108311Y-81474513D01*
X89036492Y-81496299D01*
X88970304Y-81531678D01*
X88912289Y-81579289D01*
X88864678Y-81637304D01*
X88829299Y-81703492D01*
X88807513Y-81775311D01*
X88800157Y-81850000D01*
X76596000Y-81850000D01*
X76596000Y-77067444D01*
X78112161Y-77067444D01*
X78402780Y-77414450D01*
X78904506Y-77679659D01*
X79448332Y-77841890D01*
X80013357Y-77894909D01*
X80577869Y-77836678D01*
X81120174Y-77669435D01*
X81597220Y-77414450D01*
X81887839Y-77067444D01*
X80000000Y-75179605D01*
X78112161Y-77067444D01*
X76596000Y-77067444D01*
X76596000Y-75013357D01*
X77105091Y-75013357D01*
X77163322Y-75577869D01*
X77330565Y-76120174D01*
X77585550Y-76597220D01*
X77932556Y-76887839D01*
X79820395Y-75000000D01*
X80179605Y-75000000D01*
X82067444Y-76887839D01*
X82414450Y-76597220D01*
X82679659Y-76095494D01*
X82841890Y-75551668D01*
X82894909Y-74986643D01*
X82836678Y-74422131D01*
X82669435Y-73879826D01*
X82414450Y-73402780D01*
X82067444Y-73112161D01*
X80179605Y-75000000D01*
X79820395Y-75000000D01*
X77932556Y-73112161D01*
X77585550Y-73402780D01*
X77320341Y-73904506D01*
X77158110Y-74448332D01*
X77105091Y-75013357D01*
X76596000Y-75013357D01*
X76596000Y-72932556D01*
X78112161Y-72932556D01*
X80000000Y-74820395D01*
X81887839Y-72932556D01*
X81597220Y-72585550D01*
X81095494Y-72320341D01*
X80551668Y-72158110D01*
X79986643Y-72105091D01*
X79422131Y-72163322D01*
X78879826Y-72330565D01*
X78402780Y-72585550D01*
X78112161Y-72932556D01*
X76596000Y-72932556D01*
X76596000Y-64382605D01*
X76630820Y-64434717D01*
X76802283Y-64606180D01*
X76956001Y-64708891D01*
X76956000Y-65825009D01*
X76952948Y-65856000D01*
X76956000Y-65886990D01*
X76956000Y-65886997D01*
X76965130Y-65979697D01*
X77001211Y-66098641D01*
X77059804Y-66208260D01*
X77138657Y-66304343D01*
X77162737Y-66324105D01*
X79404899Y-68566268D01*
X79424657Y-68590343D01*
X79520739Y-68669196D01*
X79630358Y-68727789D01*
X79749302Y-68763870D01*
X79842002Y-68773000D01*
X79842011Y-68773000D01*
X79872999Y-68776052D01*
X79903987Y-68773000D01*
X81817632Y-68773000D01*
X89402001Y-76357370D01*
X89402000Y-79101110D01*
X89248283Y-79203820D01*
X89076820Y-79375283D01*
X88942102Y-79576903D01*
X88849307Y-79800931D01*
X88802000Y-80038757D01*
X88802000Y-80281243D01*
X88849307Y-80519069D01*
X88942102Y-80743097D01*
X89076820Y-80944717D01*
X89248283Y-81116180D01*
X89449903Y-81250898D01*
X89673931Y-81343693D01*
X89911757Y-81391000D01*
X90154243Y-81391000D01*
X90392069Y-81343693D01*
X90616097Y-81250898D01*
X90817717Y-81116180D01*
X90989180Y-80944717D01*
X91123898Y-80743097D01*
X91216693Y-80519069D01*
X91264000Y-80281243D01*
X91264000Y-80038757D01*
X91216693Y-79800931D01*
X91123898Y-79576903D01*
X90989180Y-79375283D01*
X90817717Y-79203820D01*
X90664000Y-79101110D01*
X90664000Y-76126990D01*
X90667052Y-76096000D01*
X90664000Y-76065009D01*
X90664000Y-76065002D01*
X90654870Y-75972302D01*
X90618789Y-75853358D01*
X90560196Y-75743739D01*
X90537261Y-75715793D01*
X90501103Y-75671734D01*
X90501101Y-75671732D01*
X90481343Y-75647657D01*
X90457268Y-75627899D01*
X82547105Y-67717737D01*
X82527343Y-67693657D01*
X82431261Y-67614804D01*
X82321642Y-67556211D01*
X82202698Y-67520130D01*
X82109998Y-67511000D01*
X82109990Y-67511000D01*
X82079000Y-67507948D01*
X82048010Y-67511000D01*
X80134369Y-67511000D01*
X78218000Y-65594632D01*
X78218000Y-64708890D01*
X78371717Y-64606180D01*
X78543180Y-64434717D01*
X78677898Y-64233097D01*
X78770693Y-64009069D01*
X78818000Y-63771243D01*
X78818000Y-63528757D01*
X78896000Y-63528757D01*
X78896000Y-63771243D01*
X78943307Y-64009069D01*
X79036102Y-64233097D01*
X79170820Y-64434717D01*
X79342283Y-64606180D01*
X79496000Y-64708891D01*
X79496000Y-65571009D01*
X79492948Y-65602000D01*
X79496000Y-65632990D01*
X79496000Y-65632997D01*
X79505130Y-65725697D01*
X79541211Y-65844641D01*
X79599804Y-65954260D01*
X79678657Y-66050343D01*
X79702737Y-66070105D01*
X80674899Y-67042268D01*
X80694657Y-67066343D01*
X80790739Y-67145196D01*
X80900358Y-67203789D01*
X81019302Y-67239870D01*
X81112002Y-67249000D01*
X81112009Y-67249000D01*
X81143000Y-67252052D01*
X81173990Y-67249000D01*
X82833632Y-67249000D01*
X91942001Y-76357370D01*
X91942000Y-79101110D01*
X91788283Y-79203820D01*
X91616820Y-79375283D01*
X91482102Y-79576903D01*
X91389307Y-79800931D01*
X91342000Y-80038757D01*
X91342000Y-80281243D01*
X91389307Y-80519069D01*
X91482102Y-80743097D01*
X91616820Y-80944717D01*
X91788283Y-81116180D01*
X91989903Y-81250898D01*
X92213931Y-81343693D01*
X92451757Y-81391000D01*
X92694243Y-81391000D01*
X92932069Y-81343693D01*
X93156097Y-81250898D01*
X93357717Y-81116180D01*
X93529180Y-80944717D01*
X93663898Y-80743097D01*
X93756693Y-80519069D01*
X93804000Y-80281243D01*
X93804000Y-80038757D01*
X93882000Y-80038757D01*
X93882000Y-80281243D01*
X93929307Y-80519069D01*
X94022102Y-80743097D01*
X94156820Y-80944717D01*
X94328283Y-81116180D01*
X94529903Y-81250898D01*
X94753931Y-81343693D01*
X94991757Y-81391000D01*
X95234243Y-81391000D01*
X95472069Y-81343693D01*
X95696097Y-81250898D01*
X95897717Y-81116180D01*
X96069180Y-80944717D01*
X96203898Y-80743097D01*
X96296693Y-80519069D01*
X96344000Y-80281243D01*
X96344000Y-80038757D01*
X96422000Y-80038757D01*
X96422000Y-80281243D01*
X96469307Y-80519069D01*
X96562102Y-80743097D01*
X96696820Y-80944717D01*
X96868283Y-81116180D01*
X97069903Y-81250898D01*
X97293931Y-81343693D01*
X97531757Y-81391000D01*
X97774243Y-81391000D01*
X98012069Y-81343693D01*
X98236097Y-81250898D01*
X98437717Y-81116180D01*
X98609180Y-80944717D01*
X98743898Y-80743097D01*
X98836693Y-80519069D01*
X98884000Y-80281243D01*
X98884000Y-80038757D01*
X98836693Y-79800931D01*
X98743898Y-79576903D01*
X98609180Y-79375283D01*
X98437717Y-79203820D01*
X98236097Y-79069102D01*
X98012069Y-78976307D01*
X97774243Y-78929000D01*
X97531757Y-78929000D01*
X97293931Y-78976307D01*
X97069903Y-79069102D01*
X96868283Y-79203820D01*
X96696820Y-79375283D01*
X96562102Y-79576903D01*
X96469307Y-79800931D01*
X96422000Y-80038757D01*
X96344000Y-80038757D01*
X96296693Y-79800931D01*
X96203898Y-79576903D01*
X96069180Y-79375283D01*
X95897717Y-79203820D01*
X95696097Y-79069102D01*
X95472069Y-78976307D01*
X95234243Y-78929000D01*
X94991757Y-78929000D01*
X94753931Y-78976307D01*
X94529903Y-79069102D01*
X94328283Y-79203820D01*
X94156820Y-79375283D01*
X94022102Y-79576903D01*
X93929307Y-79800931D01*
X93882000Y-80038757D01*
X93804000Y-80038757D01*
X93756693Y-79800931D01*
X93663898Y-79576903D01*
X93529180Y-79375283D01*
X93357717Y-79203820D01*
X93204000Y-79101110D01*
X93204000Y-76126987D01*
X93207052Y-76095999D01*
X93204000Y-76065011D01*
X93204000Y-76065002D01*
X93194870Y-75972302D01*
X93158789Y-75853358D01*
X93100196Y-75743739D01*
X93077261Y-75715793D01*
X93041103Y-75671734D01*
X93041101Y-75671732D01*
X93021343Y-75647657D01*
X92997268Y-75627899D01*
X83563105Y-66193737D01*
X83543343Y-66169657D01*
X83447261Y-66090804D01*
X83337642Y-66032211D01*
X83218698Y-65996130D01*
X83125998Y-65987000D01*
X83125990Y-65987000D01*
X83095000Y-65983948D01*
X83064010Y-65987000D01*
X81404369Y-65987000D01*
X80758000Y-65340632D01*
X80758000Y-64708890D01*
X80911717Y-64606180D01*
X81083180Y-64434717D01*
X81217898Y-64233097D01*
X81310693Y-64009069D01*
X81319064Y-63966981D01*
X81477505Y-63966981D01*
X81562201Y-64192949D01*
X81689353Y-64398052D01*
X81854076Y-64574408D01*
X82050039Y-64715239D01*
X82269712Y-64815134D01*
X82350020Y-64839489D01*
X82540000Y-64778627D01*
X82540000Y-63777000D01*
X82794000Y-63777000D01*
X82794000Y-64778627D01*
X82983980Y-64839489D01*
X83064288Y-64815134D01*
X83283961Y-64715239D01*
X83479924Y-64574408D01*
X83644647Y-64398052D01*
X83771799Y-64192949D01*
X83856495Y-63966981D01*
X83796187Y-63777000D01*
X82794000Y-63777000D01*
X82540000Y-63777000D01*
X81537813Y-63777000D01*
X81477505Y-63966981D01*
X81319064Y-63966981D01*
X81358000Y-63771243D01*
X81358000Y-63528757D01*
X81319065Y-63333019D01*
X81477505Y-63333019D01*
X81537813Y-63523000D01*
X82540000Y-63523000D01*
X82540000Y-62521373D01*
X82794000Y-62521373D01*
X82794000Y-63523000D01*
X83796187Y-63523000D01*
X83856495Y-63333019D01*
X83771799Y-63107051D01*
X83644647Y-62901948D01*
X83479924Y-62725592D01*
X83283961Y-62584761D01*
X83064288Y-62484866D01*
X82983980Y-62460511D01*
X82794000Y-62521373D01*
X82540000Y-62521373D01*
X82350020Y-62460511D01*
X82269712Y-62484866D01*
X82050039Y-62584761D01*
X81854076Y-62725592D01*
X81689353Y-62901948D01*
X81562201Y-63107051D01*
X81477505Y-63333019D01*
X81319065Y-63333019D01*
X81310693Y-63290931D01*
X81217898Y-63066903D01*
X81083180Y-62865283D01*
X80911717Y-62693820D01*
X80710097Y-62559102D01*
X80486069Y-62466307D01*
X80248243Y-62419000D01*
X80005757Y-62419000D01*
X79767931Y-62466307D01*
X79543903Y-62559102D01*
X79342283Y-62693820D01*
X79170820Y-62865283D01*
X79036102Y-63066903D01*
X78943307Y-63290931D01*
X78896000Y-63528757D01*
X78818000Y-63528757D01*
X78770693Y-63290931D01*
X78677898Y-63066903D01*
X78543180Y-62865283D01*
X78371717Y-62693820D01*
X78170097Y-62559102D01*
X77946069Y-62466307D01*
X77708243Y-62419000D01*
X77465757Y-62419000D01*
X77227931Y-62466307D01*
X77003903Y-62559102D01*
X76802283Y-62693820D01*
X76630820Y-62865283D01*
X76596000Y-62917395D01*
X76596000Y-59992000D01*
X86198000Y-59992000D01*
X86198001Y-62444628D01*
G37*
%TD.AperFunction*%
D23*
X115145970Y-64309578D02*
X115217898Y-64381506D01*
X115039922Y-64473523D01*
X114939434Y-64694207D01*
X114883931Y-64930255D01*
X114875544Y-65172596D01*
X114914598Y-65411917D01*
X114999589Y-65639020D01*
X115039922Y-65714477D01*
X115217900Y-65806495D01*
X115930395Y-65094000D01*
X115916253Y-65079858D01*
X116095858Y-64900253D01*
X116110000Y-64914395D01*
X116124143Y-64900253D01*
X116303748Y-65079858D01*
X116289605Y-65094000D01*
X117002100Y-65806495D01*
X117180078Y-65714477D01*
X117280566Y-65493793D01*
X117336069Y-65257745D01*
X117344456Y-65015404D01*
X117305402Y-64776083D01*
X117220411Y-64548980D01*
X117180078Y-64473523D01*
X117002102Y-64381506D01*
X117074030Y-64309578D01*
X116994452Y-64230000D01*
X123433103Y-64230000D01*
X123353820Y-64309283D01*
X123219102Y-64510903D01*
X123126307Y-64734931D01*
X123079000Y-64972757D01*
X123079000Y-65215243D01*
X123126307Y-65453069D01*
X123219102Y-65677097D01*
X123353820Y-65878717D01*
X123525283Y-66050180D01*
X123726903Y-66184898D01*
X123950931Y-66277693D01*
X124188757Y-66325000D01*
X124431243Y-66325000D01*
X124669069Y-66277693D01*
X124671166Y-66276824D01*
X125748601Y-67354260D01*
X125748600Y-72708342D01*
X125109617Y-72069360D01*
X125091417Y-72047183D01*
X125002948Y-71974579D01*
X124902015Y-71920629D01*
X124792496Y-71887407D01*
X124707140Y-71879000D01*
X124678600Y-71876189D01*
X124650060Y-71879000D01*
X114657658Y-71879000D01*
X113474000Y-70695343D01*
X113474000Y-67448134D01*
X115879000Y-67448134D01*
X115879000Y-67739866D01*
X115935914Y-68025992D01*
X116047555Y-68295517D01*
X116209632Y-68538083D01*
X116415917Y-68744368D01*
X116658483Y-68906445D01*
X116928008Y-69018086D01*
X117214134Y-69075000D01*
X117505866Y-69075000D01*
X117791992Y-69018086D01*
X118061517Y-68906445D01*
X118304083Y-68744368D01*
X118510368Y-68538083D01*
X118672445Y-68295517D01*
X118784086Y-68025992D01*
X118841000Y-67739866D01*
X118841000Y-67448134D01*
X121579000Y-67448134D01*
X121579000Y-67739866D01*
X121635914Y-68025992D01*
X121747555Y-68295517D01*
X121909632Y-68538083D01*
X122115917Y-68744368D01*
X122358483Y-68906445D01*
X122628008Y-69018086D01*
X122914134Y-69075000D01*
X123205866Y-69075000D01*
X123491992Y-69018086D01*
X123761517Y-68906445D01*
X124004083Y-68744368D01*
X124210368Y-68538083D01*
X124372445Y-68295517D01*
X124484086Y-68025992D01*
X124541000Y-67739866D01*
X124541000Y-67448134D01*
X124484086Y-67162008D01*
X124372445Y-66892483D01*
X124210368Y-66649917D01*
X124004083Y-66443632D01*
X123761517Y-66281555D01*
X123491992Y-66169914D01*
X123205866Y-66113000D01*
X122914134Y-66113000D01*
X122628008Y-66169914D01*
X122358483Y-66281555D01*
X122115917Y-66443632D01*
X121909632Y-66649917D01*
X121747555Y-66892483D01*
X121635914Y-67162008D01*
X121579000Y-67448134D01*
X118841000Y-67448134D01*
X118784086Y-67162008D01*
X118672445Y-66892483D01*
X118510368Y-66649917D01*
X118304083Y-66443632D01*
X118061517Y-66281555D01*
X117791992Y-66169914D01*
X117505866Y-66113000D01*
X117214134Y-66113000D01*
X116928008Y-66169914D01*
X116658483Y-66281555D01*
X116415917Y-66443632D01*
X116209632Y-66649917D01*
X116047555Y-66892483D01*
X115935914Y-67162008D01*
X115879000Y-67448134D01*
X113474000Y-67448134D01*
X113474000Y-66405539D01*
X113476811Y-66376999D01*
X113465593Y-66263104D01*
X113432371Y-66153585D01*
X113378421Y-66052652D01*
X113376392Y-66050180D01*
X113323804Y-65986100D01*
X115397505Y-65986100D01*
X115489523Y-66164078D01*
X115710207Y-66264566D01*
X115946255Y-66320069D01*
X116188596Y-66328456D01*
X116427917Y-66289402D01*
X116655020Y-66204411D01*
X116730477Y-66164078D01*
X116822495Y-65986100D01*
X116110000Y-65273605D01*
X115397505Y-65986100D01*
X113323804Y-65986100D01*
X113305817Y-65964183D01*
X113283645Y-65945987D01*
X112792824Y-65455167D01*
X112793693Y-65453069D01*
X112841000Y-65215243D01*
X112841000Y-64972757D01*
X112793693Y-64734931D01*
X112700898Y-64510903D01*
X112566180Y-64309283D01*
X112486897Y-64230000D01*
X115225548Y-64230000D01*
X115145970Y-64309578D01*
%TA.AperFunction,Conductor*%
D24*
G36*
X115145970Y-64309578D02*
G01*
X115217898Y-64381506D01*
X115039922Y-64473523D01*
X114939434Y-64694207D01*
X114883931Y-64930255D01*
X114875544Y-65172596D01*
X114914598Y-65411917D01*
X114999589Y-65639020D01*
X115039922Y-65714477D01*
X115217900Y-65806495D01*
X115930395Y-65094000D01*
X115916253Y-65079858D01*
X116095858Y-64900253D01*
X116110000Y-64914395D01*
X116124143Y-64900253D01*
X116303748Y-65079858D01*
X116289605Y-65094000D01*
X117002100Y-65806495D01*
X117180078Y-65714477D01*
X117280566Y-65493793D01*
X117336069Y-65257745D01*
X117344456Y-65015404D01*
X117305402Y-64776083D01*
X117220411Y-64548980D01*
X117180078Y-64473523D01*
X117002102Y-64381506D01*
X117074030Y-64309578D01*
X116994452Y-64230000D01*
X123433103Y-64230000D01*
X123353820Y-64309283D01*
X123219102Y-64510903D01*
X123126307Y-64734931D01*
X123079000Y-64972757D01*
X123079000Y-65215243D01*
X123126307Y-65453069D01*
X123219102Y-65677097D01*
X123353820Y-65878717D01*
X123525283Y-66050180D01*
X123726903Y-66184898D01*
X123950931Y-66277693D01*
X124188757Y-66325000D01*
X124431243Y-66325000D01*
X124669069Y-66277693D01*
X124671166Y-66276824D01*
X125748601Y-67354260D01*
X125748600Y-72708342D01*
X125109617Y-72069360D01*
X125091417Y-72047183D01*
X125002948Y-71974579D01*
X124902015Y-71920629D01*
X124792496Y-71887407D01*
X124707140Y-71879000D01*
X124678600Y-71876189D01*
X124650060Y-71879000D01*
X114657658Y-71879000D01*
X113474000Y-70695343D01*
X113474000Y-67448134D01*
X115879000Y-67448134D01*
X115879000Y-67739866D01*
X115935914Y-68025992D01*
X116047555Y-68295517D01*
X116209632Y-68538083D01*
X116415917Y-68744368D01*
X116658483Y-68906445D01*
X116928008Y-69018086D01*
X117214134Y-69075000D01*
X117505866Y-69075000D01*
X117791992Y-69018086D01*
X118061517Y-68906445D01*
X118304083Y-68744368D01*
X118510368Y-68538083D01*
X118672445Y-68295517D01*
X118784086Y-68025992D01*
X118841000Y-67739866D01*
X118841000Y-67448134D01*
X121579000Y-67448134D01*
X121579000Y-67739866D01*
X121635914Y-68025992D01*
X121747555Y-68295517D01*
X121909632Y-68538083D01*
X122115917Y-68744368D01*
X122358483Y-68906445D01*
X122628008Y-69018086D01*
X122914134Y-69075000D01*
X123205866Y-69075000D01*
X123491992Y-69018086D01*
X123761517Y-68906445D01*
X124004083Y-68744368D01*
X124210368Y-68538083D01*
X124372445Y-68295517D01*
X124484086Y-68025992D01*
X124541000Y-67739866D01*
X124541000Y-67448134D01*
X124484086Y-67162008D01*
X124372445Y-66892483D01*
X124210368Y-66649917D01*
X124004083Y-66443632D01*
X123761517Y-66281555D01*
X123491992Y-66169914D01*
X123205866Y-66113000D01*
X122914134Y-66113000D01*
X122628008Y-66169914D01*
X122358483Y-66281555D01*
X122115917Y-66443632D01*
X121909632Y-66649917D01*
X121747555Y-66892483D01*
X121635914Y-67162008D01*
X121579000Y-67448134D01*
X118841000Y-67448134D01*
X118784086Y-67162008D01*
X118672445Y-66892483D01*
X118510368Y-66649917D01*
X118304083Y-66443632D01*
X118061517Y-66281555D01*
X117791992Y-66169914D01*
X117505866Y-66113000D01*
X117214134Y-66113000D01*
X116928008Y-66169914D01*
X116658483Y-66281555D01*
X116415917Y-66443632D01*
X116209632Y-66649917D01*
X116047555Y-66892483D01*
X115935914Y-67162008D01*
X115879000Y-67448134D01*
X113474000Y-67448134D01*
X113474000Y-66405539D01*
X113476811Y-66376999D01*
X113465593Y-66263104D01*
X113432371Y-66153585D01*
X113378421Y-66052652D01*
X113376392Y-66050180D01*
X113323804Y-65986100D01*
X115397505Y-65986100D01*
X115489523Y-66164078D01*
X115710207Y-66264566D01*
X115946255Y-66320069D01*
X116188596Y-66328456D01*
X116427917Y-66289402D01*
X116655020Y-66204411D01*
X116730477Y-66164078D01*
X116822495Y-65986100D01*
X116110000Y-65273605D01*
X115397505Y-65986100D01*
X113323804Y-65986100D01*
X113305817Y-65964183D01*
X113283645Y-65945987D01*
X112792824Y-65455167D01*
X112793693Y-65453069D01*
X112841000Y-65215243D01*
X112841000Y-64972757D01*
X112793693Y-64734931D01*
X112700898Y-64510903D01*
X112566180Y-64309283D01*
X112486897Y-64230000D01*
X115225548Y-64230000D01*
X115145970Y-64309578D01*
G37*
%TD.AperFunction*%
D23*
X127845970Y-64309578D02*
X127917898Y-64381506D01*
X127739922Y-64473523D01*
X127639434Y-64694207D01*
X127583931Y-64930255D01*
X127575544Y-65172596D01*
X127614598Y-65411917D01*
X127699589Y-65639020D01*
X127739922Y-65714477D01*
X127917900Y-65806495D01*
X128630395Y-65094000D01*
X128616253Y-65079858D01*
X128795858Y-64900253D01*
X128810000Y-64914395D01*
X128824143Y-64900253D01*
X129003748Y-65079858D01*
X128989605Y-65094000D01*
X129702100Y-65806495D01*
X129880078Y-65714477D01*
X129980566Y-65493793D01*
X130036069Y-65257745D01*
X130044456Y-65015404D01*
X130005402Y-64776083D01*
X129920411Y-64548980D01*
X129880078Y-64473523D01*
X129702102Y-64381506D01*
X129774030Y-64309578D01*
X129694452Y-64230000D01*
X136133103Y-64230000D01*
X136053820Y-64309283D01*
X135919102Y-64510903D01*
X135826307Y-64734931D01*
X135779000Y-64972757D01*
X135779000Y-65215243D01*
X135826307Y-65453069D01*
X135919102Y-65677097D01*
X136053820Y-65878717D01*
X136225283Y-66050180D01*
X136426903Y-66184898D01*
X136650931Y-66277693D01*
X136888757Y-66325000D01*
X137131243Y-66325000D01*
X137278999Y-66295609D01*
X137279000Y-70239342D01*
X136909343Y-70609000D01*
X129291501Y-70609000D01*
X129265859Y-70583358D01*
X129137942Y-70497887D01*
X128995809Y-70439013D01*
X128844922Y-70409000D01*
X128691078Y-70409000D01*
X128540191Y-70439013D01*
X128398058Y-70497887D01*
X128270141Y-70583358D01*
X128244499Y-70609000D01*
X128161540Y-70609000D01*
X128133000Y-70606189D01*
X128104460Y-70609000D01*
X128019104Y-70617407D01*
X127909585Y-70650629D01*
X127808652Y-70704579D01*
X127720183Y-70777183D01*
X127701990Y-70799352D01*
X126910600Y-71590743D01*
X126910600Y-67448134D01*
X128579000Y-67448134D01*
X128579000Y-67739866D01*
X128635914Y-68025992D01*
X128747555Y-68295517D01*
X128909632Y-68538083D01*
X129115917Y-68744368D01*
X129358483Y-68906445D01*
X129628008Y-69018086D01*
X129914134Y-69075000D01*
X130205866Y-69075000D01*
X130491992Y-69018086D01*
X130761517Y-68906445D01*
X131004083Y-68744368D01*
X131210368Y-68538083D01*
X131372445Y-68295517D01*
X131484086Y-68025992D01*
X131541000Y-67739866D01*
X131541000Y-67448134D01*
X134279000Y-67448134D01*
X134279000Y-67739866D01*
X134335914Y-68025992D01*
X134447555Y-68295517D01*
X134609632Y-68538083D01*
X134815917Y-68744368D01*
X135058483Y-68906445D01*
X135328008Y-69018086D01*
X135614134Y-69075000D01*
X135905866Y-69075000D01*
X136191992Y-69018086D01*
X136461517Y-68906445D01*
X136704083Y-68744368D01*
X136910368Y-68538083D01*
X137072445Y-68295517D01*
X137184086Y-68025992D01*
X137241000Y-67739866D01*
X137241000Y-67448134D01*
X137184086Y-67162008D01*
X137072445Y-66892483D01*
X136910368Y-66649917D01*
X136704083Y-66443632D01*
X136461517Y-66281555D01*
X136191992Y-66169914D01*
X135905866Y-66113000D01*
X135614134Y-66113000D01*
X135328008Y-66169914D01*
X135058483Y-66281555D01*
X134815917Y-66443632D01*
X134609632Y-66649917D01*
X134447555Y-66892483D01*
X134335914Y-67162008D01*
X134279000Y-67448134D01*
X131541000Y-67448134D01*
X131484086Y-67162008D01*
X131372445Y-66892483D01*
X131210368Y-66649917D01*
X131004083Y-66443632D01*
X130761517Y-66281555D01*
X130491992Y-66169914D01*
X130205866Y-66113000D01*
X129914134Y-66113000D01*
X129628008Y-66169914D01*
X129358483Y-66281555D01*
X129115917Y-66443632D01*
X128909632Y-66649917D01*
X128747555Y-66892483D01*
X128635914Y-67162008D01*
X128579000Y-67448134D01*
X126910600Y-67448134D01*
X126910600Y-67142140D01*
X126913411Y-67113600D01*
X126902193Y-66999704D01*
X126868971Y-66890185D01*
X126815021Y-66789252D01*
X126760610Y-66722951D01*
X126760608Y-66722949D01*
X126742417Y-66700783D01*
X126720251Y-66682592D01*
X126023759Y-65986100D01*
X128097505Y-65986100D01*
X128189523Y-66164078D01*
X128410207Y-66264566D01*
X128646255Y-66320069D01*
X128888596Y-66328456D01*
X129127917Y-66289402D01*
X129355020Y-66204411D01*
X129430477Y-66164078D01*
X129522495Y-65986100D01*
X128810000Y-65273605D01*
X128097505Y-65986100D01*
X126023759Y-65986100D01*
X125492824Y-65455166D01*
X125493693Y-65453069D01*
X125541000Y-65215243D01*
X125541000Y-64972757D01*
X125493693Y-64734931D01*
X125400898Y-64510903D01*
X125266180Y-64309283D01*
X125186897Y-64230000D01*
X127925548Y-64230000D01*
X127845970Y-64309578D01*
%TA.AperFunction,Conductor*%
D24*
G36*
X127845970Y-64309578D02*
G01*
X127917898Y-64381506D01*
X127739922Y-64473523D01*
X127639434Y-64694207D01*
X127583931Y-64930255D01*
X127575544Y-65172596D01*
X127614598Y-65411917D01*
X127699589Y-65639020D01*
X127739922Y-65714477D01*
X127917900Y-65806495D01*
X128630395Y-65094000D01*
X128616253Y-65079858D01*
X128795858Y-64900253D01*
X128810000Y-64914395D01*
X128824143Y-64900253D01*
X129003748Y-65079858D01*
X128989605Y-65094000D01*
X129702100Y-65806495D01*
X129880078Y-65714477D01*
X129980566Y-65493793D01*
X130036069Y-65257745D01*
X130044456Y-65015404D01*
X130005402Y-64776083D01*
X129920411Y-64548980D01*
X129880078Y-64473523D01*
X129702102Y-64381506D01*
X129774030Y-64309578D01*
X129694452Y-64230000D01*
X136133103Y-64230000D01*
X136053820Y-64309283D01*
X135919102Y-64510903D01*
X135826307Y-64734931D01*
X135779000Y-64972757D01*
X135779000Y-65215243D01*
X135826307Y-65453069D01*
X135919102Y-65677097D01*
X136053820Y-65878717D01*
X136225283Y-66050180D01*
X136426903Y-66184898D01*
X136650931Y-66277693D01*
X136888757Y-66325000D01*
X137131243Y-66325000D01*
X137278999Y-66295609D01*
X137279000Y-70239342D01*
X136909343Y-70609000D01*
X129291501Y-70609000D01*
X129265859Y-70583358D01*
X129137942Y-70497887D01*
X128995809Y-70439013D01*
X128844922Y-70409000D01*
X128691078Y-70409000D01*
X128540191Y-70439013D01*
X128398058Y-70497887D01*
X128270141Y-70583358D01*
X128244499Y-70609000D01*
X128161540Y-70609000D01*
X128133000Y-70606189D01*
X128104460Y-70609000D01*
X128019104Y-70617407D01*
X127909585Y-70650629D01*
X127808652Y-70704579D01*
X127720183Y-70777183D01*
X127701990Y-70799352D01*
X126910600Y-71590743D01*
X126910600Y-67448134D01*
X128579000Y-67448134D01*
X128579000Y-67739866D01*
X128635914Y-68025992D01*
X128747555Y-68295517D01*
X128909632Y-68538083D01*
X129115917Y-68744368D01*
X129358483Y-68906445D01*
X129628008Y-69018086D01*
X129914134Y-69075000D01*
X130205866Y-69075000D01*
X130491992Y-69018086D01*
X130761517Y-68906445D01*
X131004083Y-68744368D01*
X131210368Y-68538083D01*
X131372445Y-68295517D01*
X131484086Y-68025992D01*
X131541000Y-67739866D01*
X131541000Y-67448134D01*
X134279000Y-67448134D01*
X134279000Y-67739866D01*
X134335914Y-68025992D01*
X134447555Y-68295517D01*
X134609632Y-68538083D01*
X134815917Y-68744368D01*
X135058483Y-68906445D01*
X135328008Y-69018086D01*
X135614134Y-69075000D01*
X135905866Y-69075000D01*
X136191992Y-69018086D01*
X136461517Y-68906445D01*
X136704083Y-68744368D01*
X136910368Y-68538083D01*
X137072445Y-68295517D01*
X137184086Y-68025992D01*
X137241000Y-67739866D01*
X137241000Y-67448134D01*
X137184086Y-67162008D01*
X137072445Y-66892483D01*
X136910368Y-66649917D01*
X136704083Y-66443632D01*
X136461517Y-66281555D01*
X136191992Y-66169914D01*
X135905866Y-66113000D01*
X135614134Y-66113000D01*
X135328008Y-66169914D01*
X135058483Y-66281555D01*
X134815917Y-66443632D01*
X134609632Y-66649917D01*
X134447555Y-66892483D01*
X134335914Y-67162008D01*
X134279000Y-67448134D01*
X131541000Y-67448134D01*
X131484086Y-67162008D01*
X131372445Y-66892483D01*
X131210368Y-66649917D01*
X131004083Y-66443632D01*
X130761517Y-66281555D01*
X130491992Y-66169914D01*
X130205866Y-66113000D01*
X129914134Y-66113000D01*
X129628008Y-66169914D01*
X129358483Y-66281555D01*
X129115917Y-66443632D01*
X128909632Y-66649917D01*
X128747555Y-66892483D01*
X128635914Y-67162008D01*
X128579000Y-67448134D01*
X126910600Y-67448134D01*
X126910600Y-67142140D01*
X126913411Y-67113600D01*
X126902193Y-66999704D01*
X126868971Y-66890185D01*
X126815021Y-66789252D01*
X126760610Y-66722951D01*
X126760608Y-66722949D01*
X126742417Y-66700783D01*
X126720251Y-66682592D01*
X126023759Y-65986100D01*
X128097505Y-65986100D01*
X128189523Y-66164078D01*
X128410207Y-66264566D01*
X128646255Y-66320069D01*
X128888596Y-66328456D01*
X129127917Y-66289402D01*
X129355020Y-66204411D01*
X129430477Y-66164078D01*
X129522495Y-65986100D01*
X128810000Y-65273605D01*
X128097505Y-65986100D01*
X126023759Y-65986100D01*
X125492824Y-65455166D01*
X125493693Y-65453069D01*
X125541000Y-65215243D01*
X125541000Y-64972757D01*
X125493693Y-64734931D01*
X125400898Y-64510903D01*
X125266180Y-64309283D01*
X125186897Y-64230000D01*
X127925548Y-64230000D01*
X127845970Y-64309578D01*
G37*
%TD.AperFunction*%
%TD*%
M02*
