  0
SECTION
  2
HEADER
  9
$ANGBASE
  50
0.0
  9
$ANGDIR
  70
1
  9
$MEASUREMENT
  70
1
  0
ENDSEC
  0
SECTION
  2
TABLES
  0
TABLE
  2
LTYPE
  70
4
  0
LTYPE
  5
40F
  2
CONTINUOUS
  70
0
  3
Solid line
  72
65
  73
0
  40
0.0
  0
LTYPE
  5
410
  2
DASHDOT
 70
0
  3
Dash Dot ____ _ ____ _
 72
65
 73
4
 40
2.0
 49
1.25
 49
-0.25
 49
0.25
 49
-0.25
  0
LTYPE
  5
411
  2
DASHED
 70
0
  3
Dashed __ __ __ __ __
 72
65
 73
2
 40
0.75
 49
0.5
 49
-0.25
  0
LTYPE
  5
43B
  2
DOTTED
 70
0
  3
Dotted .  .  .  .
 72
65
 73
2
 40
0.2
 49
0.0
 49
-0.2
  0
ENDTAB
  0
TABLE
  2
STYLE
  70
4
  0
STYLE
  2
KICAD
  70
0
  40
0
  41
1
  42
1
  50
0
  71
0
  3
isocp.shx
  0
STYLE
  2
KICADB
  70
0
  40
0
  41
1
  42
1
  50
0
  71
0
  3
isocp.shx
  0
STYLE
  2
KICADI
  70
0
  40
0
  41
1
  42
1
  50
15
  71
0
  3
isocp.shx
  0
STYLE
  2
KICADBI
  70
0
  40
0
  41
1
  42
1
  50
15
  71
0
  3
isocp.shx
  0
ENDTAB
  0
TABLE
  2
LAYER
  70
1
  0
LAYER
  2
BLACK
  70
0
  62
7
  6
CONTINUOUS
  0
ENDTAB
  0
ENDSEC
  0
SECTION
  2
ENTITIES
0
LINE
8
BLACK
6
CONTINUOUS
10
79.6166
20
-86.2009
11
79.6166
21
-86.2009
0
LINE
8
BLACK
6
CONTINUOUS
10
79.6166
20
-86.2009
11
78.9505
21
-86.1356
0
LINE
8
BLACK
6
CONTINUOUS
10
78.9505
20
-86.1356
11
78.9502
21
-86.1355
0
LINE
8
BLACK
6
CONTINUOUS
10
78.9502
20
-86.1355
11
78.9479
21
-86.1351
0
LINE
8
BLACK
6
CONTINUOUS
10
78.9479
20
-86.1351
11
78.9457
21
-86.1346
0
LINE
8
BLACK
6
CONTINUOUS
10
78.9457
20
-86.1346
11
78.3051
21
-85.9412
0
LINE
8
BLACK
6
CONTINUOUS
10
78.3051
20
-85.9412
11
78.3048
21
-85.9411
0
LINE
8
BLACK
6
CONTINUOUS
10
78.3048
20
-85.9411
11
78.3027
21
-85.9402
0
LINE
8
BLACK
6
CONTINUOUS
10
78.3027
20
-85.9402
11
78.3006
21
-85.9393
0
LINE
8
BLACK
6
CONTINUOUS
10
78.3006
20
-85.9393
11
77.7097
21
-85.6252
0
LINE
8
BLACK
6
CONTINUOUS
10
77.7097
20
-85.6252
11
77.7094
21
-85.625
0
LINE
8
BLACK
6
CONTINUOUS
10
77.7094
20
-85.625
11
77.7075
21
-85.6237
0
LINE
8
BLACK
6
CONTINUOUS
10
77.7075
20
-85.6237
11
77.7056
21
-85.6225
0
LINE
8
BLACK
6
CONTINUOUS
10
77.7056
20
-85.6225
11
77.187
21
-85.1995
0
LINE
8
BLACK
6
CONTINUOUS
10
77.187
20
-85.1995
11
77.1867
21
-85.1993
0
LINE
8
BLACK
6
CONTINUOUS
10
77.1867
20
-85.1993
11
77.1852
21
-85.1977
0
LINE
8
BLACK
6
CONTINUOUS
10
77.1852
20
-85.1977
11
77.1835
21
-85.1961
0
LINE
8
BLACK
6
CONTINUOUS
10
77.1835
20
-85.1961
11
76.757
21
-84.6804
0
LINE
8
BLACK
6
CONTINUOUS
10
76.757
20
-84.6804
11
76.7567
21
-84.6801
0
LINE
8
BLACK
6
CONTINUOUS
10
76.7567
20
-84.6801
11
76.7555
21
-84.6782
0
LINE
8
BLACK
6
CONTINUOUS
10
76.7555
20
-84.6782
11
76.7542
21
-84.6764
0
LINE
8
BLACK
6
CONTINUOUS
10
76.7542
20
-84.6764
11
76.4359
21
-84.0877
0
LINE
8
BLACK
6
CONTINUOUS
10
76.4359
20
-84.0877
11
76.4358
21
-84.0874
0
LINE
8
BLACK
6
CONTINUOUS
10
76.4358
20
-84.0874
11
76.4349
21
-84.0853
0
LINE
8
BLACK
6
CONTINUOUS
10
76.4349
20
-84.0853
11
76.434
21
-84.0832
0
LINE
8
BLACK
6
CONTINUOUS
10
76.434
20
-84.0832
11
76.2362
21
-83.4439
0
LINE
8
BLACK
6
CONTINUOUS
10
76.2362
20
-83.4439
11
76.2361
21
-83.4436
0
LINE
8
BLACK
6
CONTINUOUS
10
76.2361
20
-83.4436
11
76.2356
21
-83.4413
0
LINE
8
BLACK
6
CONTINUOUS
10
76.2356
20
-83.4413
11
76.2352
21
-83.4391
0
LINE
8
BLACK
6
CONTINUOUS
10
76.2352
20
-83.4391
11
76.1652
21
-82.7736
0
LINE
8
BLACK
6
CONTINUOUS
10
76.1652
20
-82.7736
11
76.1652
21
-82.7732
0
LINE
8
BLACK
6
CONTINUOUS
10
76.1652
20
-82.7732
11
76.1652
21
-82.7721
0
LINE
8
BLACK
6
CONTINUOUS
10
76.1652
20
-82.7721
11
76.1651
21
-82.771
0
LINE
8
BLACK
6
CONTINUOUS
10
76.1651
20
-82.771
11
76.165
21
-82.7483
0
LINE
8
BLACK
6
CONTINUOUS
10
76.165
20
-82.7483
11
76.165
21
-82.7482
0
LINE
8
BLACK
6
CONTINUOUS
10
76.165
20
-82.7482
11
76.165
21
-59.5872
0
LINE
8
BLACK
6
CONTINUOUS
10
76.165
20
-59.5872
11
76.1649
21
-59.586
0
LINE
8
BLACK
6
CONTINUOUS
10
76.1649
20
-59.586
11
76.1654
21
-59.5811
0
LINE
8
BLACK
6
CONTINUOUS
10
76.1654
20
-59.5811
11
76.1668
21
-59.5764
0
LINE
8
BLACK
6
CONTINUOUS
10
76.1668
20
-59.5764
11
76.1691
21
-59.572
0
LINE
8
BLACK
6
CONTINUOUS
10
76.1691
20
-59.572
11
76.1722
21
-59.5682
0
LINE
8
BLACK
6
CONTINUOUS
10
76.1722
20
-59.5682
11
76.176
21
-59.5651
0
LINE
8
BLACK
6
CONTINUOUS
10
76.176
20
-59.5651
11
76.1804
21
-59.5628
0
LINE
8
BLACK
6
CONTINUOUS
10
76.1804
20
-59.5628
11
76.1851
21
-59.5614
0
LINE
8
BLACK
6
CONTINUOUS
10
76.1851
20
-59.5614
11
76.1888
21
-59.561
0
LINE
8
BLACK
6
CONTINUOUS
10
76.1888
20
-59.561
11
76.1888
21
-59.561
0
LINE
8
BLACK
6
CONTINUOUS
10
76.1888
20
-59.561
11
76.19
21
-59.5609
0
LINE
8
BLACK
6
CONTINUOUS
10
76.19
20
-59.5609
11
76.1912
21
-59.561
0
LINE
8
BLACK
6
CONTINUOUS
10
76.1912
20
-59.561
11
86.6028
21
-59.561
0
LINE
8
BLACK
6
CONTINUOUS
10
86.6028
20
-59.561
11
86.604
21
-59.5609
0
LINE
8
BLACK
6
CONTINUOUS
10
86.604
20
-59.5609
11
86.6052
21
-59.561
0
LINE
8
BLACK
6
CONTINUOUS
10
86.6052
20
-59.561
11
86.6052
21
-59.561
0
LINE
8
BLACK
6
CONTINUOUS
10
86.6052
20
-59.561
11
86.6089
21
-59.5614
0
LINE
8
BLACK
6
CONTINUOUS
10
86.6089
20
-59.5614
11
86.6136
21
-59.5628
0
LINE
8
BLACK
6
CONTINUOUS
10
86.6136
20
-59.5628
11
86.618
21
-59.5651
0
LINE
8
BLACK
6
CONTINUOUS
10
86.618
20
-59.5651
11
86.6218
21
-59.5682
0
LINE
8
BLACK
6
CONTINUOUS
10
86.6218
20
-59.5682
11
86.6249
21
-59.572
0
LINE
8
BLACK
6
CONTINUOUS
10
86.6249
20
-59.572
11
86.6272
21
-59.5764
0
LINE
8
BLACK
6
CONTINUOUS
10
86.6272
20
-59.5764
11
86.6286
21
-59.5811
0
LINE
8
BLACK
6
CONTINUOUS
10
86.6286
20
-59.5811
11
86.6291
21
-59.586
0
LINE
8
BLACK
6
CONTINUOUS
10
86.6291
20
-59.586
11
86.629
21
-59.5872
0
LINE
8
BLACK
6
CONTINUOUS
10
86.629
20
-59.5872
11
86.629
21
-63.799
0
LINE
8
BLACK
6
CONTINUOUS
10
86.629
20
-63.799
11
144.261
21
-63.799
0
LINE
8
BLACK
6
CONTINUOUS
10
144.261
20
-63.799
11
144.262
21
-63.7989
0
LINE
8
BLACK
6
CONTINUOUS
10
144.262
20
-63.7989
11
144.263
21
-63.799
0
LINE
8
BLACK
6
CONTINUOUS
10
144.263
20
-63.799
11
144.263
21
-63.799
0
LINE
8
BLACK
6
CONTINUOUS
10
144.263
20
-63.799
11
144.267
21
-63.7994
0
LINE
8
BLACK
6
CONTINUOUS
10
144.267
20
-63.7994
11
144.272
21
-63.8008
0
LINE
8
BLACK
6
CONTINUOUS
10
144.272
20
-63.8008
11
144.276
21
-63.8031
0
LINE
8
BLACK
6
CONTINUOUS
10
144.276
20
-63.8031
11
144.28
21
-63.8062
0
LINE
8
BLACK
6
CONTINUOUS
10
144.28
20
-63.8062
11
144.283
21
-63.81
0
LINE
8
BLACK
6
CONTINUOUS
10
144.283
20
-63.81
11
144.285
21
-63.8144
0
LINE
8
BLACK
6
CONTINUOUS
10
144.285
20
-63.8144
11
144.287
21
-63.8191
0
LINE
8
BLACK
6
CONTINUOUS
10
144.287
20
-63.8191
11
144.287
21
-63.824
0
LINE
8
BLACK
6
CONTINUOUS
10
144.287
20
-63.824
11
144.287
21
-63.8252
0
LINE
8
BLACK
6
CONTINUOUS
10
144.287
20
-63.8252
11
144.287
21
-82.7482
0
LINE
8
BLACK
6
CONTINUOUS
10
144.287
20
-82.7482
11
144.287
21
-82.7494
0
LINE
8
BLACK
6
CONTINUOUS
10
144.287
20
-82.7494
11
144.287
21
-82.7494
0
LINE
8
BLACK
6
CONTINUOUS
10
144.287
20
-82.7494
11
144.222
21
-83.4155
0
LINE
8
BLACK
6
CONTINUOUS
10
144.222
20
-83.4155
11
144.222
21
-83.4158
0
LINE
8
BLACK
6
CONTINUOUS
10
144.222
20
-83.4158
11
144.221
21
-83.4181
0
LINE
8
BLACK
6
CONTINUOUS
10
144.221
20
-83.4181
11
144.221
21
-83.4203
0
LINE
8
BLACK
6
CONTINUOUS
10
144.221
20
-83.4203
11
144.027
21
-84.0609
0
LINE
8
BLACK
6
CONTINUOUS
10
144.027
20
-84.0609
11
144.027
21
-84.0612
0
LINE
8
BLACK
6
CONTINUOUS
10
144.027
20
-84.0612
11
144.026
21
-84.0633
0
LINE
8
BLACK
6
CONTINUOUS
10
144.026
20
-84.0633
11
144.025
21
-84.0654
0
LINE
8
BLACK
6
CONTINUOUS
10
144.025
20
-84.0654
11
143.711
21
-84.6563
0
LINE
8
BLACK
6
CONTINUOUS
10
143.711
20
-84.6563
11
143.711
21
-84.6566
0
LINE
8
BLACK
6
CONTINUOUS
10
143.711
20
-84.6566
11
143.71
21
-84.6585
0
LINE
8
BLACK
6
CONTINUOUS
10
143.71
20
-84.6585
11
143.708
21
-84.6604
0
LINE
8
BLACK
6
CONTINUOUS
10
143.708
20
-84.6604
11
143.285
21
-85.179
0
LINE
8
BLACK
6
CONTINUOUS
10
143.285
20
-85.179
11
143.285
21
-85.1793
0
LINE
8
BLACK
6
CONTINUOUS
10
143.285
20
-85.1793
11
143.284
21
-85.1808
0
LINE
8
BLACK
6
CONTINUOUS
10
143.284
20
-85.1808
11
143.282
21
-85.1825
0
LINE
8
BLACK
6
CONTINUOUS
10
143.282
20
-85.1825
11
142.766
21
-85.609
0
LINE
8
BLACK
6
CONTINUOUS
10
142.766
20
-85.609
11
142.766
21
-85.6093
0
LINE
8
BLACK
6
CONTINUOUS
10
142.766
20
-85.6093
11
142.764
21
-85.6105
0
LINE
8
BLACK
6
CONTINUOUS
10
142.764
20
-85.6105
11
142.762
21
-85.6118
0
LINE
8
BLACK
6
CONTINUOUS
10
142.762
20
-85.6118
11
142.174
21
-85.9301
0
LINE
8
BLACK
6
CONTINUOUS
10
142.174
20
-85.9301
11
142.173
21
-85.9302
0
LINE
8
BLACK
6
CONTINUOUS
10
142.173
20
-85.9302
11
142.171
21
-85.9311
0
LINE
8
BLACK
6
CONTINUOUS
10
142.171
20
-85.9311
11
142.169
21
-85.932
0
LINE
8
BLACK
6
CONTINUOUS
10
142.169
20
-85.932
11
141.53
21
-86.1298
0
LINE
8
BLACK
6
CONTINUOUS
10
141.53
20
-86.1298
11
141.53
21
-86.1299
0
LINE
8
BLACK
6
CONTINUOUS
10
141.53
20
-86.1299
11
141.527
21
-86.1304
0
LINE
8
BLACK
6
CONTINUOUS
10
141.527
20
-86.1304
11
141.525
21
-86.1308
0
LINE
8
BLACK
6
CONTINUOUS
10
141.525
20
-86.1308
11
140.86
21
-86.2008
0
LINE
8
BLACK
6
CONTINUOUS
10
140.86
20
-86.2008
11
140.859
21
-86.2008
0
LINE
8
BLACK
6
CONTINUOUS
10
140.859
20
-86.2008
11
140.858
21
-86.2008
0
LINE
8
BLACK
6
CONTINUOUS
10
140.858
20
-86.2008
11
140.857
21
-86.2009
0
LINE
8
BLACK
6
CONTINUOUS
10
140.857
20
-86.2009
11
140.834
21
-86.201
0
LINE
8
BLACK
6
CONTINUOUS
10
140.834
20
-86.201
11
140.834
21
-86.201
0
LINE
8
BLACK
6
CONTINUOUS
10
140.834
20
-86.201
11
79.6178
21
-86.201
0
LINE
8
BLACK
6
CONTINUOUS
10
79.6178
20
-86.201
11
79.6166
21
-86.2009
0
LINE
8
BLACK
6
CONTINUOUS
10
76.215
20
-59.611
11
76.215
21
-82.7469
0
LINE
8
BLACK
6
CONTINUOUS
10
76.215
20
-82.7469
11
76.2151
21
-82.7696
0
LINE
8
BLACK
6
CONTINUOUS
10
76.2151
20
-82.7696
11
76.2846
21
-83.4314
0
LINE
8
BLACK
6
CONTINUOUS
10
76.2846
20
-83.4314
11
76.4811
21
-84.0661
0
LINE
8
BLACK
6
CONTINUOUS
10
76.4811
20
-84.0661
11
76.7971
21
-84.6504
0
LINE
8
BLACK
6
CONTINUOUS
10
76.7971
20
-84.6504
11
77.2205
21
-85.1623
0
LINE
8
BLACK
6
CONTINUOUS
10
77.2205
20
-85.1623
11
77.7353
21
-85.5822
0
LINE
8
BLACK
6
CONTINUOUS
10
77.7353
20
-85.5822
11
78.3219
21
-85.894
0
LINE
8
BLACK
6
CONTINUOUS
10
78.3219
20
-85.894
11
78.9578
21
-86.0861
0
LINE
8
BLACK
6
CONTINUOUS
10
78.9578
20
-86.0861
11
79.6202
21
-86.151
0
LINE
8
BLACK
6
CONTINUOUS
10
79.6202
20
-86.151
11
140.833
21
-86.151
0
LINE
8
BLACK
6
CONTINUOUS
10
140.833
20
-86.151
11
140.856
21
-86.1509
0
LINE
8
BLACK
6
CONTINUOUS
10
140.856
20
-86.1509
11
141.517
21
-86.0814
0
LINE
8
BLACK
6
CONTINUOUS
10
141.517
20
-86.0814
11
142.152
21
-85.8849
0
LINE
8
BLACK
6
CONTINUOUS
10
142.152
20
-85.8849
11
142.736
21
-85.5689
0
LINE
8
BLACK
6
CONTINUOUS
10
142.736
20
-85.5689
11
143.248
21
-85.1455
0
LINE
8
BLACK
6
CONTINUOUS
10
143.248
20
-85.1455
11
143.668
21
-84.6307
0
LINE
8
BLACK
6
CONTINUOUS
10
143.668
20
-84.6307
11
143.98
21
-84.0441
0
LINE
8
BLACK
6
CONTINUOUS
10
143.98
20
-84.0441
11
144.172
21
-83.4082
0
LINE
8
BLACK
6
CONTINUOUS
10
144.172
20
-83.4082
11
144.237
21
-82.7458
0
LINE
8
BLACK
6
CONTINUOUS
10
144.237
20
-82.7458
11
144.237
21
-63.849
0
LINE
8
BLACK
6
CONTINUOUS
10
144.237
20
-63.849
11
86.6052
21
-63.849
0
LINE
8
BLACK
6
CONTINUOUS
10
86.6052
20
-63.849
11
86.604
21
-63.8491
0
LINE
8
BLACK
6
CONTINUOUS
10
86.604
20
-63.8491
11
86.6028
21
-63.849
0
LINE
8
BLACK
6
CONTINUOUS
10
86.6028
20
-63.849
11
86.6028
21
-63.849
0
LINE
8
BLACK
6
CONTINUOUS
10
86.6028
20
-63.849
11
86.5991
21
-63.8486
0
LINE
8
BLACK
6
CONTINUOUS
10
86.5991
20
-63.8486
11
86.5944
21
-63.8472
0
LINE
8
BLACK
6
CONTINUOUS
10
86.5944
20
-63.8472
11
86.59
21
-63.8449
0
LINE
8
BLACK
6
CONTINUOUS
10
86.59
20
-63.8449
11
86.5862
21
-63.8418
0
LINE
8
BLACK
6
CONTINUOUS
10
86.5862
20
-63.8418
11
86.5831
21
-63.838
0
LINE
8
BLACK
6
CONTINUOUS
10
86.5831
20
-63.838
11
86.5808
21
-63.8336
0
LINE
8
BLACK
6
CONTINUOUS
10
86.5808
20
-63.8336
11
86.5794
21
-63.8289
0
LINE
8
BLACK
6
CONTINUOUS
10
86.5794
20
-63.8289
11
86.5789
21
-63.824
0
LINE
8
BLACK
6
CONTINUOUS
10
86.5789
20
-63.824
11
86.579
21
-63.8228
0
LINE
8
BLACK
6
CONTINUOUS
10
86.579
20
-63.8228
11
86.579
21
-59.611
0
LINE
8
BLACK
6
CONTINUOUS
10
86.579
20
-59.611
11
76.215
21
-59.611
  0
ENDSEC
  0
EOF
