  0
SECTION
  2
HEADER
  9
$ANGBASE
  50
0.0
  9
$ANGDIR
  70
1
  9
$MEASUREMENT
  70
1
  0
ENDSEC
  0
SECTION
  2
TABLES
  0
TABLE
  2
LTYPE
  70
4
  0
LTYPE
  5
40F
  2
CONTINUOUS
  70
0
  3
Solid line
  72
65
  73
0
  40
0.0
  0
LTYPE
  5
410
  2
DASHDOT
 70
0
  3
Dash Dot ____ _ ____ _
 72
65
 73
4
 40
2.0
 49
1.25
 49
-0.25
 49
0.25
 49
-0.25
  0
LTYPE
  5
411
  2
DASHED
 70
0
  3
Dashed __ __ __ __ __
 72
65
 73
2
 40
0.75
 49
0.5
 49
-0.25
  0
LTYPE
  5
43B
  2
DOTTED
 70
0
  3
Dotted .  .  .  .
 72
65
 73
2
 40
0.2
 49
0.0
 49
-0.2
  0
ENDTAB
  0
TABLE
  2
STYLE
  70
4
  0
STYLE
  2
KICAD
  70
0
  40
0
  41
1
  42
1
  50
0
  71
0
  3
isocp.shx
  0
STYLE
  2
KICADB
  70
0
  40
0
  41
1
  42
1
  50
0
  71
0
  3
isocp.shx
  0
STYLE
  2
KICADI
  70
0
  40
0
  41
1
  42
1
  50
15
  71
0
  3
isocp.shx
  0
STYLE
  2
KICADBI
  70
0
  40
0
  41
1
  42
1
  50
15
  71
0
  3
isocp.shx
  0
ENDTAB
  0
TABLE
  2
LAYER
  70
1
  0
LAYER
  2
BLACK
  70
0
  62
7
  6
CONTINUOUS
  0
ENDTAB
  0
ENDSEC
  0
SECTION
  2
ENTITIES
0
LINE
8
BLACK
6
CONTINUOUS
10
140.773
20
-80.4518
11
141.255
21
-80.6516
0
LINE
8
BLACK
6
CONTINUOUS
10
141.255
20
-80.6516
11
141.689
21
-80.9416
0
LINE
8
BLACK
6
CONTINUOUS
10
141.689
20
-80.9416
11
142.058
21
-81.3107
0
LINE
8
BLACK
6
CONTINUOUS
10
142.058
20
-81.3107
11
142.348
21
-81.7448
0
LINE
8
BLACK
6
CONTINUOUS
10
142.348
20
-81.7448
11
142.548
21
-82.227
0
LINE
8
BLACK
6
CONTINUOUS
10
142.548
20
-82.227
11
142.65
21
-82.739
0
LINE
8
BLACK
6
CONTINUOUS
10
142.65
20
-82.739
11
142.65
21
-83.261
0
LINE
8
BLACK
6
CONTINUOUS
10
142.65
20
-83.261
11
142.548
21
-83.773
0
LINE
8
BLACK
6
CONTINUOUS
10
142.548
20
-83.773
11
142.348
21
-84.2552
0
LINE
8
BLACK
6
CONTINUOUS
10
142.348
20
-84.2552
11
142.058
21
-84.6893
0
LINE
8
BLACK
6
CONTINUOUS
10
142.058
20
-84.6893
11
141.689
21
-85.0584
0
LINE
8
BLACK
6
CONTINUOUS
10
141.689
20
-85.0584
11
141.255
21
-85.3484
0
LINE
8
BLACK
6
CONTINUOUS
10
141.255
20
-85.3484
11
140.773
21
-85.5482
0
LINE
8
BLACK
6
CONTINUOUS
10
140.773
20
-85.5482
11
140.261
21
-85.65
0
LINE
8
BLACK
6
CONTINUOUS
10
140.261
20
-85.65
11
139.739
21
-85.65
0
LINE
8
BLACK
6
CONTINUOUS
10
139.739
20
-85.65
11
139.227
21
-85.5482
0
LINE
8
BLACK
6
CONTINUOUS
10
139.227
20
-85.5482
11
138.745
21
-85.3484
0
LINE
8
BLACK
6
CONTINUOUS
10
138.745
20
-85.3484
11
138.311
21
-85.0584
0
LINE
8
BLACK
6
CONTINUOUS
10
138.311
20
-85.0584
11
137.942
21
-84.6893
0
LINE
8
BLACK
6
CONTINUOUS
10
137.942
20
-84.6893
11
137.652
21
-84.2552
0
LINE
8
BLACK
6
CONTINUOUS
10
137.652
20
-84.2552
11
137.452
21
-83.773
0
LINE
8
BLACK
6
CONTINUOUS
10
137.452
20
-83.773
11
137.35
21
-83.261
0
LINE
8
BLACK
6
CONTINUOUS
10
137.35
20
-83.261
11
137.35
21
-82.739
0
LINE
8
BLACK
6
CONTINUOUS
10
137.35
20
-82.739
11
137.452
21
-82.227
0
LINE
8
BLACK
6
CONTINUOUS
10
137.452
20
-82.227
11
137.652
21
-81.7448
0
LINE
8
BLACK
6
CONTINUOUS
10
137.652
20
-81.7448
11
137.942
21
-81.3107
0
LINE
8
BLACK
6
CONTINUOUS
10
137.942
20
-81.3107
11
138.311
21
-80.9416
0
LINE
8
BLACK
6
CONTINUOUS
10
138.311
20
-80.9416
11
138.745
21
-80.6516
0
LINE
8
BLACK
6
CONTINUOUS
10
138.745
20
-80.6516
11
139.227
21
-80.4518
0
LINE
8
BLACK
6
CONTINUOUS
10
139.227
20
-80.4518
11
139.739
21
-80.35
0
LINE
8
BLACK
6
CONTINUOUS
10
139.739
20
-80.35
11
140.261
21
-80.35
0
LINE
8
BLACK
6
CONTINUOUS
10
140.261
20
-80.35
11
140.773
21
-80.4518
0
LINE
8
BLACK
6
CONTINUOUS
10
103.025
20
-81.7384
11
103.207
21
-81.8138
0
LINE
8
BLACK
6
CONTINUOUS
10
103.207
20
-81.8138
11
103.37
21
-81.9232
0
LINE
8
BLACK
6
CONTINUOUS
10
103.37
20
-81.9232
11
103.51
21
-82.0625
0
LINE
8
BLACK
6
CONTINUOUS
10
103.51
20
-82.0625
11
103.619
21
-82.2263
0
LINE
8
BLACK
6
CONTINUOUS
10
103.619
20
-82.2263
11
103.695
21
-82.4083
0
LINE
8
BLACK
6
CONTINUOUS
10
103.695
20
-82.4083
11
103.733
21
-82.6015
0
LINE
8
BLACK
6
CONTINUOUS
10
103.733
20
-82.6015
11
103.733
21
-82.7985
0
LINE
8
BLACK
6
CONTINUOUS
10
103.733
20
-82.7985
11
103.695
21
-82.9917
0
LINE
8
BLACK
6
CONTINUOUS
10
103.695
20
-82.9917
11
103.619
21
-83.1737
0
LINE
8
BLACK
6
CONTINUOUS
10
103.619
20
-83.1737
11
103.51
21
-83.3375
0
LINE
8
BLACK
6
CONTINUOUS
10
103.51
20
-83.3375
11
103.37
21
-83.4768
0
LINE
8
BLACK
6
CONTINUOUS
10
103.37
20
-83.4768
11
103.207
21
-83.5862
0
LINE
8
BLACK
6
CONTINUOUS
10
103.207
20
-83.5862
11
103.025
21
-83.6616
0
LINE
8
BLACK
6
CONTINUOUS
10
103.025
20
-83.6616
11
102.831
21
-83.7
0
LINE
8
BLACK
6
CONTINUOUS
10
102.831
20
-83.7
11
102.635
21
-83.7
0
LINE
8
BLACK
6
CONTINUOUS
10
102.635
20
-83.7
11
102.441
21
-83.6616
0
LINE
8
BLACK
6
CONTINUOUS
10
102.441
20
-83.6616
11
102.259
21
-83.5862
0
LINE
8
BLACK
6
CONTINUOUS
10
102.259
20
-83.5862
11
102.096
21
-83.4768
0
LINE
8
BLACK
6
CONTINUOUS
10
102.096
20
-83.4768
11
101.956
21
-83.3375
0
LINE
8
BLACK
6
CONTINUOUS
10
101.956
20
-83.3375
11
101.847
21
-83.1737
0
LINE
8
BLACK
6
CONTINUOUS
10
101.847
20
-83.1737
11
101.771
21
-82.9917
0
LINE
8
BLACK
6
CONTINUOUS
10
101.771
20
-82.9917
11
101.733
21
-82.7985
0
LINE
8
BLACK
6
CONTINUOUS
10
101.733
20
-82.7985
11
101.733
21
-82.6015
0
LINE
8
BLACK
6
CONTINUOUS
10
101.733
20
-82.6015
11
101.771
21
-82.4083
0
LINE
8
BLACK
6
CONTINUOUS
10
101.771
20
-82.4083
11
101.847
21
-82.2263
0
LINE
8
BLACK
6
CONTINUOUS
10
101.847
20
-82.2263
11
101.956
21
-82.0625
0
LINE
8
BLACK
6
CONTINUOUS
10
101.956
20
-82.0625
11
102.096
21
-81.9232
0
LINE
8
BLACK
6
CONTINUOUS
10
102.096
20
-81.9232
11
102.259
21
-81.8138
0
LINE
8
BLACK
6
CONTINUOUS
10
102.259
20
-81.8138
11
102.441
21
-81.7384
0
LINE
8
BLACK
6
CONTINUOUS
10
102.441
20
-81.7384
11
102.635
21
-81.7
0
LINE
8
BLACK
6
CONTINUOUS
10
102.635
20
-81.7
11
102.831
21
-81.7
0
LINE
8
BLACK
6
CONTINUOUS
10
102.831
20
-81.7
11
103.025
21
-81.7384
0
LINE
8
BLACK
6
CONTINUOUS
10
91.033
20
-83.7
11
89.033
21
-83.7
0
LINE
8
BLACK
6
CONTINUOUS
10
89.033
20
-83.7
11
89.033
21
-81.7
0
LINE
8
BLACK
6
CONTINUOUS
10
89.033
20
-81.7
11
91.033
21
-81.7
0
LINE
8
BLACK
6
CONTINUOUS
10
91.033
20
-81.7
11
91.033
21
-83.7
0
LINE
8
BLACK
6
CONTINUOUS
10
92.8647
20
-81.7384
11
93.0467
21
-81.8138
0
LINE
8
BLACK
6
CONTINUOUS
10
93.0467
20
-81.8138
11
93.2105
21
-81.9232
0
LINE
8
BLACK
6
CONTINUOUS
10
93.2105
20
-81.9232
11
93.3498
21
-82.0625
0
LINE
8
BLACK
6
CONTINUOUS
10
93.3498
20
-82.0625
11
93.4592
21
-82.2263
0
LINE
8
BLACK
6
CONTINUOUS
10
93.4592
20
-82.2263
11
93.5346
21
-82.4083
0
LINE
8
BLACK
6
CONTINUOUS
10
93.5346
20
-82.4083
11
93.573
21
-82.6015
0
LINE
8
BLACK
6
CONTINUOUS
10
93.573
20
-82.6015
11
93.573
21
-82.7985
0
LINE
8
BLACK
6
CONTINUOUS
10
93.573
20
-82.7985
11
93.5346
21
-82.9917
0
LINE
8
BLACK
6
CONTINUOUS
10
93.5346
20
-82.9917
11
93.4592
21
-83.1737
0
LINE
8
BLACK
6
CONTINUOUS
10
93.4592
20
-83.1737
11
93.3498
21
-83.3375
0
LINE
8
BLACK
6
CONTINUOUS
10
93.3498
20
-83.3375
11
93.2105
21
-83.4768
0
LINE
8
BLACK
6
CONTINUOUS
10
93.2105
20
-83.4768
11
93.0467
21
-83.5862
0
LINE
8
BLACK
6
CONTINUOUS
10
93.0467
20
-83.5862
11
92.8647
21
-83.6616
0
LINE
8
BLACK
6
CONTINUOUS
10
92.8647
20
-83.6616
11
92.6715
21
-83.7
0
LINE
8
BLACK
6
CONTINUOUS
10
92.6715
20
-83.7
11
92.4745
21
-83.7
0
LINE
8
BLACK
6
CONTINUOUS
10
92.4745
20
-83.7
11
92.2813
21
-83.6616
0
LINE
8
BLACK
6
CONTINUOUS
10
92.2813
20
-83.6616
11
92.0993
21
-83.5862
0
LINE
8
BLACK
6
CONTINUOUS
10
92.0993
20
-83.5862
11
91.9355
21
-83.4768
0
LINE
8
BLACK
6
CONTINUOUS
10
91.9355
20
-83.4768
11
91.7962
21
-83.3375
0
LINE
8
BLACK
6
CONTINUOUS
10
91.7962
20
-83.3375
11
91.6868
21
-83.1737
0
LINE
8
BLACK
6
CONTINUOUS
10
91.6868
20
-83.1737
11
91.6114
21
-82.9917
0
LINE
8
BLACK
6
CONTINUOUS
10
91.6114
20
-82.9917
11
91.573
21
-82.7985
0
LINE
8
BLACK
6
CONTINUOUS
10
91.573
20
-82.7985
11
91.573
21
-82.6015
0
LINE
8
BLACK
6
CONTINUOUS
10
91.573
20
-82.6015
11
91.6114
21
-82.4083
0
LINE
8
BLACK
6
CONTINUOUS
10
91.6114
20
-82.4083
11
91.6868
21
-82.2263
0
LINE
8
BLACK
6
CONTINUOUS
10
91.6868
20
-82.2263
11
91.7962
21
-82.0625
0
LINE
8
BLACK
6
CONTINUOUS
10
91.7962
20
-82.0625
11
91.9355
21
-81.9232
0
LINE
8
BLACK
6
CONTINUOUS
10
91.9355
20
-81.9232
11
92.0993
21
-81.8138
0
LINE
8
BLACK
6
CONTINUOUS
10
92.0993
20
-81.8138
11
92.2813
21
-81.7384
0
LINE
8
BLACK
6
CONTINUOUS
10
92.2813
20
-81.7384
11
92.4745
21
-81.7
0
LINE
8
BLACK
6
CONTINUOUS
10
92.4745
20
-81.7
11
92.6715
21
-81.7
0
LINE
8
BLACK
6
CONTINUOUS
10
92.6715
20
-81.7
11
92.8647
21
-81.7384
0
LINE
8
BLACK
6
CONTINUOUS
10
95.4047
20
-81.7384
11
95.5867
21
-81.8138
0
LINE
8
BLACK
6
CONTINUOUS
10
95.5867
20
-81.8138
11
95.7505
21
-81.9232
0
LINE
8
BLACK
6
CONTINUOUS
10
95.7505
20
-81.9232
11
95.8898
21
-82.0625
0
LINE
8
BLACK
6
CONTINUOUS
10
95.8898
20
-82.0625
11
95.9992
21
-82.2263
0
LINE
8
BLACK
6
CONTINUOUS
10
95.9992
20
-82.2263
11
96.0746
21
-82.4083
0
LINE
8
BLACK
6
CONTINUOUS
10
96.0746
20
-82.4083
11
96.113
21
-82.6015
0
LINE
8
BLACK
6
CONTINUOUS
10
96.113
20
-82.6015
11
96.113
21
-82.7985
0
LINE
8
BLACK
6
CONTINUOUS
10
96.113
20
-82.7985
11
96.0746
21
-82.9917
0
LINE
8
BLACK
6
CONTINUOUS
10
96.0746
20
-82.9917
11
95.9992
21
-83.1737
0
LINE
8
BLACK
6
CONTINUOUS
10
95.9992
20
-83.1737
11
95.8898
21
-83.3375
0
LINE
8
BLACK
6
CONTINUOUS
10
95.8898
20
-83.3375
11
95.7505
21
-83.4768
0
LINE
8
BLACK
6
CONTINUOUS
10
95.7505
20
-83.4768
11
95.5867
21
-83.5862
0
LINE
8
BLACK
6
CONTINUOUS
10
95.5867
20
-83.5862
11
95.4047
21
-83.6616
0
LINE
8
BLACK
6
CONTINUOUS
10
95.4047
20
-83.6616
11
95.2115
21
-83.7
0
LINE
8
BLACK
6
CONTINUOUS
10
95.2115
20
-83.7
11
95.0145
21
-83.7
0
LINE
8
BLACK
6
CONTINUOUS
10
95.0145
20
-83.7
11
94.8213
21
-83.6616
0
LINE
8
BLACK
6
CONTINUOUS
10
94.8213
20
-83.6616
11
94.6393
21
-83.5862
0
LINE
8
BLACK
6
CONTINUOUS
10
94.6393
20
-83.5862
11
94.4755
21
-83.4768
0
LINE
8
BLACK
6
CONTINUOUS
10
94.4755
20
-83.4768
11
94.3362
21
-83.3375
0
LINE
8
BLACK
6
CONTINUOUS
10
94.3362
20
-83.3375
11
94.2268
21
-83.1737
0
LINE
8
BLACK
6
CONTINUOUS
10
94.2268
20
-83.1737
11
94.1514
21
-82.9917
0
LINE
8
BLACK
6
CONTINUOUS
10
94.1514
20
-82.9917
11
94.113
21
-82.7985
0
LINE
8
BLACK
6
CONTINUOUS
10
94.113
20
-82.7985
11
94.113
21
-82.6015
0
LINE
8
BLACK
6
CONTINUOUS
10
94.113
20
-82.6015
11
94.1514
21
-82.4083
0
LINE
8
BLACK
6
CONTINUOUS
10
94.1514
20
-82.4083
11
94.2268
21
-82.2263
0
LINE
8
BLACK
6
CONTINUOUS
10
94.2268
20
-82.2263
11
94.3362
21
-82.0625
0
LINE
8
BLACK
6
CONTINUOUS
10
94.3362
20
-82.0625
11
94.4755
21
-81.9232
0
LINE
8
BLACK
6
CONTINUOUS
10
94.4755
20
-81.9232
11
94.6393
21
-81.8138
0
LINE
8
BLACK
6
CONTINUOUS
10
94.6393
20
-81.8138
11
94.8213
21
-81.7384
0
LINE
8
BLACK
6
CONTINUOUS
10
94.8213
20
-81.7384
11
95.0145
21
-81.7
0
LINE
8
BLACK
6
CONTINUOUS
10
95.0145
20
-81.7
11
95.2115
21
-81.7
0
LINE
8
BLACK
6
CONTINUOUS
10
95.2115
20
-81.7
11
95.4047
21
-81.7384
0
LINE
8
BLACK
6
CONTINUOUS
10
97.9447
20
-81.7384
11
98.1267
21
-81.8138
0
LINE
8
BLACK
6
CONTINUOUS
10
98.1267
20
-81.8138
11
98.2905
21
-81.9232
0
LINE
8
BLACK
6
CONTINUOUS
10
98.2905
20
-81.9232
11
98.4298
21
-82.0625
0
LINE
8
BLACK
6
CONTINUOUS
10
98.4298
20
-82.0625
11
98.5392
21
-82.2263
0
LINE
8
BLACK
6
CONTINUOUS
10
98.5392
20
-82.2263
11
98.6146
21
-82.4083
0
LINE
8
BLACK
6
CONTINUOUS
10
98.6146
20
-82.4083
11
98.653
21
-82.6015
0
LINE
8
BLACK
6
CONTINUOUS
10
98.653
20
-82.6015
11
98.653
21
-82.7985
0
LINE
8
BLACK
6
CONTINUOUS
10
98.653
20
-82.7985
11
98.6146
21
-82.9917
0
LINE
8
BLACK
6
CONTINUOUS
10
98.6146
20
-82.9917
11
98.5392
21
-83.1737
0
LINE
8
BLACK
6
CONTINUOUS
10
98.5392
20
-83.1737
11
98.4298
21
-83.3375
0
LINE
8
BLACK
6
CONTINUOUS
10
98.4298
20
-83.3375
11
98.2905
21
-83.4768
0
LINE
8
BLACK
6
CONTINUOUS
10
98.2905
20
-83.4768
11
98.1267
21
-83.5862
0
LINE
8
BLACK
6
CONTINUOUS
10
98.1267
20
-83.5862
11
97.9447
21
-83.6616
0
LINE
8
BLACK
6
CONTINUOUS
10
97.9447
20
-83.6616
11
97.7515
21
-83.7
0
LINE
8
BLACK
6
CONTINUOUS
10
97.7515
20
-83.7
11
97.5545
21
-83.7
0
LINE
8
BLACK
6
CONTINUOUS
10
97.5545
20
-83.7
11
97.3613
21
-83.6616
0
LINE
8
BLACK
6
CONTINUOUS
10
97.3613
20
-83.6616
11
97.1793
21
-83.5862
0
LINE
8
BLACK
6
CONTINUOUS
10
97.1793
20
-83.5862
11
97.0155
21
-83.4768
0
LINE
8
BLACK
6
CONTINUOUS
10
97.0155
20
-83.4768
11
96.8762
21
-83.3375
0
LINE
8
BLACK
6
CONTINUOUS
10
96.8762
20
-83.3375
11
96.7668
21
-83.1737
0
LINE
8
BLACK
6
CONTINUOUS
10
96.7668
20
-83.1737
11
96.6914
21
-82.9917
0
LINE
8
BLACK
6
CONTINUOUS
10
96.6914
20
-82.9917
11
96.653
21
-82.7985
0
LINE
8
BLACK
6
CONTINUOUS
10
96.653
20
-82.7985
11
96.653
21
-82.6015
0
LINE
8
BLACK
6
CONTINUOUS
10
96.653
20
-82.6015
11
96.6914
21
-82.4083
0
LINE
8
BLACK
6
CONTINUOUS
10
96.6914
20
-82.4083
11
96.7668
21
-82.2263
0
LINE
8
BLACK
6
CONTINUOUS
10
96.7668
20
-82.2263
11
96.8762
21
-82.0625
0
LINE
8
BLACK
6
CONTINUOUS
10
96.8762
20
-82.0625
11
97.0155
21
-81.9232
0
LINE
8
BLACK
6
CONTINUOUS
10
97.0155
20
-81.9232
11
97.1793
21
-81.8138
0
LINE
8
BLACK
6
CONTINUOUS
10
97.1793
20
-81.8138
11
97.3613
21
-81.7384
0
LINE
8
BLACK
6
CONTINUOUS
10
97.3613
20
-81.7384
11
97.5545
21
-81.7
0
LINE
8
BLACK
6
CONTINUOUS
10
97.5545
20
-81.7
11
97.7515
21
-81.7
0
LINE
8
BLACK
6
CONTINUOUS
10
97.7515
20
-81.7
11
97.9447
21
-81.7384
0
LINE
8
BLACK
6
CONTINUOUS
10
100.485
20
-81.7384
11
100.667
21
-81.8138
0
LINE
8
BLACK
6
CONTINUOUS
10
100.667
20
-81.8138
11
100.83
21
-81.9232
0
LINE
8
BLACK
6
CONTINUOUS
10
100.83
20
-81.9232
11
100.97
21
-82.0625
0
LINE
8
BLACK
6
CONTINUOUS
10
100.97
20
-82.0625
11
101.079
21
-82.2263
0
LINE
8
BLACK
6
CONTINUOUS
10
101.079
20
-82.2263
11
101.155
21
-82.4083
0
LINE
8
BLACK
6
CONTINUOUS
10
101.155
20
-82.4083
11
101.193
21
-82.6015
0
LINE
8
BLACK
6
CONTINUOUS
10
101.193
20
-82.6015
11
101.193
21
-82.7985
0
LINE
8
BLACK
6
CONTINUOUS
10
101.193
20
-82.7985
11
101.155
21
-82.9917
0
LINE
8
BLACK
6
CONTINUOUS
10
101.155
20
-82.9917
11
101.079
21
-83.1737
0
LINE
8
BLACK
6
CONTINUOUS
10
101.079
20
-83.1737
11
100.97
21
-83.3375
0
LINE
8
BLACK
6
CONTINUOUS
10
100.97
20
-83.3375
11
100.83
21
-83.4768
0
LINE
8
BLACK
6
CONTINUOUS
10
100.83
20
-83.4768
11
100.667
21
-83.5862
0
LINE
8
BLACK
6
CONTINUOUS
10
100.667
20
-83.5862
11
100.485
21
-83.6616
0
LINE
8
BLACK
6
CONTINUOUS
10
100.485
20
-83.6616
11
100.291
21
-83.7
0
LINE
8
BLACK
6
CONTINUOUS
10
100.291
20
-83.7
11
100.095
21
-83.7
0
LINE
8
BLACK
6
CONTINUOUS
10
100.095
20
-83.7
11
99.9013
21
-83.6616
0
LINE
8
BLACK
6
CONTINUOUS
10
99.9013
20
-83.6616
11
99.7193
21
-83.5862
0
LINE
8
BLACK
6
CONTINUOUS
10
99.7193
20
-83.5862
11
99.5555
21
-83.4768
0
LINE
8
BLACK
6
CONTINUOUS
10
99.5555
20
-83.4768
11
99.4162
21
-83.3375
0
LINE
8
BLACK
6
CONTINUOUS
10
99.4162
20
-83.3375
11
99.3068
21
-83.1737
0
LINE
8
BLACK
6
CONTINUOUS
10
99.3068
20
-83.1737
11
99.2314
21
-82.9917
0
LINE
8
BLACK
6
CONTINUOUS
10
99.2314
20
-82.9917
11
99.193
21
-82.7985
0
LINE
8
BLACK
6
CONTINUOUS
10
99.193
20
-82.7985
11
99.193
21
-82.6015
0
LINE
8
BLACK
6
CONTINUOUS
10
99.193
20
-82.6015
11
99.2314
21
-82.4083
0
LINE
8
BLACK
6
CONTINUOUS
10
99.2314
20
-82.4083
11
99.3068
21
-82.2263
0
LINE
8
BLACK
6
CONTINUOUS
10
99.3068
20
-82.2263
11
99.4162
21
-82.0625
0
LINE
8
BLACK
6
CONTINUOUS
10
99.4162
20
-82.0625
11
99.5555
21
-81.9232
0
LINE
8
BLACK
6
CONTINUOUS
10
99.5555
20
-81.9232
11
99.7193
21
-81.8138
0
LINE
8
BLACK
6
CONTINUOUS
10
99.7193
20
-81.8138
11
99.9013
21
-81.7384
0
LINE
8
BLACK
6
CONTINUOUS
10
99.9013
20
-81.7384
11
100.095
21
-81.7
0
LINE
8
BLACK
6
CONTINUOUS
10
100.095
20
-81.7
11
100.291
21
-81.7
0
LINE
8
BLACK
6
CONTINUOUS
10
100.291
20
-81.7
11
100.485
21
-81.7384
0
LINE
8
BLACK
6
CONTINUOUS
10
92.8647
20
-79.1984
11
93.0467
21
-79.2738
0
LINE
8
BLACK
6
CONTINUOUS
10
93.0467
20
-79.2738
11
93.2105
21
-79.3832
0
LINE
8
BLACK
6
CONTINUOUS
10
93.2105
20
-79.3832
11
93.3498
21
-79.5225
0
LINE
8
BLACK
6
CONTINUOUS
10
93.3498
20
-79.5225
11
93.4592
21
-79.6863
0
LINE
8
BLACK
6
CONTINUOUS
10
93.4592
20
-79.6863
11
93.5346
21
-79.8683
0
LINE
8
BLACK
6
CONTINUOUS
10
93.5346
20
-79.8683
11
93.573
21
-80.0615
0
LINE
8
BLACK
6
CONTINUOUS
10
93.573
20
-80.0615
11
93.573
21
-80.2585
0
LINE
8
BLACK
6
CONTINUOUS
10
93.573
20
-80.2585
11
93.5346
21
-80.4517
0
LINE
8
BLACK
6
CONTINUOUS
10
93.5346
20
-80.4517
11
93.4592
21
-80.6337
0
LINE
8
BLACK
6
CONTINUOUS
10
93.4592
20
-80.6337
11
93.3498
21
-80.7975
0
LINE
8
BLACK
6
CONTINUOUS
10
93.3498
20
-80.7975
11
93.2105
21
-80.9368
0
LINE
8
BLACK
6
CONTINUOUS
10
93.2105
20
-80.9368
11
93.0467
21
-81.0462
0
LINE
8
BLACK
6
CONTINUOUS
10
93.0467
20
-81.0462
11
92.8647
21
-81.1216
0
LINE
8
BLACK
6
CONTINUOUS
10
92.8647
20
-81.1216
11
92.6715
21
-81.16
0
LINE
8
BLACK
6
CONTINUOUS
10
92.6715
20
-81.16
11
92.4745
21
-81.16
0
LINE
8
BLACK
6
CONTINUOUS
10
92.4745
20
-81.16
11
92.2813
21
-81.1216
0
LINE
8
BLACK
6
CONTINUOUS
10
92.2813
20
-81.1216
11
92.0993
21
-81.0462
0
LINE
8
BLACK
6
CONTINUOUS
10
92.0993
20
-81.0462
11
91.9355
21
-80.9368
0
LINE
8
BLACK
6
CONTINUOUS
10
91.9355
20
-80.9368
11
91.7962
21
-80.7975
0
LINE
8
BLACK
6
CONTINUOUS
10
91.7962
20
-80.7975
11
91.6868
21
-80.6337
0
LINE
8
BLACK
6
CONTINUOUS
10
91.6868
20
-80.6337
11
91.6114
21
-80.4517
0
LINE
8
BLACK
6
CONTINUOUS
10
91.6114
20
-80.4517
11
91.573
21
-80.2585
0
LINE
8
BLACK
6
CONTINUOUS
10
91.573
20
-80.2585
11
91.573
21
-80.0615
0
LINE
8
BLACK
6
CONTINUOUS
10
91.573
20
-80.0615
11
91.6114
21
-79.8683
0
LINE
8
BLACK
6
CONTINUOUS
10
91.6114
20
-79.8683
11
91.6868
21
-79.6863
0
LINE
8
BLACK
6
CONTINUOUS
10
91.6868
20
-79.6863
11
91.7962
21
-79.5225
0
LINE
8
BLACK
6
CONTINUOUS
10
91.7962
20
-79.5225
11
91.9355
21
-79.3832
0
LINE
8
BLACK
6
CONTINUOUS
10
91.9355
20
-79.3832
11
92.0993
21
-79.2738
0
LINE
8
BLACK
6
CONTINUOUS
10
92.0993
20
-79.2738
11
92.2813
21
-79.1984
0
LINE
8
BLACK
6
CONTINUOUS
10
92.2813
20
-79.1984
11
92.4745
21
-79.16
0
LINE
8
BLACK
6
CONTINUOUS
10
92.4745
20
-79.16
11
92.6715
21
-79.16
0
LINE
8
BLACK
6
CONTINUOUS
10
92.6715
20
-79.16
11
92.8647
21
-79.1984
0
LINE
8
BLACK
6
CONTINUOUS
10
95.4047
20
-79.1984
11
95.5867
21
-79.2738
0
LINE
8
BLACK
6
CONTINUOUS
10
95.5867
20
-79.2738
11
95.7505
21
-79.3832
0
LINE
8
BLACK
6
CONTINUOUS
10
95.7505
20
-79.3832
11
95.8898
21
-79.5225
0
LINE
8
BLACK
6
CONTINUOUS
10
95.8898
20
-79.5225
11
95.9992
21
-79.6863
0
LINE
8
BLACK
6
CONTINUOUS
10
95.9992
20
-79.6863
11
96.0746
21
-79.8683
0
LINE
8
BLACK
6
CONTINUOUS
10
96.0746
20
-79.8683
11
96.113
21
-80.0615
0
LINE
8
BLACK
6
CONTINUOUS
10
96.113
20
-80.0615
11
96.113
21
-80.2585
0
LINE
8
BLACK
6
CONTINUOUS
10
96.113
20
-80.2585
11
96.0746
21
-80.4517
0
LINE
8
BLACK
6
CONTINUOUS
10
96.0746
20
-80.4517
11
95.9992
21
-80.6337
0
LINE
8
BLACK
6
CONTINUOUS
10
95.9992
20
-80.6337
11
95.8898
21
-80.7975
0
LINE
8
BLACK
6
CONTINUOUS
10
95.8898
20
-80.7975
11
95.7505
21
-80.9368
0
LINE
8
BLACK
6
CONTINUOUS
10
95.7505
20
-80.9368
11
95.5867
21
-81.0462
0
LINE
8
BLACK
6
CONTINUOUS
10
95.5867
20
-81.0462
11
95.4047
21
-81.1216
0
LINE
8
BLACK
6
CONTINUOUS
10
95.4047
20
-81.1216
11
95.2115
21
-81.16
0
LINE
8
BLACK
6
CONTINUOUS
10
95.2115
20
-81.16
11
95.0145
21
-81.16
0
LINE
8
BLACK
6
CONTINUOUS
10
95.0145
20
-81.16
11
94.8213
21
-81.1216
0
LINE
8
BLACK
6
CONTINUOUS
10
94.8213
20
-81.1216
11
94.6393
21
-81.0462
0
LINE
8
BLACK
6
CONTINUOUS
10
94.6393
20
-81.0462
11
94.4755
21
-80.9368
0
LINE
8
BLACK
6
CONTINUOUS
10
94.4755
20
-80.9368
11
94.3362
21
-80.7975
0
LINE
8
BLACK
6
CONTINUOUS
10
94.3362
20
-80.7975
11
94.2268
21
-80.6337
0
LINE
8
BLACK
6
CONTINUOUS
10
94.2268
20
-80.6337
11
94.1514
21
-80.4517
0
LINE
8
BLACK
6
CONTINUOUS
10
94.1514
20
-80.4517
11
94.113
21
-80.2585
0
LINE
8
BLACK
6
CONTINUOUS
10
94.113
20
-80.2585
11
94.113
21
-80.0615
0
LINE
8
BLACK
6
CONTINUOUS
10
94.113
20
-80.0615
11
94.1514
21
-79.8683
0
LINE
8
BLACK
6
CONTINUOUS
10
94.1514
20
-79.8683
11
94.2268
21
-79.6863
0
LINE
8
BLACK
6
CONTINUOUS
10
94.2268
20
-79.6863
11
94.3362
21
-79.5225
0
LINE
8
BLACK
6
CONTINUOUS
10
94.3362
20
-79.5225
11
94.4755
21
-79.3832
0
LINE
8
BLACK
6
CONTINUOUS
10
94.4755
20
-79.3832
11
94.6393
21
-79.2738
0
LINE
8
BLACK
6
CONTINUOUS
10
94.6393
20
-79.2738
11
94.8213
21
-79.1984
0
LINE
8
BLACK
6
CONTINUOUS
10
94.8213
20
-79.1984
11
95.0145
21
-79.16
0
LINE
8
BLACK
6
CONTINUOUS
10
95.0145
20
-79.16
11
95.2115
21
-79.16
0
LINE
8
BLACK
6
CONTINUOUS
10
95.2115
20
-79.16
11
95.4047
21
-79.1984
0
LINE
8
BLACK
6
CONTINUOUS
10
90.3247
20
-79.1984
11
90.5067
21
-79.2738
0
LINE
8
BLACK
6
CONTINUOUS
10
90.5067
20
-79.2738
11
90.6705
21
-79.3832
0
LINE
8
BLACK
6
CONTINUOUS
10
90.6705
20
-79.3832
11
90.8098
21
-79.5225
0
LINE
8
BLACK
6
CONTINUOUS
10
90.8098
20
-79.5225
11
90.9192
21
-79.6863
0
LINE
8
BLACK
6
CONTINUOUS
10
90.9192
20
-79.6863
11
90.9946
21
-79.8683
0
LINE
8
BLACK
6
CONTINUOUS
10
90.9946
20
-79.8683
11
91.033
21
-80.0615
0
LINE
8
BLACK
6
CONTINUOUS
10
91.033
20
-80.0615
11
91.033
21
-80.2585
0
LINE
8
BLACK
6
CONTINUOUS
10
91.033
20
-80.2585
11
90.9946
21
-80.4517
0
LINE
8
BLACK
6
CONTINUOUS
10
90.9946
20
-80.4517
11
90.9192
21
-80.6337
0
LINE
8
BLACK
6
CONTINUOUS
10
90.9192
20
-80.6337
11
90.8098
21
-80.7975
0
LINE
8
BLACK
6
CONTINUOUS
10
90.8098
20
-80.7975
11
90.6705
21
-80.9368
0
LINE
8
BLACK
6
CONTINUOUS
10
90.6705
20
-80.9368
11
90.5067
21
-81.0462
0
LINE
8
BLACK
6
CONTINUOUS
10
90.5067
20
-81.0462
11
90.3247
21
-81.1216
0
LINE
8
BLACK
6
CONTINUOUS
10
90.3247
20
-81.1216
11
90.1315
21
-81.16
0
LINE
8
BLACK
6
CONTINUOUS
10
90.1315
20
-81.16
11
89.9345
21
-81.16
0
LINE
8
BLACK
6
CONTINUOUS
10
89.9345
20
-81.16
11
89.7413
21
-81.1216
0
LINE
8
BLACK
6
CONTINUOUS
10
89.7413
20
-81.1216
11
89.5593
21
-81.0462
0
LINE
8
BLACK
6
CONTINUOUS
10
89.5593
20
-81.0462
11
89.3955
21
-80.9368
0
LINE
8
BLACK
6
CONTINUOUS
10
89.3955
20
-80.9368
11
89.2562
21
-80.7975
0
LINE
8
BLACK
6
CONTINUOUS
10
89.2562
20
-80.7975
11
89.1468
21
-80.6337
0
LINE
8
BLACK
6
CONTINUOUS
10
89.1468
20
-80.6337
11
89.0714
21
-80.4517
0
LINE
8
BLACK
6
CONTINUOUS
10
89.0714
20
-80.4517
11
89.033
21
-80.2585
0
LINE
8
BLACK
6
CONTINUOUS
10
89.033
20
-80.2585
11
89.033
21
-80.0615
0
LINE
8
BLACK
6
CONTINUOUS
10
89.033
20
-80.0615
11
89.0714
21
-79.8683
0
LINE
8
BLACK
6
CONTINUOUS
10
89.0714
20
-79.8683
11
89.1468
21
-79.6863
0
LINE
8
BLACK
6
CONTINUOUS
10
89.1468
20
-79.6863
11
89.2562
21
-79.5225
0
LINE
8
BLACK
6
CONTINUOUS
10
89.2562
20
-79.5225
11
89.3955
21
-79.3832
0
LINE
8
BLACK
6
CONTINUOUS
10
89.3955
20
-79.3832
11
89.5593
21
-79.2738
0
LINE
8
BLACK
6
CONTINUOUS
10
89.5593
20
-79.2738
11
89.7413
21
-79.1984
0
LINE
8
BLACK
6
CONTINUOUS
10
89.7413
20
-79.1984
11
89.9345
21
-79.16
0
LINE
8
BLACK
6
CONTINUOUS
10
89.9345
20
-79.16
11
90.1315
21
-79.16
0
LINE
8
BLACK
6
CONTINUOUS
10
90.1315
20
-79.16
11
90.3247
21
-79.1984
0
LINE
8
BLACK
6
CONTINUOUS
10
103.025
20
-79.1984
11
103.207
21
-79.2738
0
LINE
8
BLACK
6
CONTINUOUS
10
103.207
20
-79.2738
11
103.37
21
-79.3832
0
LINE
8
BLACK
6
CONTINUOUS
10
103.37
20
-79.3832
11
103.51
21
-79.5225
0
LINE
8
BLACK
6
CONTINUOUS
10
103.51
20
-79.5225
11
103.619
21
-79.6863
0
LINE
8
BLACK
6
CONTINUOUS
10
103.619
20
-79.6863
11
103.695
21
-79.8683
0
LINE
8
BLACK
6
CONTINUOUS
10
103.695
20
-79.8683
11
103.733
21
-80.0615
0
LINE
8
BLACK
6
CONTINUOUS
10
103.733
20
-80.0615
11
103.733
21
-80.2585
0
LINE
8
BLACK
6
CONTINUOUS
10
103.733
20
-80.2585
11
103.695
21
-80.4517
0
LINE
8
BLACK
6
CONTINUOUS
10
103.695
20
-80.4517
11
103.619
21
-80.6337
0
LINE
8
BLACK
6
CONTINUOUS
10
103.619
20
-80.6337
11
103.51
21
-80.7975
0
LINE
8
BLACK
6
CONTINUOUS
10
103.51
20
-80.7975
11
103.37
21
-80.9368
0
LINE
8
BLACK
6
CONTINUOUS
10
103.37
20
-80.9368
11
103.207
21
-81.0462
0
LINE
8
BLACK
6
CONTINUOUS
10
103.207
20
-81.0462
11
103.025
21
-81.1216
0
LINE
8
BLACK
6
CONTINUOUS
10
103.025
20
-81.1216
11
102.831
21
-81.16
0
LINE
8
BLACK
6
CONTINUOUS
10
102.831
20
-81.16
11
102.635
21
-81.16
0
LINE
8
BLACK
6
CONTINUOUS
10
102.635
20
-81.16
11
102.441
21
-81.1216
0
LINE
8
BLACK
6
CONTINUOUS
10
102.441
20
-81.1216
11
102.259
21
-81.0462
0
LINE
8
BLACK
6
CONTINUOUS
10
102.259
20
-81.0462
11
102.096
21
-80.9368
0
LINE
8
BLACK
6
CONTINUOUS
10
102.096
20
-80.9368
11
101.956
21
-80.7975
0
LINE
8
BLACK
6
CONTINUOUS
10
101.956
20
-80.7975
11
101.847
21
-80.6337
0
LINE
8
BLACK
6
CONTINUOUS
10
101.847
20
-80.6337
11
101.771
21
-80.4517
0
LINE
8
BLACK
6
CONTINUOUS
10
101.771
20
-80.4517
11
101.733
21
-80.2585
0
LINE
8
BLACK
6
CONTINUOUS
10
101.733
20
-80.2585
11
101.733
21
-80.0615
0
LINE
8
BLACK
6
CONTINUOUS
10
101.733
20
-80.0615
11
101.771
21
-79.8683
0
LINE
8
BLACK
6
CONTINUOUS
10
101.771
20
-79.8683
11
101.847
21
-79.6863
0
LINE
8
BLACK
6
CONTINUOUS
10
101.847
20
-79.6863
11
101.956
21
-79.5225
0
LINE
8
BLACK
6
CONTINUOUS
10
101.956
20
-79.5225
11
102.096
21
-79.3832
0
LINE
8
BLACK
6
CONTINUOUS
10
102.096
20
-79.3832
11
102.259
21
-79.2738
0
LINE
8
BLACK
6
CONTINUOUS
10
102.259
20
-79.2738
11
102.441
21
-79.1984
0
LINE
8
BLACK
6
CONTINUOUS
10
102.441
20
-79.1984
11
102.635
21
-79.16
0
LINE
8
BLACK
6
CONTINUOUS
10
102.635
20
-79.16
11
102.831
21
-79.16
0
LINE
8
BLACK
6
CONTINUOUS
10
102.831
20
-79.16
11
103.025
21
-79.1984
0
LINE
8
BLACK
6
CONTINUOUS
10
97.9447
20
-79.1984
11
98.1267
21
-79.2738
0
LINE
8
BLACK
6
CONTINUOUS
10
98.1267
20
-79.2738
11
98.2905
21
-79.3832
0
LINE
8
BLACK
6
CONTINUOUS
10
98.2905
20
-79.3832
11
98.4298
21
-79.5225
0
LINE
8
BLACK
6
CONTINUOUS
10
98.4298
20
-79.5225
11
98.5392
21
-79.6863
0
LINE
8
BLACK
6
CONTINUOUS
10
98.5392
20
-79.6863
11
98.6146
21
-79.8683
0
LINE
8
BLACK
6
CONTINUOUS
10
98.6146
20
-79.8683
11
98.653
21
-80.0615
0
LINE
8
BLACK
6
CONTINUOUS
10
98.653
20
-80.0615
11
98.653
21
-80.2585
0
LINE
8
BLACK
6
CONTINUOUS
10
98.653
20
-80.2585
11
98.6146
21
-80.4517
0
LINE
8
BLACK
6
CONTINUOUS
10
98.6146
20
-80.4517
11
98.5392
21
-80.6337
0
LINE
8
BLACK
6
CONTINUOUS
10
98.5392
20
-80.6337
11
98.4298
21
-80.7975
0
LINE
8
BLACK
6
CONTINUOUS
10
98.4298
20
-80.7975
11
98.2905
21
-80.9368
0
LINE
8
BLACK
6
CONTINUOUS
10
98.2905
20
-80.9368
11
98.1267
21
-81.0462
0
LINE
8
BLACK
6
CONTINUOUS
10
98.1267
20
-81.0462
11
97.9447
21
-81.1216
0
LINE
8
BLACK
6
CONTINUOUS
10
97.9447
20
-81.1216
11
97.7515
21
-81.16
0
LINE
8
BLACK
6
CONTINUOUS
10
97.7515
20
-81.16
11
97.5545
21
-81.16
0
LINE
8
BLACK
6
CONTINUOUS
10
97.5545
20
-81.16
11
97.3613
21
-81.1216
0
LINE
8
BLACK
6
CONTINUOUS
10
97.3613
20
-81.1216
11
97.1793
21
-81.0462
0
LINE
8
BLACK
6
CONTINUOUS
10
97.1793
20
-81.0462
11
97.0155
21
-80.9368
0
LINE
8
BLACK
6
CONTINUOUS
10
97.0155
20
-80.9368
11
96.8762
21
-80.7975
0
LINE
8
BLACK
6
CONTINUOUS
10
96.8762
20
-80.7975
11
96.7668
21
-80.6337
0
LINE
8
BLACK
6
CONTINUOUS
10
96.7668
20
-80.6337
11
96.6914
21
-80.4517
0
LINE
8
BLACK
6
CONTINUOUS
10
96.6914
20
-80.4517
11
96.653
21
-80.2585
0
LINE
8
BLACK
6
CONTINUOUS
10
96.653
20
-80.2585
11
96.653
21
-80.0615
0
LINE
8
BLACK
6
CONTINUOUS
10
96.653
20
-80.0615
11
96.6914
21
-79.8683
0
LINE
8
BLACK
6
CONTINUOUS
10
96.6914
20
-79.8683
11
96.7668
21
-79.6863
0
LINE
8
BLACK
6
CONTINUOUS
10
96.7668
20
-79.6863
11
96.8762
21
-79.5225
0
LINE
8
BLACK
6
CONTINUOUS
10
96.8762
20
-79.5225
11
97.0155
21
-79.3832
0
LINE
8
BLACK
6
CONTINUOUS
10
97.0155
20
-79.3832
11
97.1793
21
-79.2738
0
LINE
8
BLACK
6
CONTINUOUS
10
97.1793
20
-79.2738
11
97.3613
21
-79.1984
0
LINE
8
BLACK
6
CONTINUOUS
10
97.3613
20
-79.1984
11
97.5545
21
-79.16
0
LINE
8
BLACK
6
CONTINUOUS
10
97.5545
20
-79.16
11
97.7515
21
-79.16
0
LINE
8
BLACK
6
CONTINUOUS
10
97.7515
20
-79.16
11
97.9447
21
-79.1984
0
LINE
8
BLACK
6
CONTINUOUS
10
100.485
20
-79.1984
11
100.667
21
-79.2738
0
LINE
8
BLACK
6
CONTINUOUS
10
100.667
20
-79.2738
11
100.83
21
-79.3832
0
LINE
8
BLACK
6
CONTINUOUS
10
100.83
20
-79.3832
11
100.97
21
-79.5225
0
LINE
8
BLACK
6
CONTINUOUS
10
100.97
20
-79.5225
11
101.079
21
-79.6863
0
LINE
8
BLACK
6
CONTINUOUS
10
101.079
20
-79.6863
11
101.155
21
-79.8683
0
LINE
8
BLACK
6
CONTINUOUS
10
101.155
20
-79.8683
11
101.193
21
-80.0615
0
LINE
8
BLACK
6
CONTINUOUS
10
101.193
20
-80.0615
11
101.193
21
-80.2585
0
LINE
8
BLACK
6
CONTINUOUS
10
101.193
20
-80.2585
11
101.155
21
-80.4517
0
LINE
8
BLACK
6
CONTINUOUS
10
101.155
20
-80.4517
11
101.079
21
-80.6337
0
LINE
8
BLACK
6
CONTINUOUS
10
101.079
20
-80.6337
11
100.97
21
-80.7975
0
LINE
8
BLACK
6
CONTINUOUS
10
100.97
20
-80.7975
11
100.83
21
-80.9368
0
LINE
8
BLACK
6
CONTINUOUS
10
100.83
20
-80.9368
11
100.667
21
-81.0462
0
LINE
8
BLACK
6
CONTINUOUS
10
100.667
20
-81.0462
11
100.485
21
-81.1216
0
LINE
8
BLACK
6
CONTINUOUS
10
100.485
20
-81.1216
11
100.291
21
-81.16
0
LINE
8
BLACK
6
CONTINUOUS
10
100.291
20
-81.16
11
100.095
21
-81.16
0
LINE
8
BLACK
6
CONTINUOUS
10
100.095
20
-81.16
11
99.9013
21
-81.1216
0
LINE
8
BLACK
6
CONTINUOUS
10
99.9013
20
-81.1216
11
99.7193
21
-81.0462
0
LINE
8
BLACK
6
CONTINUOUS
10
99.7193
20
-81.0462
11
99.5555
21
-80.9368
0
LINE
8
BLACK
6
CONTINUOUS
10
99.5555
20
-80.9368
11
99.4162
21
-80.7975
0
LINE
8
BLACK
6
CONTINUOUS
10
99.4162
20
-80.7975
11
99.3068
21
-80.6337
0
LINE
8
BLACK
6
CONTINUOUS
10
99.3068
20
-80.6337
11
99.2314
21
-80.4517
0
LINE
8
BLACK
6
CONTINUOUS
10
99.2314
20
-80.4517
11
99.193
21
-80.2585
0
LINE
8
BLACK
6
CONTINUOUS
10
99.193
20
-80.2585
11
99.193
21
-80.0615
0
LINE
8
BLACK
6
CONTINUOUS
10
99.193
20
-80.0615
11
99.2314
21
-79.8683
0
LINE
8
BLACK
6
CONTINUOUS
10
99.2314
20
-79.8683
11
99.3068
21
-79.6863
0
LINE
8
BLACK
6
CONTINUOUS
10
99.3068
20
-79.6863
11
99.4162
21
-79.5225
0
LINE
8
BLACK
6
CONTINUOUS
10
99.4162
20
-79.5225
11
99.5555
21
-79.3832
0
LINE
8
BLACK
6
CONTINUOUS
10
99.5555
20
-79.3832
11
99.7193
21
-79.2738
0
LINE
8
BLACK
6
CONTINUOUS
10
99.7193
20
-79.2738
11
99.9013
21
-79.1984
0
LINE
8
BLACK
6
CONTINUOUS
10
99.9013
20
-79.1984
11
100.095
21
-79.16
0
LINE
8
BLACK
6
CONTINUOUS
10
100.095
20
-79.16
11
100.291
21
-79.16
0
LINE
8
BLACK
6
CONTINUOUS
10
100.291
20
-79.16
11
100.485
21
-79.1984
0
LINE
8
BLACK
6
CONTINUOUS
10
80.773
20
-72.4518
11
81.2552
21
-72.6516
0
LINE
8
BLACK
6
CONTINUOUS
10
81.2552
20
-72.6516
11
81.6893
21
-72.9416
0
LINE
8
BLACK
6
CONTINUOUS
10
81.6893
20
-72.9416
11
82.0584
21
-73.3107
0
LINE
8
BLACK
6
CONTINUOUS
10
82.0584
20
-73.3107
11
82.3484
21
-73.7448
0
LINE
8
BLACK
6
CONTINUOUS
10
82.3484
20
-73.7448
11
82.5482
21
-74.227
0
LINE
8
BLACK
6
CONTINUOUS
10
82.5482
20
-74.227
11
82.65
21
-74.739
0
LINE
8
BLACK
6
CONTINUOUS
10
82.65
20
-74.739
11
82.65
21
-75.261
0
LINE
8
BLACK
6
CONTINUOUS
10
82.65
20
-75.261
11
82.5482
21
-75.773
0
LINE
8
BLACK
6
CONTINUOUS
10
82.5482
20
-75.773
11
82.3484
21
-76.2552
0
LINE
8
BLACK
6
CONTINUOUS
10
82.3484
20
-76.2552
11
82.0584
21
-76.6893
0
LINE
8
BLACK
6
CONTINUOUS
10
82.0584
20
-76.6893
11
81.6893
21
-77.0584
0
LINE
8
BLACK
6
CONTINUOUS
10
81.6893
20
-77.0584
11
81.2552
21
-77.3484
0
LINE
8
BLACK
6
CONTINUOUS
10
81.2552
20
-77.3484
11
80.773
21
-77.5482
0
LINE
8
BLACK
6
CONTINUOUS
10
80.773
20
-77.5482
11
80.261
21
-77.65
0
LINE
8
BLACK
6
CONTINUOUS
10
80.261
20
-77.65
11
79.739
21
-77.65
0
LINE
8
BLACK
6
CONTINUOUS
10
79.739
20
-77.65
11
79.227
21
-77.5482
0
LINE
8
BLACK
6
CONTINUOUS
10
79.227
20
-77.5482
11
78.7448
21
-77.3484
0
LINE
8
BLACK
6
CONTINUOUS
10
78.7448
20
-77.3484
11
78.3107
21
-77.0584
0
LINE
8
BLACK
6
CONTINUOUS
10
78.3107
20
-77.0584
11
77.9416
21
-76.6893
0
LINE
8
BLACK
6
CONTINUOUS
10
77.9416
20
-76.6893
11
77.6516
21
-76.2552
0
LINE
8
BLACK
6
CONTINUOUS
10
77.6516
20
-76.2552
11
77.4518
21
-75.773
0
LINE
8
BLACK
6
CONTINUOUS
10
77.4518
20
-75.773
11
77.35
21
-75.261
0
LINE
8
BLACK
6
CONTINUOUS
10
77.35
20
-75.261
11
77.35
21
-74.739
0
LINE
8
BLACK
6
CONTINUOUS
10
77.35
20
-74.739
11
77.4518
21
-74.227
0
LINE
8
BLACK
6
CONTINUOUS
10
77.4518
20
-74.227
11
77.6516
21
-73.7448
0
LINE
8
BLACK
6
CONTINUOUS
10
77.6516
20
-73.7448
11
77.9416
21
-73.3107
0
LINE
8
BLACK
6
CONTINUOUS
10
77.9416
20
-73.3107
11
78.3107
21
-72.9416
0
LINE
8
BLACK
6
CONTINUOUS
10
78.3107
20
-72.9416
11
78.7448
21
-72.6516
0
LINE
8
BLACK
6
CONTINUOUS
10
78.7448
20
-72.6516
11
79.227
21
-72.4518
0
LINE
8
BLACK
6
CONTINUOUS
10
79.227
20
-72.4518
11
79.739
21
-72.35
0
LINE
8
BLACK
6
CONTINUOUS
10
79.739
20
-72.35
11
80.261
21
-72.35
0
LINE
8
BLACK
6
CONTINUOUS
10
80.261
20
-72.35
11
80.773
21
-72.4518
0
LINE
8
BLACK
6
CONTINUOUS
10
136.125
20
-66.392
11
136.352
21
-66.4863
0
LINE
8
BLACK
6
CONTINUOUS
10
136.352
20
-66.4863
11
136.557
21
-66.6231
0
LINE
8
BLACK
6
CONTINUOUS
10
136.557
20
-66.6231
11
136.731
21
-66.7972
0
LINE
8
BLACK
6
CONTINUOUS
10
136.731
20
-66.7972
11
136.868
21
-67.0019
0
LINE
8
BLACK
6
CONTINUOUS
10
136.868
20
-67.0019
11
136.962
21
-67.2294
0
LINE
8
BLACK
6
CONTINUOUS
10
136.962
20
-67.2294
11
137.01
21
-67.4709
0
LINE
8
BLACK
6
CONTINUOUS
10
137.01
20
-67.4709
11
137.01
21
-67.7171
0
LINE
8
BLACK
6
CONTINUOUS
10
137.01
20
-67.7171
11
136.962
21
-67.9586
0
LINE
8
BLACK
6
CONTINUOUS
10
136.962
20
-67.9586
11
136.868
21
-68.1861
0
LINE
8
BLACK
6
CONTINUOUS
10
136.868
20
-68.1861
11
136.731
21
-68.3908
0
LINE
8
BLACK
6
CONTINUOUS
10
136.731
20
-68.3908
11
136.557
21
-68.5649
0
LINE
8
BLACK
6
CONTINUOUS
10
136.557
20
-68.5649
11
136.352
21
-68.7017
0
LINE
8
BLACK
6
CONTINUOUS
10
136.352
20
-68.7017
11
136.125
21
-68.796
0
LINE
8
BLACK
6
CONTINUOUS
10
136.125
20
-68.796
11
135.883
21
-68.844
0
LINE
8
BLACK
6
CONTINUOUS
10
135.883
20
-68.844
11
135.637
21
-68.844
0
LINE
8
BLACK
6
CONTINUOUS
10
135.637
20
-68.844
11
135.395
21
-68.796
0
LINE
8
BLACK
6
CONTINUOUS
10
135.395
20
-68.796
11
135.168
21
-68.7017
0
LINE
8
BLACK
6
CONTINUOUS
10
135.168
20
-68.7017
11
134.963
21
-68.5649
0
LINE
8
BLACK
6
CONTINUOUS
10
134.963
20
-68.5649
11
134.789
21
-68.3908
0
LINE
8
BLACK
6
CONTINUOUS
10
134.789
20
-68.3908
11
134.652
21
-68.1861
0
LINE
8
BLACK
6
CONTINUOUS
10
134.652
20
-68.1861
11
134.558
21
-67.9586
0
LINE
8
BLACK
6
CONTINUOUS
10
134.558
20
-67.9586
11
134.51
21
-67.7171
0
LINE
8
BLACK
6
CONTINUOUS
10
134.51
20
-67.7171
11
134.51
21
-67.4709
0
LINE
8
BLACK
6
CONTINUOUS
10
134.51
20
-67.4709
11
134.558
21
-67.2294
0
LINE
8
BLACK
6
CONTINUOUS
10
134.558
20
-67.2294
11
134.652
21
-67.0019
0
LINE
8
BLACK
6
CONTINUOUS
10
134.652
20
-67.0019
11
134.789
21
-66.7972
0
LINE
8
BLACK
6
CONTINUOUS
10
134.789
20
-66.7972
11
134.963
21
-66.6231
0
LINE
8
BLACK
6
CONTINUOUS
10
134.963
20
-66.6231
11
135.168
21
-66.4863
0
LINE
8
BLACK
6
CONTINUOUS
10
135.168
20
-66.4863
11
135.395
21
-66.392
0
LINE
8
BLACK
6
CONTINUOUS
10
135.395
20
-66.392
11
135.637
21
-66.344
0
LINE
8
BLACK
6
CONTINUOUS
10
135.637
20
-66.344
11
135.883
21
-66.344
0
LINE
8
BLACK
6
CONTINUOUS
10
135.883
20
-66.344
11
136.125
21
-66.392
0
LINE
8
BLACK
6
CONTINUOUS
10
110.725
20
-66.392
11
110.952
21
-66.4863
0
LINE
8
BLACK
6
CONTINUOUS
10
110.952
20
-66.4863
11
111.157
21
-66.6231
0
LINE
8
BLACK
6
CONTINUOUS
10
111.157
20
-66.6231
11
111.331
21
-66.7972
0
LINE
8
BLACK
6
CONTINUOUS
10
111.331
20
-66.7972
11
111.468
21
-67.0019
0
LINE
8
BLACK
6
CONTINUOUS
10
111.468
20
-67.0019
11
111.562
21
-67.2294
0
LINE
8
BLACK
6
CONTINUOUS
10
111.562
20
-67.2294
11
111.61
21
-67.4709
0
LINE
8
BLACK
6
CONTINUOUS
10
111.61
20
-67.4709
11
111.61
21
-67.7171
0
LINE
8
BLACK
6
CONTINUOUS
10
111.61
20
-67.7171
11
111.562
21
-67.9586
0
LINE
8
BLACK
6
CONTINUOUS
10
111.562
20
-67.9586
11
111.468
21
-68.1861
0
LINE
8
BLACK
6
CONTINUOUS
10
111.468
20
-68.1861
11
111.331
21
-68.3908
0
LINE
8
BLACK
6
CONTINUOUS
10
111.331
20
-68.3908
11
111.157
21
-68.5649
0
LINE
8
BLACK
6
CONTINUOUS
10
111.157
20
-68.5649
11
110.952
21
-68.7017
0
LINE
8
BLACK
6
CONTINUOUS
10
110.952
20
-68.7017
11
110.725
21
-68.796
0
LINE
8
BLACK
6
CONTINUOUS
10
110.725
20
-68.796
11
110.483
21
-68.844
0
LINE
8
BLACK
6
CONTINUOUS
10
110.483
20
-68.844
11
110.237
21
-68.844
0
LINE
8
BLACK
6
CONTINUOUS
10
110.237
20
-68.844
11
109.995
21
-68.796
0
LINE
8
BLACK
6
CONTINUOUS
10
109.995
20
-68.796
11
109.768
21
-68.7017
0
LINE
8
BLACK
6
CONTINUOUS
10
109.768
20
-68.7017
11
109.563
21
-68.5649
0
LINE
8
BLACK
6
CONTINUOUS
10
109.563
20
-68.5649
11
109.389
21
-68.3908
0
LINE
8
BLACK
6
CONTINUOUS
10
109.389
20
-68.3908
11
109.252
21
-68.1861
0
LINE
8
BLACK
6
CONTINUOUS
10
109.252
20
-68.1861
11
109.158
21
-67.9586
0
LINE
8
BLACK
6
CONTINUOUS
10
109.158
20
-67.9586
11
109.11
21
-67.7171
0
LINE
8
BLACK
6
CONTINUOUS
10
109.11
20
-67.7171
11
109.11
21
-67.4709
0
LINE
8
BLACK
6
CONTINUOUS
10
109.11
20
-67.4709
11
109.158
21
-67.2294
0
LINE
8
BLACK
6
CONTINUOUS
10
109.158
20
-67.2294
11
109.252
21
-67.0019
0
LINE
8
BLACK
6
CONTINUOUS
10
109.252
20
-67.0019
11
109.389
21
-66.7972
0
LINE
8
BLACK
6
CONTINUOUS
10
109.389
20
-66.7972
11
109.563
21
-66.6231
0
LINE
8
BLACK
6
CONTINUOUS
10
109.563
20
-66.6231
11
109.768
21
-66.4863
0
LINE
8
BLACK
6
CONTINUOUS
10
109.768
20
-66.4863
11
109.995
21
-66.392
0
LINE
8
BLACK
6
CONTINUOUS
10
109.995
20
-66.392
11
110.237
21
-66.344
0
LINE
8
BLACK
6
CONTINUOUS
10
110.237
20
-66.344
11
110.483
21
-66.344
0
LINE
8
BLACK
6
CONTINUOUS
10
110.483
20
-66.344
11
110.725
21
-66.392
0
LINE
8
BLACK
6
CONTINUOUS
10
117.725
20
-66.392
11
117.952
21
-66.4863
0
LINE
8
BLACK
6
CONTINUOUS
10
117.952
20
-66.4863
11
118.157
21
-66.6231
0
LINE
8
BLACK
6
CONTINUOUS
10
118.157
20
-66.6231
11
118.331
21
-66.7972
0
LINE
8
BLACK
6
CONTINUOUS
10
118.331
20
-66.7972
11
118.468
21
-67.0019
0
LINE
8
BLACK
6
CONTINUOUS
10
118.468
20
-67.0019
11
118.562
21
-67.2294
0
LINE
8
BLACK
6
CONTINUOUS
10
118.562
20
-67.2294
11
118.61
21
-67.4709
0
LINE
8
BLACK
6
CONTINUOUS
10
118.61
20
-67.4709
11
118.61
21
-67.7171
0
LINE
8
BLACK
6
CONTINUOUS
10
118.61
20
-67.7171
11
118.562
21
-67.9586
0
LINE
8
BLACK
6
CONTINUOUS
10
118.562
20
-67.9586
11
118.468
21
-68.1861
0
LINE
8
BLACK
6
CONTINUOUS
10
118.468
20
-68.1861
11
118.331
21
-68.3908
0
LINE
8
BLACK
6
CONTINUOUS
10
118.331
20
-68.3908
11
118.157
21
-68.5649
0
LINE
8
BLACK
6
CONTINUOUS
10
118.157
20
-68.5649
11
117.952
21
-68.7017
0
LINE
8
BLACK
6
CONTINUOUS
10
117.952
20
-68.7017
11
117.725
21
-68.796
0
LINE
8
BLACK
6
CONTINUOUS
10
117.725
20
-68.796
11
117.483
21
-68.844
0
LINE
8
BLACK
6
CONTINUOUS
10
117.483
20
-68.844
11
117.237
21
-68.844
0
LINE
8
BLACK
6
CONTINUOUS
10
117.237
20
-68.844
11
116.995
21
-68.796
0
LINE
8
BLACK
6
CONTINUOUS
10
116.995
20
-68.796
11
116.768
21
-68.7017
0
LINE
8
BLACK
6
CONTINUOUS
10
116.768
20
-68.7017
11
116.563
21
-68.5649
0
LINE
8
BLACK
6
CONTINUOUS
10
116.563
20
-68.5649
11
116.389
21
-68.3908
0
LINE
8
BLACK
6
CONTINUOUS
10
116.389
20
-68.3908
11
116.252
21
-68.1861
0
LINE
8
BLACK
6
CONTINUOUS
10
116.252
20
-68.1861
11
116.158
21
-67.9586
0
LINE
8
BLACK
6
CONTINUOUS
10
116.158
20
-67.9586
11
116.11
21
-67.7171
0
LINE
8
BLACK
6
CONTINUOUS
10
116.11
20
-67.7171
11
116.11
21
-67.4709
0
LINE
8
BLACK
6
CONTINUOUS
10
116.11
20
-67.4709
11
116.158
21
-67.2294
0
LINE
8
BLACK
6
CONTINUOUS
10
116.158
20
-67.2294
11
116.252
21
-67.0019
0
LINE
8
BLACK
6
CONTINUOUS
10
116.252
20
-67.0019
11
116.389
21
-66.7972
0
LINE
8
BLACK
6
CONTINUOUS
10
116.389
20
-66.7972
11
116.563
21
-66.6231
0
LINE
8
BLACK
6
CONTINUOUS
10
116.563
20
-66.6231
11
116.768
21
-66.4863
0
LINE
8
BLACK
6
CONTINUOUS
10
116.768
20
-66.4863
11
116.995
21
-66.392
0
LINE
8
BLACK
6
CONTINUOUS
10
116.995
20
-66.392
11
117.237
21
-66.344
0
LINE
8
BLACK
6
CONTINUOUS
10
117.237
20
-66.344
11
117.483
21
-66.344
0
LINE
8
BLACK
6
CONTINUOUS
10
117.483
20
-66.344
11
117.725
21
-66.392
0
LINE
8
BLACK
6
CONTINUOUS
10
123.425
20
-66.392
11
123.652
21
-66.4863
0
LINE
8
BLACK
6
CONTINUOUS
10
123.652
20
-66.4863
11
123.857
21
-66.6231
0
LINE
8
BLACK
6
CONTINUOUS
10
123.857
20
-66.6231
11
124.031
21
-66.7972
0
LINE
8
BLACK
6
CONTINUOUS
10
124.031
20
-66.7972
11
124.168
21
-67.0019
0
LINE
8
BLACK
6
CONTINUOUS
10
124.168
20
-67.0019
11
124.262
21
-67.2294
0
LINE
8
BLACK
6
CONTINUOUS
10
124.262
20
-67.2294
11
124.31
21
-67.4709
0
LINE
8
BLACK
6
CONTINUOUS
10
124.31
20
-67.4709
11
124.31
21
-67.7171
0
LINE
8
BLACK
6
CONTINUOUS
10
124.31
20
-67.7171
11
124.262
21
-67.9586
0
LINE
8
BLACK
6
CONTINUOUS
10
124.262
20
-67.9586
11
124.168
21
-68.1861
0
LINE
8
BLACK
6
CONTINUOUS
10
124.168
20
-68.1861
11
124.031
21
-68.3908
0
LINE
8
BLACK
6
CONTINUOUS
10
124.031
20
-68.3908
11
123.857
21
-68.5649
0
LINE
8
BLACK
6
CONTINUOUS
10
123.857
20
-68.5649
11
123.652
21
-68.7017
0
LINE
8
BLACK
6
CONTINUOUS
10
123.652
20
-68.7017
11
123.425
21
-68.796
0
LINE
8
BLACK
6
CONTINUOUS
10
123.425
20
-68.796
11
123.183
21
-68.844
0
LINE
8
BLACK
6
CONTINUOUS
10
123.183
20
-68.844
11
122.937
21
-68.844
0
LINE
8
BLACK
6
CONTINUOUS
10
122.937
20
-68.844
11
122.695
21
-68.796
0
LINE
8
BLACK
6
CONTINUOUS
10
122.695
20
-68.796
11
122.468
21
-68.7017
0
LINE
8
BLACK
6
CONTINUOUS
10
122.468
20
-68.7017
11
122.263
21
-68.5649
0
LINE
8
BLACK
6
CONTINUOUS
10
122.263
20
-68.5649
11
122.089
21
-68.3908
0
LINE
8
BLACK
6
CONTINUOUS
10
122.089
20
-68.3908
11
121.952
21
-68.1861
0
LINE
8
BLACK
6
CONTINUOUS
10
121.952
20
-68.1861
11
121.858
21
-67.9586
0
LINE
8
BLACK
6
CONTINUOUS
10
121.858
20
-67.9586
11
121.81
21
-67.7171
0
LINE
8
BLACK
6
CONTINUOUS
10
121.81
20
-67.7171
11
121.81
21
-67.4709
0
LINE
8
BLACK
6
CONTINUOUS
10
121.81
20
-67.4709
11
121.858
21
-67.2294
0
LINE
8
BLACK
6
CONTINUOUS
10
121.858
20
-67.2294
11
121.952
21
-67.0019
0
LINE
8
BLACK
6
CONTINUOUS
10
121.952
20
-67.0019
11
122.089
21
-66.7972
0
LINE
8
BLACK
6
CONTINUOUS
10
122.089
20
-66.7972
11
122.263
21
-66.6231
0
LINE
8
BLACK
6
CONTINUOUS
10
122.263
20
-66.6231
11
122.468
21
-66.4863
0
LINE
8
BLACK
6
CONTINUOUS
10
122.468
20
-66.4863
11
122.695
21
-66.392
0
LINE
8
BLACK
6
CONTINUOUS
10
122.695
20
-66.392
11
122.937
21
-66.344
0
LINE
8
BLACK
6
CONTINUOUS
10
122.937
20
-66.344
11
123.183
21
-66.344
0
LINE
8
BLACK
6
CONTINUOUS
10
123.183
20
-66.344
11
123.425
21
-66.392
0
LINE
8
BLACK
6
CONTINUOUS
10
130.425
20
-66.392
11
130.652
21
-66.4863
0
LINE
8
BLACK
6
CONTINUOUS
10
130.652
20
-66.4863
11
130.857
21
-66.6231
0
LINE
8
BLACK
6
CONTINUOUS
10
130.857
20
-66.6231
11
131.031
21
-66.7972
0
LINE
8
BLACK
6
CONTINUOUS
10
131.031
20
-66.7972
11
131.168
21
-67.0019
0
LINE
8
BLACK
6
CONTINUOUS
10
131.168
20
-67.0019
11
131.262
21
-67.2294
0
LINE
8
BLACK
6
CONTINUOUS
10
131.262
20
-67.2294
11
131.31
21
-67.4709
0
LINE
8
BLACK
6
CONTINUOUS
10
131.31
20
-67.4709
11
131.31
21
-67.7171
0
LINE
8
BLACK
6
CONTINUOUS
10
131.31
20
-67.7171
11
131.262
21
-67.9586
0
LINE
8
BLACK
6
CONTINUOUS
10
131.262
20
-67.9586
11
131.168
21
-68.1861
0
LINE
8
BLACK
6
CONTINUOUS
10
131.168
20
-68.1861
11
131.031
21
-68.3908
0
LINE
8
BLACK
6
CONTINUOUS
10
131.031
20
-68.3908
11
130.857
21
-68.5649
0
LINE
8
BLACK
6
CONTINUOUS
10
130.857
20
-68.5649
11
130.652
21
-68.7017
0
LINE
8
BLACK
6
CONTINUOUS
10
130.652
20
-68.7017
11
130.425
21
-68.796
0
LINE
8
BLACK
6
CONTINUOUS
10
130.425
20
-68.796
11
130.183
21
-68.844
0
LINE
8
BLACK
6
CONTINUOUS
10
130.183
20
-68.844
11
129.937
21
-68.844
0
LINE
8
BLACK
6
CONTINUOUS
10
129.937
20
-68.844
11
129.695
21
-68.796
0
LINE
8
BLACK
6
CONTINUOUS
10
129.695
20
-68.796
11
129.468
21
-68.7017
0
LINE
8
BLACK
6
CONTINUOUS
10
129.468
20
-68.7017
11
129.263
21
-68.5649
0
LINE
8
BLACK
6
CONTINUOUS
10
129.263
20
-68.5649
11
129.089
21
-68.3908
0
LINE
8
BLACK
6
CONTINUOUS
10
129.089
20
-68.3908
11
128.952
21
-68.1861
0
LINE
8
BLACK
6
CONTINUOUS
10
128.952
20
-68.1861
11
128.858
21
-67.9586
0
LINE
8
BLACK
6
CONTINUOUS
10
128.858
20
-67.9586
11
128.81
21
-67.7171
0
LINE
8
BLACK
6
CONTINUOUS
10
128.81
20
-67.7171
11
128.81
21
-67.4709
0
LINE
8
BLACK
6
CONTINUOUS
10
128.81
20
-67.4709
11
128.858
21
-67.2294
0
LINE
8
BLACK
6
CONTINUOUS
10
128.858
20
-67.2294
11
128.952
21
-67.0019
0
LINE
8
BLACK
6
CONTINUOUS
10
128.952
20
-67.0019
11
129.089
21
-66.7972
0
LINE
8
BLACK
6
CONTINUOUS
10
129.089
20
-66.7972
11
129.263
21
-66.6231
0
LINE
8
BLACK
6
CONTINUOUS
10
129.263
20
-66.6231
11
129.468
21
-66.4863
0
LINE
8
BLACK
6
CONTINUOUS
10
129.468
20
-66.4863
11
129.695
21
-66.392
0
LINE
8
BLACK
6
CONTINUOUS
10
129.695
20
-66.392
11
129.937
21
-66.344
0
LINE
8
BLACK
6
CONTINUOUS
10
129.937
20
-66.344
11
130.183
21
-66.344
0
LINE
8
BLACK
6
CONTINUOUS
10
130.183
20
-66.344
11
130.425
21
-66.392
0
LINE
8
BLACK
6
CONTINUOUS
10
143.125
20
-66.392
11
143.352
21
-66.4863
0
LINE
8
BLACK
6
CONTINUOUS
10
143.352
20
-66.4863
11
143.557
21
-66.6231
0
LINE
8
BLACK
6
CONTINUOUS
10
143.557
20
-66.6231
11
143.731
21
-66.7972
0
LINE
8
BLACK
6
CONTINUOUS
10
143.731
20
-66.7972
11
143.868
21
-67.0019
0
LINE
8
BLACK
6
CONTINUOUS
10
143.868
20
-67.0019
11
143.962
21
-67.2294
0
LINE
8
BLACK
6
CONTINUOUS
10
143.962
20
-67.2294
11
144.01
21
-67.4709
0
LINE
8
BLACK
6
CONTINUOUS
10
144.01
20
-67.4709
11
144.01
21
-67.7171
0
LINE
8
BLACK
6
CONTINUOUS
10
144.01
20
-67.7171
11
143.962
21
-67.9586
0
LINE
8
BLACK
6
CONTINUOUS
10
143.962
20
-67.9586
11
143.868
21
-68.1861
0
LINE
8
BLACK
6
CONTINUOUS
10
143.868
20
-68.1861
11
143.731
21
-68.3908
0
LINE
8
BLACK
6
CONTINUOUS
10
143.731
20
-68.3908
11
143.557
21
-68.5649
0
LINE
8
BLACK
6
CONTINUOUS
10
143.557
20
-68.5649
11
143.352
21
-68.7017
0
LINE
8
BLACK
6
CONTINUOUS
10
143.352
20
-68.7017
11
143.125
21
-68.796
0
LINE
8
BLACK
6
CONTINUOUS
10
143.125
20
-68.796
11
142.883
21
-68.844
0
LINE
8
BLACK
6
CONTINUOUS
10
142.883
20
-68.844
11
142.637
21
-68.844
0
LINE
8
BLACK
6
CONTINUOUS
10
142.637
20
-68.844
11
142.395
21
-68.796
0
LINE
8
BLACK
6
CONTINUOUS
10
142.395
20
-68.796
11
142.168
21
-68.7017
0
LINE
8
BLACK
6
CONTINUOUS
10
142.168
20
-68.7017
11
141.963
21
-68.5649
0
LINE
8
BLACK
6
CONTINUOUS
10
141.963
20
-68.5649
11
141.789
21
-68.3908
0
LINE
8
BLACK
6
CONTINUOUS
10
141.789
20
-68.3908
11
141.652
21
-68.1861
0
LINE
8
BLACK
6
CONTINUOUS
10
141.652
20
-68.1861
11
141.558
21
-67.9586
0
LINE
8
BLACK
6
CONTINUOUS
10
141.558
20
-67.9586
11
141.51
21
-67.7171
0
LINE
8
BLACK
6
CONTINUOUS
10
141.51
20
-67.7171
11
141.51
21
-67.4709
0
LINE
8
BLACK
6
CONTINUOUS
10
141.51
20
-67.4709
11
141.558
21
-67.2294
0
LINE
8
BLACK
6
CONTINUOUS
10
141.558
20
-67.2294
11
141.652
21
-67.0019
0
LINE
8
BLACK
6
CONTINUOUS
10
141.652
20
-67.0019
11
141.789
21
-66.7972
0
LINE
8
BLACK
6
CONTINUOUS
10
141.789
20
-66.7972
11
141.963
21
-66.6231
0
LINE
8
BLACK
6
CONTINUOUS
10
141.963
20
-66.6231
11
142.168
21
-66.4863
0
LINE
8
BLACK
6
CONTINUOUS
10
142.168
20
-66.4863
11
142.395
21
-66.392
0
LINE
8
BLACK
6
CONTINUOUS
10
142.395
20
-66.392
11
142.637
21
-66.344
0
LINE
8
BLACK
6
CONTINUOUS
10
142.637
20
-66.344
11
142.883
21
-66.344
0
LINE
8
BLACK
6
CONTINUOUS
10
142.883
20
-66.344
11
143.125
21
-66.392
0
LINE
8
BLACK
6
CONTINUOUS
10
96.8017
20
-65.7834
11
96.9837
21
-65.8588
0
LINE
8
BLACK
6
CONTINUOUS
10
96.9837
20
-65.8588
11
97.1475
21
-65.9682
0
LINE
8
BLACK
6
CONTINUOUS
10
97.1475
20
-65.9682
11
97.2868
21
-66.1075
0
LINE
8
BLACK
6
CONTINUOUS
10
97.2868
20
-66.1075
11
97.3962
21
-66.2713
0
LINE
8
BLACK
6
CONTINUOUS
10
97.3962
20
-66.2713
11
97.4716
21
-66.4533
0
LINE
8
BLACK
6
CONTINUOUS
10
97.4716
20
-66.4533
11
97.51
21
-66.6465
0
LINE
8
BLACK
6
CONTINUOUS
10
97.51
20
-66.6465
11
97.51
21
-66.8435
0
LINE
8
BLACK
6
CONTINUOUS
10
97.51
20
-66.8435
11
97.4716
21
-67.0367
0
LINE
8
BLACK
6
CONTINUOUS
10
97.4716
20
-67.0367
11
97.3962
21
-67.2187
0
LINE
8
BLACK
6
CONTINUOUS
10
97.3962
20
-67.2187
11
97.2868
21
-67.3825
0
LINE
8
BLACK
6
CONTINUOUS
10
97.2868
20
-67.3825
11
97.1475
21
-67.5218
0
LINE
8
BLACK
6
CONTINUOUS
10
97.1475
20
-67.5218
11
96.9837
21
-67.6312
0
LINE
8
BLACK
6
CONTINUOUS
10
96.9837
20
-67.6312
11
96.8017
21
-67.7066
0
LINE
8
BLACK
6
CONTINUOUS
10
96.8017
20
-67.7066
11
96.6085
21
-67.745
0
LINE
8
BLACK
6
CONTINUOUS
10
96.6085
20
-67.745
11
96.4115
21
-67.745
0
LINE
8
BLACK
6
CONTINUOUS
10
96.4115
20
-67.745
11
96.2183
21
-67.7066
0
LINE
8
BLACK
6
CONTINUOUS
10
96.2183
20
-67.7066
11
96.0363
21
-67.6312
0
LINE
8
BLACK
6
CONTINUOUS
10
96.0363
20
-67.6312
11
95.8725
21
-67.5218
0
LINE
8
BLACK
6
CONTINUOUS
10
95.8725
20
-67.5218
11
95.7332
21
-67.3825
0
LINE
8
BLACK
6
CONTINUOUS
10
95.7332
20
-67.3825
11
95.6238
21
-67.2187
0
LINE
8
BLACK
6
CONTINUOUS
10
95.6238
20
-67.2187
11
95.5484
21
-67.0367
0
LINE
8
BLACK
6
CONTINUOUS
10
95.5484
20
-67.0367
11
95.51
21
-66.8435
0
LINE
8
BLACK
6
CONTINUOUS
10
95.51
20
-66.8435
11
95.51
21
-66.6465
0
LINE
8
BLACK
6
CONTINUOUS
10
95.51
20
-66.6465
11
95.5484
21
-66.4533
0
LINE
8
BLACK
6
CONTINUOUS
10
95.5484
20
-66.4533
11
95.6238
21
-66.2713
0
LINE
8
BLACK
6
CONTINUOUS
10
95.6238
20
-66.2713
11
95.7332
21
-66.1075
0
LINE
8
BLACK
6
CONTINUOUS
10
95.7332
20
-66.1075
11
95.8725
21
-65.9682
0
LINE
8
BLACK
6
CONTINUOUS
10
95.8725
20
-65.9682
11
96.0363
21
-65.8588
0
LINE
8
BLACK
6
CONTINUOUS
10
96.0363
20
-65.8588
11
96.2183
21
-65.7834
0
LINE
8
BLACK
6
CONTINUOUS
10
96.2183
20
-65.7834
11
96.4115
21
-65.745
0
LINE
8
BLACK
6
CONTINUOUS
10
96.4115
20
-65.745
11
96.6085
21
-65.745
0
LINE
8
BLACK
6
CONTINUOUS
10
96.6085
20
-65.745
11
96.8017
21
-65.7834
0
LINE
8
BLACK
6
CONTINUOUS
10
94.97
20
-67.745
11
92.97
21
-67.745
0
LINE
8
BLACK
6
CONTINUOUS
10
92.97
20
-67.745
11
92.97
21
-65.745
0
LINE
8
BLACK
6
CONTINUOUS
10
92.97
20
-65.745
11
94.97
21
-65.745
0
LINE
8
BLACK
6
CONTINUOUS
10
94.97
20
-65.745
11
94.97
21
-67.745
0
LINE
8
BLACK
6
CONTINUOUS
10
105.692
20
-65.7834
11
105.874
21
-65.8588
0
LINE
8
BLACK
6
CONTINUOUS
10
105.874
20
-65.8588
11
106.037
21
-65.9682
0
LINE
8
BLACK
6
CONTINUOUS
10
106.037
20
-65.9682
11
106.177
21
-66.1075
0
LINE
8
BLACK
6
CONTINUOUS
10
106.177
20
-66.1075
11
106.286
21
-66.2713
0
LINE
8
BLACK
6
CONTINUOUS
10
106.286
20
-66.2713
11
106.362
21
-66.4533
0
LINE
8
BLACK
6
CONTINUOUS
10
106.362
20
-66.4533
11
106.4
21
-66.6465
0
LINE
8
BLACK
6
CONTINUOUS
10
106.4
20
-66.6465
11
106.4
21
-66.8435
0
LINE
8
BLACK
6
CONTINUOUS
10
106.4
20
-66.8435
11
106.362
21
-67.0367
0
LINE
8
BLACK
6
CONTINUOUS
10
106.362
20
-67.0367
11
106.286
21
-67.2187
0
LINE
8
BLACK
6
CONTINUOUS
10
106.286
20
-67.2187
11
106.177
21
-67.3825
0
LINE
8
BLACK
6
CONTINUOUS
10
106.177
20
-67.3825
11
106.037
21
-67.5218
0
LINE
8
BLACK
6
CONTINUOUS
10
106.037
20
-67.5218
11
105.874
21
-67.6312
0
LINE
8
BLACK
6
CONTINUOUS
10
105.874
20
-67.6312
11
105.692
21
-67.7066
0
LINE
8
BLACK
6
CONTINUOUS
10
105.692
20
-67.7066
11
105.498
21
-67.745
0
LINE
8
BLACK
6
CONTINUOUS
10
105.498
20
-67.745
11
105.302
21
-67.745
0
LINE
8
BLACK
6
CONTINUOUS
10
105.302
20
-67.745
11
105.108
21
-67.7066
0
LINE
8
BLACK
6
CONTINUOUS
10
105.108
20
-67.7066
11
104.926
21
-67.6312
0
LINE
8
BLACK
6
CONTINUOUS
10
104.926
20
-67.6312
11
104.763
21
-67.5218
0
LINE
8
BLACK
6
CONTINUOUS
10
104.763
20
-67.5218
11
104.623
21
-67.3825
0
LINE
8
BLACK
6
CONTINUOUS
10
104.623
20
-67.3825
11
104.514
21
-67.2187
0
LINE
8
BLACK
6
CONTINUOUS
10
104.514
20
-67.2187
11
104.438
21
-67.0367
0
LINE
8
BLACK
6
CONTINUOUS
10
104.438
20
-67.0367
11
104.4
21
-66.8435
0
LINE
8
BLACK
6
CONTINUOUS
10
104.4
20
-66.8435
11
104.4
21
-66.6465
0
LINE
8
BLACK
6
CONTINUOUS
10
104.4
20
-66.6465
11
104.438
21
-66.4533
0
LINE
8
BLACK
6
CONTINUOUS
10
104.438
20
-66.4533
11
104.514
21
-66.2713
0
LINE
8
BLACK
6
CONTINUOUS
10
104.514
20
-66.2713
11
104.623
21
-66.1075
0
LINE
8
BLACK
6
CONTINUOUS
10
104.623
20
-66.1075
11
104.763
21
-65.9682
0
LINE
8
BLACK
6
CONTINUOUS
10
104.763
20
-65.9682
11
104.926
21
-65.8588
0
LINE
8
BLACK
6
CONTINUOUS
10
104.926
20
-65.8588
11
105.108
21
-65.7834
0
LINE
8
BLACK
6
CONTINUOUS
10
105.108
20
-65.7834
11
105.302
21
-65.745
0
LINE
8
BLACK
6
CONTINUOUS
10
105.302
20
-65.745
11
105.498
21
-65.745
0
LINE
8
BLACK
6
CONTINUOUS
10
105.498
20
-65.745
11
105.692
21
-65.7834
0
LINE
8
BLACK
6
CONTINUOUS
10
103.86
20
-67.745
11
101.86
21
-67.745
0
LINE
8
BLACK
6
CONTINUOUS
10
101.86
20
-67.745
11
101.86
21
-65.745
0
LINE
8
BLACK
6
CONTINUOUS
10
101.86
20
-65.745
11
103.86
21
-65.745
0
LINE
8
BLACK
6
CONTINUOUS
10
103.86
20
-65.745
11
103.86
21
-67.745
0
LINE
8
BLACK
6
CONTINUOUS
10
141.802
20
-64.1324
11
141.984
21
-64.2078
0
LINE
8
BLACK
6
CONTINUOUS
10
141.984
20
-64.2078
11
142.147
21
-64.3172
0
LINE
8
BLACK
6
CONTINUOUS
10
142.147
20
-64.3172
11
142.287
21
-64.4565
0
LINE
8
BLACK
6
CONTINUOUS
10
142.287
20
-64.4565
11
142.396
21
-64.6203
0
LINE
8
BLACK
6
CONTINUOUS
10
142.396
20
-64.6203
11
142.472
21
-64.8023
0
LINE
8
BLACK
6
CONTINUOUS
10
142.472
20
-64.8023
11
142.51
21
-64.9955
0
LINE
8
BLACK
6
CONTINUOUS
10
142.51
20
-64.9955
11
142.51
21
-65.1925
0
LINE
8
BLACK
6
CONTINUOUS
10
142.51
20
-65.1925
11
142.472
21
-65.3857
0
LINE
8
BLACK
6
CONTINUOUS
10
142.472
20
-65.3857
11
142.396
21
-65.5677
0
LINE
8
BLACK
6
CONTINUOUS
10
142.396
20
-65.5677
11
142.287
21
-65.7315
0
LINE
8
BLACK
6
CONTINUOUS
10
142.287
20
-65.7315
11
142.147
21
-65.8708
0
LINE
8
BLACK
6
CONTINUOUS
10
142.147
20
-65.8708
11
141.984
21
-65.9802
0
LINE
8
BLACK
6
CONTINUOUS
10
141.984
20
-65.9802
11
141.802
21
-66.0556
0
LINE
8
BLACK
6
CONTINUOUS
10
141.802
20
-66.0556
11
141.608
21
-66.094
0
LINE
8
BLACK
6
CONTINUOUS
10
141.608
20
-66.094
11
141.412
21
-66.094
0
LINE
8
BLACK
6
CONTINUOUS
10
141.412
20
-66.094
11
141.218
21
-66.0556
0
LINE
8
BLACK
6
CONTINUOUS
10
141.218
20
-66.0556
11
141.036
21
-65.9802
0
LINE
8
BLACK
6
CONTINUOUS
10
141.036
20
-65.9802
11
140.873
21
-65.8708
0
LINE
8
BLACK
6
CONTINUOUS
10
140.873
20
-65.8708
11
140.733
21
-65.7315
0
LINE
8
BLACK
6
CONTINUOUS
10
140.733
20
-65.7315
11
140.624
21
-65.5677
0
LINE
8
BLACK
6
CONTINUOUS
10
140.624
20
-65.5677
11
140.548
21
-65.3857
0
LINE
8
BLACK
6
CONTINUOUS
10
140.548
20
-65.3857
11
140.51
21
-65.1925
0
LINE
8
BLACK
6
CONTINUOUS
10
140.51
20
-65.1925
11
140.51
21
-64.9955
0
LINE
8
BLACK
6
CONTINUOUS
10
140.51
20
-64.9955
11
140.548
21
-64.8023
0
LINE
8
BLACK
6
CONTINUOUS
10
140.548
20
-64.8023
11
140.624
21
-64.6203
0
LINE
8
BLACK
6
CONTINUOUS
10
140.624
20
-64.6203
11
140.733
21
-64.4565
0
LINE
8
BLACK
6
CONTINUOUS
10
140.733
20
-64.4565
11
140.873
21
-64.3172
0
LINE
8
BLACK
6
CONTINUOUS
10
140.873
20
-64.3172
11
141.036
21
-64.2078
0
LINE
8
BLACK
6
CONTINUOUS
10
141.036
20
-64.2078
11
141.218
21
-64.1324
0
LINE
8
BLACK
6
CONTINUOUS
10
141.218
20
-64.1324
11
141.412
21
-64.094
0
LINE
8
BLACK
6
CONTINUOUS
10
141.412
20
-64.094
11
141.608
21
-64.094
0
LINE
8
BLACK
6
CONTINUOUS
10
141.608
20
-64.094
11
141.802
21
-64.1324
0
LINE
8
BLACK
6
CONTINUOUS
10
137.302
20
-64.1324
11
137.484
21
-64.2078
0
LINE
8
BLACK
6
CONTINUOUS
10
137.484
20
-64.2078
11
137.647
21
-64.3172
0
LINE
8
BLACK
6
CONTINUOUS
10
137.647
20
-64.3172
11
137.787
21
-64.4565
0
LINE
8
BLACK
6
CONTINUOUS
10
137.787
20
-64.4565
11
137.896
21
-64.6203
0
LINE
8
BLACK
6
CONTINUOUS
10
137.896
20
-64.6203
11
137.972
21
-64.8023
0
LINE
8
BLACK
6
CONTINUOUS
10
137.972
20
-64.8023
11
138.01
21
-64.9955
0
LINE
8
BLACK
6
CONTINUOUS
10
138.01
20
-64.9955
11
138.01
21
-65.1925
0
LINE
8
BLACK
6
CONTINUOUS
10
138.01
20
-65.1925
11
137.972
21
-65.3857
0
LINE
8
BLACK
6
CONTINUOUS
10
137.972
20
-65.3857
11
137.896
21
-65.5677
0
LINE
8
BLACK
6
CONTINUOUS
10
137.896
20
-65.5677
11
137.787
21
-65.7315
0
LINE
8
BLACK
6
CONTINUOUS
10
137.787
20
-65.7315
11
137.647
21
-65.8708
0
LINE
8
BLACK
6
CONTINUOUS
10
137.647
20
-65.8708
11
137.484
21
-65.9802
0
LINE
8
BLACK
6
CONTINUOUS
10
137.484
20
-65.9802
11
137.302
21
-66.0556
0
LINE
8
BLACK
6
CONTINUOUS
10
137.302
20
-66.0556
11
137.108
21
-66.094
0
LINE
8
BLACK
6
CONTINUOUS
10
137.108
20
-66.094
11
136.912
21
-66.094
0
LINE
8
BLACK
6
CONTINUOUS
10
136.912
20
-66.094
11
136.718
21
-66.0556
0
LINE
8
BLACK
6
CONTINUOUS
10
136.718
20
-66.0556
11
136.536
21
-65.9802
0
LINE
8
BLACK
6
CONTINUOUS
10
136.536
20
-65.9802
11
136.373
21
-65.8708
0
LINE
8
BLACK
6
CONTINUOUS
10
136.373
20
-65.8708
11
136.233
21
-65.7315
0
LINE
8
BLACK
6
CONTINUOUS
10
136.233
20
-65.7315
11
136.124
21
-65.5677
0
LINE
8
BLACK
6
CONTINUOUS
10
136.124
20
-65.5677
11
136.048
21
-65.3857
0
LINE
8
BLACK
6
CONTINUOUS
10
136.048
20
-65.3857
11
136.01
21
-65.1925
0
LINE
8
BLACK
6
CONTINUOUS
10
136.01
20
-65.1925
11
136.01
21
-64.9955
0
LINE
8
BLACK
6
CONTINUOUS
10
136.01
20
-64.9955
11
136.048
21
-64.8023
0
LINE
8
BLACK
6
CONTINUOUS
10
136.048
20
-64.8023
11
136.124
21
-64.6203
0
LINE
8
BLACK
6
CONTINUOUS
10
136.124
20
-64.6203
11
136.233
21
-64.4565
0
LINE
8
BLACK
6
CONTINUOUS
10
136.233
20
-64.4565
11
136.373
21
-64.3172
0
LINE
8
BLACK
6
CONTINUOUS
10
136.373
20
-64.3172
11
136.536
21
-64.2078
0
LINE
8
BLACK
6
CONTINUOUS
10
136.536
20
-64.2078
11
136.718
21
-64.1324
0
LINE
8
BLACK
6
CONTINUOUS
10
136.718
20
-64.1324
11
136.912
21
-64.094
0
LINE
8
BLACK
6
CONTINUOUS
10
136.912
20
-64.094
11
137.108
21
-64.094
0
LINE
8
BLACK
6
CONTINUOUS
10
137.108
20
-64.094
11
137.302
21
-64.1324
0
LINE
8
BLACK
6
CONTINUOUS
10
111.902
20
-64.1324
11
112.084
21
-64.2078
0
LINE
8
BLACK
6
CONTINUOUS
10
112.084
20
-64.2078
11
112.247
21
-64.3172
0
LINE
8
BLACK
6
CONTINUOUS
10
112.247
20
-64.3172
11
112.387
21
-64.4565
0
LINE
8
BLACK
6
CONTINUOUS
10
112.387
20
-64.4565
11
112.496
21
-64.6203
0
LINE
8
BLACK
6
CONTINUOUS
10
112.496
20
-64.6203
11
112.572
21
-64.8023
0
LINE
8
BLACK
6
CONTINUOUS
10
112.572
20
-64.8023
11
112.61
21
-64.9955
0
LINE
8
BLACK
6
CONTINUOUS
10
112.61
20
-64.9955
11
112.61
21
-65.1925
0
LINE
8
BLACK
6
CONTINUOUS
10
112.61
20
-65.1925
11
112.572
21
-65.3857
0
LINE
8
BLACK
6
CONTINUOUS
10
112.572
20
-65.3857
11
112.496
21
-65.5677
0
LINE
8
BLACK
6
CONTINUOUS
10
112.496
20
-65.5677
11
112.387
21
-65.7315
0
LINE
8
BLACK
6
CONTINUOUS
10
112.387
20
-65.7315
11
112.247
21
-65.8708
0
LINE
8
BLACK
6
CONTINUOUS
10
112.247
20
-65.8708
11
112.084
21
-65.9802
0
LINE
8
BLACK
6
CONTINUOUS
10
112.084
20
-65.9802
11
111.902
21
-66.0556
0
LINE
8
BLACK
6
CONTINUOUS
10
111.902
20
-66.0556
11
111.708
21
-66.094
0
LINE
8
BLACK
6
CONTINUOUS
10
111.708
20
-66.094
11
111.512
21
-66.094
0
LINE
8
BLACK
6
CONTINUOUS
10
111.512
20
-66.094
11
111.318
21
-66.0556
0
LINE
8
BLACK
6
CONTINUOUS
10
111.318
20
-66.0556
11
111.136
21
-65.9802
0
LINE
8
BLACK
6
CONTINUOUS
10
111.136
20
-65.9802
11
110.973
21
-65.8708
0
LINE
8
BLACK
6
CONTINUOUS
10
110.973
20
-65.8708
11
110.833
21
-65.7315
0
LINE
8
BLACK
6
CONTINUOUS
10
110.833
20
-65.7315
11
110.724
21
-65.5677
0
LINE
8
BLACK
6
CONTINUOUS
10
110.724
20
-65.5677
11
110.648
21
-65.3857
0
LINE
8
BLACK
6
CONTINUOUS
10
110.648
20
-65.3857
11
110.61
21
-65.1925
0
LINE
8
BLACK
6
CONTINUOUS
10
110.61
20
-65.1925
11
110.61
21
-64.9955
0
LINE
8
BLACK
6
CONTINUOUS
10
110.61
20
-64.9955
11
110.648
21
-64.8023
0
LINE
8
BLACK
6
CONTINUOUS
10
110.648
20
-64.8023
11
110.724
21
-64.6203
0
LINE
8
BLACK
6
CONTINUOUS
10
110.724
20
-64.6203
11
110.833
21
-64.4565
0
LINE
8
BLACK
6
CONTINUOUS
10
110.833
20
-64.4565
11
110.973
21
-64.3172
0
LINE
8
BLACK
6
CONTINUOUS
10
110.973
20
-64.3172
11
111.136
21
-64.2078
0
LINE
8
BLACK
6
CONTINUOUS
10
111.136
20
-64.2078
11
111.318
21
-64.1324
0
LINE
8
BLACK
6
CONTINUOUS
10
111.318
20
-64.1324
11
111.512
21
-64.094
0
LINE
8
BLACK
6
CONTINUOUS
10
111.512
20
-64.094
11
111.708
21
-64.094
0
LINE
8
BLACK
6
CONTINUOUS
10
111.708
20
-64.094
11
111.902
21
-64.1324
0
LINE
8
BLACK
6
CONTINUOUS
10
116.402
20
-64.1324
11
116.584
21
-64.2078
0
LINE
8
BLACK
6
CONTINUOUS
10
116.584
20
-64.2078
11
116.747
21
-64.3172
0
LINE
8
BLACK
6
CONTINUOUS
10
116.747
20
-64.3172
11
116.887
21
-64.4565
0
LINE
8
BLACK
6
CONTINUOUS
10
116.887
20
-64.4565
11
116.996
21
-64.6203
0
LINE
8
BLACK
6
CONTINUOUS
10
116.996
20
-64.6203
11
117.072
21
-64.8023
0
LINE
8
BLACK
6
CONTINUOUS
10
117.072
20
-64.8023
11
117.11
21
-64.9955
0
LINE
8
BLACK
6
CONTINUOUS
10
117.11
20
-64.9955
11
117.11
21
-65.1925
0
LINE
8
BLACK
6
CONTINUOUS
10
117.11
20
-65.1925
11
117.072
21
-65.3857
0
LINE
8
BLACK
6
CONTINUOUS
10
117.072
20
-65.3857
11
116.996
21
-65.5677
0
LINE
8
BLACK
6
CONTINUOUS
10
116.996
20
-65.5677
11
116.887
21
-65.7315
0
LINE
8
BLACK
6
CONTINUOUS
10
116.887
20
-65.7315
11
116.747
21
-65.8708
0
LINE
8
BLACK
6
CONTINUOUS
10
116.747
20
-65.8708
11
116.584
21
-65.9802
0
LINE
8
BLACK
6
CONTINUOUS
10
116.584
20
-65.9802
11
116.402
21
-66.0556
0
LINE
8
BLACK
6
CONTINUOUS
10
116.402
20
-66.0556
11
116.208
21
-66.094
0
LINE
8
BLACK
6
CONTINUOUS
10
116.208
20
-66.094
11
116.012
21
-66.094
0
LINE
8
BLACK
6
CONTINUOUS
10
116.012
20
-66.094
11
115.818
21
-66.0556
0
LINE
8
BLACK
6
CONTINUOUS
10
115.818
20
-66.0556
11
115.636
21
-65.9802
0
LINE
8
BLACK
6
CONTINUOUS
10
115.636
20
-65.9802
11
115.473
21
-65.8708
0
LINE
8
BLACK
6
CONTINUOUS
10
115.473
20
-65.8708
11
115.333
21
-65.7315
0
LINE
8
BLACK
6
CONTINUOUS
10
115.333
20
-65.7315
11
115.224
21
-65.5677
0
LINE
8
BLACK
6
CONTINUOUS
10
115.224
20
-65.5677
11
115.148
21
-65.3857
0
LINE
8
BLACK
6
CONTINUOUS
10
115.148
20
-65.3857
11
115.11
21
-65.1925
0
LINE
8
BLACK
6
CONTINUOUS
10
115.11
20
-65.1925
11
115.11
21
-64.9955
0
LINE
8
BLACK
6
CONTINUOUS
10
115.11
20
-64.9955
11
115.148
21
-64.8023
0
LINE
8
BLACK
6
CONTINUOUS
10
115.148
20
-64.8023
11
115.224
21
-64.6203
0
LINE
8
BLACK
6
CONTINUOUS
10
115.224
20
-64.6203
11
115.333
21
-64.4565
0
LINE
8
BLACK
6
CONTINUOUS
10
115.333
20
-64.4565
11
115.473
21
-64.3172
0
LINE
8
BLACK
6
CONTINUOUS
10
115.473
20
-64.3172
11
115.636
21
-64.2078
0
LINE
8
BLACK
6
CONTINUOUS
10
115.636
20
-64.2078
11
115.818
21
-64.1324
0
LINE
8
BLACK
6
CONTINUOUS
10
115.818
20
-64.1324
11
116.012
21
-64.094
0
LINE
8
BLACK
6
CONTINUOUS
10
116.012
20
-64.094
11
116.208
21
-64.094
0
LINE
8
BLACK
6
CONTINUOUS
10
116.208
20
-64.094
11
116.402
21
-64.1324
0
LINE
8
BLACK
6
CONTINUOUS
10
124.602
20
-64.1324
11
124.784
21
-64.2078
0
LINE
8
BLACK
6
CONTINUOUS
10
124.784
20
-64.2078
11
124.947
21
-64.3172
0
LINE
8
BLACK
6
CONTINUOUS
10
124.947
20
-64.3172
11
125.087
21
-64.4565
0
LINE
8
BLACK
6
CONTINUOUS
10
125.087
20
-64.4565
11
125.196
21
-64.6203
0
LINE
8
BLACK
6
CONTINUOUS
10
125.196
20
-64.6203
11
125.272
21
-64.8023
0
LINE
8
BLACK
6
CONTINUOUS
10
125.272
20
-64.8023
11
125.31
21
-64.9955
0
LINE
8
BLACK
6
CONTINUOUS
10
125.31
20
-64.9955
11
125.31
21
-65.1925
0
LINE
8
BLACK
6
CONTINUOUS
10
125.31
20
-65.1925
11
125.272
21
-65.3857
0
LINE
8
BLACK
6
CONTINUOUS
10
125.272
20
-65.3857
11
125.196
21
-65.5677
0
LINE
8
BLACK
6
CONTINUOUS
10
125.196
20
-65.5677
11
125.087
21
-65.7315
0
LINE
8
BLACK
6
CONTINUOUS
10
125.087
20
-65.7315
11
124.947
21
-65.8708
0
LINE
8
BLACK
6
CONTINUOUS
10
124.947
20
-65.8708
11
124.784
21
-65.9802
0
LINE
8
BLACK
6
CONTINUOUS
10
124.784
20
-65.9802
11
124.602
21
-66.0556
0
LINE
8
BLACK
6
CONTINUOUS
10
124.602
20
-66.0556
11
124.408
21
-66.094
0
LINE
8
BLACK
6
CONTINUOUS
10
124.408
20
-66.094
11
124.212
21
-66.094
0
LINE
8
BLACK
6
CONTINUOUS
10
124.212
20
-66.094
11
124.018
21
-66.0556
0
LINE
8
BLACK
6
CONTINUOUS
10
124.018
20
-66.0556
11
123.836
21
-65.9802
0
LINE
8
BLACK
6
CONTINUOUS
10
123.836
20
-65.9802
11
123.673
21
-65.8708
0
LINE
8
BLACK
6
CONTINUOUS
10
123.673
20
-65.8708
11
123.533
21
-65.7315
0
LINE
8
BLACK
6
CONTINUOUS
10
123.533
20
-65.7315
11
123.424
21
-65.5677
0
LINE
8
BLACK
6
CONTINUOUS
10
123.424
20
-65.5677
11
123.348
21
-65.3857
0
LINE
8
BLACK
6
CONTINUOUS
10
123.348
20
-65.3857
11
123.31
21
-65.1925
0
LINE
8
BLACK
6
CONTINUOUS
10
123.31
20
-65.1925
11
123.31
21
-64.9955
0
LINE
8
BLACK
6
CONTINUOUS
10
123.31
20
-64.9955
11
123.348
21
-64.8023
0
LINE
8
BLACK
6
CONTINUOUS
10
123.348
20
-64.8023
11
123.424
21
-64.6203
0
LINE
8
BLACK
6
CONTINUOUS
10
123.424
20
-64.6203
11
123.533
21
-64.4565
0
LINE
8
BLACK
6
CONTINUOUS
10
123.533
20
-64.4565
11
123.673
21
-64.3172
0
LINE
8
BLACK
6
CONTINUOUS
10
123.673
20
-64.3172
11
123.836
21
-64.2078
0
LINE
8
BLACK
6
CONTINUOUS
10
123.836
20
-64.2078
11
124.018
21
-64.1324
0
LINE
8
BLACK
6
CONTINUOUS
10
124.018
20
-64.1324
11
124.212
21
-64.094
0
LINE
8
BLACK
6
CONTINUOUS
10
124.212
20
-64.094
11
124.408
21
-64.094
0
LINE
8
BLACK
6
CONTINUOUS
10
124.408
20
-64.094
11
124.602
21
-64.1324
0
LINE
8
BLACK
6
CONTINUOUS
10
129.102
20
-64.1324
11
129.284
21
-64.2078
0
LINE
8
BLACK
6
CONTINUOUS
10
129.284
20
-64.2078
11
129.447
21
-64.3172
0
LINE
8
BLACK
6
CONTINUOUS
10
129.447
20
-64.3172
11
129.587
21
-64.4565
0
LINE
8
BLACK
6
CONTINUOUS
10
129.587
20
-64.4565
11
129.696
21
-64.6203
0
LINE
8
BLACK
6
CONTINUOUS
10
129.696
20
-64.6203
11
129.772
21
-64.8023
0
LINE
8
BLACK
6
CONTINUOUS
10
129.772
20
-64.8023
11
129.81
21
-64.9955
0
LINE
8
BLACK
6
CONTINUOUS
10
129.81
20
-64.9955
11
129.81
21
-65.1925
0
LINE
8
BLACK
6
CONTINUOUS
10
129.81
20
-65.1925
11
129.772
21
-65.3857
0
LINE
8
BLACK
6
CONTINUOUS
10
129.772
20
-65.3857
11
129.696
21
-65.5677
0
LINE
8
BLACK
6
CONTINUOUS
10
129.696
20
-65.5677
11
129.587
21
-65.7315
0
LINE
8
BLACK
6
CONTINUOUS
10
129.587
20
-65.7315
11
129.447
21
-65.8708
0
LINE
8
BLACK
6
CONTINUOUS
10
129.447
20
-65.8708
11
129.284
21
-65.9802
0
LINE
8
BLACK
6
CONTINUOUS
10
129.284
20
-65.9802
11
129.102
21
-66.0556
0
LINE
8
BLACK
6
CONTINUOUS
10
129.102
20
-66.0556
11
128.908
21
-66.094
0
LINE
8
BLACK
6
CONTINUOUS
10
128.908
20
-66.094
11
128.712
21
-66.094
0
LINE
8
BLACK
6
CONTINUOUS
10
128.712
20
-66.094
11
128.518
21
-66.0556
0
LINE
8
BLACK
6
CONTINUOUS
10
128.518
20
-66.0556
11
128.336
21
-65.9802
0
LINE
8
BLACK
6
CONTINUOUS
10
128.336
20
-65.9802
11
128.173
21
-65.8708
0
LINE
8
BLACK
6
CONTINUOUS
10
128.173
20
-65.8708
11
128.033
21
-65.7315
0
LINE
8
BLACK
6
CONTINUOUS
10
128.033
20
-65.7315
11
127.924
21
-65.5677
0
LINE
8
BLACK
6
CONTINUOUS
10
127.924
20
-65.5677
11
127.848
21
-65.3857
0
LINE
8
BLACK
6
CONTINUOUS
10
127.848
20
-65.3857
11
127.81
21
-65.1925
0
LINE
8
BLACK
6
CONTINUOUS
10
127.81
20
-65.1925
11
127.81
21
-64.9955
0
LINE
8
BLACK
6
CONTINUOUS
10
127.81
20
-64.9955
11
127.848
21
-64.8023
0
LINE
8
BLACK
6
CONTINUOUS
10
127.848
20
-64.8023
11
127.924
21
-64.6203
0
LINE
8
BLACK
6
CONTINUOUS
10
127.924
20
-64.6203
11
128.033
21
-64.4565
0
LINE
8
BLACK
6
CONTINUOUS
10
128.033
20
-64.4565
11
128.173
21
-64.3172
0
LINE
8
BLACK
6
CONTINUOUS
10
128.173
20
-64.3172
11
128.336
21
-64.2078
0
LINE
8
BLACK
6
CONTINUOUS
10
128.336
20
-64.2078
11
128.518
21
-64.1324
0
LINE
8
BLACK
6
CONTINUOUS
10
128.518
20
-64.1324
11
128.712
21
-64.094
0
LINE
8
BLACK
6
CONTINUOUS
10
128.712
20
-64.094
11
128.908
21
-64.094
0
LINE
8
BLACK
6
CONTINUOUS
10
128.908
20
-64.094
11
129.102
21
-64.1324
0
LINE
8
BLACK
6
CONTINUOUS
10
77.8787
20
-62.6884
11
78.0607
21
-62.7638
0
LINE
8
BLACK
6
CONTINUOUS
10
78.0607
20
-62.7638
11
78.2245
21
-62.8732
0
LINE
8
BLACK
6
CONTINUOUS
10
78.2245
20
-62.8732
11
78.3638
21
-63.0125
0
LINE
8
BLACK
6
CONTINUOUS
10
78.3638
20
-63.0125
11
78.4732
21
-63.1763
0
LINE
8
BLACK
6
CONTINUOUS
10
78.4732
20
-63.1763
11
78.5486
21
-63.3583
0
LINE
8
BLACK
6
CONTINUOUS
10
78.5486
20
-63.3583
11
78.587
21
-63.5515
0
LINE
8
BLACK
6
CONTINUOUS
10
78.587
20
-63.5515
11
78.587
21
-63.7485
0
LINE
8
BLACK
6
CONTINUOUS
10
78.587
20
-63.7485
11
78.5486
21
-63.9417
0
LINE
8
BLACK
6
CONTINUOUS
10
78.5486
20
-63.9417
11
78.4732
21
-64.1237
0
LINE
8
BLACK
6
CONTINUOUS
10
78.4732
20
-64.1237
11
78.3638
21
-64.2875
0
LINE
8
BLACK
6
CONTINUOUS
10
78.3638
20
-64.2875
11
78.2245
21
-64.4268
0
LINE
8
BLACK
6
CONTINUOUS
10
78.2245
20
-64.4268
11
78.0607
21
-64.5362
0
LINE
8
BLACK
6
CONTINUOUS
10
78.0607
20
-64.5362
11
77.8787
21
-64.6116
0
LINE
8
BLACK
6
CONTINUOUS
10
77.8787
20
-64.6116
11
77.6855
21
-64.65
0
LINE
8
BLACK
6
CONTINUOUS
10
77.6855
20
-64.65
11
77.4885
21
-64.65
0
LINE
8
BLACK
6
CONTINUOUS
10
77.4885
20
-64.65
11
77.2953
21
-64.6116
0
LINE
8
BLACK
6
CONTINUOUS
10
77.2953
20
-64.6116
11
77.1133
21
-64.5362
0
LINE
8
BLACK
6
CONTINUOUS
10
77.1133
20
-64.5362
11
76.9495
21
-64.4268
0
LINE
8
BLACK
6
CONTINUOUS
10
76.9495
20
-64.4268
11
76.8102
21
-64.2875
0
LINE
8
BLACK
6
CONTINUOUS
10
76.8102
20
-64.2875
11
76.7008
21
-64.1237
0
LINE
8
BLACK
6
CONTINUOUS
10
76.7008
20
-64.1237
11
76.6254
21
-63.9417
0
LINE
8
BLACK
6
CONTINUOUS
10
76.6254
20
-63.9417
11
76.587
21
-63.7485
0
LINE
8
BLACK
6
CONTINUOUS
10
76.587
20
-63.7485
11
76.587
21
-63.5515
0
LINE
8
BLACK
6
CONTINUOUS
10
76.587
20
-63.5515
11
76.6254
21
-63.3583
0
LINE
8
BLACK
6
CONTINUOUS
10
76.6254
20
-63.3583
11
76.7008
21
-63.1763
0
LINE
8
BLACK
6
CONTINUOUS
10
76.7008
20
-63.1763
11
76.8102
21
-63.0125
0
LINE
8
BLACK
6
CONTINUOUS
10
76.8102
20
-63.0125
11
76.9495
21
-62.8732
0
LINE
8
BLACK
6
CONTINUOUS
10
76.9495
20
-62.8732
11
77.1133
21
-62.7638
0
LINE
8
BLACK
6
CONTINUOUS
10
77.1133
20
-62.7638
11
77.2953
21
-62.6884
0
LINE
8
BLACK
6
CONTINUOUS
10
77.2953
20
-62.6884
11
77.4885
21
-62.65
0
LINE
8
BLACK
6
CONTINUOUS
10
77.4885
20
-62.65
11
77.6855
21
-62.65
0
LINE
8
BLACK
6
CONTINUOUS
10
77.6855
20
-62.65
11
77.8787
21
-62.6884
0
LINE
8
BLACK
6
CONTINUOUS
10
80.4187
20
-62.6884
11
80.6007
21
-62.7638
0
LINE
8
BLACK
6
CONTINUOUS
10
80.6007
20
-62.7638
11
80.7645
21
-62.8732
0
LINE
8
BLACK
6
CONTINUOUS
10
80.7645
20
-62.8732
11
80.9038
21
-63.0125
0
LINE
8
BLACK
6
CONTINUOUS
10
80.9038
20
-63.0125
11
81.0132
21
-63.1763
0
LINE
8
BLACK
6
CONTINUOUS
10
81.0132
20
-63.1763
11
81.0886
21
-63.3583
0
LINE
8
BLACK
6
CONTINUOUS
10
81.0886
20
-63.3583
11
81.127
21
-63.5515
0
LINE
8
BLACK
6
CONTINUOUS
10
81.127
20
-63.5515
11
81.127
21
-63.7485
0
LINE
8
BLACK
6
CONTINUOUS
10
81.127
20
-63.7485
11
81.0886
21
-63.9417
0
LINE
8
BLACK
6
CONTINUOUS
10
81.0886
20
-63.9417
11
81.0132
21
-64.1237
0
LINE
8
BLACK
6
CONTINUOUS
10
81.0132
20
-64.1237
11
80.9038
21
-64.2875
0
LINE
8
BLACK
6
CONTINUOUS
10
80.9038
20
-64.2875
11
80.7645
21
-64.4268
0
LINE
8
BLACK
6
CONTINUOUS
10
80.7645
20
-64.4268
11
80.6007
21
-64.5362
0
LINE
8
BLACK
6
CONTINUOUS
10
80.6007
20
-64.5362
11
80.4187
21
-64.6116
0
LINE
8
BLACK
6
CONTINUOUS
10
80.4187
20
-64.6116
11
80.2255
21
-64.65
0
LINE
8
BLACK
6
CONTINUOUS
10
80.2255
20
-64.65
11
80.0285
21
-64.65
0
LINE
8
BLACK
6
CONTINUOUS
10
80.0285
20
-64.65
11
79.8353
21
-64.6116
0
LINE
8
BLACK
6
CONTINUOUS
10
79.8353
20
-64.6116
11
79.6533
21
-64.5362
0
LINE
8
BLACK
6
CONTINUOUS
10
79.6533
20
-64.5362
11
79.4895
21
-64.4268
0
LINE
8
BLACK
6
CONTINUOUS
10
79.4895
20
-64.4268
11
79.3502
21
-64.2875
0
LINE
8
BLACK
6
CONTINUOUS
10
79.3502
20
-64.2875
11
79.2408
21
-64.1237
0
LINE
8
BLACK
6
CONTINUOUS
10
79.2408
20
-64.1237
11
79.1654
21
-63.9417
0
LINE
8
BLACK
6
CONTINUOUS
10
79.1654
20
-63.9417
11
79.127
21
-63.7485
0
LINE
8
BLACK
6
CONTINUOUS
10
79.127
20
-63.7485
11
79.127
21
-63.5515
0
LINE
8
BLACK
6
CONTINUOUS
10
79.127
20
-63.5515
11
79.1654
21
-63.3583
0
LINE
8
BLACK
6
CONTINUOUS
10
79.1654
20
-63.3583
11
79.2408
21
-63.1763
0
LINE
8
BLACK
6
CONTINUOUS
10
79.2408
20
-63.1763
11
79.3502
21
-63.0125
0
LINE
8
BLACK
6
CONTINUOUS
10
79.3502
20
-63.0125
11
79.4895
21
-62.8732
0
LINE
8
BLACK
6
CONTINUOUS
10
79.4895
20
-62.8732
11
79.6533
21
-62.7638
0
LINE
8
BLACK
6
CONTINUOUS
10
79.6533
20
-62.7638
11
79.8353
21
-62.6884
0
LINE
8
BLACK
6
CONTINUOUS
10
79.8353
20
-62.6884
11
80.0285
21
-62.65
0
LINE
8
BLACK
6
CONTINUOUS
10
80.0285
20
-62.65
11
80.2255
21
-62.65
0
LINE
8
BLACK
6
CONTINUOUS
10
80.2255
20
-62.65
11
80.4187
21
-62.6884
0
LINE
8
BLACK
6
CONTINUOUS
10
82.9587
20
-62.6884
11
83.1407
21
-62.7638
0
LINE
8
BLACK
6
CONTINUOUS
10
83.1407
20
-62.7638
11
83.3045
21
-62.8732
0
LINE
8
BLACK
6
CONTINUOUS
10
83.3045
20
-62.8732
11
83.4438
21
-63.0125
0
LINE
8
BLACK
6
CONTINUOUS
10
83.4438
20
-63.0125
11
83.5532
21
-63.1763
0
LINE
8
BLACK
6
CONTINUOUS
10
83.5532
20
-63.1763
11
83.6286
21
-63.3583
0
LINE
8
BLACK
6
CONTINUOUS
10
83.6286
20
-63.3583
11
83.667
21
-63.5515
0
LINE
8
BLACK
6
CONTINUOUS
10
83.667
20
-63.5515
11
83.667
21
-63.7485
0
LINE
8
BLACK
6
CONTINUOUS
10
83.667
20
-63.7485
11
83.6286
21
-63.9417
0
LINE
8
BLACK
6
CONTINUOUS
10
83.6286
20
-63.9417
11
83.5532
21
-64.1237
0
LINE
8
BLACK
6
CONTINUOUS
10
83.5532
20
-64.1237
11
83.4438
21
-64.2875
0
LINE
8
BLACK
6
CONTINUOUS
10
83.4438
20
-64.2875
11
83.3045
21
-64.4268
0
LINE
8
BLACK
6
CONTINUOUS
10
83.3045
20
-64.4268
11
83.1407
21
-64.5362
0
LINE
8
BLACK
6
CONTINUOUS
10
83.1407
20
-64.5362
11
82.9587
21
-64.6116
0
LINE
8
BLACK
6
CONTINUOUS
10
82.9587
20
-64.6116
11
82.7655
21
-64.65
0
LINE
8
BLACK
6
CONTINUOUS
10
82.7655
20
-64.65
11
82.5685
21
-64.65
0
LINE
8
BLACK
6
CONTINUOUS
10
82.5685
20
-64.65
11
82.3753
21
-64.6116
0
LINE
8
BLACK
6
CONTINUOUS
10
82.3753
20
-64.6116
11
82.1933
21
-64.5362
0
LINE
8
BLACK
6
CONTINUOUS
10
82.1933
20
-64.5362
11
82.0295
21
-64.4268
0
LINE
8
BLACK
6
CONTINUOUS
10
82.0295
20
-64.4268
11
81.8902
21
-64.2875
0
LINE
8
BLACK
6
CONTINUOUS
10
81.8902
20
-64.2875
11
81.7808
21
-64.1237
0
LINE
8
BLACK
6
CONTINUOUS
10
81.7808
20
-64.1237
11
81.7054
21
-63.9417
0
LINE
8
BLACK
6
CONTINUOUS
10
81.7054
20
-63.9417
11
81.667
21
-63.7485
0
LINE
8
BLACK
6
CONTINUOUS
10
81.667
20
-63.7485
11
81.667
21
-63.5515
0
LINE
8
BLACK
6
CONTINUOUS
10
81.667
20
-63.5515
11
81.7054
21
-63.3583
0
LINE
8
BLACK
6
CONTINUOUS
10
81.7054
20
-63.3583
11
81.7808
21
-63.1763
0
LINE
8
BLACK
6
CONTINUOUS
10
81.7808
20
-63.1763
11
81.8902
21
-63.0125
0
LINE
8
BLACK
6
CONTINUOUS
10
81.8902
20
-63.0125
11
82.0295
21
-62.8732
0
LINE
8
BLACK
6
CONTINUOUS
10
82.0295
20
-62.8732
11
82.1933
21
-62.7638
0
LINE
8
BLACK
6
CONTINUOUS
10
82.1933
20
-62.7638
11
82.3753
21
-62.6884
0
LINE
8
BLACK
6
CONTINUOUS
10
82.3753
20
-62.6884
11
82.5685
21
-62.65
0
LINE
8
BLACK
6
CONTINUOUS
10
82.5685
20
-62.65
11
82.7655
21
-62.65
0
LINE
8
BLACK
6
CONTINUOUS
10
82.7655
20
-62.65
11
82.9587
21
-62.6884
0
LINE
8
BLACK
6
CONTINUOUS
10
86.207
20
-64.65
11
84.207
21
-64.65
0
LINE
8
BLACK
6
CONTINUOUS
10
84.207
20
-64.65
11
84.207
21
-62.65
0
LINE
8
BLACK
6
CONTINUOUS
10
84.207
20
-62.65
11
86.207
21
-62.65
0
LINE
8
BLACK
6
CONTINUOUS
10
86.207
20
-62.65
11
86.207
21
-64.65
  0
ENDSEC
  0
EOF
