%TF.GenerationSoftware,KiCad,Pcbnew,(5.1.12)-1*%
%TF.CreationDate,2022-03-08T20:47:42+00:00*%
%TF.ProjectId,RGBtoHDMI CDTV v2 - Daughter Board,52474274-6f48-4444-9d49-204344545620,1*%
%TF.SameCoordinates,Original*%
%TF.FileFunction,Legend,Top*%
%TF.FilePolarity,Positive*%
%FSLAX46Y46*%
G04 Gerber Fmt 4.6, Leading zero omitted, Abs format (unit mm)*
G04 Created by KiCad (PCBNEW (5.1.12)-1) date 2022-03-08 20:47:42*
%MOMM*%
%LPD*%
G01*
G04 APERTURE LIST*
%ADD10C,0.150000*%
%ADD11C,0.120000*%
G04 APERTURE END LIST*
D10*
X92436428Y-69672571D02*
X93007857Y-69672571D01*
X92722142Y-69958285D02*
X92722142Y-69386857D01*
X93293571Y-69208285D02*
X93757857Y-69208285D01*
X93507857Y-69494000D01*
X93615000Y-69494000D01*
X93686428Y-69529714D01*
X93722142Y-69565428D01*
X93757857Y-69636857D01*
X93757857Y-69815428D01*
X93722142Y-69886857D01*
X93686428Y-69922571D01*
X93615000Y-69958285D01*
X93400714Y-69958285D01*
X93329285Y-69922571D01*
X93293571Y-69886857D01*
X94079285Y-69886857D02*
X94115000Y-69922571D01*
X94079285Y-69958285D01*
X94043571Y-69922571D01*
X94079285Y-69886857D01*
X94079285Y-69958285D01*
X94365000Y-69208285D02*
X94829285Y-69208285D01*
X94579285Y-69494000D01*
X94686428Y-69494000D01*
X94757857Y-69529714D01*
X94793571Y-69565428D01*
X94829285Y-69636857D01*
X94829285Y-69815428D01*
X94793571Y-69886857D01*
X94757857Y-69922571D01*
X94686428Y-69958285D01*
X94472142Y-69958285D01*
X94400714Y-69922571D01*
X94365000Y-69886857D01*
X95043571Y-69208285D02*
X95293571Y-69958285D01*
X95543571Y-69208285D01*
X96722142Y-69958285D02*
X96365000Y-69958285D01*
X96365000Y-69208285D01*
X96972142Y-69565428D02*
X97222142Y-69565428D01*
X97329285Y-69958285D02*
X96972142Y-69958285D01*
X96972142Y-69208285D01*
X97329285Y-69208285D01*
X97650714Y-69958285D02*
X97650714Y-69208285D01*
X97829285Y-69208285D01*
X97936428Y-69244000D01*
X98007857Y-69315428D01*
X98043571Y-69386857D01*
X98079285Y-69529714D01*
X98079285Y-69636857D01*
X98043571Y-69779714D01*
X98007857Y-69851142D01*
X97936428Y-69922571D01*
X97829285Y-69958285D01*
X97650714Y-69958285D01*
X101735142Y-69926571D02*
X102306571Y-69926571D01*
X102020857Y-70212285D02*
X102020857Y-69640857D01*
X103020857Y-69462285D02*
X102663714Y-69462285D01*
X102628000Y-69819428D01*
X102663714Y-69783714D01*
X102735142Y-69748000D01*
X102913714Y-69748000D01*
X102985142Y-69783714D01*
X103020857Y-69819428D01*
X103056571Y-69890857D01*
X103056571Y-70069428D01*
X103020857Y-70140857D01*
X102985142Y-70176571D01*
X102913714Y-70212285D01*
X102735142Y-70212285D01*
X102663714Y-70176571D01*
X102628000Y-70140857D01*
X103270857Y-69462285D02*
X103520857Y-70212285D01*
X103770857Y-69462285D01*
X104949428Y-70212285D02*
X104592285Y-70212285D01*
X104592285Y-69462285D01*
X105199428Y-69819428D02*
X105449428Y-69819428D01*
X105556571Y-70212285D02*
X105199428Y-70212285D01*
X105199428Y-69462285D01*
X105556571Y-69462285D01*
X105878000Y-70212285D02*
X105878000Y-69462285D01*
X106056571Y-69462285D01*
X106163714Y-69498000D01*
X106235142Y-69569428D01*
X106270857Y-69640857D01*
X106306571Y-69783714D01*
X106306571Y-69890857D01*
X106270857Y-70033714D01*
X106235142Y-70105142D01*
X106163714Y-70176571D01*
X106056571Y-70212285D01*
X105878000Y-70212285D01*
X112996285Y-68832571D02*
X113139142Y-68880190D01*
X113186761Y-68927809D01*
X113234380Y-69023047D01*
X113234380Y-69165904D01*
X113186761Y-69261142D01*
X113139142Y-69308761D01*
X113043904Y-69356380D01*
X112662952Y-69356380D01*
X112662952Y-68356380D01*
X112996285Y-68356380D01*
X113091523Y-68404000D01*
X113139142Y-68451619D01*
X113186761Y-68546857D01*
X113186761Y-68642095D01*
X113139142Y-68737333D01*
X113091523Y-68784952D01*
X112996285Y-68832571D01*
X112662952Y-68832571D01*
X113520095Y-68356380D02*
X114091523Y-68356380D01*
X113805809Y-69356380D02*
X113805809Y-68356380D01*
X114329619Y-68356380D02*
X114948666Y-68356380D01*
X114615333Y-68737333D01*
X114758190Y-68737333D01*
X114853428Y-68784952D01*
X114901047Y-68832571D01*
X114948666Y-68927809D01*
X114948666Y-69165904D01*
X114901047Y-69261142D01*
X114853428Y-69308761D01*
X114758190Y-69356380D01*
X114472476Y-69356380D01*
X114377238Y-69308761D01*
X114329619Y-69261142D01*
X125823285Y-68832571D02*
X125966142Y-68880190D01*
X126013761Y-68927809D01*
X126061380Y-69023047D01*
X126061380Y-69165904D01*
X126013761Y-69261142D01*
X125966142Y-69308761D01*
X125870904Y-69356380D01*
X125489952Y-69356380D01*
X125489952Y-68356380D01*
X125823285Y-68356380D01*
X125918523Y-68404000D01*
X125966142Y-68451619D01*
X126013761Y-68546857D01*
X126013761Y-68642095D01*
X125966142Y-68737333D01*
X125918523Y-68784952D01*
X125823285Y-68832571D01*
X125489952Y-68832571D01*
X126347095Y-68356380D02*
X126918523Y-68356380D01*
X126632809Y-69356380D02*
X126632809Y-68356380D01*
X127204238Y-68451619D02*
X127251857Y-68404000D01*
X127347095Y-68356380D01*
X127585190Y-68356380D01*
X127680428Y-68404000D01*
X127728047Y-68451619D01*
X127775666Y-68546857D01*
X127775666Y-68642095D01*
X127728047Y-68784952D01*
X127156619Y-69356380D01*
X127775666Y-69356380D01*
X138523285Y-68959571D02*
X138666142Y-69007190D01*
X138713761Y-69054809D01*
X138761380Y-69150047D01*
X138761380Y-69292904D01*
X138713761Y-69388142D01*
X138666142Y-69435761D01*
X138570904Y-69483380D01*
X138189952Y-69483380D01*
X138189952Y-68483380D01*
X138523285Y-68483380D01*
X138618523Y-68531000D01*
X138666142Y-68578619D01*
X138713761Y-68673857D01*
X138713761Y-68769095D01*
X138666142Y-68864333D01*
X138618523Y-68911952D01*
X138523285Y-68959571D01*
X138189952Y-68959571D01*
X139047095Y-68483380D02*
X139618523Y-68483380D01*
X139332809Y-69483380D02*
X139332809Y-68483380D01*
X140475666Y-69483380D02*
X139904238Y-69483380D01*
X140189952Y-69483380D02*
X140189952Y-68483380D01*
X140094714Y-68626238D01*
X139999476Y-68721476D01*
X139904238Y-68769095D01*
D11*
%TO.C,CN11*%
X88703000Y-84030000D02*
X88703000Y-82700000D01*
X90033000Y-84030000D02*
X88703000Y-84030000D01*
X88703000Y-81430000D02*
X88703000Y-78830000D01*
X91303000Y-81430000D02*
X88703000Y-81430000D01*
X91303000Y-84030000D02*
X91303000Y-81430000D01*
X88703000Y-78830000D02*
X104063000Y-78830000D01*
X91303000Y-84030000D02*
X104063000Y-84030000D01*
X104063000Y-84030000D02*
X104063000Y-78830000D01*
D10*
X85310333Y-81914142D02*
X85262714Y-81961761D01*
X85119857Y-82009380D01*
X85024619Y-82009380D01*
X84881761Y-81961761D01*
X84786523Y-81866523D01*
X84738904Y-81771285D01*
X84691285Y-81580809D01*
X84691285Y-81437952D01*
X84738904Y-81247476D01*
X84786523Y-81152238D01*
X84881761Y-81057000D01*
X85024619Y-81009380D01*
X85119857Y-81009380D01*
X85262714Y-81057000D01*
X85310333Y-81104619D01*
X85738904Y-82009380D02*
X85738904Y-81009380D01*
X86310333Y-82009380D01*
X86310333Y-81009380D01*
X87310333Y-82009380D02*
X86738904Y-82009380D01*
X87024619Y-82009380D02*
X87024619Y-81009380D01*
X86929380Y-81152238D01*
X86834142Y-81247476D01*
X86738904Y-81295095D01*
X88262714Y-82009380D02*
X87691285Y-82009380D01*
X87977000Y-82009380D02*
X87977000Y-81009380D01*
X87881761Y-81152238D01*
X87786523Y-81247476D01*
X87691285Y-81295095D01*
%TD*%
M02*
