M48
; DRILL file {KiCad (5.1.12)-1} date 03/08/22 20:47:39
; FORMAT={-:-/ absolute / inch / decimal}
; #@! TF.CreationDate,2022-03-08T20:47:39+00:00
; #@! TF.GenerationSoftware,Kicad,Pcbnew,(5.1.12)-1
; #@! TF.FileFunction,Plated,1,2,PTH
FMAT,2
INCH
T1C0.0157
T2C0.0197
T3C0.0394
T4C0.0512
T5C0.0984
%
G90
G05
T1
X4.9416Y-3.0628
X4.9736Y-3.0628
X5.0056Y-3.0628
X5.0696Y-2.8028
T2
X3.0758Y-2.9528
X3.0974Y-2.9006
X3.0974Y-3.005
X3.1496Y-2.8789
X3.1496Y-3.0266
X3.2018Y-2.9006
X3.2018Y-3.005
X3.2234Y-2.9528
X5.438Y-3.2677
X5.4596Y-3.2155
X5.4596Y-3.3199
X5.5118Y-3.1939
X5.5118Y-3.3415
X5.564Y-3.2155
X5.564Y-3.3199
X5.5856Y-3.2677
T3
X3.0546Y-2.5059
X3.1546Y-2.5059
X3.2546Y-2.5059
X3.3546Y-2.5059
X3.5446Y-3.1559
X3.5446Y-3.2559
X3.6446Y-3.1559
X3.6446Y-3.2559
X3.6996Y-2.6278
X3.7446Y-3.1559
X3.7446Y-3.2559
X3.7996Y-2.6278
X3.8446Y-3.1559
X3.8446Y-3.2559
X3.9446Y-3.1559
X3.9446Y-3.2559
X4.0446Y-3.1559
X4.0446Y-3.2559
X4.0496Y-2.6278
X4.1496Y-2.6278
X4.3941Y-2.5628
X4.5713Y-2.5628
X4.8941Y-2.5628
X5.0713Y-2.5628
X5.3941Y-2.5628
X5.5713Y-2.5628
T4
X4.3449Y-2.6612
X4.6205Y-2.6612
X4.8449Y-2.6612
X5.1205Y-2.6612
X5.3449Y-2.6612
X5.6205Y-2.6612
T5
X3.1496Y-2.9528
X5.5118Y-3.2677
T0
M30
