%TF.GenerationSoftware,KiCad,Pcbnew,(5.1.12)-1*%
%TF.CreationDate,2022-03-08T20:47:42+00:00*%
%TF.ProjectId,RGBtoHDMI CDTV v2 - Daughter Board,52474274-6f48-4444-9d49-204344545620,1*%
%TF.SameCoordinates,Original*%
%TF.FileFunction,Copper,L1,Top*%
%TF.FilePolarity,Positive*%
%FSLAX46Y46*%
G04 Gerber Fmt 4.6, Leading zero omitted, Abs format (unit mm)*
G04 Created by KiCad (PCBNEW (5.1.12)-1) date 2022-03-08 20:47:42*
%MOMM*%
%LPD*%
G01*
G04 APERTURE LIST*
%TA.AperFunction,ComponentPad*%
%ADD10O,1.700000X1.700000*%
%TD*%
%TA.AperFunction,ComponentPad*%
%ADD11R,1.700000X1.700000*%
%TD*%
%TA.AperFunction,ComponentPad*%
%ADD12C,1.700000*%
%TD*%
%TA.AperFunction,ComponentPad*%
%ADD13C,2.200000*%
%TD*%
%TA.AperFunction,ComponentPad*%
%ADD14C,0.800000*%
%TD*%
%TA.AperFunction,ComponentPad*%
%ADD15C,5.000000*%
%TD*%
%TA.AperFunction,ViaPad*%
%ADD16C,0.600000*%
%TD*%
%TA.AperFunction,ViaPad*%
%ADD17C,0.800000*%
%TD*%
%TA.AperFunction,Conductor*%
%ADD18C,0.400000*%
%TD*%
%TA.AperFunction,Conductor*%
%ADD19C,0.254000*%
%TD*%
%TA.AperFunction,Conductor*%
%ADD20C,0.100000*%
%TD*%
G04 APERTURE END LIST*
D10*
%TO.P,CN11,12*%
%TO.N,+3V3*%
X102733000Y-80160000D03*
%TO.P,CN11,11*%
%TO.N,+5V*%
X102733000Y-82700000D03*
%TO.P,CN11,10*%
%TO.N,GPIO16*%
X100193000Y-80160000D03*
%TO.P,CN11,9*%
%TO.N,GND*%
X100193000Y-82700000D03*
%TO.P,CN11,8*%
%TO.N,GPIO26*%
X97653000Y-80160000D03*
%TO.P,CN11,7*%
%TO.N,GND*%
X97653000Y-82700000D03*
%TO.P,CN11,6*%
%TO.N,GPIO19*%
X95113000Y-80160000D03*
%TO.P,CN11,5*%
%TO.N,GND*%
X95113000Y-82700000D03*
%TO.P,CN11,4*%
%TO.N,GPIO14*%
X92573000Y-80160000D03*
%TO.P,CN11,3*%
%TO.N,GND*%
X92573000Y-82700000D03*
%TO.P,CN11,2*%
%TO.N,GPIO15*%
X90033000Y-80160000D03*
D11*
%TO.P,CN11,1*%
%TO.N,GND*%
X90033000Y-82700000D03*
%TD*%
D10*
%TO.P,D2,2*%
%TO.N,Net-(D2-Pad2)*%
X96510000Y-66745000D03*
D11*
%TO.P,D2,1*%
%TO.N,GND*%
X93970000Y-66745000D03*
%TD*%
D10*
%TO.P,D1,2*%
%TO.N,Net-(D1-Pad2)*%
X105400000Y-66745000D03*
D11*
%TO.P,D1,1*%
%TO.N,GND*%
X102860000Y-66745000D03*
%TD*%
D10*
%TO.P,SER1,4*%
%TO.N,GPIO15*%
X77587000Y-63650000D03*
%TO.P,SER1,3*%
%TO.N,GPIO14*%
X80127000Y-63650000D03*
%TO.P,SER1,2*%
%TO.N,GND*%
X82667000Y-63650000D03*
D11*
%TO.P,SER1,1*%
%TO.N,+5V*%
X85207000Y-63650000D03*
%TD*%
D12*
%TO.P,BT1,1*%
%TO.N,GND*%
X141510000Y-65094000D03*
%TO.P,BT1,2*%
%TO.N,GPIO16*%
X137010000Y-65094000D03*
D13*
%TO.P,BT1,*%
%TO.N,*%
X142760000Y-67594000D03*
X135760000Y-67594000D03*
%TD*%
D12*
%TO.P,BT2,1*%
%TO.N,GND*%
X128810000Y-65094000D03*
%TO.P,BT2,2*%
%TO.N,GPIO26*%
X124310000Y-65094000D03*
D13*
%TO.P,BT2,*%
%TO.N,*%
X130060000Y-67594000D03*
X123060000Y-67594000D03*
%TD*%
D12*
%TO.P,BT3,1*%
%TO.N,GND*%
X116110000Y-65094000D03*
%TO.P,BT3,2*%
%TO.N,GPIO19*%
X111610000Y-65094000D03*
D13*
%TO.P,BT3,*%
%TO.N,*%
X117360000Y-67594000D03*
X110360000Y-67594000D03*
%TD*%
D14*
%TO.P,H2,1*%
%TO.N,GND*%
X141325825Y-81674175D03*
X140000000Y-81125000D03*
X138674175Y-81674175D03*
X138125000Y-83000000D03*
X138674175Y-84325825D03*
X140000000Y-84875000D03*
X141325825Y-84325825D03*
X141875000Y-83000000D03*
D15*
X140000000Y-83000000D03*
%TD*%
D14*
%TO.P,H1,1*%
%TO.N,GND*%
X81325825Y-73674175D03*
X80000000Y-73125000D03*
X78674175Y-73674175D03*
X78125000Y-75000000D03*
X78674175Y-76325825D03*
X80000000Y-76875000D03*
X81325825Y-76325825D03*
X81875000Y-75000000D03*
D15*
X80000000Y-75000000D03*
%TD*%
D16*
%TO.N,+3V3*%
X127142406Y-77794000D03*
X126329590Y-77794000D03*
X125516800Y-77794000D03*
D17*
%TO.N,GPIO16*%
X128768000Y-71190000D03*
%TD*%
D18*
%TO.N,+3V3*%
X127142406Y-77794000D02*
X126329590Y-77794000D01*
X126329590Y-77794000D02*
X125516800Y-77794000D01*
X102733000Y-80160000D02*
X123150800Y-80160000D01*
X123150800Y-80160000D02*
X125516800Y-77794000D01*
%TO.N,GPIO19*%
X112893000Y-70936000D02*
X112893000Y-66377000D01*
X111369000Y-72460000D02*
X112893000Y-70936000D01*
X101336000Y-72460000D02*
X111369000Y-72460000D01*
X112893000Y-66377000D02*
X111610000Y-65094000D01*
X95113000Y-78683000D02*
X101336000Y-72460000D01*
X95113000Y-80160000D02*
X95113000Y-78683000D01*
%TO.N,GPIO26*%
X122799000Y-65094000D02*
X124310000Y-65094000D01*
X115560000Y-75889000D02*
X120132000Y-71317000D01*
X100574000Y-75889000D02*
X115560000Y-75889000D01*
X120132000Y-67761000D02*
X122799000Y-65094000D01*
X120132000Y-71317000D02*
X120132000Y-67761000D01*
X97653000Y-78810000D02*
X100574000Y-75889000D01*
X97653000Y-80160000D02*
X97653000Y-78810000D01*
%TO.N,GPIO16*%
X128133000Y-71190000D02*
X128768000Y-71190000D01*
X121529000Y-77794000D02*
X128133000Y-71190000D01*
X102559000Y-77794000D02*
X121529000Y-77794000D01*
X100193000Y-80160000D02*
X102559000Y-77794000D01*
%TD*%
D19*
%TO.N,GND*%
X86198001Y-62444628D02*
X86131689Y-62424513D01*
X86057000Y-62417157D01*
X84357000Y-62417157D01*
X84282311Y-62424513D01*
X84210492Y-62446299D01*
X84144304Y-62481678D01*
X84086289Y-62529289D01*
X84038678Y-62587304D01*
X84003299Y-62653492D01*
X83981513Y-62725311D01*
X83974157Y-62800000D01*
X83974157Y-64500000D01*
X83981513Y-64574689D01*
X84003299Y-64646508D01*
X84038678Y-64712696D01*
X84086289Y-64770711D01*
X84144304Y-64818322D01*
X84210492Y-64853701D01*
X84282311Y-64875487D01*
X84357000Y-64882843D01*
X86057000Y-64882843D01*
X86131689Y-64875487D01*
X86203508Y-64853701D01*
X86269696Y-64818322D01*
X86327711Y-64770711D01*
X86375322Y-64712696D01*
X86410701Y-64646508D01*
X86432487Y-64574689D01*
X86439843Y-64500000D01*
X86439843Y-64196615D01*
X86447879Y-64200910D01*
X86524410Y-64224125D01*
X86584059Y-64230000D01*
X86584060Y-64230000D01*
X86604000Y-64231964D01*
X86623941Y-64230000D01*
X110733103Y-64230000D01*
X110653820Y-64309283D01*
X110519102Y-64510903D01*
X110426307Y-64734931D01*
X110379000Y-64972757D01*
X110379000Y-65215243D01*
X110426307Y-65453069D01*
X110519102Y-65677097D01*
X110653820Y-65878717D01*
X110825283Y-66050180D01*
X111026903Y-66184898D01*
X111250931Y-66277693D01*
X111488757Y-66325000D01*
X111731243Y-66325000D01*
X111969069Y-66277693D01*
X111971167Y-66276824D01*
X112312001Y-66617659D01*
X112312000Y-70695342D01*
X111128343Y-71879000D01*
X101364540Y-71879000D01*
X101336000Y-71876189D01*
X101307460Y-71879000D01*
X101222104Y-71887407D01*
X101112585Y-71920629D01*
X101011652Y-71974579D01*
X100923183Y-72047183D01*
X100904990Y-72069352D01*
X94722356Y-78251987D01*
X94700184Y-78270183D01*
X94681991Y-78292352D01*
X94627579Y-78358653D01*
X94573629Y-78459586D01*
X94540407Y-78569105D01*
X94529189Y-78683000D01*
X94532001Y-78711550D01*
X94532001Y-79068233D01*
X94529903Y-79069102D01*
X94328283Y-79203820D01*
X94156820Y-79375283D01*
X94022102Y-79576903D01*
X93929307Y-79800931D01*
X93882000Y-80038757D01*
X93882000Y-80281243D01*
X93929307Y-80519069D01*
X94022102Y-80743097D01*
X94156820Y-80944717D01*
X94328283Y-81116180D01*
X94529903Y-81250898D01*
X94753931Y-81343693D01*
X94991757Y-81391000D01*
X95234243Y-81391000D01*
X95472069Y-81343693D01*
X95696097Y-81250898D01*
X95897717Y-81116180D01*
X96069180Y-80944717D01*
X96203898Y-80743097D01*
X96296693Y-80519069D01*
X96344000Y-80281243D01*
X96344000Y-80038757D01*
X96296693Y-79800931D01*
X96203898Y-79576903D01*
X96069180Y-79375283D01*
X95897717Y-79203820D01*
X95696097Y-79069102D01*
X95694000Y-79068233D01*
X95694000Y-78923657D01*
X101576658Y-73041000D01*
X111340460Y-73041000D01*
X111369000Y-73043811D01*
X111397540Y-73041000D01*
X111482896Y-73032593D01*
X111592415Y-72999371D01*
X111693348Y-72945421D01*
X111781817Y-72872817D01*
X111800017Y-72850640D01*
X113283646Y-71367012D01*
X113305817Y-71348817D01*
X113378421Y-71260348D01*
X113432371Y-71159415D01*
X113465593Y-71049896D01*
X113474000Y-70964540D01*
X113474000Y-70964538D01*
X113476811Y-70936001D01*
X113474000Y-70907464D01*
X113474000Y-67448134D01*
X115879000Y-67448134D01*
X115879000Y-67739866D01*
X115935914Y-68025992D01*
X116047555Y-68295517D01*
X116209632Y-68538083D01*
X116415917Y-68744368D01*
X116658483Y-68906445D01*
X116928008Y-69018086D01*
X117214134Y-69075000D01*
X117505866Y-69075000D01*
X117791992Y-69018086D01*
X118061517Y-68906445D01*
X118304083Y-68744368D01*
X118510368Y-68538083D01*
X118672445Y-68295517D01*
X118784086Y-68025992D01*
X118841000Y-67739866D01*
X118841000Y-67448134D01*
X118784086Y-67162008D01*
X118672445Y-66892483D01*
X118510368Y-66649917D01*
X118304083Y-66443632D01*
X118061517Y-66281555D01*
X117791992Y-66169914D01*
X117505866Y-66113000D01*
X117214134Y-66113000D01*
X116928008Y-66169914D01*
X116658483Y-66281555D01*
X116415917Y-66443632D01*
X116209632Y-66649917D01*
X116047555Y-66892483D01*
X115935914Y-67162008D01*
X115879000Y-67448134D01*
X113474000Y-67448134D01*
X113474000Y-66405539D01*
X113476811Y-66376999D01*
X113465593Y-66263104D01*
X113432371Y-66153585D01*
X113378421Y-66052652D01*
X113376392Y-66050180D01*
X113323804Y-65986100D01*
X115397505Y-65986100D01*
X115489523Y-66164078D01*
X115710207Y-66264566D01*
X115946255Y-66320069D01*
X116188596Y-66328456D01*
X116427917Y-66289402D01*
X116655020Y-66204411D01*
X116730477Y-66164078D01*
X116822495Y-65986100D01*
X116110000Y-65273605D01*
X115397505Y-65986100D01*
X113323804Y-65986100D01*
X113305817Y-65964183D01*
X113283645Y-65945987D01*
X112792824Y-65455167D01*
X112793693Y-65453069D01*
X112841000Y-65215243D01*
X112841000Y-64972757D01*
X112793693Y-64734931D01*
X112700898Y-64510903D01*
X112566180Y-64309283D01*
X112486897Y-64230000D01*
X115225548Y-64230000D01*
X115145970Y-64309578D01*
X115217898Y-64381506D01*
X115039922Y-64473523D01*
X114939434Y-64694207D01*
X114883931Y-64930255D01*
X114875544Y-65172596D01*
X114914598Y-65411917D01*
X114999589Y-65639020D01*
X115039922Y-65714477D01*
X115217900Y-65806495D01*
X115930395Y-65094000D01*
X115916253Y-65079858D01*
X116095858Y-64900253D01*
X116110000Y-64914395D01*
X116124143Y-64900253D01*
X116303748Y-65079858D01*
X116289605Y-65094000D01*
X117002100Y-65806495D01*
X117180078Y-65714477D01*
X117280566Y-65493793D01*
X117336069Y-65257745D01*
X117344456Y-65015404D01*
X117305402Y-64776083D01*
X117220411Y-64548980D01*
X117180078Y-64473523D01*
X117002102Y-64381506D01*
X117074030Y-64309578D01*
X116994452Y-64230000D01*
X123433103Y-64230000D01*
X123353820Y-64309283D01*
X123219102Y-64510903D01*
X123218233Y-64513000D01*
X122827540Y-64513000D01*
X122799000Y-64510189D01*
X122770460Y-64513000D01*
X122685104Y-64521407D01*
X122575585Y-64554629D01*
X122474652Y-64608579D01*
X122386183Y-64681183D01*
X122367987Y-64703355D01*
X119741356Y-67329987D01*
X119719184Y-67348183D01*
X119700991Y-67370352D01*
X119646579Y-67436653D01*
X119592629Y-67537586D01*
X119559407Y-67647105D01*
X119548189Y-67761000D01*
X119551001Y-67789550D01*
X119551000Y-71076342D01*
X115319343Y-75308000D01*
X100602540Y-75308000D01*
X100574000Y-75305189D01*
X100545460Y-75308000D01*
X100460104Y-75316407D01*
X100350585Y-75349629D01*
X100249652Y-75403579D01*
X100161183Y-75476183D01*
X100142990Y-75498352D01*
X97262356Y-78378987D01*
X97240184Y-78397183D01*
X97188972Y-78459586D01*
X97167579Y-78485653D01*
X97113629Y-78586586D01*
X97080407Y-78696105D01*
X97069189Y-78810000D01*
X97072001Y-78838549D01*
X97072001Y-79068233D01*
X97069903Y-79069102D01*
X96868283Y-79203820D01*
X96696820Y-79375283D01*
X96562102Y-79576903D01*
X96469307Y-79800931D01*
X96422000Y-80038757D01*
X96422000Y-80281243D01*
X96469307Y-80519069D01*
X96562102Y-80743097D01*
X96696820Y-80944717D01*
X96868283Y-81116180D01*
X97069903Y-81250898D01*
X97293931Y-81343693D01*
X97531757Y-81391000D01*
X97774243Y-81391000D01*
X98012069Y-81343693D01*
X98236097Y-81250898D01*
X98437717Y-81116180D01*
X98609180Y-80944717D01*
X98743898Y-80743097D01*
X98836693Y-80519069D01*
X98884000Y-80281243D01*
X98884000Y-80038757D01*
X98962000Y-80038757D01*
X98962000Y-80281243D01*
X99009307Y-80519069D01*
X99102102Y-80743097D01*
X99236820Y-80944717D01*
X99408283Y-81116180D01*
X99609903Y-81250898D01*
X99833931Y-81343693D01*
X100071757Y-81391000D01*
X100314243Y-81391000D01*
X100552069Y-81343693D01*
X100776097Y-81250898D01*
X100977717Y-81116180D01*
X101149180Y-80944717D01*
X101283898Y-80743097D01*
X101376693Y-80519069D01*
X101424000Y-80281243D01*
X101424000Y-80038757D01*
X101376693Y-79800931D01*
X101375824Y-79798833D01*
X101731403Y-79443255D01*
X101642102Y-79576903D01*
X101549307Y-79800931D01*
X101502000Y-80038757D01*
X101502000Y-80281243D01*
X101549307Y-80519069D01*
X101642102Y-80743097D01*
X101776820Y-80944717D01*
X101948283Y-81116180D01*
X102149903Y-81250898D01*
X102373931Y-81343693D01*
X102611757Y-81391000D01*
X102854243Y-81391000D01*
X103092069Y-81343693D01*
X103316097Y-81250898D01*
X103517717Y-81116180D01*
X103689180Y-80944717D01*
X103697305Y-80932556D01*
X138112161Y-80932556D01*
X140000000Y-82820395D01*
X141887839Y-80932556D01*
X141597220Y-80585550D01*
X141095494Y-80320341D01*
X140551668Y-80158110D01*
X139986643Y-80105091D01*
X139422131Y-80163322D01*
X138879826Y-80330565D01*
X138402780Y-80585550D01*
X138112161Y-80932556D01*
X103697305Y-80932556D01*
X103823898Y-80743097D01*
X103824767Y-80741000D01*
X123122260Y-80741000D01*
X123150800Y-80743811D01*
X123179340Y-80741000D01*
X123264696Y-80732593D01*
X123374215Y-80699371D01*
X123475148Y-80645421D01*
X123563617Y-80572817D01*
X123581817Y-80550640D01*
X125675730Y-78456728D01*
X125715440Y-78448829D01*
X125839374Y-78397494D01*
X125873039Y-78375000D01*
X125973351Y-78375000D01*
X126007016Y-78397494D01*
X126130950Y-78448829D01*
X126262517Y-78475000D01*
X126396663Y-78475000D01*
X126528230Y-78448829D01*
X126652164Y-78397494D01*
X126685829Y-78375000D01*
X126786167Y-78375000D01*
X126819832Y-78397494D01*
X126943766Y-78448829D01*
X127075333Y-78475000D01*
X127209479Y-78475000D01*
X127341046Y-78448829D01*
X127464980Y-78397494D01*
X127576518Y-78322967D01*
X127671373Y-78228112D01*
X127745900Y-78116574D01*
X127797235Y-77992640D01*
X127823406Y-77861073D01*
X127823406Y-77726927D01*
X127797235Y-77595360D01*
X127745900Y-77471426D01*
X127671373Y-77359888D01*
X127576518Y-77265033D01*
X127464980Y-77190506D01*
X127341046Y-77139171D01*
X127209479Y-77113000D01*
X127075333Y-77113000D01*
X126943766Y-77139171D01*
X126819832Y-77190506D01*
X126786167Y-77213000D01*
X126685829Y-77213000D01*
X126652164Y-77190506D01*
X126528230Y-77139171D01*
X126396663Y-77113000D01*
X126262517Y-77113000D01*
X126130950Y-77139171D01*
X126007016Y-77190506D01*
X125973351Y-77213000D01*
X125873039Y-77213000D01*
X125839374Y-77190506D01*
X125715440Y-77139171D01*
X125583873Y-77113000D01*
X125449727Y-77113000D01*
X125318160Y-77139171D01*
X125194226Y-77190506D01*
X125082688Y-77265033D01*
X124987833Y-77359888D01*
X124913306Y-77471426D01*
X124861971Y-77595360D01*
X124854072Y-77635070D01*
X122910143Y-79579000D01*
X103824767Y-79579000D01*
X103823898Y-79576903D01*
X103689180Y-79375283D01*
X103517717Y-79203820D01*
X103316097Y-79069102D01*
X103092069Y-78976307D01*
X102854243Y-78929000D01*
X102611757Y-78929000D01*
X102373931Y-78976307D01*
X102149903Y-79069102D01*
X102016255Y-79158403D01*
X102799658Y-78375000D01*
X121500460Y-78375000D01*
X121529000Y-78377811D01*
X121557540Y-78375000D01*
X121642896Y-78366593D01*
X121752415Y-78333371D01*
X121853348Y-78279421D01*
X121941817Y-78206817D01*
X121960017Y-78184640D01*
X128316824Y-71827834D01*
X128398058Y-71882113D01*
X128540191Y-71940987D01*
X128691078Y-71971000D01*
X128844922Y-71971000D01*
X128995809Y-71940987D01*
X129137942Y-71882113D01*
X129265859Y-71796642D01*
X129374642Y-71687859D01*
X129460113Y-71559942D01*
X129518987Y-71417809D01*
X129549000Y-71266922D01*
X129549000Y-71113078D01*
X129518987Y-70962191D01*
X129460113Y-70820058D01*
X129374642Y-70692141D01*
X129265859Y-70583358D01*
X129137942Y-70497887D01*
X128995809Y-70439013D01*
X128844922Y-70409000D01*
X128691078Y-70409000D01*
X128540191Y-70439013D01*
X128398058Y-70497887D01*
X128270141Y-70583358D01*
X128244499Y-70609000D01*
X128161536Y-70609000D01*
X128132999Y-70606189D01*
X128104462Y-70609000D01*
X128104460Y-70609000D01*
X128019104Y-70617407D01*
X127909585Y-70650629D01*
X127808652Y-70704579D01*
X127720183Y-70777183D01*
X127701987Y-70799355D01*
X121288343Y-77213000D01*
X102587536Y-77213000D01*
X102558999Y-77210189D01*
X102530462Y-77213000D01*
X102530460Y-77213000D01*
X102445104Y-77221407D01*
X102335585Y-77254629D01*
X102234652Y-77308579D01*
X102146183Y-77381183D01*
X102127990Y-77403352D01*
X100554167Y-78977176D01*
X100552069Y-78976307D01*
X100314243Y-78929000D01*
X100071757Y-78929000D01*
X99833931Y-78976307D01*
X99609903Y-79069102D01*
X99408283Y-79203820D01*
X99236820Y-79375283D01*
X99102102Y-79576903D01*
X99009307Y-79800931D01*
X98962000Y-80038757D01*
X98884000Y-80038757D01*
X98836693Y-79800931D01*
X98743898Y-79576903D01*
X98609180Y-79375283D01*
X98437717Y-79203820D01*
X98236097Y-79069102D01*
X98234000Y-79068233D01*
X98234000Y-79050657D01*
X100814658Y-76470000D01*
X115531460Y-76470000D01*
X115560000Y-76472811D01*
X115588540Y-76470000D01*
X115673896Y-76461593D01*
X115783415Y-76428371D01*
X115884348Y-76374421D01*
X115972817Y-76301817D01*
X115991017Y-76279640D01*
X120522646Y-71748012D01*
X120544817Y-71729817D01*
X120617421Y-71641348D01*
X120671371Y-71540415D01*
X120704593Y-71430896D01*
X120713000Y-71345540D01*
X120713000Y-71345538D01*
X120715811Y-71317001D01*
X120713000Y-71288464D01*
X120713000Y-68001657D01*
X121694791Y-67019866D01*
X121635914Y-67162008D01*
X121579000Y-67448134D01*
X121579000Y-67739866D01*
X121635914Y-68025992D01*
X121747555Y-68295517D01*
X121909632Y-68538083D01*
X122115917Y-68744368D01*
X122358483Y-68906445D01*
X122628008Y-69018086D01*
X122914134Y-69075000D01*
X123205866Y-69075000D01*
X123491992Y-69018086D01*
X123761517Y-68906445D01*
X124004083Y-68744368D01*
X124210368Y-68538083D01*
X124372445Y-68295517D01*
X124484086Y-68025992D01*
X124541000Y-67739866D01*
X124541000Y-67448134D01*
X128579000Y-67448134D01*
X128579000Y-67739866D01*
X128635914Y-68025992D01*
X128747555Y-68295517D01*
X128909632Y-68538083D01*
X129115917Y-68744368D01*
X129358483Y-68906445D01*
X129628008Y-69018086D01*
X129914134Y-69075000D01*
X130205866Y-69075000D01*
X130491992Y-69018086D01*
X130761517Y-68906445D01*
X131004083Y-68744368D01*
X131210368Y-68538083D01*
X131372445Y-68295517D01*
X131484086Y-68025992D01*
X131541000Y-67739866D01*
X131541000Y-67448134D01*
X134279000Y-67448134D01*
X134279000Y-67739866D01*
X134335914Y-68025992D01*
X134447555Y-68295517D01*
X134609632Y-68538083D01*
X134815917Y-68744368D01*
X135058483Y-68906445D01*
X135328008Y-69018086D01*
X135614134Y-69075000D01*
X135905866Y-69075000D01*
X136191992Y-69018086D01*
X136461517Y-68906445D01*
X136704083Y-68744368D01*
X136910368Y-68538083D01*
X137072445Y-68295517D01*
X137184086Y-68025992D01*
X137241000Y-67739866D01*
X137241000Y-67448134D01*
X137184086Y-67162008D01*
X137072445Y-66892483D01*
X136910368Y-66649917D01*
X136704083Y-66443632D01*
X136461517Y-66281555D01*
X136191992Y-66169914D01*
X135905866Y-66113000D01*
X135614134Y-66113000D01*
X135328008Y-66169914D01*
X135058483Y-66281555D01*
X134815917Y-66443632D01*
X134609632Y-66649917D01*
X134447555Y-66892483D01*
X134335914Y-67162008D01*
X134279000Y-67448134D01*
X131541000Y-67448134D01*
X131484086Y-67162008D01*
X131372445Y-66892483D01*
X131210368Y-66649917D01*
X131004083Y-66443632D01*
X130761517Y-66281555D01*
X130491992Y-66169914D01*
X130205866Y-66113000D01*
X129914134Y-66113000D01*
X129628008Y-66169914D01*
X129358483Y-66281555D01*
X129115917Y-66443632D01*
X128909632Y-66649917D01*
X128747555Y-66892483D01*
X128635914Y-67162008D01*
X128579000Y-67448134D01*
X124541000Y-67448134D01*
X124484086Y-67162008D01*
X124372445Y-66892483D01*
X124210368Y-66649917D01*
X124004083Y-66443632D01*
X123761517Y-66281555D01*
X123491992Y-66169914D01*
X123205866Y-66113000D01*
X122914134Y-66113000D01*
X122628008Y-66169914D01*
X122485867Y-66228791D01*
X123039658Y-65675000D01*
X123218233Y-65675000D01*
X123219102Y-65677097D01*
X123353820Y-65878717D01*
X123525283Y-66050180D01*
X123726903Y-66184898D01*
X123950931Y-66277693D01*
X124188757Y-66325000D01*
X124431243Y-66325000D01*
X124669069Y-66277693D01*
X124893097Y-66184898D01*
X125094717Y-66050180D01*
X125158797Y-65986100D01*
X128097505Y-65986100D01*
X128189523Y-66164078D01*
X128410207Y-66264566D01*
X128646255Y-66320069D01*
X128888596Y-66328456D01*
X129127917Y-66289402D01*
X129355020Y-66204411D01*
X129430477Y-66164078D01*
X129522495Y-65986100D01*
X128810000Y-65273605D01*
X128097505Y-65986100D01*
X125158797Y-65986100D01*
X125266180Y-65878717D01*
X125400898Y-65677097D01*
X125493693Y-65453069D01*
X125541000Y-65215243D01*
X125541000Y-64972757D01*
X125493693Y-64734931D01*
X125400898Y-64510903D01*
X125266180Y-64309283D01*
X125186897Y-64230000D01*
X127925548Y-64230000D01*
X127845970Y-64309578D01*
X127917898Y-64381506D01*
X127739922Y-64473523D01*
X127639434Y-64694207D01*
X127583931Y-64930255D01*
X127575544Y-65172596D01*
X127614598Y-65411917D01*
X127699589Y-65639020D01*
X127739922Y-65714477D01*
X127917900Y-65806495D01*
X128630395Y-65094000D01*
X128616253Y-65079858D01*
X128795858Y-64900253D01*
X128810000Y-64914395D01*
X128824143Y-64900253D01*
X129003748Y-65079858D01*
X128989605Y-65094000D01*
X129702100Y-65806495D01*
X129880078Y-65714477D01*
X129980566Y-65493793D01*
X130036069Y-65257745D01*
X130044456Y-65015404D01*
X130005402Y-64776083D01*
X129920411Y-64548980D01*
X129880078Y-64473523D01*
X129702102Y-64381506D01*
X129774030Y-64309578D01*
X129694452Y-64230000D01*
X136133103Y-64230000D01*
X136053820Y-64309283D01*
X135919102Y-64510903D01*
X135826307Y-64734931D01*
X135779000Y-64972757D01*
X135779000Y-65215243D01*
X135826307Y-65453069D01*
X135919102Y-65677097D01*
X136053820Y-65878717D01*
X136225283Y-66050180D01*
X136426903Y-66184898D01*
X136650931Y-66277693D01*
X136888757Y-66325000D01*
X137131243Y-66325000D01*
X137369069Y-66277693D01*
X137593097Y-66184898D01*
X137794717Y-66050180D01*
X137858797Y-65986100D01*
X140797505Y-65986100D01*
X140889523Y-66164078D01*
X141110207Y-66264566D01*
X141346255Y-66320069D01*
X141588596Y-66328456D01*
X141827917Y-66289402D01*
X142055020Y-66204411D01*
X142130477Y-66164078D01*
X142222495Y-65986100D01*
X141510000Y-65273605D01*
X140797505Y-65986100D01*
X137858797Y-65986100D01*
X137966180Y-65878717D01*
X138100898Y-65677097D01*
X138193693Y-65453069D01*
X138241000Y-65215243D01*
X138241000Y-64972757D01*
X138193693Y-64734931D01*
X138100898Y-64510903D01*
X137966180Y-64309283D01*
X137886897Y-64230000D01*
X140625548Y-64230000D01*
X140545970Y-64309578D01*
X140617898Y-64381506D01*
X140439922Y-64473523D01*
X140339434Y-64694207D01*
X140283931Y-64930255D01*
X140275544Y-65172596D01*
X140314598Y-65411917D01*
X140399589Y-65639020D01*
X140439922Y-65714477D01*
X140617900Y-65806495D01*
X141330395Y-65094000D01*
X141316253Y-65079858D01*
X141495858Y-64900253D01*
X141510000Y-64914395D01*
X141524143Y-64900253D01*
X141703748Y-65079858D01*
X141689605Y-65094000D01*
X142402100Y-65806495D01*
X142580078Y-65714477D01*
X142680566Y-65493793D01*
X142736069Y-65257745D01*
X142744456Y-65015404D01*
X142705402Y-64776083D01*
X142620411Y-64548980D01*
X142580078Y-64473523D01*
X142402102Y-64381506D01*
X142474030Y-64309578D01*
X142394452Y-64230000D01*
X143856000Y-64230000D01*
X143856000Y-66595549D01*
X143704083Y-66443632D01*
X143461517Y-66281555D01*
X143191992Y-66169914D01*
X142905866Y-66113000D01*
X142614134Y-66113000D01*
X142328008Y-66169914D01*
X142058483Y-66281555D01*
X141815917Y-66443632D01*
X141609632Y-66649917D01*
X141447555Y-66892483D01*
X141335914Y-67162008D01*
X141279000Y-67448134D01*
X141279000Y-67739866D01*
X141335914Y-68025992D01*
X141447555Y-68295517D01*
X141609632Y-68538083D01*
X141815917Y-68744368D01*
X142058483Y-68906445D01*
X142328008Y-69018086D01*
X142614134Y-69075000D01*
X142905866Y-69075000D01*
X143191992Y-69018086D01*
X143461517Y-68906445D01*
X143704083Y-68744368D01*
X143856000Y-68592451D01*
X143856001Y-82727136D01*
X143796518Y-83333790D01*
X143626102Y-83898235D01*
X143349298Y-84418827D01*
X142976653Y-84875735D01*
X142522349Y-85251568D01*
X142003704Y-85531998D01*
X141440467Y-85706349D01*
X140834956Y-85769990D01*
X140832145Y-85770000D01*
X140794080Y-85770000D01*
X141120174Y-85669435D01*
X141597220Y-85414450D01*
X141887839Y-85067444D01*
X140000000Y-83179605D01*
X138112161Y-85067444D01*
X138402780Y-85414450D01*
X138904506Y-85679659D01*
X139207344Y-85770000D01*
X79638854Y-85770000D01*
X79032210Y-85710518D01*
X78467765Y-85540102D01*
X77947173Y-85263298D01*
X77490265Y-84890653D01*
X77114432Y-84436349D01*
X76834002Y-83917704D01*
X76720179Y-83550000D01*
X88800157Y-83550000D01*
X88807513Y-83624689D01*
X88829299Y-83696508D01*
X88864678Y-83762696D01*
X88912289Y-83820711D01*
X88970304Y-83868322D01*
X89036492Y-83903701D01*
X89108311Y-83925487D01*
X89183000Y-83932843D01*
X89810750Y-83931000D01*
X89906000Y-83835750D01*
X89906000Y-82827000D01*
X90160000Y-82827000D01*
X90160000Y-83835750D01*
X90255250Y-83931000D01*
X90883000Y-83932843D01*
X90957689Y-83925487D01*
X91029508Y-83903701D01*
X91095696Y-83868322D01*
X91153711Y-83820711D01*
X91201322Y-83762696D01*
X91236701Y-83696508D01*
X91258487Y-83624689D01*
X91265843Y-83550000D01*
X91264279Y-83016981D01*
X91383505Y-83016981D01*
X91468201Y-83242949D01*
X91595353Y-83448052D01*
X91760076Y-83624408D01*
X91956039Y-83765239D01*
X92175712Y-83865134D01*
X92256020Y-83889489D01*
X92446000Y-83828627D01*
X92446000Y-82827000D01*
X92700000Y-82827000D01*
X92700000Y-83828627D01*
X92889980Y-83889489D01*
X92970288Y-83865134D01*
X93189961Y-83765239D01*
X93385924Y-83624408D01*
X93550647Y-83448052D01*
X93677799Y-83242949D01*
X93762495Y-83016981D01*
X93923505Y-83016981D01*
X94008201Y-83242949D01*
X94135353Y-83448052D01*
X94300076Y-83624408D01*
X94496039Y-83765239D01*
X94715712Y-83865134D01*
X94796020Y-83889489D01*
X94986000Y-83828627D01*
X94986000Y-82827000D01*
X95240000Y-82827000D01*
X95240000Y-83828627D01*
X95429980Y-83889489D01*
X95510288Y-83865134D01*
X95729961Y-83765239D01*
X95925924Y-83624408D01*
X96090647Y-83448052D01*
X96217799Y-83242949D01*
X96302495Y-83016981D01*
X96463505Y-83016981D01*
X96548201Y-83242949D01*
X96675353Y-83448052D01*
X96840076Y-83624408D01*
X97036039Y-83765239D01*
X97255712Y-83865134D01*
X97336020Y-83889489D01*
X97526000Y-83828627D01*
X97526000Y-82827000D01*
X97780000Y-82827000D01*
X97780000Y-83828627D01*
X97969980Y-83889489D01*
X98050288Y-83865134D01*
X98269961Y-83765239D01*
X98465924Y-83624408D01*
X98630647Y-83448052D01*
X98757799Y-83242949D01*
X98842495Y-83016981D01*
X99003505Y-83016981D01*
X99088201Y-83242949D01*
X99215353Y-83448052D01*
X99380076Y-83624408D01*
X99576039Y-83765239D01*
X99795712Y-83865134D01*
X99876020Y-83889489D01*
X100066000Y-83828627D01*
X100066000Y-82827000D01*
X100320000Y-82827000D01*
X100320000Y-83828627D01*
X100509980Y-83889489D01*
X100590288Y-83865134D01*
X100809961Y-83765239D01*
X101005924Y-83624408D01*
X101170647Y-83448052D01*
X101297799Y-83242949D01*
X101382495Y-83016981D01*
X101322187Y-82827000D01*
X100320000Y-82827000D01*
X100066000Y-82827000D01*
X99063813Y-82827000D01*
X99003505Y-83016981D01*
X98842495Y-83016981D01*
X98782187Y-82827000D01*
X97780000Y-82827000D01*
X97526000Y-82827000D01*
X96523813Y-82827000D01*
X96463505Y-83016981D01*
X96302495Y-83016981D01*
X96242187Y-82827000D01*
X95240000Y-82827000D01*
X94986000Y-82827000D01*
X93983813Y-82827000D01*
X93923505Y-83016981D01*
X93762495Y-83016981D01*
X93702187Y-82827000D01*
X92700000Y-82827000D01*
X92446000Y-82827000D01*
X91443813Y-82827000D01*
X91383505Y-83016981D01*
X91264279Y-83016981D01*
X91264000Y-82922250D01*
X91168750Y-82827000D01*
X90160000Y-82827000D01*
X89906000Y-82827000D01*
X88897250Y-82827000D01*
X88802000Y-82922250D01*
X88800157Y-83550000D01*
X76720179Y-83550000D01*
X76659651Y-83354467D01*
X76596010Y-82748956D01*
X76596000Y-82746145D01*
X76596000Y-82578757D01*
X101502000Y-82578757D01*
X101502000Y-82821243D01*
X101549307Y-83059069D01*
X101642102Y-83283097D01*
X101776820Y-83484717D01*
X101948283Y-83656180D01*
X102149903Y-83790898D01*
X102373931Y-83883693D01*
X102611757Y-83931000D01*
X102854243Y-83931000D01*
X103092069Y-83883693D01*
X103316097Y-83790898D01*
X103517717Y-83656180D01*
X103689180Y-83484717D01*
X103823898Y-83283097D01*
X103916693Y-83059069D01*
X103925785Y-83013357D01*
X137105091Y-83013357D01*
X137163322Y-83577869D01*
X137330565Y-84120174D01*
X137585550Y-84597220D01*
X137932556Y-84887839D01*
X139820395Y-83000000D01*
X140179605Y-83000000D01*
X142067444Y-84887839D01*
X142414450Y-84597220D01*
X142679659Y-84095494D01*
X142841890Y-83551668D01*
X142894909Y-82986643D01*
X142836678Y-82422131D01*
X142669435Y-81879826D01*
X142414450Y-81402780D01*
X142067444Y-81112161D01*
X140179605Y-83000000D01*
X139820395Y-83000000D01*
X137932556Y-81112161D01*
X137585550Y-81402780D01*
X137320341Y-81904506D01*
X137158110Y-82448332D01*
X137105091Y-83013357D01*
X103925785Y-83013357D01*
X103964000Y-82821243D01*
X103964000Y-82578757D01*
X103916693Y-82340931D01*
X103823898Y-82116903D01*
X103689180Y-81915283D01*
X103517717Y-81743820D01*
X103316097Y-81609102D01*
X103092069Y-81516307D01*
X102854243Y-81469000D01*
X102611757Y-81469000D01*
X102373931Y-81516307D01*
X102149903Y-81609102D01*
X101948283Y-81743820D01*
X101776820Y-81915283D01*
X101642102Y-82116903D01*
X101549307Y-82340931D01*
X101502000Y-82578757D01*
X76596000Y-82578757D01*
X76596000Y-81850000D01*
X88800157Y-81850000D01*
X88802000Y-82477750D01*
X88897250Y-82573000D01*
X89906000Y-82573000D01*
X89906000Y-81564250D01*
X90160000Y-81564250D01*
X90160000Y-82573000D01*
X91168750Y-82573000D01*
X91264000Y-82477750D01*
X91264278Y-82383019D01*
X91383505Y-82383019D01*
X91443813Y-82573000D01*
X92446000Y-82573000D01*
X92446000Y-81571373D01*
X92700000Y-81571373D01*
X92700000Y-82573000D01*
X93702187Y-82573000D01*
X93762495Y-82383019D01*
X93923505Y-82383019D01*
X93983813Y-82573000D01*
X94986000Y-82573000D01*
X94986000Y-81571373D01*
X95240000Y-81571373D01*
X95240000Y-82573000D01*
X96242187Y-82573000D01*
X96302495Y-82383019D01*
X96463505Y-82383019D01*
X96523813Y-82573000D01*
X97526000Y-82573000D01*
X97526000Y-81571373D01*
X97780000Y-81571373D01*
X97780000Y-82573000D01*
X98782187Y-82573000D01*
X98842495Y-82383019D01*
X99003505Y-82383019D01*
X99063813Y-82573000D01*
X100066000Y-82573000D01*
X100066000Y-81571373D01*
X100320000Y-81571373D01*
X100320000Y-82573000D01*
X101322187Y-82573000D01*
X101382495Y-82383019D01*
X101297799Y-82157051D01*
X101170647Y-81951948D01*
X101005924Y-81775592D01*
X100809961Y-81634761D01*
X100590288Y-81534866D01*
X100509980Y-81510511D01*
X100320000Y-81571373D01*
X100066000Y-81571373D01*
X99876020Y-81510511D01*
X99795712Y-81534866D01*
X99576039Y-81634761D01*
X99380076Y-81775592D01*
X99215353Y-81951948D01*
X99088201Y-82157051D01*
X99003505Y-82383019D01*
X98842495Y-82383019D01*
X98757799Y-82157051D01*
X98630647Y-81951948D01*
X98465924Y-81775592D01*
X98269961Y-81634761D01*
X98050288Y-81534866D01*
X97969980Y-81510511D01*
X97780000Y-81571373D01*
X97526000Y-81571373D01*
X97336020Y-81510511D01*
X97255712Y-81534866D01*
X97036039Y-81634761D01*
X96840076Y-81775592D01*
X96675353Y-81951948D01*
X96548201Y-82157051D01*
X96463505Y-82383019D01*
X96302495Y-82383019D01*
X96217799Y-82157051D01*
X96090647Y-81951948D01*
X95925924Y-81775592D01*
X95729961Y-81634761D01*
X95510288Y-81534866D01*
X95429980Y-81510511D01*
X95240000Y-81571373D01*
X94986000Y-81571373D01*
X94796020Y-81510511D01*
X94715712Y-81534866D01*
X94496039Y-81634761D01*
X94300076Y-81775592D01*
X94135353Y-81951948D01*
X94008201Y-82157051D01*
X93923505Y-82383019D01*
X93762495Y-82383019D01*
X93677799Y-82157051D01*
X93550647Y-81951948D01*
X93385924Y-81775592D01*
X93189961Y-81634761D01*
X92970288Y-81534866D01*
X92889980Y-81510511D01*
X92700000Y-81571373D01*
X92446000Y-81571373D01*
X92256020Y-81510511D01*
X92175712Y-81534866D01*
X91956039Y-81634761D01*
X91760076Y-81775592D01*
X91595353Y-81951948D01*
X91468201Y-82157051D01*
X91383505Y-82383019D01*
X91264278Y-82383019D01*
X91265843Y-81850000D01*
X91258487Y-81775311D01*
X91236701Y-81703492D01*
X91201322Y-81637304D01*
X91153711Y-81579289D01*
X91095696Y-81531678D01*
X91029508Y-81496299D01*
X90957689Y-81474513D01*
X90883000Y-81467157D01*
X90255250Y-81469000D01*
X90160000Y-81564250D01*
X89906000Y-81564250D01*
X89810750Y-81469000D01*
X89183000Y-81467157D01*
X89108311Y-81474513D01*
X89036492Y-81496299D01*
X88970304Y-81531678D01*
X88912289Y-81579289D01*
X88864678Y-81637304D01*
X88829299Y-81703492D01*
X88807513Y-81775311D01*
X88800157Y-81850000D01*
X76596000Y-81850000D01*
X76596000Y-80038757D01*
X88802000Y-80038757D01*
X88802000Y-80281243D01*
X88849307Y-80519069D01*
X88942102Y-80743097D01*
X89076820Y-80944717D01*
X89248283Y-81116180D01*
X89449903Y-81250898D01*
X89673931Y-81343693D01*
X89911757Y-81391000D01*
X90154243Y-81391000D01*
X90392069Y-81343693D01*
X90616097Y-81250898D01*
X90817717Y-81116180D01*
X90989180Y-80944717D01*
X91123898Y-80743097D01*
X91216693Y-80519069D01*
X91264000Y-80281243D01*
X91264000Y-80038757D01*
X91342000Y-80038757D01*
X91342000Y-80281243D01*
X91389307Y-80519069D01*
X91482102Y-80743097D01*
X91616820Y-80944717D01*
X91788283Y-81116180D01*
X91989903Y-81250898D01*
X92213931Y-81343693D01*
X92451757Y-81391000D01*
X92694243Y-81391000D01*
X92932069Y-81343693D01*
X93156097Y-81250898D01*
X93357717Y-81116180D01*
X93529180Y-80944717D01*
X93663898Y-80743097D01*
X93756693Y-80519069D01*
X93804000Y-80281243D01*
X93804000Y-80038757D01*
X93756693Y-79800931D01*
X93663898Y-79576903D01*
X93529180Y-79375283D01*
X93357717Y-79203820D01*
X93156097Y-79069102D01*
X92932069Y-78976307D01*
X92694243Y-78929000D01*
X92451757Y-78929000D01*
X92213931Y-78976307D01*
X91989903Y-79069102D01*
X91788283Y-79203820D01*
X91616820Y-79375283D01*
X91482102Y-79576903D01*
X91389307Y-79800931D01*
X91342000Y-80038757D01*
X91264000Y-80038757D01*
X91216693Y-79800931D01*
X91123898Y-79576903D01*
X90989180Y-79375283D01*
X90817717Y-79203820D01*
X90616097Y-79069102D01*
X90392069Y-78976307D01*
X90154243Y-78929000D01*
X89911757Y-78929000D01*
X89673931Y-78976307D01*
X89449903Y-79069102D01*
X89248283Y-79203820D01*
X89076820Y-79375283D01*
X88942102Y-79576903D01*
X88849307Y-79800931D01*
X88802000Y-80038757D01*
X76596000Y-80038757D01*
X76596000Y-77067444D01*
X78112161Y-77067444D01*
X78402780Y-77414450D01*
X78904506Y-77679659D01*
X79448332Y-77841890D01*
X80013357Y-77894909D01*
X80577869Y-77836678D01*
X81120174Y-77669435D01*
X81597220Y-77414450D01*
X81887839Y-77067444D01*
X80000000Y-75179605D01*
X78112161Y-77067444D01*
X76596000Y-77067444D01*
X76596000Y-75013357D01*
X77105091Y-75013357D01*
X77163322Y-75577869D01*
X77330565Y-76120174D01*
X77585550Y-76597220D01*
X77932556Y-76887839D01*
X79820395Y-75000000D01*
X80179605Y-75000000D01*
X82067444Y-76887839D01*
X82414450Y-76597220D01*
X82679659Y-76095494D01*
X82841890Y-75551668D01*
X82894909Y-74986643D01*
X82836678Y-74422131D01*
X82669435Y-73879826D01*
X82414450Y-73402780D01*
X82067444Y-73112161D01*
X80179605Y-75000000D01*
X79820395Y-75000000D01*
X77932556Y-73112161D01*
X77585550Y-73402780D01*
X77320341Y-73904506D01*
X77158110Y-74448332D01*
X77105091Y-75013357D01*
X76596000Y-75013357D01*
X76596000Y-72932556D01*
X78112161Y-72932556D01*
X80000000Y-74820395D01*
X81887839Y-72932556D01*
X81597220Y-72585550D01*
X81095494Y-72320341D01*
X80551668Y-72158110D01*
X79986643Y-72105091D01*
X79422131Y-72163322D01*
X78879826Y-72330565D01*
X78402780Y-72585550D01*
X78112161Y-72932556D01*
X76596000Y-72932556D01*
X76596000Y-67595000D01*
X92737157Y-67595000D01*
X92744513Y-67669689D01*
X92766299Y-67741508D01*
X92801678Y-67807696D01*
X92849289Y-67865711D01*
X92907304Y-67913322D01*
X92973492Y-67948701D01*
X93045311Y-67970487D01*
X93120000Y-67977843D01*
X93747750Y-67976000D01*
X93843000Y-67880750D01*
X93843000Y-66872000D01*
X94097000Y-66872000D01*
X94097000Y-67880750D01*
X94192250Y-67976000D01*
X94820000Y-67977843D01*
X94894689Y-67970487D01*
X94966508Y-67948701D01*
X95032696Y-67913322D01*
X95090711Y-67865711D01*
X95138322Y-67807696D01*
X95173701Y-67741508D01*
X95195487Y-67669689D01*
X95202843Y-67595000D01*
X95201000Y-66967250D01*
X95105750Y-66872000D01*
X94097000Y-66872000D01*
X93843000Y-66872000D01*
X92834250Y-66872000D01*
X92739000Y-66967250D01*
X92737157Y-67595000D01*
X76596000Y-67595000D01*
X76596000Y-66623757D01*
X95279000Y-66623757D01*
X95279000Y-66866243D01*
X95326307Y-67104069D01*
X95419102Y-67328097D01*
X95553820Y-67529717D01*
X95725283Y-67701180D01*
X95926903Y-67835898D01*
X96150931Y-67928693D01*
X96388757Y-67976000D01*
X96631243Y-67976000D01*
X96869069Y-67928693D01*
X97093097Y-67835898D01*
X97294717Y-67701180D01*
X97400897Y-67595000D01*
X101627157Y-67595000D01*
X101634513Y-67669689D01*
X101656299Y-67741508D01*
X101691678Y-67807696D01*
X101739289Y-67865711D01*
X101797304Y-67913322D01*
X101863492Y-67948701D01*
X101935311Y-67970487D01*
X102010000Y-67977843D01*
X102637750Y-67976000D01*
X102733000Y-67880750D01*
X102733000Y-66872000D01*
X102987000Y-66872000D01*
X102987000Y-67880750D01*
X103082250Y-67976000D01*
X103710000Y-67977843D01*
X103784689Y-67970487D01*
X103856508Y-67948701D01*
X103922696Y-67913322D01*
X103980711Y-67865711D01*
X104028322Y-67807696D01*
X104063701Y-67741508D01*
X104085487Y-67669689D01*
X104092843Y-67595000D01*
X104091000Y-66967250D01*
X103995750Y-66872000D01*
X102987000Y-66872000D01*
X102733000Y-66872000D01*
X101724250Y-66872000D01*
X101629000Y-66967250D01*
X101627157Y-67595000D01*
X97400897Y-67595000D01*
X97466180Y-67529717D01*
X97600898Y-67328097D01*
X97693693Y-67104069D01*
X97741000Y-66866243D01*
X97741000Y-66623757D01*
X104169000Y-66623757D01*
X104169000Y-66866243D01*
X104216307Y-67104069D01*
X104309102Y-67328097D01*
X104443820Y-67529717D01*
X104615283Y-67701180D01*
X104816903Y-67835898D01*
X105040931Y-67928693D01*
X105278757Y-67976000D01*
X105521243Y-67976000D01*
X105759069Y-67928693D01*
X105983097Y-67835898D01*
X106184717Y-67701180D01*
X106356180Y-67529717D01*
X106410691Y-67448134D01*
X108879000Y-67448134D01*
X108879000Y-67739866D01*
X108935914Y-68025992D01*
X109047555Y-68295517D01*
X109209632Y-68538083D01*
X109415917Y-68744368D01*
X109658483Y-68906445D01*
X109928008Y-69018086D01*
X110214134Y-69075000D01*
X110505866Y-69075000D01*
X110791992Y-69018086D01*
X111061517Y-68906445D01*
X111304083Y-68744368D01*
X111510368Y-68538083D01*
X111672445Y-68295517D01*
X111784086Y-68025992D01*
X111841000Y-67739866D01*
X111841000Y-67448134D01*
X111784086Y-67162008D01*
X111672445Y-66892483D01*
X111510368Y-66649917D01*
X111304083Y-66443632D01*
X111061517Y-66281555D01*
X110791992Y-66169914D01*
X110505866Y-66113000D01*
X110214134Y-66113000D01*
X109928008Y-66169914D01*
X109658483Y-66281555D01*
X109415917Y-66443632D01*
X109209632Y-66649917D01*
X109047555Y-66892483D01*
X108935914Y-67162008D01*
X108879000Y-67448134D01*
X106410691Y-67448134D01*
X106490898Y-67328097D01*
X106583693Y-67104069D01*
X106631000Y-66866243D01*
X106631000Y-66623757D01*
X106583693Y-66385931D01*
X106490898Y-66161903D01*
X106356180Y-65960283D01*
X106184717Y-65788820D01*
X105983097Y-65654102D01*
X105759069Y-65561307D01*
X105521243Y-65514000D01*
X105278757Y-65514000D01*
X105040931Y-65561307D01*
X104816903Y-65654102D01*
X104615283Y-65788820D01*
X104443820Y-65960283D01*
X104309102Y-66161903D01*
X104216307Y-66385931D01*
X104169000Y-66623757D01*
X97741000Y-66623757D01*
X97693693Y-66385931D01*
X97600898Y-66161903D01*
X97466180Y-65960283D01*
X97400897Y-65895000D01*
X101627157Y-65895000D01*
X101629000Y-66522750D01*
X101724250Y-66618000D01*
X102733000Y-66618000D01*
X102733000Y-65609250D01*
X102987000Y-65609250D01*
X102987000Y-66618000D01*
X103995750Y-66618000D01*
X104091000Y-66522750D01*
X104092843Y-65895000D01*
X104085487Y-65820311D01*
X104063701Y-65748492D01*
X104028322Y-65682304D01*
X103980711Y-65624289D01*
X103922696Y-65576678D01*
X103856508Y-65541299D01*
X103784689Y-65519513D01*
X103710000Y-65512157D01*
X103082250Y-65514000D01*
X102987000Y-65609250D01*
X102733000Y-65609250D01*
X102637750Y-65514000D01*
X102010000Y-65512157D01*
X101935311Y-65519513D01*
X101863492Y-65541299D01*
X101797304Y-65576678D01*
X101739289Y-65624289D01*
X101691678Y-65682304D01*
X101656299Y-65748492D01*
X101634513Y-65820311D01*
X101627157Y-65895000D01*
X97400897Y-65895000D01*
X97294717Y-65788820D01*
X97093097Y-65654102D01*
X96869069Y-65561307D01*
X96631243Y-65514000D01*
X96388757Y-65514000D01*
X96150931Y-65561307D01*
X95926903Y-65654102D01*
X95725283Y-65788820D01*
X95553820Y-65960283D01*
X95419102Y-66161903D01*
X95326307Y-66385931D01*
X95279000Y-66623757D01*
X76596000Y-66623757D01*
X76596000Y-65895000D01*
X92737157Y-65895000D01*
X92739000Y-66522750D01*
X92834250Y-66618000D01*
X93843000Y-66618000D01*
X93843000Y-65609250D01*
X94097000Y-65609250D01*
X94097000Y-66618000D01*
X95105750Y-66618000D01*
X95201000Y-66522750D01*
X95202843Y-65895000D01*
X95195487Y-65820311D01*
X95173701Y-65748492D01*
X95138322Y-65682304D01*
X95090711Y-65624289D01*
X95032696Y-65576678D01*
X94966508Y-65541299D01*
X94894689Y-65519513D01*
X94820000Y-65512157D01*
X94192250Y-65514000D01*
X94097000Y-65609250D01*
X93843000Y-65609250D01*
X93747750Y-65514000D01*
X93120000Y-65512157D01*
X93045311Y-65519513D01*
X92973492Y-65541299D01*
X92907304Y-65576678D01*
X92849289Y-65624289D01*
X92801678Y-65682304D01*
X92766299Y-65748492D01*
X92744513Y-65820311D01*
X92737157Y-65895000D01*
X76596000Y-65895000D01*
X76596000Y-64382605D01*
X76630820Y-64434717D01*
X76802283Y-64606180D01*
X77003903Y-64740898D01*
X77227931Y-64833693D01*
X77465757Y-64881000D01*
X77708243Y-64881000D01*
X77946069Y-64833693D01*
X78170097Y-64740898D01*
X78371717Y-64606180D01*
X78543180Y-64434717D01*
X78677898Y-64233097D01*
X78770693Y-64009069D01*
X78818000Y-63771243D01*
X78818000Y-63528757D01*
X78896000Y-63528757D01*
X78896000Y-63771243D01*
X78943307Y-64009069D01*
X79036102Y-64233097D01*
X79170820Y-64434717D01*
X79342283Y-64606180D01*
X79543903Y-64740898D01*
X79767931Y-64833693D01*
X80005757Y-64881000D01*
X80248243Y-64881000D01*
X80486069Y-64833693D01*
X80710097Y-64740898D01*
X80911717Y-64606180D01*
X81083180Y-64434717D01*
X81217898Y-64233097D01*
X81310693Y-64009069D01*
X81319064Y-63966981D01*
X81477505Y-63966981D01*
X81562201Y-64192949D01*
X81689353Y-64398052D01*
X81854076Y-64574408D01*
X82050039Y-64715239D01*
X82269712Y-64815134D01*
X82350020Y-64839489D01*
X82540000Y-64778627D01*
X82540000Y-63777000D01*
X82794000Y-63777000D01*
X82794000Y-64778627D01*
X82983980Y-64839489D01*
X83064288Y-64815134D01*
X83283961Y-64715239D01*
X83479924Y-64574408D01*
X83644647Y-64398052D01*
X83771799Y-64192949D01*
X83856495Y-63966981D01*
X83796187Y-63777000D01*
X82794000Y-63777000D01*
X82540000Y-63777000D01*
X81537813Y-63777000D01*
X81477505Y-63966981D01*
X81319064Y-63966981D01*
X81358000Y-63771243D01*
X81358000Y-63528757D01*
X81319065Y-63333019D01*
X81477505Y-63333019D01*
X81537813Y-63523000D01*
X82540000Y-63523000D01*
X82540000Y-62521373D01*
X82794000Y-62521373D01*
X82794000Y-63523000D01*
X83796187Y-63523000D01*
X83856495Y-63333019D01*
X83771799Y-63107051D01*
X83644647Y-62901948D01*
X83479924Y-62725592D01*
X83283961Y-62584761D01*
X83064288Y-62484866D01*
X82983980Y-62460511D01*
X82794000Y-62521373D01*
X82540000Y-62521373D01*
X82350020Y-62460511D01*
X82269712Y-62484866D01*
X82050039Y-62584761D01*
X81854076Y-62725592D01*
X81689353Y-62901948D01*
X81562201Y-63107051D01*
X81477505Y-63333019D01*
X81319065Y-63333019D01*
X81310693Y-63290931D01*
X81217898Y-63066903D01*
X81083180Y-62865283D01*
X80911717Y-62693820D01*
X80710097Y-62559102D01*
X80486069Y-62466307D01*
X80248243Y-62419000D01*
X80005757Y-62419000D01*
X79767931Y-62466307D01*
X79543903Y-62559102D01*
X79342283Y-62693820D01*
X79170820Y-62865283D01*
X79036102Y-63066903D01*
X78943307Y-63290931D01*
X78896000Y-63528757D01*
X78818000Y-63528757D01*
X78770693Y-63290931D01*
X78677898Y-63066903D01*
X78543180Y-62865283D01*
X78371717Y-62693820D01*
X78170097Y-62559102D01*
X77946069Y-62466307D01*
X77708243Y-62419000D01*
X77465757Y-62419000D01*
X77227931Y-62466307D01*
X77003903Y-62559102D01*
X76802283Y-62693820D01*
X76630820Y-62865283D01*
X76596000Y-62917395D01*
X76596000Y-59992000D01*
X86198000Y-59992000D01*
X86198001Y-62444628D01*
%TA.AperFunction,Conductor*%
D20*
G36*
X86198001Y-62444628D02*
G01*
X86131689Y-62424513D01*
X86057000Y-62417157D01*
X84357000Y-62417157D01*
X84282311Y-62424513D01*
X84210492Y-62446299D01*
X84144304Y-62481678D01*
X84086289Y-62529289D01*
X84038678Y-62587304D01*
X84003299Y-62653492D01*
X83981513Y-62725311D01*
X83974157Y-62800000D01*
X83974157Y-64500000D01*
X83981513Y-64574689D01*
X84003299Y-64646508D01*
X84038678Y-64712696D01*
X84086289Y-64770711D01*
X84144304Y-64818322D01*
X84210492Y-64853701D01*
X84282311Y-64875487D01*
X84357000Y-64882843D01*
X86057000Y-64882843D01*
X86131689Y-64875487D01*
X86203508Y-64853701D01*
X86269696Y-64818322D01*
X86327711Y-64770711D01*
X86375322Y-64712696D01*
X86410701Y-64646508D01*
X86432487Y-64574689D01*
X86439843Y-64500000D01*
X86439843Y-64196615D01*
X86447879Y-64200910D01*
X86524410Y-64224125D01*
X86584059Y-64230000D01*
X86584060Y-64230000D01*
X86604000Y-64231964D01*
X86623941Y-64230000D01*
X110733103Y-64230000D01*
X110653820Y-64309283D01*
X110519102Y-64510903D01*
X110426307Y-64734931D01*
X110379000Y-64972757D01*
X110379000Y-65215243D01*
X110426307Y-65453069D01*
X110519102Y-65677097D01*
X110653820Y-65878717D01*
X110825283Y-66050180D01*
X111026903Y-66184898D01*
X111250931Y-66277693D01*
X111488757Y-66325000D01*
X111731243Y-66325000D01*
X111969069Y-66277693D01*
X111971167Y-66276824D01*
X112312001Y-66617659D01*
X112312000Y-70695342D01*
X111128343Y-71879000D01*
X101364540Y-71879000D01*
X101336000Y-71876189D01*
X101307460Y-71879000D01*
X101222104Y-71887407D01*
X101112585Y-71920629D01*
X101011652Y-71974579D01*
X100923183Y-72047183D01*
X100904990Y-72069352D01*
X94722356Y-78251987D01*
X94700184Y-78270183D01*
X94681991Y-78292352D01*
X94627579Y-78358653D01*
X94573629Y-78459586D01*
X94540407Y-78569105D01*
X94529189Y-78683000D01*
X94532001Y-78711550D01*
X94532001Y-79068233D01*
X94529903Y-79069102D01*
X94328283Y-79203820D01*
X94156820Y-79375283D01*
X94022102Y-79576903D01*
X93929307Y-79800931D01*
X93882000Y-80038757D01*
X93882000Y-80281243D01*
X93929307Y-80519069D01*
X94022102Y-80743097D01*
X94156820Y-80944717D01*
X94328283Y-81116180D01*
X94529903Y-81250898D01*
X94753931Y-81343693D01*
X94991757Y-81391000D01*
X95234243Y-81391000D01*
X95472069Y-81343693D01*
X95696097Y-81250898D01*
X95897717Y-81116180D01*
X96069180Y-80944717D01*
X96203898Y-80743097D01*
X96296693Y-80519069D01*
X96344000Y-80281243D01*
X96344000Y-80038757D01*
X96296693Y-79800931D01*
X96203898Y-79576903D01*
X96069180Y-79375283D01*
X95897717Y-79203820D01*
X95696097Y-79069102D01*
X95694000Y-79068233D01*
X95694000Y-78923657D01*
X101576658Y-73041000D01*
X111340460Y-73041000D01*
X111369000Y-73043811D01*
X111397540Y-73041000D01*
X111482896Y-73032593D01*
X111592415Y-72999371D01*
X111693348Y-72945421D01*
X111781817Y-72872817D01*
X111800017Y-72850640D01*
X113283646Y-71367012D01*
X113305817Y-71348817D01*
X113378421Y-71260348D01*
X113432371Y-71159415D01*
X113465593Y-71049896D01*
X113474000Y-70964540D01*
X113474000Y-70964538D01*
X113476811Y-70936001D01*
X113474000Y-70907464D01*
X113474000Y-67448134D01*
X115879000Y-67448134D01*
X115879000Y-67739866D01*
X115935914Y-68025992D01*
X116047555Y-68295517D01*
X116209632Y-68538083D01*
X116415917Y-68744368D01*
X116658483Y-68906445D01*
X116928008Y-69018086D01*
X117214134Y-69075000D01*
X117505866Y-69075000D01*
X117791992Y-69018086D01*
X118061517Y-68906445D01*
X118304083Y-68744368D01*
X118510368Y-68538083D01*
X118672445Y-68295517D01*
X118784086Y-68025992D01*
X118841000Y-67739866D01*
X118841000Y-67448134D01*
X118784086Y-67162008D01*
X118672445Y-66892483D01*
X118510368Y-66649917D01*
X118304083Y-66443632D01*
X118061517Y-66281555D01*
X117791992Y-66169914D01*
X117505866Y-66113000D01*
X117214134Y-66113000D01*
X116928008Y-66169914D01*
X116658483Y-66281555D01*
X116415917Y-66443632D01*
X116209632Y-66649917D01*
X116047555Y-66892483D01*
X115935914Y-67162008D01*
X115879000Y-67448134D01*
X113474000Y-67448134D01*
X113474000Y-66405539D01*
X113476811Y-66376999D01*
X113465593Y-66263104D01*
X113432371Y-66153585D01*
X113378421Y-66052652D01*
X113376392Y-66050180D01*
X113323804Y-65986100D01*
X115397505Y-65986100D01*
X115489523Y-66164078D01*
X115710207Y-66264566D01*
X115946255Y-66320069D01*
X116188596Y-66328456D01*
X116427917Y-66289402D01*
X116655020Y-66204411D01*
X116730477Y-66164078D01*
X116822495Y-65986100D01*
X116110000Y-65273605D01*
X115397505Y-65986100D01*
X113323804Y-65986100D01*
X113305817Y-65964183D01*
X113283645Y-65945987D01*
X112792824Y-65455167D01*
X112793693Y-65453069D01*
X112841000Y-65215243D01*
X112841000Y-64972757D01*
X112793693Y-64734931D01*
X112700898Y-64510903D01*
X112566180Y-64309283D01*
X112486897Y-64230000D01*
X115225548Y-64230000D01*
X115145970Y-64309578D01*
X115217898Y-64381506D01*
X115039922Y-64473523D01*
X114939434Y-64694207D01*
X114883931Y-64930255D01*
X114875544Y-65172596D01*
X114914598Y-65411917D01*
X114999589Y-65639020D01*
X115039922Y-65714477D01*
X115217900Y-65806495D01*
X115930395Y-65094000D01*
X115916253Y-65079858D01*
X116095858Y-64900253D01*
X116110000Y-64914395D01*
X116124143Y-64900253D01*
X116303748Y-65079858D01*
X116289605Y-65094000D01*
X117002100Y-65806495D01*
X117180078Y-65714477D01*
X117280566Y-65493793D01*
X117336069Y-65257745D01*
X117344456Y-65015404D01*
X117305402Y-64776083D01*
X117220411Y-64548980D01*
X117180078Y-64473523D01*
X117002102Y-64381506D01*
X117074030Y-64309578D01*
X116994452Y-64230000D01*
X123433103Y-64230000D01*
X123353820Y-64309283D01*
X123219102Y-64510903D01*
X123218233Y-64513000D01*
X122827540Y-64513000D01*
X122799000Y-64510189D01*
X122770460Y-64513000D01*
X122685104Y-64521407D01*
X122575585Y-64554629D01*
X122474652Y-64608579D01*
X122386183Y-64681183D01*
X122367987Y-64703355D01*
X119741356Y-67329987D01*
X119719184Y-67348183D01*
X119700991Y-67370352D01*
X119646579Y-67436653D01*
X119592629Y-67537586D01*
X119559407Y-67647105D01*
X119548189Y-67761000D01*
X119551001Y-67789550D01*
X119551000Y-71076342D01*
X115319343Y-75308000D01*
X100602540Y-75308000D01*
X100574000Y-75305189D01*
X100545460Y-75308000D01*
X100460104Y-75316407D01*
X100350585Y-75349629D01*
X100249652Y-75403579D01*
X100161183Y-75476183D01*
X100142990Y-75498352D01*
X97262356Y-78378987D01*
X97240184Y-78397183D01*
X97188972Y-78459586D01*
X97167579Y-78485653D01*
X97113629Y-78586586D01*
X97080407Y-78696105D01*
X97069189Y-78810000D01*
X97072001Y-78838549D01*
X97072001Y-79068233D01*
X97069903Y-79069102D01*
X96868283Y-79203820D01*
X96696820Y-79375283D01*
X96562102Y-79576903D01*
X96469307Y-79800931D01*
X96422000Y-80038757D01*
X96422000Y-80281243D01*
X96469307Y-80519069D01*
X96562102Y-80743097D01*
X96696820Y-80944717D01*
X96868283Y-81116180D01*
X97069903Y-81250898D01*
X97293931Y-81343693D01*
X97531757Y-81391000D01*
X97774243Y-81391000D01*
X98012069Y-81343693D01*
X98236097Y-81250898D01*
X98437717Y-81116180D01*
X98609180Y-80944717D01*
X98743898Y-80743097D01*
X98836693Y-80519069D01*
X98884000Y-80281243D01*
X98884000Y-80038757D01*
X98962000Y-80038757D01*
X98962000Y-80281243D01*
X99009307Y-80519069D01*
X99102102Y-80743097D01*
X99236820Y-80944717D01*
X99408283Y-81116180D01*
X99609903Y-81250898D01*
X99833931Y-81343693D01*
X100071757Y-81391000D01*
X100314243Y-81391000D01*
X100552069Y-81343693D01*
X100776097Y-81250898D01*
X100977717Y-81116180D01*
X101149180Y-80944717D01*
X101283898Y-80743097D01*
X101376693Y-80519069D01*
X101424000Y-80281243D01*
X101424000Y-80038757D01*
X101376693Y-79800931D01*
X101375824Y-79798833D01*
X101731403Y-79443255D01*
X101642102Y-79576903D01*
X101549307Y-79800931D01*
X101502000Y-80038757D01*
X101502000Y-80281243D01*
X101549307Y-80519069D01*
X101642102Y-80743097D01*
X101776820Y-80944717D01*
X101948283Y-81116180D01*
X102149903Y-81250898D01*
X102373931Y-81343693D01*
X102611757Y-81391000D01*
X102854243Y-81391000D01*
X103092069Y-81343693D01*
X103316097Y-81250898D01*
X103517717Y-81116180D01*
X103689180Y-80944717D01*
X103697305Y-80932556D01*
X138112161Y-80932556D01*
X140000000Y-82820395D01*
X141887839Y-80932556D01*
X141597220Y-80585550D01*
X141095494Y-80320341D01*
X140551668Y-80158110D01*
X139986643Y-80105091D01*
X139422131Y-80163322D01*
X138879826Y-80330565D01*
X138402780Y-80585550D01*
X138112161Y-80932556D01*
X103697305Y-80932556D01*
X103823898Y-80743097D01*
X103824767Y-80741000D01*
X123122260Y-80741000D01*
X123150800Y-80743811D01*
X123179340Y-80741000D01*
X123264696Y-80732593D01*
X123374215Y-80699371D01*
X123475148Y-80645421D01*
X123563617Y-80572817D01*
X123581817Y-80550640D01*
X125675730Y-78456728D01*
X125715440Y-78448829D01*
X125839374Y-78397494D01*
X125873039Y-78375000D01*
X125973351Y-78375000D01*
X126007016Y-78397494D01*
X126130950Y-78448829D01*
X126262517Y-78475000D01*
X126396663Y-78475000D01*
X126528230Y-78448829D01*
X126652164Y-78397494D01*
X126685829Y-78375000D01*
X126786167Y-78375000D01*
X126819832Y-78397494D01*
X126943766Y-78448829D01*
X127075333Y-78475000D01*
X127209479Y-78475000D01*
X127341046Y-78448829D01*
X127464980Y-78397494D01*
X127576518Y-78322967D01*
X127671373Y-78228112D01*
X127745900Y-78116574D01*
X127797235Y-77992640D01*
X127823406Y-77861073D01*
X127823406Y-77726927D01*
X127797235Y-77595360D01*
X127745900Y-77471426D01*
X127671373Y-77359888D01*
X127576518Y-77265033D01*
X127464980Y-77190506D01*
X127341046Y-77139171D01*
X127209479Y-77113000D01*
X127075333Y-77113000D01*
X126943766Y-77139171D01*
X126819832Y-77190506D01*
X126786167Y-77213000D01*
X126685829Y-77213000D01*
X126652164Y-77190506D01*
X126528230Y-77139171D01*
X126396663Y-77113000D01*
X126262517Y-77113000D01*
X126130950Y-77139171D01*
X126007016Y-77190506D01*
X125973351Y-77213000D01*
X125873039Y-77213000D01*
X125839374Y-77190506D01*
X125715440Y-77139171D01*
X125583873Y-77113000D01*
X125449727Y-77113000D01*
X125318160Y-77139171D01*
X125194226Y-77190506D01*
X125082688Y-77265033D01*
X124987833Y-77359888D01*
X124913306Y-77471426D01*
X124861971Y-77595360D01*
X124854072Y-77635070D01*
X122910143Y-79579000D01*
X103824767Y-79579000D01*
X103823898Y-79576903D01*
X103689180Y-79375283D01*
X103517717Y-79203820D01*
X103316097Y-79069102D01*
X103092069Y-78976307D01*
X102854243Y-78929000D01*
X102611757Y-78929000D01*
X102373931Y-78976307D01*
X102149903Y-79069102D01*
X102016255Y-79158403D01*
X102799658Y-78375000D01*
X121500460Y-78375000D01*
X121529000Y-78377811D01*
X121557540Y-78375000D01*
X121642896Y-78366593D01*
X121752415Y-78333371D01*
X121853348Y-78279421D01*
X121941817Y-78206817D01*
X121960017Y-78184640D01*
X128316824Y-71827834D01*
X128398058Y-71882113D01*
X128540191Y-71940987D01*
X128691078Y-71971000D01*
X128844922Y-71971000D01*
X128995809Y-71940987D01*
X129137942Y-71882113D01*
X129265859Y-71796642D01*
X129374642Y-71687859D01*
X129460113Y-71559942D01*
X129518987Y-71417809D01*
X129549000Y-71266922D01*
X129549000Y-71113078D01*
X129518987Y-70962191D01*
X129460113Y-70820058D01*
X129374642Y-70692141D01*
X129265859Y-70583358D01*
X129137942Y-70497887D01*
X128995809Y-70439013D01*
X128844922Y-70409000D01*
X128691078Y-70409000D01*
X128540191Y-70439013D01*
X128398058Y-70497887D01*
X128270141Y-70583358D01*
X128244499Y-70609000D01*
X128161536Y-70609000D01*
X128132999Y-70606189D01*
X128104462Y-70609000D01*
X128104460Y-70609000D01*
X128019104Y-70617407D01*
X127909585Y-70650629D01*
X127808652Y-70704579D01*
X127720183Y-70777183D01*
X127701987Y-70799355D01*
X121288343Y-77213000D01*
X102587536Y-77213000D01*
X102558999Y-77210189D01*
X102530462Y-77213000D01*
X102530460Y-77213000D01*
X102445104Y-77221407D01*
X102335585Y-77254629D01*
X102234652Y-77308579D01*
X102146183Y-77381183D01*
X102127990Y-77403352D01*
X100554167Y-78977176D01*
X100552069Y-78976307D01*
X100314243Y-78929000D01*
X100071757Y-78929000D01*
X99833931Y-78976307D01*
X99609903Y-79069102D01*
X99408283Y-79203820D01*
X99236820Y-79375283D01*
X99102102Y-79576903D01*
X99009307Y-79800931D01*
X98962000Y-80038757D01*
X98884000Y-80038757D01*
X98836693Y-79800931D01*
X98743898Y-79576903D01*
X98609180Y-79375283D01*
X98437717Y-79203820D01*
X98236097Y-79069102D01*
X98234000Y-79068233D01*
X98234000Y-79050657D01*
X100814658Y-76470000D01*
X115531460Y-76470000D01*
X115560000Y-76472811D01*
X115588540Y-76470000D01*
X115673896Y-76461593D01*
X115783415Y-76428371D01*
X115884348Y-76374421D01*
X115972817Y-76301817D01*
X115991017Y-76279640D01*
X120522646Y-71748012D01*
X120544817Y-71729817D01*
X120617421Y-71641348D01*
X120671371Y-71540415D01*
X120704593Y-71430896D01*
X120713000Y-71345540D01*
X120713000Y-71345538D01*
X120715811Y-71317001D01*
X120713000Y-71288464D01*
X120713000Y-68001657D01*
X121694791Y-67019866D01*
X121635914Y-67162008D01*
X121579000Y-67448134D01*
X121579000Y-67739866D01*
X121635914Y-68025992D01*
X121747555Y-68295517D01*
X121909632Y-68538083D01*
X122115917Y-68744368D01*
X122358483Y-68906445D01*
X122628008Y-69018086D01*
X122914134Y-69075000D01*
X123205866Y-69075000D01*
X123491992Y-69018086D01*
X123761517Y-68906445D01*
X124004083Y-68744368D01*
X124210368Y-68538083D01*
X124372445Y-68295517D01*
X124484086Y-68025992D01*
X124541000Y-67739866D01*
X124541000Y-67448134D01*
X128579000Y-67448134D01*
X128579000Y-67739866D01*
X128635914Y-68025992D01*
X128747555Y-68295517D01*
X128909632Y-68538083D01*
X129115917Y-68744368D01*
X129358483Y-68906445D01*
X129628008Y-69018086D01*
X129914134Y-69075000D01*
X130205866Y-69075000D01*
X130491992Y-69018086D01*
X130761517Y-68906445D01*
X131004083Y-68744368D01*
X131210368Y-68538083D01*
X131372445Y-68295517D01*
X131484086Y-68025992D01*
X131541000Y-67739866D01*
X131541000Y-67448134D01*
X134279000Y-67448134D01*
X134279000Y-67739866D01*
X134335914Y-68025992D01*
X134447555Y-68295517D01*
X134609632Y-68538083D01*
X134815917Y-68744368D01*
X135058483Y-68906445D01*
X135328008Y-69018086D01*
X135614134Y-69075000D01*
X135905866Y-69075000D01*
X136191992Y-69018086D01*
X136461517Y-68906445D01*
X136704083Y-68744368D01*
X136910368Y-68538083D01*
X137072445Y-68295517D01*
X137184086Y-68025992D01*
X137241000Y-67739866D01*
X137241000Y-67448134D01*
X137184086Y-67162008D01*
X137072445Y-66892483D01*
X136910368Y-66649917D01*
X136704083Y-66443632D01*
X136461517Y-66281555D01*
X136191992Y-66169914D01*
X135905866Y-66113000D01*
X135614134Y-66113000D01*
X135328008Y-66169914D01*
X135058483Y-66281555D01*
X134815917Y-66443632D01*
X134609632Y-66649917D01*
X134447555Y-66892483D01*
X134335914Y-67162008D01*
X134279000Y-67448134D01*
X131541000Y-67448134D01*
X131484086Y-67162008D01*
X131372445Y-66892483D01*
X131210368Y-66649917D01*
X131004083Y-66443632D01*
X130761517Y-66281555D01*
X130491992Y-66169914D01*
X130205866Y-66113000D01*
X129914134Y-66113000D01*
X129628008Y-66169914D01*
X129358483Y-66281555D01*
X129115917Y-66443632D01*
X128909632Y-66649917D01*
X128747555Y-66892483D01*
X128635914Y-67162008D01*
X128579000Y-67448134D01*
X124541000Y-67448134D01*
X124484086Y-67162008D01*
X124372445Y-66892483D01*
X124210368Y-66649917D01*
X124004083Y-66443632D01*
X123761517Y-66281555D01*
X123491992Y-66169914D01*
X123205866Y-66113000D01*
X122914134Y-66113000D01*
X122628008Y-66169914D01*
X122485867Y-66228791D01*
X123039658Y-65675000D01*
X123218233Y-65675000D01*
X123219102Y-65677097D01*
X123353820Y-65878717D01*
X123525283Y-66050180D01*
X123726903Y-66184898D01*
X123950931Y-66277693D01*
X124188757Y-66325000D01*
X124431243Y-66325000D01*
X124669069Y-66277693D01*
X124893097Y-66184898D01*
X125094717Y-66050180D01*
X125158797Y-65986100D01*
X128097505Y-65986100D01*
X128189523Y-66164078D01*
X128410207Y-66264566D01*
X128646255Y-66320069D01*
X128888596Y-66328456D01*
X129127917Y-66289402D01*
X129355020Y-66204411D01*
X129430477Y-66164078D01*
X129522495Y-65986100D01*
X128810000Y-65273605D01*
X128097505Y-65986100D01*
X125158797Y-65986100D01*
X125266180Y-65878717D01*
X125400898Y-65677097D01*
X125493693Y-65453069D01*
X125541000Y-65215243D01*
X125541000Y-64972757D01*
X125493693Y-64734931D01*
X125400898Y-64510903D01*
X125266180Y-64309283D01*
X125186897Y-64230000D01*
X127925548Y-64230000D01*
X127845970Y-64309578D01*
X127917898Y-64381506D01*
X127739922Y-64473523D01*
X127639434Y-64694207D01*
X127583931Y-64930255D01*
X127575544Y-65172596D01*
X127614598Y-65411917D01*
X127699589Y-65639020D01*
X127739922Y-65714477D01*
X127917900Y-65806495D01*
X128630395Y-65094000D01*
X128616253Y-65079858D01*
X128795858Y-64900253D01*
X128810000Y-64914395D01*
X128824143Y-64900253D01*
X129003748Y-65079858D01*
X128989605Y-65094000D01*
X129702100Y-65806495D01*
X129880078Y-65714477D01*
X129980566Y-65493793D01*
X130036069Y-65257745D01*
X130044456Y-65015404D01*
X130005402Y-64776083D01*
X129920411Y-64548980D01*
X129880078Y-64473523D01*
X129702102Y-64381506D01*
X129774030Y-64309578D01*
X129694452Y-64230000D01*
X136133103Y-64230000D01*
X136053820Y-64309283D01*
X135919102Y-64510903D01*
X135826307Y-64734931D01*
X135779000Y-64972757D01*
X135779000Y-65215243D01*
X135826307Y-65453069D01*
X135919102Y-65677097D01*
X136053820Y-65878717D01*
X136225283Y-66050180D01*
X136426903Y-66184898D01*
X136650931Y-66277693D01*
X136888757Y-66325000D01*
X137131243Y-66325000D01*
X137369069Y-66277693D01*
X137593097Y-66184898D01*
X137794717Y-66050180D01*
X137858797Y-65986100D01*
X140797505Y-65986100D01*
X140889523Y-66164078D01*
X141110207Y-66264566D01*
X141346255Y-66320069D01*
X141588596Y-66328456D01*
X141827917Y-66289402D01*
X142055020Y-66204411D01*
X142130477Y-66164078D01*
X142222495Y-65986100D01*
X141510000Y-65273605D01*
X140797505Y-65986100D01*
X137858797Y-65986100D01*
X137966180Y-65878717D01*
X138100898Y-65677097D01*
X138193693Y-65453069D01*
X138241000Y-65215243D01*
X138241000Y-64972757D01*
X138193693Y-64734931D01*
X138100898Y-64510903D01*
X137966180Y-64309283D01*
X137886897Y-64230000D01*
X140625548Y-64230000D01*
X140545970Y-64309578D01*
X140617898Y-64381506D01*
X140439922Y-64473523D01*
X140339434Y-64694207D01*
X140283931Y-64930255D01*
X140275544Y-65172596D01*
X140314598Y-65411917D01*
X140399589Y-65639020D01*
X140439922Y-65714477D01*
X140617900Y-65806495D01*
X141330395Y-65094000D01*
X141316253Y-65079858D01*
X141495858Y-64900253D01*
X141510000Y-64914395D01*
X141524143Y-64900253D01*
X141703748Y-65079858D01*
X141689605Y-65094000D01*
X142402100Y-65806495D01*
X142580078Y-65714477D01*
X142680566Y-65493793D01*
X142736069Y-65257745D01*
X142744456Y-65015404D01*
X142705402Y-64776083D01*
X142620411Y-64548980D01*
X142580078Y-64473523D01*
X142402102Y-64381506D01*
X142474030Y-64309578D01*
X142394452Y-64230000D01*
X143856000Y-64230000D01*
X143856000Y-66595549D01*
X143704083Y-66443632D01*
X143461517Y-66281555D01*
X143191992Y-66169914D01*
X142905866Y-66113000D01*
X142614134Y-66113000D01*
X142328008Y-66169914D01*
X142058483Y-66281555D01*
X141815917Y-66443632D01*
X141609632Y-66649917D01*
X141447555Y-66892483D01*
X141335914Y-67162008D01*
X141279000Y-67448134D01*
X141279000Y-67739866D01*
X141335914Y-68025992D01*
X141447555Y-68295517D01*
X141609632Y-68538083D01*
X141815917Y-68744368D01*
X142058483Y-68906445D01*
X142328008Y-69018086D01*
X142614134Y-69075000D01*
X142905866Y-69075000D01*
X143191992Y-69018086D01*
X143461517Y-68906445D01*
X143704083Y-68744368D01*
X143856000Y-68592451D01*
X143856001Y-82727136D01*
X143796518Y-83333790D01*
X143626102Y-83898235D01*
X143349298Y-84418827D01*
X142976653Y-84875735D01*
X142522349Y-85251568D01*
X142003704Y-85531998D01*
X141440467Y-85706349D01*
X140834956Y-85769990D01*
X140832145Y-85770000D01*
X140794080Y-85770000D01*
X141120174Y-85669435D01*
X141597220Y-85414450D01*
X141887839Y-85067444D01*
X140000000Y-83179605D01*
X138112161Y-85067444D01*
X138402780Y-85414450D01*
X138904506Y-85679659D01*
X139207344Y-85770000D01*
X79638854Y-85770000D01*
X79032210Y-85710518D01*
X78467765Y-85540102D01*
X77947173Y-85263298D01*
X77490265Y-84890653D01*
X77114432Y-84436349D01*
X76834002Y-83917704D01*
X76720179Y-83550000D01*
X88800157Y-83550000D01*
X88807513Y-83624689D01*
X88829299Y-83696508D01*
X88864678Y-83762696D01*
X88912289Y-83820711D01*
X88970304Y-83868322D01*
X89036492Y-83903701D01*
X89108311Y-83925487D01*
X89183000Y-83932843D01*
X89810750Y-83931000D01*
X89906000Y-83835750D01*
X89906000Y-82827000D01*
X90160000Y-82827000D01*
X90160000Y-83835750D01*
X90255250Y-83931000D01*
X90883000Y-83932843D01*
X90957689Y-83925487D01*
X91029508Y-83903701D01*
X91095696Y-83868322D01*
X91153711Y-83820711D01*
X91201322Y-83762696D01*
X91236701Y-83696508D01*
X91258487Y-83624689D01*
X91265843Y-83550000D01*
X91264279Y-83016981D01*
X91383505Y-83016981D01*
X91468201Y-83242949D01*
X91595353Y-83448052D01*
X91760076Y-83624408D01*
X91956039Y-83765239D01*
X92175712Y-83865134D01*
X92256020Y-83889489D01*
X92446000Y-83828627D01*
X92446000Y-82827000D01*
X92700000Y-82827000D01*
X92700000Y-83828627D01*
X92889980Y-83889489D01*
X92970288Y-83865134D01*
X93189961Y-83765239D01*
X93385924Y-83624408D01*
X93550647Y-83448052D01*
X93677799Y-83242949D01*
X93762495Y-83016981D01*
X93923505Y-83016981D01*
X94008201Y-83242949D01*
X94135353Y-83448052D01*
X94300076Y-83624408D01*
X94496039Y-83765239D01*
X94715712Y-83865134D01*
X94796020Y-83889489D01*
X94986000Y-83828627D01*
X94986000Y-82827000D01*
X95240000Y-82827000D01*
X95240000Y-83828627D01*
X95429980Y-83889489D01*
X95510288Y-83865134D01*
X95729961Y-83765239D01*
X95925924Y-83624408D01*
X96090647Y-83448052D01*
X96217799Y-83242949D01*
X96302495Y-83016981D01*
X96463505Y-83016981D01*
X96548201Y-83242949D01*
X96675353Y-83448052D01*
X96840076Y-83624408D01*
X97036039Y-83765239D01*
X97255712Y-83865134D01*
X97336020Y-83889489D01*
X97526000Y-83828627D01*
X97526000Y-82827000D01*
X97780000Y-82827000D01*
X97780000Y-83828627D01*
X97969980Y-83889489D01*
X98050288Y-83865134D01*
X98269961Y-83765239D01*
X98465924Y-83624408D01*
X98630647Y-83448052D01*
X98757799Y-83242949D01*
X98842495Y-83016981D01*
X99003505Y-83016981D01*
X99088201Y-83242949D01*
X99215353Y-83448052D01*
X99380076Y-83624408D01*
X99576039Y-83765239D01*
X99795712Y-83865134D01*
X99876020Y-83889489D01*
X100066000Y-83828627D01*
X100066000Y-82827000D01*
X100320000Y-82827000D01*
X100320000Y-83828627D01*
X100509980Y-83889489D01*
X100590288Y-83865134D01*
X100809961Y-83765239D01*
X101005924Y-83624408D01*
X101170647Y-83448052D01*
X101297799Y-83242949D01*
X101382495Y-83016981D01*
X101322187Y-82827000D01*
X100320000Y-82827000D01*
X100066000Y-82827000D01*
X99063813Y-82827000D01*
X99003505Y-83016981D01*
X98842495Y-83016981D01*
X98782187Y-82827000D01*
X97780000Y-82827000D01*
X97526000Y-82827000D01*
X96523813Y-82827000D01*
X96463505Y-83016981D01*
X96302495Y-83016981D01*
X96242187Y-82827000D01*
X95240000Y-82827000D01*
X94986000Y-82827000D01*
X93983813Y-82827000D01*
X93923505Y-83016981D01*
X93762495Y-83016981D01*
X93702187Y-82827000D01*
X92700000Y-82827000D01*
X92446000Y-82827000D01*
X91443813Y-82827000D01*
X91383505Y-83016981D01*
X91264279Y-83016981D01*
X91264000Y-82922250D01*
X91168750Y-82827000D01*
X90160000Y-82827000D01*
X89906000Y-82827000D01*
X88897250Y-82827000D01*
X88802000Y-82922250D01*
X88800157Y-83550000D01*
X76720179Y-83550000D01*
X76659651Y-83354467D01*
X76596010Y-82748956D01*
X76596000Y-82746145D01*
X76596000Y-82578757D01*
X101502000Y-82578757D01*
X101502000Y-82821243D01*
X101549307Y-83059069D01*
X101642102Y-83283097D01*
X101776820Y-83484717D01*
X101948283Y-83656180D01*
X102149903Y-83790898D01*
X102373931Y-83883693D01*
X102611757Y-83931000D01*
X102854243Y-83931000D01*
X103092069Y-83883693D01*
X103316097Y-83790898D01*
X103517717Y-83656180D01*
X103689180Y-83484717D01*
X103823898Y-83283097D01*
X103916693Y-83059069D01*
X103925785Y-83013357D01*
X137105091Y-83013357D01*
X137163322Y-83577869D01*
X137330565Y-84120174D01*
X137585550Y-84597220D01*
X137932556Y-84887839D01*
X139820395Y-83000000D01*
X140179605Y-83000000D01*
X142067444Y-84887839D01*
X142414450Y-84597220D01*
X142679659Y-84095494D01*
X142841890Y-83551668D01*
X142894909Y-82986643D01*
X142836678Y-82422131D01*
X142669435Y-81879826D01*
X142414450Y-81402780D01*
X142067444Y-81112161D01*
X140179605Y-83000000D01*
X139820395Y-83000000D01*
X137932556Y-81112161D01*
X137585550Y-81402780D01*
X137320341Y-81904506D01*
X137158110Y-82448332D01*
X137105091Y-83013357D01*
X103925785Y-83013357D01*
X103964000Y-82821243D01*
X103964000Y-82578757D01*
X103916693Y-82340931D01*
X103823898Y-82116903D01*
X103689180Y-81915283D01*
X103517717Y-81743820D01*
X103316097Y-81609102D01*
X103092069Y-81516307D01*
X102854243Y-81469000D01*
X102611757Y-81469000D01*
X102373931Y-81516307D01*
X102149903Y-81609102D01*
X101948283Y-81743820D01*
X101776820Y-81915283D01*
X101642102Y-82116903D01*
X101549307Y-82340931D01*
X101502000Y-82578757D01*
X76596000Y-82578757D01*
X76596000Y-81850000D01*
X88800157Y-81850000D01*
X88802000Y-82477750D01*
X88897250Y-82573000D01*
X89906000Y-82573000D01*
X89906000Y-81564250D01*
X90160000Y-81564250D01*
X90160000Y-82573000D01*
X91168750Y-82573000D01*
X91264000Y-82477750D01*
X91264278Y-82383019D01*
X91383505Y-82383019D01*
X91443813Y-82573000D01*
X92446000Y-82573000D01*
X92446000Y-81571373D01*
X92700000Y-81571373D01*
X92700000Y-82573000D01*
X93702187Y-82573000D01*
X93762495Y-82383019D01*
X93923505Y-82383019D01*
X93983813Y-82573000D01*
X94986000Y-82573000D01*
X94986000Y-81571373D01*
X95240000Y-81571373D01*
X95240000Y-82573000D01*
X96242187Y-82573000D01*
X96302495Y-82383019D01*
X96463505Y-82383019D01*
X96523813Y-82573000D01*
X97526000Y-82573000D01*
X97526000Y-81571373D01*
X97780000Y-81571373D01*
X97780000Y-82573000D01*
X98782187Y-82573000D01*
X98842495Y-82383019D01*
X99003505Y-82383019D01*
X99063813Y-82573000D01*
X100066000Y-82573000D01*
X100066000Y-81571373D01*
X100320000Y-81571373D01*
X100320000Y-82573000D01*
X101322187Y-82573000D01*
X101382495Y-82383019D01*
X101297799Y-82157051D01*
X101170647Y-81951948D01*
X101005924Y-81775592D01*
X100809961Y-81634761D01*
X100590288Y-81534866D01*
X100509980Y-81510511D01*
X100320000Y-81571373D01*
X100066000Y-81571373D01*
X99876020Y-81510511D01*
X99795712Y-81534866D01*
X99576039Y-81634761D01*
X99380076Y-81775592D01*
X99215353Y-81951948D01*
X99088201Y-82157051D01*
X99003505Y-82383019D01*
X98842495Y-82383019D01*
X98757799Y-82157051D01*
X98630647Y-81951948D01*
X98465924Y-81775592D01*
X98269961Y-81634761D01*
X98050288Y-81534866D01*
X97969980Y-81510511D01*
X97780000Y-81571373D01*
X97526000Y-81571373D01*
X97336020Y-81510511D01*
X97255712Y-81534866D01*
X97036039Y-81634761D01*
X96840076Y-81775592D01*
X96675353Y-81951948D01*
X96548201Y-82157051D01*
X96463505Y-82383019D01*
X96302495Y-82383019D01*
X96217799Y-82157051D01*
X96090647Y-81951948D01*
X95925924Y-81775592D01*
X95729961Y-81634761D01*
X95510288Y-81534866D01*
X95429980Y-81510511D01*
X95240000Y-81571373D01*
X94986000Y-81571373D01*
X94796020Y-81510511D01*
X94715712Y-81534866D01*
X94496039Y-81634761D01*
X94300076Y-81775592D01*
X94135353Y-81951948D01*
X94008201Y-82157051D01*
X93923505Y-82383019D01*
X93762495Y-82383019D01*
X93677799Y-82157051D01*
X93550647Y-81951948D01*
X93385924Y-81775592D01*
X93189961Y-81634761D01*
X92970288Y-81534866D01*
X92889980Y-81510511D01*
X92700000Y-81571373D01*
X92446000Y-81571373D01*
X92256020Y-81510511D01*
X92175712Y-81534866D01*
X91956039Y-81634761D01*
X91760076Y-81775592D01*
X91595353Y-81951948D01*
X91468201Y-82157051D01*
X91383505Y-82383019D01*
X91264278Y-82383019D01*
X91265843Y-81850000D01*
X91258487Y-81775311D01*
X91236701Y-81703492D01*
X91201322Y-81637304D01*
X91153711Y-81579289D01*
X91095696Y-81531678D01*
X91029508Y-81496299D01*
X90957689Y-81474513D01*
X90883000Y-81467157D01*
X90255250Y-81469000D01*
X90160000Y-81564250D01*
X89906000Y-81564250D01*
X89810750Y-81469000D01*
X89183000Y-81467157D01*
X89108311Y-81474513D01*
X89036492Y-81496299D01*
X88970304Y-81531678D01*
X88912289Y-81579289D01*
X88864678Y-81637304D01*
X88829299Y-81703492D01*
X88807513Y-81775311D01*
X88800157Y-81850000D01*
X76596000Y-81850000D01*
X76596000Y-80038757D01*
X88802000Y-80038757D01*
X88802000Y-80281243D01*
X88849307Y-80519069D01*
X88942102Y-80743097D01*
X89076820Y-80944717D01*
X89248283Y-81116180D01*
X89449903Y-81250898D01*
X89673931Y-81343693D01*
X89911757Y-81391000D01*
X90154243Y-81391000D01*
X90392069Y-81343693D01*
X90616097Y-81250898D01*
X90817717Y-81116180D01*
X90989180Y-80944717D01*
X91123898Y-80743097D01*
X91216693Y-80519069D01*
X91264000Y-80281243D01*
X91264000Y-80038757D01*
X91342000Y-80038757D01*
X91342000Y-80281243D01*
X91389307Y-80519069D01*
X91482102Y-80743097D01*
X91616820Y-80944717D01*
X91788283Y-81116180D01*
X91989903Y-81250898D01*
X92213931Y-81343693D01*
X92451757Y-81391000D01*
X92694243Y-81391000D01*
X92932069Y-81343693D01*
X93156097Y-81250898D01*
X93357717Y-81116180D01*
X93529180Y-80944717D01*
X93663898Y-80743097D01*
X93756693Y-80519069D01*
X93804000Y-80281243D01*
X93804000Y-80038757D01*
X93756693Y-79800931D01*
X93663898Y-79576903D01*
X93529180Y-79375283D01*
X93357717Y-79203820D01*
X93156097Y-79069102D01*
X92932069Y-78976307D01*
X92694243Y-78929000D01*
X92451757Y-78929000D01*
X92213931Y-78976307D01*
X91989903Y-79069102D01*
X91788283Y-79203820D01*
X91616820Y-79375283D01*
X91482102Y-79576903D01*
X91389307Y-79800931D01*
X91342000Y-80038757D01*
X91264000Y-80038757D01*
X91216693Y-79800931D01*
X91123898Y-79576903D01*
X90989180Y-79375283D01*
X90817717Y-79203820D01*
X90616097Y-79069102D01*
X90392069Y-78976307D01*
X90154243Y-78929000D01*
X89911757Y-78929000D01*
X89673931Y-78976307D01*
X89449903Y-79069102D01*
X89248283Y-79203820D01*
X89076820Y-79375283D01*
X88942102Y-79576903D01*
X88849307Y-79800931D01*
X88802000Y-80038757D01*
X76596000Y-80038757D01*
X76596000Y-77067444D01*
X78112161Y-77067444D01*
X78402780Y-77414450D01*
X78904506Y-77679659D01*
X79448332Y-77841890D01*
X80013357Y-77894909D01*
X80577869Y-77836678D01*
X81120174Y-77669435D01*
X81597220Y-77414450D01*
X81887839Y-77067444D01*
X80000000Y-75179605D01*
X78112161Y-77067444D01*
X76596000Y-77067444D01*
X76596000Y-75013357D01*
X77105091Y-75013357D01*
X77163322Y-75577869D01*
X77330565Y-76120174D01*
X77585550Y-76597220D01*
X77932556Y-76887839D01*
X79820395Y-75000000D01*
X80179605Y-75000000D01*
X82067444Y-76887839D01*
X82414450Y-76597220D01*
X82679659Y-76095494D01*
X82841890Y-75551668D01*
X82894909Y-74986643D01*
X82836678Y-74422131D01*
X82669435Y-73879826D01*
X82414450Y-73402780D01*
X82067444Y-73112161D01*
X80179605Y-75000000D01*
X79820395Y-75000000D01*
X77932556Y-73112161D01*
X77585550Y-73402780D01*
X77320341Y-73904506D01*
X77158110Y-74448332D01*
X77105091Y-75013357D01*
X76596000Y-75013357D01*
X76596000Y-72932556D01*
X78112161Y-72932556D01*
X80000000Y-74820395D01*
X81887839Y-72932556D01*
X81597220Y-72585550D01*
X81095494Y-72320341D01*
X80551668Y-72158110D01*
X79986643Y-72105091D01*
X79422131Y-72163322D01*
X78879826Y-72330565D01*
X78402780Y-72585550D01*
X78112161Y-72932556D01*
X76596000Y-72932556D01*
X76596000Y-67595000D01*
X92737157Y-67595000D01*
X92744513Y-67669689D01*
X92766299Y-67741508D01*
X92801678Y-67807696D01*
X92849289Y-67865711D01*
X92907304Y-67913322D01*
X92973492Y-67948701D01*
X93045311Y-67970487D01*
X93120000Y-67977843D01*
X93747750Y-67976000D01*
X93843000Y-67880750D01*
X93843000Y-66872000D01*
X94097000Y-66872000D01*
X94097000Y-67880750D01*
X94192250Y-67976000D01*
X94820000Y-67977843D01*
X94894689Y-67970487D01*
X94966508Y-67948701D01*
X95032696Y-67913322D01*
X95090711Y-67865711D01*
X95138322Y-67807696D01*
X95173701Y-67741508D01*
X95195487Y-67669689D01*
X95202843Y-67595000D01*
X95201000Y-66967250D01*
X95105750Y-66872000D01*
X94097000Y-66872000D01*
X93843000Y-66872000D01*
X92834250Y-66872000D01*
X92739000Y-66967250D01*
X92737157Y-67595000D01*
X76596000Y-67595000D01*
X76596000Y-66623757D01*
X95279000Y-66623757D01*
X95279000Y-66866243D01*
X95326307Y-67104069D01*
X95419102Y-67328097D01*
X95553820Y-67529717D01*
X95725283Y-67701180D01*
X95926903Y-67835898D01*
X96150931Y-67928693D01*
X96388757Y-67976000D01*
X96631243Y-67976000D01*
X96869069Y-67928693D01*
X97093097Y-67835898D01*
X97294717Y-67701180D01*
X97400897Y-67595000D01*
X101627157Y-67595000D01*
X101634513Y-67669689D01*
X101656299Y-67741508D01*
X101691678Y-67807696D01*
X101739289Y-67865711D01*
X101797304Y-67913322D01*
X101863492Y-67948701D01*
X101935311Y-67970487D01*
X102010000Y-67977843D01*
X102637750Y-67976000D01*
X102733000Y-67880750D01*
X102733000Y-66872000D01*
X102987000Y-66872000D01*
X102987000Y-67880750D01*
X103082250Y-67976000D01*
X103710000Y-67977843D01*
X103784689Y-67970487D01*
X103856508Y-67948701D01*
X103922696Y-67913322D01*
X103980711Y-67865711D01*
X104028322Y-67807696D01*
X104063701Y-67741508D01*
X104085487Y-67669689D01*
X104092843Y-67595000D01*
X104091000Y-66967250D01*
X103995750Y-66872000D01*
X102987000Y-66872000D01*
X102733000Y-66872000D01*
X101724250Y-66872000D01*
X101629000Y-66967250D01*
X101627157Y-67595000D01*
X97400897Y-67595000D01*
X97466180Y-67529717D01*
X97600898Y-67328097D01*
X97693693Y-67104069D01*
X97741000Y-66866243D01*
X97741000Y-66623757D01*
X104169000Y-66623757D01*
X104169000Y-66866243D01*
X104216307Y-67104069D01*
X104309102Y-67328097D01*
X104443820Y-67529717D01*
X104615283Y-67701180D01*
X104816903Y-67835898D01*
X105040931Y-67928693D01*
X105278757Y-67976000D01*
X105521243Y-67976000D01*
X105759069Y-67928693D01*
X105983097Y-67835898D01*
X106184717Y-67701180D01*
X106356180Y-67529717D01*
X106410691Y-67448134D01*
X108879000Y-67448134D01*
X108879000Y-67739866D01*
X108935914Y-68025992D01*
X109047555Y-68295517D01*
X109209632Y-68538083D01*
X109415917Y-68744368D01*
X109658483Y-68906445D01*
X109928008Y-69018086D01*
X110214134Y-69075000D01*
X110505866Y-69075000D01*
X110791992Y-69018086D01*
X111061517Y-68906445D01*
X111304083Y-68744368D01*
X111510368Y-68538083D01*
X111672445Y-68295517D01*
X111784086Y-68025992D01*
X111841000Y-67739866D01*
X111841000Y-67448134D01*
X111784086Y-67162008D01*
X111672445Y-66892483D01*
X111510368Y-66649917D01*
X111304083Y-66443632D01*
X111061517Y-66281555D01*
X110791992Y-66169914D01*
X110505866Y-66113000D01*
X110214134Y-66113000D01*
X109928008Y-66169914D01*
X109658483Y-66281555D01*
X109415917Y-66443632D01*
X109209632Y-66649917D01*
X109047555Y-66892483D01*
X108935914Y-67162008D01*
X108879000Y-67448134D01*
X106410691Y-67448134D01*
X106490898Y-67328097D01*
X106583693Y-67104069D01*
X106631000Y-66866243D01*
X106631000Y-66623757D01*
X106583693Y-66385931D01*
X106490898Y-66161903D01*
X106356180Y-65960283D01*
X106184717Y-65788820D01*
X105983097Y-65654102D01*
X105759069Y-65561307D01*
X105521243Y-65514000D01*
X105278757Y-65514000D01*
X105040931Y-65561307D01*
X104816903Y-65654102D01*
X104615283Y-65788820D01*
X104443820Y-65960283D01*
X104309102Y-66161903D01*
X104216307Y-66385931D01*
X104169000Y-66623757D01*
X97741000Y-66623757D01*
X97693693Y-66385931D01*
X97600898Y-66161903D01*
X97466180Y-65960283D01*
X97400897Y-65895000D01*
X101627157Y-65895000D01*
X101629000Y-66522750D01*
X101724250Y-66618000D01*
X102733000Y-66618000D01*
X102733000Y-65609250D01*
X102987000Y-65609250D01*
X102987000Y-66618000D01*
X103995750Y-66618000D01*
X104091000Y-66522750D01*
X104092843Y-65895000D01*
X104085487Y-65820311D01*
X104063701Y-65748492D01*
X104028322Y-65682304D01*
X103980711Y-65624289D01*
X103922696Y-65576678D01*
X103856508Y-65541299D01*
X103784689Y-65519513D01*
X103710000Y-65512157D01*
X103082250Y-65514000D01*
X102987000Y-65609250D01*
X102733000Y-65609250D01*
X102637750Y-65514000D01*
X102010000Y-65512157D01*
X101935311Y-65519513D01*
X101863492Y-65541299D01*
X101797304Y-65576678D01*
X101739289Y-65624289D01*
X101691678Y-65682304D01*
X101656299Y-65748492D01*
X101634513Y-65820311D01*
X101627157Y-65895000D01*
X97400897Y-65895000D01*
X97294717Y-65788820D01*
X97093097Y-65654102D01*
X96869069Y-65561307D01*
X96631243Y-65514000D01*
X96388757Y-65514000D01*
X96150931Y-65561307D01*
X95926903Y-65654102D01*
X95725283Y-65788820D01*
X95553820Y-65960283D01*
X95419102Y-66161903D01*
X95326307Y-66385931D01*
X95279000Y-66623757D01*
X76596000Y-66623757D01*
X76596000Y-65895000D01*
X92737157Y-65895000D01*
X92739000Y-66522750D01*
X92834250Y-66618000D01*
X93843000Y-66618000D01*
X93843000Y-65609250D01*
X94097000Y-65609250D01*
X94097000Y-66618000D01*
X95105750Y-66618000D01*
X95201000Y-66522750D01*
X95202843Y-65895000D01*
X95195487Y-65820311D01*
X95173701Y-65748492D01*
X95138322Y-65682304D01*
X95090711Y-65624289D01*
X95032696Y-65576678D01*
X94966508Y-65541299D01*
X94894689Y-65519513D01*
X94820000Y-65512157D01*
X94192250Y-65514000D01*
X94097000Y-65609250D01*
X93843000Y-65609250D01*
X93747750Y-65514000D01*
X93120000Y-65512157D01*
X93045311Y-65519513D01*
X92973492Y-65541299D01*
X92907304Y-65576678D01*
X92849289Y-65624289D01*
X92801678Y-65682304D01*
X92766299Y-65748492D01*
X92744513Y-65820311D01*
X92737157Y-65895000D01*
X76596000Y-65895000D01*
X76596000Y-64382605D01*
X76630820Y-64434717D01*
X76802283Y-64606180D01*
X77003903Y-64740898D01*
X77227931Y-64833693D01*
X77465757Y-64881000D01*
X77708243Y-64881000D01*
X77946069Y-64833693D01*
X78170097Y-64740898D01*
X78371717Y-64606180D01*
X78543180Y-64434717D01*
X78677898Y-64233097D01*
X78770693Y-64009069D01*
X78818000Y-63771243D01*
X78818000Y-63528757D01*
X78896000Y-63528757D01*
X78896000Y-63771243D01*
X78943307Y-64009069D01*
X79036102Y-64233097D01*
X79170820Y-64434717D01*
X79342283Y-64606180D01*
X79543903Y-64740898D01*
X79767931Y-64833693D01*
X80005757Y-64881000D01*
X80248243Y-64881000D01*
X80486069Y-64833693D01*
X80710097Y-64740898D01*
X80911717Y-64606180D01*
X81083180Y-64434717D01*
X81217898Y-64233097D01*
X81310693Y-64009069D01*
X81319064Y-63966981D01*
X81477505Y-63966981D01*
X81562201Y-64192949D01*
X81689353Y-64398052D01*
X81854076Y-64574408D01*
X82050039Y-64715239D01*
X82269712Y-64815134D01*
X82350020Y-64839489D01*
X82540000Y-64778627D01*
X82540000Y-63777000D01*
X82794000Y-63777000D01*
X82794000Y-64778627D01*
X82983980Y-64839489D01*
X83064288Y-64815134D01*
X83283961Y-64715239D01*
X83479924Y-64574408D01*
X83644647Y-64398052D01*
X83771799Y-64192949D01*
X83856495Y-63966981D01*
X83796187Y-63777000D01*
X82794000Y-63777000D01*
X82540000Y-63777000D01*
X81537813Y-63777000D01*
X81477505Y-63966981D01*
X81319064Y-63966981D01*
X81358000Y-63771243D01*
X81358000Y-63528757D01*
X81319065Y-63333019D01*
X81477505Y-63333019D01*
X81537813Y-63523000D01*
X82540000Y-63523000D01*
X82540000Y-62521373D01*
X82794000Y-62521373D01*
X82794000Y-63523000D01*
X83796187Y-63523000D01*
X83856495Y-63333019D01*
X83771799Y-63107051D01*
X83644647Y-62901948D01*
X83479924Y-62725592D01*
X83283961Y-62584761D01*
X83064288Y-62484866D01*
X82983980Y-62460511D01*
X82794000Y-62521373D01*
X82540000Y-62521373D01*
X82350020Y-62460511D01*
X82269712Y-62484866D01*
X82050039Y-62584761D01*
X81854076Y-62725592D01*
X81689353Y-62901948D01*
X81562201Y-63107051D01*
X81477505Y-63333019D01*
X81319065Y-63333019D01*
X81310693Y-63290931D01*
X81217898Y-63066903D01*
X81083180Y-62865283D01*
X80911717Y-62693820D01*
X80710097Y-62559102D01*
X80486069Y-62466307D01*
X80248243Y-62419000D01*
X80005757Y-62419000D01*
X79767931Y-62466307D01*
X79543903Y-62559102D01*
X79342283Y-62693820D01*
X79170820Y-62865283D01*
X79036102Y-63066903D01*
X78943307Y-63290931D01*
X78896000Y-63528757D01*
X78818000Y-63528757D01*
X78770693Y-63290931D01*
X78677898Y-63066903D01*
X78543180Y-62865283D01*
X78371717Y-62693820D01*
X78170097Y-62559102D01*
X77946069Y-62466307D01*
X77708243Y-62419000D01*
X77465757Y-62419000D01*
X77227931Y-62466307D01*
X77003903Y-62559102D01*
X76802283Y-62693820D01*
X76630820Y-62865283D01*
X76596000Y-62917395D01*
X76596000Y-59992000D01*
X86198000Y-59992000D01*
X86198001Y-62444628D01*
G37*
%TD.AperFunction*%
%TD*%
M02*
