  0
SECTION
  2
HEADER
  9
$ANGBASE
  50
0.0
  9
$ANGDIR
  70
1
  9
$MEASUREMENT
  70
1
  0
ENDSEC
  0
SECTION
  2
TABLES
  0
TABLE
  2
LTYPE
  70
4
  0
LTYPE
  5
40F
  2
CONTINUOUS
  70
0
  3
Solid line
  72
65
  73
0
  40
0.0
  0
LTYPE
  5
410
  2
DASHDOT
 70
0
  3
Dash Dot ____ _ ____ _
 72
65
 73
4
 40
2.0
 49
1.25
 49
-0.25
 49
0.25
 49
-0.25
  0
LTYPE
  5
411
  2
DASHED
 70
0
  3
Dashed __ __ __ __ __
 72
65
 73
2
 40
0.75
 49
0.5
 49
-0.25
  0
LTYPE
  5
43B
  2
DOTTED
 70
0
  3
Dotted .  .  .  .
 72
65
 73
2
 40
0.2
 49
0.0
 49
-0.2
  0
ENDTAB
  0
TABLE
  2
STYLE
  70
4
  0
STYLE
  2
KICAD
  70
0
  40
0
  41
1
  42
1
  50
0
  71
0
  3
isocp.shx
  0
STYLE
  2
KICADB
  70
0
  40
0
  41
1
  42
1
  50
0
  71
0
  3
isocp.shx
  0
STYLE
  2
KICADI
  70
0
  40
0
  41
1
  42
1
  50
15
  71
0
  3
isocp.shx
  0
STYLE
  2
KICADBI
  70
0
  40
0
  41
1
  42
1
  50
15
  71
0
  3
isocp.shx
  0
ENDTAB
  0
TABLE
  2
LAYER
  70
1
  0
LAYER
  2
BLACK
  70
0
  62
7
  6
CONTINUOUS
  0
ENDTAB
  0
ENDSEC
  0
SECTION
  2
ENTITIES
0
LINE
8
BLACK
6
CONTINUOUS
10
140.773
20
-80.4518
11
141.255
21
-80.6516
0
LINE
8
BLACK
6
CONTINUOUS
10
141.255
20
-80.6516
11
141.689
21
-80.9416
0
LINE
8
BLACK
6
CONTINUOUS
10
141.689
20
-80.9416
11
142.058
21
-81.3107
0
LINE
8
BLACK
6
CONTINUOUS
10
142.058
20
-81.3107
11
142.348
21
-81.7448
0
LINE
8
BLACK
6
CONTINUOUS
10
142.348
20
-81.7448
11
142.548
21
-82.227
0
LINE
8
BLACK
6
CONTINUOUS
10
142.548
20
-82.227
11
142.65
21
-82.739
0
LINE
8
BLACK
6
CONTINUOUS
10
142.65
20
-82.739
11
142.65
21
-83.261
0
LINE
8
BLACK
6
CONTINUOUS
10
142.65
20
-83.261
11
142.548
21
-83.773
0
LINE
8
BLACK
6
CONTINUOUS
10
142.548
20
-83.773
11
142.348
21
-84.2552
0
LINE
8
BLACK
6
CONTINUOUS
10
142.348
20
-84.2552
11
142.058
21
-84.6893
0
LINE
8
BLACK
6
CONTINUOUS
10
142.058
20
-84.6893
11
141.689
21
-85.0584
0
LINE
8
BLACK
6
CONTINUOUS
10
141.689
20
-85.0584
11
141.255
21
-85.3484
0
LINE
8
BLACK
6
CONTINUOUS
10
141.255
20
-85.3484
11
140.773
21
-85.5482
0
LINE
8
BLACK
6
CONTINUOUS
10
140.773
20
-85.5482
11
140.261
21
-85.65
0
LINE
8
BLACK
6
CONTINUOUS
10
140.261
20
-85.65
11
139.739
21
-85.65
0
LINE
8
BLACK
6
CONTINUOUS
10
139.739
20
-85.65
11
139.227
21
-85.5482
0
LINE
8
BLACK
6
CONTINUOUS
10
139.227
20
-85.5482
11
138.745
21
-85.3484
0
LINE
8
BLACK
6
CONTINUOUS
10
138.745
20
-85.3484
11
138.311
21
-85.0584
0
LINE
8
BLACK
6
CONTINUOUS
10
138.311
20
-85.0584
11
137.942
21
-84.6893
0
LINE
8
BLACK
6
CONTINUOUS
10
137.942
20
-84.6893
11
137.652
21
-84.2552
0
LINE
8
BLACK
6
CONTINUOUS
10
137.652
20
-84.2552
11
137.452
21
-83.773
0
LINE
8
BLACK
6
CONTINUOUS
10
137.452
20
-83.773
11
137.35
21
-83.261
0
LINE
8
BLACK
6
CONTINUOUS
10
137.35
20
-83.261
11
137.35
21
-82.739
0
LINE
8
BLACK
6
CONTINUOUS
10
137.35
20
-82.739
11
137.452
21
-82.227
0
LINE
8
BLACK
6
CONTINUOUS
10
137.452
20
-82.227
11
137.652
21
-81.7448
0
LINE
8
BLACK
6
CONTINUOUS
10
137.652
20
-81.7448
11
137.942
21
-81.3107
0
LINE
8
BLACK
6
CONTINUOUS
10
137.942
20
-81.3107
11
138.311
21
-80.9416
0
LINE
8
BLACK
6
CONTINUOUS
10
138.311
20
-80.9416
11
138.745
21
-80.6516
0
LINE
8
BLACK
6
CONTINUOUS
10
138.745
20
-80.6516
11
139.227
21
-80.4518
0
LINE
8
BLACK
6
CONTINUOUS
10
139.227
20
-80.4518
11
139.739
21
-80.35
0
LINE
8
BLACK
6
CONTINUOUS
10
139.739
20
-80.35
11
140.261
21
-80.35
0
LINE
8
BLACK
6
CONTINUOUS
10
140.261
20
-80.35
11
140.773
21
-80.4518
0
LINE
8
BLACK
6
CONTINUOUS
10
103.025
20
-81.7384
11
103.207
21
-81.8138
0
LINE
8
BLACK
6
CONTINUOUS
10
103.207
20
-81.8138
11
103.37
21
-81.9232
0
LINE
8
BLACK
6
CONTINUOUS
10
103.37
20
-81.9232
11
103.51
21
-82.0625
0
LINE
8
BLACK
6
CONTINUOUS
10
103.51
20
-82.0625
11
103.619
21
-82.2263
0
LINE
8
BLACK
6
CONTINUOUS
10
103.619
20
-82.2263
11
103.695
21
-82.4083
0
LINE
8
BLACK
6
CONTINUOUS
10
103.695
20
-82.4083
11
103.733
21
-82.6015
0
LINE
8
BLACK
6
CONTINUOUS
10
103.733
20
-82.6015
11
103.733
21
-82.7985
0
LINE
8
BLACK
6
CONTINUOUS
10
103.733
20
-82.7985
11
103.695
21
-82.9917
0
LINE
8
BLACK
6
CONTINUOUS
10
103.695
20
-82.9917
11
103.619
21
-83.1737
0
LINE
8
BLACK
6
CONTINUOUS
10
103.619
20
-83.1737
11
103.51
21
-83.3375
0
LINE
8
BLACK
6
CONTINUOUS
10
103.51
20
-83.3375
11
103.37
21
-83.4768
0
LINE
8
BLACK
6
CONTINUOUS
10
103.37
20
-83.4768
11
103.207
21
-83.5862
0
LINE
8
BLACK
6
CONTINUOUS
10
103.207
20
-83.5862
11
103.025
21
-83.6616
0
LINE
8
BLACK
6
CONTINUOUS
10
103.025
20
-83.6616
11
102.831
21
-83.7
0
LINE
8
BLACK
6
CONTINUOUS
10
102.831
20
-83.7
11
102.635
21
-83.7
0
LINE
8
BLACK
6
CONTINUOUS
10
102.635
20
-83.7
11
102.441
21
-83.6616
0
LINE
8
BLACK
6
CONTINUOUS
10
102.441
20
-83.6616
11
102.259
21
-83.5862
0
LINE
8
BLACK
6
CONTINUOUS
10
102.259
20
-83.5862
11
102.096
21
-83.4768
0
LINE
8
BLACK
6
CONTINUOUS
10
102.096
20
-83.4768
11
101.956
21
-83.3375
0
LINE
8
BLACK
6
CONTINUOUS
10
101.956
20
-83.3375
11
101.847
21
-83.1737
0
LINE
8
BLACK
6
CONTINUOUS
10
101.847
20
-83.1737
11
101.771
21
-82.9917
0
LINE
8
BLACK
6
CONTINUOUS
10
101.771
20
-82.9917
11
101.733
21
-82.7985
0
LINE
8
BLACK
6
CONTINUOUS
10
101.733
20
-82.7985
11
101.733
21
-82.6015
0
LINE
8
BLACK
6
CONTINUOUS
10
101.733
20
-82.6015
11
101.771
21
-82.4083
0
LINE
8
BLACK
6
CONTINUOUS
10
101.771
20
-82.4083
11
101.847
21
-82.2263
0
LINE
8
BLACK
6
CONTINUOUS
10
101.847
20
-82.2263
11
101.956
21
-82.0625
0
LINE
8
BLACK
6
CONTINUOUS
10
101.956
20
-82.0625
11
102.096
21
-81.9232
0
LINE
8
BLACK
6
CONTINUOUS
10
102.096
20
-81.9232
11
102.259
21
-81.8138
0
LINE
8
BLACK
6
CONTINUOUS
10
102.259
20
-81.8138
11
102.441
21
-81.7384
0
LINE
8
BLACK
6
CONTINUOUS
10
102.441
20
-81.7384
11
102.635
21
-81.7
0
LINE
8
BLACK
6
CONTINUOUS
10
102.635
20
-81.7
11
102.831
21
-81.7
0
LINE
8
BLACK
6
CONTINUOUS
10
102.831
20
-81.7
11
103.025
21
-81.7384
0
LINE
8
BLACK
6
CONTINUOUS
10
100.485
20
-81.7384
11
100.667
21
-81.8138
0
LINE
8
BLACK
6
CONTINUOUS
10
100.667
20
-81.8138
11
100.83
21
-81.9232
0
LINE
8
BLACK
6
CONTINUOUS
10
100.83
20
-81.9232
11
100.97
21
-82.0625
0
LINE
8
BLACK
6
CONTINUOUS
10
100.97
20
-82.0625
11
101.079
21
-82.2263
0
LINE
8
BLACK
6
CONTINUOUS
10
101.079
20
-82.2263
11
101.155
21
-82.4083
0
LINE
8
BLACK
6
CONTINUOUS
10
101.155
20
-82.4083
11
101.193
21
-82.6015
0
LINE
8
BLACK
6
CONTINUOUS
10
101.193
20
-82.6015
11
101.193
21
-82.7985
0
LINE
8
BLACK
6
CONTINUOUS
10
101.193
20
-82.7985
11
101.155
21
-82.9917
0
LINE
8
BLACK
6
CONTINUOUS
10
101.155
20
-82.9917
11
101.079
21
-83.1737
0
LINE
8
BLACK
6
CONTINUOUS
10
101.079
20
-83.1737
11
100.97
21
-83.3375
0
LINE
8
BLACK
6
CONTINUOUS
10
100.97
20
-83.3375
11
100.83
21
-83.4768
0
LINE
8
BLACK
6
CONTINUOUS
10
100.83
20
-83.4768
11
100.667
21
-83.5862
0
LINE
8
BLACK
6
CONTINUOUS
10
100.667
20
-83.5862
11
100.485
21
-83.6616
0
LINE
8
BLACK
6
CONTINUOUS
10
100.485
20
-83.6616
11
100.291
21
-83.7
0
LINE
8
BLACK
6
CONTINUOUS
10
100.291
20
-83.7
11
100.095
21
-83.7
0
LINE
8
BLACK
6
CONTINUOUS
10
100.095
20
-83.7
11
99.9013
21
-83.6616
0
LINE
8
BLACK
6
CONTINUOUS
10
99.9013
20
-83.6616
11
99.7193
21
-83.5862
0
LINE
8
BLACK
6
CONTINUOUS
10
99.7193
20
-83.5862
11
99.5555
21
-83.4768
0
LINE
8
BLACK
6
CONTINUOUS
10
99.5555
20
-83.4768
11
99.4162
21
-83.3375
0
LINE
8
BLACK
6
CONTINUOUS
10
99.4162
20
-83.3375
11
99.3068
21
-83.1737
0
LINE
8
BLACK
6
CONTINUOUS
10
99.3068
20
-83.1737
11
99.2314
21
-82.9917
0
LINE
8
BLACK
6
CONTINUOUS
10
99.2314
20
-82.9917
11
99.193
21
-82.7985
0
LINE
8
BLACK
6
CONTINUOUS
10
99.193
20
-82.7985
11
99.193
21
-82.6015
0
LINE
8
BLACK
6
CONTINUOUS
10
99.193
20
-82.6015
11
99.2314
21
-82.4083
0
LINE
8
BLACK
6
CONTINUOUS
10
99.2314
20
-82.4083
11
99.3068
21
-82.2263
0
LINE
8
BLACK
6
CONTINUOUS
10
99.3068
20
-82.2263
11
99.4162
21
-82.0625
0
LINE
8
BLACK
6
CONTINUOUS
10
99.4162
20
-82.0625
11
99.5555
21
-81.9232
0
LINE
8
BLACK
6
CONTINUOUS
10
99.5555
20
-81.9232
11
99.7193
21
-81.8138
0
LINE
8
BLACK
6
CONTINUOUS
10
99.7193
20
-81.8138
11
99.9013
21
-81.7384
0
LINE
8
BLACK
6
CONTINUOUS
10
99.9013
20
-81.7384
11
100.095
21
-81.7
0
LINE
8
BLACK
6
CONTINUOUS
10
100.095
20
-81.7
11
100.291
21
-81.7
0
LINE
8
BLACK
6
CONTINUOUS
10
100.291
20
-81.7
11
100.485
21
-81.7384
0
LINE
8
BLACK
6
CONTINUOUS
10
97.9447
20
-81.7384
11
98.1267
21
-81.8138
0
LINE
8
BLACK
6
CONTINUOUS
10
98.1267
20
-81.8138
11
98.2905
21
-81.9232
0
LINE
8
BLACK
6
CONTINUOUS
10
98.2905
20
-81.9232
11
98.4298
21
-82.0625
0
LINE
8
BLACK
6
CONTINUOUS
10
98.4298
20
-82.0625
11
98.5392
21
-82.2263
0
LINE
8
BLACK
6
CONTINUOUS
10
98.5392
20
-82.2263
11
98.6146
21
-82.4083
0
LINE
8
BLACK
6
CONTINUOUS
10
98.6146
20
-82.4083
11
98.653
21
-82.6015
0
LINE
8
BLACK
6
CONTINUOUS
10
98.653
20
-82.6015
11
98.653
21
-82.7985
0
LINE
8
BLACK
6
CONTINUOUS
10
98.653
20
-82.7985
11
98.6146
21
-82.9917
0
LINE
8
BLACK
6
CONTINUOUS
10
98.6146
20
-82.9917
11
98.5392
21
-83.1737
0
LINE
8
BLACK
6
CONTINUOUS
10
98.5392
20
-83.1737
11
98.4298
21
-83.3375
0
LINE
8
BLACK
6
CONTINUOUS
10
98.4298
20
-83.3375
11
98.2905
21
-83.4768
0
LINE
8
BLACK
6
CONTINUOUS
10
98.2905
20
-83.4768
11
98.1267
21
-83.5862
0
LINE
8
BLACK
6
CONTINUOUS
10
98.1267
20
-83.5862
11
97.9447
21
-83.6616
0
LINE
8
BLACK
6
CONTINUOUS
10
97.9447
20
-83.6616
11
97.7515
21
-83.7
0
LINE
8
BLACK
6
CONTINUOUS
10
97.7515
20
-83.7
11
97.5545
21
-83.7
0
LINE
8
BLACK
6
CONTINUOUS
10
97.5545
20
-83.7
11
97.3613
21
-83.6616
0
LINE
8
BLACK
6
CONTINUOUS
10
97.3613
20
-83.6616
11
97.1793
21
-83.5862
0
LINE
8
BLACK
6
CONTINUOUS
10
97.1793
20
-83.5862
11
97.0155
21
-83.4768
0
LINE
8
BLACK
6
CONTINUOUS
10
97.0155
20
-83.4768
11
96.8762
21
-83.3375
0
LINE
8
BLACK
6
CONTINUOUS
10
96.8762
20
-83.3375
11
96.7668
21
-83.1737
0
LINE
8
BLACK
6
CONTINUOUS
10
96.7668
20
-83.1737
11
96.6914
21
-82.9917
0
LINE
8
BLACK
6
CONTINUOUS
10
96.6914
20
-82.9917
11
96.653
21
-82.7985
0
LINE
8
BLACK
6
CONTINUOUS
10
96.653
20
-82.7985
11
96.653
21
-82.6015
0
LINE
8
BLACK
6
CONTINUOUS
10
96.653
20
-82.6015
11
96.6914
21
-82.4083
0
LINE
8
BLACK
6
CONTINUOUS
10
96.6914
20
-82.4083
11
96.7668
21
-82.2263
0
LINE
8
BLACK
6
CONTINUOUS
10
96.7668
20
-82.2263
11
96.8762
21
-82.0625
0
LINE
8
BLACK
6
CONTINUOUS
10
96.8762
20
-82.0625
11
97.0155
21
-81.9232
0
LINE
8
BLACK
6
CONTINUOUS
10
97.0155
20
-81.9232
11
97.1793
21
-81.8138
0
LINE
8
BLACK
6
CONTINUOUS
10
97.1793
20
-81.8138
11
97.3613
21
-81.7384
0
LINE
8
BLACK
6
CONTINUOUS
10
97.3613
20
-81.7384
11
97.5545
21
-81.7
0
LINE
8
BLACK
6
CONTINUOUS
10
97.5545
20
-81.7
11
97.7515
21
-81.7
0
LINE
8
BLACK
6
CONTINUOUS
10
97.7515
20
-81.7
11
97.9447
21
-81.7384
0
LINE
8
BLACK
6
CONTINUOUS
10
95.4047
20
-81.7384
11
95.5867
21
-81.8138
0
LINE
8
BLACK
6
CONTINUOUS
10
95.5867
20
-81.8138
11
95.7505
21
-81.9232
0
LINE
8
BLACK
6
CONTINUOUS
10
95.7505
20
-81.9232
11
95.8898
21
-82.0625
0
LINE
8
BLACK
6
CONTINUOUS
10
95.8898
20
-82.0625
11
95.9992
21
-82.2263
0
LINE
8
BLACK
6
CONTINUOUS
10
95.9992
20
-82.2263
11
96.0746
21
-82.4083
0
LINE
8
BLACK
6
CONTINUOUS
10
96.0746
20
-82.4083
11
96.113
21
-82.6015
0
LINE
8
BLACK
6
CONTINUOUS
10
96.113
20
-82.6015
11
96.113
21
-82.7985
0
LINE
8
BLACK
6
CONTINUOUS
10
96.113
20
-82.7985
11
96.0746
21
-82.9917
0
LINE
8
BLACK
6
CONTINUOUS
10
96.0746
20
-82.9917
11
95.9992
21
-83.1737
0
LINE
8
BLACK
6
CONTINUOUS
10
95.9992
20
-83.1737
11
95.8898
21
-83.3375
0
LINE
8
BLACK
6
CONTINUOUS
10
95.8898
20
-83.3375
11
95.7505
21
-83.4768
0
LINE
8
BLACK
6
CONTINUOUS
10
95.7505
20
-83.4768
11
95.5867
21
-83.5862
0
LINE
8
BLACK
6
CONTINUOUS
10
95.5867
20
-83.5862
11
95.4047
21
-83.6616
0
LINE
8
BLACK
6
CONTINUOUS
10
95.4047
20
-83.6616
11
95.2115
21
-83.7
0
LINE
8
BLACK
6
CONTINUOUS
10
95.2115
20
-83.7
11
95.0145
21
-83.7
0
LINE
8
BLACK
6
CONTINUOUS
10
95.0145
20
-83.7
11
94.8213
21
-83.6616
0
LINE
8
BLACK
6
CONTINUOUS
10
94.8213
20
-83.6616
11
94.6393
21
-83.5862
0
LINE
8
BLACK
6
CONTINUOUS
10
94.6393
20
-83.5862
11
94.4755
21
-83.4768
0
LINE
8
BLACK
6
CONTINUOUS
10
94.4755
20
-83.4768
11
94.3362
21
-83.3375
0
LINE
8
BLACK
6
CONTINUOUS
10
94.3362
20
-83.3375
11
94.2268
21
-83.1737
0
LINE
8
BLACK
6
CONTINUOUS
10
94.2268
20
-83.1737
11
94.1514
21
-82.9917
0
LINE
8
BLACK
6
CONTINUOUS
10
94.1514
20
-82.9917
11
94.113
21
-82.7985
0
LINE
8
BLACK
6
CONTINUOUS
10
94.113
20
-82.7985
11
94.113
21
-82.6015
0
LINE
8
BLACK
6
CONTINUOUS
10
94.113
20
-82.6015
11
94.1514
21
-82.4083
0
LINE
8
BLACK
6
CONTINUOUS
10
94.1514
20
-82.4083
11
94.2268
21
-82.2263
0
LINE
8
BLACK
6
CONTINUOUS
10
94.2268
20
-82.2263
11
94.3362
21
-82.0625
0
LINE
8
BLACK
6
CONTINUOUS
10
94.3362
20
-82.0625
11
94.4755
21
-81.9232
0
LINE
8
BLACK
6
CONTINUOUS
10
94.4755
20
-81.9232
11
94.6393
21
-81.8138
0
LINE
8
BLACK
6
CONTINUOUS
10
94.6393
20
-81.8138
11
94.8213
21
-81.7384
0
LINE
8
BLACK
6
CONTINUOUS
10
94.8213
20
-81.7384
11
95.0145
21
-81.7
0
LINE
8
BLACK
6
CONTINUOUS
10
95.0145
20
-81.7
11
95.2115
21
-81.7
0
LINE
8
BLACK
6
CONTINUOUS
10
95.2115
20
-81.7
11
95.4047
21
-81.7384
0
LINE
8
BLACK
6
CONTINUOUS
10
92.8647
20
-81.7384
11
93.0467
21
-81.8138
0
LINE
8
BLACK
6
CONTINUOUS
10
93.0467
20
-81.8138
11
93.2105
21
-81.9232
0
LINE
8
BLACK
6
CONTINUOUS
10
93.2105
20
-81.9232
11
93.3498
21
-82.0625
0
LINE
8
BLACK
6
CONTINUOUS
10
93.3498
20
-82.0625
11
93.4592
21
-82.2263
0
LINE
8
BLACK
6
CONTINUOUS
10
93.4592
20
-82.2263
11
93.5346
21
-82.4083
0
LINE
8
BLACK
6
CONTINUOUS
10
93.5346
20
-82.4083
11
93.573
21
-82.6015
0
LINE
8
BLACK
6
CONTINUOUS
10
93.573
20
-82.6015
11
93.573
21
-82.7985
0
LINE
8
BLACK
6
CONTINUOUS
10
93.573
20
-82.7985
11
93.5346
21
-82.9917
0
LINE
8
BLACK
6
CONTINUOUS
10
93.5346
20
-82.9917
11
93.4592
21
-83.1737
0
LINE
8
BLACK
6
CONTINUOUS
10
93.4592
20
-83.1737
11
93.3498
21
-83.3375
0
LINE
8
BLACK
6
CONTINUOUS
10
93.3498
20
-83.3375
11
93.2105
21
-83.4768
0
LINE
8
BLACK
6
CONTINUOUS
10
93.2105
20
-83.4768
11
93.0467
21
-83.5862
0
LINE
8
BLACK
6
CONTINUOUS
10
93.0467
20
-83.5862
11
92.8647
21
-83.6616
0
LINE
8
BLACK
6
CONTINUOUS
10
92.8647
20
-83.6616
11
92.6715
21
-83.7
0
LINE
8
BLACK
6
CONTINUOUS
10
92.6715
20
-83.7
11
92.4745
21
-83.7
0
LINE
8
BLACK
6
CONTINUOUS
10
92.4745
20
-83.7
11
92.2813
21
-83.6616
0
LINE
8
BLACK
6
CONTINUOUS
10
92.2813
20
-83.6616
11
92.0993
21
-83.5862
0
LINE
8
BLACK
6
CONTINUOUS
10
92.0993
20
-83.5862
11
91.9355
21
-83.4768
0
LINE
8
BLACK
6
CONTINUOUS
10
91.9355
20
-83.4768
11
91.7962
21
-83.3375
0
LINE
8
BLACK
6
CONTINUOUS
10
91.7962
20
-83.3375
11
91.6868
21
-83.1737
0
LINE
8
BLACK
6
CONTINUOUS
10
91.6868
20
-83.1737
11
91.6114
21
-82.9917
0
LINE
8
BLACK
6
CONTINUOUS
10
91.6114
20
-82.9917
11
91.573
21
-82.7985
0
LINE
8
BLACK
6
CONTINUOUS
10
91.573
20
-82.7985
11
91.573
21
-82.6015
0
LINE
8
BLACK
6
CONTINUOUS
10
91.573
20
-82.6015
11
91.6114
21
-82.4083
0
LINE
8
BLACK
6
CONTINUOUS
10
91.6114
20
-82.4083
11
91.6868
21
-82.2263
0
LINE
8
BLACK
6
CONTINUOUS
10
91.6868
20
-82.2263
11
91.7962
21
-82.0625
0
LINE
8
BLACK
6
CONTINUOUS
10
91.7962
20
-82.0625
11
91.9355
21
-81.9232
0
LINE
8
BLACK
6
CONTINUOUS
10
91.9355
20
-81.9232
11
92.0993
21
-81.8138
0
LINE
8
BLACK
6
CONTINUOUS
10
92.0993
20
-81.8138
11
92.2813
21
-81.7384
0
LINE
8
BLACK
6
CONTINUOUS
10
92.2813
20
-81.7384
11
92.4745
21
-81.7
0
LINE
8
BLACK
6
CONTINUOUS
10
92.4745
20
-81.7
11
92.6715
21
-81.7
0
LINE
8
BLACK
6
CONTINUOUS
10
92.6715
20
-81.7
11
92.8647
21
-81.7384
0
LINE
8
BLACK
6
CONTINUOUS
10
91.033
20
-83.7
11
89.033
21
-83.7
0
LINE
8
BLACK
6
CONTINUOUS
10
89.033
20
-83.7
11
89.033
21
-81.7
0
LINE
8
BLACK
6
CONTINUOUS
10
89.033
20
-81.7
11
91.033
21
-81.7
0
LINE
8
BLACK
6
CONTINUOUS
10
91.033
20
-81.7
11
91.033
21
-83.7
0
LINE
8
BLACK
6
CONTINUOUS
10
113.528
20
-80.792
11
113.528
21
-80.792
0
LINE
8
BLACK
6
CONTINUOUS
10
113.528
20
-80.792
11
113.528
21
-80.792
0
LINE
8
BLACK
6
CONTINUOUS
10
113.528
20
-80.792
11
113.529
21
-80.792
0
LINE
8
BLACK
6
CONTINUOUS
10
113.529
20
-80.792
11
113.533
21
-80.7925
0
LINE
8
BLACK
6
CONTINUOUS
10
113.533
20
-80.7925
11
113.538
21
-80.793
0
LINE
8
BLACK
6
CONTINUOUS
10
113.538
20
-80.793
11
113.538
21
-80.7931
0
LINE
8
BLACK
6
CONTINUOUS
10
113.538
20
-80.7931
11
113.538
21
-80.7931
0
LINE
8
BLACK
6
CONTINUOUS
10
113.538
20
-80.7931
11
113.543
21
-80.7945
0
LINE
8
BLACK
6
CONTINUOUS
10
113.543
20
-80.7945
11
113.547
21
-80.7959
0
LINE
8
BLACK
6
CONTINUOUS
10
113.547
20
-80.7959
11
113.548
21
-80.796
0
LINE
8
BLACK
6
CONTINUOUS
10
113.548
20
-80.796
11
113.548
21
-80.796
0
LINE
8
BLACK
6
CONTINUOUS
10
113.548
20
-80.796
11
113.552
21
-80.7983
0
LINE
8
BLACK
6
CONTINUOUS
10
113.552
20
-80.7983
11
113.556
21
-80.8005
0
LINE
8
BLACK
6
CONTINUOUS
10
113.556
20
-80.8005
11
113.556
21
-80.8007
0
LINE
8
BLACK
6
CONTINUOUS
10
113.556
20
-80.8007
11
113.556
21
-80.8007
0
LINE
8
BLACK
6
CONTINUOUS
10
113.556
20
-80.8007
11
113.56
21
-80.8037
0
LINE
8
BLACK
6
CONTINUOUS
10
113.56
20
-80.8037
11
113.563
21
-80.8068
0
LINE
8
BLACK
6
CONTINUOUS
10
113.563
20
-80.8068
11
113.564
21
-80.8069
0
LINE
8
BLACK
6
CONTINUOUS
10
113.564
20
-80.8069
11
113.564
21
-80.807
0
LINE
8
BLACK
6
CONTINUOUS
10
113.564
20
-80.807
11
113.567
21
-80.8106
0
LINE
8
BLACK
6
CONTINUOUS
10
113.567
20
-80.8106
11
113.57
21
-80.8143
0
LINE
8
BLACK
6
CONTINUOUS
10
113.57
20
-80.8143
11
113.57
21
-80.8145
0
LINE
8
BLACK
6
CONTINUOUS
10
113.57
20
-80.8145
11
113.57
21
-80.8146
0
LINE
8
BLACK
6
CONTINUOUS
10
113.57
20
-80.8146
11
113.572
21
-80.8187
0
LINE
8
BLACK
6
CONTINUOUS
10
113.572
20
-80.8187
11
113.574
21
-80.8229
0
LINE
8
BLACK
6
CONTINUOUS
10
113.574
20
-80.8229
11
113.574
21
-80.8231
0
LINE
8
BLACK
6
CONTINUOUS
10
113.574
20
-80.8231
11
113.574
21
-80.8233
0
LINE
8
BLACK
6
CONTINUOUS
10
113.574
20
-80.8233
11
113.576
21
-80.8277
0
LINE
8
BLACK
6
CONTINUOUS
10
113.576
20
-80.8277
11
113.577
21
-80.8323
0
LINE
8
BLACK
6
CONTINUOUS
10
113.577
20
-80.8323
11
113.577
21
-80.8325
0
LINE
8
BLACK
6
CONTINUOUS
10
113.577
20
-80.8325
11
113.577
21
-80.8326
0
LINE
8
BLACK
6
CONTINUOUS
10
113.577
20
-80.8326
11
113.578
21
-80.8373
0
LINE
8
BLACK
6
CONTINUOUS
10
113.578
20
-80.8373
11
113.578
21
-80.842
0
LINE
8
BLACK
6
CONTINUOUS
10
113.578
20
-80.842
11
113.578
21
-81.477
0
LINE
8
BLACK
6
CONTINUOUS
10
113.578
20
-81.477
11
113.578
21
-81.4773
0
LINE
8
BLACK
6
CONTINUOUS
10
113.578
20
-81.4773
11
113.578
21
-81.4773
0
LINE
8
BLACK
6
CONTINUOUS
10
113.578
20
-81.4773
11
113.578
21
-81.4774
0
LINE
8
BLACK
6
CONTINUOUS
10
113.578
20
-81.4774
11
113.578
21
-81.4777
0
LINE
8
BLACK
6
CONTINUOUS
10
113.578
20
-81.4777
11
113.577
21
-81.4823
0
LINE
8
BLACK
6
CONTINUOUS
10
113.577
20
-81.4823
11
113.577
21
-81.4871
0
LINE
8
BLACK
6
CONTINUOUS
10
113.577
20
-81.4871
11
113.577
21
-81.4872
0
LINE
8
BLACK
6
CONTINUOUS
10
113.577
20
-81.4872
11
113.577
21
-81.4874
0
LINE
8
BLACK
6
CONTINUOUS
10
113.577
20
-81.4874
11
113.575
21
-81.4919
0
LINE
8
BLACK
6
CONTINUOUS
10
113.575
20
-81.4919
11
113.574
21
-81.4964
0
LINE
8
BLACK
6
CONTINUOUS
10
113.574
20
-81.4964
11
113.574
21
-81.4965
0
LINE
8
BLACK
6
CONTINUOUS
10
113.574
20
-81.4965
11
113.574
21
-81.4967
0
LINE
8
BLACK
6
CONTINUOUS
10
113.574
20
-81.4967
11
113.572
21
-81.5008
0
LINE
8
BLACK
6
CONTINUOUS
10
113.572
20
-81.5008
11
113.569
21
-81.505
0
LINE
8
BLACK
6
CONTINUOUS
10
113.569
20
-81.505
11
113.569
21
-81.5051
0
LINE
8
BLACK
6
CONTINUOUS
10
113.569
20
-81.5051
11
113.569
21
-81.5052
0
LINE
8
BLACK
6
CONTINUOUS
10
113.569
20
-81.5052
11
113.566
21
-81.5088
0
LINE
8
BLACK
6
CONTINUOUS
10
113.566
20
-81.5088
11
113.563
21
-81.5125
0
LINE
8
BLACK
6
CONTINUOUS
10
113.563
20
-81.5125
11
113.563
21
-81.5126
0
LINE
8
BLACK
6
CONTINUOUS
10
113.563
20
-81.5126
11
113.563
21
-81.5127
0
LINE
8
BLACK
6
CONTINUOUS
10
113.563
20
-81.5127
11
113.559
21
-81.5156
0
LINE
8
BLACK
6
CONTINUOUS
10
113.559
20
-81.5156
11
113.556
21
-81.5186
0
LINE
8
BLACK
6
CONTINUOUS
10
113.556
20
-81.5186
11
113.556
21
-81.5187
0
LINE
8
BLACK
6
CONTINUOUS
10
113.556
20
-81.5187
11
113.555
21
-81.5188
0
LINE
8
BLACK
6
CONTINUOUS
10
113.555
20
-81.5188
11
113.551
21
-81.521
0
LINE
8
BLACK
6
CONTINUOUS
10
113.551
20
-81.521
11
113.547
21
-81.5232
0
LINE
8
BLACK
6
CONTINUOUS
10
113.547
20
-81.5232
11
113.547
21
-81.5233
0
LINE
8
BLACK
6
CONTINUOUS
10
113.547
20
-81.5233
11
113.547
21
-81.5234
0
LINE
8
BLACK
6
CONTINUOUS
10
113.547
20
-81.5234
11
113.542
21
-81.5247
0
LINE
8
BLACK
6
CONTINUOUS
10
113.542
20
-81.5247
11
113.538
21
-81.526
0
LINE
8
BLACK
6
CONTINUOUS
10
113.538
20
-81.526
11
113.538
21
-81.5261
0
LINE
8
BLACK
6
CONTINUOUS
10
113.538
20
-81.5261
11
113.537
21
-81.5261
0
LINE
8
BLACK
6
CONTINUOUS
10
113.537
20
-81.5261
11
113.533
21
-81.5265
0
LINE
8
BLACK
6
CONTINUOUS
10
113.533
20
-81.5265
11
113.528
21
-81.527
0
LINE
8
BLACK
6
CONTINUOUS
10
113.528
20
-81.527
11
112.893
21
-81.527
0
LINE
8
BLACK
6
CONTINUOUS
10
112.893
20
-81.527
11
112.893
21
-81.527
0
LINE
8
BLACK
6
CONTINUOUS
10
112.893
20
-81.527
11
112.893
21
-81.527
0
LINE
8
BLACK
6
CONTINUOUS
10
112.893
20
-81.527
11
112.893
21
-81.527
0
LINE
8
BLACK
6
CONTINUOUS
10
112.893
20
-81.527
11
112.892
21
-81.527
0
LINE
8
BLACK
6
CONTINUOUS
10
112.892
20
-81.527
11
112.888
21
-81.5265
0
LINE
8
BLACK
6
CONTINUOUS
10
112.888
20
-81.5265
11
112.883
21
-81.526
0
LINE
8
BLACK
6
CONTINUOUS
10
112.883
20
-81.526
11
112.883
21
-81.5259
0
LINE
8
BLACK
6
CONTINUOUS
10
112.883
20
-81.5259
11
112.883
21
-81.5259
0
LINE
8
BLACK
6
CONTINUOUS
10
112.883
20
-81.5259
11
112.878
21
-81.5245
0
LINE
8
BLACK
6
CONTINUOUS
10
112.878
20
-81.5245
11
112.874
21
-81.5231
0
LINE
8
BLACK
6
CONTINUOUS
10
112.874
20
-81.5231
11
112.873
21
-81.523
0
LINE
8
BLACK
6
CONTINUOUS
10
112.873
20
-81.523
11
112.873
21
-81.523
0
LINE
8
BLACK
6
CONTINUOUS
10
112.873
20
-81.523
11
112.869
21
-81.5207
0
LINE
8
BLACK
6
CONTINUOUS
10
112.869
20
-81.5207
11
112.865
21
-81.5185
0
LINE
8
BLACK
6
CONTINUOUS
10
112.865
20
-81.5185
11
112.865
21
-81.5183
0
LINE
8
BLACK
6
CONTINUOUS
10
112.865
20
-81.5183
11
112.865
21
-81.5183
0
LINE
8
BLACK
6
CONTINUOUS
10
112.865
20
-81.5183
11
112.861
21
-81.5153
0
LINE
8
BLACK
6
CONTINUOUS
10
112.861
20
-81.5153
11
112.858
21
-81.5122
0
LINE
8
BLACK
6
CONTINUOUS
10
112.858
20
-81.5122
11
112.857
21
-81.5121
0
LINE
8
BLACK
6
CONTINUOUS
10
112.857
20
-81.5121
11
112.857
21
-81.512
0
LINE
8
BLACK
6
CONTINUOUS
10
112.857
20
-81.512
11
112.854
21
-81.5084
0
LINE
8
BLACK
6
CONTINUOUS
10
112.854
20
-81.5084
11
112.851
21
-81.5047
0
LINE
8
BLACK
6
CONTINUOUS
10
112.851
20
-81.5047
11
112.851
21
-81.5045
0
LINE
8
BLACK
6
CONTINUOUS
10
112.851
20
-81.5045
11
112.851
21
-81.5044
0
LINE
8
BLACK
6
CONTINUOUS
10
112.851
20
-81.5044
11
112.849
21
-81.5003
0
LINE
8
BLACK
6
CONTINUOUS
10
112.849
20
-81.5003
11
112.847
21
-81.4961
0
LINE
8
BLACK
6
CONTINUOUS
10
112.847
20
-81.4961
11
112.847
21
-81.4959
0
LINE
8
BLACK
6
CONTINUOUS
10
112.847
20
-81.4959
11
112.847
21
-81.4957
0
LINE
8
BLACK
6
CONTINUOUS
10
112.847
20
-81.4957
11
112.845
21
-81.4913
0
LINE
8
BLACK
6
CONTINUOUS
10
112.845
20
-81.4913
11
112.844
21
-81.4867
0
LINE
8
BLACK
6
CONTINUOUS
10
112.844
20
-81.4867
11
112.844
21
-81.4865
0
LINE
8
BLACK
6
CONTINUOUS
10
112.844
20
-81.4865
11
112.844
21
-81.4864
0
LINE
8
BLACK
6
CONTINUOUS
10
112.844
20
-81.4864
11
112.843
21
-81.4817
0
LINE
8
BLACK
6
CONTINUOUS
10
112.843
20
-81.4817
11
112.843
21
-81.477
0
LINE
8
BLACK
6
CONTINUOUS
10
112.843
20
-81.477
11
112.843
21
-80.842
0
LINE
8
BLACK
6
CONTINUOUS
10
112.843
20
-80.842
11
112.843
21
-80.8417
0
LINE
8
BLACK
6
CONTINUOUS
10
112.843
20
-80.8417
11
112.843
21
-80.8417
0
LINE
8
BLACK
6
CONTINUOUS
10
112.843
20
-80.8417
11
112.843
21
-80.8416
0
LINE
8
BLACK
6
CONTINUOUS
10
112.843
20
-80.8416
11
112.843
21
-80.8413
0
LINE
8
BLACK
6
CONTINUOUS
10
112.843
20
-80.8413
11
112.844
21
-80.8367
0
LINE
8
BLACK
6
CONTINUOUS
10
112.844
20
-80.8367
11
112.844
21
-80.8319
0
LINE
8
BLACK
6
CONTINUOUS
10
112.844
20
-80.8319
11
112.844
21
-80.8318
0
LINE
8
BLACK
6
CONTINUOUS
10
112.844
20
-80.8318
11
112.844
21
-80.8316
0
LINE
8
BLACK
6
CONTINUOUS
10
112.844
20
-80.8316
11
112.846
21
-80.8271
0
LINE
8
BLACK
6
CONTINUOUS
10
112.846
20
-80.8271
11
112.847
21
-80.8226
0
LINE
8
BLACK
6
CONTINUOUS
10
112.847
20
-80.8226
11
112.847
21
-80.8225
0
LINE
8
BLACK
6
CONTINUOUS
10
112.847
20
-80.8225
11
112.847
21
-80.8223
0
LINE
8
BLACK
6
CONTINUOUS
10
112.847
20
-80.8223
11
112.849
21
-80.8182
0
LINE
8
BLACK
6
CONTINUOUS
10
112.849
20
-80.8182
11
112.852
21
-80.814
0
LINE
8
BLACK
6
CONTINUOUS
10
112.852
20
-80.814
11
112.852
21
-80.8139
0
LINE
8
BLACK
6
CONTINUOUS
10
112.852
20
-80.8139
11
112.852
21
-80.8138
0
LINE
8
BLACK
6
CONTINUOUS
10
112.852
20
-80.8138
11
112.855
21
-80.8102
0
LINE
8
BLACK
6
CONTINUOUS
10
112.855
20
-80.8102
11
112.858
21
-80.8065
0
LINE
8
BLACK
6
CONTINUOUS
10
112.858
20
-80.8065
11
112.858
21
-80.8064
0
LINE
8
BLACK
6
CONTINUOUS
10
112.858
20
-80.8064
11
112.858
21
-80.8063
0
LINE
8
BLACK
6
CONTINUOUS
10
112.858
20
-80.8063
11
112.862
21
-80.8034
0
LINE
8
BLACK
6
CONTINUOUS
10
112.862
20
-80.8034
11
112.865
21
-80.8004
0
LINE
8
BLACK
6
CONTINUOUS
10
112.865
20
-80.8004
11
112.865
21
-80.8003
0
LINE
8
BLACK
6
CONTINUOUS
10
112.865
20
-80.8003
11
112.866
21
-80.8002
0
LINE
8
BLACK
6
CONTINUOUS
10
112.866
20
-80.8002
11
112.87
21
-80.798
0
LINE
8
BLACK
6
CONTINUOUS
10
112.87
20
-80.798
11
112.874
21
-80.7958
0
LINE
8
BLACK
6
CONTINUOUS
10
112.874
20
-80.7958
11
112.874
21
-80.7957
0
LINE
8
BLACK
6
CONTINUOUS
10
112.874
20
-80.7957
11
112.874
21
-80.7956
0
LINE
8
BLACK
6
CONTINUOUS
10
112.874
20
-80.7956
11
112.879
21
-80.7943
0
LINE
8
BLACK
6
CONTINUOUS
10
112.879
20
-80.7943
11
112.883
21
-80.793
0
LINE
8
BLACK
6
CONTINUOUS
10
112.883
20
-80.793
11
112.883
21
-80.7929
0
LINE
8
BLACK
6
CONTINUOUS
10
112.883
20
-80.7929
11
112.884
21
-80.7929
0
LINE
8
BLACK
6
CONTINUOUS
10
112.884
20
-80.7929
11
112.888
21
-80.7925
0
LINE
8
BLACK
6
CONTINUOUS
10
112.888
20
-80.7925
11
112.893
21
-80.792
0
LINE
8
BLACK
6
CONTINUOUS
10
112.893
20
-80.792
11
113.528
21
-80.792
0
LINE
8
BLACK
6
CONTINUOUS
10
113.528
20
-80.792
11
113.528
21
-80.792
0
LINE
8
BLACK
6
CONTINUOUS
10
114.798
20
-80.792
11
114.798
21
-80.792
0
LINE
8
BLACK
6
CONTINUOUS
10
114.798
20
-80.792
11
114.798
21
-80.792
0
LINE
8
BLACK
6
CONTINUOUS
10
114.798
20
-80.792
11
114.799
21
-80.792
0
LINE
8
BLACK
6
CONTINUOUS
10
114.799
20
-80.792
11
114.803
21
-80.7925
0
LINE
8
BLACK
6
CONTINUOUS
10
114.803
20
-80.7925
11
114.808
21
-80.793
0
LINE
8
BLACK
6
CONTINUOUS
10
114.808
20
-80.793
11
114.808
21
-80.7931
0
LINE
8
BLACK
6
CONTINUOUS
10
114.808
20
-80.7931
11
114.808
21
-80.7931
0
LINE
8
BLACK
6
CONTINUOUS
10
114.808
20
-80.7931
11
114.813
21
-80.7945
0
LINE
8
BLACK
6
CONTINUOUS
10
114.813
20
-80.7945
11
114.817
21
-80.7959
0
LINE
8
BLACK
6
CONTINUOUS
10
114.817
20
-80.7959
11
114.818
21
-80.796
0
LINE
8
BLACK
6
CONTINUOUS
10
114.818
20
-80.796
11
114.818
21
-80.796
0
LINE
8
BLACK
6
CONTINUOUS
10
114.818
20
-80.796
11
114.822
21
-80.7983
0
LINE
8
BLACK
6
CONTINUOUS
10
114.822
20
-80.7983
11
114.826
21
-80.8005
0
LINE
8
BLACK
6
CONTINUOUS
10
114.826
20
-80.8005
11
114.826
21
-80.8007
0
LINE
8
BLACK
6
CONTINUOUS
10
114.826
20
-80.8007
11
114.826
21
-80.8007
0
LINE
8
BLACK
6
CONTINUOUS
10
114.826
20
-80.8007
11
114.83
21
-80.8037
0
LINE
8
BLACK
6
CONTINUOUS
10
114.83
20
-80.8037
11
114.833
21
-80.8068
0
LINE
8
BLACK
6
CONTINUOUS
10
114.833
20
-80.8068
11
114.834
21
-80.8069
0
LINE
8
BLACK
6
CONTINUOUS
10
114.834
20
-80.8069
11
114.834
21
-80.807
0
LINE
8
BLACK
6
CONTINUOUS
10
114.834
20
-80.807
11
114.837
21
-80.8106
0
LINE
8
BLACK
6
CONTINUOUS
10
114.837
20
-80.8106
11
114.84
21
-80.8143
0
LINE
8
BLACK
6
CONTINUOUS
10
114.84
20
-80.8143
11
114.84
21
-80.8145
0
LINE
8
BLACK
6
CONTINUOUS
10
114.84
20
-80.8145
11
114.84
21
-80.8146
0
LINE
8
BLACK
6
CONTINUOUS
10
114.84
20
-80.8146
11
114.842
21
-80.8187
0
LINE
8
BLACK
6
CONTINUOUS
10
114.842
20
-80.8187
11
114.844
21
-80.8229
0
LINE
8
BLACK
6
CONTINUOUS
10
114.844
20
-80.8229
11
114.844
21
-80.8231
0
LINE
8
BLACK
6
CONTINUOUS
10
114.844
20
-80.8231
11
114.844
21
-80.8233
0
LINE
8
BLACK
6
CONTINUOUS
10
114.844
20
-80.8233
11
114.846
21
-80.8277
0
LINE
8
BLACK
6
CONTINUOUS
10
114.846
20
-80.8277
11
114.847
21
-80.8323
0
LINE
8
BLACK
6
CONTINUOUS
10
114.847
20
-80.8323
11
114.847
21
-80.8325
0
LINE
8
BLACK
6
CONTINUOUS
10
114.847
20
-80.8325
11
114.847
21
-80.8326
0
LINE
8
BLACK
6
CONTINUOUS
10
114.847
20
-80.8326
11
114.848
21
-80.8373
0
LINE
8
BLACK
6
CONTINUOUS
10
114.848
20
-80.8373
11
114.848
21
-80.842
0
LINE
8
BLACK
6
CONTINUOUS
10
114.848
20
-80.842
11
114.848
21
-81.477
0
LINE
8
BLACK
6
CONTINUOUS
10
114.848
20
-81.477
11
114.848
21
-81.4773
0
LINE
8
BLACK
6
CONTINUOUS
10
114.848
20
-81.4773
11
114.848
21
-81.4773
0
LINE
8
BLACK
6
CONTINUOUS
10
114.848
20
-81.4773
11
114.848
21
-81.4774
0
LINE
8
BLACK
6
CONTINUOUS
10
114.848
20
-81.4774
11
114.848
21
-81.4777
0
LINE
8
BLACK
6
CONTINUOUS
10
114.848
20
-81.4777
11
114.847
21
-81.4823
0
LINE
8
BLACK
6
CONTINUOUS
10
114.847
20
-81.4823
11
114.847
21
-81.4871
0
LINE
8
BLACK
6
CONTINUOUS
10
114.847
20
-81.4871
11
114.847
21
-81.4872
0
LINE
8
BLACK
6
CONTINUOUS
10
114.847
20
-81.4872
11
114.847
21
-81.4874
0
LINE
8
BLACK
6
CONTINUOUS
10
114.847
20
-81.4874
11
114.845
21
-81.4919
0
LINE
8
BLACK
6
CONTINUOUS
10
114.845
20
-81.4919
11
114.844
21
-81.4964
0
LINE
8
BLACK
6
CONTINUOUS
10
114.844
20
-81.4964
11
114.844
21
-81.4965
0
LINE
8
BLACK
6
CONTINUOUS
10
114.844
20
-81.4965
11
114.844
21
-81.4967
0
LINE
8
BLACK
6
CONTINUOUS
10
114.844
20
-81.4967
11
114.842
21
-81.5008
0
LINE
8
BLACK
6
CONTINUOUS
10
114.842
20
-81.5008
11
114.839
21
-81.505
0
LINE
8
BLACK
6
CONTINUOUS
10
114.839
20
-81.505
11
114.839
21
-81.5051
0
LINE
8
BLACK
6
CONTINUOUS
10
114.839
20
-81.5051
11
114.839
21
-81.5052
0
LINE
8
BLACK
6
CONTINUOUS
10
114.839
20
-81.5052
11
114.836
21
-81.5088
0
LINE
8
BLACK
6
CONTINUOUS
10
114.836
20
-81.5088
11
114.833
21
-81.5125
0
LINE
8
BLACK
6
CONTINUOUS
10
114.833
20
-81.5125
11
114.833
21
-81.5126
0
LINE
8
BLACK
6
CONTINUOUS
10
114.833
20
-81.5126
11
114.833
21
-81.5127
0
LINE
8
BLACK
6
CONTINUOUS
10
114.833
20
-81.5127
11
114.829
21
-81.5156
0
LINE
8
BLACK
6
CONTINUOUS
10
114.829
20
-81.5156
11
114.826
21
-81.5186
0
LINE
8
BLACK
6
CONTINUOUS
10
114.826
20
-81.5186
11
114.826
21
-81.5187
0
LINE
8
BLACK
6
CONTINUOUS
10
114.826
20
-81.5187
11
114.825
21
-81.5188
0
LINE
8
BLACK
6
CONTINUOUS
10
114.825
20
-81.5188
11
114.821
21
-81.521
0
LINE
8
BLACK
6
CONTINUOUS
10
114.821
20
-81.521
11
114.817
21
-81.5232
0
LINE
8
BLACK
6
CONTINUOUS
10
114.817
20
-81.5232
11
114.817
21
-81.5233
0
LINE
8
BLACK
6
CONTINUOUS
10
114.817
20
-81.5233
11
114.817
21
-81.5234
0
LINE
8
BLACK
6
CONTINUOUS
10
114.817
20
-81.5234
11
114.812
21
-81.5247
0
LINE
8
BLACK
6
CONTINUOUS
10
114.812
20
-81.5247
11
114.808
21
-81.526
0
LINE
8
BLACK
6
CONTINUOUS
10
114.808
20
-81.526
11
114.808
21
-81.5261
0
LINE
8
BLACK
6
CONTINUOUS
10
114.808
20
-81.5261
11
114.807
21
-81.5261
0
LINE
8
BLACK
6
CONTINUOUS
10
114.807
20
-81.5261
11
114.803
21
-81.5265
0
LINE
8
BLACK
6
CONTINUOUS
10
114.803
20
-81.5265
11
114.798
21
-81.527
0
LINE
8
BLACK
6
CONTINUOUS
10
114.798
20
-81.527
11
114.163
21
-81.527
0
LINE
8
BLACK
6
CONTINUOUS
10
114.163
20
-81.527
11
114.163
21
-81.527
0
LINE
8
BLACK
6
CONTINUOUS
10
114.163
20
-81.527
11
114.163
21
-81.527
0
LINE
8
BLACK
6
CONTINUOUS
10
114.163
20
-81.527
11
114.163
21
-81.527
0
LINE
8
BLACK
6
CONTINUOUS
10
114.163
20
-81.527
11
114.162
21
-81.527
0
LINE
8
BLACK
6
CONTINUOUS
10
114.162
20
-81.527
11
114.158
21
-81.5265
0
LINE
8
BLACK
6
CONTINUOUS
10
114.158
20
-81.5265
11
114.153
21
-81.526
0
LINE
8
BLACK
6
CONTINUOUS
10
114.153
20
-81.526
11
114.153
21
-81.5259
0
LINE
8
BLACK
6
CONTINUOUS
10
114.153
20
-81.5259
11
114.153
21
-81.5259
0
LINE
8
BLACK
6
CONTINUOUS
10
114.153
20
-81.5259
11
114.148
21
-81.5245
0
LINE
8
BLACK
6
CONTINUOUS
10
114.148
20
-81.5245
11
114.144
21
-81.5231
0
LINE
8
BLACK
6
CONTINUOUS
10
114.144
20
-81.5231
11
114.143
21
-81.523
0
LINE
8
BLACK
6
CONTINUOUS
10
114.143
20
-81.523
11
114.143
21
-81.523
0
LINE
8
BLACK
6
CONTINUOUS
10
114.143
20
-81.523
11
114.139
21
-81.5207
0
LINE
8
BLACK
6
CONTINUOUS
10
114.139
20
-81.5207
11
114.135
21
-81.5185
0
LINE
8
BLACK
6
CONTINUOUS
10
114.135
20
-81.5185
11
114.135
21
-81.5183
0
LINE
8
BLACK
6
CONTINUOUS
10
114.135
20
-81.5183
11
114.135
21
-81.5183
0
LINE
8
BLACK
6
CONTINUOUS
10
114.135
20
-81.5183
11
114.131
21
-81.5153
0
LINE
8
BLACK
6
CONTINUOUS
10
114.131
20
-81.5153
11
114.128
21
-81.5122
0
LINE
8
BLACK
6
CONTINUOUS
10
114.128
20
-81.5122
11
114.127
21
-81.5121
0
LINE
8
BLACK
6
CONTINUOUS
10
114.127
20
-81.5121
11
114.127
21
-81.512
0
LINE
8
BLACK
6
CONTINUOUS
10
114.127
20
-81.512
11
114.124
21
-81.5084
0
LINE
8
BLACK
6
CONTINUOUS
10
114.124
20
-81.5084
11
114.121
21
-81.5047
0
LINE
8
BLACK
6
CONTINUOUS
10
114.121
20
-81.5047
11
114.121
21
-81.5045
0
LINE
8
BLACK
6
CONTINUOUS
10
114.121
20
-81.5045
11
114.121
21
-81.5044
0
LINE
8
BLACK
6
CONTINUOUS
10
114.121
20
-81.5044
11
114.119
21
-81.5003
0
LINE
8
BLACK
6
CONTINUOUS
10
114.119
20
-81.5003
11
114.117
21
-81.4961
0
LINE
8
BLACK
6
CONTINUOUS
10
114.117
20
-81.4961
11
114.117
21
-81.4959
0
LINE
8
BLACK
6
CONTINUOUS
10
114.117
20
-81.4959
11
114.117
21
-81.4957
0
LINE
8
BLACK
6
CONTINUOUS
10
114.117
20
-81.4957
11
114.115
21
-81.4913
0
LINE
8
BLACK
6
CONTINUOUS
10
114.115
20
-81.4913
11
114.114
21
-81.4867
0
LINE
8
BLACK
6
CONTINUOUS
10
114.114
20
-81.4867
11
114.114
21
-81.4865
0
LINE
8
BLACK
6
CONTINUOUS
10
114.114
20
-81.4865
11
114.114
21
-81.4864
0
LINE
8
BLACK
6
CONTINUOUS
10
114.114
20
-81.4864
11
114.113
21
-81.4817
0
LINE
8
BLACK
6
CONTINUOUS
10
114.113
20
-81.4817
11
114.113
21
-81.477
0
LINE
8
BLACK
6
CONTINUOUS
10
114.113
20
-81.477
11
114.113
21
-80.842
0
LINE
8
BLACK
6
CONTINUOUS
10
114.113
20
-80.842
11
114.113
21
-80.8417
0
LINE
8
BLACK
6
CONTINUOUS
10
114.113
20
-80.8417
11
114.113
21
-80.8417
0
LINE
8
BLACK
6
CONTINUOUS
10
114.113
20
-80.8417
11
114.113
21
-80.8416
0
LINE
8
BLACK
6
CONTINUOUS
10
114.113
20
-80.8416
11
114.113
21
-80.8413
0
LINE
8
BLACK
6
CONTINUOUS
10
114.113
20
-80.8413
11
114.114
21
-80.8367
0
LINE
8
BLACK
6
CONTINUOUS
10
114.114
20
-80.8367
11
114.114
21
-80.8319
0
LINE
8
BLACK
6
CONTINUOUS
10
114.114
20
-80.8319
11
114.114
21
-80.8318
0
LINE
8
BLACK
6
CONTINUOUS
10
114.114
20
-80.8318
11
114.114
21
-80.8316
0
LINE
8
BLACK
6
CONTINUOUS
10
114.114
20
-80.8316
11
114.116
21
-80.8271
0
LINE
8
BLACK
6
CONTINUOUS
10
114.116
20
-80.8271
11
114.117
21
-80.8226
0
LINE
8
BLACK
6
CONTINUOUS
10
114.117
20
-80.8226
11
114.117
21
-80.8225
0
LINE
8
BLACK
6
CONTINUOUS
10
114.117
20
-80.8225
11
114.117
21
-80.8223
0
LINE
8
BLACK
6
CONTINUOUS
10
114.117
20
-80.8223
11
114.119
21
-80.8182
0
LINE
8
BLACK
6
CONTINUOUS
10
114.119
20
-80.8182
11
114.122
21
-80.814
0
LINE
8
BLACK
6
CONTINUOUS
10
114.122
20
-80.814
11
114.122
21
-80.8139
0
LINE
8
BLACK
6
CONTINUOUS
10
114.122
20
-80.8139
11
114.122
21
-80.8138
0
LINE
8
BLACK
6
CONTINUOUS
10
114.122
20
-80.8138
11
114.125
21
-80.8102
0
LINE
8
BLACK
6
CONTINUOUS
10
114.125
20
-80.8102
11
114.128
21
-80.8065
0
LINE
8
BLACK
6
CONTINUOUS
10
114.128
20
-80.8065
11
114.128
21
-80.8064
0
LINE
8
BLACK
6
CONTINUOUS
10
114.128
20
-80.8064
11
114.128
21
-80.8063
0
LINE
8
BLACK
6
CONTINUOUS
10
114.128
20
-80.8063
11
114.132
21
-80.8034
0
LINE
8
BLACK
6
CONTINUOUS
10
114.132
20
-80.8034
11
114.135
21
-80.8004
0
LINE
8
BLACK
6
CONTINUOUS
10
114.135
20
-80.8004
11
114.135
21
-80.8003
0
LINE
8
BLACK
6
CONTINUOUS
10
114.135
20
-80.8003
11
114.136
21
-80.8002
0
LINE
8
BLACK
6
CONTINUOUS
10
114.136
20
-80.8002
11
114.14
21
-80.798
0
LINE
8
BLACK
6
CONTINUOUS
10
114.14
20
-80.798
11
114.144
21
-80.7958
0
LINE
8
BLACK
6
CONTINUOUS
10
114.144
20
-80.7958
11
114.144
21
-80.7957
0
LINE
8
BLACK
6
CONTINUOUS
10
114.144
20
-80.7957
11
114.144
21
-80.7956
0
LINE
8
BLACK
6
CONTINUOUS
10
114.144
20
-80.7956
11
114.149
21
-80.7943
0
LINE
8
BLACK
6
CONTINUOUS
10
114.149
20
-80.7943
11
114.153
21
-80.793
0
LINE
8
BLACK
6
CONTINUOUS
10
114.153
20
-80.793
11
114.153
21
-80.7929
0
LINE
8
BLACK
6
CONTINUOUS
10
114.153
20
-80.7929
11
114.154
21
-80.7929
0
LINE
8
BLACK
6
CONTINUOUS
10
114.154
20
-80.7929
11
114.158
21
-80.7925
0
LINE
8
BLACK
6
CONTINUOUS
10
114.158
20
-80.7925
11
114.163
21
-80.792
0
LINE
8
BLACK
6
CONTINUOUS
10
114.163
20
-80.792
11
114.798
21
-80.792
0
LINE
8
BLACK
6
CONTINUOUS
10
114.798
20
-80.792
11
114.798
21
-80.792
0
LINE
8
BLACK
6
CONTINUOUS
10
117.338
20
-80.792
11
117.338
21
-80.792
0
LINE
8
BLACK
6
CONTINUOUS
10
117.338
20
-80.792
11
117.338
21
-80.792
0
LINE
8
BLACK
6
CONTINUOUS
10
117.338
20
-80.792
11
117.339
21
-80.792
0
LINE
8
BLACK
6
CONTINUOUS
10
117.339
20
-80.792
11
117.343
21
-80.7925
0
LINE
8
BLACK
6
CONTINUOUS
10
117.343
20
-80.7925
11
117.348
21
-80.793
0
LINE
8
BLACK
6
CONTINUOUS
10
117.348
20
-80.793
11
117.348
21
-80.7931
0
LINE
8
BLACK
6
CONTINUOUS
10
117.348
20
-80.7931
11
117.348
21
-80.7931
0
LINE
8
BLACK
6
CONTINUOUS
10
117.348
20
-80.7931
11
117.353
21
-80.7945
0
LINE
8
BLACK
6
CONTINUOUS
10
117.353
20
-80.7945
11
117.357
21
-80.7959
0
LINE
8
BLACK
6
CONTINUOUS
10
117.357
20
-80.7959
11
117.358
21
-80.796
0
LINE
8
BLACK
6
CONTINUOUS
10
117.358
20
-80.796
11
117.358
21
-80.796
0
LINE
8
BLACK
6
CONTINUOUS
10
117.358
20
-80.796
11
117.362
21
-80.7983
0
LINE
8
BLACK
6
CONTINUOUS
10
117.362
20
-80.7983
11
117.366
21
-80.8005
0
LINE
8
BLACK
6
CONTINUOUS
10
117.366
20
-80.8005
11
117.366
21
-80.8007
0
LINE
8
BLACK
6
CONTINUOUS
10
117.366
20
-80.8007
11
117.366
21
-80.8007
0
LINE
8
BLACK
6
CONTINUOUS
10
117.366
20
-80.8007
11
117.37
21
-80.8037
0
LINE
8
BLACK
6
CONTINUOUS
10
117.37
20
-80.8037
11
117.373
21
-80.8068
0
LINE
8
BLACK
6
CONTINUOUS
10
117.373
20
-80.8068
11
117.374
21
-80.8069
0
LINE
8
BLACK
6
CONTINUOUS
10
117.374
20
-80.8069
11
117.374
21
-80.807
0
LINE
8
BLACK
6
CONTINUOUS
10
117.374
20
-80.807
11
117.377
21
-80.8106
0
LINE
8
BLACK
6
CONTINUOUS
10
117.377
20
-80.8106
11
117.38
21
-80.8143
0
LINE
8
BLACK
6
CONTINUOUS
10
117.38
20
-80.8143
11
117.38
21
-80.8145
0
LINE
8
BLACK
6
CONTINUOUS
10
117.38
20
-80.8145
11
117.38
21
-80.8146
0
LINE
8
BLACK
6
CONTINUOUS
10
117.38
20
-80.8146
11
117.382
21
-80.8187
0
LINE
8
BLACK
6
CONTINUOUS
10
117.382
20
-80.8187
11
117.384
21
-80.8229
0
LINE
8
BLACK
6
CONTINUOUS
10
117.384
20
-80.8229
11
117.384
21
-80.8231
0
LINE
8
BLACK
6
CONTINUOUS
10
117.384
20
-80.8231
11
117.384
21
-80.8233
0
LINE
8
BLACK
6
CONTINUOUS
10
117.384
20
-80.8233
11
117.386
21
-80.8277
0
LINE
8
BLACK
6
CONTINUOUS
10
117.386
20
-80.8277
11
117.387
21
-80.8323
0
LINE
8
BLACK
6
CONTINUOUS
10
117.387
20
-80.8323
11
117.387
21
-80.8325
0
LINE
8
BLACK
6
CONTINUOUS
10
117.387
20
-80.8325
11
117.387
21
-80.8326
0
LINE
8
BLACK
6
CONTINUOUS
10
117.387
20
-80.8326
11
117.388
21
-80.8373
0
LINE
8
BLACK
6
CONTINUOUS
10
117.388
20
-80.8373
11
117.388
21
-80.842
0
LINE
8
BLACK
6
CONTINUOUS
10
117.388
20
-80.842
11
117.388
21
-81.477
0
LINE
8
BLACK
6
CONTINUOUS
10
117.388
20
-81.477
11
117.388
21
-81.4773
0
LINE
8
BLACK
6
CONTINUOUS
10
117.388
20
-81.4773
11
117.388
21
-81.4773
0
LINE
8
BLACK
6
CONTINUOUS
10
117.388
20
-81.4773
11
117.388
21
-81.4774
0
LINE
8
BLACK
6
CONTINUOUS
10
117.388
20
-81.4774
11
117.388
21
-81.4777
0
LINE
8
BLACK
6
CONTINUOUS
10
117.388
20
-81.4777
11
117.387
21
-81.4823
0
LINE
8
BLACK
6
CONTINUOUS
10
117.387
20
-81.4823
11
117.387
21
-81.4871
0
LINE
8
BLACK
6
CONTINUOUS
10
117.387
20
-81.4871
11
117.387
21
-81.4872
0
LINE
8
BLACK
6
CONTINUOUS
10
117.387
20
-81.4872
11
117.387
21
-81.4874
0
LINE
8
BLACK
6
CONTINUOUS
10
117.387
20
-81.4874
11
117.385
21
-81.4919
0
LINE
8
BLACK
6
CONTINUOUS
10
117.385
20
-81.4919
11
117.384
21
-81.4964
0
LINE
8
BLACK
6
CONTINUOUS
10
117.384
20
-81.4964
11
117.384
21
-81.4965
0
LINE
8
BLACK
6
CONTINUOUS
10
117.384
20
-81.4965
11
117.384
21
-81.4967
0
LINE
8
BLACK
6
CONTINUOUS
10
117.384
20
-81.4967
11
117.382
21
-81.5008
0
LINE
8
BLACK
6
CONTINUOUS
10
117.382
20
-81.5008
11
117.379
21
-81.505
0
LINE
8
BLACK
6
CONTINUOUS
10
117.379
20
-81.505
11
117.379
21
-81.5051
0
LINE
8
BLACK
6
CONTINUOUS
10
117.379
20
-81.5051
11
117.379
21
-81.5052
0
LINE
8
BLACK
6
CONTINUOUS
10
117.379
20
-81.5052
11
117.376
21
-81.5088
0
LINE
8
BLACK
6
CONTINUOUS
10
117.376
20
-81.5088
11
117.373
21
-81.5125
0
LINE
8
BLACK
6
CONTINUOUS
10
117.373
20
-81.5125
11
117.373
21
-81.5126
0
LINE
8
BLACK
6
CONTINUOUS
10
117.373
20
-81.5126
11
117.373
21
-81.5127
0
LINE
8
BLACK
6
CONTINUOUS
10
117.373
20
-81.5127
11
117.369
21
-81.5156
0
LINE
8
BLACK
6
CONTINUOUS
10
117.369
20
-81.5156
11
117.366
21
-81.5186
0
LINE
8
BLACK
6
CONTINUOUS
10
117.366
20
-81.5186
11
117.366
21
-81.5187
0
LINE
8
BLACK
6
CONTINUOUS
10
117.366
20
-81.5187
11
117.365
21
-81.5188
0
LINE
8
BLACK
6
CONTINUOUS
10
117.365
20
-81.5188
11
117.361
21
-81.521
0
LINE
8
BLACK
6
CONTINUOUS
10
117.361
20
-81.521
11
117.357
21
-81.5232
0
LINE
8
BLACK
6
CONTINUOUS
10
117.357
20
-81.5232
11
117.357
21
-81.5233
0
LINE
8
BLACK
6
CONTINUOUS
10
117.357
20
-81.5233
11
117.357
21
-81.5234
0
LINE
8
BLACK
6
CONTINUOUS
10
117.357
20
-81.5234
11
117.352
21
-81.5247
0
LINE
8
BLACK
6
CONTINUOUS
10
117.352
20
-81.5247
11
117.348
21
-81.526
0
LINE
8
BLACK
6
CONTINUOUS
10
117.348
20
-81.526
11
117.348
21
-81.5261
0
LINE
8
BLACK
6
CONTINUOUS
10
117.348
20
-81.5261
11
117.347
21
-81.5261
0
LINE
8
BLACK
6
CONTINUOUS
10
117.347
20
-81.5261
11
117.343
21
-81.5265
0
LINE
8
BLACK
6
CONTINUOUS
10
117.343
20
-81.5265
11
117.338
21
-81.527
0
LINE
8
BLACK
6
CONTINUOUS
10
117.338
20
-81.527
11
116.703
21
-81.527
0
LINE
8
BLACK
6
CONTINUOUS
10
116.703
20
-81.527
11
116.703
21
-81.527
0
LINE
8
BLACK
6
CONTINUOUS
10
116.703
20
-81.527
11
116.703
21
-81.527
0
LINE
8
BLACK
6
CONTINUOUS
10
116.703
20
-81.527
11
116.703
21
-81.527
0
LINE
8
BLACK
6
CONTINUOUS
10
116.703
20
-81.527
11
116.702
21
-81.527
0
LINE
8
BLACK
6
CONTINUOUS
10
116.702
20
-81.527
11
116.698
21
-81.5265
0
LINE
8
BLACK
6
CONTINUOUS
10
116.698
20
-81.5265
11
116.693
21
-81.526
0
LINE
8
BLACK
6
CONTINUOUS
10
116.693
20
-81.526
11
116.693
21
-81.5259
0
LINE
8
BLACK
6
CONTINUOUS
10
116.693
20
-81.5259
11
116.693
21
-81.5259
0
LINE
8
BLACK
6
CONTINUOUS
10
116.693
20
-81.5259
11
116.688
21
-81.5245
0
LINE
8
BLACK
6
CONTINUOUS
10
116.688
20
-81.5245
11
116.684
21
-81.5231
0
LINE
8
BLACK
6
CONTINUOUS
10
116.684
20
-81.5231
11
116.683
21
-81.523
0
LINE
8
BLACK
6
CONTINUOUS
10
116.683
20
-81.523
11
116.683
21
-81.523
0
LINE
8
BLACK
6
CONTINUOUS
10
116.683
20
-81.523
11
116.679
21
-81.5207
0
LINE
8
BLACK
6
CONTINUOUS
10
116.679
20
-81.5207
11
116.675
21
-81.5185
0
LINE
8
BLACK
6
CONTINUOUS
10
116.675
20
-81.5185
11
116.675
21
-81.5183
0
LINE
8
BLACK
6
CONTINUOUS
10
116.675
20
-81.5183
11
116.675
21
-81.5183
0
LINE
8
BLACK
6
CONTINUOUS
10
116.675
20
-81.5183
11
116.671
21
-81.5153
0
LINE
8
BLACK
6
CONTINUOUS
10
116.671
20
-81.5153
11
116.668
21
-81.5122
0
LINE
8
BLACK
6
CONTINUOUS
10
116.668
20
-81.5122
11
116.667
21
-81.5121
0
LINE
8
BLACK
6
CONTINUOUS
10
116.667
20
-81.5121
11
116.667
21
-81.512
0
LINE
8
BLACK
6
CONTINUOUS
10
116.667
20
-81.512
11
116.664
21
-81.5084
0
LINE
8
BLACK
6
CONTINUOUS
10
116.664
20
-81.5084
11
116.661
21
-81.5047
0
LINE
8
BLACK
6
CONTINUOUS
10
116.661
20
-81.5047
11
116.661
21
-81.5045
0
LINE
8
BLACK
6
CONTINUOUS
10
116.661
20
-81.5045
11
116.661
21
-81.5044
0
LINE
8
BLACK
6
CONTINUOUS
10
116.661
20
-81.5044
11
116.659
21
-81.5003
0
LINE
8
BLACK
6
CONTINUOUS
10
116.659
20
-81.5003
11
116.657
21
-81.4961
0
LINE
8
BLACK
6
CONTINUOUS
10
116.657
20
-81.4961
11
116.657
21
-81.4959
0
LINE
8
BLACK
6
CONTINUOUS
10
116.657
20
-81.4959
11
116.657
21
-81.4957
0
LINE
8
BLACK
6
CONTINUOUS
10
116.657
20
-81.4957
11
116.655
21
-81.4913
0
LINE
8
BLACK
6
CONTINUOUS
10
116.655
20
-81.4913
11
116.654
21
-81.4867
0
LINE
8
BLACK
6
CONTINUOUS
10
116.654
20
-81.4867
11
116.654
21
-81.4865
0
LINE
8
BLACK
6
CONTINUOUS
10
116.654
20
-81.4865
11
116.654
21
-81.4864
0
LINE
8
BLACK
6
CONTINUOUS
10
116.654
20
-81.4864
11
116.653
21
-81.4817
0
LINE
8
BLACK
6
CONTINUOUS
10
116.653
20
-81.4817
11
116.653
21
-81.477
0
LINE
8
BLACK
6
CONTINUOUS
10
116.653
20
-81.477
11
116.653
21
-80.842
0
LINE
8
BLACK
6
CONTINUOUS
10
116.653
20
-80.842
11
116.653
21
-80.8417
0
LINE
8
BLACK
6
CONTINUOUS
10
116.653
20
-80.8417
11
116.653
21
-80.8417
0
LINE
8
BLACK
6
CONTINUOUS
10
116.653
20
-80.8417
11
116.653
21
-80.8416
0
LINE
8
BLACK
6
CONTINUOUS
10
116.653
20
-80.8416
11
116.653
21
-80.8413
0
LINE
8
BLACK
6
CONTINUOUS
10
116.653
20
-80.8413
11
116.654
21
-80.8367
0
LINE
8
BLACK
6
CONTINUOUS
10
116.654
20
-80.8367
11
116.654
21
-80.8319
0
LINE
8
BLACK
6
CONTINUOUS
10
116.654
20
-80.8319
11
116.654
21
-80.8318
0
LINE
8
BLACK
6
CONTINUOUS
10
116.654
20
-80.8318
11
116.654
21
-80.8316
0
LINE
8
BLACK
6
CONTINUOUS
10
116.654
20
-80.8316
11
116.656
21
-80.8271
0
LINE
8
BLACK
6
CONTINUOUS
10
116.656
20
-80.8271
11
116.657
21
-80.8226
0
LINE
8
BLACK
6
CONTINUOUS
10
116.657
20
-80.8226
11
116.657
21
-80.8225
0
LINE
8
BLACK
6
CONTINUOUS
10
116.657
20
-80.8225
11
116.657
21
-80.8223
0
LINE
8
BLACK
6
CONTINUOUS
10
116.657
20
-80.8223
11
116.659
21
-80.8182
0
LINE
8
BLACK
6
CONTINUOUS
10
116.659
20
-80.8182
11
116.662
21
-80.814
0
LINE
8
BLACK
6
CONTINUOUS
10
116.662
20
-80.814
11
116.662
21
-80.8139
0
LINE
8
BLACK
6
CONTINUOUS
10
116.662
20
-80.8139
11
116.662
21
-80.8138
0
LINE
8
BLACK
6
CONTINUOUS
10
116.662
20
-80.8138
11
116.665
21
-80.8102
0
LINE
8
BLACK
6
CONTINUOUS
10
116.665
20
-80.8102
11
116.668
21
-80.8065
0
LINE
8
BLACK
6
CONTINUOUS
10
116.668
20
-80.8065
11
116.668
21
-80.8064
0
LINE
8
BLACK
6
CONTINUOUS
10
116.668
20
-80.8064
11
116.668
21
-80.8063
0
LINE
8
BLACK
6
CONTINUOUS
10
116.668
20
-80.8063
11
116.672
21
-80.8034
0
LINE
8
BLACK
6
CONTINUOUS
10
116.672
20
-80.8034
11
116.675
21
-80.8004
0
LINE
8
BLACK
6
CONTINUOUS
10
116.675
20
-80.8004
11
116.675
21
-80.8003
0
LINE
8
BLACK
6
CONTINUOUS
10
116.675
20
-80.8003
11
116.676
21
-80.8002
0
LINE
8
BLACK
6
CONTINUOUS
10
116.676
20
-80.8002
11
116.68
21
-80.798
0
LINE
8
BLACK
6
CONTINUOUS
10
116.68
20
-80.798
11
116.684
21
-80.7958
0
LINE
8
BLACK
6
CONTINUOUS
10
116.684
20
-80.7958
11
116.684
21
-80.7957
0
LINE
8
BLACK
6
CONTINUOUS
10
116.684
20
-80.7957
11
116.684
21
-80.7956
0
LINE
8
BLACK
6
CONTINUOUS
10
116.684
20
-80.7956
11
116.689
21
-80.7943
0
LINE
8
BLACK
6
CONTINUOUS
10
116.689
20
-80.7943
11
116.693
21
-80.793
0
LINE
8
BLACK
6
CONTINUOUS
10
116.693
20
-80.793
11
116.693
21
-80.7929
0
LINE
8
BLACK
6
CONTINUOUS
10
116.693
20
-80.7929
11
116.694
21
-80.7929
0
LINE
8
BLACK
6
CONTINUOUS
10
116.694
20
-80.7929
11
116.698
21
-80.7925
0
LINE
8
BLACK
6
CONTINUOUS
10
116.698
20
-80.7925
11
116.703
21
-80.792
0
LINE
8
BLACK
6
CONTINUOUS
10
116.703
20
-80.792
11
117.338
21
-80.792
0
LINE
8
BLACK
6
CONTINUOUS
10
117.338
20
-80.792
11
117.338
21
-80.792
0
LINE
8
BLACK
6
CONTINUOUS
10
103.025
20
-79.1984
11
103.207
21
-79.2738
0
LINE
8
BLACK
6
CONTINUOUS
10
103.207
20
-79.2738
11
103.37
21
-79.3832
0
LINE
8
BLACK
6
CONTINUOUS
10
103.37
20
-79.3832
11
103.51
21
-79.5225
0
LINE
8
BLACK
6
CONTINUOUS
10
103.51
20
-79.5225
11
103.619
21
-79.6863
0
LINE
8
BLACK
6
CONTINUOUS
10
103.619
20
-79.6863
11
103.695
21
-79.8683
0
LINE
8
BLACK
6
CONTINUOUS
10
103.695
20
-79.8683
11
103.733
21
-80.0615
0
LINE
8
BLACK
6
CONTINUOUS
10
103.733
20
-80.0615
11
103.733
21
-80.2585
0
LINE
8
BLACK
6
CONTINUOUS
10
103.733
20
-80.2585
11
103.695
21
-80.4517
0
LINE
8
BLACK
6
CONTINUOUS
10
103.695
20
-80.4517
11
103.619
21
-80.6337
0
LINE
8
BLACK
6
CONTINUOUS
10
103.619
20
-80.6337
11
103.51
21
-80.7975
0
LINE
8
BLACK
6
CONTINUOUS
10
103.51
20
-80.7975
11
103.37
21
-80.9368
0
LINE
8
BLACK
6
CONTINUOUS
10
103.37
20
-80.9368
11
103.207
21
-81.0462
0
LINE
8
BLACK
6
CONTINUOUS
10
103.207
20
-81.0462
11
103.025
21
-81.1216
0
LINE
8
BLACK
6
CONTINUOUS
10
103.025
20
-81.1216
11
102.831
21
-81.16
0
LINE
8
BLACK
6
CONTINUOUS
10
102.831
20
-81.16
11
102.635
21
-81.16
0
LINE
8
BLACK
6
CONTINUOUS
10
102.635
20
-81.16
11
102.441
21
-81.1216
0
LINE
8
BLACK
6
CONTINUOUS
10
102.441
20
-81.1216
11
102.259
21
-81.0462
0
LINE
8
BLACK
6
CONTINUOUS
10
102.259
20
-81.0462
11
102.096
21
-80.9368
0
LINE
8
BLACK
6
CONTINUOUS
10
102.096
20
-80.9368
11
101.956
21
-80.7975
0
LINE
8
BLACK
6
CONTINUOUS
10
101.956
20
-80.7975
11
101.847
21
-80.6337
0
LINE
8
BLACK
6
CONTINUOUS
10
101.847
20
-80.6337
11
101.771
21
-80.4517
0
LINE
8
BLACK
6
CONTINUOUS
10
101.771
20
-80.4517
11
101.733
21
-80.2585
0
LINE
8
BLACK
6
CONTINUOUS
10
101.733
20
-80.2585
11
101.733
21
-80.0615
0
LINE
8
BLACK
6
CONTINUOUS
10
101.733
20
-80.0615
11
101.771
21
-79.8683
0
LINE
8
BLACK
6
CONTINUOUS
10
101.771
20
-79.8683
11
101.847
21
-79.6863
0
LINE
8
BLACK
6
CONTINUOUS
10
101.847
20
-79.6863
11
101.956
21
-79.5225
0
LINE
8
BLACK
6
CONTINUOUS
10
101.956
20
-79.5225
11
102.096
21
-79.3832
0
LINE
8
BLACK
6
CONTINUOUS
10
102.096
20
-79.3832
11
102.259
21
-79.2738
0
LINE
8
BLACK
6
CONTINUOUS
10
102.259
20
-79.2738
11
102.441
21
-79.1984
0
LINE
8
BLACK
6
CONTINUOUS
10
102.441
20
-79.1984
11
102.635
21
-79.16
0
LINE
8
BLACK
6
CONTINUOUS
10
102.635
20
-79.16
11
102.831
21
-79.16
0
LINE
8
BLACK
6
CONTINUOUS
10
102.831
20
-79.16
11
103.025
21
-79.1984
0
LINE
8
BLACK
6
CONTINUOUS
10
100.485
20
-79.1984
11
100.667
21
-79.2738
0
LINE
8
BLACK
6
CONTINUOUS
10
100.667
20
-79.2738
11
100.83
21
-79.3832
0
LINE
8
BLACK
6
CONTINUOUS
10
100.83
20
-79.3832
11
100.97
21
-79.5225
0
LINE
8
BLACK
6
CONTINUOUS
10
100.97
20
-79.5225
11
101.079
21
-79.6863
0
LINE
8
BLACK
6
CONTINUOUS
10
101.079
20
-79.6863
11
101.155
21
-79.8683
0
LINE
8
BLACK
6
CONTINUOUS
10
101.155
20
-79.8683
11
101.193
21
-80.0615
0
LINE
8
BLACK
6
CONTINUOUS
10
101.193
20
-80.0615
11
101.193
21
-80.2585
0
LINE
8
BLACK
6
CONTINUOUS
10
101.193
20
-80.2585
11
101.155
21
-80.4517
0
LINE
8
BLACK
6
CONTINUOUS
10
101.155
20
-80.4517
11
101.079
21
-80.6337
0
LINE
8
BLACK
6
CONTINUOUS
10
101.079
20
-80.6337
11
100.97
21
-80.7975
0
LINE
8
BLACK
6
CONTINUOUS
10
100.97
20
-80.7975
11
100.83
21
-80.9368
0
LINE
8
BLACK
6
CONTINUOUS
10
100.83
20
-80.9368
11
100.667
21
-81.0462
0
LINE
8
BLACK
6
CONTINUOUS
10
100.667
20
-81.0462
11
100.485
21
-81.1216
0
LINE
8
BLACK
6
CONTINUOUS
10
100.485
20
-81.1216
11
100.291
21
-81.16
0
LINE
8
BLACK
6
CONTINUOUS
10
100.291
20
-81.16
11
100.095
21
-81.16
0
LINE
8
BLACK
6
CONTINUOUS
10
100.095
20
-81.16
11
99.9013
21
-81.1216
0
LINE
8
BLACK
6
CONTINUOUS
10
99.9013
20
-81.1216
11
99.7193
21
-81.0462
0
LINE
8
BLACK
6
CONTINUOUS
10
99.7193
20
-81.0462
11
99.5555
21
-80.9368
0
LINE
8
BLACK
6
CONTINUOUS
10
99.5555
20
-80.9368
11
99.4162
21
-80.7975
0
LINE
8
BLACK
6
CONTINUOUS
10
99.4162
20
-80.7975
11
99.3068
21
-80.6337
0
LINE
8
BLACK
6
CONTINUOUS
10
99.3068
20
-80.6337
11
99.2314
21
-80.4517
0
LINE
8
BLACK
6
CONTINUOUS
10
99.2314
20
-80.4517
11
99.193
21
-80.2585
0
LINE
8
BLACK
6
CONTINUOUS
10
99.193
20
-80.2585
11
99.193
21
-80.0615
0
LINE
8
BLACK
6
CONTINUOUS
10
99.193
20
-80.0615
11
99.2314
21
-79.8683
0
LINE
8
BLACK
6
CONTINUOUS
10
99.2314
20
-79.8683
11
99.3068
21
-79.6863
0
LINE
8
BLACK
6
CONTINUOUS
10
99.3068
20
-79.6863
11
99.4162
21
-79.5225
0
LINE
8
BLACK
6
CONTINUOUS
10
99.4162
20
-79.5225
11
99.5555
21
-79.3832
0
LINE
8
BLACK
6
CONTINUOUS
10
99.5555
20
-79.3832
11
99.7193
21
-79.2738
0
LINE
8
BLACK
6
CONTINUOUS
10
99.7193
20
-79.2738
11
99.9013
21
-79.1984
0
LINE
8
BLACK
6
CONTINUOUS
10
99.9013
20
-79.1984
11
100.095
21
-79.16
0
LINE
8
BLACK
6
CONTINUOUS
10
100.095
20
-79.16
11
100.291
21
-79.16
0
LINE
8
BLACK
6
CONTINUOUS
10
100.291
20
-79.16
11
100.485
21
-79.1984
0
LINE
8
BLACK
6
CONTINUOUS
10
90.3247
20
-79.1984
11
90.5067
21
-79.2738
0
LINE
8
BLACK
6
CONTINUOUS
10
90.5067
20
-79.2738
11
90.6705
21
-79.3832
0
LINE
8
BLACK
6
CONTINUOUS
10
90.6705
20
-79.3832
11
90.8098
21
-79.5225
0
LINE
8
BLACK
6
CONTINUOUS
10
90.8098
20
-79.5225
11
90.9192
21
-79.6863
0
LINE
8
BLACK
6
CONTINUOUS
10
90.9192
20
-79.6863
11
90.9946
21
-79.8683
0
LINE
8
BLACK
6
CONTINUOUS
10
90.9946
20
-79.8683
11
91.033
21
-80.0615
0
LINE
8
BLACK
6
CONTINUOUS
10
91.033
20
-80.0615
11
91.033
21
-80.2585
0
LINE
8
BLACK
6
CONTINUOUS
10
91.033
20
-80.2585
11
90.9946
21
-80.4517
0
LINE
8
BLACK
6
CONTINUOUS
10
90.9946
20
-80.4517
11
90.9192
21
-80.6337
0
LINE
8
BLACK
6
CONTINUOUS
10
90.9192
20
-80.6337
11
90.8098
21
-80.7975
0
LINE
8
BLACK
6
CONTINUOUS
10
90.8098
20
-80.7975
11
90.6705
21
-80.9368
0
LINE
8
BLACK
6
CONTINUOUS
10
90.6705
20
-80.9368
11
90.5067
21
-81.0462
0
LINE
8
BLACK
6
CONTINUOUS
10
90.5067
20
-81.0462
11
90.3247
21
-81.1216
0
LINE
8
BLACK
6
CONTINUOUS
10
90.3247
20
-81.1216
11
90.1315
21
-81.16
0
LINE
8
BLACK
6
CONTINUOUS
10
90.1315
20
-81.16
11
89.9345
21
-81.16
0
LINE
8
BLACK
6
CONTINUOUS
10
89.9345
20
-81.16
11
89.7413
21
-81.1216
0
LINE
8
BLACK
6
CONTINUOUS
10
89.7413
20
-81.1216
11
89.5593
21
-81.0462
0
LINE
8
BLACK
6
CONTINUOUS
10
89.5593
20
-81.0462
11
89.3955
21
-80.9368
0
LINE
8
BLACK
6
CONTINUOUS
10
89.3955
20
-80.9368
11
89.2562
21
-80.7975
0
LINE
8
BLACK
6
CONTINUOUS
10
89.2562
20
-80.7975
11
89.1468
21
-80.6337
0
LINE
8
BLACK
6
CONTINUOUS
10
89.1468
20
-80.6337
11
89.0714
21
-80.4517
0
LINE
8
BLACK
6
CONTINUOUS
10
89.0714
20
-80.4517
11
89.033
21
-80.2585
0
LINE
8
BLACK
6
CONTINUOUS
10
89.033
20
-80.2585
11
89.033
21
-80.0615
0
LINE
8
BLACK
6
CONTINUOUS
10
89.033
20
-80.0615
11
89.0714
21
-79.8683
0
LINE
8
BLACK
6
CONTINUOUS
10
89.0714
20
-79.8683
11
89.1468
21
-79.6863
0
LINE
8
BLACK
6
CONTINUOUS
10
89.1468
20
-79.6863
11
89.2562
21
-79.5225
0
LINE
8
BLACK
6
CONTINUOUS
10
89.2562
20
-79.5225
11
89.3955
21
-79.3832
0
LINE
8
BLACK
6
CONTINUOUS
10
89.3955
20
-79.3832
11
89.5593
21
-79.2738
0
LINE
8
BLACK
6
CONTINUOUS
10
89.5593
20
-79.2738
11
89.7413
21
-79.1984
0
LINE
8
BLACK
6
CONTINUOUS
10
89.7413
20
-79.1984
11
89.9345
21
-79.16
0
LINE
8
BLACK
6
CONTINUOUS
10
89.9345
20
-79.16
11
90.1315
21
-79.16
0
LINE
8
BLACK
6
CONTINUOUS
10
90.1315
20
-79.16
11
90.3247
21
-79.1984
0
LINE
8
BLACK
6
CONTINUOUS
10
97.9447
20
-79.1984
11
98.1267
21
-79.2738
0
LINE
8
BLACK
6
CONTINUOUS
10
98.1267
20
-79.2738
11
98.2905
21
-79.3832
0
LINE
8
BLACK
6
CONTINUOUS
10
98.2905
20
-79.3832
11
98.4298
21
-79.5225
0
LINE
8
BLACK
6
CONTINUOUS
10
98.4298
20
-79.5225
11
98.5392
21
-79.6863
0
LINE
8
BLACK
6
CONTINUOUS
10
98.5392
20
-79.6863
11
98.6146
21
-79.8683
0
LINE
8
BLACK
6
CONTINUOUS
10
98.6146
20
-79.8683
11
98.653
21
-80.0615
0
LINE
8
BLACK
6
CONTINUOUS
10
98.653
20
-80.0615
11
98.653
21
-80.2585
0
LINE
8
BLACK
6
CONTINUOUS
10
98.653
20
-80.2585
11
98.6146
21
-80.4517
0
LINE
8
BLACK
6
CONTINUOUS
10
98.6146
20
-80.4517
11
98.5392
21
-80.6337
0
LINE
8
BLACK
6
CONTINUOUS
10
98.5392
20
-80.6337
11
98.4298
21
-80.7975
0
LINE
8
BLACK
6
CONTINUOUS
10
98.4298
20
-80.7975
11
98.2905
21
-80.9368
0
LINE
8
BLACK
6
CONTINUOUS
10
98.2905
20
-80.9368
11
98.1267
21
-81.0462
0
LINE
8
BLACK
6
CONTINUOUS
10
98.1267
20
-81.0462
11
97.9447
21
-81.1216
0
LINE
8
BLACK
6
CONTINUOUS
10
97.9447
20
-81.1216
11
97.7515
21
-81.16
0
LINE
8
BLACK
6
CONTINUOUS
10
97.7515
20
-81.16
11
97.5545
21
-81.16
0
LINE
8
BLACK
6
CONTINUOUS
10
97.5545
20
-81.16
11
97.3613
21
-81.1216
0
LINE
8
BLACK
6
CONTINUOUS
10
97.3613
20
-81.1216
11
97.1793
21
-81.0462
0
LINE
8
BLACK
6
CONTINUOUS
10
97.1793
20
-81.0462
11
97.0155
21
-80.9368
0
LINE
8
BLACK
6
CONTINUOUS
10
97.0155
20
-80.9368
11
96.8762
21
-80.7975
0
LINE
8
BLACK
6
CONTINUOUS
10
96.8762
20
-80.7975
11
96.7668
21
-80.6337
0
LINE
8
BLACK
6
CONTINUOUS
10
96.7668
20
-80.6337
11
96.6914
21
-80.4517
0
LINE
8
BLACK
6
CONTINUOUS
10
96.6914
20
-80.4517
11
96.653
21
-80.2585
0
LINE
8
BLACK
6
CONTINUOUS
10
96.653
20
-80.2585
11
96.653
21
-80.0615
0
LINE
8
BLACK
6
CONTINUOUS
10
96.653
20
-80.0615
11
96.6914
21
-79.8683
0
LINE
8
BLACK
6
CONTINUOUS
10
96.6914
20
-79.8683
11
96.7668
21
-79.6863
0
LINE
8
BLACK
6
CONTINUOUS
10
96.7668
20
-79.6863
11
96.8762
21
-79.5225
0
LINE
8
BLACK
6
CONTINUOUS
10
96.8762
20
-79.5225
11
97.0155
21
-79.3832
0
LINE
8
BLACK
6
CONTINUOUS
10
97.0155
20
-79.3832
11
97.1793
21
-79.2738
0
LINE
8
BLACK
6
CONTINUOUS
10
97.1793
20
-79.2738
11
97.3613
21
-79.1984
0
LINE
8
BLACK
6
CONTINUOUS
10
97.3613
20
-79.1984
11
97.5545
21
-79.16
0
LINE
8
BLACK
6
CONTINUOUS
10
97.5545
20
-79.16
11
97.7515
21
-79.16
0
LINE
8
BLACK
6
CONTINUOUS
10
97.7515
20
-79.16
11
97.9447
21
-79.1984
0
LINE
8
BLACK
6
CONTINUOUS
10
92.8647
20
-79.1984
11
93.0467
21
-79.2738
0
LINE
8
BLACK
6
CONTINUOUS
10
93.0467
20
-79.2738
11
93.2105
21
-79.3832
0
LINE
8
BLACK
6
CONTINUOUS
10
93.2105
20
-79.3832
11
93.3498
21
-79.5225
0
LINE
8
BLACK
6
CONTINUOUS
10
93.3498
20
-79.5225
11
93.4592
21
-79.6863
0
LINE
8
BLACK
6
CONTINUOUS
10
93.4592
20
-79.6863
11
93.5346
21
-79.8683
0
LINE
8
BLACK
6
CONTINUOUS
10
93.5346
20
-79.8683
11
93.573
21
-80.0615
0
LINE
8
BLACK
6
CONTINUOUS
10
93.573
20
-80.0615
11
93.573
21
-80.2585
0
LINE
8
BLACK
6
CONTINUOUS
10
93.573
20
-80.2585
11
93.5346
21
-80.4517
0
LINE
8
BLACK
6
CONTINUOUS
10
93.5346
20
-80.4517
11
93.4592
21
-80.6337
0
LINE
8
BLACK
6
CONTINUOUS
10
93.4592
20
-80.6337
11
93.3498
21
-80.7975
0
LINE
8
BLACK
6
CONTINUOUS
10
93.3498
20
-80.7975
11
93.2105
21
-80.9368
0
LINE
8
BLACK
6
CONTINUOUS
10
93.2105
20
-80.9368
11
93.0467
21
-81.0462
0
LINE
8
BLACK
6
CONTINUOUS
10
93.0467
20
-81.0462
11
92.8647
21
-81.1216
0
LINE
8
BLACK
6
CONTINUOUS
10
92.8647
20
-81.1216
11
92.6715
21
-81.16
0
LINE
8
BLACK
6
CONTINUOUS
10
92.6715
20
-81.16
11
92.4745
21
-81.16
0
LINE
8
BLACK
6
CONTINUOUS
10
92.4745
20
-81.16
11
92.2813
21
-81.1216
0
LINE
8
BLACK
6
CONTINUOUS
10
92.2813
20
-81.1216
11
92.0993
21
-81.0462
0
LINE
8
BLACK
6
CONTINUOUS
10
92.0993
20
-81.0462
11
91.9355
21
-80.9368
0
LINE
8
BLACK
6
CONTINUOUS
10
91.9355
20
-80.9368
11
91.7962
21
-80.7975
0
LINE
8
BLACK
6
CONTINUOUS
10
91.7962
20
-80.7975
11
91.6868
21
-80.6337
0
LINE
8
BLACK
6
CONTINUOUS
10
91.6868
20
-80.6337
11
91.6114
21
-80.4517
0
LINE
8
BLACK
6
CONTINUOUS
10
91.6114
20
-80.4517
11
91.573
21
-80.2585
0
LINE
8
BLACK
6
CONTINUOUS
10
91.573
20
-80.2585
11
91.573
21
-80.0615
0
LINE
8
BLACK
6
CONTINUOUS
10
91.573
20
-80.0615
11
91.6114
21
-79.8683
0
LINE
8
BLACK
6
CONTINUOUS
10
91.6114
20
-79.8683
11
91.6868
21
-79.6863
0
LINE
8
BLACK
6
CONTINUOUS
10
91.6868
20
-79.6863
11
91.7962
21
-79.5225
0
LINE
8
BLACK
6
CONTINUOUS
10
91.7962
20
-79.5225
11
91.9355
21
-79.3832
0
LINE
8
BLACK
6
CONTINUOUS
10
91.9355
20
-79.3832
11
92.0993
21
-79.2738
0
LINE
8
BLACK
6
CONTINUOUS
10
92.0993
20
-79.2738
11
92.2813
21
-79.1984
0
LINE
8
BLACK
6
CONTINUOUS
10
92.2813
20
-79.1984
11
92.4745
21
-79.16
0
LINE
8
BLACK
6
CONTINUOUS
10
92.4745
20
-79.16
11
92.6715
21
-79.16
0
LINE
8
BLACK
6
CONTINUOUS
10
92.6715
20
-79.16
11
92.8647
21
-79.1984
0
LINE
8
BLACK
6
CONTINUOUS
10
95.4047
20
-79.1984
11
95.5867
21
-79.2738
0
LINE
8
BLACK
6
CONTINUOUS
10
95.5867
20
-79.2738
11
95.7505
21
-79.3832
0
LINE
8
BLACK
6
CONTINUOUS
10
95.7505
20
-79.3832
11
95.8898
21
-79.5225
0
LINE
8
BLACK
6
CONTINUOUS
10
95.8898
20
-79.5225
11
95.9992
21
-79.6863
0
LINE
8
BLACK
6
CONTINUOUS
10
95.9992
20
-79.6863
11
96.0746
21
-79.8683
0
LINE
8
BLACK
6
CONTINUOUS
10
96.0746
20
-79.8683
11
96.113
21
-80.0615
0
LINE
8
BLACK
6
CONTINUOUS
10
96.113
20
-80.0615
11
96.113
21
-80.2585
0
LINE
8
BLACK
6
CONTINUOUS
10
96.113
20
-80.2585
11
96.0746
21
-80.4517
0
LINE
8
BLACK
6
CONTINUOUS
10
96.0746
20
-80.4517
11
95.9992
21
-80.6337
0
LINE
8
BLACK
6
CONTINUOUS
10
95.9992
20
-80.6337
11
95.8898
21
-80.7975
0
LINE
8
BLACK
6
CONTINUOUS
10
95.8898
20
-80.7975
11
95.7505
21
-80.9368
0
LINE
8
BLACK
6
CONTINUOUS
10
95.7505
20
-80.9368
11
95.5867
21
-81.0462
0
LINE
8
BLACK
6
CONTINUOUS
10
95.5867
20
-81.0462
11
95.4047
21
-81.1216
0
LINE
8
BLACK
6
CONTINUOUS
10
95.4047
20
-81.1216
11
95.2115
21
-81.16
0
LINE
8
BLACK
6
CONTINUOUS
10
95.2115
20
-81.16
11
95.0145
21
-81.16
0
LINE
8
BLACK
6
CONTINUOUS
10
95.0145
20
-81.16
11
94.8213
21
-81.1216
0
LINE
8
BLACK
6
CONTINUOUS
10
94.8213
20
-81.1216
11
94.6393
21
-81.0462
0
LINE
8
BLACK
6
CONTINUOUS
10
94.6393
20
-81.0462
11
94.4755
21
-80.9368
0
LINE
8
BLACK
6
CONTINUOUS
10
94.4755
20
-80.9368
11
94.3362
21
-80.7975
0
LINE
8
BLACK
6
CONTINUOUS
10
94.3362
20
-80.7975
11
94.2268
21
-80.6337
0
LINE
8
BLACK
6
CONTINUOUS
10
94.2268
20
-80.6337
11
94.1514
21
-80.4517
0
LINE
8
BLACK
6
CONTINUOUS
10
94.1514
20
-80.4517
11
94.113
21
-80.2585
0
LINE
8
BLACK
6
CONTINUOUS
10
94.113
20
-80.2585
11
94.113
21
-80.0615
0
LINE
8
BLACK
6
CONTINUOUS
10
94.113
20
-80.0615
11
94.1514
21
-79.8683
0
LINE
8
BLACK
6
CONTINUOUS
10
94.1514
20
-79.8683
11
94.2268
21
-79.6863
0
LINE
8
BLACK
6
CONTINUOUS
10
94.2268
20
-79.6863
11
94.3362
21
-79.5225
0
LINE
8
BLACK
6
CONTINUOUS
10
94.3362
20
-79.5225
11
94.4755
21
-79.3832
0
LINE
8
BLACK
6
CONTINUOUS
10
94.4755
20
-79.3832
11
94.6393
21
-79.2738
0
LINE
8
BLACK
6
CONTINUOUS
10
94.6393
20
-79.2738
11
94.8213
21
-79.1984
0
LINE
8
BLACK
6
CONTINUOUS
10
94.8213
20
-79.1984
11
95.0145
21
-79.16
0
LINE
8
BLACK
6
CONTINUOUS
10
95.0145
20
-79.16
11
95.2115
21
-79.16
0
LINE
8
BLACK
6
CONTINUOUS
10
95.2115
20
-79.16
11
95.4047
21
-79.1984
0
LINE
8
BLACK
6
CONTINUOUS
10
117.973
20
-79.522
11
117.973
21
-79.522
0
LINE
8
BLACK
6
CONTINUOUS
10
117.973
20
-79.522
11
117.973
21
-79.522
0
LINE
8
BLACK
6
CONTINUOUS
10
117.973
20
-79.522
11
117.974
21
-79.522
0
LINE
8
BLACK
6
CONTINUOUS
10
117.974
20
-79.522
11
117.978
21
-79.5225
0
LINE
8
BLACK
6
CONTINUOUS
10
117.978
20
-79.5225
11
117.983
21
-79.523
0
LINE
8
BLACK
6
CONTINUOUS
10
117.983
20
-79.523
11
117.983
21
-79.5231
0
LINE
8
BLACK
6
CONTINUOUS
10
117.983
20
-79.5231
11
117.983
21
-79.5231
0
LINE
8
BLACK
6
CONTINUOUS
10
117.983
20
-79.5231
11
117.988
21
-79.5245
0
LINE
8
BLACK
6
CONTINUOUS
10
117.988
20
-79.5245
11
117.992
21
-79.5259
0
LINE
8
BLACK
6
CONTINUOUS
10
117.992
20
-79.5259
11
117.993
21
-79.526
0
LINE
8
BLACK
6
CONTINUOUS
10
117.993
20
-79.526
11
117.993
21
-79.526
0
LINE
8
BLACK
6
CONTINUOUS
10
117.993
20
-79.526
11
117.997
21
-79.5283
0
LINE
8
BLACK
6
CONTINUOUS
10
117.997
20
-79.5283
11
118.001
21
-79.5305
0
LINE
8
BLACK
6
CONTINUOUS
10
118.001
20
-79.5305
11
118.001
21
-79.5307
0
LINE
8
BLACK
6
CONTINUOUS
10
118.001
20
-79.5307
11
118.001
21
-79.5307
0
LINE
8
BLACK
6
CONTINUOUS
10
118.001
20
-79.5307
11
118.005
21
-79.5337
0
LINE
8
BLACK
6
CONTINUOUS
10
118.005
20
-79.5337
11
118.008
21
-79.5368
0
LINE
8
BLACK
6
CONTINUOUS
10
118.008
20
-79.5368
11
118.009
21
-79.5369
0
LINE
8
BLACK
6
CONTINUOUS
10
118.009
20
-79.5369
11
118.009
21
-79.537
0
LINE
8
BLACK
6
CONTINUOUS
10
118.009
20
-79.537
11
118.012
21
-79.5406
0
LINE
8
BLACK
6
CONTINUOUS
10
118.012
20
-79.5406
11
118.015
21
-79.5443
0
LINE
8
BLACK
6
CONTINUOUS
10
118.015
20
-79.5443
11
118.015
21
-79.5445
0
LINE
8
BLACK
6
CONTINUOUS
10
118.015
20
-79.5445
11
118.015
21
-79.5446
0
LINE
8
BLACK
6
CONTINUOUS
10
118.015
20
-79.5446
11
118.017
21
-79.5487
0
LINE
8
BLACK
6
CONTINUOUS
10
118.017
20
-79.5487
11
118.019
21
-79.5529
0
LINE
8
BLACK
6
CONTINUOUS
10
118.019
20
-79.5529
11
118.019
21
-79.5531
0
LINE
8
BLACK
6
CONTINUOUS
10
118.019
20
-79.5531
11
118.019
21
-79.5533
0
LINE
8
BLACK
6
CONTINUOUS
10
118.019
20
-79.5533
11
118.021
21
-79.5577
0
LINE
8
BLACK
6
CONTINUOUS
10
118.021
20
-79.5577
11
118.022
21
-79.5623
0
LINE
8
BLACK
6
CONTINUOUS
10
118.022
20
-79.5623
11
118.022
21
-79.5625
0
LINE
8
BLACK
6
CONTINUOUS
10
118.022
20
-79.5625
11
118.022
21
-79.5626
0
LINE
8
BLACK
6
CONTINUOUS
10
118.022
20
-79.5626
11
118.023
21
-79.5673
0
LINE
8
BLACK
6
CONTINUOUS
10
118.023
20
-79.5673
11
118.023
21
-79.572
0
LINE
8
BLACK
6
CONTINUOUS
10
118.023
20
-79.572
11
118.023
21
-80.207
0
LINE
8
BLACK
6
CONTINUOUS
10
118.023
20
-80.207
11
118.023
21
-80.2073
0
LINE
8
BLACK
6
CONTINUOUS
10
118.023
20
-80.2073
11
118.023
21
-80.2073
0
LINE
8
BLACK
6
CONTINUOUS
10
118.023
20
-80.2073
11
118.023
21
-80.2074
0
LINE
8
BLACK
6
CONTINUOUS
10
118.023
20
-80.2074
11
118.023
21
-80.2077
0
LINE
8
BLACK
6
CONTINUOUS
10
118.023
20
-80.2077
11
118.022
21
-80.2123
0
LINE
8
BLACK
6
CONTINUOUS
10
118.022
20
-80.2123
11
118.022
21
-80.2171
0
LINE
8
BLACK
6
CONTINUOUS
10
118.022
20
-80.2171
11
118.022
21
-80.2172
0
LINE
8
BLACK
6
CONTINUOUS
10
118.022
20
-80.2172
11
118.022
21
-80.2174
0
LINE
8
BLACK
6
CONTINUOUS
10
118.022
20
-80.2174
11
118.02
21
-80.2219
0
LINE
8
BLACK
6
CONTINUOUS
10
118.02
20
-80.2219
11
118.019
21
-80.2264
0
LINE
8
BLACK
6
CONTINUOUS
10
118.019
20
-80.2264
11
118.019
21
-80.2265
0
LINE
8
BLACK
6
CONTINUOUS
10
118.019
20
-80.2265
11
118.019
21
-80.2267
0
LINE
8
BLACK
6
CONTINUOUS
10
118.019
20
-80.2267
11
118.017
21
-80.2308
0
LINE
8
BLACK
6
CONTINUOUS
10
118.017
20
-80.2308
11
118.014
21
-80.235
0
LINE
8
BLACK
6
CONTINUOUS
10
118.014
20
-80.235
11
118.014
21
-80.2351
0
LINE
8
BLACK
6
CONTINUOUS
10
118.014
20
-80.2351
11
118.014
21
-80.2352
0
LINE
8
BLACK
6
CONTINUOUS
10
118.014
20
-80.2352
11
118.011
21
-80.2388
0
LINE
8
BLACK
6
CONTINUOUS
10
118.011
20
-80.2388
11
118.008
21
-80.2425
0
LINE
8
BLACK
6
CONTINUOUS
10
118.008
20
-80.2425
11
118.008
21
-80.2426
0
LINE
8
BLACK
6
CONTINUOUS
10
118.008
20
-80.2426
11
118.008
21
-80.2427
0
LINE
8
BLACK
6
CONTINUOUS
10
118.008
20
-80.2427
11
118.004
21
-80.2456
0
LINE
8
BLACK
6
CONTINUOUS
10
118.004
20
-80.2456
11
118.001
21
-80.2486
0
LINE
8
BLACK
6
CONTINUOUS
10
118.001
20
-80.2486
11
118.001
21
-80.2487
0
LINE
8
BLACK
6
CONTINUOUS
10
118.001
20
-80.2487
11
118
21
-80.2488
0
LINE
8
BLACK
6
CONTINUOUS
10
118
20
-80.2488
11
117.996
21
-80.251
0
LINE
8
BLACK
6
CONTINUOUS
10
117.996
20
-80.251
11
117.992
21
-80.2532
0
LINE
8
BLACK
6
CONTINUOUS
10
117.992
20
-80.2532
11
117.992
21
-80.2533
0
LINE
8
BLACK
6
CONTINUOUS
10
117.992
20
-80.2533
11
117.992
21
-80.2534
0
LINE
8
BLACK
6
CONTINUOUS
10
117.992
20
-80.2534
11
117.987
21
-80.2547
0
LINE
8
BLACK
6
CONTINUOUS
10
117.987
20
-80.2547
11
117.983
21
-80.256
0
LINE
8
BLACK
6
CONTINUOUS
10
117.983
20
-80.256
11
117.983
21
-80.2561
0
LINE
8
BLACK
6
CONTINUOUS
10
117.983
20
-80.2561
11
117.982
21
-80.2561
0
LINE
8
BLACK
6
CONTINUOUS
10
117.982
20
-80.2561
11
117.978
21
-80.2565
0
LINE
8
BLACK
6
CONTINUOUS
10
117.978
20
-80.2565
11
117.973
21
-80.257
0
LINE
8
BLACK
6
CONTINUOUS
10
117.973
20
-80.257
11
117.338
21
-80.257
0
LINE
8
BLACK
6
CONTINUOUS
10
117.338
20
-80.257
11
117.338
21
-80.257
0
LINE
8
BLACK
6
CONTINUOUS
10
117.338
20
-80.257
11
117.338
21
-80.257
0
LINE
8
BLACK
6
CONTINUOUS
10
117.338
20
-80.257
11
117.338
21
-80.257
0
LINE
8
BLACK
6
CONTINUOUS
10
117.338
20
-80.257
11
117.337
21
-80.257
0
LINE
8
BLACK
6
CONTINUOUS
10
117.337
20
-80.257
11
117.333
21
-80.2565
0
LINE
8
BLACK
6
CONTINUOUS
10
117.333
20
-80.2565
11
117.328
21
-80.256
0
LINE
8
BLACK
6
CONTINUOUS
10
117.328
20
-80.256
11
117.328
21
-80.2559
0
LINE
8
BLACK
6
CONTINUOUS
10
117.328
20
-80.2559
11
117.328
21
-80.2559
0
LINE
8
BLACK
6
CONTINUOUS
10
117.328
20
-80.2559
11
117.323
21
-80.2545
0
LINE
8
BLACK
6
CONTINUOUS
10
117.323
20
-80.2545
11
117.319
21
-80.2531
0
LINE
8
BLACK
6
CONTINUOUS
10
117.319
20
-80.2531
11
117.318
21
-80.253
0
LINE
8
BLACK
6
CONTINUOUS
10
117.318
20
-80.253
11
117.318
21
-80.253
0
LINE
8
BLACK
6
CONTINUOUS
10
117.318
20
-80.253
11
117.314
21
-80.2507
0
LINE
8
BLACK
6
CONTINUOUS
10
117.314
20
-80.2507
11
117.31
21
-80.2485
0
LINE
8
BLACK
6
CONTINUOUS
10
117.31
20
-80.2485
11
117.31
21
-80.2483
0
LINE
8
BLACK
6
CONTINUOUS
10
117.31
20
-80.2483
11
117.31
21
-80.2483
0
LINE
8
BLACK
6
CONTINUOUS
10
117.31
20
-80.2483
11
117.306
21
-80.2453
0
LINE
8
BLACK
6
CONTINUOUS
10
117.306
20
-80.2453
11
117.303
21
-80.2422
0
LINE
8
BLACK
6
CONTINUOUS
10
117.303
20
-80.2422
11
117.302
21
-80.2421
0
LINE
8
BLACK
6
CONTINUOUS
10
117.302
20
-80.2421
11
117.302
21
-80.242
0
LINE
8
BLACK
6
CONTINUOUS
10
117.302
20
-80.242
11
117.299
21
-80.2384
0
LINE
8
BLACK
6
CONTINUOUS
10
117.299
20
-80.2384
11
117.296
21
-80.2347
0
LINE
8
BLACK
6
CONTINUOUS
10
117.296
20
-80.2347
11
117.296
21
-80.2345
0
LINE
8
BLACK
6
CONTINUOUS
10
117.296
20
-80.2345
11
117.296
21
-80.2344
0
LINE
8
BLACK
6
CONTINUOUS
10
117.296
20
-80.2344
11
117.294
21
-80.2303
0
LINE
8
BLACK
6
CONTINUOUS
10
117.294
20
-80.2303
11
117.292
21
-80.2261
0
LINE
8
BLACK
6
CONTINUOUS
10
117.292
20
-80.2261
11
117.292
21
-80.2259
0
LINE
8
BLACK
6
CONTINUOUS
10
117.292
20
-80.2259
11
117.292
21
-80.2257
0
LINE
8
BLACK
6
CONTINUOUS
10
117.292
20
-80.2257
11
117.29
21
-80.2213
0
LINE
8
BLACK
6
CONTINUOUS
10
117.29
20
-80.2213
11
117.289
21
-80.2167
0
LINE
8
BLACK
6
CONTINUOUS
10
117.289
20
-80.2167
11
117.289
21
-80.2165
0
LINE
8
BLACK
6
CONTINUOUS
10
117.289
20
-80.2165
11
117.289
21
-80.2164
0
LINE
8
BLACK
6
CONTINUOUS
10
117.289
20
-80.2164
11
117.288
21
-80.2117
0
LINE
8
BLACK
6
CONTINUOUS
10
117.288
20
-80.2117
11
117.288
21
-80.207
0
LINE
8
BLACK
6
CONTINUOUS
10
117.288
20
-80.207
11
117.288
21
-79.572
0
LINE
8
BLACK
6
CONTINUOUS
10
117.288
20
-79.572
11
117.288
21
-79.5717
0
LINE
8
BLACK
6
CONTINUOUS
10
117.288
20
-79.5717
11
117.288
21
-79.5717
0
LINE
8
BLACK
6
CONTINUOUS
10
117.288
20
-79.5717
11
117.288
21
-79.5716
0
LINE
8
BLACK
6
CONTINUOUS
10
117.288
20
-79.5716
11
117.288
21
-79.5713
0
LINE
8
BLACK
6
CONTINUOUS
10
117.288
20
-79.5713
11
117.289
21
-79.5667
0
LINE
8
BLACK
6
CONTINUOUS
10
117.289
20
-79.5667
11
117.289
21
-79.5619
0
LINE
8
BLACK
6
CONTINUOUS
10
117.289
20
-79.5619
11
117.289
21
-79.5618
0
LINE
8
BLACK
6
CONTINUOUS
10
117.289
20
-79.5618
11
117.289
21
-79.5616
0
LINE
8
BLACK
6
CONTINUOUS
10
117.289
20
-79.5616
11
117.291
21
-79.5571
0
LINE
8
BLACK
6
CONTINUOUS
10
117.291
20
-79.5571
11
117.292
21
-79.5526
0
LINE
8
BLACK
6
CONTINUOUS
10
117.292
20
-79.5526
11
117.292
21
-79.5525
0
LINE
8
BLACK
6
CONTINUOUS
10
117.292
20
-79.5525
11
117.292
21
-79.5523
0
LINE
8
BLACK
6
CONTINUOUS
10
117.292
20
-79.5523
11
117.294
21
-79.5482
0
LINE
8
BLACK
6
CONTINUOUS
10
117.294
20
-79.5482
11
117.297
21
-79.544
0
LINE
8
BLACK
6
CONTINUOUS
10
117.297
20
-79.544
11
117.297
21
-79.5439
0
LINE
8
BLACK
6
CONTINUOUS
10
117.297
20
-79.5439
11
117.297
21
-79.5438
0
LINE
8
BLACK
6
CONTINUOUS
10
117.297
20
-79.5438
11
117.3
21
-79.5402
0
LINE
8
BLACK
6
CONTINUOUS
10
117.3
20
-79.5402
11
117.303
21
-79.5365
0
LINE
8
BLACK
6
CONTINUOUS
10
117.303
20
-79.5365
11
117.303
21
-79.5364
0
LINE
8
BLACK
6
CONTINUOUS
10
117.303
20
-79.5364
11
117.303
21
-79.5363
0
LINE
8
BLACK
6
CONTINUOUS
10
117.303
20
-79.5363
11
117.307
21
-79.5334
0
LINE
8
BLACK
6
CONTINUOUS
10
117.307
20
-79.5334
11
117.31
21
-79.5304
0
LINE
8
BLACK
6
CONTINUOUS
10
117.31
20
-79.5304
11
117.31
21
-79.5303
0
LINE
8
BLACK
6
CONTINUOUS
10
117.31
20
-79.5303
11
117.311
21
-79.5302
0
LINE
8
BLACK
6
CONTINUOUS
10
117.311
20
-79.5302
11
117.315
21
-79.528
0
LINE
8
BLACK
6
CONTINUOUS
10
117.315
20
-79.528
11
117.319
21
-79.5258
0
LINE
8
BLACK
6
CONTINUOUS
10
117.319
20
-79.5258
11
117.319
21
-79.5257
0
LINE
8
BLACK
6
CONTINUOUS
10
117.319
20
-79.5257
11
117.319
21
-79.5256
0
LINE
8
BLACK
6
CONTINUOUS
10
117.319
20
-79.5256
11
117.324
21
-79.5243
0
LINE
8
BLACK
6
CONTINUOUS
10
117.324
20
-79.5243
11
117.328
21
-79.523
0
LINE
8
BLACK
6
CONTINUOUS
10
117.328
20
-79.523
11
117.328
21
-79.5229
0
LINE
8
BLACK
6
CONTINUOUS
10
117.328
20
-79.5229
11
117.329
21
-79.5229
0
LINE
8
BLACK
6
CONTINUOUS
10
117.329
20
-79.5229
11
117.333
21
-79.5225
0
LINE
8
BLACK
6
CONTINUOUS
10
117.333
20
-79.5225
11
117.338
21
-79.522
0
LINE
8
BLACK
6
CONTINUOUS
10
117.338
20
-79.522
11
117.973
21
-79.522
0
LINE
8
BLACK
6
CONTINUOUS
10
117.973
20
-79.522
11
117.973
21
-79.522
0
LINE
8
BLACK
6
CONTINUOUS
10
113.528
20
-78.887
11
113.528
21
-78.887
0
LINE
8
BLACK
6
CONTINUOUS
10
113.528
20
-78.887
11
113.528
21
-78.887
0
LINE
8
BLACK
6
CONTINUOUS
10
113.528
20
-78.887
11
113.529
21
-78.887
0
LINE
8
BLACK
6
CONTINUOUS
10
113.529
20
-78.887
11
113.533
21
-78.8875
0
LINE
8
BLACK
6
CONTINUOUS
10
113.533
20
-78.8875
11
113.538
21
-78.888
0
LINE
8
BLACK
6
CONTINUOUS
10
113.538
20
-78.888
11
113.538
21
-78.8881
0
LINE
8
BLACK
6
CONTINUOUS
10
113.538
20
-78.8881
11
113.538
21
-78.8881
0
LINE
8
BLACK
6
CONTINUOUS
10
113.538
20
-78.8881
11
113.543
21
-78.8895
0
LINE
8
BLACK
6
CONTINUOUS
10
113.543
20
-78.8895
11
113.547
21
-78.8909
0
LINE
8
BLACK
6
CONTINUOUS
10
113.547
20
-78.8909
11
113.548
21
-78.891
0
LINE
8
BLACK
6
CONTINUOUS
10
113.548
20
-78.891
11
113.548
21
-78.891
0
LINE
8
BLACK
6
CONTINUOUS
10
113.548
20
-78.891
11
113.552
21
-78.8933
0
LINE
8
BLACK
6
CONTINUOUS
10
113.552
20
-78.8933
11
113.556
21
-78.8955
0
LINE
8
BLACK
6
CONTINUOUS
10
113.556
20
-78.8955
11
113.556
21
-78.8957
0
LINE
8
BLACK
6
CONTINUOUS
10
113.556
20
-78.8957
11
113.556
21
-78.8957
0
LINE
8
BLACK
6
CONTINUOUS
10
113.556
20
-78.8957
11
113.56
21
-78.8987
0
LINE
8
BLACK
6
CONTINUOUS
10
113.56
20
-78.8987
11
113.563
21
-78.9018
0
LINE
8
BLACK
6
CONTINUOUS
10
113.563
20
-78.9018
11
113.564
21
-78.9019
0
LINE
8
BLACK
6
CONTINUOUS
10
113.564
20
-78.9019
11
113.564
21
-78.902
0
LINE
8
BLACK
6
CONTINUOUS
10
113.564
20
-78.902
11
113.567
21
-78.9056
0
LINE
8
BLACK
6
CONTINUOUS
10
113.567
20
-78.9056
11
113.57
21
-78.9093
0
LINE
8
BLACK
6
CONTINUOUS
10
113.57
20
-78.9093
11
113.57
21
-78.9095
0
LINE
8
BLACK
6
CONTINUOUS
10
113.57
20
-78.9095
11
113.57
21
-78.9096
0
LINE
8
BLACK
6
CONTINUOUS
10
113.57
20
-78.9096
11
113.572
21
-78.9137
0
LINE
8
BLACK
6
CONTINUOUS
10
113.572
20
-78.9137
11
113.574
21
-78.9179
0
LINE
8
BLACK
6
CONTINUOUS
10
113.574
20
-78.9179
11
113.574
21
-78.9181
0
LINE
8
BLACK
6
CONTINUOUS
10
113.574
20
-78.9181
11
113.574
21
-78.9183
0
LINE
8
BLACK
6
CONTINUOUS
10
113.574
20
-78.9183
11
113.576
21
-78.9227
0
LINE
8
BLACK
6
CONTINUOUS
10
113.576
20
-78.9227
11
113.577
21
-78.9273
0
LINE
8
BLACK
6
CONTINUOUS
10
113.577
20
-78.9273
11
113.577
21
-78.9275
0
LINE
8
BLACK
6
CONTINUOUS
10
113.577
20
-78.9275
11
113.577
21
-78.9276
0
LINE
8
BLACK
6
CONTINUOUS
10
113.577
20
-78.9276
11
113.578
21
-78.9323
0
LINE
8
BLACK
6
CONTINUOUS
10
113.578
20
-78.9323
11
113.578
21
-78.937
0
LINE
8
BLACK
6
CONTINUOUS
10
113.578
20
-78.937
11
113.578
21
-79.572
0
LINE
8
BLACK
6
CONTINUOUS
10
113.578
20
-79.572
11
113.578
21
-79.5723
0
LINE
8
BLACK
6
CONTINUOUS
10
113.578
20
-79.5723
11
113.578
21
-79.5723
0
LINE
8
BLACK
6
CONTINUOUS
10
113.578
20
-79.5723
11
113.578
21
-79.5724
0
LINE
8
BLACK
6
CONTINUOUS
10
113.578
20
-79.5724
11
113.578
21
-79.5727
0
LINE
8
BLACK
6
CONTINUOUS
10
113.578
20
-79.5727
11
113.577
21
-79.5773
0
LINE
8
BLACK
6
CONTINUOUS
10
113.577
20
-79.5773
11
113.577
21
-79.5821
0
LINE
8
BLACK
6
CONTINUOUS
10
113.577
20
-79.5821
11
113.577
21
-79.5822
0
LINE
8
BLACK
6
CONTINUOUS
10
113.577
20
-79.5822
11
113.577
21
-79.5824
0
LINE
8
BLACK
6
CONTINUOUS
10
113.577
20
-79.5824
11
113.575
21
-79.5869
0
LINE
8
BLACK
6
CONTINUOUS
10
113.575
20
-79.5869
11
113.574
21
-79.5914
0
LINE
8
BLACK
6
CONTINUOUS
10
113.574
20
-79.5914
11
113.574
21
-79.5915
0
LINE
8
BLACK
6
CONTINUOUS
10
113.574
20
-79.5915
11
113.574
21
-79.5917
0
LINE
8
BLACK
6
CONTINUOUS
10
113.574
20
-79.5917
11
113.572
21
-79.5958
0
LINE
8
BLACK
6
CONTINUOUS
10
113.572
20
-79.5958
11
113.569
21
-79.6
0
LINE
8
BLACK
6
CONTINUOUS
10
113.569
20
-79.6
11
113.569
21
-79.6001
0
LINE
8
BLACK
6
CONTINUOUS
10
113.569
20
-79.6001
11
113.569
21
-79.6002
0
LINE
8
BLACK
6
CONTINUOUS
10
113.569
20
-79.6002
11
113.566
21
-79.6038
0
LINE
8
BLACK
6
CONTINUOUS
10
113.566
20
-79.6038
11
113.563
21
-79.6075
0
LINE
8
BLACK
6
CONTINUOUS
10
113.563
20
-79.6075
11
113.563
21
-79.6076
0
LINE
8
BLACK
6
CONTINUOUS
10
113.563
20
-79.6076
11
113.563
21
-79.6077
0
LINE
8
BLACK
6
CONTINUOUS
10
113.563
20
-79.6077
11
113.559
21
-79.6106
0
LINE
8
BLACK
6
CONTINUOUS
10
113.559
20
-79.6106
11
113.556
21
-79.6136
0
LINE
8
BLACK
6
CONTINUOUS
10
113.556
20
-79.6136
11
113.556
21
-79.6137
0
LINE
8
BLACK
6
CONTINUOUS
10
113.556
20
-79.6137
11
113.555
21
-79.6138
0
LINE
8
BLACK
6
CONTINUOUS
10
113.555
20
-79.6138
11
113.551
21
-79.616
0
LINE
8
BLACK
6
CONTINUOUS
10
113.551
20
-79.616
11
113.547
21
-79.6182
0
LINE
8
BLACK
6
CONTINUOUS
10
113.547
20
-79.6182
11
113.547
21
-79.6183
0
LINE
8
BLACK
6
CONTINUOUS
10
113.547
20
-79.6183
11
113.547
21
-79.6184
0
LINE
8
BLACK
6
CONTINUOUS
10
113.547
20
-79.6184
11
113.542
21
-79.6197
0
LINE
8
BLACK
6
CONTINUOUS
10
113.542
20
-79.6197
11
113.538
21
-79.621
0
LINE
8
BLACK
6
CONTINUOUS
10
113.538
20
-79.621
11
113.538
21
-79.6211
0
LINE
8
BLACK
6
CONTINUOUS
10
113.538
20
-79.6211
11
113.537
21
-79.6211
0
LINE
8
BLACK
6
CONTINUOUS
10
113.537
20
-79.6211
11
113.533
21
-79.6215
0
LINE
8
BLACK
6
CONTINUOUS
10
113.533
20
-79.6215
11
113.528
21
-79.622
0
LINE
8
BLACK
6
CONTINUOUS
10
113.528
20
-79.622
11
112.893
21
-79.622
0
LINE
8
BLACK
6
CONTINUOUS
10
112.893
20
-79.622
11
112.893
21
-79.622
0
LINE
8
BLACK
6
CONTINUOUS
10
112.893
20
-79.622
11
112.893
21
-79.622
0
LINE
8
BLACK
6
CONTINUOUS
10
112.893
20
-79.622
11
112.893
21
-79.622
0
LINE
8
BLACK
6
CONTINUOUS
10
112.893
20
-79.622
11
112.892
21
-79.622
0
LINE
8
BLACK
6
CONTINUOUS
10
112.892
20
-79.622
11
112.888
21
-79.6215
0
LINE
8
BLACK
6
CONTINUOUS
10
112.888
20
-79.6215
11
112.883
21
-79.621
0
LINE
8
BLACK
6
CONTINUOUS
10
112.883
20
-79.621
11
112.883
21
-79.6209
0
LINE
8
BLACK
6
CONTINUOUS
10
112.883
20
-79.6209
11
112.883
21
-79.6209
0
LINE
8
BLACK
6
CONTINUOUS
10
112.883
20
-79.6209
11
112.878
21
-79.6195
0
LINE
8
BLACK
6
CONTINUOUS
10
112.878
20
-79.6195
11
112.874
21
-79.6181
0
LINE
8
BLACK
6
CONTINUOUS
10
112.874
20
-79.6181
11
112.873
21
-79.618
0
LINE
8
BLACK
6
CONTINUOUS
10
112.873
20
-79.618
11
112.873
21
-79.618
0
LINE
8
BLACK
6
CONTINUOUS
10
112.873
20
-79.618
11
112.869
21
-79.6157
0
LINE
8
BLACK
6
CONTINUOUS
10
112.869
20
-79.6157
11
112.865
21
-79.6135
0
LINE
8
BLACK
6
CONTINUOUS
10
112.865
20
-79.6135
11
112.865
21
-79.6133
0
LINE
8
BLACK
6
CONTINUOUS
10
112.865
20
-79.6133
11
112.865
21
-79.6133
0
LINE
8
BLACK
6
CONTINUOUS
10
112.865
20
-79.6133
11
112.861
21
-79.6103
0
LINE
8
BLACK
6
CONTINUOUS
10
112.861
20
-79.6103
11
112.858
21
-79.6072
0
LINE
8
BLACK
6
CONTINUOUS
10
112.858
20
-79.6072
11
112.857
21
-79.6071
0
LINE
8
BLACK
6
CONTINUOUS
10
112.857
20
-79.6071
11
112.857
21
-79.607
0
LINE
8
BLACK
6
CONTINUOUS
10
112.857
20
-79.607
11
112.854
21
-79.6034
0
LINE
8
BLACK
6
CONTINUOUS
10
112.854
20
-79.6034
11
112.851
21
-79.5997
0
LINE
8
BLACK
6
CONTINUOUS
10
112.851
20
-79.5997
11
112.851
21
-79.5995
0
LINE
8
BLACK
6
CONTINUOUS
10
112.851
20
-79.5995
11
112.851
21
-79.5994
0
LINE
8
BLACK
6
CONTINUOUS
10
112.851
20
-79.5994
11
112.849
21
-79.5953
0
LINE
8
BLACK
6
CONTINUOUS
10
112.849
20
-79.5953
11
112.847
21
-79.5911
0
LINE
8
BLACK
6
CONTINUOUS
10
112.847
20
-79.5911
11
112.847
21
-79.5909
0
LINE
8
BLACK
6
CONTINUOUS
10
112.847
20
-79.5909
11
112.847
21
-79.5907
0
LINE
8
BLACK
6
CONTINUOUS
10
112.847
20
-79.5907
11
112.845
21
-79.5863
0
LINE
8
BLACK
6
CONTINUOUS
10
112.845
20
-79.5863
11
112.844
21
-79.5817
0
LINE
8
BLACK
6
CONTINUOUS
10
112.844
20
-79.5817
11
112.844
21
-79.5815
0
LINE
8
BLACK
6
CONTINUOUS
10
112.844
20
-79.5815
11
112.844
21
-79.5814
0
LINE
8
BLACK
6
CONTINUOUS
10
112.844
20
-79.5814
11
112.843
21
-79.5767
0
LINE
8
BLACK
6
CONTINUOUS
10
112.843
20
-79.5767
11
112.843
21
-79.572
0
LINE
8
BLACK
6
CONTINUOUS
10
112.843
20
-79.572
11
112.843
21
-78.937
0
LINE
8
BLACK
6
CONTINUOUS
10
112.843
20
-78.937
11
112.843
21
-78.9367
0
LINE
8
BLACK
6
CONTINUOUS
10
112.843
20
-78.9367
11
112.843
21
-78.9367
0
LINE
8
BLACK
6
CONTINUOUS
10
112.843
20
-78.9367
11
112.843
21
-78.9366
0
LINE
8
BLACK
6
CONTINUOUS
10
112.843
20
-78.9366
11
112.843
21
-78.9363
0
LINE
8
BLACK
6
CONTINUOUS
10
112.843
20
-78.9363
11
112.844
21
-78.9317
0
LINE
8
BLACK
6
CONTINUOUS
10
112.844
20
-78.9317
11
112.844
21
-78.9269
0
LINE
8
BLACK
6
CONTINUOUS
10
112.844
20
-78.9269
11
112.844
21
-78.9268
0
LINE
8
BLACK
6
CONTINUOUS
10
112.844
20
-78.9268
11
112.844
21
-78.9266
0
LINE
8
BLACK
6
CONTINUOUS
10
112.844
20
-78.9266
11
112.846
21
-78.9221
0
LINE
8
BLACK
6
CONTINUOUS
10
112.846
20
-78.9221
11
112.847
21
-78.9176
0
LINE
8
BLACK
6
CONTINUOUS
10
112.847
20
-78.9176
11
112.847
21
-78.9175
0
LINE
8
BLACK
6
CONTINUOUS
10
112.847
20
-78.9175
11
112.847
21
-78.9173
0
LINE
8
BLACK
6
CONTINUOUS
10
112.847
20
-78.9173
11
112.849
21
-78.9132
0
LINE
8
BLACK
6
CONTINUOUS
10
112.849
20
-78.9132
11
112.852
21
-78.909
0
LINE
8
BLACK
6
CONTINUOUS
10
112.852
20
-78.909
11
112.852
21
-78.9089
0
LINE
8
BLACK
6
CONTINUOUS
10
112.852
20
-78.9089
11
112.852
21
-78.9088
0
LINE
8
BLACK
6
CONTINUOUS
10
112.852
20
-78.9088
11
112.855
21
-78.9052
0
LINE
8
BLACK
6
CONTINUOUS
10
112.855
20
-78.9052
11
112.858
21
-78.9015
0
LINE
8
BLACK
6
CONTINUOUS
10
112.858
20
-78.9015
11
112.858
21
-78.9014
0
LINE
8
BLACK
6
CONTINUOUS
10
112.858
20
-78.9014
11
112.858
21
-78.9013
0
LINE
8
BLACK
6
CONTINUOUS
10
112.858
20
-78.9013
11
112.862
21
-78.8984
0
LINE
8
BLACK
6
CONTINUOUS
10
112.862
20
-78.8984
11
112.865
21
-78.8954
0
LINE
8
BLACK
6
CONTINUOUS
10
112.865
20
-78.8954
11
112.865
21
-78.8953
0
LINE
8
BLACK
6
CONTINUOUS
10
112.865
20
-78.8953
11
112.866
21
-78.8952
0
LINE
8
BLACK
6
CONTINUOUS
10
112.866
20
-78.8952
11
112.87
21
-78.893
0
LINE
8
BLACK
6
CONTINUOUS
10
112.87
20
-78.893
11
112.874
21
-78.8908
0
LINE
8
BLACK
6
CONTINUOUS
10
112.874
20
-78.8908
11
112.874
21
-78.8907
0
LINE
8
BLACK
6
CONTINUOUS
10
112.874
20
-78.8907
11
112.874
21
-78.8906
0
LINE
8
BLACK
6
CONTINUOUS
10
112.874
20
-78.8906
11
112.879
21
-78.8893
0
LINE
8
BLACK
6
CONTINUOUS
10
112.879
20
-78.8893
11
112.883
21
-78.888
0
LINE
8
BLACK
6
CONTINUOUS
10
112.883
20
-78.888
11
112.883
21
-78.8879
0
LINE
8
BLACK
6
CONTINUOUS
10
112.883
20
-78.8879
11
112.884
21
-78.8879
0
LINE
8
BLACK
6
CONTINUOUS
10
112.884
20
-78.8879
11
112.888
21
-78.8875
0
LINE
8
BLACK
6
CONTINUOUS
10
112.888
20
-78.8875
11
112.893
21
-78.887
0
LINE
8
BLACK
6
CONTINUOUS
10
112.893
20
-78.887
11
113.528
21
-78.887
0
LINE
8
BLACK
6
CONTINUOUS
10
113.528
20
-78.887
11
113.528
21
-78.887
0
LINE
8
BLACK
6
CONTINUOUS
10
117.338
20
-76.982
11
117.338
21
-76.982
0
LINE
8
BLACK
6
CONTINUOUS
10
117.338
20
-76.982
11
117.338
21
-76.982
0
LINE
8
BLACK
6
CONTINUOUS
10
117.338
20
-76.982
11
117.339
21
-76.982
0
LINE
8
BLACK
6
CONTINUOUS
10
117.339
20
-76.982
11
117.343
21
-76.9825
0
LINE
8
BLACK
6
CONTINUOUS
10
117.343
20
-76.9825
11
117.348
21
-76.983
0
LINE
8
BLACK
6
CONTINUOUS
10
117.348
20
-76.983
11
117.348
21
-76.9831
0
LINE
8
BLACK
6
CONTINUOUS
10
117.348
20
-76.9831
11
117.348
21
-76.9831
0
LINE
8
BLACK
6
CONTINUOUS
10
117.348
20
-76.9831
11
117.353
21
-76.9845
0
LINE
8
BLACK
6
CONTINUOUS
10
117.353
20
-76.9845
11
117.357
21
-76.9859
0
LINE
8
BLACK
6
CONTINUOUS
10
117.357
20
-76.9859
11
117.358
21
-76.986
0
LINE
8
BLACK
6
CONTINUOUS
10
117.358
20
-76.986
11
117.358
21
-76.986
0
LINE
8
BLACK
6
CONTINUOUS
10
117.358
20
-76.986
11
117.362
21
-76.9883
0
LINE
8
BLACK
6
CONTINUOUS
10
117.362
20
-76.9883
11
117.366
21
-76.9905
0
LINE
8
BLACK
6
CONTINUOUS
10
117.366
20
-76.9905
11
117.366
21
-76.9907
0
LINE
8
BLACK
6
CONTINUOUS
10
117.366
20
-76.9907
11
117.366
21
-76.9907
0
LINE
8
BLACK
6
CONTINUOUS
10
117.366
20
-76.9907
11
117.37
21
-76.9937
0
LINE
8
BLACK
6
CONTINUOUS
10
117.37
20
-76.9937
11
117.373
21
-76.9968
0
LINE
8
BLACK
6
CONTINUOUS
10
117.373
20
-76.9968
11
117.374
21
-76.9969
0
LINE
8
BLACK
6
CONTINUOUS
10
117.374
20
-76.9969
11
117.374
21
-76.997
0
LINE
8
BLACK
6
CONTINUOUS
10
117.374
20
-76.997
11
117.377
21
-77.0006
0
LINE
8
BLACK
6
CONTINUOUS
10
117.377
20
-77.0006
11
117.38
21
-77.0043
0
LINE
8
BLACK
6
CONTINUOUS
10
117.38
20
-77.0043
11
117.38
21
-77.0045
0
LINE
8
BLACK
6
CONTINUOUS
10
117.38
20
-77.0045
11
117.38
21
-77.0046
0
LINE
8
BLACK
6
CONTINUOUS
10
117.38
20
-77.0046
11
117.382
21
-77.0087
0
LINE
8
BLACK
6
CONTINUOUS
10
117.382
20
-77.0087
11
117.384
21
-77.0129
0
LINE
8
BLACK
6
CONTINUOUS
10
117.384
20
-77.0129
11
117.384
21
-77.0131
0
LINE
8
BLACK
6
CONTINUOUS
10
117.384
20
-77.0131
11
117.384
21
-77.0133
0
LINE
8
BLACK
6
CONTINUOUS
10
117.384
20
-77.0133
11
117.386
21
-77.0177
0
LINE
8
BLACK
6
CONTINUOUS
10
117.386
20
-77.0177
11
117.387
21
-77.0223
0
LINE
8
BLACK
6
CONTINUOUS
10
117.387
20
-77.0223
11
117.387
21
-77.0225
0
LINE
8
BLACK
6
CONTINUOUS
10
117.387
20
-77.0225
11
117.387
21
-77.0226
0
LINE
8
BLACK
6
CONTINUOUS
10
117.387
20
-77.0226
11
117.388
21
-77.0273
0
LINE
8
BLACK
6
CONTINUOUS
10
117.388
20
-77.0273
11
117.388
21
-77.032
0
LINE
8
BLACK
6
CONTINUOUS
10
117.388
20
-77.032
11
117.388
21
-77.667
0
LINE
8
BLACK
6
CONTINUOUS
10
117.388
20
-77.667
11
117.388
21
-77.6673
0
LINE
8
BLACK
6
CONTINUOUS
10
117.388
20
-77.6673
11
117.388
21
-77.6673
0
LINE
8
BLACK
6
CONTINUOUS
10
117.388
20
-77.6673
11
117.388
21
-77.6674
0
LINE
8
BLACK
6
CONTINUOUS
10
117.388
20
-77.6674
11
117.388
21
-77.6677
0
LINE
8
BLACK
6
CONTINUOUS
10
117.388
20
-77.6677
11
117.387
21
-77.6723
0
LINE
8
BLACK
6
CONTINUOUS
10
117.387
20
-77.6723
11
117.387
21
-77.6771
0
LINE
8
BLACK
6
CONTINUOUS
10
117.387
20
-77.6771
11
117.387
21
-77.6772
0
LINE
8
BLACK
6
CONTINUOUS
10
117.387
20
-77.6772
11
117.387
21
-77.6774
0
LINE
8
BLACK
6
CONTINUOUS
10
117.387
20
-77.6774
11
117.385
21
-77.6819
0
LINE
8
BLACK
6
CONTINUOUS
10
117.385
20
-77.6819
11
117.384
21
-77.6864
0
LINE
8
BLACK
6
CONTINUOUS
10
117.384
20
-77.6864
11
117.384
21
-77.6865
0
LINE
8
BLACK
6
CONTINUOUS
10
117.384
20
-77.6865
11
117.384
21
-77.6867
0
LINE
8
BLACK
6
CONTINUOUS
10
117.384
20
-77.6867
11
117.382
21
-77.6908
0
LINE
8
BLACK
6
CONTINUOUS
10
117.382
20
-77.6908
11
117.379
21
-77.695
0
LINE
8
BLACK
6
CONTINUOUS
10
117.379
20
-77.695
11
117.379
21
-77.6951
0
LINE
8
BLACK
6
CONTINUOUS
10
117.379
20
-77.6951
11
117.379
21
-77.6952
0
LINE
8
BLACK
6
CONTINUOUS
10
117.379
20
-77.6952
11
117.376
21
-77.6988
0
LINE
8
BLACK
6
CONTINUOUS
10
117.376
20
-77.6988
11
117.373
21
-77.7025
0
LINE
8
BLACK
6
CONTINUOUS
10
117.373
20
-77.7025
11
117.373
21
-77.7026
0
LINE
8
BLACK
6
CONTINUOUS
10
117.373
20
-77.7026
11
117.373
21
-77.7027
0
LINE
8
BLACK
6
CONTINUOUS
10
117.373
20
-77.7027
11
117.369
21
-77.7056
0
LINE
8
BLACK
6
CONTINUOUS
10
117.369
20
-77.7056
11
117.366
21
-77.7086
0
LINE
8
BLACK
6
CONTINUOUS
10
117.366
20
-77.7086
11
117.366
21
-77.7087
0
LINE
8
BLACK
6
CONTINUOUS
10
117.366
20
-77.7087
11
117.365
21
-77.7088
0
LINE
8
BLACK
6
CONTINUOUS
10
117.365
20
-77.7088
11
117.361
21
-77.711
0
LINE
8
BLACK
6
CONTINUOUS
10
117.361
20
-77.711
11
117.357
21
-77.7132
0
LINE
8
BLACK
6
CONTINUOUS
10
117.357
20
-77.7132
11
117.357
21
-77.7133
0
LINE
8
BLACK
6
CONTINUOUS
10
117.357
20
-77.7133
11
117.357
21
-77.7134
0
LINE
8
BLACK
6
CONTINUOUS
10
117.357
20
-77.7134
11
117.352
21
-77.7147
0
LINE
8
BLACK
6
CONTINUOUS
10
117.352
20
-77.7147
11
117.348
21
-77.716
0
LINE
8
BLACK
6
CONTINUOUS
10
117.348
20
-77.716
11
117.348
21
-77.7161
0
LINE
8
BLACK
6
CONTINUOUS
10
117.348
20
-77.7161
11
117.347
21
-77.7161
0
LINE
8
BLACK
6
CONTINUOUS
10
117.347
20
-77.7161
11
117.343
21
-77.7165
0
LINE
8
BLACK
6
CONTINUOUS
10
117.343
20
-77.7165
11
117.338
21
-77.717
0
LINE
8
BLACK
6
CONTINUOUS
10
117.338
20
-77.717
11
116.753
21
-77.717
0
LINE
8
BLACK
6
CONTINUOUS
10
116.753
20
-77.717
11
116.753
21
-78.302
0
LINE
8
BLACK
6
CONTINUOUS
10
116.753
20
-78.302
11
116.753
21
-78.3023
0
LINE
8
BLACK
6
CONTINUOUS
10
116.753
20
-78.3023
11
116.753
21
-78.3023
0
LINE
8
BLACK
6
CONTINUOUS
10
116.753
20
-78.3023
11
116.753
21
-78.3024
0
LINE
8
BLACK
6
CONTINUOUS
10
116.753
20
-78.3024
11
116.753
21
-78.3027
0
LINE
8
BLACK
6
CONTINUOUS
10
116.753
20
-78.3027
11
116.752
21
-78.3073
0
LINE
8
BLACK
6
CONTINUOUS
10
116.752
20
-78.3073
11
116.752
21
-78.3121
0
LINE
8
BLACK
6
CONTINUOUS
10
116.752
20
-78.3121
11
116.752
21
-78.3122
0
LINE
8
BLACK
6
CONTINUOUS
10
116.752
20
-78.3122
11
116.752
21
-78.3124
0
LINE
8
BLACK
6
CONTINUOUS
10
116.752
20
-78.3124
11
116.75
21
-78.3169
0
LINE
8
BLACK
6
CONTINUOUS
10
116.75
20
-78.3169
11
116.749
21
-78.3214
0
LINE
8
BLACK
6
CONTINUOUS
10
116.749
20
-78.3214
11
116.749
21
-78.3215
0
LINE
8
BLACK
6
CONTINUOUS
10
116.749
20
-78.3215
11
116.749
21
-78.3217
0
LINE
8
BLACK
6
CONTINUOUS
10
116.749
20
-78.3217
11
116.747
21
-78.3258
0
LINE
8
BLACK
6
CONTINUOUS
10
116.747
20
-78.3258
11
116.744
21
-78.33
0
LINE
8
BLACK
6
CONTINUOUS
10
116.744
20
-78.33
11
116.744
21
-78.3301
0
LINE
8
BLACK
6
CONTINUOUS
10
116.744
20
-78.3301
11
116.744
21
-78.3302
0
LINE
8
BLACK
6
CONTINUOUS
10
116.744
20
-78.3302
11
116.741
21
-78.3338
0
LINE
8
BLACK
6
CONTINUOUS
10
116.741
20
-78.3338
11
116.738
21
-78.3375
0
LINE
8
BLACK
6
CONTINUOUS
10
116.738
20
-78.3375
11
116.738
21
-78.3376
0
LINE
8
BLACK
6
CONTINUOUS
10
116.738
20
-78.3376
11
116.738
21
-78.3377
0
LINE
8
BLACK
6
CONTINUOUS
10
116.738
20
-78.3377
11
116.734
21
-78.3406
0
LINE
8
BLACK
6
CONTINUOUS
10
116.734
20
-78.3406
11
116.731
21
-78.3436
0
LINE
8
BLACK
6
CONTINUOUS
10
116.731
20
-78.3436
11
116.731
21
-78.3437
0
LINE
8
BLACK
6
CONTINUOUS
10
116.731
20
-78.3437
11
116.73
21
-78.3438
0
LINE
8
BLACK
6
CONTINUOUS
10
116.73
20
-78.3438
11
116.726
21
-78.346
0
LINE
8
BLACK
6
CONTINUOUS
10
116.726
20
-78.346
11
116.722
21
-78.3482
0
LINE
8
BLACK
6
CONTINUOUS
10
116.722
20
-78.3482
11
116.722
21
-78.3483
0
LINE
8
BLACK
6
CONTINUOUS
10
116.722
20
-78.3483
11
116.722
21
-78.3484
0
LINE
8
BLACK
6
CONTINUOUS
10
116.722
20
-78.3484
11
116.717
21
-78.3497
0
LINE
8
BLACK
6
CONTINUOUS
10
116.717
20
-78.3497
11
116.713
21
-78.351
0
LINE
8
BLACK
6
CONTINUOUS
10
116.713
20
-78.351
11
116.713
21
-78.3511
0
LINE
8
BLACK
6
CONTINUOUS
10
116.713
20
-78.3511
11
116.712
21
-78.3511
0
LINE
8
BLACK
6
CONTINUOUS
10
116.712
20
-78.3511
11
116.708
21
-78.3515
0
LINE
8
BLACK
6
CONTINUOUS
10
116.708
20
-78.3515
11
116.703
21
-78.352
0
LINE
8
BLACK
6
CONTINUOUS
10
116.703
20
-78.352
11
116.118
21
-78.352
0
LINE
8
BLACK
6
CONTINUOUS
10
116.118
20
-78.352
11
116.118
21
-78.937
0
LINE
8
BLACK
6
CONTINUOUS
10
116.118
20
-78.937
11
116.118
21
-78.9373
0
LINE
8
BLACK
6
CONTINUOUS
10
116.118
20
-78.9373
11
116.118
21
-78.9373
0
LINE
8
BLACK
6
CONTINUOUS
10
116.118
20
-78.9373
11
116.118
21
-78.9374
0
LINE
8
BLACK
6
CONTINUOUS
10
116.118
20
-78.9374
11
116.118
21
-78.9377
0
LINE
8
BLACK
6
CONTINUOUS
10
116.118
20
-78.9377
11
116.117
21
-78.9423
0
LINE
8
BLACK
6
CONTINUOUS
10
116.117
20
-78.9423
11
116.117
21
-78.9471
0
LINE
8
BLACK
6
CONTINUOUS
10
116.117
20
-78.9471
11
116.117
21
-78.9472
0
LINE
8
BLACK
6
CONTINUOUS
10
116.117
20
-78.9472
11
116.117
21
-78.9474
0
LINE
8
BLACK
6
CONTINUOUS
10
116.117
20
-78.9474
11
116.115
21
-78.9519
0
LINE
8
BLACK
6
CONTINUOUS
10
116.115
20
-78.9519
11
116.114
21
-78.9564
0
LINE
8
BLACK
6
CONTINUOUS
10
116.114
20
-78.9564
11
116.114
21
-78.9565
0
LINE
8
BLACK
6
CONTINUOUS
10
116.114
20
-78.9565
11
116.114
21
-78.9567
0
LINE
8
BLACK
6
CONTINUOUS
10
116.114
20
-78.9567
11
116.112
21
-78.9608
0
LINE
8
BLACK
6
CONTINUOUS
10
116.112
20
-78.9608
11
116.109
21
-78.965
0
LINE
8
BLACK
6
CONTINUOUS
10
116.109
20
-78.965
11
116.109
21
-78.9651
0
LINE
8
BLACK
6
CONTINUOUS
10
116.109
20
-78.9651
11
116.109
21
-78.9652
0
LINE
8
BLACK
6
CONTINUOUS
10
116.109
20
-78.9652
11
116.106
21
-78.9688
0
LINE
8
BLACK
6
CONTINUOUS
10
116.106
20
-78.9688
11
116.103
21
-78.9725
0
LINE
8
BLACK
6
CONTINUOUS
10
116.103
20
-78.9725
11
116.103
21
-78.9726
0
LINE
8
BLACK
6
CONTINUOUS
10
116.103
20
-78.9726
11
116.103
21
-78.9727
0
LINE
8
BLACK
6
CONTINUOUS
10
116.103
20
-78.9727
11
116.099
21
-78.9756
0
LINE
8
BLACK
6
CONTINUOUS
10
116.099
20
-78.9756
11
116.096
21
-78.9786
0
LINE
8
BLACK
6
CONTINUOUS
10
116.096
20
-78.9786
11
116.096
21
-78.9787
0
LINE
8
BLACK
6
CONTINUOUS
10
116.096
20
-78.9787
11
116.095
21
-78.9788
0
LINE
8
BLACK
6
CONTINUOUS
10
116.095
20
-78.9788
11
116.091
21
-78.981
0
LINE
8
BLACK
6
CONTINUOUS
10
116.091
20
-78.981
11
116.087
21
-78.9832
0
LINE
8
BLACK
6
CONTINUOUS
10
116.087
20
-78.9832
11
116.087
21
-78.9833
0
LINE
8
BLACK
6
CONTINUOUS
10
116.087
20
-78.9833
11
116.087
21
-78.9834
0
LINE
8
BLACK
6
CONTINUOUS
10
116.087
20
-78.9834
11
116.082
21
-78.9847
0
LINE
8
BLACK
6
CONTINUOUS
10
116.082
20
-78.9847
11
116.078
21
-78.986
0
LINE
8
BLACK
6
CONTINUOUS
10
116.078
20
-78.986
11
116.078
21
-78.9861
0
LINE
8
BLACK
6
CONTINUOUS
10
116.078
20
-78.9861
11
116.077
21
-78.9861
0
LINE
8
BLACK
6
CONTINUOUS
10
116.077
20
-78.9861
11
116.073
21
-78.9865
0
LINE
8
BLACK
6
CONTINUOUS
10
116.073
20
-78.9865
11
116.068
21
-78.987
0
LINE
8
BLACK
6
CONTINUOUS
10
116.068
20
-78.987
11
114.163
21
-78.987
0
LINE
8
BLACK
6
CONTINUOUS
10
114.163
20
-78.987
11
114.163
21
-78.987
0
LINE
8
BLACK
6
CONTINUOUS
10
114.163
20
-78.987
11
114.163
21
-78.987
0
LINE
8
BLACK
6
CONTINUOUS
10
114.163
20
-78.987
11
114.163
21
-78.987
0
LINE
8
BLACK
6
CONTINUOUS
10
114.163
20
-78.987
11
114.162
21
-78.987
0
LINE
8
BLACK
6
CONTINUOUS
10
114.162
20
-78.987
11
114.158
21
-78.9865
0
LINE
8
BLACK
6
CONTINUOUS
10
114.158
20
-78.9865
11
114.153
21
-78.986
0
LINE
8
BLACK
6
CONTINUOUS
10
114.153
20
-78.986
11
114.153
21
-78.9859
0
LINE
8
BLACK
6
CONTINUOUS
10
114.153
20
-78.9859
11
114.153
21
-78.9859
0
LINE
8
BLACK
6
CONTINUOUS
10
114.153
20
-78.9859
11
114.148
21
-78.9845
0
LINE
8
BLACK
6
CONTINUOUS
10
114.148
20
-78.9845
11
114.144
21
-78.9831
0
LINE
8
BLACK
6
CONTINUOUS
10
114.144
20
-78.9831
11
114.143
21
-78.983
0
LINE
8
BLACK
6
CONTINUOUS
10
114.143
20
-78.983
11
114.143
21
-78.983
0
LINE
8
BLACK
6
CONTINUOUS
10
114.143
20
-78.983
11
114.139
21
-78.9807
0
LINE
8
BLACK
6
CONTINUOUS
10
114.139
20
-78.9807
11
114.135
21
-78.9785
0
LINE
8
BLACK
6
CONTINUOUS
10
114.135
20
-78.9785
11
114.135
21
-78.9783
0
LINE
8
BLACK
6
CONTINUOUS
10
114.135
20
-78.9783
11
114.135
21
-78.9783
0
LINE
8
BLACK
6
CONTINUOUS
10
114.135
20
-78.9783
11
114.131
21
-78.9753
0
LINE
8
BLACK
6
CONTINUOUS
10
114.131
20
-78.9753
11
114.128
21
-78.9722
0
LINE
8
BLACK
6
CONTINUOUS
10
114.128
20
-78.9722
11
114.127
21
-78.9721
0
LINE
8
BLACK
6
CONTINUOUS
10
114.127
20
-78.9721
11
114.127
21
-78.972
0
LINE
8
BLACK
6
CONTINUOUS
10
114.127
20
-78.972
11
114.124
21
-78.9684
0
LINE
8
BLACK
6
CONTINUOUS
10
114.124
20
-78.9684
11
114.121
21
-78.9647
0
LINE
8
BLACK
6
CONTINUOUS
10
114.121
20
-78.9647
11
114.121
21
-78.9645
0
LINE
8
BLACK
6
CONTINUOUS
10
114.121
20
-78.9645
11
114.121
21
-78.9644
0
LINE
8
BLACK
6
CONTINUOUS
10
114.121
20
-78.9644
11
114.119
21
-78.9603
0
LINE
8
BLACK
6
CONTINUOUS
10
114.119
20
-78.9603
11
114.117
21
-78.9561
0
LINE
8
BLACK
6
CONTINUOUS
10
114.117
20
-78.9561
11
114.117
21
-78.9559
0
LINE
8
BLACK
6
CONTINUOUS
10
114.117
20
-78.9559
11
114.117
21
-78.9557
0
LINE
8
BLACK
6
CONTINUOUS
10
114.117
20
-78.9557
11
114.115
21
-78.9513
0
LINE
8
BLACK
6
CONTINUOUS
10
114.115
20
-78.9513
11
114.114
21
-78.9467
0
LINE
8
BLACK
6
CONTINUOUS
10
114.114
20
-78.9467
11
114.114
21
-78.9465
0
LINE
8
BLACK
6
CONTINUOUS
10
114.114
20
-78.9465
11
114.114
21
-78.9464
0
LINE
8
BLACK
6
CONTINUOUS
10
114.114
20
-78.9464
11
114.113
21
-78.9417
0
LINE
8
BLACK
6
CONTINUOUS
10
114.113
20
-78.9417
11
114.113
21
-78.937
0
LINE
8
BLACK
6
CONTINUOUS
10
114.113
20
-78.937
11
114.113
21
-78.302
0
LINE
8
BLACK
6
CONTINUOUS
10
114.113
20
-78.302
11
114.113
21
-78.3017
0
LINE
8
BLACK
6
CONTINUOUS
10
114.113
20
-78.3017
11
114.113
21
-78.3017
0
LINE
8
BLACK
6
CONTINUOUS
10
114.113
20
-78.3017
11
114.113
21
-78.3016
0
LINE
8
BLACK
6
CONTINUOUS
10
114.113
20
-78.3016
11
114.113
21
-78.3013
0
LINE
8
BLACK
6
CONTINUOUS
10
114.113
20
-78.3013
11
114.114
21
-78.2967
0
LINE
8
BLACK
6
CONTINUOUS
10
114.114
20
-78.2967
11
114.114
21
-78.2919
0
LINE
8
BLACK
6
CONTINUOUS
10
114.114
20
-78.2919
11
114.114
21
-78.2918
0
LINE
8
BLACK
6
CONTINUOUS
10
114.114
20
-78.2918
11
114.114
21
-78.2916
0
LINE
8
BLACK
6
CONTINUOUS
10
114.114
20
-78.2916
11
114.116
21
-78.2871
0
LINE
8
BLACK
6
CONTINUOUS
10
114.116
20
-78.2871
11
114.117
21
-78.2826
0
LINE
8
BLACK
6
CONTINUOUS
10
114.117
20
-78.2826
11
114.117
21
-78.2825
0
LINE
8
BLACK
6
CONTINUOUS
10
114.117
20
-78.2825
11
114.117
21
-78.2823
0
LINE
8
BLACK
6
CONTINUOUS
10
114.117
20
-78.2823
11
114.119
21
-78.2782
0
LINE
8
BLACK
6
CONTINUOUS
10
114.119
20
-78.2782
11
114.122
21
-78.274
0
LINE
8
BLACK
6
CONTINUOUS
10
114.122
20
-78.274
11
114.122
21
-78.2739
0
LINE
8
BLACK
6
CONTINUOUS
10
114.122
20
-78.2739
11
114.122
21
-78.2738
0
LINE
8
BLACK
6
CONTINUOUS
10
114.122
20
-78.2738
11
114.125
21
-78.2702
0
LINE
8
BLACK
6
CONTINUOUS
10
114.125
20
-78.2702
11
114.128
21
-78.2665
0
LINE
8
BLACK
6
CONTINUOUS
10
114.128
20
-78.2665
11
114.128
21
-78.2664
0
LINE
8
BLACK
6
CONTINUOUS
10
114.128
20
-78.2664
11
114.128
21
-78.2663
0
LINE
8
BLACK
6
CONTINUOUS
10
114.128
20
-78.2663
11
114.132
21
-78.2634
0
LINE
8
BLACK
6
CONTINUOUS
10
114.132
20
-78.2634
11
114.135
21
-78.2604
0
LINE
8
BLACK
6
CONTINUOUS
10
114.135
20
-78.2604
11
114.135
21
-78.2603
0
LINE
8
BLACK
6
CONTINUOUS
10
114.135
20
-78.2603
11
114.136
21
-78.2602
0
LINE
8
BLACK
6
CONTINUOUS
10
114.136
20
-78.2602
11
114.14
21
-78.258
0
LINE
8
BLACK
6
CONTINUOUS
10
114.14
20
-78.258
11
114.144
21
-78.2558
0
LINE
8
BLACK
6
CONTINUOUS
10
114.144
20
-78.2558
11
114.144
21
-78.2557
0
LINE
8
BLACK
6
CONTINUOUS
10
114.144
20
-78.2557
11
114.144
21
-78.2556
0
LINE
8
BLACK
6
CONTINUOUS
10
114.144
20
-78.2556
11
114.149
21
-78.2543
0
LINE
8
BLACK
6
CONTINUOUS
10
114.149
20
-78.2543
11
114.153
21
-78.253
0
LINE
8
BLACK
6
CONTINUOUS
10
114.153
20
-78.253
11
114.153
21
-78.2529
0
LINE
8
BLACK
6
CONTINUOUS
10
114.153
20
-78.2529
11
114.154
21
-78.2529
0
LINE
8
BLACK
6
CONTINUOUS
10
114.154
20
-78.2529
11
114.158
21
-78.2525
0
LINE
8
BLACK
6
CONTINUOUS
10
114.158
20
-78.2525
11
114.163
21
-78.252
0
LINE
8
BLACK
6
CONTINUOUS
10
114.163
20
-78.252
11
114.748
21
-78.252
0
LINE
8
BLACK
6
CONTINUOUS
10
114.748
20
-78.252
11
114.748
21
-77.717
0
LINE
8
BLACK
6
CONTINUOUS
10
114.748
20
-77.717
11
114.163
21
-77.717
0
LINE
8
BLACK
6
CONTINUOUS
10
114.163
20
-77.717
11
114.163
21
-77.717
0
LINE
8
BLACK
6
CONTINUOUS
10
114.163
20
-77.717
11
114.163
21
-77.717
0
LINE
8
BLACK
6
CONTINUOUS
10
114.163
20
-77.717
11
114.163
21
-77.717
0
LINE
8
BLACK
6
CONTINUOUS
10
114.163
20
-77.717
11
114.162
21
-77.717
0
LINE
8
BLACK
6
CONTINUOUS
10
114.162
20
-77.717
11
114.158
21
-77.7165
0
LINE
8
BLACK
6
CONTINUOUS
10
114.158
20
-77.7165
11
114.153
21
-77.716
0
LINE
8
BLACK
6
CONTINUOUS
10
114.153
20
-77.716
11
114.153
21
-77.7159
0
LINE
8
BLACK
6
CONTINUOUS
10
114.153
20
-77.7159
11
114.153
21
-77.7159
0
LINE
8
BLACK
6
CONTINUOUS
10
114.153
20
-77.7159
11
114.148
21
-77.7145
0
LINE
8
BLACK
6
CONTINUOUS
10
114.148
20
-77.7145
11
114.144
21
-77.7131
0
LINE
8
BLACK
6
CONTINUOUS
10
114.144
20
-77.7131
11
114.143
21
-77.713
0
LINE
8
BLACK
6
CONTINUOUS
10
114.143
20
-77.713
11
114.143
21
-77.713
0
LINE
8
BLACK
6
CONTINUOUS
10
114.143
20
-77.713
11
114.139
21
-77.7107
0
LINE
8
BLACK
6
CONTINUOUS
10
114.139
20
-77.7107
11
114.135
21
-77.7085
0
LINE
8
BLACK
6
CONTINUOUS
10
114.135
20
-77.7085
11
114.135
21
-77.7083
0
LINE
8
BLACK
6
CONTINUOUS
10
114.135
20
-77.7083
11
114.135
21
-77.7083
0
LINE
8
BLACK
6
CONTINUOUS
10
114.135
20
-77.7083
11
114.131
21
-77.7053
0
LINE
8
BLACK
6
CONTINUOUS
10
114.131
20
-77.7053
11
114.128
21
-77.7022
0
LINE
8
BLACK
6
CONTINUOUS
10
114.128
20
-77.7022
11
114.127
21
-77.7021
0
LINE
8
BLACK
6
CONTINUOUS
10
114.127
20
-77.7021
11
114.127
21
-77.702
0
LINE
8
BLACK
6
CONTINUOUS
10
114.127
20
-77.702
11
114.124
21
-77.6984
0
LINE
8
BLACK
6
CONTINUOUS
10
114.124
20
-77.6984
11
114.121
21
-77.6947
0
LINE
8
BLACK
6
CONTINUOUS
10
114.121
20
-77.6947
11
114.121
21
-77.6945
0
LINE
8
BLACK
6
CONTINUOUS
10
114.121
20
-77.6945
11
114.121
21
-77.6944
0
LINE
8
BLACK
6
CONTINUOUS
10
114.121
20
-77.6944
11
114.119
21
-77.6903
0
LINE
8
BLACK
6
CONTINUOUS
10
114.119
20
-77.6903
11
114.117
21
-77.6861
0
LINE
8
BLACK
6
CONTINUOUS
10
114.117
20
-77.6861
11
114.117
21
-77.6859
0
LINE
8
BLACK
6
CONTINUOUS
10
114.117
20
-77.6859
11
114.117
21
-77.6857
0
LINE
8
BLACK
6
CONTINUOUS
10
114.117
20
-77.6857
11
114.115
21
-77.6813
0
LINE
8
BLACK
6
CONTINUOUS
10
114.115
20
-77.6813
11
114.114
21
-77.6767
0
LINE
8
BLACK
6
CONTINUOUS
10
114.114
20
-77.6767
11
114.114
21
-77.6765
0
LINE
8
BLACK
6
CONTINUOUS
10
114.114
20
-77.6765
11
114.114
21
-77.6764
0
LINE
8
BLACK
6
CONTINUOUS
10
114.114
20
-77.6764
11
114.113
21
-77.6717
0
LINE
8
BLACK
6
CONTINUOUS
10
114.113
20
-77.6717
11
114.113
21
-77.667
0
LINE
8
BLACK
6
CONTINUOUS
10
114.113
20
-77.667
11
114.113
21
-76.397
0
LINE
8
BLACK
6
CONTINUOUS
10
114.113
20
-76.397
11
114.113
21
-76.3967
0
LINE
8
BLACK
6
CONTINUOUS
10
114.113
20
-76.3967
11
114.113
21
-76.3967
0
LINE
8
BLACK
6
CONTINUOUS
10
114.113
20
-76.3967
11
114.113
21
-76.3966
0
LINE
8
BLACK
6
CONTINUOUS
10
114.113
20
-76.3966
11
114.113
21
-76.3963
0
LINE
8
BLACK
6
CONTINUOUS
10
114.113
20
-76.3963
11
114.114
21
-76.3917
0
LINE
8
BLACK
6
CONTINUOUS
10
114.114
20
-76.3917
11
114.114
21
-76.3869
0
LINE
8
BLACK
6
CONTINUOUS
10
114.114
20
-76.3869
11
114.114
21
-76.3868
0
LINE
8
BLACK
6
CONTINUOUS
10
114.114
20
-76.3868
11
114.114
21
-76.3866
0
LINE
8
BLACK
6
CONTINUOUS
10
114.114
20
-76.3866
11
114.116
21
-76.3821
0
LINE
8
BLACK
6
CONTINUOUS
10
114.116
20
-76.3821
11
114.117
21
-76.3776
0
LINE
8
BLACK
6
CONTINUOUS
10
114.117
20
-76.3776
11
114.117
21
-76.3775
0
LINE
8
BLACK
6
CONTINUOUS
10
114.117
20
-76.3775
11
114.117
21
-76.3773
0
LINE
8
BLACK
6
CONTINUOUS
10
114.117
20
-76.3773
11
114.119
21
-76.3732
0
LINE
8
BLACK
6
CONTINUOUS
10
114.119
20
-76.3732
11
114.122
21
-76.369
0
LINE
8
BLACK
6
CONTINUOUS
10
114.122
20
-76.369
11
114.122
21
-76.3689
0
LINE
8
BLACK
6
CONTINUOUS
10
114.122
20
-76.3689
11
114.122
21
-76.3688
0
LINE
8
BLACK
6
CONTINUOUS
10
114.122
20
-76.3688
11
114.125
21
-76.3652
0
LINE
8
BLACK
6
CONTINUOUS
10
114.125
20
-76.3652
11
114.128
21
-76.3615
0
LINE
8
BLACK
6
CONTINUOUS
10
114.128
20
-76.3615
11
114.128
21
-76.3614
0
LINE
8
BLACK
6
CONTINUOUS
10
114.128
20
-76.3614
11
114.128
21
-76.3613
0
LINE
8
BLACK
6
CONTINUOUS
10
114.128
20
-76.3613
11
114.132
21
-76.3584
0
LINE
8
BLACK
6
CONTINUOUS
10
114.132
20
-76.3584
11
114.135
21
-76.3554
0
LINE
8
BLACK
6
CONTINUOUS
10
114.135
20
-76.3554
11
114.135
21
-76.3553
0
LINE
8
BLACK
6
CONTINUOUS
10
114.135
20
-76.3553
11
114.136
21
-76.3552
0
LINE
8
BLACK
6
CONTINUOUS
10
114.136
20
-76.3552
11
114.14
21
-76.353
0
LINE
8
BLACK
6
CONTINUOUS
10
114.14
20
-76.353
11
114.144
21
-76.3508
0
LINE
8
BLACK
6
CONTINUOUS
10
114.144
20
-76.3508
11
114.144
21
-76.3507
0
LINE
8
BLACK
6
CONTINUOUS
10
114.144
20
-76.3507
11
114.144
21
-76.3506
0
LINE
8
BLACK
6
CONTINUOUS
10
114.144
20
-76.3506
11
114.149
21
-76.3493
0
LINE
8
BLACK
6
CONTINUOUS
10
114.149
20
-76.3493
11
114.153
21
-76.348
0
LINE
8
BLACK
6
CONTINUOUS
10
114.153
20
-76.348
11
114.153
21
-76.3479
0
LINE
8
BLACK
6
CONTINUOUS
10
114.153
20
-76.3479
11
114.154
21
-76.3479
0
LINE
8
BLACK
6
CONTINUOUS
10
114.154
20
-76.3479
11
114.158
21
-76.3475
0
LINE
8
BLACK
6
CONTINUOUS
10
114.158
20
-76.3475
11
114.163
21
-76.347
0
LINE
8
BLACK
6
CONTINUOUS
10
114.163
20
-76.347
11
114.798
21
-76.347
0
LINE
8
BLACK
6
CONTINUOUS
10
114.798
20
-76.347
11
114.798
21
-76.347
0
LINE
8
BLACK
6
CONTINUOUS
10
114.798
20
-76.347
11
114.798
21
-76.347
0
LINE
8
BLACK
6
CONTINUOUS
10
114.798
20
-76.347
11
114.798
21
-76.347
0
LINE
8
BLACK
6
CONTINUOUS
10
114.798
20
-76.347
11
114.799
21
-76.347
0
LINE
8
BLACK
6
CONTINUOUS
10
114.799
20
-76.347
11
114.803
21
-76.3475
0
LINE
8
BLACK
6
CONTINUOUS
10
114.803
20
-76.3475
11
114.808
21
-76.348
0
LINE
8
BLACK
6
CONTINUOUS
10
114.808
20
-76.348
11
114.808
21
-76.3481
0
LINE
8
BLACK
6
CONTINUOUS
10
114.808
20
-76.3481
11
114.808
21
-76.3481
0
LINE
8
BLACK
6
CONTINUOUS
10
114.808
20
-76.3481
11
114.813
21
-76.3495
0
LINE
8
BLACK
6
CONTINUOUS
10
114.813
20
-76.3495
11
114.817
21
-76.3509
0
LINE
8
BLACK
6
CONTINUOUS
10
114.817
20
-76.3509
11
114.818
21
-76.351
0
LINE
8
BLACK
6
CONTINUOUS
10
114.818
20
-76.351
11
114.818
21
-76.351
0
LINE
8
BLACK
6
CONTINUOUS
10
114.818
20
-76.351
11
114.822
21
-76.3533
0
LINE
8
BLACK
6
CONTINUOUS
10
114.822
20
-76.3533
11
114.826
21
-76.3555
0
LINE
8
BLACK
6
CONTINUOUS
10
114.826
20
-76.3555
11
114.826
21
-76.3557
0
LINE
8
BLACK
6
CONTINUOUS
10
114.826
20
-76.3557
11
114.826
21
-76.3557
0
LINE
8
BLACK
6
CONTINUOUS
10
114.826
20
-76.3557
11
114.83
21
-76.3587
0
LINE
8
BLACK
6
CONTINUOUS
10
114.83
20
-76.3587
11
114.833
21
-76.3618
0
LINE
8
BLACK
6
CONTINUOUS
10
114.833
20
-76.3618
11
114.834
21
-76.3619
0
LINE
8
BLACK
6
CONTINUOUS
10
114.834
20
-76.3619
11
114.834
21
-76.362
0
LINE
8
BLACK
6
CONTINUOUS
10
114.834
20
-76.362
11
114.837
21
-76.3656
0
LINE
8
BLACK
6
CONTINUOUS
10
114.837
20
-76.3656
11
114.84
21
-76.3693
0
LINE
8
BLACK
6
CONTINUOUS
10
114.84
20
-76.3693
11
114.84
21
-76.3695
0
LINE
8
BLACK
6
CONTINUOUS
10
114.84
20
-76.3695
11
114.84
21
-76.3696
0
LINE
8
BLACK
6
CONTINUOUS
10
114.84
20
-76.3696
11
114.842
21
-76.3737
0
LINE
8
BLACK
6
CONTINUOUS
10
114.842
20
-76.3737
11
114.844
21
-76.3779
0
LINE
8
BLACK
6
CONTINUOUS
10
114.844
20
-76.3779
11
114.844
21
-76.3781
0
LINE
8
BLACK
6
CONTINUOUS
10
114.844
20
-76.3781
11
114.844
21
-76.3783
0
LINE
8
BLACK
6
CONTINUOUS
10
114.844
20
-76.3783
11
114.846
21
-76.3827
0
LINE
8
BLACK
6
CONTINUOUS
10
114.846
20
-76.3827
11
114.847
21
-76.3873
0
LINE
8
BLACK
6
CONTINUOUS
10
114.847
20
-76.3873
11
114.847
21
-76.3875
0
LINE
8
BLACK
6
CONTINUOUS
10
114.847
20
-76.3875
11
114.847
21
-76.3876
0
LINE
8
BLACK
6
CONTINUOUS
10
114.847
20
-76.3876
11
114.848
21
-76.3923
0
LINE
8
BLACK
6
CONTINUOUS
10
114.848
20
-76.3923
11
114.848
21
-76.397
0
LINE
8
BLACK
6
CONTINUOUS
10
114.848
20
-76.397
11
114.848
21
-76.982
0
LINE
8
BLACK
6
CONTINUOUS
10
114.848
20
-76.982
11
115.383
21
-76.982
0
LINE
8
BLACK
6
CONTINUOUS
10
115.383
20
-76.982
11
115.383
21
-76.397
0
LINE
8
BLACK
6
CONTINUOUS
10
115.383
20
-76.397
11
115.383
21
-76.3967
0
LINE
8
BLACK
6
CONTINUOUS
10
115.383
20
-76.3967
11
115.383
21
-76.3967
0
LINE
8
BLACK
6
CONTINUOUS
10
115.383
20
-76.3967
11
115.383
21
-76.3966
0
LINE
8
BLACK
6
CONTINUOUS
10
115.383
20
-76.3966
11
115.383
21
-76.3963
0
LINE
8
BLACK
6
CONTINUOUS
10
115.383
20
-76.3963
11
115.384
21
-76.3917
0
LINE
8
BLACK
6
CONTINUOUS
10
115.384
20
-76.3917
11
115.384
21
-76.3869
0
LINE
8
BLACK
6
CONTINUOUS
10
115.384
20
-76.3869
11
115.384
21
-76.3868
0
LINE
8
BLACK
6
CONTINUOUS
10
115.384
20
-76.3868
11
115.384
21
-76.3866
0
LINE
8
BLACK
6
CONTINUOUS
10
115.384
20
-76.3866
11
115.386
21
-76.3821
0
LINE
8
BLACK
6
CONTINUOUS
10
115.386
20
-76.3821
11
115.387
21
-76.3776
0
LINE
8
BLACK
6
CONTINUOUS
10
115.387
20
-76.3776
11
115.387
21
-76.3775
0
LINE
8
BLACK
6
CONTINUOUS
10
115.387
20
-76.3775
11
115.387
21
-76.3773
0
LINE
8
BLACK
6
CONTINUOUS
10
115.387
20
-76.3773
11
115.389
21
-76.3732
0
LINE
8
BLACK
6
CONTINUOUS
10
115.389
20
-76.3732
11
115.392
21
-76.369
0
LINE
8
BLACK
6
CONTINUOUS
10
115.392
20
-76.369
11
115.392
21
-76.3689
0
LINE
8
BLACK
6
CONTINUOUS
10
115.392
20
-76.3689
11
115.392
21
-76.3688
0
LINE
8
BLACK
6
CONTINUOUS
10
115.392
20
-76.3688
11
115.395
21
-76.3652
0
LINE
8
BLACK
6
CONTINUOUS
10
115.395
20
-76.3652
11
115.398
21
-76.3615
0
LINE
8
BLACK
6
CONTINUOUS
10
115.398
20
-76.3615
11
115.398
21
-76.3614
0
LINE
8
BLACK
6
CONTINUOUS
10
115.398
20
-76.3614
11
115.398
21
-76.3613
0
LINE
8
BLACK
6
CONTINUOUS
10
115.398
20
-76.3613
11
115.402
21
-76.3584
0
LINE
8
BLACK
6
CONTINUOUS
10
115.402
20
-76.3584
11
115.405
21
-76.3554
0
LINE
8
BLACK
6
CONTINUOUS
10
115.405
20
-76.3554
11
115.405
21
-76.3553
0
LINE
8
BLACK
6
CONTINUOUS
10
115.405
20
-76.3553
11
115.406
21
-76.3552
0
LINE
8
BLACK
6
CONTINUOUS
10
115.406
20
-76.3552
11
115.41
21
-76.353
0
LINE
8
BLACK
6
CONTINUOUS
10
115.41
20
-76.353
11
115.414
21
-76.3508
0
LINE
8
BLACK
6
CONTINUOUS
10
115.414
20
-76.3508
11
115.414
21
-76.3507
0
LINE
8
BLACK
6
CONTINUOUS
10
115.414
20
-76.3507
11
115.414
21
-76.3506
0
LINE
8
BLACK
6
CONTINUOUS
10
115.414
20
-76.3506
11
115.419
21
-76.3493
0
LINE
8
BLACK
6
CONTINUOUS
10
115.419
20
-76.3493
11
115.423
21
-76.348
0
LINE
8
BLACK
6
CONTINUOUS
10
115.423
20
-76.348
11
115.423
21
-76.3479
0
LINE
8
BLACK
6
CONTINUOUS
10
115.423
20
-76.3479
11
115.424
21
-76.3479
0
LINE
8
BLACK
6
CONTINUOUS
10
115.424
20
-76.3479
11
115.428
21
-76.3475
0
LINE
8
BLACK
6
CONTINUOUS
10
115.428
20
-76.3475
11
115.433
21
-76.347
0
LINE
8
BLACK
6
CONTINUOUS
10
115.433
20
-76.347
11
116.068
21
-76.347
0
LINE
8
BLACK
6
CONTINUOUS
10
116.068
20
-76.347
11
116.068
21
-76.347
0
LINE
8
BLACK
6
CONTINUOUS
10
116.068
20
-76.347
11
116.068
21
-76.347
0
LINE
8
BLACK
6
CONTINUOUS
10
116.068
20
-76.347
11
116.068
21
-76.347
0
LINE
8
BLACK
6
CONTINUOUS
10
116.068
20
-76.347
11
116.069
21
-76.347
0
LINE
8
BLACK
6
CONTINUOUS
10
116.069
20
-76.347
11
116.073
21
-76.3475
0
LINE
8
BLACK
6
CONTINUOUS
10
116.073
20
-76.3475
11
116.078
21
-76.348
0
LINE
8
BLACK
6
CONTINUOUS
10
116.078
20
-76.348
11
116.078
21
-76.3481
0
LINE
8
BLACK
6
CONTINUOUS
10
116.078
20
-76.3481
11
116.078
21
-76.3481
0
LINE
8
BLACK
6
CONTINUOUS
10
116.078
20
-76.3481
11
116.083
21
-76.3495
0
LINE
8
BLACK
6
CONTINUOUS
10
116.083
20
-76.3495
11
116.087
21
-76.3509
0
LINE
8
BLACK
6
CONTINUOUS
10
116.087
20
-76.3509
11
116.088
21
-76.351
0
LINE
8
BLACK
6
CONTINUOUS
10
116.088
20
-76.351
11
116.088
21
-76.351
0
LINE
8
BLACK
6
CONTINUOUS
10
116.088
20
-76.351
11
116.092
21
-76.3533
0
LINE
8
BLACK
6
CONTINUOUS
10
116.092
20
-76.3533
11
116.096
21
-76.3555
0
LINE
8
BLACK
6
CONTINUOUS
10
116.096
20
-76.3555
11
116.096
21
-76.3557
0
LINE
8
BLACK
6
CONTINUOUS
10
116.096
20
-76.3557
11
116.096
21
-76.3557
0
LINE
8
BLACK
6
CONTINUOUS
10
116.096
20
-76.3557
11
116.1
21
-76.3587
0
LINE
8
BLACK
6
CONTINUOUS
10
116.1
20
-76.3587
11
116.103
21
-76.3618
0
LINE
8
BLACK
6
CONTINUOUS
10
116.103
20
-76.3618
11
116.104
21
-76.3619
0
LINE
8
BLACK
6
CONTINUOUS
10
116.104
20
-76.3619
11
116.104
21
-76.362
0
LINE
8
BLACK
6
CONTINUOUS
10
116.104
20
-76.362
11
116.107
21
-76.3656
0
LINE
8
BLACK
6
CONTINUOUS
10
116.107
20
-76.3656
11
116.11
21
-76.3693
0
LINE
8
BLACK
6
CONTINUOUS
10
116.11
20
-76.3693
11
116.11
21
-76.3695
0
LINE
8
BLACK
6
CONTINUOUS
10
116.11
20
-76.3695
11
116.11
21
-76.3696
0
LINE
8
BLACK
6
CONTINUOUS
10
116.11
20
-76.3696
11
116.112
21
-76.3737
0
LINE
8
BLACK
6
CONTINUOUS
10
116.112
20
-76.3737
11
116.114
21
-76.3779
0
LINE
8
BLACK
6
CONTINUOUS
10
116.114
20
-76.3779
11
116.114
21
-76.3781
0
LINE
8
BLACK
6
CONTINUOUS
10
116.114
20
-76.3781
11
116.114
21
-76.3783
0
LINE
8
BLACK
6
CONTINUOUS
10
116.114
20
-76.3783
11
116.116
21
-76.3827
0
LINE
8
BLACK
6
CONTINUOUS
10
116.116
20
-76.3827
11
116.117
21
-76.3873
0
LINE
8
BLACK
6
CONTINUOUS
10
116.117
20
-76.3873
11
116.117
21
-76.3875
0
LINE
8
BLACK
6
CONTINUOUS
10
116.117
20
-76.3875
11
116.117
21
-76.3876
0
LINE
8
BLACK
6
CONTINUOUS
10
116.117
20
-76.3876
11
116.118
21
-76.3923
0
LINE
8
BLACK
6
CONTINUOUS
10
116.118
20
-76.3923
11
116.118
21
-76.397
0
LINE
8
BLACK
6
CONTINUOUS
10
116.118
20
-76.397
11
116.118
21
-76.982
0
LINE
8
BLACK
6
CONTINUOUS
10
116.118
20
-76.982
11
117.338
21
-76.982
0
LINE
8
BLACK
6
CONTINUOUS
10
117.338
20
-76.982
11
117.338
21
-76.982
0
LINE
8
BLACK
6
CONTINUOUS
10
115.483
20
-77.717
11
115.483
21
-78.252
0
LINE
8
BLACK
6
CONTINUOUS
10
115.483
20
-78.252
11
116.018
21
-78.252
0
LINE
8
BLACK
6
CONTINUOUS
10
116.018
20
-78.252
11
116.018
21
-77.717
0
LINE
8
BLACK
6
CONTINUOUS
10
116.018
20
-77.717
11
115.483
21
-77.717
0
LINE
8
BLACK
6
CONTINUOUS
10
113.528
20
-76.982
11
113.528
21
-76.982
0
LINE
8
BLACK
6
CONTINUOUS
10
113.528
20
-76.982
11
113.528
21
-76.982
0
LINE
8
BLACK
6
CONTINUOUS
10
113.528
20
-76.982
11
113.529
21
-76.982
0
LINE
8
BLACK
6
CONTINUOUS
10
113.529
20
-76.982
11
113.533
21
-76.9825
0
LINE
8
BLACK
6
CONTINUOUS
10
113.533
20
-76.9825
11
113.538
21
-76.983
0
LINE
8
BLACK
6
CONTINUOUS
10
113.538
20
-76.983
11
113.538
21
-76.9831
0
LINE
8
BLACK
6
CONTINUOUS
10
113.538
20
-76.9831
11
113.538
21
-76.9831
0
LINE
8
BLACK
6
CONTINUOUS
10
113.538
20
-76.9831
11
113.543
21
-76.9845
0
LINE
8
BLACK
6
CONTINUOUS
10
113.543
20
-76.9845
11
113.547
21
-76.9859
0
LINE
8
BLACK
6
CONTINUOUS
10
113.547
20
-76.9859
11
113.548
21
-76.986
0
LINE
8
BLACK
6
CONTINUOUS
10
113.548
20
-76.986
11
113.548
21
-76.986
0
LINE
8
BLACK
6
CONTINUOUS
10
113.548
20
-76.986
11
113.552
21
-76.9883
0
LINE
8
BLACK
6
CONTINUOUS
10
113.552
20
-76.9883
11
113.556
21
-76.9905
0
LINE
8
BLACK
6
CONTINUOUS
10
113.556
20
-76.9905
11
113.556
21
-76.9907
0
LINE
8
BLACK
6
CONTINUOUS
10
113.556
20
-76.9907
11
113.556
21
-76.9907
0
LINE
8
BLACK
6
CONTINUOUS
10
113.556
20
-76.9907
11
113.56
21
-76.9937
0
LINE
8
BLACK
6
CONTINUOUS
10
113.56
20
-76.9937
11
113.563
21
-76.9968
0
LINE
8
BLACK
6
CONTINUOUS
10
113.563
20
-76.9968
11
113.564
21
-76.9969
0
LINE
8
BLACK
6
CONTINUOUS
10
113.564
20
-76.9969
11
113.564
21
-76.997
0
LINE
8
BLACK
6
CONTINUOUS
10
113.564
20
-76.997
11
113.567
21
-77.0006
0
LINE
8
BLACK
6
CONTINUOUS
10
113.567
20
-77.0006
11
113.57
21
-77.0043
0
LINE
8
BLACK
6
CONTINUOUS
10
113.57
20
-77.0043
11
113.57
21
-77.0045
0
LINE
8
BLACK
6
CONTINUOUS
10
113.57
20
-77.0045
11
113.57
21
-77.0046
0
LINE
8
BLACK
6
CONTINUOUS
10
113.57
20
-77.0046
11
113.572
21
-77.0087
0
LINE
8
BLACK
6
CONTINUOUS
10
113.572
20
-77.0087
11
113.574
21
-77.0129
0
LINE
8
BLACK
6
CONTINUOUS
10
113.574
20
-77.0129
11
113.574
21
-77.0131
0
LINE
8
BLACK
6
CONTINUOUS
10
113.574
20
-77.0131
11
113.574
21
-77.0133
0
LINE
8
BLACK
6
CONTINUOUS
10
113.574
20
-77.0133
11
113.576
21
-77.0177
0
LINE
8
BLACK
6
CONTINUOUS
10
113.576
20
-77.0177
11
113.577
21
-77.0223
0
LINE
8
BLACK
6
CONTINUOUS
10
113.577
20
-77.0223
11
113.577
21
-77.0225
0
LINE
8
BLACK
6
CONTINUOUS
10
113.577
20
-77.0225
11
113.577
21
-77.0226
0
LINE
8
BLACK
6
CONTINUOUS
10
113.577
20
-77.0226
11
113.578
21
-77.0273
0
LINE
8
BLACK
6
CONTINUOUS
10
113.578
20
-77.0273
11
113.578
21
-77.032
0
LINE
8
BLACK
6
CONTINUOUS
10
113.578
20
-77.032
11
113.578
21
-77.667
0
LINE
8
BLACK
6
CONTINUOUS
10
113.578
20
-77.667
11
113.578
21
-77.6673
0
LINE
8
BLACK
6
CONTINUOUS
10
113.578
20
-77.6673
11
113.578
21
-77.6673
0
LINE
8
BLACK
6
CONTINUOUS
10
113.578
20
-77.6673
11
113.578
21
-77.6674
0
LINE
8
BLACK
6
CONTINUOUS
10
113.578
20
-77.6674
11
113.578
21
-77.6677
0
LINE
8
BLACK
6
CONTINUOUS
10
113.578
20
-77.6677
11
113.577
21
-77.6723
0
LINE
8
BLACK
6
CONTINUOUS
10
113.577
20
-77.6723
11
113.577
21
-77.6771
0
LINE
8
BLACK
6
CONTINUOUS
10
113.577
20
-77.6771
11
113.577
21
-77.6772
0
LINE
8
BLACK
6
CONTINUOUS
10
113.577
20
-77.6772
11
113.577
21
-77.6774
0
LINE
8
BLACK
6
CONTINUOUS
10
113.577
20
-77.6774
11
113.575
21
-77.6819
0
LINE
8
BLACK
6
CONTINUOUS
10
113.575
20
-77.6819
11
113.574
21
-77.6864
0
LINE
8
BLACK
6
CONTINUOUS
10
113.574
20
-77.6864
11
113.574
21
-77.6865
0
LINE
8
BLACK
6
CONTINUOUS
10
113.574
20
-77.6865
11
113.574
21
-77.6867
0
LINE
8
BLACK
6
CONTINUOUS
10
113.574
20
-77.6867
11
113.572
21
-77.6908
0
LINE
8
BLACK
6
CONTINUOUS
10
113.572
20
-77.6908
11
113.569
21
-77.695
0
LINE
8
BLACK
6
CONTINUOUS
10
113.569
20
-77.695
11
113.569
21
-77.6951
0
LINE
8
BLACK
6
CONTINUOUS
10
113.569
20
-77.6951
11
113.569
21
-77.6952
0
LINE
8
BLACK
6
CONTINUOUS
10
113.569
20
-77.6952
11
113.566
21
-77.6988
0
LINE
8
BLACK
6
CONTINUOUS
10
113.566
20
-77.6988
11
113.563
21
-77.7025
0
LINE
8
BLACK
6
CONTINUOUS
10
113.563
20
-77.7025
11
113.563
21
-77.7026
0
LINE
8
BLACK
6
CONTINUOUS
10
113.563
20
-77.7026
11
113.563
21
-77.7027
0
LINE
8
BLACK
6
CONTINUOUS
10
113.563
20
-77.7027
11
113.559
21
-77.7056
0
LINE
8
BLACK
6
CONTINUOUS
10
113.559
20
-77.7056
11
113.556
21
-77.7086
0
LINE
8
BLACK
6
CONTINUOUS
10
113.556
20
-77.7086
11
113.556
21
-77.7087
0
LINE
8
BLACK
6
CONTINUOUS
10
113.556
20
-77.7087
11
113.555
21
-77.7088
0
LINE
8
BLACK
6
CONTINUOUS
10
113.555
20
-77.7088
11
113.551
21
-77.711
0
LINE
8
BLACK
6
CONTINUOUS
10
113.551
20
-77.711
11
113.547
21
-77.7132
0
LINE
8
BLACK
6
CONTINUOUS
10
113.547
20
-77.7132
11
113.547
21
-77.7133
0
LINE
8
BLACK
6
CONTINUOUS
10
113.547
20
-77.7133
11
113.547
21
-77.7134
0
LINE
8
BLACK
6
CONTINUOUS
10
113.547
20
-77.7134
11
113.542
21
-77.7147
0
LINE
8
BLACK
6
CONTINUOUS
10
113.542
20
-77.7147
11
113.538
21
-77.716
0
LINE
8
BLACK
6
CONTINUOUS
10
113.538
20
-77.716
11
113.538
21
-77.7161
0
LINE
8
BLACK
6
CONTINUOUS
10
113.538
20
-77.7161
11
113.537
21
-77.7161
0
LINE
8
BLACK
6
CONTINUOUS
10
113.537
20
-77.7161
11
113.533
21
-77.7165
0
LINE
8
BLACK
6
CONTINUOUS
10
113.533
20
-77.7165
11
113.528
21
-77.717
0
LINE
8
BLACK
6
CONTINUOUS
10
113.528
20
-77.717
11
112.893
21
-77.717
0
LINE
8
BLACK
6
CONTINUOUS
10
112.893
20
-77.717
11
112.893
21
-77.717
0
LINE
8
BLACK
6
CONTINUOUS
10
112.893
20
-77.717
11
112.893
21
-77.717
0
LINE
8
BLACK
6
CONTINUOUS
10
112.893
20
-77.717
11
112.893
21
-77.717
0
LINE
8
BLACK
6
CONTINUOUS
10
112.893
20
-77.717
11
112.892
21
-77.717
0
LINE
8
BLACK
6
CONTINUOUS
10
112.892
20
-77.717
11
112.888
21
-77.7165
0
LINE
8
BLACK
6
CONTINUOUS
10
112.888
20
-77.7165
11
112.883
21
-77.716
0
LINE
8
BLACK
6
CONTINUOUS
10
112.883
20
-77.716
11
112.883
21
-77.7159
0
LINE
8
BLACK
6
CONTINUOUS
10
112.883
20
-77.7159
11
112.883
21
-77.7159
0
LINE
8
BLACK
6
CONTINUOUS
10
112.883
20
-77.7159
11
112.878
21
-77.7145
0
LINE
8
BLACK
6
CONTINUOUS
10
112.878
20
-77.7145
11
112.874
21
-77.7131
0
LINE
8
BLACK
6
CONTINUOUS
10
112.874
20
-77.7131
11
112.873
21
-77.713
0
LINE
8
BLACK
6
CONTINUOUS
10
112.873
20
-77.713
11
112.873
21
-77.713
0
LINE
8
BLACK
6
CONTINUOUS
10
112.873
20
-77.713
11
112.869
21
-77.7107
0
LINE
8
BLACK
6
CONTINUOUS
10
112.869
20
-77.7107
11
112.865
21
-77.7085
0
LINE
8
BLACK
6
CONTINUOUS
10
112.865
20
-77.7085
11
112.865
21
-77.7083
0
LINE
8
BLACK
6
CONTINUOUS
10
112.865
20
-77.7083
11
112.865
21
-77.7083
0
LINE
8
BLACK
6
CONTINUOUS
10
112.865
20
-77.7083
11
112.861
21
-77.7053
0
LINE
8
BLACK
6
CONTINUOUS
10
112.861
20
-77.7053
11
112.858
21
-77.7022
0
LINE
8
BLACK
6
CONTINUOUS
10
112.858
20
-77.7022
11
112.857
21
-77.7021
0
LINE
8
BLACK
6
CONTINUOUS
10
112.857
20
-77.7021
11
112.857
21
-77.702
0
LINE
8
BLACK
6
CONTINUOUS
10
112.857
20
-77.702
11
112.854
21
-77.6984
0
LINE
8
BLACK
6
CONTINUOUS
10
112.854
20
-77.6984
11
112.851
21
-77.6947
0
LINE
8
BLACK
6
CONTINUOUS
10
112.851
20
-77.6947
11
112.851
21
-77.6945
0
LINE
8
BLACK
6
CONTINUOUS
10
112.851
20
-77.6945
11
112.851
21
-77.6944
0
LINE
8
BLACK
6
CONTINUOUS
10
112.851
20
-77.6944
11
112.849
21
-77.6903
0
LINE
8
BLACK
6
CONTINUOUS
10
112.849
20
-77.6903
11
112.847
21
-77.6861
0
LINE
8
BLACK
6
CONTINUOUS
10
112.847
20
-77.6861
11
112.847
21
-77.6859
0
LINE
8
BLACK
6
CONTINUOUS
10
112.847
20
-77.6859
11
112.847
21
-77.6857
0
LINE
8
BLACK
6
CONTINUOUS
10
112.847
20
-77.6857
11
112.845
21
-77.6813
0
LINE
8
BLACK
6
CONTINUOUS
10
112.845
20
-77.6813
11
112.844
21
-77.6767
0
LINE
8
BLACK
6
CONTINUOUS
10
112.844
20
-77.6767
11
112.844
21
-77.6765
0
LINE
8
BLACK
6
CONTINUOUS
10
112.844
20
-77.6765
11
112.844
21
-77.6764
0
LINE
8
BLACK
6
CONTINUOUS
10
112.844
20
-77.6764
11
112.843
21
-77.6717
0
LINE
8
BLACK
6
CONTINUOUS
10
112.843
20
-77.6717
11
112.843
21
-77.667
0
LINE
8
BLACK
6
CONTINUOUS
10
112.843
20
-77.667
11
112.843
21
-77.032
0
LINE
8
BLACK
6
CONTINUOUS
10
112.843
20
-77.032
11
112.843
21
-77.0317
0
LINE
8
BLACK
6
CONTINUOUS
10
112.843
20
-77.0317
11
112.843
21
-77.0317
0
LINE
8
BLACK
6
CONTINUOUS
10
112.843
20
-77.0317
11
112.843
21
-77.0316
0
LINE
8
BLACK
6
CONTINUOUS
10
112.843
20
-77.0316
11
112.843
21
-77.0313
0
LINE
8
BLACK
6
CONTINUOUS
10
112.843
20
-77.0313
11
112.844
21
-77.0267
0
LINE
8
BLACK
6
CONTINUOUS
10
112.844
20
-77.0267
11
112.844
21
-77.0219
0
LINE
8
BLACK
6
CONTINUOUS
10
112.844
20
-77.0219
11
112.844
21
-77.0218
0
LINE
8
BLACK
6
CONTINUOUS
10
112.844
20
-77.0218
11
112.844
21
-77.0216
0
LINE
8
BLACK
6
CONTINUOUS
10
112.844
20
-77.0216
11
112.846
21
-77.0171
0
LINE
8
BLACK
6
CONTINUOUS
10
112.846
20
-77.0171
11
112.847
21
-77.0126
0
LINE
8
BLACK
6
CONTINUOUS
10
112.847
20
-77.0126
11
112.847
21
-77.0125
0
LINE
8
BLACK
6
CONTINUOUS
10
112.847
20
-77.0125
11
112.847
21
-77.0123
0
LINE
8
BLACK
6
CONTINUOUS
10
112.847
20
-77.0123
11
112.849
21
-77.0082
0
LINE
8
BLACK
6
CONTINUOUS
10
112.849
20
-77.0082
11
112.852
21
-77.004
0
LINE
8
BLACK
6
CONTINUOUS
10
112.852
20
-77.004
11
112.852
21
-77.0039
0
LINE
8
BLACK
6
CONTINUOUS
10
112.852
20
-77.0039
11
112.852
21
-77.0038
0
LINE
8
BLACK
6
CONTINUOUS
10
112.852
20
-77.0038
11
112.855
21
-77.0002
0
LINE
8
BLACK
6
CONTINUOUS
10
112.855
20
-77.0002
11
112.858
21
-76.9965
0
LINE
8
BLACK
6
CONTINUOUS
10
112.858
20
-76.9965
11
112.858
21
-76.9964
0
LINE
8
BLACK
6
CONTINUOUS
10
112.858
20
-76.9964
11
112.858
21
-76.9963
0
LINE
8
BLACK
6
CONTINUOUS
10
112.858
20
-76.9963
11
112.862
21
-76.9934
0
LINE
8
BLACK
6
CONTINUOUS
10
112.862
20
-76.9934
11
112.865
21
-76.9904
0
LINE
8
BLACK
6
CONTINUOUS
10
112.865
20
-76.9904
11
112.865
21
-76.9903
0
LINE
8
BLACK
6
CONTINUOUS
10
112.865
20
-76.9903
11
112.866
21
-76.9902
0
LINE
8
BLACK
6
CONTINUOUS
10
112.866
20
-76.9902
11
112.87
21
-76.988
0
LINE
8
BLACK
6
CONTINUOUS
10
112.87
20
-76.988
11
112.874
21
-76.9858
0
LINE
8
BLACK
6
CONTINUOUS
10
112.874
20
-76.9858
11
112.874
21
-76.9857
0
LINE
8
BLACK
6
CONTINUOUS
10
112.874
20
-76.9857
11
112.874
21
-76.9856
0
LINE
8
BLACK
6
CONTINUOUS
10
112.874
20
-76.9856
11
112.879
21
-76.9843
0
LINE
8
BLACK
6
CONTINUOUS
10
112.879
20
-76.9843
11
112.883
21
-76.983
0
LINE
8
BLACK
6
CONTINUOUS
10
112.883
20
-76.983
11
112.883
21
-76.9829
0
LINE
8
BLACK
6
CONTINUOUS
10
112.883
20
-76.9829
11
112.884
21
-76.9829
0
LINE
8
BLACK
6
CONTINUOUS
10
112.884
20
-76.9829
11
112.888
21
-76.9825
0
LINE
8
BLACK
6
CONTINUOUS
10
112.888
20
-76.9825
11
112.893
21
-76.982
0
LINE
8
BLACK
6
CONTINUOUS
10
112.893
20
-76.982
11
113.528
21
-76.982
0
LINE
8
BLACK
6
CONTINUOUS
10
113.528
20
-76.982
11
113.528
21
-76.982
0
LINE
8
BLACK
6
CONTINUOUS
10
80.773
20
-72.4518
11
81.2552
21
-72.6516
0
LINE
8
BLACK
6
CONTINUOUS
10
81.2552
20
-72.6516
11
81.6893
21
-72.9416
0
LINE
8
BLACK
6
CONTINUOUS
10
81.6893
20
-72.9416
11
82.0584
21
-73.3107
0
LINE
8
BLACK
6
CONTINUOUS
10
82.0584
20
-73.3107
11
82.3484
21
-73.7448
0
LINE
8
BLACK
6
CONTINUOUS
10
82.3484
20
-73.7448
11
82.5482
21
-74.227
0
LINE
8
BLACK
6
CONTINUOUS
10
82.5482
20
-74.227
11
82.65
21
-74.739
0
LINE
8
BLACK
6
CONTINUOUS
10
82.65
20
-74.739
11
82.65
21
-75.261
0
LINE
8
BLACK
6
CONTINUOUS
10
82.65
20
-75.261
11
82.5482
21
-75.773
0
LINE
8
BLACK
6
CONTINUOUS
10
82.5482
20
-75.773
11
82.3484
21
-76.2552
0
LINE
8
BLACK
6
CONTINUOUS
10
82.3484
20
-76.2552
11
82.0584
21
-76.6893
0
LINE
8
BLACK
6
CONTINUOUS
10
82.0584
20
-76.6893
11
81.6893
21
-77.0584
0
LINE
8
BLACK
6
CONTINUOUS
10
81.6893
20
-77.0584
11
81.2552
21
-77.3484
0
LINE
8
BLACK
6
CONTINUOUS
10
81.2552
20
-77.3484
11
80.773
21
-77.5482
0
LINE
8
BLACK
6
CONTINUOUS
10
80.773
20
-77.5482
11
80.261
21
-77.65
0
LINE
8
BLACK
6
CONTINUOUS
10
80.261
20
-77.65
11
79.739
21
-77.65
0
LINE
8
BLACK
6
CONTINUOUS
10
79.739
20
-77.65
11
79.227
21
-77.5482
0
LINE
8
BLACK
6
CONTINUOUS
10
79.227
20
-77.5482
11
78.7448
21
-77.3484
0
LINE
8
BLACK
6
CONTINUOUS
10
78.7448
20
-77.3484
11
78.3107
21
-77.0584
0
LINE
8
BLACK
6
CONTINUOUS
10
78.3107
20
-77.0584
11
77.9416
21
-76.6893
0
LINE
8
BLACK
6
CONTINUOUS
10
77.9416
20
-76.6893
11
77.6516
21
-76.2552
0
LINE
8
BLACK
6
CONTINUOUS
10
77.6516
20
-76.2552
11
77.4518
21
-75.773
0
LINE
8
BLACK
6
CONTINUOUS
10
77.4518
20
-75.773
11
77.35
21
-75.261
0
LINE
8
BLACK
6
CONTINUOUS
10
77.35
20
-75.261
11
77.35
21
-74.739
0
LINE
8
BLACK
6
CONTINUOUS
10
77.35
20
-74.739
11
77.4518
21
-74.227
0
LINE
8
BLACK
6
CONTINUOUS
10
77.4518
20
-74.227
11
77.6516
21
-73.7448
0
LINE
8
BLACK
6
CONTINUOUS
10
77.6516
20
-73.7448
11
77.9416
21
-73.3107
0
LINE
8
BLACK
6
CONTINUOUS
10
77.9416
20
-73.3107
11
78.3107
21
-72.9416
0
LINE
8
BLACK
6
CONTINUOUS
10
78.3107
20
-72.9416
11
78.7448
21
-72.6516
0
LINE
8
BLACK
6
CONTINUOUS
10
78.7448
20
-72.6516
11
79.227
21
-72.4518
0
LINE
8
BLACK
6
CONTINUOUS
10
79.227
20
-72.4518
11
79.739
21
-72.35
0
LINE
8
BLACK
6
CONTINUOUS
10
79.739
20
-72.35
11
80.261
21
-72.35
0
LINE
8
BLACK
6
CONTINUOUS
10
80.261
20
-72.35
11
80.773
21
-72.4518
0
LINE
8
BLACK
6
CONTINUOUS
10
126.686
20
-76.196
11
125.986
21
-76.196
0
LINE
8
BLACK
6
CONTINUOUS
10
125.986
20
-76.196
11
125.986
21
-75.096
0
LINE
8
BLACK
6
CONTINUOUS
10
125.986
20
-75.096
11
126.686
21
-75.096
0
LINE
8
BLACK
6
CONTINUOUS
10
126.686
20
-75.096
11
126.686
21
-76.196
0
LINE
8
BLACK
6
CONTINUOUS
10
98.885
20
-76.196
11
98.085
21
-76.196
0
LINE
8
BLACK
6
CONTINUOUS
10
98.085
20
-76.196
11
98.085
21
-75.096
0
LINE
8
BLACK
6
CONTINUOUS
10
98.085
20
-75.096
11
98.885
21
-75.096
0
LINE
8
BLACK
6
CONTINUOUS
10
98.885
20
-75.096
11
98.885
21
-76.196
0
LINE
8
BLACK
6
CONTINUOUS
10
100.435
20
-76.196
11
99.735
21
-76.196
0
LINE
8
BLACK
6
CONTINUOUS
10
99.735
20
-76.196
11
99.735
21
-75.096
0
LINE
8
BLACK
6
CONTINUOUS
10
99.735
20
-75.096
11
100.435
21
-75.096
0
LINE
8
BLACK
6
CONTINUOUS
10
100.435
20
-75.096
11
100.435
21
-76.196
0
LINE
8
BLACK
6
CONTINUOUS
10
99.635
20
-76.196
11
98.935
21
-76.196
0
LINE
8
BLACK
6
CONTINUOUS
10
98.935
20
-76.196
11
98.935
21
-75.096
0
LINE
8
BLACK
6
CONTINUOUS
10
98.935
20
-75.096
11
99.635
21
-75.096
0
LINE
8
BLACK
6
CONTINUOUS
10
99.635
20
-75.096
11
99.635
21
-76.196
0
LINE
8
BLACK
6
CONTINUOUS
10
101.285
20
-76.196
11
100.485
21
-76.196
0
LINE
8
BLACK
6
CONTINUOUS
10
100.485
20
-76.196
11
100.485
21
-75.096
0
LINE
8
BLACK
6
CONTINUOUS
10
100.485
20
-75.096
11
101.285
21
-75.096
0
LINE
8
BLACK
6
CONTINUOUS
10
101.285
20
-75.096
11
101.285
21
-76.196
0
LINE
8
BLACK
6
CONTINUOUS
10
128.336
20
-76.196
11
127.536
21
-76.196
0
LINE
8
BLACK
6
CONTINUOUS
10
127.536
20
-76.196
11
127.536
21
-75.096
0
LINE
8
BLACK
6
CONTINUOUS
10
127.536
20
-75.096
11
128.336
21
-75.096
0
LINE
8
BLACK
6
CONTINUOUS
10
128.336
20
-75.096
11
128.336
21
-76.196
0
LINE
8
BLACK
6
CONTINUOUS
10
127.486
20
-76.196
11
126.786
21
-76.196
0
LINE
8
BLACK
6
CONTINUOUS
10
126.786
20
-76.196
11
126.786
21
-75.096
0
LINE
8
BLACK
6
CONTINUOUS
10
126.786
20
-75.096
11
127.486
21
-75.096
0
LINE
8
BLACK
6
CONTINUOUS
10
127.486
20
-75.096
11
127.486
21
-76.196
0
LINE
8
BLACK
6
CONTINUOUS
10
125.936
20
-76.196
11
125.136
21
-76.196
0
LINE
8
BLACK
6
CONTINUOUS
10
125.136
20
-76.196
11
125.136
21
-75.096
0
LINE
8
BLACK
6
CONTINUOUS
10
125.136
20
-75.096
11
125.936
21
-75.096
0
LINE
8
BLACK
6
CONTINUOUS
10
125.936
20
-75.096
11
125.936
21
-76.196
0
LINE
8
BLACK
6
CONTINUOUS
10
127.486
20
-74.396
11
126.786
21
-74.396
0
LINE
8
BLACK
6
CONTINUOUS
10
126.786
20
-74.396
11
126.786
21
-73.296
0
LINE
8
BLACK
6
CONTINUOUS
10
126.786
20
-73.296
11
127.486
21
-73.296
0
LINE
8
BLACK
6
CONTINUOUS
10
127.486
20
-73.296
11
127.486
21
-74.396
0
LINE
8
BLACK
6
CONTINUOUS
10
126.686
20
-74.396
11
125.986
21
-74.396
0
LINE
8
BLACK
6
CONTINUOUS
10
125.986
20
-74.396
11
125.986
21
-73.296
0
LINE
8
BLACK
6
CONTINUOUS
10
125.986
20
-73.296
11
126.686
21
-73.296
0
LINE
8
BLACK
6
CONTINUOUS
10
126.686
20
-73.296
11
126.686
21
-74.396
0
LINE
8
BLACK
6
CONTINUOUS
10
128.336
20
-74.396
11
127.536
21
-74.396
0
LINE
8
BLACK
6
CONTINUOUS
10
127.536
20
-74.396
11
127.536
21
-73.296
0
LINE
8
BLACK
6
CONTINUOUS
10
127.536
20
-73.296
11
128.336
21
-73.296
0
LINE
8
BLACK
6
CONTINUOUS
10
128.336
20
-73.296
11
128.336
21
-74.396
0
LINE
8
BLACK
6
CONTINUOUS
10
100.435
20
-74.396
11
99.735
21
-74.396
0
LINE
8
BLACK
6
CONTINUOUS
10
99.735
20
-74.396
11
99.735
21
-73.296
0
LINE
8
BLACK
6
CONTINUOUS
10
99.735
20
-73.296
11
100.435
21
-73.296
0
LINE
8
BLACK
6
CONTINUOUS
10
100.435
20
-73.296
11
100.435
21
-74.396
0
LINE
8
BLACK
6
CONTINUOUS
10
101.285
20
-74.396
11
100.485
21
-74.396
0
LINE
8
BLACK
6
CONTINUOUS
10
100.485
20
-74.396
11
100.485
21
-73.296
0
LINE
8
BLACK
6
CONTINUOUS
10
100.485
20
-73.296
11
101.285
21
-73.296
0
LINE
8
BLACK
6
CONTINUOUS
10
101.285
20
-73.296
11
101.285
21
-74.396
0
LINE
8
BLACK
6
CONTINUOUS
10
99.635
20
-74.396
11
98.935
21
-74.396
0
LINE
8
BLACK
6
CONTINUOUS
10
98.935
20
-74.396
11
98.935
21
-73.296
0
LINE
8
BLACK
6
CONTINUOUS
10
98.935
20
-73.296
11
99.635
21
-73.296
0
LINE
8
BLACK
6
CONTINUOUS
10
99.635
20
-73.296
11
99.635
21
-74.396
0
LINE
8
BLACK
6
CONTINUOUS
10
98.885
20
-74.396
11
98.085
21
-74.396
0
LINE
8
BLACK
6
CONTINUOUS
10
98.085
20
-74.396
11
98.085
21
-73.296
0
LINE
8
BLACK
6
CONTINUOUS
10
98.085
20
-73.296
11
98.885
21
-73.296
0
LINE
8
BLACK
6
CONTINUOUS
10
98.885
20
-73.296
11
98.885
21
-74.396
0
LINE
8
BLACK
6
CONTINUOUS
10
125.936
20
-74.396
11
125.136
21
-74.396
0
LINE
8
BLACK
6
CONTINUOUS
10
125.136
20
-74.396
11
125.136
21
-73.296
0
LINE
8
BLACK
6
CONTINUOUS
10
125.136
20
-73.296
11
125.936
21
-73.296
0
LINE
8
BLACK
6
CONTINUOUS
10
125.936
20
-73.296
11
125.936
21
-74.396
0
LINE
8
BLACK
6
CONTINUOUS
10
136.125
20
-66.392
11
136.352
21
-66.4863
0
LINE
8
BLACK
6
CONTINUOUS
10
136.352
20
-66.4863
11
136.557
21
-66.6231
0
LINE
8
BLACK
6
CONTINUOUS
10
136.557
20
-66.6231
11
136.731
21
-66.7972
0
LINE
8
BLACK
6
CONTINUOUS
10
136.731
20
-66.7972
11
136.868
21
-67.0019
0
LINE
8
BLACK
6
CONTINUOUS
10
136.868
20
-67.0019
11
136.962
21
-67.2294
0
LINE
8
BLACK
6
CONTINUOUS
10
136.962
20
-67.2294
11
137.01
21
-67.4709
0
LINE
8
BLACK
6
CONTINUOUS
10
137.01
20
-67.4709
11
137.01
21
-67.7171
0
LINE
8
BLACK
6
CONTINUOUS
10
137.01
20
-67.7171
11
136.962
21
-67.9586
0
LINE
8
BLACK
6
CONTINUOUS
10
136.962
20
-67.9586
11
136.868
21
-68.1861
0
LINE
8
BLACK
6
CONTINUOUS
10
136.868
20
-68.1861
11
136.731
21
-68.3908
0
LINE
8
BLACK
6
CONTINUOUS
10
136.731
20
-68.3908
11
136.557
21
-68.5649
0
LINE
8
BLACK
6
CONTINUOUS
10
136.557
20
-68.5649
11
136.352
21
-68.7017
0
LINE
8
BLACK
6
CONTINUOUS
10
136.352
20
-68.7017
11
136.125
21
-68.796
0
LINE
8
BLACK
6
CONTINUOUS
10
136.125
20
-68.796
11
135.883
21
-68.844
0
LINE
8
BLACK
6
CONTINUOUS
10
135.883
20
-68.844
11
135.637
21
-68.844
0
LINE
8
BLACK
6
CONTINUOUS
10
135.637
20
-68.844
11
135.395
21
-68.796
0
LINE
8
BLACK
6
CONTINUOUS
10
135.395
20
-68.796
11
135.168
21
-68.7017
0
LINE
8
BLACK
6
CONTINUOUS
10
135.168
20
-68.7017
11
134.963
21
-68.5649
0
LINE
8
BLACK
6
CONTINUOUS
10
134.963
20
-68.5649
11
134.789
21
-68.3908
0
LINE
8
BLACK
6
CONTINUOUS
10
134.789
20
-68.3908
11
134.652
21
-68.1861
0
LINE
8
BLACK
6
CONTINUOUS
10
134.652
20
-68.1861
11
134.558
21
-67.9586
0
LINE
8
BLACK
6
CONTINUOUS
10
134.558
20
-67.9586
11
134.51
21
-67.7171
0
LINE
8
BLACK
6
CONTINUOUS
10
134.51
20
-67.7171
11
134.51
21
-67.4709
0
LINE
8
BLACK
6
CONTINUOUS
10
134.51
20
-67.4709
11
134.558
21
-67.2294
0
LINE
8
BLACK
6
CONTINUOUS
10
134.558
20
-67.2294
11
134.652
21
-67.0019
0
LINE
8
BLACK
6
CONTINUOUS
10
134.652
20
-67.0019
11
134.789
21
-66.7972
0
LINE
8
BLACK
6
CONTINUOUS
10
134.789
20
-66.7972
11
134.963
21
-66.6231
0
LINE
8
BLACK
6
CONTINUOUS
10
134.963
20
-66.6231
11
135.168
21
-66.4863
0
LINE
8
BLACK
6
CONTINUOUS
10
135.168
20
-66.4863
11
135.395
21
-66.392
0
LINE
8
BLACK
6
CONTINUOUS
10
135.395
20
-66.392
11
135.637
21
-66.344
0
LINE
8
BLACK
6
CONTINUOUS
10
135.637
20
-66.344
11
135.883
21
-66.344
0
LINE
8
BLACK
6
CONTINUOUS
10
135.883
20
-66.344
11
136.125
21
-66.392
0
LINE
8
BLACK
6
CONTINUOUS
10
110.725
20
-66.392
11
110.952
21
-66.4863
0
LINE
8
BLACK
6
CONTINUOUS
10
110.952
20
-66.4863
11
111.157
21
-66.6231
0
LINE
8
BLACK
6
CONTINUOUS
10
111.157
20
-66.6231
11
111.331
21
-66.7972
0
LINE
8
BLACK
6
CONTINUOUS
10
111.331
20
-66.7972
11
111.468
21
-67.0019
0
LINE
8
BLACK
6
CONTINUOUS
10
111.468
20
-67.0019
11
111.562
21
-67.2294
0
LINE
8
BLACK
6
CONTINUOUS
10
111.562
20
-67.2294
11
111.61
21
-67.4709
0
LINE
8
BLACK
6
CONTINUOUS
10
111.61
20
-67.4709
11
111.61
21
-67.7171
0
LINE
8
BLACK
6
CONTINUOUS
10
111.61
20
-67.7171
11
111.562
21
-67.9586
0
LINE
8
BLACK
6
CONTINUOUS
10
111.562
20
-67.9586
11
111.468
21
-68.1861
0
LINE
8
BLACK
6
CONTINUOUS
10
111.468
20
-68.1861
11
111.331
21
-68.3908
0
LINE
8
BLACK
6
CONTINUOUS
10
111.331
20
-68.3908
11
111.157
21
-68.5649
0
LINE
8
BLACK
6
CONTINUOUS
10
111.157
20
-68.5649
11
110.952
21
-68.7017
0
LINE
8
BLACK
6
CONTINUOUS
10
110.952
20
-68.7017
11
110.725
21
-68.796
0
LINE
8
BLACK
6
CONTINUOUS
10
110.725
20
-68.796
11
110.483
21
-68.844
0
LINE
8
BLACK
6
CONTINUOUS
10
110.483
20
-68.844
11
110.237
21
-68.844
0
LINE
8
BLACK
6
CONTINUOUS
10
110.237
20
-68.844
11
109.995
21
-68.796
0
LINE
8
BLACK
6
CONTINUOUS
10
109.995
20
-68.796
11
109.768
21
-68.7017
0
LINE
8
BLACK
6
CONTINUOUS
10
109.768
20
-68.7017
11
109.563
21
-68.5649
0
LINE
8
BLACK
6
CONTINUOUS
10
109.563
20
-68.5649
11
109.389
21
-68.3908
0
LINE
8
BLACK
6
CONTINUOUS
10
109.389
20
-68.3908
11
109.252
21
-68.1861
0
LINE
8
BLACK
6
CONTINUOUS
10
109.252
20
-68.1861
11
109.158
21
-67.9586
0
LINE
8
BLACK
6
CONTINUOUS
10
109.158
20
-67.9586
11
109.11
21
-67.7171
0
LINE
8
BLACK
6
CONTINUOUS
10
109.11
20
-67.7171
11
109.11
21
-67.4709
0
LINE
8
BLACK
6
CONTINUOUS
10
109.11
20
-67.4709
11
109.158
21
-67.2294
0
LINE
8
BLACK
6
CONTINUOUS
10
109.158
20
-67.2294
11
109.252
21
-67.0019
0
LINE
8
BLACK
6
CONTINUOUS
10
109.252
20
-67.0019
11
109.389
21
-66.7972
0
LINE
8
BLACK
6
CONTINUOUS
10
109.389
20
-66.7972
11
109.563
21
-66.6231
0
LINE
8
BLACK
6
CONTINUOUS
10
109.563
20
-66.6231
11
109.768
21
-66.4863
0
LINE
8
BLACK
6
CONTINUOUS
10
109.768
20
-66.4863
11
109.995
21
-66.392
0
LINE
8
BLACK
6
CONTINUOUS
10
109.995
20
-66.392
11
110.237
21
-66.344
0
LINE
8
BLACK
6
CONTINUOUS
10
110.237
20
-66.344
11
110.483
21
-66.344
0
LINE
8
BLACK
6
CONTINUOUS
10
110.483
20
-66.344
11
110.725
21
-66.392
0
LINE
8
BLACK
6
CONTINUOUS
10
117.725
20
-66.392
11
117.952
21
-66.4863
0
LINE
8
BLACK
6
CONTINUOUS
10
117.952
20
-66.4863
11
118.157
21
-66.6231
0
LINE
8
BLACK
6
CONTINUOUS
10
118.157
20
-66.6231
11
118.331
21
-66.7972
0
LINE
8
BLACK
6
CONTINUOUS
10
118.331
20
-66.7972
11
118.468
21
-67.0019
0
LINE
8
BLACK
6
CONTINUOUS
10
118.468
20
-67.0019
11
118.562
21
-67.2294
0
LINE
8
BLACK
6
CONTINUOUS
10
118.562
20
-67.2294
11
118.61
21
-67.4709
0
LINE
8
BLACK
6
CONTINUOUS
10
118.61
20
-67.4709
11
118.61
21
-67.7171
0
LINE
8
BLACK
6
CONTINUOUS
10
118.61
20
-67.7171
11
118.562
21
-67.9586
0
LINE
8
BLACK
6
CONTINUOUS
10
118.562
20
-67.9586
11
118.468
21
-68.1861
0
LINE
8
BLACK
6
CONTINUOUS
10
118.468
20
-68.1861
11
118.331
21
-68.3908
0
LINE
8
BLACK
6
CONTINUOUS
10
118.331
20
-68.3908
11
118.157
21
-68.5649
0
LINE
8
BLACK
6
CONTINUOUS
10
118.157
20
-68.5649
11
117.952
21
-68.7017
0
LINE
8
BLACK
6
CONTINUOUS
10
117.952
20
-68.7017
11
117.725
21
-68.796
0
LINE
8
BLACK
6
CONTINUOUS
10
117.725
20
-68.796
11
117.483
21
-68.844
0
LINE
8
BLACK
6
CONTINUOUS
10
117.483
20
-68.844
11
117.237
21
-68.844
0
LINE
8
BLACK
6
CONTINUOUS
10
117.237
20
-68.844
11
116.995
21
-68.796
0
LINE
8
BLACK
6
CONTINUOUS
10
116.995
20
-68.796
11
116.768
21
-68.7017
0
LINE
8
BLACK
6
CONTINUOUS
10
116.768
20
-68.7017
11
116.563
21
-68.5649
0
LINE
8
BLACK
6
CONTINUOUS
10
116.563
20
-68.5649
11
116.389
21
-68.3908
0
LINE
8
BLACK
6
CONTINUOUS
10
116.389
20
-68.3908
11
116.252
21
-68.1861
0
LINE
8
BLACK
6
CONTINUOUS
10
116.252
20
-68.1861
11
116.158
21
-67.9586
0
LINE
8
BLACK
6
CONTINUOUS
10
116.158
20
-67.9586
11
116.11
21
-67.7171
0
LINE
8
BLACK
6
CONTINUOUS
10
116.11
20
-67.7171
11
116.11
21
-67.4709
0
LINE
8
BLACK
6
CONTINUOUS
10
116.11
20
-67.4709
11
116.158
21
-67.2294
0
LINE
8
BLACK
6
CONTINUOUS
10
116.158
20
-67.2294
11
116.252
21
-67.0019
0
LINE
8
BLACK
6
CONTINUOUS
10
116.252
20
-67.0019
11
116.389
21
-66.7972
0
LINE
8
BLACK
6
CONTINUOUS
10
116.389
20
-66.7972
11
116.563
21
-66.6231
0
LINE
8
BLACK
6
CONTINUOUS
10
116.563
20
-66.6231
11
116.768
21
-66.4863
0
LINE
8
BLACK
6
CONTINUOUS
10
116.768
20
-66.4863
11
116.995
21
-66.392
0
LINE
8
BLACK
6
CONTINUOUS
10
116.995
20
-66.392
11
117.237
21
-66.344
0
LINE
8
BLACK
6
CONTINUOUS
10
117.237
20
-66.344
11
117.483
21
-66.344
0
LINE
8
BLACK
6
CONTINUOUS
10
117.483
20
-66.344
11
117.725
21
-66.392
0
LINE
8
BLACK
6
CONTINUOUS
10
123.425
20
-66.392
11
123.652
21
-66.4863
0
LINE
8
BLACK
6
CONTINUOUS
10
123.652
20
-66.4863
11
123.857
21
-66.6231
0
LINE
8
BLACK
6
CONTINUOUS
10
123.857
20
-66.6231
11
124.031
21
-66.7972
0
LINE
8
BLACK
6
CONTINUOUS
10
124.031
20
-66.7972
11
124.168
21
-67.0019
0
LINE
8
BLACK
6
CONTINUOUS
10
124.168
20
-67.0019
11
124.262
21
-67.2294
0
LINE
8
BLACK
6
CONTINUOUS
10
124.262
20
-67.2294
11
124.31
21
-67.4709
0
LINE
8
BLACK
6
CONTINUOUS
10
124.31
20
-67.4709
11
124.31
21
-67.7171
0
LINE
8
BLACK
6
CONTINUOUS
10
124.31
20
-67.7171
11
124.262
21
-67.9586
0
LINE
8
BLACK
6
CONTINUOUS
10
124.262
20
-67.9586
11
124.168
21
-68.1861
0
LINE
8
BLACK
6
CONTINUOUS
10
124.168
20
-68.1861
11
124.031
21
-68.3908
0
LINE
8
BLACK
6
CONTINUOUS
10
124.031
20
-68.3908
11
123.857
21
-68.5649
0
LINE
8
BLACK
6
CONTINUOUS
10
123.857
20
-68.5649
11
123.652
21
-68.7017
0
LINE
8
BLACK
6
CONTINUOUS
10
123.652
20
-68.7017
11
123.425
21
-68.796
0
LINE
8
BLACK
6
CONTINUOUS
10
123.425
20
-68.796
11
123.183
21
-68.844
0
LINE
8
BLACK
6
CONTINUOUS
10
123.183
20
-68.844
11
122.937
21
-68.844
0
LINE
8
BLACK
6
CONTINUOUS
10
122.937
20
-68.844
11
122.695
21
-68.796
0
LINE
8
BLACK
6
CONTINUOUS
10
122.695
20
-68.796
11
122.468
21
-68.7017
0
LINE
8
BLACK
6
CONTINUOUS
10
122.468
20
-68.7017
11
122.263
21
-68.5649
0
LINE
8
BLACK
6
CONTINUOUS
10
122.263
20
-68.5649
11
122.089
21
-68.3908
0
LINE
8
BLACK
6
CONTINUOUS
10
122.089
20
-68.3908
11
121.952
21
-68.1861
0
LINE
8
BLACK
6
CONTINUOUS
10
121.952
20
-68.1861
11
121.858
21
-67.9586
0
LINE
8
BLACK
6
CONTINUOUS
10
121.858
20
-67.9586
11
121.81
21
-67.7171
0
LINE
8
BLACK
6
CONTINUOUS
10
121.81
20
-67.7171
11
121.81
21
-67.4709
0
LINE
8
BLACK
6
CONTINUOUS
10
121.81
20
-67.4709
11
121.858
21
-67.2294
0
LINE
8
BLACK
6
CONTINUOUS
10
121.858
20
-67.2294
11
121.952
21
-67.0019
0
LINE
8
BLACK
6
CONTINUOUS
10
121.952
20
-67.0019
11
122.089
21
-66.7972
0
LINE
8
BLACK
6
CONTINUOUS
10
122.089
20
-66.7972
11
122.263
21
-66.6231
0
LINE
8
BLACK
6
CONTINUOUS
10
122.263
20
-66.6231
11
122.468
21
-66.4863
0
LINE
8
BLACK
6
CONTINUOUS
10
122.468
20
-66.4863
11
122.695
21
-66.392
0
LINE
8
BLACK
6
CONTINUOUS
10
122.695
20
-66.392
11
122.937
21
-66.344
0
LINE
8
BLACK
6
CONTINUOUS
10
122.937
20
-66.344
11
123.183
21
-66.344
0
LINE
8
BLACK
6
CONTINUOUS
10
123.183
20
-66.344
11
123.425
21
-66.392
0
LINE
8
BLACK
6
CONTINUOUS
10
130.425
20
-66.392
11
130.652
21
-66.4863
0
LINE
8
BLACK
6
CONTINUOUS
10
130.652
20
-66.4863
11
130.857
21
-66.6231
0
LINE
8
BLACK
6
CONTINUOUS
10
130.857
20
-66.6231
11
131.031
21
-66.7972
0
LINE
8
BLACK
6
CONTINUOUS
10
131.031
20
-66.7972
11
131.168
21
-67.0019
0
LINE
8
BLACK
6
CONTINUOUS
10
131.168
20
-67.0019
11
131.262
21
-67.2294
0
LINE
8
BLACK
6
CONTINUOUS
10
131.262
20
-67.2294
11
131.31
21
-67.4709
0
LINE
8
BLACK
6
CONTINUOUS
10
131.31
20
-67.4709
11
131.31
21
-67.7171
0
LINE
8
BLACK
6
CONTINUOUS
10
131.31
20
-67.7171
11
131.262
21
-67.9586
0
LINE
8
BLACK
6
CONTINUOUS
10
131.262
20
-67.9586
11
131.168
21
-68.1861
0
LINE
8
BLACK
6
CONTINUOUS
10
131.168
20
-68.1861
11
131.031
21
-68.3908
0
LINE
8
BLACK
6
CONTINUOUS
10
131.031
20
-68.3908
11
130.857
21
-68.5649
0
LINE
8
BLACK
6
CONTINUOUS
10
130.857
20
-68.5649
11
130.652
21
-68.7017
0
LINE
8
BLACK
6
CONTINUOUS
10
130.652
20
-68.7017
11
130.425
21
-68.796
0
LINE
8
BLACK
6
CONTINUOUS
10
130.425
20
-68.796
11
130.183
21
-68.844
0
LINE
8
BLACK
6
CONTINUOUS
10
130.183
20
-68.844
11
129.937
21
-68.844
0
LINE
8
BLACK
6
CONTINUOUS
10
129.937
20
-68.844
11
129.695
21
-68.796
0
LINE
8
BLACK
6
CONTINUOUS
10
129.695
20
-68.796
11
129.468
21
-68.7017
0
LINE
8
BLACK
6
CONTINUOUS
10
129.468
20
-68.7017
11
129.263
21
-68.5649
0
LINE
8
BLACK
6
CONTINUOUS
10
129.263
20
-68.5649
11
129.089
21
-68.3908
0
LINE
8
BLACK
6
CONTINUOUS
10
129.089
20
-68.3908
11
128.952
21
-68.1861
0
LINE
8
BLACK
6
CONTINUOUS
10
128.952
20
-68.1861
11
128.858
21
-67.9586
0
LINE
8
BLACK
6
CONTINUOUS
10
128.858
20
-67.9586
11
128.81
21
-67.7171
0
LINE
8
BLACK
6
CONTINUOUS
10
128.81
20
-67.7171
11
128.81
21
-67.4709
0
LINE
8
BLACK
6
CONTINUOUS
10
128.81
20
-67.4709
11
128.858
21
-67.2294
0
LINE
8
BLACK
6
CONTINUOUS
10
128.858
20
-67.2294
11
128.952
21
-67.0019
0
LINE
8
BLACK
6
CONTINUOUS
10
128.952
20
-67.0019
11
129.089
21
-66.7972
0
LINE
8
BLACK
6
CONTINUOUS
10
129.089
20
-66.7972
11
129.263
21
-66.6231
0
LINE
8
BLACK
6
CONTINUOUS
10
129.263
20
-66.6231
11
129.468
21
-66.4863
0
LINE
8
BLACK
6
CONTINUOUS
10
129.468
20
-66.4863
11
129.695
21
-66.392
0
LINE
8
BLACK
6
CONTINUOUS
10
129.695
20
-66.392
11
129.937
21
-66.344
0
LINE
8
BLACK
6
CONTINUOUS
10
129.937
20
-66.344
11
130.183
21
-66.344
0
LINE
8
BLACK
6
CONTINUOUS
10
130.183
20
-66.344
11
130.425
21
-66.392
0
LINE
8
BLACK
6
CONTINUOUS
10
143.125
20
-66.392
11
143.352
21
-66.4863
0
LINE
8
BLACK
6
CONTINUOUS
10
143.352
20
-66.4863
11
143.557
21
-66.6231
0
LINE
8
BLACK
6
CONTINUOUS
10
143.557
20
-66.6231
11
143.731
21
-66.7972
0
LINE
8
BLACK
6
CONTINUOUS
10
143.731
20
-66.7972
11
143.868
21
-67.0019
0
LINE
8
BLACK
6
CONTINUOUS
10
143.868
20
-67.0019
11
143.962
21
-67.2294
0
LINE
8
BLACK
6
CONTINUOUS
10
143.962
20
-67.2294
11
144.01
21
-67.4709
0
LINE
8
BLACK
6
CONTINUOUS
10
144.01
20
-67.4709
11
144.01
21
-67.7171
0
LINE
8
BLACK
6
CONTINUOUS
10
144.01
20
-67.7171
11
143.962
21
-67.9586
0
LINE
8
BLACK
6
CONTINUOUS
10
143.962
20
-67.9586
11
143.868
21
-68.1861
0
LINE
8
BLACK
6
CONTINUOUS
10
143.868
20
-68.1861
11
143.731
21
-68.3908
0
LINE
8
BLACK
6
CONTINUOUS
10
143.731
20
-68.3908
11
143.557
21
-68.5649
0
LINE
8
BLACK
6
CONTINUOUS
10
143.557
20
-68.5649
11
143.352
21
-68.7017
0
LINE
8
BLACK
6
CONTINUOUS
10
143.352
20
-68.7017
11
143.125
21
-68.796
0
LINE
8
BLACK
6
CONTINUOUS
10
143.125
20
-68.796
11
142.883
21
-68.844
0
LINE
8
BLACK
6
CONTINUOUS
10
142.883
20
-68.844
11
142.637
21
-68.844
0
LINE
8
BLACK
6
CONTINUOUS
10
142.637
20
-68.844
11
142.395
21
-68.796
0
LINE
8
BLACK
6
CONTINUOUS
10
142.395
20
-68.796
11
142.168
21
-68.7017
0
LINE
8
BLACK
6
CONTINUOUS
10
142.168
20
-68.7017
11
141.963
21
-68.5649
0
LINE
8
BLACK
6
CONTINUOUS
10
141.963
20
-68.5649
11
141.789
21
-68.3908
0
LINE
8
BLACK
6
CONTINUOUS
10
141.789
20
-68.3908
11
141.652
21
-68.1861
0
LINE
8
BLACK
6
CONTINUOUS
10
141.652
20
-68.1861
11
141.558
21
-67.9586
0
LINE
8
BLACK
6
CONTINUOUS
10
141.558
20
-67.9586
11
141.51
21
-67.7171
0
LINE
8
BLACK
6
CONTINUOUS
10
141.51
20
-67.7171
11
141.51
21
-67.4709
0
LINE
8
BLACK
6
CONTINUOUS
10
141.51
20
-67.4709
11
141.558
21
-67.2294
0
LINE
8
BLACK
6
CONTINUOUS
10
141.558
20
-67.2294
11
141.652
21
-67.0019
0
LINE
8
BLACK
6
CONTINUOUS
10
141.652
20
-67.0019
11
141.789
21
-66.7972
0
LINE
8
BLACK
6
CONTINUOUS
10
141.789
20
-66.7972
11
141.963
21
-66.6231
0
LINE
8
BLACK
6
CONTINUOUS
10
141.963
20
-66.6231
11
142.168
21
-66.4863
0
LINE
8
BLACK
6
CONTINUOUS
10
142.168
20
-66.4863
11
142.395
21
-66.392
0
LINE
8
BLACK
6
CONTINUOUS
10
142.395
20
-66.392
11
142.637
21
-66.344
0
LINE
8
BLACK
6
CONTINUOUS
10
142.637
20
-66.344
11
142.883
21
-66.344
0
LINE
8
BLACK
6
CONTINUOUS
10
142.883
20
-66.344
11
143.125
21
-66.392
0
LINE
8
BLACK
6
CONTINUOUS
10
103.86
20
-67.745
11
101.86
21
-67.745
0
LINE
8
BLACK
6
CONTINUOUS
10
101.86
20
-67.745
11
101.86
21
-65.745
0
LINE
8
BLACK
6
CONTINUOUS
10
101.86
20
-65.745
11
103.86
21
-65.745
0
LINE
8
BLACK
6
CONTINUOUS
10
103.86
20
-65.745
11
103.86
21
-67.745
0
LINE
8
BLACK
6
CONTINUOUS
10
105.692
20
-65.7834
11
105.874
21
-65.8588
0
LINE
8
BLACK
6
CONTINUOUS
10
105.874
20
-65.8588
11
106.037
21
-65.9682
0
LINE
8
BLACK
6
CONTINUOUS
10
106.037
20
-65.9682
11
106.177
21
-66.1075
0
LINE
8
BLACK
6
CONTINUOUS
10
106.177
20
-66.1075
11
106.286
21
-66.2713
0
LINE
8
BLACK
6
CONTINUOUS
10
106.286
20
-66.2713
11
106.362
21
-66.4533
0
LINE
8
BLACK
6
CONTINUOUS
10
106.362
20
-66.4533
11
106.4
21
-66.6465
0
LINE
8
BLACK
6
CONTINUOUS
10
106.4
20
-66.6465
11
106.4
21
-66.8435
0
LINE
8
BLACK
6
CONTINUOUS
10
106.4
20
-66.8435
11
106.362
21
-67.0367
0
LINE
8
BLACK
6
CONTINUOUS
10
106.362
20
-67.0367
11
106.286
21
-67.2187
0
LINE
8
BLACK
6
CONTINUOUS
10
106.286
20
-67.2187
11
106.177
21
-67.3825
0
LINE
8
BLACK
6
CONTINUOUS
10
106.177
20
-67.3825
11
106.037
21
-67.5218
0
LINE
8
BLACK
6
CONTINUOUS
10
106.037
20
-67.5218
11
105.874
21
-67.6312
0
LINE
8
BLACK
6
CONTINUOUS
10
105.874
20
-67.6312
11
105.692
21
-67.7066
0
LINE
8
BLACK
6
CONTINUOUS
10
105.692
20
-67.7066
11
105.498
21
-67.745
0
LINE
8
BLACK
6
CONTINUOUS
10
105.498
20
-67.745
11
105.302
21
-67.745
0
LINE
8
BLACK
6
CONTINUOUS
10
105.302
20
-67.745
11
105.108
21
-67.7066
0
LINE
8
BLACK
6
CONTINUOUS
10
105.108
20
-67.7066
11
104.926
21
-67.6312
0
LINE
8
BLACK
6
CONTINUOUS
10
104.926
20
-67.6312
11
104.763
21
-67.5218
0
LINE
8
BLACK
6
CONTINUOUS
10
104.763
20
-67.5218
11
104.623
21
-67.3825
0
LINE
8
BLACK
6
CONTINUOUS
10
104.623
20
-67.3825
11
104.514
21
-67.2187
0
LINE
8
BLACK
6
CONTINUOUS
10
104.514
20
-67.2187
11
104.438
21
-67.0367
0
LINE
8
BLACK
6
CONTINUOUS
10
104.438
20
-67.0367
11
104.4
21
-66.8435
0
LINE
8
BLACK
6
CONTINUOUS
10
104.4
20
-66.8435
11
104.4
21
-66.6465
0
LINE
8
BLACK
6
CONTINUOUS
10
104.4
20
-66.6465
11
104.438
21
-66.4533
0
LINE
8
BLACK
6
CONTINUOUS
10
104.438
20
-66.4533
11
104.514
21
-66.2713
0
LINE
8
BLACK
6
CONTINUOUS
10
104.514
20
-66.2713
11
104.623
21
-66.1075
0
LINE
8
BLACK
6
CONTINUOUS
10
104.623
20
-66.1075
11
104.763
21
-65.9682
0
LINE
8
BLACK
6
CONTINUOUS
10
104.763
20
-65.9682
11
104.926
21
-65.8588
0
LINE
8
BLACK
6
CONTINUOUS
10
104.926
20
-65.8588
11
105.108
21
-65.7834
0
LINE
8
BLACK
6
CONTINUOUS
10
105.108
20
-65.7834
11
105.302
21
-65.745
0
LINE
8
BLACK
6
CONTINUOUS
10
105.302
20
-65.745
11
105.498
21
-65.745
0
LINE
8
BLACK
6
CONTINUOUS
10
105.498
20
-65.745
11
105.692
21
-65.7834
0
LINE
8
BLACK
6
CONTINUOUS
10
94.97
20
-67.745
11
92.97
21
-67.745
0
LINE
8
BLACK
6
CONTINUOUS
10
92.97
20
-67.745
11
92.97
21
-65.745
0
LINE
8
BLACK
6
CONTINUOUS
10
92.97
20
-65.745
11
94.97
21
-65.745
0
LINE
8
BLACK
6
CONTINUOUS
10
94.97
20
-65.745
11
94.97
21
-67.745
0
LINE
8
BLACK
6
CONTINUOUS
10
96.8017
20
-65.7834
11
96.9837
21
-65.8588
0
LINE
8
BLACK
6
CONTINUOUS
10
96.9837
20
-65.8588
11
97.1475
21
-65.9682
0
LINE
8
BLACK
6
CONTINUOUS
10
97.1475
20
-65.9682
11
97.2868
21
-66.1075
0
LINE
8
BLACK
6
CONTINUOUS
10
97.2868
20
-66.1075
11
97.3962
21
-66.2713
0
LINE
8
BLACK
6
CONTINUOUS
10
97.3962
20
-66.2713
11
97.4716
21
-66.4533
0
LINE
8
BLACK
6
CONTINUOUS
10
97.4716
20
-66.4533
11
97.51
21
-66.6465
0
LINE
8
BLACK
6
CONTINUOUS
10
97.51
20
-66.6465
11
97.51
21
-66.8435
0
LINE
8
BLACK
6
CONTINUOUS
10
97.51
20
-66.8435
11
97.4716
21
-67.0367
0
LINE
8
BLACK
6
CONTINUOUS
10
97.4716
20
-67.0367
11
97.3962
21
-67.2187
0
LINE
8
BLACK
6
CONTINUOUS
10
97.3962
20
-67.2187
11
97.2868
21
-67.3825
0
LINE
8
BLACK
6
CONTINUOUS
10
97.2868
20
-67.3825
11
97.1475
21
-67.5218
0
LINE
8
BLACK
6
CONTINUOUS
10
97.1475
20
-67.5218
11
96.9837
21
-67.6312
0
LINE
8
BLACK
6
CONTINUOUS
10
96.9837
20
-67.6312
11
96.8017
21
-67.7066
0
LINE
8
BLACK
6
CONTINUOUS
10
96.8017
20
-67.7066
11
96.6085
21
-67.745
0
LINE
8
BLACK
6
CONTINUOUS
10
96.6085
20
-67.745
11
96.4115
21
-67.745
0
LINE
8
BLACK
6
CONTINUOUS
10
96.4115
20
-67.745
11
96.2183
21
-67.7066
0
LINE
8
BLACK
6
CONTINUOUS
10
96.2183
20
-67.7066
11
96.0363
21
-67.6312
0
LINE
8
BLACK
6
CONTINUOUS
10
96.0363
20
-67.6312
11
95.8725
21
-67.5218
0
LINE
8
BLACK
6
CONTINUOUS
10
95.8725
20
-67.5218
11
95.7332
21
-67.3825
0
LINE
8
BLACK
6
CONTINUOUS
10
95.7332
20
-67.3825
11
95.6238
21
-67.2187
0
LINE
8
BLACK
6
CONTINUOUS
10
95.6238
20
-67.2187
11
95.5484
21
-67.0367
0
LINE
8
BLACK
6
CONTINUOUS
10
95.5484
20
-67.0367
11
95.51
21
-66.8435
0
LINE
8
BLACK
6
CONTINUOUS
10
95.51
20
-66.8435
11
95.51
21
-66.6465
0
LINE
8
BLACK
6
CONTINUOUS
10
95.51
20
-66.6465
11
95.5484
21
-66.4533
0
LINE
8
BLACK
6
CONTINUOUS
10
95.5484
20
-66.4533
11
95.6238
21
-66.2713
0
LINE
8
BLACK
6
CONTINUOUS
10
95.6238
20
-66.2713
11
95.7332
21
-66.1075
0
LINE
8
BLACK
6
CONTINUOUS
10
95.7332
20
-66.1075
11
95.8725
21
-65.9682
0
LINE
8
BLACK
6
CONTINUOUS
10
95.8725
20
-65.9682
11
96.0363
21
-65.8588
0
LINE
8
BLACK
6
CONTINUOUS
10
96.0363
20
-65.8588
11
96.2183
21
-65.7834
0
LINE
8
BLACK
6
CONTINUOUS
10
96.2183
20
-65.7834
11
96.4115
21
-65.745
0
LINE
8
BLACK
6
CONTINUOUS
10
96.4115
20
-65.745
11
96.6085
21
-65.745
0
LINE
8
BLACK
6
CONTINUOUS
10
96.6085
20
-65.745
11
96.8017
21
-65.7834
0
LINE
8
BLACK
6
CONTINUOUS
10
137.302
20
-64.1324
11
137.484
21
-64.2078
0
LINE
8
BLACK
6
CONTINUOUS
10
137.484
20
-64.2078
11
137.647
21
-64.3172
0
LINE
8
BLACK
6
CONTINUOUS
10
137.647
20
-64.3172
11
137.787
21
-64.4565
0
LINE
8
BLACK
6
CONTINUOUS
10
137.787
20
-64.4565
11
137.896
21
-64.6203
0
LINE
8
BLACK
6
CONTINUOUS
10
137.896
20
-64.6203
11
137.972
21
-64.8023
0
LINE
8
BLACK
6
CONTINUOUS
10
137.972
20
-64.8023
11
138.01
21
-64.9955
0
LINE
8
BLACK
6
CONTINUOUS
10
138.01
20
-64.9955
11
138.01
21
-65.1925
0
LINE
8
BLACK
6
CONTINUOUS
10
138.01
20
-65.1925
11
137.972
21
-65.3857
0
LINE
8
BLACK
6
CONTINUOUS
10
137.972
20
-65.3857
11
137.896
21
-65.5677
0
LINE
8
BLACK
6
CONTINUOUS
10
137.896
20
-65.5677
11
137.787
21
-65.7315
0
LINE
8
BLACK
6
CONTINUOUS
10
137.787
20
-65.7315
11
137.647
21
-65.8708
0
LINE
8
BLACK
6
CONTINUOUS
10
137.647
20
-65.8708
11
137.484
21
-65.9802
0
LINE
8
BLACK
6
CONTINUOUS
10
137.484
20
-65.9802
11
137.302
21
-66.0556
0
LINE
8
BLACK
6
CONTINUOUS
10
137.302
20
-66.0556
11
137.108
21
-66.094
0
LINE
8
BLACK
6
CONTINUOUS
10
137.108
20
-66.094
11
136.912
21
-66.094
0
LINE
8
BLACK
6
CONTINUOUS
10
136.912
20
-66.094
11
136.718
21
-66.0556
0
LINE
8
BLACK
6
CONTINUOUS
10
136.718
20
-66.0556
11
136.536
21
-65.9802
0
LINE
8
BLACK
6
CONTINUOUS
10
136.536
20
-65.9802
11
136.373
21
-65.8708
0
LINE
8
BLACK
6
CONTINUOUS
10
136.373
20
-65.8708
11
136.233
21
-65.7315
0
LINE
8
BLACK
6
CONTINUOUS
10
136.233
20
-65.7315
11
136.124
21
-65.5677
0
LINE
8
BLACK
6
CONTINUOUS
10
136.124
20
-65.5677
11
136.048
21
-65.3857
0
LINE
8
BLACK
6
CONTINUOUS
10
136.048
20
-65.3857
11
136.01
21
-65.1925
0
LINE
8
BLACK
6
CONTINUOUS
10
136.01
20
-65.1925
11
136.01
21
-64.9955
0
LINE
8
BLACK
6
CONTINUOUS
10
136.01
20
-64.9955
11
136.048
21
-64.8023
0
LINE
8
BLACK
6
CONTINUOUS
10
136.048
20
-64.8023
11
136.124
21
-64.6203
0
LINE
8
BLACK
6
CONTINUOUS
10
136.124
20
-64.6203
11
136.233
21
-64.4565
0
LINE
8
BLACK
6
CONTINUOUS
10
136.233
20
-64.4565
11
136.373
21
-64.3172
0
LINE
8
BLACK
6
CONTINUOUS
10
136.373
20
-64.3172
11
136.536
21
-64.2078
0
LINE
8
BLACK
6
CONTINUOUS
10
136.536
20
-64.2078
11
136.718
21
-64.1324
0
LINE
8
BLACK
6
CONTINUOUS
10
136.718
20
-64.1324
11
136.912
21
-64.094
0
LINE
8
BLACK
6
CONTINUOUS
10
136.912
20
-64.094
11
137.108
21
-64.094
0
LINE
8
BLACK
6
CONTINUOUS
10
137.108
20
-64.094
11
137.302
21
-64.1324
0
LINE
8
BLACK
6
CONTINUOUS
10
141.802
20
-64.1324
11
141.984
21
-64.2078
0
LINE
8
BLACK
6
CONTINUOUS
10
141.984
20
-64.2078
11
142.147
21
-64.3172
0
LINE
8
BLACK
6
CONTINUOUS
10
142.147
20
-64.3172
11
142.287
21
-64.4565
0
LINE
8
BLACK
6
CONTINUOUS
10
142.287
20
-64.4565
11
142.396
21
-64.6203
0
LINE
8
BLACK
6
CONTINUOUS
10
142.396
20
-64.6203
11
142.472
21
-64.8023
0
LINE
8
BLACK
6
CONTINUOUS
10
142.472
20
-64.8023
11
142.51
21
-64.9955
0
LINE
8
BLACK
6
CONTINUOUS
10
142.51
20
-64.9955
11
142.51
21
-65.1925
0
LINE
8
BLACK
6
CONTINUOUS
10
142.51
20
-65.1925
11
142.472
21
-65.3857
0
LINE
8
BLACK
6
CONTINUOUS
10
142.472
20
-65.3857
11
142.396
21
-65.5677
0
LINE
8
BLACK
6
CONTINUOUS
10
142.396
20
-65.5677
11
142.287
21
-65.7315
0
LINE
8
BLACK
6
CONTINUOUS
10
142.287
20
-65.7315
11
142.147
21
-65.8708
0
LINE
8
BLACK
6
CONTINUOUS
10
142.147
20
-65.8708
11
141.984
21
-65.9802
0
LINE
8
BLACK
6
CONTINUOUS
10
141.984
20
-65.9802
11
141.802
21
-66.0556
0
LINE
8
BLACK
6
CONTINUOUS
10
141.802
20
-66.0556
11
141.608
21
-66.094
0
LINE
8
BLACK
6
CONTINUOUS
10
141.608
20
-66.094
11
141.412
21
-66.094
0
LINE
8
BLACK
6
CONTINUOUS
10
141.412
20
-66.094
11
141.218
21
-66.0556
0
LINE
8
BLACK
6
CONTINUOUS
10
141.218
20
-66.0556
11
141.036
21
-65.9802
0
LINE
8
BLACK
6
CONTINUOUS
10
141.036
20
-65.9802
11
140.873
21
-65.8708
0
LINE
8
BLACK
6
CONTINUOUS
10
140.873
20
-65.8708
11
140.733
21
-65.7315
0
LINE
8
BLACK
6
CONTINUOUS
10
140.733
20
-65.7315
11
140.624
21
-65.5677
0
LINE
8
BLACK
6
CONTINUOUS
10
140.624
20
-65.5677
11
140.548
21
-65.3857
0
LINE
8
BLACK
6
CONTINUOUS
10
140.548
20
-65.3857
11
140.51
21
-65.1925
0
LINE
8
BLACK
6
CONTINUOUS
10
140.51
20
-65.1925
11
140.51
21
-64.9955
0
LINE
8
BLACK
6
CONTINUOUS
10
140.51
20
-64.9955
11
140.548
21
-64.8023
0
LINE
8
BLACK
6
CONTINUOUS
10
140.548
20
-64.8023
11
140.624
21
-64.6203
0
LINE
8
BLACK
6
CONTINUOUS
10
140.624
20
-64.6203
11
140.733
21
-64.4565
0
LINE
8
BLACK
6
CONTINUOUS
10
140.733
20
-64.4565
11
140.873
21
-64.3172
0
LINE
8
BLACK
6
CONTINUOUS
10
140.873
20
-64.3172
11
141.036
21
-64.2078
0
LINE
8
BLACK
6
CONTINUOUS
10
141.036
20
-64.2078
11
141.218
21
-64.1324
0
LINE
8
BLACK
6
CONTINUOUS
10
141.218
20
-64.1324
11
141.412
21
-64.094
0
LINE
8
BLACK
6
CONTINUOUS
10
141.412
20
-64.094
11
141.608
21
-64.094
0
LINE
8
BLACK
6
CONTINUOUS
10
141.608
20
-64.094
11
141.802
21
-64.1324
0
LINE
8
BLACK
6
CONTINUOUS
10
129.102
20
-64.1324
11
129.284
21
-64.2078
0
LINE
8
BLACK
6
CONTINUOUS
10
129.284
20
-64.2078
11
129.447
21
-64.3172
0
LINE
8
BLACK
6
CONTINUOUS
10
129.447
20
-64.3172
11
129.587
21
-64.4565
0
LINE
8
BLACK
6
CONTINUOUS
10
129.587
20
-64.4565
11
129.696
21
-64.6203
0
LINE
8
BLACK
6
CONTINUOUS
10
129.696
20
-64.6203
11
129.772
21
-64.8023
0
LINE
8
BLACK
6
CONTINUOUS
10
129.772
20
-64.8023
11
129.81
21
-64.9955
0
LINE
8
BLACK
6
CONTINUOUS
10
129.81
20
-64.9955
11
129.81
21
-65.1925
0
LINE
8
BLACK
6
CONTINUOUS
10
129.81
20
-65.1925
11
129.772
21
-65.3857
0
LINE
8
BLACK
6
CONTINUOUS
10
129.772
20
-65.3857
11
129.696
21
-65.5677
0
LINE
8
BLACK
6
CONTINUOUS
10
129.696
20
-65.5677
11
129.587
21
-65.7315
0
LINE
8
BLACK
6
CONTINUOUS
10
129.587
20
-65.7315
11
129.447
21
-65.8708
0
LINE
8
BLACK
6
CONTINUOUS
10
129.447
20
-65.8708
11
129.284
21
-65.9802
0
LINE
8
BLACK
6
CONTINUOUS
10
129.284
20
-65.9802
11
129.102
21
-66.0556
0
LINE
8
BLACK
6
CONTINUOUS
10
129.102
20
-66.0556
11
128.908
21
-66.094
0
LINE
8
BLACK
6
CONTINUOUS
10
128.908
20
-66.094
11
128.712
21
-66.094
0
LINE
8
BLACK
6
CONTINUOUS
10
128.712
20
-66.094
11
128.518
21
-66.0556
0
LINE
8
BLACK
6
CONTINUOUS
10
128.518
20
-66.0556
11
128.336
21
-65.9802
0
LINE
8
BLACK
6
CONTINUOUS
10
128.336
20
-65.9802
11
128.173
21
-65.8708
0
LINE
8
BLACK
6
CONTINUOUS
10
128.173
20
-65.8708
11
128.033
21
-65.7315
0
LINE
8
BLACK
6
CONTINUOUS
10
128.033
20
-65.7315
11
127.924
21
-65.5677
0
LINE
8
BLACK
6
CONTINUOUS
10
127.924
20
-65.5677
11
127.848
21
-65.3857
0
LINE
8
BLACK
6
CONTINUOUS
10
127.848
20
-65.3857
11
127.81
21
-65.1925
0
LINE
8
BLACK
6
CONTINUOUS
10
127.81
20
-65.1925
11
127.81
21
-64.9955
0
LINE
8
BLACK
6
CONTINUOUS
10
127.81
20
-64.9955
11
127.848
21
-64.8023
0
LINE
8
BLACK
6
CONTINUOUS
10
127.848
20
-64.8023
11
127.924
21
-64.6203
0
LINE
8
BLACK
6
CONTINUOUS
10
127.924
20
-64.6203
11
128.033
21
-64.4565
0
LINE
8
BLACK
6
CONTINUOUS
10
128.033
20
-64.4565
11
128.173
21
-64.3172
0
LINE
8
BLACK
6
CONTINUOUS
10
128.173
20
-64.3172
11
128.336
21
-64.2078
0
LINE
8
BLACK
6
CONTINUOUS
10
128.336
20
-64.2078
11
128.518
21
-64.1324
0
LINE
8
BLACK
6
CONTINUOUS
10
128.518
20
-64.1324
11
128.712
21
-64.094
0
LINE
8
BLACK
6
CONTINUOUS
10
128.712
20
-64.094
11
128.908
21
-64.094
0
LINE
8
BLACK
6
CONTINUOUS
10
128.908
20
-64.094
11
129.102
21
-64.1324
0
LINE
8
BLACK
6
CONTINUOUS
10
124.602
20
-64.1324
11
124.784
21
-64.2078
0
LINE
8
BLACK
6
CONTINUOUS
10
124.784
20
-64.2078
11
124.947
21
-64.3172
0
LINE
8
BLACK
6
CONTINUOUS
10
124.947
20
-64.3172
11
125.087
21
-64.4565
0
LINE
8
BLACK
6
CONTINUOUS
10
125.087
20
-64.4565
11
125.196
21
-64.6203
0
LINE
8
BLACK
6
CONTINUOUS
10
125.196
20
-64.6203
11
125.272
21
-64.8023
0
LINE
8
BLACK
6
CONTINUOUS
10
125.272
20
-64.8023
11
125.31
21
-64.9955
0
LINE
8
BLACK
6
CONTINUOUS
10
125.31
20
-64.9955
11
125.31
21
-65.1925
0
LINE
8
BLACK
6
CONTINUOUS
10
125.31
20
-65.1925
11
125.272
21
-65.3857
0
LINE
8
BLACK
6
CONTINUOUS
10
125.272
20
-65.3857
11
125.196
21
-65.5677
0
LINE
8
BLACK
6
CONTINUOUS
10
125.196
20
-65.5677
11
125.087
21
-65.7315
0
LINE
8
BLACK
6
CONTINUOUS
10
125.087
20
-65.7315
11
124.947
21
-65.8708
0
LINE
8
BLACK
6
CONTINUOUS
10
124.947
20
-65.8708
11
124.784
21
-65.9802
0
LINE
8
BLACK
6
CONTINUOUS
10
124.784
20
-65.9802
11
124.602
21
-66.0556
0
LINE
8
BLACK
6
CONTINUOUS
10
124.602
20
-66.0556
11
124.408
21
-66.094
0
LINE
8
BLACK
6
CONTINUOUS
10
124.408
20
-66.094
11
124.212
21
-66.094
0
LINE
8
BLACK
6
CONTINUOUS
10
124.212
20
-66.094
11
124.018
21
-66.0556
0
LINE
8
BLACK
6
CONTINUOUS
10
124.018
20
-66.0556
11
123.836
21
-65.9802
0
LINE
8
BLACK
6
CONTINUOUS
10
123.836
20
-65.9802
11
123.673
21
-65.8708
0
LINE
8
BLACK
6
CONTINUOUS
10
123.673
20
-65.8708
11
123.533
21
-65.7315
0
LINE
8
BLACK
6
CONTINUOUS
10
123.533
20
-65.7315
11
123.424
21
-65.5677
0
LINE
8
BLACK
6
CONTINUOUS
10
123.424
20
-65.5677
11
123.348
21
-65.3857
0
LINE
8
BLACK
6
CONTINUOUS
10
123.348
20
-65.3857
11
123.31
21
-65.1925
0
LINE
8
BLACK
6
CONTINUOUS
10
123.31
20
-65.1925
11
123.31
21
-64.9955
0
LINE
8
BLACK
6
CONTINUOUS
10
123.31
20
-64.9955
11
123.348
21
-64.8023
0
LINE
8
BLACK
6
CONTINUOUS
10
123.348
20
-64.8023
11
123.424
21
-64.6203
0
LINE
8
BLACK
6
CONTINUOUS
10
123.424
20
-64.6203
11
123.533
21
-64.4565
0
LINE
8
BLACK
6
CONTINUOUS
10
123.533
20
-64.4565
11
123.673
21
-64.3172
0
LINE
8
BLACK
6
CONTINUOUS
10
123.673
20
-64.3172
11
123.836
21
-64.2078
0
LINE
8
BLACK
6
CONTINUOUS
10
123.836
20
-64.2078
11
124.018
21
-64.1324
0
LINE
8
BLACK
6
CONTINUOUS
10
124.018
20
-64.1324
11
124.212
21
-64.094
0
LINE
8
BLACK
6
CONTINUOUS
10
124.212
20
-64.094
11
124.408
21
-64.094
0
LINE
8
BLACK
6
CONTINUOUS
10
124.408
20
-64.094
11
124.602
21
-64.1324
0
LINE
8
BLACK
6
CONTINUOUS
10
116.402
20
-64.1324
11
116.584
21
-64.2078
0
LINE
8
BLACK
6
CONTINUOUS
10
116.584
20
-64.2078
11
116.747
21
-64.3172
0
LINE
8
BLACK
6
CONTINUOUS
10
116.747
20
-64.3172
11
116.887
21
-64.4565
0
LINE
8
BLACK
6
CONTINUOUS
10
116.887
20
-64.4565
11
116.996
21
-64.6203
0
LINE
8
BLACK
6
CONTINUOUS
10
116.996
20
-64.6203
11
117.072
21
-64.8023
0
LINE
8
BLACK
6
CONTINUOUS
10
117.072
20
-64.8023
11
117.11
21
-64.9955
0
LINE
8
BLACK
6
CONTINUOUS
10
117.11
20
-64.9955
11
117.11
21
-65.1925
0
LINE
8
BLACK
6
CONTINUOUS
10
117.11
20
-65.1925
11
117.072
21
-65.3857
0
LINE
8
BLACK
6
CONTINUOUS
10
117.072
20
-65.3857
11
116.996
21
-65.5677
0
LINE
8
BLACK
6
CONTINUOUS
10
116.996
20
-65.5677
11
116.887
21
-65.7315
0
LINE
8
BLACK
6
CONTINUOUS
10
116.887
20
-65.7315
11
116.747
21
-65.8708
0
LINE
8
BLACK
6
CONTINUOUS
10
116.747
20
-65.8708
11
116.584
21
-65.9802
0
LINE
8
BLACK
6
CONTINUOUS
10
116.584
20
-65.9802
11
116.402
21
-66.0556
0
LINE
8
BLACK
6
CONTINUOUS
10
116.402
20
-66.0556
11
116.208
21
-66.094
0
LINE
8
BLACK
6
CONTINUOUS
10
116.208
20
-66.094
11
116.012
21
-66.094
0
LINE
8
BLACK
6
CONTINUOUS
10
116.012
20
-66.094
11
115.818
21
-66.0556
0
LINE
8
BLACK
6
CONTINUOUS
10
115.818
20
-66.0556
11
115.636
21
-65.9802
0
LINE
8
BLACK
6
CONTINUOUS
10
115.636
20
-65.9802
11
115.473
21
-65.8708
0
LINE
8
BLACK
6
CONTINUOUS
10
115.473
20
-65.8708
11
115.333
21
-65.7315
0
LINE
8
BLACK
6
CONTINUOUS
10
115.333
20
-65.7315
11
115.224
21
-65.5677
0
LINE
8
BLACK
6
CONTINUOUS
10
115.224
20
-65.5677
11
115.148
21
-65.3857
0
LINE
8
BLACK
6
CONTINUOUS
10
115.148
20
-65.3857
11
115.11
21
-65.1925
0
LINE
8
BLACK
6
CONTINUOUS
10
115.11
20
-65.1925
11
115.11
21
-64.9955
0
LINE
8
BLACK
6
CONTINUOUS
10
115.11
20
-64.9955
11
115.148
21
-64.8023
0
LINE
8
BLACK
6
CONTINUOUS
10
115.148
20
-64.8023
11
115.224
21
-64.6203
0
LINE
8
BLACK
6
CONTINUOUS
10
115.224
20
-64.6203
11
115.333
21
-64.4565
0
LINE
8
BLACK
6
CONTINUOUS
10
115.333
20
-64.4565
11
115.473
21
-64.3172
0
LINE
8
BLACK
6
CONTINUOUS
10
115.473
20
-64.3172
11
115.636
21
-64.2078
0
LINE
8
BLACK
6
CONTINUOUS
10
115.636
20
-64.2078
11
115.818
21
-64.1324
0
LINE
8
BLACK
6
CONTINUOUS
10
115.818
20
-64.1324
11
116.012
21
-64.094
0
LINE
8
BLACK
6
CONTINUOUS
10
116.012
20
-64.094
11
116.208
21
-64.094
0
LINE
8
BLACK
6
CONTINUOUS
10
116.208
20
-64.094
11
116.402
21
-64.1324
0
LINE
8
BLACK
6
CONTINUOUS
10
111.902
20
-64.1324
11
112.084
21
-64.2078
0
LINE
8
BLACK
6
CONTINUOUS
10
112.084
20
-64.2078
11
112.247
21
-64.3172
0
LINE
8
BLACK
6
CONTINUOUS
10
112.247
20
-64.3172
11
112.387
21
-64.4565
0
LINE
8
BLACK
6
CONTINUOUS
10
112.387
20
-64.4565
11
112.496
21
-64.6203
0
LINE
8
BLACK
6
CONTINUOUS
10
112.496
20
-64.6203
11
112.572
21
-64.8023
0
LINE
8
BLACK
6
CONTINUOUS
10
112.572
20
-64.8023
11
112.61
21
-64.9955
0
LINE
8
BLACK
6
CONTINUOUS
10
112.61
20
-64.9955
11
112.61
21
-65.1925
0
LINE
8
BLACK
6
CONTINUOUS
10
112.61
20
-65.1925
11
112.572
21
-65.3857
0
LINE
8
BLACK
6
CONTINUOUS
10
112.572
20
-65.3857
11
112.496
21
-65.5677
0
LINE
8
BLACK
6
CONTINUOUS
10
112.496
20
-65.5677
11
112.387
21
-65.7315
0
LINE
8
BLACK
6
CONTINUOUS
10
112.387
20
-65.7315
11
112.247
21
-65.8708
0
LINE
8
BLACK
6
CONTINUOUS
10
112.247
20
-65.8708
11
112.084
21
-65.9802
0
LINE
8
BLACK
6
CONTINUOUS
10
112.084
20
-65.9802
11
111.902
21
-66.0556
0
LINE
8
BLACK
6
CONTINUOUS
10
111.902
20
-66.0556
11
111.708
21
-66.094
0
LINE
8
BLACK
6
CONTINUOUS
10
111.708
20
-66.094
11
111.512
21
-66.094
0
LINE
8
BLACK
6
CONTINUOUS
10
111.512
20
-66.094
11
111.318
21
-66.0556
0
LINE
8
BLACK
6
CONTINUOUS
10
111.318
20
-66.0556
11
111.136
21
-65.9802
0
LINE
8
BLACK
6
CONTINUOUS
10
111.136
20
-65.9802
11
110.973
21
-65.8708
0
LINE
8
BLACK
6
CONTINUOUS
10
110.973
20
-65.8708
11
110.833
21
-65.7315
0
LINE
8
BLACK
6
CONTINUOUS
10
110.833
20
-65.7315
11
110.724
21
-65.5677
0
LINE
8
BLACK
6
CONTINUOUS
10
110.724
20
-65.5677
11
110.648
21
-65.3857
0
LINE
8
BLACK
6
CONTINUOUS
10
110.648
20
-65.3857
11
110.61
21
-65.1925
0
LINE
8
BLACK
6
CONTINUOUS
10
110.61
20
-65.1925
11
110.61
21
-64.9955
0
LINE
8
BLACK
6
CONTINUOUS
10
110.61
20
-64.9955
11
110.648
21
-64.8023
0
LINE
8
BLACK
6
CONTINUOUS
10
110.648
20
-64.8023
11
110.724
21
-64.6203
0
LINE
8
BLACK
6
CONTINUOUS
10
110.724
20
-64.6203
11
110.833
21
-64.4565
0
LINE
8
BLACK
6
CONTINUOUS
10
110.833
20
-64.4565
11
110.973
21
-64.3172
0
LINE
8
BLACK
6
CONTINUOUS
10
110.973
20
-64.3172
11
111.136
21
-64.2078
0
LINE
8
BLACK
6
CONTINUOUS
10
111.136
20
-64.2078
11
111.318
21
-64.1324
0
LINE
8
BLACK
6
CONTINUOUS
10
111.318
20
-64.1324
11
111.512
21
-64.094
0
LINE
8
BLACK
6
CONTINUOUS
10
111.512
20
-64.094
11
111.708
21
-64.094
0
LINE
8
BLACK
6
CONTINUOUS
10
111.708
20
-64.094
11
111.902
21
-64.1324
0
LINE
8
BLACK
6
CONTINUOUS
10
86.207
20
-64.65
11
84.207
21
-64.65
0
LINE
8
BLACK
6
CONTINUOUS
10
84.207
20
-64.65
11
84.207
21
-62.65
0
LINE
8
BLACK
6
CONTINUOUS
10
84.207
20
-62.65
11
86.207
21
-62.65
0
LINE
8
BLACK
6
CONTINUOUS
10
86.207
20
-62.65
11
86.207
21
-64.65
0
LINE
8
BLACK
6
CONTINUOUS
10
82.9587
20
-62.6884
11
83.1407
21
-62.7638
0
LINE
8
BLACK
6
CONTINUOUS
10
83.1407
20
-62.7638
11
83.3045
21
-62.8732
0
LINE
8
BLACK
6
CONTINUOUS
10
83.3045
20
-62.8732
11
83.4438
21
-63.0125
0
LINE
8
BLACK
6
CONTINUOUS
10
83.4438
20
-63.0125
11
83.5532
21
-63.1763
0
LINE
8
BLACK
6
CONTINUOUS
10
83.5532
20
-63.1763
11
83.6286
21
-63.3583
0
LINE
8
BLACK
6
CONTINUOUS
10
83.6286
20
-63.3583
11
83.667
21
-63.5515
0
LINE
8
BLACK
6
CONTINUOUS
10
83.667
20
-63.5515
11
83.667
21
-63.7485
0
LINE
8
BLACK
6
CONTINUOUS
10
83.667
20
-63.7485
11
83.6286
21
-63.9417
0
LINE
8
BLACK
6
CONTINUOUS
10
83.6286
20
-63.9417
11
83.5532
21
-64.1237
0
LINE
8
BLACK
6
CONTINUOUS
10
83.5532
20
-64.1237
11
83.4438
21
-64.2875
0
LINE
8
BLACK
6
CONTINUOUS
10
83.4438
20
-64.2875
11
83.3045
21
-64.4268
0
LINE
8
BLACK
6
CONTINUOUS
10
83.3045
20
-64.4268
11
83.1407
21
-64.5362
0
LINE
8
BLACK
6
CONTINUOUS
10
83.1407
20
-64.5362
11
82.9587
21
-64.6116
0
LINE
8
BLACK
6
CONTINUOUS
10
82.9587
20
-64.6116
11
82.7655
21
-64.65
0
LINE
8
BLACK
6
CONTINUOUS
10
82.7655
20
-64.65
11
82.5685
21
-64.65
0
LINE
8
BLACK
6
CONTINUOUS
10
82.5685
20
-64.65
11
82.3753
21
-64.6116
0
LINE
8
BLACK
6
CONTINUOUS
10
82.3753
20
-64.6116
11
82.1933
21
-64.5362
0
LINE
8
BLACK
6
CONTINUOUS
10
82.1933
20
-64.5362
11
82.0295
21
-64.4268
0
LINE
8
BLACK
6
CONTINUOUS
10
82.0295
20
-64.4268
11
81.8902
21
-64.2875
0
LINE
8
BLACK
6
CONTINUOUS
10
81.8902
20
-64.2875
11
81.7808
21
-64.1237
0
LINE
8
BLACK
6
CONTINUOUS
10
81.7808
20
-64.1237
11
81.7054
21
-63.9417
0
LINE
8
BLACK
6
CONTINUOUS
10
81.7054
20
-63.9417
11
81.667
21
-63.7485
0
LINE
8
BLACK
6
CONTINUOUS
10
81.667
20
-63.7485
11
81.667
21
-63.5515
0
LINE
8
BLACK
6
CONTINUOUS
10
81.667
20
-63.5515
11
81.7054
21
-63.3583
0
LINE
8
BLACK
6
CONTINUOUS
10
81.7054
20
-63.3583
11
81.7808
21
-63.1763
0
LINE
8
BLACK
6
CONTINUOUS
10
81.7808
20
-63.1763
11
81.8902
21
-63.0125
0
LINE
8
BLACK
6
CONTINUOUS
10
81.8902
20
-63.0125
11
82.0295
21
-62.8732
0
LINE
8
BLACK
6
CONTINUOUS
10
82.0295
20
-62.8732
11
82.1933
21
-62.7638
0
LINE
8
BLACK
6
CONTINUOUS
10
82.1933
20
-62.7638
11
82.3753
21
-62.6884
0
LINE
8
BLACK
6
CONTINUOUS
10
82.3753
20
-62.6884
11
82.5685
21
-62.65
0
LINE
8
BLACK
6
CONTINUOUS
10
82.5685
20
-62.65
11
82.7655
21
-62.65
0
LINE
8
BLACK
6
CONTINUOUS
10
82.7655
20
-62.65
11
82.9587
21
-62.6884
0
LINE
8
BLACK
6
CONTINUOUS
10
80.4187
20
-62.6884
11
80.6007
21
-62.7638
0
LINE
8
BLACK
6
CONTINUOUS
10
80.6007
20
-62.7638
11
80.7645
21
-62.8732
0
LINE
8
BLACK
6
CONTINUOUS
10
80.7645
20
-62.8732
11
80.9038
21
-63.0125
0
LINE
8
BLACK
6
CONTINUOUS
10
80.9038
20
-63.0125
11
81.0132
21
-63.1763
0
LINE
8
BLACK
6
CONTINUOUS
10
81.0132
20
-63.1763
11
81.0886
21
-63.3583
0
LINE
8
BLACK
6
CONTINUOUS
10
81.0886
20
-63.3583
11
81.127
21
-63.5515
0
LINE
8
BLACK
6
CONTINUOUS
10
81.127
20
-63.5515
11
81.127
21
-63.7485
0
LINE
8
BLACK
6
CONTINUOUS
10
81.127
20
-63.7485
11
81.0886
21
-63.9417
0
LINE
8
BLACK
6
CONTINUOUS
10
81.0886
20
-63.9417
11
81.0132
21
-64.1237
0
LINE
8
BLACK
6
CONTINUOUS
10
81.0132
20
-64.1237
11
80.9038
21
-64.2875
0
LINE
8
BLACK
6
CONTINUOUS
10
80.9038
20
-64.2875
11
80.7645
21
-64.4268
0
LINE
8
BLACK
6
CONTINUOUS
10
80.7645
20
-64.4268
11
80.6007
21
-64.5362
0
LINE
8
BLACK
6
CONTINUOUS
10
80.6007
20
-64.5362
11
80.4187
21
-64.6116
0
LINE
8
BLACK
6
CONTINUOUS
10
80.4187
20
-64.6116
11
80.2255
21
-64.65
0
LINE
8
BLACK
6
CONTINUOUS
10
80.2255
20
-64.65
11
80.0285
21
-64.65
0
LINE
8
BLACK
6
CONTINUOUS
10
80.0285
20
-64.65
11
79.8353
21
-64.6116
0
LINE
8
BLACK
6
CONTINUOUS
10
79.8353
20
-64.6116
11
79.6533
21
-64.5362
0
LINE
8
BLACK
6
CONTINUOUS
10
79.6533
20
-64.5362
11
79.4895
21
-64.4268
0
LINE
8
BLACK
6
CONTINUOUS
10
79.4895
20
-64.4268
11
79.3502
21
-64.2875
0
LINE
8
BLACK
6
CONTINUOUS
10
79.3502
20
-64.2875
11
79.2408
21
-64.1237
0
LINE
8
BLACK
6
CONTINUOUS
10
79.2408
20
-64.1237
11
79.1654
21
-63.9417
0
LINE
8
BLACK
6
CONTINUOUS
10
79.1654
20
-63.9417
11
79.127
21
-63.7485
0
LINE
8
BLACK
6
CONTINUOUS
10
79.127
20
-63.7485
11
79.127
21
-63.5515
0
LINE
8
BLACK
6
CONTINUOUS
10
79.127
20
-63.5515
11
79.1654
21
-63.3583
0
LINE
8
BLACK
6
CONTINUOUS
10
79.1654
20
-63.3583
11
79.2408
21
-63.1763
0
LINE
8
BLACK
6
CONTINUOUS
10
79.2408
20
-63.1763
11
79.3502
21
-63.0125
0
LINE
8
BLACK
6
CONTINUOUS
10
79.3502
20
-63.0125
11
79.4895
21
-62.8732
0
LINE
8
BLACK
6
CONTINUOUS
10
79.4895
20
-62.8732
11
79.6533
21
-62.7638
0
LINE
8
BLACK
6
CONTINUOUS
10
79.6533
20
-62.7638
11
79.8353
21
-62.6884
0
LINE
8
BLACK
6
CONTINUOUS
10
79.8353
20
-62.6884
11
80.0285
21
-62.65
0
LINE
8
BLACK
6
CONTINUOUS
10
80.0285
20
-62.65
11
80.2255
21
-62.65
0
LINE
8
BLACK
6
CONTINUOUS
10
80.2255
20
-62.65
11
80.4187
21
-62.6884
0
LINE
8
BLACK
6
CONTINUOUS
10
77.8787
20
-62.6884
11
78.0607
21
-62.7638
0
LINE
8
BLACK
6
CONTINUOUS
10
78.0607
20
-62.7638
11
78.2245
21
-62.8732
0
LINE
8
BLACK
6
CONTINUOUS
10
78.2245
20
-62.8732
11
78.3638
21
-63.0125
0
LINE
8
BLACK
6
CONTINUOUS
10
78.3638
20
-63.0125
11
78.4732
21
-63.1763
0
LINE
8
BLACK
6
CONTINUOUS
10
78.4732
20
-63.1763
11
78.5486
21
-63.3583
0
LINE
8
BLACK
6
CONTINUOUS
10
78.5486
20
-63.3583
11
78.587
21
-63.5515
0
LINE
8
BLACK
6
CONTINUOUS
10
78.587
20
-63.5515
11
78.587
21
-63.7485
0
LINE
8
BLACK
6
CONTINUOUS
10
78.587
20
-63.7485
11
78.5486
21
-63.9417
0
LINE
8
BLACK
6
CONTINUOUS
10
78.5486
20
-63.9417
11
78.4732
21
-64.1237
0
LINE
8
BLACK
6
CONTINUOUS
10
78.4732
20
-64.1237
11
78.3638
21
-64.2875
0
LINE
8
BLACK
6
CONTINUOUS
10
78.3638
20
-64.2875
11
78.2245
21
-64.4268
0
LINE
8
BLACK
6
CONTINUOUS
10
78.2245
20
-64.4268
11
78.0607
21
-64.5362
0
LINE
8
BLACK
6
CONTINUOUS
10
78.0607
20
-64.5362
11
77.8787
21
-64.6116
0
LINE
8
BLACK
6
CONTINUOUS
10
77.8787
20
-64.6116
11
77.6855
21
-64.65
0
LINE
8
BLACK
6
CONTINUOUS
10
77.6855
20
-64.65
11
77.4885
21
-64.65
0
LINE
8
BLACK
6
CONTINUOUS
10
77.4885
20
-64.65
11
77.2953
21
-64.6116
0
LINE
8
BLACK
6
CONTINUOUS
10
77.2953
20
-64.6116
11
77.1133
21
-64.5362
0
LINE
8
BLACK
6
CONTINUOUS
10
77.1133
20
-64.5362
11
76.9495
21
-64.4268
0
LINE
8
BLACK
6
CONTINUOUS
10
76.9495
20
-64.4268
11
76.8102
21
-64.2875
0
LINE
8
BLACK
6
CONTINUOUS
10
76.8102
20
-64.2875
11
76.7008
21
-64.1237
0
LINE
8
BLACK
6
CONTINUOUS
10
76.7008
20
-64.1237
11
76.6254
21
-63.9417
0
LINE
8
BLACK
6
CONTINUOUS
10
76.6254
20
-63.9417
11
76.587
21
-63.7485
0
LINE
8
BLACK
6
CONTINUOUS
10
76.587
20
-63.7485
11
76.587
21
-63.5515
0
LINE
8
BLACK
6
CONTINUOUS
10
76.587
20
-63.5515
11
76.6254
21
-63.3583
0
LINE
8
BLACK
6
CONTINUOUS
10
76.6254
20
-63.3583
11
76.7008
21
-63.1763
0
LINE
8
BLACK
6
CONTINUOUS
10
76.7008
20
-63.1763
11
76.8102
21
-63.0125
0
LINE
8
BLACK
6
CONTINUOUS
10
76.8102
20
-63.0125
11
76.9495
21
-62.8732
0
LINE
8
BLACK
6
CONTINUOUS
10
76.9495
20
-62.8732
11
77.1133
21
-62.7638
0
LINE
8
BLACK
6
CONTINUOUS
10
77.1133
20
-62.7638
11
77.2953
21
-62.6884
0
LINE
8
BLACK
6
CONTINUOUS
10
77.2953
20
-62.6884
11
77.4885
21
-62.65
0
LINE
8
BLACK
6
CONTINUOUS
10
77.4885
20
-62.65
11
77.6855
21
-62.65
0
LINE
8
BLACK
6
CONTINUOUS
10
77.6855
20
-62.65
11
77.8787
21
-62.6884
  0
ENDSEC
  0
EOF
