M48
; DRILL file {KiCad (5.1.12)-1} date 03/08/22 21:56:03
; FORMAT={-:-/ absolute / inch / decimal}
; #@! TF.CreationDate,2022-03-08T21:56:03+00:00
; #@! TF.GenerationSoftware,Kicad,Pcbnew,(5.1.12)-1
; #@! TF.FileFunction,Plated,1,2,PTH
FMAT,2
INCH
T1C0.0157
T2C0.0236
T3C0.0315
T4C0.0394
%
G90
G05
T1
X3.775Y-5.34
X3.875Y-5.375
X3.925Y-5.05
X4.0241Y-5.4091
X4.025Y-5.05
X4.225Y-5.1
X4.26Y-4.58
X4.26Y-4.63
X4.305Y-4.58
X4.305Y-4.63
X4.475Y-5.075
X4.505Y-5.365
X4.55Y-4.63
X4.55Y-4.76
X4.575Y-5.14
X4.665Y-4.775
X4.67Y-5.285
X4.675Y-5.165
X4.765Y-5.31
X4.775Y-4.795
X4.875Y-5.33
X4.9Y-4.63
X4.905Y-4.765
X4.975Y-5.33
X5.075Y-5.33
X5.145Y-4.585
X5.145Y-4.63
X5.19Y-4.585
X5.19Y-4.63
X5.225Y-5.075
X5.375Y-5.325
X5.475Y-5.325
X5.575Y-5.075
X5.575Y-5.24
T2
X4.4691Y-4.515
X4.825Y-4.515
T3
X3.775Y-4.885
X3.775Y-5.485
X3.875Y-4.885
X3.875Y-5.485
X3.975Y-4.885
X3.975Y-5.485
X4.075Y-4.885
X4.075Y-5.485
X4.175Y-4.885
X4.175Y-5.485
X4.275Y-4.885
X4.275Y-5.485
X4.375Y-4.885
X4.375Y-5.485
X4.475Y-4.885
X4.475Y-5.485
X4.575Y-4.885
X4.575Y-5.485
X4.675Y-4.885
X4.675Y-5.485
X4.775Y-4.885
X4.775Y-5.485
X4.875Y-4.885
X4.875Y-5.485
X4.975Y-4.885
X4.975Y-5.485
X5.075Y-4.885
X5.075Y-5.485
X5.175Y-4.885
X5.175Y-5.485
X5.275Y-4.885
X5.275Y-5.485
X5.375Y-4.885
X5.375Y-5.485
X5.475Y-4.885
X5.475Y-5.485
X5.575Y-4.885
X5.575Y-5.485
X5.675Y-4.885
X5.675Y-5.485
T4
X3.775Y-5.0
X3.775Y-5.6
X3.875Y-5.0
X3.875Y-5.6
X3.975Y-5.0
X3.975Y-5.6
X4.075Y-5.0
X4.075Y-5.6
X4.175Y-5.0
X4.175Y-5.6
X4.275Y-5.0
X4.275Y-5.6
X4.375Y-5.0
X4.375Y-5.6
X4.475Y-5.0
X4.475Y-5.6
X4.575Y-5.0
X4.575Y-5.6
X4.675Y-5.0
X4.675Y-5.6
X4.775Y-5.0
X4.775Y-5.6
X4.875Y-5.0
X4.875Y-5.6
X4.975Y-5.0
X4.975Y-5.6
X5.075Y-5.0
X5.075Y-5.6
X5.175Y-5.0
X5.175Y-5.6
X5.275Y-5.0
X5.275Y-5.6
X5.375Y-4.61
X5.375Y-5.0
X5.375Y-5.6
X5.475Y-4.61
X5.475Y-5.0
X5.475Y-5.6
X5.575Y-4.61
X5.575Y-5.0
X5.575Y-5.6
X5.675Y-4.61
X5.675Y-5.0
X5.675Y-5.6
T0
M30
