G04 #@! TF.GenerationSoftware,KiCad,Pcbnew,(5.1.12)-1*
G04 #@! TF.CreationDate,2022-03-08T21:56:06+00:00*
G04 #@! TF.ProjectId,RGBtoHDMI CDTV v2 - Mouse and Joystick Adapter,52474274-6f48-4444-9d49-204344545620,v2*
G04 #@! TF.SameCoordinates,Original*
G04 #@! TF.FileFunction,Soldermask,Bot*
G04 #@! TF.FilePolarity,Negative*
%FSLAX46Y46*%
G04 Gerber Fmt 4.6, Leading zero omitted, Abs format (unit mm)*
G04 Created by KiCad (PCBNEW (5.1.12)-1) date 2022-03-08 21:56:06*
%MOMM*%
%LPD*%
G01*
G04 APERTURE LIST*
%ADD10O,1.900000X2.700000*%
%ADD11O,2.000000X2.000000*%
G04 APERTURE END LIST*
D10*
X144145000Y-139319000D03*
X95885000Y-124079000D03*
X141605000Y-139319000D03*
X98425000Y-124079000D03*
X139065000Y-139319000D03*
X100965000Y-124079000D03*
X136525000Y-139319000D03*
X103505000Y-124079000D03*
X133985000Y-139319000D03*
X106045000Y-124079000D03*
X131445000Y-139319000D03*
X108585000Y-124079000D03*
X128905000Y-139319000D03*
X111125000Y-124079000D03*
X126365000Y-139319000D03*
X113665000Y-124079000D03*
X123825000Y-139319000D03*
X116205000Y-124079000D03*
X121285000Y-139319000D03*
X118745000Y-124079000D03*
X118745000Y-139319000D03*
X121285000Y-124079000D03*
X116205000Y-139319000D03*
X123825000Y-124079000D03*
X113665000Y-139319000D03*
X126365000Y-124079000D03*
X111125000Y-139319000D03*
X128905000Y-124079000D03*
X108585000Y-139319000D03*
X131445000Y-124079000D03*
X106045000Y-139319000D03*
X133985000Y-124079000D03*
X103505000Y-139319000D03*
X136525000Y-124079000D03*
X100965000Y-139319000D03*
X139065000Y-124079000D03*
X98425000Y-139319000D03*
X141605000Y-124079000D03*
X95885000Y-139319000D03*
G36*
G01*
X143345000Y-122729000D02*
X144945000Y-122729000D01*
G75*
G02*
X145095000Y-122879000I0J-150000D01*
G01*
X145095000Y-125279000D01*
G75*
G02*
X144945000Y-125429000I-150000J0D01*
G01*
X143345000Y-125429000D01*
G75*
G02*
X143195000Y-125279000I0J150000D01*
G01*
X143195000Y-122879000D01*
G75*
G02*
X143345000Y-122729000I150000J0D01*
G01*
G37*
D11*
X95885000Y-142240000D03*
X98425000Y-142240000D03*
X100965000Y-142240000D03*
X103505000Y-142240000D03*
X106045000Y-142240000D03*
X108585000Y-142240000D03*
X111125000Y-142240000D03*
X113665000Y-142240000D03*
X116205000Y-142240000D03*
X118745000Y-142240000D03*
X121285000Y-142240000D03*
X123825000Y-142240000D03*
X126365000Y-142240000D03*
X128905000Y-142240000D03*
X131445000Y-142240000D03*
X133985000Y-142240000D03*
X136525000Y-142240000D03*
X139065000Y-142240000D03*
X141605000Y-142240000D03*
G36*
G01*
X144995000Y-143240000D02*
X143295000Y-143240000D01*
G75*
G02*
X143145000Y-143090000I0J150000D01*
G01*
X143145000Y-141390000D01*
G75*
G02*
X143295000Y-141240000I150000J0D01*
G01*
X144995000Y-141240000D01*
G75*
G02*
X145145000Y-141390000I0J-150000D01*
G01*
X145145000Y-143090000D01*
G75*
G02*
X144995000Y-143240000I-150000J0D01*
G01*
G37*
X95885000Y-127000000D03*
X98425000Y-127000000D03*
X100965000Y-127000000D03*
X103505000Y-127000000D03*
X106045000Y-127000000D03*
X108585000Y-127000000D03*
X111125000Y-127000000D03*
X113665000Y-127000000D03*
X116205000Y-127000000D03*
X118745000Y-127000000D03*
X121285000Y-127000000D03*
X123825000Y-127000000D03*
X126365000Y-127000000D03*
X128905000Y-127000000D03*
X131445000Y-127000000D03*
X133985000Y-127000000D03*
X136525000Y-127000000D03*
X139065000Y-127000000D03*
X141605000Y-127000000D03*
G36*
G01*
X144995000Y-128000000D02*
X143295000Y-128000000D01*
G75*
G02*
X143145000Y-127850000I0J150000D01*
G01*
X143145000Y-126150000D01*
G75*
G02*
X143295000Y-126000000I150000J0D01*
G01*
X144995000Y-126000000D01*
G75*
G02*
X145145000Y-126150000I0J-150000D01*
G01*
X145145000Y-127850000D01*
G75*
G02*
X144995000Y-128000000I-150000J0D01*
G01*
G37*
X144145000Y-117094000D03*
X141605000Y-117094000D03*
X139065000Y-117094000D03*
G36*
G01*
X137375000Y-118094000D02*
X135675000Y-118094000D01*
G75*
G02*
X135525000Y-117944000I0J150000D01*
G01*
X135525000Y-116244000D01*
G75*
G02*
X135675000Y-116094000I150000J0D01*
G01*
X137375000Y-116094000D01*
G75*
G02*
X137525000Y-116244000I0J-150000D01*
G01*
X137525000Y-117944000D01*
G75*
G02*
X137375000Y-118094000I-150000J0D01*
G01*
G37*
G36*
G01*
X137062502Y-132973000D02*
X135987498Y-132973000D01*
G75*
G02*
X135675000Y-132660502I0J312498D01*
G01*
X135675000Y-131785498D01*
G75*
G02*
X135987498Y-131473000I312498J0D01*
G01*
X137062502Y-131473000D01*
G75*
G02*
X137375000Y-131785498I0J-312498D01*
G01*
X137375000Y-132660502D01*
G75*
G02*
X137062502Y-132973000I-312498J0D01*
G01*
G37*
G36*
G01*
X137062502Y-134973000D02*
X135987498Y-134973000D01*
G75*
G02*
X135675000Y-134660502I0J312498D01*
G01*
X135675000Y-133785498D01*
G75*
G02*
X135987498Y-133473000I312498J0D01*
G01*
X137062502Y-133473000D01*
G75*
G02*
X137375000Y-133785498I0J-312498D01*
G01*
X137375000Y-134660502D01*
G75*
G02*
X137062502Y-134973000I-312498J0D01*
G01*
G37*
G36*
G01*
X131982502Y-132973000D02*
X130907498Y-132973000D01*
G75*
G02*
X130595000Y-132660502I0J312498D01*
G01*
X130595000Y-131785498D01*
G75*
G02*
X130907498Y-131473000I312498J0D01*
G01*
X131982502Y-131473000D01*
G75*
G02*
X132295000Y-131785498I0J-312498D01*
G01*
X132295000Y-132660502D01*
G75*
G02*
X131982502Y-132973000I-312498J0D01*
G01*
G37*
G36*
G01*
X131982502Y-134973000D02*
X130907498Y-134973000D01*
G75*
G02*
X130595000Y-134660502I0J312498D01*
G01*
X130595000Y-133785498D01*
G75*
G02*
X130907498Y-133473000I312498J0D01*
G01*
X131982502Y-133473000D01*
G75*
G02*
X132295000Y-133785498I0J-312498D01*
G01*
X132295000Y-134660502D01*
G75*
G02*
X131982502Y-134973000I-312498J0D01*
G01*
G37*
G36*
G01*
X126902502Y-132973000D02*
X125827498Y-132973000D01*
G75*
G02*
X125515000Y-132660502I0J312498D01*
G01*
X125515000Y-131785498D01*
G75*
G02*
X125827498Y-131473000I312498J0D01*
G01*
X126902502Y-131473000D01*
G75*
G02*
X127215000Y-131785498I0J-312498D01*
G01*
X127215000Y-132660502D01*
G75*
G02*
X126902502Y-132973000I-312498J0D01*
G01*
G37*
G36*
G01*
X126902502Y-134973000D02*
X125827498Y-134973000D01*
G75*
G02*
X125515000Y-134660502I0J312498D01*
G01*
X125515000Y-133785498D01*
G75*
G02*
X125827498Y-133473000I312498J0D01*
G01*
X126902502Y-133473000D01*
G75*
G02*
X127215000Y-133785498I0J-312498D01*
G01*
X127215000Y-134660502D01*
G75*
G02*
X126902502Y-134973000I-312498J0D01*
G01*
G37*
G36*
G01*
X109122502Y-132973000D02*
X108047498Y-132973000D01*
G75*
G02*
X107735000Y-132660502I0J312498D01*
G01*
X107735000Y-131785498D01*
G75*
G02*
X108047498Y-131473000I312498J0D01*
G01*
X109122502Y-131473000D01*
G75*
G02*
X109435000Y-131785498I0J-312498D01*
G01*
X109435000Y-132660502D01*
G75*
G02*
X109122502Y-132973000I-312498J0D01*
G01*
G37*
G36*
G01*
X109122502Y-134973000D02*
X108047498Y-134973000D01*
G75*
G02*
X107735000Y-134660502I0J312498D01*
G01*
X107735000Y-133785498D01*
G75*
G02*
X108047498Y-133473000I312498J0D01*
G01*
X109122502Y-133473000D01*
G75*
G02*
X109435000Y-133785498I0J-312498D01*
G01*
X109435000Y-134660502D01*
G75*
G02*
X109122502Y-134973000I-312498J0D01*
G01*
G37*
G36*
G01*
X104042502Y-132973000D02*
X102967498Y-132973000D01*
G75*
G02*
X102655000Y-132660502I0J312498D01*
G01*
X102655000Y-131785498D01*
G75*
G02*
X102967498Y-131473000I312498J0D01*
G01*
X104042502Y-131473000D01*
G75*
G02*
X104355000Y-131785498I0J-312498D01*
G01*
X104355000Y-132660502D01*
G75*
G02*
X104042502Y-132973000I-312498J0D01*
G01*
G37*
G36*
G01*
X104042502Y-134973000D02*
X102967498Y-134973000D01*
G75*
G02*
X102655000Y-134660502I0J312498D01*
G01*
X102655000Y-133785498D01*
G75*
G02*
X102967498Y-133473000I312498J0D01*
G01*
X104042502Y-133473000D01*
G75*
G02*
X104355000Y-133785498I0J-312498D01*
G01*
X104355000Y-134660502D01*
G75*
G02*
X104042502Y-134973000I-312498J0D01*
G01*
G37*
G36*
G01*
X98962502Y-132973000D02*
X97887498Y-132973000D01*
G75*
G02*
X97575000Y-132660502I0J312498D01*
G01*
X97575000Y-131785498D01*
G75*
G02*
X97887498Y-131473000I312498J0D01*
G01*
X98962502Y-131473000D01*
G75*
G02*
X99275000Y-131785498I0J-312498D01*
G01*
X99275000Y-132660502D01*
G75*
G02*
X98962502Y-132973000I-312498J0D01*
G01*
G37*
G36*
G01*
X98962502Y-134973000D02*
X97887498Y-134973000D01*
G75*
G02*
X97575000Y-134660502I0J312498D01*
G01*
X97575000Y-133785498D01*
G75*
G02*
X97887498Y-133473000I312498J0D01*
G01*
X98962502Y-133473000D01*
G75*
G02*
X99275000Y-133785498I0J-312498D01*
G01*
X99275000Y-134660502D01*
G75*
G02*
X98962502Y-134973000I-312498J0D01*
G01*
G37*
G36*
G01*
X139602502Y-132973000D02*
X138527498Y-132973000D01*
G75*
G02*
X138215000Y-132660502I0J312498D01*
G01*
X138215000Y-131785498D01*
G75*
G02*
X138527498Y-131473000I312498J0D01*
G01*
X139602502Y-131473000D01*
G75*
G02*
X139915000Y-131785498I0J-312498D01*
G01*
X139915000Y-132660502D01*
G75*
G02*
X139602502Y-132973000I-312498J0D01*
G01*
G37*
G36*
G01*
X139602502Y-134973000D02*
X138527498Y-134973000D01*
G75*
G02*
X138215000Y-134660502I0J312498D01*
G01*
X138215000Y-133785498D01*
G75*
G02*
X138527498Y-133473000I312498J0D01*
G01*
X139602502Y-133473000D01*
G75*
G02*
X139915000Y-133785498I0J-312498D01*
G01*
X139915000Y-134660502D01*
G75*
G02*
X139602502Y-134973000I-312498J0D01*
G01*
G37*
G36*
G01*
X134522502Y-132973000D02*
X133447498Y-132973000D01*
G75*
G02*
X133135000Y-132660502I0J312498D01*
G01*
X133135000Y-131785498D01*
G75*
G02*
X133447498Y-131473000I312498J0D01*
G01*
X134522502Y-131473000D01*
G75*
G02*
X134835000Y-131785498I0J-312498D01*
G01*
X134835000Y-132660502D01*
G75*
G02*
X134522502Y-132973000I-312498J0D01*
G01*
G37*
G36*
G01*
X134522502Y-134973000D02*
X133447498Y-134973000D01*
G75*
G02*
X133135000Y-134660502I0J312498D01*
G01*
X133135000Y-133785498D01*
G75*
G02*
X133447498Y-133473000I312498J0D01*
G01*
X134522502Y-133473000D01*
G75*
G02*
X134835000Y-133785498I0J-312498D01*
G01*
X134835000Y-134660502D01*
G75*
G02*
X134522502Y-134973000I-312498J0D01*
G01*
G37*
G36*
G01*
X129442502Y-132973000D02*
X128367498Y-132973000D01*
G75*
G02*
X128055000Y-132660502I0J312498D01*
G01*
X128055000Y-131785498D01*
G75*
G02*
X128367498Y-131473000I312498J0D01*
G01*
X129442502Y-131473000D01*
G75*
G02*
X129755000Y-131785498I0J-312498D01*
G01*
X129755000Y-132660502D01*
G75*
G02*
X129442502Y-132973000I-312498J0D01*
G01*
G37*
G36*
G01*
X129442502Y-134973000D02*
X128367498Y-134973000D01*
G75*
G02*
X128055000Y-134660502I0J312498D01*
G01*
X128055000Y-133785498D01*
G75*
G02*
X128367498Y-133473000I312498J0D01*
G01*
X129442502Y-133473000D01*
G75*
G02*
X129755000Y-133785498I0J-312498D01*
G01*
X129755000Y-134660502D01*
G75*
G02*
X129442502Y-134973000I-312498J0D01*
G01*
G37*
G36*
G01*
X124362502Y-132973000D02*
X123287498Y-132973000D01*
G75*
G02*
X122975000Y-132660502I0J312498D01*
G01*
X122975000Y-131785498D01*
G75*
G02*
X123287498Y-131473000I312498J0D01*
G01*
X124362502Y-131473000D01*
G75*
G02*
X124675000Y-131785498I0J-312498D01*
G01*
X124675000Y-132660502D01*
G75*
G02*
X124362502Y-132973000I-312498J0D01*
G01*
G37*
G36*
G01*
X124362502Y-134973000D02*
X123287498Y-134973000D01*
G75*
G02*
X122975000Y-134660502I0J312498D01*
G01*
X122975000Y-133785498D01*
G75*
G02*
X123287498Y-133473000I312498J0D01*
G01*
X124362502Y-133473000D01*
G75*
G02*
X124675000Y-133785498I0J-312498D01*
G01*
X124675000Y-134660502D01*
G75*
G02*
X124362502Y-134973000I-312498J0D01*
G01*
G37*
G36*
G01*
X111662502Y-132973000D02*
X110587498Y-132973000D01*
G75*
G02*
X110275000Y-132660502I0J312498D01*
G01*
X110275000Y-131785498D01*
G75*
G02*
X110587498Y-131473000I312498J0D01*
G01*
X111662502Y-131473000D01*
G75*
G02*
X111975000Y-131785498I0J-312498D01*
G01*
X111975000Y-132660502D01*
G75*
G02*
X111662502Y-132973000I-312498J0D01*
G01*
G37*
G36*
G01*
X111662502Y-134973000D02*
X110587498Y-134973000D01*
G75*
G02*
X110275000Y-134660502I0J312498D01*
G01*
X110275000Y-133785498D01*
G75*
G02*
X110587498Y-133473000I312498J0D01*
G01*
X111662502Y-133473000D01*
G75*
G02*
X111975000Y-133785498I0J-312498D01*
G01*
X111975000Y-134660502D01*
G75*
G02*
X111662502Y-134973000I-312498J0D01*
G01*
G37*
G36*
G01*
X106582502Y-132973000D02*
X105507498Y-132973000D01*
G75*
G02*
X105195000Y-132660502I0J312498D01*
G01*
X105195000Y-131785498D01*
G75*
G02*
X105507498Y-131473000I312498J0D01*
G01*
X106582502Y-131473000D01*
G75*
G02*
X106895000Y-131785498I0J-312498D01*
G01*
X106895000Y-132660502D01*
G75*
G02*
X106582502Y-132973000I-312498J0D01*
G01*
G37*
G36*
G01*
X106582502Y-134973000D02*
X105507498Y-134973000D01*
G75*
G02*
X105195000Y-134660502I0J312498D01*
G01*
X105195000Y-133785498D01*
G75*
G02*
X105507498Y-133473000I312498J0D01*
G01*
X106582502Y-133473000D01*
G75*
G02*
X106895000Y-133785498I0J-312498D01*
G01*
X106895000Y-134660502D01*
G75*
G02*
X106582502Y-134973000I-312498J0D01*
G01*
G37*
G36*
G01*
X101502502Y-132973000D02*
X100427498Y-132973000D01*
G75*
G02*
X100115000Y-132660502I0J312498D01*
G01*
X100115000Y-131785498D01*
G75*
G02*
X100427498Y-131473000I312498J0D01*
G01*
X101502502Y-131473000D01*
G75*
G02*
X101815000Y-131785498I0J-312498D01*
G01*
X101815000Y-132660502D01*
G75*
G02*
X101502502Y-132973000I-312498J0D01*
G01*
G37*
G36*
G01*
X101502502Y-134973000D02*
X100427498Y-134973000D01*
G75*
G02*
X100115000Y-134660502I0J312498D01*
G01*
X100115000Y-133785498D01*
G75*
G02*
X100427498Y-133473000I312498J0D01*
G01*
X101502502Y-133473000D01*
G75*
G02*
X101815000Y-133785498I0J-312498D01*
G01*
X101815000Y-134660502D01*
G75*
G02*
X101502502Y-134973000I-312498J0D01*
G01*
G37*
G36*
G01*
X96422502Y-132973000D02*
X95347498Y-132973000D01*
G75*
G02*
X95035000Y-132660502I0J312498D01*
G01*
X95035000Y-131785498D01*
G75*
G02*
X95347498Y-131473000I312498J0D01*
G01*
X96422502Y-131473000D01*
G75*
G02*
X96735000Y-131785498I0J-312498D01*
G01*
X96735000Y-132660502D01*
G75*
G02*
X96422502Y-132973000I-312498J0D01*
G01*
G37*
G36*
G01*
X96422502Y-134973000D02*
X95347498Y-134973000D01*
G75*
G02*
X95035000Y-134660502I0J312498D01*
G01*
X95035000Y-133785498D01*
G75*
G02*
X95347498Y-133473000I312498J0D01*
G01*
X96422502Y-133473000D01*
G75*
G02*
X96735000Y-133785498I0J-312498D01*
G01*
X96735000Y-134660502D01*
G75*
G02*
X96422502Y-134973000I-312498J0D01*
G01*
G37*
M02*
