G04 #@! TF.GenerationSoftware,KiCad,Pcbnew,(5.1.12)-1*
G04 #@! TF.CreationDate,2022-03-08T21:56:06+00:00*
G04 #@! TF.ProjectId,RGBtoHDMI CDTV v2 - Mouse and Joystick Adapter,52474274-6f48-4444-9d49-204344545620,v2*
G04 #@! TF.SameCoordinates,Original*
G04 #@! TF.FileFunction,Copper,L1,Top*
G04 #@! TF.FilePolarity,Positive*
%FSLAX46Y46*%
G04 Gerber Fmt 4.6, Leading zero omitted, Abs format (unit mm)*
G04 Created by KiCad (PCBNEW (5.1.12)-1) date 2022-03-08 21:56:06*
%MOMM*%
%LPD*%
G01*
G04 APERTURE LIST*
G04 #@! TA.AperFunction,EtchedComponent*
%ADD10C,0.100000*%
G04 #@! TD*
G04 #@! TA.AperFunction,ComponentPad*
%ADD11O,1.600000X2.400000*%
G04 #@! TD*
G04 #@! TA.AperFunction,ComponentPad*
%ADD12R,1.600000X2.400000*%
G04 #@! TD*
G04 #@! TA.AperFunction,ComponentPad*
%ADD13O,1.700000X1.700000*%
G04 #@! TD*
G04 #@! TA.AperFunction,ComponentPad*
%ADD14R,1.700000X1.700000*%
G04 #@! TD*
G04 #@! TA.AperFunction,SMDPad,CuDef*
%ADD15R,2.500000X3.000000*%
G04 #@! TD*
G04 #@! TA.AperFunction,SMDPad,CuDef*
%ADD16R,0.600000X2.000000*%
G04 #@! TD*
G04 #@! TA.AperFunction,ViaPad*
%ADD17C,0.800000*%
G04 #@! TD*
G04 #@! TA.AperFunction,ViaPad*
%ADD18C,1.600000*%
G04 #@! TD*
G04 #@! TA.AperFunction,Conductor*
%ADD19C,1.000000*%
G04 #@! TD*
G04 #@! TA.AperFunction,Conductor*
%ADD20C,0.600000*%
G04 #@! TD*
G04 #@! TA.AperFunction,Conductor*
%ADD21C,0.250000*%
G04 #@! TD*
G04 #@! TA.AperFunction,Conductor*
%ADD22C,0.254000*%
G04 #@! TD*
G04 #@! TA.AperFunction,Conductor*
%ADD23C,0.100000*%
G04 #@! TD*
G04 APERTURE END LIST*
D10*
G36*
X101346000Y-134493000D02*
G01*
X100711000Y-134493000D01*
X100711000Y-133858000D01*
X101346000Y-133858000D01*
X101346000Y-134493000D01*
G37*
X101346000Y-134493000D02*
X100711000Y-134493000D01*
X100711000Y-133858000D01*
X101346000Y-133858000D01*
X101346000Y-134493000D01*
G36*
X103886000Y-134493000D02*
G01*
X103251000Y-134493000D01*
X103251000Y-133858000D01*
X103886000Y-133858000D01*
X103886000Y-134493000D01*
G37*
X103886000Y-134493000D02*
X103251000Y-134493000D01*
X103251000Y-133858000D01*
X103886000Y-133858000D01*
X103886000Y-134493000D01*
G36*
X103886000Y-133223000D02*
G01*
X103251000Y-133223000D01*
X103251000Y-132588000D01*
X103886000Y-132588000D01*
X103886000Y-133223000D01*
G37*
X103886000Y-133223000D02*
X103251000Y-133223000D01*
X103251000Y-132588000D01*
X103886000Y-132588000D01*
X103886000Y-133223000D01*
G36*
X102616000Y-133223000D02*
G01*
X101981000Y-133223000D01*
X101981000Y-132588000D01*
X102616000Y-132588000D01*
X102616000Y-133223000D01*
G37*
X102616000Y-133223000D02*
X101981000Y-133223000D01*
X101981000Y-132588000D01*
X102616000Y-132588000D01*
X102616000Y-133223000D01*
G36*
X101981000Y-133223000D02*
G01*
X101346000Y-133223000D01*
X101346000Y-132588000D01*
X101981000Y-132588000D01*
X101981000Y-133223000D01*
G37*
X101981000Y-133223000D02*
X101346000Y-133223000D01*
X101346000Y-132588000D01*
X101981000Y-132588000D01*
X101981000Y-133223000D01*
G36*
X101346000Y-133223000D02*
G01*
X100711000Y-133223000D01*
X100711000Y-132588000D01*
X101346000Y-132588000D01*
X101346000Y-133223000D01*
G37*
X101346000Y-133223000D02*
X100711000Y-133223000D01*
X100711000Y-132588000D01*
X101346000Y-132588000D01*
X101346000Y-133223000D01*
G36*
X101346000Y-130683000D02*
G01*
X100711000Y-130683000D01*
X100711000Y-130048000D01*
X101346000Y-130048000D01*
X101346000Y-130683000D01*
G37*
X101346000Y-130683000D02*
X100711000Y-130683000D01*
X100711000Y-130048000D01*
X101346000Y-130048000D01*
X101346000Y-130683000D01*
G36*
X101981000Y-130683000D02*
G01*
X101346000Y-130683000D01*
X101346000Y-130048000D01*
X101981000Y-130048000D01*
X101981000Y-130683000D01*
G37*
X101981000Y-130683000D02*
X101346000Y-130683000D01*
X101346000Y-130048000D01*
X101981000Y-130048000D01*
X101981000Y-130683000D01*
G36*
X102616000Y-130048000D02*
G01*
X101981000Y-130048000D01*
X101981000Y-129413000D01*
X102616000Y-129413000D01*
X102616000Y-130048000D01*
G37*
X102616000Y-130048000D02*
X101981000Y-130048000D01*
X101981000Y-129413000D01*
X102616000Y-129413000D01*
X102616000Y-130048000D01*
G36*
X102616000Y-130683000D02*
G01*
X101981000Y-130683000D01*
X101981000Y-130048000D01*
X102616000Y-130048000D01*
X102616000Y-130683000D01*
G37*
X102616000Y-130683000D02*
X101981000Y-130683000D01*
X101981000Y-130048000D01*
X102616000Y-130048000D01*
X102616000Y-130683000D01*
G36*
X103251000Y-130683000D02*
G01*
X102616000Y-130683000D01*
X102616000Y-130048000D01*
X103251000Y-130048000D01*
X103251000Y-130683000D01*
G37*
X103251000Y-130683000D02*
X102616000Y-130683000D01*
X102616000Y-130048000D01*
X103251000Y-130048000D01*
X103251000Y-130683000D01*
G36*
X103886000Y-130683000D02*
G01*
X103251000Y-130683000D01*
X103251000Y-130048000D01*
X103886000Y-130048000D01*
X103886000Y-130683000D01*
G37*
X103886000Y-130683000D02*
X103251000Y-130683000D01*
X103251000Y-130048000D01*
X103886000Y-130048000D01*
X103886000Y-130683000D01*
G36*
X103886000Y-130048000D02*
G01*
X103251000Y-130048000D01*
X103251000Y-129413000D01*
X103886000Y-129413000D01*
X103886000Y-130048000D01*
G37*
X103886000Y-130048000D02*
X103251000Y-130048000D01*
X103251000Y-129413000D01*
X103886000Y-129413000D01*
X103886000Y-130048000D01*
G36*
X105156000Y-134493000D02*
G01*
X104521000Y-134493000D01*
X104521000Y-133858000D01*
X105156000Y-133858000D01*
X105156000Y-134493000D01*
G37*
X105156000Y-134493000D02*
X104521000Y-134493000D01*
X104521000Y-133858000D01*
X105156000Y-133858000D01*
X105156000Y-134493000D01*
G36*
X105156000Y-130683000D02*
G01*
X104521000Y-130683000D01*
X104521000Y-130048000D01*
X105156000Y-130048000D01*
X105156000Y-130683000D01*
G37*
X105156000Y-130683000D02*
X104521000Y-130683000D01*
X104521000Y-130048000D01*
X105156000Y-130048000D01*
X105156000Y-130683000D01*
D11*
X144145000Y-139319000D03*
X95885000Y-124079000D03*
X141605000Y-139319000D03*
X98425000Y-124079000D03*
X139065000Y-139319000D03*
X100965000Y-124079000D03*
X136525000Y-139319000D03*
X103505000Y-124079000D03*
X133985000Y-139319000D03*
X106045000Y-124079000D03*
X131445000Y-139319000D03*
X108585000Y-124079000D03*
X128905000Y-139319000D03*
X111125000Y-124079000D03*
X126365000Y-139319000D03*
X113665000Y-124079000D03*
X123825000Y-139319000D03*
X116205000Y-124079000D03*
X121285000Y-139319000D03*
X118745000Y-124079000D03*
X118745000Y-139319000D03*
X121285000Y-124079000D03*
X116205000Y-139319000D03*
X123825000Y-124079000D03*
X113665000Y-139319000D03*
X126365000Y-124079000D03*
X111125000Y-139319000D03*
X128905000Y-124079000D03*
X108585000Y-139319000D03*
X131445000Y-124079000D03*
X106045000Y-139319000D03*
X133985000Y-124079000D03*
X103505000Y-139319000D03*
X136525000Y-124079000D03*
X100965000Y-139319000D03*
X139065000Y-124079000D03*
X98425000Y-139319000D03*
X141605000Y-124079000D03*
X95885000Y-139319000D03*
D12*
X144145000Y-124079000D03*
D13*
X95885000Y-142240000D03*
X98425000Y-142240000D03*
X100965000Y-142240000D03*
X103505000Y-142240000D03*
X106045000Y-142240000D03*
X108585000Y-142240000D03*
X111125000Y-142240000D03*
X113665000Y-142240000D03*
X116205000Y-142240000D03*
X118745000Y-142240000D03*
X121285000Y-142240000D03*
X123825000Y-142240000D03*
X126365000Y-142240000D03*
X128905000Y-142240000D03*
X131445000Y-142240000D03*
X133985000Y-142240000D03*
X136525000Y-142240000D03*
X139065000Y-142240000D03*
X141605000Y-142240000D03*
D14*
X144145000Y-142240000D03*
D13*
X95885000Y-127000000D03*
X98425000Y-127000000D03*
X100965000Y-127000000D03*
X103505000Y-127000000D03*
X106045000Y-127000000D03*
X108585000Y-127000000D03*
X111125000Y-127000000D03*
X113665000Y-127000000D03*
X116205000Y-127000000D03*
X118745000Y-127000000D03*
X121285000Y-127000000D03*
X123825000Y-127000000D03*
X126365000Y-127000000D03*
X128905000Y-127000000D03*
X131445000Y-127000000D03*
X133985000Y-127000000D03*
X136525000Y-127000000D03*
X139065000Y-127000000D03*
X141605000Y-127000000D03*
D14*
X144145000Y-127000000D03*
D13*
X144145000Y-117094000D03*
X141605000Y-117094000D03*
X139065000Y-117094000D03*
D14*
X136525000Y-117094000D03*
D15*
X131265000Y-116885000D03*
X108765000Y-116885000D03*
D16*
X111515000Y-119335000D03*
X112515000Y-119335000D03*
X113515000Y-119335000D03*
X114515000Y-119335000D03*
X115515000Y-119335000D03*
X116515000Y-119335000D03*
X117515000Y-119335000D03*
X118515000Y-119335000D03*
X119515000Y-119335000D03*
X120515000Y-119335000D03*
X121515000Y-119335000D03*
X122515000Y-119335000D03*
X123515000Y-119335000D03*
X124515000Y-119335000D03*
X125515000Y-119335000D03*
X126515000Y-119335000D03*
X127515000Y-119335000D03*
X128515000Y-119335000D03*
D17*
X130683000Y-117602000D03*
X131826000Y-117602000D03*
X131826000Y-116459000D03*
X130683000Y-116459000D03*
X108204000Y-117602000D03*
X109347000Y-117602000D03*
X109347000Y-116332000D03*
X108204000Y-116332000D03*
X124587000Y-121031000D03*
X124460000Y-117602000D03*
X115570000Y-117602000D03*
X118745000Y-131191000D03*
X121031000Y-134874000D03*
X113665000Y-128905000D03*
X141605000Y-128905000D03*
X99695000Y-128270000D03*
X102235000Y-128270000D03*
X141605000Y-133096000D03*
X116205000Y-130556000D03*
X115570000Y-120904000D03*
D18*
X113515000Y-114681000D03*
X122555000Y-114681000D03*
D17*
X107315000Y-129540006D03*
X95885000Y-135636000D03*
X98425000Y-136525000D03*
X102211031Y-137390031D03*
X114427000Y-136271010D03*
X118491000Y-121285006D03*
X118618000Y-134239000D03*
X121285000Y-121793000D03*
X123825000Y-135382000D03*
X126365000Y-135382000D03*
X128905002Y-135381998D03*
X136525000Y-135255000D03*
X132714998Y-128904992D03*
X139064996Y-135254996D03*
D19*
X116205000Y-124079000D02*
X116205000Y-127000000D01*
X118745000Y-141605000D02*
X118745000Y-139319000D01*
X144145000Y-124079000D02*
X144145000Y-127000000D01*
D20*
X113515000Y-119970000D02*
X113515000Y-114681000D01*
X122515000Y-119970000D02*
X122515000Y-114721000D01*
X122515000Y-114721000D02*
X122555000Y-114681000D01*
D19*
X144145000Y-134112000D02*
X144145000Y-127000000D01*
X140970000Y-137287000D02*
X144145000Y-134112000D01*
X119380000Y-137287000D02*
X140970000Y-137287000D01*
X118745000Y-137922000D02*
X119380000Y-137287000D01*
X118745000Y-139319000D02*
X118745000Y-137922000D01*
X136525000Y-142240000D02*
X136525000Y-139319000D01*
X133985000Y-142240000D02*
X133985000Y-139319000D01*
D21*
X111515000Y-119970000D02*
X110154000Y-119970000D01*
X110154000Y-119970000D02*
X107315000Y-122809000D01*
X107315000Y-122809000D02*
X107315000Y-129540006D01*
X112515000Y-120784000D02*
X112515000Y-119335000D01*
X109855000Y-122301000D02*
X110744000Y-121412000D01*
X109855000Y-134366000D02*
X109855000Y-122301000D01*
X111887000Y-121412000D02*
X112515000Y-120784000D01*
X108005990Y-136215010D02*
X109855000Y-134366000D01*
X99409192Y-136215010D02*
X108005990Y-136215010D01*
X110744000Y-121412000D02*
X111887000Y-121412000D01*
X98830182Y-135636000D02*
X99409192Y-136215010D01*
X95885000Y-135636000D02*
X98830182Y-135636000D01*
X98565021Y-136665021D02*
X98425000Y-136525000D01*
X108952979Y-136665021D02*
X98565021Y-136665021D01*
X112395000Y-133223000D02*
X108952979Y-136665021D01*
X112395000Y-122682000D02*
X112395000Y-133223000D01*
X114515000Y-120562000D02*
X112395000Y-122682000D01*
X114515000Y-119970000D02*
X114515000Y-120562000D01*
X110768593Y-137390031D02*
X102211031Y-137390031D01*
X114935000Y-133223624D02*
X110768593Y-137390031D01*
X114935000Y-122809000D02*
X114935000Y-133223624D01*
X116515000Y-121229000D02*
X114935000Y-122809000D01*
X116515000Y-119970000D02*
X116515000Y-121229000D01*
X117515000Y-119970000D02*
X117515000Y-133183010D01*
X117515000Y-133183010D02*
X114826999Y-135871011D01*
X114826999Y-135871011D02*
X114427000Y-136271010D01*
X118515000Y-121261006D02*
X118491000Y-121285006D01*
X118515000Y-119970000D02*
X118515000Y-121261006D01*
X120015000Y-122555000D02*
X120015000Y-132842000D01*
X120015000Y-132842000D02*
X118618000Y-134239000D01*
X119515000Y-122055000D02*
X120015000Y-122555000D01*
X119515000Y-119335000D02*
X119515000Y-122055000D01*
X120515000Y-121023000D02*
X121285000Y-121793000D01*
X120515000Y-119335000D02*
X120515000Y-121023000D01*
X121515000Y-120562500D02*
X122555000Y-121602500D01*
X121515000Y-119970000D02*
X121515000Y-120562500D01*
X122555000Y-121602500D02*
X122555000Y-134112000D01*
X122555000Y-134112000D02*
X123825000Y-135382000D01*
X125095000Y-134112000D02*
X126365000Y-135382000D01*
X125095000Y-123120002D02*
X125095000Y-134112000D01*
X123515000Y-119970000D02*
X123515000Y-121540002D01*
X123515000Y-121540002D02*
X125095000Y-123120002D01*
X125515000Y-119970000D02*
X125515000Y-120562000D01*
X125515000Y-120562000D02*
X127635000Y-122682000D01*
X127635000Y-122682000D02*
X127635000Y-134111996D01*
X127635000Y-134111996D02*
X128905002Y-135381998D01*
X127889000Y-121920000D02*
X129413000Y-121920000D01*
X129413000Y-121920000D02*
X130175000Y-122682000D01*
X126515000Y-119970000D02*
X126515000Y-120546000D01*
X126515000Y-120546000D02*
X127889000Y-121920000D01*
X130175000Y-122682000D02*
X130175000Y-128905000D01*
X130175000Y-128905000D02*
X136525000Y-135255000D01*
X132714998Y-128339307D02*
X132714998Y-128904992D01*
X132714998Y-122681998D02*
X132714998Y-128339307D01*
X131318000Y-121285000D02*
X132714998Y-122681998D01*
X128270000Y-121285000D02*
X131318000Y-121285000D01*
X127515000Y-120530000D02*
X128270000Y-121285000D01*
X127515000Y-119970000D02*
X127515000Y-120530000D01*
X128515000Y-119335000D02*
X132162000Y-119335000D01*
X135255000Y-122428000D02*
X135255000Y-131445000D01*
X132162000Y-119335000D02*
X135255000Y-122428000D01*
X135255000Y-131445000D02*
X139064996Y-135254996D01*
D19*
X95885000Y-124079000D02*
X95885000Y-127000000D01*
X98425000Y-124079000D02*
X98425000Y-127000000D01*
X100965000Y-124079000D02*
X100965000Y-127000000D01*
X103505000Y-124079000D02*
X103505000Y-127000000D01*
X106045000Y-124079000D02*
X106045000Y-127000000D01*
X108585000Y-124079000D02*
X108585000Y-127000000D01*
X111125000Y-124079000D02*
X111125000Y-127000000D01*
X113665000Y-124079000D02*
X113665000Y-127000000D01*
X118745000Y-124079000D02*
X118745000Y-127000000D01*
X121285000Y-124079000D02*
X121285000Y-127000000D01*
X123825000Y-124079000D02*
X123825000Y-127000000D01*
X126365000Y-127000000D02*
X126365000Y-124079000D01*
X128905000Y-127000000D02*
X128905000Y-124079000D01*
X131445000Y-127000000D02*
X131445000Y-124079000D01*
X133985000Y-124226919D02*
X133911041Y-124152960D01*
X133985000Y-127000000D02*
X133985000Y-124226919D01*
X136525000Y-124079000D02*
X136525000Y-127000000D01*
X139065000Y-124079000D02*
X139065000Y-127000000D01*
X141605000Y-124079000D02*
X141605000Y-127000000D01*
X95885000Y-142240000D02*
X95885000Y-139319000D01*
X98425000Y-142240000D02*
X98425000Y-139319000D01*
X100965000Y-142240000D02*
X100965000Y-139319000D01*
X103505000Y-142240000D02*
X103505000Y-139319000D01*
X106045000Y-142240000D02*
X106045000Y-139319000D01*
X108585000Y-142240000D02*
X108585000Y-139319000D01*
X111125000Y-142240000D02*
X111125000Y-139319000D01*
X113665000Y-142240000D02*
X113665000Y-139319000D01*
X116205000Y-142240000D02*
X116205000Y-139319000D01*
X121285000Y-139319000D02*
X121285000Y-142240000D01*
X123825000Y-142240000D02*
X123825000Y-139319000D01*
X126365000Y-142240000D02*
X126365000Y-139319000D01*
X128905000Y-139319000D02*
X128905000Y-142240000D01*
X131445000Y-142240000D02*
X131445000Y-139319000D01*
X139065000Y-142240000D02*
X139065000Y-139319000D01*
X141605000Y-142240000D02*
X141605000Y-139319000D01*
X144145000Y-142240000D02*
X144145000Y-139319000D01*
D22*
X144556685Y-113503648D02*
X144708355Y-113549441D01*
X144848251Y-113623824D01*
X144971032Y-113723962D01*
X145072025Y-113846041D01*
X145147380Y-113985407D01*
X145194233Y-114136765D01*
X145213000Y-114315326D01*
X145213000Y-116476634D01*
X145101180Y-116309283D01*
X144929717Y-116137820D01*
X144728097Y-116003102D01*
X144504069Y-115910307D01*
X144266243Y-115863000D01*
X144023757Y-115863000D01*
X143785931Y-115910307D01*
X143561903Y-116003102D01*
X143360283Y-116137820D01*
X143188820Y-116309283D01*
X143054102Y-116510903D01*
X142961307Y-116734931D01*
X142914000Y-116972757D01*
X142914000Y-117215243D01*
X142961307Y-117453069D01*
X143054102Y-117677097D01*
X143188820Y-117878717D01*
X143360283Y-118050180D01*
X143561903Y-118184898D01*
X143785931Y-118277693D01*
X144023757Y-118325000D01*
X144266243Y-118325000D01*
X144504069Y-118277693D01*
X144728097Y-118184898D01*
X144929717Y-118050180D01*
X145101180Y-117878717D01*
X145213000Y-117711366D01*
X145213000Y-122606064D01*
X145157696Y-122560678D01*
X145091508Y-122525299D01*
X145019689Y-122503513D01*
X144945000Y-122496157D01*
X143345000Y-122496157D01*
X143270311Y-122503513D01*
X143198492Y-122525299D01*
X143132304Y-122560678D01*
X143074289Y-122608289D01*
X143026678Y-122666304D01*
X142991299Y-122732492D01*
X142969513Y-122804311D01*
X142962157Y-122879000D01*
X142962157Y-125279000D01*
X142969513Y-125353689D01*
X142991299Y-125425508D01*
X143026678Y-125491696D01*
X143074289Y-125549711D01*
X143132304Y-125597322D01*
X143198492Y-125632701D01*
X143264001Y-125652573D01*
X143264001Y-125770210D01*
X143220311Y-125774513D01*
X143148492Y-125796299D01*
X143082304Y-125831678D01*
X143024289Y-125879289D01*
X142976678Y-125937304D01*
X142941299Y-126003492D01*
X142919513Y-126075311D01*
X142912157Y-126150000D01*
X142912157Y-127850000D01*
X142919513Y-127924689D01*
X142941299Y-127996508D01*
X142976678Y-128062696D01*
X143024289Y-128120711D01*
X143082304Y-128168322D01*
X143148492Y-128203701D01*
X143220311Y-128225487D01*
X143264001Y-128229790D01*
X143264000Y-133747078D01*
X140605079Y-136406000D01*
X119423270Y-136406000D01*
X119380000Y-136401738D01*
X119336730Y-136406000D01*
X119336727Y-136406000D01*
X119207294Y-136418748D01*
X119052898Y-136465584D01*
X119041225Y-136469125D01*
X118888174Y-136550932D01*
X118840107Y-136590380D01*
X118754025Y-136661025D01*
X118726440Y-136694638D01*
X118152640Y-137268439D01*
X118119026Y-137296025D01*
X118091441Y-137329638D01*
X118008932Y-137430175D01*
X117927125Y-137583226D01*
X117914218Y-137625775D01*
X117881909Y-137732286D01*
X117876749Y-137749295D01*
X117859738Y-137922000D01*
X117864001Y-137965280D01*
X117864001Y-138130880D01*
X117758284Y-138259697D01*
X117648619Y-138464864D01*
X117581088Y-138687484D01*
X117564000Y-138860984D01*
X117564000Y-139777015D01*
X117581088Y-139950515D01*
X117648619Y-140173135D01*
X117758283Y-140378302D01*
X117864000Y-140507120D01*
X117864000Y-141380103D01*
X117788820Y-141455283D01*
X117654102Y-141656903D01*
X117561307Y-141880931D01*
X117514000Y-142118757D01*
X117514000Y-142361243D01*
X117561307Y-142599069D01*
X117654102Y-142823097D01*
X117788820Y-143024717D01*
X117960283Y-143196180D01*
X118161903Y-143330898D01*
X118385931Y-143423693D01*
X118623757Y-143471000D01*
X118866243Y-143471000D01*
X119104069Y-143423693D01*
X119328097Y-143330898D01*
X119529717Y-143196180D01*
X119701180Y-143024717D01*
X119835898Y-142823097D01*
X119928693Y-142599069D01*
X119976000Y-142361243D01*
X119976000Y-142118757D01*
X119928693Y-141880931D01*
X119835898Y-141656903D01*
X119701180Y-141455283D01*
X119626000Y-141380103D01*
X119626000Y-140507120D01*
X119731717Y-140378303D01*
X119841381Y-140173136D01*
X119908912Y-139950516D01*
X119926000Y-139777016D01*
X119926000Y-138860985D01*
X119908912Y-138687485D01*
X119841381Y-138464864D01*
X119731717Y-138259697D01*
X119696336Y-138216585D01*
X119744922Y-138168000D01*
X120373538Y-138168000D01*
X120298284Y-138259697D01*
X120188619Y-138464864D01*
X120121088Y-138687484D01*
X120104000Y-138860984D01*
X120104000Y-139777015D01*
X120121088Y-139950515D01*
X120188619Y-140173135D01*
X120298283Y-140378302D01*
X120404000Y-140507120D01*
X120404001Y-141380102D01*
X120328820Y-141455283D01*
X120194102Y-141656903D01*
X120101307Y-141880931D01*
X120054000Y-142118757D01*
X120054000Y-142361243D01*
X120101307Y-142599069D01*
X120194102Y-142823097D01*
X120328820Y-143024717D01*
X120500283Y-143196180D01*
X120701903Y-143330898D01*
X120925931Y-143423693D01*
X121163757Y-143471000D01*
X121406243Y-143471000D01*
X121644069Y-143423693D01*
X121868097Y-143330898D01*
X122069717Y-143196180D01*
X122241180Y-143024717D01*
X122375898Y-142823097D01*
X122468693Y-142599069D01*
X122516000Y-142361243D01*
X122516000Y-142118757D01*
X122468693Y-141880931D01*
X122375898Y-141656903D01*
X122241180Y-141455283D01*
X122166000Y-141380103D01*
X122166000Y-140507120D01*
X122271717Y-140378303D01*
X122381381Y-140173136D01*
X122448912Y-139950516D01*
X122466000Y-139777016D01*
X122466000Y-138860985D01*
X122448912Y-138687485D01*
X122381381Y-138464864D01*
X122271717Y-138259697D01*
X122196463Y-138168000D01*
X122913538Y-138168000D01*
X122838284Y-138259697D01*
X122728619Y-138464864D01*
X122661088Y-138687484D01*
X122644000Y-138860984D01*
X122644000Y-139777015D01*
X122661088Y-139950515D01*
X122728619Y-140173135D01*
X122838283Y-140378302D01*
X122944001Y-140507120D01*
X122944000Y-141380103D01*
X122868820Y-141455283D01*
X122734102Y-141656903D01*
X122641307Y-141880931D01*
X122594000Y-142118757D01*
X122594000Y-142361243D01*
X122641307Y-142599069D01*
X122734102Y-142823097D01*
X122868820Y-143024717D01*
X123040283Y-143196180D01*
X123241903Y-143330898D01*
X123465931Y-143423693D01*
X123703757Y-143471000D01*
X123946243Y-143471000D01*
X124184069Y-143423693D01*
X124408097Y-143330898D01*
X124609717Y-143196180D01*
X124781180Y-143024717D01*
X124915898Y-142823097D01*
X125008693Y-142599069D01*
X125056000Y-142361243D01*
X125056000Y-142118757D01*
X125008693Y-141880931D01*
X124915898Y-141656903D01*
X124781180Y-141455283D01*
X124706000Y-141380103D01*
X124706000Y-140507120D01*
X124811717Y-140378303D01*
X124921381Y-140173136D01*
X124988912Y-139950516D01*
X125006000Y-139777016D01*
X125006000Y-138860985D01*
X124988912Y-138687485D01*
X124921381Y-138464864D01*
X124811717Y-138259697D01*
X124736463Y-138168000D01*
X125453538Y-138168000D01*
X125378284Y-138259697D01*
X125268619Y-138464864D01*
X125201088Y-138687484D01*
X125184000Y-138860984D01*
X125184000Y-139777015D01*
X125201088Y-139950515D01*
X125268619Y-140173135D01*
X125378283Y-140378302D01*
X125484001Y-140507120D01*
X125484000Y-141380103D01*
X125408820Y-141455283D01*
X125274102Y-141656903D01*
X125181307Y-141880931D01*
X125134000Y-142118757D01*
X125134000Y-142361243D01*
X125181307Y-142599069D01*
X125274102Y-142823097D01*
X125408820Y-143024717D01*
X125580283Y-143196180D01*
X125781903Y-143330898D01*
X126005931Y-143423693D01*
X126243757Y-143471000D01*
X126486243Y-143471000D01*
X126724069Y-143423693D01*
X126948097Y-143330898D01*
X127149717Y-143196180D01*
X127321180Y-143024717D01*
X127455898Y-142823097D01*
X127548693Y-142599069D01*
X127596000Y-142361243D01*
X127596000Y-142118757D01*
X127548693Y-141880931D01*
X127455898Y-141656903D01*
X127321180Y-141455283D01*
X127246000Y-141380103D01*
X127246000Y-140507120D01*
X127351717Y-140378303D01*
X127461381Y-140173136D01*
X127528912Y-139950516D01*
X127546000Y-139777016D01*
X127546000Y-138860985D01*
X127528912Y-138687485D01*
X127461381Y-138464864D01*
X127351717Y-138259697D01*
X127276463Y-138168000D01*
X127993538Y-138168000D01*
X127918284Y-138259697D01*
X127808619Y-138464864D01*
X127741088Y-138687484D01*
X127724000Y-138860984D01*
X127724000Y-139777015D01*
X127741088Y-139950515D01*
X127808619Y-140173135D01*
X127918283Y-140378302D01*
X128024000Y-140507120D01*
X128024001Y-141380102D01*
X127948820Y-141455283D01*
X127814102Y-141656903D01*
X127721307Y-141880931D01*
X127674000Y-142118757D01*
X127674000Y-142361243D01*
X127721307Y-142599069D01*
X127814102Y-142823097D01*
X127948820Y-143024717D01*
X128120283Y-143196180D01*
X128321903Y-143330898D01*
X128545931Y-143423693D01*
X128783757Y-143471000D01*
X129026243Y-143471000D01*
X129264069Y-143423693D01*
X129488097Y-143330898D01*
X129689717Y-143196180D01*
X129861180Y-143024717D01*
X129995898Y-142823097D01*
X130088693Y-142599069D01*
X130136000Y-142361243D01*
X130136000Y-142118757D01*
X130088693Y-141880931D01*
X129995898Y-141656903D01*
X129861180Y-141455283D01*
X129786000Y-141380103D01*
X129786000Y-140507120D01*
X129891717Y-140378303D01*
X130001381Y-140173136D01*
X130068912Y-139950516D01*
X130086000Y-139777016D01*
X130086000Y-138860985D01*
X130068912Y-138687485D01*
X130001381Y-138464864D01*
X129891717Y-138259697D01*
X129816463Y-138168000D01*
X130533538Y-138168000D01*
X130458284Y-138259697D01*
X130348619Y-138464864D01*
X130281088Y-138687484D01*
X130264000Y-138860984D01*
X130264000Y-139777015D01*
X130281088Y-139950515D01*
X130348619Y-140173135D01*
X130458283Y-140378302D01*
X130564001Y-140507120D01*
X130564000Y-141380103D01*
X130488820Y-141455283D01*
X130354102Y-141656903D01*
X130261307Y-141880931D01*
X130214000Y-142118757D01*
X130214000Y-142361243D01*
X130261307Y-142599069D01*
X130354102Y-142823097D01*
X130488820Y-143024717D01*
X130660283Y-143196180D01*
X130861903Y-143330898D01*
X131085931Y-143423693D01*
X131323757Y-143471000D01*
X131566243Y-143471000D01*
X131804069Y-143423693D01*
X132028097Y-143330898D01*
X132229717Y-143196180D01*
X132401180Y-143024717D01*
X132535898Y-142823097D01*
X132628693Y-142599069D01*
X132676000Y-142361243D01*
X132676000Y-142118757D01*
X132628693Y-141880931D01*
X132535898Y-141656903D01*
X132401180Y-141455283D01*
X132326000Y-141380103D01*
X132326000Y-140507120D01*
X132431717Y-140378303D01*
X132541381Y-140173136D01*
X132608912Y-139950516D01*
X132626000Y-139777016D01*
X132626000Y-138860985D01*
X132608912Y-138687485D01*
X132541381Y-138464864D01*
X132431717Y-138259697D01*
X132356463Y-138168000D01*
X133073538Y-138168000D01*
X132998284Y-138259697D01*
X132888619Y-138464864D01*
X132821088Y-138687484D01*
X132804000Y-138860984D01*
X132804000Y-139777015D01*
X132821088Y-139950515D01*
X132888619Y-140173135D01*
X132998283Y-140378302D01*
X133104001Y-140507120D01*
X133104000Y-141380103D01*
X133028820Y-141455283D01*
X132894102Y-141656903D01*
X132801307Y-141880931D01*
X132754000Y-142118757D01*
X132754000Y-142361243D01*
X132801307Y-142599069D01*
X132894102Y-142823097D01*
X133028820Y-143024717D01*
X133200283Y-143196180D01*
X133401903Y-143330898D01*
X133625931Y-143423693D01*
X133863757Y-143471000D01*
X134106243Y-143471000D01*
X134344069Y-143423693D01*
X134568097Y-143330898D01*
X134769717Y-143196180D01*
X134941180Y-143024717D01*
X135075898Y-142823097D01*
X135168693Y-142599069D01*
X135216000Y-142361243D01*
X135216000Y-142118757D01*
X135168693Y-141880931D01*
X135075898Y-141656903D01*
X134941180Y-141455283D01*
X134866000Y-141380103D01*
X134866000Y-140507120D01*
X134971717Y-140378303D01*
X135081381Y-140173136D01*
X135148912Y-139950516D01*
X135166000Y-139777016D01*
X135166000Y-138860985D01*
X135148912Y-138687485D01*
X135081381Y-138464864D01*
X134971717Y-138259697D01*
X134896463Y-138168000D01*
X135613538Y-138168000D01*
X135538284Y-138259697D01*
X135428619Y-138464864D01*
X135361088Y-138687484D01*
X135344000Y-138860984D01*
X135344000Y-139777015D01*
X135361088Y-139950515D01*
X135428619Y-140173135D01*
X135538283Y-140378302D01*
X135644001Y-140507120D01*
X135644000Y-141380103D01*
X135568820Y-141455283D01*
X135434102Y-141656903D01*
X135341307Y-141880931D01*
X135294000Y-142118757D01*
X135294000Y-142361243D01*
X135341307Y-142599069D01*
X135434102Y-142823097D01*
X135568820Y-143024717D01*
X135740283Y-143196180D01*
X135941903Y-143330898D01*
X136165931Y-143423693D01*
X136403757Y-143471000D01*
X136646243Y-143471000D01*
X136884069Y-143423693D01*
X137108097Y-143330898D01*
X137309717Y-143196180D01*
X137481180Y-143024717D01*
X137615898Y-142823097D01*
X137708693Y-142599069D01*
X137756000Y-142361243D01*
X137756000Y-142118757D01*
X137708693Y-141880931D01*
X137615898Y-141656903D01*
X137481180Y-141455283D01*
X137406000Y-141380103D01*
X137406000Y-140507120D01*
X137511717Y-140378303D01*
X137621381Y-140173136D01*
X137688912Y-139950516D01*
X137706000Y-139777016D01*
X137706000Y-138860985D01*
X137688912Y-138687485D01*
X137621381Y-138464864D01*
X137511717Y-138259697D01*
X137436463Y-138168000D01*
X138153538Y-138168000D01*
X138078284Y-138259697D01*
X137968619Y-138464864D01*
X137901088Y-138687484D01*
X137884000Y-138860984D01*
X137884000Y-139777015D01*
X137901088Y-139950515D01*
X137968619Y-140173135D01*
X138078283Y-140378302D01*
X138184001Y-140507120D01*
X138184000Y-141380103D01*
X138108820Y-141455283D01*
X137974102Y-141656903D01*
X137881307Y-141880931D01*
X137834000Y-142118757D01*
X137834000Y-142361243D01*
X137881307Y-142599069D01*
X137974102Y-142823097D01*
X138108820Y-143024717D01*
X138280283Y-143196180D01*
X138481903Y-143330898D01*
X138705931Y-143423693D01*
X138943757Y-143471000D01*
X139186243Y-143471000D01*
X139424069Y-143423693D01*
X139648097Y-143330898D01*
X139849717Y-143196180D01*
X140021180Y-143024717D01*
X140155898Y-142823097D01*
X140248693Y-142599069D01*
X140296000Y-142361243D01*
X140296000Y-142118757D01*
X140248693Y-141880931D01*
X140155898Y-141656903D01*
X140021180Y-141455283D01*
X139946000Y-141380103D01*
X139946000Y-140507120D01*
X140051717Y-140378303D01*
X140161381Y-140173136D01*
X140228912Y-139950516D01*
X140246000Y-139777016D01*
X140246000Y-138860985D01*
X140228912Y-138687485D01*
X140161381Y-138464864D01*
X140051717Y-138259697D01*
X139976463Y-138168000D01*
X140693538Y-138168000D01*
X140618284Y-138259697D01*
X140508619Y-138464864D01*
X140441088Y-138687484D01*
X140424000Y-138860984D01*
X140424000Y-139777015D01*
X140441088Y-139950515D01*
X140508619Y-140173135D01*
X140618283Y-140378302D01*
X140724001Y-140507120D01*
X140724000Y-141380103D01*
X140648820Y-141455283D01*
X140514102Y-141656903D01*
X140421307Y-141880931D01*
X140374000Y-142118757D01*
X140374000Y-142361243D01*
X140421307Y-142599069D01*
X140514102Y-142823097D01*
X140648820Y-143024717D01*
X140820283Y-143196180D01*
X141021903Y-143330898D01*
X141245931Y-143423693D01*
X141483757Y-143471000D01*
X141726243Y-143471000D01*
X141964069Y-143423693D01*
X142188097Y-143330898D01*
X142389717Y-143196180D01*
X142561180Y-143024717D01*
X142695898Y-142823097D01*
X142788693Y-142599069D01*
X142836000Y-142361243D01*
X142836000Y-142118757D01*
X142788693Y-141880931D01*
X142695898Y-141656903D01*
X142561180Y-141455283D01*
X142486000Y-141380103D01*
X142486000Y-140507120D01*
X142591717Y-140378303D01*
X142701381Y-140173136D01*
X142768912Y-139950516D01*
X142786000Y-139777016D01*
X142786000Y-138860985D01*
X142768912Y-138687485D01*
X142701381Y-138464864D01*
X142591717Y-138259697D01*
X142444134Y-138079866D01*
X142264303Y-137932283D01*
X142059136Y-137822619D01*
X141836516Y-137755088D01*
X141755784Y-137747137D01*
X144737362Y-134765560D01*
X144770975Y-134737975D01*
X144837231Y-134657241D01*
X144881068Y-134603826D01*
X144962875Y-134450775D01*
X144979952Y-134394479D01*
X145013252Y-134284706D01*
X145026000Y-134155273D01*
X145026000Y-134155271D01*
X145030262Y-134112001D01*
X145026000Y-134068731D01*
X145026000Y-128229790D01*
X145069689Y-128225487D01*
X145141508Y-128203701D01*
X145207696Y-128168322D01*
X145213000Y-128163969D01*
X145213001Y-138411768D01*
X145131717Y-138259697D01*
X144984134Y-138079866D01*
X144804303Y-137932283D01*
X144599136Y-137822619D01*
X144376516Y-137755088D01*
X144145000Y-137732286D01*
X143913485Y-137755088D01*
X143690865Y-137822619D01*
X143485698Y-137932283D01*
X143305867Y-138079866D01*
X143158284Y-138259697D01*
X143048619Y-138464864D01*
X142981088Y-138687484D01*
X142964000Y-138860984D01*
X142964000Y-139777015D01*
X142981088Y-139950515D01*
X143048619Y-140173135D01*
X143158283Y-140378302D01*
X143264001Y-140507120D01*
X143264000Y-141010210D01*
X143220311Y-141014513D01*
X143148492Y-141036299D01*
X143082304Y-141071678D01*
X143024289Y-141119289D01*
X142976678Y-141177304D01*
X142941299Y-141243492D01*
X142919513Y-141315311D01*
X142912157Y-141390000D01*
X142912157Y-143090000D01*
X142919513Y-143164689D01*
X142941299Y-143236508D01*
X142976678Y-143302696D01*
X143024289Y-143360711D01*
X143082304Y-143408322D01*
X143148492Y-143443701D01*
X143220311Y-143465487D01*
X143295000Y-143472843D01*
X144943839Y-143472843D01*
X144852961Y-143548023D01*
X144713593Y-143623380D01*
X144562235Y-143670233D01*
X144383674Y-143689000D01*
X95272305Y-143689000D01*
X95092315Y-143671352D01*
X94940645Y-143625559D01*
X94800748Y-143551175D01*
X94677967Y-143451038D01*
X94576977Y-143328961D01*
X94501620Y-143189593D01*
X94454767Y-143038235D01*
X94436000Y-142859674D01*
X94436000Y-142118757D01*
X94654000Y-142118757D01*
X94654000Y-142361243D01*
X94701307Y-142599069D01*
X94794102Y-142823097D01*
X94928820Y-143024717D01*
X95100283Y-143196180D01*
X95301903Y-143330898D01*
X95525931Y-143423693D01*
X95763757Y-143471000D01*
X96006243Y-143471000D01*
X96244069Y-143423693D01*
X96468097Y-143330898D01*
X96669717Y-143196180D01*
X96841180Y-143024717D01*
X96975898Y-142823097D01*
X97068693Y-142599069D01*
X97116000Y-142361243D01*
X97116000Y-142118757D01*
X97194000Y-142118757D01*
X97194000Y-142361243D01*
X97241307Y-142599069D01*
X97334102Y-142823097D01*
X97468820Y-143024717D01*
X97640283Y-143196180D01*
X97841903Y-143330898D01*
X98065931Y-143423693D01*
X98303757Y-143471000D01*
X98546243Y-143471000D01*
X98784069Y-143423693D01*
X99008097Y-143330898D01*
X99209717Y-143196180D01*
X99381180Y-143024717D01*
X99515898Y-142823097D01*
X99608693Y-142599069D01*
X99656000Y-142361243D01*
X99656000Y-142118757D01*
X99734000Y-142118757D01*
X99734000Y-142361243D01*
X99781307Y-142599069D01*
X99874102Y-142823097D01*
X100008820Y-143024717D01*
X100180283Y-143196180D01*
X100381903Y-143330898D01*
X100605931Y-143423693D01*
X100843757Y-143471000D01*
X101086243Y-143471000D01*
X101324069Y-143423693D01*
X101548097Y-143330898D01*
X101749717Y-143196180D01*
X101921180Y-143024717D01*
X102055898Y-142823097D01*
X102148693Y-142599069D01*
X102196000Y-142361243D01*
X102196000Y-142118757D01*
X102148693Y-141880931D01*
X102055898Y-141656903D01*
X101921180Y-141455283D01*
X101846000Y-141380103D01*
X101846000Y-140507120D01*
X101951717Y-140378303D01*
X102061381Y-140173136D01*
X102128912Y-139950516D01*
X102146000Y-139777016D01*
X102146000Y-138860985D01*
X102128912Y-138687485D01*
X102061381Y-138464864D01*
X101951717Y-138259697D01*
X101804134Y-138079866D01*
X101624303Y-137932283D01*
X101419136Y-137822619D01*
X101196516Y-137755088D01*
X100965000Y-137732286D01*
X100733485Y-137755088D01*
X100510865Y-137822619D01*
X100305698Y-137932283D01*
X100125867Y-138079866D01*
X99978284Y-138259697D01*
X99868619Y-138464864D01*
X99801088Y-138687484D01*
X99784000Y-138860984D01*
X99784000Y-139777015D01*
X99801088Y-139950515D01*
X99868619Y-140173135D01*
X99978283Y-140378302D01*
X100084001Y-140507120D01*
X100084000Y-141380103D01*
X100008820Y-141455283D01*
X99874102Y-141656903D01*
X99781307Y-141880931D01*
X99734000Y-142118757D01*
X99656000Y-142118757D01*
X99608693Y-141880931D01*
X99515898Y-141656903D01*
X99381180Y-141455283D01*
X99306000Y-141380103D01*
X99306000Y-140507120D01*
X99411717Y-140378303D01*
X99521381Y-140173136D01*
X99588912Y-139950516D01*
X99606000Y-139777016D01*
X99606000Y-138860985D01*
X99588912Y-138687485D01*
X99521381Y-138464864D01*
X99411717Y-138259697D01*
X99264134Y-138079866D01*
X99084303Y-137932283D01*
X98879136Y-137822619D01*
X98656516Y-137755088D01*
X98425000Y-137732286D01*
X98193485Y-137755088D01*
X97970865Y-137822619D01*
X97765698Y-137932283D01*
X97585867Y-138079866D01*
X97438284Y-138259697D01*
X97328619Y-138464864D01*
X97261088Y-138687484D01*
X97244000Y-138860984D01*
X97244000Y-139777015D01*
X97261088Y-139950515D01*
X97328619Y-140173135D01*
X97438283Y-140378302D01*
X97544001Y-140507120D01*
X97544000Y-141380103D01*
X97468820Y-141455283D01*
X97334102Y-141656903D01*
X97241307Y-141880931D01*
X97194000Y-142118757D01*
X97116000Y-142118757D01*
X97068693Y-141880931D01*
X96975898Y-141656903D01*
X96841180Y-141455283D01*
X96766000Y-141380103D01*
X96766000Y-140507120D01*
X96871717Y-140378303D01*
X96981381Y-140173136D01*
X97048912Y-139950516D01*
X97066000Y-139777016D01*
X97066000Y-138860985D01*
X97048912Y-138687485D01*
X96981381Y-138464864D01*
X96871717Y-138259697D01*
X96724134Y-138079866D01*
X96544303Y-137932283D01*
X96339136Y-137822619D01*
X96116516Y-137755088D01*
X95885000Y-137732286D01*
X95653485Y-137755088D01*
X95430865Y-137822619D01*
X95225698Y-137932283D01*
X95045867Y-138079866D01*
X94898284Y-138259697D01*
X94788619Y-138464864D01*
X94721088Y-138687484D01*
X94704000Y-138860984D01*
X94704000Y-139777015D01*
X94721088Y-139950515D01*
X94788619Y-140173135D01*
X94898283Y-140378302D01*
X95004001Y-140507120D01*
X95004000Y-141380103D01*
X94928820Y-141455283D01*
X94794102Y-141656903D01*
X94701307Y-141880931D01*
X94654000Y-142118757D01*
X94436000Y-142118757D01*
X94436000Y-123466305D01*
X94453648Y-123286315D01*
X94499441Y-123134645D01*
X94573824Y-122994749D01*
X94673962Y-122871968D01*
X94796041Y-122770975D01*
X94935407Y-122695620D01*
X95086765Y-122648767D01*
X95265326Y-122630000D01*
X95342221Y-122630000D01*
X95225698Y-122692283D01*
X95045867Y-122839866D01*
X94898284Y-123019697D01*
X94788619Y-123224864D01*
X94721088Y-123447484D01*
X94704000Y-123620984D01*
X94704000Y-124537015D01*
X94721088Y-124710515D01*
X94788619Y-124933135D01*
X94898283Y-125138302D01*
X95004000Y-125267120D01*
X95004001Y-126140102D01*
X94928820Y-126215283D01*
X94794102Y-126416903D01*
X94701307Y-126640931D01*
X94654000Y-126878757D01*
X94654000Y-127121243D01*
X94701307Y-127359069D01*
X94794102Y-127583097D01*
X94928820Y-127784717D01*
X95100283Y-127956180D01*
X95301903Y-128090898D01*
X95525931Y-128183693D01*
X95763757Y-128231000D01*
X96006243Y-128231000D01*
X96244069Y-128183693D01*
X96468097Y-128090898D01*
X96669717Y-127956180D01*
X96841180Y-127784717D01*
X96975898Y-127583097D01*
X97068693Y-127359069D01*
X97116000Y-127121243D01*
X97116000Y-126878757D01*
X97068693Y-126640931D01*
X96975898Y-126416903D01*
X96841180Y-126215283D01*
X96766000Y-126140103D01*
X96766000Y-125267120D01*
X96871717Y-125138303D01*
X96981381Y-124933136D01*
X97048912Y-124710516D01*
X97066000Y-124537016D01*
X97066000Y-123620985D01*
X97048912Y-123447485D01*
X96981381Y-123224864D01*
X96871717Y-123019697D01*
X96724134Y-122839866D01*
X96544303Y-122692283D01*
X96427780Y-122630000D01*
X97882221Y-122630000D01*
X97765698Y-122692283D01*
X97585867Y-122839866D01*
X97438284Y-123019697D01*
X97328619Y-123224864D01*
X97261088Y-123447484D01*
X97244000Y-123620984D01*
X97244000Y-124537015D01*
X97261088Y-124710515D01*
X97328619Y-124933135D01*
X97438283Y-125138302D01*
X97544000Y-125267120D01*
X97544001Y-126140102D01*
X97468820Y-126215283D01*
X97334102Y-126416903D01*
X97241307Y-126640931D01*
X97194000Y-126878757D01*
X97194000Y-127121243D01*
X97241307Y-127359069D01*
X97334102Y-127583097D01*
X97468820Y-127784717D01*
X97640283Y-127956180D01*
X97841903Y-128090898D01*
X98065931Y-128183693D01*
X98303757Y-128231000D01*
X98546243Y-128231000D01*
X98784069Y-128183693D01*
X99008097Y-128090898D01*
X99209717Y-127956180D01*
X99381180Y-127784717D01*
X99515898Y-127583097D01*
X99608693Y-127359069D01*
X99656000Y-127121243D01*
X99656000Y-126878757D01*
X99608693Y-126640931D01*
X99515898Y-126416903D01*
X99381180Y-126215283D01*
X99306000Y-126140103D01*
X99306000Y-125267120D01*
X99411717Y-125138303D01*
X99521381Y-124933136D01*
X99588912Y-124710516D01*
X99606000Y-124537016D01*
X99606000Y-123620985D01*
X99588912Y-123447485D01*
X99521381Y-123224864D01*
X99411717Y-123019697D01*
X99264134Y-122839866D01*
X99084303Y-122692283D01*
X98967780Y-122630000D01*
X100422221Y-122630000D01*
X100305698Y-122692283D01*
X100125867Y-122839866D01*
X99978284Y-123019697D01*
X99868619Y-123224864D01*
X99801088Y-123447484D01*
X99784000Y-123620984D01*
X99784000Y-124537015D01*
X99801088Y-124710515D01*
X99868619Y-124933135D01*
X99978283Y-125138302D01*
X100084000Y-125267120D01*
X100084001Y-126140102D01*
X100008820Y-126215283D01*
X99874102Y-126416903D01*
X99781307Y-126640931D01*
X99734000Y-126878757D01*
X99734000Y-127121243D01*
X99781307Y-127359069D01*
X99874102Y-127583097D01*
X100008820Y-127784717D01*
X100180283Y-127956180D01*
X100381903Y-128090898D01*
X100605931Y-128183693D01*
X100843757Y-128231000D01*
X101086243Y-128231000D01*
X101324069Y-128183693D01*
X101548097Y-128090898D01*
X101749717Y-127956180D01*
X101921180Y-127784717D01*
X102055898Y-127583097D01*
X102148693Y-127359069D01*
X102196000Y-127121243D01*
X102196000Y-126878757D01*
X102148693Y-126640931D01*
X102055898Y-126416903D01*
X101921180Y-126215283D01*
X101846000Y-126140103D01*
X101846000Y-125267120D01*
X101951717Y-125138303D01*
X102061381Y-124933136D01*
X102128912Y-124710516D01*
X102146000Y-124537016D01*
X102146000Y-123620985D01*
X102128912Y-123447485D01*
X102061381Y-123224864D01*
X101951717Y-123019697D01*
X101804134Y-122839866D01*
X101624303Y-122692283D01*
X101507780Y-122630000D01*
X102962221Y-122630000D01*
X102845698Y-122692283D01*
X102665867Y-122839866D01*
X102518284Y-123019697D01*
X102408619Y-123224864D01*
X102341088Y-123447484D01*
X102324000Y-123620984D01*
X102324000Y-124537015D01*
X102341088Y-124710515D01*
X102408619Y-124933135D01*
X102518283Y-125138302D01*
X102624000Y-125267120D01*
X102624001Y-126140102D01*
X102548820Y-126215283D01*
X102414102Y-126416903D01*
X102321307Y-126640931D01*
X102274000Y-126878757D01*
X102274000Y-127121243D01*
X102321307Y-127359069D01*
X102414102Y-127583097D01*
X102548820Y-127784717D01*
X102720283Y-127956180D01*
X102921903Y-128090898D01*
X103145931Y-128183693D01*
X103383757Y-128231000D01*
X103626243Y-128231000D01*
X103864069Y-128183693D01*
X104088097Y-128090898D01*
X104289717Y-127956180D01*
X104461180Y-127784717D01*
X104595898Y-127583097D01*
X104688693Y-127359069D01*
X104736000Y-127121243D01*
X104736000Y-126878757D01*
X104688693Y-126640931D01*
X104595898Y-126416903D01*
X104461180Y-126215283D01*
X104386000Y-126140103D01*
X104386000Y-125267120D01*
X104491717Y-125138303D01*
X104601381Y-124933136D01*
X104668912Y-124710516D01*
X104686000Y-124537016D01*
X104686000Y-123620985D01*
X104668912Y-123447485D01*
X104601381Y-123224864D01*
X104491717Y-123019697D01*
X104344134Y-122839866D01*
X104164303Y-122692283D01*
X104047780Y-122630000D01*
X105502221Y-122630000D01*
X105385698Y-122692283D01*
X105205867Y-122839866D01*
X105058284Y-123019697D01*
X104948619Y-123224864D01*
X104881088Y-123447484D01*
X104864000Y-123620984D01*
X104864000Y-124537015D01*
X104881088Y-124710515D01*
X104948619Y-124933135D01*
X105058283Y-125138302D01*
X105164000Y-125267120D01*
X105164001Y-126140102D01*
X105088820Y-126215283D01*
X104954102Y-126416903D01*
X104861307Y-126640931D01*
X104814000Y-126878757D01*
X104814000Y-127121243D01*
X104861307Y-127359069D01*
X104954102Y-127583097D01*
X105088820Y-127784717D01*
X105260283Y-127956180D01*
X105461903Y-128090898D01*
X105685931Y-128183693D01*
X105923757Y-128231000D01*
X106166243Y-128231000D01*
X106404069Y-128183693D01*
X106628097Y-128090898D01*
X106809001Y-127970022D01*
X106809001Y-128941504D01*
X106708358Y-129042147D01*
X106622887Y-129170064D01*
X106564013Y-129312197D01*
X106534000Y-129463084D01*
X106534000Y-129616928D01*
X106564013Y-129767815D01*
X106622887Y-129909948D01*
X106708358Y-130037865D01*
X106817141Y-130146648D01*
X106945058Y-130232119D01*
X107087191Y-130290993D01*
X107238078Y-130321006D01*
X107391922Y-130321006D01*
X107542809Y-130290993D01*
X107684942Y-130232119D01*
X107812859Y-130146648D01*
X107921642Y-130037865D01*
X108007113Y-129909948D01*
X108065987Y-129767815D01*
X108096000Y-129616928D01*
X108096000Y-129463084D01*
X108065987Y-129312197D01*
X108007113Y-129170064D01*
X107921642Y-129042147D01*
X107821000Y-128941505D01*
X107821000Y-127970023D01*
X108001903Y-128090898D01*
X108225931Y-128183693D01*
X108463757Y-128231000D01*
X108706243Y-128231000D01*
X108944069Y-128183693D01*
X109168097Y-128090898D01*
X109349001Y-127970022D01*
X109349000Y-134156408D01*
X107796399Y-135709010D01*
X105918000Y-135709010D01*
X105918000Y-128905000D01*
X105915560Y-128880224D01*
X105908333Y-128856399D01*
X105896597Y-128834443D01*
X105880803Y-128815197D01*
X105861557Y-128799403D01*
X105839601Y-128787667D01*
X105815776Y-128780440D01*
X105791000Y-128778000D01*
X99695000Y-128778000D01*
X99670224Y-128780440D01*
X99646399Y-128787667D01*
X99624443Y-128799403D01*
X99605197Y-128815197D01*
X99589403Y-128834443D01*
X99577667Y-128856399D01*
X99570440Y-128880224D01*
X99568000Y-128905000D01*
X99568000Y-135658226D01*
X99205558Y-135295785D01*
X99189709Y-135276473D01*
X99112661Y-135213241D01*
X99024757Y-135166255D01*
X98929375Y-135137322D01*
X98855036Y-135130000D01*
X98855028Y-135130000D01*
X98830182Y-135127553D01*
X98805336Y-135130000D01*
X96483501Y-135130000D01*
X96382859Y-135029358D01*
X96254942Y-134943887D01*
X96112809Y-134885013D01*
X95961922Y-134855000D01*
X95808078Y-134855000D01*
X95657191Y-134885013D01*
X95515058Y-134943887D01*
X95387141Y-135029358D01*
X95278358Y-135138141D01*
X95192887Y-135266058D01*
X95134013Y-135408191D01*
X95104000Y-135559078D01*
X95104000Y-135712922D01*
X95134013Y-135863809D01*
X95192887Y-136005942D01*
X95278358Y-136133859D01*
X95387141Y-136242642D01*
X95515058Y-136328113D01*
X95657191Y-136386987D01*
X95808078Y-136417000D01*
X95961922Y-136417000D01*
X96112809Y-136386987D01*
X96254942Y-136328113D01*
X96382859Y-136242642D01*
X96483501Y-136142000D01*
X97741612Y-136142000D01*
X97732887Y-136155058D01*
X97674013Y-136297191D01*
X97644000Y-136448078D01*
X97644000Y-136601922D01*
X97674013Y-136752809D01*
X97732887Y-136894942D01*
X97818358Y-137022859D01*
X97927141Y-137131642D01*
X98055058Y-137217113D01*
X98197191Y-137275987D01*
X98348078Y-137306000D01*
X98501922Y-137306000D01*
X98652809Y-137275987D01*
X98794942Y-137217113D01*
X98863924Y-137171021D01*
X101458294Y-137171021D01*
X101430031Y-137313109D01*
X101430031Y-137466953D01*
X101460044Y-137617840D01*
X101518918Y-137759973D01*
X101604389Y-137887890D01*
X101713172Y-137996673D01*
X101841089Y-138082144D01*
X101983222Y-138141018D01*
X102134109Y-138171031D01*
X102287953Y-138171031D01*
X102438840Y-138141018D01*
X102580973Y-138082144D01*
X102708890Y-137996673D01*
X102809532Y-137896031D01*
X102913521Y-137896031D01*
X102845698Y-137932283D01*
X102665867Y-138079866D01*
X102518284Y-138259697D01*
X102408619Y-138464864D01*
X102341088Y-138687484D01*
X102324000Y-138860984D01*
X102324000Y-139777015D01*
X102341088Y-139950515D01*
X102408619Y-140173135D01*
X102518283Y-140378302D01*
X102624001Y-140507120D01*
X102624000Y-141380103D01*
X102548820Y-141455283D01*
X102414102Y-141656903D01*
X102321307Y-141880931D01*
X102274000Y-142118757D01*
X102274000Y-142361243D01*
X102321307Y-142599069D01*
X102414102Y-142823097D01*
X102548820Y-143024717D01*
X102720283Y-143196180D01*
X102921903Y-143330898D01*
X103145931Y-143423693D01*
X103383757Y-143471000D01*
X103626243Y-143471000D01*
X103864069Y-143423693D01*
X104088097Y-143330898D01*
X104289717Y-143196180D01*
X104461180Y-143024717D01*
X104595898Y-142823097D01*
X104688693Y-142599069D01*
X104736000Y-142361243D01*
X104736000Y-142118757D01*
X104688693Y-141880931D01*
X104595898Y-141656903D01*
X104461180Y-141455283D01*
X104386000Y-141380103D01*
X104386000Y-140507120D01*
X104491717Y-140378303D01*
X104601381Y-140173136D01*
X104668912Y-139950516D01*
X104686000Y-139777016D01*
X104686000Y-138860985D01*
X104668912Y-138687485D01*
X104601381Y-138464864D01*
X104491717Y-138259697D01*
X104344134Y-138079866D01*
X104164303Y-137932283D01*
X104096480Y-137896031D01*
X105453521Y-137896031D01*
X105385698Y-137932283D01*
X105205867Y-138079866D01*
X105058284Y-138259697D01*
X104948619Y-138464864D01*
X104881088Y-138687484D01*
X104864000Y-138860984D01*
X104864000Y-139777015D01*
X104881088Y-139950515D01*
X104948619Y-140173135D01*
X105058283Y-140378302D01*
X105164001Y-140507120D01*
X105164000Y-141380103D01*
X105088820Y-141455283D01*
X104954102Y-141656903D01*
X104861307Y-141880931D01*
X104814000Y-142118757D01*
X104814000Y-142361243D01*
X104861307Y-142599069D01*
X104954102Y-142823097D01*
X105088820Y-143024717D01*
X105260283Y-143196180D01*
X105461903Y-143330898D01*
X105685931Y-143423693D01*
X105923757Y-143471000D01*
X106166243Y-143471000D01*
X106404069Y-143423693D01*
X106628097Y-143330898D01*
X106829717Y-143196180D01*
X107001180Y-143024717D01*
X107135898Y-142823097D01*
X107228693Y-142599069D01*
X107276000Y-142361243D01*
X107276000Y-142118757D01*
X107228693Y-141880931D01*
X107135898Y-141656903D01*
X107001180Y-141455283D01*
X106926000Y-141380103D01*
X106926000Y-140507120D01*
X107031717Y-140378303D01*
X107141381Y-140173136D01*
X107208912Y-139950516D01*
X107226000Y-139777016D01*
X107226000Y-138860985D01*
X107208912Y-138687485D01*
X107141381Y-138464864D01*
X107031717Y-138259697D01*
X106884134Y-138079866D01*
X106704303Y-137932283D01*
X106636480Y-137896031D01*
X107993521Y-137896031D01*
X107925698Y-137932283D01*
X107745867Y-138079866D01*
X107598284Y-138259697D01*
X107488619Y-138464864D01*
X107421088Y-138687484D01*
X107404000Y-138860984D01*
X107404000Y-139777015D01*
X107421088Y-139950515D01*
X107488619Y-140173135D01*
X107598283Y-140378302D01*
X107704001Y-140507120D01*
X107704000Y-141380103D01*
X107628820Y-141455283D01*
X107494102Y-141656903D01*
X107401307Y-141880931D01*
X107354000Y-142118757D01*
X107354000Y-142361243D01*
X107401307Y-142599069D01*
X107494102Y-142823097D01*
X107628820Y-143024717D01*
X107800283Y-143196180D01*
X108001903Y-143330898D01*
X108225931Y-143423693D01*
X108463757Y-143471000D01*
X108706243Y-143471000D01*
X108944069Y-143423693D01*
X109168097Y-143330898D01*
X109369717Y-143196180D01*
X109541180Y-143024717D01*
X109675898Y-142823097D01*
X109768693Y-142599069D01*
X109816000Y-142361243D01*
X109816000Y-142118757D01*
X109768693Y-141880931D01*
X109675898Y-141656903D01*
X109541180Y-141455283D01*
X109466000Y-141380103D01*
X109466000Y-140507120D01*
X109571717Y-140378303D01*
X109681381Y-140173136D01*
X109748912Y-139950516D01*
X109766000Y-139777016D01*
X109766000Y-138860985D01*
X109748912Y-138687485D01*
X109681381Y-138464864D01*
X109571717Y-138259697D01*
X109424134Y-138079866D01*
X109244303Y-137932283D01*
X109176480Y-137896031D01*
X110533521Y-137896031D01*
X110465698Y-137932283D01*
X110285867Y-138079866D01*
X110138284Y-138259697D01*
X110028619Y-138464864D01*
X109961088Y-138687484D01*
X109944000Y-138860984D01*
X109944000Y-139777015D01*
X109961088Y-139950515D01*
X110028619Y-140173135D01*
X110138283Y-140378302D01*
X110244001Y-140507120D01*
X110244000Y-141380103D01*
X110168820Y-141455283D01*
X110034102Y-141656903D01*
X109941307Y-141880931D01*
X109894000Y-142118757D01*
X109894000Y-142361243D01*
X109941307Y-142599069D01*
X110034102Y-142823097D01*
X110168820Y-143024717D01*
X110340283Y-143196180D01*
X110541903Y-143330898D01*
X110765931Y-143423693D01*
X111003757Y-143471000D01*
X111246243Y-143471000D01*
X111484069Y-143423693D01*
X111708097Y-143330898D01*
X111909717Y-143196180D01*
X112081180Y-143024717D01*
X112215898Y-142823097D01*
X112308693Y-142599069D01*
X112356000Y-142361243D01*
X112356000Y-142118757D01*
X112434000Y-142118757D01*
X112434000Y-142361243D01*
X112481307Y-142599069D01*
X112574102Y-142823097D01*
X112708820Y-143024717D01*
X112880283Y-143196180D01*
X113081903Y-143330898D01*
X113305931Y-143423693D01*
X113543757Y-143471000D01*
X113786243Y-143471000D01*
X114024069Y-143423693D01*
X114248097Y-143330898D01*
X114449717Y-143196180D01*
X114621180Y-143024717D01*
X114755898Y-142823097D01*
X114848693Y-142599069D01*
X114896000Y-142361243D01*
X114896000Y-142118757D01*
X114974000Y-142118757D01*
X114974000Y-142361243D01*
X115021307Y-142599069D01*
X115114102Y-142823097D01*
X115248820Y-143024717D01*
X115420283Y-143196180D01*
X115621903Y-143330898D01*
X115845931Y-143423693D01*
X116083757Y-143471000D01*
X116326243Y-143471000D01*
X116564069Y-143423693D01*
X116788097Y-143330898D01*
X116989717Y-143196180D01*
X117161180Y-143024717D01*
X117295898Y-142823097D01*
X117388693Y-142599069D01*
X117436000Y-142361243D01*
X117436000Y-142118757D01*
X117388693Y-141880931D01*
X117295898Y-141656903D01*
X117161180Y-141455283D01*
X117086000Y-141380103D01*
X117086000Y-140507120D01*
X117191717Y-140378303D01*
X117301381Y-140173136D01*
X117368912Y-139950516D01*
X117386000Y-139777016D01*
X117386000Y-138860985D01*
X117368912Y-138687485D01*
X117301381Y-138464864D01*
X117191717Y-138259697D01*
X117044134Y-138079866D01*
X116864303Y-137932283D01*
X116659136Y-137822619D01*
X116436516Y-137755088D01*
X116205000Y-137732286D01*
X115973485Y-137755088D01*
X115750865Y-137822619D01*
X115545698Y-137932283D01*
X115365867Y-138079866D01*
X115218284Y-138259697D01*
X115108619Y-138464864D01*
X115041088Y-138687484D01*
X115024000Y-138860984D01*
X115024000Y-139777015D01*
X115041088Y-139950515D01*
X115108619Y-140173135D01*
X115218283Y-140378302D01*
X115324001Y-140507120D01*
X115324000Y-141380103D01*
X115248820Y-141455283D01*
X115114102Y-141656903D01*
X115021307Y-141880931D01*
X114974000Y-142118757D01*
X114896000Y-142118757D01*
X114848693Y-141880931D01*
X114755898Y-141656903D01*
X114621180Y-141455283D01*
X114546000Y-141380103D01*
X114546000Y-140507120D01*
X114651717Y-140378303D01*
X114761381Y-140173136D01*
X114828912Y-139950516D01*
X114846000Y-139777016D01*
X114846000Y-138860985D01*
X114828912Y-138687485D01*
X114761381Y-138464864D01*
X114651717Y-138259697D01*
X114504134Y-138079866D01*
X114324303Y-137932283D01*
X114119136Y-137822619D01*
X113896516Y-137755088D01*
X113665000Y-137732286D01*
X113433485Y-137755088D01*
X113210865Y-137822619D01*
X113005698Y-137932283D01*
X112825867Y-138079866D01*
X112678284Y-138259697D01*
X112568619Y-138464864D01*
X112501088Y-138687484D01*
X112484000Y-138860984D01*
X112484000Y-139777015D01*
X112501088Y-139950515D01*
X112568619Y-140173135D01*
X112678283Y-140378302D01*
X112784001Y-140507120D01*
X112784000Y-141380103D01*
X112708820Y-141455283D01*
X112574102Y-141656903D01*
X112481307Y-141880931D01*
X112434000Y-142118757D01*
X112356000Y-142118757D01*
X112308693Y-141880931D01*
X112215898Y-141656903D01*
X112081180Y-141455283D01*
X112006000Y-141380103D01*
X112006000Y-140507120D01*
X112111717Y-140378303D01*
X112221381Y-140173136D01*
X112288912Y-139950516D01*
X112306000Y-139777016D01*
X112306000Y-138860985D01*
X112288912Y-138687485D01*
X112221381Y-138464864D01*
X112111717Y-138259697D01*
X111964134Y-138079866D01*
X111784303Y-137932283D01*
X111579136Y-137822619D01*
X111356516Y-137755088D01*
X111141001Y-137733862D01*
X111143969Y-137730246D01*
X115275220Y-133598996D01*
X115294527Y-133583151D01*
X115357759Y-133506103D01*
X115404745Y-133418199D01*
X115433678Y-133322817D01*
X115433740Y-133322193D01*
X115439396Y-133264759D01*
X115441000Y-133248478D01*
X115441000Y-133248471D01*
X115443447Y-133223625D01*
X115441000Y-133198779D01*
X115441000Y-127959568D01*
X115588039Y-128065239D01*
X115807712Y-128165134D01*
X115888020Y-128189489D01*
X116078000Y-128128627D01*
X116078000Y-127127000D01*
X116058000Y-127127000D01*
X116058000Y-126873000D01*
X116078000Y-126873000D01*
X116078000Y-125871373D01*
X115888020Y-125810511D01*
X115807712Y-125834866D01*
X115588039Y-125934761D01*
X115441000Y-126040432D01*
X115441000Y-125385518D01*
X115459709Y-125403895D01*
X115654468Y-125531522D01*
X115870383Y-125618702D01*
X115895886Y-125618829D01*
X116078000Y-125557297D01*
X116078000Y-124206000D01*
X116058000Y-124206000D01*
X116058000Y-123952000D01*
X116078000Y-123952000D01*
X116078000Y-122600703D01*
X115914224Y-122545367D01*
X116855220Y-121604372D01*
X116874527Y-121588527D01*
X116937759Y-121511479D01*
X116984745Y-121423575D01*
X117009000Y-121343614D01*
X117009000Y-122811773D01*
X116950291Y-122754105D01*
X116755532Y-122626478D01*
X116539617Y-122539298D01*
X116514114Y-122539171D01*
X116332000Y-122600703D01*
X116332000Y-123952000D01*
X116352000Y-123952000D01*
X116352000Y-124206000D01*
X116332000Y-124206000D01*
X116332000Y-125557297D01*
X116514114Y-125618829D01*
X116539617Y-125618702D01*
X116755532Y-125531522D01*
X116950291Y-125403895D01*
X117009000Y-125346227D01*
X117009000Y-126069179D01*
X116821961Y-125934761D01*
X116602288Y-125834866D01*
X116521980Y-125810511D01*
X116332000Y-125871373D01*
X116332000Y-126873000D01*
X116352000Y-126873000D01*
X116352000Y-127127000D01*
X116332000Y-127127000D01*
X116332000Y-128128627D01*
X116521980Y-128189489D01*
X116602288Y-128165134D01*
X116821961Y-128065239D01*
X117009001Y-127930821D01*
X117009001Y-132973417D01*
X114492409Y-135490010D01*
X114350078Y-135490010D01*
X114199191Y-135520023D01*
X114057058Y-135578897D01*
X113929141Y-135664368D01*
X113820358Y-135773151D01*
X113734887Y-135901068D01*
X113676013Y-136043201D01*
X113646000Y-136194088D01*
X113646000Y-136347932D01*
X113676013Y-136498819D01*
X113734887Y-136640952D01*
X113820358Y-136768869D01*
X113929141Y-136877652D01*
X114057058Y-136963123D01*
X114199191Y-137021997D01*
X114350078Y-137052010D01*
X114503922Y-137052010D01*
X114654809Y-137021997D01*
X114796942Y-136963123D01*
X114924859Y-136877652D01*
X115033642Y-136768869D01*
X115119113Y-136640952D01*
X115177987Y-136498819D01*
X115208000Y-136347932D01*
X115208000Y-136205601D01*
X117855220Y-133558382D01*
X117874527Y-133542537D01*
X117937759Y-133465489D01*
X117984745Y-133377585D01*
X118013678Y-133282203D01*
X118021000Y-133207864D01*
X118021000Y-133207857D01*
X118023447Y-133183011D01*
X118021000Y-133158165D01*
X118021000Y-127996750D01*
X118161903Y-128090898D01*
X118385931Y-128183693D01*
X118623757Y-128231000D01*
X118866243Y-128231000D01*
X119104069Y-128183693D01*
X119328097Y-128090898D01*
X119509001Y-127970022D01*
X119509001Y-132632407D01*
X118683409Y-133458000D01*
X118541078Y-133458000D01*
X118390191Y-133488013D01*
X118248058Y-133546887D01*
X118120141Y-133632358D01*
X118011358Y-133741141D01*
X117925887Y-133869058D01*
X117867013Y-134011191D01*
X117837000Y-134162078D01*
X117837000Y-134315922D01*
X117867013Y-134466809D01*
X117925887Y-134608942D01*
X118011358Y-134736859D01*
X118120141Y-134845642D01*
X118248058Y-134931113D01*
X118390191Y-134989987D01*
X118541078Y-135020000D01*
X118694922Y-135020000D01*
X118845809Y-134989987D01*
X118987942Y-134931113D01*
X119115859Y-134845642D01*
X119224642Y-134736859D01*
X119310113Y-134608942D01*
X119368987Y-134466809D01*
X119399000Y-134315922D01*
X119399000Y-134173591D01*
X120355220Y-133217372D01*
X120374527Y-133201527D01*
X120437759Y-133124479D01*
X120484745Y-133036575D01*
X120513678Y-132941193D01*
X120521000Y-132866854D01*
X120521000Y-132866847D01*
X120523447Y-132842001D01*
X120521000Y-132817155D01*
X120521000Y-127970023D01*
X120701903Y-128090898D01*
X120925931Y-128183693D01*
X121163757Y-128231000D01*
X121406243Y-128231000D01*
X121644069Y-128183693D01*
X121868097Y-128090898D01*
X122049001Y-127970022D01*
X122049001Y-134087144D01*
X122046553Y-134112000D01*
X122056322Y-134211192D01*
X122085255Y-134306574D01*
X122085256Y-134306575D01*
X122132242Y-134394479D01*
X122195474Y-134471527D01*
X122214780Y-134487371D01*
X123044000Y-135316592D01*
X123044000Y-135458922D01*
X123074013Y-135609809D01*
X123132887Y-135751942D01*
X123218358Y-135879859D01*
X123327141Y-135988642D01*
X123455058Y-136074113D01*
X123597191Y-136132987D01*
X123748078Y-136163000D01*
X123901922Y-136163000D01*
X124052809Y-136132987D01*
X124194942Y-136074113D01*
X124322859Y-135988642D01*
X124431642Y-135879859D01*
X124517113Y-135751942D01*
X124575987Y-135609809D01*
X124606000Y-135458922D01*
X124606000Y-135305078D01*
X124575987Y-135154191D01*
X124517113Y-135012058D01*
X124431642Y-134884141D01*
X124322859Y-134775358D01*
X124194942Y-134689887D01*
X124052809Y-134631013D01*
X123901922Y-134601000D01*
X123759592Y-134601000D01*
X123061000Y-133902409D01*
X123061000Y-127970023D01*
X123241903Y-128090898D01*
X123465931Y-128183693D01*
X123703757Y-128231000D01*
X123946243Y-128231000D01*
X124184069Y-128183693D01*
X124408097Y-128090898D01*
X124589000Y-127970022D01*
X124589001Y-134087144D01*
X124586553Y-134112000D01*
X124596322Y-134211192D01*
X124625255Y-134306574D01*
X124625256Y-134306575D01*
X124672242Y-134394479D01*
X124735474Y-134471527D01*
X124754780Y-134487371D01*
X125584000Y-135316592D01*
X125584000Y-135458922D01*
X125614013Y-135609809D01*
X125672887Y-135751942D01*
X125758358Y-135879859D01*
X125867141Y-135988642D01*
X125995058Y-136074113D01*
X126137191Y-136132987D01*
X126288078Y-136163000D01*
X126441922Y-136163000D01*
X126592809Y-136132987D01*
X126734942Y-136074113D01*
X126862859Y-135988642D01*
X126971642Y-135879859D01*
X127057113Y-135751942D01*
X127115987Y-135609809D01*
X127146000Y-135458922D01*
X127146000Y-135305078D01*
X127115987Y-135154191D01*
X127057113Y-135012058D01*
X126971642Y-134884141D01*
X126862859Y-134775358D01*
X126734942Y-134689887D01*
X126592809Y-134631013D01*
X126441922Y-134601000D01*
X126299592Y-134601000D01*
X125601000Y-133902409D01*
X125601000Y-127970023D01*
X125781903Y-128090898D01*
X126005931Y-128183693D01*
X126243757Y-128231000D01*
X126486243Y-128231000D01*
X126724069Y-128183693D01*
X126948097Y-128090898D01*
X127129000Y-127970022D01*
X127129001Y-134087140D01*
X127126553Y-134111996D01*
X127136322Y-134211188D01*
X127165255Y-134306570D01*
X127165258Y-134306575D01*
X127212242Y-134394475D01*
X127275474Y-134471523D01*
X127294780Y-134487367D01*
X128124002Y-135316590D01*
X128124002Y-135458920D01*
X128154015Y-135609807D01*
X128212889Y-135751940D01*
X128298360Y-135879857D01*
X128407143Y-135988640D01*
X128535060Y-136074111D01*
X128677193Y-136132985D01*
X128828080Y-136162998D01*
X128981924Y-136162998D01*
X129132811Y-136132985D01*
X129274944Y-136074111D01*
X129402861Y-135988640D01*
X129511644Y-135879857D01*
X129597115Y-135751940D01*
X129655989Y-135609807D01*
X129686002Y-135458920D01*
X129686002Y-135305076D01*
X129655989Y-135154189D01*
X129597115Y-135012056D01*
X129511644Y-134884139D01*
X129402861Y-134775356D01*
X129274944Y-134689885D01*
X129132811Y-134631011D01*
X128981924Y-134600998D01*
X128839594Y-134600998D01*
X128141000Y-133902405D01*
X128141000Y-127970023D01*
X128321903Y-128090898D01*
X128545931Y-128183693D01*
X128783757Y-128231000D01*
X129026243Y-128231000D01*
X129264069Y-128183693D01*
X129488097Y-128090898D01*
X129669001Y-127970022D01*
X129669001Y-128880144D01*
X129666553Y-128905000D01*
X129676322Y-129004192D01*
X129705255Y-129099574D01*
X129723016Y-129132801D01*
X129752242Y-129187479D01*
X129815474Y-129264527D01*
X129834781Y-129280372D01*
X135744000Y-135189592D01*
X135744000Y-135331922D01*
X135774013Y-135482809D01*
X135832887Y-135624942D01*
X135918358Y-135752859D01*
X136027141Y-135861642D01*
X136155058Y-135947113D01*
X136297191Y-136005987D01*
X136448078Y-136036000D01*
X136601922Y-136036000D01*
X136752809Y-136005987D01*
X136894942Y-135947113D01*
X137022859Y-135861642D01*
X137131642Y-135752859D01*
X137217113Y-135624942D01*
X137275987Y-135482809D01*
X137306000Y-135331922D01*
X137306000Y-135178078D01*
X137275987Y-135027191D01*
X137217113Y-134885058D01*
X137131642Y-134757141D01*
X137022859Y-134648358D01*
X136894942Y-134562887D01*
X136752809Y-134504013D01*
X136601922Y-134474000D01*
X136459592Y-134474000D01*
X130681000Y-128695409D01*
X130681000Y-127970023D01*
X130861903Y-128090898D01*
X131085931Y-128183693D01*
X131323757Y-128231000D01*
X131566243Y-128231000D01*
X131804069Y-128183693D01*
X132028097Y-128090898D01*
X132208999Y-127970023D01*
X132208999Y-128306490D01*
X132108356Y-128407133D01*
X132022885Y-128535050D01*
X131964011Y-128677183D01*
X131933998Y-128828070D01*
X131933998Y-128981914D01*
X131964011Y-129132801D01*
X132022885Y-129274934D01*
X132108356Y-129402851D01*
X132217139Y-129511634D01*
X132345056Y-129597105D01*
X132487189Y-129655979D01*
X132638076Y-129685992D01*
X132791920Y-129685992D01*
X132942807Y-129655979D01*
X133084940Y-129597105D01*
X133212857Y-129511634D01*
X133321640Y-129402851D01*
X133407111Y-129274934D01*
X133465985Y-129132801D01*
X133495998Y-128981914D01*
X133495998Y-128828070D01*
X133465985Y-128677183D01*
X133407111Y-128535050D01*
X133321640Y-128407133D01*
X133220998Y-128306491D01*
X133220998Y-127970021D01*
X133401903Y-128090898D01*
X133625931Y-128183693D01*
X133863757Y-128231000D01*
X134106243Y-128231000D01*
X134344069Y-128183693D01*
X134568097Y-128090898D01*
X134749001Y-127970022D01*
X134749001Y-131420144D01*
X134746553Y-131445000D01*
X134756322Y-131544192D01*
X134785255Y-131639574D01*
X134785256Y-131639575D01*
X134832242Y-131727479D01*
X134895474Y-131804527D01*
X134914781Y-131820372D01*
X138283996Y-135189588D01*
X138283996Y-135331918D01*
X138314009Y-135482805D01*
X138372883Y-135624938D01*
X138458354Y-135752855D01*
X138567137Y-135861638D01*
X138695054Y-135947109D01*
X138837187Y-136005983D01*
X138988074Y-136035996D01*
X139141918Y-136035996D01*
X139292805Y-136005983D01*
X139434938Y-135947109D01*
X139562855Y-135861638D01*
X139671638Y-135752855D01*
X139757109Y-135624938D01*
X139815983Y-135482805D01*
X139845996Y-135331918D01*
X139845996Y-135178074D01*
X139815983Y-135027187D01*
X139757109Y-134885054D01*
X139671638Y-134757137D01*
X139562855Y-134648354D01*
X139434938Y-134562883D01*
X139292805Y-134504009D01*
X139141918Y-134473996D01*
X138999588Y-134473996D01*
X135761000Y-131235409D01*
X135761000Y-127970023D01*
X135941903Y-128090898D01*
X136165931Y-128183693D01*
X136403757Y-128231000D01*
X136646243Y-128231000D01*
X136884069Y-128183693D01*
X137108097Y-128090898D01*
X137309717Y-127956180D01*
X137481180Y-127784717D01*
X137615898Y-127583097D01*
X137708693Y-127359069D01*
X137756000Y-127121243D01*
X137756000Y-126878757D01*
X137834000Y-126878757D01*
X137834000Y-127121243D01*
X137881307Y-127359069D01*
X137974102Y-127583097D01*
X138108820Y-127784717D01*
X138280283Y-127956180D01*
X138481903Y-128090898D01*
X138705931Y-128183693D01*
X138943757Y-128231000D01*
X139186243Y-128231000D01*
X139424069Y-128183693D01*
X139648097Y-128090898D01*
X139849717Y-127956180D01*
X140021180Y-127784717D01*
X140155898Y-127583097D01*
X140248693Y-127359069D01*
X140296000Y-127121243D01*
X140296000Y-126878757D01*
X140374000Y-126878757D01*
X140374000Y-127121243D01*
X140421307Y-127359069D01*
X140514102Y-127583097D01*
X140648820Y-127784717D01*
X140820283Y-127956180D01*
X141021903Y-128090898D01*
X141245931Y-128183693D01*
X141483757Y-128231000D01*
X141726243Y-128231000D01*
X141964069Y-128183693D01*
X142188097Y-128090898D01*
X142389717Y-127956180D01*
X142561180Y-127784717D01*
X142695898Y-127583097D01*
X142788693Y-127359069D01*
X142836000Y-127121243D01*
X142836000Y-126878757D01*
X142788693Y-126640931D01*
X142695898Y-126416903D01*
X142561180Y-126215283D01*
X142486000Y-126140103D01*
X142486000Y-125267120D01*
X142591717Y-125138303D01*
X142701381Y-124933136D01*
X142768912Y-124710516D01*
X142786000Y-124537016D01*
X142786000Y-123620985D01*
X142768912Y-123447485D01*
X142701381Y-123224864D01*
X142591717Y-123019697D01*
X142444134Y-122839866D01*
X142264303Y-122692283D01*
X142059136Y-122582619D01*
X141836516Y-122515088D01*
X141605000Y-122492286D01*
X141373485Y-122515088D01*
X141150865Y-122582619D01*
X140945698Y-122692283D01*
X140765867Y-122839866D01*
X140618284Y-123019697D01*
X140508619Y-123224864D01*
X140441088Y-123447484D01*
X140424000Y-123620984D01*
X140424000Y-124537015D01*
X140441088Y-124710515D01*
X140508619Y-124933135D01*
X140618283Y-125138302D01*
X140724000Y-125267120D01*
X140724001Y-126140102D01*
X140648820Y-126215283D01*
X140514102Y-126416903D01*
X140421307Y-126640931D01*
X140374000Y-126878757D01*
X140296000Y-126878757D01*
X140248693Y-126640931D01*
X140155898Y-126416903D01*
X140021180Y-126215283D01*
X139946000Y-126140103D01*
X139946000Y-125267120D01*
X140051717Y-125138303D01*
X140161381Y-124933136D01*
X140228912Y-124710516D01*
X140246000Y-124537016D01*
X140246000Y-123620985D01*
X140228912Y-123447485D01*
X140161381Y-123224864D01*
X140051717Y-123019697D01*
X139904134Y-122839866D01*
X139724303Y-122692283D01*
X139519136Y-122582619D01*
X139296516Y-122515088D01*
X139065000Y-122492286D01*
X138833485Y-122515088D01*
X138610865Y-122582619D01*
X138405698Y-122692283D01*
X138225867Y-122839866D01*
X138078284Y-123019697D01*
X137968619Y-123224864D01*
X137901088Y-123447484D01*
X137884000Y-123620984D01*
X137884000Y-124537015D01*
X137901088Y-124710515D01*
X137968619Y-124933135D01*
X138078283Y-125138302D01*
X138184000Y-125267120D01*
X138184001Y-126140102D01*
X138108820Y-126215283D01*
X137974102Y-126416903D01*
X137881307Y-126640931D01*
X137834000Y-126878757D01*
X137756000Y-126878757D01*
X137708693Y-126640931D01*
X137615898Y-126416903D01*
X137481180Y-126215283D01*
X137406000Y-126140103D01*
X137406000Y-125267120D01*
X137511717Y-125138303D01*
X137621381Y-124933136D01*
X137688912Y-124710516D01*
X137706000Y-124537016D01*
X137706000Y-123620985D01*
X137688912Y-123447485D01*
X137621381Y-123224864D01*
X137511717Y-123019697D01*
X137364134Y-122839866D01*
X137184303Y-122692283D01*
X136979136Y-122582619D01*
X136756516Y-122515088D01*
X136525000Y-122492286D01*
X136293485Y-122515088D01*
X136070865Y-122582619D01*
X135865698Y-122692283D01*
X135761000Y-122778206D01*
X135761000Y-122452854D01*
X135763448Y-122428000D01*
X135753678Y-122328807D01*
X135724745Y-122233425D01*
X135707845Y-122201808D01*
X135677759Y-122145521D01*
X135614527Y-122068473D01*
X135595220Y-122052628D01*
X132537376Y-118994785D01*
X132521527Y-118975473D01*
X132444479Y-118912241D01*
X132356575Y-118865255D01*
X132261193Y-118836322D01*
X132186854Y-118829000D01*
X132186846Y-118829000D01*
X132162000Y-118826553D01*
X132137154Y-118829000D01*
X129197843Y-118829000D01*
X129197843Y-118335000D01*
X129190487Y-118260311D01*
X129168701Y-118188492D01*
X129133322Y-118122304D01*
X129085711Y-118064289D01*
X129027696Y-118016678D01*
X128961508Y-117981299D01*
X128889689Y-117959513D01*
X128815000Y-117952157D01*
X128215000Y-117952157D01*
X128140311Y-117959513D01*
X128068492Y-117981299D01*
X128015000Y-118009892D01*
X127961508Y-117981299D01*
X127889689Y-117959513D01*
X127815000Y-117952157D01*
X127215000Y-117952157D01*
X127140311Y-117959513D01*
X127068492Y-117981299D01*
X127015000Y-118009892D01*
X126961508Y-117981299D01*
X126889689Y-117959513D01*
X126815000Y-117952157D01*
X126215000Y-117952157D01*
X126140311Y-117959513D01*
X126068492Y-117981299D01*
X126015000Y-118009892D01*
X125961508Y-117981299D01*
X125889689Y-117959513D01*
X125815000Y-117952157D01*
X125215000Y-117952157D01*
X125140311Y-117959513D01*
X125068492Y-117981299D01*
X125015000Y-118009892D01*
X124961508Y-117981299D01*
X124889689Y-117959513D01*
X124815000Y-117952157D01*
X124737250Y-117954000D01*
X124642000Y-118049250D01*
X124642000Y-119208000D01*
X124662000Y-119208000D01*
X124662000Y-119462000D01*
X124642000Y-119462000D01*
X124642000Y-120620750D01*
X124737250Y-120716000D01*
X124815000Y-120717843D01*
X124889689Y-120710487D01*
X124961508Y-120688701D01*
X125015000Y-120660108D01*
X125016283Y-120660794D01*
X125016322Y-120661192D01*
X125045255Y-120756574D01*
X125061156Y-120786322D01*
X125092242Y-120844479D01*
X125155474Y-120921527D01*
X125174781Y-120937372D01*
X126821051Y-122583642D01*
X126819136Y-122582619D01*
X126596516Y-122515088D01*
X126365000Y-122492286D01*
X126133485Y-122515088D01*
X125910865Y-122582619D01*
X125705698Y-122692283D01*
X125525867Y-122839866D01*
X125521715Y-122844925D01*
X125517759Y-122837523D01*
X125454527Y-122760475D01*
X125435220Y-122744630D01*
X124021000Y-121330411D01*
X124021000Y-120663315D01*
X124068492Y-120688701D01*
X124140311Y-120710487D01*
X124215000Y-120717843D01*
X124292750Y-120716000D01*
X124388000Y-120620750D01*
X124388000Y-119462000D01*
X124368000Y-119462000D01*
X124368000Y-119208000D01*
X124388000Y-119208000D01*
X124388000Y-118049250D01*
X124292750Y-117954000D01*
X124215000Y-117952157D01*
X124140311Y-117959513D01*
X124068492Y-117981299D01*
X124015000Y-118009892D01*
X123961508Y-117981299D01*
X123889689Y-117959513D01*
X123815000Y-117952157D01*
X123215000Y-117952157D01*
X123196000Y-117954028D01*
X123196000Y-116244000D01*
X135292157Y-116244000D01*
X135292157Y-117944000D01*
X135299513Y-118018689D01*
X135321299Y-118090508D01*
X135356678Y-118156696D01*
X135404289Y-118214711D01*
X135462304Y-118262322D01*
X135528492Y-118297701D01*
X135600311Y-118319487D01*
X135675000Y-118326843D01*
X137375000Y-118326843D01*
X137449689Y-118319487D01*
X137521508Y-118297701D01*
X137587696Y-118262322D01*
X137645711Y-118214711D01*
X137693322Y-118156696D01*
X137728701Y-118090508D01*
X137750487Y-118018689D01*
X137757843Y-117944000D01*
X137757843Y-116972757D01*
X137834000Y-116972757D01*
X137834000Y-117215243D01*
X137881307Y-117453069D01*
X137974102Y-117677097D01*
X138108820Y-117878717D01*
X138280283Y-118050180D01*
X138481903Y-118184898D01*
X138705931Y-118277693D01*
X138943757Y-118325000D01*
X139186243Y-118325000D01*
X139424069Y-118277693D01*
X139648097Y-118184898D01*
X139849717Y-118050180D01*
X140021180Y-117878717D01*
X140155898Y-117677097D01*
X140248693Y-117453069D01*
X140257064Y-117410981D01*
X140415505Y-117410981D01*
X140500201Y-117636949D01*
X140627353Y-117842052D01*
X140792076Y-118018408D01*
X140988039Y-118159239D01*
X141207712Y-118259134D01*
X141288020Y-118283489D01*
X141478000Y-118222627D01*
X141478000Y-117221000D01*
X141732000Y-117221000D01*
X141732000Y-118222627D01*
X141921980Y-118283489D01*
X142002288Y-118259134D01*
X142221961Y-118159239D01*
X142417924Y-118018408D01*
X142582647Y-117842052D01*
X142709799Y-117636949D01*
X142794495Y-117410981D01*
X142734187Y-117221000D01*
X141732000Y-117221000D01*
X141478000Y-117221000D01*
X140475813Y-117221000D01*
X140415505Y-117410981D01*
X140257064Y-117410981D01*
X140296000Y-117215243D01*
X140296000Y-116972757D01*
X140257065Y-116777019D01*
X140415505Y-116777019D01*
X140475813Y-116967000D01*
X141478000Y-116967000D01*
X141478000Y-115965373D01*
X141732000Y-115965373D01*
X141732000Y-116967000D01*
X142734187Y-116967000D01*
X142794495Y-116777019D01*
X142709799Y-116551051D01*
X142582647Y-116345948D01*
X142417924Y-116169592D01*
X142221961Y-116028761D01*
X142002288Y-115928866D01*
X141921980Y-115904511D01*
X141732000Y-115965373D01*
X141478000Y-115965373D01*
X141288020Y-115904511D01*
X141207712Y-115928866D01*
X140988039Y-116028761D01*
X140792076Y-116169592D01*
X140627353Y-116345948D01*
X140500201Y-116551051D01*
X140415505Y-116777019D01*
X140257065Y-116777019D01*
X140248693Y-116734931D01*
X140155898Y-116510903D01*
X140021180Y-116309283D01*
X139849717Y-116137820D01*
X139648097Y-116003102D01*
X139424069Y-115910307D01*
X139186243Y-115863000D01*
X138943757Y-115863000D01*
X138705931Y-115910307D01*
X138481903Y-116003102D01*
X138280283Y-116137820D01*
X138108820Y-116309283D01*
X137974102Y-116510903D01*
X137881307Y-116734931D01*
X137834000Y-116972757D01*
X137757843Y-116972757D01*
X137757843Y-116244000D01*
X137750487Y-116169311D01*
X137728701Y-116097492D01*
X137693322Y-116031304D01*
X137645711Y-115973289D01*
X137587696Y-115925678D01*
X137521508Y-115890299D01*
X137449689Y-115868513D01*
X137375000Y-115861157D01*
X135675000Y-115861157D01*
X135600311Y-115868513D01*
X135528492Y-115890299D01*
X135462304Y-115925678D01*
X135404289Y-115973289D01*
X135356678Y-116031304D01*
X135321299Y-116097492D01*
X135299513Y-116169311D01*
X135292157Y-116244000D01*
X123196000Y-116244000D01*
X123196000Y-115673073D01*
X123307843Y-115598342D01*
X123472342Y-115433843D01*
X123601588Y-115240413D01*
X123690614Y-115025485D01*
X123736000Y-114797318D01*
X123736000Y-114564682D01*
X123690614Y-114336515D01*
X123601588Y-114121587D01*
X123472342Y-113928157D01*
X123307843Y-113763658D01*
X123114413Y-113634412D01*
X122899485Y-113545386D01*
X122671318Y-113500000D01*
X122438682Y-113500000D01*
X122210515Y-113545386D01*
X121995587Y-113634412D01*
X121802157Y-113763658D01*
X121637658Y-113928157D01*
X121508412Y-114121587D01*
X121419386Y-114336515D01*
X121374000Y-114564682D01*
X121374000Y-114797318D01*
X121419386Y-115025485D01*
X121508412Y-115240413D01*
X121637658Y-115433843D01*
X121802157Y-115598342D01*
X121834001Y-115619619D01*
X121834000Y-117954028D01*
X121815000Y-117952157D01*
X121215000Y-117952157D01*
X121140311Y-117959513D01*
X121068492Y-117981299D01*
X121015000Y-118009892D01*
X120961508Y-117981299D01*
X120889689Y-117959513D01*
X120815000Y-117952157D01*
X120215000Y-117952157D01*
X120140311Y-117959513D01*
X120068492Y-117981299D01*
X120015000Y-118009892D01*
X119961508Y-117981299D01*
X119889689Y-117959513D01*
X119815000Y-117952157D01*
X119215000Y-117952157D01*
X119140311Y-117959513D01*
X119068492Y-117981299D01*
X119015000Y-118009892D01*
X118961508Y-117981299D01*
X118889689Y-117959513D01*
X118815000Y-117952157D01*
X118215000Y-117952157D01*
X118140311Y-117959513D01*
X118068492Y-117981299D01*
X118015000Y-118009892D01*
X117961508Y-117981299D01*
X117889689Y-117959513D01*
X117815000Y-117952157D01*
X117215000Y-117952157D01*
X117140311Y-117959513D01*
X117068492Y-117981299D01*
X117015000Y-118009892D01*
X116961508Y-117981299D01*
X116889689Y-117959513D01*
X116815000Y-117952157D01*
X116215000Y-117952157D01*
X116140311Y-117959513D01*
X116068492Y-117981299D01*
X116015000Y-118009892D01*
X115961508Y-117981299D01*
X115889689Y-117959513D01*
X115815000Y-117952157D01*
X115737250Y-117954000D01*
X115642000Y-118049250D01*
X115642000Y-119208000D01*
X115662000Y-119208000D01*
X115662000Y-119462000D01*
X115642000Y-119462000D01*
X115642000Y-120620750D01*
X115737250Y-120716000D01*
X115815000Y-120717843D01*
X115889689Y-120710487D01*
X115961508Y-120688701D01*
X116009001Y-120663315D01*
X116009001Y-121019407D01*
X114594785Y-122433624D01*
X114575473Y-122449473D01*
X114512241Y-122526521D01*
X114465255Y-122614426D01*
X114436322Y-122709808D01*
X114429541Y-122778650D01*
X114324303Y-122692283D01*
X114119136Y-122582619D01*
X113896516Y-122515088D01*
X113665000Y-122492286D01*
X113433485Y-122515088D01*
X113210865Y-122582619D01*
X113208947Y-122583644D01*
X114855220Y-120937372D01*
X114874527Y-120921527D01*
X114937759Y-120844479D01*
X114984745Y-120756575D01*
X115013678Y-120661193D01*
X115013717Y-120660794D01*
X115015000Y-120660108D01*
X115068492Y-120688701D01*
X115140311Y-120710487D01*
X115215000Y-120717843D01*
X115292750Y-120716000D01*
X115388000Y-120620750D01*
X115388000Y-119462000D01*
X115368000Y-119462000D01*
X115368000Y-119208000D01*
X115388000Y-119208000D01*
X115388000Y-118049250D01*
X115292750Y-117954000D01*
X115215000Y-117952157D01*
X115140311Y-117959513D01*
X115068492Y-117981299D01*
X115015000Y-118009892D01*
X114961508Y-117981299D01*
X114889689Y-117959513D01*
X114815000Y-117952157D01*
X114215000Y-117952157D01*
X114196000Y-117954028D01*
X114196000Y-115646346D01*
X114267843Y-115598342D01*
X114432342Y-115433843D01*
X114561588Y-115240413D01*
X114650614Y-115025485D01*
X114696000Y-114797318D01*
X114696000Y-114564682D01*
X114650614Y-114336515D01*
X114561588Y-114121587D01*
X114432342Y-113928157D01*
X114267843Y-113763658D01*
X114074413Y-113634412D01*
X113859485Y-113545386D01*
X113631318Y-113500000D01*
X113398682Y-113500000D01*
X113170515Y-113545386D01*
X112955587Y-113634412D01*
X112762157Y-113763658D01*
X112597658Y-113928157D01*
X112468412Y-114121587D01*
X112379386Y-114336515D01*
X112334000Y-114564682D01*
X112334000Y-114797318D01*
X112379386Y-115025485D01*
X112468412Y-115240413D01*
X112597658Y-115433843D01*
X112762157Y-115598342D01*
X112834001Y-115646347D01*
X112834000Y-117954028D01*
X112815000Y-117952157D01*
X112215000Y-117952157D01*
X112140311Y-117959513D01*
X112068492Y-117981299D01*
X112015000Y-118009892D01*
X111961508Y-117981299D01*
X111889689Y-117959513D01*
X111815000Y-117952157D01*
X111215000Y-117952157D01*
X111140311Y-117959513D01*
X111068492Y-117981299D01*
X111002304Y-118016678D01*
X110944289Y-118064289D01*
X110896678Y-118122304D01*
X110861299Y-118188492D01*
X110839513Y-118260311D01*
X110832157Y-118335000D01*
X110832157Y-119464000D01*
X110178845Y-119464000D01*
X110153999Y-119461553D01*
X110129153Y-119464000D01*
X110129146Y-119464000D01*
X110064694Y-119470348D01*
X110054806Y-119471322D01*
X110032607Y-119478056D01*
X109959425Y-119500255D01*
X109871521Y-119547241D01*
X109794473Y-119610473D01*
X109778628Y-119629780D01*
X106974785Y-122433624D01*
X106955473Y-122449473D01*
X106892241Y-122526521D01*
X106845255Y-122614426D01*
X106816322Y-122709808D01*
X106809541Y-122778650D01*
X106704303Y-122692283D01*
X106499136Y-122582619D01*
X106340276Y-122534429D01*
X106417989Y-122510373D01*
X106456117Y-122494346D01*
X106494407Y-122478876D01*
X106500021Y-122475890D01*
X106500031Y-122475886D01*
X106500039Y-122475881D01*
X106718059Y-122357998D01*
X106752346Y-122334872D01*
X106786907Y-122312256D01*
X106791832Y-122308239D01*
X106791840Y-122308233D01*
X106791847Y-122308226D01*
X106982821Y-122150239D01*
X107011967Y-122120889D01*
X107041471Y-122091997D01*
X107045525Y-122087096D01*
X107045531Y-122087090D01*
X107045535Y-122087083D01*
X107202184Y-121895013D01*
X107225043Y-121860608D01*
X107248407Y-121826486D01*
X107251435Y-121820885D01*
X107367797Y-121602038D01*
X107383541Y-121563840D01*
X107399828Y-121525841D01*
X107401710Y-121519759D01*
X107473350Y-121282478D01*
X107481372Y-121241967D01*
X107489972Y-121201508D01*
X107490637Y-121195176D01*
X107514824Y-120948498D01*
X107514824Y-120948493D01*
X107517000Y-120926399D01*
X107517000Y-114322305D01*
X107534648Y-114142315D01*
X107580441Y-113990645D01*
X107654824Y-113850749D01*
X107754962Y-113727968D01*
X107877041Y-113626975D01*
X108016407Y-113551620D01*
X108167765Y-113504767D01*
X108346326Y-113486000D01*
X144376695Y-113486000D01*
X144556685Y-113503648D01*
G04 #@! TA.AperFunction,Conductor*
D23*
G36*
X144556685Y-113503648D02*
G01*
X144708355Y-113549441D01*
X144848251Y-113623824D01*
X144971032Y-113723962D01*
X145072025Y-113846041D01*
X145147380Y-113985407D01*
X145194233Y-114136765D01*
X145213000Y-114315326D01*
X145213000Y-116476634D01*
X145101180Y-116309283D01*
X144929717Y-116137820D01*
X144728097Y-116003102D01*
X144504069Y-115910307D01*
X144266243Y-115863000D01*
X144023757Y-115863000D01*
X143785931Y-115910307D01*
X143561903Y-116003102D01*
X143360283Y-116137820D01*
X143188820Y-116309283D01*
X143054102Y-116510903D01*
X142961307Y-116734931D01*
X142914000Y-116972757D01*
X142914000Y-117215243D01*
X142961307Y-117453069D01*
X143054102Y-117677097D01*
X143188820Y-117878717D01*
X143360283Y-118050180D01*
X143561903Y-118184898D01*
X143785931Y-118277693D01*
X144023757Y-118325000D01*
X144266243Y-118325000D01*
X144504069Y-118277693D01*
X144728097Y-118184898D01*
X144929717Y-118050180D01*
X145101180Y-117878717D01*
X145213000Y-117711366D01*
X145213000Y-122606064D01*
X145157696Y-122560678D01*
X145091508Y-122525299D01*
X145019689Y-122503513D01*
X144945000Y-122496157D01*
X143345000Y-122496157D01*
X143270311Y-122503513D01*
X143198492Y-122525299D01*
X143132304Y-122560678D01*
X143074289Y-122608289D01*
X143026678Y-122666304D01*
X142991299Y-122732492D01*
X142969513Y-122804311D01*
X142962157Y-122879000D01*
X142962157Y-125279000D01*
X142969513Y-125353689D01*
X142991299Y-125425508D01*
X143026678Y-125491696D01*
X143074289Y-125549711D01*
X143132304Y-125597322D01*
X143198492Y-125632701D01*
X143264001Y-125652573D01*
X143264001Y-125770210D01*
X143220311Y-125774513D01*
X143148492Y-125796299D01*
X143082304Y-125831678D01*
X143024289Y-125879289D01*
X142976678Y-125937304D01*
X142941299Y-126003492D01*
X142919513Y-126075311D01*
X142912157Y-126150000D01*
X142912157Y-127850000D01*
X142919513Y-127924689D01*
X142941299Y-127996508D01*
X142976678Y-128062696D01*
X143024289Y-128120711D01*
X143082304Y-128168322D01*
X143148492Y-128203701D01*
X143220311Y-128225487D01*
X143264001Y-128229790D01*
X143264000Y-133747078D01*
X140605079Y-136406000D01*
X119423270Y-136406000D01*
X119380000Y-136401738D01*
X119336730Y-136406000D01*
X119336727Y-136406000D01*
X119207294Y-136418748D01*
X119052898Y-136465584D01*
X119041225Y-136469125D01*
X118888174Y-136550932D01*
X118840107Y-136590380D01*
X118754025Y-136661025D01*
X118726440Y-136694638D01*
X118152640Y-137268439D01*
X118119026Y-137296025D01*
X118091441Y-137329638D01*
X118008932Y-137430175D01*
X117927125Y-137583226D01*
X117914218Y-137625775D01*
X117881909Y-137732286D01*
X117876749Y-137749295D01*
X117859738Y-137922000D01*
X117864001Y-137965280D01*
X117864001Y-138130880D01*
X117758284Y-138259697D01*
X117648619Y-138464864D01*
X117581088Y-138687484D01*
X117564000Y-138860984D01*
X117564000Y-139777015D01*
X117581088Y-139950515D01*
X117648619Y-140173135D01*
X117758283Y-140378302D01*
X117864000Y-140507120D01*
X117864000Y-141380103D01*
X117788820Y-141455283D01*
X117654102Y-141656903D01*
X117561307Y-141880931D01*
X117514000Y-142118757D01*
X117514000Y-142361243D01*
X117561307Y-142599069D01*
X117654102Y-142823097D01*
X117788820Y-143024717D01*
X117960283Y-143196180D01*
X118161903Y-143330898D01*
X118385931Y-143423693D01*
X118623757Y-143471000D01*
X118866243Y-143471000D01*
X119104069Y-143423693D01*
X119328097Y-143330898D01*
X119529717Y-143196180D01*
X119701180Y-143024717D01*
X119835898Y-142823097D01*
X119928693Y-142599069D01*
X119976000Y-142361243D01*
X119976000Y-142118757D01*
X119928693Y-141880931D01*
X119835898Y-141656903D01*
X119701180Y-141455283D01*
X119626000Y-141380103D01*
X119626000Y-140507120D01*
X119731717Y-140378303D01*
X119841381Y-140173136D01*
X119908912Y-139950516D01*
X119926000Y-139777016D01*
X119926000Y-138860985D01*
X119908912Y-138687485D01*
X119841381Y-138464864D01*
X119731717Y-138259697D01*
X119696336Y-138216585D01*
X119744922Y-138168000D01*
X120373538Y-138168000D01*
X120298284Y-138259697D01*
X120188619Y-138464864D01*
X120121088Y-138687484D01*
X120104000Y-138860984D01*
X120104000Y-139777015D01*
X120121088Y-139950515D01*
X120188619Y-140173135D01*
X120298283Y-140378302D01*
X120404000Y-140507120D01*
X120404001Y-141380102D01*
X120328820Y-141455283D01*
X120194102Y-141656903D01*
X120101307Y-141880931D01*
X120054000Y-142118757D01*
X120054000Y-142361243D01*
X120101307Y-142599069D01*
X120194102Y-142823097D01*
X120328820Y-143024717D01*
X120500283Y-143196180D01*
X120701903Y-143330898D01*
X120925931Y-143423693D01*
X121163757Y-143471000D01*
X121406243Y-143471000D01*
X121644069Y-143423693D01*
X121868097Y-143330898D01*
X122069717Y-143196180D01*
X122241180Y-143024717D01*
X122375898Y-142823097D01*
X122468693Y-142599069D01*
X122516000Y-142361243D01*
X122516000Y-142118757D01*
X122468693Y-141880931D01*
X122375898Y-141656903D01*
X122241180Y-141455283D01*
X122166000Y-141380103D01*
X122166000Y-140507120D01*
X122271717Y-140378303D01*
X122381381Y-140173136D01*
X122448912Y-139950516D01*
X122466000Y-139777016D01*
X122466000Y-138860985D01*
X122448912Y-138687485D01*
X122381381Y-138464864D01*
X122271717Y-138259697D01*
X122196463Y-138168000D01*
X122913538Y-138168000D01*
X122838284Y-138259697D01*
X122728619Y-138464864D01*
X122661088Y-138687484D01*
X122644000Y-138860984D01*
X122644000Y-139777015D01*
X122661088Y-139950515D01*
X122728619Y-140173135D01*
X122838283Y-140378302D01*
X122944001Y-140507120D01*
X122944000Y-141380103D01*
X122868820Y-141455283D01*
X122734102Y-141656903D01*
X122641307Y-141880931D01*
X122594000Y-142118757D01*
X122594000Y-142361243D01*
X122641307Y-142599069D01*
X122734102Y-142823097D01*
X122868820Y-143024717D01*
X123040283Y-143196180D01*
X123241903Y-143330898D01*
X123465931Y-143423693D01*
X123703757Y-143471000D01*
X123946243Y-143471000D01*
X124184069Y-143423693D01*
X124408097Y-143330898D01*
X124609717Y-143196180D01*
X124781180Y-143024717D01*
X124915898Y-142823097D01*
X125008693Y-142599069D01*
X125056000Y-142361243D01*
X125056000Y-142118757D01*
X125008693Y-141880931D01*
X124915898Y-141656903D01*
X124781180Y-141455283D01*
X124706000Y-141380103D01*
X124706000Y-140507120D01*
X124811717Y-140378303D01*
X124921381Y-140173136D01*
X124988912Y-139950516D01*
X125006000Y-139777016D01*
X125006000Y-138860985D01*
X124988912Y-138687485D01*
X124921381Y-138464864D01*
X124811717Y-138259697D01*
X124736463Y-138168000D01*
X125453538Y-138168000D01*
X125378284Y-138259697D01*
X125268619Y-138464864D01*
X125201088Y-138687484D01*
X125184000Y-138860984D01*
X125184000Y-139777015D01*
X125201088Y-139950515D01*
X125268619Y-140173135D01*
X125378283Y-140378302D01*
X125484001Y-140507120D01*
X125484000Y-141380103D01*
X125408820Y-141455283D01*
X125274102Y-141656903D01*
X125181307Y-141880931D01*
X125134000Y-142118757D01*
X125134000Y-142361243D01*
X125181307Y-142599069D01*
X125274102Y-142823097D01*
X125408820Y-143024717D01*
X125580283Y-143196180D01*
X125781903Y-143330898D01*
X126005931Y-143423693D01*
X126243757Y-143471000D01*
X126486243Y-143471000D01*
X126724069Y-143423693D01*
X126948097Y-143330898D01*
X127149717Y-143196180D01*
X127321180Y-143024717D01*
X127455898Y-142823097D01*
X127548693Y-142599069D01*
X127596000Y-142361243D01*
X127596000Y-142118757D01*
X127548693Y-141880931D01*
X127455898Y-141656903D01*
X127321180Y-141455283D01*
X127246000Y-141380103D01*
X127246000Y-140507120D01*
X127351717Y-140378303D01*
X127461381Y-140173136D01*
X127528912Y-139950516D01*
X127546000Y-139777016D01*
X127546000Y-138860985D01*
X127528912Y-138687485D01*
X127461381Y-138464864D01*
X127351717Y-138259697D01*
X127276463Y-138168000D01*
X127993538Y-138168000D01*
X127918284Y-138259697D01*
X127808619Y-138464864D01*
X127741088Y-138687484D01*
X127724000Y-138860984D01*
X127724000Y-139777015D01*
X127741088Y-139950515D01*
X127808619Y-140173135D01*
X127918283Y-140378302D01*
X128024000Y-140507120D01*
X128024001Y-141380102D01*
X127948820Y-141455283D01*
X127814102Y-141656903D01*
X127721307Y-141880931D01*
X127674000Y-142118757D01*
X127674000Y-142361243D01*
X127721307Y-142599069D01*
X127814102Y-142823097D01*
X127948820Y-143024717D01*
X128120283Y-143196180D01*
X128321903Y-143330898D01*
X128545931Y-143423693D01*
X128783757Y-143471000D01*
X129026243Y-143471000D01*
X129264069Y-143423693D01*
X129488097Y-143330898D01*
X129689717Y-143196180D01*
X129861180Y-143024717D01*
X129995898Y-142823097D01*
X130088693Y-142599069D01*
X130136000Y-142361243D01*
X130136000Y-142118757D01*
X130088693Y-141880931D01*
X129995898Y-141656903D01*
X129861180Y-141455283D01*
X129786000Y-141380103D01*
X129786000Y-140507120D01*
X129891717Y-140378303D01*
X130001381Y-140173136D01*
X130068912Y-139950516D01*
X130086000Y-139777016D01*
X130086000Y-138860985D01*
X130068912Y-138687485D01*
X130001381Y-138464864D01*
X129891717Y-138259697D01*
X129816463Y-138168000D01*
X130533538Y-138168000D01*
X130458284Y-138259697D01*
X130348619Y-138464864D01*
X130281088Y-138687484D01*
X130264000Y-138860984D01*
X130264000Y-139777015D01*
X130281088Y-139950515D01*
X130348619Y-140173135D01*
X130458283Y-140378302D01*
X130564001Y-140507120D01*
X130564000Y-141380103D01*
X130488820Y-141455283D01*
X130354102Y-141656903D01*
X130261307Y-141880931D01*
X130214000Y-142118757D01*
X130214000Y-142361243D01*
X130261307Y-142599069D01*
X130354102Y-142823097D01*
X130488820Y-143024717D01*
X130660283Y-143196180D01*
X130861903Y-143330898D01*
X131085931Y-143423693D01*
X131323757Y-143471000D01*
X131566243Y-143471000D01*
X131804069Y-143423693D01*
X132028097Y-143330898D01*
X132229717Y-143196180D01*
X132401180Y-143024717D01*
X132535898Y-142823097D01*
X132628693Y-142599069D01*
X132676000Y-142361243D01*
X132676000Y-142118757D01*
X132628693Y-141880931D01*
X132535898Y-141656903D01*
X132401180Y-141455283D01*
X132326000Y-141380103D01*
X132326000Y-140507120D01*
X132431717Y-140378303D01*
X132541381Y-140173136D01*
X132608912Y-139950516D01*
X132626000Y-139777016D01*
X132626000Y-138860985D01*
X132608912Y-138687485D01*
X132541381Y-138464864D01*
X132431717Y-138259697D01*
X132356463Y-138168000D01*
X133073538Y-138168000D01*
X132998284Y-138259697D01*
X132888619Y-138464864D01*
X132821088Y-138687484D01*
X132804000Y-138860984D01*
X132804000Y-139777015D01*
X132821088Y-139950515D01*
X132888619Y-140173135D01*
X132998283Y-140378302D01*
X133104001Y-140507120D01*
X133104000Y-141380103D01*
X133028820Y-141455283D01*
X132894102Y-141656903D01*
X132801307Y-141880931D01*
X132754000Y-142118757D01*
X132754000Y-142361243D01*
X132801307Y-142599069D01*
X132894102Y-142823097D01*
X133028820Y-143024717D01*
X133200283Y-143196180D01*
X133401903Y-143330898D01*
X133625931Y-143423693D01*
X133863757Y-143471000D01*
X134106243Y-143471000D01*
X134344069Y-143423693D01*
X134568097Y-143330898D01*
X134769717Y-143196180D01*
X134941180Y-143024717D01*
X135075898Y-142823097D01*
X135168693Y-142599069D01*
X135216000Y-142361243D01*
X135216000Y-142118757D01*
X135168693Y-141880931D01*
X135075898Y-141656903D01*
X134941180Y-141455283D01*
X134866000Y-141380103D01*
X134866000Y-140507120D01*
X134971717Y-140378303D01*
X135081381Y-140173136D01*
X135148912Y-139950516D01*
X135166000Y-139777016D01*
X135166000Y-138860985D01*
X135148912Y-138687485D01*
X135081381Y-138464864D01*
X134971717Y-138259697D01*
X134896463Y-138168000D01*
X135613538Y-138168000D01*
X135538284Y-138259697D01*
X135428619Y-138464864D01*
X135361088Y-138687484D01*
X135344000Y-138860984D01*
X135344000Y-139777015D01*
X135361088Y-139950515D01*
X135428619Y-140173135D01*
X135538283Y-140378302D01*
X135644001Y-140507120D01*
X135644000Y-141380103D01*
X135568820Y-141455283D01*
X135434102Y-141656903D01*
X135341307Y-141880931D01*
X135294000Y-142118757D01*
X135294000Y-142361243D01*
X135341307Y-142599069D01*
X135434102Y-142823097D01*
X135568820Y-143024717D01*
X135740283Y-143196180D01*
X135941903Y-143330898D01*
X136165931Y-143423693D01*
X136403757Y-143471000D01*
X136646243Y-143471000D01*
X136884069Y-143423693D01*
X137108097Y-143330898D01*
X137309717Y-143196180D01*
X137481180Y-143024717D01*
X137615898Y-142823097D01*
X137708693Y-142599069D01*
X137756000Y-142361243D01*
X137756000Y-142118757D01*
X137708693Y-141880931D01*
X137615898Y-141656903D01*
X137481180Y-141455283D01*
X137406000Y-141380103D01*
X137406000Y-140507120D01*
X137511717Y-140378303D01*
X137621381Y-140173136D01*
X137688912Y-139950516D01*
X137706000Y-139777016D01*
X137706000Y-138860985D01*
X137688912Y-138687485D01*
X137621381Y-138464864D01*
X137511717Y-138259697D01*
X137436463Y-138168000D01*
X138153538Y-138168000D01*
X138078284Y-138259697D01*
X137968619Y-138464864D01*
X137901088Y-138687484D01*
X137884000Y-138860984D01*
X137884000Y-139777015D01*
X137901088Y-139950515D01*
X137968619Y-140173135D01*
X138078283Y-140378302D01*
X138184001Y-140507120D01*
X138184000Y-141380103D01*
X138108820Y-141455283D01*
X137974102Y-141656903D01*
X137881307Y-141880931D01*
X137834000Y-142118757D01*
X137834000Y-142361243D01*
X137881307Y-142599069D01*
X137974102Y-142823097D01*
X138108820Y-143024717D01*
X138280283Y-143196180D01*
X138481903Y-143330898D01*
X138705931Y-143423693D01*
X138943757Y-143471000D01*
X139186243Y-143471000D01*
X139424069Y-143423693D01*
X139648097Y-143330898D01*
X139849717Y-143196180D01*
X140021180Y-143024717D01*
X140155898Y-142823097D01*
X140248693Y-142599069D01*
X140296000Y-142361243D01*
X140296000Y-142118757D01*
X140248693Y-141880931D01*
X140155898Y-141656903D01*
X140021180Y-141455283D01*
X139946000Y-141380103D01*
X139946000Y-140507120D01*
X140051717Y-140378303D01*
X140161381Y-140173136D01*
X140228912Y-139950516D01*
X140246000Y-139777016D01*
X140246000Y-138860985D01*
X140228912Y-138687485D01*
X140161381Y-138464864D01*
X140051717Y-138259697D01*
X139976463Y-138168000D01*
X140693538Y-138168000D01*
X140618284Y-138259697D01*
X140508619Y-138464864D01*
X140441088Y-138687484D01*
X140424000Y-138860984D01*
X140424000Y-139777015D01*
X140441088Y-139950515D01*
X140508619Y-140173135D01*
X140618283Y-140378302D01*
X140724001Y-140507120D01*
X140724000Y-141380103D01*
X140648820Y-141455283D01*
X140514102Y-141656903D01*
X140421307Y-141880931D01*
X140374000Y-142118757D01*
X140374000Y-142361243D01*
X140421307Y-142599069D01*
X140514102Y-142823097D01*
X140648820Y-143024717D01*
X140820283Y-143196180D01*
X141021903Y-143330898D01*
X141245931Y-143423693D01*
X141483757Y-143471000D01*
X141726243Y-143471000D01*
X141964069Y-143423693D01*
X142188097Y-143330898D01*
X142389717Y-143196180D01*
X142561180Y-143024717D01*
X142695898Y-142823097D01*
X142788693Y-142599069D01*
X142836000Y-142361243D01*
X142836000Y-142118757D01*
X142788693Y-141880931D01*
X142695898Y-141656903D01*
X142561180Y-141455283D01*
X142486000Y-141380103D01*
X142486000Y-140507120D01*
X142591717Y-140378303D01*
X142701381Y-140173136D01*
X142768912Y-139950516D01*
X142786000Y-139777016D01*
X142786000Y-138860985D01*
X142768912Y-138687485D01*
X142701381Y-138464864D01*
X142591717Y-138259697D01*
X142444134Y-138079866D01*
X142264303Y-137932283D01*
X142059136Y-137822619D01*
X141836516Y-137755088D01*
X141755784Y-137747137D01*
X144737362Y-134765560D01*
X144770975Y-134737975D01*
X144837231Y-134657241D01*
X144881068Y-134603826D01*
X144962875Y-134450775D01*
X144979952Y-134394479D01*
X145013252Y-134284706D01*
X145026000Y-134155273D01*
X145026000Y-134155271D01*
X145030262Y-134112001D01*
X145026000Y-134068731D01*
X145026000Y-128229790D01*
X145069689Y-128225487D01*
X145141508Y-128203701D01*
X145207696Y-128168322D01*
X145213000Y-128163969D01*
X145213001Y-138411768D01*
X145131717Y-138259697D01*
X144984134Y-138079866D01*
X144804303Y-137932283D01*
X144599136Y-137822619D01*
X144376516Y-137755088D01*
X144145000Y-137732286D01*
X143913485Y-137755088D01*
X143690865Y-137822619D01*
X143485698Y-137932283D01*
X143305867Y-138079866D01*
X143158284Y-138259697D01*
X143048619Y-138464864D01*
X142981088Y-138687484D01*
X142964000Y-138860984D01*
X142964000Y-139777015D01*
X142981088Y-139950515D01*
X143048619Y-140173135D01*
X143158283Y-140378302D01*
X143264001Y-140507120D01*
X143264000Y-141010210D01*
X143220311Y-141014513D01*
X143148492Y-141036299D01*
X143082304Y-141071678D01*
X143024289Y-141119289D01*
X142976678Y-141177304D01*
X142941299Y-141243492D01*
X142919513Y-141315311D01*
X142912157Y-141390000D01*
X142912157Y-143090000D01*
X142919513Y-143164689D01*
X142941299Y-143236508D01*
X142976678Y-143302696D01*
X143024289Y-143360711D01*
X143082304Y-143408322D01*
X143148492Y-143443701D01*
X143220311Y-143465487D01*
X143295000Y-143472843D01*
X144943839Y-143472843D01*
X144852961Y-143548023D01*
X144713593Y-143623380D01*
X144562235Y-143670233D01*
X144383674Y-143689000D01*
X95272305Y-143689000D01*
X95092315Y-143671352D01*
X94940645Y-143625559D01*
X94800748Y-143551175D01*
X94677967Y-143451038D01*
X94576977Y-143328961D01*
X94501620Y-143189593D01*
X94454767Y-143038235D01*
X94436000Y-142859674D01*
X94436000Y-142118757D01*
X94654000Y-142118757D01*
X94654000Y-142361243D01*
X94701307Y-142599069D01*
X94794102Y-142823097D01*
X94928820Y-143024717D01*
X95100283Y-143196180D01*
X95301903Y-143330898D01*
X95525931Y-143423693D01*
X95763757Y-143471000D01*
X96006243Y-143471000D01*
X96244069Y-143423693D01*
X96468097Y-143330898D01*
X96669717Y-143196180D01*
X96841180Y-143024717D01*
X96975898Y-142823097D01*
X97068693Y-142599069D01*
X97116000Y-142361243D01*
X97116000Y-142118757D01*
X97194000Y-142118757D01*
X97194000Y-142361243D01*
X97241307Y-142599069D01*
X97334102Y-142823097D01*
X97468820Y-143024717D01*
X97640283Y-143196180D01*
X97841903Y-143330898D01*
X98065931Y-143423693D01*
X98303757Y-143471000D01*
X98546243Y-143471000D01*
X98784069Y-143423693D01*
X99008097Y-143330898D01*
X99209717Y-143196180D01*
X99381180Y-143024717D01*
X99515898Y-142823097D01*
X99608693Y-142599069D01*
X99656000Y-142361243D01*
X99656000Y-142118757D01*
X99734000Y-142118757D01*
X99734000Y-142361243D01*
X99781307Y-142599069D01*
X99874102Y-142823097D01*
X100008820Y-143024717D01*
X100180283Y-143196180D01*
X100381903Y-143330898D01*
X100605931Y-143423693D01*
X100843757Y-143471000D01*
X101086243Y-143471000D01*
X101324069Y-143423693D01*
X101548097Y-143330898D01*
X101749717Y-143196180D01*
X101921180Y-143024717D01*
X102055898Y-142823097D01*
X102148693Y-142599069D01*
X102196000Y-142361243D01*
X102196000Y-142118757D01*
X102148693Y-141880931D01*
X102055898Y-141656903D01*
X101921180Y-141455283D01*
X101846000Y-141380103D01*
X101846000Y-140507120D01*
X101951717Y-140378303D01*
X102061381Y-140173136D01*
X102128912Y-139950516D01*
X102146000Y-139777016D01*
X102146000Y-138860985D01*
X102128912Y-138687485D01*
X102061381Y-138464864D01*
X101951717Y-138259697D01*
X101804134Y-138079866D01*
X101624303Y-137932283D01*
X101419136Y-137822619D01*
X101196516Y-137755088D01*
X100965000Y-137732286D01*
X100733485Y-137755088D01*
X100510865Y-137822619D01*
X100305698Y-137932283D01*
X100125867Y-138079866D01*
X99978284Y-138259697D01*
X99868619Y-138464864D01*
X99801088Y-138687484D01*
X99784000Y-138860984D01*
X99784000Y-139777015D01*
X99801088Y-139950515D01*
X99868619Y-140173135D01*
X99978283Y-140378302D01*
X100084001Y-140507120D01*
X100084000Y-141380103D01*
X100008820Y-141455283D01*
X99874102Y-141656903D01*
X99781307Y-141880931D01*
X99734000Y-142118757D01*
X99656000Y-142118757D01*
X99608693Y-141880931D01*
X99515898Y-141656903D01*
X99381180Y-141455283D01*
X99306000Y-141380103D01*
X99306000Y-140507120D01*
X99411717Y-140378303D01*
X99521381Y-140173136D01*
X99588912Y-139950516D01*
X99606000Y-139777016D01*
X99606000Y-138860985D01*
X99588912Y-138687485D01*
X99521381Y-138464864D01*
X99411717Y-138259697D01*
X99264134Y-138079866D01*
X99084303Y-137932283D01*
X98879136Y-137822619D01*
X98656516Y-137755088D01*
X98425000Y-137732286D01*
X98193485Y-137755088D01*
X97970865Y-137822619D01*
X97765698Y-137932283D01*
X97585867Y-138079866D01*
X97438284Y-138259697D01*
X97328619Y-138464864D01*
X97261088Y-138687484D01*
X97244000Y-138860984D01*
X97244000Y-139777015D01*
X97261088Y-139950515D01*
X97328619Y-140173135D01*
X97438283Y-140378302D01*
X97544001Y-140507120D01*
X97544000Y-141380103D01*
X97468820Y-141455283D01*
X97334102Y-141656903D01*
X97241307Y-141880931D01*
X97194000Y-142118757D01*
X97116000Y-142118757D01*
X97068693Y-141880931D01*
X96975898Y-141656903D01*
X96841180Y-141455283D01*
X96766000Y-141380103D01*
X96766000Y-140507120D01*
X96871717Y-140378303D01*
X96981381Y-140173136D01*
X97048912Y-139950516D01*
X97066000Y-139777016D01*
X97066000Y-138860985D01*
X97048912Y-138687485D01*
X96981381Y-138464864D01*
X96871717Y-138259697D01*
X96724134Y-138079866D01*
X96544303Y-137932283D01*
X96339136Y-137822619D01*
X96116516Y-137755088D01*
X95885000Y-137732286D01*
X95653485Y-137755088D01*
X95430865Y-137822619D01*
X95225698Y-137932283D01*
X95045867Y-138079866D01*
X94898284Y-138259697D01*
X94788619Y-138464864D01*
X94721088Y-138687484D01*
X94704000Y-138860984D01*
X94704000Y-139777015D01*
X94721088Y-139950515D01*
X94788619Y-140173135D01*
X94898283Y-140378302D01*
X95004001Y-140507120D01*
X95004000Y-141380103D01*
X94928820Y-141455283D01*
X94794102Y-141656903D01*
X94701307Y-141880931D01*
X94654000Y-142118757D01*
X94436000Y-142118757D01*
X94436000Y-123466305D01*
X94453648Y-123286315D01*
X94499441Y-123134645D01*
X94573824Y-122994749D01*
X94673962Y-122871968D01*
X94796041Y-122770975D01*
X94935407Y-122695620D01*
X95086765Y-122648767D01*
X95265326Y-122630000D01*
X95342221Y-122630000D01*
X95225698Y-122692283D01*
X95045867Y-122839866D01*
X94898284Y-123019697D01*
X94788619Y-123224864D01*
X94721088Y-123447484D01*
X94704000Y-123620984D01*
X94704000Y-124537015D01*
X94721088Y-124710515D01*
X94788619Y-124933135D01*
X94898283Y-125138302D01*
X95004000Y-125267120D01*
X95004001Y-126140102D01*
X94928820Y-126215283D01*
X94794102Y-126416903D01*
X94701307Y-126640931D01*
X94654000Y-126878757D01*
X94654000Y-127121243D01*
X94701307Y-127359069D01*
X94794102Y-127583097D01*
X94928820Y-127784717D01*
X95100283Y-127956180D01*
X95301903Y-128090898D01*
X95525931Y-128183693D01*
X95763757Y-128231000D01*
X96006243Y-128231000D01*
X96244069Y-128183693D01*
X96468097Y-128090898D01*
X96669717Y-127956180D01*
X96841180Y-127784717D01*
X96975898Y-127583097D01*
X97068693Y-127359069D01*
X97116000Y-127121243D01*
X97116000Y-126878757D01*
X97068693Y-126640931D01*
X96975898Y-126416903D01*
X96841180Y-126215283D01*
X96766000Y-126140103D01*
X96766000Y-125267120D01*
X96871717Y-125138303D01*
X96981381Y-124933136D01*
X97048912Y-124710516D01*
X97066000Y-124537016D01*
X97066000Y-123620985D01*
X97048912Y-123447485D01*
X96981381Y-123224864D01*
X96871717Y-123019697D01*
X96724134Y-122839866D01*
X96544303Y-122692283D01*
X96427780Y-122630000D01*
X97882221Y-122630000D01*
X97765698Y-122692283D01*
X97585867Y-122839866D01*
X97438284Y-123019697D01*
X97328619Y-123224864D01*
X97261088Y-123447484D01*
X97244000Y-123620984D01*
X97244000Y-124537015D01*
X97261088Y-124710515D01*
X97328619Y-124933135D01*
X97438283Y-125138302D01*
X97544000Y-125267120D01*
X97544001Y-126140102D01*
X97468820Y-126215283D01*
X97334102Y-126416903D01*
X97241307Y-126640931D01*
X97194000Y-126878757D01*
X97194000Y-127121243D01*
X97241307Y-127359069D01*
X97334102Y-127583097D01*
X97468820Y-127784717D01*
X97640283Y-127956180D01*
X97841903Y-128090898D01*
X98065931Y-128183693D01*
X98303757Y-128231000D01*
X98546243Y-128231000D01*
X98784069Y-128183693D01*
X99008097Y-128090898D01*
X99209717Y-127956180D01*
X99381180Y-127784717D01*
X99515898Y-127583097D01*
X99608693Y-127359069D01*
X99656000Y-127121243D01*
X99656000Y-126878757D01*
X99608693Y-126640931D01*
X99515898Y-126416903D01*
X99381180Y-126215283D01*
X99306000Y-126140103D01*
X99306000Y-125267120D01*
X99411717Y-125138303D01*
X99521381Y-124933136D01*
X99588912Y-124710516D01*
X99606000Y-124537016D01*
X99606000Y-123620985D01*
X99588912Y-123447485D01*
X99521381Y-123224864D01*
X99411717Y-123019697D01*
X99264134Y-122839866D01*
X99084303Y-122692283D01*
X98967780Y-122630000D01*
X100422221Y-122630000D01*
X100305698Y-122692283D01*
X100125867Y-122839866D01*
X99978284Y-123019697D01*
X99868619Y-123224864D01*
X99801088Y-123447484D01*
X99784000Y-123620984D01*
X99784000Y-124537015D01*
X99801088Y-124710515D01*
X99868619Y-124933135D01*
X99978283Y-125138302D01*
X100084000Y-125267120D01*
X100084001Y-126140102D01*
X100008820Y-126215283D01*
X99874102Y-126416903D01*
X99781307Y-126640931D01*
X99734000Y-126878757D01*
X99734000Y-127121243D01*
X99781307Y-127359069D01*
X99874102Y-127583097D01*
X100008820Y-127784717D01*
X100180283Y-127956180D01*
X100381903Y-128090898D01*
X100605931Y-128183693D01*
X100843757Y-128231000D01*
X101086243Y-128231000D01*
X101324069Y-128183693D01*
X101548097Y-128090898D01*
X101749717Y-127956180D01*
X101921180Y-127784717D01*
X102055898Y-127583097D01*
X102148693Y-127359069D01*
X102196000Y-127121243D01*
X102196000Y-126878757D01*
X102148693Y-126640931D01*
X102055898Y-126416903D01*
X101921180Y-126215283D01*
X101846000Y-126140103D01*
X101846000Y-125267120D01*
X101951717Y-125138303D01*
X102061381Y-124933136D01*
X102128912Y-124710516D01*
X102146000Y-124537016D01*
X102146000Y-123620985D01*
X102128912Y-123447485D01*
X102061381Y-123224864D01*
X101951717Y-123019697D01*
X101804134Y-122839866D01*
X101624303Y-122692283D01*
X101507780Y-122630000D01*
X102962221Y-122630000D01*
X102845698Y-122692283D01*
X102665867Y-122839866D01*
X102518284Y-123019697D01*
X102408619Y-123224864D01*
X102341088Y-123447484D01*
X102324000Y-123620984D01*
X102324000Y-124537015D01*
X102341088Y-124710515D01*
X102408619Y-124933135D01*
X102518283Y-125138302D01*
X102624000Y-125267120D01*
X102624001Y-126140102D01*
X102548820Y-126215283D01*
X102414102Y-126416903D01*
X102321307Y-126640931D01*
X102274000Y-126878757D01*
X102274000Y-127121243D01*
X102321307Y-127359069D01*
X102414102Y-127583097D01*
X102548820Y-127784717D01*
X102720283Y-127956180D01*
X102921903Y-128090898D01*
X103145931Y-128183693D01*
X103383757Y-128231000D01*
X103626243Y-128231000D01*
X103864069Y-128183693D01*
X104088097Y-128090898D01*
X104289717Y-127956180D01*
X104461180Y-127784717D01*
X104595898Y-127583097D01*
X104688693Y-127359069D01*
X104736000Y-127121243D01*
X104736000Y-126878757D01*
X104688693Y-126640931D01*
X104595898Y-126416903D01*
X104461180Y-126215283D01*
X104386000Y-126140103D01*
X104386000Y-125267120D01*
X104491717Y-125138303D01*
X104601381Y-124933136D01*
X104668912Y-124710516D01*
X104686000Y-124537016D01*
X104686000Y-123620985D01*
X104668912Y-123447485D01*
X104601381Y-123224864D01*
X104491717Y-123019697D01*
X104344134Y-122839866D01*
X104164303Y-122692283D01*
X104047780Y-122630000D01*
X105502221Y-122630000D01*
X105385698Y-122692283D01*
X105205867Y-122839866D01*
X105058284Y-123019697D01*
X104948619Y-123224864D01*
X104881088Y-123447484D01*
X104864000Y-123620984D01*
X104864000Y-124537015D01*
X104881088Y-124710515D01*
X104948619Y-124933135D01*
X105058283Y-125138302D01*
X105164000Y-125267120D01*
X105164001Y-126140102D01*
X105088820Y-126215283D01*
X104954102Y-126416903D01*
X104861307Y-126640931D01*
X104814000Y-126878757D01*
X104814000Y-127121243D01*
X104861307Y-127359069D01*
X104954102Y-127583097D01*
X105088820Y-127784717D01*
X105260283Y-127956180D01*
X105461903Y-128090898D01*
X105685931Y-128183693D01*
X105923757Y-128231000D01*
X106166243Y-128231000D01*
X106404069Y-128183693D01*
X106628097Y-128090898D01*
X106809001Y-127970022D01*
X106809001Y-128941504D01*
X106708358Y-129042147D01*
X106622887Y-129170064D01*
X106564013Y-129312197D01*
X106534000Y-129463084D01*
X106534000Y-129616928D01*
X106564013Y-129767815D01*
X106622887Y-129909948D01*
X106708358Y-130037865D01*
X106817141Y-130146648D01*
X106945058Y-130232119D01*
X107087191Y-130290993D01*
X107238078Y-130321006D01*
X107391922Y-130321006D01*
X107542809Y-130290993D01*
X107684942Y-130232119D01*
X107812859Y-130146648D01*
X107921642Y-130037865D01*
X108007113Y-129909948D01*
X108065987Y-129767815D01*
X108096000Y-129616928D01*
X108096000Y-129463084D01*
X108065987Y-129312197D01*
X108007113Y-129170064D01*
X107921642Y-129042147D01*
X107821000Y-128941505D01*
X107821000Y-127970023D01*
X108001903Y-128090898D01*
X108225931Y-128183693D01*
X108463757Y-128231000D01*
X108706243Y-128231000D01*
X108944069Y-128183693D01*
X109168097Y-128090898D01*
X109349001Y-127970022D01*
X109349000Y-134156408D01*
X107796399Y-135709010D01*
X105918000Y-135709010D01*
X105918000Y-128905000D01*
X105915560Y-128880224D01*
X105908333Y-128856399D01*
X105896597Y-128834443D01*
X105880803Y-128815197D01*
X105861557Y-128799403D01*
X105839601Y-128787667D01*
X105815776Y-128780440D01*
X105791000Y-128778000D01*
X99695000Y-128778000D01*
X99670224Y-128780440D01*
X99646399Y-128787667D01*
X99624443Y-128799403D01*
X99605197Y-128815197D01*
X99589403Y-128834443D01*
X99577667Y-128856399D01*
X99570440Y-128880224D01*
X99568000Y-128905000D01*
X99568000Y-135658226D01*
X99205558Y-135295785D01*
X99189709Y-135276473D01*
X99112661Y-135213241D01*
X99024757Y-135166255D01*
X98929375Y-135137322D01*
X98855036Y-135130000D01*
X98855028Y-135130000D01*
X98830182Y-135127553D01*
X98805336Y-135130000D01*
X96483501Y-135130000D01*
X96382859Y-135029358D01*
X96254942Y-134943887D01*
X96112809Y-134885013D01*
X95961922Y-134855000D01*
X95808078Y-134855000D01*
X95657191Y-134885013D01*
X95515058Y-134943887D01*
X95387141Y-135029358D01*
X95278358Y-135138141D01*
X95192887Y-135266058D01*
X95134013Y-135408191D01*
X95104000Y-135559078D01*
X95104000Y-135712922D01*
X95134013Y-135863809D01*
X95192887Y-136005942D01*
X95278358Y-136133859D01*
X95387141Y-136242642D01*
X95515058Y-136328113D01*
X95657191Y-136386987D01*
X95808078Y-136417000D01*
X95961922Y-136417000D01*
X96112809Y-136386987D01*
X96254942Y-136328113D01*
X96382859Y-136242642D01*
X96483501Y-136142000D01*
X97741612Y-136142000D01*
X97732887Y-136155058D01*
X97674013Y-136297191D01*
X97644000Y-136448078D01*
X97644000Y-136601922D01*
X97674013Y-136752809D01*
X97732887Y-136894942D01*
X97818358Y-137022859D01*
X97927141Y-137131642D01*
X98055058Y-137217113D01*
X98197191Y-137275987D01*
X98348078Y-137306000D01*
X98501922Y-137306000D01*
X98652809Y-137275987D01*
X98794942Y-137217113D01*
X98863924Y-137171021D01*
X101458294Y-137171021D01*
X101430031Y-137313109D01*
X101430031Y-137466953D01*
X101460044Y-137617840D01*
X101518918Y-137759973D01*
X101604389Y-137887890D01*
X101713172Y-137996673D01*
X101841089Y-138082144D01*
X101983222Y-138141018D01*
X102134109Y-138171031D01*
X102287953Y-138171031D01*
X102438840Y-138141018D01*
X102580973Y-138082144D01*
X102708890Y-137996673D01*
X102809532Y-137896031D01*
X102913521Y-137896031D01*
X102845698Y-137932283D01*
X102665867Y-138079866D01*
X102518284Y-138259697D01*
X102408619Y-138464864D01*
X102341088Y-138687484D01*
X102324000Y-138860984D01*
X102324000Y-139777015D01*
X102341088Y-139950515D01*
X102408619Y-140173135D01*
X102518283Y-140378302D01*
X102624001Y-140507120D01*
X102624000Y-141380103D01*
X102548820Y-141455283D01*
X102414102Y-141656903D01*
X102321307Y-141880931D01*
X102274000Y-142118757D01*
X102274000Y-142361243D01*
X102321307Y-142599069D01*
X102414102Y-142823097D01*
X102548820Y-143024717D01*
X102720283Y-143196180D01*
X102921903Y-143330898D01*
X103145931Y-143423693D01*
X103383757Y-143471000D01*
X103626243Y-143471000D01*
X103864069Y-143423693D01*
X104088097Y-143330898D01*
X104289717Y-143196180D01*
X104461180Y-143024717D01*
X104595898Y-142823097D01*
X104688693Y-142599069D01*
X104736000Y-142361243D01*
X104736000Y-142118757D01*
X104688693Y-141880931D01*
X104595898Y-141656903D01*
X104461180Y-141455283D01*
X104386000Y-141380103D01*
X104386000Y-140507120D01*
X104491717Y-140378303D01*
X104601381Y-140173136D01*
X104668912Y-139950516D01*
X104686000Y-139777016D01*
X104686000Y-138860985D01*
X104668912Y-138687485D01*
X104601381Y-138464864D01*
X104491717Y-138259697D01*
X104344134Y-138079866D01*
X104164303Y-137932283D01*
X104096480Y-137896031D01*
X105453521Y-137896031D01*
X105385698Y-137932283D01*
X105205867Y-138079866D01*
X105058284Y-138259697D01*
X104948619Y-138464864D01*
X104881088Y-138687484D01*
X104864000Y-138860984D01*
X104864000Y-139777015D01*
X104881088Y-139950515D01*
X104948619Y-140173135D01*
X105058283Y-140378302D01*
X105164001Y-140507120D01*
X105164000Y-141380103D01*
X105088820Y-141455283D01*
X104954102Y-141656903D01*
X104861307Y-141880931D01*
X104814000Y-142118757D01*
X104814000Y-142361243D01*
X104861307Y-142599069D01*
X104954102Y-142823097D01*
X105088820Y-143024717D01*
X105260283Y-143196180D01*
X105461903Y-143330898D01*
X105685931Y-143423693D01*
X105923757Y-143471000D01*
X106166243Y-143471000D01*
X106404069Y-143423693D01*
X106628097Y-143330898D01*
X106829717Y-143196180D01*
X107001180Y-143024717D01*
X107135898Y-142823097D01*
X107228693Y-142599069D01*
X107276000Y-142361243D01*
X107276000Y-142118757D01*
X107228693Y-141880931D01*
X107135898Y-141656903D01*
X107001180Y-141455283D01*
X106926000Y-141380103D01*
X106926000Y-140507120D01*
X107031717Y-140378303D01*
X107141381Y-140173136D01*
X107208912Y-139950516D01*
X107226000Y-139777016D01*
X107226000Y-138860985D01*
X107208912Y-138687485D01*
X107141381Y-138464864D01*
X107031717Y-138259697D01*
X106884134Y-138079866D01*
X106704303Y-137932283D01*
X106636480Y-137896031D01*
X107993521Y-137896031D01*
X107925698Y-137932283D01*
X107745867Y-138079866D01*
X107598284Y-138259697D01*
X107488619Y-138464864D01*
X107421088Y-138687484D01*
X107404000Y-138860984D01*
X107404000Y-139777015D01*
X107421088Y-139950515D01*
X107488619Y-140173135D01*
X107598283Y-140378302D01*
X107704001Y-140507120D01*
X107704000Y-141380103D01*
X107628820Y-141455283D01*
X107494102Y-141656903D01*
X107401307Y-141880931D01*
X107354000Y-142118757D01*
X107354000Y-142361243D01*
X107401307Y-142599069D01*
X107494102Y-142823097D01*
X107628820Y-143024717D01*
X107800283Y-143196180D01*
X108001903Y-143330898D01*
X108225931Y-143423693D01*
X108463757Y-143471000D01*
X108706243Y-143471000D01*
X108944069Y-143423693D01*
X109168097Y-143330898D01*
X109369717Y-143196180D01*
X109541180Y-143024717D01*
X109675898Y-142823097D01*
X109768693Y-142599069D01*
X109816000Y-142361243D01*
X109816000Y-142118757D01*
X109768693Y-141880931D01*
X109675898Y-141656903D01*
X109541180Y-141455283D01*
X109466000Y-141380103D01*
X109466000Y-140507120D01*
X109571717Y-140378303D01*
X109681381Y-140173136D01*
X109748912Y-139950516D01*
X109766000Y-139777016D01*
X109766000Y-138860985D01*
X109748912Y-138687485D01*
X109681381Y-138464864D01*
X109571717Y-138259697D01*
X109424134Y-138079866D01*
X109244303Y-137932283D01*
X109176480Y-137896031D01*
X110533521Y-137896031D01*
X110465698Y-137932283D01*
X110285867Y-138079866D01*
X110138284Y-138259697D01*
X110028619Y-138464864D01*
X109961088Y-138687484D01*
X109944000Y-138860984D01*
X109944000Y-139777015D01*
X109961088Y-139950515D01*
X110028619Y-140173135D01*
X110138283Y-140378302D01*
X110244001Y-140507120D01*
X110244000Y-141380103D01*
X110168820Y-141455283D01*
X110034102Y-141656903D01*
X109941307Y-141880931D01*
X109894000Y-142118757D01*
X109894000Y-142361243D01*
X109941307Y-142599069D01*
X110034102Y-142823097D01*
X110168820Y-143024717D01*
X110340283Y-143196180D01*
X110541903Y-143330898D01*
X110765931Y-143423693D01*
X111003757Y-143471000D01*
X111246243Y-143471000D01*
X111484069Y-143423693D01*
X111708097Y-143330898D01*
X111909717Y-143196180D01*
X112081180Y-143024717D01*
X112215898Y-142823097D01*
X112308693Y-142599069D01*
X112356000Y-142361243D01*
X112356000Y-142118757D01*
X112434000Y-142118757D01*
X112434000Y-142361243D01*
X112481307Y-142599069D01*
X112574102Y-142823097D01*
X112708820Y-143024717D01*
X112880283Y-143196180D01*
X113081903Y-143330898D01*
X113305931Y-143423693D01*
X113543757Y-143471000D01*
X113786243Y-143471000D01*
X114024069Y-143423693D01*
X114248097Y-143330898D01*
X114449717Y-143196180D01*
X114621180Y-143024717D01*
X114755898Y-142823097D01*
X114848693Y-142599069D01*
X114896000Y-142361243D01*
X114896000Y-142118757D01*
X114974000Y-142118757D01*
X114974000Y-142361243D01*
X115021307Y-142599069D01*
X115114102Y-142823097D01*
X115248820Y-143024717D01*
X115420283Y-143196180D01*
X115621903Y-143330898D01*
X115845931Y-143423693D01*
X116083757Y-143471000D01*
X116326243Y-143471000D01*
X116564069Y-143423693D01*
X116788097Y-143330898D01*
X116989717Y-143196180D01*
X117161180Y-143024717D01*
X117295898Y-142823097D01*
X117388693Y-142599069D01*
X117436000Y-142361243D01*
X117436000Y-142118757D01*
X117388693Y-141880931D01*
X117295898Y-141656903D01*
X117161180Y-141455283D01*
X117086000Y-141380103D01*
X117086000Y-140507120D01*
X117191717Y-140378303D01*
X117301381Y-140173136D01*
X117368912Y-139950516D01*
X117386000Y-139777016D01*
X117386000Y-138860985D01*
X117368912Y-138687485D01*
X117301381Y-138464864D01*
X117191717Y-138259697D01*
X117044134Y-138079866D01*
X116864303Y-137932283D01*
X116659136Y-137822619D01*
X116436516Y-137755088D01*
X116205000Y-137732286D01*
X115973485Y-137755088D01*
X115750865Y-137822619D01*
X115545698Y-137932283D01*
X115365867Y-138079866D01*
X115218284Y-138259697D01*
X115108619Y-138464864D01*
X115041088Y-138687484D01*
X115024000Y-138860984D01*
X115024000Y-139777015D01*
X115041088Y-139950515D01*
X115108619Y-140173135D01*
X115218283Y-140378302D01*
X115324001Y-140507120D01*
X115324000Y-141380103D01*
X115248820Y-141455283D01*
X115114102Y-141656903D01*
X115021307Y-141880931D01*
X114974000Y-142118757D01*
X114896000Y-142118757D01*
X114848693Y-141880931D01*
X114755898Y-141656903D01*
X114621180Y-141455283D01*
X114546000Y-141380103D01*
X114546000Y-140507120D01*
X114651717Y-140378303D01*
X114761381Y-140173136D01*
X114828912Y-139950516D01*
X114846000Y-139777016D01*
X114846000Y-138860985D01*
X114828912Y-138687485D01*
X114761381Y-138464864D01*
X114651717Y-138259697D01*
X114504134Y-138079866D01*
X114324303Y-137932283D01*
X114119136Y-137822619D01*
X113896516Y-137755088D01*
X113665000Y-137732286D01*
X113433485Y-137755088D01*
X113210865Y-137822619D01*
X113005698Y-137932283D01*
X112825867Y-138079866D01*
X112678284Y-138259697D01*
X112568619Y-138464864D01*
X112501088Y-138687484D01*
X112484000Y-138860984D01*
X112484000Y-139777015D01*
X112501088Y-139950515D01*
X112568619Y-140173135D01*
X112678283Y-140378302D01*
X112784001Y-140507120D01*
X112784000Y-141380103D01*
X112708820Y-141455283D01*
X112574102Y-141656903D01*
X112481307Y-141880931D01*
X112434000Y-142118757D01*
X112356000Y-142118757D01*
X112308693Y-141880931D01*
X112215898Y-141656903D01*
X112081180Y-141455283D01*
X112006000Y-141380103D01*
X112006000Y-140507120D01*
X112111717Y-140378303D01*
X112221381Y-140173136D01*
X112288912Y-139950516D01*
X112306000Y-139777016D01*
X112306000Y-138860985D01*
X112288912Y-138687485D01*
X112221381Y-138464864D01*
X112111717Y-138259697D01*
X111964134Y-138079866D01*
X111784303Y-137932283D01*
X111579136Y-137822619D01*
X111356516Y-137755088D01*
X111141001Y-137733862D01*
X111143969Y-137730246D01*
X115275220Y-133598996D01*
X115294527Y-133583151D01*
X115357759Y-133506103D01*
X115404745Y-133418199D01*
X115433678Y-133322817D01*
X115433740Y-133322193D01*
X115439396Y-133264759D01*
X115441000Y-133248478D01*
X115441000Y-133248471D01*
X115443447Y-133223625D01*
X115441000Y-133198779D01*
X115441000Y-127959568D01*
X115588039Y-128065239D01*
X115807712Y-128165134D01*
X115888020Y-128189489D01*
X116078000Y-128128627D01*
X116078000Y-127127000D01*
X116058000Y-127127000D01*
X116058000Y-126873000D01*
X116078000Y-126873000D01*
X116078000Y-125871373D01*
X115888020Y-125810511D01*
X115807712Y-125834866D01*
X115588039Y-125934761D01*
X115441000Y-126040432D01*
X115441000Y-125385518D01*
X115459709Y-125403895D01*
X115654468Y-125531522D01*
X115870383Y-125618702D01*
X115895886Y-125618829D01*
X116078000Y-125557297D01*
X116078000Y-124206000D01*
X116058000Y-124206000D01*
X116058000Y-123952000D01*
X116078000Y-123952000D01*
X116078000Y-122600703D01*
X115914224Y-122545367D01*
X116855220Y-121604372D01*
X116874527Y-121588527D01*
X116937759Y-121511479D01*
X116984745Y-121423575D01*
X117009000Y-121343614D01*
X117009000Y-122811773D01*
X116950291Y-122754105D01*
X116755532Y-122626478D01*
X116539617Y-122539298D01*
X116514114Y-122539171D01*
X116332000Y-122600703D01*
X116332000Y-123952000D01*
X116352000Y-123952000D01*
X116352000Y-124206000D01*
X116332000Y-124206000D01*
X116332000Y-125557297D01*
X116514114Y-125618829D01*
X116539617Y-125618702D01*
X116755532Y-125531522D01*
X116950291Y-125403895D01*
X117009000Y-125346227D01*
X117009000Y-126069179D01*
X116821961Y-125934761D01*
X116602288Y-125834866D01*
X116521980Y-125810511D01*
X116332000Y-125871373D01*
X116332000Y-126873000D01*
X116352000Y-126873000D01*
X116352000Y-127127000D01*
X116332000Y-127127000D01*
X116332000Y-128128627D01*
X116521980Y-128189489D01*
X116602288Y-128165134D01*
X116821961Y-128065239D01*
X117009001Y-127930821D01*
X117009001Y-132973417D01*
X114492409Y-135490010D01*
X114350078Y-135490010D01*
X114199191Y-135520023D01*
X114057058Y-135578897D01*
X113929141Y-135664368D01*
X113820358Y-135773151D01*
X113734887Y-135901068D01*
X113676013Y-136043201D01*
X113646000Y-136194088D01*
X113646000Y-136347932D01*
X113676013Y-136498819D01*
X113734887Y-136640952D01*
X113820358Y-136768869D01*
X113929141Y-136877652D01*
X114057058Y-136963123D01*
X114199191Y-137021997D01*
X114350078Y-137052010D01*
X114503922Y-137052010D01*
X114654809Y-137021997D01*
X114796942Y-136963123D01*
X114924859Y-136877652D01*
X115033642Y-136768869D01*
X115119113Y-136640952D01*
X115177987Y-136498819D01*
X115208000Y-136347932D01*
X115208000Y-136205601D01*
X117855220Y-133558382D01*
X117874527Y-133542537D01*
X117937759Y-133465489D01*
X117984745Y-133377585D01*
X118013678Y-133282203D01*
X118021000Y-133207864D01*
X118021000Y-133207857D01*
X118023447Y-133183011D01*
X118021000Y-133158165D01*
X118021000Y-127996750D01*
X118161903Y-128090898D01*
X118385931Y-128183693D01*
X118623757Y-128231000D01*
X118866243Y-128231000D01*
X119104069Y-128183693D01*
X119328097Y-128090898D01*
X119509001Y-127970022D01*
X119509001Y-132632407D01*
X118683409Y-133458000D01*
X118541078Y-133458000D01*
X118390191Y-133488013D01*
X118248058Y-133546887D01*
X118120141Y-133632358D01*
X118011358Y-133741141D01*
X117925887Y-133869058D01*
X117867013Y-134011191D01*
X117837000Y-134162078D01*
X117837000Y-134315922D01*
X117867013Y-134466809D01*
X117925887Y-134608942D01*
X118011358Y-134736859D01*
X118120141Y-134845642D01*
X118248058Y-134931113D01*
X118390191Y-134989987D01*
X118541078Y-135020000D01*
X118694922Y-135020000D01*
X118845809Y-134989987D01*
X118987942Y-134931113D01*
X119115859Y-134845642D01*
X119224642Y-134736859D01*
X119310113Y-134608942D01*
X119368987Y-134466809D01*
X119399000Y-134315922D01*
X119399000Y-134173591D01*
X120355220Y-133217372D01*
X120374527Y-133201527D01*
X120437759Y-133124479D01*
X120484745Y-133036575D01*
X120513678Y-132941193D01*
X120521000Y-132866854D01*
X120521000Y-132866847D01*
X120523447Y-132842001D01*
X120521000Y-132817155D01*
X120521000Y-127970023D01*
X120701903Y-128090898D01*
X120925931Y-128183693D01*
X121163757Y-128231000D01*
X121406243Y-128231000D01*
X121644069Y-128183693D01*
X121868097Y-128090898D01*
X122049001Y-127970022D01*
X122049001Y-134087144D01*
X122046553Y-134112000D01*
X122056322Y-134211192D01*
X122085255Y-134306574D01*
X122085256Y-134306575D01*
X122132242Y-134394479D01*
X122195474Y-134471527D01*
X122214780Y-134487371D01*
X123044000Y-135316592D01*
X123044000Y-135458922D01*
X123074013Y-135609809D01*
X123132887Y-135751942D01*
X123218358Y-135879859D01*
X123327141Y-135988642D01*
X123455058Y-136074113D01*
X123597191Y-136132987D01*
X123748078Y-136163000D01*
X123901922Y-136163000D01*
X124052809Y-136132987D01*
X124194942Y-136074113D01*
X124322859Y-135988642D01*
X124431642Y-135879859D01*
X124517113Y-135751942D01*
X124575987Y-135609809D01*
X124606000Y-135458922D01*
X124606000Y-135305078D01*
X124575987Y-135154191D01*
X124517113Y-135012058D01*
X124431642Y-134884141D01*
X124322859Y-134775358D01*
X124194942Y-134689887D01*
X124052809Y-134631013D01*
X123901922Y-134601000D01*
X123759592Y-134601000D01*
X123061000Y-133902409D01*
X123061000Y-127970023D01*
X123241903Y-128090898D01*
X123465931Y-128183693D01*
X123703757Y-128231000D01*
X123946243Y-128231000D01*
X124184069Y-128183693D01*
X124408097Y-128090898D01*
X124589000Y-127970022D01*
X124589001Y-134087144D01*
X124586553Y-134112000D01*
X124596322Y-134211192D01*
X124625255Y-134306574D01*
X124625256Y-134306575D01*
X124672242Y-134394479D01*
X124735474Y-134471527D01*
X124754780Y-134487371D01*
X125584000Y-135316592D01*
X125584000Y-135458922D01*
X125614013Y-135609809D01*
X125672887Y-135751942D01*
X125758358Y-135879859D01*
X125867141Y-135988642D01*
X125995058Y-136074113D01*
X126137191Y-136132987D01*
X126288078Y-136163000D01*
X126441922Y-136163000D01*
X126592809Y-136132987D01*
X126734942Y-136074113D01*
X126862859Y-135988642D01*
X126971642Y-135879859D01*
X127057113Y-135751942D01*
X127115987Y-135609809D01*
X127146000Y-135458922D01*
X127146000Y-135305078D01*
X127115987Y-135154191D01*
X127057113Y-135012058D01*
X126971642Y-134884141D01*
X126862859Y-134775358D01*
X126734942Y-134689887D01*
X126592809Y-134631013D01*
X126441922Y-134601000D01*
X126299592Y-134601000D01*
X125601000Y-133902409D01*
X125601000Y-127970023D01*
X125781903Y-128090898D01*
X126005931Y-128183693D01*
X126243757Y-128231000D01*
X126486243Y-128231000D01*
X126724069Y-128183693D01*
X126948097Y-128090898D01*
X127129000Y-127970022D01*
X127129001Y-134087140D01*
X127126553Y-134111996D01*
X127136322Y-134211188D01*
X127165255Y-134306570D01*
X127165258Y-134306575D01*
X127212242Y-134394475D01*
X127275474Y-134471523D01*
X127294780Y-134487367D01*
X128124002Y-135316590D01*
X128124002Y-135458920D01*
X128154015Y-135609807D01*
X128212889Y-135751940D01*
X128298360Y-135879857D01*
X128407143Y-135988640D01*
X128535060Y-136074111D01*
X128677193Y-136132985D01*
X128828080Y-136162998D01*
X128981924Y-136162998D01*
X129132811Y-136132985D01*
X129274944Y-136074111D01*
X129402861Y-135988640D01*
X129511644Y-135879857D01*
X129597115Y-135751940D01*
X129655989Y-135609807D01*
X129686002Y-135458920D01*
X129686002Y-135305076D01*
X129655989Y-135154189D01*
X129597115Y-135012056D01*
X129511644Y-134884139D01*
X129402861Y-134775356D01*
X129274944Y-134689885D01*
X129132811Y-134631011D01*
X128981924Y-134600998D01*
X128839594Y-134600998D01*
X128141000Y-133902405D01*
X128141000Y-127970023D01*
X128321903Y-128090898D01*
X128545931Y-128183693D01*
X128783757Y-128231000D01*
X129026243Y-128231000D01*
X129264069Y-128183693D01*
X129488097Y-128090898D01*
X129669001Y-127970022D01*
X129669001Y-128880144D01*
X129666553Y-128905000D01*
X129676322Y-129004192D01*
X129705255Y-129099574D01*
X129723016Y-129132801D01*
X129752242Y-129187479D01*
X129815474Y-129264527D01*
X129834781Y-129280372D01*
X135744000Y-135189592D01*
X135744000Y-135331922D01*
X135774013Y-135482809D01*
X135832887Y-135624942D01*
X135918358Y-135752859D01*
X136027141Y-135861642D01*
X136155058Y-135947113D01*
X136297191Y-136005987D01*
X136448078Y-136036000D01*
X136601922Y-136036000D01*
X136752809Y-136005987D01*
X136894942Y-135947113D01*
X137022859Y-135861642D01*
X137131642Y-135752859D01*
X137217113Y-135624942D01*
X137275987Y-135482809D01*
X137306000Y-135331922D01*
X137306000Y-135178078D01*
X137275987Y-135027191D01*
X137217113Y-134885058D01*
X137131642Y-134757141D01*
X137022859Y-134648358D01*
X136894942Y-134562887D01*
X136752809Y-134504013D01*
X136601922Y-134474000D01*
X136459592Y-134474000D01*
X130681000Y-128695409D01*
X130681000Y-127970023D01*
X130861903Y-128090898D01*
X131085931Y-128183693D01*
X131323757Y-128231000D01*
X131566243Y-128231000D01*
X131804069Y-128183693D01*
X132028097Y-128090898D01*
X132208999Y-127970023D01*
X132208999Y-128306490D01*
X132108356Y-128407133D01*
X132022885Y-128535050D01*
X131964011Y-128677183D01*
X131933998Y-128828070D01*
X131933998Y-128981914D01*
X131964011Y-129132801D01*
X132022885Y-129274934D01*
X132108356Y-129402851D01*
X132217139Y-129511634D01*
X132345056Y-129597105D01*
X132487189Y-129655979D01*
X132638076Y-129685992D01*
X132791920Y-129685992D01*
X132942807Y-129655979D01*
X133084940Y-129597105D01*
X133212857Y-129511634D01*
X133321640Y-129402851D01*
X133407111Y-129274934D01*
X133465985Y-129132801D01*
X133495998Y-128981914D01*
X133495998Y-128828070D01*
X133465985Y-128677183D01*
X133407111Y-128535050D01*
X133321640Y-128407133D01*
X133220998Y-128306491D01*
X133220998Y-127970021D01*
X133401903Y-128090898D01*
X133625931Y-128183693D01*
X133863757Y-128231000D01*
X134106243Y-128231000D01*
X134344069Y-128183693D01*
X134568097Y-128090898D01*
X134749001Y-127970022D01*
X134749001Y-131420144D01*
X134746553Y-131445000D01*
X134756322Y-131544192D01*
X134785255Y-131639574D01*
X134785256Y-131639575D01*
X134832242Y-131727479D01*
X134895474Y-131804527D01*
X134914781Y-131820372D01*
X138283996Y-135189588D01*
X138283996Y-135331918D01*
X138314009Y-135482805D01*
X138372883Y-135624938D01*
X138458354Y-135752855D01*
X138567137Y-135861638D01*
X138695054Y-135947109D01*
X138837187Y-136005983D01*
X138988074Y-136035996D01*
X139141918Y-136035996D01*
X139292805Y-136005983D01*
X139434938Y-135947109D01*
X139562855Y-135861638D01*
X139671638Y-135752855D01*
X139757109Y-135624938D01*
X139815983Y-135482805D01*
X139845996Y-135331918D01*
X139845996Y-135178074D01*
X139815983Y-135027187D01*
X139757109Y-134885054D01*
X139671638Y-134757137D01*
X139562855Y-134648354D01*
X139434938Y-134562883D01*
X139292805Y-134504009D01*
X139141918Y-134473996D01*
X138999588Y-134473996D01*
X135761000Y-131235409D01*
X135761000Y-127970023D01*
X135941903Y-128090898D01*
X136165931Y-128183693D01*
X136403757Y-128231000D01*
X136646243Y-128231000D01*
X136884069Y-128183693D01*
X137108097Y-128090898D01*
X137309717Y-127956180D01*
X137481180Y-127784717D01*
X137615898Y-127583097D01*
X137708693Y-127359069D01*
X137756000Y-127121243D01*
X137756000Y-126878757D01*
X137834000Y-126878757D01*
X137834000Y-127121243D01*
X137881307Y-127359069D01*
X137974102Y-127583097D01*
X138108820Y-127784717D01*
X138280283Y-127956180D01*
X138481903Y-128090898D01*
X138705931Y-128183693D01*
X138943757Y-128231000D01*
X139186243Y-128231000D01*
X139424069Y-128183693D01*
X139648097Y-128090898D01*
X139849717Y-127956180D01*
X140021180Y-127784717D01*
X140155898Y-127583097D01*
X140248693Y-127359069D01*
X140296000Y-127121243D01*
X140296000Y-126878757D01*
X140374000Y-126878757D01*
X140374000Y-127121243D01*
X140421307Y-127359069D01*
X140514102Y-127583097D01*
X140648820Y-127784717D01*
X140820283Y-127956180D01*
X141021903Y-128090898D01*
X141245931Y-128183693D01*
X141483757Y-128231000D01*
X141726243Y-128231000D01*
X141964069Y-128183693D01*
X142188097Y-128090898D01*
X142389717Y-127956180D01*
X142561180Y-127784717D01*
X142695898Y-127583097D01*
X142788693Y-127359069D01*
X142836000Y-127121243D01*
X142836000Y-126878757D01*
X142788693Y-126640931D01*
X142695898Y-126416903D01*
X142561180Y-126215283D01*
X142486000Y-126140103D01*
X142486000Y-125267120D01*
X142591717Y-125138303D01*
X142701381Y-124933136D01*
X142768912Y-124710516D01*
X142786000Y-124537016D01*
X142786000Y-123620985D01*
X142768912Y-123447485D01*
X142701381Y-123224864D01*
X142591717Y-123019697D01*
X142444134Y-122839866D01*
X142264303Y-122692283D01*
X142059136Y-122582619D01*
X141836516Y-122515088D01*
X141605000Y-122492286D01*
X141373485Y-122515088D01*
X141150865Y-122582619D01*
X140945698Y-122692283D01*
X140765867Y-122839866D01*
X140618284Y-123019697D01*
X140508619Y-123224864D01*
X140441088Y-123447484D01*
X140424000Y-123620984D01*
X140424000Y-124537015D01*
X140441088Y-124710515D01*
X140508619Y-124933135D01*
X140618283Y-125138302D01*
X140724000Y-125267120D01*
X140724001Y-126140102D01*
X140648820Y-126215283D01*
X140514102Y-126416903D01*
X140421307Y-126640931D01*
X140374000Y-126878757D01*
X140296000Y-126878757D01*
X140248693Y-126640931D01*
X140155898Y-126416903D01*
X140021180Y-126215283D01*
X139946000Y-126140103D01*
X139946000Y-125267120D01*
X140051717Y-125138303D01*
X140161381Y-124933136D01*
X140228912Y-124710516D01*
X140246000Y-124537016D01*
X140246000Y-123620985D01*
X140228912Y-123447485D01*
X140161381Y-123224864D01*
X140051717Y-123019697D01*
X139904134Y-122839866D01*
X139724303Y-122692283D01*
X139519136Y-122582619D01*
X139296516Y-122515088D01*
X139065000Y-122492286D01*
X138833485Y-122515088D01*
X138610865Y-122582619D01*
X138405698Y-122692283D01*
X138225867Y-122839866D01*
X138078284Y-123019697D01*
X137968619Y-123224864D01*
X137901088Y-123447484D01*
X137884000Y-123620984D01*
X137884000Y-124537015D01*
X137901088Y-124710515D01*
X137968619Y-124933135D01*
X138078283Y-125138302D01*
X138184000Y-125267120D01*
X138184001Y-126140102D01*
X138108820Y-126215283D01*
X137974102Y-126416903D01*
X137881307Y-126640931D01*
X137834000Y-126878757D01*
X137756000Y-126878757D01*
X137708693Y-126640931D01*
X137615898Y-126416903D01*
X137481180Y-126215283D01*
X137406000Y-126140103D01*
X137406000Y-125267120D01*
X137511717Y-125138303D01*
X137621381Y-124933136D01*
X137688912Y-124710516D01*
X137706000Y-124537016D01*
X137706000Y-123620985D01*
X137688912Y-123447485D01*
X137621381Y-123224864D01*
X137511717Y-123019697D01*
X137364134Y-122839866D01*
X137184303Y-122692283D01*
X136979136Y-122582619D01*
X136756516Y-122515088D01*
X136525000Y-122492286D01*
X136293485Y-122515088D01*
X136070865Y-122582619D01*
X135865698Y-122692283D01*
X135761000Y-122778206D01*
X135761000Y-122452854D01*
X135763448Y-122428000D01*
X135753678Y-122328807D01*
X135724745Y-122233425D01*
X135707845Y-122201808D01*
X135677759Y-122145521D01*
X135614527Y-122068473D01*
X135595220Y-122052628D01*
X132537376Y-118994785D01*
X132521527Y-118975473D01*
X132444479Y-118912241D01*
X132356575Y-118865255D01*
X132261193Y-118836322D01*
X132186854Y-118829000D01*
X132186846Y-118829000D01*
X132162000Y-118826553D01*
X132137154Y-118829000D01*
X129197843Y-118829000D01*
X129197843Y-118335000D01*
X129190487Y-118260311D01*
X129168701Y-118188492D01*
X129133322Y-118122304D01*
X129085711Y-118064289D01*
X129027696Y-118016678D01*
X128961508Y-117981299D01*
X128889689Y-117959513D01*
X128815000Y-117952157D01*
X128215000Y-117952157D01*
X128140311Y-117959513D01*
X128068492Y-117981299D01*
X128015000Y-118009892D01*
X127961508Y-117981299D01*
X127889689Y-117959513D01*
X127815000Y-117952157D01*
X127215000Y-117952157D01*
X127140311Y-117959513D01*
X127068492Y-117981299D01*
X127015000Y-118009892D01*
X126961508Y-117981299D01*
X126889689Y-117959513D01*
X126815000Y-117952157D01*
X126215000Y-117952157D01*
X126140311Y-117959513D01*
X126068492Y-117981299D01*
X126015000Y-118009892D01*
X125961508Y-117981299D01*
X125889689Y-117959513D01*
X125815000Y-117952157D01*
X125215000Y-117952157D01*
X125140311Y-117959513D01*
X125068492Y-117981299D01*
X125015000Y-118009892D01*
X124961508Y-117981299D01*
X124889689Y-117959513D01*
X124815000Y-117952157D01*
X124737250Y-117954000D01*
X124642000Y-118049250D01*
X124642000Y-119208000D01*
X124662000Y-119208000D01*
X124662000Y-119462000D01*
X124642000Y-119462000D01*
X124642000Y-120620750D01*
X124737250Y-120716000D01*
X124815000Y-120717843D01*
X124889689Y-120710487D01*
X124961508Y-120688701D01*
X125015000Y-120660108D01*
X125016283Y-120660794D01*
X125016322Y-120661192D01*
X125045255Y-120756574D01*
X125061156Y-120786322D01*
X125092242Y-120844479D01*
X125155474Y-120921527D01*
X125174781Y-120937372D01*
X126821051Y-122583642D01*
X126819136Y-122582619D01*
X126596516Y-122515088D01*
X126365000Y-122492286D01*
X126133485Y-122515088D01*
X125910865Y-122582619D01*
X125705698Y-122692283D01*
X125525867Y-122839866D01*
X125521715Y-122844925D01*
X125517759Y-122837523D01*
X125454527Y-122760475D01*
X125435220Y-122744630D01*
X124021000Y-121330411D01*
X124021000Y-120663315D01*
X124068492Y-120688701D01*
X124140311Y-120710487D01*
X124215000Y-120717843D01*
X124292750Y-120716000D01*
X124388000Y-120620750D01*
X124388000Y-119462000D01*
X124368000Y-119462000D01*
X124368000Y-119208000D01*
X124388000Y-119208000D01*
X124388000Y-118049250D01*
X124292750Y-117954000D01*
X124215000Y-117952157D01*
X124140311Y-117959513D01*
X124068492Y-117981299D01*
X124015000Y-118009892D01*
X123961508Y-117981299D01*
X123889689Y-117959513D01*
X123815000Y-117952157D01*
X123215000Y-117952157D01*
X123196000Y-117954028D01*
X123196000Y-116244000D01*
X135292157Y-116244000D01*
X135292157Y-117944000D01*
X135299513Y-118018689D01*
X135321299Y-118090508D01*
X135356678Y-118156696D01*
X135404289Y-118214711D01*
X135462304Y-118262322D01*
X135528492Y-118297701D01*
X135600311Y-118319487D01*
X135675000Y-118326843D01*
X137375000Y-118326843D01*
X137449689Y-118319487D01*
X137521508Y-118297701D01*
X137587696Y-118262322D01*
X137645711Y-118214711D01*
X137693322Y-118156696D01*
X137728701Y-118090508D01*
X137750487Y-118018689D01*
X137757843Y-117944000D01*
X137757843Y-116972757D01*
X137834000Y-116972757D01*
X137834000Y-117215243D01*
X137881307Y-117453069D01*
X137974102Y-117677097D01*
X138108820Y-117878717D01*
X138280283Y-118050180D01*
X138481903Y-118184898D01*
X138705931Y-118277693D01*
X138943757Y-118325000D01*
X139186243Y-118325000D01*
X139424069Y-118277693D01*
X139648097Y-118184898D01*
X139849717Y-118050180D01*
X140021180Y-117878717D01*
X140155898Y-117677097D01*
X140248693Y-117453069D01*
X140257064Y-117410981D01*
X140415505Y-117410981D01*
X140500201Y-117636949D01*
X140627353Y-117842052D01*
X140792076Y-118018408D01*
X140988039Y-118159239D01*
X141207712Y-118259134D01*
X141288020Y-118283489D01*
X141478000Y-118222627D01*
X141478000Y-117221000D01*
X141732000Y-117221000D01*
X141732000Y-118222627D01*
X141921980Y-118283489D01*
X142002288Y-118259134D01*
X142221961Y-118159239D01*
X142417924Y-118018408D01*
X142582647Y-117842052D01*
X142709799Y-117636949D01*
X142794495Y-117410981D01*
X142734187Y-117221000D01*
X141732000Y-117221000D01*
X141478000Y-117221000D01*
X140475813Y-117221000D01*
X140415505Y-117410981D01*
X140257064Y-117410981D01*
X140296000Y-117215243D01*
X140296000Y-116972757D01*
X140257065Y-116777019D01*
X140415505Y-116777019D01*
X140475813Y-116967000D01*
X141478000Y-116967000D01*
X141478000Y-115965373D01*
X141732000Y-115965373D01*
X141732000Y-116967000D01*
X142734187Y-116967000D01*
X142794495Y-116777019D01*
X142709799Y-116551051D01*
X142582647Y-116345948D01*
X142417924Y-116169592D01*
X142221961Y-116028761D01*
X142002288Y-115928866D01*
X141921980Y-115904511D01*
X141732000Y-115965373D01*
X141478000Y-115965373D01*
X141288020Y-115904511D01*
X141207712Y-115928866D01*
X140988039Y-116028761D01*
X140792076Y-116169592D01*
X140627353Y-116345948D01*
X140500201Y-116551051D01*
X140415505Y-116777019D01*
X140257065Y-116777019D01*
X140248693Y-116734931D01*
X140155898Y-116510903D01*
X140021180Y-116309283D01*
X139849717Y-116137820D01*
X139648097Y-116003102D01*
X139424069Y-115910307D01*
X139186243Y-115863000D01*
X138943757Y-115863000D01*
X138705931Y-115910307D01*
X138481903Y-116003102D01*
X138280283Y-116137820D01*
X138108820Y-116309283D01*
X137974102Y-116510903D01*
X137881307Y-116734931D01*
X137834000Y-116972757D01*
X137757843Y-116972757D01*
X137757843Y-116244000D01*
X137750487Y-116169311D01*
X137728701Y-116097492D01*
X137693322Y-116031304D01*
X137645711Y-115973289D01*
X137587696Y-115925678D01*
X137521508Y-115890299D01*
X137449689Y-115868513D01*
X137375000Y-115861157D01*
X135675000Y-115861157D01*
X135600311Y-115868513D01*
X135528492Y-115890299D01*
X135462304Y-115925678D01*
X135404289Y-115973289D01*
X135356678Y-116031304D01*
X135321299Y-116097492D01*
X135299513Y-116169311D01*
X135292157Y-116244000D01*
X123196000Y-116244000D01*
X123196000Y-115673073D01*
X123307843Y-115598342D01*
X123472342Y-115433843D01*
X123601588Y-115240413D01*
X123690614Y-115025485D01*
X123736000Y-114797318D01*
X123736000Y-114564682D01*
X123690614Y-114336515D01*
X123601588Y-114121587D01*
X123472342Y-113928157D01*
X123307843Y-113763658D01*
X123114413Y-113634412D01*
X122899485Y-113545386D01*
X122671318Y-113500000D01*
X122438682Y-113500000D01*
X122210515Y-113545386D01*
X121995587Y-113634412D01*
X121802157Y-113763658D01*
X121637658Y-113928157D01*
X121508412Y-114121587D01*
X121419386Y-114336515D01*
X121374000Y-114564682D01*
X121374000Y-114797318D01*
X121419386Y-115025485D01*
X121508412Y-115240413D01*
X121637658Y-115433843D01*
X121802157Y-115598342D01*
X121834001Y-115619619D01*
X121834000Y-117954028D01*
X121815000Y-117952157D01*
X121215000Y-117952157D01*
X121140311Y-117959513D01*
X121068492Y-117981299D01*
X121015000Y-118009892D01*
X120961508Y-117981299D01*
X120889689Y-117959513D01*
X120815000Y-117952157D01*
X120215000Y-117952157D01*
X120140311Y-117959513D01*
X120068492Y-117981299D01*
X120015000Y-118009892D01*
X119961508Y-117981299D01*
X119889689Y-117959513D01*
X119815000Y-117952157D01*
X119215000Y-117952157D01*
X119140311Y-117959513D01*
X119068492Y-117981299D01*
X119015000Y-118009892D01*
X118961508Y-117981299D01*
X118889689Y-117959513D01*
X118815000Y-117952157D01*
X118215000Y-117952157D01*
X118140311Y-117959513D01*
X118068492Y-117981299D01*
X118015000Y-118009892D01*
X117961508Y-117981299D01*
X117889689Y-117959513D01*
X117815000Y-117952157D01*
X117215000Y-117952157D01*
X117140311Y-117959513D01*
X117068492Y-117981299D01*
X117015000Y-118009892D01*
X116961508Y-117981299D01*
X116889689Y-117959513D01*
X116815000Y-117952157D01*
X116215000Y-117952157D01*
X116140311Y-117959513D01*
X116068492Y-117981299D01*
X116015000Y-118009892D01*
X115961508Y-117981299D01*
X115889689Y-117959513D01*
X115815000Y-117952157D01*
X115737250Y-117954000D01*
X115642000Y-118049250D01*
X115642000Y-119208000D01*
X115662000Y-119208000D01*
X115662000Y-119462000D01*
X115642000Y-119462000D01*
X115642000Y-120620750D01*
X115737250Y-120716000D01*
X115815000Y-120717843D01*
X115889689Y-120710487D01*
X115961508Y-120688701D01*
X116009001Y-120663315D01*
X116009001Y-121019407D01*
X114594785Y-122433624D01*
X114575473Y-122449473D01*
X114512241Y-122526521D01*
X114465255Y-122614426D01*
X114436322Y-122709808D01*
X114429541Y-122778650D01*
X114324303Y-122692283D01*
X114119136Y-122582619D01*
X113896516Y-122515088D01*
X113665000Y-122492286D01*
X113433485Y-122515088D01*
X113210865Y-122582619D01*
X113208947Y-122583644D01*
X114855220Y-120937372D01*
X114874527Y-120921527D01*
X114937759Y-120844479D01*
X114984745Y-120756575D01*
X115013678Y-120661193D01*
X115013717Y-120660794D01*
X115015000Y-120660108D01*
X115068492Y-120688701D01*
X115140311Y-120710487D01*
X115215000Y-120717843D01*
X115292750Y-120716000D01*
X115388000Y-120620750D01*
X115388000Y-119462000D01*
X115368000Y-119462000D01*
X115368000Y-119208000D01*
X115388000Y-119208000D01*
X115388000Y-118049250D01*
X115292750Y-117954000D01*
X115215000Y-117952157D01*
X115140311Y-117959513D01*
X115068492Y-117981299D01*
X115015000Y-118009892D01*
X114961508Y-117981299D01*
X114889689Y-117959513D01*
X114815000Y-117952157D01*
X114215000Y-117952157D01*
X114196000Y-117954028D01*
X114196000Y-115646346D01*
X114267843Y-115598342D01*
X114432342Y-115433843D01*
X114561588Y-115240413D01*
X114650614Y-115025485D01*
X114696000Y-114797318D01*
X114696000Y-114564682D01*
X114650614Y-114336515D01*
X114561588Y-114121587D01*
X114432342Y-113928157D01*
X114267843Y-113763658D01*
X114074413Y-113634412D01*
X113859485Y-113545386D01*
X113631318Y-113500000D01*
X113398682Y-113500000D01*
X113170515Y-113545386D01*
X112955587Y-113634412D01*
X112762157Y-113763658D01*
X112597658Y-113928157D01*
X112468412Y-114121587D01*
X112379386Y-114336515D01*
X112334000Y-114564682D01*
X112334000Y-114797318D01*
X112379386Y-115025485D01*
X112468412Y-115240413D01*
X112597658Y-115433843D01*
X112762157Y-115598342D01*
X112834001Y-115646347D01*
X112834000Y-117954028D01*
X112815000Y-117952157D01*
X112215000Y-117952157D01*
X112140311Y-117959513D01*
X112068492Y-117981299D01*
X112015000Y-118009892D01*
X111961508Y-117981299D01*
X111889689Y-117959513D01*
X111815000Y-117952157D01*
X111215000Y-117952157D01*
X111140311Y-117959513D01*
X111068492Y-117981299D01*
X111002304Y-118016678D01*
X110944289Y-118064289D01*
X110896678Y-118122304D01*
X110861299Y-118188492D01*
X110839513Y-118260311D01*
X110832157Y-118335000D01*
X110832157Y-119464000D01*
X110178845Y-119464000D01*
X110153999Y-119461553D01*
X110129153Y-119464000D01*
X110129146Y-119464000D01*
X110064694Y-119470348D01*
X110054806Y-119471322D01*
X110032607Y-119478056D01*
X109959425Y-119500255D01*
X109871521Y-119547241D01*
X109794473Y-119610473D01*
X109778628Y-119629780D01*
X106974785Y-122433624D01*
X106955473Y-122449473D01*
X106892241Y-122526521D01*
X106845255Y-122614426D01*
X106816322Y-122709808D01*
X106809541Y-122778650D01*
X106704303Y-122692283D01*
X106499136Y-122582619D01*
X106340276Y-122534429D01*
X106417989Y-122510373D01*
X106456117Y-122494346D01*
X106494407Y-122478876D01*
X106500021Y-122475890D01*
X106500031Y-122475886D01*
X106500039Y-122475881D01*
X106718059Y-122357998D01*
X106752346Y-122334872D01*
X106786907Y-122312256D01*
X106791832Y-122308239D01*
X106791840Y-122308233D01*
X106791847Y-122308226D01*
X106982821Y-122150239D01*
X107011967Y-122120889D01*
X107041471Y-122091997D01*
X107045525Y-122087096D01*
X107045531Y-122087090D01*
X107045535Y-122087083D01*
X107202184Y-121895013D01*
X107225043Y-121860608D01*
X107248407Y-121826486D01*
X107251435Y-121820885D01*
X107367797Y-121602038D01*
X107383541Y-121563840D01*
X107399828Y-121525841D01*
X107401710Y-121519759D01*
X107473350Y-121282478D01*
X107481372Y-121241967D01*
X107489972Y-121201508D01*
X107490637Y-121195176D01*
X107514824Y-120948498D01*
X107514824Y-120948493D01*
X107517000Y-120926399D01*
X107517000Y-114322305D01*
X107534648Y-114142315D01*
X107580441Y-113990645D01*
X107654824Y-113850749D01*
X107754962Y-113727968D01*
X107877041Y-113626975D01*
X108016407Y-113551620D01*
X108167765Y-113504767D01*
X108346326Y-113486000D01*
X144376695Y-113486000D01*
X144556685Y-113503648D01*
G37*
G04 #@! TD.AperFunction*
D22*
X114429001Y-133014031D02*
X110559002Y-136884031D01*
X109449560Y-136884031D01*
X112735220Y-133598372D01*
X112754527Y-133582527D01*
X112817759Y-133505479D01*
X112864745Y-133417575D01*
X112893678Y-133322193D01*
X112901000Y-133247854D01*
X112903448Y-133223000D01*
X112901000Y-133198146D01*
X112901000Y-127970023D01*
X113081903Y-128090898D01*
X113305931Y-128183693D01*
X113543757Y-128231000D01*
X113786243Y-128231000D01*
X114024069Y-128183693D01*
X114248097Y-128090898D01*
X114429000Y-127970022D01*
X114429001Y-133014031D01*
G04 #@! TA.AperFunction,Conductor*
D23*
G36*
X114429001Y-133014031D02*
G01*
X110559002Y-136884031D01*
X109449560Y-136884031D01*
X112735220Y-133598372D01*
X112754527Y-133582527D01*
X112817759Y-133505479D01*
X112864745Y-133417575D01*
X112893678Y-133322193D01*
X112901000Y-133247854D01*
X112903448Y-133223000D01*
X112901000Y-133198146D01*
X112901000Y-127970023D01*
X113081903Y-128090898D01*
X113305931Y-128183693D01*
X113543757Y-128231000D01*
X113786243Y-128231000D01*
X114024069Y-128183693D01*
X114248097Y-128090898D01*
X114429000Y-127970022D01*
X114429001Y-133014031D01*
G37*
G04 #@! TD.AperFunction*
M02*
