  0
SECTION
  2
HEADER
  9
$ANGBASE
  50
0.0
  9
$ANGDIR
  70
1
  9
$MEASUREMENT
  70
1
  0
ENDSEC
  0
SECTION
  2
TABLES
  0
TABLE
  2
LTYPE
  70
4
  0
LTYPE
  5
40F
  2
CONTINUOUS
  70
0
  3
Solid line
  72
65
  73
0
  40
0.0
  0
LTYPE
  5
410
  2
DASHDOT
 70
0
  3
Dash Dot ____ _ ____ _
 72
65
 73
4
 40
2.0
 49
1.25
 49
-0.25
 49
0.25
 49
-0.25
  0
LTYPE
  5
411
  2
DASHED
 70
0
  3
Dashed __ __ __ __ __
 72
65
 73
2
 40
0.75
 49
0.5
 49
-0.25
  0
LTYPE
  5
43B
  2
DOTTED
 70
0
  3
Dotted .  .  .  .
 72
65
 73
2
 40
0.2
 49
0.0
 49
-0.2
  0
ENDTAB
  0
TABLE
  2
STYLE
  70
4
  0
STYLE
  2
KICAD
  70
0
  40
0
  41
1
  42
1
  50
0
  71
0
  3
isocp.shx
  0
STYLE
  2
KICADB
  70
0
  40
0
  41
1
  42
1
  50
0
  71
0
  3
isocp.shx
  0
STYLE
  2
KICADI
  70
0
  40
0
  41
1
  42
1
  50
15
  71
0
  3
isocp.shx
  0
STYLE
  2
KICADBI
  70
0
  40
0
  41
1
  42
1
  50
15
  71
0
  3
isocp.shx
  0
ENDTAB
  0
TABLE
  2
LAYER
  70
1
  0
LAYER
  2
BLACK
  70
0
  62
7
  6
CONTINUOUS
  0
ENDTAB
  0
ENDSEC
  0
SECTION
  2
ENTITIES
0
LINE
8
BLACK
6
CONTINUOUS
10
144.676
20
-144.191
11
144.669
21
-144.192
0
LINE
8
BLACK
6
CONTINUOUS
10
144.669
20
-144.192
11
144.662
21
-144.194
0
LINE
8
BLACK
6
CONTINUOUS
10
144.662
20
-144.194
11
144.416
21
-144.22
0
LINE
8
BLACK
6
CONTINUOUS
10
144.416
20
-144.22
11
144.415
21
-144.22
0
LINE
8
BLACK
6
CONTINUOUS
10
144.415
20
-144.22
11
144.411
21
-144.22
0
LINE
8
BLACK
6
CONTINUOUS
10
144.411
20
-144.22
11
144.408
21
-144.22
0
LINE
8
BLACK
6
CONTINUOUS
10
144.408
20
-144.22
11
144.403
21
-144.22
0
LINE
8
BLACK
6
CONTINUOUS
10
144.403
20
-144.22
11
144.403
21
-144.22
0
LINE
8
BLACK
6
CONTINUOUS
10
144.403
20
-144.22
11
95.2463
21
-144.22
0
LINE
8
BLACK
6
CONTINUOUS
10
95.2463
20
-144.22
11
95.2427
21
-144.22
0
LINE
8
BLACK
6
CONTINUOUS
10
95.2427
20
-144.22
11
95.2427
21
-144.22
0
LINE
8
BLACK
6
CONTINUOUS
10
95.2427
20
-144.22
11
94.996
21
-144.195
0
LINE
8
BLACK
6
CONTINUOUS
10
94.996
20
-144.195
11
94.996
21
-144.195
0
LINE
8
BLACK
6
CONTINUOUS
10
94.996
20
-144.195
11
94.996
21
-144.195
0
LINE
8
BLACK
6
CONTINUOUS
10
94.996
20
-144.195
11
94.995
21
-144.195
0
LINE
8
BLACK
6
CONTINUOUS
10
94.995
20
-144.195
11
94.9884
21
-144.194
0
LINE
8
BLACK
6
CONTINUOUS
10
94.9884
20
-144.194
11
94.9816
21
-144.193
0
LINE
8
BLACK
6
CONTINUOUS
10
94.9816
20
-144.193
11
94.7444
21
-144.121
0
LINE
8
BLACK
6
CONTINUOUS
10
94.7444
20
-144.121
11
94.7434
21
-144.121
0
LINE
8
BLACK
6
CONTINUOUS
10
94.7434
20
-144.121
11
94.7371
21
-144.118
0
LINE
8
BLACK
6
CONTINUOUS
10
94.7371
20
-144.118
11
94.7308
21
-144.115
0
LINE
8
BLACK
6
CONTINUOUS
10
94.7308
20
-144.115
11
94.512
21
-143.999
0
LINE
8
BLACK
6
CONTINUOUS
10
94.512
20
-143.999
11
94.512
21
-143.999
0
LINE
8
BLACK
6
CONTINUOUS
10
94.512
20
-143.999
11
94.512
21
-143.999
0
LINE
8
BLACK
6
CONTINUOUS
10
94.512
20
-143.999
11
94.5111
21
-143.999
0
LINE
8
BLACK
6
CONTINUOUS
10
94.5111
20
-143.999
11
94.5055
21
-143.995
0
LINE
8
BLACK
6
CONTINUOUS
10
94.5055
20
-143.995
11
94.4998
21
-143.991
0
LINE
8
BLACK
6
CONTINUOUS
10
94.4998
20
-143.991
11
94.3077
21
-143.834
0
LINE
8
BLACK
6
CONTINUOUS
10
94.3077
20
-143.834
11
94.3069
21
-143.834
0
LINE
8
BLACK
6
CONTINUOUS
10
94.3069
20
-143.834
11
94.3021
21
-143.829
0
LINE
8
BLACK
6
CONTINUOUS
10
94.3021
20
-143.829
11
94.2973
21
-143.824
0
LINE
8
BLACK
6
CONTINUOUS
10
94.2973
20
-143.824
11
94.1393
21
-143.633
0
LINE
8
BLACK
6
CONTINUOUS
10
94.1393
20
-143.633
11
94.1393
21
-143.633
0
LINE
8
BLACK
6
CONTINUOUS
10
94.1393
20
-143.633
11
94.1393
21
-143.633
0
LINE
8
BLACK
6
CONTINUOUS
10
94.1393
20
-143.633
11
94.1387
21
-143.632
0
LINE
8
BLACK
6
CONTINUOUS
10
94.1387
20
-143.632
11
94.135
21
-143.627
0
LINE
8
BLACK
6
CONTINUOUS
10
94.135
20
-143.627
11
94.1311
21
-143.621
0
LINE
8
BLACK
6
CONTINUOUS
10
94.1311
20
-143.621
11
94.0133
21
-143.403
0
LINE
8
BLACK
6
CONTINUOUS
10
94.0133
20
-143.403
11
94.0133
21
-143.403
0
LINE
8
BLACK
6
CONTINUOUS
10
94.0133
20
-143.403
11
94.0133
21
-143.403
0
LINE
8
BLACK
6
CONTINUOUS
10
94.0133
20
-143.403
11
94.0128
21
-143.402
0
LINE
8
BLACK
6
CONTINUOUS
10
94.0128
20
-143.402
11
94.0102
21
-143.396
0
LINE
8
BLACK
6
CONTINUOUS
10
94.0102
20
-143.396
11
94.0076
21
-143.389
0
LINE
8
BLACK
6
CONTINUOUS
10
94.0076
20
-143.389
11
93.9343
21
-143.153
0
LINE
8
BLACK
6
CONTINUOUS
10
93.9343
20
-143.153
11
93.934
21
-143.152
0
LINE
8
BLACK
6
CONTINUOUS
10
93.934
20
-143.152
11
93.9327
21
-143.145
0
LINE
8
BLACK
6
CONTINUOUS
10
93.9327
20
-143.145
11
93.9313
21
-143.138
0
LINE
8
BLACK
6
CONTINUOUS
10
93.9313
20
-143.138
11
93.9054
21
-142.892
0
LINE
8
BLACK
6
CONTINUOUS
10
93.9054
20
-142.892
11
93.9053
21
-142.891
0
LINE
8
BLACK
6
CONTINUOUS
10
93.9053
20
-142.891
11
93.9054
21
-142.887
0
LINE
8
BLACK
6
CONTINUOUS
10
93.9054
20
-142.887
11
93.905
21
-142.884
0
LINE
8
BLACK
6
CONTINUOUS
10
93.905
20
-142.884
11
93.905
21
-142.879
0
LINE
8
BLACK
6
CONTINUOUS
10
93.905
20
-142.879
11
93.905
21
-142.879
0
LINE
8
BLACK
6
CONTINUOUS
10
93.905
20
-142.879
11
93.905
21
-142.876
0
LINE
8
BLACK
6
CONTINUOUS
10
93.905
20
-142.876
11
93.905
21
-142.875
0
LINE
8
BLACK
6
CONTINUOUS
10
93.905
20
-142.875
11
93.905
21
-142.875
0
LINE
8
BLACK
6
CONTINUOUS
10
93.905
20
-142.875
11
93.905
21
-123.44
0
LINE
8
BLACK
6
CONTINUOUS
10
93.905
20
-123.44
11
93.9054
21
-123.437
0
LINE
8
BLACK
6
CONTINUOUS
10
93.9054
20
-123.437
11
93.9054
21
-123.437
0
LINE
8
BLACK
6
CONTINUOUS
10
93.9054
20
-123.437
11
93.9295
21
-123.19
0
LINE
8
BLACK
6
CONTINUOUS
10
93.9295
20
-123.19
11
93.9295
21
-123.19
0
LINE
8
BLACK
6
CONTINUOUS
10
93.9295
20
-123.19
11
93.9295
21
-123.19
0
LINE
8
BLACK
6
CONTINUOUS
10
93.9295
20
-123.19
11
93.9297
21
-123.189
0
LINE
8
BLACK
6
CONTINUOUS
10
93.9297
20
-123.189
11
93.9311
21
-123.182
0
LINE
8
BLACK
6
CONTINUOUS
10
93.9311
20
-123.182
11
93.9324
21
-123.176
0
LINE
8
BLACK
6
CONTINUOUS
10
93.9324
20
-123.176
11
94.004
21
-122.938
0
LINE
8
BLACK
6
CONTINUOUS
10
94.004
20
-122.938
11
94.004
21
-122.938
0
LINE
8
BLACK
6
CONTINUOUS
10
94.004
20
-122.938
11
94.004
21
-122.938
0
LINE
8
BLACK
6
CONTINUOUS
10
94.004
20
-122.938
11
94.0043
21
-122.937
0
LINE
8
BLACK
6
CONTINUOUS
10
94.0043
20
-122.937
11
94.007
21
-122.931
0
LINE
8
BLACK
6
CONTINUOUS
10
94.007
20
-122.931
11
94.0096
21
-122.925
0
LINE
8
BLACK
6
CONTINUOUS
10
94.0096
20
-122.925
11
94.126
21
-122.706
0
LINE
8
BLACK
6
CONTINUOUS
10
94.126
20
-122.706
11
94.126
21
-122.706
0
LINE
8
BLACK
6
CONTINUOUS
10
94.126
20
-122.706
11
94.126
21
-122.706
0
LINE
8
BLACK
6
CONTINUOUS
10
94.126
20
-122.706
11
94.1265
21
-122.705
0
LINE
8
BLACK
6
CONTINUOUS
10
94.1265
20
-122.705
11
94.1303
21
-122.699
0
LINE
8
BLACK
6
CONTINUOUS
10
94.1303
20
-122.699
11
94.1341
21
-122.694
0
LINE
8
BLACK
6
CONTINUOUS
10
94.1341
20
-122.694
11
94.2907
21
-122.502
0
LINE
8
BLACK
6
CONTINUOUS
10
94.2907
20
-122.502
11
94.2914
21
-122.501
0
LINE
8
BLACK
6
CONTINUOUS
10
94.2914
20
-122.501
11
94.2963
21
-122.496
0
LINE
8
BLACK
6
CONTINUOUS
10
94.2963
20
-122.496
11
94.301
21
-122.491
0
LINE
8
BLACK
6
CONTINUOUS
10
94.301
20
-122.491
11
94.492
21
-122.333
0
LINE
8
BLACK
6
CONTINUOUS
10
94.492
20
-122.333
11
94.492
21
-122.333
0
LINE
8
BLACK
6
CONTINUOUS
10
94.492
20
-122.333
11
94.492
21
-122.333
0
LINE
8
BLACK
6
CONTINUOUS
10
94.492
20
-122.333
11
94.4928
21
-122.333
0
LINE
8
BLACK
6
CONTINUOUS
10
94.4928
20
-122.333
11
94.4985
21
-122.329
0
LINE
8
BLACK
6
CONTINUOUS
10
94.4985
20
-122.329
11
94.5042
21
-122.325
0
LINE
8
BLACK
6
CONTINUOUS
10
94.5042
20
-122.325
11
94.7222
21
-122.207
0
LINE
8
BLACK
6
CONTINUOUS
10
94.7222
20
-122.207
11
94.7231
21
-122.207
0
LINE
8
BLACK
6
CONTINUOUS
10
94.7231
20
-122.207
11
94.7294
21
-122.204
0
LINE
8
BLACK
6
CONTINUOUS
10
94.7294
20
-122.204
11
94.7357
21
-122.202
0
LINE
8
BLACK
6
CONTINUOUS
10
94.7357
20
-122.202
11
94.9725
21
-122.128
0
LINE
8
BLACK
6
CONTINUOUS
10
94.9725
20
-122.128
11
94.9735
21
-122.128
0
LINE
8
BLACK
6
CONTINUOUS
10
94.9735
20
-122.128
11
94.9802
21
-122.127
0
LINE
8
BLACK
6
CONTINUOUS
10
94.9802
20
-122.127
11
94.9868
21
-122.125
0
LINE
8
BLACK
6
CONTINUOUS
10
94.9868
20
-122.125
11
95.2333
21
-122.099
0
LINE
8
BLACK
6
CONTINUOUS
10
95.2333
20
-122.099
11
95.2343
21
-122.099
0
LINE
8
BLACK
6
CONTINUOUS
10
95.2343
20
-122.099
11
95.2376
21
-122.099
0
LINE
8
BLACK
6
CONTINUOUS
10
95.2376
20
-122.099
11
95.2409
21
-122.099
0
LINE
8
BLACK
6
CONTINUOUS
10
95.2409
20
-122.099
11
95.2462
21
-122.099
0
LINE
8
BLACK
6
CONTINUOUS
10
95.2462
20
-122.099
11
95.2463
21
-122.099
0
LINE
8
BLACK
6
CONTINUOUS
10
95.2463
20
-122.099
11
105.791
21
-122.099
0
LINE
8
BLACK
6
CONTINUOUS
10
105.791
20
-122.099
11
105.796
21
-122.099
0
LINE
8
BLACK
6
CONTINUOUS
10
105.796
20
-122.099
11
106.031
21
-122.074
0
LINE
8
BLACK
6
CONTINUOUS
10
106.031
20
-122.074
11
106.254
21
-122.005
0
LINE
8
BLACK
6
CONTINUOUS
10
106.254
20
-122.005
11
106.459
21
-121.894
0
LINE
8
BLACK
6
CONTINUOUS
10
106.459
20
-121.894
11
106.639
21
-121.746
0
LINE
8
BLACK
6
CONTINUOUS
10
106.639
20
-121.746
11
106.786
21
-121.565
0
LINE
8
BLACK
6
CONTINUOUS
10
106.786
20
-121.565
11
106.895
21
-121.359
0
LINE
8
BLACK
6
CONTINUOUS
10
106.895
20
-121.359
11
106.963
21
-121.136
0
LINE
8
BLACK
6
CONTINUOUS
10
106.963
20
-121.136
11
106.986
21
-120.9
0
LINE
8
BLACK
6
CONTINUOUS
10
106.986
20
-120.9
11
106.986
21
-114.296
0
LINE
8
BLACK
6
CONTINUOUS
10
106.986
20
-114.296
11
106.986
21
-114.293
0
LINE
8
BLACK
6
CONTINUOUS
10
106.986
20
-114.293
11
106.986
21
-114.293
0
LINE
8
BLACK
6
CONTINUOUS
10
106.986
20
-114.293
11
107.011
21
-114.046
0
LINE
8
BLACK
6
CONTINUOUS
10
107.011
20
-114.046
11
107.011
21
-114.046
0
LINE
8
BLACK
6
CONTINUOUS
10
107.011
20
-114.046
11
107.011
21
-114.046
0
LINE
8
BLACK
6
CONTINUOUS
10
107.011
20
-114.046
11
107.011
21
-114.045
0
LINE
8
BLACK
6
CONTINUOUS
10
107.011
20
-114.045
11
107.012
21
-114.038
0
LINE
8
BLACK
6
CONTINUOUS
10
107.012
20
-114.038
11
107.013
21
-114.032
0
LINE
8
BLACK
6
CONTINUOUS
10
107.013
20
-114.032
11
107.085
21
-113.794
0
LINE
8
BLACK
6
CONTINUOUS
10
107.085
20
-113.794
11
107.085
21
-113.794
0
LINE
8
BLACK
6
CONTINUOUS
10
107.085
20
-113.794
11
107.085
21
-113.794
0
LINE
8
BLACK
6
CONTINUOUS
10
107.085
20
-113.794
11
107.085
21
-113.793
0
LINE
8
BLACK
6
CONTINUOUS
10
107.085
20
-113.793
11
107.088
21
-113.787
0
LINE
8
BLACK
6
CONTINUOUS
10
107.088
20
-113.787
11
107.091
21
-113.781
0
LINE
8
BLACK
6
CONTINUOUS
10
107.091
20
-113.781
11
107.207
21
-113.562
0
LINE
8
BLACK
6
CONTINUOUS
10
107.207
20
-113.562
11
107.207
21
-113.562
0
LINE
8
BLACK
6
CONTINUOUS
10
107.207
20
-113.562
11
107.207
21
-113.562
0
LINE
8
BLACK
6
CONTINUOUS
10
107.207
20
-113.562
11
107.207
21
-113.561
0
LINE
8
BLACK
6
CONTINUOUS
10
107.207
20
-113.561
11
107.211
21
-113.555
0
LINE
8
BLACK
6
CONTINUOUS
10
107.211
20
-113.555
11
107.215
21
-113.55
0
LINE
8
BLACK
6
CONTINUOUS
10
107.215
20
-113.55
11
107.372
21
-113.358
0
LINE
8
BLACK
6
CONTINUOUS
10
107.372
20
-113.358
11
107.372
21
-113.357
0
LINE
8
BLACK
6
CONTINUOUS
10
107.372
20
-113.357
11
107.377
21
-113.352
0
LINE
8
BLACK
6
CONTINUOUS
10
107.377
20
-113.352
11
107.382
21
-113.347
0
LINE
8
BLACK
6
CONTINUOUS
10
107.382
20
-113.347
11
107.573
21
-113.189
0
LINE
8
BLACK
6
CONTINUOUS
10
107.573
20
-113.189
11
107.573
21
-113.189
0
LINE
8
BLACK
6
CONTINUOUS
10
107.573
20
-113.189
11
107.573
21
-113.189
0
LINE
8
BLACK
6
CONTINUOUS
10
107.573
20
-113.189
11
107.574
21
-113.189
0
LINE
8
BLACK
6
CONTINUOUS
10
107.574
20
-113.189
11
107.579
21
-113.185
0
LINE
8
BLACK
6
CONTINUOUS
10
107.579
20
-113.185
11
107.585
21
-113.181
0
LINE
8
BLACK
6
CONTINUOUS
10
107.585
20
-113.181
11
107.803
21
-113.063
0
LINE
8
BLACK
6
CONTINUOUS
10
107.803
20
-113.063
11
107.804
21
-113.063
0
LINE
8
BLACK
6
CONTINUOUS
10
107.804
20
-113.063
11
107.81
21
-113.06
0
LINE
8
BLACK
6
CONTINUOUS
10
107.81
20
-113.06
11
107.817
21
-113.058
0
LINE
8
BLACK
6
CONTINUOUS
10
107.817
20
-113.058
11
108.053
21
-112.984
0
LINE
8
BLACK
6
CONTINUOUS
10
108.053
20
-112.984
11
108.054
21
-112.984
0
LINE
8
BLACK
6
CONTINUOUS
10
108.054
20
-112.984
11
108.061
21
-112.983
0
LINE
8
BLACK
6
CONTINUOUS
10
108.061
20
-112.983
11
108.068
21
-112.981
0
LINE
8
BLACK
6
CONTINUOUS
10
108.068
20
-112.981
11
108.314
21
-112.955
0
LINE
8
BLACK
6
CONTINUOUS
10
108.314
20
-112.955
11
108.315
21
-112.955
0
LINE
8
BLACK
6
CONTINUOUS
10
108.315
20
-112.955
11
108.319
21
-112.955
0
LINE
8
BLACK
6
CONTINUOUS
10
108.319
20
-112.955
11
108.322
21
-112.955
0
LINE
8
BLACK
6
CONTINUOUS
10
108.322
20
-112.955
11
108.327
21
-112.955
0
LINE
8
BLACK
6
CONTINUOUS
10
108.327
20
-112.955
11
108.327
21
-112.955
0
LINE
8
BLACK
6
CONTINUOUS
10
108.327
20
-112.955
11
144.403
21
-112.955
0
LINE
8
BLACK
6
CONTINUOUS
10
144.403
20
-112.955
11
144.406
21
-112.955
0
LINE
8
BLACK
6
CONTINUOUS
10
144.406
20
-112.955
11
144.406
21
-112.955
0
LINE
8
BLACK
6
CONTINUOUS
10
144.406
20
-112.955
11
144.653
21
-112.98
0
LINE
8
BLACK
6
CONTINUOUS
10
144.653
20
-112.98
11
144.653
21
-112.98
0
LINE
8
BLACK
6
CONTINUOUS
10
144.653
20
-112.98
11
144.653
21
-112.98
0
LINE
8
BLACK
6
CONTINUOUS
10
144.653
20
-112.98
11
144.654
21
-112.98
0
LINE
8
BLACK
6
CONTINUOUS
10
144.654
20
-112.98
11
144.661
21
-112.981
0
LINE
8
BLACK
6
CONTINUOUS
10
144.661
20
-112.981
11
144.667
21
-112.982
0
LINE
8
BLACK
6
CONTINUOUS
10
144.667
20
-112.982
11
144.905
21
-113.054
0
LINE
8
BLACK
6
CONTINUOUS
10
144.905
20
-113.054
11
144.905
21
-113.054
0
LINE
8
BLACK
6
CONTINUOUS
10
144.905
20
-113.054
11
144.905
21
-113.054
0
LINE
8
BLACK
6
CONTINUOUS
10
144.905
20
-113.054
11
144.906
21
-113.054
0
LINE
8
BLACK
6
CONTINUOUS
10
144.906
20
-113.054
11
144.912
21
-113.057
0
LINE
8
BLACK
6
CONTINUOUS
10
144.912
20
-113.057
11
144.918
21
-113.06
0
LINE
8
BLACK
6
CONTINUOUS
10
144.918
20
-113.06
11
145.137
21
-113.176
0
LINE
8
BLACK
6
CONTINUOUS
10
145.137
20
-113.176
11
145.137
21
-113.176
0
LINE
8
BLACK
6
CONTINUOUS
10
145.137
20
-113.176
11
145.137
21
-113.176
0
LINE
8
BLACK
6
CONTINUOUS
10
145.137
20
-113.176
11
145.138
21
-113.176
0
LINE
8
BLACK
6
CONTINUOUS
10
145.138
20
-113.176
11
145.144
21
-113.18
0
LINE
8
BLACK
6
CONTINUOUS
10
145.144
20
-113.18
11
145.149
21
-113.184
0
LINE
8
BLACK
6
CONTINUOUS
10
145.149
20
-113.184
11
145.341
21
-113.341
0
LINE
8
BLACK
6
CONTINUOUS
10
145.341
20
-113.341
11
145.342
21
-113.341
0
LINE
8
BLACK
6
CONTINUOUS
10
145.342
20
-113.341
11
145.347
21
-113.346
0
LINE
8
BLACK
6
CONTINUOUS
10
145.347
20
-113.346
11
145.352
21
-113.351
0
LINE
8
BLACK
6
CONTINUOUS
10
145.352
20
-113.351
11
145.51
21
-113.542
0
LINE
8
BLACK
6
CONTINUOUS
10
145.51
20
-113.542
11
145.51
21
-113.542
0
LINE
8
BLACK
6
CONTINUOUS
10
145.51
20
-113.542
11
145.51
21
-113.542
0
LINE
8
BLACK
6
CONTINUOUS
10
145.51
20
-113.542
11
145.51
21
-113.543
0
LINE
8
BLACK
6
CONTINUOUS
10
145.51
20
-113.543
11
145.514
21
-113.548
0
LINE
8
BLACK
6
CONTINUOUS
10
145.514
20
-113.548
11
145.518
21
-113.554
0
LINE
8
BLACK
6
CONTINUOUS
10
145.518
20
-113.554
11
145.636
21
-113.772
0
LINE
8
BLACK
6
CONTINUOUS
10
145.636
20
-113.772
11
145.636
21
-113.773
0
LINE
8
BLACK
6
CONTINUOUS
10
145.636
20
-113.773
11
145.639
21
-113.779
0
LINE
8
BLACK
6
CONTINUOUS
10
145.639
20
-113.779
11
145.641
21
-113.786
0
LINE
8
BLACK
6
CONTINUOUS
10
145.641
20
-113.786
11
145.715
21
-114.022
0
LINE
8
BLACK
6
CONTINUOUS
10
145.715
20
-114.022
11
145.715
21
-114.023
0
LINE
8
BLACK
6
CONTINUOUS
10
145.715
20
-114.023
11
145.716
21
-114.03
0
LINE
8
BLACK
6
CONTINUOUS
10
145.716
20
-114.03
11
145.718
21
-114.037
0
LINE
8
BLACK
6
CONTINUOUS
10
145.718
20
-114.037
11
145.744
21
-114.283
0
LINE
8
BLACK
6
CONTINUOUS
10
145.744
20
-114.283
11
145.744
21
-114.284
0
LINE
8
BLACK
6
CONTINUOUS
10
145.744
20
-114.284
11
145.744
21
-114.288
0
LINE
8
BLACK
6
CONTINUOUS
10
145.744
20
-114.288
11
145.744
21
-114.291
0
LINE
8
BLACK
6
CONTINUOUS
10
145.744
20
-114.291
11
145.744
21
-114.296
0
LINE
8
BLACK
6
CONTINUOUS
10
145.744
20
-114.296
11
145.744
21
-114.296
0
LINE
8
BLACK
6
CONTINUOUS
10
145.744
20
-114.296
11
145.744
21
-142.879
0
LINE
8
BLACK
6
CONTINUOUS
10
145.744
20
-142.879
11
145.744
21
-142.882
0
LINE
8
BLACK
6
CONTINUOUS
10
145.744
20
-142.882
11
145.744
21
-142.882
0
LINE
8
BLACK
6
CONTINUOUS
10
145.744
20
-142.882
11
145.719
21
-143.129
0
LINE
8
BLACK
6
CONTINUOUS
10
145.719
20
-143.129
11
145.719
21
-143.129
0
LINE
8
BLACK
6
CONTINUOUS
10
145.719
20
-143.129
11
145.719
21
-143.129
0
LINE
8
BLACK
6
CONTINUOUS
10
145.719
20
-143.129
11
145.719
21
-143.13
0
LINE
8
BLACK
6
CONTINUOUS
10
145.719
20
-143.13
11
145.718
21
-143.137
0
LINE
8
BLACK
6
CONTINUOUS
10
145.718
20
-143.137
11
145.717
21
-143.143
0
LINE
8
BLACK
6
CONTINUOUS
10
145.717
20
-143.143
11
145.645
21
-143.381
0
LINE
8
BLACK
6
CONTINUOUS
10
145.645
20
-143.381
11
145.645
21
-143.382
0
LINE
8
BLACK
6
CONTINUOUS
10
145.645
20
-143.382
11
145.642
21
-143.388
0
LINE
8
BLACK
6
CONTINUOUS
10
145.642
20
-143.388
11
145.639
21
-143.394
0
LINE
8
BLACK
6
CONTINUOUS
10
145.639
20
-143.394
11
145.523
21
-143.613
0
LINE
8
BLACK
6
CONTINUOUS
10
145.523
20
-143.613
11
145.523
21
-143.613
0
LINE
8
BLACK
6
CONTINUOUS
10
145.523
20
-143.613
11
145.523
21
-143.613
0
LINE
8
BLACK
6
CONTINUOUS
10
145.523
20
-143.613
11
145.523
21
-143.614
0
LINE
8
BLACK
6
CONTINUOUS
10
145.523
20
-143.614
11
145.519
21
-143.62
0
LINE
8
BLACK
6
CONTINUOUS
10
145.519
20
-143.62
11
145.515
21
-143.625
0
LINE
8
BLACK
6
CONTINUOUS
10
145.515
20
-143.625
11
145.358
21
-143.817
0
LINE
8
BLACK
6
CONTINUOUS
10
145.358
20
-143.817
11
145.358
21
-143.818
0
LINE
8
BLACK
6
CONTINUOUS
10
145.358
20
-143.818
11
145.353
21
-143.823
0
LINE
8
BLACK
6
CONTINUOUS
10
145.353
20
-143.823
11
145.348
21
-143.828
0
LINE
8
BLACK
6
CONTINUOUS
10
145.348
20
-143.828
11
145.157
21
-143.986
0
LINE
8
BLACK
6
CONTINUOUS
10
145.157
20
-143.986
11
145.157
21
-143.986
0
LINE
8
BLACK
6
CONTINUOUS
10
145.157
20
-143.986
11
145.157
21
-143.986
0
LINE
8
BLACK
6
CONTINUOUS
10
145.157
20
-143.986
11
145.156
21
-143.986
0
LINE
8
BLACK
6
CONTINUOUS
10
145.156
20
-143.986
11
145.151
21
-143.99
0
LINE
8
BLACK
6
CONTINUOUS
10
145.151
20
-143.99
11
145.145
21
-143.994
0
LINE
8
BLACK
6
CONTINUOUS
10
145.145
20
-143.994
11
144.927
21
-144.112
0
LINE
8
BLACK
6
CONTINUOUS
10
144.927
20
-144.112
11
144.927
21
-144.112
0
LINE
8
BLACK
6
CONTINUOUS
10
144.927
20
-144.112
11
144.927
21
-144.112
0
LINE
8
BLACK
6
CONTINUOUS
10
144.927
20
-144.112
11
144.926
21
-144.112
0
LINE
8
BLACK
6
CONTINUOUS
10
144.926
20
-144.112
11
144.92
21
-144.115
0
LINE
8
BLACK
6
CONTINUOUS
10
144.92
20
-144.115
11
144.913
21
-144.117
0
LINE
8
BLACK
6
CONTINUOUS
10
144.913
20
-144.117
11
144.677
21
-144.191
0
LINE
8
BLACK
6
CONTINUOUS
10
144.677
20
-144.191
11
144.677
21
-144.191
0
LINE
8
BLACK
6
CONTINUOUS
10
144.677
20
-144.191
11
144.676
21
-144.191
0
LINE
8
BLACK
6
CONTINUOUS
10
106.068
20
-122.22
11
106.061
21
-122.221
0
LINE
8
BLACK
6
CONTINUOUS
10
106.061
20
-122.221
11
106.054
21
-122.223
0
LINE
8
BLACK
6
CONTINUOUS
10
106.054
20
-122.223
11
105.808
21
-122.249
0
LINE
8
BLACK
6
CONTINUOUS
10
105.808
20
-122.249
11
105.807
21
-122.249
0
LINE
8
BLACK
6
CONTINUOUS
10
105.807
20
-122.249
11
105.803
21
-122.249
0
LINE
8
BLACK
6
CONTINUOUS
10
105.803
20
-122.249
11
105.8
21
-122.249
0
LINE
8
BLACK
6
CONTINUOUS
10
105.8
20
-122.249
11
105.795
21
-122.249
0
LINE
8
BLACK
6
CONTINUOUS
10
105.795
20
-122.249
11
105.795
21
-122.249
0
LINE
8
BLACK
6
CONTINUOUS
10
105.795
20
-122.249
11
95.2503
21
-122.249
0
LINE
8
BLACK
6
CONTINUOUS
10
95.2503
20
-122.249
11
95.2452
21
-122.249
0
LINE
8
BLACK
6
CONTINUOUS
10
95.2452
20
-122.249
11
95.0098
21
-122.274
0
LINE
8
BLACK
6
CONTINUOUS
10
95.0098
20
-122.274
11
94.7871
21
-122.343
0
LINE
8
BLACK
6
CONTINUOUS
10
94.7871
20
-122.343
11
94.582
21
-122.454
0
LINE
8
BLACK
6
CONTINUOUS
10
94.582
20
-122.454
11
94.4023
21
-122.602
0
LINE
8
BLACK
6
CONTINUOUS
10
94.4023
20
-122.602
11
94.255
21
-122.783
0
LINE
8
BLACK
6
CONTINUOUS
10
94.255
20
-122.783
11
94.1455
21
-122.989
0
LINE
8
BLACK
6
CONTINUOUS
10
94.1455
20
-122.989
11
94.0781
21
-123.212
0
LINE
8
BLACK
6
CONTINUOUS
10
94.0781
20
-123.212
11
94.055
21
-123.448
0
LINE
8
BLACK
6
CONTINUOUS
10
94.055
20
-123.448
11
94.055
21
-142.875
0
LINE
8
BLACK
6
CONTINUOUS
10
94.055
20
-142.875
11
94.055
21
-142.88
0
LINE
8
BLACK
6
CONTINUOUS
10
94.055
20
-142.88
11
94.0798
21
-143.115
0
LINE
8
BLACK
6
CONTINUOUS
10
94.0798
20
-143.115
11
94.1487
21
-143.338
0
LINE
8
BLACK
6
CONTINUOUS
10
94.1487
20
-143.338
11
94.2596
21
-143.543
0
LINE
8
BLACK
6
CONTINUOUS
10
94.2596
20
-143.543
11
94.4082
21
-143.723
0
LINE
8
BLACK
6
CONTINUOUS
10
94.4082
20
-143.723
11
94.5889
21
-143.87
0
LINE
8
BLACK
6
CONTINUOUS
10
94.5889
20
-143.87
11
94.7948
21
-143.979
0
LINE
8
BLACK
6
CONTINUOUS
10
94.7948
20
-143.979
11
95.018
21
-144.047
0
LINE
8
BLACK
6
CONTINUOUS
10
95.018
20
-144.047
11
95.2537
21
-144.07
0
LINE
8
BLACK
6
CONTINUOUS
10
95.2537
20
-144.07
11
144.399
21
-144.07
0
LINE
8
BLACK
6
CONTINUOUS
10
144.399
20
-144.07
11
144.404
21
-144.07
0
LINE
8
BLACK
6
CONTINUOUS
10
144.404
20
-144.07
11
144.639
21
-144.045
0
LINE
8
BLACK
6
CONTINUOUS
10
144.639
20
-144.045
11
144.862
21
-143.976
0
LINE
8
BLACK
6
CONTINUOUS
10
144.862
20
-143.976
11
145.067
21
-143.865
0
LINE
8
BLACK
6
CONTINUOUS
10
145.067
20
-143.865
11
145.247
21
-143.717
0
LINE
8
BLACK
6
CONTINUOUS
10
145.247
20
-143.717
11
145.394
21
-143.536
0
LINE
8
BLACK
6
CONTINUOUS
10
145.394
20
-143.536
11
145.503
21
-143.33
0
LINE
8
BLACK
6
CONTINUOUS
10
145.503
20
-143.33
11
145.571
21
-143.107
0
LINE
8
BLACK
6
CONTINUOUS
10
145.571
20
-143.107
11
145.594
21
-142.871
0
LINE
8
BLACK
6
CONTINUOUS
10
145.594
20
-142.871
11
145.594
21
-114.3
0
LINE
8
BLACK
6
CONTINUOUS
10
145.594
20
-114.3
11
145.594
21
-114.295
0
LINE
8
BLACK
6
CONTINUOUS
10
145.594
20
-114.295
11
145.569
21
-114.06
0
LINE
8
BLACK
6
CONTINUOUS
10
145.569
20
-114.06
11
145.5
21
-113.837
0
LINE
8
BLACK
6
CONTINUOUS
10
145.5
20
-113.837
11
145.389
21
-113.632
0
LINE
8
BLACK
6
CONTINUOUS
10
145.389
20
-113.632
11
145.241
21
-113.452
0
LINE
8
BLACK
6
CONTINUOUS
10
145.241
20
-113.452
11
145.06
21
-113.305
0
LINE
8
BLACK
6
CONTINUOUS
10
145.06
20
-113.305
11
144.854
21
-113.196
0
LINE
8
BLACK
6
CONTINUOUS
10
144.854
20
-113.196
11
144.631
21
-113.128
0
LINE
8
BLACK
6
CONTINUOUS
10
144.631
20
-113.128
11
144.395
21
-113.105
0
LINE
8
BLACK
6
CONTINUOUS
10
144.395
20
-113.105
11
108.331
21
-113.105
0
LINE
8
BLACK
6
CONTINUOUS
10
108.331
20
-113.105
11
108.326
21
-113.105
0
LINE
8
BLACK
6
CONTINUOUS
10
108.326
20
-113.105
11
108.091
21
-113.13
0
LINE
8
BLACK
6
CONTINUOUS
10
108.091
20
-113.13
11
107.868
21
-113.199
0
LINE
8
BLACK
6
CONTINUOUS
10
107.868
20
-113.199
11
107.663
21
-113.31
0
LINE
8
BLACK
6
CONTINUOUS
10
107.663
20
-113.31
11
107.483
21
-113.458
0
LINE
8
BLACK
6
CONTINUOUS
10
107.483
20
-113.458
11
107.336
21
-113.639
0
LINE
8
BLACK
6
CONTINUOUS
10
107.336
20
-113.639
11
107.227
21
-113.845
0
LINE
8
BLACK
6
CONTINUOUS
10
107.227
20
-113.845
11
107.159
21
-114.068
0
LINE
8
BLACK
6
CONTINUOUS
10
107.159
20
-114.068
11
107.136
21
-114.304
0
LINE
8
BLACK
6
CONTINUOUS
10
107.136
20
-114.304
11
107.136
21
-120.908
0
LINE
8
BLACK
6
CONTINUOUS
10
107.136
20
-120.908
11
107.136
21
-120.911
0
LINE
8
BLACK
6
CONTINUOUS
10
107.136
20
-120.911
11
107.136
21
-120.911
0
LINE
8
BLACK
6
CONTINUOUS
10
107.136
20
-120.911
11
107.111
21
-121.158
0
LINE
8
BLACK
6
CONTINUOUS
10
107.111
20
-121.158
11
107.111
21
-121.158
0
LINE
8
BLACK
6
CONTINUOUS
10
107.111
20
-121.158
11
107.111
21
-121.158
0
LINE
8
BLACK
6
CONTINUOUS
10
107.111
20
-121.158
11
107.111
21
-121.159
0
LINE
8
BLACK
6
CONTINUOUS
10
107.111
20
-121.159
11
107.11
21
-121.166
0
LINE
8
BLACK
6
CONTINUOUS
10
107.11
20
-121.166
11
107.109
21
-121.172
0
LINE
8
BLACK
6
CONTINUOUS
10
107.109
20
-121.172
11
107.037
21
-121.41
0
LINE
8
BLACK
6
CONTINUOUS
10
107.037
20
-121.41
11
107.037
21
-121.411
0
LINE
8
BLACK
6
CONTINUOUS
10
107.037
20
-121.411
11
107.034
21
-121.417
0
LINE
8
BLACK
6
CONTINUOUS
10
107.034
20
-121.417
11
107.031
21
-121.423
0
LINE
8
BLACK
6
CONTINUOUS
10
107.031
20
-121.423
11
106.915
21
-121.642
0
LINE
8
BLACK
6
CONTINUOUS
10
106.915
20
-121.642
11
106.915
21
-121.642
0
LINE
8
BLACK
6
CONTINUOUS
10
106.915
20
-121.642
11
106.915
21
-121.642
0
LINE
8
BLACK
6
CONTINUOUS
10
106.915
20
-121.642
11
106.915
21
-121.643
0
LINE
8
BLACK
6
CONTINUOUS
10
106.915
20
-121.643
11
106.911
21
-121.649
0
LINE
8
BLACK
6
CONTINUOUS
10
106.911
20
-121.649
11
106.907
21
-121.654
0
LINE
8
BLACK
6
CONTINUOUS
10
106.907
20
-121.654
11
106.75
21
-121.846
0
LINE
8
BLACK
6
CONTINUOUS
10
106.75
20
-121.846
11
106.75
21
-121.847
0
LINE
8
BLACK
6
CONTINUOUS
10
106.75
20
-121.847
11
106.745
21
-121.852
0
LINE
8
BLACK
6
CONTINUOUS
10
106.745
20
-121.852
11
106.74
21
-121.857
0
LINE
8
BLACK
6
CONTINUOUS
10
106.74
20
-121.857
11
106.549
21
-122.015
0
LINE
8
BLACK
6
CONTINUOUS
10
106.549
20
-122.015
11
106.549
21
-122.015
0
LINE
8
BLACK
6
CONTINUOUS
10
106.549
20
-122.015
11
106.549
21
-122.015
0
LINE
8
BLACK
6
CONTINUOUS
10
106.549
20
-122.015
11
106.548
21
-122.015
0
LINE
8
BLACK
6
CONTINUOUS
10
106.548
20
-122.015
11
106.543
21
-122.019
0
LINE
8
BLACK
6
CONTINUOUS
10
106.543
20
-122.019
11
106.537
21
-122.023
0
LINE
8
BLACK
6
CONTINUOUS
10
106.537
20
-122.023
11
106.319
21
-122.141
0
LINE
8
BLACK
6
CONTINUOUS
10
106.319
20
-122.141
11
106.319
21
-122.141
0
LINE
8
BLACK
6
CONTINUOUS
10
106.319
20
-122.141
11
106.319
21
-122.141
0
LINE
8
BLACK
6
CONTINUOUS
10
106.319
20
-122.141
11
106.318
21
-122.141
0
LINE
8
BLACK
6
CONTINUOUS
10
106.318
20
-122.141
11
106.312
21
-122.144
0
LINE
8
BLACK
6
CONTINUOUS
10
106.312
20
-122.144
11
106.305
21
-122.146
0
LINE
8
BLACK
6
CONTINUOUS
10
106.305
20
-122.146
11
106.069
21
-122.22
0
LINE
8
BLACK
6
CONTINUOUS
10
106.069
20
-122.22
11
106.069
21
-122.22
0
LINE
8
BLACK
6
CONTINUOUS
10
106.069
20
-122.22
11
106.068
21
-122.22
  0
ENDSEC
  0
EOF
