G04 #@! TF.GenerationSoftware,KiCad,Pcbnew,(5.1.12)-1*
G04 #@! TF.CreationDate,2022-03-08T21:56:06+00:00*
G04 #@! TF.ProjectId,RGBtoHDMI CDTV v2 - Mouse and Joystick Adapter,52474274-6f48-4444-9d49-204344545620,v2*
G04 #@! TF.SameCoordinates,Original*
G04 #@! TF.FileFunction,Legend,Top*
G04 #@! TF.FilePolarity,Positive*
%FSLAX46Y46*%
G04 Gerber Fmt 4.6, Leading zero omitted, Abs format (unit mm)*
G04 Created by KiCad (PCBNEW (5.1.12)-1) date 2022-03-08 21:56:06*
%MOMM*%
%LPD*%
G01*
G04 APERTURE LIST*
%ADD10C,0.100000*%
%ADD11C,0.150000*%
%ADD12C,0.120000*%
%ADD13C,0.254000*%
%ADD14C,0.200000*%
G04 APERTURE END LIST*
D10*
X115648333Y-115991309D02*
X115648333Y-115441309D01*
X115857857Y-115441309D01*
X115910238Y-115467500D01*
X115936428Y-115493690D01*
X115962619Y-115546071D01*
X115962619Y-115624642D01*
X115936428Y-115677023D01*
X115910238Y-115703214D01*
X115857857Y-115729404D01*
X115648333Y-115729404D01*
X116276904Y-115991309D02*
X116224523Y-115965119D01*
X116198333Y-115938928D01*
X116172142Y-115886547D01*
X116172142Y-115729404D01*
X116198333Y-115677023D01*
X116224523Y-115650833D01*
X116276904Y-115624642D01*
X116355476Y-115624642D01*
X116407857Y-115650833D01*
X116434047Y-115677023D01*
X116460238Y-115729404D01*
X116460238Y-115886547D01*
X116434047Y-115938928D01*
X116407857Y-115965119D01*
X116355476Y-115991309D01*
X116276904Y-115991309D01*
X116695952Y-115991309D02*
X116695952Y-115624642D01*
X116695952Y-115729404D02*
X116722142Y-115677023D01*
X116748333Y-115650833D01*
X116800714Y-115624642D01*
X116853095Y-115624642D01*
X116957857Y-115624642D02*
X117167380Y-115624642D01*
X117036428Y-115441309D02*
X117036428Y-115912738D01*
X117062619Y-115965119D01*
X117115000Y-115991309D01*
X117167380Y-115991309D01*
X117743571Y-115493690D02*
X117769761Y-115467500D01*
X117822142Y-115441309D01*
X117953095Y-115441309D01*
X118005476Y-115467500D01*
X118031666Y-115493690D01*
X118057857Y-115546071D01*
X118057857Y-115598452D01*
X118031666Y-115677023D01*
X117717380Y-115991309D01*
X118057857Y-115991309D01*
X115491190Y-116366309D02*
X115491190Y-116759166D01*
X115465000Y-116837738D01*
X115412619Y-116890119D01*
X115334047Y-116916309D01*
X115281666Y-116916309D01*
X115831666Y-116916309D02*
X115779285Y-116890119D01*
X115753095Y-116863928D01*
X115726904Y-116811547D01*
X115726904Y-116654404D01*
X115753095Y-116602023D01*
X115779285Y-116575833D01*
X115831666Y-116549642D01*
X115910238Y-116549642D01*
X115962619Y-116575833D01*
X115988809Y-116602023D01*
X116015000Y-116654404D01*
X116015000Y-116811547D01*
X115988809Y-116863928D01*
X115962619Y-116890119D01*
X115910238Y-116916309D01*
X115831666Y-116916309D01*
X116198333Y-116549642D02*
X116329285Y-116916309D01*
X116460238Y-116549642D02*
X116329285Y-116916309D01*
X116276904Y-117047261D01*
X116250714Y-117073452D01*
X116198333Y-117099642D01*
X116643571Y-116890119D02*
X116695952Y-116916309D01*
X116800714Y-116916309D01*
X116853095Y-116890119D01*
X116879285Y-116837738D01*
X116879285Y-116811547D01*
X116853095Y-116759166D01*
X116800714Y-116732976D01*
X116722142Y-116732976D01*
X116669761Y-116706785D01*
X116643571Y-116654404D01*
X116643571Y-116628214D01*
X116669761Y-116575833D01*
X116722142Y-116549642D01*
X116800714Y-116549642D01*
X116853095Y-116575833D01*
X117036428Y-116549642D02*
X117245952Y-116549642D01*
X117115000Y-116366309D02*
X117115000Y-116837738D01*
X117141190Y-116890119D01*
X117193571Y-116916309D01*
X117245952Y-116916309D01*
X117429285Y-116916309D02*
X117429285Y-116549642D01*
X117429285Y-116366309D02*
X117403095Y-116392500D01*
X117429285Y-116418690D01*
X117455476Y-116392500D01*
X117429285Y-116366309D01*
X117429285Y-116418690D01*
X117926904Y-116890119D02*
X117874523Y-116916309D01*
X117769761Y-116916309D01*
X117717380Y-116890119D01*
X117691190Y-116863928D01*
X117665000Y-116811547D01*
X117665000Y-116654404D01*
X117691190Y-116602023D01*
X117717380Y-116575833D01*
X117769761Y-116549642D01*
X117874523Y-116549642D01*
X117926904Y-116575833D01*
X118162619Y-116916309D02*
X118162619Y-116366309D01*
X118215000Y-116706785D02*
X118372142Y-116916309D01*
X118372142Y-116549642D02*
X118162619Y-116759166D01*
X124538333Y-115991309D02*
X124538333Y-115441309D01*
X124747857Y-115441309D01*
X124800238Y-115467500D01*
X124826428Y-115493690D01*
X124852619Y-115546071D01*
X124852619Y-115624642D01*
X124826428Y-115677023D01*
X124800238Y-115703214D01*
X124747857Y-115729404D01*
X124538333Y-115729404D01*
X125166904Y-115991309D02*
X125114523Y-115965119D01*
X125088333Y-115938928D01*
X125062142Y-115886547D01*
X125062142Y-115729404D01*
X125088333Y-115677023D01*
X125114523Y-115650833D01*
X125166904Y-115624642D01*
X125245476Y-115624642D01*
X125297857Y-115650833D01*
X125324047Y-115677023D01*
X125350238Y-115729404D01*
X125350238Y-115886547D01*
X125324047Y-115938928D01*
X125297857Y-115965119D01*
X125245476Y-115991309D01*
X125166904Y-115991309D01*
X125585952Y-115991309D02*
X125585952Y-115624642D01*
X125585952Y-115729404D02*
X125612142Y-115677023D01*
X125638333Y-115650833D01*
X125690714Y-115624642D01*
X125743095Y-115624642D01*
X125847857Y-115624642D02*
X126057380Y-115624642D01*
X125926428Y-115441309D02*
X125926428Y-115912738D01*
X125952619Y-115965119D01*
X126005000Y-115991309D01*
X126057380Y-115991309D01*
X126947857Y-115991309D02*
X126633571Y-115991309D01*
X126790714Y-115991309D02*
X126790714Y-115441309D01*
X126738333Y-115519880D01*
X126685952Y-115572261D01*
X126633571Y-115598452D01*
X124590714Y-116916309D02*
X124590714Y-116366309D01*
X124774047Y-116759166D01*
X124957380Y-116366309D01*
X124957380Y-116916309D01*
X125297857Y-116916309D02*
X125245476Y-116890119D01*
X125219285Y-116863928D01*
X125193095Y-116811547D01*
X125193095Y-116654404D01*
X125219285Y-116602023D01*
X125245476Y-116575833D01*
X125297857Y-116549642D01*
X125376428Y-116549642D01*
X125428809Y-116575833D01*
X125455000Y-116602023D01*
X125481190Y-116654404D01*
X125481190Y-116811547D01*
X125455000Y-116863928D01*
X125428809Y-116890119D01*
X125376428Y-116916309D01*
X125297857Y-116916309D01*
X125952619Y-116549642D02*
X125952619Y-116916309D01*
X125716904Y-116549642D02*
X125716904Y-116837738D01*
X125743095Y-116890119D01*
X125795476Y-116916309D01*
X125874047Y-116916309D01*
X125926428Y-116890119D01*
X125952619Y-116863928D01*
X126188333Y-116890119D02*
X126240714Y-116916309D01*
X126345476Y-116916309D01*
X126397857Y-116890119D01*
X126424047Y-116837738D01*
X126424047Y-116811547D01*
X126397857Y-116759166D01*
X126345476Y-116732976D01*
X126266904Y-116732976D01*
X126214523Y-116706785D01*
X126188333Y-116654404D01*
X126188333Y-116628214D01*
X126214523Y-116575833D01*
X126266904Y-116549642D01*
X126345476Y-116549642D01*
X126397857Y-116575833D01*
X126869285Y-116890119D02*
X126816904Y-116916309D01*
X126712142Y-116916309D01*
X126659761Y-116890119D01*
X126633571Y-116837738D01*
X126633571Y-116628214D01*
X126659761Y-116575833D01*
X126712142Y-116549642D01*
X126816904Y-116549642D01*
X126869285Y-116575833D01*
X126895476Y-116628214D01*
X126895476Y-116680595D01*
X126633571Y-116732976D01*
X115295000Y-121831047D02*
X115268809Y-121883428D01*
X115268809Y-121962000D01*
X115295000Y-122040571D01*
X115347380Y-122092952D01*
X115399761Y-122119142D01*
X115504523Y-122145333D01*
X115583095Y-122145333D01*
X115687857Y-122119142D01*
X115740238Y-122092952D01*
X115792619Y-122040571D01*
X115818809Y-121962000D01*
X115818809Y-121909619D01*
X115792619Y-121831047D01*
X115766428Y-121804857D01*
X115583095Y-121804857D01*
X115583095Y-121909619D01*
X115818809Y-121569142D02*
X115268809Y-121569142D01*
X115818809Y-121254857D01*
X115268809Y-121254857D01*
X115818809Y-120992952D02*
X115268809Y-120992952D01*
X115268809Y-120862000D01*
X115295000Y-120783428D01*
X115347380Y-120731047D01*
X115399761Y-120704857D01*
X115504523Y-120678666D01*
X115583095Y-120678666D01*
X115687857Y-120704857D01*
X115740238Y-120731047D01*
X115792619Y-120783428D01*
X115818809Y-120862000D01*
X115818809Y-120992952D01*
X113704285Y-122119142D02*
X113704285Y-121700095D01*
X113913809Y-121909619D02*
X113494761Y-121909619D01*
X113363809Y-121176285D02*
X113363809Y-121438190D01*
X113625714Y-121464380D01*
X113599523Y-121438190D01*
X113573333Y-121385809D01*
X113573333Y-121254857D01*
X113599523Y-121202476D01*
X113625714Y-121176285D01*
X113678095Y-121150095D01*
X113809047Y-121150095D01*
X113861428Y-121176285D01*
X113887619Y-121202476D01*
X113913809Y-121254857D01*
X113913809Y-121385809D01*
X113887619Y-121438190D01*
X113861428Y-121464380D01*
X113363809Y-120992952D02*
X113913809Y-120809619D01*
X113363809Y-120626285D01*
X144198571Y-120471285D02*
X144198571Y-119899857D01*
X144484285Y-120185571D02*
X143912857Y-120185571D01*
X143734285Y-119185571D02*
X143734285Y-119542714D01*
X144091428Y-119578428D01*
X144055714Y-119542714D01*
X144020000Y-119471285D01*
X144020000Y-119292714D01*
X144055714Y-119221285D01*
X144091428Y-119185571D01*
X144162857Y-119149857D01*
X144341428Y-119149857D01*
X144412857Y-119185571D01*
X144448571Y-119221285D01*
X144484285Y-119292714D01*
X144484285Y-119471285D01*
X144448571Y-119542714D01*
X144412857Y-119578428D01*
X143734285Y-118935571D02*
X144484285Y-118685571D01*
X143734285Y-118435571D01*
X141230000Y-119951428D02*
X141194285Y-120022857D01*
X141194285Y-120130000D01*
X141230000Y-120237142D01*
X141301428Y-120308571D01*
X141372857Y-120344285D01*
X141515714Y-120380000D01*
X141622857Y-120380000D01*
X141765714Y-120344285D01*
X141837142Y-120308571D01*
X141908571Y-120237142D01*
X141944285Y-120130000D01*
X141944285Y-120058571D01*
X141908571Y-119951428D01*
X141872857Y-119915714D01*
X141622857Y-119915714D01*
X141622857Y-120058571D01*
X141944285Y-119594285D02*
X141194285Y-119594285D01*
X141944285Y-119165714D01*
X141194285Y-119165714D01*
X141944285Y-118808571D02*
X141194285Y-118808571D01*
X141194285Y-118630000D01*
X141230000Y-118522857D01*
X141301428Y-118451428D01*
X141372857Y-118415714D01*
X141515714Y-118380000D01*
X141622857Y-118380000D01*
X141765714Y-118415714D01*
X141837142Y-118451428D01*
X141908571Y-118522857D01*
X141944285Y-118630000D01*
X141944285Y-118808571D01*
X136798809Y-122300761D02*
X136798809Y-121919809D01*
X136751190Y-121800761D02*
X136251190Y-121800761D01*
X136751190Y-121515047D02*
X136465476Y-121729333D01*
X136251190Y-121515047D02*
X136536904Y-121800761D01*
X136489285Y-121134095D02*
X136513095Y-121062666D01*
X136536904Y-121038857D01*
X136584523Y-121015047D01*
X136655952Y-121015047D01*
X136703571Y-121038857D01*
X136727380Y-121062666D01*
X136751190Y-121110285D01*
X136751190Y-121300761D01*
X136251190Y-121300761D01*
X136251190Y-121134095D01*
X136275000Y-121086476D01*
X136298809Y-121062666D01*
X136346428Y-121038857D01*
X136394047Y-121038857D01*
X136441666Y-121062666D01*
X136465476Y-121086476D01*
X136489285Y-121134095D01*
X136489285Y-121300761D01*
X136703571Y-120515047D02*
X136727380Y-120538857D01*
X136751190Y-120610285D01*
X136751190Y-120657904D01*
X136727380Y-120729333D01*
X136679761Y-120776952D01*
X136632142Y-120800761D01*
X136536904Y-120824571D01*
X136465476Y-120824571D01*
X136370238Y-120800761D01*
X136322619Y-120776952D01*
X136275000Y-120729333D01*
X136251190Y-120657904D01*
X136251190Y-120610285D01*
X136275000Y-120538857D01*
X136298809Y-120515047D01*
X136751190Y-120062666D02*
X136751190Y-120300761D01*
X136251190Y-120300761D01*
X136251190Y-119800761D02*
X136251190Y-119705523D01*
X136275000Y-119657904D01*
X136322619Y-119610285D01*
X136417857Y-119586476D01*
X136584523Y-119586476D01*
X136679761Y-119610285D01*
X136727380Y-119657904D01*
X136751190Y-119705523D01*
X136751190Y-119800761D01*
X136727380Y-119848380D01*
X136679761Y-119896000D01*
X136584523Y-119919809D01*
X136417857Y-119919809D01*
X136322619Y-119896000D01*
X136275000Y-119848380D01*
X136251190Y-119800761D01*
X136703571Y-119086476D02*
X136727380Y-119110285D01*
X136751190Y-119181714D01*
X136751190Y-119229333D01*
X136727380Y-119300761D01*
X136679761Y-119348380D01*
X136632142Y-119372190D01*
X136536904Y-119396000D01*
X136465476Y-119396000D01*
X136370238Y-119372190D01*
X136322619Y-119348380D01*
X136275000Y-119300761D01*
X136251190Y-119229333D01*
X136251190Y-119181714D01*
X136275000Y-119110285D01*
X136298809Y-119086476D01*
X136751190Y-118872190D02*
X136251190Y-118872190D01*
X136751190Y-118586476D02*
X136465476Y-118800761D01*
X136251190Y-118586476D02*
X136536904Y-118872190D01*
X139393571Y-122013428D02*
X139393571Y-121556285D01*
X139336428Y-121413428D02*
X138736428Y-121413428D01*
X139336428Y-121070571D02*
X138993571Y-121327714D01*
X138736428Y-121070571D02*
X139079285Y-121413428D01*
X139022142Y-120613428D02*
X139050714Y-120527714D01*
X139079285Y-120499142D01*
X139136428Y-120470571D01*
X139222142Y-120470571D01*
X139279285Y-120499142D01*
X139307857Y-120527714D01*
X139336428Y-120584857D01*
X139336428Y-120813428D01*
X138736428Y-120813428D01*
X138736428Y-120613428D01*
X138765000Y-120556285D01*
X138793571Y-120527714D01*
X138850714Y-120499142D01*
X138907857Y-120499142D01*
X138965000Y-120527714D01*
X138993571Y-120556285D01*
X139022142Y-120613428D01*
X139022142Y-120813428D01*
X139336428Y-120213428D02*
X138736428Y-120213428D01*
X138736428Y-120070571D01*
X138765000Y-119984857D01*
X138822142Y-119927714D01*
X138879285Y-119899142D01*
X138993571Y-119870571D01*
X139079285Y-119870571D01*
X139193571Y-119899142D01*
X139250714Y-119927714D01*
X139307857Y-119984857D01*
X139336428Y-120070571D01*
X139336428Y-120213428D01*
X139165000Y-119642000D02*
X139165000Y-119356285D01*
X139336428Y-119699142D02*
X138736428Y-119499142D01*
X139336428Y-119299142D01*
X138736428Y-119184857D02*
X138736428Y-118842000D01*
X139336428Y-119013428D02*
X138736428Y-119013428D01*
X139165000Y-118670571D02*
X139165000Y-118384857D01*
X139336428Y-118727714D02*
X138736428Y-118527714D01*
X139336428Y-118327714D01*
D11*
X100133476Y-135578809D02*
X100209666Y-135616904D01*
X100362047Y-135616904D01*
X100438238Y-135578809D01*
X100476333Y-135502619D01*
X100476333Y-135464523D01*
X100438238Y-135388333D01*
X100362047Y-135350238D01*
X100247761Y-135350238D01*
X100171571Y-135312142D01*
X100133476Y-135235952D01*
X100133476Y-135197857D01*
X100171571Y-135121666D01*
X100247761Y-135083571D01*
X100362047Y-135083571D01*
X100438238Y-135121666D01*
X100933476Y-135616904D02*
X100857285Y-135578809D01*
X100819190Y-135540714D01*
X100781095Y-135464523D01*
X100781095Y-135235952D01*
X100819190Y-135159761D01*
X100857285Y-135121666D01*
X100933476Y-135083571D01*
X101047761Y-135083571D01*
X101123952Y-135121666D01*
X101162047Y-135159761D01*
X101200142Y-135235952D01*
X101200142Y-135464523D01*
X101162047Y-135540714D01*
X101123952Y-135578809D01*
X101047761Y-135616904D01*
X100933476Y-135616904D01*
X101657285Y-135616904D02*
X101581095Y-135578809D01*
X101543000Y-135502619D01*
X101543000Y-134816904D01*
X102304904Y-135616904D02*
X102304904Y-135197857D01*
X102266809Y-135121666D01*
X102190619Y-135083571D01*
X102038238Y-135083571D01*
X101962047Y-135121666D01*
X102304904Y-135578809D02*
X102228714Y-135616904D01*
X102038238Y-135616904D01*
X101962047Y-135578809D01*
X101923952Y-135502619D01*
X101923952Y-135426428D01*
X101962047Y-135350238D01*
X102038238Y-135312142D01*
X102228714Y-135312142D01*
X102304904Y-135274047D01*
X102685857Y-135616904D02*
X102685857Y-135083571D01*
X102685857Y-135235952D02*
X102723952Y-135159761D01*
X102762047Y-135121666D01*
X102838238Y-135083571D01*
X102914428Y-135083571D01*
X103181095Y-135616904D02*
X103181095Y-135083571D01*
X103181095Y-135159761D02*
X103219190Y-135121666D01*
X103295380Y-135083571D01*
X103409666Y-135083571D01*
X103485857Y-135121666D01*
X103523952Y-135197857D01*
X103523952Y-135616904D01*
X103523952Y-135197857D02*
X103562047Y-135121666D01*
X103638238Y-135083571D01*
X103752523Y-135083571D01*
X103828714Y-135121666D01*
X103866809Y-135197857D01*
X103866809Y-135616904D01*
X104362047Y-135616904D02*
X104285857Y-135578809D01*
X104247761Y-135540714D01*
X104209666Y-135464523D01*
X104209666Y-135235952D01*
X104247761Y-135159761D01*
X104285857Y-135121666D01*
X104362047Y-135083571D01*
X104476333Y-135083571D01*
X104552523Y-135121666D01*
X104590619Y-135159761D01*
X104628714Y-135235952D01*
X104628714Y-135464523D01*
X104590619Y-135540714D01*
X104552523Y-135578809D01*
X104476333Y-135616904D01*
X104362047Y-135616904D01*
X104971571Y-135083571D02*
X104971571Y-135616904D01*
X104971571Y-135159761D02*
X105009666Y-135121666D01*
X105085857Y-135083571D01*
X105200142Y-135083571D01*
X105276333Y-135121666D01*
X105314428Y-135197857D01*
X105314428Y-135616904D01*
D10*
X117079285Y-129370142D02*
X116779285Y-128941571D01*
X116565000Y-129370142D02*
X116565000Y-128470142D01*
X116907857Y-128470142D01*
X116993571Y-128513000D01*
X117036428Y-128555857D01*
X117079285Y-128641571D01*
X117079285Y-128770142D01*
X117036428Y-128855857D01*
X116993571Y-128898714D01*
X116907857Y-128941571D01*
X116565000Y-128941571D01*
X117936428Y-128513000D02*
X117850714Y-128470142D01*
X117722142Y-128470142D01*
X117593571Y-128513000D01*
X117507857Y-128598714D01*
X117465000Y-128684428D01*
X117422142Y-128855857D01*
X117422142Y-128984428D01*
X117465000Y-129155857D01*
X117507857Y-129241571D01*
X117593571Y-129327285D01*
X117722142Y-129370142D01*
X117807857Y-129370142D01*
X117936428Y-129327285D01*
X117979285Y-129284428D01*
X117979285Y-128984428D01*
X117807857Y-128984428D01*
X118665000Y-128898714D02*
X118793571Y-128941571D01*
X118836428Y-128984428D01*
X118879285Y-129070142D01*
X118879285Y-129198714D01*
X118836428Y-129284428D01*
X118793571Y-129327285D01*
X118707857Y-129370142D01*
X118365000Y-129370142D01*
X118365000Y-128470142D01*
X118665000Y-128470142D01*
X118750714Y-128513000D01*
X118793571Y-128555857D01*
X118836428Y-128641571D01*
X118836428Y-128727285D01*
X118793571Y-128813000D01*
X118750714Y-128855857D01*
X118665000Y-128898714D01*
X118365000Y-128898714D01*
X119136428Y-128770142D02*
X119479285Y-128770142D01*
X119265000Y-128470142D02*
X119265000Y-129241571D01*
X119307857Y-129327285D01*
X119393571Y-129370142D01*
X119479285Y-129370142D01*
X119907857Y-129370142D02*
X119822142Y-129327285D01*
X119779285Y-129284428D01*
X119736428Y-129198714D01*
X119736428Y-128941571D01*
X119779285Y-128855857D01*
X119822142Y-128813000D01*
X119907857Y-128770142D01*
X120036428Y-128770142D01*
X120122142Y-128813000D01*
X120165000Y-128855857D01*
X120207857Y-128941571D01*
X120207857Y-129198714D01*
X120165000Y-129284428D01*
X120122142Y-129327285D01*
X120036428Y-129370142D01*
X119907857Y-129370142D01*
X120593571Y-129370142D02*
X120593571Y-128470142D01*
X120593571Y-128898714D02*
X121107857Y-128898714D01*
X121107857Y-129370142D02*
X121107857Y-128470142D01*
X121536428Y-129370142D02*
X121536428Y-128470142D01*
X121750714Y-128470142D01*
X121879285Y-128513000D01*
X121965000Y-128598714D01*
X122007857Y-128684428D01*
X122050714Y-128855857D01*
X122050714Y-128984428D01*
X122007857Y-129155857D01*
X121965000Y-129241571D01*
X121879285Y-129327285D01*
X121750714Y-129370142D01*
X121536428Y-129370142D01*
X122436428Y-129370142D02*
X122436428Y-128470142D01*
X122736428Y-129113000D01*
X123036428Y-128470142D01*
X123036428Y-129370142D01*
X123465000Y-129370142D02*
X123465000Y-128470142D01*
X117657857Y-130734428D02*
X117615000Y-130777285D01*
X117486428Y-130820142D01*
X117400714Y-130820142D01*
X117272142Y-130777285D01*
X117186428Y-130691571D01*
X117143571Y-130605857D01*
X117100714Y-130434428D01*
X117100714Y-130305857D01*
X117143571Y-130134428D01*
X117186428Y-130048714D01*
X117272142Y-129963000D01*
X117400714Y-129920142D01*
X117486428Y-129920142D01*
X117615000Y-129963000D01*
X117657857Y-130005857D01*
X118043571Y-130820142D02*
X118043571Y-129920142D01*
X118257857Y-129920142D01*
X118386428Y-129963000D01*
X118472142Y-130048714D01*
X118515000Y-130134428D01*
X118557857Y-130305857D01*
X118557857Y-130434428D01*
X118515000Y-130605857D01*
X118472142Y-130691571D01*
X118386428Y-130777285D01*
X118257857Y-130820142D01*
X118043571Y-130820142D01*
X118815000Y-129920142D02*
X119329285Y-129920142D01*
X119072142Y-130820142D02*
X119072142Y-129920142D01*
X119500714Y-129920142D02*
X119800714Y-130820142D01*
X120100714Y-129920142D01*
X121000714Y-130220142D02*
X121215000Y-130820142D01*
X121429285Y-130220142D01*
X121729285Y-130005857D02*
X121772142Y-129963000D01*
X121857857Y-129920142D01*
X122072142Y-129920142D01*
X122157857Y-129963000D01*
X122200714Y-130005857D01*
X122243571Y-130091571D01*
X122243571Y-130177285D01*
X122200714Y-130305857D01*
X121686428Y-130820142D01*
X122243571Y-130820142D01*
X116586428Y-132270142D02*
X116586428Y-131370142D01*
X116886428Y-132013000D01*
X117186428Y-131370142D01*
X117186428Y-132270142D01*
X117743571Y-132270142D02*
X117657857Y-132227285D01*
X117615000Y-132184428D01*
X117572142Y-132098714D01*
X117572142Y-131841571D01*
X117615000Y-131755857D01*
X117657857Y-131713000D01*
X117743571Y-131670142D01*
X117872142Y-131670142D01*
X117957857Y-131713000D01*
X118000714Y-131755857D01*
X118043571Y-131841571D01*
X118043571Y-132098714D01*
X118000714Y-132184428D01*
X117957857Y-132227285D01*
X117872142Y-132270142D01*
X117743571Y-132270142D01*
X118815000Y-131670142D02*
X118815000Y-132270142D01*
X118429285Y-131670142D02*
X118429285Y-132141571D01*
X118472142Y-132227285D01*
X118557857Y-132270142D01*
X118686428Y-132270142D01*
X118772142Y-132227285D01*
X118815000Y-132184428D01*
X119200714Y-132227285D02*
X119286428Y-132270142D01*
X119457857Y-132270142D01*
X119543571Y-132227285D01*
X119586428Y-132141571D01*
X119586428Y-132098714D01*
X119543571Y-132013000D01*
X119457857Y-131970142D01*
X119329285Y-131970142D01*
X119243571Y-131927285D01*
X119200714Y-131841571D01*
X119200714Y-131798714D01*
X119243571Y-131713000D01*
X119329285Y-131670142D01*
X119457857Y-131670142D01*
X119543571Y-131713000D01*
X120315000Y-132227285D02*
X120229285Y-132270142D01*
X120057857Y-132270142D01*
X119972142Y-132227285D01*
X119929285Y-132141571D01*
X119929285Y-131798714D01*
X119972142Y-131713000D01*
X120057857Y-131670142D01*
X120229285Y-131670142D01*
X120315000Y-131713000D01*
X120357857Y-131798714D01*
X120357857Y-131884428D01*
X119929285Y-131970142D01*
X121815000Y-132270142D02*
X121815000Y-131798714D01*
X121772142Y-131713000D01*
X121686428Y-131670142D01*
X121515000Y-131670142D01*
X121429285Y-131713000D01*
X121815000Y-132227285D02*
X121729285Y-132270142D01*
X121515000Y-132270142D01*
X121429285Y-132227285D01*
X121386428Y-132141571D01*
X121386428Y-132055857D01*
X121429285Y-131970142D01*
X121515000Y-131927285D01*
X121729285Y-131927285D01*
X121815000Y-131884428D01*
X122243571Y-131670142D02*
X122243571Y-132270142D01*
X122243571Y-131755857D02*
X122286428Y-131713000D01*
X122372142Y-131670142D01*
X122500714Y-131670142D01*
X122586428Y-131713000D01*
X122629285Y-131798714D01*
X122629285Y-132270142D01*
X123443571Y-132270142D02*
X123443571Y-131370142D01*
X123443571Y-132227285D02*
X123357857Y-132270142D01*
X123186428Y-132270142D01*
X123100714Y-132227285D01*
X123057857Y-132184428D01*
X123015000Y-132098714D01*
X123015000Y-131841571D01*
X123057857Y-131755857D01*
X123100714Y-131713000D01*
X123186428Y-131670142D01*
X123357857Y-131670142D01*
X123443571Y-131713000D01*
X114936428Y-132820142D02*
X114936428Y-133463000D01*
X114893571Y-133591571D01*
X114807857Y-133677285D01*
X114679285Y-133720142D01*
X114593571Y-133720142D01*
X115493571Y-133720142D02*
X115407857Y-133677285D01*
X115365000Y-133634428D01*
X115322142Y-133548714D01*
X115322142Y-133291571D01*
X115365000Y-133205857D01*
X115407857Y-133163000D01*
X115493571Y-133120142D01*
X115622142Y-133120142D01*
X115707857Y-133163000D01*
X115750714Y-133205857D01*
X115793571Y-133291571D01*
X115793571Y-133548714D01*
X115750714Y-133634428D01*
X115707857Y-133677285D01*
X115622142Y-133720142D01*
X115493571Y-133720142D01*
X116093571Y-133120142D02*
X116307857Y-133720142D01*
X116522142Y-133120142D02*
X116307857Y-133720142D01*
X116222142Y-133934428D01*
X116179285Y-133977285D01*
X116093571Y-134020142D01*
X116822142Y-133677285D02*
X116907857Y-133720142D01*
X117079285Y-133720142D01*
X117165000Y-133677285D01*
X117207857Y-133591571D01*
X117207857Y-133548714D01*
X117165000Y-133463000D01*
X117079285Y-133420142D01*
X116950714Y-133420142D01*
X116865000Y-133377285D01*
X116822142Y-133291571D01*
X116822142Y-133248714D01*
X116865000Y-133163000D01*
X116950714Y-133120142D01*
X117079285Y-133120142D01*
X117165000Y-133163000D01*
X117465000Y-133120142D02*
X117807857Y-133120142D01*
X117593571Y-132820142D02*
X117593571Y-133591571D01*
X117636428Y-133677285D01*
X117722142Y-133720142D01*
X117807857Y-133720142D01*
X118107857Y-133720142D02*
X118107857Y-133120142D01*
X118107857Y-132820142D02*
X118065000Y-132863000D01*
X118107857Y-132905857D01*
X118150714Y-132863000D01*
X118107857Y-132820142D01*
X118107857Y-132905857D01*
X118922142Y-133677285D02*
X118836428Y-133720142D01*
X118665000Y-133720142D01*
X118579285Y-133677285D01*
X118536428Y-133634428D01*
X118493571Y-133548714D01*
X118493571Y-133291571D01*
X118536428Y-133205857D01*
X118579285Y-133163000D01*
X118665000Y-133120142D01*
X118836428Y-133120142D01*
X118922142Y-133163000D01*
X119307857Y-133720142D02*
X119307857Y-132820142D01*
X119393571Y-133377285D02*
X119650714Y-133720142D01*
X119650714Y-133120142D02*
X119307857Y-133463000D01*
X120679285Y-133463000D02*
X121107857Y-133463000D01*
X120593571Y-133720142D02*
X120893571Y-132820142D01*
X121193571Y-133720142D01*
X121879285Y-133720142D02*
X121879285Y-132820142D01*
X121879285Y-133677285D02*
X121793571Y-133720142D01*
X121622142Y-133720142D01*
X121536428Y-133677285D01*
X121493571Y-133634428D01*
X121450714Y-133548714D01*
X121450714Y-133291571D01*
X121493571Y-133205857D01*
X121536428Y-133163000D01*
X121622142Y-133120142D01*
X121793571Y-133120142D01*
X121879285Y-133163000D01*
X122693571Y-133720142D02*
X122693571Y-133248714D01*
X122650714Y-133163000D01*
X122565000Y-133120142D01*
X122393571Y-133120142D01*
X122307857Y-133163000D01*
X122693571Y-133677285D02*
X122607857Y-133720142D01*
X122393571Y-133720142D01*
X122307857Y-133677285D01*
X122265000Y-133591571D01*
X122265000Y-133505857D01*
X122307857Y-133420142D01*
X122393571Y-133377285D01*
X122607857Y-133377285D01*
X122693571Y-133334428D01*
X123122142Y-133120142D02*
X123122142Y-134020142D01*
X123122142Y-133163000D02*
X123207857Y-133120142D01*
X123379285Y-133120142D01*
X123465000Y-133163000D01*
X123507857Y-133205857D01*
X123550714Y-133291571D01*
X123550714Y-133548714D01*
X123507857Y-133634428D01*
X123465000Y-133677285D01*
X123379285Y-133720142D01*
X123207857Y-133720142D01*
X123122142Y-133677285D01*
X123807857Y-133120142D02*
X124150714Y-133120142D01*
X123936428Y-132820142D02*
X123936428Y-133591571D01*
X123979285Y-133677285D01*
X124065000Y-133720142D01*
X124150714Y-133720142D01*
X124793571Y-133677285D02*
X124707857Y-133720142D01*
X124536428Y-133720142D01*
X124450714Y-133677285D01*
X124407857Y-133591571D01*
X124407857Y-133248714D01*
X124450714Y-133163000D01*
X124536428Y-133120142D01*
X124707857Y-133120142D01*
X124793571Y-133163000D01*
X124836428Y-133248714D01*
X124836428Y-133334428D01*
X124407857Y-133420142D01*
X125222142Y-133720142D02*
X125222142Y-133120142D01*
X125222142Y-133291571D02*
X125265000Y-133205857D01*
X125307857Y-133163000D01*
X125393571Y-133120142D01*
X125479285Y-133120142D01*
X114829285Y-134698714D02*
X114957857Y-134741571D01*
X115000714Y-134784428D01*
X115043571Y-134870142D01*
X115043571Y-134998714D01*
X115000714Y-135084428D01*
X114957857Y-135127285D01*
X114872142Y-135170142D01*
X114529285Y-135170142D01*
X114529285Y-134270142D01*
X114829285Y-134270142D01*
X114915000Y-134313000D01*
X114957857Y-134355857D01*
X115000714Y-134441571D01*
X115000714Y-134527285D01*
X114957857Y-134613000D01*
X114915000Y-134655857D01*
X114829285Y-134698714D01*
X114529285Y-134698714D01*
X115815000Y-135170142D02*
X115815000Y-134698714D01*
X115772142Y-134613000D01*
X115686428Y-134570142D01*
X115515000Y-134570142D01*
X115429285Y-134613000D01*
X115815000Y-135127285D02*
X115729285Y-135170142D01*
X115515000Y-135170142D01*
X115429285Y-135127285D01*
X115386428Y-135041571D01*
X115386428Y-134955857D01*
X115429285Y-134870142D01*
X115515000Y-134827285D01*
X115729285Y-134827285D01*
X115815000Y-134784428D01*
X116200714Y-135127285D02*
X116286428Y-135170142D01*
X116457857Y-135170142D01*
X116543571Y-135127285D01*
X116586428Y-135041571D01*
X116586428Y-134998714D01*
X116543571Y-134913000D01*
X116457857Y-134870142D01*
X116329285Y-134870142D01*
X116243571Y-134827285D01*
X116200714Y-134741571D01*
X116200714Y-134698714D01*
X116243571Y-134613000D01*
X116329285Y-134570142D01*
X116457857Y-134570142D01*
X116543571Y-134613000D01*
X117315000Y-135127285D02*
X117229285Y-135170142D01*
X117057857Y-135170142D01*
X116972142Y-135127285D01*
X116929285Y-135041571D01*
X116929285Y-134698714D01*
X116972142Y-134613000D01*
X117057857Y-134570142D01*
X117229285Y-134570142D01*
X117315000Y-134613000D01*
X117357857Y-134698714D01*
X117357857Y-134784428D01*
X116929285Y-134870142D01*
X118129285Y-135170142D02*
X118129285Y-134270142D01*
X118129285Y-135127285D02*
X118043571Y-135170142D01*
X117872142Y-135170142D01*
X117786428Y-135127285D01*
X117743571Y-135084428D01*
X117700714Y-134998714D01*
X117700714Y-134741571D01*
X117743571Y-134655857D01*
X117786428Y-134613000D01*
X117872142Y-134570142D01*
X118043571Y-134570142D01*
X118129285Y-134613000D01*
X119372142Y-135170142D02*
X119286428Y-135127285D01*
X119243571Y-135084428D01*
X119200714Y-134998714D01*
X119200714Y-134741571D01*
X119243571Y-134655857D01*
X119286428Y-134613000D01*
X119372142Y-134570142D01*
X119500714Y-134570142D01*
X119586428Y-134613000D01*
X119629285Y-134655857D01*
X119672142Y-134741571D01*
X119672142Y-134998714D01*
X119629285Y-135084428D01*
X119586428Y-135127285D01*
X119500714Y-135170142D01*
X119372142Y-135170142D01*
X120057857Y-134570142D02*
X120057857Y-135170142D01*
X120057857Y-134655857D02*
X120100714Y-134613000D01*
X120186428Y-134570142D01*
X120315000Y-134570142D01*
X120400714Y-134613000D01*
X120443571Y-134698714D01*
X120443571Y-135170142D01*
X121943571Y-135170142D02*
X121943571Y-134270142D01*
X121943571Y-135127285D02*
X121857857Y-135170142D01*
X121686428Y-135170142D01*
X121600714Y-135127285D01*
X121557857Y-135084428D01*
X121515000Y-134998714D01*
X121515000Y-134741571D01*
X121557857Y-134655857D01*
X121600714Y-134613000D01*
X121686428Y-134570142D01*
X121857857Y-134570142D01*
X121943571Y-134613000D01*
X122715000Y-135127285D02*
X122629285Y-135170142D01*
X122457857Y-135170142D01*
X122372142Y-135127285D01*
X122329285Y-135041571D01*
X122329285Y-134698714D01*
X122372142Y-134613000D01*
X122457857Y-134570142D01*
X122629285Y-134570142D01*
X122715000Y-134613000D01*
X122757857Y-134698714D01*
X122757857Y-134784428D01*
X122329285Y-134870142D01*
X123100714Y-135127285D02*
X123186428Y-135170142D01*
X123357857Y-135170142D01*
X123443571Y-135127285D01*
X123486428Y-135041571D01*
X123486428Y-134998714D01*
X123443571Y-134913000D01*
X123357857Y-134870142D01*
X123229285Y-134870142D01*
X123143571Y-134827285D01*
X123100714Y-134741571D01*
X123100714Y-134698714D01*
X123143571Y-134613000D01*
X123229285Y-134570142D01*
X123357857Y-134570142D01*
X123443571Y-134613000D01*
X123872142Y-135170142D02*
X123872142Y-134570142D01*
X123872142Y-134270142D02*
X123829285Y-134313000D01*
X123872142Y-134355857D01*
X123915000Y-134313000D01*
X123872142Y-134270142D01*
X123872142Y-134355857D01*
X124686428Y-134570142D02*
X124686428Y-135298714D01*
X124643571Y-135384428D01*
X124600714Y-135427285D01*
X124515000Y-135470142D01*
X124386428Y-135470142D01*
X124300714Y-135427285D01*
X124686428Y-135127285D02*
X124600714Y-135170142D01*
X124429285Y-135170142D01*
X124343571Y-135127285D01*
X124300714Y-135084428D01*
X124257857Y-134998714D01*
X124257857Y-134741571D01*
X124300714Y-134655857D01*
X124343571Y-134613000D01*
X124429285Y-134570142D01*
X124600714Y-134570142D01*
X124686428Y-134613000D01*
X125115000Y-134570142D02*
X125115000Y-135170142D01*
X125115000Y-134655857D02*
X125157857Y-134613000D01*
X125243571Y-134570142D01*
X125372142Y-134570142D01*
X125457857Y-134613000D01*
X125500714Y-134698714D01*
X125500714Y-135170142D01*
X115150714Y-136620142D02*
X115150714Y-135720142D01*
X115150714Y-136063000D02*
X115236428Y-136020142D01*
X115407857Y-136020142D01*
X115493571Y-136063000D01*
X115536428Y-136105857D01*
X115579285Y-136191571D01*
X115579285Y-136448714D01*
X115536428Y-136534428D01*
X115493571Y-136577285D01*
X115407857Y-136620142D01*
X115236428Y-136620142D01*
X115150714Y-136577285D01*
X115879285Y-136020142D02*
X116093571Y-136620142D01*
X116307857Y-136020142D02*
X116093571Y-136620142D01*
X116007857Y-136834428D01*
X115965000Y-136877285D01*
X115879285Y-136920142D01*
X117336428Y-136620142D02*
X117336428Y-135720142D01*
X117679285Y-135720142D01*
X117765000Y-135763000D01*
X117807857Y-135805857D01*
X117850714Y-135891571D01*
X117850714Y-136020142D01*
X117807857Y-136105857D01*
X117765000Y-136148714D01*
X117679285Y-136191571D01*
X117336428Y-136191571D01*
X118236428Y-136620142D02*
X118236428Y-135720142D01*
X118579285Y-135720142D01*
X118665000Y-135763000D01*
X118707857Y-135805857D01*
X118750714Y-135891571D01*
X118750714Y-136020142D01*
X118707857Y-136105857D01*
X118665000Y-136148714D01*
X118579285Y-136191571D01*
X118236428Y-136191571D01*
X119136428Y-135720142D02*
X119136428Y-136448714D01*
X119179285Y-136534428D01*
X119222142Y-136577285D01*
X119307857Y-136620142D01*
X119479285Y-136620142D01*
X119565000Y-136577285D01*
X119607857Y-136534428D01*
X119650714Y-136448714D01*
X119650714Y-135720142D01*
X120079285Y-136620142D02*
X120079285Y-135720142D01*
X120079285Y-136148714D02*
X120593571Y-136148714D01*
X120593571Y-136620142D02*
X120593571Y-135720142D01*
X121665000Y-135677285D02*
X120893571Y-136834428D01*
X121965000Y-136620142D02*
X121965000Y-135720142D01*
X122265000Y-136363000D01*
X122565000Y-135720142D01*
X122565000Y-136620142D01*
X122950714Y-136363000D02*
X123379285Y-136363000D01*
X122865000Y-136620142D02*
X123165000Y-135720142D01*
X123465000Y-136620142D01*
X124065000Y-136148714D02*
X123765000Y-136148714D01*
X123765000Y-136620142D02*
X123765000Y-135720142D01*
X124193571Y-135720142D01*
X124493571Y-136363000D02*
X124922142Y-136363000D01*
X124407857Y-136620142D02*
X124707857Y-135720142D01*
X125007857Y-136620142D01*
D12*
X145535000Y-140759000D02*
X145535000Y-122639000D01*
X94495000Y-140759000D02*
X145535000Y-140759000D01*
X94495000Y-122639000D02*
X94495000Y-140759000D01*
X145535000Y-122639000D02*
X94495000Y-122639000D01*
X145475000Y-137759000D02*
X145475000Y-132699000D01*
X94555000Y-137759000D02*
X145475000Y-137759000D01*
X94555000Y-125639000D02*
X94555000Y-137759000D01*
X145475000Y-125639000D02*
X94555000Y-125639000D01*
X145475000Y-130699000D02*
X145475000Y-125639000D01*
X145475000Y-132699000D02*
G75*
G02*
X145475000Y-130699000I0J1000000D01*
G01*
X135195000Y-115654000D02*
X145475000Y-115654000D01*
X145475000Y-115654000D02*
X145475000Y-112994000D01*
X145475000Y-112994000D02*
X135195000Y-112994000D01*
X135195000Y-112994000D02*
X135195000Y-115654000D01*
X136145000Y-112994000D02*
X136145000Y-106994000D01*
X136145000Y-106994000D02*
X136905000Y-106994000D01*
X136905000Y-106994000D02*
X136905000Y-112994000D01*
X136205000Y-112994000D02*
X136205000Y-106994000D01*
X136325000Y-112994000D02*
X136325000Y-106994000D01*
X136445000Y-112994000D02*
X136445000Y-106994000D01*
X136565000Y-112994000D02*
X136565000Y-106994000D01*
X136685000Y-112994000D02*
X136685000Y-106994000D01*
X136805000Y-112994000D02*
X136805000Y-106994000D01*
X136145000Y-115984000D02*
X136145000Y-115654000D01*
X136905000Y-115984000D02*
X136905000Y-115654000D01*
X137795000Y-115654000D02*
X137795000Y-112994000D01*
X138685000Y-112994000D02*
X138685000Y-106994000D01*
X138685000Y-106994000D02*
X139445000Y-106994000D01*
X139445000Y-106994000D02*
X139445000Y-112994000D01*
X138685000Y-116051071D02*
X138685000Y-115654000D01*
X139445000Y-116051071D02*
X139445000Y-115654000D01*
X140335000Y-115654000D02*
X140335000Y-112994000D01*
X141225000Y-112994000D02*
X141225000Y-106994000D01*
X141225000Y-106994000D02*
X141985000Y-106994000D01*
X141985000Y-106994000D02*
X141985000Y-112994000D01*
X141225000Y-116051071D02*
X141225000Y-115654000D01*
X141985000Y-116051071D02*
X141985000Y-115654000D01*
X142875000Y-115654000D02*
X142875000Y-112994000D01*
X143765000Y-112994000D02*
X143765000Y-106994000D01*
X143765000Y-106994000D02*
X144525000Y-106994000D01*
X144525000Y-106994000D02*
X144525000Y-112994000D01*
X143765000Y-116051071D02*
X143765000Y-115654000D01*
X144525000Y-116051071D02*
X144525000Y-115654000D01*
X136525000Y-118364000D02*
X135255000Y-118364000D01*
X135255000Y-118364000D02*
X135255000Y-117094000D01*
D10*
X103251000Y-131318000D02*
X103886000Y-131318000D01*
G36*
X103251000Y-133223000D02*
G01*
X102616000Y-133223000D01*
X102616000Y-132588000D01*
X103251000Y-132588000D01*
X103251000Y-133223000D01*
G37*
X103251000Y-133223000D02*
X102616000Y-133223000D01*
X102616000Y-132588000D01*
X103251000Y-132588000D01*
X103251000Y-133223000D01*
G36*
X103886000Y-131318000D02*
G01*
X103251000Y-131318000D01*
X103251000Y-130683000D01*
X103886000Y-130683000D01*
X103886000Y-131318000D01*
G37*
X103886000Y-131318000D02*
X103251000Y-131318000D01*
X103251000Y-130683000D01*
X103886000Y-130683000D01*
X103886000Y-131318000D01*
G36*
X102616000Y-131318000D02*
G01*
X101981000Y-131318000D01*
X101981000Y-130683000D01*
X102616000Y-130683000D01*
X102616000Y-131318000D01*
G37*
X102616000Y-131318000D02*
X101981000Y-131318000D01*
X101981000Y-130683000D01*
X102616000Y-130683000D01*
X102616000Y-131318000D01*
X103251000Y-132588000D02*
X103251000Y-133223000D01*
X102616000Y-132588000D02*
X102616000Y-133223000D01*
X104521000Y-133858000D02*
X105156000Y-133858000D01*
X104521000Y-130683000D02*
X105156000Y-130683000D01*
X104521000Y-130048000D02*
X105156000Y-130048000D01*
X105156000Y-130048000D02*
X105156000Y-134493000D01*
X104521000Y-130048000D02*
X104521000Y-134493000D01*
X104521000Y-134493000D02*
X105156000Y-134493000D01*
X103251000Y-134493000D02*
X103886000Y-134493000D01*
X100711000Y-134493000D02*
X101346000Y-134493000D01*
X103251000Y-133858000D02*
X103251000Y-134493000D01*
X101346000Y-133858000D02*
X101346000Y-134493000D01*
X100711000Y-133858000D02*
X103886000Y-133858000D01*
X100076000Y-133223000D02*
X103886000Y-133223000D01*
X100076000Y-132588000D02*
X105156000Y-132588000D01*
X100076000Y-133223000D02*
X100076000Y-131953000D01*
X100076000Y-131953000D02*
X105156000Y-131953000D01*
X103251000Y-130683000D02*
X103251000Y-131318000D01*
X102616000Y-130683000D02*
X102616000Y-131318000D01*
X101981000Y-130683000D02*
X101981000Y-131953000D01*
X101346000Y-131318000D02*
X102616000Y-131318000D01*
X101346000Y-130683000D02*
X101346000Y-131318000D01*
X103886000Y-129413000D02*
X103886000Y-134493000D01*
X103251000Y-129413000D02*
X103251000Y-130048000D01*
X102616000Y-130048000D02*
X103251000Y-130048000D01*
X102616000Y-129413000D02*
X102616000Y-130048000D01*
X101981000Y-129413000D02*
X101981000Y-130048000D01*
X100711000Y-129413000D02*
X103886000Y-129413000D01*
X100076000Y-130683000D02*
X100076000Y-130048000D01*
X103886000Y-130683000D02*
X100076000Y-130683000D01*
X100711000Y-129413000D02*
X100711000Y-134493000D01*
X100076000Y-130048000D02*
X101981000Y-130048000D01*
D13*
X129667000Y-119380000D02*
G75*
G03*
X129667000Y-119380000I-127000J0D01*
G01*
X131255000Y-120015000D02*
X131255000Y-118616000D01*
X131255000Y-115154000D02*
X131255000Y-113030000D01*
X131255000Y-120015000D02*
X129046000Y-120015000D01*
X131255000Y-113030000D02*
X108775000Y-113030000D01*
X108775000Y-113030000D02*
X108775000Y-115154000D01*
X108775000Y-120015000D02*
X110984000Y-120015000D01*
X108775000Y-118616000D02*
X108775000Y-120015000D01*
D14*
X132778809Y-130603761D02*
X132778809Y-132222809D01*
X132874047Y-132413285D01*
X132969285Y-132508523D01*
X133159761Y-132603761D01*
X133540714Y-132603761D01*
X133731190Y-132508523D01*
X133826428Y-132413285D01*
X133921666Y-132222809D01*
X133921666Y-130603761D01*
X134683571Y-130603761D02*
X136016904Y-130603761D01*
X135159761Y-132603761D01*
X137731190Y-130603761D02*
X136778809Y-130603761D01*
X136683571Y-131556142D01*
X136778809Y-131460904D01*
X136969285Y-131365666D01*
X137445476Y-131365666D01*
X137635952Y-131460904D01*
X137731190Y-131556142D01*
X137826428Y-131746619D01*
X137826428Y-132222809D01*
X137731190Y-132413285D01*
X137635952Y-132508523D01*
X137445476Y-132603761D01*
X136969285Y-132603761D01*
X136778809Y-132508523D01*
X136683571Y-132413285D01*
D11*
X134596142Y-117784476D02*
X134643761Y-117832095D01*
X134691380Y-117974952D01*
X134691380Y-118070190D01*
X134643761Y-118213047D01*
X134548523Y-118308285D01*
X134453285Y-118355904D01*
X134262809Y-118403523D01*
X134119952Y-118403523D01*
X133929476Y-118355904D01*
X133834238Y-118308285D01*
X133739000Y-118213047D01*
X133691380Y-118070190D01*
X133691380Y-117974952D01*
X133739000Y-117832095D01*
X133786619Y-117784476D01*
X134691380Y-117355904D02*
X133691380Y-117355904D01*
X134691380Y-116784476D01*
X133691380Y-116784476D01*
X134691380Y-115784476D02*
X134691380Y-116355904D01*
X134691380Y-116070190D02*
X133691380Y-116070190D01*
X133834238Y-116165428D01*
X133929476Y-116260666D01*
X133977095Y-116355904D01*
X107841071Y-121104428D02*
X107591071Y-121104428D01*
X107591071Y-121497285D02*
X107591071Y-120747285D01*
X107948214Y-120747285D01*
X108483928Y-121104428D02*
X108233928Y-121104428D01*
X108233928Y-121497285D02*
X108233928Y-120747285D01*
X108591071Y-120747285D01*
X109305357Y-121425857D02*
X109269642Y-121461571D01*
X109162500Y-121497285D01*
X109091071Y-121497285D01*
X108983928Y-121461571D01*
X108912500Y-121390142D01*
X108876785Y-121318714D01*
X108841071Y-121175857D01*
X108841071Y-121068714D01*
X108876785Y-120925857D01*
X108912500Y-120854428D01*
X108983928Y-120783000D01*
X109091071Y-120747285D01*
X109162500Y-120747285D01*
X109269642Y-120783000D01*
X109305357Y-120818714D01*
X110019642Y-121497285D02*
X109591071Y-121497285D01*
X109805357Y-121497285D02*
X109805357Y-120747285D01*
X109733928Y-120854428D01*
X109662500Y-120925857D01*
X109591071Y-120961571D01*
X110448214Y-121068714D02*
X110376785Y-121033000D01*
X110341071Y-120997285D01*
X110305357Y-120925857D01*
X110305357Y-120890142D01*
X110341071Y-120818714D01*
X110376785Y-120783000D01*
X110448214Y-120747285D01*
X110591071Y-120747285D01*
X110662500Y-120783000D01*
X110698214Y-120818714D01*
X110733928Y-120890142D01*
X110733928Y-120925857D01*
X110698214Y-120997285D01*
X110662500Y-121033000D01*
X110591071Y-121068714D01*
X110448214Y-121068714D01*
X110376785Y-121104428D01*
X110341071Y-121140142D01*
X110305357Y-121211571D01*
X110305357Y-121354428D01*
X110341071Y-121425857D01*
X110376785Y-121461571D01*
X110448214Y-121497285D01*
X110591071Y-121497285D01*
X110662500Y-121461571D01*
X110698214Y-121425857D01*
X110733928Y-121354428D01*
X110733928Y-121211571D01*
X110698214Y-121140142D01*
X110662500Y-121104428D01*
X110591071Y-121068714D01*
M02*
