G04 #@! TF.GenerationSoftware,KiCad,Pcbnew,(5.1.12)-1*
G04 #@! TF.CreationDate,2022-03-08T21:56:06+00:00*
G04 #@! TF.ProjectId,RGBtoHDMI CDTV v2 - Mouse and Joystick Adapter,52474274-6f48-4444-9d49-204344545620,v2*
G04 #@! TF.SameCoordinates,Original*
G04 #@! TF.FileFunction,Soldermask,Top*
G04 #@! TF.FilePolarity,Negative*
%FSLAX46Y46*%
G04 Gerber Fmt 4.6, Leading zero omitted, Abs format (unit mm)*
G04 Created by KiCad (PCBNEW (5.1.12)-1) date 2022-03-08 21:56:06*
%MOMM*%
%LPD*%
G01*
G04 APERTURE LIST*
%ADD10C,0.100000*%
%ADD11O,1.900000X2.700000*%
%ADD12O,2.000000X2.000000*%
G04 APERTURE END LIST*
D10*
G36*
X105156000Y-132588000D02*
G01*
X104521000Y-132588000D01*
X104521000Y-131953000D01*
X105156000Y-131953000D01*
X105156000Y-132588000D01*
G37*
X105156000Y-132588000D02*
X104521000Y-132588000D01*
X104521000Y-131953000D01*
X105156000Y-131953000D01*
X105156000Y-132588000D01*
G36*
X103886000Y-134493000D02*
G01*
X103251000Y-134493000D01*
X103251000Y-133858000D01*
X103886000Y-133858000D01*
X103886000Y-134493000D01*
G37*
X103886000Y-134493000D02*
X103251000Y-134493000D01*
X103251000Y-133858000D01*
X103886000Y-133858000D01*
X103886000Y-134493000D01*
G36*
X101346000Y-134493000D02*
G01*
X100711000Y-134493000D01*
X100711000Y-133858000D01*
X101346000Y-133858000D01*
X101346000Y-134493000D01*
G37*
X101346000Y-134493000D02*
X100711000Y-134493000D01*
X100711000Y-133858000D01*
X101346000Y-133858000D01*
X101346000Y-134493000D01*
G36*
X100711000Y-133223000D02*
G01*
X100076000Y-133223000D01*
X100076000Y-132588000D01*
X100711000Y-132588000D01*
X100711000Y-133223000D01*
G37*
X100711000Y-133223000D02*
X100076000Y-133223000D01*
X100076000Y-132588000D01*
X100711000Y-132588000D01*
X100711000Y-133223000D01*
G36*
X101346000Y-130683000D02*
G01*
X100711000Y-130683000D01*
X100711000Y-130048000D01*
X101346000Y-130048000D01*
X101346000Y-130683000D01*
G37*
X101346000Y-130683000D02*
X100711000Y-130683000D01*
X100711000Y-130048000D01*
X101346000Y-130048000D01*
X101346000Y-130683000D01*
G36*
X101981000Y-130683000D02*
G01*
X101346000Y-130683000D01*
X101346000Y-130048000D01*
X101981000Y-130048000D01*
X101981000Y-130683000D01*
G37*
X101981000Y-130683000D02*
X101346000Y-130683000D01*
X101346000Y-130048000D01*
X101981000Y-130048000D01*
X101981000Y-130683000D01*
G36*
X102616000Y-130048000D02*
G01*
X101981000Y-130048000D01*
X101981000Y-129413000D01*
X102616000Y-129413000D01*
X102616000Y-130048000D01*
G37*
X102616000Y-130048000D02*
X101981000Y-130048000D01*
X101981000Y-129413000D01*
X102616000Y-129413000D01*
X102616000Y-130048000D01*
G36*
X102616000Y-130683000D02*
G01*
X101981000Y-130683000D01*
X101981000Y-130048000D01*
X102616000Y-130048000D01*
X102616000Y-130683000D01*
G37*
X102616000Y-130683000D02*
X101981000Y-130683000D01*
X101981000Y-130048000D01*
X102616000Y-130048000D01*
X102616000Y-130683000D01*
G36*
X103251000Y-130683000D02*
G01*
X102616000Y-130683000D01*
X102616000Y-130048000D01*
X103251000Y-130048000D01*
X103251000Y-130683000D01*
G37*
X103251000Y-130683000D02*
X102616000Y-130683000D01*
X102616000Y-130048000D01*
X103251000Y-130048000D01*
X103251000Y-130683000D01*
G36*
X103886000Y-130683000D02*
G01*
X103251000Y-130683000D01*
X103251000Y-130048000D01*
X103886000Y-130048000D01*
X103886000Y-130683000D01*
G37*
X103886000Y-130683000D02*
X103251000Y-130683000D01*
X103251000Y-130048000D01*
X103886000Y-130048000D01*
X103886000Y-130683000D01*
G36*
X103886000Y-130048000D02*
G01*
X103251000Y-130048000D01*
X103251000Y-129413000D01*
X103886000Y-129413000D01*
X103886000Y-130048000D01*
G37*
X103886000Y-130048000D02*
X103251000Y-130048000D01*
X103251000Y-129413000D01*
X103886000Y-129413000D01*
X103886000Y-130048000D01*
G36*
X105156000Y-134493000D02*
G01*
X104521000Y-134493000D01*
X104521000Y-133858000D01*
X105156000Y-133858000D01*
X105156000Y-134493000D01*
G37*
X105156000Y-134493000D02*
X104521000Y-134493000D01*
X104521000Y-133858000D01*
X105156000Y-133858000D01*
X105156000Y-134493000D01*
G36*
X105156000Y-130683000D02*
G01*
X104521000Y-130683000D01*
X104521000Y-130048000D01*
X105156000Y-130048000D01*
X105156000Y-130683000D01*
G37*
X105156000Y-130683000D02*
X104521000Y-130683000D01*
X104521000Y-130048000D01*
X105156000Y-130048000D01*
X105156000Y-130683000D01*
G36*
X101981000Y-131318000D02*
G01*
X101346000Y-131318000D01*
X101346000Y-130683000D01*
X101981000Y-130683000D01*
X101981000Y-131318000D01*
G37*
X101981000Y-131318000D02*
X101346000Y-131318000D01*
X101346000Y-130683000D01*
X101981000Y-130683000D01*
X101981000Y-131318000D01*
G36*
X102616000Y-131953000D02*
G01*
X101981000Y-131953000D01*
X101981000Y-131318000D01*
X102616000Y-131318000D01*
X102616000Y-131953000D01*
G37*
X102616000Y-131953000D02*
X101981000Y-131953000D01*
X101981000Y-131318000D01*
X102616000Y-131318000D01*
X102616000Y-131953000D01*
G36*
X103886000Y-131953000D02*
G01*
X103251000Y-131953000D01*
X103251000Y-131318000D01*
X103886000Y-131318000D01*
X103886000Y-131953000D01*
G37*
X103886000Y-131953000D02*
X103251000Y-131953000D01*
X103251000Y-131318000D01*
X103886000Y-131318000D01*
X103886000Y-131953000D01*
G36*
X103251000Y-131953000D02*
G01*
X102616000Y-131953000D01*
X102616000Y-131318000D01*
X103251000Y-131318000D01*
X103251000Y-131953000D01*
G37*
X103251000Y-131953000D02*
X102616000Y-131953000D01*
X102616000Y-131318000D01*
X103251000Y-131318000D01*
X103251000Y-131953000D01*
G36*
X103251000Y-131318000D02*
G01*
X102616000Y-131318000D01*
X102616000Y-130683000D01*
X103251000Y-130683000D01*
X103251000Y-131318000D01*
G37*
X103251000Y-131318000D02*
X102616000Y-131318000D01*
X102616000Y-130683000D01*
X103251000Y-130683000D01*
X103251000Y-131318000D01*
D11*
X144145000Y-139319000D03*
X95885000Y-124079000D03*
X141605000Y-139319000D03*
X98425000Y-124079000D03*
X139065000Y-139319000D03*
X100965000Y-124079000D03*
X136525000Y-139319000D03*
X103505000Y-124079000D03*
X133985000Y-139319000D03*
X106045000Y-124079000D03*
X131445000Y-139319000D03*
X108585000Y-124079000D03*
X128905000Y-139319000D03*
X111125000Y-124079000D03*
X126365000Y-139319000D03*
X113665000Y-124079000D03*
X123825000Y-139319000D03*
X116205000Y-124079000D03*
X121285000Y-139319000D03*
X118745000Y-124079000D03*
X118745000Y-139319000D03*
X121285000Y-124079000D03*
X116205000Y-139319000D03*
X123825000Y-124079000D03*
X113665000Y-139319000D03*
X126365000Y-124079000D03*
X111125000Y-139319000D03*
X128905000Y-124079000D03*
X108585000Y-139319000D03*
X131445000Y-124079000D03*
X106045000Y-139319000D03*
X133985000Y-124079000D03*
X103505000Y-139319000D03*
X136525000Y-124079000D03*
X100965000Y-139319000D03*
X139065000Y-124079000D03*
X98425000Y-139319000D03*
X141605000Y-124079000D03*
X95885000Y-139319000D03*
G36*
G01*
X143345000Y-122729000D02*
X144945000Y-122729000D01*
G75*
G02*
X145095000Y-122879000I0J-150000D01*
G01*
X145095000Y-125279000D01*
G75*
G02*
X144945000Y-125429000I-150000J0D01*
G01*
X143345000Y-125429000D01*
G75*
G02*
X143195000Y-125279000I0J150000D01*
G01*
X143195000Y-122879000D01*
G75*
G02*
X143345000Y-122729000I150000J0D01*
G01*
G37*
D12*
X95885000Y-142240000D03*
X98425000Y-142240000D03*
X100965000Y-142240000D03*
X103505000Y-142240000D03*
X106045000Y-142240000D03*
X108585000Y-142240000D03*
X111125000Y-142240000D03*
X113665000Y-142240000D03*
X116205000Y-142240000D03*
X118745000Y-142240000D03*
X121285000Y-142240000D03*
X123825000Y-142240000D03*
X126365000Y-142240000D03*
X128905000Y-142240000D03*
X131445000Y-142240000D03*
X133985000Y-142240000D03*
X136525000Y-142240000D03*
X139065000Y-142240000D03*
X141605000Y-142240000D03*
G36*
G01*
X144995000Y-143240000D02*
X143295000Y-143240000D01*
G75*
G02*
X143145000Y-143090000I0J150000D01*
G01*
X143145000Y-141390000D01*
G75*
G02*
X143295000Y-141240000I150000J0D01*
G01*
X144995000Y-141240000D01*
G75*
G02*
X145145000Y-141390000I0J-150000D01*
G01*
X145145000Y-143090000D01*
G75*
G02*
X144995000Y-143240000I-150000J0D01*
G01*
G37*
X95885000Y-127000000D03*
X98425000Y-127000000D03*
X100965000Y-127000000D03*
X103505000Y-127000000D03*
X106045000Y-127000000D03*
X108585000Y-127000000D03*
X111125000Y-127000000D03*
X113665000Y-127000000D03*
X116205000Y-127000000D03*
X118745000Y-127000000D03*
X121285000Y-127000000D03*
X123825000Y-127000000D03*
X126365000Y-127000000D03*
X128905000Y-127000000D03*
X131445000Y-127000000D03*
X133985000Y-127000000D03*
X136525000Y-127000000D03*
X139065000Y-127000000D03*
X141605000Y-127000000D03*
G36*
G01*
X144995000Y-128000000D02*
X143295000Y-128000000D01*
G75*
G02*
X143145000Y-127850000I0J150000D01*
G01*
X143145000Y-126150000D01*
G75*
G02*
X143295000Y-126000000I150000J0D01*
G01*
X144995000Y-126000000D01*
G75*
G02*
X145145000Y-126150000I0J-150000D01*
G01*
X145145000Y-127850000D01*
G75*
G02*
X144995000Y-128000000I-150000J0D01*
G01*
G37*
X144145000Y-117094000D03*
X141605000Y-117094000D03*
X139065000Y-117094000D03*
G36*
G01*
X137375000Y-118094000D02*
X135675000Y-118094000D01*
G75*
G02*
X135525000Y-117944000I0J150000D01*
G01*
X135525000Y-116244000D01*
G75*
G02*
X135675000Y-116094000I150000J0D01*
G01*
X137375000Y-116094000D01*
G75*
G02*
X137525000Y-116244000I0J-150000D01*
G01*
X137525000Y-117944000D01*
G75*
G02*
X137375000Y-118094000I-150000J0D01*
G01*
G37*
G36*
G01*
X132665000Y-115385000D02*
X132665000Y-118385000D01*
G75*
G02*
X132515000Y-118535000I-150000J0D01*
G01*
X130015000Y-118535000D01*
G75*
G02*
X129865000Y-118385000I0J150000D01*
G01*
X129865000Y-115385000D01*
G75*
G02*
X130015000Y-115235000I150000J0D01*
G01*
X132515000Y-115235000D01*
G75*
G02*
X132665000Y-115385000I0J-150000D01*
G01*
G37*
G36*
G01*
X110165000Y-115385000D02*
X110165000Y-118385000D01*
G75*
G02*
X110015000Y-118535000I-150000J0D01*
G01*
X107515000Y-118535000D01*
G75*
G02*
X107365000Y-118385000I0J150000D01*
G01*
X107365000Y-115385000D01*
G75*
G02*
X107515000Y-115235000I150000J0D01*
G01*
X110015000Y-115235000D01*
G75*
G02*
X110165000Y-115385000I0J-150000D01*
G01*
G37*
G36*
G01*
X111965000Y-118335000D02*
X111965000Y-120335000D01*
G75*
G02*
X111815000Y-120485000I-150000J0D01*
G01*
X111215000Y-120485000D01*
G75*
G02*
X111065000Y-120335000I0J150000D01*
G01*
X111065000Y-118335000D01*
G75*
G02*
X111215000Y-118185000I150000J0D01*
G01*
X111815000Y-118185000D01*
G75*
G02*
X111965000Y-118335000I0J-150000D01*
G01*
G37*
G36*
G01*
X112965000Y-118335000D02*
X112965000Y-120335000D01*
G75*
G02*
X112815000Y-120485000I-150000J0D01*
G01*
X112215000Y-120485000D01*
G75*
G02*
X112065000Y-120335000I0J150000D01*
G01*
X112065000Y-118335000D01*
G75*
G02*
X112215000Y-118185000I150000J0D01*
G01*
X112815000Y-118185000D01*
G75*
G02*
X112965000Y-118335000I0J-150000D01*
G01*
G37*
G36*
G01*
X113965000Y-118335000D02*
X113965000Y-120335000D01*
G75*
G02*
X113815000Y-120485000I-150000J0D01*
G01*
X113215000Y-120485000D01*
G75*
G02*
X113065000Y-120335000I0J150000D01*
G01*
X113065000Y-118335000D01*
G75*
G02*
X113215000Y-118185000I150000J0D01*
G01*
X113815000Y-118185000D01*
G75*
G02*
X113965000Y-118335000I0J-150000D01*
G01*
G37*
G36*
G01*
X114965000Y-118335000D02*
X114965000Y-120335000D01*
G75*
G02*
X114815000Y-120485000I-150000J0D01*
G01*
X114215000Y-120485000D01*
G75*
G02*
X114065000Y-120335000I0J150000D01*
G01*
X114065000Y-118335000D01*
G75*
G02*
X114215000Y-118185000I150000J0D01*
G01*
X114815000Y-118185000D01*
G75*
G02*
X114965000Y-118335000I0J-150000D01*
G01*
G37*
G36*
G01*
X115965000Y-118335000D02*
X115965000Y-120335000D01*
G75*
G02*
X115815000Y-120485000I-150000J0D01*
G01*
X115215000Y-120485000D01*
G75*
G02*
X115065000Y-120335000I0J150000D01*
G01*
X115065000Y-118335000D01*
G75*
G02*
X115215000Y-118185000I150000J0D01*
G01*
X115815000Y-118185000D01*
G75*
G02*
X115965000Y-118335000I0J-150000D01*
G01*
G37*
G36*
G01*
X116965000Y-118335000D02*
X116965000Y-120335000D01*
G75*
G02*
X116815000Y-120485000I-150000J0D01*
G01*
X116215000Y-120485000D01*
G75*
G02*
X116065000Y-120335000I0J150000D01*
G01*
X116065000Y-118335000D01*
G75*
G02*
X116215000Y-118185000I150000J0D01*
G01*
X116815000Y-118185000D01*
G75*
G02*
X116965000Y-118335000I0J-150000D01*
G01*
G37*
G36*
G01*
X117965000Y-118335000D02*
X117965000Y-120335000D01*
G75*
G02*
X117815000Y-120485000I-150000J0D01*
G01*
X117215000Y-120485000D01*
G75*
G02*
X117065000Y-120335000I0J150000D01*
G01*
X117065000Y-118335000D01*
G75*
G02*
X117215000Y-118185000I150000J0D01*
G01*
X117815000Y-118185000D01*
G75*
G02*
X117965000Y-118335000I0J-150000D01*
G01*
G37*
G36*
G01*
X118965000Y-118335000D02*
X118965000Y-120335000D01*
G75*
G02*
X118815000Y-120485000I-150000J0D01*
G01*
X118215000Y-120485000D01*
G75*
G02*
X118065000Y-120335000I0J150000D01*
G01*
X118065000Y-118335000D01*
G75*
G02*
X118215000Y-118185000I150000J0D01*
G01*
X118815000Y-118185000D01*
G75*
G02*
X118965000Y-118335000I0J-150000D01*
G01*
G37*
G36*
G01*
X119965000Y-118335000D02*
X119965000Y-120335000D01*
G75*
G02*
X119815000Y-120485000I-150000J0D01*
G01*
X119215000Y-120485000D01*
G75*
G02*
X119065000Y-120335000I0J150000D01*
G01*
X119065000Y-118335000D01*
G75*
G02*
X119215000Y-118185000I150000J0D01*
G01*
X119815000Y-118185000D01*
G75*
G02*
X119965000Y-118335000I0J-150000D01*
G01*
G37*
G36*
G01*
X120965000Y-118335000D02*
X120965000Y-120335000D01*
G75*
G02*
X120815000Y-120485000I-150000J0D01*
G01*
X120215000Y-120485000D01*
G75*
G02*
X120065000Y-120335000I0J150000D01*
G01*
X120065000Y-118335000D01*
G75*
G02*
X120215000Y-118185000I150000J0D01*
G01*
X120815000Y-118185000D01*
G75*
G02*
X120965000Y-118335000I0J-150000D01*
G01*
G37*
G36*
G01*
X121965000Y-118335000D02*
X121965000Y-120335000D01*
G75*
G02*
X121815000Y-120485000I-150000J0D01*
G01*
X121215000Y-120485000D01*
G75*
G02*
X121065000Y-120335000I0J150000D01*
G01*
X121065000Y-118335000D01*
G75*
G02*
X121215000Y-118185000I150000J0D01*
G01*
X121815000Y-118185000D01*
G75*
G02*
X121965000Y-118335000I0J-150000D01*
G01*
G37*
G36*
G01*
X122965000Y-118335000D02*
X122965000Y-120335000D01*
G75*
G02*
X122815000Y-120485000I-150000J0D01*
G01*
X122215000Y-120485000D01*
G75*
G02*
X122065000Y-120335000I0J150000D01*
G01*
X122065000Y-118335000D01*
G75*
G02*
X122215000Y-118185000I150000J0D01*
G01*
X122815000Y-118185000D01*
G75*
G02*
X122965000Y-118335000I0J-150000D01*
G01*
G37*
G36*
G01*
X123965000Y-118335000D02*
X123965000Y-120335000D01*
G75*
G02*
X123815000Y-120485000I-150000J0D01*
G01*
X123215000Y-120485000D01*
G75*
G02*
X123065000Y-120335000I0J150000D01*
G01*
X123065000Y-118335000D01*
G75*
G02*
X123215000Y-118185000I150000J0D01*
G01*
X123815000Y-118185000D01*
G75*
G02*
X123965000Y-118335000I0J-150000D01*
G01*
G37*
G36*
G01*
X124965000Y-118335000D02*
X124965000Y-120335000D01*
G75*
G02*
X124815000Y-120485000I-150000J0D01*
G01*
X124215000Y-120485000D01*
G75*
G02*
X124065000Y-120335000I0J150000D01*
G01*
X124065000Y-118335000D01*
G75*
G02*
X124215000Y-118185000I150000J0D01*
G01*
X124815000Y-118185000D01*
G75*
G02*
X124965000Y-118335000I0J-150000D01*
G01*
G37*
G36*
G01*
X125965000Y-118335000D02*
X125965000Y-120335000D01*
G75*
G02*
X125815000Y-120485000I-150000J0D01*
G01*
X125215000Y-120485000D01*
G75*
G02*
X125065000Y-120335000I0J150000D01*
G01*
X125065000Y-118335000D01*
G75*
G02*
X125215000Y-118185000I150000J0D01*
G01*
X125815000Y-118185000D01*
G75*
G02*
X125965000Y-118335000I0J-150000D01*
G01*
G37*
G36*
G01*
X126965000Y-118335000D02*
X126965000Y-120335000D01*
G75*
G02*
X126815000Y-120485000I-150000J0D01*
G01*
X126215000Y-120485000D01*
G75*
G02*
X126065000Y-120335000I0J150000D01*
G01*
X126065000Y-118335000D01*
G75*
G02*
X126215000Y-118185000I150000J0D01*
G01*
X126815000Y-118185000D01*
G75*
G02*
X126965000Y-118335000I0J-150000D01*
G01*
G37*
G36*
G01*
X127965000Y-118335000D02*
X127965000Y-120335000D01*
G75*
G02*
X127815000Y-120485000I-150000J0D01*
G01*
X127215000Y-120485000D01*
G75*
G02*
X127065000Y-120335000I0J150000D01*
G01*
X127065000Y-118335000D01*
G75*
G02*
X127215000Y-118185000I150000J0D01*
G01*
X127815000Y-118185000D01*
G75*
G02*
X127965000Y-118335000I0J-150000D01*
G01*
G37*
G36*
G01*
X128965000Y-118335000D02*
X128965000Y-120335000D01*
G75*
G02*
X128815000Y-120485000I-150000J0D01*
G01*
X128215000Y-120485000D01*
G75*
G02*
X128065000Y-120335000I0J150000D01*
G01*
X128065000Y-118335000D01*
G75*
G02*
X128215000Y-118185000I150000J0D01*
G01*
X128815000Y-118185000D01*
G75*
G02*
X128965000Y-118335000I0J-150000D01*
G01*
G37*
M02*
