%TF.GenerationSoftware,KiCad,Pcbnew,(5.1.12)-1*%
%TF.CreationDate,2022-03-08T20:54:57+00:00*%
%TF.ProjectId,RGBtoHDMI CDTV v2 - Face Plate,52474274-6f48-4444-9d49-204344545620,1*%
%TF.SameCoordinates,Original*%
%TF.FileFunction,Soldermask,Top*%
%TF.FilePolarity,Negative*%
%FSLAX46Y46*%
G04 Gerber Fmt 4.6, Leading zero omitted, Abs format (unit mm)*
G04 Created by KiCad (PCBNEW (5.1.12)-1) date 2022-03-08 20:54:57*
%MOMM*%
%LPD*%
G01*
G04 APERTURE LIST*
%ADD10C,0.100000*%
%ADD11C,4.600000*%
%ADD12C,3.500000*%
G04 APERTURE END LIST*
D10*
%TO.C,solarmon*%
G36*
X163703000Y-93014800D02*
G01*
X163068000Y-93014800D01*
X163068000Y-92379800D01*
X163703000Y-92379800D01*
X163703000Y-93014800D01*
G37*
X163703000Y-93014800D02*
X163068000Y-93014800D01*
X163068000Y-92379800D01*
X163703000Y-92379800D01*
X163703000Y-93014800D01*
G36*
X163703000Y-93649800D02*
G01*
X163068000Y-93649800D01*
X163068000Y-93014800D01*
X163703000Y-93014800D01*
X163703000Y-93649800D01*
G37*
X163703000Y-93649800D02*
X163068000Y-93649800D01*
X163068000Y-93014800D01*
X163703000Y-93014800D01*
X163703000Y-93649800D01*
G36*
X164338000Y-93649800D02*
G01*
X163703000Y-93649800D01*
X163703000Y-93014800D01*
X164338000Y-93014800D01*
X164338000Y-93649800D01*
G37*
X164338000Y-93649800D02*
X163703000Y-93649800D01*
X163703000Y-93014800D01*
X164338000Y-93014800D01*
X164338000Y-93649800D01*
G36*
X163068000Y-93649800D02*
G01*
X162433000Y-93649800D01*
X162433000Y-93014800D01*
X163068000Y-93014800D01*
X163068000Y-93649800D01*
G37*
X163068000Y-93649800D02*
X162433000Y-93649800D01*
X162433000Y-93014800D01*
X163068000Y-93014800D01*
X163068000Y-93649800D01*
G36*
X162433000Y-93014800D02*
G01*
X161798000Y-93014800D01*
X161798000Y-92379800D01*
X162433000Y-92379800D01*
X162433000Y-93014800D01*
G37*
X162433000Y-93014800D02*
X161798000Y-93014800D01*
X161798000Y-92379800D01*
X162433000Y-92379800D01*
X162433000Y-93014800D01*
G36*
X165608000Y-92379800D02*
G01*
X164973000Y-92379800D01*
X164973000Y-91744800D01*
X165608000Y-91744800D01*
X165608000Y-92379800D01*
G37*
X165608000Y-92379800D02*
X164973000Y-92379800D01*
X164973000Y-91744800D01*
X165608000Y-91744800D01*
X165608000Y-92379800D01*
G36*
X165608000Y-96189800D02*
G01*
X164973000Y-96189800D01*
X164973000Y-95554800D01*
X165608000Y-95554800D01*
X165608000Y-96189800D01*
G37*
X165608000Y-96189800D02*
X164973000Y-96189800D01*
X164973000Y-95554800D01*
X165608000Y-95554800D01*
X165608000Y-96189800D01*
G36*
X164338000Y-91744800D02*
G01*
X163703000Y-91744800D01*
X163703000Y-91109800D01*
X164338000Y-91109800D01*
X164338000Y-91744800D01*
G37*
X164338000Y-91744800D02*
X163703000Y-91744800D01*
X163703000Y-91109800D01*
X164338000Y-91109800D01*
X164338000Y-91744800D01*
G36*
X164338000Y-92379800D02*
G01*
X163703000Y-92379800D01*
X163703000Y-91744800D01*
X164338000Y-91744800D01*
X164338000Y-92379800D01*
G37*
X164338000Y-92379800D02*
X163703000Y-92379800D01*
X163703000Y-91744800D01*
X164338000Y-91744800D01*
X164338000Y-92379800D01*
G36*
X163703000Y-92379800D02*
G01*
X163068000Y-92379800D01*
X163068000Y-91744800D01*
X163703000Y-91744800D01*
X163703000Y-92379800D01*
G37*
X163703000Y-92379800D02*
X163068000Y-92379800D01*
X163068000Y-91744800D01*
X163703000Y-91744800D01*
X163703000Y-92379800D01*
G36*
X163068000Y-92379800D02*
G01*
X162433000Y-92379800D01*
X162433000Y-91744800D01*
X163068000Y-91744800D01*
X163068000Y-92379800D01*
G37*
X163068000Y-92379800D02*
X162433000Y-92379800D01*
X162433000Y-91744800D01*
X163068000Y-91744800D01*
X163068000Y-92379800D01*
G36*
X163068000Y-91744800D02*
G01*
X162433000Y-91744800D01*
X162433000Y-91109800D01*
X163068000Y-91109800D01*
X163068000Y-91744800D01*
G37*
X163068000Y-91744800D02*
X162433000Y-91744800D01*
X162433000Y-91109800D01*
X163068000Y-91109800D01*
X163068000Y-91744800D01*
G36*
X162433000Y-92379800D02*
G01*
X161798000Y-92379800D01*
X161798000Y-91744800D01*
X162433000Y-91744800D01*
X162433000Y-92379800D01*
G37*
X162433000Y-92379800D02*
X161798000Y-92379800D01*
X161798000Y-91744800D01*
X162433000Y-91744800D01*
X162433000Y-92379800D01*
G36*
X161798000Y-92379800D02*
G01*
X161163000Y-92379800D01*
X161163000Y-91744800D01*
X161798000Y-91744800D01*
X161798000Y-92379800D01*
G37*
X161798000Y-92379800D02*
X161163000Y-92379800D01*
X161163000Y-91744800D01*
X161798000Y-91744800D01*
X161798000Y-92379800D01*
G36*
X161163000Y-94919800D02*
G01*
X160528000Y-94919800D01*
X160528000Y-94284800D01*
X161163000Y-94284800D01*
X161163000Y-94919800D01*
G37*
X161163000Y-94919800D02*
X160528000Y-94919800D01*
X160528000Y-94284800D01*
X161163000Y-94284800D01*
X161163000Y-94919800D01*
G36*
X161798000Y-96189800D02*
G01*
X161163000Y-96189800D01*
X161163000Y-95554800D01*
X161798000Y-95554800D01*
X161798000Y-96189800D01*
G37*
X161798000Y-96189800D02*
X161163000Y-96189800D01*
X161163000Y-95554800D01*
X161798000Y-95554800D01*
X161798000Y-96189800D01*
G36*
X164338000Y-96189800D02*
G01*
X163703000Y-96189800D01*
X163703000Y-95554800D01*
X164338000Y-95554800D01*
X164338000Y-96189800D01*
G37*
X164338000Y-96189800D02*
X163703000Y-96189800D01*
X163703000Y-95554800D01*
X164338000Y-95554800D01*
X164338000Y-96189800D01*
G36*
X165608000Y-94284800D02*
G01*
X164973000Y-94284800D01*
X164973000Y-93649800D01*
X165608000Y-93649800D01*
X165608000Y-94284800D01*
G37*
X165608000Y-94284800D02*
X164973000Y-94284800D01*
X164973000Y-93649800D01*
X165608000Y-93649800D01*
X165608000Y-94284800D01*
%TD*%
D11*
%TO.C,UP*%
X124174000Y-87299800D03*
%TD*%
%TO.C,DOWN*%
X111474000Y-87249000D03*
%TD*%
%TO.C,SELECT*%
X98774000Y-87249000D03*
%TD*%
D12*
%TO.C,REF\u002A\u002A*%
X89509600Y-95135700D03*
%TD*%
%TO.C,REF\u002A\u002A*%
X149479000Y-95173800D03*
%TD*%
M02*
