%TF.GenerationSoftware,KiCad,Pcbnew,(5.1.12)-1*%
%TF.CreationDate,2022-03-08T20:54:57+00:00*%
%TF.ProjectId,RGBtoHDMI CDTV v2 - Face Plate,52474274-6f48-4444-9d49-204344545620,1*%
%TF.SameCoordinates,Original*%
%TF.FileFunction,Legend,Top*%
%TF.FilePolarity,Positive*%
%FSLAX46Y46*%
G04 Gerber Fmt 4.6, Leading zero omitted, Abs format (unit mm)*
G04 Created by KiCad (PCBNEW (5.1.12)-1) date 2022-03-08 20:54:57*
%MOMM*%
%LPD*%
G01*
G04 APERTURE LIST*
%ADD10C,0.200000*%
%ADD11C,0.120000*%
%ADD12C,0.100000*%
%ADD13C,0.150000*%
G04 APERTURE END LIST*
D10*
X86923833Y-72530466D02*
X87542880Y-72530466D01*
X86800023Y-72901895D02*
X87233357Y-71601895D01*
X87666690Y-72901895D01*
X88719071Y-71601895D02*
X88100023Y-71601895D01*
X88038119Y-72220942D01*
X88100023Y-72159038D01*
X88223833Y-72097133D01*
X88533357Y-72097133D01*
X88657166Y-72159038D01*
X88719071Y-72220942D01*
X88780976Y-72344752D01*
X88780976Y-72654276D01*
X88719071Y-72778085D01*
X88657166Y-72839990D01*
X88533357Y-72901895D01*
X88223833Y-72901895D01*
X88100023Y-72839990D01*
X88038119Y-72778085D01*
X89585738Y-71601895D02*
X89709547Y-71601895D01*
X89833357Y-71663800D01*
X89895261Y-71725704D01*
X89957166Y-71849514D01*
X90019071Y-72097133D01*
X90019071Y-72406657D01*
X89957166Y-72654276D01*
X89895261Y-72778085D01*
X89833357Y-72839990D01*
X89709547Y-72901895D01*
X89585738Y-72901895D01*
X89461928Y-72839990D01*
X89400023Y-72778085D01*
X89338119Y-72654276D01*
X89276214Y-72406657D01*
X89276214Y-72097133D01*
X89338119Y-71849514D01*
X89400023Y-71725704D01*
X89461928Y-71663800D01*
X89585738Y-71601895D01*
X90823833Y-71601895D02*
X90947642Y-71601895D01*
X91071452Y-71663800D01*
X91133357Y-71725704D01*
X91195261Y-71849514D01*
X91257166Y-72097133D01*
X91257166Y-72406657D01*
X91195261Y-72654276D01*
X91133357Y-72778085D01*
X91071452Y-72839990D01*
X90947642Y-72901895D01*
X90823833Y-72901895D01*
X90700023Y-72839990D01*
X90638119Y-72778085D01*
X90576214Y-72654276D01*
X90514309Y-72406657D01*
X90514309Y-72097133D01*
X90576214Y-71849514D01*
X90638119Y-71725704D01*
X90700023Y-71663800D01*
X90823833Y-71601895D01*
X87790500Y-82684085D02*
X87728595Y-82745990D01*
X87542880Y-82807895D01*
X87419071Y-82807895D01*
X87233357Y-82745990D01*
X87109547Y-82622180D01*
X87047642Y-82498371D01*
X86985738Y-82250752D01*
X86985738Y-82065038D01*
X87047642Y-81817419D01*
X87109547Y-81693609D01*
X87233357Y-81569800D01*
X87419071Y-81507895D01*
X87542880Y-81507895D01*
X87728595Y-81569800D01*
X87790500Y-81631704D01*
X88347642Y-82807895D02*
X88347642Y-81507895D01*
X88657166Y-81507895D01*
X88842880Y-81569800D01*
X88966690Y-81693609D01*
X89028595Y-81817419D01*
X89090500Y-82065038D01*
X89090500Y-82250752D01*
X89028595Y-82498371D01*
X88966690Y-82622180D01*
X88842880Y-82745990D01*
X88657166Y-82807895D01*
X88347642Y-82807895D01*
X89461928Y-81507895D02*
X90204785Y-81507895D01*
X89833357Y-82807895D02*
X89833357Y-81507895D01*
X90452404Y-81507895D02*
X90885738Y-82807895D01*
X91319071Y-81507895D01*
D11*
X116586000Y-64058800D02*
X116586000Y-63550800D01*
X116332000Y-64058800D02*
X116332000Y-63550800D01*
X146812001Y-65074800D02*
G75*
G02*
X147320000Y-65074800I253999J635000D01*
G01*
X145542000Y-66979800D02*
X145542000Y-67868800D01*
X148590000Y-66979800D02*
X148590000Y-67868800D01*
X145542000Y-67868800D02*
X148590000Y-67868800D01*
X145542000Y-66979800D02*
X148590000Y-66979800D01*
X145923000Y-66471800D02*
X145923000Y-66979800D01*
X148209000Y-66471800D02*
X148209000Y-66979800D01*
X145923000Y-66471800D02*
X148209000Y-66471800D01*
X147320000Y-65074800D02*
X147320000Y-66471800D01*
X146812000Y-65074800D02*
X146812000Y-66471800D01*
X116459000Y-65328800D02*
X116459000Y-64058800D01*
X117729000Y-65328800D02*
X115189000Y-65328800D01*
X115189000Y-67868800D02*
X115189000Y-64058800D01*
X117729000Y-67868800D02*
X115189000Y-67868800D01*
X117729000Y-64058800D02*
X117729000Y-67868800D01*
X115189000Y-64058800D02*
X117729000Y-64058800D01*
D10*
X132302976Y-66995561D02*
X132302976Y-64995561D01*
X133064880Y-64995561D01*
X133255357Y-65090800D01*
X133350595Y-65186038D01*
X133445833Y-65376514D01*
X133445833Y-65662228D01*
X133350595Y-65852704D01*
X133255357Y-65947942D01*
X133064880Y-66043180D01*
X132302976Y-66043180D01*
X134683928Y-64995561D02*
X135064880Y-64995561D01*
X135255357Y-65090800D01*
X135445833Y-65281276D01*
X135541071Y-65662228D01*
X135541071Y-66328895D01*
X135445833Y-66709847D01*
X135255357Y-66900323D01*
X135064880Y-66995561D01*
X134683928Y-66995561D01*
X134493452Y-66900323D01*
X134302976Y-66709847D01*
X134207738Y-66328895D01*
X134207738Y-65662228D01*
X134302976Y-65281276D01*
X134493452Y-65090800D01*
X134683928Y-64995561D01*
X137541071Y-66995561D02*
X136874404Y-66043180D01*
X136398214Y-66995561D02*
X136398214Y-64995561D01*
X137160119Y-64995561D01*
X137350595Y-65090800D01*
X137445833Y-65186038D01*
X137541071Y-65376514D01*
X137541071Y-65662228D01*
X137445833Y-65852704D01*
X137350595Y-65947942D01*
X137160119Y-66043180D01*
X136398214Y-66043180D01*
X138112500Y-64995561D02*
X139255357Y-64995561D01*
X138683928Y-66995561D02*
X138683928Y-64995561D01*
X142874404Y-65186038D02*
X142969642Y-65090800D01*
X143160119Y-64995561D01*
X143636309Y-64995561D01*
X143826785Y-65090800D01*
X143922023Y-65186038D01*
X144017261Y-65376514D01*
X144017261Y-65566990D01*
X143922023Y-65852704D01*
X142779166Y-66995561D01*
X144017261Y-66995561D01*
X103219880Y-66868561D02*
X103219880Y-64868561D01*
X103981785Y-64868561D01*
X104172261Y-64963800D01*
X104267500Y-65059038D01*
X104362738Y-65249514D01*
X104362738Y-65535228D01*
X104267500Y-65725704D01*
X104172261Y-65820942D01*
X103981785Y-65916180D01*
X103219880Y-65916180D01*
X105600833Y-64868561D02*
X105981785Y-64868561D01*
X106172261Y-64963800D01*
X106362738Y-65154276D01*
X106457976Y-65535228D01*
X106457976Y-66201895D01*
X106362738Y-66582847D01*
X106172261Y-66773323D01*
X105981785Y-66868561D01*
X105600833Y-66868561D01*
X105410357Y-66773323D01*
X105219880Y-66582847D01*
X105124642Y-66201895D01*
X105124642Y-65535228D01*
X105219880Y-65154276D01*
X105410357Y-64963800D01*
X105600833Y-64868561D01*
X108457976Y-66868561D02*
X107791309Y-65916180D01*
X107315119Y-66868561D02*
X107315119Y-64868561D01*
X108077023Y-64868561D01*
X108267500Y-64963800D01*
X108362738Y-65059038D01*
X108457976Y-65249514D01*
X108457976Y-65535228D01*
X108362738Y-65725704D01*
X108267500Y-65820942D01*
X108077023Y-65916180D01*
X107315119Y-65916180D01*
X109029404Y-64868561D02*
X110172261Y-64868561D01*
X109600833Y-66868561D02*
X109600833Y-64868561D01*
X113410357Y-66868561D02*
X112267500Y-66868561D01*
X112838928Y-66868561D02*
X112838928Y-64868561D01*
X112648452Y-65154276D01*
X112457976Y-65344752D01*
X112267500Y-65439990D01*
D12*
X152009571Y-86834657D02*
X152466714Y-86834657D01*
X152238142Y-87063228D02*
X152238142Y-86606085D01*
X153038142Y-86463228D02*
X152752428Y-86463228D01*
X152723857Y-86748942D01*
X152752428Y-86720371D01*
X152809571Y-86691800D01*
X152952428Y-86691800D01*
X153009571Y-86720371D01*
X153038142Y-86748942D01*
X153066714Y-86806085D01*
X153066714Y-86948942D01*
X153038142Y-87006085D01*
X153009571Y-87034657D01*
X152952428Y-87063228D01*
X152809571Y-87063228D01*
X152752428Y-87034657D01*
X152723857Y-87006085D01*
X153238142Y-86463228D02*
X153438142Y-87063228D01*
X153638142Y-86463228D01*
X154863857Y-86491800D02*
X154806714Y-86463228D01*
X154721000Y-86463228D01*
X154635285Y-86491800D01*
X154578142Y-86548942D01*
X154549571Y-86606085D01*
X154521000Y-86720371D01*
X154521000Y-86806085D01*
X154549571Y-86920371D01*
X154578142Y-86977514D01*
X154635285Y-87034657D01*
X154721000Y-87063228D01*
X154778142Y-87063228D01*
X154863857Y-87034657D01*
X154892428Y-87006085D01*
X154892428Y-86806085D01*
X154778142Y-86806085D01*
X155149571Y-87063228D02*
X155149571Y-86463228D01*
X155492428Y-87063228D01*
X155492428Y-86463228D01*
X155778142Y-87063228D02*
X155778142Y-86463228D01*
X155921000Y-86463228D01*
X156006714Y-86491800D01*
X156063857Y-86548942D01*
X156092428Y-86606085D01*
X156121000Y-86720371D01*
X156121000Y-86806085D01*
X156092428Y-86920371D01*
X156063857Y-86977514D01*
X156006714Y-87034657D01*
X155921000Y-87063228D01*
X155778142Y-87063228D01*
X157327666Y-86408466D02*
X157727666Y-86408466D01*
X157527666Y-87108466D02*
X157527666Y-86408466D01*
X157894333Y-86408466D02*
X158361000Y-87108466D01*
X158361000Y-86408466D02*
X157894333Y-87108466D01*
X160030333Y-87108466D02*
X159797000Y-86775133D01*
X159630333Y-87108466D02*
X159630333Y-86408466D01*
X159897000Y-86408466D01*
X159963666Y-86441800D01*
X159997000Y-86475133D01*
X160030333Y-86541800D01*
X160030333Y-86641800D01*
X159997000Y-86708466D01*
X159963666Y-86741800D01*
X159897000Y-86775133D01*
X159630333Y-86775133D01*
X160263666Y-86408466D02*
X160730333Y-87108466D01*
X160730333Y-86408466D02*
X160263666Y-87108466D01*
D13*
X152194190Y-88720561D02*
X152337047Y-88768180D01*
X152575142Y-88768180D01*
X152670380Y-88720561D01*
X152718000Y-88672942D01*
X152765619Y-88577704D01*
X152765619Y-88482466D01*
X152718000Y-88387228D01*
X152670380Y-88339609D01*
X152575142Y-88291990D01*
X152384666Y-88244371D01*
X152289428Y-88196752D01*
X152241809Y-88149133D01*
X152194190Y-88053895D01*
X152194190Y-87958657D01*
X152241809Y-87863419D01*
X152289428Y-87815800D01*
X152384666Y-87768180D01*
X152622761Y-87768180D01*
X152765619Y-87815800D01*
X153575142Y-88720561D02*
X153479904Y-88768180D01*
X153289428Y-88768180D01*
X153194190Y-88720561D01*
X153146571Y-88625323D01*
X153146571Y-88244371D01*
X153194190Y-88149133D01*
X153289428Y-88101514D01*
X153479904Y-88101514D01*
X153575142Y-88149133D01*
X153622761Y-88244371D01*
X153622761Y-88339609D01*
X153146571Y-88434847D01*
X154051333Y-88768180D02*
X154051333Y-88101514D01*
X154051333Y-88291990D02*
X154098952Y-88196752D01*
X154146571Y-88149133D01*
X154241809Y-88101514D01*
X154337047Y-88101514D01*
X154670380Y-88768180D02*
X154670380Y-88101514D01*
X154670380Y-87768180D02*
X154622761Y-87815800D01*
X154670380Y-87863419D01*
X154718000Y-87815800D01*
X154670380Y-87768180D01*
X154670380Y-87863419D01*
X155575142Y-88768180D02*
X155575142Y-88244371D01*
X155527523Y-88149133D01*
X155432285Y-88101514D01*
X155241809Y-88101514D01*
X155146571Y-88149133D01*
X155575142Y-88720561D02*
X155479904Y-88768180D01*
X155241809Y-88768180D01*
X155146571Y-88720561D01*
X155098952Y-88625323D01*
X155098952Y-88530085D01*
X155146571Y-88434847D01*
X155241809Y-88387228D01*
X155479904Y-88387228D01*
X155575142Y-88339609D01*
X156194190Y-88768180D02*
X156098952Y-88720561D01*
X156051333Y-88625323D01*
X156051333Y-87768180D01*
X157527523Y-87768180D02*
X157718000Y-87768180D01*
X157813238Y-87815800D01*
X157908476Y-87911038D01*
X157956095Y-88101514D01*
X157956095Y-88434847D01*
X157908476Y-88625323D01*
X157813238Y-88720561D01*
X157718000Y-88768180D01*
X157527523Y-88768180D01*
X157432285Y-88720561D01*
X157337047Y-88625323D01*
X157289428Y-88434847D01*
X157289428Y-88101514D01*
X157337047Y-87911038D01*
X157432285Y-87815800D01*
X157527523Y-87768180D01*
X158813238Y-88101514D02*
X158813238Y-88768180D01*
X158384666Y-88101514D02*
X158384666Y-88625323D01*
X158432285Y-88720561D01*
X158527523Y-88768180D01*
X158670380Y-88768180D01*
X158765619Y-88720561D01*
X158813238Y-88672942D01*
X159289428Y-88101514D02*
X159289428Y-89101514D01*
X159289428Y-88149133D02*
X159384666Y-88101514D01*
X159575142Y-88101514D01*
X159670380Y-88149133D01*
X159718000Y-88196752D01*
X159765619Y-88291990D01*
X159765619Y-88577704D01*
X159718000Y-88672942D01*
X159670380Y-88720561D01*
X159575142Y-88768180D01*
X159384666Y-88768180D01*
X159289428Y-88720561D01*
X160622761Y-88101514D02*
X160622761Y-88768180D01*
X160194190Y-88101514D02*
X160194190Y-88625323D01*
X160241809Y-88720561D01*
X160337047Y-88768180D01*
X160479904Y-88768180D01*
X160575142Y-88720561D01*
X160622761Y-88672942D01*
X160956095Y-88101514D02*
X161337047Y-88101514D01*
X161098952Y-87768180D02*
X161098952Y-88625323D01*
X161146571Y-88720561D01*
X161241809Y-88768180D01*
X161337047Y-88768180D01*
D10*
X140875000Y-89657228D02*
X141636904Y-89657228D01*
X141255952Y-90038180D02*
X141255952Y-89276276D01*
X142017857Y-89038180D02*
X142636904Y-89038180D01*
X142303571Y-89419133D01*
X142446428Y-89419133D01*
X142541666Y-89466752D01*
X142589285Y-89514371D01*
X142636904Y-89609609D01*
X142636904Y-89847704D01*
X142589285Y-89942942D01*
X142541666Y-89990561D01*
X142446428Y-90038180D01*
X142160714Y-90038180D01*
X142065476Y-89990561D01*
X142017857Y-89942942D01*
X143065476Y-89942942D02*
X143113095Y-89990561D01*
X143065476Y-90038180D01*
X143017857Y-89990561D01*
X143065476Y-89942942D01*
X143065476Y-90038180D01*
X143446428Y-89038180D02*
X144065476Y-89038180D01*
X143732142Y-89419133D01*
X143875000Y-89419133D01*
X143970238Y-89466752D01*
X144017857Y-89514371D01*
X144065476Y-89609609D01*
X144065476Y-89847704D01*
X144017857Y-89942942D01*
X143970238Y-89990561D01*
X143875000Y-90038180D01*
X143589285Y-90038180D01*
X143494047Y-89990561D01*
X143446428Y-89942942D01*
X144351190Y-89038180D02*
X144684523Y-90038180D01*
X145017857Y-89038180D01*
X132572285Y-89657228D02*
X133334190Y-89657228D01*
X132953238Y-90038180D02*
X132953238Y-89276276D01*
X134286571Y-89038180D02*
X133810380Y-89038180D01*
X133762761Y-89514371D01*
X133810380Y-89466752D01*
X133905619Y-89419133D01*
X134143714Y-89419133D01*
X134238952Y-89466752D01*
X134286571Y-89514371D01*
X134334190Y-89609609D01*
X134334190Y-89847704D01*
X134286571Y-89942942D01*
X134238952Y-89990561D01*
X134143714Y-90038180D01*
X133905619Y-90038180D01*
X133810380Y-89990561D01*
X133762761Y-89942942D01*
X134619904Y-89038180D02*
X134953238Y-90038180D01*
X135286571Y-89038180D01*
X106507047Y-97983561D02*
X105840380Y-97031180D01*
X105364190Y-97983561D02*
X105364190Y-95983561D01*
X106126095Y-95983561D01*
X106316571Y-96078800D01*
X106411809Y-96174038D01*
X106507047Y-96364514D01*
X106507047Y-96650228D01*
X106411809Y-96840704D01*
X106316571Y-96935942D01*
X106126095Y-97031180D01*
X105364190Y-97031180D01*
X108411809Y-96078800D02*
X108221333Y-95983561D01*
X107935619Y-95983561D01*
X107649904Y-96078800D01*
X107459428Y-96269276D01*
X107364190Y-96459752D01*
X107268952Y-96840704D01*
X107268952Y-97126419D01*
X107364190Y-97507371D01*
X107459428Y-97697847D01*
X107649904Y-97888323D01*
X107935619Y-97983561D01*
X108126095Y-97983561D01*
X108411809Y-97888323D01*
X108507047Y-97793085D01*
X108507047Y-97126419D01*
X108126095Y-97126419D01*
X110030857Y-96935942D02*
X110316571Y-97031180D01*
X110411809Y-97126419D01*
X110507047Y-97316895D01*
X110507047Y-97602609D01*
X110411809Y-97793085D01*
X110316571Y-97888323D01*
X110126095Y-97983561D01*
X109364190Y-97983561D01*
X109364190Y-95983561D01*
X110030857Y-95983561D01*
X110221333Y-96078800D01*
X110316571Y-96174038D01*
X110411809Y-96364514D01*
X110411809Y-96554990D01*
X110316571Y-96745466D01*
X110221333Y-96840704D01*
X110030857Y-96935942D01*
X109364190Y-96935942D01*
X111078476Y-96650228D02*
X111840380Y-96650228D01*
X111364190Y-95983561D02*
X111364190Y-97697847D01*
X111459428Y-97888323D01*
X111649904Y-97983561D01*
X111840380Y-97983561D01*
X112792761Y-97983561D02*
X112602285Y-97888323D01*
X112507047Y-97793085D01*
X112411809Y-97602609D01*
X112411809Y-97031180D01*
X112507047Y-96840704D01*
X112602285Y-96745466D01*
X112792761Y-96650228D01*
X113078476Y-96650228D01*
X113268952Y-96745466D01*
X113364190Y-96840704D01*
X113459428Y-97031180D01*
X113459428Y-97602609D01*
X113364190Y-97793085D01*
X113268952Y-97888323D01*
X113078476Y-97983561D01*
X112792761Y-97983561D01*
X114316571Y-97983561D02*
X114316571Y-95983561D01*
X114316571Y-96935942D02*
X115459428Y-96935942D01*
X115459428Y-97983561D02*
X115459428Y-95983561D01*
X116411809Y-97983561D02*
X116411809Y-95983561D01*
X116888000Y-95983561D01*
X117173714Y-96078800D01*
X117364190Y-96269276D01*
X117459428Y-96459752D01*
X117554666Y-96840704D01*
X117554666Y-97126419D01*
X117459428Y-97507371D01*
X117364190Y-97697847D01*
X117173714Y-97888323D01*
X116888000Y-97983561D01*
X116411809Y-97983561D01*
X118411809Y-97983561D02*
X118411809Y-95983561D01*
X119078476Y-97412133D01*
X119745142Y-95983561D01*
X119745142Y-97983561D01*
X120697523Y-97983561D02*
X120697523Y-95983561D01*
X124316571Y-97793085D02*
X124221333Y-97888323D01*
X123935619Y-97983561D01*
X123745142Y-97983561D01*
X123459428Y-97888323D01*
X123268952Y-97697847D01*
X123173714Y-97507371D01*
X123078476Y-97126419D01*
X123078476Y-96840704D01*
X123173714Y-96459752D01*
X123268952Y-96269276D01*
X123459428Y-96078800D01*
X123745142Y-95983561D01*
X123935619Y-95983561D01*
X124221333Y-96078800D01*
X124316571Y-96174038D01*
X125173714Y-97983561D02*
X125173714Y-95983561D01*
X125649904Y-95983561D01*
X125935619Y-96078800D01*
X126126095Y-96269276D01*
X126221333Y-96459752D01*
X126316571Y-96840704D01*
X126316571Y-97126419D01*
X126221333Y-97507371D01*
X126126095Y-97697847D01*
X125935619Y-97888323D01*
X125649904Y-97983561D01*
X125173714Y-97983561D01*
X126888000Y-95983561D02*
X128030857Y-95983561D01*
X127459428Y-97983561D02*
X127459428Y-95983561D01*
X128411809Y-95983561D02*
X129078476Y-97983561D01*
X129745142Y-95983561D01*
X131745142Y-96650228D02*
X132221333Y-97983561D01*
X132697523Y-96650228D01*
X133364190Y-96174038D02*
X133459428Y-96078800D01*
X133649904Y-95983561D01*
X134126095Y-95983561D01*
X134316571Y-96078800D01*
X134411809Y-96174038D01*
X134507047Y-96364514D01*
X134507047Y-96554990D01*
X134411809Y-96840704D01*
X133268952Y-97983561D01*
X134507047Y-97983561D01*
X78190190Y-89411895D02*
X78190190Y-88111895D01*
X78190190Y-88730942D02*
X78933047Y-88730942D01*
X78933047Y-89411895D02*
X78933047Y-88111895D01*
X79552095Y-89411895D02*
X79552095Y-88111895D01*
X79861619Y-88111895D01*
X80047333Y-88173800D01*
X80171142Y-88297609D01*
X80233047Y-88421419D01*
X80294952Y-88669038D01*
X80294952Y-88854752D01*
X80233047Y-89102371D01*
X80171142Y-89226180D01*
X80047333Y-89349990D01*
X79861619Y-89411895D01*
X79552095Y-89411895D01*
X80852095Y-89411895D02*
X80852095Y-88111895D01*
X81285428Y-89040466D01*
X81718761Y-88111895D01*
X81718761Y-89411895D01*
X82337809Y-89411895D02*
X82337809Y-88111895D01*
D12*
%TO.C,solarmon*%
X160528000Y-91744800D02*
X162433000Y-91744800D01*
X161163000Y-91109800D02*
X161163000Y-96189800D01*
X164338000Y-92379800D02*
X160528000Y-92379800D01*
X160528000Y-92379800D02*
X160528000Y-91744800D01*
X161163000Y-91109800D02*
X164338000Y-91109800D01*
X162433000Y-91109800D02*
X162433000Y-91744800D01*
X163068000Y-91109800D02*
X163068000Y-91744800D01*
X163068000Y-91744800D02*
X163703000Y-91744800D01*
X163703000Y-91109800D02*
X163703000Y-91744800D01*
X164338000Y-91109800D02*
X164338000Y-96189800D01*
X161798000Y-92379800D02*
X161798000Y-93014800D01*
X161798000Y-93014800D02*
X163068000Y-93014800D01*
X162433000Y-92379800D02*
X162433000Y-93649800D01*
X163068000Y-92379800D02*
X163068000Y-93014800D01*
X163703000Y-92379800D02*
X163703000Y-93014800D01*
X160528000Y-93649800D02*
X165608000Y-93649800D01*
X160528000Y-94919800D02*
X160528000Y-93649800D01*
X160528000Y-94284800D02*
X165608000Y-94284800D01*
X160528000Y-94919800D02*
X164338000Y-94919800D01*
X161163000Y-95554800D02*
X164338000Y-95554800D01*
X161798000Y-95554800D02*
X161798000Y-96189800D01*
X163703000Y-95554800D02*
X163703000Y-96189800D01*
X161163000Y-96189800D02*
X161798000Y-96189800D01*
X163703000Y-96189800D02*
X164338000Y-96189800D01*
X164973000Y-96189800D02*
X165608000Y-96189800D01*
X164973000Y-91744800D02*
X164973000Y-96189800D01*
X165608000Y-91744800D02*
X165608000Y-96189800D01*
X164973000Y-91744800D02*
X165608000Y-91744800D01*
X164973000Y-92379800D02*
X165608000Y-92379800D01*
X164973000Y-95554800D02*
X165608000Y-95554800D01*
X163068000Y-94284800D02*
X163068000Y-94919800D01*
X163703000Y-94284800D02*
X163703000Y-94919800D01*
G36*
X163068000Y-93014800D02*
G01*
X162433000Y-93014800D01*
X162433000Y-92379800D01*
X163068000Y-92379800D01*
X163068000Y-93014800D01*
G37*
X163068000Y-93014800D02*
X162433000Y-93014800D01*
X162433000Y-92379800D01*
X163068000Y-92379800D01*
X163068000Y-93014800D01*
G36*
X164338000Y-93014800D02*
G01*
X163703000Y-93014800D01*
X163703000Y-92379800D01*
X164338000Y-92379800D01*
X164338000Y-93014800D01*
G37*
X164338000Y-93014800D02*
X163703000Y-93014800D01*
X163703000Y-92379800D01*
X164338000Y-92379800D01*
X164338000Y-93014800D01*
G36*
X163703000Y-94919800D02*
G01*
X163068000Y-94919800D01*
X163068000Y-94284800D01*
X163703000Y-94284800D01*
X163703000Y-94919800D01*
G37*
X163703000Y-94919800D02*
X163068000Y-94919800D01*
X163068000Y-94284800D01*
X163703000Y-94284800D01*
X163703000Y-94919800D01*
X163703000Y-93014800D02*
X164338000Y-93014800D01*
D13*
X159806095Y-97597861D02*
X159901333Y-97645480D01*
X160091809Y-97645480D01*
X160187047Y-97597861D01*
X160234666Y-97502623D01*
X160234666Y-97455004D01*
X160187047Y-97359766D01*
X160091809Y-97312147D01*
X159948952Y-97312147D01*
X159853714Y-97264528D01*
X159806095Y-97169290D01*
X159806095Y-97121671D01*
X159853714Y-97026433D01*
X159948952Y-96978814D01*
X160091809Y-96978814D01*
X160187047Y-97026433D01*
X160806095Y-97645480D02*
X160710857Y-97597861D01*
X160663238Y-97550242D01*
X160615619Y-97455004D01*
X160615619Y-97169290D01*
X160663238Y-97074052D01*
X160710857Y-97026433D01*
X160806095Y-96978814D01*
X160948952Y-96978814D01*
X161044190Y-97026433D01*
X161091809Y-97074052D01*
X161139428Y-97169290D01*
X161139428Y-97455004D01*
X161091809Y-97550242D01*
X161044190Y-97597861D01*
X160948952Y-97645480D01*
X160806095Y-97645480D01*
X161710857Y-97645480D02*
X161615619Y-97597861D01*
X161568000Y-97502623D01*
X161568000Y-96645480D01*
X162520380Y-97645480D02*
X162520380Y-97121671D01*
X162472761Y-97026433D01*
X162377523Y-96978814D01*
X162187047Y-96978814D01*
X162091809Y-97026433D01*
X162520380Y-97597861D02*
X162425142Y-97645480D01*
X162187047Y-97645480D01*
X162091809Y-97597861D01*
X162044190Y-97502623D01*
X162044190Y-97407385D01*
X162091809Y-97312147D01*
X162187047Y-97264528D01*
X162425142Y-97264528D01*
X162520380Y-97216909D01*
X162996571Y-97645480D02*
X162996571Y-96978814D01*
X162996571Y-97169290D02*
X163044190Y-97074052D01*
X163091809Y-97026433D01*
X163187047Y-96978814D01*
X163282285Y-96978814D01*
X163615619Y-97645480D02*
X163615619Y-96978814D01*
X163615619Y-97074052D02*
X163663238Y-97026433D01*
X163758476Y-96978814D01*
X163901333Y-96978814D01*
X163996571Y-97026433D01*
X164044190Y-97121671D01*
X164044190Y-97645480D01*
X164044190Y-97121671D02*
X164091809Y-97026433D01*
X164187047Y-96978814D01*
X164329904Y-96978814D01*
X164425142Y-97026433D01*
X164472761Y-97121671D01*
X164472761Y-97645480D01*
X165091809Y-97645480D02*
X164996571Y-97597861D01*
X164948952Y-97550242D01*
X164901333Y-97455004D01*
X164901333Y-97169290D01*
X164948952Y-97074052D01*
X164996571Y-97026433D01*
X165091809Y-96978814D01*
X165234666Y-96978814D01*
X165329904Y-97026433D01*
X165377523Y-97074052D01*
X165425142Y-97169290D01*
X165425142Y-97455004D01*
X165377523Y-97550242D01*
X165329904Y-97597861D01*
X165234666Y-97645480D01*
X165091809Y-97645480D01*
X165853714Y-96978814D02*
X165853714Y-97645480D01*
X165853714Y-97074052D02*
X165901333Y-97026433D01*
X165996571Y-96978814D01*
X166139428Y-96978814D01*
X166234666Y-97026433D01*
X166282285Y-97121671D01*
X166282285Y-97645480D01*
%TO.C,UP*%
D10*
X122995428Y-91355171D02*
X122995428Y-92569457D01*
X123066857Y-92712314D01*
X123138285Y-92783742D01*
X123281142Y-92855171D01*
X123566857Y-92855171D01*
X123709714Y-92783742D01*
X123781142Y-92712314D01*
X123852571Y-92569457D01*
X123852571Y-91355171D01*
X124566857Y-92855171D02*
X124566857Y-91355171D01*
X125138285Y-91355171D01*
X125281142Y-91426600D01*
X125352571Y-91498028D01*
X125424000Y-91640885D01*
X125424000Y-91855171D01*
X125352571Y-91998028D01*
X125281142Y-92069457D01*
X125138285Y-92140885D01*
X124566857Y-92140885D01*
%TO.C,DOWN*%
X108652571Y-92918671D02*
X108652571Y-91418671D01*
X109009714Y-91418671D01*
X109224000Y-91490100D01*
X109366857Y-91632957D01*
X109438285Y-91775814D01*
X109509714Y-92061528D01*
X109509714Y-92275814D01*
X109438285Y-92561528D01*
X109366857Y-92704385D01*
X109224000Y-92847242D01*
X109009714Y-92918671D01*
X108652571Y-92918671D01*
X110438285Y-91418671D02*
X110724000Y-91418671D01*
X110866857Y-91490100D01*
X111009714Y-91632957D01*
X111081142Y-91918671D01*
X111081142Y-92418671D01*
X111009714Y-92704385D01*
X110866857Y-92847242D01*
X110724000Y-92918671D01*
X110438285Y-92918671D01*
X110295428Y-92847242D01*
X110152571Y-92704385D01*
X110081142Y-92418671D01*
X110081142Y-91918671D01*
X110152571Y-91632957D01*
X110295428Y-91490100D01*
X110438285Y-91418671D01*
X111581142Y-91418671D02*
X111938285Y-92918671D01*
X112224000Y-91847242D01*
X112509714Y-92918671D01*
X112866857Y-91418671D01*
X113438285Y-92918671D02*
X113438285Y-91418671D01*
X114295428Y-92918671D01*
X114295428Y-91418671D01*
%TO.C,SELECT*%
X95059714Y-92732942D02*
X95274000Y-92804371D01*
X95631142Y-92804371D01*
X95774000Y-92732942D01*
X95845428Y-92661514D01*
X95916857Y-92518657D01*
X95916857Y-92375800D01*
X95845428Y-92232942D01*
X95774000Y-92161514D01*
X95631142Y-92090085D01*
X95345428Y-92018657D01*
X95202571Y-91947228D01*
X95131142Y-91875800D01*
X95059714Y-91732942D01*
X95059714Y-91590085D01*
X95131142Y-91447228D01*
X95202571Y-91375800D01*
X95345428Y-91304371D01*
X95702571Y-91304371D01*
X95916857Y-91375800D01*
X96559714Y-92018657D02*
X97059714Y-92018657D01*
X97274000Y-92804371D02*
X96559714Y-92804371D01*
X96559714Y-91304371D01*
X97274000Y-91304371D01*
X98631142Y-92804371D02*
X97916857Y-92804371D01*
X97916857Y-91304371D01*
X99131142Y-92018657D02*
X99631142Y-92018657D01*
X99845428Y-92804371D02*
X99131142Y-92804371D01*
X99131142Y-91304371D01*
X99845428Y-91304371D01*
X101345428Y-92661514D02*
X101274000Y-92732942D01*
X101059714Y-92804371D01*
X100916857Y-92804371D01*
X100702571Y-92732942D01*
X100559714Y-92590085D01*
X100488285Y-92447228D01*
X100416857Y-92161514D01*
X100416857Y-91947228D01*
X100488285Y-91661514D01*
X100559714Y-91518657D01*
X100702571Y-91375800D01*
X100916857Y-91304371D01*
X101059714Y-91304371D01*
X101274000Y-91375800D01*
X101345428Y-91447228D01*
X101774000Y-91304371D02*
X102631142Y-91304371D01*
X102202571Y-92804371D02*
X102202571Y-91304371D01*
%TD*%
M02*
