  0
SECTION
  2
HEADER
  9
$ANGBASE
  50
0.0
  9
$ANGDIR
  70
1
  9
$MEASUREMENT
  70
1
  0
ENDSEC
  0
SECTION
  2
TABLES
  0
TABLE
  2
LTYPE
  70
4
  0
LTYPE
  5
40F
  2
CONTINUOUS
  70
0
  3
Solid line
  72
65
  73
0
  40
0.0
  0
LTYPE
  5
410
  2
DASHDOT
 70
0
  3
Dash Dot ____ _ ____ _
 72
65
 73
4
 40
2.0
 49
1.25
 49
-0.25
 49
0.25
 49
-0.25
  0
LTYPE
  5
411
  2
DASHED
 70
0
  3
Dashed __ __ __ __ __
 72
65
 73
2
 40
0.75
 49
0.5
 49
-0.25
  0
LTYPE
  5
43B
  2
DOTTED
 70
0
  3
Dotted .  .  .  .
 72
65
 73
2
 40
0.2
 49
0.0
 49
-0.2
  0
ENDTAB
  0
TABLE
  2
STYLE
  70
4
  0
STYLE
  2
KICAD
  70
0
  40
0
  41
1
  42
1
  50
0
  71
0
  3
isocp.shx
  0
STYLE
  2
KICADB
  70
0
  40
0
  41
1
  42
1
  50
0
  71
0
  3
isocp.shx
  0
STYLE
  2
KICADI
  70
0
  40
0
  41
1
  42
1
  50
15
  71
0
  3
isocp.shx
  0
STYLE
  2
KICADBI
  70
0
  40
0
  41
1
  42
1
  50
15
  71
0
  3
isocp.shx
  0
ENDTAB
  0
TABLE
  2
LAYER
  70
1
  0
LAYER
  2
BLACK
  70
0
  62
7
  6
CONTINUOUS
  0
ENDTAB
  0
ENDSEC
  0
SECTION
  2
ENTITIES
0
LINE
8
BLACK
6
CONTINUOUS
10
149.989
20
-93.4911
11
150.308
21
-93.623
0
LINE
8
BLACK
6
CONTINUOUS
10
150.308
20
-93.623
11
150.595
21
-93.8145
0
LINE
8
BLACK
6
CONTINUOUS
10
150.595
20
-93.8145
11
150.838
21
-94.0582
0
LINE
8
BLACK
6
CONTINUOUS
10
150.838
20
-94.0582
11
151.03
21
-94.3449
0
LINE
8
BLACK
6
CONTINUOUS
10
151.03
20
-94.3449
11
151.162
21
-94.6633
0
LINE
8
BLACK
6
CONTINUOUS
10
151.162
20
-94.6633
11
151.229
21
-95.0014
0
LINE
8
BLACK
6
CONTINUOUS
10
151.229
20
-95.0014
11
151.229
21
-95.3462
0
LINE
8
BLACK
6
CONTINUOUS
10
151.229
20
-95.3462
11
151.162
21
-95.6843
0
LINE
8
BLACK
6
CONTINUOUS
10
151.162
20
-95.6843
11
151.03
21
-96.0027
0
LINE
8
BLACK
6
CONTINUOUS
10
151.03
20
-96.0027
11
150.838
21
-96.2894
0
LINE
8
BLACK
6
CONTINUOUS
10
150.838
20
-96.2894
11
150.595
21
-96.5331
0
LINE
8
BLACK
6
CONTINUOUS
10
150.595
20
-96.5331
11
150.308
21
-96.7246
0
LINE
8
BLACK
6
CONTINUOUS
10
150.308
20
-96.7246
11
149.989
21
-96.8565
0
LINE
8
BLACK
6
CONTINUOUS
10
149.989
20
-96.8565
11
149.651
21
-96.9238
0
LINE
8
BLACK
6
CONTINUOUS
10
149.651
20
-96.9238
11
149.307
21
-96.9238
0
LINE
8
BLACK
6
CONTINUOUS
10
149.307
20
-96.9238
11
148.969
21
-96.8565
0
LINE
8
BLACK
6
CONTINUOUS
10
148.969
20
-96.8565
11
148.65
21
-96.7246
0
LINE
8
BLACK
6
CONTINUOUS
10
148.65
20
-96.7246
11
148.363
21
-96.5331
0
LINE
8
BLACK
6
CONTINUOUS
10
148.363
20
-96.5331
11
148.12
21
-96.2894
0
LINE
8
BLACK
6
CONTINUOUS
10
148.12
20
-96.2894
11
147.928
21
-96.0027
0
LINE
8
BLACK
6
CONTINUOUS
10
147.928
20
-96.0027
11
147.796
21
-95.6843
0
LINE
8
BLACK
6
CONTINUOUS
10
147.796
20
-95.6843
11
147.729
21
-95.3462
0
LINE
8
BLACK
6
CONTINUOUS
10
147.729
20
-95.3462
11
147.729
21
-95.0014
0
LINE
8
BLACK
6
CONTINUOUS
10
147.729
20
-95.0014
11
147.796
21
-94.6633
0
LINE
8
BLACK
6
CONTINUOUS
10
147.796
20
-94.6633
11
147.928
21
-94.3449
0
LINE
8
BLACK
6
CONTINUOUS
10
147.928
20
-94.3449
11
148.12
21
-94.0582
0
LINE
8
BLACK
6
CONTINUOUS
10
148.12
20
-94.0582
11
148.363
21
-93.8145
0
LINE
8
BLACK
6
CONTINUOUS
10
148.363
20
-93.8145
11
148.65
21
-93.623
0
LINE
8
BLACK
6
CONTINUOUS
10
148.65
20
-93.623
11
148.969
21
-93.4911
0
LINE
8
BLACK
6
CONTINUOUS
10
148.969
20
-93.4911
11
149.307
21
-93.4238
0
LINE
8
BLACK
6
CONTINUOUS
10
149.307
20
-93.4238
11
149.651
21
-93.4238
0
LINE
8
BLACK
6
CONTINUOUS
10
149.651
20
-93.4238
11
149.989
21
-93.4911
0
LINE
8
BLACK
6
CONTINUOUS
10
90.0201
20
-93.453
11
90.3385
21
-93.5849
0
LINE
8
BLACK
6
CONTINUOUS
10
90.3385
20
-93.5849
11
90.6252
21
-93.7764
0
LINE
8
BLACK
6
CONTINUOUS
10
90.6252
20
-93.7764
11
90.8689
21
-94.0201
0
LINE
8
BLACK
6
CONTINUOUS
10
90.8689
20
-94.0201
11
91.0604
21
-94.3068
0
LINE
8
BLACK
6
CONTINUOUS
10
91.0604
20
-94.3068
11
91.1923
21
-94.6252
0
LINE
8
BLACK
6
CONTINUOUS
10
91.1923
20
-94.6252
11
91.2596
21
-94.9633
0
LINE
8
BLACK
6
CONTINUOUS
10
91.2596
20
-94.9633
11
91.2596
21
-95.3081
0
LINE
8
BLACK
6
CONTINUOUS
10
91.2596
20
-95.3081
11
91.1923
21
-95.6462
0
LINE
8
BLACK
6
CONTINUOUS
10
91.1923
20
-95.6462
11
91.0604
21
-95.9646
0
LINE
8
BLACK
6
CONTINUOUS
10
91.0604
20
-95.9646
11
90.8689
21
-96.2513
0
LINE
8
BLACK
6
CONTINUOUS
10
90.8689
20
-96.2513
11
90.6252
21
-96.495
0
LINE
8
BLACK
6
CONTINUOUS
10
90.6252
20
-96.495
11
90.3385
21
-96.6865
0
LINE
8
BLACK
6
CONTINUOUS
10
90.3385
20
-96.6865
11
90.0201
21
-96.8184
0
LINE
8
BLACK
6
CONTINUOUS
10
90.0201
20
-96.8184
11
89.682
21
-96.8857
0
LINE
8
BLACK
6
CONTINUOUS
10
89.682
20
-96.8857
11
89.3372
21
-96.8857
0
LINE
8
BLACK
6
CONTINUOUS
10
89.3372
20
-96.8857
11
88.9991
21
-96.8184
0
LINE
8
BLACK
6
CONTINUOUS
10
88.9991
20
-96.8184
11
88.6807
21
-96.6865
0
LINE
8
BLACK
6
CONTINUOUS
10
88.6807
20
-96.6865
11
88.394
21
-96.495
0
LINE
8
BLACK
6
CONTINUOUS
10
88.394
20
-96.495
11
88.1503
21
-96.2513
0
LINE
8
BLACK
6
CONTINUOUS
10
88.1503
20
-96.2513
11
87.9588
21
-95.9646
0
LINE
8
BLACK
6
CONTINUOUS
10
87.9588
20
-95.9646
11
87.8269
21
-95.6462
0
LINE
8
BLACK
6
CONTINUOUS
10
87.8269
20
-95.6462
11
87.7596
21
-95.3081
0
LINE
8
BLACK
6
CONTINUOUS
10
87.7596
20
-95.3081
11
87.7596
21
-94.9633
0
LINE
8
BLACK
6
CONTINUOUS
10
87.7596
20
-94.9633
11
87.8269
21
-94.6252
0
LINE
8
BLACK
6
CONTINUOUS
10
87.8269
20
-94.6252
11
87.9588
21
-94.3068
0
LINE
8
BLACK
6
CONTINUOUS
10
87.9588
20
-94.3068
11
88.1503
21
-94.0201
0
LINE
8
BLACK
6
CONTINUOUS
10
88.1503
20
-94.0201
11
88.394
21
-93.7764
0
LINE
8
BLACK
6
CONTINUOUS
10
88.394
20
-93.7764
11
88.6807
21
-93.5849
0
LINE
8
BLACK
6
CONTINUOUS
10
88.6807
20
-93.5849
11
88.9991
21
-93.453
0
LINE
8
BLACK
6
CONTINUOUS
10
88.9991
20
-93.453
11
89.3372
21
-93.3857
0
LINE
8
BLACK
6
CONTINUOUS
10
89.3372
20
-93.3857
11
89.682
21
-93.3857
0
LINE
8
BLACK
6
CONTINUOUS
10
89.682
20
-93.3857
11
90.0201
21
-93.453
0
LINE
8
BLACK
6
CONTINUOUS
10
124.845
20
-85.0882
11
125.263
21
-85.2616
0
LINE
8
BLACK
6
CONTINUOUS
10
125.263
20
-85.2616
11
125.64
21
-85.5133
0
LINE
8
BLACK
6
CONTINUOUS
10
125.64
20
-85.5133
11
125.961
21
-85.8336
0
LINE
8
BLACK
6
CONTINUOUS
10
125.961
20
-85.8336
11
126.212
21
-86.2103
0
LINE
8
BLACK
6
CONTINUOUS
10
126.212
20
-86.2103
11
126.386
21
-86.6289
0
LINE
8
BLACK
6
CONTINUOUS
10
126.386
20
-86.6289
11
126.474
21
-87.0733
0
LINE
8
BLACK
6
CONTINUOUS
10
126.474
20
-87.0733
11
126.474
21
-87.5263
0
LINE
8
BLACK
6
CONTINUOUS
10
126.474
20
-87.5263
11
126.386
21
-87.9707
0
LINE
8
BLACK
6
CONTINUOUS
10
126.386
20
-87.9707
11
126.212
21
-88.3893
0
LINE
8
BLACK
6
CONTINUOUS
10
126.212
20
-88.3893
11
125.961
21
-88.766
0
LINE
8
BLACK
6
CONTINUOUS
10
125.961
20
-88.766
11
125.64
21
-89.0863
0
LINE
8
BLACK
6
CONTINUOUS
10
125.64
20
-89.0863
11
125.263
21
-89.338
0
LINE
8
BLACK
6
CONTINUOUS
10
125.263
20
-89.338
11
124.845
21
-89.5114
0
LINE
8
BLACK
6
CONTINUOUS
10
124.845
20
-89.5114
11
124.401
21
-89.5998
0
LINE
8
BLACK
6
CONTINUOUS
10
124.401
20
-89.5998
11
123.947
21
-89.5998
0
LINE
8
BLACK
6
CONTINUOUS
10
123.947
20
-89.5998
11
123.503
21
-89.5114
0
LINE
8
BLACK
6
CONTINUOUS
10
123.503
20
-89.5114
11
123.085
21
-89.338
0
LINE
8
BLACK
6
CONTINUOUS
10
123.085
20
-89.338
11
122.708
21
-89.0863
0
LINE
8
BLACK
6
CONTINUOUS
10
122.708
20
-89.0863
11
122.387
21
-88.766
0
LINE
8
BLACK
6
CONTINUOUS
10
122.387
20
-88.766
11
122.136
21
-88.3893
0
LINE
8
BLACK
6
CONTINUOUS
10
122.136
20
-88.3893
11
121.962
21
-87.9707
0
LINE
8
BLACK
6
CONTINUOUS
10
121.962
20
-87.9707
11
121.874
21
-87.5263
0
LINE
8
BLACK
6
CONTINUOUS
10
121.874
20
-87.5263
11
121.874
21
-87.0733
0
LINE
8
BLACK
6
CONTINUOUS
10
121.874
20
-87.0733
11
121.962
21
-86.6289
0
LINE
8
BLACK
6
CONTINUOUS
10
121.962
20
-86.6289
11
122.136
21
-86.2103
0
LINE
8
BLACK
6
CONTINUOUS
10
122.136
20
-86.2103
11
122.387
21
-85.8336
0
LINE
8
BLACK
6
CONTINUOUS
10
122.387
20
-85.8336
11
122.708
21
-85.5133
0
LINE
8
BLACK
6
CONTINUOUS
10
122.708
20
-85.5133
11
123.085
21
-85.2616
0
LINE
8
BLACK
6
CONTINUOUS
10
123.085
20
-85.2616
11
123.503
21
-85.0882
0
LINE
8
BLACK
6
CONTINUOUS
10
123.503
20
-85.0882
11
123.947
21
-84.9998
0
LINE
8
BLACK
6
CONTINUOUS
10
123.947
20
-84.9998
11
124.401
21
-84.9998
0
LINE
8
BLACK
6
CONTINUOUS
10
124.401
20
-84.9998
11
124.845
21
-85.0882
0
LINE
8
BLACK
6
CONTINUOUS
10
112.145
20
-85.0374
11
112.563
21
-85.2108
0
LINE
8
BLACK
6
CONTINUOUS
10
112.563
20
-85.2108
11
112.94
21
-85.4625
0
LINE
8
BLACK
6
CONTINUOUS
10
112.94
20
-85.4625
11
113.261
21
-85.7828
0
LINE
8
BLACK
6
CONTINUOUS
10
113.261
20
-85.7828
11
113.512
21
-86.1595
0
LINE
8
BLACK
6
CONTINUOUS
10
113.512
20
-86.1595
11
113.686
21
-86.5781
0
LINE
8
BLACK
6
CONTINUOUS
10
113.686
20
-86.5781
11
113.774
21
-87.0225
0
LINE
8
BLACK
6
CONTINUOUS
10
113.774
20
-87.0225
11
113.774
21
-87.4755
0
LINE
8
BLACK
6
CONTINUOUS
10
113.774
20
-87.4755
11
113.686
21
-87.9199
0
LINE
8
BLACK
6
CONTINUOUS
10
113.686
20
-87.9199
11
113.512
21
-88.3385
0
LINE
8
BLACK
6
CONTINUOUS
10
113.512
20
-88.3385
11
113.261
21
-88.7152
0
LINE
8
BLACK
6
CONTINUOUS
10
113.261
20
-88.7152
11
112.94
21
-89.0355
0
LINE
8
BLACK
6
CONTINUOUS
10
112.94
20
-89.0355
11
112.563
21
-89.2872
0
LINE
8
BLACK
6
CONTINUOUS
10
112.563
20
-89.2872
11
112.145
21
-89.4606
0
LINE
8
BLACK
6
CONTINUOUS
10
112.145
20
-89.4606
11
111.701
21
-89.549
0
LINE
8
BLACK
6
CONTINUOUS
10
111.701
20
-89.549
11
111.247
21
-89.549
0
LINE
8
BLACK
6
CONTINUOUS
10
111.247
20
-89.549
11
110.803
21
-89.4606
0
LINE
8
BLACK
6
CONTINUOUS
10
110.803
20
-89.4606
11
110.385
21
-89.2872
0
LINE
8
BLACK
6
CONTINUOUS
10
110.385
20
-89.2872
11
110.008
21
-89.0355
0
LINE
8
BLACK
6
CONTINUOUS
10
110.008
20
-89.0355
11
109.687
21
-88.7152
0
LINE
8
BLACK
6
CONTINUOUS
10
109.687
20
-88.7152
11
109.436
21
-88.3385
0
LINE
8
BLACK
6
CONTINUOUS
10
109.436
20
-88.3385
11
109.262
21
-87.9199
0
LINE
8
BLACK
6
CONTINUOUS
10
109.262
20
-87.9199
11
109.174
21
-87.4755
0
LINE
8
BLACK
6
CONTINUOUS
10
109.174
20
-87.4755
11
109.174
21
-87.0225
0
LINE
8
BLACK
6
CONTINUOUS
10
109.174
20
-87.0225
11
109.262
21
-86.5781
0
LINE
8
BLACK
6
CONTINUOUS
10
109.262
20
-86.5781
11
109.436
21
-86.1595
0
LINE
8
BLACK
6
CONTINUOUS
10
109.436
20
-86.1595
11
109.687
21
-85.7828
0
LINE
8
BLACK
6
CONTINUOUS
10
109.687
20
-85.7828
11
110.008
21
-85.4625
0
LINE
8
BLACK
6
CONTINUOUS
10
110.008
20
-85.4625
11
110.385
21
-85.2108
0
LINE
8
BLACK
6
CONTINUOUS
10
110.385
20
-85.2108
11
110.803
21
-85.0374
0
LINE
8
BLACK
6
CONTINUOUS
10
110.803
20
-85.0374
11
111.247
21
-84.949
0
LINE
8
BLACK
6
CONTINUOUS
10
111.247
20
-84.949
11
111.701
21
-84.949
0
LINE
8
BLACK
6
CONTINUOUS
10
111.701
20
-84.949
11
112.145
21
-85.0374
0
LINE
8
BLACK
6
CONTINUOUS
10
99.4449
20
-85.0374
11
99.8635
21
-85.2108
0
LINE
8
BLACK
6
CONTINUOUS
10
99.8635
20
-85.2108
11
100.24
21
-85.4625
0
LINE
8
BLACK
6
CONTINUOUS
10
100.24
20
-85.4625
11
100.561
21
-85.7828
0
LINE
8
BLACK
6
CONTINUOUS
10
100.561
20
-85.7828
11
100.812
21
-86.1595
0
LINE
8
BLACK
6
CONTINUOUS
10
100.812
20
-86.1595
11
100.986
21
-86.5781
0
LINE
8
BLACK
6
CONTINUOUS
10
100.986
20
-86.5781
11
101.074
21
-87.0225
0
LINE
8
BLACK
6
CONTINUOUS
10
101.074
20
-87.0225
11
101.074
21
-87.4755
0
LINE
8
BLACK
6
CONTINUOUS
10
101.074
20
-87.4755
11
100.986
21
-87.9199
0
LINE
8
BLACK
6
CONTINUOUS
10
100.986
20
-87.9199
11
100.812
21
-88.3385
0
LINE
8
BLACK
6
CONTINUOUS
10
100.812
20
-88.3385
11
100.561
21
-88.7152
0
LINE
8
BLACK
6
CONTINUOUS
10
100.561
20
-88.7152
11
100.24
21
-89.0355
0
LINE
8
BLACK
6
CONTINUOUS
10
100.24
20
-89.0355
11
99.8635
21
-89.2872
0
LINE
8
BLACK
6
CONTINUOUS
10
99.8635
20
-89.2872
11
99.4449
21
-89.4606
0
LINE
8
BLACK
6
CONTINUOUS
10
99.4449
20
-89.4606
11
99.0005
21
-89.549
0
LINE
8
BLACK
6
CONTINUOUS
10
99.0005
20
-89.549
11
98.5475
21
-89.549
0
LINE
8
BLACK
6
CONTINUOUS
10
98.5475
20
-89.549
11
98.1031
21
-89.4606
0
LINE
8
BLACK
6
CONTINUOUS
10
98.1031
20
-89.4606
11
97.6845
21
-89.2872
0
LINE
8
BLACK
6
CONTINUOUS
10
97.6845
20
-89.2872
11
97.3078
21
-89.0355
0
LINE
8
BLACK
6
CONTINUOUS
10
97.3078
20
-89.0355
11
96.9875
21
-88.7152
0
LINE
8
BLACK
6
CONTINUOUS
10
96.9875
20
-88.7152
11
96.7358
21
-88.3385
0
LINE
8
BLACK
6
CONTINUOUS
10
96.7358
20
-88.3385
11
96.5624
21
-87.9199
0
LINE
8
BLACK
6
CONTINUOUS
10
96.5624
20
-87.9199
11
96.474
21
-87.4755
0
LINE
8
BLACK
6
CONTINUOUS
10
96.474
20
-87.4755
11
96.474
21
-87.0225
0
LINE
8
BLACK
6
CONTINUOUS
10
96.474
20
-87.0225
11
96.5624
21
-86.5781
0
LINE
8
BLACK
6
CONTINUOUS
10
96.5624
20
-86.5781
11
96.7358
21
-86.1595
0
LINE
8
BLACK
6
CONTINUOUS
10
96.7358
20
-86.1595
11
96.9875
21
-85.7828
0
LINE
8
BLACK
6
CONTINUOUS
10
96.9875
20
-85.7828
11
97.3078
21
-85.4625
0
LINE
8
BLACK
6
CONTINUOUS
10
97.3078
20
-85.4625
11
97.6845
21
-85.2108
0
LINE
8
BLACK
6
CONTINUOUS
10
97.6845
20
-85.2108
11
98.1031
21
-85.0374
0
LINE
8
BLACK
6
CONTINUOUS
10
98.1031
20
-85.0374
11
98.5475
21
-84.949
0
LINE
8
BLACK
6
CONTINUOUS
10
98.5475
20
-84.949
11
99.0005
21
-84.949
0
LINE
8
BLACK
6
CONTINUOUS
10
99.0005
20
-84.949
11
99.4449
21
-85.0374
0
LINE
8
BLACK
6
CONTINUOUS
10
77.1909
20
-67.1838
11
77.1909
21
-67.1838
0
LINE
8
BLACK
6
CONTINUOUS
10
77.1909
20
-67.1838
11
77.191
21
-67.1838
0
LINE
8
BLACK
6
CONTINUOUS
10
77.191
20
-67.1838
11
77.1913
21
-67.1838
0
LINE
8
BLACK
6
CONTINUOUS
10
77.1913
20
-67.1838
11
77.1959
21
-67.1843
0
LINE
8
BLACK
6
CONTINUOUS
10
77.1959
20
-67.1843
11
77.2007
21
-67.1848
0
LINE
8
BLACK
6
CONTINUOUS
10
77.2007
20
-67.1848
11
77.2008
21
-67.1849
0
LINE
8
BLACK
6
CONTINUOUS
10
77.2008
20
-67.1849
11
77.201
21
-67.1849
0
LINE
8
BLACK
6
CONTINUOUS
10
77.201
20
-67.1849
11
77.2055
21
-67.1863
0
LINE
8
BLACK
6
CONTINUOUS
10
77.2055
20
-67.1863
11
77.21
21
-67.1877
0
LINE
8
BLACK
6
CONTINUOUS
10
77.21
20
-67.1877
11
77.2101
21
-67.1878
0
LINE
8
BLACK
6
CONTINUOUS
10
77.2101
20
-67.1878
11
77.2103
21
-67.1878
0
LINE
8
BLACK
6
CONTINUOUS
10
77.2103
20
-67.1878
11
77.2144
21
-67.1901
0
LINE
8
BLACK
6
CONTINUOUS
10
77.2144
20
-67.1901
11
77.2186
21
-67.1923
0
LINE
8
BLACK
6
CONTINUOUS
10
77.2186
20
-67.1923
11
77.2187
21
-67.1925
0
LINE
8
BLACK
6
CONTINUOUS
10
77.2187
20
-67.1925
11
77.2188
21
-67.1925
0
LINE
8
BLACK
6
CONTINUOUS
10
77.2188
20
-67.1925
11
77.2224
21
-67.1955
0
LINE
8
BLACK
6
CONTINUOUS
10
77.2224
20
-67.1955
11
77.2261
21
-67.1986
0
LINE
8
BLACK
6
CONTINUOUS
10
77.2261
20
-67.1986
11
77.2262
21
-67.1987
0
LINE
8
BLACK
6
CONTINUOUS
10
77.2262
20
-67.1987
11
77.2263
21
-67.1988
0
LINE
8
BLACK
6
CONTINUOUS
10
77.2263
20
-67.1988
11
77.2292
21
-67.2024
0
LINE
8
BLACK
6
CONTINUOUS
10
77.2292
20
-67.2024
11
77.2322
21
-67.2061
0
LINE
8
BLACK
6
CONTINUOUS
10
77.2322
20
-67.2061
11
77.2323
21
-67.2063
0
LINE
8
BLACK
6
CONTINUOUS
10
77.2323
20
-67.2063
11
77.2324
21
-67.2064
0
LINE
8
BLACK
6
CONTINUOUS
10
77.2324
20
-67.2064
11
77.2346
21
-67.2105
0
LINE
8
BLACK
6
CONTINUOUS
10
77.2346
20
-67.2105
11
77.2368
21
-67.2147
0
LINE
8
BLACK
6
CONTINUOUS
10
77.2368
20
-67.2147
11
77.2369
21
-67.2149
0
LINE
8
BLACK
6
CONTINUOUS
10
77.2369
20
-67.2149
11
77.237
21
-67.2151
0
LINE
8
BLACK
6
CONTINUOUS
10
77.237
20
-67.2151
11
77.2383
21
-67.2195
0
LINE
8
BLACK
6
CONTINUOUS
10
77.2383
20
-67.2195
11
77.2396
21
-67.2241
0
LINE
8
BLACK
6
CONTINUOUS
10
77.2396
20
-67.2241
11
77.2397
21
-67.2243
0
LINE
8
BLACK
6
CONTINUOUS
10
77.2397
20
-67.2243
11
77.2397
21
-67.2244
0
LINE
8
BLACK
6
CONTINUOUS
10
77.2397
20
-67.2244
11
77.2401
21
-67.2291
0
LINE
8
BLACK
6
CONTINUOUS
10
77.2401
20
-67.2291
11
77.2406
21
-67.2338
0
LINE
8
BLACK
6
CONTINUOUS
10
77.2406
20
-67.2338
11
77.2406
21
-71.0438
0
LINE
8
BLACK
6
CONTINUOUS
10
77.2406
20
-71.0438
11
77.2406
21
-71.0445
0
LINE
8
BLACK
6
CONTINUOUS
10
77.2406
20
-71.0445
11
77.2401
21
-71.0485
0
LINE
8
BLACK
6
CONTINUOUS
10
77.2401
20
-71.0485
11
77.2398
21
-71.0524
0
LINE
8
BLACK
6
CONTINUOUS
10
77.2398
20
-71.0524
11
77.2396
21
-71.0533
0
LINE
8
BLACK
6
CONTINUOUS
10
77.2396
20
-71.0533
11
77.2395
21
-71.0542
0
LINE
8
BLACK
6
CONTINUOUS
10
77.2395
20
-71.0542
11
77.2383
21
-71.058
0
LINE
8
BLACK
6
CONTINUOUS
10
77.2383
20
-71.058
11
77.2372
21
-71.0618
0
LINE
8
BLACK
6
CONTINUOUS
10
77.2372
20
-71.0618
11
77.2368
21
-71.0626
0
LINE
8
BLACK
6
CONTINUOUS
10
77.2368
20
-71.0626
11
77.2366
21
-71.0635
0
LINE
8
BLACK
6
CONTINUOUS
10
77.2366
20
-71.0635
11
77.2346
21
-71.067
0
LINE
8
BLACK
6
CONTINUOUS
10
77.2346
20
-71.067
11
77.2328
21
-71.0706
0
LINE
8
BLACK
6
CONTINUOUS
10
77.2328
20
-71.0706
11
76.7502
21
-71.8326
0
LINE
8
BLACK
6
CONTINUOUS
10
76.7502
20
-71.8326
11
76.7499
21
-71.8331
0
LINE
8
BLACK
6
CONTINUOUS
10
76.7499
20
-71.8331
11
76.7496
21
-71.8334
0
LINE
8
BLACK
6
CONTINUOUS
10
76.7496
20
-71.8334
11
76.7495
21
-71.8338
0
LINE
8
BLACK
6
CONTINUOUS
10
76.7495
20
-71.8338
11
76.7466
21
-71.8373
0
LINE
8
BLACK
6
CONTINUOUS
10
76.7466
20
-71.8373
11
76.7438
21
-71.8408
0
LINE
8
BLACK
6
CONTINUOUS
10
76.7438
20
-71.8408
11
76.7435
21
-71.841
0
LINE
8
BLACK
6
CONTINUOUS
10
76.7435
20
-71.841
11
76.7432
21
-71.8413
0
LINE
8
BLACK
6
CONTINUOUS
10
76.7432
20
-71.8413
11
76.7397
21
-71.8441
0
LINE
8
BLACK
6
CONTINUOUS
10
76.7397
20
-71.8441
11
76.7363
21
-71.847
0
LINE
8
BLACK
6
CONTINUOUS
10
76.7363
20
-71.847
11
76.736
21
-71.8472
0
LINE
8
BLACK
6
CONTINUOUS
10
76.736
20
-71.8472
11
76.7357
21
-71.8474
0
LINE
8
BLACK
6
CONTINUOUS
10
76.7357
20
-71.8474
11
76.7317
21
-71.8496
0
LINE
8
BLACK
6
CONTINUOUS
10
76.7317
20
-71.8496
11
76.7277
21
-71.8517
0
LINE
8
BLACK
6
CONTINUOUS
10
76.7277
20
-71.8517
11
76.7274
21
-71.8519
0
LINE
8
BLACK
6
CONTINUOUS
10
76.7274
20
-71.8519
11
76.7271
21
-71.852
0
LINE
8
BLACK
6
CONTINUOUS
10
76.7271
20
-71.852
11
76.7227
21
-71.8533
0
LINE
8
BLACK
6
CONTINUOUS
10
76.7227
20
-71.8533
11
76.7184
21
-71.8547
0
LINE
8
BLACK
6
CONTINUOUS
10
76.7184
20
-71.8547
11
76.7181
21
-71.8547
0
LINE
8
BLACK
6
CONTINUOUS
10
76.7181
20
-71.8547
11
76.7177
21
-71.8548
0
LINE
8
BLACK
6
CONTINUOUS
10
76.7177
20
-71.8548
11
76.7132
21
-71.8553
0
LINE
8
BLACK
6
CONTINUOUS
10
76.7132
20
-71.8553
11
76.7087
21
-71.8558
0
LINE
8
BLACK
6
CONTINUOUS
10
76.7087
20
-71.8558
11
76.7084
21
-71.8558
0
LINE
8
BLACK
6
CONTINUOUS
10
76.7084
20
-71.8558
11
76.708
21
-71.8558
0
LINE
8
BLACK
6
CONTINUOUS
10
76.708
20
-71.8558
11
70.9422
21
-71.8558
0
LINE
8
BLACK
6
CONTINUOUS
10
70.9422
20
-71.8558
11
70.9419
21
-71.8558
0
LINE
8
BLACK
6
CONTINUOUS
10
70.9419
20
-71.8558
11
70.9419
21
-71.8558
0
LINE
8
BLACK
6
CONTINUOUS
10
70.9419
20
-71.8558
11
70.9418
21
-71.8558
0
LINE
8
BLACK
6
CONTINUOUS
10
70.9418
20
-71.8558
11
70.9415
21
-71.8558
0
LINE
8
BLACK
6
CONTINUOUS
10
70.9415
20
-71.8558
11
70.9369
21
-71.8553
0
LINE
8
BLACK
6
CONTINUOUS
10
70.9369
20
-71.8553
11
70.9321
21
-71.8548
0
LINE
8
BLACK
6
CONTINUOUS
10
70.9321
20
-71.8548
11
70.932
21
-71.8547
0
LINE
8
BLACK
6
CONTINUOUS
10
70.932
20
-71.8547
11
70.9318
21
-71.8547
0
LINE
8
BLACK
6
CONTINUOUS
10
70.9318
20
-71.8547
11
70.9273
21
-71.8533
0
LINE
8
BLACK
6
CONTINUOUS
10
70.9273
20
-71.8533
11
70.9228
21
-71.8519
0
LINE
8
BLACK
6
CONTINUOUS
10
70.9228
20
-71.8519
11
70.9227
21
-71.8518
0
LINE
8
BLACK
6
CONTINUOUS
10
70.9227
20
-71.8518
11
70.9225
21
-71.8518
0
LINE
8
BLACK
6
CONTINUOUS
10
70.9225
20
-71.8518
11
70.9184
21
-71.8495
0
LINE
8
BLACK
6
CONTINUOUS
10
70.9184
20
-71.8495
11
70.9142
21
-71.8473
0
LINE
8
BLACK
6
CONTINUOUS
10
70.9142
20
-71.8473
11
70.9141
21
-71.8471
0
LINE
8
BLACK
6
CONTINUOUS
10
70.9141
20
-71.8471
11
70.914
21
-71.8471
0
LINE
8
BLACK
6
CONTINUOUS
10
70.914
20
-71.8471
11
70.9104
21
-71.8441
0
LINE
8
BLACK
6
CONTINUOUS
10
70.9104
20
-71.8441
11
70.9067
21
-71.841
0
LINE
8
BLACK
6
CONTINUOUS
10
70.9067
20
-71.841
11
70.9066
21
-71.8409
0
LINE
8
BLACK
6
CONTINUOUS
10
70.9066
20
-71.8409
11
70.9065
21
-71.8408
0
LINE
8
BLACK
6
CONTINUOUS
10
70.9065
20
-71.8408
11
70.9036
21
-71.8372
0
LINE
8
BLACK
6
CONTINUOUS
10
70.9036
20
-71.8372
11
70.9006
21
-71.8335
0
LINE
8
BLACK
6
CONTINUOUS
10
70.9006
20
-71.8335
11
70.9005
21
-71.8333
0
LINE
8
BLACK
6
CONTINUOUS
10
70.9005
20
-71.8333
11
70.9004
21
-71.8332
0
LINE
8
BLACK
6
CONTINUOUS
10
70.9004
20
-71.8332
11
70.8982
21
-71.8291
0
LINE
8
BLACK
6
CONTINUOUS
10
70.8982
20
-71.8291
11
70.896
21
-71.8249
0
LINE
8
BLACK
6
CONTINUOUS
10
70.896
20
-71.8249
11
70.8959
21
-71.8247
0
LINE
8
BLACK
6
CONTINUOUS
10
70.8959
20
-71.8247
11
70.8958
21
-71.8245
0
LINE
8
BLACK
6
CONTINUOUS
10
70.8958
20
-71.8245
11
70.8945
21
-71.8201
0
LINE
8
BLACK
6
CONTINUOUS
10
70.8945
20
-71.8201
11
70.8932
21
-71.8155
0
LINE
8
BLACK
6
CONTINUOUS
10
70.8932
20
-71.8155
11
70.8931
21
-71.8153
0
LINE
8
BLACK
6
CONTINUOUS
10
70.8931
20
-71.8153
11
70.8931
21
-71.8152
0
LINE
8
BLACK
6
CONTINUOUS
10
70.8931
20
-71.8152
11
70.8927
21
-71.8105
0
LINE
8
BLACK
6
CONTINUOUS
10
70.8927
20
-71.8105
11
70.8922
21
-71.8058
0
LINE
8
BLACK
6
CONTINUOUS
10
70.8922
20
-71.8058
11
70.8922
21
-67.2338
0
LINE
8
BLACK
6
CONTINUOUS
10
70.8922
20
-67.2338
11
70.8922
21
-67.2335
0
LINE
8
BLACK
6
CONTINUOUS
10
70.8922
20
-67.2335
11
70.8922
21
-67.2335
0
LINE
8
BLACK
6
CONTINUOUS
10
70.8922
20
-67.2335
11
70.8922
21
-67.2334
0
LINE
8
BLACK
6
CONTINUOUS
10
70.8922
20
-67.2334
11
70.8922
21
-67.2331
0
LINE
8
BLACK
6
CONTINUOUS
10
70.8922
20
-67.2331
11
70.8927
21
-67.2285
0
LINE
8
BLACK
6
CONTINUOUS
10
70.8927
20
-67.2285
11
70.8932
21
-67.2237
0
LINE
8
BLACK
6
CONTINUOUS
10
70.8932
20
-67.2237
11
70.8933
21
-67.2236
0
LINE
8
BLACK
6
CONTINUOUS
10
70.8933
20
-67.2236
11
70.8933
21
-67.2234
0
LINE
8
BLACK
6
CONTINUOUS
10
70.8933
20
-67.2234
11
70.8947
21
-67.2189
0
LINE
8
BLACK
6
CONTINUOUS
10
70.8947
20
-67.2189
11
70.8961
21
-67.2144
0
LINE
8
BLACK
6
CONTINUOUS
10
70.8961
20
-67.2144
11
70.8962
21
-67.2143
0
LINE
8
BLACK
6
CONTINUOUS
10
70.8962
20
-67.2143
11
70.8962
21
-67.2141
0
LINE
8
BLACK
6
CONTINUOUS
10
70.8962
20
-67.2141
11
70.8985
21
-67.21
0
LINE
8
BLACK
6
CONTINUOUS
10
70.8985
20
-67.21
11
70.9007
21
-67.2058
0
LINE
8
BLACK
6
CONTINUOUS
10
70.9007
20
-67.2058
11
70.9009
21
-67.2057
0
LINE
8
BLACK
6
CONTINUOUS
10
70.9009
20
-67.2057
11
70.9009
21
-67.2056
0
LINE
8
BLACK
6
CONTINUOUS
10
70.9009
20
-67.2056
11
70.9039
21
-67.202
0
LINE
8
BLACK
6
CONTINUOUS
10
70.9039
20
-67.202
11
70.907
21
-67.1983
0
LINE
8
BLACK
6
CONTINUOUS
10
70.907
20
-67.1983
11
70.9071
21
-67.1982
0
LINE
8
BLACK
6
CONTINUOUS
10
70.9071
20
-67.1982
11
70.9072
21
-67.1981
0
LINE
8
BLACK
6
CONTINUOUS
10
70.9072
20
-67.1981
11
70.9108
21
-67.1952
0
LINE
8
BLACK
6
CONTINUOUS
10
70.9108
20
-67.1952
11
70.9145
21
-67.1922
0
LINE
8
BLACK
6
CONTINUOUS
10
70.9145
20
-67.1922
11
70.9147
21
-67.1921
0
LINE
8
BLACK
6
CONTINUOUS
10
70.9147
20
-67.1921
11
70.9148
21
-67.192
0
LINE
8
BLACK
6
CONTINUOUS
10
70.9148
20
-67.192
11
70.9189
21
-67.1898
0
LINE
8
BLACK
6
CONTINUOUS
10
70.9189
20
-67.1898
11
70.9231
21
-67.1876
0
LINE
8
BLACK
6
CONTINUOUS
10
70.9231
20
-67.1876
11
70.9233
21
-67.1875
0
LINE
8
BLACK
6
CONTINUOUS
10
70.9233
20
-67.1875
11
70.9235
21
-67.1874
0
LINE
8
BLACK
6
CONTINUOUS
10
70.9235
20
-67.1874
11
70.9279
21
-67.1861
0
LINE
8
BLACK
6
CONTINUOUS
10
70.9279
20
-67.1861
11
70.9325
21
-67.1848
0
LINE
8
BLACK
6
CONTINUOUS
10
70.9325
20
-67.1848
11
70.9327
21
-67.1847
0
LINE
8
BLACK
6
CONTINUOUS
10
70.9327
20
-67.1847
11
70.9328
21
-67.1847
0
LINE
8
BLACK
6
CONTINUOUS
10
70.9328
20
-67.1847
11
70.9375
21
-67.1843
0
LINE
8
BLACK
6
CONTINUOUS
10
70.9375
20
-67.1843
11
70.9422
21
-67.1838
0
LINE
8
BLACK
6
CONTINUOUS
10
70.9422
20
-67.1838
11
77.1906
21
-67.1838
0
LINE
8
BLACK
6
CONTINUOUS
10
77.1906
20
-67.1838
11
77.1909
21
-67.1838
0
LINE
8
BLACK
6
CONTINUOUS
10
158.877
20
-71.8558
11
158.877
21
-71.8558
0
LINE
8
BLACK
6
CONTINUOUS
10
158.877
20
-71.8558
11
158.877
21
-71.8558
0
LINE
8
BLACK
6
CONTINUOUS
10
158.877
20
-71.8558
11
158.876
21
-71.8558
0
LINE
8
BLACK
6
CONTINUOUS
10
158.876
20
-71.8558
11
158.872
21
-71.8553
0
LINE
8
BLACK
6
CONTINUOUS
10
158.872
20
-71.8553
11
158.867
21
-71.8548
0
LINE
8
BLACK
6
CONTINUOUS
10
158.867
20
-71.8548
11
158.867
21
-71.8547
0
LINE
8
BLACK
6
CONTINUOUS
10
158.867
20
-71.8547
11
158.867
21
-71.8547
0
LINE
8
BLACK
6
CONTINUOUS
10
158.867
20
-71.8547
11
158.862
21
-71.8533
0
LINE
8
BLACK
6
CONTINUOUS
10
158.862
20
-71.8533
11
158.858
21
-71.8519
0
LINE
8
BLACK
6
CONTINUOUS
10
158.858
20
-71.8519
11
158.857
21
-71.8518
0
LINE
8
BLACK
6
CONTINUOUS
10
158.857
20
-71.8518
11
158.857
21
-71.8518
0
LINE
8
BLACK
6
CONTINUOUS
10
158.857
20
-71.8518
11
158.853
21
-71.8495
0
LINE
8
BLACK
6
CONTINUOUS
10
158.853
20
-71.8495
11
158.849
21
-71.8473
0
LINE
8
BLACK
6
CONTINUOUS
10
158.849
20
-71.8473
11
158.849
21
-71.8471
0
LINE
8
BLACK
6
CONTINUOUS
10
158.849
20
-71.8471
11
158.849
21
-71.8471
0
LINE
8
BLACK
6
CONTINUOUS
10
158.849
20
-71.8471
11
158.845
21
-71.8441
0
LINE
8
BLACK
6
CONTINUOUS
10
158.845
20
-71.8441
11
158.842
21
-71.841
0
LINE
8
BLACK
6
CONTINUOUS
10
158.842
20
-71.841
11
158.841
21
-71.8409
0
LINE
8
BLACK
6
CONTINUOUS
10
158.841
20
-71.8409
11
158.841
21
-71.8408
0
LINE
8
BLACK
6
CONTINUOUS
10
158.841
20
-71.8408
11
158.838
21
-71.8372
0
LINE
8
BLACK
6
CONTINUOUS
10
158.838
20
-71.8372
11
158.835
21
-71.8335
0
LINE
8
BLACK
6
CONTINUOUS
10
158.835
20
-71.8335
11
158.835
21
-71.8333
0
LINE
8
BLACK
6
CONTINUOUS
10
158.835
20
-71.8333
11
158.835
21
-71.8332
0
LINE
8
BLACK
6
CONTINUOUS
10
158.835
20
-71.8332
11
158.833
21
-71.8291
0
LINE
8
BLACK
6
CONTINUOUS
10
158.833
20
-71.8291
11
158.831
21
-71.8249
0
LINE
8
BLACK
6
CONTINUOUS
10
158.831
20
-71.8249
11
158.831
21
-71.8247
0
LINE
8
BLACK
6
CONTINUOUS
10
158.831
20
-71.8247
11
158.831
21
-71.8245
0
LINE
8
BLACK
6
CONTINUOUS
10
158.831
20
-71.8245
11
158.829
21
-71.8201
0
LINE
8
BLACK
6
CONTINUOUS
10
158.829
20
-71.8201
11
158.828
21
-71.8155
0
LINE
8
BLACK
6
CONTINUOUS
10
158.828
20
-71.8155
11
158.828
21
-71.8153
0
LINE
8
BLACK
6
CONTINUOUS
10
158.828
20
-71.8153
11
158.828
21
-71.8152
0
LINE
8
BLACK
6
CONTINUOUS
10
158.828
20
-71.8152
11
158.827
21
-71.8105
0
LINE
8
BLACK
6
CONTINUOUS
10
158.827
20
-71.8105
11
158.827
21
-71.8058
0
LINE
8
BLACK
6
CONTINUOUS
10
158.827
20
-71.8058
11
158.827
21
-67.2338
0
LINE
8
BLACK
6
CONTINUOUS
10
158.827
20
-67.2338
11
158.827
21
-67.2335
0
LINE
8
BLACK
6
CONTINUOUS
10
158.827
20
-67.2335
11
158.827
21
-67.2335
0
LINE
8
BLACK
6
CONTINUOUS
10
158.827
20
-67.2335
11
158.827
21
-67.2334
0
LINE
8
BLACK
6
CONTINUOUS
10
158.827
20
-67.2334
11
158.827
21
-67.2331
0
LINE
8
BLACK
6
CONTINUOUS
10
158.827
20
-67.2331
11
158.828
21
-67.2285
0
LINE
8
BLACK
6
CONTINUOUS
10
158.828
20
-67.2285
11
158.828
21
-67.2237
0
LINE
8
BLACK
6
CONTINUOUS
10
158.828
20
-67.2237
11
158.828
21
-67.2236
0
LINE
8
BLACK
6
CONTINUOUS
10
158.828
20
-67.2236
11
158.828
21
-67.2234
0
LINE
8
BLACK
6
CONTINUOUS
10
158.828
20
-67.2234
11
158.83
21
-67.2189
0
LINE
8
BLACK
6
CONTINUOUS
10
158.83
20
-67.2189
11
158.831
21
-67.2144
0
LINE
8
BLACK
6
CONTINUOUS
10
158.831
20
-67.2144
11
158.831
21
-67.2143
0
LINE
8
BLACK
6
CONTINUOUS
10
158.831
20
-67.2143
11
158.831
21
-67.2141
0
LINE
8
BLACK
6
CONTINUOUS
10
158.831
20
-67.2141
11
158.833
21
-67.21
0
LINE
8
BLACK
6
CONTINUOUS
10
158.833
20
-67.21
11
158.836
21
-67.2058
0
LINE
8
BLACK
6
CONTINUOUS
10
158.836
20
-67.2058
11
158.836
21
-67.2057
0
LINE
8
BLACK
6
CONTINUOUS
10
158.836
20
-67.2057
11
158.836
21
-67.2056
0
LINE
8
BLACK
6
CONTINUOUS
10
158.836
20
-67.2056
11
158.839
21
-67.202
0
LINE
8
BLACK
6
CONTINUOUS
10
158.839
20
-67.202
11
158.842
21
-67.1983
0
LINE
8
BLACK
6
CONTINUOUS
10
158.842
20
-67.1983
11
158.842
21
-67.1982
0
LINE
8
BLACK
6
CONTINUOUS
10
158.842
20
-67.1982
11
158.842
21
-67.1981
0
LINE
8
BLACK
6
CONTINUOUS
10
158.842
20
-67.1981
11
158.846
21
-67.1952
0
LINE
8
BLACK
6
CONTINUOUS
10
158.846
20
-67.1952
11
158.849
21
-67.1922
0
LINE
8
BLACK
6
CONTINUOUS
10
158.849
20
-67.1922
11
158.849
21
-67.1921
0
LINE
8
BLACK
6
CONTINUOUS
10
158.849
20
-67.1921
11
158.85
21
-67.192
0
LINE
8
BLACK
6
CONTINUOUS
10
158.85
20
-67.192
11
158.854
21
-67.1898
0
LINE
8
BLACK
6
CONTINUOUS
10
158.854
20
-67.1898
11
158.858
21
-67.1876
0
LINE
8
BLACK
6
CONTINUOUS
10
158.858
20
-67.1876
11
158.858
21
-67.1875
0
LINE
8
BLACK
6
CONTINUOUS
10
158.858
20
-67.1875
11
158.858
21
-67.1874
0
LINE
8
BLACK
6
CONTINUOUS
10
158.858
20
-67.1874
11
158.863
21
-67.1861
0
LINE
8
BLACK
6
CONTINUOUS
10
158.863
20
-67.1861
11
158.867
21
-67.1848
0
LINE
8
BLACK
6
CONTINUOUS
10
158.867
20
-67.1848
11
158.867
21
-67.1847
0
LINE
8
BLACK
6
CONTINUOUS
10
158.867
20
-67.1847
11
158.868
21
-67.1847
0
LINE
8
BLACK
6
CONTINUOUS
10
158.868
20
-67.1847
11
158.872
21
-67.1843
0
LINE
8
BLACK
6
CONTINUOUS
10
158.872
20
-67.1843
11
158.877
21
-67.1838
0
LINE
8
BLACK
6
CONTINUOUS
10
158.877
20
-67.1838
11
165.125
21
-67.1838
0
LINE
8
BLACK
6
CONTINUOUS
10
165.125
20
-67.1838
11
165.126
21
-67.1838
0
LINE
8
BLACK
6
CONTINUOUS
10
165.126
20
-67.1838
11
165.126
21
-67.1838
0
LINE
8
BLACK
6
CONTINUOUS
10
165.126
20
-67.1838
11
165.126
21
-67.1838
0
LINE
8
BLACK
6
CONTINUOUS
10
165.126
20
-67.1838
11
165.126
21
-67.1838
0
LINE
8
BLACK
6
CONTINUOUS
10
165.126
20
-67.1838
11
165.131
21
-67.1843
0
LINE
8
BLACK
6
CONTINUOUS
10
165.131
20
-67.1843
11
165.135
21
-67.1848
0
LINE
8
BLACK
6
CONTINUOUS
10
165.135
20
-67.1848
11
165.136
21
-67.1849
0
LINE
8
BLACK
6
CONTINUOUS
10
165.136
20
-67.1849
11
165.136
21
-67.1849
0
LINE
8
BLACK
6
CONTINUOUS
10
165.136
20
-67.1849
11
165.14
21
-67.1863
0
LINE
8
BLACK
6
CONTINUOUS
10
165.14
20
-67.1863
11
165.145
21
-67.1877
0
LINE
8
BLACK
6
CONTINUOUS
10
165.145
20
-67.1877
11
165.145
21
-67.1878
0
LINE
8
BLACK
6
CONTINUOUS
10
165.145
20
-67.1878
11
165.145
21
-67.1878
0
LINE
8
BLACK
6
CONTINUOUS
10
165.145
20
-67.1878
11
165.149
21
-67.1901
0
LINE
8
BLACK
6
CONTINUOUS
10
165.149
20
-67.1901
11
165.153
21
-67.1923
0
LINE
8
BLACK
6
CONTINUOUS
10
165.153
20
-67.1923
11
165.153
21
-67.1925
0
LINE
8
BLACK
6
CONTINUOUS
10
165.153
20
-67.1925
11
165.154
21
-67.1925
0
LINE
8
BLACK
6
CONTINUOUS
10
165.154
20
-67.1925
11
165.157
21
-67.1955
0
LINE
8
BLACK
6
CONTINUOUS
10
165.157
20
-67.1955
11
165.161
21
-67.1986
0
LINE
8
BLACK
6
CONTINUOUS
10
165.161
20
-67.1986
11
165.161
21
-67.1987
0
LINE
8
BLACK
6
CONTINUOUS
10
165.161
20
-67.1987
11
165.161
21
-67.1988
0
LINE
8
BLACK
6
CONTINUOUS
10
165.161
20
-67.1988
11
165.164
21
-67.2024
0
LINE
8
BLACK
6
CONTINUOUS
10
165.164
20
-67.2024
11
165.167
21
-67.2061
0
LINE
8
BLACK
6
CONTINUOUS
10
165.167
20
-67.2061
11
165.167
21
-67.2063
0
LINE
8
BLACK
6
CONTINUOUS
10
165.167
20
-67.2063
11
165.167
21
-67.2064
0
LINE
8
BLACK
6
CONTINUOUS
10
165.167
20
-67.2064
11
165.169
21
-67.2105
0
LINE
8
BLACK
6
CONTINUOUS
10
165.169
20
-67.2105
11
165.172
21
-67.2147
0
LINE
8
BLACK
6
CONTINUOUS
10
165.172
20
-67.2147
11
165.172
21
-67.2149
0
LINE
8
BLACK
6
CONTINUOUS
10
165.172
20
-67.2149
11
165.172
21
-67.2151
0
LINE
8
BLACK
6
CONTINUOUS
10
165.172
20
-67.2151
11
165.173
21
-67.2195
0
LINE
8
BLACK
6
CONTINUOUS
10
165.173
20
-67.2195
11
165.174
21
-67.2241
0
LINE
8
BLACK
6
CONTINUOUS
10
165.174
20
-67.2241
11
165.174
21
-67.2243
0
LINE
8
BLACK
6
CONTINUOUS
10
165.174
20
-67.2243
11
165.175
21
-67.2244
0
LINE
8
BLACK
6
CONTINUOUS
10
165.175
20
-67.2244
11
165.175
21
-67.2291
0
LINE
8
BLACK
6
CONTINUOUS
10
165.175
20
-67.2291
11
165.175
21
-67.2338
0
LINE
8
BLACK
6
CONTINUOUS
10
165.175
20
-67.2338
11
165.175
21
-71.8058
0
LINE
8
BLACK
6
CONTINUOUS
10
165.175
20
-71.8058
11
165.175
21
-71.8061
0
LINE
8
BLACK
6
CONTINUOUS
10
165.175
20
-71.8061
11
165.175
21
-71.8061
0
LINE
8
BLACK
6
CONTINUOUS
10
165.175
20
-71.8061
11
165.175
21
-71.8062
0
LINE
8
BLACK
6
CONTINUOUS
10
165.175
20
-71.8062
11
165.175
21
-71.8065
0
LINE
8
BLACK
6
CONTINUOUS
10
165.175
20
-71.8065
11
165.175
21
-71.8111
0
LINE
8
BLACK
6
CONTINUOUS
10
165.175
20
-71.8111
11
165.174
21
-71.8159
0
LINE
8
BLACK
6
CONTINUOUS
10
165.174
20
-71.8159
11
165.174
21
-71.816
0
LINE
8
BLACK
6
CONTINUOUS
10
165.174
20
-71.816
11
165.174
21
-71.8162
0
LINE
8
BLACK
6
CONTINUOUS
10
165.174
20
-71.8162
11
165.173
21
-71.8207
0
LINE
8
BLACK
6
CONTINUOUS
10
165.173
20
-71.8207
11
165.171
21
-71.8252
0
LINE
8
BLACK
6
CONTINUOUS
10
165.171
20
-71.8252
11
165.171
21
-71.8253
0
LINE
8
BLACK
6
CONTINUOUS
10
165.171
20
-71.8253
11
165.171
21
-71.8255
0
LINE
8
BLACK
6
CONTINUOUS
10
165.171
20
-71.8255
11
165.169
21
-71.8296
0
LINE
8
BLACK
6
CONTINUOUS
10
165.169
20
-71.8296
11
165.167
21
-71.8338
0
LINE
8
BLACK
6
CONTINUOUS
10
165.167
20
-71.8338
11
165.167
21
-71.8339
0
LINE
8
BLACK
6
CONTINUOUS
10
165.167
20
-71.8339
11
165.167
21
-71.834
0
LINE
8
BLACK
6
CONTINUOUS
10
165.167
20
-71.834
11
165.164
21
-71.8376
0
LINE
8
BLACK
6
CONTINUOUS
10
165.164
20
-71.8376
11
165.161
21
-71.8413
0
LINE
8
BLACK
6
CONTINUOUS
10
165.161
20
-71.8413
11
165.16
21
-71.8414
0
LINE
8
BLACK
6
CONTINUOUS
10
165.16
20
-71.8414
11
165.16
21
-71.8415
0
LINE
8
BLACK
6
CONTINUOUS
10
165.16
20
-71.8415
11
165.157
21
-71.8444
0
LINE
8
BLACK
6
CONTINUOUS
10
165.157
20
-71.8444
11
165.153
21
-71.8474
0
LINE
8
BLACK
6
CONTINUOUS
10
165.153
20
-71.8474
11
165.153
21
-71.8475
0
LINE
8
BLACK
6
CONTINUOUS
10
165.153
20
-71.8475
11
165.153
21
-71.8476
0
LINE
8
BLACK
6
CONTINUOUS
10
165.153
20
-71.8476
11
165.149
21
-71.8498
0
LINE
8
BLACK
6
CONTINUOUS
10
165.149
20
-71.8498
11
165.144
21
-71.852
0
LINE
8
BLACK
6
CONTINUOUS
10
165.144
20
-71.852
11
165.144
21
-71.8521
0
LINE
8
BLACK
6
CONTINUOUS
10
165.144
20
-71.8521
11
165.144
21
-71.8522
0
LINE
8
BLACK
6
CONTINUOUS
10
165.144
20
-71.8522
11
165.14
21
-71.8535
0
LINE
8
BLACK
6
CONTINUOUS
10
165.14
20
-71.8535
11
165.135
21
-71.8548
0
LINE
8
BLACK
6
CONTINUOUS
10
165.135
20
-71.8548
11
165.135
21
-71.8549
0
LINE
8
BLACK
6
CONTINUOUS
10
165.135
20
-71.8549
11
165.135
21
-71.8549
0
LINE
8
BLACK
6
CONTINUOUS
10
165.135
20
-71.8549
11
165.13
21
-71.8553
0
LINE
8
BLACK
6
CONTINUOUS
10
165.13
20
-71.8553
11
165.125
21
-71.8558
0
LINE
8
BLACK
6
CONTINUOUS
10
165.125
20
-71.8558
11
158.877
21
-71.8558
0
LINE
8
BLACK
6
CONTINUOUS
10
158.877
20
-71.8558
11
158.877
21
-71.8558
  0
ENDSEC
  0
EOF
