  0
SECTION
  2
HEADER
  9
$ANGBASE
  50
0.0
  9
$ANGDIR
  70
1
  9
$MEASUREMENT
  70
1
  0
ENDSEC
  0
SECTION
  2
TABLES
  0
TABLE
  2
LTYPE
  70
4
  0
LTYPE
  5
40F
  2
CONTINUOUS
  70
0
  3
Solid line
  72
65
  73
0
  40
0.0
  0
LTYPE
  5
410
  2
DASHDOT
 70
0
  3
Dash Dot ____ _ ____ _
 72
65
 73
4
 40
2.0
 49
1.25
 49
-0.25
 49
0.25
 49
-0.25
  0
LTYPE
  5
411
  2
DASHED
 70
0
  3
Dashed __ __ __ __ __
 72
65
 73
2
 40
0.75
 49
0.5
 49
-0.25
  0
LTYPE
  5
43B
  2
DOTTED
 70
0
  3
Dotted .  .  .  .
 72
65
 73
2
 40
0.2
 49
0.0
 49
-0.2
  0
ENDTAB
  0
TABLE
  2
STYLE
  70
4
  0
STYLE
  2
KICAD
  70
0
  40
0
  41
1
  42
1
  50
0
  71
0
  3
isocp.shx
  0
STYLE
  2
KICADB
  70
0
  40
0
  41
1
  42
1
  50
0
  71
0
  3
isocp.shx
  0
STYLE
  2
KICADI
  70
0
  40
0
  41
1
  42
1
  50
15
  71
0
  3
isocp.shx
  0
STYLE
  2
KICADBI
  70
0
  40
0
  41
1
  42
1
  50
15
  71
0
  3
isocp.shx
  0
ENDTAB
  0
TABLE
  2
LAYER
  70
1
  0
LAYER
  2
BLACK
  70
0
  62
7
  6
CONTINUOUS
  0
ENDTAB
  0
ENDSEC
  0
SECTION
  2
ENTITIES
0
LINE
8
BLACK
6
CONTINUOUS
10
70.2274
20
-61.2235
11
70.2274
21
-61.2232
0
LINE
8
BLACK
6
CONTINUOUS
10
70.2274
20
-61.2232
11
70.2274
21
-61.2228
0
LINE
8
BLACK
6
CONTINUOUS
10
70.2274
20
-61.2228
11
70.2285
21
-61.2136
0
LINE
8
BLACK
6
CONTINUOUS
10
70.2285
20
-61.2136
11
70.2296
21
-61.2041
0
LINE
8
BLACK
6
CONTINUOUS
10
70.2296
20
-61.2041
11
70.2297
21
-61.2038
0
LINE
8
BLACK
6
CONTINUOUS
10
70.2297
20
-61.2038
11
70.2297
21
-61.2035
0
LINE
8
BLACK
6
CONTINUOUS
10
70.2297
20
-61.2035
11
70.2326
21
-61.1946
0
LINE
8
BLACK
6
CONTINUOUS
10
70.2326
20
-61.1946
11
70.2355
21
-61.1855
0
LINE
8
BLACK
6
CONTINUOUS
10
70.2355
20
-61.1855
11
70.2357
21
-61.1852
0
LINE
8
BLACK
6
CONTINUOUS
10
70.2357
20
-61.1852
11
70.2358
21
-61.1849
0
LINE
8
BLACK
6
CONTINUOUS
10
70.2358
20
-61.1849
11
70.2404
21
-61.1767
0
LINE
8
BLACK
6
CONTINUOUS
10
70.2404
20
-61.1767
11
70.2449
21
-61.1684
0
LINE
8
BLACK
6
CONTINUOUS
10
70.2449
20
-61.1684
11
70.2451
21
-61.1682
0
LINE
8
BLACK
6
CONTINUOUS
10
70.2451
20
-61.1682
11
70.2453
21
-61.1679
0
LINE
8
BLACK
6
CONTINUOUS
10
70.2453
20
-61.1679
11
70.2514
21
-61.1607
0
LINE
8
BLACK
6
CONTINUOUS
10
70.2514
20
-61.1607
11
70.2574
21
-61.1535
0
LINE
8
BLACK
6
CONTINUOUS
10
70.2574
20
-61.1535
11
70.2577
21
-61.1533
0
LINE
8
BLACK
6
CONTINUOUS
10
70.2577
20
-61.1533
11
70.2579
21
-61.153
0
LINE
8
BLACK
6
CONTINUOUS
10
70.2579
20
-61.153
11
71.1819
21
-60.2606
0
LINE
8
BLACK
6
CONTINUOUS
10
71.1819
20
-60.2606
11
71.1829
21
-60.2596
0
LINE
8
BLACK
6
CONTINUOUS
10
71.1829
20
-60.2596
11
71.1895
21
-60.2545
0
LINE
8
BLACK
6
CONTINUOUS
10
71.1895
20
-60.2545
11
71.196
21
-60.2492
0
LINE
8
BLACK
6
CONTINUOUS
10
71.196
20
-60.2492
11
71.1972
21
-60.2485
0
LINE
8
BLACK
6
CONTINUOUS
10
71.1972
20
-60.2485
11
71.1983
21
-60.2477
0
LINE
8
BLACK
6
CONTINUOUS
10
71.1983
20
-60.2477
11
71.2059
21
-60.244
0
LINE
8
BLACK
6
CONTINUOUS
10
71.2059
20
-60.244
11
71.2132
21
-60.24
0
LINE
8
BLACK
6
CONTINUOUS
10
71.2132
20
-60.24
11
71.2146
21
-60.2396
0
LINE
8
BLACK
6
CONTINUOUS
10
71.2146
20
-60.2396
11
71.2158
21
-60.239
0
LINE
8
BLACK
6
CONTINUOUS
10
71.2158
20
-60.239
11
71.2239
21
-60.2368
0
LINE
8
BLACK
6
CONTINUOUS
10
71.2239
20
-60.2368
11
71.2319
21
-60.2344
0
LINE
8
BLACK
6
CONTINUOUS
10
71.2319
20
-60.2344
11
71.2333
21
-60.2343
0
LINE
8
BLACK
6
CONTINUOUS
10
71.2333
20
-60.2343
11
71.2347
21
-60.2339
0
LINE
8
BLACK
6
CONTINUOUS
10
71.2347
20
-60.2339
11
71.243
21
-60.2333
0
LINE
8
BLACK
6
CONTINUOUS
10
71.243
20
-60.2333
11
71.2513
21
-60.2325
0
LINE
8
BLACK
6
CONTINUOUS
10
71.2513
20
-60.2325
11
167.781
21
-60.2198
0
LINE
8
BLACK
6
CONTINUOUS
10
167.781
20
-60.2198
11
167.783
21
-60.2198
0
LINE
8
BLACK
6
CONTINUOUS
10
167.783
20
-60.2198
11
167.783
21
-60.2199
0
LINE
8
BLACK
6
CONTINUOUS
10
167.783
20
-60.2199
11
167.784
21
-60.2198
0
LINE
8
BLACK
6
CONTINUOUS
10
167.784
20
-60.2198
11
167.793
21
-60.2209
0
LINE
8
BLACK
6
CONTINUOUS
10
167.793
20
-60.2209
11
167.802
21
-60.222
0
LINE
8
BLACK
6
CONTINUOUS
10
167.802
20
-60.222
11
167.803
21
-60.2221
0
LINE
8
BLACK
6
CONTINUOUS
10
167.803
20
-60.2221
11
167.803
21
-60.2221
0
LINE
8
BLACK
6
CONTINUOUS
10
167.803
20
-60.2221
11
167.812
21
-60.225
0
LINE
8
BLACK
6
CONTINUOUS
10
167.812
20
-60.225
11
167.821
21
-60.2279
0
LINE
8
BLACK
6
CONTINUOUS
10
167.821
20
-60.2279
11
167.821
21
-60.2281
0
LINE
8
BLACK
6
CONTINUOUS
10
167.821
20
-60.2281
11
167.822
21
-60.2282
0
LINE
8
BLACK
6
CONTINUOUS
10
167.822
20
-60.2282
11
167.83
21
-60.2328
0
LINE
8
BLACK
6
CONTINUOUS
10
167.83
20
-60.2328
11
167.838
21
-60.2373
0
LINE
8
BLACK
6
CONTINUOUS
10
167.838
20
-60.2373
11
167.838
21
-60.2375
0
LINE
8
BLACK
6
CONTINUOUS
10
167.838
20
-60.2375
11
167.839
21
-60.2377
0
LINE
8
BLACK
6
CONTINUOUS
10
167.839
20
-60.2377
11
167.846
21
-60.2439
0
LINE
8
BLACK
6
CONTINUOUS
10
167.846
20
-60.2439
11
167.853
21
-60.2498
0
LINE
8
BLACK
6
CONTINUOUS
10
167.853
20
-60.2498
11
167.853
21
-60.2501
0
LINE
8
BLACK
6
CONTINUOUS
10
167.853
20
-60.2501
11
167.853
21
-60.2503
0
LINE
8
BLACK
6
CONTINUOUS
10
167.853
20
-60.2503
11
168.746
21
-61.1743
0
LINE
8
BLACK
6
CONTINUOUS
10
168.746
20
-61.1743
11
168.747
21
-61.1753
0
LINE
8
BLACK
6
CONTINUOUS
10
168.747
20
-61.1753
11
168.752
21
-61.1819
0
LINE
8
BLACK
6
CONTINUOUS
10
168.752
20
-61.1819
11
168.757
21
-61.1884
0
LINE
8
BLACK
6
CONTINUOUS
10
168.757
20
-61.1884
11
168.758
21
-61.1896
0
LINE
8
BLACK
6
CONTINUOUS
10
168.758
20
-61.1896
11
168.759
21
-61.1907
0
LINE
8
BLACK
6
CONTINUOUS
10
168.759
20
-61.1907
11
168.762
21
-61.1982
0
LINE
8
BLACK
6
CONTINUOUS
10
168.762
20
-61.1982
11
168.766
21
-61.2056
0
LINE
8
BLACK
6
CONTINUOUS
10
168.766
20
-61.2056
11
168.767
21
-61.207
0
LINE
8
BLACK
6
CONTINUOUS
10
168.767
20
-61.207
11
168.767
21
-61.2082
0
LINE
8
BLACK
6
CONTINUOUS
10
168.767
20
-61.2082
11
168.77
21
-61.2163
0
LINE
8
BLACK
6
CONTINUOUS
10
168.77
20
-61.2163
11
168.772
21
-61.2243
0
LINE
8
BLACK
6
CONTINUOUS
10
168.772
20
-61.2243
11
168.772
21
-61.2257
0
LINE
8
BLACK
6
CONTINUOUS
10
168.772
20
-61.2257
11
168.772
21
-61.227
0
LINE
8
BLACK
6
CONTINUOUS
10
168.772
20
-61.227
11
168.773
21
-61.2354
0
LINE
8
BLACK
6
CONTINUOUS
10
168.773
20
-61.2354
11
168.774
21
-61.2437
0
LINE
8
BLACK
6
CONTINUOUS
10
168.774
20
-61.2437
11
168.774
21
-98.7824
0
LINE
8
BLACK
6
CONTINUOUS
10
168.774
20
-98.7824
11
168.774
21
-98.7838
0
LINE
8
BLACK
6
CONTINUOUS
10
168.774
20
-98.7838
11
168.774
21
-98.7841
0
LINE
8
BLACK
6
CONTINUOUS
10
168.774
20
-98.7841
11
168.774
21
-98.7844
0
LINE
8
BLACK
6
CONTINUOUS
10
168.774
20
-98.7844
11
168.773
21
-98.7938
0
LINE
8
BLACK
6
CONTINUOUS
10
168.773
20
-98.7938
11
168.772
21
-98.8032
0
LINE
8
BLACK
6
CONTINUOUS
10
168.772
20
-98.8032
11
168.772
21
-98.8035
0
LINE
8
BLACK
6
CONTINUOUS
10
168.772
20
-98.8035
11
168.772
21
-98.8038
0
LINE
8
BLACK
6
CONTINUOUS
10
168.772
20
-98.8038
11
168.769
21
-98.8128
0
LINE
8
BLACK
6
CONTINUOUS
10
168.769
20
-98.8128
11
168.766
21
-98.8218
0
LINE
8
BLACK
6
CONTINUOUS
10
168.766
20
-98.8218
11
168.766
21
-98.8221
0
LINE
8
BLACK
6
CONTINUOUS
10
168.766
20
-98.8221
11
168.766
21
-98.8224
0
LINE
8
BLACK
6
CONTINUOUS
10
168.766
20
-98.8224
11
168.761
21
-98.8307
0
LINE
8
BLACK
6
CONTINUOUS
10
168.761
20
-98.8307
11
168.756
21
-98.8389
0
LINE
8
BLACK
6
CONTINUOUS
10
168.756
20
-98.8389
11
168.756
21
-98.8391
0
LINE
8
BLACK
6
CONTINUOUS
10
168.756
20
-98.8391
11
168.756
21
-98.8394
0
LINE
8
BLACK
6
CONTINUOUS
10
168.756
20
-98.8394
11
168.75
21
-98.8467
0
LINE
8
BLACK
6
CONTINUOUS
10
168.75
20
-98.8467
11
168.744
21
-98.8538
0
LINE
8
BLACK
6
CONTINUOUS
10
168.744
20
-98.8538
11
168.744
21
-98.854
0
LINE
8
BLACK
6
CONTINUOUS
10
168.744
20
-98.854
11
168.743
21
-98.8543
0
LINE
8
BLACK
6
CONTINUOUS
10
168.743
20
-98.8543
11
167.819
21
-99.7467
0
LINE
8
BLACK
6
CONTINUOUS
10
167.819
20
-99.7467
11
167.818
21
-99.7477
0
LINE
8
BLACK
6
CONTINUOUS
10
167.818
20
-99.7477
11
167.812
21
-99.7528
0
LINE
8
BLACK
6
CONTINUOUS
10
167.812
20
-99.7528
11
167.805
21
-99.7581
0
LINE
8
BLACK
6
CONTINUOUS
10
167.805
20
-99.7581
11
167.804
21
-99.7587
0
LINE
8
BLACK
6
CONTINUOUS
10
167.804
20
-99.7587
11
167.803
21
-99.7596
0
LINE
8
BLACK
6
CONTINUOUS
10
167.803
20
-99.7596
11
167.795
21
-99.7633
0
LINE
8
BLACK
6
CONTINUOUS
10
167.795
20
-99.7633
11
167.788
21
-99.7673
0
LINE
8
BLACK
6
CONTINUOUS
10
167.788
20
-99.7673
11
167.787
21
-99.7677
0
LINE
8
BLACK
6
CONTINUOUS
10
167.787
20
-99.7677
11
167.785
21
-99.7683
0
LINE
8
BLACK
6
CONTINUOUS
10
167.785
20
-99.7683
11
167.777
21
-99.7705
0
LINE
8
BLACK
6
CONTINUOUS
10
167.777
20
-99.7705
11
167.769
21
-99.7729
0
LINE
8
BLACK
6
CONTINUOUS
10
167.769
20
-99.7729
11
167.768
21
-99.773
0
LINE
8
BLACK
6
CONTINUOUS
10
167.768
20
-99.773
11
167.767
21
-99.7734
0
LINE
8
BLACK
6
CONTINUOUS
10
167.767
20
-99.7734
11
167.758
21
-99.774
0
LINE
8
BLACK
6
CONTINUOUS
10
167.758
20
-99.774
11
167.75
21
-99.7748
0
LINE
8
BLACK
6
CONTINUOUS
10
167.75
20
-99.7748
11
71.2198
21
-99.7748
0
LINE
8
BLACK
6
CONTINUOUS
10
71.2198
20
-99.7748
11
71.2184
21
-99.7748
0
LINE
8
BLACK
6
CONTINUOUS
10
71.2184
20
-99.7748
11
71.2181
21
-99.7748
0
LINE
8
BLACK
6
CONTINUOUS
10
71.2181
20
-99.7748
11
71.2177
21
-99.7748
0
LINE
8
BLACK
6
CONTINUOUS
10
71.2177
20
-99.7748
11
71.2085
21
-99.7737
0
LINE
8
BLACK
6
CONTINUOUS
10
71.2085
20
-99.7737
11
71.199
21
-99.7726
0
LINE
8
BLACK
6
CONTINUOUS
10
71.199
20
-99.7726
11
71.1987
21
-99.7725
0
LINE
8
BLACK
6
CONTINUOUS
10
71.1987
20
-99.7725
11
71.1984
21
-99.7725
0
LINE
8
BLACK
6
CONTINUOUS
10
71.1984
20
-99.7725
11
71.1895
21
-99.7696
0
LINE
8
BLACK
6
CONTINUOUS
10
71.1895
20
-99.7696
11
71.1804
21
-99.7667
0
LINE
8
BLACK
6
CONTINUOUS
10
71.1804
20
-99.7667
11
71.1801
21
-99.7665
0
LINE
8
BLACK
6
CONTINUOUS
10
71.1801
20
-99.7665
11
71.1798
21
-99.7664
0
LINE
8
BLACK
6
CONTINUOUS
10
71.1798
20
-99.7664
11
71.1716
21
-99.7618
0
LINE
8
BLACK
6
CONTINUOUS
10
71.1716
20
-99.7618
11
71.1633
21
-99.7573
0
LINE
8
BLACK
6
CONTINUOUS
10
71.1633
20
-99.7573
11
71.1631
21
-99.7571
0
LINE
8
BLACK
6
CONTINUOUS
10
71.1631
20
-99.7571
11
71.1628
21
-99.7569
0
LINE
8
BLACK
6
CONTINUOUS
10
71.1628
20
-99.7569
11
71.1556
21
-99.7508
0
LINE
8
BLACK
6
CONTINUOUS
10
71.1556
20
-99.7508
11
71.1484
21
-99.7448
0
LINE
8
BLACK
6
CONTINUOUS
10
71.1484
20
-99.7448
11
71.1482
21
-99.7445
0
LINE
8
BLACK
6
CONTINUOUS
10
71.1482
20
-99.7445
11
71.1479
21
-99.7443
0
LINE
8
BLACK
6
CONTINUOUS
10
71.1479
20
-99.7443
11
70.2555
21
-98.8203
0
LINE
8
BLACK
6
CONTINUOUS
10
70.2555
20
-98.8203
11
70.2545
21
-98.8193
0
LINE
8
BLACK
6
CONTINUOUS
10
70.2545
20
-98.8193
11
70.2494
21
-98.8127
0
LINE
8
BLACK
6
CONTINUOUS
10
70.2494
20
-98.8127
11
70.2441
21
-98.8062
0
LINE
8
BLACK
6
CONTINUOUS
10
70.2441
20
-98.8062
11
70.2435
21
-98.805
0
LINE
8
BLACK
6
CONTINUOUS
10
70.2435
20
-98.805
11
70.2426
21
-98.8039
0
LINE
8
BLACK
6
CONTINUOUS
10
70.2426
20
-98.8039
11
70.2389
21
-98.7964
0
LINE
8
BLACK
6
CONTINUOUS
10
70.2389
20
-98.7964
11
70.2349
21
-98.789
0
LINE
8
BLACK
6
CONTINUOUS
10
70.2349
20
-98.789
11
70.2345
21
-98.7876
0
LINE
8
BLACK
6
CONTINUOUS
10
70.2345
20
-98.7876
11
70.2339
21
-98.7864
0
LINE
8
BLACK
6
CONTINUOUS
10
70.2339
20
-98.7864
11
70.2317
21
-98.7783
0
LINE
8
BLACK
6
CONTINUOUS
10
70.2317
20
-98.7783
11
70.2293
21
-98.7703
0
LINE
8
BLACK
6
CONTINUOUS
10
70.2293
20
-98.7703
11
70.2292
21
-98.7689
0
LINE
8
BLACK
6
CONTINUOUS
10
70.2292
20
-98.7689
11
70.2288
21
-98.7676
0
LINE
8
BLACK
6
CONTINUOUS
10
70.2288
20
-98.7676
11
70.2282
21
-98.7592
0
LINE
8
BLACK
6
CONTINUOUS
10
70.2282
20
-98.7592
11
70.2274
21
-98.7509
0
LINE
8
BLACK
6
CONTINUOUS
10
70.2274
20
-98.7509
11
70.2274
21
-61.2249
0
LINE
8
BLACK
6
CONTINUOUS
10
70.2274
20
-61.2249
11
70.2274
21
-61.2235
0
LINE
8
BLACK
6
CONTINUOUS
10
149.302
20
-93.3738
11
148.954
21
-93.443
0
LINE
8
BLACK
6
CONTINUOUS
10
148.954
20
-93.443
11
148.626
21
-93.5787
0
LINE
8
BLACK
6
CONTINUOUS
10
148.626
20
-93.5787
11
148.332
21
-93.7756
0
LINE
8
BLACK
6
CONTINUOUS
10
148.332
20
-93.7756
11
148.081
21
-94.0264
0
LINE
8
BLACK
6
CONTINUOUS
10
148.081
20
-94.0264
11
147.884
21
-94.3212
0
LINE
8
BLACK
6
CONTINUOUS
10
147.884
20
-94.3212
11
147.748
21
-94.6488
0
LINE
8
BLACK
6
CONTINUOUS
10
147.748
20
-94.6488
11
147.679
21
-94.9965
0
LINE
8
BLACK
6
CONTINUOUS
10
147.679
20
-94.9965
11
147.679
21
-95.3511
0
LINE
8
BLACK
6
CONTINUOUS
10
147.679
20
-95.3511
11
147.748
21
-95.6988
0
LINE
8
BLACK
6
CONTINUOUS
10
147.748
20
-95.6988
11
147.884
21
-96.0264
0
LINE
8
BLACK
6
CONTINUOUS
10
147.884
20
-96.0264
11
148.081
21
-96.3212
0
LINE
8
BLACK
6
CONTINUOUS
10
148.081
20
-96.3212
11
148.332
21
-96.572
0
LINE
8
BLACK
6
CONTINUOUS
10
148.332
20
-96.572
11
148.626
21
-96.7689
0
LINE
8
BLACK
6
CONTINUOUS
10
148.626
20
-96.7689
11
148.954
21
-96.9046
0
LINE
8
BLACK
6
CONTINUOUS
10
148.954
20
-96.9046
11
149.302
21
-96.9738
0
LINE
8
BLACK
6
CONTINUOUS
10
149.302
20
-96.9738
11
149.656
21
-96.9738
0
LINE
8
BLACK
6
CONTINUOUS
10
149.656
20
-96.9738
11
150.004
21
-96.9046
0
LINE
8
BLACK
6
CONTINUOUS
10
150.004
20
-96.9046
11
150.332
21
-96.7689
0
LINE
8
BLACK
6
CONTINUOUS
10
150.332
20
-96.7689
11
150.626
21
-96.572
0
LINE
8
BLACK
6
CONTINUOUS
10
150.626
20
-96.572
11
150.877
21
-96.3212
0
LINE
8
BLACK
6
CONTINUOUS
10
150.877
20
-96.3212
11
151.074
21
-96.0264
0
LINE
8
BLACK
6
CONTINUOUS
10
151.074
20
-96.0264
11
151.21
21
-95.6988
0
LINE
8
BLACK
6
CONTINUOUS
10
151.21
20
-95.6988
11
151.279
21
-95.3511
0
LINE
8
BLACK
6
CONTINUOUS
10
151.279
20
-95.3511
11
151.279
21
-94.9965
0
LINE
8
BLACK
6
CONTINUOUS
10
151.279
20
-94.9965
11
151.21
21
-94.6488
0
LINE
8
BLACK
6
CONTINUOUS
10
151.21
20
-94.6488
11
151.074
21
-94.3212
0
LINE
8
BLACK
6
CONTINUOUS
10
151.074
20
-94.3212
11
150.877
21
-94.0264
0
LINE
8
BLACK
6
CONTINUOUS
10
150.877
20
-94.0264
11
150.626
21
-93.7756
0
LINE
8
BLACK
6
CONTINUOUS
10
150.626
20
-93.7756
11
150.332
21
-93.5787
0
LINE
8
BLACK
6
CONTINUOUS
10
150.332
20
-93.5787
11
150.004
21
-93.443
0
LINE
8
BLACK
6
CONTINUOUS
10
150.004
20
-93.443
11
149.656
21
-93.3738
0
LINE
8
BLACK
6
CONTINUOUS
10
149.656
20
-93.3738
11
149.302
21
-93.3738
0
LINE
8
BLACK
6
CONTINUOUS
10
91.2404
20
-94.6107
11
91.1047
21
-94.2831
0
LINE
8
BLACK
6
CONTINUOUS
10
91.1047
20
-94.2831
11
90.9077
21
-93.9883
0
LINE
8
BLACK
6
CONTINUOUS
10
90.9077
20
-93.9883
11
90.657
21
-93.7375
0
LINE
8
BLACK
6
CONTINUOUS
10
90.657
20
-93.7375
11
90.3622
21
-93.5406
0
LINE
8
BLACK
6
CONTINUOUS
10
90.3622
20
-93.5406
11
90.0346
21
-93.4049
0
LINE
8
BLACK
6
CONTINUOUS
10
90.0346
20
-93.4049
11
89.6869
21
-93.3357
0
LINE
8
BLACK
6
CONTINUOUS
10
89.6869
20
-93.3357
11
89.3323
21
-93.3357
0
LINE
8
BLACK
6
CONTINUOUS
10
89.3323
20
-93.3357
11
88.9846
21
-93.4049
0
LINE
8
BLACK
6
CONTINUOUS
10
88.9846
20
-93.4049
11
88.657
21
-93.5406
0
LINE
8
BLACK
6
CONTINUOUS
10
88.657
20
-93.5406
11
88.3622
21
-93.7375
0
LINE
8
BLACK
6
CONTINUOUS
10
88.3622
20
-93.7375
11
88.1114
21
-93.9883
0
LINE
8
BLACK
6
CONTINUOUS
10
88.1114
20
-93.9883
11
87.9145
21
-94.2831
0
LINE
8
BLACK
6
CONTINUOUS
10
87.9145
20
-94.2831
11
87.7788
21
-94.6107
0
LINE
8
BLACK
6
CONTINUOUS
10
87.7788
20
-94.6107
11
87.7096
21
-94.9584
0
LINE
8
BLACK
6
CONTINUOUS
10
87.7096
20
-94.9584
11
87.7096
21
-95.313
0
LINE
8
BLACK
6
CONTINUOUS
10
87.7096
20
-95.313
11
87.7788
21
-95.6607
0
LINE
8
BLACK
6
CONTINUOUS
10
87.7788
20
-95.6607
11
87.9145
21
-95.9883
0
LINE
8
BLACK
6
CONTINUOUS
10
87.9145
20
-95.9883
11
88.1114
21
-96.2831
0
LINE
8
BLACK
6
CONTINUOUS
10
88.1114
20
-96.2831
11
88.3622
21
-96.5339
0
LINE
8
BLACK
6
CONTINUOUS
10
88.3622
20
-96.5339
11
88.657
21
-96.7308
0
LINE
8
BLACK
6
CONTINUOUS
10
88.657
20
-96.7308
11
88.9846
21
-96.8665
0
LINE
8
BLACK
6
CONTINUOUS
10
88.9846
20
-96.8665
11
89.3323
21
-96.9357
0
LINE
8
BLACK
6
CONTINUOUS
10
89.3323
20
-96.9357
11
89.6869
21
-96.9357
0
LINE
8
BLACK
6
CONTINUOUS
10
89.6869
20
-96.9357
11
90.0346
21
-96.8665
0
LINE
8
BLACK
6
CONTINUOUS
10
90.0346
20
-96.8665
11
90.3622
21
-96.7308
0
LINE
8
BLACK
6
CONTINUOUS
10
90.3622
20
-96.7308
11
90.657
21
-96.5339
0
LINE
8
BLACK
6
CONTINUOUS
10
90.657
20
-96.5339
11
90.9077
21
-96.2831
0
LINE
8
BLACK
6
CONTINUOUS
10
90.9077
20
-96.2831
11
91.1047
21
-95.9883
0
LINE
8
BLACK
6
CONTINUOUS
10
91.1047
20
-95.9883
11
91.2404
21
-95.6607
0
LINE
8
BLACK
6
CONTINUOUS
10
91.2404
20
-95.6607
11
91.3096
21
-95.313
0
LINE
8
BLACK
6
CONTINUOUS
10
91.3096
20
-95.313
11
91.3096
21
-94.9584
0
LINE
8
BLACK
6
CONTINUOUS
10
91.3096
20
-94.9584
11
91.2404
21
-94.6107
0
LINE
8
BLACK
6
CONTINUOUS
10
123.943
20
-84.9498
11
123.489
21
-85.0401
0
LINE
8
BLACK
6
CONTINUOUS
10
123.489
20
-85.0401
11
123.061
21
-85.2173
0
LINE
8
BLACK
6
CONTINUOUS
10
123.061
20
-85.2173
11
122.676
21
-85.4744
0
LINE
8
BLACK
6
CONTINUOUS
10
122.676
20
-85.4744
11
122.349
21
-85.8018
0
LINE
8
BLACK
6
CONTINUOUS
10
122.349
20
-85.8018
11
122.091
21
-86.1867
0
LINE
8
BLACK
6
CONTINUOUS
10
122.091
20
-86.1867
11
121.914
21
-86.6143
0
LINE
8
BLACK
6
CONTINUOUS
10
121.914
20
-86.6143
11
121.824
21
-87.0683
0
LINE
8
BLACK
6
CONTINUOUS
10
121.824
20
-87.0683
11
121.824
21
-87.5313
0
LINE
8
BLACK
6
CONTINUOUS
10
121.824
20
-87.5313
11
121.914
21
-87.9853
0
LINE
8
BLACK
6
CONTINUOUS
10
121.914
20
-87.9853
11
122.091
21
-88.4129
0
LINE
8
BLACK
6
CONTINUOUS
10
122.091
20
-88.4129
11
122.349
21
-88.7978
0
LINE
8
BLACK
6
CONTINUOUS
10
122.349
20
-88.7978
11
122.676
21
-89.1252
0
LINE
8
BLACK
6
CONTINUOUS
10
122.676
20
-89.1252
11
123.061
21
-89.3823
0
LINE
8
BLACK
6
CONTINUOUS
10
123.061
20
-89.3823
11
123.489
21
-89.5595
0
LINE
8
BLACK
6
CONTINUOUS
10
123.489
20
-89.5595
11
123.943
21
-89.6498
0
LINE
8
BLACK
6
CONTINUOUS
10
123.943
20
-89.6498
11
124.405
21
-89.6498
0
LINE
8
BLACK
6
CONTINUOUS
10
124.405
20
-89.6498
11
124.859
21
-89.5595
0
LINE
8
BLACK
6
CONTINUOUS
10
124.859
20
-89.5595
11
125.287
21
-89.3823
0
LINE
8
BLACK
6
CONTINUOUS
10
125.287
20
-89.3823
11
125.672
21
-89.1252
0
LINE
8
BLACK
6
CONTINUOUS
10
125.672
20
-89.1252
11
125.999
21
-88.7978
0
LINE
8
BLACK
6
CONTINUOUS
10
125.999
20
-88.7978
11
126.257
21
-88.4129
0
LINE
8
BLACK
6
CONTINUOUS
10
126.257
20
-88.4129
11
126.434
21
-87.9853
0
LINE
8
BLACK
6
CONTINUOUS
10
126.434
20
-87.9853
11
126.524
21
-87.5313
0
LINE
8
BLACK
6
CONTINUOUS
10
126.524
20
-87.5313
11
126.524
21
-87.0683
0
LINE
8
BLACK
6
CONTINUOUS
10
126.524
20
-87.0683
11
126.434
21
-86.6143
0
LINE
8
BLACK
6
CONTINUOUS
10
126.434
20
-86.6143
11
126.281
21
-86.2459
0
LINE
8
BLACK
6
CONTINUOUS
10
126.281
20
-86.2459
11
126.257
21
-86.1867
0
LINE
8
BLACK
6
CONTINUOUS
10
126.257
20
-86.1867
11
125.999
21
-85.8018
0
LINE
8
BLACK
6
CONTINUOUS
10
125.999
20
-85.8018
11
125.672
21
-85.4744
0
LINE
8
BLACK
6
CONTINUOUS
10
125.672
20
-85.4744
11
125.287
21
-85.2173
0
LINE
8
BLACK
6
CONTINUOUS
10
125.287
20
-85.2173
11
124.859
21
-85.0401
0
LINE
8
BLACK
6
CONTINUOUS
10
124.859
20
-85.0401
11
124.405
21
-84.9498
0
LINE
8
BLACK
6
CONTINUOUS
10
124.405
20
-84.9498
11
123.943
21
-84.9498
0
LINE
8
BLACK
6
CONTINUOUS
10
113.734
20
-86.5635
11
113.557
21
-86.1359
0
LINE
8
BLACK
6
CONTINUOUS
10
113.557
20
-86.1359
11
113.299
21
-85.751
0
LINE
8
BLACK
6
CONTINUOUS
10
113.299
20
-85.751
11
112.972
21
-85.4236
0
LINE
8
BLACK
6
CONTINUOUS
10
112.972
20
-85.4236
11
112.587
21
-85.1665
0
LINE
8
BLACK
6
CONTINUOUS
10
112.587
20
-85.1665
11
112.159
21
-84.9893
0
LINE
8
BLACK
6
CONTINUOUS
10
112.159
20
-84.9893
11
111.705
21
-84.899
0
LINE
8
BLACK
6
CONTINUOUS
10
111.705
20
-84.899
11
111.243
21
-84.899
0
LINE
8
BLACK
6
CONTINUOUS
10
111.243
20
-84.899
11
110.789
21
-84.9893
0
LINE
8
BLACK
6
CONTINUOUS
10
110.789
20
-84.9893
11
110.361
21
-85.1665
0
LINE
8
BLACK
6
CONTINUOUS
10
110.361
20
-85.1665
11
109.976
21
-85.4236
0
LINE
8
BLACK
6
CONTINUOUS
10
109.976
20
-85.4236
11
109.649
21
-85.751
0
LINE
8
BLACK
6
CONTINUOUS
10
109.649
20
-85.751
11
109.391
21
-86.1359
0
LINE
8
BLACK
6
CONTINUOUS
10
109.391
20
-86.1359
11
109.214
21
-86.5635
0
LINE
8
BLACK
6
CONTINUOUS
10
109.214
20
-86.5635
11
109.124
21
-87.0175
0
LINE
8
BLACK
6
CONTINUOUS
10
109.124
20
-87.0175
11
109.124
21
-87.4805
0
LINE
8
BLACK
6
CONTINUOUS
10
109.124
20
-87.4805
11
109.214
21
-87.9345
0
LINE
8
BLACK
6
CONTINUOUS
10
109.214
20
-87.9345
11
109.391
21
-88.3621
0
LINE
8
BLACK
6
CONTINUOUS
10
109.391
20
-88.3621
11
109.649
21
-88.747
0
LINE
8
BLACK
6
CONTINUOUS
10
109.649
20
-88.747
11
109.976
21
-89.0744
0
LINE
8
BLACK
6
CONTINUOUS
10
109.976
20
-89.0744
11
110.361
21
-89.3315
0
LINE
8
BLACK
6
CONTINUOUS
10
110.361
20
-89.3315
11
110.789
21
-89.5087
0
LINE
8
BLACK
6
CONTINUOUS
10
110.789
20
-89.5087
11
111.243
21
-89.599
0
LINE
8
BLACK
6
CONTINUOUS
10
111.243
20
-89.599
11
111.705
21
-89.599
0
LINE
8
BLACK
6
CONTINUOUS
10
111.705
20
-89.599
11
112.159
21
-89.5087
0
LINE
8
BLACK
6
CONTINUOUS
10
112.159
20
-89.5087
11
112.587
21
-89.3315
0
LINE
8
BLACK
6
CONTINUOUS
10
112.587
20
-89.3315
11
112.972
21
-89.0744
0
LINE
8
BLACK
6
CONTINUOUS
10
112.972
20
-89.0744
11
113.299
21
-88.747
0
LINE
8
BLACK
6
CONTINUOUS
10
113.299
20
-88.747
11
113.557
21
-88.3621
0
LINE
8
BLACK
6
CONTINUOUS
10
113.557
20
-88.3621
11
113.734
21
-87.9345
0
LINE
8
BLACK
6
CONTINUOUS
10
113.734
20
-87.9345
11
113.824
21
-87.4805
0
LINE
8
BLACK
6
CONTINUOUS
10
113.824
20
-87.4805
11
113.824
21
-87.0175
0
LINE
8
BLACK
6
CONTINUOUS
10
113.824
20
-87.0175
11
113.734
21
-86.5635
0
LINE
8
BLACK
6
CONTINUOUS
10
98.5425
20
-84.899
11
98.0885
21
-84.9893
0
LINE
8
BLACK
6
CONTINUOUS
10
98.0885
20
-84.9893
11
97.6609
21
-85.1665
0
LINE
8
BLACK
6
CONTINUOUS
10
97.6609
20
-85.1665
11
97.276
21
-85.4236
0
LINE
8
BLACK
6
CONTINUOUS
10
97.276
20
-85.4236
11
96.9486
21
-85.751
0
LINE
8
BLACK
6
CONTINUOUS
10
96.9486
20
-85.751
11
96.6915
21
-86.1359
0
LINE
8
BLACK
6
CONTINUOUS
10
96.6915
20
-86.1359
11
96.5143
21
-86.5635
0
LINE
8
BLACK
6
CONTINUOUS
10
96.5143
20
-86.5635
11
96.424
21
-87.0175
0
LINE
8
BLACK
6
CONTINUOUS
10
96.424
20
-87.0175
11
96.424
21
-87.4805
0
LINE
8
BLACK
6
CONTINUOUS
10
96.424
20
-87.4805
11
96.5143
21
-87.9345
0
LINE
8
BLACK
6
CONTINUOUS
10
96.5143
20
-87.9345
11
96.6915
21
-88.3621
0
LINE
8
BLACK
6
CONTINUOUS
10
96.6915
20
-88.3621
11
96.9486
21
-88.747
0
LINE
8
BLACK
6
CONTINUOUS
10
96.9486
20
-88.747
11
97.276
21
-89.0744
0
LINE
8
BLACK
6
CONTINUOUS
10
97.276
20
-89.0744
11
97.6609
21
-89.3315
0
LINE
8
BLACK
6
CONTINUOUS
10
97.6609
20
-89.3315
11
98.0885
21
-89.5087
0
LINE
8
BLACK
6
CONTINUOUS
10
98.0885
20
-89.5087
11
98.5425
21
-89.599
0
LINE
8
BLACK
6
CONTINUOUS
10
98.5425
20
-89.599
11
99.0055
21
-89.599
0
LINE
8
BLACK
6
CONTINUOUS
10
99.0055
20
-89.599
11
99.4595
21
-89.5087
0
LINE
8
BLACK
6
CONTINUOUS
10
99.4595
20
-89.5087
11
99.8871
21
-89.3315
0
LINE
8
BLACK
6
CONTINUOUS
10
99.8871
20
-89.3315
11
100.272
21
-89.0744
0
LINE
8
BLACK
6
CONTINUOUS
10
100.272
20
-89.0744
11
100.599
21
-88.747
0
LINE
8
BLACK
6
CONTINUOUS
10
100.599
20
-88.747
11
100.857
21
-88.3621
0
LINE
8
BLACK
6
CONTINUOUS
10
100.857
20
-88.3621
11
101.034
21
-87.9345
0
LINE
8
BLACK
6
CONTINUOUS
10
101.034
20
-87.9345
11
101.124
21
-87.4805
0
LINE
8
BLACK
6
CONTINUOUS
10
101.124
20
-87.4805
11
101.124
21
-87.0175
0
LINE
8
BLACK
6
CONTINUOUS
10
101.124
20
-87.0175
11
101.034
21
-86.5635
0
LINE
8
BLACK
6
CONTINUOUS
10
101.034
20
-86.5635
11
100.857
21
-86.1359
0
LINE
8
BLACK
6
CONTINUOUS
10
100.857
20
-86.1359
11
100.599
21
-85.751
0
LINE
8
BLACK
6
CONTINUOUS
10
100.599
20
-85.751
11
100.272
21
-85.4236
0
LINE
8
BLACK
6
CONTINUOUS
10
100.272
20
-85.4236
11
99.8871
21
-85.1665
0
LINE
8
BLACK
6
CONTINUOUS
10
99.8871
20
-85.1665
11
99.4595
21
-84.9893
0
LINE
8
BLACK
6
CONTINUOUS
10
99.4595
20
-84.9893
11
99.0055
21
-84.899
0
LINE
8
BLACK
6
CONTINUOUS
10
99.0055
20
-84.899
11
98.5425
21
-84.899
0
LINE
8
BLACK
6
CONTINUOUS
10
145.46
20
-85.9948
11
145.458
21
-85.9949
0
LINE
8
BLACK
6
CONTINUOUS
10
145.458
20
-85.9949
11
145.454
21
-85.9949
0
LINE
8
BLACK
6
CONTINUOUS
10
145.454
20
-85.9949
11
145.45
21
-85.9953
0
LINE
8
BLACK
6
CONTINUOUS
10
145.45
20
-85.9953
11
140.3
21
-85.9953
0
LINE
8
BLACK
6
CONTINUOUS
10
140.3
20
-85.9953
11
140.299
21
-85.9953
0
LINE
8
BLACK
6
CONTINUOUS
10
140.299
20
-85.9953
11
140.295
21
-85.9948
0
LINE
8
BLACK
6
CONTINUOUS
10
140.295
20
-85.9948
11
140.29
21
-85.9948
0
LINE
8
BLACK
6
CONTINUOUS
10
140.29
20
-85.9948
11
140.284
21
-85.9942
0
LINE
8
BLACK
6
CONTINUOUS
10
140.284
20
-85.9942
11
140.278
21
-85.9948
0
LINE
8
BLACK
6
CONTINUOUS
10
140.278
20
-85.9948
11
140.24
21
-85.9986
0
LINE
8
BLACK
6
CONTINUOUS
10
140.24
20
-85.9986
11
140.198
21
-86.0114
0
LINE
8
BLACK
6
CONTINUOUS
10
140.198
20
-86.0114
11
140.159
21
-86.0323
0
LINE
8
BLACK
6
CONTINUOUS
10
140.159
20
-86.0323
11
140.124
21
-86.0604
0
LINE
8
BLACK
6
CONTINUOUS
10
140.124
20
-86.0604
11
140.096
21
-86.0947
0
LINE
8
BLACK
6
CONTINUOUS
10
140.096
20
-86.0947
11
140.075
21
-86.1338
0
LINE
8
BLACK
6
CONTINUOUS
10
140.075
20
-86.1338
11
140.062
21
-86.1762
0
LINE
8
BLACK
6
CONTINUOUS
10
140.062
20
-86.1762
11
140.058
21
-86.2203
0
LINE
8
BLACK
6
CONTINUOUS
10
140.058
20
-86.2203
11
140.059
21
-86.2265
0
LINE
8
BLACK
6
CONTINUOUS
10
140.059
20
-86.2265
11
140.059
21
-86.2278
0
LINE
8
BLACK
6
CONTINUOUS
10
140.059
20
-86.2278
11
140.059
21
-86.2321
0
LINE
8
BLACK
6
CONTINUOUS
10
140.059
20
-86.2321
11
140.059
21
-86.2363
0
LINE
8
BLACK
6
CONTINUOUS
10
140.059
20
-86.2363
11
140.059
21
-88.2109
0
LINE
8
BLACK
6
CONTINUOUS
10
140.059
20
-88.2109
11
140.059
21
-88.2123
0
LINE
8
BLACK
6
CONTINUOUS
10
140.059
20
-88.2123
11
140.059
21
-88.2165
0
LINE
8
BLACK
6
CONTINUOUS
10
140.059
20
-88.2165
11
140.059
21
-88.2207
0
LINE
8
BLACK
6
CONTINUOUS
10
140.059
20
-88.2207
11
140.058
21
-88.2269
0
LINE
8
BLACK
6
CONTINUOUS
10
140.058
20
-88.2269
11
140.062
21
-88.271
0
LINE
8
BLACK
6
CONTINUOUS
10
140.062
20
-88.271
11
140.075
21
-88.3134
0
LINE
8
BLACK
6
CONTINUOUS
10
140.075
20
-88.3134
11
140.096
21
-88.3525
0
LINE
8
BLACK
6
CONTINUOUS
10
140.096
20
-88.3525
11
140.124
21
-88.3868
0
LINE
8
BLACK
6
CONTINUOUS
10
140.124
20
-88.3868
11
140.159
21
-88.4149
0
LINE
8
BLACK
6
CONTINUOUS
10
140.159
20
-88.4149
11
140.198
21
-88.4358
0
LINE
8
BLACK
6
CONTINUOUS
10
140.198
20
-88.4358
11
140.24
21
-88.4486
0
LINE
8
BLACK
6
CONTINUOUS
10
140.24
20
-88.4486
11
140.278
21
-88.4524
0
LINE
8
BLACK
6
CONTINUOUS
10
140.278
20
-88.4524
11
140.278
21
-88.4524
0
LINE
8
BLACK
6
CONTINUOUS
10
140.278
20
-88.4524
11
140.284
21
-88.453
0
LINE
8
BLACK
6
CONTINUOUS
10
140.284
20
-88.453
11
140.29
21
-88.4524
0
LINE
8
BLACK
6
CONTINUOUS
10
140.29
20
-88.4524
11
140.292
21
-88.4523
0
LINE
8
BLACK
6
CONTINUOUS
10
140.292
20
-88.4523
11
140.296
21
-88.4523
0
LINE
8
BLACK
6
CONTINUOUS
10
140.296
20
-88.4523
11
140.3
21
-88.4519
0
LINE
8
BLACK
6
CONTINUOUS
10
140.3
20
-88.4519
11
145.45
21
-88.4519
0
LINE
8
BLACK
6
CONTINUOUS
10
145.45
20
-88.4519
11
145.451
21
-88.4519
0
LINE
8
BLACK
6
CONTINUOUS
10
145.451
20
-88.4519
11
145.455
21
-88.4524
0
LINE
8
BLACK
6
CONTINUOUS
10
145.455
20
-88.4524
11
145.46
21
-88.4524
0
LINE
8
BLACK
6
CONTINUOUS
10
145.46
20
-88.4524
11
145.466
21
-88.453
0
LINE
8
BLACK
6
CONTINUOUS
10
145.466
20
-88.453
11
145.472
21
-88.4524
0
LINE
8
BLACK
6
CONTINUOUS
10
145.472
20
-88.4524
11
145.472
21
-88.4524
0
LINE
8
BLACK
6
CONTINUOUS
10
145.472
20
-88.4524
11
145.51
21
-88.4486
0
LINE
8
BLACK
6
CONTINUOUS
10
145.51
20
-88.4486
11
145.552
21
-88.4358
0
LINE
8
BLACK
6
CONTINUOUS
10
145.552
20
-88.4358
11
145.591
21
-88.4149
0
LINE
8
BLACK
6
CONTINUOUS
10
145.591
20
-88.4149
11
145.626
21
-88.3868
0
LINE
8
BLACK
6
CONTINUOUS
10
145.626
20
-88.3868
11
145.654
21
-88.3525
0
LINE
8
BLACK
6
CONTINUOUS
10
145.654
20
-88.3525
11
145.675
21
-88.3134
0
LINE
8
BLACK
6
CONTINUOUS
10
145.675
20
-88.3134
11
145.688
21
-88.271
0
LINE
8
BLACK
6
CONTINUOUS
10
145.688
20
-88.271
11
145.692
21
-88.2269
0
LINE
8
BLACK
6
CONTINUOUS
10
145.692
20
-88.2269
11
145.691
21
-88.2207
0
LINE
8
BLACK
6
CONTINUOUS
10
145.691
20
-88.2207
11
145.691
21
-88.2193
0
LINE
8
BLACK
6
CONTINUOUS
10
145.691
20
-88.2193
11
145.691
21
-88.2151
0
LINE
8
BLACK
6
CONTINUOUS
10
145.691
20
-88.2151
11
145.691
21
-88.2109
0
LINE
8
BLACK
6
CONTINUOUS
10
145.691
20
-88.2109
11
145.691
21
-86.2363
0
LINE
8
BLACK
6
CONTINUOUS
10
145.691
20
-86.2363
11
145.691
21
-86.2349
0
LINE
8
BLACK
6
CONTINUOUS
10
145.691
20
-86.2349
11
145.691
21
-86.2307
0
LINE
8
BLACK
6
CONTINUOUS
10
145.691
20
-86.2307
11
145.691
21
-86.2265
0
LINE
8
BLACK
6
CONTINUOUS
10
145.691
20
-86.2265
11
145.692
21
-86.2203
0
LINE
8
BLACK
6
CONTINUOUS
10
145.692
20
-86.2203
11
145.688
21
-86.1762
0
LINE
8
BLACK
6
CONTINUOUS
10
145.688
20
-86.1762
11
145.675
21
-86.1338
0
LINE
8
BLACK
6
CONTINUOUS
10
145.675
20
-86.1338
11
145.654
21
-86.0947
0
LINE
8
BLACK
6
CONTINUOUS
10
145.654
20
-86.0947
11
145.626
21
-86.0604
0
LINE
8
BLACK
6
CONTINUOUS
10
145.626
20
-86.0604
11
145.591
21
-86.0323
0
LINE
8
BLACK
6
CONTINUOUS
10
145.591
20
-86.0323
11
145.552
21
-86.0114
0
LINE
8
BLACK
6
CONTINUOUS
10
145.552
20
-86.0114
11
145.51
21
-85.9986
0
LINE
8
BLACK
6
CONTINUOUS
10
145.51
20
-85.9986
11
145.472
21
-85.9948
0
LINE
8
BLACK
6
CONTINUOUS
10
145.472
20
-85.9948
11
145.466
21
-85.9942
0
LINE
8
BLACK
6
CONTINUOUS
10
145.466
20
-85.9942
11
145.46
21
-85.9948
0
LINE
8
BLACK
6
CONTINUOUS
10
136.519
20
-85.9821
11
136.517
21
-85.9822
0
LINE
8
BLACK
6
CONTINUOUS
10
136.517
20
-85.9822
11
136.513
21
-85.9822
0
LINE
8
BLACK
6
CONTINUOUS
10
136.513
20
-85.9822
11
136.509
21
-85.9826
0
LINE
8
BLACK
6
CONTINUOUS
10
136.509
20
-85.9826
11
131.359
21
-85.9826
0
LINE
8
BLACK
6
CONTINUOUS
10
131.359
20
-85.9826
11
131.358
21
-85.9826
0
LINE
8
BLACK
6
CONTINUOUS
10
131.358
20
-85.9826
11
131.354
21
-85.9821
0
LINE
8
BLACK
6
CONTINUOUS
10
131.354
20
-85.9821
11
131.35
21
-85.9821
0
LINE
8
BLACK
6
CONTINUOUS
10
131.35
20
-85.9821
11
131.343
21
-85.9815
0
LINE
8
BLACK
6
CONTINUOUS
10
131.343
20
-85.9815
11
131.337
21
-85.9821
0
LINE
8
BLACK
6
CONTINUOUS
10
131.337
20
-85.9821
11
131.299
21
-85.9859
0
LINE
8
BLACK
6
CONTINUOUS
10
131.299
20
-85.9859
11
131.257
21
-85.9987
0
LINE
8
BLACK
6
CONTINUOUS
10
131.257
20
-85.9987
11
131.218
21
-86.0196
0
LINE
8
BLACK
6
CONTINUOUS
10
131.218
20
-86.0196
11
131.184
21
-86.0477
0
LINE
8
BLACK
6
CONTINUOUS
10
131.184
20
-86.0477
11
131.155
21
-86.082
0
LINE
8
BLACK
6
CONTINUOUS
10
131.155
20
-86.082
11
131.135
21
-86.1211
0
LINE
8
BLACK
6
CONTINUOUS
10
131.135
20
-86.1211
11
131.122
21
-86.1635
0
LINE
8
BLACK
6
CONTINUOUS
10
131.122
20
-86.1635
11
131.117
21
-86.2076
0
LINE
8
BLACK
6
CONTINUOUS
10
131.117
20
-86.2076
11
131.118
21
-86.2138
0
LINE
8
BLACK
6
CONTINUOUS
10
131.118
20
-86.2138
11
131.118
21
-86.2151
0
LINE
8
BLACK
6
CONTINUOUS
10
131.118
20
-86.2151
11
131.118
21
-86.2194
0
LINE
8
BLACK
6
CONTINUOUS
10
131.118
20
-86.2194
11
131.118
21
-86.2236
0
LINE
8
BLACK
6
CONTINUOUS
10
131.118
20
-86.2236
11
131.118
21
-88.1982
0
LINE
8
BLACK
6
CONTINUOUS
10
131.118
20
-88.1982
11
131.118
21
-88.1996
0
LINE
8
BLACK
6
CONTINUOUS
10
131.118
20
-88.1996
11
131.118
21
-88.2038
0
LINE
8
BLACK
6
CONTINUOUS
10
131.118
20
-88.2038
11
131.118
21
-88.208
0
LINE
8
BLACK
6
CONTINUOUS
10
131.118
20
-88.208
11
131.117
21
-88.2142
0
LINE
8
BLACK
6
CONTINUOUS
10
131.117
20
-88.2142
11
131.122
21
-88.2583
0
LINE
8
BLACK
6
CONTINUOUS
10
131.122
20
-88.2583
11
131.135
21
-88.3007
0
LINE
8
BLACK
6
CONTINUOUS
10
131.135
20
-88.3007
11
131.155
21
-88.3398
0
LINE
8
BLACK
6
CONTINUOUS
10
131.155
20
-88.3398
11
131.184
21
-88.3741
0
LINE
8
BLACK
6
CONTINUOUS
10
131.184
20
-88.3741
11
131.218
21
-88.4022
0
LINE
8
BLACK
6
CONTINUOUS
10
131.218
20
-88.4022
11
131.257
21
-88.4231
0
LINE
8
BLACK
6
CONTINUOUS
10
131.257
20
-88.4231
11
131.299
21
-88.4359
0
LINE
8
BLACK
6
CONTINUOUS
10
131.299
20
-88.4359
11
131.337
21
-88.4397
0
LINE
8
BLACK
6
CONTINUOUS
10
131.337
20
-88.4397
11
131.337
21
-88.4397
0
LINE
8
BLACK
6
CONTINUOUS
10
131.337
20
-88.4397
11
131.343
21
-88.4403
0
LINE
8
BLACK
6
CONTINUOUS
10
131.343
20
-88.4403
11
131.35
21
-88.4397
0
LINE
8
BLACK
6
CONTINUOUS
10
131.35
20
-88.4397
11
131.351
21
-88.4396
0
LINE
8
BLACK
6
CONTINUOUS
10
131.351
20
-88.4396
11
131.355
21
-88.4396
0
LINE
8
BLACK
6
CONTINUOUS
10
131.355
20
-88.4396
11
131.359
21
-88.4392
0
LINE
8
BLACK
6
CONTINUOUS
10
131.359
20
-88.4392
11
136.509
21
-88.4392
0
LINE
8
BLACK
6
CONTINUOUS
10
136.509
20
-88.4392
11
136.51
21
-88.4392
0
LINE
8
BLACK
6
CONTINUOUS
10
136.51
20
-88.4392
11
136.515
21
-88.4397
0
LINE
8
BLACK
6
CONTINUOUS
10
136.515
20
-88.4397
11
136.519
21
-88.4397
0
LINE
8
BLACK
6
CONTINUOUS
10
136.519
20
-88.4397
11
136.525
21
-88.4403
0
LINE
8
BLACK
6
CONTINUOUS
10
136.525
20
-88.4403
11
136.531
21
-88.4397
0
LINE
8
BLACK
6
CONTINUOUS
10
136.531
20
-88.4397
11
136.531
21
-88.4397
0
LINE
8
BLACK
6
CONTINUOUS
10
136.531
20
-88.4397
11
136.569
21
-88.4359
0
LINE
8
BLACK
6
CONTINUOUS
10
136.569
20
-88.4359
11
136.612
21
-88.4231
0
LINE
8
BLACK
6
CONTINUOUS
10
136.612
20
-88.4231
11
136.651
21
-88.4022
0
LINE
8
BLACK
6
CONTINUOUS
10
136.651
20
-88.4022
11
136.685
21
-88.3741
0
LINE
8
BLACK
6
CONTINUOUS
10
136.685
20
-88.3741
11
136.713
21
-88.3398
0
LINE
8
BLACK
6
CONTINUOUS
10
136.713
20
-88.3398
11
136.734
21
-88.3007
0
LINE
8
BLACK
6
CONTINUOUS
10
136.734
20
-88.3007
11
136.747
21
-88.2583
0
LINE
8
BLACK
6
CONTINUOUS
10
136.747
20
-88.2583
11
136.751
21
-88.2142
0
LINE
8
BLACK
6
CONTINUOUS
10
136.751
20
-88.2142
11
136.75
21
-88.208
0
LINE
8
BLACK
6
CONTINUOUS
10
136.75
20
-88.208
11
136.75
21
-88.2066
0
LINE
8
BLACK
6
CONTINUOUS
10
136.75
20
-88.2066
11
136.75
21
-88.2024
0
LINE
8
BLACK
6
CONTINUOUS
10
136.75
20
-88.2024
11
136.75
21
-88.1982
0
LINE
8
BLACK
6
CONTINUOUS
10
136.75
20
-88.1982
11
136.75
21
-86.2236
0
LINE
8
BLACK
6
CONTINUOUS
10
136.75
20
-86.2236
11
136.75
21
-86.2222
0
LINE
8
BLACK
6
CONTINUOUS
10
136.75
20
-86.2222
11
136.75
21
-86.218
0
LINE
8
BLACK
6
CONTINUOUS
10
136.75
20
-86.218
11
136.75
21
-86.2138
0
LINE
8
BLACK
6
CONTINUOUS
10
136.75
20
-86.2138
11
136.751
21
-86.2105
0
LINE
8
BLACK
6
CONTINUOUS
10
136.751
20
-86.2105
11
136.751
21
-86.2105
0
LINE
8
BLACK
6
CONTINUOUS
10
136.751
20
-86.2105
11
136.751
21
-86.2076
0
LINE
8
BLACK
6
CONTINUOUS
10
136.751
20
-86.2076
11
136.747
21
-86.1635
0
LINE
8
BLACK
6
CONTINUOUS
10
136.747
20
-86.1635
11
136.734
21
-86.1211
0
LINE
8
BLACK
6
CONTINUOUS
10
136.734
20
-86.1211
11
136.713
21
-86.082
0
LINE
8
BLACK
6
CONTINUOUS
10
136.713
20
-86.082
11
136.685
21
-86.0477
0
LINE
8
BLACK
6
CONTINUOUS
10
136.685
20
-86.0477
11
136.651
21
-86.0196
0
LINE
8
BLACK
6
CONTINUOUS
10
136.651
20
-86.0196
11
136.612
21
-85.9987
0
LINE
8
BLACK
6
CONTINUOUS
10
136.612
20
-85.9987
11
136.569
21
-85.9859
0
LINE
8
BLACK
6
CONTINUOUS
10
136.569
20
-85.9859
11
136.531
21
-85.9821
0
LINE
8
BLACK
6
CONTINUOUS
10
136.531
20
-85.9821
11
136.525
21
-85.9815
0
LINE
8
BLACK
6
CONTINUOUS
10
136.525
20
-85.9815
11
136.519
21
-85.9821
0
LINE
8
BLACK
6
CONTINUOUS
10
83.664
20
-73.6086
11
83.6648
21
-73.6017
0
LINE
8
BLACK
6
CONTINUOUS
10
83.6648
20
-73.6017
11
83.6641
21
-73.5816
0
LINE
8
BLACK
6
CONTINUOUS
10
83.6641
20
-73.5816
11
83.664
21
-73.5802
0
LINE
8
BLACK
6
CONTINUOUS
10
83.664
20
-73.5802
11
83.6641
21
-73.5791
0
LINE
8
BLACK
6
CONTINUOUS
10
83.6641
20
-73.5791
11
83.664
21
-73.578
0
LINE
8
BLACK
6
CONTINUOUS
10
83.664
20
-73.578
11
83.664
21
-73.5727
0
LINE
8
BLACK
6
CONTINUOUS
10
83.664
20
-73.5727
11
83.6639
21
-73.5719
0
LINE
8
BLACK
6
CONTINUOUS
10
83.6639
20
-73.5719
11
83.6638
21
-73.5705
0
LINE
8
BLACK
6
CONTINUOUS
10
83.6638
20
-73.5705
11
83.6638
21
-73.568
0
LINE
8
BLACK
6
CONTINUOUS
10
83.6638
20
-73.568
11
83.6635
21
-73.5656
0
LINE
8
BLACK
6
CONTINUOUS
10
83.6635
20
-73.5656
11
83.6631
21
-73.5536
0
LINE
8
BLACK
6
CONTINUOUS
10
83.6631
20
-73.5536
11
83.663
21
-73.5533
0
LINE
8
BLACK
6
CONTINUOUS
10
83.663
20
-73.5533
11
83.6627
21
-73.5519
0
LINE
8
BLACK
6
CONTINUOUS
10
83.6627
20
-73.5519
11
83.6619
21
-73.546
0
LINE
8
BLACK
6
CONTINUOUS
10
83.6619
20
-73.546
11
83.6608
21
-73.5401
0
LINE
8
BLACK
6
CONTINUOUS
10
83.6608
20
-73.5401
11
83.6607
21
-73.5397
0
LINE
8
BLACK
6
CONTINUOUS
10
83.6607
20
-73.5397
11
83.6573
21
-73.5282
0
LINE
8
BLACK
6
CONTINUOUS
10
83.6573
20
-73.5282
11
83.6569
21
-73.5269
0
LINE
8
BLACK
6
CONTINUOUS
10
83.6569
20
-73.5269
11
83.6564
21
-73.5245
0
LINE
8
BLACK
6
CONTINUOUS
10
83.6564
20
-73.5245
11
83.6556
21
-73.5222
0
LINE
8
BLACK
6
CONTINUOUS
10
83.6556
20
-73.5222
11
83.6529
21
-73.5105
0
LINE
8
BLACK
6
CONTINUOUS
10
83.6529
20
-73.5105
11
83.6527
21
-73.5102
0
LINE
8
BLACK
6
CONTINUOUS
10
83.6527
20
-73.5102
11
83.6521
21
-73.5089
0
LINE
8
BLACK
6
CONTINUOUS
10
83.6521
20
-73.5089
11
83.6503
21
-73.5032
0
LINE
8
BLACK
6
CONTINUOUS
10
83.6503
20
-73.5032
11
83.648
21
-73.4976
0
LINE
8
BLACK
6
CONTINUOUS
10
83.648
20
-73.4976
11
83.6479
21
-73.4973
0
LINE
8
BLACK
6
CONTINUOUS
10
83.6479
20
-73.4973
11
83.6422
21
-73.4867
0
LINE
8
BLACK
6
CONTINUOUS
10
83.6422
20
-73.4867
11
83.6416
21
-73.4855
0
LINE
8
BLACK
6
CONTINUOUS
10
83.6416
20
-73.4855
11
83.6407
21
-73.4832
0
LINE
8
BLACK
6
CONTINUOUS
10
83.6407
20
-73.4832
11
83.6394
21
-73.4811
0
LINE
8
BLACK
6
CONTINUOUS
10
83.6394
20
-73.4811
11
83.6345
21
-73.4702
0
LINE
8
BLACK
6
CONTINUOUS
10
83.6345
20
-73.4702
11
83.6342
21
-73.4699
0
LINE
8
BLACK
6
CONTINUOUS
10
83.6342
20
-73.4699
11
83.6334
21
-73.4687
0
LINE
8
BLACK
6
CONTINUOUS
10
83.6334
20
-73.4687
11
83.6305
21
-73.4635
0
LINE
8
BLACK
6
CONTINUOUS
10
83.6305
20
-73.4635
11
83.6272
21
-73.4585
0
LINE
8
BLACK
6
CONTINUOUS
10
83.6272
20
-73.4585
11
83.627
21
-73.4582
0
LINE
8
BLACK
6
CONTINUOUS
10
83.627
20
-73.4582
11
83.6194
21
-73.4489
0
LINE
8
BLACK
6
CONTINUOUS
10
83.6194
20
-73.4489
11
83.6185
21
-73.4478
0
LINE
8
BLACK
6
CONTINUOUS
10
83.6185
20
-73.4478
11
83.6172
21
-73.4458
0
LINE
8
BLACK
6
CONTINUOUS
10
83.6172
20
-73.4458
11
83.6156
21
-73.444
0
LINE
8
BLACK
6
CONTINUOUS
10
83.6156
20
-73.444
11
83.615
21
-73.4432
0
LINE
8
BLACK
6
CONTINUOUS
10
83.615
20
-73.4432
11
83.6115
21
-73.4393
0
LINE
8
BLACK
6
CONTINUOUS
10
83.6115
20
-73.4393
11
83.6106
21
-73.4382
0
LINE
8
BLACK
6
CONTINUOUS
10
83.6106
20
-73.4382
11
83.61
21
-73.4373
0
LINE
8
BLACK
6
CONTINUOUS
10
83.61
20
-73.4373
11
83.6092
21
-73.4366
0
LINE
8
BLACK
6
CONTINUOUS
10
83.6092
20
-73.4366
11
83.5966
21
-73.4212
0
LINE
8
BLACK
6
CONTINUOUS
10
83.5966
20
-73.4212
11
83.5958
21
-73.4203
0
LINE
8
BLACK
6
CONTINUOUS
10
83.5958
20
-73.4203
11
83.5904
21
-73.4153
0
LINE
8
BLACK
6
CONTINUOUS
10
83.5904
20
-73.4153
11
82.5881
21
-72.2791
0
LINE
8
BLACK
6
CONTINUOUS
10
82.5881
20
-72.2791
11
82.5834
21
-72.2747
0
LINE
8
BLACK
6
CONTINUOUS
10
82.5834
20
-72.2747
11
82.5824
21
-72.2738
0
LINE
8
BLACK
6
CONTINUOUS
10
82.5824
20
-72.2738
11
82.5819
21
-72.2732
0
LINE
8
BLACK
6
CONTINUOUS
10
82.5819
20
-72.2732
11
82.5814
21
-72.2728
0
LINE
8
BLACK
6
CONTINUOUS
10
82.5814
20
-72.2728
11
82.5173
21
-72.2096
0
LINE
8
BLACK
6
CONTINUOUS
10
82.5173
20
-72.2096
11
82.5173
21
-72.2096
0
LINE
8
BLACK
6
CONTINUOUS
10
82.5173
20
-72.2096
11
82.5173
21
-72.2096
0
LINE
8
BLACK
6
CONTINUOUS
10
82.5173
20
-72.2096
11
82.5163
21
-72.2086
0
LINE
8
BLACK
6
CONTINUOUS
10
82.5163
20
-72.2086
11
82.5106
21
-72.2016
0
LINE
8
BLACK
6
CONTINUOUS
10
82.5106
20
-72.2016
11
82.5048
21
-72.1946
0
LINE
8
BLACK
6
CONTINUOUS
10
82.5048
20
-72.1946
11
82.4695
21
-72.1428
0
LINE
8
BLACK
6
CONTINUOUS
10
82.4695
20
-72.1428
11
82.4687
21
-72.1417
0
LINE
8
BLACK
6
CONTINUOUS
10
82.4687
20
-72.1417
11
82.4645
21
-72.1337
0
LINE
8
BLACK
6
CONTINUOUS
10
82.4645
20
-72.1337
11
82.4602
21
-72.1257
0
LINE
8
BLACK
6
CONTINUOUS
10
82.4602
20
-72.1257
11
82.4328
21
-72.0614
0
LINE
8
BLACK
6
CONTINUOUS
10
82.4328
20
-72.0614
11
82.4323
21
-72.0601
0
LINE
8
BLACK
6
CONTINUOUS
10
82.4323
20
-72.0601
11
82.4303
21
-72.0535
0
LINE
8
BLACK
6
CONTINUOUS
10
82.4303
20
-72.0535
11
82.428
21
-72.0471
0
LINE
8
BLACK
6
CONTINUOUS
10
82.428
20
-72.0471
11
82.424
21
-72.0313
0
LINE
8
BLACK
6
CONTINUOUS
10
82.424
20
-72.0313
11
82.4236
21
-72.03
0
LINE
8
BLACK
6
CONTINUOUS
10
82.4236
20
-72.03
11
82.4229
21
-72.0251
0
LINE
8
BLACK
6
CONTINUOUS
10
82.4229
20
-72.0251
11
82.4126
21
-71.9883
0
LINE
8
BLACK
6
CONTINUOUS
10
82.4126
20
-71.9883
11
82.2476
21
-71.5653
0
LINE
8
BLACK
6
CONTINUOUS
10
82.2476
20
-71.5653
11
82.2326
21
-71.5357
0
LINE
8
BLACK
6
CONTINUOUS
10
82.2326
20
-71.5357
11
82.2289
21
-71.531
0
LINE
8
BLACK
6
CONTINUOUS
10
82.2289
20
-71.531
11
82.228
21
-71.5299
0
LINE
8
BLACK
6
CONTINUOUS
10
82.228
20
-71.5299
11
82.2258
21
-71.5262
0
LINE
8
BLACK
6
CONTINUOUS
10
82.2258
20
-71.5262
11
82.2231
21
-71.5229
0
LINE
8
BLACK
6
CONTINUOUS
10
82.2231
20
-71.5229
11
82.2134
21
-71.5075
0
LINE
8
BLACK
6
CONTINUOUS
10
82.2134
20
-71.5075
11
82.2053
21
-71.4973
0
LINE
8
BLACK
6
CONTINUOUS
10
82.2053
20
-71.4973
11
82.2045
21
-71.4962
0
LINE
8
BLACK
6
CONTINUOUS
10
82.2045
20
-71.4962
11
82.2026
21
-71.4931
0
LINE
8
BLACK
6
CONTINUOUS
10
82.2026
20
-71.4931
11
82.2004
21
-71.4903
0
LINE
8
BLACK
6
CONTINUOUS
10
82.2004
20
-71.4903
11
82.1934
21
-71.4798
0
LINE
8
BLACK
6
CONTINUOUS
10
82.1934
20
-71.4798
11
82.1053
21
-71.3732
0
LINE
8
BLACK
6
CONTINUOUS
10
82.1053
20
-71.3732
11
82.0879
21
-71.3559
0
LINE
8
BLACK
6
CONTINUOUS
10
82.0879
20
-71.3559
11
82.0869
21
-71.3549
0
LINE
8
BLACK
6
CONTINUOUS
10
82.0869
20
-71.3549
11
82.07
21
-71.3377
0
LINE
8
BLACK
6
CONTINUOUS
10
82.07
20
-71.3377
11
81.9628
21
-71.2503
0
LINE
8
BLACK
6
CONTINUOUS
10
81.9628
20
-71.2503
11
81.9423
21
-71.2367
0
LINE
8
BLACK
6
CONTINUOUS
10
81.9423
20
-71.2367
11
81.9412
21
-71.2359
0
LINE
8
BLACK
6
CONTINUOUS
10
81.9412
20
-71.2359
11
81.9213
21
-71.2222
0
LINE
8
BLACK
6
CONTINUOUS
10
81.9213
20
-71.2222
11
81.7991
21
-71.1573
0
LINE
8
BLACK
6
CONTINUOUS
10
81.7991
20
-71.1573
11
81.7764
21
-71.148
0
LINE
8
BLACK
6
CONTINUOUS
10
81.7764
20
-71.148
11
81.7752
21
-71.1474
0
LINE
8
BLACK
6
CONTINUOUS
10
81.7752
20
-71.1474
11
81.7529
21
-71.1379
0
LINE
8
BLACK
6
CONTINUOUS
10
81.7529
20
-71.1379
11
81.6205
21
-71.0979
0
LINE
8
BLACK
6
CONTINUOUS
10
81.6205
20
-71.0979
11
81.5965
21
-71.0932
0
LINE
8
BLACK
6
CONTINUOUS
10
81.5965
20
-71.0932
11
81.5951
21
-71.0929
0
LINE
8
BLACK
6
CONTINUOUS
10
81.5951
20
-71.0929
11
81.5951
21
-71.0929
0
LINE
8
BLACK
6
CONTINUOUS
10
81.5951
20
-71.0929
11
81.5715
21
-71.0878
0
LINE
8
BLACK
6
CONTINUOUS
10
81.5715
20
-71.0878
11
81.429
21
-71.0739
0
LINE
8
BLACK
6
CONTINUOUS
10
81.429
20
-71.0739
11
81.4289
21
-71.0739
0
LINE
8
BLACK
6
CONTINUOUS
10
81.4289
20
-71.0739
11
81.4289
21
-71.0739
0
LINE
8
BLACK
6
CONTINUOUS
10
81.4289
20
-71.0739
11
81.4181
21
-71.0728
0
LINE
8
BLACK
6
CONTINUOUS
10
81.4181
20
-71.0728
11
78.094
21
-71.0728
0
LINE
8
BLACK
6
CONTINUOUS
10
78.094
20
-71.0728
11
78.0848
21
-71.0737
0
LINE
8
BLACK
6
CONTINUOUS
10
78.0848
20
-71.0737
11
78.0834
21
-71.0738
0
LINE
8
BLACK
6
CONTINUOUS
10
78.0834
20
-71.0738
11
78.0798
21
-71.0738
0
LINE
8
BLACK
6
CONTINUOUS
10
78.0798
20
-71.0738
11
78.0766
21
-71.0741
0
LINE
8
BLACK
6
CONTINUOUS
10
78.0766
20
-71.0741
11
77.9587
21
-71.0865
0
LINE
8
BLACK
6
CONTINUOUS
10
77.9587
20
-71.0865
11
77.9346
21
-71.0914
0
LINE
8
BLACK
6
CONTINUOUS
10
77.9346
20
-71.0914
11
77.9333
21
-71.0917
0
LINE
8
BLACK
6
CONTINUOUS
10
77.9333
20
-71.0917
11
77.9332
21
-71.0917
0
LINE
8
BLACK
6
CONTINUOUS
10
77.9332
20
-71.0917
11
77.9095
21
-71.0962
0
LINE
8
BLACK
6
CONTINUOUS
10
77.9095
20
-71.0962
11
77.7971
21
-71.131
0
LINE
8
BLACK
6
CONTINUOUS
10
77.7971
20
-71.131
11
77.7744
21
-71.1406
0
LINE
8
BLACK
6
CONTINUOUS
10
77.7744
20
-71.1406
11
77.7731
21
-71.1411
0
LINE
8
BLACK
6
CONTINUOUS
10
77.7731
20
-71.1411
11
77.7731
21
-71.1411
0
LINE
8
BLACK
6
CONTINUOUS
10
77.7731
20
-71.1411
11
77.7507
21
-71.1501
0
LINE
8
BLACK
6
CONTINUOUS
10
77.7507
20
-71.1501
11
77.6472
21
-71.2061
0
LINE
8
BLACK
6
CONTINUOUS
10
77.6472
20
-71.2061
11
77.6268
21
-71.2198
0
LINE
8
BLACK
6
CONTINUOUS
10
77.6268
20
-71.2198
11
77.6257
21
-71.2206
0
LINE
8
BLACK
6
CONTINUOUS
10
77.6257
20
-71.2206
11
77.6257
21
-71.2206
0
LINE
8
BLACK
6
CONTINUOUS
10
77.6257
20
-71.2206
11
77.6055
21
-71.2338
0
LINE
8
BLACK
6
CONTINUOUS
10
77.6055
20
-71.2338
11
77.5148
21
-71.3089
0
LINE
8
BLACK
6
CONTINUOUS
10
77.5148
20
-71.3089
11
77.4975
21
-71.3263
0
LINE
8
BLACK
6
CONTINUOUS
10
77.4975
20
-71.3263
11
77.4965
21
-71.3273
0
LINE
8
BLACK
6
CONTINUOUS
10
77.4965
20
-71.3273
11
77.4792
21
-71.3442
0
LINE
8
BLACK
6
CONTINUOUS
10
77.4792
20
-71.3442
11
77.4048
21
-71.4354
0
LINE
8
BLACK
6
CONTINUOUS
10
77.4048
20
-71.4354
11
77.3912
21
-71.4559
0
LINE
8
BLACK
6
CONTINUOUS
10
77.3912
20
-71.4559
11
77.3905
21
-71.457
0
LINE
8
BLACK
6
CONTINUOUS
10
77.3905
20
-71.457
11
77.3905
21
-71.457
0
LINE
8
BLACK
6
CONTINUOUS
10
77.3905
20
-71.457
11
77.3768
21
-71.4769
0
LINE
8
BLACK
6
CONTINUOUS
10
77.3768
20
-71.4769
11
77.3215
21
-71.5809
0
LINE
8
BLACK
6
CONTINUOUS
10
77.3215
20
-71.5809
11
77.3122
21
-71.6036
0
LINE
8
BLACK
6
CONTINUOUS
10
77.3122
20
-71.6036
11
77.3117
21
-71.6049
0
LINE
8
BLACK
6
CONTINUOUS
10
77.3117
20
-71.6049
11
77.3116
21
-71.6049
0
LINE
8
BLACK
6
CONTINUOUS
10
77.3116
20
-71.6049
11
77.3021
21
-71.6271
0
LINE
8
BLACK
6
CONTINUOUS
10
77.3021
20
-71.6271
11
77.2681
21
-71.7397
0
LINE
8
BLACK
6
CONTINUOUS
10
77.2681
20
-71.7397
11
77.2633
21
-71.7639
0
LINE
8
BLACK
6
CONTINUOUS
10
77.2633
20
-71.7639
11
77.2631
21
-71.7652
0
LINE
8
BLACK
6
CONTINUOUS
10
77.2631
20
-71.7652
11
77.2631
21
-71.7652
0
LINE
8
BLACK
6
CONTINUOUS
10
77.2631
20
-71.7652
11
77.258
21
-71.7888
0
LINE
8
BLACK
6
CONTINUOUS
10
77.258
20
-71.7888
11
77.2461
21
-71.9108
0
LINE
8
BLACK
6
CONTINUOUS
10
77.2461
20
-71.9108
11
77.2461
21
-71.9109
0
LINE
8
BLACK
6
CONTINUOUS
10
77.2461
20
-71.9109
11
77.2461
21
-71.9109
0
LINE
8
BLACK
6
CONTINUOUS
10
77.2461
20
-71.9109
11
77.245
21
-71.9217
0
LINE
8
BLACK
6
CONTINUOUS
10
77.245
20
-71.9217
11
77.245
21
-86.0408
0
LINE
8
BLACK
6
CONTINUOUS
10
77.245
20
-86.0408
11
77.2459
21
-86.05
0
LINE
8
BLACK
6
CONTINUOUS
10
77.2459
20
-86.05
11
77.246
21
-86.0514
0
LINE
8
BLACK
6
CONTINUOUS
10
77.246
20
-86.0514
11
77.246
21
-86.055
0
LINE
8
BLACK
6
CONTINUOUS
10
77.246
20
-86.055
11
77.2463
21
-86.0581
0
LINE
8
BLACK
6
CONTINUOUS
10
77.2463
20
-86.0581
11
77.2587
21
-86.1761
0
LINE
8
BLACK
6
CONTINUOUS
10
77.2587
20
-86.1761
11
77.2636
21
-86.2002
0
LINE
8
BLACK
6
CONTINUOUS
10
77.2636
20
-86.2002
11
77.2639
21
-86.2016
0
LINE
8
BLACK
6
CONTINUOUS
10
77.2639
20
-86.2016
11
77.2639
21
-86.2016
0
LINE
8
BLACK
6
CONTINUOUS
10
77.2639
20
-86.2016
11
77.2684
21
-86.2253
0
LINE
8
BLACK
6
CONTINUOUS
10
77.2684
20
-86.2253
11
77.3032
21
-86.3377
0
LINE
8
BLACK
6
CONTINUOUS
10
77.3032
20
-86.3377
11
77.3128
21
-86.3604
0
LINE
8
BLACK
6
CONTINUOUS
10
77.3128
20
-86.3604
11
77.3133
21
-86.3617
0
LINE
8
BLACK
6
CONTINUOUS
10
77.3133
20
-86.3617
11
77.3223
21
-86.3841
0
LINE
8
BLACK
6
CONTINUOUS
10
77.3223
20
-86.3841
11
77.3783
21
-86.4876
0
LINE
8
BLACK
6
CONTINUOUS
10
77.3783
20
-86.4876
11
77.3921
21
-86.508
0
LINE
8
BLACK
6
CONTINUOUS
10
77.3921
20
-86.508
11
77.3928
21
-86.5091
0
LINE
8
BLACK
6
CONTINUOUS
10
77.3928
20
-86.5091
11
77.406
21
-86.5293
0
LINE
8
BLACK
6
CONTINUOUS
10
77.406
20
-86.5293
11
77.4811
21
-86.62
0
LINE
8
BLACK
6
CONTINUOUS
10
77.4811
20
-86.62
11
77.4985
21
-86.6373
0
LINE
8
BLACK
6
CONTINUOUS
10
77.4985
20
-86.6373
11
77.4995
21
-86.6383
0
LINE
8
BLACK
6
CONTINUOUS
10
77.4995
20
-86.6383
11
77.5164
21
-86.6556
0
LINE
8
BLACK
6
CONTINUOUS
10
77.5164
20
-86.6556
11
77.6076
21
-86.73
0
LINE
8
BLACK
6
CONTINUOUS
10
77.6076
20
-86.73
11
77.6281
21
-86.7436
0
LINE
8
BLACK
6
CONTINUOUS
10
77.6281
20
-86.7436
11
77.6292
21
-86.7443
0
LINE
8
BLACK
6
CONTINUOUS
10
77.6292
20
-86.7443
11
77.6292
21
-86.7443
0
LINE
8
BLACK
6
CONTINUOUS
10
77.6292
20
-86.7443
11
77.6491
21
-86.758
0
LINE
8
BLACK
6
CONTINUOUS
10
77.6491
20
-86.758
11
77.7531
21
-86.8133
0
LINE
8
BLACK
6
CONTINUOUS
10
77.7531
20
-86.8133
11
77.7758
21
-86.8226
0
LINE
8
BLACK
6
CONTINUOUS
10
77.7758
20
-86.8226
11
77.7771
21
-86.8232
0
LINE
8
BLACK
6
CONTINUOUS
10
77.7771
20
-86.8232
11
77.7771
21
-86.8232
0
LINE
8
BLACK
6
CONTINUOUS
10
77.7771
20
-86.8232
11
77.7993
21
-86.8327
0
LINE
8
BLACK
6
CONTINUOUS
10
77.7993
20
-86.8327
11
77.9119
21
-86.8667
0
LINE
8
BLACK
6
CONTINUOUS
10
77.9119
20
-86.8667
11
77.9361
21
-86.8715
0
LINE
8
BLACK
6
CONTINUOUS
10
77.9361
20
-86.8715
11
77.9374
21
-86.8717
0
LINE
8
BLACK
6
CONTINUOUS
10
77.9374
20
-86.8717
11
77.9374
21
-86.8717
0
LINE
8
BLACK
6
CONTINUOUS
10
77.9374
20
-86.8717
11
77.961
21
-86.8768
0
LINE
8
BLACK
6
CONTINUOUS
10
77.961
20
-86.8768
11
78.083
21
-86.8887
0
LINE
8
BLACK
6
CONTINUOUS
10
78.083
20
-86.8887
11
78.0831
21
-86.8887
0
LINE
8
BLACK
6
CONTINUOUS
10
78.0831
20
-86.8887
11
78.0831
21
-86.8887
0
LINE
8
BLACK
6
CONTINUOUS
10
78.0831
20
-86.8887
11
78.0939
21
-86.8898
0
LINE
8
BLACK
6
CONTINUOUS
10
78.0939
20
-86.8898
11
81.2911
21
-86.8898
0
LINE
8
BLACK
6
CONTINUOUS
10
81.2911
20
-86.8898
11
81.2918
21
-86.8897
0
LINE
8
BLACK
6
CONTINUOUS
10
81.2918
20
-86.8897
11
81.2947
21
-86.8898
0
LINE
8
BLACK
6
CONTINUOUS
10
81.2947
20
-86.8898
11
81.2976
21
-86.8894
0
LINE
8
BLACK
6
CONTINUOUS
10
81.2976
20
-86.8894
11
81.3203
21
-86.8888
0
LINE
8
BLACK
6
CONTINUOUS
10
81.3203
20
-86.8888
11
81.3332
21
-86.8872
0
LINE
8
BLACK
6
CONTINUOUS
10
81.3332
20
-86.8872
11
81.3346
21
-86.887
0
LINE
8
BLACK
6
CONTINUOUS
10
81.3346
20
-86.887
11
81.3382
21
-86.887
0
LINE
8
BLACK
6
CONTINUOUS
10
81.3382
20
-86.887
11
81.3417
21
-86.8865
0
LINE
8
BLACK
6
CONTINUOUS
10
81.3417
20
-86.8865
11
81.3543
21
-86.886
0
LINE
8
BLACK
6
CONTINUOUS
10
81.3543
20
-86.886
11
81.4911
21
-86.8652
0
LINE
8
BLACK
6
CONTINUOUS
10
81.4911
20
-86.8652
11
81.5149
21
-86.8592
0
LINE
8
BLACK
6
CONTINUOUS
10
81.5149
20
-86.8592
11
81.5162
21
-86.8589
0
LINE
8
BLACK
6
CONTINUOUS
10
81.5162
20
-86.8589
11
81.5162
21
-86.8589
0
LINE
8
BLACK
6
CONTINUOUS
10
81.5162
20
-86.8589
11
81.5162
21
-86.8589
0
LINE
8
BLACK
6
CONTINUOUS
10
81.5162
20
-86.8589
11
81.5397
21
-86.8533
0
LINE
8
BLACK
6
CONTINUOUS
10
81.5397
20
-86.8533
11
81.6698
21
-86.8063
0
LINE
8
BLACK
6
CONTINUOUS
10
81.6698
20
-86.8063
11
81.692
21
-86.7958
0
LINE
8
BLACK
6
CONTINUOUS
10
81.692
20
-86.7958
11
81.6932
21
-86.7952
0
LINE
8
BLACK
6
CONTINUOUS
10
81.6932
20
-86.7952
11
81.6932
21
-86.7952
0
LINE
8
BLACK
6
CONTINUOUS
10
81.6932
20
-86.7952
11
81.6933
21
-86.7952
0
LINE
8
BLACK
6
CONTINUOUS
10
81.6933
20
-86.7952
11
81.7152
21
-86.7851
0
LINE
8
BLACK
6
CONTINUOUS
10
81.7152
20
-86.7851
11
81.8337
21
-86.7138
0
LINE
8
BLACK
6
CONTINUOUS
10
81.8337
20
-86.7138
11
81.8534
21
-86.6992
0
LINE
8
BLACK
6
CONTINUOUS
10
81.8534
20
-86.6992
11
81.8545
21
-86.6983
0
LINE
8
BLACK
6
CONTINUOUS
10
81.8545
20
-86.6983
11
81.8546
21
-86.6983
0
LINE
8
BLACK
6
CONTINUOUS
10
81.8546
20
-86.6983
11
81.8741
21
-86.6842
0
LINE
8
BLACK
6
CONTINUOUS
10
81.8741
20
-86.6842
11
81.9765
21
-86.5912
0
LINE
8
BLACK
6
CONTINUOUS
10
81.9765
20
-86.5912
11
81.993
21
-86.573
0
LINE
8
BLACK
6
CONTINUOUS
10
81.993
20
-86.573
11
81.9939
21
-86.572
0
LINE
8
BLACK
6
CONTINUOUS
10
81.9939
20
-86.572
11
82.0104
21
-86.5543
0
LINE
8
BLACK
6
CONTINUOUS
10
82.0104
20
-86.5543
11
82.093
21
-86.443
0
LINE
8
BLACK
6
CONTINUOUS
10
82.093
20
-86.443
11
82.0938
21
-86.4418
0
LINE
8
BLACK
6
CONTINUOUS
10
82.0938
20
-86.4418
11
82.0943
21
-86.4413
0
LINE
8
BLACK
6
CONTINUOUS
10
82.0943
20
-86.4413
11
82.0947
21
-86.4407
0
LINE
8
BLACK
6
CONTINUOUS
10
82.0947
20
-86.4407
11
82.1056
21
-86.4269
0
LINE
8
BLACK
6
CONTINUOUS
10
82.1056
20
-86.4269
11
82.1206
21
-86.3973
0
LINE
8
BLACK
6
CONTINUOUS
10
82.1206
20
-86.3973
11
82.2856
21
-85.9743
0
LINE
8
BLACK
6
CONTINUOUS
10
82.2856
20
-85.9743
11
82.2876
21
-85.967
0
LINE
8
BLACK
6
CONTINUOUS
10
82.2876
20
-85.967
11
82.288
21
-85.9657
0
LINE
8
BLACK
6
CONTINUOUS
10
82.288
20
-85.9657
11
82.2882
21
-85.9653
0
LINE
8
BLACK
6
CONTINUOUS
10
82.2882
20
-85.9653
11
82.2882
21
-85.965
0
LINE
8
BLACK
6
CONTINUOUS
10
82.2882
20
-85.965
11
82.3147
21
-85.8778
0
LINE
8
BLACK
6
CONTINUOUS
10
82.3147
20
-85.8778
11
82.3147
21
-85.8778
0
LINE
8
BLACK
6
CONTINUOUS
10
82.3147
20
-85.8778
11
82.3147
21
-85.8778
0
LINE
8
BLACK
6
CONTINUOUS
10
82.3147
20
-85.8778
11
82.3152
21
-85.8765
0
LINE
8
BLACK
6
CONTINUOUS
10
82.3152
20
-85.8765
11
82.3187
21
-85.8682
0
LINE
8
BLACK
6
CONTINUOUS
10
82.3187
20
-85.8682
11
82.3222
21
-85.8598
0
LINE
8
BLACK
6
CONTINUOUS
10
82.3222
20
-85.8598
11
82.3517
21
-85.8045
0
LINE
8
BLACK
6
CONTINUOUS
10
82.3517
20
-85.8045
11
82.3524
21
-85.8033
0
LINE
8
BLACK
6
CONTINUOUS
10
82.3524
20
-85.8033
11
82.3575
21
-85.7958
0
LINE
8
BLACK
6
CONTINUOUS
10
82.3575
20
-85.7958
11
82.3626
21
-85.7883
0
LINE
8
BLACK
6
CONTINUOUS
10
82.3626
20
-85.7883
11
82.4069
21
-85.7342
0
LINE
8
BLACK
6
CONTINUOUS
10
82.4069
20
-85.7342
11
82.4078
21
-85.7331
0
LINE
8
BLACK
6
CONTINUOUS
10
82.4078
20
-85.7331
11
82.4127
21
-85.7283
0
LINE
8
BLACK
6
CONTINUOUS
10
82.4127
20
-85.7283
11
82.4173
21
-85.7233
0
LINE
8
BLACK
6
CONTINUOUS
10
82.4173
20
-85.7233
11
82.4501
21
-85.6936
0
LINE
8
BLACK
6
CONTINUOUS
10
82.4501
20
-85.6936
11
82.4504
21
-85.6935
0
LINE
8
BLACK
6
CONTINUOUS
10
82.4504
20
-85.6935
11
82.4504
21
-85.6934
0
LINE
8
BLACK
6
CONTINUOUS
10
82.4504
20
-85.6934
11
83.5839
21
-84.6781
0
LINE
8
BLACK
6
CONTINUOUS
10
83.5839
20
-84.6781
11
83.5849
21
-84.6771
0
LINE
8
BLACK
6
CONTINUOUS
10
83.5849
20
-84.6771
11
83.5861
21
-84.6763
0
LINE
8
BLACK
6
CONTINUOUS
10
83.5861
20
-84.6763
11
83.5872
21
-84.6753
0
LINE
8
BLACK
6
CONTINUOUS
10
83.5872
20
-84.6753
11
83.5989
21
-84.6657
0
LINE
8
BLACK
6
CONTINUOUS
10
83.5989
20
-84.6657
11
83.6073
21
-84.6554
0
LINE
8
BLACK
6
CONTINUOUS
10
83.6073
20
-84.6554
11
83.6082
21
-84.6544
0
LINE
8
BLACK
6
CONTINUOUS
10
83.6082
20
-84.6544
11
83.6096
21
-84.6529
0
LINE
8
BLACK
6
CONTINUOUS
10
83.6096
20
-84.6529
11
83.6109
21
-84.6513
0
LINE
8
BLACK
6
CONTINUOUS
10
83.6109
20
-84.6513
11
83.6198
21
-84.6415
0
LINE
8
BLACK
6
CONTINUOUS
10
83.6198
20
-84.6415
11
83.6201
21
-84.6411
0
LINE
8
BLACK
6
CONTINUOUS
10
83.6201
20
-84.6411
11
83.624
21
-84.636
0
LINE
8
BLACK
6
CONTINUOUS
10
83.624
20
-84.636
11
83.6266
21
-84.6322
0
LINE
8
BLACK
6
CONTINUOUS
10
83.6266
20
-84.6322
11
83.6332
21
-84.6197
0
LINE
8
BLACK
6
CONTINUOUS
10
83.6332
20
-84.6197
11
83.6339
21
-84.6185
0
LINE
8
BLACK
6
CONTINUOUS
10
83.6339
20
-84.6185
11
83.6351
21
-84.6168
0
LINE
8
BLACK
6
CONTINUOUS
10
83.6351
20
-84.6168
11
83.6359
21
-84.615
0
LINE
8
BLACK
6
CONTINUOUS
10
83.6359
20
-84.615
11
83.6428
21
-84.6036
0
LINE
8
BLACK
6
CONTINUOUS
10
83.6428
20
-84.6036
11
83.643
21
-84.6032
0
LINE
8
BLACK
6
CONTINUOUS
10
83.643
20
-84.6032
11
83.6458
21
-84.5975
0
LINE
8
BLACK
6
CONTINUOUS
10
83.6458
20
-84.5975
11
83.6476
21
-84.5931
0
LINE
8
BLACK
6
CONTINUOUS
10
83.6476
20
-84.5931
11
83.6517
21
-84.5797
0
LINE
8
BLACK
6
CONTINUOUS
10
83.6517
20
-84.5797
11
83.6521
21
-84.5783
0
LINE
8
BLACK
6
CONTINUOUS
10
83.6521
20
-84.5783
11
83.6529
21
-84.5764
0
LINE
8
BLACK
6
CONTINUOUS
10
83.6529
20
-84.5764
11
83.6535
21
-84.5744
0
LINE
8
BLACK
6
CONTINUOUS
10
83.6535
20
-84.5744
11
83.658
21
-84.562
0
LINE
8
BLACK
6
CONTINUOUS
10
83.658
20
-84.562
11
83.6581
21
-84.5615
0
LINE
8
BLACK
6
CONTINUOUS
10
83.6581
20
-84.5615
11
83.6597
21
-84.5553
0
LINE
8
BLACK
6
CONTINUOUS
10
83.6597
20
-84.5553
11
83.6607
21
-84.5507
0
LINE
8
BLACK
6
CONTINUOUS
10
83.6607
20
-84.5507
11
83.662
21
-84.5367
0
LINE
8
BLACK
6
CONTINUOUS
10
83.662
20
-84.5367
11
83.6622
21
-84.5353
0
LINE
8
BLACK
6
CONTINUOUS
10
83.6622
20
-84.5353
11
83.6626
21
-84.5333
0
LINE
8
BLACK
6
CONTINUOUS
10
83.6626
20
-84.5333
11
83.6627
21
-84.5313
0
LINE
8
BLACK
6
CONTINUOUS
10
83.6627
20
-84.5313
11
83.6647
21
-84.5182
0
LINE
8
BLACK
6
CONTINUOUS
10
83.6647
20
-84.5182
11
83.6641
21
-84.5031
0
LINE
8
BLACK
6
CONTINUOUS
10
83.6641
20
-84.5031
11
83.664
21
-84.5017
0
LINE
8
BLACK
6
CONTINUOUS
10
83.664
20
-84.5017
11
83.6641
21
-84.5003
0
LINE
8
BLACK
6
CONTINUOUS
10
83.6641
20
-84.5003
11
83.664
21
-84.4988
0
LINE
8
BLACK
6
CONTINUOUS
10
83.664
20
-84.4988
11
83.664
21
-73.61
0
LINE
8
BLACK
6
CONTINUOUS
10
83.664
20
-73.61
11
83.664
21
-73.6086
0
LINE
8
BLACK
6
CONTINUOUS
10
93.5928
20
-70.0563
11
93.5928
21
-70.0563
0
LINE
8
BLACK
6
CONTINUOUS
10
93.5928
20
-70.0563
11
93.5549
21
-70.0601
0
LINE
8
BLACK
6
CONTINUOUS
10
93.5549
20
-70.0601
11
93.5125
21
-70.0729
0
LINE
8
BLACK
6
CONTINUOUS
10
93.5125
20
-70.0729
11
93.4734
21
-70.0938
0
LINE
8
BLACK
6
CONTINUOUS
10
93.4734
20
-70.0938
11
93.4391
21
-70.1219
0
LINE
8
BLACK
6
CONTINUOUS
10
93.4391
20
-70.1219
11
93.411
21
-70.1562
0
LINE
8
BLACK
6
CONTINUOUS
10
93.411
20
-70.1562
11
93.3901
21
-70.1953
0
LINE
8
BLACK
6
CONTINUOUS
10
93.3901
20
-70.1953
11
93.3773
21
-70.2377
0
LINE
8
BLACK
6
CONTINUOUS
10
93.3773
20
-70.2377
11
93.3729
21
-70.2818
0
LINE
8
BLACK
6
CONTINUOUS
10
93.3729
20
-70.2818
11
93.3735
21
-70.288
0
LINE
8
BLACK
6
CONTINUOUS
10
93.3735
20
-70.288
11
93.3736
21
-70.2894
0
LINE
8
BLACK
6
CONTINUOUS
10
93.3736
20
-70.2894
11
93.3736
21
-70.2936
0
LINE
8
BLACK
6
CONTINUOUS
10
93.3736
20
-70.2936
11
93.374
21
-70.2978
0
LINE
8
BLACK
6
CONTINUOUS
10
93.374
20
-70.2978
11
93.374
21
-82.2309
0
LINE
8
BLACK
6
CONTINUOUS
10
93.374
20
-82.2309
11
93.3749
21
-82.2402
0
LINE
8
BLACK
6
CONTINUOUS
10
93.3749
20
-82.2402
11
93.3751
21
-82.2416
0
LINE
8
BLACK
6
CONTINUOUS
10
93.3751
20
-82.2416
11
93.375
21
-82.2462
0
LINE
8
BLACK
6
CONTINUOUS
10
93.375
20
-82.2462
11
93.3754
21
-82.2507
0
LINE
8
BLACK
6
CONTINUOUS
10
93.3754
20
-82.2507
11
93.3754
21
-82.2518
0
LINE
8
BLACK
6
CONTINUOUS
10
93.3754
20
-82.2518
11
93.3955
21
-82.4427
0
LINE
8
BLACK
6
CONTINUOUS
10
93.3955
20
-82.4427
11
93.4004
21
-82.4668
0
LINE
8
BLACK
6
CONTINUOUS
10
93.4004
20
-82.4668
11
93.4007
21
-82.4682
0
LINE
8
BLACK
6
CONTINUOUS
10
93.4007
20
-82.4682
11
93.4007
21
-82.4682
0
LINE
8
BLACK
6
CONTINUOUS
10
93.4007
20
-82.4682
11
93.4052
21
-82.4919
0
LINE
8
BLACK
6
CONTINUOUS
10
93.4052
20
-82.4919
11
93.462
21
-82.6754
0
LINE
8
BLACK
6
CONTINUOUS
10
93.462
20
-82.6754
11
93.4715
21
-82.698
0
LINE
8
BLACK
6
CONTINUOUS
10
93.4715
20
-82.698
11
93.4721
21
-82.6993
0
LINE
8
BLACK
6
CONTINUOUS
10
93.4721
20
-82.6993
11
93.4811
21
-82.7217
0
LINE
8
BLACK
6
CONTINUOUS
10
93.4811
20
-82.7217
11
93.5725
21
-82.8907
0
LINE
8
BLACK
6
CONTINUOUS
10
93.5725
20
-82.8907
11
93.5862
21
-82.911
0
LINE
8
BLACK
6
CONTINUOUS
10
93.5862
20
-82.911
11
93.5869
21
-82.9121
0
LINE
8
BLACK
6
CONTINUOUS
10
93.5869
20
-82.9121
11
93.5869
21
-82.9121
0
LINE
8
BLACK
6
CONTINUOUS
10
93.5869
20
-82.9121
11
93.6002
21
-82.9324
0
LINE
8
BLACK
6
CONTINUOUS
10
93.6002
20
-82.9324
11
93.7226
21
-83.0804
0
LINE
8
BLACK
6
CONTINUOUS
10
93.7226
20
-83.0804
11
93.74
21
-83.0977
0
LINE
8
BLACK
6
CONTINUOUS
10
93.74
20
-83.0977
11
93.741
21
-83.0987
0
LINE
8
BLACK
6
CONTINUOUS
10
93.741
20
-83.0987
11
93.741
21
-83.0987
0
LINE
8
BLACK
6
CONTINUOUS
10
93.741
20
-83.0987
11
93.7579
21
-83.1159
0
LINE
8
BLACK
6
CONTINUOUS
10
93.7579
20
-83.1159
11
93.9068
21
-83.2373
0
LINE
8
BLACK
6
CONTINUOUS
10
93.9068
20
-83.2373
11
93.9272
21
-83.2509
0
LINE
8
BLACK
6
CONTINUOUS
10
93.9272
20
-83.2509
11
93.9284
21
-83.2517
0
LINE
8
BLACK
6
CONTINUOUS
10
93.9284
20
-83.2517
11
93.9284
21
-83.2517
0
LINE
8
BLACK
6
CONTINUOUS
10
93.9284
20
-83.2517
11
93.9483
21
-83.2653
0
LINE
8
BLACK
6
CONTINUOUS
10
93.9483
20
-83.2653
11
94.1179
21
-83.3555
0
LINE
8
BLACK
6
CONTINUOUS
10
94.1179
20
-83.3555
11
94.1406
21
-83.3649
0
LINE
8
BLACK
6
CONTINUOUS
10
94.1406
20
-83.3649
11
94.1419
21
-83.3654
0
LINE
8
BLACK
6
CONTINUOUS
10
94.1419
20
-83.3654
11
94.1419
21
-83.3654
0
LINE
8
BLACK
6
CONTINUOUS
10
94.1419
20
-83.3654
11
94.1641
21
-83.3749
0
LINE
8
BLACK
6
CONTINUOUS
10
94.1641
20
-83.3749
11
94.3479
21
-83.4304
0
LINE
8
BLACK
6
CONTINUOUS
10
94.3479
20
-83.4304
11
94.372
21
-83.4352
0
LINE
8
BLACK
6
CONTINUOUS
10
94.372
20
-83.4352
11
94.3734
21
-83.4355
0
LINE
8
BLACK
6
CONTINUOUS
10
94.3734
20
-83.4355
11
94.3734
21
-83.4355
0
LINE
8
BLACK
6
CONTINUOUS
10
94.3734
20
-83.4355
11
94.397
21
-83.4405
0
LINE
8
BLACK
6
CONTINUOUS
10
94.397
20
-83.4405
11
94.593
21
-83.4597
0
LINE
8
BLACK
6
CONTINUOUS
10
94.593
20
-83.4597
11
94.5931
21
-83.4597
0
LINE
8
BLACK
6
CONTINUOUS
10
94.5931
20
-83.4597
11
94.5931
21
-83.4597
0
LINE
8
BLACK
6
CONTINUOUS
10
94.5931
20
-83.4597
11
94.6039
21
-83.4608
0
LINE
8
BLACK
6
CONTINUOUS
10
94.6039
20
-83.4608
11
149.408
21
-83.4608
0
LINE
8
BLACK
6
CONTINUOUS
10
149.408
20
-83.4608
11
149.409
21
-83.4608
0
LINE
8
BLACK
6
CONTINUOUS
10
149.409
20
-83.4608
11
149.409
21
-83.4608
0
LINE
8
BLACK
6
CONTINUOUS
10
149.409
20
-83.4608
11
149.409
21
-83.4608
0
LINE
8
BLACK
6
CONTINUOUS
10
149.409
20
-83.4608
11
149.409
21
-83.4608
0
LINE
8
BLACK
6
CONTINUOUS
10
149.409
20
-83.4608
11
149.419
21
-83.4619
0
LINE
8
BLACK
6
CONTINUOUS
10
149.419
20
-83.4619
11
149.428
21
-83.4628
0
LINE
8
BLACK
6
CONTINUOUS
10
149.428
20
-83.4628
11
149.428
21
-83.4629
0
LINE
8
BLACK
6
CONTINUOUS
10
149.428
20
-83.4629
11
149.429
21
-83.463
0
LINE
8
BLACK
6
CONTINUOUS
10
149.429
20
-83.463
11
149.438
21
-83.4658
0
LINE
8
BLACK
6
CONTINUOUS
10
149.438
20
-83.4658
11
149.447
21
-83.4686
0
LINE
8
BLACK
6
CONTINUOUS
10
149.447
20
-83.4686
11
149.447
21
-83.4688
0
LINE
8
BLACK
6
CONTINUOUS
10
149.447
20
-83.4688
11
149.447
21
-83.4689
0
LINE
8
BLACK
6
CONTINUOUS
10
149.447
20
-83.4689
11
149.456
21
-83.4734
0
LINE
8
BLACK
6
CONTINUOUS
10
149.456
20
-83.4734
11
149.464
21
-83.4779
0
LINE
8
BLACK
6
CONTINUOUS
10
149.464
20
-83.4779
11
149.464
21
-83.4781
0
LINE
8
BLACK
6
CONTINUOUS
10
149.464
20
-83.4781
11
149.464
21
-83.4783
0
LINE
8
BLACK
6
CONTINUOUS
10
149.464
20
-83.4783
11
149.472
21
-83.4843
0
LINE
8
BLACK
6
CONTINUOUS
10
149.472
20
-83.4843
11
149.479
21
-83.4903
0
LINE
8
BLACK
6
CONTINUOUS
10
149.479
20
-83.4903
11
149.479
21
-83.4906
0
LINE
8
BLACK
6
CONTINUOUS
10
149.479
20
-83.4906
11
149.479
21
-83.4908
0
LINE
8
BLACK
6
CONTINUOUS
10
149.479
20
-83.4908
11
149.485
21
-83.4981
0
LINE
8
BLACK
6
CONTINUOUS
10
149.485
20
-83.4981
11
149.491
21
-83.5055
0
LINE
8
BLACK
6
CONTINUOUS
10
149.491
20
-83.5055
11
149.491
21
-83.5058
0
LINE
8
BLACK
6
CONTINUOUS
10
149.491
20
-83.5058
11
149.492
21
-83.506
0
LINE
8
BLACK
6
CONTINUOUS
10
149.492
20
-83.506
11
149.496
21
-83.5143
0
LINE
8
BLACK
6
CONTINUOUS
10
149.496
20
-83.5143
11
149.5
21
-83.5227
0
LINE
8
BLACK
6
CONTINUOUS
10
149.5
20
-83.5227
11
149.501
21
-83.523
0
LINE
8
BLACK
6
CONTINUOUS
10
149.501
20
-83.523
11
149.501
21
-83.5233
0
LINE
8
BLACK
6
CONTINUOUS
10
149.501
20
-83.5233
11
149.503
21
-83.5323
0
LINE
8
BLACK
6
CONTINUOUS
10
149.503
20
-83.5323
11
149.506
21
-83.5414
0
LINE
8
BLACK
6
CONTINUOUS
10
149.506
20
-83.5414
11
149.506
21
-83.5417
0
LINE
8
BLACK
6
CONTINUOUS
10
149.506
20
-83.5417
11
149.506
21
-83.5421
0
LINE
8
BLACK
6
CONTINUOUS
10
149.506
20
-83.5421
11
149.507
21
-83.5515
0
LINE
8
BLACK
6
CONTINUOUS
10
149.507
20
-83.5515
11
149.508
21
-83.5608
0
LINE
8
BLACK
6
CONTINUOUS
10
149.508
20
-83.5608
11
149.508
21
-85.7598
0
LINE
8
BLACK
6
CONTINUOUS
10
149.508
20
-85.7598
11
149.508
21
-85.7612
0
LINE
8
BLACK
6
CONTINUOUS
10
149.508
20
-85.7612
11
149.508
21
-85.7654
0
LINE
8
BLACK
6
CONTINUOUS
10
149.508
20
-85.7654
11
149.508
21
-85.7696
0
LINE
8
BLACK
6
CONTINUOUS
10
149.508
20
-85.7696
11
149.507
21
-85.7758
0
LINE
8
BLACK
6
CONTINUOUS
10
149.507
20
-85.7758
11
149.511
21
-85.8199
0
LINE
8
BLACK
6
CONTINUOUS
10
149.511
20
-85.8199
11
149.524
21
-85.8623
0
LINE
8
BLACK
6
CONTINUOUS
10
149.524
20
-85.8623
11
149.545
21
-85.9014
0
LINE
8
BLACK
6
CONTINUOUS
10
149.545
20
-85.9014
11
149.573
21
-85.9357
0
LINE
8
BLACK
6
CONTINUOUS
10
149.573
20
-85.9357
11
149.607
21
-85.9638
0
LINE
8
BLACK
6
CONTINUOUS
10
149.607
20
-85.9638
11
149.646
21
-85.9847
0
LINE
8
BLACK
6
CONTINUOUS
10
149.646
20
-85.9847
11
149.689
21
-85.9975
0
LINE
8
BLACK
6
CONTINUOUS
10
149.689
20
-85.9975
11
149.727
21
-86.0013
0
LINE
8
BLACK
6
CONTINUOUS
10
149.727
20
-86.0013
11
149.727
21
-86.0013
0
LINE
8
BLACK
6
CONTINUOUS
10
149.727
20
-86.0013
11
149.733
21
-86.0019
0
LINE
8
BLACK
6
CONTINUOUS
10
149.733
20
-86.0019
11
149.739
21
-86.0013
0
LINE
8
BLACK
6
CONTINUOUS
10
149.739
20
-86.0013
11
149.741
21
-86.0012
0
LINE
8
BLACK
6
CONTINUOUS
10
149.741
20
-86.0012
11
149.745
21
-86.0012
0
LINE
8
BLACK
6
CONTINUOUS
10
149.745
20
-86.0012
11
149.749
21
-86.0008
0
LINE
8
BLACK
6
CONTINUOUS
10
149.749
20
-86.0008
11
163.052
21
-86.0008
0
LINE
8
BLACK
6
CONTINUOUS
10
163.052
20
-86.0008
11
163.053
21
-86.0008
0
LINE
8
BLACK
6
CONTINUOUS
10
163.053
20
-86.0008
11
163.058
21
-86.0013
0
LINE
8
BLACK
6
CONTINUOUS
10
163.058
20
-86.0013
11
163.062
21
-86.0013
0
LINE
8
BLACK
6
CONTINUOUS
10
163.062
20
-86.0013
11
163.068
21
-86.0019
0
LINE
8
BLACK
6
CONTINUOUS
10
163.068
20
-86.0019
11
163.103
21
-85.9984
0
LINE
8
BLACK
6
CONTINUOUS
10
163.103
20
-85.9984
11
163.112
21
-85.9975
0
LINE
8
BLACK
6
CONTINUOUS
10
163.112
20
-85.9975
11
163.155
21
-85.9847
0
LINE
8
BLACK
6
CONTINUOUS
10
163.155
20
-85.9847
11
163.194
21
-85.9638
0
LINE
8
BLACK
6
CONTINUOUS
10
163.194
20
-85.9638
11
163.228
21
-85.9357
0
LINE
8
BLACK
6
CONTINUOUS
10
163.228
20
-85.9357
11
163.256
21
-85.9014
0
LINE
8
BLACK
6
CONTINUOUS
10
163.256
20
-85.9014
11
163.277
21
-85.8623
0
LINE
8
BLACK
6
CONTINUOUS
10
163.277
20
-85.8623
11
163.29
21
-85.8199
0
LINE
8
BLACK
6
CONTINUOUS
10
163.29
20
-85.8199
11
163.294
21
-85.7758
0
LINE
8
BLACK
6
CONTINUOUS
10
163.294
20
-85.7758
11
163.293
21
-85.7696
0
LINE
8
BLACK
6
CONTINUOUS
10
163.293
20
-85.7696
11
163.293
21
-85.7682
0
LINE
8
BLACK
6
CONTINUOUS
10
163.293
20
-85.7682
11
163.293
21
-85.764
0
LINE
8
BLACK
6
CONTINUOUS
10
163.293
20
-85.764
11
163.293
21
-85.7598
0
LINE
8
BLACK
6
CONTINUOUS
10
163.293
20
-85.7598
11
163.293
21
-83.1248
0
LINE
8
BLACK
6
CONTINUOUS
10
163.293
20
-83.1248
11
163.293
21
-83.1234
0
LINE
8
BLACK
6
CONTINUOUS
10
163.293
20
-83.1234
11
163.293
21
-83.1192
0
LINE
8
BLACK
6
CONTINUOUS
10
163.293
20
-83.1192
11
163.293
21
-83.115
0
LINE
8
BLACK
6
CONTINUOUS
10
163.293
20
-83.115
11
163.294
21
-83.1088
0
LINE
8
BLACK
6
CONTINUOUS
10
163.294
20
-83.1088
11
163.29
21
-83.0647
0
LINE
8
BLACK
6
CONTINUOUS
10
163.29
20
-83.0647
11
163.277
21
-83.0223
0
LINE
8
BLACK
6
CONTINUOUS
10
163.277
20
-83.0223
11
163.256
21
-82.9832
0
LINE
8
BLACK
6
CONTINUOUS
10
163.256
20
-82.9832
11
163.228
21
-82.9489
0
LINE
8
BLACK
6
CONTINUOUS
10
163.228
20
-82.9489
11
163.194
21
-82.9208
0
LINE
8
BLACK
6
CONTINUOUS
10
163.194
20
-82.9208
11
163.155
21
-82.8999
0
LINE
8
BLACK
6
CONTINUOUS
10
163.155
20
-82.8999
11
163.112
21
-82.8871
0
LINE
8
BLACK
6
CONTINUOUS
10
163.112
20
-82.8871
11
163.074
21
-82.8833
0
LINE
8
BLACK
6
CONTINUOUS
10
163.074
20
-82.8833
11
163.074
21
-82.8833
0
LINE
8
BLACK
6
CONTINUOUS
10
163.074
20
-82.8833
11
163.068
21
-82.8827
0
LINE
8
BLACK
6
CONTINUOUS
10
163.068
20
-82.8827
11
163.062
21
-82.8833
0
LINE
8
BLACK
6
CONTINUOUS
10
163.062
20
-82.8833
11
163.06
21
-82.8834
0
LINE
8
BLACK
6
CONTINUOUS
10
163.06
20
-82.8834
11
163.056
21
-82.8834
0
LINE
8
BLACK
6
CONTINUOUS
10
163.056
20
-82.8834
11
163.052
21
-82.8838
0
LINE
8
BLACK
6
CONTINUOUS
10
163.052
20
-82.8838
11
157.424
21
-82.8838
0
LINE
8
BLACK
6
CONTINUOUS
10
157.424
20
-82.8838
11
157.423
21
-82.8838
0
LINE
8
BLACK
6
CONTINUOUS
10
157.423
20
-82.8838
11
157.423
21
-82.8838
0
LINE
8
BLACK
6
CONTINUOUS
10
157.423
20
-82.8838
11
157.423
21
-82.8838
0
LINE
8
BLACK
6
CONTINUOUS
10
157.423
20
-82.8838
11
157.423
21
-82.8838
0
LINE
8
BLACK
6
CONTINUOUS
10
157.423
20
-82.8838
11
157.413
21
-82.8827
0
LINE
8
BLACK
6
CONTINUOUS
10
157.413
20
-82.8827
11
157.404
21
-82.8818
0
LINE
8
BLACK
6
CONTINUOUS
10
157.404
20
-82.8818
11
157.404
21
-82.8817
0
LINE
8
BLACK
6
CONTINUOUS
10
157.404
20
-82.8817
11
157.403
21
-82.8816
0
LINE
8
BLACK
6
CONTINUOUS
10
157.403
20
-82.8816
11
157.394
21
-82.8788
0
LINE
8
BLACK
6
CONTINUOUS
10
157.394
20
-82.8788
11
157.385
21
-82.876
0
LINE
8
BLACK
6
CONTINUOUS
10
157.385
20
-82.876
11
157.385
21
-82.8758
0
LINE
8
BLACK
6
CONTINUOUS
10
157.385
20
-82.8758
11
157.385
21
-82.8757
0
LINE
8
BLACK
6
CONTINUOUS
10
157.385
20
-82.8757
11
157.376
21
-82.8712
0
LINE
8
BLACK
6
CONTINUOUS
10
157.376
20
-82.8712
11
157.368
21
-82.8667
0
LINE
8
BLACK
6
CONTINUOUS
10
157.368
20
-82.8667
11
157.368
21
-82.8665
0
LINE
8
BLACK
6
CONTINUOUS
10
157.368
20
-82.8665
11
157.368
21
-82.8663
0
LINE
8
BLACK
6
CONTINUOUS
10
157.368
20
-82.8663
11
157.36
21
-82.8603
0
LINE
8
BLACK
6
CONTINUOUS
10
157.36
20
-82.8603
11
157.353
21
-82.8543
0
LINE
8
BLACK
6
CONTINUOUS
10
157.353
20
-82.8543
11
157.353
21
-82.854
0
LINE
8
BLACK
6
CONTINUOUS
10
157.353
20
-82.854
11
157.353
21
-82.8538
0
LINE
8
BLACK
6
CONTINUOUS
10
157.353
20
-82.8538
11
157.347
21
-82.8465
0
LINE
8
BLACK
6
CONTINUOUS
10
157.347
20
-82.8465
11
157.341
21
-82.8391
0
LINE
8
BLACK
6
CONTINUOUS
10
157.341
20
-82.8391
11
157.341
21
-82.8388
0
LINE
8
BLACK
6
CONTINUOUS
10
157.341
20
-82.8388
11
157.34
21
-82.8386
0
LINE
8
BLACK
6
CONTINUOUS
10
157.34
20
-82.8386
11
157.336
21
-82.8303
0
LINE
8
BLACK
6
CONTINUOUS
10
157.336
20
-82.8303
11
157.332
21
-82.8219
0
LINE
8
BLACK
6
CONTINUOUS
10
157.332
20
-82.8219
11
157.331
21
-82.8216
0
LINE
8
BLACK
6
CONTINUOUS
10
157.331
20
-82.8216
11
157.331
21
-82.8213
0
LINE
8
BLACK
6
CONTINUOUS
10
157.331
20
-82.8213
11
157.329
21
-82.8123
0
LINE
8
BLACK
6
CONTINUOUS
10
157.329
20
-82.8123
11
157.326
21
-82.8032
0
LINE
8
BLACK
6
CONTINUOUS
10
157.326
20
-82.8032
11
157.326
21
-82.8029
0
LINE
8
BLACK
6
CONTINUOUS
10
157.326
20
-82.8029
11
157.326
21
-82.8025
0
LINE
8
BLACK
6
CONTINUOUS
10
157.326
20
-82.8025
11
157.325
21
-82.7931
0
LINE
8
BLACK
6
CONTINUOUS
10
157.325
20
-82.7931
11
157.324
21
-82.7838
0
LINE
8
BLACK
6
CONTINUOUS
10
157.324
20
-82.7838
11
157.324
21
-70.2978
0
LINE
8
BLACK
6
CONTINUOUS
10
157.324
20
-70.2978
11
157.324
21
-70.2964
0
LINE
8
BLACK
6
CONTINUOUS
10
157.324
20
-70.2964
11
157.324
21
-70.2922
0
LINE
8
BLACK
6
CONTINUOUS
10
157.324
20
-70.2922
11
157.324
21
-70.288
0
LINE
8
BLACK
6
CONTINUOUS
10
157.324
20
-70.288
11
157.325
21
-70.2818
0
LINE
8
BLACK
6
CONTINUOUS
10
157.325
20
-70.2818
11
157.321
21
-70.2377
0
LINE
8
BLACK
6
CONTINUOUS
10
157.321
20
-70.2377
11
157.308
21
-70.1953
0
LINE
8
BLACK
6
CONTINUOUS
10
157.308
20
-70.1953
11
157.287
21
-70.1562
0
LINE
8
BLACK
6
CONTINUOUS
10
157.287
20
-70.1562
11
157.259
21
-70.1219
0
LINE
8
BLACK
6
CONTINUOUS
10
157.259
20
-70.1219
11
157.225
21
-70.0938
0
LINE
8
BLACK
6
CONTINUOUS
10
157.225
20
-70.0938
11
157.186
21
-70.0729
0
LINE
8
BLACK
6
CONTINUOUS
10
157.186
20
-70.0729
11
157.143
21
-70.0601
0
LINE
8
BLACK
6
CONTINUOUS
10
157.143
20
-70.0601
11
157.105
21
-70.0563
0
LINE
8
BLACK
6
CONTINUOUS
10
157.105
20
-70.0563
11
157.105
21
-70.0563
0
LINE
8
BLACK
6
CONTINUOUS
10
157.105
20
-70.0563
11
157.099
21
-70.0557
0
LINE
8
BLACK
6
CONTINUOUS
10
157.099
20
-70.0557
11
157.093
21
-70.0563
0
LINE
8
BLACK
6
CONTINUOUS
10
157.093
20
-70.0563
11
157.091
21
-70.0564
0
LINE
8
BLACK
6
CONTINUOUS
10
157.091
20
-70.0564
11
157.087
21
-70.0564
0
LINE
8
BLACK
6
CONTINUOUS
10
157.087
20
-70.0564
11
157.083
21
-70.0568
0
LINE
8
BLACK
6
CONTINUOUS
10
157.083
20
-70.0568
11
93.615
21
-70.0568
0
LINE
8
BLACK
6
CONTINUOUS
10
93.615
20
-70.0568
11
93.6136
21
-70.0568
0
LINE
8
BLACK
6
CONTINUOUS
10
93.6136
20
-70.0568
11
93.6094
21
-70.0563
0
LINE
8
BLACK
6
CONTINUOUS
10
93.6094
20
-70.0563
11
93.6052
21
-70.0563
0
LINE
8
BLACK
6
CONTINUOUS
10
93.6052
20
-70.0563
11
93.599
21
-70.0557
0
LINE
8
BLACK
6
CONTINUOUS
10
93.599
20
-70.0557
11
93.5928
21
-70.0563
0
LINE
8
BLACK
6
CONTINUOUS
10
88.6894
20
-73.7119
11
88.0271
21
-73.8436
0
LINE
8
BLACK
6
CONTINUOUS
10
88.0271
20
-73.8436
11
87.4033
21
-74.102
0
LINE
8
BLACK
6
CONTINUOUS
10
87.4033
20
-74.102
11
86.8418
21
-74.4772
0
LINE
8
BLACK
6
CONTINUOUS
10
86.8418
20
-74.4772
11
86.3644
21
-74.9546
0
LINE
8
BLACK
6
CONTINUOUS
10
86.3644
20
-74.9546
11
85.9892
21
-75.5161
0
LINE
8
BLACK
6
CONTINUOUS
10
85.9892
20
-75.5161
11
85.7308
21
-76.1399
0
LINE
8
BLACK
6
CONTINUOUS
10
85.7308
20
-76.1399
11
85.5991
21
-76.8022
0
LINE
8
BLACK
6
CONTINUOUS
10
85.5991
20
-76.8022
11
85.5991
21
-77.4774
0
LINE
8
BLACK
6
CONTINUOUS
10
85.5991
20
-77.4774
11
85.7308
21
-78.1397
0
LINE
8
BLACK
6
CONTINUOUS
10
85.7308
20
-78.1397
11
85.9892
21
-78.7635
0
LINE
8
BLACK
6
CONTINUOUS
10
85.9892
20
-78.7635
11
86.3644
21
-79.325
0
LINE
8
BLACK
6
CONTINUOUS
10
86.3644
20
-79.325
11
86.8418
21
-79.8024
0
LINE
8
BLACK
6
CONTINUOUS
10
86.8418
20
-79.8024
11
87.4033
21
-80.1776
0
LINE
8
BLACK
6
CONTINUOUS
10
87.4033
20
-80.1776
11
88.0271
21
-80.436
0
LINE
8
BLACK
6
CONTINUOUS
10
88.0271
20
-80.436
11
88.6894
21
-80.5677
0
LINE
8
BLACK
6
CONTINUOUS
10
88.6894
20
-80.5677
11
89.3646
21
-80.5677
0
LINE
8
BLACK
6
CONTINUOUS
10
89.3646
20
-80.5677
11
90.0269
21
-80.436
0
LINE
8
BLACK
6
CONTINUOUS
10
90.0269
20
-80.436
11
90.6507
21
-80.1776
0
LINE
8
BLACK
6
CONTINUOUS
10
90.6507
20
-80.1776
11
91.2122
21
-79.8024
0
LINE
8
BLACK
6
CONTINUOUS
10
91.2122
20
-79.8024
11
91.6896
21
-79.325
0
LINE
8
BLACK
6
CONTINUOUS
10
91.6896
20
-79.325
11
92.0648
21
-78.7635
0
LINE
8
BLACK
6
CONTINUOUS
10
92.0648
20
-78.7635
11
92.3232
21
-78.1397
0
LINE
8
BLACK
6
CONTINUOUS
10
92.3232
20
-78.1397
11
92.4549
21
-77.4774
0
LINE
8
BLACK
6
CONTINUOUS
10
92.4549
20
-77.4774
11
92.4549
21
-76.8022
0
LINE
8
BLACK
6
CONTINUOUS
10
92.4549
20
-76.8022
11
92.3232
21
-76.1399
0
LINE
8
BLACK
6
CONTINUOUS
10
92.3232
20
-76.1399
11
92.0648
21
-75.5161
0
LINE
8
BLACK
6
CONTINUOUS
10
92.0648
20
-75.5161
11
91.6896
21
-74.9546
0
LINE
8
BLACK
6
CONTINUOUS
10
91.6896
20
-74.9546
11
91.2122
21
-74.4772
0
LINE
8
BLACK
6
CONTINUOUS
10
91.2122
20
-74.4772
11
90.6507
21
-74.102
0
LINE
8
BLACK
6
CONTINUOUS
10
90.6507
20
-74.102
11
90.0269
21
-73.8436
0
LINE
8
BLACK
6
CONTINUOUS
10
90.0269
20
-73.8436
11
89.3646
21
-73.7119
0
LINE
8
BLACK
6
CONTINUOUS
10
89.3646
20
-73.7119
11
88.6894
21
-73.7119
0
LINE
8
BLACK
6
CONTINUOUS
10
77.441
20
-68.8232
11
77.4415
21
-68.819
0
LINE
8
BLACK
6
CONTINUOUS
10
77.4415
20
-68.819
11
77.4415
21
-68.8148
0
LINE
8
BLACK
6
CONTINUOUS
10
77.4415
20
-68.8148
11
77.4421
21
-68.8086
0
LINE
8
BLACK
6
CONTINUOUS
10
77.4421
20
-68.8086
11
77.4418
21
-68.8057
0
LINE
8
BLACK
6
CONTINUOUS
10
77.4418
20
-68.8057
11
77.4418
21
-68.8057
0
LINE
8
BLACK
6
CONTINUOUS
10
77.4418
20
-68.8057
11
77.4377
21
-68.7645
0
LINE
8
BLACK
6
CONTINUOUS
10
77.4377
20
-68.7645
11
77.4249
21
-68.7221
0
LINE
8
BLACK
6
CONTINUOUS
10
77.4249
20
-68.7221
11
77.404
21
-68.683
0
LINE
8
BLACK
6
CONTINUOUS
10
77.404
20
-68.683
11
77.3759
21
-68.6487
0
LINE
8
BLACK
6
CONTINUOUS
10
77.3759
20
-68.6487
11
77.3416
21
-68.6206
0
LINE
8
BLACK
6
CONTINUOUS
10
77.3416
20
-68.6206
11
77.3025
21
-68.5997
0
LINE
8
BLACK
6
CONTINUOUS
10
77.3025
20
-68.5997
11
77.2601
21
-68.5869
0
LINE
8
BLACK
6
CONTINUOUS
10
77.2601
20
-68.5869
11
77.2222
21
-68.5831
0
LINE
8
BLACK
6
CONTINUOUS
10
77.2222
20
-68.5831
11
77.216
21
-68.5825
0
LINE
8
BLACK
6
CONTINUOUS
10
77.216
20
-68.5825
11
77.2098
21
-68.5831
0
LINE
8
BLACK
6
CONTINUOUS
10
77.2098
20
-68.5831
11
77.2085
21
-68.5832
0
LINE
8
BLACK
6
CONTINUOUS
10
77.2085
20
-68.5832
11
77.2042
21
-68.5832
0
LINE
8
BLACK
6
CONTINUOUS
10
77.2042
20
-68.5832
11
77.2
21
-68.5836
0
LINE
8
BLACK
6
CONTINUOUS
10
77.2
20
-68.5836
11
70.9328
21
-68.5836
0
LINE
8
BLACK
6
CONTINUOUS
10
70.9328
20
-68.5836
11
70.9314
21
-68.5836
0
LINE
8
BLACK
6
CONTINUOUS
10
70.9314
20
-68.5836
11
70.9272
21
-68.5831
0
LINE
8
BLACK
6
CONTINUOUS
10
70.9272
20
-68.5831
11
70.923
21
-68.5831
0
LINE
8
BLACK
6
CONTINUOUS
10
70.923
20
-68.5831
11
70.9168
21
-68.5825
0
LINE
8
BLACK
6
CONTINUOUS
10
70.9168
20
-68.5825
11
70.9106
21
-68.5831
0
LINE
8
BLACK
6
CONTINUOUS
10
70.9106
20
-68.5831
11
70.8727
21
-68.5869
0
LINE
8
BLACK
6
CONTINUOUS
10
70.8727
20
-68.5869
11
70.8303
21
-68.5997
0
LINE
8
BLACK
6
CONTINUOUS
10
70.8303
20
-68.5997
11
70.7912
21
-68.6206
0
LINE
8
BLACK
6
CONTINUOUS
10
70.7912
20
-68.6206
11
70.7569
21
-68.6487
0
LINE
8
BLACK
6
CONTINUOUS
10
70.7569
20
-68.6487
11
70.7288
21
-68.683
0
LINE
8
BLACK
6
CONTINUOUS
10
70.7288
20
-68.683
11
70.7079
21
-68.7221
0
LINE
8
BLACK
6
CONTINUOUS
10
70.7079
20
-68.7221
11
70.6951
21
-68.7645
0
LINE
8
BLACK
6
CONTINUOUS
10
70.6951
20
-68.7645
11
70.6907
21
-68.8086
0
LINE
8
BLACK
6
CONTINUOUS
10
70.6907
20
-68.8086
11
70.6913
21
-68.8148
0
LINE
8
BLACK
6
CONTINUOUS
10
70.6913
20
-68.8148
11
70.6914
21
-68.8161
0
LINE
8
BLACK
6
CONTINUOUS
10
70.6914
20
-68.8161
11
70.6914
21
-68.8204
0
LINE
8
BLACK
6
CONTINUOUS
10
70.6914
20
-68.8204
11
70.6918
21
-68.8246
0
LINE
8
BLACK
6
CONTINUOUS
10
70.6918
20
-68.8246
11
70.6918
21
-70.3928
0
LINE
8
BLACK
6
CONTINUOUS
10
70.6918
20
-70.3928
11
70.6918
21
-70.3942
0
LINE
8
BLACK
6
CONTINUOUS
10
70.6918
20
-70.3942
11
70.6913
21
-70.3984
0
LINE
8
BLACK
6
CONTINUOUS
10
70.6913
20
-70.3984
11
70.6913
21
-70.4026
0
LINE
8
BLACK
6
CONTINUOUS
10
70.6913
20
-70.4026
11
70.6907
21
-70.4088
0
LINE
8
BLACK
6
CONTINUOUS
10
70.6907
20
-70.4088
11
70.6951
21
-70.4529
0
LINE
8
BLACK
6
CONTINUOUS
10
70.6951
20
-70.4529
11
70.7079
21
-70.4953
0
LINE
8
BLACK
6
CONTINUOUS
10
70.7079
20
-70.4953
11
70.7288
21
-70.5344
0
LINE
8
BLACK
6
CONTINUOUS
10
70.7288
20
-70.5344
11
70.7569
21
-70.5687
0
LINE
8
BLACK
6
CONTINUOUS
10
70.7569
20
-70.5687
11
70.7912
21
-70.5968
0
LINE
8
BLACK
6
CONTINUOUS
10
70.7912
20
-70.5968
11
70.8303
21
-70.6177
0
LINE
8
BLACK
6
CONTINUOUS
10
70.8303
20
-70.6177
11
70.8727
21
-70.6305
0
LINE
8
BLACK
6
CONTINUOUS
10
70.8727
20
-70.6305
11
70.9106
21
-70.6343
0
LINE
8
BLACK
6
CONTINUOUS
10
70.9106
20
-70.6343
11
70.9106
21
-70.6343
0
LINE
8
BLACK
6
CONTINUOUS
10
70.9106
20
-70.6343
11
70.9168
21
-70.6349
0
LINE
8
BLACK
6
CONTINUOUS
10
70.9168
20
-70.6349
11
70.923
21
-70.6343
0
LINE
8
BLACK
6
CONTINUOUS
10
70.923
20
-70.6343
11
70.9243
21
-70.6342
0
LINE
8
BLACK
6
CONTINUOUS
10
70.9243
20
-70.6342
11
70.9286
21
-70.6342
0
LINE
8
BLACK
6
CONTINUOUS
10
70.9286
20
-70.6342
11
70.9328
21
-70.6338
0
LINE
8
BLACK
6
CONTINUOUS
10
70.9328
20
-70.6338
11
77.2
21
-70.6338
0
LINE
8
BLACK
6
CONTINUOUS
10
77.2
20
-70.6338
11
77.2014
21
-70.6338
0
LINE
8
BLACK
6
CONTINUOUS
10
77.2014
20
-70.6338
11
77.2056
21
-70.6343
0
LINE
8
BLACK
6
CONTINUOUS
10
77.2056
20
-70.6343
11
77.2098
21
-70.6343
0
LINE
8
BLACK
6
CONTINUOUS
10
77.2098
20
-70.6343
11
77.216
21
-70.6349
0
LINE
8
BLACK
6
CONTINUOUS
10
77.216
20
-70.6349
11
77.2222
21
-70.6343
0
LINE
8
BLACK
6
CONTINUOUS
10
77.2222
20
-70.6343
11
77.2222
21
-70.6343
0
LINE
8
BLACK
6
CONTINUOUS
10
77.2222
20
-70.6343
11
77.2601
21
-70.6305
0
LINE
8
BLACK
6
CONTINUOUS
10
77.2601
20
-70.6305
11
77.3025
21
-70.6177
0
LINE
8
BLACK
6
CONTINUOUS
10
77.3025
20
-70.6177
11
77.3416
21
-70.5968
0
LINE
8
BLACK
6
CONTINUOUS
10
77.3416
20
-70.5968
11
77.3759
21
-70.5687
0
LINE
8
BLACK
6
CONTINUOUS
10
77.3759
20
-70.5687
11
77.404
21
-70.5344
0
LINE
8
BLACK
6
CONTINUOUS
10
77.404
20
-70.5344
11
77.4249
21
-70.4953
0
LINE
8
BLACK
6
CONTINUOUS
10
77.4249
20
-70.4953
11
77.4377
21
-70.4529
0
LINE
8
BLACK
6
CONTINUOUS
10
77.4377
20
-70.4529
11
77.4421
21
-70.4088
0
LINE
8
BLACK
6
CONTINUOUS
10
77.4421
20
-70.4088
11
77.4415
21
-70.4026
0
LINE
8
BLACK
6
CONTINUOUS
10
77.4415
20
-70.4026
11
77.4414
21
-70.4012
0
LINE
8
BLACK
6
CONTINUOUS
10
77.4414
20
-70.4012
11
77.4414
21
-70.397
0
LINE
8
BLACK
6
CONTINUOUS
10
77.4414
20
-70.397
11
77.441
21
-70.3928
0
LINE
8
BLACK
6
CONTINUOUS
10
77.441
20
-70.3928
11
77.441
21
-68.8246
0
LINE
8
BLACK
6
CONTINUOUS
10
77.441
20
-68.8246
11
77.441
21
-68.8232
0
LINE
8
BLACK
6
CONTINUOUS
10
165.145
20
-68.5704
11
165.143
21
-68.5705
0
LINE
8
BLACK
6
CONTINUOUS
10
165.143
20
-68.5705
11
165.139
21
-68.5705
0
LINE
8
BLACK
6
CONTINUOUS
10
165.139
20
-68.5705
11
165.135
21
-68.5709
0
LINE
8
BLACK
6
CONTINUOUS
10
165.135
20
-68.5709
11
158.868
21
-68.5709
0
LINE
8
BLACK
6
CONTINUOUS
10
158.868
20
-68.5709
11
158.866
21
-68.5709
0
LINE
8
BLACK
6
CONTINUOUS
10
158.866
20
-68.5709
11
158.862
21
-68.5704
0
LINE
8
BLACK
6
CONTINUOUS
10
158.862
20
-68.5704
11
158.858
21
-68.5704
0
LINE
8
BLACK
6
CONTINUOUS
10
158.858
20
-68.5704
11
158.852
21
-68.5698
0
LINE
8
BLACK
6
CONTINUOUS
10
158.852
20
-68.5698
11
158.845
21
-68.5704
0
LINE
8
BLACK
6
CONTINUOUS
10
158.845
20
-68.5704
11
158.807
21
-68.5742
0
LINE
8
BLACK
6
CONTINUOUS
10
158.807
20
-68.5742
11
158.765
21
-68.587
0
LINE
8
BLACK
6
CONTINUOUS
10
158.765
20
-68.587
11
158.726
21
-68.6079
0
LINE
8
BLACK
6
CONTINUOUS
10
158.726
20
-68.6079
11
158.692
21
-68.636
0
LINE
8
BLACK
6
CONTINUOUS
10
158.692
20
-68.636
11
158.664
21
-68.6703
0
LINE
8
BLACK
6
CONTINUOUS
10
158.664
20
-68.6703
11
158.643
21
-68.7094
0
LINE
8
BLACK
6
CONTINUOUS
10
158.643
20
-68.7094
11
158.63
21
-68.7518
0
LINE
8
BLACK
6
CONTINUOUS
10
158.63
20
-68.7518
11
158.626
21
-68.7959
0
LINE
8
BLACK
6
CONTINUOUS
10
158.626
20
-68.7959
11
158.626
21
-68.8021
0
LINE
8
BLACK
6
CONTINUOUS
10
158.626
20
-68.8021
11
158.626
21
-68.8034
0
LINE
8
BLACK
6
CONTINUOUS
10
158.626
20
-68.8034
11
158.626
21
-68.8077
0
LINE
8
BLACK
6
CONTINUOUS
10
158.626
20
-68.8077
11
158.627
21
-68.8119
0
LINE
8
BLACK
6
CONTINUOUS
10
158.627
20
-68.8119
11
158.627
21
-70.3801
0
LINE
8
BLACK
6
CONTINUOUS
10
158.627
20
-70.3801
11
158.627
21
-70.3815
0
LINE
8
BLACK
6
CONTINUOUS
10
158.627
20
-70.3815
11
158.626
21
-70.3857
0
LINE
8
BLACK
6
CONTINUOUS
10
158.626
20
-70.3857
11
158.626
21
-70.3899
0
LINE
8
BLACK
6
CONTINUOUS
10
158.626
20
-70.3899
11
158.626
21
-70.3961
0
LINE
8
BLACK
6
CONTINUOUS
10
158.626
20
-70.3961
11
158.63
21
-70.4402
0
LINE
8
BLACK
6
CONTINUOUS
10
158.63
20
-70.4402
11
158.643
21
-70.4826
0
LINE
8
BLACK
6
CONTINUOUS
10
158.643
20
-70.4826
11
158.664
21
-70.5217
0
LINE
8
BLACK
6
CONTINUOUS
10
158.664
20
-70.5217
11
158.692
21
-70.556
0
LINE
8
BLACK
6
CONTINUOUS
10
158.692
20
-70.556
11
158.726
21
-70.5841
0
LINE
8
BLACK
6
CONTINUOUS
10
158.726
20
-70.5841
11
158.765
21
-70.605
0
LINE
8
BLACK
6
CONTINUOUS
10
158.765
20
-70.605
11
158.807
21
-70.6178
0
LINE
8
BLACK
6
CONTINUOUS
10
158.807
20
-70.6178
11
158.845
21
-70.6216
0
LINE
8
BLACK
6
CONTINUOUS
10
158.845
20
-70.6216
11
158.845
21
-70.6216
0
LINE
8
BLACK
6
CONTINUOUS
10
158.845
20
-70.6216
11
158.852
21
-70.6222
0
LINE
8
BLACK
6
CONTINUOUS
10
158.852
20
-70.6222
11
158.858
21
-70.6216
0
LINE
8
BLACK
6
CONTINUOUS
10
158.858
20
-70.6216
11
158.859
21
-70.6215
0
LINE
8
BLACK
6
CONTINUOUS
10
158.859
20
-70.6215
11
158.863
21
-70.6215
0
LINE
8
BLACK
6
CONTINUOUS
10
158.863
20
-70.6215
11
158.868
21
-70.6211
0
LINE
8
BLACK
6
CONTINUOUS
10
158.868
20
-70.6211
11
165.135
21
-70.6211
0
LINE
8
BLACK
6
CONTINUOUS
10
165.135
20
-70.6211
11
165.136
21
-70.6211
0
LINE
8
BLACK
6
CONTINUOUS
10
165.136
20
-70.6211
11
165.14
21
-70.6216
0
LINE
8
BLACK
6
CONTINUOUS
10
165.14
20
-70.6216
11
165.145
21
-70.6216
0
LINE
8
BLACK
6
CONTINUOUS
10
165.145
20
-70.6216
11
165.151
21
-70.6222
0
LINE
8
BLACK
6
CONTINUOUS
10
165.151
20
-70.6222
11
165.157
21
-70.6216
0
LINE
8
BLACK
6
CONTINUOUS
10
165.157
20
-70.6216
11
165.157
21
-70.6216
0
LINE
8
BLACK
6
CONTINUOUS
10
165.157
20
-70.6216
11
165.195
21
-70.6178
0
LINE
8
BLACK
6
CONTINUOUS
10
165.195
20
-70.6178
11
165.237
21
-70.605
0
LINE
8
BLACK
6
CONTINUOUS
10
165.237
20
-70.605
11
165.276
21
-70.5841
0
LINE
8
BLACK
6
CONTINUOUS
10
165.276
20
-70.5841
11
165.311
21
-70.556
0
LINE
8
BLACK
6
CONTINUOUS
10
165.311
20
-70.556
11
165.339
21
-70.5217
0
LINE
8
BLACK
6
CONTINUOUS
10
165.339
20
-70.5217
11
165.36
21
-70.4826
0
LINE
8
BLACK
6
CONTINUOUS
10
165.36
20
-70.4826
11
165.373
21
-70.4402
0
LINE
8
BLACK
6
CONTINUOUS
10
165.373
20
-70.4402
11
165.377
21
-70.3961
0
LINE
8
BLACK
6
CONTINUOUS
10
165.377
20
-70.3961
11
165.376
21
-70.3899
0
LINE
8
BLACK
6
CONTINUOUS
10
165.376
20
-70.3899
11
165.376
21
-70.3885
0
LINE
8
BLACK
6
CONTINUOUS
10
165.376
20
-70.3885
11
165.376
21
-70.3843
0
LINE
8
BLACK
6
CONTINUOUS
10
165.376
20
-70.3843
11
165.376
21
-70.3801
0
LINE
8
BLACK
6
CONTINUOUS
10
165.376
20
-70.3801
11
165.376
21
-68.8119
0
LINE
8
BLACK
6
CONTINUOUS
10
165.376
20
-68.8119
11
165.376
21
-68.8105
0
LINE
8
BLACK
6
CONTINUOUS
10
165.376
20
-68.8105
11
165.376
21
-68.8063
0
LINE
8
BLACK
6
CONTINUOUS
10
165.376
20
-68.8063
11
165.376
21
-68.8021
0
LINE
8
BLACK
6
CONTINUOUS
10
165.376
20
-68.8021
11
165.377
21
-68.7959
0
LINE
8
BLACK
6
CONTINUOUS
10
165.377
20
-68.7959
11
165.373
21
-68.7518
0
LINE
8
BLACK
6
CONTINUOUS
10
165.373
20
-68.7518
11
165.36
21
-68.7094
0
LINE
8
BLACK
6
CONTINUOUS
10
165.36
20
-68.7094
11
165.339
21
-68.6703
0
LINE
8
BLACK
6
CONTINUOUS
10
165.339
20
-68.6703
11
165.311
21
-68.636
0
LINE
8
BLACK
6
CONTINUOUS
10
165.311
20
-68.636
11
165.276
21
-68.6079
0
LINE
8
BLACK
6
CONTINUOUS
10
165.276
20
-68.6079
11
165.237
21
-68.587
0
LINE
8
BLACK
6
CONTINUOUS
10
165.237
20
-68.587
11
165.195
21
-68.5742
0
LINE
8
BLACK
6
CONTINUOUS
10
165.195
20
-68.5742
11
165.157
21
-68.5704
0
LINE
8
BLACK
6
CONTINUOUS
10
165.157
20
-68.5704
11
165.151
21
-68.5698
0
LINE
8
BLACK
6
CONTINUOUS
10
165.151
20
-68.5698
11
165.145
21
-68.5704
0
LINE
8
BLACK
6
CONTINUOUS
10
149.946
20
-93.6353
11
150.237
21
-93.7559
0
LINE
8
BLACK
6
CONTINUOUS
10
150.237
20
-93.7559
11
150.499
21
-93.931
0
LINE
8
BLACK
6
CONTINUOUS
10
150.499
20
-93.931
11
150.722
21
-94.1539
0
LINE
8
BLACK
6
CONTINUOUS
10
150.722
20
-94.1539
11
150.897
21
-94.4159
0
LINE
8
BLACK
6
CONTINUOUS
10
150.897
20
-94.4159
11
151.018
21
-94.7071
0
LINE
8
BLACK
6
CONTINUOUS
10
151.018
20
-94.7071
11
151.079
21
-95.0162
0
LINE
8
BLACK
6
CONTINUOUS
10
151.079
20
-95.0162
11
151.079
21
-95.3314
0
LINE
8
BLACK
6
CONTINUOUS
10
151.079
20
-95.3314
11
151.018
21
-95.6405
0
LINE
8
BLACK
6
CONTINUOUS
10
151.018
20
-95.6405
11
150.897
21
-95.9317
0
LINE
8
BLACK
6
CONTINUOUS
10
150.897
20
-95.9317
11
150.722
21
-96.1937
0
LINE
8
BLACK
6
CONTINUOUS
10
150.722
20
-96.1937
11
150.499
21
-96.4166
0
LINE
8
BLACK
6
CONTINUOUS
10
150.499
20
-96.4166
11
150.237
21
-96.5917
0
LINE
8
BLACK
6
CONTINUOUS
10
150.237
20
-96.5917
11
149.946
21
-96.7123
0
LINE
8
BLACK
6
CONTINUOUS
10
149.946
20
-96.7123
11
149.637
21
-96.7738
0
LINE
8
BLACK
6
CONTINUOUS
10
149.637
20
-96.7738
11
149.321
21
-96.7738
0
LINE
8
BLACK
6
CONTINUOUS
10
149.321
20
-96.7738
11
149.012
21
-96.7123
0
LINE
8
BLACK
6
CONTINUOUS
10
149.012
20
-96.7123
11
148.721
21
-96.5917
0
LINE
8
BLACK
6
CONTINUOUS
10
148.721
20
-96.5917
11
148.459
21
-96.4166
0
LINE
8
BLACK
6
CONTINUOUS
10
148.459
20
-96.4166
11
148.236
21
-96.1937
0
LINE
8
BLACK
6
CONTINUOUS
10
148.236
20
-96.1937
11
148.061
21
-95.9317
0
LINE
8
BLACK
6
CONTINUOUS
10
148.061
20
-95.9317
11
147.94
21
-95.6405
0
LINE
8
BLACK
6
CONTINUOUS
10
147.94
20
-95.6405
11
147.879
21
-95.3314
0
LINE
8
BLACK
6
CONTINUOUS
10
147.879
20
-95.3314
11
147.879
21
-95.0162
0
LINE
8
BLACK
6
CONTINUOUS
10
147.879
20
-95.0162
11
147.94
21
-94.7071
0
LINE
8
BLACK
6
CONTINUOUS
10
147.94
20
-94.7071
11
148.061
21
-94.4159
0
LINE
8
BLACK
6
CONTINUOUS
10
148.061
20
-94.4159
11
148.236
21
-94.1539
0
LINE
8
BLACK
6
CONTINUOUS
10
148.236
20
-94.1539
11
148.459
21
-93.931
0
LINE
8
BLACK
6
CONTINUOUS
10
148.459
20
-93.931
11
148.721
21
-93.7559
0
LINE
8
BLACK
6
CONTINUOUS
10
148.721
20
-93.7559
11
149.012
21
-93.6353
0
LINE
8
BLACK
6
CONTINUOUS
10
149.012
20
-93.6353
11
149.321
21
-93.5738
0
LINE
8
BLACK
6
CONTINUOUS
10
149.321
20
-93.5738
11
149.637
21
-93.5738
0
LINE
8
BLACK
6
CONTINUOUS
10
149.637
20
-93.5738
11
149.946
21
-93.6353
0
LINE
8
BLACK
6
CONTINUOUS
10
89.9763
20
-93.5972
11
90.2675
21
-93.7178
0
LINE
8
BLACK
6
CONTINUOUS
10
90.2675
20
-93.7178
11
90.5295
21
-93.8929
0
LINE
8
BLACK
6
CONTINUOUS
10
90.5295
20
-93.8929
11
90.7524
21
-94.1158
0
LINE
8
BLACK
6
CONTINUOUS
10
90.7524
20
-94.1158
11
90.9275
21
-94.3778
0
LINE
8
BLACK
6
CONTINUOUS
10
90.9275
20
-94.3778
11
91.0481
21
-94.669
0
LINE
8
BLACK
6
CONTINUOUS
10
91.0481
20
-94.669
11
91.1096
21
-94.9781
0
LINE
8
BLACK
6
CONTINUOUS
10
91.1096
20
-94.9781
11
91.1096
21
-95.2933
0
LINE
8
BLACK
6
CONTINUOUS
10
91.1096
20
-95.2933
11
91.0481
21
-95.6024
0
LINE
8
BLACK
6
CONTINUOUS
10
91.0481
20
-95.6024
11
90.9275
21
-95.8936
0
LINE
8
BLACK
6
CONTINUOUS
10
90.9275
20
-95.8936
11
90.7524
21
-96.1556
0
LINE
8
BLACK
6
CONTINUOUS
10
90.7524
20
-96.1556
11
90.5295
21
-96.3785
0
LINE
8
BLACK
6
CONTINUOUS
10
90.5295
20
-96.3785
11
90.2675
21
-96.5536
0
LINE
8
BLACK
6
CONTINUOUS
10
90.2675
20
-96.5536
11
89.9763
21
-96.6742
0
LINE
8
BLACK
6
CONTINUOUS
10
89.9763
20
-96.6742
11
89.6672
21
-96.7357
0
LINE
8
BLACK
6
CONTINUOUS
10
89.6672
20
-96.7357
11
89.352
21
-96.7357
0
LINE
8
BLACK
6
CONTINUOUS
10
89.352
20
-96.7357
11
89.0429
21
-96.6742
0
LINE
8
BLACK
6
CONTINUOUS
10
89.0429
20
-96.6742
11
88.7517
21
-96.5536
0
LINE
8
BLACK
6
CONTINUOUS
10
88.7517
20
-96.5536
11
88.4897
21
-96.3785
0
LINE
8
BLACK
6
CONTINUOUS
10
88.4897
20
-96.3785
11
88.2668
21
-96.1556
0
LINE
8
BLACK
6
CONTINUOUS
10
88.2668
20
-96.1556
11
88.0917
21
-95.8936
0
LINE
8
BLACK
6
CONTINUOUS
10
88.0917
20
-95.8936
11
87.9711
21
-95.6024
0
LINE
8
BLACK
6
CONTINUOUS
10
87.9711
20
-95.6024
11
87.9096
21
-95.2933
0
LINE
8
BLACK
6
CONTINUOUS
10
87.9096
20
-95.2933
11
87.9096
21
-94.9781
0
LINE
8
BLACK
6
CONTINUOUS
10
87.9096
20
-94.9781
11
87.9711
21
-94.669
0
LINE
8
BLACK
6
CONTINUOUS
10
87.9711
20
-94.669
11
88.0917
21
-94.3778
0
LINE
8
BLACK
6
CONTINUOUS
10
88.0917
20
-94.3778
11
88.2668
21
-94.1158
0
LINE
8
BLACK
6
CONTINUOUS
10
88.2668
20
-94.1158
11
88.4897
21
-93.8929
0
LINE
8
BLACK
6
CONTINUOUS
10
88.4897
20
-93.8929
11
88.7517
21
-93.7178
0
LINE
8
BLACK
6
CONTINUOUS
10
88.7517
20
-93.7178
11
89.0429
21
-93.5972
0
LINE
8
BLACK
6
CONTINUOUS
10
89.0429
20
-93.5972
11
89.352
21
-93.5357
0
LINE
8
BLACK
6
CONTINUOUS
10
89.352
20
-93.5357
11
89.6672
21
-93.5357
0
LINE
8
BLACK
6
CONTINUOUS
10
89.6672
20
-93.5357
11
89.9763
21
-93.5972
0
LINE
8
BLACK
6
CONTINUOUS
10
124.801
20
-85.2324
11
125.192
21
-85.3945
0
LINE
8
BLACK
6
CONTINUOUS
10
125.192
20
-85.3945
11
125.545
21
-85.6298
0
LINE
8
BLACK
6
CONTINUOUS
10
125.545
20
-85.6298
11
125.844
21
-85.9293
0
LINE
8
BLACK
6
CONTINUOUS
10
125.844
20
-85.9293
11
126.079
21
-86.2814
0
LINE
8
BLACK
6
CONTINUOUS
10
126.079
20
-86.2814
11
126.241
21
-86.6727
0
LINE
8
BLACK
6
CONTINUOUS
10
126.241
20
-86.6727
11
126.324
21
-87.088
0
LINE
8
BLACK
6
CONTINUOUS
10
126.324
20
-87.088
11
126.324
21
-87.5116
0
LINE
8
BLACK
6
CONTINUOUS
10
126.324
20
-87.5116
11
126.241
21
-87.9269
0
LINE
8
BLACK
6
CONTINUOUS
10
126.241
20
-87.9269
11
126.079
21
-88.3182
0
LINE
8
BLACK
6
CONTINUOUS
10
126.079
20
-88.3182
11
125.844
21
-88.6703
0
LINE
8
BLACK
6
CONTINUOUS
10
125.844
20
-88.6703
11
125.545
21
-88.9698
0
LINE
8
BLACK
6
CONTINUOUS
10
125.545
20
-88.9698
11
125.192
21
-89.2051
0
LINE
8
BLACK
6
CONTINUOUS
10
125.192
20
-89.2051
11
124.801
21
-89.3672
0
LINE
8
BLACK
6
CONTINUOUS
10
124.801
20
-89.3672
11
124.386
21
-89.4498
0
LINE
8
BLACK
6
CONTINUOUS
10
124.386
20
-89.4498
11
123.962
21
-89.4498
0
LINE
8
BLACK
6
CONTINUOUS
10
123.962
20
-89.4498
11
123.547
21
-89.3672
0
LINE
8
BLACK
6
CONTINUOUS
10
123.547
20
-89.3672
11
123.156
21
-89.2051
0
LINE
8
BLACK
6
CONTINUOUS
10
123.156
20
-89.2051
11
122.803
21
-88.9698
0
LINE
8
BLACK
6
CONTINUOUS
10
122.803
20
-88.9698
11
122.504
21
-88.6703
0
LINE
8
BLACK
6
CONTINUOUS
10
122.504
20
-88.6703
11
122.269
21
-88.3182
0
LINE
8
BLACK
6
CONTINUOUS
10
122.269
20
-88.3182
11
122.107
21
-87.9269
0
LINE
8
BLACK
6
CONTINUOUS
10
122.107
20
-87.9269
11
122.024
21
-87.5116
0
LINE
8
BLACK
6
CONTINUOUS
10
122.024
20
-87.5116
11
122.024
21
-87.088
0
LINE
8
BLACK
6
CONTINUOUS
10
122.024
20
-87.088
11
122.107
21
-86.6727
0
LINE
8
BLACK
6
CONTINUOUS
10
122.107
20
-86.6727
11
122.269
21
-86.2814
0
LINE
8
BLACK
6
CONTINUOUS
10
122.269
20
-86.2814
11
122.504
21
-85.9293
0
LINE
8
BLACK
6
CONTINUOUS
10
122.504
20
-85.9293
11
122.803
21
-85.6298
0
LINE
8
BLACK
6
CONTINUOUS
10
122.803
20
-85.6298
11
123.156
21
-85.3945
0
LINE
8
BLACK
6
CONTINUOUS
10
123.156
20
-85.3945
11
123.547
21
-85.2324
0
LINE
8
BLACK
6
CONTINUOUS
10
123.547
20
-85.2324
11
123.962
21
-85.1498
0
LINE
8
BLACK
6
CONTINUOUS
10
123.962
20
-85.1498
11
124.386
21
-85.1498
0
LINE
8
BLACK
6
CONTINUOUS
10
124.386
20
-85.1498
11
124.801
21
-85.2324
0
LINE
8
BLACK
6
CONTINUOUS
10
112.101
20
-85.1816
11
112.492
21
-85.3437
0
LINE
8
BLACK
6
CONTINUOUS
10
112.492
20
-85.3437
11
112.845
21
-85.579
0
LINE
8
BLACK
6
CONTINUOUS
10
112.845
20
-85.579
11
113.144
21
-85.8785
0
LINE
8
BLACK
6
CONTINUOUS
10
113.144
20
-85.8785
11
113.379
21
-86.2306
0
LINE
8
BLACK
6
CONTINUOUS
10
113.379
20
-86.2306
11
113.541
21
-86.6219
0
LINE
8
BLACK
6
CONTINUOUS
10
113.541
20
-86.6219
11
113.624
21
-87.0372
0
LINE
8
BLACK
6
CONTINUOUS
10
113.624
20
-87.0372
11
113.624
21
-87.4608
0
LINE
8
BLACK
6
CONTINUOUS
10
113.624
20
-87.4608
11
113.541
21
-87.8761
0
LINE
8
BLACK
6
CONTINUOUS
10
113.541
20
-87.8761
11
113.379
21
-88.2674
0
LINE
8
BLACK
6
CONTINUOUS
10
113.379
20
-88.2674
11
113.144
21
-88.6195
0
LINE
8
BLACK
6
CONTINUOUS
10
113.144
20
-88.6195
11
112.845
21
-88.919
0
LINE
8
BLACK
6
CONTINUOUS
10
112.845
20
-88.919
11
112.492
21
-89.1543
0
LINE
8
BLACK
6
CONTINUOUS
10
112.492
20
-89.1543
11
112.101
21
-89.3164
0
LINE
8
BLACK
6
CONTINUOUS
10
112.101
20
-89.3164
11
111.686
21
-89.399
0
LINE
8
BLACK
6
CONTINUOUS
10
111.686
20
-89.399
11
111.262
21
-89.399
0
LINE
8
BLACK
6
CONTINUOUS
10
111.262
20
-89.399
11
110.847
21
-89.3164
0
LINE
8
BLACK
6
CONTINUOUS
10
110.847
20
-89.3164
11
110.456
21
-89.1543
0
LINE
8
BLACK
6
CONTINUOUS
10
110.456
20
-89.1543
11
110.103
21
-88.919
0
LINE
8
BLACK
6
CONTINUOUS
10
110.103
20
-88.919
11
109.804
21
-88.6195
0
LINE
8
BLACK
6
CONTINUOUS
10
109.804
20
-88.6195
11
109.569
21
-88.2674
0
LINE
8
BLACK
6
CONTINUOUS
10
109.569
20
-88.2674
11
109.407
21
-87.8761
0
LINE
8
BLACK
6
CONTINUOUS
10
109.407
20
-87.8761
11
109.324
21
-87.4608
0
LINE
8
BLACK
6
CONTINUOUS
10
109.324
20
-87.4608
11
109.324
21
-87.0372
0
LINE
8
BLACK
6
CONTINUOUS
10
109.324
20
-87.0372
11
109.407
21
-86.6219
0
LINE
8
BLACK
6
CONTINUOUS
10
109.407
20
-86.6219
11
109.569
21
-86.2306
0
LINE
8
BLACK
6
CONTINUOUS
10
109.569
20
-86.2306
11
109.804
21
-85.8785
0
LINE
8
BLACK
6
CONTINUOUS
10
109.804
20
-85.8785
11
110.103
21
-85.579
0
LINE
8
BLACK
6
CONTINUOUS
10
110.103
20
-85.579
11
110.456
21
-85.3437
0
LINE
8
BLACK
6
CONTINUOUS
10
110.456
20
-85.3437
11
110.847
21
-85.1816
0
LINE
8
BLACK
6
CONTINUOUS
10
110.847
20
-85.1816
11
111.262
21
-85.099
0
LINE
8
BLACK
6
CONTINUOUS
10
111.262
20
-85.099
11
111.686
21
-85.099
0
LINE
8
BLACK
6
CONTINUOUS
10
111.686
20
-85.099
11
112.101
21
-85.1816
0
LINE
8
BLACK
6
CONTINUOUS
10
99.4011
20
-85.1816
11
99.7924
21
-85.3437
0
LINE
8
BLACK
6
CONTINUOUS
10
99.7924
20
-85.3437
11
100.145
21
-85.579
0
LINE
8
BLACK
6
CONTINUOUS
10
100.145
20
-85.579
11
100.444
21
-85.8785
0
LINE
8
BLACK
6
CONTINUOUS
10
100.444
20
-85.8785
11
100.679
21
-86.2306
0
LINE
8
BLACK
6
CONTINUOUS
10
100.679
20
-86.2306
11
100.841
21
-86.6219
0
LINE
8
BLACK
6
CONTINUOUS
10
100.841
20
-86.6219
11
100.924
21
-87.0372
0
LINE
8
BLACK
6
CONTINUOUS
10
100.924
20
-87.0372
11
100.924
21
-87.4608
0
LINE
8
BLACK
6
CONTINUOUS
10
100.924
20
-87.4608
11
100.841
21
-87.8761
0
LINE
8
BLACK
6
CONTINUOUS
10
100.841
20
-87.8761
11
100.679
21
-88.2674
0
LINE
8
BLACK
6
CONTINUOUS
10
100.679
20
-88.2674
11
100.444
21
-88.6195
0
LINE
8
BLACK
6
CONTINUOUS
10
100.444
20
-88.6195
11
100.145
21
-88.919
0
LINE
8
BLACK
6
CONTINUOUS
10
100.145
20
-88.919
11
99.7924
21
-89.1543
0
LINE
8
BLACK
6
CONTINUOUS
10
99.7924
20
-89.1543
11
99.4011
21
-89.3164
0
LINE
8
BLACK
6
CONTINUOUS
10
99.4011
20
-89.3164
11
98.9858
21
-89.399
0
LINE
8
BLACK
6
CONTINUOUS
10
98.9858
20
-89.399
11
98.5622
21
-89.399
0
LINE
8
BLACK
6
CONTINUOUS
10
98.5622
20
-89.399
11
98.1469
21
-89.3164
0
LINE
8
BLACK
6
CONTINUOUS
10
98.1469
20
-89.3164
11
97.7556
21
-89.1543
0
LINE
8
BLACK
6
CONTINUOUS
10
97.7556
20
-89.1543
11
97.4035
21
-88.919
0
LINE
8
BLACK
6
CONTINUOUS
10
97.4035
20
-88.919
11
97.104
21
-88.6195
0
LINE
8
BLACK
6
CONTINUOUS
10
97.104
20
-88.6195
11
96.8687
21
-88.2674
0
LINE
8
BLACK
6
CONTINUOUS
10
96.8687
20
-88.2674
11
96.7066
21
-87.8761
0
LINE
8
BLACK
6
CONTINUOUS
10
96.7066
20
-87.8761
11
96.624
21
-87.4608
0
LINE
8
BLACK
6
CONTINUOUS
10
96.624
20
-87.4608
11
96.624
21
-87.0372
0
LINE
8
BLACK
6
CONTINUOUS
10
96.624
20
-87.0372
11
96.7066
21
-86.6219
0
LINE
8
BLACK
6
CONTINUOUS
10
96.7066
20
-86.6219
11
96.8687
21
-86.2306
0
LINE
8
BLACK
6
CONTINUOUS
10
96.8687
20
-86.2306
11
97.104
21
-85.8785
0
LINE
8
BLACK
6
CONTINUOUS
10
97.104
20
-85.8785
11
97.4035
21
-85.579
0
LINE
8
BLACK
6
CONTINUOUS
10
97.4035
20
-85.579
11
97.7556
21
-85.3437
0
LINE
8
BLACK
6
CONTINUOUS
10
97.7556
20
-85.3437
11
98.1469
21
-85.1816
0
LINE
8
BLACK
6
CONTINUOUS
10
98.1469
20
-85.1816
11
98.5622
21
-85.099
0
LINE
8
BLACK
6
CONTINUOUS
10
98.5622
20
-85.099
11
98.9858
21
-85.099
0
LINE
8
BLACK
6
CONTINUOUS
10
98.9858
20
-85.099
11
99.4011
21
-85.1816
  0
ENDSEC
  0
EOF
