  0
SECTION
  2
HEADER
  9
$ANGBASE
  50
0.0
  9
$ANGDIR
  70
1
  9
$MEASUREMENT
  70
1
  0
ENDSEC
  0
SECTION
  2
TABLES
  0
TABLE
  2
LTYPE
  70
4
  0
LTYPE
  5
40F
  2
CONTINUOUS
  70
0
  3
Solid line
  72
65
  73
0
  40
0.0
  0
LTYPE
  5
410
  2
DASHDOT
 70
0
  3
Dash Dot ____ _ ____ _
 72
65
 73
4
 40
2.0
 49
1.25
 49
-0.25
 49
0.25
 49
-0.25
  0
LTYPE
  5
411
  2
DASHED
 70
0
  3
Dashed __ __ __ __ __
 72
65
 73
2
 40
0.75
 49
0.5
 49
-0.25
  0
LTYPE
  5
43B
  2
DOTTED
 70
0
  3
Dotted .  .  .  .
 72
65
 73
2
 40
0.2
 49
0.0
 49
-0.2
  0
ENDTAB
  0
TABLE
  2
STYLE
  70
4
  0
STYLE
  2
KICAD
  70
0
  40
0
  41
1
  42
1
  50
0
  71
0
  3
isocp.shx
  0
STYLE
  2
KICADB
  70
0
  40
0
  41
1
  42
1
  50
0
  71
0
  3
isocp.shx
  0
STYLE
  2
KICADI
  70
0
  40
0
  41
1
  42
1
  50
15
  71
0
  3
isocp.shx
  0
STYLE
  2
KICADBI
  70
0
  40
0
  41
1
  42
1
  50
15
  71
0
  3
isocp.shx
  0
ENDTAB
  0
TABLE
  2
LAYER
  70
1
  0
LAYER
  2
BLACK
  70
0
  62
7
  6
CONTINUOUS
  0
ENDTAB
  0
ENDSEC
  0
SECTION
  2
ENTITIES
0
LINE
8
BLACK
6
CONTINUOUS
10
167.922
20
-59.9699
11
167.924
21
-59.9702
0
LINE
8
BLACK
6
CONTINUOUS
10
167.924
20
-59.9702
11
167.925
21
-59.9702
0
LINE
8
BLACK
6
CONTINUOUS
10
167.925
20
-59.9702
11
167.925
21
-59.9703
0
LINE
8
BLACK
6
CONTINUOUS
10
167.925
20
-59.9703
11
167.927
21
-59.9709
0
LINE
8
BLACK
6
CONTINUOUS
10
167.927
20
-59.9709
11
167.929
21
-59.9716
0
LINE
8
BLACK
6
CONTINUOUS
10
167.929
20
-59.9716
11
167.929
21
-59.9717
0
LINE
8
BLACK
6
CONTINUOUS
10
167.929
20
-59.9717
11
167.929
21
-59.9718
0
LINE
8
BLACK
6
CONTINUOUS
10
167.929
20
-59.9718
11
167.931
21
-59.9728
0
LINE
8
BLACK
6
CONTINUOUS
10
167.931
20
-59.9728
11
167.933
21
-59.9739
0
LINE
8
BLACK
6
CONTINUOUS
10
167.933
20
-59.9739
11
167.934
21
-59.9741
0
LINE
8
BLACK
6
CONTINUOUS
10
167.934
20
-59.9741
11
167.934
21
-59.9742
0
LINE
8
BLACK
6
CONTINUOUS
10
167.934
20
-59.9742
11
167.935
21
-59.9756
0
LINE
8
BLACK
6
CONTINUOUS
10
167.935
20
-59.9756
11
167.937
21
-59.977
0
LINE
8
BLACK
6
CONTINUOUS
10
167.937
20
-59.977
11
167.938
21
-59.9782
0
LINE
8
BLACK
6
CONTINUOUS
10
167.938
20
-59.9782
11
169.016
21
-61.094
0
LINE
8
BLACK
6
CONTINUOUS
10
169.016
20
-61.094
11
169.017
21
-61.0946
0
LINE
8
BLACK
6
CONTINUOUS
10
169.017
20
-61.0946
11
169.018
21
-61.0958
0
LINE
8
BLACK
6
CONTINUOUS
10
169.018
20
-61.0958
11
169.018
21
-61.0959
0
LINE
8
BLACK
6
CONTINUOUS
10
169.018
20
-61.0959
11
169.018
21
-61.0967
0
LINE
8
BLACK
6
CONTINUOUS
10
169.018
20
-61.0967
11
169.02
21
-61.0984
0
LINE
8
BLACK
6
CONTINUOUS
10
169.02
20
-61.0984
11
169.02
21
-61.0986
0
LINE
8
BLACK
6
CONTINUOUS
10
169.02
20
-61.0986
11
169.02
21
-61.0988
0
LINE
8
BLACK
6
CONTINUOUS
10
169.02
20
-61.0988
11
169.021
21
-61.1008
0
LINE
8
BLACK
6
CONTINUOUS
10
169.021
20
-61.1008
11
169.022
21
-61.1028
0
LINE
8
BLACK
6
CONTINUOUS
10
169.022
20
-61.1028
11
169.022
21
-61.103
0
LINE
8
BLACK
6
CONTINUOUS
10
169.022
20
-61.103
11
169.022
21
-61.1032
0
LINE
8
BLACK
6
CONTINUOUS
10
169.022
20
-61.1032
11
169.023
21
-61.1054
0
LINE
8
BLACK
6
CONTINUOUS
10
169.023
20
-61.1054
11
169.024
21
-61.1075
0
LINE
8
BLACK
6
CONTINUOUS
10
169.024
20
-61.1075
11
169.024
21
-61.1077
0
LINE
8
BLACK
6
CONTINUOUS
10
169.024
20
-61.1077
11
169.024
21
-61.1079
0
LINE
8
BLACK
6
CONTINUOUS
10
169.024
20
-61.1079
11
169.024
21
-61.1102
0
LINE
8
BLACK
6
CONTINUOUS
10
169.024
20
-61.1102
11
169.024
21
-61.1112
0
LINE
8
BLACK
6
CONTINUOUS
10
169.024
20
-61.1112
11
169.024
21
-61.1114
0
LINE
8
BLACK
6
CONTINUOUS
10
169.024
20
-61.1114
11
169.024
21
-61.1128
0
LINE
8
BLACK
6
CONTINUOUS
10
169.024
20
-61.1128
11
169.024
21
-61.1138
0
LINE
8
BLACK
6
CONTINUOUS
10
169.024
20
-61.1138
11
169.024
21
-98.9193
0
LINE
8
BLACK
6
CONTINUOUS
10
169.024
20
-98.9193
11
169.024
21
-98.9207
0
LINE
8
BLACK
6
CONTINUOUS
10
169.024
20
-98.9207
11
169.024
21
-98.923
0
LINE
8
BLACK
6
CONTINUOUS
10
169.024
20
-98.923
11
169.024
21
-98.9252
0
LINE
8
BLACK
6
CONTINUOUS
10
169.024
20
-98.9252
11
169.023
21
-98.9254
0
LINE
8
BLACK
6
CONTINUOUS
10
169.023
20
-98.9254
11
169.023
21
-98.9256
0
LINE
8
BLACK
6
CONTINUOUS
10
169.023
20
-98.9256
11
169.023
21
-98.9278
0
LINE
8
BLACK
6
CONTINUOUS
10
169.023
20
-98.9278
11
169.022
21
-98.9299
0
LINE
8
BLACK
6
CONTINUOUS
10
169.022
20
-98.9299
11
169.022
21
-98.9301
0
LINE
8
BLACK
6
CONTINUOUS
10
169.022
20
-98.9301
11
169.022
21
-98.9303
0
LINE
8
BLACK
6
CONTINUOUS
10
169.022
20
-98.9303
11
169.021
21
-98.9322
0
LINE
8
BLACK
6
CONTINUOUS
10
169.021
20
-98.9322
11
169.02
21
-98.9343
0
LINE
8
BLACK
6
CONTINUOUS
10
169.02
20
-98.9343
11
169.02
21
-98.9344
0
LINE
8
BLACK
6
CONTINUOUS
10
169.02
20
-98.9344
11
169.02
21
-98.9346
0
LINE
8
BLACK
6
CONTINUOUS
10
169.02
20
-98.9346
11
169.018
21
-98.9363
0
LINE
8
BLACK
6
CONTINUOUS
10
169.018
20
-98.9363
11
169.017
21
-98.9381
0
LINE
8
BLACK
6
CONTINUOUS
10
169.017
20
-98.9381
11
169.016
21
-98.939
0
LINE
8
BLACK
6
CONTINUOUS
10
169.016
20
-98.939
11
167.9
21
-100.017
0
LINE
8
BLACK
6
CONTINUOUS
10
167.9
20
-100.017
11
167.899
21
-100.018
0
LINE
8
BLACK
6
CONTINUOUS
10
167.899
20
-100.018
11
167.898
21
-100.018
0
LINE
8
BLACK
6
CONTINUOUS
10
167.898
20
-100.018
11
167.898
21
-100.019
0
LINE
8
BLACK
6
CONTINUOUS
10
167.898
20
-100.019
11
167.897
21
-100.019
0
LINE
8
BLACK
6
CONTINUOUS
10
167.897
20
-100.019
11
167.895
21
-100.021
0
LINE
8
BLACK
6
CONTINUOUS
10
167.895
20
-100.021
11
167.895
21
-100.021
0
LINE
8
BLACK
6
CONTINUOUS
10
167.895
20
-100.021
11
167.895
21
-100.021
0
LINE
8
BLACK
6
CONTINUOUS
10
167.895
20
-100.021
11
167.893
21
-100.022
0
LINE
8
BLACK
6
CONTINUOUS
10
167.893
20
-100.022
11
167.891
21
-100.023
0
LINE
8
BLACK
6
CONTINUOUS
10
167.891
20
-100.023
11
167.891
21
-100.023
0
LINE
8
BLACK
6
CONTINUOUS
10
167.891
20
-100.023
11
167.891
21
-100.023
0
LINE
8
BLACK
6
CONTINUOUS
10
167.891
20
-100.023
11
167.888
21
-100.024
0
LINE
8
BLACK
6
CONTINUOUS
10
167.888
20
-100.024
11
167.886
21
-100.024
0
LINE
8
BLACK
6
CONTINUOUS
10
167.886
20
-100.024
11
167.886
21
-100.024
0
LINE
8
BLACK
6
CONTINUOUS
10
167.886
20
-100.024
11
167.886
21
-100.025
0
LINE
8
BLACK
6
CONTINUOUS
10
167.886
20
-100.025
11
167.884
21
-100.025
0
LINE
8
BLACK
6
CONTINUOUS
10
167.884
20
-100.025
11
167.883
21
-100.025
0
LINE
8
BLACK
6
CONTINUOUS
10
167.883
20
-100.025
11
167.882
21
-100.025
0
LINE
8
BLACK
6
CONTINUOUS
10
167.882
20
-100.025
11
167.881
21
-100.025
0
LINE
8
BLACK
6
CONTINUOUS
10
167.881
20
-100.025
11
167.88
21
-100.025
0
LINE
8
BLACK
6
CONTINUOUS
10
167.88
20
-100.025
11
71.0829
21
-100.025
0
LINE
8
BLACK
6
CONTINUOUS
10
71.0829
20
-100.025
11
71.0815
21
-100.025
0
LINE
8
BLACK
6
CONTINUOUS
10
71.0815
20
-100.025
11
71.0792
21
-100.025
0
LINE
8
BLACK
6
CONTINUOUS
10
71.0792
20
-100.025
11
71.077
21
-100.024
0
LINE
8
BLACK
6
CONTINUOUS
10
71.077
20
-100.024
11
71.0768
21
-100.024
0
LINE
8
BLACK
6
CONTINUOUS
10
71.0768
20
-100.024
11
71.0766
21
-100.024
0
LINE
8
BLACK
6
CONTINUOUS
10
71.0766
20
-100.024
11
71.0744
21
-100.024
0
LINE
8
BLACK
6
CONTINUOUS
10
71.0744
20
-100.024
11
71.0723
21
-100.023
0
LINE
8
BLACK
6
CONTINUOUS
10
71.0723
20
-100.023
11
71.0721
21
-100.023
0
LINE
8
BLACK
6
CONTINUOUS
10
71.0721
20
-100.023
11
71.0719
21
-100.023
0
LINE
8
BLACK
6
CONTINUOUS
10
71.0719
20
-100.023
11
71.07
21
-100.022
0
LINE
8
BLACK
6
CONTINUOUS
10
71.07
20
-100.022
11
71.0679
21
-100.021
0
LINE
8
BLACK
6
CONTINUOUS
10
71.0679
20
-100.021
11
71.0678
21
-100.021
0
LINE
8
BLACK
6
CONTINUOUS
10
71.0678
20
-100.021
11
71.0676
21
-100.02
0
LINE
8
BLACK
6
CONTINUOUS
10
71.0676
20
-100.02
11
71.0659
21
-100.019
0
LINE
8
BLACK
6
CONTINUOUS
10
71.0659
20
-100.019
11
71.0641
21
-100.018
0
LINE
8
BLACK
6
CONTINUOUS
10
71.0641
20
-100.018
11
71.0632
21
-100.016
0
LINE
8
BLACK
6
CONTINUOUS
10
71.0632
20
-100.016
11
69.9854
21
-98.9006
0
LINE
8
BLACK
6
CONTINUOUS
10
69.9854
20
-98.9006
11
69.9846
21
-98.9
0
LINE
8
BLACK
6
CONTINUOUS
10
69.9846
20
-98.9
11
69.9837
21
-98.8988
0
LINE
8
BLACK
6
CONTINUOUS
10
69.9837
20
-98.8988
11
69.9836
21
-98.8987
0
LINE
8
BLACK
6
CONTINUOUS
10
69.9836
20
-98.8987
11
69.983
21
-98.8979
0
LINE
8
BLACK
6
CONTINUOUS
10
69.983
20
-98.8979
11
69.9815
21
-98.8962
0
LINE
8
BLACK
6
CONTINUOUS
10
69.9815
20
-98.8962
11
69.9814
21
-98.896
0
LINE
8
BLACK
6
CONTINUOUS
10
69.9814
20
-98.896
11
69.9813
21
-98.8958
0
LINE
8
BLACK
6
CONTINUOUS
10
69.9813
20
-98.8958
11
69.9802
21
-98.8938
0
LINE
8
BLACK
6
CONTINUOUS
10
69.9802
20
-98.8938
11
69.9792
21
-98.8918
0
LINE
8
BLACK
6
CONTINUOUS
10
69.9792
20
-98.8918
11
69.9791
21
-98.8916
0
LINE
8
BLACK
6
CONTINUOUS
10
69.9791
20
-98.8916
11
69.979
21
-98.8914
0
LINE
8
BLACK
6
CONTINUOUS
10
69.979
20
-98.8914
11
69.9784
21
-98.8892
0
LINE
8
BLACK
6
CONTINUOUS
10
69.9784
20
-98.8892
11
69.9778
21
-98.8871
0
LINE
8
BLACK
6
CONTINUOUS
10
69.9778
20
-98.8871
11
69.9777
21
-98.8869
0
LINE
8
BLACK
6
CONTINUOUS
10
69.9777
20
-98.8869
11
69.9777
21
-98.8867
0
LINE
8
BLACK
6
CONTINUOUS
10
69.9777
20
-98.8867
11
69.9775
21
-98.8844
0
LINE
8
BLACK
6
CONTINUOUS
10
69.9775
20
-98.8844
11
69.9774
21
-98.8834
0
LINE
8
BLACK
6
CONTINUOUS
10
69.9774
20
-98.8834
11
69.9774
21
-98.8832
0
LINE
8
BLACK
6
CONTINUOUS
10
69.9774
20
-98.8832
11
69.9773
21
-98.8818
0
LINE
8
BLACK
6
CONTINUOUS
10
69.9773
20
-98.8818
11
69.9774
21
-98.8808
0
LINE
8
BLACK
6
CONTINUOUS
10
69.9774
20
-98.8808
11
69.9774
21
-61.088
0
LINE
8
BLACK
6
CONTINUOUS
10
69.9774
20
-61.088
11
69.9773
21
-61.0866
0
LINE
8
BLACK
6
CONTINUOUS
10
69.9773
20
-61.0866
11
69.9775
21
-61.0843
0
LINE
8
BLACK
6
CONTINUOUS
10
69.9775
20
-61.0843
11
69.9778
21
-61.0821
0
LINE
8
BLACK
6
CONTINUOUS
10
69.9778
20
-61.0821
11
69.9778
21
-61.0819
0
LINE
8
BLACK
6
CONTINUOUS
10
69.9778
20
-61.0819
11
69.9779
21
-61.0817
0
LINE
8
BLACK
6
CONTINUOUS
10
69.9779
20
-61.0817
11
69.9785
21
-61.0795
0
LINE
8
BLACK
6
CONTINUOUS
10
69.9785
20
-61.0795
11
69.9792
21
-61.0774
0
LINE
8
BLACK
6
CONTINUOUS
10
69.9792
20
-61.0774
11
69.9793
21
-61.0772
0
LINE
8
BLACK
6
CONTINUOUS
10
69.9793
20
-61.0772
11
69.9794
21
-61.077
0
LINE
8
BLACK
6
CONTINUOUS
10
69.9794
20
-61.077
11
69.9804
21
-61.0751
0
LINE
8
BLACK
6
CONTINUOUS
10
69.9804
20
-61.0751
11
69.9815
21
-61.073
0
LINE
8
BLACK
6
CONTINUOUS
10
69.9815
20
-61.073
11
69.9817
21
-61.0729
0
LINE
8
BLACK
6
CONTINUOUS
10
69.9817
20
-61.0729
11
69.9818
21
-61.0727
0
LINE
8
BLACK
6
CONTINUOUS
10
69.9818
20
-61.0727
11
69.9832
21
-61.071
0
LINE
8
BLACK
6
CONTINUOUS
10
69.9832
20
-61.071
11
69.9846
21
-61.0692
0
LINE
8
BLACK
6
CONTINUOUS
10
69.9846
20
-61.0692
11
69.9858
21
-61.0683
0
LINE
8
BLACK
6
CONTINUOUS
10
69.9858
20
-61.0683
11
71.1016
21
-59.9905
0
LINE
8
BLACK
6
CONTINUOUS
10
71.1016
20
-59.9905
11
71.1022
21
-59.9897
0
LINE
8
BLACK
6
CONTINUOUS
10
71.1022
20
-59.9897
11
71.1033
21
-59.9888
0
LINE
8
BLACK
6
CONTINUOUS
10
71.1033
20
-59.9888
11
71.1035
21
-59.9887
0
LINE
8
BLACK
6
CONTINUOUS
10
71.1035
20
-59.9887
11
71.1043
21
-59.988
0
LINE
8
BLACK
6
CONTINUOUS
10
71.1043
20
-59.988
11
71.106
21
-59.9866
0
LINE
8
BLACK
6
CONTINUOUS
10
71.106
20
-59.9866
11
71.1062
21
-59.9865
0
LINE
8
BLACK
6
CONTINUOUS
10
71.1062
20
-59.9865
11
71.1064
21
-59.9864
0
LINE
8
BLACK
6
CONTINUOUS
10
71.1064
20
-59.9864
11
71.1084
21
-59.9853
0
LINE
8
BLACK
6
CONTINUOUS
10
71.1084
20
-59.9853
11
71.1104
21
-59.9843
0
LINE
8
BLACK
6
CONTINUOUS
10
71.1104
20
-59.9843
11
71.1106
21
-59.9842
0
LINE
8
BLACK
6
CONTINUOUS
10
71.1106
20
-59.9842
11
71.1108
21
-59.9841
0
LINE
8
BLACK
6
CONTINUOUS
10
71.1108
20
-59.9841
11
71.113
21
-59.9835
0
LINE
8
BLACK
6
CONTINUOUS
10
71.113
20
-59.9835
11
71.1151
21
-59.9829
0
LINE
8
BLACK
6
CONTINUOUS
10
71.1151
20
-59.9829
11
71.1153
21
-59.9828
0
LINE
8
BLACK
6
CONTINUOUS
10
71.1153
20
-59.9828
11
71.1155
21
-59.9828
0
LINE
8
BLACK
6
CONTINUOUS
10
71.1155
20
-59.9828
11
71.1178
21
-59.9826
0
LINE
8
BLACK
6
CONTINUOUS
10
71.1178
20
-59.9826
11
71.1188
21
-59.9825
0
LINE
8
BLACK
6
CONTINUOUS
10
71.1188
20
-59.9825
11
71.119
21
-59.9825
0
LINE
8
BLACK
6
CONTINUOUS
10
71.119
20
-59.9825
11
71.1204
21
-59.9824
0
LINE
8
BLACK
6
CONTINUOUS
10
71.1204
20
-59.9824
11
71.1214
21
-59.9825
0
LINE
8
BLACK
6
CONTINUOUS
10
71.1214
20
-59.9825
11
167.918
21
-59.9698
0
LINE
8
BLACK
6
CONTINUOUS
10
167.918
20
-59.9698
11
167.92
21
-59.9697
0
LINE
8
BLACK
6
CONTINUOUS
10
167.92
20
-59.9697
11
167.922
21
-59.9699
0
LINE
8
BLACK
6
CONTINUOUS
10
71.1301
20
-60.0325
11
70.0274
21
-61.0976
0
LINE
8
BLACK
6
CONTINUOUS
10
70.0274
20
-61.0976
11
70.0274
21
-98.8721
0
LINE
8
BLACK
6
CONTINUOUS
10
70.0274
20
-98.8721
11
71.0925
21
-99.9748
0
LINE
8
BLACK
6
CONTINUOUS
10
71.0925
20
-99.9748
11
167.871
21
-99.9748
0
LINE
8
BLACK
6
CONTINUOUS
10
167.871
20
-99.9748
11
168.974
21
-98.9097
0
LINE
8
BLACK
6
CONTINUOUS
10
168.974
20
-98.9097
11
168.974
21
-61.1225
0
LINE
8
BLACK
6
CONTINUOUS
10
168.974
20
-61.1225
11
167.909
21
-60.0198
0
LINE
8
BLACK
6
CONTINUOUS
10
167.909
20
-60.0198
11
71.1301
21
-60.0325
0
LINE
8
BLACK
6
CONTINUOUS
10
145.467
20
-86.1953
11
145.471
21
-86.1957
0
LINE
8
BLACK
6
CONTINUOUS
10
145.471
20
-86.1957
11
145.475
21
-86.1971
0
LINE
8
BLACK
6
CONTINUOUS
10
145.475
20
-86.1971
11
145.48
21
-86.1994
0
LINE
8
BLACK
6
CONTINUOUS
10
145.48
20
-86.1994
11
145.484
21
-86.2025
0
LINE
8
BLACK
6
CONTINUOUS
10
145.484
20
-86.2025
11
145.487
21
-86.2063
0
LINE
8
BLACK
6
CONTINUOUS
10
145.487
20
-86.2063
11
145.489
21
-86.2107
0
LINE
8
BLACK
6
CONTINUOUS
10
145.489
20
-86.2107
11
145.49
21
-86.2154
0
LINE
8
BLACK
6
CONTINUOUS
10
145.49
20
-86.2154
11
145.491
21
-86.2203
0
LINE
8
BLACK
6
CONTINUOUS
10
145.491
20
-86.2203
11
145.491
21
-86.2215
0
LINE
8
BLACK
6
CONTINUOUS
10
145.491
20
-86.2215
11
145.491
21
-88.2257
0
LINE
8
BLACK
6
CONTINUOUS
10
145.491
20
-88.2257
11
145.491
21
-88.2269
0
LINE
8
BLACK
6
CONTINUOUS
10
145.491
20
-88.2269
11
145.49
21
-88.2318
0
LINE
8
BLACK
6
CONTINUOUS
10
145.49
20
-88.2318
11
145.489
21
-88.2365
0
LINE
8
BLACK
6
CONTINUOUS
10
145.489
20
-88.2365
11
145.487
21
-88.2409
0
LINE
8
BLACK
6
CONTINUOUS
10
145.487
20
-88.2409
11
145.484
21
-88.2447
0
LINE
8
BLACK
6
CONTINUOUS
10
145.484
20
-88.2447
11
145.48
21
-88.2478
0
LINE
8
BLACK
6
CONTINUOUS
10
145.48
20
-88.2478
11
145.475
21
-88.2501
0
LINE
8
BLACK
6
CONTINUOUS
10
145.475
20
-88.2501
11
145.471
21
-88.2515
0
LINE
8
BLACK
6
CONTINUOUS
10
145.471
20
-88.2515
11
145.467
21
-88.2519
0
LINE
8
BLACK
6
CONTINUOUS
10
145.467
20
-88.2519
11
145.467
21
-88.2519
0
LINE
8
BLACK
6
CONTINUOUS
10
145.467
20
-88.2519
11
145.466
21
-88.252
0
LINE
8
BLACK
6
CONTINUOUS
10
145.466
20
-88.252
11
145.465
21
-88.2519
0
LINE
8
BLACK
6
CONTINUOUS
10
145.465
20
-88.2519
11
140.285
21
-88.2519
0
LINE
8
BLACK
6
CONTINUOUS
10
140.285
20
-88.2519
11
140.284
21
-88.252
0
LINE
8
BLACK
6
CONTINUOUS
10
140.284
20
-88.252
11
140.283
21
-88.2519
0
LINE
8
BLACK
6
CONTINUOUS
10
140.283
20
-88.2519
11
140.283
21
-88.2519
0
LINE
8
BLACK
6
CONTINUOUS
10
140.283
20
-88.2519
11
140.279
21
-88.2515
0
LINE
8
BLACK
6
CONTINUOUS
10
140.279
20
-88.2515
11
140.275
21
-88.2501
0
LINE
8
BLACK
6
CONTINUOUS
10
140.275
20
-88.2501
11
140.27
21
-88.2478
0
LINE
8
BLACK
6
CONTINUOUS
10
140.27
20
-88.2478
11
140.266
21
-88.2447
0
LINE
8
BLACK
6
CONTINUOUS
10
140.266
20
-88.2447
11
140.263
21
-88.2409
0
LINE
8
BLACK
6
CONTINUOUS
10
140.263
20
-88.2409
11
140.261
21
-88.2365
0
LINE
8
BLACK
6
CONTINUOUS
10
140.261
20
-88.2365
11
140.26
21
-88.2318
0
LINE
8
BLACK
6
CONTINUOUS
10
140.26
20
-88.2318
11
140.259
21
-88.2269
0
LINE
8
BLACK
6
CONTINUOUS
10
140.259
20
-88.2269
11
140.259
21
-88.2257
0
LINE
8
BLACK
6
CONTINUOUS
10
140.259
20
-88.2257
11
140.259
21
-86.2215
0
LINE
8
BLACK
6
CONTINUOUS
10
140.259
20
-86.2215
11
140.259
21
-86.2203
0
LINE
8
BLACK
6
CONTINUOUS
10
140.259
20
-86.2203
11
140.26
21
-86.2154
0
LINE
8
BLACK
6
CONTINUOUS
10
140.26
20
-86.2154
11
140.261
21
-86.2107
0
LINE
8
BLACK
6
CONTINUOUS
10
140.261
20
-86.2107
11
140.263
21
-86.2063
0
LINE
8
BLACK
6
CONTINUOUS
10
140.263
20
-86.2063
11
140.266
21
-86.2025
0
LINE
8
BLACK
6
CONTINUOUS
10
140.266
20
-86.2025
11
140.27
21
-86.1994
0
LINE
8
BLACK
6
CONTINUOUS
10
140.27
20
-86.1994
11
140.275
21
-86.1971
0
LINE
8
BLACK
6
CONTINUOUS
10
140.275
20
-86.1971
11
140.279
21
-86.1957
0
LINE
8
BLACK
6
CONTINUOUS
10
140.279
20
-86.1957
11
140.283
21
-86.1953
0
LINE
8
BLACK
6
CONTINUOUS
10
140.283
20
-86.1953
11
140.284
21
-86.1952
0
LINE
8
BLACK
6
CONTINUOUS
10
140.284
20
-86.1952
11
140.285
21
-86.1953
0
LINE
8
BLACK
6
CONTINUOUS
10
140.285
20
-86.1953
11
145.465
21
-86.1953
0
LINE
8
BLACK
6
CONTINUOUS
10
145.465
20
-86.1953
11
145.466
21
-86.1952
0
LINE
8
BLACK
6
CONTINUOUS
10
145.466
20
-86.1952
11
145.467
21
-86.1953
0
LINE
8
BLACK
6
CONTINUOUS
10
140.309
20
-86.2453
11
140.309
21
-88.2019
0
LINE
8
BLACK
6
CONTINUOUS
10
140.309
20
-88.2019
11
145.441
21
-88.2019
0
LINE
8
BLACK
6
CONTINUOUS
10
145.441
20
-88.2019
11
145.441
21
-86.2453
0
LINE
8
BLACK
6
CONTINUOUS
10
145.441
20
-86.2453
11
140.309
21
-86.2453
0
LINE
8
BLACK
6
CONTINUOUS
10
136.526
20
-86.1826
11
136.53
21
-86.183
0
LINE
8
BLACK
6
CONTINUOUS
10
136.53
20
-86.183
11
136.535
21
-86.1844
0
LINE
8
BLACK
6
CONTINUOUS
10
136.535
20
-86.1844
11
136.539
21
-86.1867
0
LINE
8
BLACK
6
CONTINUOUS
10
136.539
20
-86.1867
11
136.543
21
-86.1898
0
LINE
8
BLACK
6
CONTINUOUS
10
136.543
20
-86.1898
11
136.546
21
-86.1936
0
LINE
8
BLACK
6
CONTINUOUS
10
136.546
20
-86.1936
11
136.548
21
-86.198
0
LINE
8
BLACK
6
CONTINUOUS
10
136.548
20
-86.198
11
136.55
21
-86.2027
0
LINE
8
BLACK
6
CONTINUOUS
10
136.55
20
-86.2027
11
136.55
21
-86.2076
0
LINE
8
BLACK
6
CONTINUOUS
10
136.55
20
-86.2076
11
136.55
21
-86.2088
0
LINE
8
BLACK
6
CONTINUOUS
10
136.55
20
-86.2088
11
136.55
21
-88.213
0
LINE
8
BLACK
6
CONTINUOUS
10
136.55
20
-88.213
11
136.55
21
-88.2142
0
LINE
8
BLACK
6
CONTINUOUS
10
136.55
20
-88.2142
11
136.55
21
-88.2191
0
LINE
8
BLACK
6
CONTINUOUS
10
136.55
20
-88.2191
11
136.548
21
-88.2238
0
LINE
8
BLACK
6
CONTINUOUS
10
136.548
20
-88.2238
11
136.546
21
-88.2282
0
LINE
8
BLACK
6
CONTINUOUS
10
136.546
20
-88.2282
11
136.543
21
-88.232
0
LINE
8
BLACK
6
CONTINUOUS
10
136.543
20
-88.232
11
136.539
21
-88.2351
0
LINE
8
BLACK
6
CONTINUOUS
10
136.539
20
-88.2351
11
136.535
21
-88.2374
0
LINE
8
BLACK
6
CONTINUOUS
10
136.535
20
-88.2374
11
136.53
21
-88.2388
0
LINE
8
BLACK
6
CONTINUOUS
10
136.53
20
-88.2388
11
136.526
21
-88.2392
0
LINE
8
BLACK
6
CONTINUOUS
10
136.526
20
-88.2392
11
136.526
21
-88.2392
0
LINE
8
BLACK
6
CONTINUOUS
10
136.526
20
-88.2392
11
136.525
21
-88.2393
0
LINE
8
BLACK
6
CONTINUOUS
10
136.525
20
-88.2393
11
136.524
21
-88.2392
0
LINE
8
BLACK
6
CONTINUOUS
10
136.524
20
-88.2392
11
131.345
21
-88.2392
0
LINE
8
BLACK
6
CONTINUOUS
10
131.345
20
-88.2392
11
131.343
21
-88.2393
0
LINE
8
BLACK
6
CONTINUOUS
10
131.343
20
-88.2393
11
131.342
21
-88.2392
0
LINE
8
BLACK
6
CONTINUOUS
10
131.342
20
-88.2392
11
131.342
21
-88.2392
0
LINE
8
BLACK
6
CONTINUOUS
10
131.342
20
-88.2392
11
131.338
21
-88.2388
0
LINE
8
BLACK
6
CONTINUOUS
10
131.338
20
-88.2388
11
131.334
21
-88.2374
0
LINE
8
BLACK
6
CONTINUOUS
10
131.334
20
-88.2374
11
131.329
21
-88.2351
0
LINE
8
BLACK
6
CONTINUOUS
10
131.329
20
-88.2351
11
131.326
21
-88.232
0
LINE
8
BLACK
6
CONTINUOUS
10
131.326
20
-88.232
11
131.323
21
-88.2282
0
LINE
8
BLACK
6
CONTINUOUS
10
131.323
20
-88.2282
11
131.32
21
-88.2238
0
LINE
8
BLACK
6
CONTINUOUS
10
131.32
20
-88.2238
11
131.319
21
-88.2191
0
LINE
8
BLACK
6
CONTINUOUS
10
131.319
20
-88.2191
11
131.318
21
-88.2142
0
LINE
8
BLACK
6
CONTINUOUS
10
131.318
20
-88.2142
11
131.318
21
-88.213
0
LINE
8
BLACK
6
CONTINUOUS
10
131.318
20
-88.213
11
131.318
21
-86.2088
0
LINE
8
BLACK
6
CONTINUOUS
10
131.318
20
-86.2088
11
131.318
21
-86.2076
0
LINE
8
BLACK
6
CONTINUOUS
10
131.318
20
-86.2076
11
131.319
21
-86.2027
0
LINE
8
BLACK
6
CONTINUOUS
10
131.319
20
-86.2027
11
131.32
21
-86.198
0
LINE
8
BLACK
6
CONTINUOUS
10
131.32
20
-86.198
11
131.323
21
-86.1936
0
LINE
8
BLACK
6
CONTINUOUS
10
131.323
20
-86.1936
11
131.326
21
-86.1898
0
LINE
8
BLACK
6
CONTINUOUS
10
131.326
20
-86.1898
11
131.329
21
-86.1867
0
LINE
8
BLACK
6
CONTINUOUS
10
131.329
20
-86.1867
11
131.334
21
-86.1844
0
LINE
8
BLACK
6
CONTINUOUS
10
131.334
20
-86.1844
11
131.338
21
-86.183
0
LINE
8
BLACK
6
CONTINUOUS
10
131.338
20
-86.183
11
131.342
21
-86.1826
0
LINE
8
BLACK
6
CONTINUOUS
10
131.342
20
-86.1826
11
131.343
21
-86.1825
0
LINE
8
BLACK
6
CONTINUOUS
10
131.343
20
-86.1825
11
131.345
21
-86.1826
0
LINE
8
BLACK
6
CONTINUOUS
10
131.345
20
-86.1826
11
136.524
21
-86.1826
0
LINE
8
BLACK
6
CONTINUOUS
10
136.524
20
-86.1826
11
136.525
21
-86.1825
0
LINE
8
BLACK
6
CONTINUOUS
10
136.525
20
-86.1825
11
136.526
21
-86.1826
0
LINE
8
BLACK
6
CONTINUOUS
10
131.368
20
-86.2326
11
131.368
21
-88.1892
0
LINE
8
BLACK
6
CONTINUOUS
10
131.368
20
-88.1892
11
136.5
21
-88.1892
0
LINE
8
BLACK
6
CONTINUOUS
10
136.5
20
-88.1892
11
136.5
21
-86.2326
0
LINE
8
BLACK
6
CONTINUOUS
10
136.5
20
-86.2326
11
131.368
21
-86.2326
0
LINE
8
BLACK
6
CONTINUOUS
10
77.9789
20
-86.6776
11
77.9766
21
-86.6771
0
LINE
8
BLACK
6
CONTINUOUS
10
77.9766
20
-86.6771
11
77.9744
21
-86.6766
0
LINE
8
BLACK
6
CONTINUOUS
10
77.9744
20
-86.6766
11
77.8558
21
-86.6408
0
LINE
8
BLACK
6
CONTINUOUS
10
77.8558
20
-86.6408
11
77.8555
21
-86.6407
0
LINE
8
BLACK
6
CONTINUOUS
10
77.8555
20
-86.6407
11
77.8533
21
-86.6398
0
LINE
8
BLACK
6
CONTINUOUS
10
77.8533
20
-86.6398
11
77.8513
21
-86.639
0
LINE
8
BLACK
6
CONTINUOUS
10
77.8513
20
-86.639
11
77.7419
21
-86.5808
0
LINE
8
BLACK
6
CONTINUOUS
10
77.7419
20
-86.5808
11
77.7416
21
-86.5806
0
LINE
8
BLACK
6
CONTINUOUS
10
77.7416
20
-86.5806
11
77.7397
21
-86.5793
0
LINE
8
BLACK
6
CONTINUOUS
10
77.7397
20
-86.5793
11
77.7378
21
-86.5781
0
LINE
8
BLACK
6
CONTINUOUS
10
77.7378
20
-86.5781
11
77.6418
21
-86.4998
0
LINE
8
BLACK
6
CONTINUOUS
10
77.6418
20
-86.4998
11
77.6415
21
-86.4995
0
LINE
8
BLACK
6
CONTINUOUS
10
77.6415
20
-86.4995
11
77.6399
21
-86.4979
0
LINE
8
BLACK
6
CONTINUOUS
10
77.6399
20
-86.4979
11
77.6383
21
-86.4963
0
LINE
8
BLACK
6
CONTINUOUS
10
77.6383
20
-86.4963
11
77.5593
21
-86.4008
0
LINE
8
BLACK
6
CONTINUOUS
10
77.5593
20
-86.4008
11
77.5591
21
-86.4006
0
LINE
8
BLACK
6
CONTINUOUS
10
77.5591
20
-86.4006
11
77.5578
21
-86.3987
0
LINE
8
BLACK
6
CONTINUOUS
10
77.5578
20
-86.3987
11
77.5566
21
-86.3968
0
LINE
8
BLACK
6
CONTINUOUS
10
77.5566
20
-86.3968
11
77.4976
21
-86.2878
0
LINE
8
BLACK
6
CONTINUOUS
10
77.4976
20
-86.2878
11
77.4975
21
-86.2875
0
LINE
8
BLACK
6
CONTINUOUS
10
77.4975
20
-86.2875
11
77.4966
21
-86.2853
0
LINE
8
BLACK
6
CONTINUOUS
10
77.4966
20
-86.2853
11
77.4957
21
-86.2833
0
LINE
8
BLACK
6
CONTINUOUS
10
77.4957
20
-86.2833
11
77.4591
21
-86.1649
0
LINE
8
BLACK
6
CONTINUOUS
10
77.4591
20
-86.1649
11
77.459
21
-86.1645
0
LINE
8
BLACK
6
CONTINUOUS
10
77.459
20
-86.1645
11
77.4586
21
-86.1623
0
LINE
8
BLACK
6
CONTINUOUS
10
77.4586
20
-86.1623
11
77.4581
21
-86.1601
0
LINE
8
BLACK
6
CONTINUOUS
10
77.4581
20
-86.1601
11
77.4452
21
-86.0368
0
LINE
8
BLACK
6
CONTINUOUS
10
77.4452
20
-86.0368
11
77.4451
21
-86.0365
0
LINE
8
BLACK
6
CONTINUOUS
10
77.4451
20
-86.0365
11
77.4451
21
-86.0354
0
LINE
8
BLACK
6
CONTINUOUS
10
77.4451
20
-86.0354
11
77.445
21
-86.0343
0
LINE
8
BLACK
6
CONTINUOUS
10
77.445
20
-86.0343
11
77.445
21
-86.0311
0
LINE
8
BLACK
6
CONTINUOUS
10
77.445
20
-86.0311
11
77.445
21
-86.031
0
LINE
8
BLACK
6
CONTINUOUS
10
77.445
20
-86.031
11
77.445
21
-71.9316
0
LINE
8
BLACK
6
CONTINUOUS
10
77.445
20
-71.9316
11
77.4451
21
-71.9304
0
LINE
8
BLACK
6
CONTINUOUS
10
77.4451
20
-71.9304
11
77.4451
21
-71.9304
0
LINE
8
BLACK
6
CONTINUOUS
10
77.4451
20
-71.9304
11
77.4572
21
-71.807
0
LINE
8
BLACK
6
CONTINUOUS
10
77.4572
20
-71.807
11
77.4572
21
-71.8067
0
LINE
8
BLACK
6
CONTINUOUS
10
77.4572
20
-71.8067
11
77.4577
21
-71.8044
0
LINE
8
BLACK
6
CONTINUOUS
10
77.4577
20
-71.8044
11
77.4582
21
-71.8022
0
LINE
8
BLACK
6
CONTINUOUS
10
77.4582
20
-71.8022
11
77.494
21
-71.6836
0
LINE
8
BLACK
6
CONTINUOUS
10
77.494
20
-71.6836
11
77.4941
21
-71.6833
0
LINE
8
BLACK
6
CONTINUOUS
10
77.4941
20
-71.6833
11
77.495
21
-71.6812
0
LINE
8
BLACK
6
CONTINUOUS
10
77.495
20
-71.6812
11
77.4958
21
-71.6791
0
LINE
8
BLACK
6
CONTINUOUS
10
77.4958
20
-71.6791
11
77.554
21
-71.5697
0
LINE
8
BLACK
6
CONTINUOUS
10
77.554
20
-71.5697
11
77.554
21
-71.5697
0
LINE
8
BLACK
6
CONTINUOUS
10
77.554
20
-71.5697
11
77.554
21
-71.5697
0
LINE
8
BLACK
6
CONTINUOUS
10
77.554
20
-71.5697
11
77.5542
21
-71.5694
0
LINE
8
BLACK
6
CONTINUOUS
10
77.5542
20
-71.5694
11
77.5555
21
-71.5675
0
LINE
8
BLACK
6
CONTINUOUS
10
77.5555
20
-71.5675
11
77.5567
21
-71.5656
0
LINE
8
BLACK
6
CONTINUOUS
10
77.5567
20
-71.5656
11
77.635
21
-71.4696
0
LINE
8
BLACK
6
CONTINUOUS
10
77.635
20
-71.4696
11
77.635
21
-71.4696
0
LINE
8
BLACK
6
CONTINUOUS
10
77.635
20
-71.4696
11
77.6351
21
-71.4696
0
LINE
8
BLACK
6
CONTINUOUS
10
77.6351
20
-71.4696
11
77.6353
21
-71.4693
0
LINE
8
BLACK
6
CONTINUOUS
10
77.6353
20
-71.4693
11
77.6369
21
-71.4677
0
LINE
8
BLACK
6
CONTINUOUS
10
77.6369
20
-71.4677
11
77.6385
21
-71.4661
0
LINE
8
BLACK
6
CONTINUOUS
10
77.6385
20
-71.4661
11
77.734
21
-71.3871
0
LINE
8
BLACK
6
CONTINUOUS
10
77.734
20
-71.3871
11
77.7342
21
-71.3869
0
LINE
8
BLACK
6
CONTINUOUS
10
77.7342
20
-71.3869
11
77.7362
21
-71.3856
0
LINE
8
BLACK
6
CONTINUOUS
10
77.7362
20
-71.3856
11
77.738
21
-71.3844
0
LINE
8
BLACK
6
CONTINUOUS
10
77.738
20
-71.3844
11
77.847
21
-71.3254
0
LINE
8
BLACK
6
CONTINUOUS
10
77.847
20
-71.3254
11
77.8473
21
-71.3253
0
LINE
8
BLACK
6
CONTINUOUS
10
77.8473
20
-71.3253
11
77.8495
21
-71.3244
0
LINE
8
BLACK
6
CONTINUOUS
10
77.8495
20
-71.3244
11
77.8515
21
-71.3235
0
LINE
8
BLACK
6
CONTINUOUS
10
77.8515
20
-71.3235
11
77.9699
21
-71.2869
0
LINE
8
BLACK
6
CONTINUOUS
10
77.9699
20
-71.2869
11
77.9703
21
-71.2868
0
LINE
8
BLACK
6
CONTINUOUS
10
77.9703
20
-71.2868
11
77.9725
21
-71.2864
0
LINE
8
BLACK
6
CONTINUOUS
10
77.9725
20
-71.2864
11
77.9747
21
-71.2859
0
LINE
8
BLACK
6
CONTINUOUS
10
77.9747
20
-71.2859
11
78.098
21
-71.273
0
LINE
8
BLACK
6
CONTINUOUS
10
78.098
20
-71.273
11
78.0983
21
-71.2729
0
LINE
8
BLACK
6
CONTINUOUS
10
78.0983
20
-71.2729
11
78.0994
21
-71.2729
0
LINE
8
BLACK
6
CONTINUOUS
10
78.0994
20
-71.2729
11
78.1005
21
-71.2728
0
LINE
8
BLACK
6
CONTINUOUS
10
78.1005
20
-71.2728
11
78.1037
21
-71.2728
0
LINE
8
BLACK
6
CONTINUOUS
10
78.1037
20
-71.2728
11
78.1038
21
-71.2728
0
LINE
8
BLACK
6
CONTINUOUS
10
78.1038
20
-71.2728
11
81.4082
21
-71.2728
0
LINE
8
BLACK
6
CONTINUOUS
10
81.4082
20
-71.2728
11
81.4094
21
-71.2729
0
LINE
8
BLACK
6
CONTINUOUS
10
81.4094
20
-71.2729
11
81.4094
21
-71.2729
0
LINE
8
BLACK
6
CONTINUOUS
10
81.4094
20
-71.2729
11
81.5533
21
-71.287
0
LINE
8
BLACK
6
CONTINUOUS
10
81.5533
20
-71.287
11
81.5536
21
-71.2871
0
LINE
8
BLACK
6
CONTINUOUS
10
81.5536
20
-71.2871
11
81.5559
21
-71.2875
0
LINE
8
BLACK
6
CONTINUOUS
10
81.5559
20
-71.2875
11
81.5581
21
-71.288
0
LINE
8
BLACK
6
CONTINUOUS
10
81.5581
20
-71.288
11
81.6964
21
-71.3297
0
LINE
8
BLACK
6
CONTINUOUS
10
81.6964
20
-71.3297
11
81.6968
21
-71.3298
0
LINE
8
BLACK
6
CONTINUOUS
10
81.6968
20
-71.3298
11
81.6989
21
-71.3307
0
LINE
8
BLACK
6
CONTINUOUS
10
81.6989
20
-71.3307
11
81.7009
21
-71.3316
0
LINE
8
BLACK
6
CONTINUOUS
10
81.7009
20
-71.3316
11
81.8285
21
-71.3995
0
LINE
8
BLACK
6
CONTINUOUS
10
81.8285
20
-71.3995
11
81.8288
21
-71.3996
0
LINE
8
BLACK
6
CONTINUOUS
10
81.8288
20
-71.3996
11
81.8307
21
-71.4009
0
LINE
8
BLACK
6
CONTINUOUS
10
81.8307
20
-71.4009
11
81.8326
21
-71.4022
0
LINE
8
BLACK
6
CONTINUOUS
10
81.8326
20
-71.4022
11
81.9446
21
-71.4935
0
LINE
8
BLACK
6
CONTINUOUS
10
81.9446
20
-71.4935
11
81.9446
21
-71.4935
0
LINE
8
BLACK
6
CONTINUOUS
10
81.9446
20
-71.4935
11
81.9446
21
-71.4935
0
LINE
8
BLACK
6
CONTINUOUS
10
81.9446
20
-71.4935
11
81.9449
21
-71.4937
0
LINE
8
BLACK
6
CONTINUOUS
10
81.9449
20
-71.4937
11
81.9464
21
-71.4953
0
LINE
8
BLACK
6
CONTINUOUS
10
81.9464
20
-71.4953
11
81.9481
21
-71.4969
0
LINE
8
BLACK
6
CONTINUOUS
10
81.9481
20
-71.4969
11
82.0402
21
-71.6083
0
LINE
8
BLACK
6
CONTINUOUS
10
82.0402
20
-71.6083
11
82.0404
21
-71.6086
0
LINE
8
BLACK
6
CONTINUOUS
10
82.0404
20
-71.6086
11
82.0412
21
-71.6097
0
LINE
8
BLACK
6
CONTINUOUS
10
82.0412
20
-71.6097
11
82.042
21
-71.6108
0
LINE
8
BLACK
6
CONTINUOUS
10
82.042
20
-71.6108
11
82.0624
21
-71.6429
0
LINE
8
BLACK
6
CONTINUOUS
10
82.0624
20
-71.6429
11
82.0632
21
-71.6438
0
LINE
8
BLACK
6
CONTINUOUS
10
82.0632
20
-71.6438
11
82.0648
21
-71.6471
0
LINE
8
BLACK
6
CONTINUOUS
10
82.0648
20
-71.6471
11
82.2227
21
-72.0518
0
LINE
8
BLACK
6
CONTINUOUS
10
82.2227
20
-72.0518
11
82.2237
21
-72.0554
0
LINE
8
BLACK
6
CONTINUOUS
10
82.2237
20
-72.0554
11
82.2237
21
-72.0557
0
LINE
8
BLACK
6
CONTINUOUS
10
82.2237
20
-72.0557
11
82.2399
21
-72.1187
0
LINE
8
BLACK
6
CONTINUOUS
10
82.2399
20
-72.1187
11
82.2876
21
-72.231
0
LINE
8
BLACK
6
CONTINUOUS
10
82.2876
20
-72.231
11
82.3559
21
-72.3315
0
LINE
8
BLACK
6
CONTINUOUS
10
82.3559
20
-72.3315
11
82.444
21
-72.4182
0
LINE
8
BLACK
6
CONTINUOUS
10
82.444
20
-72.4182
11
82.4446
21
-72.4188
0
LINE
8
BLACK
6
CONTINUOUS
10
82.4446
20
-72.4188
11
83.4564
21
-73.5658
0
LINE
8
BLACK
6
CONTINUOUS
10
83.4564
20
-73.5658
11
83.4568
21
-73.566
0
LINE
8
BLACK
6
CONTINUOUS
10
83.4568
20
-73.566
11
83.458
21
-73.5676
0
LINE
8
BLACK
6
CONTINUOUS
10
83.458
20
-73.5676
11
83.4586
21
-73.5682
0
LINE
8
BLACK
6
CONTINUOUS
10
83.4586
20
-73.5682
11
83.4588
21
-73.5685
0
LINE
8
BLACK
6
CONTINUOUS
10
83.4588
20
-73.5685
11
83.4599
21
-73.5698
0
LINE
8
BLACK
6
CONTINUOUS
10
83.4599
20
-73.5698
11
83.4603
21
-73.5705
0
LINE
8
BLACK
6
CONTINUOUS
10
83.4603
20
-73.5705
11
83.4607
21
-73.5712
0
LINE
8
BLACK
6
CONTINUOUS
10
83.4607
20
-73.5712
11
83.4614
21
-73.5727
0
LINE
8
BLACK
6
CONTINUOUS
10
83.4614
20
-73.5727
11
83.4622
21
-73.5742
0
LINE
8
BLACK
6
CONTINUOUS
10
83.4622
20
-73.5742
11
83.4624
21
-73.5749
0
LINE
8
BLACK
6
CONTINUOUS
10
83.4624
20
-73.5749
11
83.4628
21
-73.5757
0
LINE
8
BLACK
6
CONTINUOUS
10
83.4628
20
-73.5757
11
83.4631
21
-73.5773
0
LINE
8
BLACK
6
CONTINUOUS
10
83.4631
20
-73.5773
11
83.4636
21
-73.5789
0
LINE
8
BLACK
6
CONTINUOUS
10
83.4636
20
-73.5789
11
83.4637
21
-73.5797
0
LINE
8
BLACK
6
CONTINUOUS
10
83.4637
20
-73.5797
11
83.4639
21
-73.5804
0
LINE
8
BLACK
6
CONTINUOUS
10
83.4639
20
-73.5804
11
83.464
21
-73.5821
0
LINE
8
BLACK
6
CONTINUOUS
10
83.464
20
-73.5821
11
83.464
21
-73.5826
0
LINE
8
BLACK
6
CONTINUOUS
10
83.464
20
-73.5826
11
83.464
21
-73.5834
0
LINE
8
BLACK
6
CONTINUOUS
10
83.464
20
-73.5834
11
83.4641
21
-73.5854
0
LINE
8
BLACK
6
CONTINUOUS
10
83.4641
20
-73.5854
11
83.464
21
-73.5858
0
LINE
8
BLACK
6
CONTINUOUS
10
83.464
20
-73.5858
11
83.464
21
-84.5053
0
LINE
8
BLACK
6
CONTINUOUS
10
83.464
20
-84.5053
11
83.4641
21
-84.5072
0
LINE
8
BLACK
6
CONTINUOUS
10
83.4641
20
-84.5072
11
83.4638
21
-84.5089
0
LINE
8
BLACK
6
CONTINUOUS
10
83.4638
20
-84.5089
11
83.4636
21
-84.5107
0
LINE
8
BLACK
6
CONTINUOUS
10
83.4636
20
-84.5107
11
83.4634
21
-84.5114
0
LINE
8
BLACK
6
CONTINUOUS
10
83.4634
20
-84.5114
11
83.4633
21
-84.512
0
LINE
8
BLACK
6
CONTINUOUS
10
83.4633
20
-84.512
11
83.4627
21
-84.5137
0
LINE
8
BLACK
6
CONTINUOUS
10
83.4627
20
-84.5137
11
83.4622
21
-84.5154
0
LINE
8
BLACK
6
CONTINUOUS
10
83.4622
20
-84.5154
11
83.4619
21
-84.516
0
LINE
8
BLACK
6
CONTINUOUS
10
83.4619
20
-84.516
11
83.4616
21
-84.5167
0
LINE
8
BLACK
6
CONTINUOUS
10
83.4616
20
-84.5167
11
83.4607
21
-84.5182
0
LINE
8
BLACK
6
CONTINUOUS
10
83.4607
20
-84.5182
11
83.4599
21
-84.5198
0
LINE
8
BLACK
6
CONTINUOUS
10
83.4599
20
-84.5198
11
83.4594
21
-84.5203
0
LINE
8
BLACK
6
CONTINUOUS
10
83.4594
20
-84.5203
11
83.4591
21
-84.5209
0
LINE
8
BLACK
6
CONTINUOUS
10
83.4591
20
-84.5209
11
83.4579
21
-84.5222
0
LINE
8
BLACK
6
CONTINUOUS
10
83.4579
20
-84.5222
11
83.4568
21
-84.5236
0
LINE
8
BLACK
6
CONTINUOUS
10
83.4568
20
-84.5236
11
83.4553
21
-84.5248
0
LINE
8
BLACK
6
CONTINUOUS
10
83.4553
20
-84.5248
11
82.3164
21
-85.5449
0
LINE
8
BLACK
6
CONTINUOUS
10
82.3164
20
-85.5449
11
82.3164
21
-85.5449
0
LINE
8
BLACK
6
CONTINUOUS
10
82.3164
20
-85.5449
11
82.2665
21
-85.5899
0
LINE
8
BLACK
6
CONTINUOUS
10
82.2665
20
-85.5899
11
82.1892
21
-85.6843
0
LINE
8
BLACK
6
CONTINUOUS
10
82.1892
20
-85.6843
11
82.1319
21
-85.7915
0
LINE
8
BLACK
6
CONTINUOUS
10
82.1319
20
-85.7915
11
82.096
21
-85.9099
0
LINE
8
BLACK
6
CONTINUOUS
10
82.096
20
-85.9099
11
82.0957
21
-85.9108
0
LINE
8
BLACK
6
CONTINUOUS
10
82.0957
20
-85.9108
11
81.9378
21
-86.3155
0
LINE
8
BLACK
6
CONTINUOUS
10
81.9378
20
-86.3155
11
81.9362
21
-86.3188
0
LINE
8
BLACK
6
CONTINUOUS
10
81.9362
20
-86.3188
11
81.9349
21
-86.3204
0
LINE
8
BLACK
6
CONTINUOUS
10
81.9349
20
-86.3204
11
81.849
21
-86.4362
0
LINE
8
BLACK
6
CONTINUOUS
10
81.849
20
-86.4362
11
81.8488
21
-86.4365
0
LINE
8
BLACK
6
CONTINUOUS
10
81.8488
20
-86.4365
11
81.8472
21
-86.4382
0
LINE
8
BLACK
6
CONTINUOUS
10
81.8472
20
-86.4382
11
81.8457
21
-86.4399
0
LINE
8
BLACK
6
CONTINUOUS
10
81.8457
20
-86.4399
11
81.7387
21
-86.537
0
LINE
8
BLACK
6
CONTINUOUS
10
81.7387
20
-86.537
11
81.7387
21
-86.537
0
LINE
8
BLACK
6
CONTINUOUS
10
81.7387
20
-86.537
11
81.7387
21
-86.537
0
LINE
8
BLACK
6
CONTINUOUS
10
81.7387
20
-86.537
11
81.7384
21
-86.5372
0
LINE
8
BLACK
6
CONTINUOUS
10
81.7384
20
-86.5372
11
81.7366
21
-86.5386
0
LINE
8
BLACK
6
CONTINUOUS
10
81.7366
20
-86.5386
11
81.7348
21
-86.5399
0
LINE
8
BLACK
6
CONTINUOUS
10
81.7348
20
-86.5399
11
81.611
21
-86.6144
0
LINE
8
BLACK
6
CONTINUOUS
10
81.611
20
-86.6144
11
81.6107
21
-86.6146
0
LINE
8
BLACK
6
CONTINUOUS
10
81.6107
20
-86.6146
11
81.6086
21
-86.6156
0
LINE
8
BLACK
6
CONTINUOUS
10
81.6086
20
-86.6156
11
81.6065
21
-86.6165
0
LINE
8
BLACK
6
CONTINUOUS
10
81.6065
20
-86.6165
11
81.4706
21
-86.6656
0
LINE
8
BLACK
6
CONTINUOUS
10
81.4706
20
-86.6656
11
81.4706
21
-86.6656
0
LINE
8
BLACK
6
CONTINUOUS
10
81.4706
20
-86.6656
11
81.4706
21
-86.6656
0
LINE
8
BLACK
6
CONTINUOUS
10
81.4706
20
-86.6656
11
81.4703
21
-86.6657
0
LINE
8
BLACK
6
CONTINUOUS
10
81.4703
20
-86.6657
11
81.468
21
-86.6662
0
LINE
8
BLACK
6
CONTINUOUS
10
81.468
20
-86.6662
11
81.4659
21
-86.6668
0
LINE
8
BLACK
6
CONTINUOUS
10
81.4659
20
-86.6668
11
81.323
21
-86.6885
0
LINE
8
BLACK
6
CONTINUOUS
10
81.323
20
-86.6885
11
81.3226
21
-86.6885
0
LINE
8
BLACK
6
CONTINUOUS
10
81.3226
20
-86.6885
11
81.3213
21
-86.6886
0
LINE
8
BLACK
6
CONTINUOUS
10
81.3213
20
-86.6886
11
81.3199
21
-86.6888
0
LINE
8
BLACK
6
CONTINUOUS
10
81.3199
20
-86.6888
11
81.2815
21
-86.6898
0
LINE
8
BLACK
6
CONTINUOUS
10
81.2815
20
-86.6898
11
81.2812
21
-86.6898
0
LINE
8
BLACK
6
CONTINUOUS
10
81.2812
20
-86.6898
11
78.1038
21
-86.6898
0
LINE
8
BLACK
6
CONTINUOUS
10
78.1038
20
-86.6898
11
78.1026
21
-86.6897
0
LINE
8
BLACK
6
CONTINUOUS
10
78.1026
20
-86.6897
11
78.1026
21
-86.6897
0
LINE
8
BLACK
6
CONTINUOUS
10
78.1026
20
-86.6897
11
77.9792
21
-86.6776
0
LINE
8
BLACK
6
CONTINUOUS
10
77.9792
20
-86.6776
11
77.9792
21
-86.6776
0
LINE
8
BLACK
6
CONTINUOUS
10
77.9792
20
-86.6776
11
77.9789
21
-86.6776
0
LINE
8
BLACK
6
CONTINUOUS
10
78.1051
20
-71.3228
11
78.1019
21
-71.3228
0
LINE
8
BLACK
6
CONTINUOUS
10
78.1019
20
-71.3228
11
77.9824
21
-71.3354
0
LINE
8
BLACK
6
CONTINUOUS
10
77.9824
20
-71.3354
11
77.8687
21
-71.3706
0
LINE
8
BLACK
6
CONTINUOUS
10
77.8687
20
-71.3706
11
77.764
21
-71.4272
0
LINE
8
BLACK
6
CONTINUOUS
10
77.764
20
-71.4272
11
77.6722
21
-71.5031
0
LINE
8
BLACK
6
CONTINUOUS
10
77.6722
20
-71.5031
11
77.597
21
-71.5953
0
LINE
8
BLACK
6
CONTINUOUS
10
77.597
20
-71.5953
11
77.5411
21
-71.7004
0
LINE
8
BLACK
6
CONTINUOUS
10
77.5411
20
-71.7004
11
77.5067
21
-71.8143
0
LINE
8
BLACK
6
CONTINUOUS
10
77.5067
20
-71.8143
11
77.495
21
-71.934
0
LINE
8
BLACK
6
CONTINUOUS
10
77.495
20
-71.934
11
77.495
21
-86.0297
0
LINE
8
BLACK
6
CONTINUOUS
10
77.495
20
-86.0297
11
77.495
21
-86.0329
0
LINE
8
BLACK
6
CONTINUOUS
10
77.495
20
-86.0329
11
77.5076
21
-86.1524
0
LINE
8
BLACK
6
CONTINUOUS
10
77.5076
20
-86.1524
11
77.5428
21
-86.2661
0
LINE
8
BLACK
6
CONTINUOUS
10
77.5428
20
-86.2661
11
77.5994
21
-86.3708
0
LINE
8
BLACK
6
CONTINUOUS
10
77.5994
20
-86.3708
11
77.6753
21
-86.4626
0
LINE
8
BLACK
6
CONTINUOUS
10
77.6753
20
-86.4626
11
77.7675
21
-86.5378
0
LINE
8
BLACK
6
CONTINUOUS
10
77.7675
20
-86.5378
11
77.8726
21
-86.5937
0
LINE
8
BLACK
6
CONTINUOUS
10
77.8726
20
-86.5937
11
77.9865
21
-86.6281
0
LINE
8
BLACK
6
CONTINUOUS
10
77.9865
20
-86.6281
11
78.1062
21
-86.6398
0
LINE
8
BLACK
6
CONTINUOUS
10
78.1062
20
-86.6398
11
81.2797
21
-86.6398
0
LINE
8
BLACK
6
CONTINUOUS
10
81.2797
20
-86.6398
11
81.317
21
-86.6388
0
LINE
8
BLACK
6
CONTINUOUS
10
81.317
20
-86.6388
11
81.4559
21
-86.6177
0
LINE
8
BLACK
6
CONTINUOUS
10
81.4559
20
-86.6177
11
81.5873
21
-86.5703
0
LINE
8
BLACK
6
CONTINUOUS
10
81.5873
20
-86.5703
11
81.7069
21
-86.4983
0
LINE
8
BLACK
6
CONTINUOUS
10
81.7069
20
-86.4983
11
81.8103
21
-86.4045
0
LINE
8
BLACK
6
CONTINUOUS
10
81.8103
20
-86.4045
11
81.8929
21
-86.2931
0
LINE
8
BLACK
6
CONTINUOUS
10
81.8929
20
-86.2931
11
82.0483
21
-85.8946
0
LINE
8
BLACK
6
CONTINUOUS
10
82.0483
20
-85.8946
11
82.0848
21
-85.7746
0
LINE
8
BLACK
6
CONTINUOUS
10
82.0848
20
-85.7746
11
82.0849
21
-85.7743
0
LINE
8
BLACK
6
CONTINUOUS
10
82.0849
20
-85.7743
11
82.0858
21
-85.7721
0
LINE
8
BLACK
6
CONTINUOUS
10
82.0858
20
-85.7721
11
82.0867
21
-85.7701
0
LINE
8
BLACK
6
CONTINUOUS
10
82.0867
20
-85.7701
11
82.1462
21
-85.6586
0
LINE
8
BLACK
6
CONTINUOUS
10
82.1462
20
-85.6586
11
82.1464
21
-85.6583
0
LINE
8
BLACK
6
CONTINUOUS
10
82.1464
20
-85.6583
11
82.1477
21
-85.6564
0
LINE
8
BLACK
6
CONTINUOUS
10
82.1477
20
-85.6564
11
82.1489
21
-85.6546
0
LINE
8
BLACK
6
CONTINUOUS
10
82.1489
20
-85.6546
11
82.229
21
-85.5568
0
LINE
8
BLACK
6
CONTINUOUS
10
82.229
20
-85.5568
11
82.2292
21
-85.5565
0
LINE
8
BLACK
6
CONTINUOUS
10
82.2292
20
-85.5565
11
82.2305
21
-85.5553
0
LINE
8
BLACK
6
CONTINUOUS
10
82.2305
20
-85.5553
11
82.2316
21
-85.554
0
LINE
8
BLACK
6
CONTINUOUS
10
82.2316
20
-85.554
11
82.2821
21
-85.5086
0
LINE
8
BLACK
6
CONTINUOUS
10
82.2821
20
-85.5086
11
82.2821
21
-85.5085
0
LINE
8
BLACK
6
CONTINUOUS
10
82.2821
20
-85.5085
11
82.2827
21
-85.508
0
LINE
8
BLACK
6
CONTINUOUS
10
82.2827
20
-85.508
11
82.2829
21
-85.5078
0
LINE
8
BLACK
6
CONTINUOUS
10
82.2829
20
-85.5078
11
82.2832
21
-85.5075
0
LINE
8
BLACK
6
CONTINUOUS
10
82.2832
20
-85.5075
11
82.2832
21
-85.5075
0
LINE
8
BLACK
6
CONTINUOUS
10
82.2832
20
-85.5075
11
83.414
21
-84.4946
0
LINE
8
BLACK
6
CONTINUOUS
10
83.414
20
-84.4946
11
83.414
21
-73.5933
0
LINE
8
BLACK
6
CONTINUOUS
10
83.414
20
-73.5933
11
82.4085
21
-72.4534
0
LINE
8
BLACK
6
CONTINUOUS
10
82.4085
20
-72.4534
11
82.3191
21
-72.3654
0
LINE
8
BLACK
6
CONTINUOUS
10
82.3191
20
-72.3654
11
82.3189
21
-72.3651
0
LINE
8
BLACK
6
CONTINUOUS
10
82.3189
20
-72.3651
11
82.3174
21
-72.3633
0
LINE
8
BLACK
6
CONTINUOUS
10
82.3174
20
-72.3633
11
82.316
21
-72.3616
0
LINE
8
BLACK
6
CONTINUOUS
10
82.316
20
-72.3616
11
82.2449
21
-72.2571
0
LINE
8
BLACK
6
CONTINUOUS
10
82.2449
20
-72.2571
11
82.2447
21
-72.2568
0
LINE
8
BLACK
6
CONTINUOUS
10
82.2447
20
-72.2568
11
82.2436
21
-72.2548
0
LINE
8
BLACK
6
CONTINUOUS
10
82.2436
20
-72.2548
11
82.2426
21
-72.2528
0
LINE
8
BLACK
6
CONTINUOUS
10
82.2426
20
-72.2528
11
82.1931
21
-72.1365
0
LINE
8
BLACK
6
CONTINUOUS
10
82.1931
20
-72.1365
11
82.193
21
-72.1362
0
LINE
8
BLACK
6
CONTINUOUS
10
82.193
20
-72.1362
11
82.1925
21
-72.1345
0
LINE
8
BLACK
6
CONTINUOUS
10
82.1925
20
-72.1345
11
82.1919
21
-72.1329
0
LINE
8
BLACK
6
CONTINUOUS
10
82.1919
20
-72.1329
11
82.1751
21
-72.0675
0
LINE
8
BLACK
6
CONTINUOUS
10
82.1751
20
-72.0675
11
82.0196
21
-71.6687
0
LINE
8
BLACK
6
CONTINUOUS
10
82.0196
20
-71.6687
11
82.0007
21
-71.639
0
LINE
8
BLACK
6
CONTINUOUS
10
82.0007
20
-71.639
11
81.9111
21
-71.5307
0
LINE
8
BLACK
6
CONTINUOUS
10
81.9111
20
-71.5307
11
81.8029
21
-71.4424
0
LINE
8
BLACK
6
CONTINUOUS
10
81.8029
20
-71.4424
11
81.6796
21
-71.3769
0
LINE
8
BLACK
6
CONTINUOUS
10
81.6796
20
-71.3769
11
81.546
21
-71.3365
0
LINE
8
BLACK
6
CONTINUOUS
10
81.546
20
-71.3365
11
81.4058
21
-71.3228
0
LINE
8
BLACK
6
CONTINUOUS
10
81.4058
20
-71.3228
11
78.1051
21
-71.3228
0
LINE
8
BLACK
6
CONTINUOUS
10
157.1
20
-70.2568
11
157.1
21
-70.2568
0
LINE
8
BLACK
6
CONTINUOUS
10
157.1
20
-70.2568
11
157.104
21
-70.2572
0
LINE
8
BLACK
6
CONTINUOUS
10
157.104
20
-70.2572
11
157.109
21
-70.2586
0
LINE
8
BLACK
6
CONTINUOUS
10
157.109
20
-70.2586
11
157.113
21
-70.2609
0
LINE
8
BLACK
6
CONTINUOUS
10
157.113
20
-70.2609
11
157.117
21
-70.264
0
LINE
8
BLACK
6
CONTINUOUS
10
157.117
20
-70.264
11
157.12
21
-70.2678
0
LINE
8
BLACK
6
CONTINUOUS
10
157.12
20
-70.2678
11
157.122
21
-70.2722
0
LINE
8
BLACK
6
CONTINUOUS
10
157.122
20
-70.2722
11
157.124
21
-70.2769
0
LINE
8
BLACK
6
CONTINUOUS
10
157.124
20
-70.2769
11
157.124
21
-70.2818
0
LINE
8
BLACK
6
CONTINUOUS
10
157.124
20
-70.2818
11
157.124
21
-70.283
0
LINE
8
BLACK
6
CONTINUOUS
10
157.124
20
-70.283
11
157.124
21
-83.0838
0
LINE
8
BLACK
6
CONTINUOUS
10
157.124
20
-83.0838
11
163.067
21
-83.0838
0
LINE
8
BLACK
6
CONTINUOUS
10
163.067
20
-83.0838
11
163.068
21
-83.0837
0
LINE
8
BLACK
6
CONTINUOUS
10
163.068
20
-83.0837
11
163.069
21
-83.0838
0
LINE
8
BLACK
6
CONTINUOUS
10
163.069
20
-83.0838
11
163.069
21
-83.0838
0
LINE
8
BLACK
6
CONTINUOUS
10
163.069
20
-83.0838
11
163.073
21
-83.0842
0
LINE
8
BLACK
6
CONTINUOUS
10
163.073
20
-83.0842
11
163.078
21
-83.0856
0
LINE
8
BLACK
6
CONTINUOUS
10
163.078
20
-83.0856
11
163.082
21
-83.0879
0
LINE
8
BLACK
6
CONTINUOUS
10
163.082
20
-83.0879
11
163.086
21
-83.091
0
LINE
8
BLACK
6
CONTINUOUS
10
163.086
20
-83.091
11
163.089
21
-83.0948
0
LINE
8
BLACK
6
CONTINUOUS
10
163.089
20
-83.0948
11
163.091
21
-83.0992
0
LINE
8
BLACK
6
CONTINUOUS
10
163.091
20
-83.0992
11
163.093
21
-83.1039
0
LINE
8
BLACK
6
CONTINUOUS
10
163.093
20
-83.1039
11
163.093
21
-83.1088
0
LINE
8
BLACK
6
CONTINUOUS
10
163.093
20
-83.1088
11
163.093
21
-83.11
0
LINE
8
BLACK
6
CONTINUOUS
10
163.093
20
-83.11
11
163.093
21
-85.7746
0
LINE
8
BLACK
6
CONTINUOUS
10
163.093
20
-85.7746
11
163.093
21
-85.7758
0
LINE
8
BLACK
6
CONTINUOUS
10
163.093
20
-85.7758
11
163.093
21
-85.777
0
LINE
8
BLACK
6
CONTINUOUS
10
163.093
20
-85.777
11
163.093
21
-85.7807
0
LINE
8
BLACK
6
CONTINUOUS
10
163.093
20
-85.7807
11
163.091
21
-85.7854
0
LINE
8
BLACK
6
CONTINUOUS
10
163.091
20
-85.7854
11
163.089
21
-85.7898
0
LINE
8
BLACK
6
CONTINUOUS
10
163.089
20
-85.7898
11
163.086
21
-85.7936
0
LINE
8
BLACK
6
CONTINUOUS
10
163.086
20
-85.7936
11
163.082
21
-85.7967
0
LINE
8
BLACK
6
CONTINUOUS
10
163.082
20
-85.7967
11
163.078
21
-85.799
0
LINE
8
BLACK
6
CONTINUOUS
10
163.078
20
-85.799
11
163.073
21
-85.8004
0
LINE
8
BLACK
6
CONTINUOUS
10
163.073
20
-85.8004
11
163.068
21
-85.8009
0
LINE
8
BLACK
6
CONTINUOUS
10
163.068
20
-85.8009
11
163.067
21
-85.8008
0
LINE
8
BLACK
6
CONTINUOUS
10
163.067
20
-85.8008
11
149.734
21
-85.8008
0
LINE
8
BLACK
6
CONTINUOUS
10
149.734
20
-85.8008
11
149.733
21
-85.8009
0
LINE
8
BLACK
6
CONTINUOUS
10
149.733
20
-85.8009
11
149.732
21
-85.8008
0
LINE
8
BLACK
6
CONTINUOUS
10
149.732
20
-85.8008
11
149.732
21
-85.8008
0
LINE
8
BLACK
6
CONTINUOUS
10
149.732
20
-85.8008
11
149.728
21
-85.8004
0
LINE
8
BLACK
6
CONTINUOUS
10
149.728
20
-85.8004
11
149.723
21
-85.799
0
LINE
8
BLACK
6
CONTINUOUS
10
149.723
20
-85.799
11
149.719
21
-85.7967
0
LINE
8
BLACK
6
CONTINUOUS
10
149.719
20
-85.7967
11
149.715
21
-85.7936
0
LINE
8
BLACK
6
CONTINUOUS
10
149.715
20
-85.7936
11
149.712
21
-85.7898
0
LINE
8
BLACK
6
CONTINUOUS
10
149.712
20
-85.7898
11
149.71
21
-85.7854
0
LINE
8
BLACK
6
CONTINUOUS
10
149.71
20
-85.7854
11
149.708
21
-85.7807
0
LINE
8
BLACK
6
CONTINUOUS
10
149.708
20
-85.7807
11
149.708
21
-85.7758
0
LINE
8
BLACK
6
CONTINUOUS
10
149.708
20
-85.7758
11
149.708
21
-85.7746
0
LINE
8
BLACK
6
CONTINUOUS
10
149.708
20
-85.7746
11
149.708
21
-83.2608
0
LINE
8
BLACK
6
CONTINUOUS
10
149.708
20
-83.2608
11
94.6138
21
-83.2608
0
LINE
8
BLACK
6
CONTINUOUS
10
94.6138
20
-83.2608
11
94.6126
21
-83.2607
0
LINE
8
BLACK
6
CONTINUOUS
10
94.6126
20
-83.2607
11
94.6126
21
-83.2607
0
LINE
8
BLACK
6
CONTINUOUS
10
94.6126
20
-83.2607
11
94.4152
21
-83.2413
0
LINE
8
BLACK
6
CONTINUOUS
10
94.4152
20
-83.2413
11
94.4149
21
-83.2413
0
LINE
8
BLACK
6
CONTINUOUS
10
94.4149
20
-83.2413
11
94.4126
21
-83.2408
0
LINE
8
BLACK
6
CONTINUOUS
10
94.4126
20
-83.2408
11
94.4104
21
-83.2404
0
LINE
8
BLACK
6
CONTINUOUS
10
94.4104
20
-83.2404
11
94.2206
21
-83.1831
0
LINE
8
BLACK
6
CONTINUOUS
10
94.2206
20
-83.1831
11
94.2203
21
-83.183
0
LINE
8
BLACK
6
CONTINUOUS
10
94.2203
20
-83.183
11
94.2182
21
-83.1821
0
LINE
8
BLACK
6
CONTINUOUS
10
94.2182
20
-83.1821
11
94.2161
21
-83.1812
0
LINE
8
BLACK
6
CONTINUOUS
10
94.2161
20
-83.1812
11
94.041
21
-83.0881
0
LINE
8
BLACK
6
CONTINUOUS
10
94.041
20
-83.0881
11
94.0407
21
-83.088
0
LINE
8
BLACK
6
CONTINUOUS
10
94.0407
20
-83.088
11
94.0389
21
-83.0867
0
LINE
8
BLACK
6
CONTINUOUS
10
94.0389
20
-83.0867
11
94.037
21
-83.0854
0
LINE
8
BLACK
6
CONTINUOUS
10
94.037
20
-83.0854
11
93.8833
21
-82.9601
0
LINE
8
BLACK
6
CONTINUOUS
10
93.8833
20
-82.9601
11
93.883
21
-82.9599
0
LINE
8
BLACK
6
CONTINUOUS
10
93.883
20
-82.9599
11
93.8814
21
-82.9583
0
LINE
8
BLACK
6
CONTINUOUS
10
93.8814
20
-82.9583
11
93.8798
21
-82.9567
0
LINE
8
BLACK
6
CONTINUOUS
10
93.8798
20
-82.9567
11
93.7534
21
-82.8039
0
LINE
8
BLACK
6
CONTINUOUS
10
93.7534
20
-82.8039
11
93.7532
21
-82.8036
0
LINE
8
BLACK
6
CONTINUOUS
10
93.7532
20
-82.8036
11
93.752
21
-82.8017
0
LINE
8
BLACK
6
CONTINUOUS
10
93.752
20
-82.8017
11
93.7507
21
-82.7998
0
LINE
8
BLACK
6
CONTINUOUS
10
93.7507
20
-82.7998
11
93.6564
21
-82.6254
0
LINE
8
BLACK
6
CONTINUOUS
10
93.6564
20
-82.6254
11
93.6562
21
-82.6251
0
LINE
8
BLACK
6
CONTINUOUS
10
93.6562
20
-82.6251
11
93.6554
21
-82.623
0
LINE
8
BLACK
6
CONTINUOUS
10
93.6554
20
-82.623
11
93.6545
21
-82.6209
0
LINE
8
BLACK
6
CONTINUOUS
10
93.6545
20
-82.6209
11
93.5959
21
-82.4315
0
LINE
8
BLACK
6
CONTINUOUS
10
93.5959
20
-82.4315
11
93.5958
21
-82.4312
0
LINE
8
BLACK
6
CONTINUOUS
10
93.5958
20
-82.4312
11
93.5953
21
-82.4289
0
LINE
8
BLACK
6
CONTINUOUS
10
93.5953
20
-82.4289
11
93.5949
21
-82.4267
0
LINE
8
BLACK
6
CONTINUOUS
10
93.5949
20
-82.4267
11
93.5742
21
-82.2295
0
LINE
8
BLACK
6
CONTINUOUS
10
93.5742
20
-82.2295
11
93.5741
21
-82.2292
0
LINE
8
BLACK
6
CONTINUOUS
10
93.5741
20
-82.2292
11
93.5741
21
-82.2281
0
LINE
8
BLACK
6
CONTINUOUS
10
93.5741
20
-82.2281
11
93.574
21
-82.227
0
LINE
8
BLACK
6
CONTINUOUS
10
93.574
20
-82.227
11
93.574
21
-82.2211
0
LINE
8
BLACK
6
CONTINUOUS
10
93.574
20
-82.2211
11
93.574
21
-82.221
0
LINE
8
BLACK
6
CONTINUOUS
10
93.574
20
-82.221
11
93.574
21
-70.283
0
LINE
8
BLACK
6
CONTINUOUS
10
93.574
20
-70.283
11
93.5739
21
-70.2818
0
LINE
8
BLACK
6
CONTINUOUS
10
93.5739
20
-70.2818
11
93.5744
21
-70.2769
0
LINE
8
BLACK
6
CONTINUOUS
10
93.5744
20
-70.2769
11
93.5758
21
-70.2722
0
LINE
8
BLACK
6
CONTINUOUS
10
93.5758
20
-70.2722
11
93.5781
21
-70.2678
0
LINE
8
BLACK
6
CONTINUOUS
10
93.5781
20
-70.2678
11
93.5812
21
-70.264
0
LINE
8
BLACK
6
CONTINUOUS
10
93.5812
20
-70.264
11
93.585
21
-70.2609
0
LINE
8
BLACK
6
CONTINUOUS
10
93.585
20
-70.2609
11
93.5894
21
-70.2586
0
LINE
8
BLACK
6
CONTINUOUS
10
93.5894
20
-70.2586
11
93.5941
21
-70.2572
0
LINE
8
BLACK
6
CONTINUOUS
10
93.5941
20
-70.2572
11
93.5978
21
-70.2568
0
LINE
8
BLACK
6
CONTINUOUS
10
93.5978
20
-70.2568
11
93.5978
21
-70.2568
0
LINE
8
BLACK
6
CONTINUOUS
10
93.5978
20
-70.2568
11
93.599
21
-70.2567
0
LINE
8
BLACK
6
CONTINUOUS
10
93.599
20
-70.2567
11
93.6002
21
-70.2568
0
LINE
8
BLACK
6
CONTINUOUS
10
93.6002
20
-70.2568
11
157.098
21
-70.2568
0
LINE
8
BLACK
6
CONTINUOUS
10
157.098
20
-70.2568
11
157.099
21
-70.2567
0
LINE
8
BLACK
6
CONTINUOUS
10
157.099
20
-70.2567
11
157.1
21
-70.2568
0
LINE
8
BLACK
6
CONTINUOUS
10
93.624
20
-70.3068
11
93.624
21
-82.2197
0
LINE
8
BLACK
6
CONTINUOUS
10
93.624
20
-82.2197
11
93.624
21
-82.2255
0
LINE
8
BLACK
6
CONTINUOUS
10
93.624
20
-82.2255
11
93.6444
21
-82.419
0
LINE
8
BLACK
6
CONTINUOUS
10
93.6444
20
-82.419
11
93.7015
21
-82.6038
0
LINE
8
BLACK
6
CONTINUOUS
10
93.7015
20
-82.6038
11
93.7935
21
-82.7739
0
LINE
8
BLACK
6
CONTINUOUS
10
93.7935
20
-82.7739
11
93.9168
21
-82.9229
0
LINE
8
BLACK
6
CONTINUOUS
10
93.9168
20
-82.9229
11
94.0667
21
-83.0451
0
LINE
8
BLACK
6
CONTINUOUS
10
94.0667
20
-83.0451
11
94.2374
21
-83.1359
0
LINE
8
BLACK
6
CONTINUOUS
10
94.2374
20
-83.1359
11
94.4225
21
-83.1918
0
LINE
8
BLACK
6
CONTINUOUS
10
94.4225
20
-83.1918
11
94.6162
21
-83.2108
0
LINE
8
BLACK
6
CONTINUOUS
10
94.6162
20
-83.2108
11
149.732
21
-83.2108
0
LINE
8
BLACK
6
CONTINUOUS
10
149.732
20
-83.2108
11
149.733
21
-83.2107
0
LINE
8
BLACK
6
CONTINUOUS
10
149.733
20
-83.2107
11
149.734
21
-83.2108
0
LINE
8
BLACK
6
CONTINUOUS
10
149.734
20
-83.2108
11
149.734
21
-83.2108
0
LINE
8
BLACK
6
CONTINUOUS
10
149.734
20
-83.2108
11
149.738
21
-83.2112
0
LINE
8
BLACK
6
CONTINUOUS
10
149.738
20
-83.2112
11
149.743
21
-83.2126
0
LINE
8
BLACK
6
CONTINUOUS
10
149.743
20
-83.2126
11
149.747
21
-83.2149
0
LINE
8
BLACK
6
CONTINUOUS
10
149.747
20
-83.2149
11
149.751
21
-83.218
0
LINE
8
BLACK
6
CONTINUOUS
10
149.751
20
-83.218
11
149.754
21
-83.2218
0
LINE
8
BLACK
6
CONTINUOUS
10
149.754
20
-83.2218
11
149.756
21
-83.2262
0
LINE
8
BLACK
6
CONTINUOUS
10
149.756
20
-83.2262
11
149.758
21
-83.2309
0
LINE
8
BLACK
6
CONTINUOUS
10
149.758
20
-83.2309
11
149.758
21
-83.2358
0
LINE
8
BLACK
6
CONTINUOUS
10
149.758
20
-83.2358
11
149.758
21
-83.237
0
LINE
8
BLACK
6
CONTINUOUS
10
149.758
20
-83.237
11
149.758
21
-85.7508
0
LINE
8
BLACK
6
CONTINUOUS
10
149.758
20
-85.7508
11
163.043
21
-85.7508
0
LINE
8
BLACK
6
CONTINUOUS
10
163.043
20
-85.7508
11
163.043
21
-83.1338
0
LINE
8
BLACK
6
CONTINUOUS
10
163.043
20
-83.1338
11
157.1
21
-83.1338
0
LINE
8
BLACK
6
CONTINUOUS
10
157.1
20
-83.1338
11
157.099
21
-83.1339
0
LINE
8
BLACK
6
CONTINUOUS
10
157.099
20
-83.1339
11
157.098
21
-83.1338
0
LINE
8
BLACK
6
CONTINUOUS
10
157.098
20
-83.1338
11
157.098
21
-83.1338
0
LINE
8
BLACK
6
CONTINUOUS
10
157.098
20
-83.1338
11
157.094
21
-83.1334
0
LINE
8
BLACK
6
CONTINUOUS
10
157.094
20
-83.1334
11
157.089
21
-83.132
0
LINE
8
BLACK
6
CONTINUOUS
10
157.089
20
-83.132
11
157.085
21
-83.1297
0
LINE
8
BLACK
6
CONTINUOUS
10
157.085
20
-83.1297
11
157.081
21
-83.1266
0
LINE
8
BLACK
6
CONTINUOUS
10
157.081
20
-83.1266
11
157.078
21
-83.1228
0
LINE
8
BLACK
6
CONTINUOUS
10
157.078
20
-83.1228
11
157.076
21
-83.1184
0
LINE
8
BLACK
6
CONTINUOUS
10
157.076
20
-83.1184
11
157.074
21
-83.1137
0
LINE
8
BLACK
6
CONTINUOUS
10
157.074
20
-83.1137
11
157.074
21
-83.1088
0
LINE
8
BLACK
6
CONTINUOUS
10
157.074
20
-83.1088
11
157.074
21
-83.1076
0
LINE
8
BLACK
6
CONTINUOUS
10
157.074
20
-83.1076
11
157.074
21
-70.3068
0
LINE
8
BLACK
6
CONTINUOUS
10
157.074
20
-70.3068
11
93.624
21
-70.3068
0
LINE
8
BLACK
6
CONTINUOUS
10
77.2172
20
-68.7836
11
77.2209
21
-68.784
0
LINE
8
BLACK
6
CONTINUOUS
10
77.2209
20
-68.784
11
77.2256
21
-68.7854
0
LINE
8
BLACK
6
CONTINUOUS
10
77.2256
20
-68.7854
11
77.23
21
-68.7877
0
LINE
8
BLACK
6
CONTINUOUS
10
77.23
20
-68.7877
11
77.2338
21
-68.7908
0
LINE
8
BLACK
6
CONTINUOUS
10
77.2338
20
-68.7908
11
77.2369
21
-68.7946
0
LINE
8
BLACK
6
CONTINUOUS
10
77.2369
20
-68.7946
11
77.2392
21
-68.799
0
LINE
8
BLACK
6
CONTINUOUS
10
77.2392
20
-68.799
11
77.2406
21
-68.8037
0
LINE
8
BLACK
6
CONTINUOUS
10
77.2406
20
-68.8037
11
77.2411
21
-68.8086
0
LINE
8
BLACK
6
CONTINUOUS
10
77.2411
20
-68.8086
11
77.241
21
-68.8098
0
LINE
8
BLACK
6
CONTINUOUS
10
77.241
20
-68.8098
11
77.241
21
-70.4076
0
LINE
8
BLACK
6
CONTINUOUS
10
77.241
20
-70.4076
11
77.2411
21
-70.4088
0
LINE
8
BLACK
6
CONTINUOUS
10
77.2411
20
-70.4088
11
77.2406
21
-70.4137
0
LINE
8
BLACK
6
CONTINUOUS
10
77.2406
20
-70.4137
11
77.2392
21
-70.4184
0
LINE
8
BLACK
6
CONTINUOUS
10
77.2392
20
-70.4184
11
77.2369
21
-70.4228
0
LINE
8
BLACK
6
CONTINUOUS
10
77.2369
20
-70.4228
11
77.2338
21
-70.4266
0
LINE
8
BLACK
6
CONTINUOUS
10
77.2338
20
-70.4266
11
77.23
21
-70.4297
0
LINE
8
BLACK
6
CONTINUOUS
10
77.23
20
-70.4297
11
77.2256
21
-70.432
0
LINE
8
BLACK
6
CONTINUOUS
10
77.2256
20
-70.432
11
77.2209
21
-70.4334
0
LINE
8
BLACK
6
CONTINUOUS
10
77.2209
20
-70.4334
11
77.2172
21
-70.4338
0
LINE
8
BLACK
6
CONTINUOUS
10
77.2172
20
-70.4338
11
77.2172
21
-70.4338
0
LINE
8
BLACK
6
CONTINUOUS
10
77.2172
20
-70.4338
11
77.216
21
-70.4339
0
LINE
8
BLACK
6
CONTINUOUS
10
77.216
20
-70.4339
11
77.2148
21
-70.4338
0
LINE
8
BLACK
6
CONTINUOUS
10
77.2148
20
-70.4338
11
70.918
21
-70.4338
0
LINE
8
BLACK
6
CONTINUOUS
10
70.918
20
-70.4338
11
70.9168
21
-70.4339
0
LINE
8
BLACK
6
CONTINUOUS
10
70.9168
20
-70.4339
11
70.9156
21
-70.4338
0
LINE
8
BLACK
6
CONTINUOUS
10
70.9156
20
-70.4338
11
70.9156
21
-70.4338
0
LINE
8
BLACK
6
CONTINUOUS
10
70.9156
20
-70.4338
11
70.9119
21
-70.4334
0
LINE
8
BLACK
6
CONTINUOUS
10
70.9119
20
-70.4334
11
70.9072
21
-70.432
0
LINE
8
BLACK
6
CONTINUOUS
10
70.9072
20
-70.432
11
70.9028
21
-70.4297
0
LINE
8
BLACK
6
CONTINUOUS
10
70.9028
20
-70.4297
11
70.899
21
-70.4266
0
LINE
8
BLACK
6
CONTINUOUS
10
70.899
20
-70.4266
11
70.8959
21
-70.4228
0
LINE
8
BLACK
6
CONTINUOUS
10
70.8959
20
-70.4228
11
70.8936
21
-70.4184
0
LINE
8
BLACK
6
CONTINUOUS
10
70.8936
20
-70.4184
11
70.8922
21
-70.4137
0
LINE
8
BLACK
6
CONTINUOUS
10
70.8922
20
-70.4137
11
70.8917
21
-70.4088
0
LINE
8
BLACK
6
CONTINUOUS
10
70.8917
20
-70.4088
11
70.8918
21
-70.4076
0
LINE
8
BLACK
6
CONTINUOUS
10
70.8918
20
-70.4076
11
70.8918
21
-68.8098
0
LINE
8
BLACK
6
CONTINUOUS
10
70.8918
20
-68.8098
11
70.8917
21
-68.8086
0
LINE
8
BLACK
6
CONTINUOUS
10
70.8917
20
-68.8086
11
70.8922
21
-68.8037
0
LINE
8
BLACK
6
CONTINUOUS
10
70.8922
20
-68.8037
11
70.8936
21
-68.799
0
LINE
8
BLACK
6
CONTINUOUS
10
70.8936
20
-68.799
11
70.8959
21
-68.7946
0
LINE
8
BLACK
6
CONTINUOUS
10
70.8959
20
-68.7946
11
70.899
21
-68.7908
0
LINE
8
BLACK
6
CONTINUOUS
10
70.899
20
-68.7908
11
70.9028
21
-68.7877
0
LINE
8
BLACK
6
CONTINUOUS
10
70.9028
20
-68.7877
11
70.9072
21
-68.7854
0
LINE
8
BLACK
6
CONTINUOUS
10
70.9072
20
-68.7854
11
70.9119
21
-68.784
0
LINE
8
BLACK
6
CONTINUOUS
10
70.9119
20
-68.784
11
70.9156
21
-68.7836
0
LINE
8
BLACK
6
CONTINUOUS
10
70.9156
20
-68.7836
11
70.9168
21
-68.7835
0
LINE
8
BLACK
6
CONTINUOUS
10
70.9168
20
-68.7835
11
70.918
21
-68.7836
0
LINE
8
BLACK
6
CONTINUOUS
10
70.918
20
-68.7836
11
77.2148
21
-68.7836
0
LINE
8
BLACK
6
CONTINUOUS
10
77.2148
20
-68.7836
11
77.216
21
-68.7835
0
LINE
8
BLACK
6
CONTINUOUS
10
77.216
20
-68.7835
11
77.2172
21
-68.7836
0
LINE
8
BLACK
6
CONTINUOUS
10
70.9418
20
-68.8336
11
70.9418
21
-70.3838
0
LINE
8
BLACK
6
CONTINUOUS
10
70.9418
20
-70.3838
11
77.191
21
-70.3838
0
LINE
8
BLACK
6
CONTINUOUS
10
77.191
20
-70.3838
11
77.191
21
-68.8336
0
LINE
8
BLACK
6
CONTINUOUS
10
77.191
20
-68.8336
11
70.9418
21
-68.8336
0
LINE
8
BLACK
6
CONTINUOUS
10
165.152
20
-68.7709
11
165.156
21
-68.7713
0
LINE
8
BLACK
6
CONTINUOUS
10
165.156
20
-68.7713
11
165.16
21
-68.7727
0
LINE
8
BLACK
6
CONTINUOUS
10
165.16
20
-68.7727
11
165.165
21
-68.775
0
LINE
8
BLACK
6
CONTINUOUS
10
165.165
20
-68.775
11
165.169
21
-68.7781
0
LINE
8
BLACK
6
CONTINUOUS
10
165.169
20
-68.7781
11
165.172
21
-68.7819
0
LINE
8
BLACK
6
CONTINUOUS
10
165.172
20
-68.7819
11
165.174
21
-68.7863
0
LINE
8
BLACK
6
CONTINUOUS
10
165.174
20
-68.7863
11
165.175
21
-68.791
0
LINE
8
BLACK
6
CONTINUOUS
10
165.175
20
-68.791
11
165.176
21
-68.7959
0
LINE
8
BLACK
6
CONTINUOUS
10
165.176
20
-68.7959
11
165.176
21
-68.7971
0
LINE
8
BLACK
6
CONTINUOUS
10
165.176
20
-68.7971
11
165.176
21
-70.3949
0
LINE
8
BLACK
6
CONTINUOUS
10
165.176
20
-70.3949
11
165.176
21
-70.3961
0
LINE
8
BLACK
6
CONTINUOUS
10
165.176
20
-70.3961
11
165.175
21
-70.401
0
LINE
8
BLACK
6
CONTINUOUS
10
165.175
20
-70.401
11
165.174
21
-70.4057
0
LINE
8
BLACK
6
CONTINUOUS
10
165.174
20
-70.4057
11
165.172
21
-70.4101
0
LINE
8
BLACK
6
CONTINUOUS
10
165.172
20
-70.4101
11
165.169
21
-70.4139
0
LINE
8
BLACK
6
CONTINUOUS
10
165.169
20
-70.4139
11
165.165
21
-70.417
0
LINE
8
BLACK
6
CONTINUOUS
10
165.165
20
-70.417
11
165.16
21
-70.4193
0
LINE
8
BLACK
6
CONTINUOUS
10
165.16
20
-70.4193
11
165.156
21
-70.4207
0
LINE
8
BLACK
6
CONTINUOUS
10
165.156
20
-70.4207
11
165.152
21
-70.4211
0
LINE
8
BLACK
6
CONTINUOUS
10
165.152
20
-70.4211
11
165.152
21
-70.4211
0
LINE
8
BLACK
6
CONTINUOUS
10
165.152
20
-70.4211
11
165.151
21
-70.4212
0
LINE
8
BLACK
6
CONTINUOUS
10
165.151
20
-70.4212
11
165.15
21
-70.4211
0
LINE
8
BLACK
6
CONTINUOUS
10
165.15
20
-70.4211
11
158.853
21
-70.4211
0
LINE
8
BLACK
6
CONTINUOUS
10
158.853
20
-70.4211
11
158.852
21
-70.4212
0
LINE
8
BLACK
6
CONTINUOUS
10
158.852
20
-70.4212
11
158.85
21
-70.4211
0
LINE
8
BLACK
6
CONTINUOUS
10
158.85
20
-70.4211
11
158.85
21
-70.4211
0
LINE
8
BLACK
6
CONTINUOUS
10
158.85
20
-70.4211
11
158.847
21
-70.4207
0
LINE
8
BLACK
6
CONTINUOUS
10
158.847
20
-70.4207
11
158.842
21
-70.4193
0
LINE
8
BLACK
6
CONTINUOUS
10
158.842
20
-70.4193
11
158.838
21
-70.417
0
LINE
8
BLACK
6
CONTINUOUS
10
158.838
20
-70.417
11
158.834
21
-70.4139
0
LINE
8
BLACK
6
CONTINUOUS
10
158.834
20
-70.4139
11
158.831
21
-70.4101
0
LINE
8
BLACK
6
CONTINUOUS
10
158.831
20
-70.4101
11
158.828
21
-70.4057
0
LINE
8
BLACK
6
CONTINUOUS
10
158.828
20
-70.4057
11
158.827
21
-70.401
0
LINE
8
BLACK
6
CONTINUOUS
10
158.827
20
-70.401
11
158.826
21
-70.3961
0
LINE
8
BLACK
6
CONTINUOUS
10
158.826
20
-70.3961
11
158.827
21
-70.3949
0
LINE
8
BLACK
6
CONTINUOUS
10
158.827
20
-70.3949
11
158.827
21
-68.7971
0
LINE
8
BLACK
6
CONTINUOUS
10
158.827
20
-68.7971
11
158.826
21
-68.7959
0
LINE
8
BLACK
6
CONTINUOUS
10
158.826
20
-68.7959
11
158.827
21
-68.791
0
LINE
8
BLACK
6
CONTINUOUS
10
158.827
20
-68.791
11
158.828
21
-68.7863
0
LINE
8
BLACK
6
CONTINUOUS
10
158.828
20
-68.7863
11
158.831
21
-68.7819
0
LINE
8
BLACK
6
CONTINUOUS
10
158.831
20
-68.7819
11
158.834
21
-68.7781
0
LINE
8
BLACK
6
CONTINUOUS
10
158.834
20
-68.7781
11
158.838
21
-68.775
0
LINE
8
BLACK
6
CONTINUOUS
10
158.838
20
-68.775
11
158.842
21
-68.7727
0
LINE
8
BLACK
6
CONTINUOUS
10
158.842
20
-68.7727
11
158.847
21
-68.7713
0
LINE
8
BLACK
6
CONTINUOUS
10
158.847
20
-68.7713
11
158.85
21
-68.7709
0
LINE
8
BLACK
6
CONTINUOUS
10
158.85
20
-68.7709
11
158.852
21
-68.7708
0
LINE
8
BLACK
6
CONTINUOUS
10
158.852
20
-68.7708
11
158.853
21
-68.7709
0
LINE
8
BLACK
6
CONTINUOUS
10
158.853
20
-68.7709
11
165.15
21
-68.7709
0
LINE
8
BLACK
6
CONTINUOUS
10
165.15
20
-68.7709
11
165.151
21
-68.7708
0
LINE
8
BLACK
6
CONTINUOUS
10
165.151
20
-68.7708
11
165.152
21
-68.7709
0
LINE
8
BLACK
6
CONTINUOUS
10
158.877
20
-68.8209
11
158.877
21
-70.3711
0
LINE
8
BLACK
6
CONTINUOUS
10
158.877
20
-70.3711
11
165.126
21
-70.3711
0
LINE
8
BLACK
6
CONTINUOUS
10
165.126
20
-70.3711
11
165.126
21
-68.8209
0
LINE
8
BLACK
6
CONTINUOUS
10
165.126
20
-68.8209
11
158.877
21
-68.8209
0
LINE
8
BLACK
6
CONTINUOUS
10
85.9217
20
-76.1978
11
86.1652
21
-75.6101
0
LINE
8
BLACK
6
CONTINUOUS
10
86.1652
20
-75.6101
11
86.5186
21
-75.0812
0
LINE
8
BLACK
6
CONTINUOUS
10
86.5186
20
-75.0812
11
86.9684
21
-74.6314
0
LINE
8
BLACK
6
CONTINUOUS
10
86.9684
20
-74.6314
11
87.4973
21
-74.278
0
LINE
8
BLACK
6
CONTINUOUS
10
87.4973
20
-74.278
11
88.085
21
-74.0345
0
LINE
8
BLACK
6
CONTINUOUS
10
88.085
20
-74.0345
11
88.7089
21
-73.9104
0
LINE
8
BLACK
6
CONTINUOUS
10
88.7089
20
-73.9104
11
89.3451
21
-73.9104
0
LINE
8
BLACK
6
CONTINUOUS
10
89.3451
20
-73.9104
11
89.969
21
-74.0345
0
LINE
8
BLACK
6
CONTINUOUS
10
89.969
20
-74.0345
11
90.5567
21
-74.278
0
LINE
8
BLACK
6
CONTINUOUS
10
90.5567
20
-74.278
11
91.0856
21
-74.6314
0
LINE
8
BLACK
6
CONTINUOUS
10
91.0856
20
-74.6314
11
91.5354
21
-75.0812
0
LINE
8
BLACK
6
CONTINUOUS
10
91.5354
20
-75.0812
11
91.8888
21
-75.6101
0
LINE
8
BLACK
6
CONTINUOUS
10
91.8888
20
-75.6101
11
92.1323
21
-76.1978
0
LINE
8
BLACK
6
CONTINUOUS
10
92.1323
20
-76.1978
11
92.2564
21
-76.8217
0
LINE
8
BLACK
6
CONTINUOUS
10
92.2564
20
-76.8217
11
92.2564
21
-77.4579
0
LINE
8
BLACK
6
CONTINUOUS
10
92.2564
20
-77.4579
11
92.1323
21
-78.0818
0
LINE
8
BLACK
6
CONTINUOUS
10
92.1323
20
-78.0818
11
91.8888
21
-78.6695
0
LINE
8
BLACK
6
CONTINUOUS
10
91.8888
20
-78.6695
11
91.5354
21
-79.1984
0
LINE
8
BLACK
6
CONTINUOUS
10
91.5354
20
-79.1984
11
91.0856
21
-79.6482
0
LINE
8
BLACK
6
CONTINUOUS
10
91.0856
20
-79.6482
11
90.5567
21
-80.0016
0
LINE
8
BLACK
6
CONTINUOUS
10
90.5567
20
-80.0016
11
89.969
21
-80.2451
0
LINE
8
BLACK
6
CONTINUOUS
10
89.969
20
-80.2451
11
89.3451
21
-80.3692
0
LINE
8
BLACK
6
CONTINUOUS
10
89.3451
20
-80.3692
11
88.7089
21
-80.3692
0
LINE
8
BLACK
6
CONTINUOUS
10
88.7089
20
-80.3692
11
88.085
21
-80.2451
0
LINE
8
BLACK
6
CONTINUOUS
10
88.085
20
-80.2451
11
87.4973
21
-80.0016
0
LINE
8
BLACK
6
CONTINUOUS
10
87.4973
20
-80.0016
11
86.9684
21
-79.6482
0
LINE
8
BLACK
6
CONTINUOUS
10
86.9684
20
-79.6482
11
86.5186
21
-79.1984
0
LINE
8
BLACK
6
CONTINUOUS
10
86.5186
20
-79.1984
11
86.1652
21
-78.6695
0
LINE
8
BLACK
6
CONTINUOUS
10
86.1652
20
-78.6695
11
85.9217
21
-78.0818
0
LINE
8
BLACK
6
CONTINUOUS
10
85.9217
20
-78.0818
11
85.7976
21
-77.4579
0
LINE
8
BLACK
6
CONTINUOUS
10
85.7976
20
-77.4579
11
85.7976
21
-76.8217
0
LINE
8
BLACK
6
CONTINUOUS
10
85.7976
20
-76.8217
11
85.9217
21
-76.1978
0
LINE
8
BLACK
6
CONTINUOUS
10
85.9887
20
-78.0615
11
86.2269
21
-78.6365
0
LINE
8
BLACK
6
CONTINUOUS
10
86.2269
20
-78.6365
11
86.5727
21
-79.154
0
LINE
8
BLACK
6
CONTINUOUS
10
86.5727
20
-79.154
11
87.0128
21
-79.5941
0
LINE
8
BLACK
6
CONTINUOUS
10
87.0128
20
-79.5941
11
87.5303
21
-79.9399
0
LINE
8
BLACK
6
CONTINUOUS
10
87.5303
20
-79.9399
11
88.1053
21
-80.1781
0
LINE
8
BLACK
6
CONTINUOUS
10
88.1053
20
-80.1781
11
88.7158
21
-80.2995
0
LINE
8
BLACK
6
CONTINUOUS
10
88.7158
20
-80.2995
11
89.3382
21
-80.2995
0
LINE
8
BLACK
6
CONTINUOUS
10
89.3382
20
-80.2995
11
89.9487
21
-80.1781
0
LINE
8
BLACK
6
CONTINUOUS
10
89.9487
20
-80.1781
11
90.5237
21
-79.9399
0
LINE
8
BLACK
6
CONTINUOUS
10
90.5237
20
-79.9399
11
91.0412
21
-79.5941
0
LINE
8
BLACK
6
CONTINUOUS
10
91.0412
20
-79.5941
11
91.4813
21
-79.154
0
LINE
8
BLACK
6
CONTINUOUS
10
91.4813
20
-79.154
11
91.8271
21
-78.6365
0
LINE
8
BLACK
6
CONTINUOUS
10
91.8271
20
-78.6365
11
92.0653
21
-78.0615
0
LINE
8
BLACK
6
CONTINUOUS
10
92.0653
20
-78.0615
11
92.1867
21
-77.451
0
LINE
8
BLACK
6
CONTINUOUS
10
92.1867
20
-77.451
11
92.1867
21
-76.8286
0
LINE
8
BLACK
6
CONTINUOUS
10
92.1867
20
-76.8286
11
92.0653
21
-76.2181
0
LINE
8
BLACK
6
CONTINUOUS
10
92.0653
20
-76.2181
11
91.8271
21
-75.6431
0
LINE
8
BLACK
6
CONTINUOUS
10
91.8271
20
-75.6431
11
91.4813
21
-75.1256
0
LINE
8
BLACK
6
CONTINUOUS
10
91.4813
20
-75.1256
11
91.0412
21
-74.6855
0
LINE
8
BLACK
6
CONTINUOUS
10
91.0412
20
-74.6855
11
90.5237
21
-74.3397
0
LINE
8
BLACK
6
CONTINUOUS
10
90.5237
20
-74.3397
11
89.9487
21
-74.1015
0
LINE
8
BLACK
6
CONTINUOUS
10
89.9487
20
-74.1015
11
89.3382
21
-73.9801
0
LINE
8
BLACK
6
CONTINUOUS
10
89.3382
20
-73.9801
11
88.7158
21
-73.9801
0
LINE
8
BLACK
6
CONTINUOUS
10
88.7158
20
-73.9801
11
88.1053
21
-74.1015
0
LINE
8
BLACK
6
CONTINUOUS
10
88.1053
20
-74.1015
11
87.5303
21
-74.3397
0
LINE
8
BLACK
6
CONTINUOUS
10
87.5303
20
-74.3397
11
87.0128
21
-74.6855
0
LINE
8
BLACK
6
CONTINUOUS
10
87.0128
20
-74.6855
11
86.5727
21
-75.1256
0
LINE
8
BLACK
6
CONTINUOUS
10
86.5727
20
-75.1256
11
86.2269
21
-75.6431
0
LINE
8
BLACK
6
CONTINUOUS
10
86.2269
20
-75.6431
11
85.9887
21
-76.2181
0
LINE
8
BLACK
6
CONTINUOUS
10
85.9887
20
-76.2181
11
85.8673
21
-76.8286
0
LINE
8
BLACK
6
CONTINUOUS
10
85.8673
20
-76.8286
11
85.8673
21
-77.451
0
LINE
8
BLACK
6
CONTINUOUS
10
85.8673
20
-77.451
11
85.9887
21
-78.0615
  0
ENDSEC
  0
EOF
