%TF.GenerationSoftware,KiCad,Pcbnew,(5.1.12)-1*%
%TF.CreationDate,2022-03-08T20:54:57+00:00*%
%TF.ProjectId,RGBtoHDMI CDTV v2 - Face Plate,52474274-6f48-4444-9d49-204344545620,1*%
%TF.SameCoordinates,Original*%
%TF.FileFunction,Copper,L1,Top*%
%TF.FilePolarity,Positive*%
%FSLAX46Y46*%
G04 Gerber Fmt 4.6, Leading zero omitted, Abs format (unit mm)*
G04 Created by KiCad (PCBNEW (5.1.12)-1) date 2022-03-08 20:54:57*
%MOMM*%
%LPD*%
G01*
G04 APERTURE LIST*
%TA.AperFunction,EtchedComponent*%
%ADD10C,0.100000*%
%TD*%
%TA.AperFunction,NonConductor*%
%ADD11C,0.200000*%
%TD*%
%TA.AperFunction,NonConductor*%
%ADD12C,0.100000*%
%TD*%
G04 APERTURE END LIST*
D10*
%TO.C,solarmon*%
G36*
X165608000Y-92379800D02*
G01*
X164973000Y-92379800D01*
X164973000Y-91744800D01*
X165608000Y-91744800D01*
X165608000Y-92379800D01*
G37*
X165608000Y-92379800D02*
X164973000Y-92379800D01*
X164973000Y-91744800D01*
X165608000Y-91744800D01*
X165608000Y-92379800D01*
G36*
X165608000Y-96189800D02*
G01*
X164973000Y-96189800D01*
X164973000Y-95554800D01*
X165608000Y-95554800D01*
X165608000Y-96189800D01*
G37*
X165608000Y-96189800D02*
X164973000Y-96189800D01*
X164973000Y-95554800D01*
X165608000Y-95554800D01*
X165608000Y-96189800D01*
G36*
X164338000Y-91744800D02*
G01*
X163703000Y-91744800D01*
X163703000Y-91109800D01*
X164338000Y-91109800D01*
X164338000Y-91744800D01*
G37*
X164338000Y-91744800D02*
X163703000Y-91744800D01*
X163703000Y-91109800D01*
X164338000Y-91109800D01*
X164338000Y-91744800D01*
G36*
X164338000Y-92379800D02*
G01*
X163703000Y-92379800D01*
X163703000Y-91744800D01*
X164338000Y-91744800D01*
X164338000Y-92379800D01*
G37*
X164338000Y-92379800D02*
X163703000Y-92379800D01*
X163703000Y-91744800D01*
X164338000Y-91744800D01*
X164338000Y-92379800D01*
G36*
X163703000Y-92379800D02*
G01*
X163068000Y-92379800D01*
X163068000Y-91744800D01*
X163703000Y-91744800D01*
X163703000Y-92379800D01*
G37*
X163703000Y-92379800D02*
X163068000Y-92379800D01*
X163068000Y-91744800D01*
X163703000Y-91744800D01*
X163703000Y-92379800D01*
G36*
X163068000Y-92379800D02*
G01*
X162433000Y-92379800D01*
X162433000Y-91744800D01*
X163068000Y-91744800D01*
X163068000Y-92379800D01*
G37*
X163068000Y-92379800D02*
X162433000Y-92379800D01*
X162433000Y-91744800D01*
X163068000Y-91744800D01*
X163068000Y-92379800D01*
G36*
X163068000Y-91744800D02*
G01*
X162433000Y-91744800D01*
X162433000Y-91109800D01*
X163068000Y-91109800D01*
X163068000Y-91744800D01*
G37*
X163068000Y-91744800D02*
X162433000Y-91744800D01*
X162433000Y-91109800D01*
X163068000Y-91109800D01*
X163068000Y-91744800D01*
G36*
X162433000Y-92379800D02*
G01*
X161798000Y-92379800D01*
X161798000Y-91744800D01*
X162433000Y-91744800D01*
X162433000Y-92379800D01*
G37*
X162433000Y-92379800D02*
X161798000Y-92379800D01*
X161798000Y-91744800D01*
X162433000Y-91744800D01*
X162433000Y-92379800D01*
G36*
X161798000Y-92379800D02*
G01*
X161163000Y-92379800D01*
X161163000Y-91744800D01*
X161798000Y-91744800D01*
X161798000Y-92379800D01*
G37*
X161798000Y-92379800D02*
X161163000Y-92379800D01*
X161163000Y-91744800D01*
X161798000Y-91744800D01*
X161798000Y-92379800D01*
G36*
X161798000Y-94919800D02*
G01*
X161163000Y-94919800D01*
X161163000Y-94284800D01*
X161798000Y-94284800D01*
X161798000Y-94919800D01*
G37*
X161798000Y-94919800D02*
X161163000Y-94919800D01*
X161163000Y-94284800D01*
X161798000Y-94284800D01*
X161798000Y-94919800D01*
G36*
X162433000Y-94919800D02*
G01*
X161798000Y-94919800D01*
X161798000Y-94284800D01*
X162433000Y-94284800D01*
X162433000Y-94919800D01*
G37*
X162433000Y-94919800D02*
X161798000Y-94919800D01*
X161798000Y-94284800D01*
X162433000Y-94284800D01*
X162433000Y-94919800D01*
G36*
X163068000Y-94919800D02*
G01*
X162433000Y-94919800D01*
X162433000Y-94284800D01*
X163068000Y-94284800D01*
X163068000Y-94919800D01*
G37*
X163068000Y-94919800D02*
X162433000Y-94919800D01*
X162433000Y-94284800D01*
X163068000Y-94284800D01*
X163068000Y-94919800D01*
G36*
X164338000Y-94919800D02*
G01*
X163703000Y-94919800D01*
X163703000Y-94284800D01*
X164338000Y-94284800D01*
X164338000Y-94919800D01*
G37*
X164338000Y-94919800D02*
X163703000Y-94919800D01*
X163703000Y-94284800D01*
X164338000Y-94284800D01*
X164338000Y-94919800D01*
G36*
X164338000Y-96189800D02*
G01*
X163703000Y-96189800D01*
X163703000Y-95554800D01*
X164338000Y-95554800D01*
X164338000Y-96189800D01*
G37*
X164338000Y-96189800D02*
X163703000Y-96189800D01*
X163703000Y-95554800D01*
X164338000Y-95554800D01*
X164338000Y-96189800D01*
G36*
X161798000Y-96189800D02*
G01*
X161163000Y-96189800D01*
X161163000Y-95554800D01*
X161798000Y-95554800D01*
X161798000Y-96189800D01*
G37*
X161798000Y-96189800D02*
X161163000Y-96189800D01*
X161163000Y-95554800D01*
X161798000Y-95554800D01*
X161798000Y-96189800D01*
%TD*%
D11*
X168673900Y-61243729D02*
X168673901Y-98782367D01*
X167749971Y-99674800D01*
X71219832Y-99674800D01*
X70327400Y-98750871D01*
X70327400Y-94948566D01*
X87609600Y-94948566D01*
X87609600Y-95322834D01*
X87682616Y-95689909D01*
X87825842Y-96035687D01*
X88033774Y-96346879D01*
X88298421Y-96611526D01*
X88609613Y-96819458D01*
X88955391Y-96962684D01*
X89322466Y-97035700D01*
X89696734Y-97035700D01*
X90063809Y-96962684D01*
X90409587Y-96819458D01*
X90720779Y-96611526D01*
X90985426Y-96346879D01*
X91193358Y-96035687D01*
X91336584Y-95689909D01*
X91409600Y-95322834D01*
X91409600Y-94986666D01*
X147579000Y-94986666D01*
X147579000Y-95360934D01*
X147652016Y-95728009D01*
X147795242Y-96073787D01*
X148003174Y-96384979D01*
X148267821Y-96649626D01*
X148579013Y-96857558D01*
X148924791Y-97000784D01*
X149291866Y-97073800D01*
X149666134Y-97073800D01*
X150033209Y-97000784D01*
X150378987Y-96857558D01*
X150690179Y-96649626D01*
X150954826Y-96384979D01*
X151162758Y-96073787D01*
X151305984Y-95728009D01*
X151379000Y-95360934D01*
X151379000Y-94986666D01*
X151305984Y-94619591D01*
X151162758Y-94273813D01*
X150954826Y-93962621D01*
X150690179Y-93697974D01*
X150378987Y-93490042D01*
X150033209Y-93346816D01*
X149666134Y-93273800D01*
X149291866Y-93273800D01*
X148924791Y-93346816D01*
X148579013Y-93490042D01*
X148267821Y-93697974D01*
X148003174Y-93962621D01*
X147795242Y-94273813D01*
X147652016Y-94619591D01*
X147579000Y-94986666D01*
X91409600Y-94986666D01*
X91409600Y-94948566D01*
X91336584Y-94581491D01*
X91193358Y-94235713D01*
X90985426Y-93924521D01*
X90720779Y-93659874D01*
X90409587Y-93451942D01*
X90063809Y-93308716D01*
X89696734Y-93235700D01*
X89322466Y-93235700D01*
X88955391Y-93308716D01*
X88609613Y-93451942D01*
X88298421Y-93659874D01*
X88033774Y-93924521D01*
X87825842Y-94235713D01*
X87682616Y-94581491D01*
X87609600Y-94948566D01*
X70327400Y-94948566D01*
X70327400Y-90474800D01*
X159285000Y-90474800D01*
X159285000Y-98221800D01*
X159286921Y-98241309D01*
X159292612Y-98260068D01*
X159301853Y-98277357D01*
X159314289Y-98292511D01*
X159329443Y-98304947D01*
X159346732Y-98314188D01*
X159365491Y-98319879D01*
X159385000Y-98321800D01*
X166751000Y-98321800D01*
X166770509Y-98319879D01*
X166789268Y-98314188D01*
X166806557Y-98304947D01*
X166821711Y-98292511D01*
X166834147Y-98277357D01*
X166843388Y-98260068D01*
X166849079Y-98241309D01*
X166851000Y-98221800D01*
X166851000Y-90474800D01*
X166849079Y-90455291D01*
X166843388Y-90436532D01*
X166834147Y-90419243D01*
X166821711Y-90404089D01*
X166806557Y-90391653D01*
X166789268Y-90382412D01*
X166770509Y-90376721D01*
X166751000Y-90374800D01*
X159385000Y-90374800D01*
X159365491Y-90376721D01*
X159346732Y-90382412D01*
X159329443Y-90391653D01*
X159314289Y-90404089D01*
X159301853Y-90419243D01*
X159292612Y-90436532D01*
X159286921Y-90455291D01*
X159285000Y-90474800D01*
X70327400Y-90474800D01*
X70327400Y-87007696D01*
X96324000Y-87007696D01*
X96324000Y-87490304D01*
X96418152Y-87963639D01*
X96602838Y-88409510D01*
X96870960Y-88810784D01*
X97212216Y-89152040D01*
X97613490Y-89420162D01*
X98059361Y-89604848D01*
X98532696Y-89699000D01*
X99015304Y-89699000D01*
X99488639Y-89604848D01*
X99934510Y-89420162D01*
X100335784Y-89152040D01*
X100677040Y-88810784D01*
X100945162Y-88409510D01*
X101129848Y-87963639D01*
X101224000Y-87490304D01*
X101224000Y-87007696D01*
X109024000Y-87007696D01*
X109024000Y-87490304D01*
X109118152Y-87963639D01*
X109302838Y-88409510D01*
X109570960Y-88810784D01*
X109912216Y-89152040D01*
X110313490Y-89420162D01*
X110759361Y-89604848D01*
X111232696Y-89699000D01*
X111715304Y-89699000D01*
X112188639Y-89604848D01*
X112634510Y-89420162D01*
X113035784Y-89152040D01*
X113377040Y-88810784D01*
X113645162Y-88409510D01*
X113829848Y-87963639D01*
X113924000Y-87490304D01*
X113924000Y-87058496D01*
X121724000Y-87058496D01*
X121724000Y-87541104D01*
X121818152Y-88014439D01*
X122002838Y-88460310D01*
X122270960Y-88861584D01*
X122612216Y-89202840D01*
X123013490Y-89470962D01*
X123459361Y-89655648D01*
X123932696Y-89749800D01*
X124415304Y-89749800D01*
X124888639Y-89655648D01*
X125334510Y-89470962D01*
X125735784Y-89202840D01*
X126077040Y-88861584D01*
X126345162Y-88460310D01*
X126529848Y-88014439D01*
X126624000Y-87541104D01*
X126624000Y-87058496D01*
X126529848Y-86585161D01*
X126373457Y-86207600D01*
X131016828Y-86207600D01*
X131018400Y-86223561D01*
X131018401Y-88198229D01*
X131016828Y-88214200D01*
X131023103Y-88277911D01*
X131041687Y-88339174D01*
X131071865Y-88395634D01*
X131112479Y-88445121D01*
X131161966Y-88485735D01*
X131218426Y-88515913D01*
X131279689Y-88534497D01*
X131327439Y-88539200D01*
X131327440Y-88539200D01*
X131343400Y-88540772D01*
X131359361Y-88539200D01*
X136509039Y-88539200D01*
X136525000Y-88540772D01*
X136540960Y-88539200D01*
X136540961Y-88539200D01*
X136588711Y-88534497D01*
X136649974Y-88515913D01*
X136706434Y-88485735D01*
X136755921Y-88445121D01*
X136796535Y-88395634D01*
X136826713Y-88339174D01*
X136845297Y-88277911D01*
X136851572Y-88214200D01*
X136850000Y-88198239D01*
X136850000Y-86223561D01*
X136850321Y-86220300D01*
X139957628Y-86220300D01*
X139959200Y-86236261D01*
X139959201Y-88210929D01*
X139957628Y-88226900D01*
X139963903Y-88290611D01*
X139982487Y-88351874D01*
X140012665Y-88408334D01*
X140053279Y-88457821D01*
X140102766Y-88498435D01*
X140159226Y-88528613D01*
X140220489Y-88547197D01*
X140268239Y-88551900D01*
X140268240Y-88551900D01*
X140284200Y-88553472D01*
X140300161Y-88551900D01*
X145449839Y-88551900D01*
X145465800Y-88553472D01*
X145481760Y-88551900D01*
X145481761Y-88551900D01*
X145529511Y-88547197D01*
X145590774Y-88528613D01*
X145647234Y-88498435D01*
X145696721Y-88457821D01*
X145737335Y-88408334D01*
X145767513Y-88351874D01*
X145786097Y-88290611D01*
X145792372Y-88226900D01*
X145790800Y-88210939D01*
X145790800Y-86236261D01*
X145792372Y-86220300D01*
X145786097Y-86156589D01*
X145767513Y-86095326D01*
X145737335Y-86038866D01*
X145696721Y-85989379D01*
X145647234Y-85948765D01*
X145590774Y-85918587D01*
X145529511Y-85900003D01*
X145481761Y-85895300D01*
X145465800Y-85893728D01*
X145449840Y-85895300D01*
X140300160Y-85895300D01*
X140284200Y-85893728D01*
X140268239Y-85895300D01*
X140220489Y-85900003D01*
X140159226Y-85918587D01*
X140102766Y-85948765D01*
X140053279Y-85989379D01*
X140012665Y-86038866D01*
X139982487Y-86095326D01*
X139963903Y-86156589D01*
X139957628Y-86220300D01*
X136850321Y-86220300D01*
X136851572Y-86207600D01*
X136845297Y-86143889D01*
X136826713Y-86082626D01*
X136796535Y-86026166D01*
X136755921Y-85976679D01*
X136706434Y-85936065D01*
X136649974Y-85905887D01*
X136588711Y-85887303D01*
X136540961Y-85882600D01*
X136525000Y-85881028D01*
X136509040Y-85882600D01*
X131359360Y-85882600D01*
X131343400Y-85881028D01*
X131327439Y-85882600D01*
X131279689Y-85887303D01*
X131218426Y-85905887D01*
X131161966Y-85936065D01*
X131112479Y-85976679D01*
X131071865Y-86026166D01*
X131041687Y-86082626D01*
X131023103Y-86143889D01*
X131016828Y-86207600D01*
X126373457Y-86207600D01*
X126345162Y-86139290D01*
X126077040Y-85738016D01*
X125735784Y-85396760D01*
X125334510Y-85128638D01*
X124888639Y-84943952D01*
X124415304Y-84849800D01*
X123932696Y-84849800D01*
X123459361Y-84943952D01*
X123013490Y-85128638D01*
X122612216Y-85396760D01*
X122270960Y-85738016D01*
X122002838Y-86139290D01*
X121818152Y-86585161D01*
X121724000Y-87058496D01*
X113924000Y-87058496D01*
X113924000Y-87007696D01*
X113829848Y-86534361D01*
X113645162Y-86088490D01*
X113377040Y-85687216D01*
X113035784Y-85345960D01*
X112634510Y-85077838D01*
X112188639Y-84893152D01*
X111715304Y-84799000D01*
X111232696Y-84799000D01*
X110759361Y-84893152D01*
X110313490Y-85077838D01*
X109912216Y-85345960D01*
X109570960Y-85687216D01*
X109302838Y-86088490D01*
X109118152Y-86534361D01*
X109024000Y-87007696D01*
X101224000Y-87007696D01*
X101129848Y-86534361D01*
X100945162Y-86088490D01*
X100677040Y-85687216D01*
X100335784Y-85345960D01*
X99934510Y-85077838D01*
X99488639Y-84893152D01*
X99015304Y-84799000D01*
X98532696Y-84799000D01*
X98059361Y-84893152D01*
X97613490Y-85077838D01*
X97212216Y-85345960D01*
X96870960Y-85687216D01*
X96602838Y-86088490D01*
X96418152Y-86534361D01*
X96324000Y-87007696D01*
X70327400Y-87007696D01*
X70327400Y-86045760D01*
X77145000Y-86045760D01*
X77146380Y-86059774D01*
X77146353Y-86063690D01*
X77146796Y-86068207D01*
X77159751Y-86191458D01*
X77165671Y-86220296D01*
X77171193Y-86249244D01*
X77172504Y-86253589D01*
X77209151Y-86371976D01*
X77220575Y-86399152D01*
X77231601Y-86426442D01*
X77233731Y-86430449D01*
X77292675Y-86539464D01*
X77309152Y-86563892D01*
X77325276Y-86588532D01*
X77328144Y-86592049D01*
X77407140Y-86687539D01*
X77428031Y-86708285D01*
X77448650Y-86729340D01*
X77452147Y-86732233D01*
X77548185Y-86810561D01*
X77572719Y-86826861D01*
X77597025Y-86843504D01*
X77601017Y-86845663D01*
X77710441Y-86903845D01*
X77737681Y-86915072D01*
X77764749Y-86926673D01*
X77769084Y-86928016D01*
X77887725Y-86963836D01*
X77916646Y-86969562D01*
X77945435Y-86975681D01*
X77949948Y-86976156D01*
X78073286Y-86988249D01*
X78073292Y-86988249D01*
X78089039Y-86989800D01*
X81295961Y-86989800D01*
X81300251Y-86989377D01*
X81327838Y-86988646D01*
X81345626Y-86986424D01*
X81363534Y-86985725D01*
X81368026Y-86985075D01*
X81510914Y-86963373D01*
X81539448Y-86956133D01*
X81568115Y-86949285D01*
X81572394Y-86947775D01*
X81708345Y-86898733D01*
X81734937Y-86886085D01*
X81761722Y-86873802D01*
X81765627Y-86871489D01*
X81889463Y-86796974D01*
X81913098Y-86779397D01*
X81936979Y-86762151D01*
X81940361Y-86759124D01*
X82047365Y-86661975D01*
X82067124Y-86640156D01*
X82087212Y-86618586D01*
X82089941Y-86614960D01*
X82173329Y-86502530D01*
X82190250Y-86481014D01*
X82211983Y-86438237D01*
X82380563Y-86006030D01*
X82383924Y-85994058D01*
X82410420Y-85906903D01*
X82439940Y-85851639D01*
X82484233Y-85797543D01*
X82517093Y-85767925D01*
X83650621Y-84752560D01*
X83669921Y-84736721D01*
X83684565Y-84718878D01*
X83700163Y-84701869D01*
X83704829Y-84694187D01*
X83710535Y-84687234D01*
X83721419Y-84666871D01*
X83733396Y-84647151D01*
X83736474Y-84638704D01*
X83740713Y-84630774D01*
X83747411Y-84608692D01*
X83755316Y-84587002D01*
X83756687Y-84578114D01*
X83759297Y-84569511D01*
X83761561Y-84546529D01*
X83765078Y-84523731D01*
X83764000Y-84498804D01*
X83764000Y-76792329D01*
X85499070Y-76792329D01*
X85499070Y-77487271D01*
X85634647Y-78168859D01*
X85900589Y-78810901D01*
X86286678Y-79388724D01*
X86778076Y-79880122D01*
X87355899Y-80266211D01*
X87997941Y-80532153D01*
X88679529Y-80667730D01*
X89374471Y-80667730D01*
X90056059Y-80532153D01*
X90698101Y-80266211D01*
X91275924Y-79880122D01*
X91767322Y-79388724D01*
X92153411Y-78810901D01*
X92419353Y-78168859D01*
X92554930Y-77487271D01*
X92554930Y-76792329D01*
X92419353Y-76110741D01*
X92153411Y-75468699D01*
X91767322Y-74890876D01*
X91275924Y-74399478D01*
X90698101Y-74013389D01*
X90056059Y-73747447D01*
X89374471Y-73611870D01*
X88679529Y-73611870D01*
X87997941Y-73747447D01*
X87355899Y-74013389D01*
X86778076Y-74399478D01*
X86286678Y-74890876D01*
X85900589Y-75468699D01*
X85634647Y-76110741D01*
X85499070Y-76792329D01*
X83764000Y-76792329D01*
X83764000Y-73609963D01*
X83764933Y-73604207D01*
X83764000Y-73578038D01*
X83764000Y-73567839D01*
X83763430Y-73562053D01*
X83762652Y-73540228D01*
X83760300Y-73530272D01*
X83759297Y-73520089D01*
X83752956Y-73499185D01*
X83747933Y-73477924D01*
X83743683Y-73468617D01*
X83740713Y-73458826D01*
X83730412Y-73439553D01*
X83721341Y-73419689D01*
X83715361Y-73411395D01*
X83710535Y-73402366D01*
X83696676Y-73385479D01*
X83693280Y-73380769D01*
X83686538Y-73373127D01*
X83669921Y-73352879D01*
X83665413Y-73349179D01*
X82659844Y-72209280D01*
X82651539Y-72201547D01*
X82587445Y-72138400D01*
X82552205Y-72086598D01*
X82524857Y-72022252D01*
X82520823Y-72006508D01*
X82520533Y-72002765D01*
X82507563Y-71956570D01*
X82338983Y-71524363D01*
X82317250Y-71481586D01*
X82307474Y-71469156D01*
X82295087Y-71449697D01*
X82284026Y-71435580D01*
X82274212Y-71420584D01*
X82271344Y-71417067D01*
X82179219Y-71305708D01*
X82158327Y-71284962D01*
X82137710Y-71263909D01*
X82134214Y-71261016D01*
X82022215Y-71169671D01*
X81997678Y-71153369D01*
X81973373Y-71136727D01*
X81969381Y-71134569D01*
X81841771Y-71066718D01*
X81814553Y-71055499D01*
X81787466Y-71043890D01*
X81783131Y-71042548D01*
X81644773Y-71000775D01*
X81615891Y-70995056D01*
X81587064Y-70988929D01*
X81582551Y-70988454D01*
X81438714Y-70974351D01*
X81438708Y-70974351D01*
X81422961Y-70972800D01*
X78089039Y-70972800D01*
X78075025Y-70974180D01*
X78071110Y-70974153D01*
X78066593Y-70974596D01*
X77943342Y-70987551D01*
X77914510Y-70993470D01*
X77885556Y-70998993D01*
X77881211Y-71000304D01*
X77762823Y-71036951D01*
X77735634Y-71048380D01*
X77708358Y-71059401D01*
X77704350Y-71061531D01*
X77595336Y-71120475D01*
X77570926Y-71136940D01*
X77546267Y-71153076D01*
X77542750Y-71155944D01*
X77447261Y-71234940D01*
X77426515Y-71255831D01*
X77405459Y-71276451D01*
X77402566Y-71279947D01*
X77324239Y-71375986D01*
X77307939Y-71400520D01*
X77291296Y-71424826D01*
X77289137Y-71428818D01*
X77230955Y-71538241D01*
X77219736Y-71565463D01*
X77208126Y-71592550D01*
X77206784Y-71596885D01*
X77170964Y-71715525D01*
X77165237Y-71744453D01*
X77159119Y-71773235D01*
X77158644Y-71777748D01*
X77146551Y-71901087D01*
X77146551Y-71901102D01*
X77145001Y-71916839D01*
X77145000Y-86045760D01*
X70327400Y-86045760D01*
X70327400Y-68808600D01*
X70590228Y-68808600D01*
X70591800Y-68824561D01*
X70591801Y-70392829D01*
X70590228Y-70408800D01*
X70596503Y-70472511D01*
X70615087Y-70533774D01*
X70645265Y-70590234D01*
X70685879Y-70639721D01*
X70735366Y-70680335D01*
X70791826Y-70710513D01*
X70853089Y-70729097D01*
X70900839Y-70733800D01*
X70900840Y-70733800D01*
X70916800Y-70735372D01*
X70932761Y-70733800D01*
X77200039Y-70733800D01*
X77216000Y-70735372D01*
X77231960Y-70733800D01*
X77231961Y-70733800D01*
X77279711Y-70729097D01*
X77340974Y-70710513D01*
X77397434Y-70680335D01*
X77446921Y-70639721D01*
X77487535Y-70590234D01*
X77517713Y-70533774D01*
X77536297Y-70472511D01*
X77542572Y-70408800D01*
X77541000Y-70392839D01*
X77541000Y-70281800D01*
X93272428Y-70281800D01*
X93274001Y-70297771D01*
X93274000Y-82235760D01*
X93275407Y-82250045D01*
X93275363Y-82256349D01*
X93275805Y-82260865D01*
X93296532Y-82458067D01*
X93302461Y-82486947D01*
X93307975Y-82515855D01*
X93309286Y-82520199D01*
X93367921Y-82709621D01*
X93379340Y-82736785D01*
X93390371Y-82764087D01*
X93392501Y-82768094D01*
X93486812Y-82942518D01*
X93503263Y-82966907D01*
X93519413Y-82991586D01*
X93522281Y-82995103D01*
X93648675Y-83147887D01*
X93669585Y-83168651D01*
X93690186Y-83189688D01*
X93693682Y-83192581D01*
X93847344Y-83317905D01*
X93871871Y-83334200D01*
X93896183Y-83350847D01*
X93900175Y-83353006D01*
X94075253Y-83446097D01*
X94102513Y-83457332D01*
X94129563Y-83468926D01*
X94133898Y-83470268D01*
X94323724Y-83527579D01*
X94352618Y-83533300D01*
X94381430Y-83539424D01*
X94385943Y-83539899D01*
X94583284Y-83559249D01*
X94583292Y-83559249D01*
X94599039Y-83560800D01*
X149408000Y-83560800D01*
X149408001Y-85759829D01*
X149406428Y-85775800D01*
X149412703Y-85839511D01*
X149431287Y-85900774D01*
X149461465Y-85957234D01*
X149502079Y-86006721D01*
X149551566Y-86047335D01*
X149608026Y-86077513D01*
X149669289Y-86096097D01*
X149717039Y-86100800D01*
X149717040Y-86100800D01*
X149733000Y-86102372D01*
X149748961Y-86100800D01*
X163052040Y-86100800D01*
X163068000Y-86102372D01*
X163113111Y-86097929D01*
X163131711Y-86096097D01*
X163192974Y-86077513D01*
X163249434Y-86047335D01*
X163298921Y-86006721D01*
X163339535Y-85957234D01*
X163369713Y-85900774D01*
X163388297Y-85839511D01*
X163394572Y-85775800D01*
X163393000Y-85759839D01*
X163393000Y-83124761D01*
X163394572Y-83108800D01*
X163388297Y-83045089D01*
X163369713Y-82983826D01*
X163339535Y-82927366D01*
X163298921Y-82877879D01*
X163249434Y-82837265D01*
X163192974Y-82807087D01*
X163131711Y-82788503D01*
X163083961Y-82783800D01*
X163083960Y-82783800D01*
X163068000Y-82782228D01*
X163052039Y-82783800D01*
X157424000Y-82783800D01*
X157424000Y-70297761D01*
X157425572Y-70281800D01*
X157419297Y-70218089D01*
X157400713Y-70156826D01*
X157370535Y-70100366D01*
X157329921Y-70050879D01*
X157280434Y-70010265D01*
X157223974Y-69980087D01*
X157162711Y-69961503D01*
X157114961Y-69956800D01*
X157114960Y-69956800D01*
X157099000Y-69955228D01*
X157083039Y-69956800D01*
X93614961Y-69956800D01*
X93599000Y-69955228D01*
X93583040Y-69956800D01*
X93583039Y-69956800D01*
X93535289Y-69961503D01*
X93474026Y-69980087D01*
X93417566Y-70010265D01*
X93368079Y-70050879D01*
X93327465Y-70100366D01*
X93297287Y-70156826D01*
X93278703Y-70218089D01*
X93272428Y-70281800D01*
X77541000Y-70281800D01*
X77541000Y-68824561D01*
X77542572Y-68808600D01*
X77541322Y-68795900D01*
X158525028Y-68795900D01*
X158526600Y-68811861D01*
X158526601Y-70380129D01*
X158525028Y-70396100D01*
X158531303Y-70459811D01*
X158549887Y-70521074D01*
X158580065Y-70577534D01*
X158620679Y-70627021D01*
X158670166Y-70667635D01*
X158726626Y-70697813D01*
X158787889Y-70716397D01*
X158835639Y-70721100D01*
X158835640Y-70721100D01*
X158851600Y-70722672D01*
X158867561Y-70721100D01*
X165134839Y-70721100D01*
X165150800Y-70722672D01*
X165166760Y-70721100D01*
X165166761Y-70721100D01*
X165214511Y-70716397D01*
X165275774Y-70697813D01*
X165332234Y-70667635D01*
X165381721Y-70627021D01*
X165422335Y-70577534D01*
X165452513Y-70521074D01*
X165471097Y-70459811D01*
X165477372Y-70396100D01*
X165475800Y-70380139D01*
X165475800Y-68811861D01*
X165477372Y-68795900D01*
X165471097Y-68732189D01*
X165452513Y-68670926D01*
X165422335Y-68614466D01*
X165381721Y-68564979D01*
X165332234Y-68524365D01*
X165275774Y-68494187D01*
X165214511Y-68475603D01*
X165166761Y-68470900D01*
X165150800Y-68469328D01*
X165134840Y-68470900D01*
X158867560Y-68470900D01*
X158851600Y-68469328D01*
X158835639Y-68470900D01*
X158787889Y-68475603D01*
X158726626Y-68494187D01*
X158670166Y-68524365D01*
X158620679Y-68564979D01*
X158580065Y-68614466D01*
X158549887Y-68670926D01*
X158531303Y-68732189D01*
X158525028Y-68795900D01*
X77541322Y-68795900D01*
X77536297Y-68744889D01*
X77517713Y-68683626D01*
X77487535Y-68627166D01*
X77446921Y-68577679D01*
X77397434Y-68537065D01*
X77340974Y-68506887D01*
X77279711Y-68488303D01*
X77231961Y-68483600D01*
X77216000Y-68482028D01*
X77200040Y-68483600D01*
X70932760Y-68483600D01*
X70916800Y-68482028D01*
X70900839Y-68483600D01*
X70853089Y-68488303D01*
X70791826Y-68506887D01*
X70735366Y-68537065D01*
X70685879Y-68577679D01*
X70645265Y-68627166D01*
X70615087Y-68683626D01*
X70596503Y-68744889D01*
X70590228Y-68808600D01*
X70327400Y-68808600D01*
X70327400Y-61224932D01*
X71251347Y-60332483D01*
X167781485Y-60319817D01*
X168673900Y-61243729D01*
%TA.AperFunction,NonConductor*%
D12*
G36*
X168673900Y-61243729D02*
G01*
X168673901Y-98782367D01*
X167749971Y-99674800D01*
X71219832Y-99674800D01*
X70327400Y-98750871D01*
X70327400Y-94948566D01*
X87609600Y-94948566D01*
X87609600Y-95322834D01*
X87682616Y-95689909D01*
X87825842Y-96035687D01*
X88033774Y-96346879D01*
X88298421Y-96611526D01*
X88609613Y-96819458D01*
X88955391Y-96962684D01*
X89322466Y-97035700D01*
X89696734Y-97035700D01*
X90063809Y-96962684D01*
X90409587Y-96819458D01*
X90720779Y-96611526D01*
X90985426Y-96346879D01*
X91193358Y-96035687D01*
X91336584Y-95689909D01*
X91409600Y-95322834D01*
X91409600Y-94986666D01*
X147579000Y-94986666D01*
X147579000Y-95360934D01*
X147652016Y-95728009D01*
X147795242Y-96073787D01*
X148003174Y-96384979D01*
X148267821Y-96649626D01*
X148579013Y-96857558D01*
X148924791Y-97000784D01*
X149291866Y-97073800D01*
X149666134Y-97073800D01*
X150033209Y-97000784D01*
X150378987Y-96857558D01*
X150690179Y-96649626D01*
X150954826Y-96384979D01*
X151162758Y-96073787D01*
X151305984Y-95728009D01*
X151379000Y-95360934D01*
X151379000Y-94986666D01*
X151305984Y-94619591D01*
X151162758Y-94273813D01*
X150954826Y-93962621D01*
X150690179Y-93697974D01*
X150378987Y-93490042D01*
X150033209Y-93346816D01*
X149666134Y-93273800D01*
X149291866Y-93273800D01*
X148924791Y-93346816D01*
X148579013Y-93490042D01*
X148267821Y-93697974D01*
X148003174Y-93962621D01*
X147795242Y-94273813D01*
X147652016Y-94619591D01*
X147579000Y-94986666D01*
X91409600Y-94986666D01*
X91409600Y-94948566D01*
X91336584Y-94581491D01*
X91193358Y-94235713D01*
X90985426Y-93924521D01*
X90720779Y-93659874D01*
X90409587Y-93451942D01*
X90063809Y-93308716D01*
X89696734Y-93235700D01*
X89322466Y-93235700D01*
X88955391Y-93308716D01*
X88609613Y-93451942D01*
X88298421Y-93659874D01*
X88033774Y-93924521D01*
X87825842Y-94235713D01*
X87682616Y-94581491D01*
X87609600Y-94948566D01*
X70327400Y-94948566D01*
X70327400Y-90474800D01*
X159285000Y-90474800D01*
X159285000Y-98221800D01*
X159286921Y-98241309D01*
X159292612Y-98260068D01*
X159301853Y-98277357D01*
X159314289Y-98292511D01*
X159329443Y-98304947D01*
X159346732Y-98314188D01*
X159365491Y-98319879D01*
X159385000Y-98321800D01*
X166751000Y-98321800D01*
X166770509Y-98319879D01*
X166789268Y-98314188D01*
X166806557Y-98304947D01*
X166821711Y-98292511D01*
X166834147Y-98277357D01*
X166843388Y-98260068D01*
X166849079Y-98241309D01*
X166851000Y-98221800D01*
X166851000Y-90474800D01*
X166849079Y-90455291D01*
X166843388Y-90436532D01*
X166834147Y-90419243D01*
X166821711Y-90404089D01*
X166806557Y-90391653D01*
X166789268Y-90382412D01*
X166770509Y-90376721D01*
X166751000Y-90374800D01*
X159385000Y-90374800D01*
X159365491Y-90376721D01*
X159346732Y-90382412D01*
X159329443Y-90391653D01*
X159314289Y-90404089D01*
X159301853Y-90419243D01*
X159292612Y-90436532D01*
X159286921Y-90455291D01*
X159285000Y-90474800D01*
X70327400Y-90474800D01*
X70327400Y-87007696D01*
X96324000Y-87007696D01*
X96324000Y-87490304D01*
X96418152Y-87963639D01*
X96602838Y-88409510D01*
X96870960Y-88810784D01*
X97212216Y-89152040D01*
X97613490Y-89420162D01*
X98059361Y-89604848D01*
X98532696Y-89699000D01*
X99015304Y-89699000D01*
X99488639Y-89604848D01*
X99934510Y-89420162D01*
X100335784Y-89152040D01*
X100677040Y-88810784D01*
X100945162Y-88409510D01*
X101129848Y-87963639D01*
X101224000Y-87490304D01*
X101224000Y-87007696D01*
X109024000Y-87007696D01*
X109024000Y-87490304D01*
X109118152Y-87963639D01*
X109302838Y-88409510D01*
X109570960Y-88810784D01*
X109912216Y-89152040D01*
X110313490Y-89420162D01*
X110759361Y-89604848D01*
X111232696Y-89699000D01*
X111715304Y-89699000D01*
X112188639Y-89604848D01*
X112634510Y-89420162D01*
X113035784Y-89152040D01*
X113377040Y-88810784D01*
X113645162Y-88409510D01*
X113829848Y-87963639D01*
X113924000Y-87490304D01*
X113924000Y-87058496D01*
X121724000Y-87058496D01*
X121724000Y-87541104D01*
X121818152Y-88014439D01*
X122002838Y-88460310D01*
X122270960Y-88861584D01*
X122612216Y-89202840D01*
X123013490Y-89470962D01*
X123459361Y-89655648D01*
X123932696Y-89749800D01*
X124415304Y-89749800D01*
X124888639Y-89655648D01*
X125334510Y-89470962D01*
X125735784Y-89202840D01*
X126077040Y-88861584D01*
X126345162Y-88460310D01*
X126529848Y-88014439D01*
X126624000Y-87541104D01*
X126624000Y-87058496D01*
X126529848Y-86585161D01*
X126373457Y-86207600D01*
X131016828Y-86207600D01*
X131018400Y-86223561D01*
X131018401Y-88198229D01*
X131016828Y-88214200D01*
X131023103Y-88277911D01*
X131041687Y-88339174D01*
X131071865Y-88395634D01*
X131112479Y-88445121D01*
X131161966Y-88485735D01*
X131218426Y-88515913D01*
X131279689Y-88534497D01*
X131327439Y-88539200D01*
X131327440Y-88539200D01*
X131343400Y-88540772D01*
X131359361Y-88539200D01*
X136509039Y-88539200D01*
X136525000Y-88540772D01*
X136540960Y-88539200D01*
X136540961Y-88539200D01*
X136588711Y-88534497D01*
X136649974Y-88515913D01*
X136706434Y-88485735D01*
X136755921Y-88445121D01*
X136796535Y-88395634D01*
X136826713Y-88339174D01*
X136845297Y-88277911D01*
X136851572Y-88214200D01*
X136850000Y-88198239D01*
X136850000Y-86223561D01*
X136850321Y-86220300D01*
X139957628Y-86220300D01*
X139959200Y-86236261D01*
X139959201Y-88210929D01*
X139957628Y-88226900D01*
X139963903Y-88290611D01*
X139982487Y-88351874D01*
X140012665Y-88408334D01*
X140053279Y-88457821D01*
X140102766Y-88498435D01*
X140159226Y-88528613D01*
X140220489Y-88547197D01*
X140268239Y-88551900D01*
X140268240Y-88551900D01*
X140284200Y-88553472D01*
X140300161Y-88551900D01*
X145449839Y-88551900D01*
X145465800Y-88553472D01*
X145481760Y-88551900D01*
X145481761Y-88551900D01*
X145529511Y-88547197D01*
X145590774Y-88528613D01*
X145647234Y-88498435D01*
X145696721Y-88457821D01*
X145737335Y-88408334D01*
X145767513Y-88351874D01*
X145786097Y-88290611D01*
X145792372Y-88226900D01*
X145790800Y-88210939D01*
X145790800Y-86236261D01*
X145792372Y-86220300D01*
X145786097Y-86156589D01*
X145767513Y-86095326D01*
X145737335Y-86038866D01*
X145696721Y-85989379D01*
X145647234Y-85948765D01*
X145590774Y-85918587D01*
X145529511Y-85900003D01*
X145481761Y-85895300D01*
X145465800Y-85893728D01*
X145449840Y-85895300D01*
X140300160Y-85895300D01*
X140284200Y-85893728D01*
X140268239Y-85895300D01*
X140220489Y-85900003D01*
X140159226Y-85918587D01*
X140102766Y-85948765D01*
X140053279Y-85989379D01*
X140012665Y-86038866D01*
X139982487Y-86095326D01*
X139963903Y-86156589D01*
X139957628Y-86220300D01*
X136850321Y-86220300D01*
X136851572Y-86207600D01*
X136845297Y-86143889D01*
X136826713Y-86082626D01*
X136796535Y-86026166D01*
X136755921Y-85976679D01*
X136706434Y-85936065D01*
X136649974Y-85905887D01*
X136588711Y-85887303D01*
X136540961Y-85882600D01*
X136525000Y-85881028D01*
X136509040Y-85882600D01*
X131359360Y-85882600D01*
X131343400Y-85881028D01*
X131327439Y-85882600D01*
X131279689Y-85887303D01*
X131218426Y-85905887D01*
X131161966Y-85936065D01*
X131112479Y-85976679D01*
X131071865Y-86026166D01*
X131041687Y-86082626D01*
X131023103Y-86143889D01*
X131016828Y-86207600D01*
X126373457Y-86207600D01*
X126345162Y-86139290D01*
X126077040Y-85738016D01*
X125735784Y-85396760D01*
X125334510Y-85128638D01*
X124888639Y-84943952D01*
X124415304Y-84849800D01*
X123932696Y-84849800D01*
X123459361Y-84943952D01*
X123013490Y-85128638D01*
X122612216Y-85396760D01*
X122270960Y-85738016D01*
X122002838Y-86139290D01*
X121818152Y-86585161D01*
X121724000Y-87058496D01*
X113924000Y-87058496D01*
X113924000Y-87007696D01*
X113829848Y-86534361D01*
X113645162Y-86088490D01*
X113377040Y-85687216D01*
X113035784Y-85345960D01*
X112634510Y-85077838D01*
X112188639Y-84893152D01*
X111715304Y-84799000D01*
X111232696Y-84799000D01*
X110759361Y-84893152D01*
X110313490Y-85077838D01*
X109912216Y-85345960D01*
X109570960Y-85687216D01*
X109302838Y-86088490D01*
X109118152Y-86534361D01*
X109024000Y-87007696D01*
X101224000Y-87007696D01*
X101129848Y-86534361D01*
X100945162Y-86088490D01*
X100677040Y-85687216D01*
X100335784Y-85345960D01*
X99934510Y-85077838D01*
X99488639Y-84893152D01*
X99015304Y-84799000D01*
X98532696Y-84799000D01*
X98059361Y-84893152D01*
X97613490Y-85077838D01*
X97212216Y-85345960D01*
X96870960Y-85687216D01*
X96602838Y-86088490D01*
X96418152Y-86534361D01*
X96324000Y-87007696D01*
X70327400Y-87007696D01*
X70327400Y-86045760D01*
X77145000Y-86045760D01*
X77146380Y-86059774D01*
X77146353Y-86063690D01*
X77146796Y-86068207D01*
X77159751Y-86191458D01*
X77165671Y-86220296D01*
X77171193Y-86249244D01*
X77172504Y-86253589D01*
X77209151Y-86371976D01*
X77220575Y-86399152D01*
X77231601Y-86426442D01*
X77233731Y-86430449D01*
X77292675Y-86539464D01*
X77309152Y-86563892D01*
X77325276Y-86588532D01*
X77328144Y-86592049D01*
X77407140Y-86687539D01*
X77428031Y-86708285D01*
X77448650Y-86729340D01*
X77452147Y-86732233D01*
X77548185Y-86810561D01*
X77572719Y-86826861D01*
X77597025Y-86843504D01*
X77601017Y-86845663D01*
X77710441Y-86903845D01*
X77737681Y-86915072D01*
X77764749Y-86926673D01*
X77769084Y-86928016D01*
X77887725Y-86963836D01*
X77916646Y-86969562D01*
X77945435Y-86975681D01*
X77949948Y-86976156D01*
X78073286Y-86988249D01*
X78073292Y-86988249D01*
X78089039Y-86989800D01*
X81295961Y-86989800D01*
X81300251Y-86989377D01*
X81327838Y-86988646D01*
X81345626Y-86986424D01*
X81363534Y-86985725D01*
X81368026Y-86985075D01*
X81510914Y-86963373D01*
X81539448Y-86956133D01*
X81568115Y-86949285D01*
X81572394Y-86947775D01*
X81708345Y-86898733D01*
X81734937Y-86886085D01*
X81761722Y-86873802D01*
X81765627Y-86871489D01*
X81889463Y-86796974D01*
X81913098Y-86779397D01*
X81936979Y-86762151D01*
X81940361Y-86759124D01*
X82047365Y-86661975D01*
X82067124Y-86640156D01*
X82087212Y-86618586D01*
X82089941Y-86614960D01*
X82173329Y-86502530D01*
X82190250Y-86481014D01*
X82211983Y-86438237D01*
X82380563Y-86006030D01*
X82383924Y-85994058D01*
X82410420Y-85906903D01*
X82439940Y-85851639D01*
X82484233Y-85797543D01*
X82517093Y-85767925D01*
X83650621Y-84752560D01*
X83669921Y-84736721D01*
X83684565Y-84718878D01*
X83700163Y-84701869D01*
X83704829Y-84694187D01*
X83710535Y-84687234D01*
X83721419Y-84666871D01*
X83733396Y-84647151D01*
X83736474Y-84638704D01*
X83740713Y-84630774D01*
X83747411Y-84608692D01*
X83755316Y-84587002D01*
X83756687Y-84578114D01*
X83759297Y-84569511D01*
X83761561Y-84546529D01*
X83765078Y-84523731D01*
X83764000Y-84498804D01*
X83764000Y-76792329D01*
X85499070Y-76792329D01*
X85499070Y-77487271D01*
X85634647Y-78168859D01*
X85900589Y-78810901D01*
X86286678Y-79388724D01*
X86778076Y-79880122D01*
X87355899Y-80266211D01*
X87997941Y-80532153D01*
X88679529Y-80667730D01*
X89374471Y-80667730D01*
X90056059Y-80532153D01*
X90698101Y-80266211D01*
X91275924Y-79880122D01*
X91767322Y-79388724D01*
X92153411Y-78810901D01*
X92419353Y-78168859D01*
X92554930Y-77487271D01*
X92554930Y-76792329D01*
X92419353Y-76110741D01*
X92153411Y-75468699D01*
X91767322Y-74890876D01*
X91275924Y-74399478D01*
X90698101Y-74013389D01*
X90056059Y-73747447D01*
X89374471Y-73611870D01*
X88679529Y-73611870D01*
X87997941Y-73747447D01*
X87355899Y-74013389D01*
X86778076Y-74399478D01*
X86286678Y-74890876D01*
X85900589Y-75468699D01*
X85634647Y-76110741D01*
X85499070Y-76792329D01*
X83764000Y-76792329D01*
X83764000Y-73609963D01*
X83764933Y-73604207D01*
X83764000Y-73578038D01*
X83764000Y-73567839D01*
X83763430Y-73562053D01*
X83762652Y-73540228D01*
X83760300Y-73530272D01*
X83759297Y-73520089D01*
X83752956Y-73499185D01*
X83747933Y-73477924D01*
X83743683Y-73468617D01*
X83740713Y-73458826D01*
X83730412Y-73439553D01*
X83721341Y-73419689D01*
X83715361Y-73411395D01*
X83710535Y-73402366D01*
X83696676Y-73385479D01*
X83693280Y-73380769D01*
X83686538Y-73373127D01*
X83669921Y-73352879D01*
X83665413Y-73349179D01*
X82659844Y-72209280D01*
X82651539Y-72201547D01*
X82587445Y-72138400D01*
X82552205Y-72086598D01*
X82524857Y-72022252D01*
X82520823Y-72006508D01*
X82520533Y-72002765D01*
X82507563Y-71956570D01*
X82338983Y-71524363D01*
X82317250Y-71481586D01*
X82307474Y-71469156D01*
X82295087Y-71449697D01*
X82284026Y-71435580D01*
X82274212Y-71420584D01*
X82271344Y-71417067D01*
X82179219Y-71305708D01*
X82158327Y-71284962D01*
X82137710Y-71263909D01*
X82134214Y-71261016D01*
X82022215Y-71169671D01*
X81997678Y-71153369D01*
X81973373Y-71136727D01*
X81969381Y-71134569D01*
X81841771Y-71066718D01*
X81814553Y-71055499D01*
X81787466Y-71043890D01*
X81783131Y-71042548D01*
X81644773Y-71000775D01*
X81615891Y-70995056D01*
X81587064Y-70988929D01*
X81582551Y-70988454D01*
X81438714Y-70974351D01*
X81438708Y-70974351D01*
X81422961Y-70972800D01*
X78089039Y-70972800D01*
X78075025Y-70974180D01*
X78071110Y-70974153D01*
X78066593Y-70974596D01*
X77943342Y-70987551D01*
X77914510Y-70993470D01*
X77885556Y-70998993D01*
X77881211Y-71000304D01*
X77762823Y-71036951D01*
X77735634Y-71048380D01*
X77708358Y-71059401D01*
X77704350Y-71061531D01*
X77595336Y-71120475D01*
X77570926Y-71136940D01*
X77546267Y-71153076D01*
X77542750Y-71155944D01*
X77447261Y-71234940D01*
X77426515Y-71255831D01*
X77405459Y-71276451D01*
X77402566Y-71279947D01*
X77324239Y-71375986D01*
X77307939Y-71400520D01*
X77291296Y-71424826D01*
X77289137Y-71428818D01*
X77230955Y-71538241D01*
X77219736Y-71565463D01*
X77208126Y-71592550D01*
X77206784Y-71596885D01*
X77170964Y-71715525D01*
X77165237Y-71744453D01*
X77159119Y-71773235D01*
X77158644Y-71777748D01*
X77146551Y-71901087D01*
X77146551Y-71901102D01*
X77145001Y-71916839D01*
X77145000Y-86045760D01*
X70327400Y-86045760D01*
X70327400Y-68808600D01*
X70590228Y-68808600D01*
X70591800Y-68824561D01*
X70591801Y-70392829D01*
X70590228Y-70408800D01*
X70596503Y-70472511D01*
X70615087Y-70533774D01*
X70645265Y-70590234D01*
X70685879Y-70639721D01*
X70735366Y-70680335D01*
X70791826Y-70710513D01*
X70853089Y-70729097D01*
X70900839Y-70733800D01*
X70900840Y-70733800D01*
X70916800Y-70735372D01*
X70932761Y-70733800D01*
X77200039Y-70733800D01*
X77216000Y-70735372D01*
X77231960Y-70733800D01*
X77231961Y-70733800D01*
X77279711Y-70729097D01*
X77340974Y-70710513D01*
X77397434Y-70680335D01*
X77446921Y-70639721D01*
X77487535Y-70590234D01*
X77517713Y-70533774D01*
X77536297Y-70472511D01*
X77542572Y-70408800D01*
X77541000Y-70392839D01*
X77541000Y-70281800D01*
X93272428Y-70281800D01*
X93274001Y-70297771D01*
X93274000Y-82235760D01*
X93275407Y-82250045D01*
X93275363Y-82256349D01*
X93275805Y-82260865D01*
X93296532Y-82458067D01*
X93302461Y-82486947D01*
X93307975Y-82515855D01*
X93309286Y-82520199D01*
X93367921Y-82709621D01*
X93379340Y-82736785D01*
X93390371Y-82764087D01*
X93392501Y-82768094D01*
X93486812Y-82942518D01*
X93503263Y-82966907D01*
X93519413Y-82991586D01*
X93522281Y-82995103D01*
X93648675Y-83147887D01*
X93669585Y-83168651D01*
X93690186Y-83189688D01*
X93693682Y-83192581D01*
X93847344Y-83317905D01*
X93871871Y-83334200D01*
X93896183Y-83350847D01*
X93900175Y-83353006D01*
X94075253Y-83446097D01*
X94102513Y-83457332D01*
X94129563Y-83468926D01*
X94133898Y-83470268D01*
X94323724Y-83527579D01*
X94352618Y-83533300D01*
X94381430Y-83539424D01*
X94385943Y-83539899D01*
X94583284Y-83559249D01*
X94583292Y-83559249D01*
X94599039Y-83560800D01*
X149408000Y-83560800D01*
X149408001Y-85759829D01*
X149406428Y-85775800D01*
X149412703Y-85839511D01*
X149431287Y-85900774D01*
X149461465Y-85957234D01*
X149502079Y-86006721D01*
X149551566Y-86047335D01*
X149608026Y-86077513D01*
X149669289Y-86096097D01*
X149717039Y-86100800D01*
X149717040Y-86100800D01*
X149733000Y-86102372D01*
X149748961Y-86100800D01*
X163052040Y-86100800D01*
X163068000Y-86102372D01*
X163113111Y-86097929D01*
X163131711Y-86096097D01*
X163192974Y-86077513D01*
X163249434Y-86047335D01*
X163298921Y-86006721D01*
X163339535Y-85957234D01*
X163369713Y-85900774D01*
X163388297Y-85839511D01*
X163394572Y-85775800D01*
X163393000Y-85759839D01*
X163393000Y-83124761D01*
X163394572Y-83108800D01*
X163388297Y-83045089D01*
X163369713Y-82983826D01*
X163339535Y-82927366D01*
X163298921Y-82877879D01*
X163249434Y-82837265D01*
X163192974Y-82807087D01*
X163131711Y-82788503D01*
X163083961Y-82783800D01*
X163083960Y-82783800D01*
X163068000Y-82782228D01*
X163052039Y-82783800D01*
X157424000Y-82783800D01*
X157424000Y-70297761D01*
X157425572Y-70281800D01*
X157419297Y-70218089D01*
X157400713Y-70156826D01*
X157370535Y-70100366D01*
X157329921Y-70050879D01*
X157280434Y-70010265D01*
X157223974Y-69980087D01*
X157162711Y-69961503D01*
X157114961Y-69956800D01*
X157114960Y-69956800D01*
X157099000Y-69955228D01*
X157083039Y-69956800D01*
X93614961Y-69956800D01*
X93599000Y-69955228D01*
X93583040Y-69956800D01*
X93583039Y-69956800D01*
X93535289Y-69961503D01*
X93474026Y-69980087D01*
X93417566Y-70010265D01*
X93368079Y-70050879D01*
X93327465Y-70100366D01*
X93297287Y-70156826D01*
X93278703Y-70218089D01*
X93272428Y-70281800D01*
X77541000Y-70281800D01*
X77541000Y-68824561D01*
X77542572Y-68808600D01*
X77541322Y-68795900D01*
X158525028Y-68795900D01*
X158526600Y-68811861D01*
X158526601Y-70380129D01*
X158525028Y-70396100D01*
X158531303Y-70459811D01*
X158549887Y-70521074D01*
X158580065Y-70577534D01*
X158620679Y-70627021D01*
X158670166Y-70667635D01*
X158726626Y-70697813D01*
X158787889Y-70716397D01*
X158835639Y-70721100D01*
X158835640Y-70721100D01*
X158851600Y-70722672D01*
X158867561Y-70721100D01*
X165134839Y-70721100D01*
X165150800Y-70722672D01*
X165166760Y-70721100D01*
X165166761Y-70721100D01*
X165214511Y-70716397D01*
X165275774Y-70697813D01*
X165332234Y-70667635D01*
X165381721Y-70627021D01*
X165422335Y-70577534D01*
X165452513Y-70521074D01*
X165471097Y-70459811D01*
X165477372Y-70396100D01*
X165475800Y-70380139D01*
X165475800Y-68811861D01*
X165477372Y-68795900D01*
X165471097Y-68732189D01*
X165452513Y-68670926D01*
X165422335Y-68614466D01*
X165381721Y-68564979D01*
X165332234Y-68524365D01*
X165275774Y-68494187D01*
X165214511Y-68475603D01*
X165166761Y-68470900D01*
X165150800Y-68469328D01*
X165134840Y-68470900D01*
X158867560Y-68470900D01*
X158851600Y-68469328D01*
X158835639Y-68470900D01*
X158787889Y-68475603D01*
X158726626Y-68494187D01*
X158670166Y-68524365D01*
X158620679Y-68564979D01*
X158580065Y-68614466D01*
X158549887Y-68670926D01*
X158531303Y-68732189D01*
X158525028Y-68795900D01*
X77541322Y-68795900D01*
X77536297Y-68744889D01*
X77517713Y-68683626D01*
X77487535Y-68627166D01*
X77446921Y-68577679D01*
X77397434Y-68537065D01*
X77340974Y-68506887D01*
X77279711Y-68488303D01*
X77231961Y-68483600D01*
X77216000Y-68482028D01*
X77200040Y-68483600D01*
X70932760Y-68483600D01*
X70916800Y-68482028D01*
X70900839Y-68483600D01*
X70853089Y-68488303D01*
X70791826Y-68506887D01*
X70735366Y-68537065D01*
X70685879Y-68577679D01*
X70645265Y-68627166D01*
X70615087Y-68683626D01*
X70596503Y-68744889D01*
X70590228Y-68808600D01*
X70327400Y-68808600D01*
X70327400Y-61224932D01*
X71251347Y-60332483D01*
X167781485Y-60319817D01*
X168673900Y-61243729D01*
G37*
%TD.AperFunction*%
M02*
