  0
SECTION
  2
HEADER
  9
$ANGBASE
  50
0.0
  9
$ANGDIR
  70
1
  9
$MEASUREMENT
  70
1
  0
ENDSEC
  0
SECTION
  2
TABLES
  0
TABLE
  2
LTYPE
  70
4
  0
LTYPE
  5
40F
  2
CONTINUOUS
  70
0
  3
Solid line
  72
65
  73
0
  40
0.0
  0
LTYPE
  5
410
  2
DASHDOT
 70
0
  3
Dash Dot ____ _ ____ _
 72
65
 73
4
 40
2.0
 49
1.25
 49
-0.25
 49
0.25
 49
-0.25
  0
LTYPE
  5
411
  2
DASHED
 70
0
  3
Dashed __ __ __ __ __
 72
65
 73
2
 40
0.75
 49
0.5
 49
-0.25
  0
LTYPE
  5
43B
  2
DOTTED
 70
0
  3
Dotted .  .  .  .
 72
65
 73
2
 40
0.2
 49
0.0
 49
-0.2
  0
ENDTAB
  0
TABLE
  2
STYLE
  70
4
  0
STYLE
  2
KICAD
  70
0
  40
0
  41
1
  42
1
  50
0
  71
0
  3
isocp.shx
  0
STYLE
  2
KICADB
  70
0
  40
0
  41
1
  42
1
  50
0
  71
0
  3
isocp.shx
  0
STYLE
  2
KICADI
  70
0
  40
0
  41
1
  42
1
  50
15
  71
0
  3
isocp.shx
  0
STYLE
  2
KICADBI
  70
0
  40
0
  41
1
  42
1
  50
15
  71
0
  3
isocp.shx
  0
ENDTAB
  0
TABLE
  2
LAYER
  70
1
  0
LAYER
  2
BLACK
  70
0
  62
7
  6
CONTINUOUS
  0
ENDTAB
  0
ENDSEC
  0
SECTION
  2
ENTITIES
0
LINE
8
BLACK
6
CONTINUOUS
10
149.989
20
-93.4911
11
150.308
21
-93.623
0
LINE
8
BLACK
6
CONTINUOUS
10
150.308
20
-93.623
11
150.595
21
-93.8145
0
LINE
8
BLACK
6
CONTINUOUS
10
150.595
20
-93.8145
11
150.838
21
-94.0582
0
LINE
8
BLACK
6
CONTINUOUS
10
150.838
20
-94.0582
11
151.03
21
-94.3449
0
LINE
8
BLACK
6
CONTINUOUS
10
151.03
20
-94.3449
11
151.162
21
-94.6633
0
LINE
8
BLACK
6
CONTINUOUS
10
151.162
20
-94.6633
11
151.229
21
-95.0014
0
LINE
8
BLACK
6
CONTINUOUS
10
151.229
20
-95.0014
11
151.229
21
-95.3462
0
LINE
8
BLACK
6
CONTINUOUS
10
151.229
20
-95.3462
11
151.162
21
-95.6843
0
LINE
8
BLACK
6
CONTINUOUS
10
151.162
20
-95.6843
11
151.03
21
-96.0027
0
LINE
8
BLACK
6
CONTINUOUS
10
151.03
20
-96.0027
11
150.838
21
-96.2894
0
LINE
8
BLACK
6
CONTINUOUS
10
150.838
20
-96.2894
11
150.595
21
-96.5331
0
LINE
8
BLACK
6
CONTINUOUS
10
150.595
20
-96.5331
11
150.308
21
-96.7246
0
LINE
8
BLACK
6
CONTINUOUS
10
150.308
20
-96.7246
11
149.989
21
-96.8565
0
LINE
8
BLACK
6
CONTINUOUS
10
149.989
20
-96.8565
11
149.651
21
-96.9238
0
LINE
8
BLACK
6
CONTINUOUS
10
149.651
20
-96.9238
11
149.307
21
-96.9238
0
LINE
8
BLACK
6
CONTINUOUS
10
149.307
20
-96.9238
11
148.969
21
-96.8565
0
LINE
8
BLACK
6
CONTINUOUS
10
148.969
20
-96.8565
11
148.65
21
-96.7246
0
LINE
8
BLACK
6
CONTINUOUS
10
148.65
20
-96.7246
11
148.363
21
-96.5331
0
LINE
8
BLACK
6
CONTINUOUS
10
148.363
20
-96.5331
11
148.12
21
-96.2894
0
LINE
8
BLACK
6
CONTINUOUS
10
148.12
20
-96.2894
11
147.928
21
-96.0027
0
LINE
8
BLACK
6
CONTINUOUS
10
147.928
20
-96.0027
11
147.796
21
-95.6843
0
LINE
8
BLACK
6
CONTINUOUS
10
147.796
20
-95.6843
11
147.729
21
-95.3462
0
LINE
8
BLACK
6
CONTINUOUS
10
147.729
20
-95.3462
11
147.729
21
-95.0014
0
LINE
8
BLACK
6
CONTINUOUS
10
147.729
20
-95.0014
11
147.796
21
-94.6633
0
LINE
8
BLACK
6
CONTINUOUS
10
147.796
20
-94.6633
11
147.928
21
-94.3449
0
LINE
8
BLACK
6
CONTINUOUS
10
147.928
20
-94.3449
11
148.12
21
-94.0582
0
LINE
8
BLACK
6
CONTINUOUS
10
148.12
20
-94.0582
11
148.363
21
-93.8145
0
LINE
8
BLACK
6
CONTINUOUS
10
148.363
20
-93.8145
11
148.65
21
-93.623
0
LINE
8
BLACK
6
CONTINUOUS
10
148.65
20
-93.623
11
148.969
21
-93.4911
0
LINE
8
BLACK
6
CONTINUOUS
10
148.969
20
-93.4911
11
149.307
21
-93.4238
0
LINE
8
BLACK
6
CONTINUOUS
10
149.307
20
-93.4238
11
149.651
21
-93.4238
0
LINE
8
BLACK
6
CONTINUOUS
10
149.651
20
-93.4238
11
149.989
21
-93.4911
0
LINE
8
BLACK
6
CONTINUOUS
10
90.0201
20
-93.453
11
90.3385
21
-93.5849
0
LINE
8
BLACK
6
CONTINUOUS
10
90.3385
20
-93.5849
11
90.6252
21
-93.7764
0
LINE
8
BLACK
6
CONTINUOUS
10
90.6252
20
-93.7764
11
90.8689
21
-94.0201
0
LINE
8
BLACK
6
CONTINUOUS
10
90.8689
20
-94.0201
11
91.0604
21
-94.3068
0
LINE
8
BLACK
6
CONTINUOUS
10
91.0604
20
-94.3068
11
91.1923
21
-94.6252
0
LINE
8
BLACK
6
CONTINUOUS
10
91.1923
20
-94.6252
11
91.2596
21
-94.9633
0
LINE
8
BLACK
6
CONTINUOUS
10
91.2596
20
-94.9633
11
91.2596
21
-95.3081
0
LINE
8
BLACK
6
CONTINUOUS
10
91.2596
20
-95.3081
11
91.1923
21
-95.6462
0
LINE
8
BLACK
6
CONTINUOUS
10
91.1923
20
-95.6462
11
91.0604
21
-95.9646
0
LINE
8
BLACK
6
CONTINUOUS
10
91.0604
20
-95.9646
11
90.8689
21
-96.2513
0
LINE
8
BLACK
6
CONTINUOUS
10
90.8689
20
-96.2513
11
90.6252
21
-96.495
0
LINE
8
BLACK
6
CONTINUOUS
10
90.6252
20
-96.495
11
90.3385
21
-96.6865
0
LINE
8
BLACK
6
CONTINUOUS
10
90.3385
20
-96.6865
11
90.0201
21
-96.8184
0
LINE
8
BLACK
6
CONTINUOUS
10
90.0201
20
-96.8184
11
89.682
21
-96.8857
0
LINE
8
BLACK
6
CONTINUOUS
10
89.682
20
-96.8857
11
89.3372
21
-96.8857
0
LINE
8
BLACK
6
CONTINUOUS
10
89.3372
20
-96.8857
11
88.9991
21
-96.8184
0
LINE
8
BLACK
6
CONTINUOUS
10
88.9991
20
-96.8184
11
88.6807
21
-96.6865
0
LINE
8
BLACK
6
CONTINUOUS
10
88.6807
20
-96.6865
11
88.394
21
-96.495
0
LINE
8
BLACK
6
CONTINUOUS
10
88.394
20
-96.495
11
88.1503
21
-96.2513
0
LINE
8
BLACK
6
CONTINUOUS
10
88.1503
20
-96.2513
11
87.9588
21
-95.9646
0
LINE
8
BLACK
6
CONTINUOUS
10
87.9588
20
-95.9646
11
87.8269
21
-95.6462
0
LINE
8
BLACK
6
CONTINUOUS
10
87.8269
20
-95.6462
11
87.7596
21
-95.3081
0
LINE
8
BLACK
6
CONTINUOUS
10
87.7596
20
-95.3081
11
87.7596
21
-94.9633
0
LINE
8
BLACK
6
CONTINUOUS
10
87.7596
20
-94.9633
11
87.8269
21
-94.6252
0
LINE
8
BLACK
6
CONTINUOUS
10
87.8269
20
-94.6252
11
87.9588
21
-94.3068
0
LINE
8
BLACK
6
CONTINUOUS
10
87.9588
20
-94.3068
11
88.1503
21
-94.0201
0
LINE
8
BLACK
6
CONTINUOUS
10
88.1503
20
-94.0201
11
88.394
21
-93.7764
0
LINE
8
BLACK
6
CONTINUOUS
10
88.394
20
-93.7764
11
88.6807
21
-93.5849
0
LINE
8
BLACK
6
CONTINUOUS
10
88.6807
20
-93.5849
11
88.9991
21
-93.453
0
LINE
8
BLACK
6
CONTINUOUS
10
88.9991
20
-93.453
11
89.3372
21
-93.3857
0
LINE
8
BLACK
6
CONTINUOUS
10
89.3372
20
-93.3857
11
89.682
21
-93.3857
0
LINE
8
BLACK
6
CONTINUOUS
10
89.682
20
-93.3857
11
90.0201
21
-93.453
0
LINE
8
BLACK
6
CONTINUOUS
10
164.338
20
-95.5048
11
164.338
21
-95.5048
0
LINE
8
BLACK
6
CONTINUOUS
10
164.338
20
-95.5048
11
164.338
21
-95.5048
0
LINE
8
BLACK
6
CONTINUOUS
10
164.338
20
-95.5048
11
164.339
21
-95.5048
0
LINE
8
BLACK
6
CONTINUOUS
10
164.339
20
-95.5048
11
164.343
21
-95.5053
0
LINE
8
BLACK
6
CONTINUOUS
10
164.343
20
-95.5053
11
164.348
21
-95.5058
0
LINE
8
BLACK
6
CONTINUOUS
10
164.348
20
-95.5058
11
164.348
21
-95.5059
0
LINE
8
BLACK
6
CONTINUOUS
10
164.348
20
-95.5059
11
164.348
21
-95.5059
0
LINE
8
BLACK
6
CONTINUOUS
10
164.348
20
-95.5059
11
164.353
21
-95.5073
0
LINE
8
BLACK
6
CONTINUOUS
10
164.353
20
-95.5073
11
164.357
21
-95.5087
0
LINE
8
BLACK
6
CONTINUOUS
10
164.357
20
-95.5087
11
164.358
21
-95.5088
0
LINE
8
BLACK
6
CONTINUOUS
10
164.358
20
-95.5088
11
164.358
21
-95.5088
0
LINE
8
BLACK
6
CONTINUOUS
10
164.358
20
-95.5088
11
164.362
21
-95.5111
0
LINE
8
BLACK
6
CONTINUOUS
10
164.362
20
-95.5111
11
164.366
21
-95.5133
0
LINE
8
BLACK
6
CONTINUOUS
10
164.366
20
-95.5133
11
164.366
21
-95.5135
0
LINE
8
BLACK
6
CONTINUOUS
10
164.366
20
-95.5135
11
164.366
21
-95.5135
0
LINE
8
BLACK
6
CONTINUOUS
10
164.366
20
-95.5135
11
164.37
21
-95.5165
0
LINE
8
BLACK
6
CONTINUOUS
10
164.37
20
-95.5165
11
164.373
21
-95.5196
0
LINE
8
BLACK
6
CONTINUOUS
10
164.373
20
-95.5196
11
164.374
21
-95.5197
0
LINE
8
BLACK
6
CONTINUOUS
10
164.374
20
-95.5197
11
164.374
21
-95.5198
0
LINE
8
BLACK
6
CONTINUOUS
10
164.374
20
-95.5198
11
164.377
21
-95.5234
0
LINE
8
BLACK
6
CONTINUOUS
10
164.377
20
-95.5234
11
164.38
21
-95.5271
0
LINE
8
BLACK
6
CONTINUOUS
10
164.38
20
-95.5271
11
164.38
21
-95.5273
0
LINE
8
BLACK
6
CONTINUOUS
10
164.38
20
-95.5273
11
164.38
21
-95.5274
0
LINE
8
BLACK
6
CONTINUOUS
10
164.38
20
-95.5274
11
164.382
21
-95.5315
0
LINE
8
BLACK
6
CONTINUOUS
10
164.382
20
-95.5315
11
164.384
21
-95.5357
0
LINE
8
BLACK
6
CONTINUOUS
10
164.384
20
-95.5357
11
164.384
21
-95.5359
0
LINE
8
BLACK
6
CONTINUOUS
10
164.384
20
-95.5359
11
164.384
21
-95.5361
0
LINE
8
BLACK
6
CONTINUOUS
10
164.384
20
-95.5361
11
164.386
21
-95.5405
0
LINE
8
BLACK
6
CONTINUOUS
10
164.386
20
-95.5405
11
164.387
21
-95.5451
0
LINE
8
BLACK
6
CONTINUOUS
10
164.387
20
-95.5451
11
164.387
21
-95.5453
0
LINE
8
BLACK
6
CONTINUOUS
10
164.387
20
-95.5453
11
164.387
21
-95.5454
0
LINE
8
BLACK
6
CONTINUOUS
10
164.387
20
-95.5454
11
164.388
21
-95.5501
0
LINE
8
BLACK
6
CONTINUOUS
10
164.388
20
-95.5501
11
164.388
21
-95.5548
0
LINE
8
BLACK
6
CONTINUOUS
10
164.388
20
-95.5548
11
164.388
21
-96.1898
0
LINE
8
BLACK
6
CONTINUOUS
10
164.388
20
-96.1898
11
164.388
21
-96.1901
0
LINE
8
BLACK
6
CONTINUOUS
10
164.388
20
-96.1901
11
164.388
21
-96.1901
0
LINE
8
BLACK
6
CONTINUOUS
10
164.388
20
-96.1901
11
164.388
21
-96.1902
0
LINE
8
BLACK
6
CONTINUOUS
10
164.388
20
-96.1902
11
164.388
21
-96.1905
0
LINE
8
BLACK
6
CONTINUOUS
10
164.388
20
-96.1905
11
164.387
21
-96.1951
0
LINE
8
BLACK
6
CONTINUOUS
10
164.387
20
-96.1951
11
164.387
21
-96.1999
0
LINE
8
BLACK
6
CONTINUOUS
10
164.387
20
-96.1999
11
164.387
21
-96.2
0
LINE
8
BLACK
6
CONTINUOUS
10
164.387
20
-96.2
11
164.387
21
-96.2002
0
LINE
8
BLACK
6
CONTINUOUS
10
164.387
20
-96.2002
11
164.385
21
-96.2047
0
LINE
8
BLACK
6
CONTINUOUS
10
164.385
20
-96.2047
11
164.384
21
-96.2092
0
LINE
8
BLACK
6
CONTINUOUS
10
164.384
20
-96.2092
11
164.384
21
-96.2093
0
LINE
8
BLACK
6
CONTINUOUS
10
164.384
20
-96.2093
11
164.384
21
-96.2095
0
LINE
8
BLACK
6
CONTINUOUS
10
164.384
20
-96.2095
11
164.382
21
-96.2136
0
LINE
8
BLACK
6
CONTINUOUS
10
164.382
20
-96.2136
11
164.379
21
-96.2178
0
LINE
8
BLACK
6
CONTINUOUS
10
164.379
20
-96.2178
11
164.379
21
-96.2179
0
LINE
8
BLACK
6
CONTINUOUS
10
164.379
20
-96.2179
11
164.379
21
-96.218
0
LINE
8
BLACK
6
CONTINUOUS
10
164.379
20
-96.218
11
164.376
21
-96.2216
0
LINE
8
BLACK
6
CONTINUOUS
10
164.376
20
-96.2216
11
164.373
21
-96.2253
0
LINE
8
BLACK
6
CONTINUOUS
10
164.373
20
-96.2253
11
164.373
21
-96.2254
0
LINE
8
BLACK
6
CONTINUOUS
10
164.373
20
-96.2254
11
164.373
21
-96.2255
0
LINE
8
BLACK
6
CONTINUOUS
10
164.373
20
-96.2255
11
164.369
21
-96.2284
0
LINE
8
BLACK
6
CONTINUOUS
10
164.369
20
-96.2284
11
164.366
21
-96.2314
0
LINE
8
BLACK
6
CONTINUOUS
10
164.366
20
-96.2314
11
164.366
21
-96.2315
0
LINE
8
BLACK
6
CONTINUOUS
10
164.366
20
-96.2315
11
164.365
21
-96.2316
0
LINE
8
BLACK
6
CONTINUOUS
10
164.365
20
-96.2316
11
164.361
21
-96.2338
0
LINE
8
BLACK
6
CONTINUOUS
10
164.361
20
-96.2338
11
164.357
21
-96.236
0
LINE
8
BLACK
6
CONTINUOUS
10
164.357
20
-96.236
11
164.357
21
-96.2361
0
LINE
8
BLACK
6
CONTINUOUS
10
164.357
20
-96.2361
11
164.357
21
-96.2362
0
LINE
8
BLACK
6
CONTINUOUS
10
164.357
20
-96.2362
11
164.352
21
-96.2375
0
LINE
8
BLACK
6
CONTINUOUS
10
164.352
20
-96.2375
11
164.348
21
-96.2388
0
LINE
8
BLACK
6
CONTINUOUS
10
164.348
20
-96.2388
11
164.348
21
-96.2389
0
LINE
8
BLACK
6
CONTINUOUS
10
164.348
20
-96.2389
11
164.347
21
-96.2389
0
LINE
8
BLACK
6
CONTINUOUS
10
164.347
20
-96.2389
11
164.343
21
-96.2393
0
LINE
8
BLACK
6
CONTINUOUS
10
164.343
20
-96.2393
11
164.338
21
-96.2398
0
LINE
8
BLACK
6
CONTINUOUS
10
164.338
20
-96.2398
11
163.703
21
-96.2398
0
LINE
8
BLACK
6
CONTINUOUS
10
163.703
20
-96.2398
11
163.703
21
-96.2398
0
LINE
8
BLACK
6
CONTINUOUS
10
163.703
20
-96.2398
11
163.703
21
-96.2398
0
LINE
8
BLACK
6
CONTINUOUS
10
163.703
20
-96.2398
11
163.703
21
-96.2398
0
LINE
8
BLACK
6
CONTINUOUS
10
163.703
20
-96.2398
11
163.702
21
-96.2398
0
LINE
8
BLACK
6
CONTINUOUS
10
163.702
20
-96.2398
11
163.698
21
-96.2393
0
LINE
8
BLACK
6
CONTINUOUS
10
163.698
20
-96.2393
11
163.693
21
-96.2388
0
LINE
8
BLACK
6
CONTINUOUS
10
163.693
20
-96.2388
11
163.693
21
-96.2387
0
LINE
8
BLACK
6
CONTINUOUS
10
163.693
20
-96.2387
11
163.693
21
-96.2387
0
LINE
8
BLACK
6
CONTINUOUS
10
163.693
20
-96.2387
11
163.688
21
-96.2373
0
LINE
8
BLACK
6
CONTINUOUS
10
163.688
20
-96.2373
11
163.684
21
-96.2359
0
LINE
8
BLACK
6
CONTINUOUS
10
163.684
20
-96.2359
11
163.683
21
-96.2358
0
LINE
8
BLACK
6
CONTINUOUS
10
163.683
20
-96.2358
11
163.683
21
-96.2358
0
LINE
8
BLACK
6
CONTINUOUS
10
163.683
20
-96.2358
11
163.679
21
-96.2335
0
LINE
8
BLACK
6
CONTINUOUS
10
163.679
20
-96.2335
11
163.675
21
-96.2313
0
LINE
8
BLACK
6
CONTINUOUS
10
163.675
20
-96.2313
11
163.675
21
-96.2311
0
LINE
8
BLACK
6
CONTINUOUS
10
163.675
20
-96.2311
11
163.675
21
-96.2311
0
LINE
8
BLACK
6
CONTINUOUS
10
163.675
20
-96.2311
11
163.671
21
-96.2281
0
LINE
8
BLACK
6
CONTINUOUS
10
163.671
20
-96.2281
11
163.668
21
-96.225
0
LINE
8
BLACK
6
CONTINUOUS
10
163.668
20
-96.225
11
163.667
21
-96.2249
0
LINE
8
BLACK
6
CONTINUOUS
10
163.667
20
-96.2249
11
163.667
21
-96.2248
0
LINE
8
BLACK
6
CONTINUOUS
10
163.667
20
-96.2248
11
163.664
21
-96.2212
0
LINE
8
BLACK
6
CONTINUOUS
10
163.664
20
-96.2212
11
163.661
21
-96.2175
0
LINE
8
BLACK
6
CONTINUOUS
10
163.661
20
-96.2175
11
163.661
21
-96.2173
0
LINE
8
BLACK
6
CONTINUOUS
10
163.661
20
-96.2173
11
163.661
21
-96.2172
0
LINE
8
BLACK
6
CONTINUOUS
10
163.661
20
-96.2172
11
163.659
21
-96.2131
0
LINE
8
BLACK
6
CONTINUOUS
10
163.659
20
-96.2131
11
163.657
21
-96.2089
0
LINE
8
BLACK
6
CONTINUOUS
10
163.657
20
-96.2089
11
163.657
21
-96.2087
0
LINE
8
BLACK
6
CONTINUOUS
10
163.657
20
-96.2087
11
163.657
21
-96.2085
0
LINE
8
BLACK
6
CONTINUOUS
10
163.657
20
-96.2085
11
163.655
21
-96.2041
0
LINE
8
BLACK
6
CONTINUOUS
10
163.655
20
-96.2041
11
163.654
21
-96.1995
0
LINE
8
BLACK
6
CONTINUOUS
10
163.654
20
-96.1995
11
163.654
21
-96.1993
0
LINE
8
BLACK
6
CONTINUOUS
10
163.654
20
-96.1993
11
163.654
21
-96.1992
0
LINE
8
BLACK
6
CONTINUOUS
10
163.654
20
-96.1992
11
163.653
21
-96.1945
0
LINE
8
BLACK
6
CONTINUOUS
10
163.653
20
-96.1945
11
163.653
21
-96.1898
0
LINE
8
BLACK
6
CONTINUOUS
10
163.653
20
-96.1898
11
163.653
21
-95.5548
0
LINE
8
BLACK
6
CONTINUOUS
10
163.653
20
-95.5548
11
163.653
21
-95.5545
0
LINE
8
BLACK
6
CONTINUOUS
10
163.653
20
-95.5545
11
163.653
21
-95.5545
0
LINE
8
BLACK
6
CONTINUOUS
10
163.653
20
-95.5545
11
163.653
21
-95.5544
0
LINE
8
BLACK
6
CONTINUOUS
10
163.653
20
-95.5544
11
163.653
21
-95.5541
0
LINE
8
BLACK
6
CONTINUOUS
10
163.653
20
-95.5541
11
163.654
21
-95.5495
0
LINE
8
BLACK
6
CONTINUOUS
10
163.654
20
-95.5495
11
163.654
21
-95.5447
0
LINE
8
BLACK
6
CONTINUOUS
10
163.654
20
-95.5447
11
163.654
21
-95.5446
0
LINE
8
BLACK
6
CONTINUOUS
10
163.654
20
-95.5446
11
163.654
21
-95.5444
0
LINE
8
BLACK
6
CONTINUOUS
10
163.654
20
-95.5444
11
163.656
21
-95.5399
0
LINE
8
BLACK
6
CONTINUOUS
10
163.656
20
-95.5399
11
163.657
21
-95.5354
0
LINE
8
BLACK
6
CONTINUOUS
10
163.657
20
-95.5354
11
163.657
21
-95.5353
0
LINE
8
BLACK
6
CONTINUOUS
10
163.657
20
-95.5353
11
163.657
21
-95.5351
0
LINE
8
BLACK
6
CONTINUOUS
10
163.657
20
-95.5351
11
163.659
21
-95.531
0
LINE
8
BLACK
6
CONTINUOUS
10
163.659
20
-95.531
11
163.662
21
-95.5268
0
LINE
8
BLACK
6
CONTINUOUS
10
163.662
20
-95.5268
11
163.662
21
-95.5267
0
LINE
8
BLACK
6
CONTINUOUS
10
163.662
20
-95.5267
11
163.662
21
-95.5266
0
LINE
8
BLACK
6
CONTINUOUS
10
163.662
20
-95.5266
11
163.665
21
-95.523
0
LINE
8
BLACK
6
CONTINUOUS
10
163.665
20
-95.523
11
163.668
21
-95.5193
0
LINE
8
BLACK
6
CONTINUOUS
10
163.668
20
-95.5193
11
163.668
21
-95.5192
0
LINE
8
BLACK
6
CONTINUOUS
10
163.668
20
-95.5192
11
163.668
21
-95.5191
0
LINE
8
BLACK
6
CONTINUOUS
10
163.668
20
-95.5191
11
163.672
21
-95.5162
0
LINE
8
BLACK
6
CONTINUOUS
10
163.672
20
-95.5162
11
163.675
21
-95.5132
0
LINE
8
BLACK
6
CONTINUOUS
10
163.675
20
-95.5132
11
163.675
21
-95.5131
0
LINE
8
BLACK
6
CONTINUOUS
10
163.675
20
-95.5131
11
163.676
21
-95.513
0
LINE
8
BLACK
6
CONTINUOUS
10
163.676
20
-95.513
11
163.68
21
-95.5108
0
LINE
8
BLACK
6
CONTINUOUS
10
163.68
20
-95.5108
11
163.684
21
-95.5086
0
LINE
8
BLACK
6
CONTINUOUS
10
163.684
20
-95.5086
11
163.684
21
-95.5085
0
LINE
8
BLACK
6
CONTINUOUS
10
163.684
20
-95.5085
11
163.684
21
-95.5084
0
LINE
8
BLACK
6
CONTINUOUS
10
163.684
20
-95.5084
11
163.689
21
-95.5071
0
LINE
8
BLACK
6
CONTINUOUS
10
163.689
20
-95.5071
11
163.693
21
-95.5058
0
LINE
8
BLACK
6
CONTINUOUS
10
163.693
20
-95.5058
11
163.693
21
-95.5057
0
LINE
8
BLACK
6
CONTINUOUS
10
163.693
20
-95.5057
11
163.694
21
-95.5057
0
LINE
8
BLACK
6
CONTINUOUS
10
163.694
20
-95.5057
11
163.698
21
-95.5053
0
LINE
8
BLACK
6
CONTINUOUS
10
163.698
20
-95.5053
11
163.703
21
-95.5048
0
LINE
8
BLACK
6
CONTINUOUS
10
163.703
20
-95.5048
11
164.338
21
-95.5048
0
LINE
8
BLACK
6
CONTINUOUS
10
164.338
20
-95.5048
11
164.338
21
-95.5048
0
LINE
8
BLACK
6
CONTINUOUS
10
161.798
20
-95.5048
11
161.798
21
-95.5048
0
LINE
8
BLACK
6
CONTINUOUS
10
161.798
20
-95.5048
11
161.798
21
-95.5048
0
LINE
8
BLACK
6
CONTINUOUS
10
161.798
20
-95.5048
11
161.799
21
-95.5048
0
LINE
8
BLACK
6
CONTINUOUS
10
161.799
20
-95.5048
11
161.803
21
-95.5053
0
LINE
8
BLACK
6
CONTINUOUS
10
161.803
20
-95.5053
11
161.808
21
-95.5058
0
LINE
8
BLACK
6
CONTINUOUS
10
161.808
20
-95.5058
11
161.808
21
-95.5059
0
LINE
8
BLACK
6
CONTINUOUS
10
161.808
20
-95.5059
11
161.808
21
-95.5059
0
LINE
8
BLACK
6
CONTINUOUS
10
161.808
20
-95.5059
11
161.813
21
-95.5073
0
LINE
8
BLACK
6
CONTINUOUS
10
161.813
20
-95.5073
11
161.817
21
-95.5087
0
LINE
8
BLACK
6
CONTINUOUS
10
161.817
20
-95.5087
11
161.818
21
-95.5088
0
LINE
8
BLACK
6
CONTINUOUS
10
161.818
20
-95.5088
11
161.818
21
-95.5088
0
LINE
8
BLACK
6
CONTINUOUS
10
161.818
20
-95.5088
11
161.822
21
-95.5111
0
LINE
8
BLACK
6
CONTINUOUS
10
161.822
20
-95.5111
11
161.826
21
-95.5133
0
LINE
8
BLACK
6
CONTINUOUS
10
161.826
20
-95.5133
11
161.826
21
-95.5135
0
LINE
8
BLACK
6
CONTINUOUS
10
161.826
20
-95.5135
11
161.826
21
-95.5135
0
LINE
8
BLACK
6
CONTINUOUS
10
161.826
20
-95.5135
11
161.83
21
-95.5165
0
LINE
8
BLACK
6
CONTINUOUS
10
161.83
20
-95.5165
11
161.833
21
-95.5196
0
LINE
8
BLACK
6
CONTINUOUS
10
161.833
20
-95.5196
11
161.834
21
-95.5197
0
LINE
8
BLACK
6
CONTINUOUS
10
161.834
20
-95.5197
11
161.834
21
-95.5198
0
LINE
8
BLACK
6
CONTINUOUS
10
161.834
20
-95.5198
11
161.837
21
-95.5234
0
LINE
8
BLACK
6
CONTINUOUS
10
161.837
20
-95.5234
11
161.84
21
-95.5271
0
LINE
8
BLACK
6
CONTINUOUS
10
161.84
20
-95.5271
11
161.84
21
-95.5273
0
LINE
8
BLACK
6
CONTINUOUS
10
161.84
20
-95.5273
11
161.84
21
-95.5274
0
LINE
8
BLACK
6
CONTINUOUS
10
161.84
20
-95.5274
11
161.842
21
-95.5315
0
LINE
8
BLACK
6
CONTINUOUS
10
161.842
20
-95.5315
11
161.844
21
-95.5357
0
LINE
8
BLACK
6
CONTINUOUS
10
161.844
20
-95.5357
11
161.844
21
-95.5359
0
LINE
8
BLACK
6
CONTINUOUS
10
161.844
20
-95.5359
11
161.844
21
-95.5361
0
LINE
8
BLACK
6
CONTINUOUS
10
161.844
20
-95.5361
11
161.846
21
-95.5405
0
LINE
8
BLACK
6
CONTINUOUS
10
161.846
20
-95.5405
11
161.847
21
-95.5451
0
LINE
8
BLACK
6
CONTINUOUS
10
161.847
20
-95.5451
11
161.847
21
-95.5453
0
LINE
8
BLACK
6
CONTINUOUS
10
161.847
20
-95.5453
11
161.847
21
-95.5454
0
LINE
8
BLACK
6
CONTINUOUS
10
161.847
20
-95.5454
11
161.848
21
-95.5501
0
LINE
8
BLACK
6
CONTINUOUS
10
161.848
20
-95.5501
11
161.848
21
-95.5548
0
LINE
8
BLACK
6
CONTINUOUS
10
161.848
20
-95.5548
11
161.848
21
-96.1898
0
LINE
8
BLACK
6
CONTINUOUS
10
161.848
20
-96.1898
11
161.848
21
-96.1901
0
LINE
8
BLACK
6
CONTINUOUS
10
161.848
20
-96.1901
11
161.848
21
-96.1901
0
LINE
8
BLACK
6
CONTINUOUS
10
161.848
20
-96.1901
11
161.848
21
-96.1902
0
LINE
8
BLACK
6
CONTINUOUS
10
161.848
20
-96.1902
11
161.848
21
-96.1905
0
LINE
8
BLACK
6
CONTINUOUS
10
161.848
20
-96.1905
11
161.847
21
-96.1951
0
LINE
8
BLACK
6
CONTINUOUS
10
161.847
20
-96.1951
11
161.847
21
-96.1999
0
LINE
8
BLACK
6
CONTINUOUS
10
161.847
20
-96.1999
11
161.847
21
-96.2
0
LINE
8
BLACK
6
CONTINUOUS
10
161.847
20
-96.2
11
161.847
21
-96.2002
0
LINE
8
BLACK
6
CONTINUOUS
10
161.847
20
-96.2002
11
161.845
21
-96.2047
0
LINE
8
BLACK
6
CONTINUOUS
10
161.845
20
-96.2047
11
161.844
21
-96.2092
0
LINE
8
BLACK
6
CONTINUOUS
10
161.844
20
-96.2092
11
161.844
21
-96.2093
0
LINE
8
BLACK
6
CONTINUOUS
10
161.844
20
-96.2093
11
161.844
21
-96.2095
0
LINE
8
BLACK
6
CONTINUOUS
10
161.844
20
-96.2095
11
161.842
21
-96.2136
0
LINE
8
BLACK
6
CONTINUOUS
10
161.842
20
-96.2136
11
161.839
21
-96.2178
0
LINE
8
BLACK
6
CONTINUOUS
10
161.839
20
-96.2178
11
161.839
21
-96.2179
0
LINE
8
BLACK
6
CONTINUOUS
10
161.839
20
-96.2179
11
161.839
21
-96.218
0
LINE
8
BLACK
6
CONTINUOUS
10
161.839
20
-96.218
11
161.836
21
-96.2216
0
LINE
8
BLACK
6
CONTINUOUS
10
161.836
20
-96.2216
11
161.833
21
-96.2253
0
LINE
8
BLACK
6
CONTINUOUS
10
161.833
20
-96.2253
11
161.833
21
-96.2254
0
LINE
8
BLACK
6
CONTINUOUS
10
161.833
20
-96.2254
11
161.833
21
-96.2255
0
LINE
8
BLACK
6
CONTINUOUS
10
161.833
20
-96.2255
11
161.829
21
-96.2284
0
LINE
8
BLACK
6
CONTINUOUS
10
161.829
20
-96.2284
11
161.826
21
-96.2314
0
LINE
8
BLACK
6
CONTINUOUS
10
161.826
20
-96.2314
11
161.826
21
-96.2315
0
LINE
8
BLACK
6
CONTINUOUS
10
161.826
20
-96.2315
11
161.825
21
-96.2316
0
LINE
8
BLACK
6
CONTINUOUS
10
161.825
20
-96.2316
11
161.821
21
-96.2338
0
LINE
8
BLACK
6
CONTINUOUS
10
161.821
20
-96.2338
11
161.817
21
-96.236
0
LINE
8
BLACK
6
CONTINUOUS
10
161.817
20
-96.236
11
161.817
21
-96.2361
0
LINE
8
BLACK
6
CONTINUOUS
10
161.817
20
-96.2361
11
161.817
21
-96.2362
0
LINE
8
BLACK
6
CONTINUOUS
10
161.817
20
-96.2362
11
161.812
21
-96.2375
0
LINE
8
BLACK
6
CONTINUOUS
10
161.812
20
-96.2375
11
161.808
21
-96.2388
0
LINE
8
BLACK
6
CONTINUOUS
10
161.808
20
-96.2388
11
161.808
21
-96.2389
0
LINE
8
BLACK
6
CONTINUOUS
10
161.808
20
-96.2389
11
161.807
21
-96.2389
0
LINE
8
BLACK
6
CONTINUOUS
10
161.807
20
-96.2389
11
161.803
21
-96.2393
0
LINE
8
BLACK
6
CONTINUOUS
10
161.803
20
-96.2393
11
161.798
21
-96.2398
0
LINE
8
BLACK
6
CONTINUOUS
10
161.798
20
-96.2398
11
161.163
21
-96.2398
0
LINE
8
BLACK
6
CONTINUOUS
10
161.163
20
-96.2398
11
161.163
21
-96.2398
0
LINE
8
BLACK
6
CONTINUOUS
10
161.163
20
-96.2398
11
161.163
21
-96.2398
0
LINE
8
BLACK
6
CONTINUOUS
10
161.163
20
-96.2398
11
161.163
21
-96.2398
0
LINE
8
BLACK
6
CONTINUOUS
10
161.163
20
-96.2398
11
161.162
21
-96.2398
0
LINE
8
BLACK
6
CONTINUOUS
10
161.162
20
-96.2398
11
161.158
21
-96.2393
0
LINE
8
BLACK
6
CONTINUOUS
10
161.158
20
-96.2393
11
161.153
21
-96.2388
0
LINE
8
BLACK
6
CONTINUOUS
10
161.153
20
-96.2388
11
161.153
21
-96.2387
0
LINE
8
BLACK
6
CONTINUOUS
10
161.153
20
-96.2387
11
161.153
21
-96.2387
0
LINE
8
BLACK
6
CONTINUOUS
10
161.153
20
-96.2387
11
161.148
21
-96.2373
0
LINE
8
BLACK
6
CONTINUOUS
10
161.148
20
-96.2373
11
161.144
21
-96.2359
0
LINE
8
BLACK
6
CONTINUOUS
10
161.144
20
-96.2359
11
161.143
21
-96.2358
0
LINE
8
BLACK
6
CONTINUOUS
10
161.143
20
-96.2358
11
161.143
21
-96.2358
0
LINE
8
BLACK
6
CONTINUOUS
10
161.143
20
-96.2358
11
161.139
21
-96.2335
0
LINE
8
BLACK
6
CONTINUOUS
10
161.139
20
-96.2335
11
161.135
21
-96.2313
0
LINE
8
BLACK
6
CONTINUOUS
10
161.135
20
-96.2313
11
161.135
21
-96.2311
0
LINE
8
BLACK
6
CONTINUOUS
10
161.135
20
-96.2311
11
161.135
21
-96.2311
0
LINE
8
BLACK
6
CONTINUOUS
10
161.135
20
-96.2311
11
161.131
21
-96.2281
0
LINE
8
BLACK
6
CONTINUOUS
10
161.131
20
-96.2281
11
161.128
21
-96.225
0
LINE
8
BLACK
6
CONTINUOUS
10
161.128
20
-96.225
11
161.127
21
-96.2249
0
LINE
8
BLACK
6
CONTINUOUS
10
161.127
20
-96.2249
11
161.127
21
-96.2248
0
LINE
8
BLACK
6
CONTINUOUS
10
161.127
20
-96.2248
11
161.124
21
-96.2212
0
LINE
8
BLACK
6
CONTINUOUS
10
161.124
20
-96.2212
11
161.121
21
-96.2175
0
LINE
8
BLACK
6
CONTINUOUS
10
161.121
20
-96.2175
11
161.121
21
-96.2173
0
LINE
8
BLACK
6
CONTINUOUS
10
161.121
20
-96.2173
11
161.121
21
-96.2172
0
LINE
8
BLACK
6
CONTINUOUS
10
161.121
20
-96.2172
11
161.119
21
-96.2131
0
LINE
8
BLACK
6
CONTINUOUS
10
161.119
20
-96.2131
11
161.117
21
-96.2089
0
LINE
8
BLACK
6
CONTINUOUS
10
161.117
20
-96.2089
11
161.117
21
-96.2087
0
LINE
8
BLACK
6
CONTINUOUS
10
161.117
20
-96.2087
11
161.117
21
-96.2085
0
LINE
8
BLACK
6
CONTINUOUS
10
161.117
20
-96.2085
11
161.115
21
-96.2041
0
LINE
8
BLACK
6
CONTINUOUS
10
161.115
20
-96.2041
11
161.114
21
-96.1995
0
LINE
8
BLACK
6
CONTINUOUS
10
161.114
20
-96.1995
11
161.114
21
-96.1993
0
LINE
8
BLACK
6
CONTINUOUS
10
161.114
20
-96.1993
11
161.114
21
-96.1992
0
LINE
8
BLACK
6
CONTINUOUS
10
161.114
20
-96.1992
11
161.113
21
-96.1945
0
LINE
8
BLACK
6
CONTINUOUS
10
161.113
20
-96.1945
11
161.113
21
-96.1898
0
LINE
8
BLACK
6
CONTINUOUS
10
161.113
20
-96.1898
11
161.113
21
-95.5548
0
LINE
8
BLACK
6
CONTINUOUS
10
161.113
20
-95.5548
11
161.113
21
-95.5545
0
LINE
8
BLACK
6
CONTINUOUS
10
161.113
20
-95.5545
11
161.113
21
-95.5545
0
LINE
8
BLACK
6
CONTINUOUS
10
161.113
20
-95.5545
11
161.113
21
-95.5544
0
LINE
8
BLACK
6
CONTINUOUS
10
161.113
20
-95.5544
11
161.113
21
-95.5541
0
LINE
8
BLACK
6
CONTINUOUS
10
161.113
20
-95.5541
11
161.114
21
-95.5495
0
LINE
8
BLACK
6
CONTINUOUS
10
161.114
20
-95.5495
11
161.114
21
-95.5447
0
LINE
8
BLACK
6
CONTINUOUS
10
161.114
20
-95.5447
11
161.114
21
-95.5446
0
LINE
8
BLACK
6
CONTINUOUS
10
161.114
20
-95.5446
11
161.114
21
-95.5444
0
LINE
8
BLACK
6
CONTINUOUS
10
161.114
20
-95.5444
11
161.116
21
-95.5399
0
LINE
8
BLACK
6
CONTINUOUS
10
161.116
20
-95.5399
11
161.117
21
-95.5354
0
LINE
8
BLACK
6
CONTINUOUS
10
161.117
20
-95.5354
11
161.117
21
-95.5353
0
LINE
8
BLACK
6
CONTINUOUS
10
161.117
20
-95.5353
11
161.117
21
-95.5351
0
LINE
8
BLACK
6
CONTINUOUS
10
161.117
20
-95.5351
11
161.119
21
-95.531
0
LINE
8
BLACK
6
CONTINUOUS
10
161.119
20
-95.531
11
161.122
21
-95.5268
0
LINE
8
BLACK
6
CONTINUOUS
10
161.122
20
-95.5268
11
161.122
21
-95.5267
0
LINE
8
BLACK
6
CONTINUOUS
10
161.122
20
-95.5267
11
161.122
21
-95.5266
0
LINE
8
BLACK
6
CONTINUOUS
10
161.122
20
-95.5266
11
161.125
21
-95.523
0
LINE
8
BLACK
6
CONTINUOUS
10
161.125
20
-95.523
11
161.128
21
-95.5193
0
LINE
8
BLACK
6
CONTINUOUS
10
161.128
20
-95.5193
11
161.128
21
-95.5192
0
LINE
8
BLACK
6
CONTINUOUS
10
161.128
20
-95.5192
11
161.128
21
-95.5191
0
LINE
8
BLACK
6
CONTINUOUS
10
161.128
20
-95.5191
11
161.132
21
-95.5162
0
LINE
8
BLACK
6
CONTINUOUS
10
161.132
20
-95.5162
11
161.135
21
-95.5132
0
LINE
8
BLACK
6
CONTINUOUS
10
161.135
20
-95.5132
11
161.135
21
-95.5131
0
LINE
8
BLACK
6
CONTINUOUS
10
161.135
20
-95.5131
11
161.136
21
-95.513
0
LINE
8
BLACK
6
CONTINUOUS
10
161.136
20
-95.513
11
161.14
21
-95.5108
0
LINE
8
BLACK
6
CONTINUOUS
10
161.14
20
-95.5108
11
161.144
21
-95.5086
0
LINE
8
BLACK
6
CONTINUOUS
10
161.144
20
-95.5086
11
161.144
21
-95.5085
0
LINE
8
BLACK
6
CONTINUOUS
10
161.144
20
-95.5085
11
161.144
21
-95.5084
0
LINE
8
BLACK
6
CONTINUOUS
10
161.144
20
-95.5084
11
161.149
21
-95.5071
0
LINE
8
BLACK
6
CONTINUOUS
10
161.149
20
-95.5071
11
161.153
21
-95.5058
0
LINE
8
BLACK
6
CONTINUOUS
10
161.153
20
-95.5058
11
161.153
21
-95.5057
0
LINE
8
BLACK
6
CONTINUOUS
10
161.153
20
-95.5057
11
161.154
21
-95.5057
0
LINE
8
BLACK
6
CONTINUOUS
10
161.154
20
-95.5057
11
161.158
21
-95.5053
0
LINE
8
BLACK
6
CONTINUOUS
10
161.158
20
-95.5053
11
161.163
21
-95.5048
0
LINE
8
BLACK
6
CONTINUOUS
10
161.163
20
-95.5048
11
161.798
21
-95.5048
0
LINE
8
BLACK
6
CONTINUOUS
10
161.798
20
-95.5048
11
161.798
21
-95.5048
0
LINE
8
BLACK
6
CONTINUOUS
10
165.608
20
-95.5048
11
165.608
21
-95.5048
0
LINE
8
BLACK
6
CONTINUOUS
10
165.608
20
-95.5048
11
165.608
21
-95.5048
0
LINE
8
BLACK
6
CONTINUOUS
10
165.608
20
-95.5048
11
165.609
21
-95.5048
0
LINE
8
BLACK
6
CONTINUOUS
10
165.609
20
-95.5048
11
165.613
21
-95.5053
0
LINE
8
BLACK
6
CONTINUOUS
10
165.613
20
-95.5053
11
165.618
21
-95.5058
0
LINE
8
BLACK
6
CONTINUOUS
10
165.618
20
-95.5058
11
165.618
21
-95.5059
0
LINE
8
BLACK
6
CONTINUOUS
10
165.618
20
-95.5059
11
165.618
21
-95.5059
0
LINE
8
BLACK
6
CONTINUOUS
10
165.618
20
-95.5059
11
165.623
21
-95.5073
0
LINE
8
BLACK
6
CONTINUOUS
10
165.623
20
-95.5073
11
165.627
21
-95.5087
0
LINE
8
BLACK
6
CONTINUOUS
10
165.627
20
-95.5087
11
165.628
21
-95.5088
0
LINE
8
BLACK
6
CONTINUOUS
10
165.628
20
-95.5088
11
165.628
21
-95.5088
0
LINE
8
BLACK
6
CONTINUOUS
10
165.628
20
-95.5088
11
165.632
21
-95.5111
0
LINE
8
BLACK
6
CONTINUOUS
10
165.632
20
-95.5111
11
165.636
21
-95.5133
0
LINE
8
BLACK
6
CONTINUOUS
10
165.636
20
-95.5133
11
165.636
21
-95.5135
0
LINE
8
BLACK
6
CONTINUOUS
10
165.636
20
-95.5135
11
165.636
21
-95.5135
0
LINE
8
BLACK
6
CONTINUOUS
10
165.636
20
-95.5135
11
165.64
21
-95.5165
0
LINE
8
BLACK
6
CONTINUOUS
10
165.64
20
-95.5165
11
165.643
21
-95.5196
0
LINE
8
BLACK
6
CONTINUOUS
10
165.643
20
-95.5196
11
165.644
21
-95.5197
0
LINE
8
BLACK
6
CONTINUOUS
10
165.644
20
-95.5197
11
165.644
21
-95.5198
0
LINE
8
BLACK
6
CONTINUOUS
10
165.644
20
-95.5198
11
165.647
21
-95.5234
0
LINE
8
BLACK
6
CONTINUOUS
10
165.647
20
-95.5234
11
165.65
21
-95.5271
0
LINE
8
BLACK
6
CONTINUOUS
10
165.65
20
-95.5271
11
165.65
21
-95.5273
0
LINE
8
BLACK
6
CONTINUOUS
10
165.65
20
-95.5273
11
165.65
21
-95.5274
0
LINE
8
BLACK
6
CONTINUOUS
10
165.65
20
-95.5274
11
165.652
21
-95.5315
0
LINE
8
BLACK
6
CONTINUOUS
10
165.652
20
-95.5315
11
165.654
21
-95.5357
0
LINE
8
BLACK
6
CONTINUOUS
10
165.654
20
-95.5357
11
165.654
21
-95.5359
0
LINE
8
BLACK
6
CONTINUOUS
10
165.654
20
-95.5359
11
165.654
21
-95.5361
0
LINE
8
BLACK
6
CONTINUOUS
10
165.654
20
-95.5361
11
165.656
21
-95.5405
0
LINE
8
BLACK
6
CONTINUOUS
10
165.656
20
-95.5405
11
165.657
21
-95.5451
0
LINE
8
BLACK
6
CONTINUOUS
10
165.657
20
-95.5451
11
165.657
21
-95.5453
0
LINE
8
BLACK
6
CONTINUOUS
10
165.657
20
-95.5453
11
165.657
21
-95.5454
0
LINE
8
BLACK
6
CONTINUOUS
10
165.657
20
-95.5454
11
165.658
21
-95.5501
0
LINE
8
BLACK
6
CONTINUOUS
10
165.658
20
-95.5501
11
165.658
21
-95.5548
0
LINE
8
BLACK
6
CONTINUOUS
10
165.658
20
-95.5548
11
165.658
21
-96.1898
0
LINE
8
BLACK
6
CONTINUOUS
10
165.658
20
-96.1898
11
165.658
21
-96.1901
0
LINE
8
BLACK
6
CONTINUOUS
10
165.658
20
-96.1901
11
165.658
21
-96.1901
0
LINE
8
BLACK
6
CONTINUOUS
10
165.658
20
-96.1901
11
165.658
21
-96.1902
0
LINE
8
BLACK
6
CONTINUOUS
10
165.658
20
-96.1902
11
165.658
21
-96.1905
0
LINE
8
BLACK
6
CONTINUOUS
10
165.658
20
-96.1905
11
165.657
21
-96.1951
0
LINE
8
BLACK
6
CONTINUOUS
10
165.657
20
-96.1951
11
165.657
21
-96.1999
0
LINE
8
BLACK
6
CONTINUOUS
10
165.657
20
-96.1999
11
165.657
21
-96.2
0
LINE
8
BLACK
6
CONTINUOUS
10
165.657
20
-96.2
11
165.657
21
-96.2002
0
LINE
8
BLACK
6
CONTINUOUS
10
165.657
20
-96.2002
11
165.655
21
-96.2047
0
LINE
8
BLACK
6
CONTINUOUS
10
165.655
20
-96.2047
11
165.654
21
-96.2092
0
LINE
8
BLACK
6
CONTINUOUS
10
165.654
20
-96.2092
11
165.654
21
-96.2093
0
LINE
8
BLACK
6
CONTINUOUS
10
165.654
20
-96.2093
11
165.654
21
-96.2095
0
LINE
8
BLACK
6
CONTINUOUS
10
165.654
20
-96.2095
11
165.652
21
-96.2136
0
LINE
8
BLACK
6
CONTINUOUS
10
165.652
20
-96.2136
11
165.649
21
-96.2178
0
LINE
8
BLACK
6
CONTINUOUS
10
165.649
20
-96.2178
11
165.649
21
-96.2179
0
LINE
8
BLACK
6
CONTINUOUS
10
165.649
20
-96.2179
11
165.649
21
-96.218
0
LINE
8
BLACK
6
CONTINUOUS
10
165.649
20
-96.218
11
165.646
21
-96.2216
0
LINE
8
BLACK
6
CONTINUOUS
10
165.646
20
-96.2216
11
165.643
21
-96.2253
0
LINE
8
BLACK
6
CONTINUOUS
10
165.643
20
-96.2253
11
165.643
21
-96.2254
0
LINE
8
BLACK
6
CONTINUOUS
10
165.643
20
-96.2254
11
165.643
21
-96.2255
0
LINE
8
BLACK
6
CONTINUOUS
10
165.643
20
-96.2255
11
165.639
21
-96.2284
0
LINE
8
BLACK
6
CONTINUOUS
10
165.639
20
-96.2284
11
165.636
21
-96.2314
0
LINE
8
BLACK
6
CONTINUOUS
10
165.636
20
-96.2314
11
165.636
21
-96.2315
0
LINE
8
BLACK
6
CONTINUOUS
10
165.636
20
-96.2315
11
165.635
21
-96.2316
0
LINE
8
BLACK
6
CONTINUOUS
10
165.635
20
-96.2316
11
165.631
21
-96.2338
0
LINE
8
BLACK
6
CONTINUOUS
10
165.631
20
-96.2338
11
165.627
21
-96.236
0
LINE
8
BLACK
6
CONTINUOUS
10
165.627
20
-96.236
11
165.627
21
-96.2361
0
LINE
8
BLACK
6
CONTINUOUS
10
165.627
20
-96.2361
11
165.627
21
-96.2362
0
LINE
8
BLACK
6
CONTINUOUS
10
165.627
20
-96.2362
11
165.622
21
-96.2375
0
LINE
8
BLACK
6
CONTINUOUS
10
165.622
20
-96.2375
11
165.618
21
-96.2388
0
LINE
8
BLACK
6
CONTINUOUS
10
165.618
20
-96.2388
11
165.618
21
-96.2389
0
LINE
8
BLACK
6
CONTINUOUS
10
165.618
20
-96.2389
11
165.617
21
-96.2389
0
LINE
8
BLACK
6
CONTINUOUS
10
165.617
20
-96.2389
11
165.613
21
-96.2393
0
LINE
8
BLACK
6
CONTINUOUS
10
165.613
20
-96.2393
11
165.608
21
-96.2398
0
LINE
8
BLACK
6
CONTINUOUS
10
165.608
20
-96.2398
11
164.973
21
-96.2398
0
LINE
8
BLACK
6
CONTINUOUS
10
164.973
20
-96.2398
11
164.973
21
-96.2398
0
LINE
8
BLACK
6
CONTINUOUS
10
164.973
20
-96.2398
11
164.973
21
-96.2398
0
LINE
8
BLACK
6
CONTINUOUS
10
164.973
20
-96.2398
11
164.973
21
-96.2398
0
LINE
8
BLACK
6
CONTINUOUS
10
164.973
20
-96.2398
11
164.972
21
-96.2398
0
LINE
8
BLACK
6
CONTINUOUS
10
164.972
20
-96.2398
11
164.968
21
-96.2393
0
LINE
8
BLACK
6
CONTINUOUS
10
164.968
20
-96.2393
11
164.963
21
-96.2388
0
LINE
8
BLACK
6
CONTINUOUS
10
164.963
20
-96.2388
11
164.963
21
-96.2387
0
LINE
8
BLACK
6
CONTINUOUS
10
164.963
20
-96.2387
11
164.963
21
-96.2387
0
LINE
8
BLACK
6
CONTINUOUS
10
164.963
20
-96.2387
11
164.958
21
-96.2373
0
LINE
8
BLACK
6
CONTINUOUS
10
164.958
20
-96.2373
11
164.954
21
-96.2359
0
LINE
8
BLACK
6
CONTINUOUS
10
164.954
20
-96.2359
11
164.953
21
-96.2358
0
LINE
8
BLACK
6
CONTINUOUS
10
164.953
20
-96.2358
11
164.953
21
-96.2358
0
LINE
8
BLACK
6
CONTINUOUS
10
164.953
20
-96.2358
11
164.949
21
-96.2335
0
LINE
8
BLACK
6
CONTINUOUS
10
164.949
20
-96.2335
11
164.945
21
-96.2313
0
LINE
8
BLACK
6
CONTINUOUS
10
164.945
20
-96.2313
11
164.945
21
-96.2311
0
LINE
8
BLACK
6
CONTINUOUS
10
164.945
20
-96.2311
11
164.945
21
-96.2311
0
LINE
8
BLACK
6
CONTINUOUS
10
164.945
20
-96.2311
11
164.941
21
-96.2281
0
LINE
8
BLACK
6
CONTINUOUS
10
164.941
20
-96.2281
11
164.938
21
-96.225
0
LINE
8
BLACK
6
CONTINUOUS
10
164.938
20
-96.225
11
164.937
21
-96.2249
0
LINE
8
BLACK
6
CONTINUOUS
10
164.937
20
-96.2249
11
164.937
21
-96.2248
0
LINE
8
BLACK
6
CONTINUOUS
10
164.937
20
-96.2248
11
164.934
21
-96.2212
0
LINE
8
BLACK
6
CONTINUOUS
10
164.934
20
-96.2212
11
164.931
21
-96.2175
0
LINE
8
BLACK
6
CONTINUOUS
10
164.931
20
-96.2175
11
164.931
21
-96.2173
0
LINE
8
BLACK
6
CONTINUOUS
10
164.931
20
-96.2173
11
164.931
21
-96.2172
0
LINE
8
BLACK
6
CONTINUOUS
10
164.931
20
-96.2172
11
164.929
21
-96.2131
0
LINE
8
BLACK
6
CONTINUOUS
10
164.929
20
-96.2131
11
164.927
21
-96.2089
0
LINE
8
BLACK
6
CONTINUOUS
10
164.927
20
-96.2089
11
164.927
21
-96.2087
0
LINE
8
BLACK
6
CONTINUOUS
10
164.927
20
-96.2087
11
164.927
21
-96.2085
0
LINE
8
BLACK
6
CONTINUOUS
10
164.927
20
-96.2085
11
164.925
21
-96.2041
0
LINE
8
BLACK
6
CONTINUOUS
10
164.925
20
-96.2041
11
164.924
21
-96.1995
0
LINE
8
BLACK
6
CONTINUOUS
10
164.924
20
-96.1995
11
164.924
21
-96.1993
0
LINE
8
BLACK
6
CONTINUOUS
10
164.924
20
-96.1993
11
164.924
21
-96.1992
0
LINE
8
BLACK
6
CONTINUOUS
10
164.924
20
-96.1992
11
164.923
21
-96.1945
0
LINE
8
BLACK
6
CONTINUOUS
10
164.923
20
-96.1945
11
164.923
21
-96.1898
0
LINE
8
BLACK
6
CONTINUOUS
10
164.923
20
-96.1898
11
164.923
21
-95.5548
0
LINE
8
BLACK
6
CONTINUOUS
10
164.923
20
-95.5548
11
164.923
21
-95.5545
0
LINE
8
BLACK
6
CONTINUOUS
10
164.923
20
-95.5545
11
164.923
21
-95.5545
0
LINE
8
BLACK
6
CONTINUOUS
10
164.923
20
-95.5545
11
164.923
21
-95.5544
0
LINE
8
BLACK
6
CONTINUOUS
10
164.923
20
-95.5544
11
164.923
21
-95.5541
0
LINE
8
BLACK
6
CONTINUOUS
10
164.923
20
-95.5541
11
164.924
21
-95.5495
0
LINE
8
BLACK
6
CONTINUOUS
10
164.924
20
-95.5495
11
164.924
21
-95.5447
0
LINE
8
BLACK
6
CONTINUOUS
10
164.924
20
-95.5447
11
164.924
21
-95.5446
0
LINE
8
BLACK
6
CONTINUOUS
10
164.924
20
-95.5446
11
164.924
21
-95.5444
0
LINE
8
BLACK
6
CONTINUOUS
10
164.924
20
-95.5444
11
164.926
21
-95.5399
0
LINE
8
BLACK
6
CONTINUOUS
10
164.926
20
-95.5399
11
164.927
21
-95.5354
0
LINE
8
BLACK
6
CONTINUOUS
10
164.927
20
-95.5354
11
164.927
21
-95.5353
0
LINE
8
BLACK
6
CONTINUOUS
10
164.927
20
-95.5353
11
164.927
21
-95.5351
0
LINE
8
BLACK
6
CONTINUOUS
10
164.927
20
-95.5351
11
164.929
21
-95.531
0
LINE
8
BLACK
6
CONTINUOUS
10
164.929
20
-95.531
11
164.932
21
-95.5268
0
LINE
8
BLACK
6
CONTINUOUS
10
164.932
20
-95.5268
11
164.932
21
-95.5267
0
LINE
8
BLACK
6
CONTINUOUS
10
164.932
20
-95.5267
11
164.932
21
-95.5266
0
LINE
8
BLACK
6
CONTINUOUS
10
164.932
20
-95.5266
11
164.935
21
-95.523
0
LINE
8
BLACK
6
CONTINUOUS
10
164.935
20
-95.523
11
164.938
21
-95.5193
0
LINE
8
BLACK
6
CONTINUOUS
10
164.938
20
-95.5193
11
164.938
21
-95.5192
0
LINE
8
BLACK
6
CONTINUOUS
10
164.938
20
-95.5192
11
164.938
21
-95.5191
0
LINE
8
BLACK
6
CONTINUOUS
10
164.938
20
-95.5191
11
164.942
21
-95.5162
0
LINE
8
BLACK
6
CONTINUOUS
10
164.942
20
-95.5162
11
164.945
21
-95.5132
0
LINE
8
BLACK
6
CONTINUOUS
10
164.945
20
-95.5132
11
164.945
21
-95.5131
0
LINE
8
BLACK
6
CONTINUOUS
10
164.945
20
-95.5131
11
164.946
21
-95.513
0
LINE
8
BLACK
6
CONTINUOUS
10
164.946
20
-95.513
11
164.95
21
-95.5108
0
LINE
8
BLACK
6
CONTINUOUS
10
164.95
20
-95.5108
11
164.954
21
-95.5086
0
LINE
8
BLACK
6
CONTINUOUS
10
164.954
20
-95.5086
11
164.954
21
-95.5085
0
LINE
8
BLACK
6
CONTINUOUS
10
164.954
20
-95.5085
11
164.954
21
-95.5084
0
LINE
8
BLACK
6
CONTINUOUS
10
164.954
20
-95.5084
11
164.959
21
-95.5071
0
LINE
8
BLACK
6
CONTINUOUS
10
164.959
20
-95.5071
11
164.963
21
-95.5058
0
LINE
8
BLACK
6
CONTINUOUS
10
164.963
20
-95.5058
11
164.963
21
-95.5057
0
LINE
8
BLACK
6
CONTINUOUS
10
164.963
20
-95.5057
11
164.964
21
-95.5057
0
LINE
8
BLACK
6
CONTINUOUS
10
164.964
20
-95.5057
11
164.968
21
-95.5053
0
LINE
8
BLACK
6
CONTINUOUS
10
164.968
20
-95.5053
11
164.973
21
-95.5048
0
LINE
8
BLACK
6
CONTINUOUS
10
164.973
20
-95.5048
11
165.608
21
-95.5048
0
LINE
8
BLACK
6
CONTINUOUS
10
165.608
20
-95.5048
11
165.608
21
-95.5048
0
LINE
8
BLACK
6
CONTINUOUS
10
161.163
20
-94.2348
11
161.163
21
-94.2348
0
LINE
8
BLACK
6
CONTINUOUS
10
161.163
20
-94.2348
11
161.163
21
-94.2348
0
LINE
8
BLACK
6
CONTINUOUS
10
161.163
20
-94.2348
11
161.164
21
-94.2348
0
LINE
8
BLACK
6
CONTINUOUS
10
161.164
20
-94.2348
11
161.168
21
-94.2353
0
LINE
8
BLACK
6
CONTINUOUS
10
161.168
20
-94.2353
11
161.173
21
-94.2358
0
LINE
8
BLACK
6
CONTINUOUS
10
161.173
20
-94.2358
11
161.173
21
-94.2359
0
LINE
8
BLACK
6
CONTINUOUS
10
161.173
20
-94.2359
11
161.173
21
-94.2359
0
LINE
8
BLACK
6
CONTINUOUS
10
161.173
20
-94.2359
11
161.178
21
-94.2373
0
LINE
8
BLACK
6
CONTINUOUS
10
161.178
20
-94.2373
11
161.182
21
-94.2387
0
LINE
8
BLACK
6
CONTINUOUS
10
161.182
20
-94.2387
11
161.183
21
-94.2388
0
LINE
8
BLACK
6
CONTINUOUS
10
161.183
20
-94.2388
11
161.183
21
-94.2388
0
LINE
8
BLACK
6
CONTINUOUS
10
161.183
20
-94.2388
11
161.187
21
-94.2411
0
LINE
8
BLACK
6
CONTINUOUS
10
161.187
20
-94.2411
11
161.191
21
-94.2433
0
LINE
8
BLACK
6
CONTINUOUS
10
161.191
20
-94.2433
11
161.191
21
-94.2435
0
LINE
8
BLACK
6
CONTINUOUS
10
161.191
20
-94.2435
11
161.191
21
-94.2435
0
LINE
8
BLACK
6
CONTINUOUS
10
161.191
20
-94.2435
11
161.195
21
-94.2465
0
LINE
8
BLACK
6
CONTINUOUS
10
161.195
20
-94.2465
11
161.198
21
-94.2496
0
LINE
8
BLACK
6
CONTINUOUS
10
161.198
20
-94.2496
11
161.199
21
-94.2497
0
LINE
8
BLACK
6
CONTINUOUS
10
161.199
20
-94.2497
11
161.199
21
-94.2498
0
LINE
8
BLACK
6
CONTINUOUS
10
161.199
20
-94.2498
11
161.202
21
-94.2534
0
LINE
8
BLACK
6
CONTINUOUS
10
161.202
20
-94.2534
11
161.205
21
-94.2571
0
LINE
8
BLACK
6
CONTINUOUS
10
161.205
20
-94.2571
11
161.205
21
-94.2573
0
LINE
8
BLACK
6
CONTINUOUS
10
161.205
20
-94.2573
11
161.205
21
-94.2574
0
LINE
8
BLACK
6
CONTINUOUS
10
161.205
20
-94.2574
11
161.207
21
-94.2615
0
LINE
8
BLACK
6
CONTINUOUS
10
161.207
20
-94.2615
11
161.209
21
-94.2657
0
LINE
8
BLACK
6
CONTINUOUS
10
161.209
20
-94.2657
11
161.209
21
-94.2659
0
LINE
8
BLACK
6
CONTINUOUS
10
161.209
20
-94.2659
11
161.209
21
-94.2661
0
LINE
8
BLACK
6
CONTINUOUS
10
161.209
20
-94.2661
11
161.211
21
-94.2705
0
LINE
8
BLACK
6
CONTINUOUS
10
161.211
20
-94.2705
11
161.212
21
-94.2751
0
LINE
8
BLACK
6
CONTINUOUS
10
161.212
20
-94.2751
11
161.212
21
-94.2753
0
LINE
8
BLACK
6
CONTINUOUS
10
161.212
20
-94.2753
11
161.212
21
-94.2754
0
LINE
8
BLACK
6
CONTINUOUS
10
161.212
20
-94.2754
11
161.213
21
-94.2801
0
LINE
8
BLACK
6
CONTINUOUS
10
161.213
20
-94.2801
11
161.213
21
-94.2848
0
LINE
8
BLACK
6
CONTINUOUS
10
161.213
20
-94.2848
11
161.213
21
-94.9198
0
LINE
8
BLACK
6
CONTINUOUS
10
161.213
20
-94.9198
11
161.213
21
-94.9201
0
LINE
8
BLACK
6
CONTINUOUS
10
161.213
20
-94.9201
11
161.213
21
-94.9201
0
LINE
8
BLACK
6
CONTINUOUS
10
161.213
20
-94.9201
11
161.213
21
-94.9202
0
LINE
8
BLACK
6
CONTINUOUS
10
161.213
20
-94.9202
11
161.213
21
-94.9205
0
LINE
8
BLACK
6
CONTINUOUS
10
161.213
20
-94.9205
11
161.212
21
-94.9251
0
LINE
8
BLACK
6
CONTINUOUS
10
161.212
20
-94.9251
11
161.212
21
-94.9299
0
LINE
8
BLACK
6
CONTINUOUS
10
161.212
20
-94.9299
11
161.212
21
-94.93
0
LINE
8
BLACK
6
CONTINUOUS
10
161.212
20
-94.93
11
161.212
21
-94.9302
0
LINE
8
BLACK
6
CONTINUOUS
10
161.212
20
-94.9302
11
161.21
21
-94.9347
0
LINE
8
BLACK
6
CONTINUOUS
10
161.21
20
-94.9347
11
161.209
21
-94.9392
0
LINE
8
BLACK
6
CONTINUOUS
10
161.209
20
-94.9392
11
161.209
21
-94.9393
0
LINE
8
BLACK
6
CONTINUOUS
10
161.209
20
-94.9393
11
161.209
21
-94.9395
0
LINE
8
BLACK
6
CONTINUOUS
10
161.209
20
-94.9395
11
161.207
21
-94.9436
0
LINE
8
BLACK
6
CONTINUOUS
10
161.207
20
-94.9436
11
161.204
21
-94.9478
0
LINE
8
BLACK
6
CONTINUOUS
10
161.204
20
-94.9478
11
161.204
21
-94.9479
0
LINE
8
BLACK
6
CONTINUOUS
10
161.204
20
-94.9479
11
161.204
21
-94.948
0
LINE
8
BLACK
6
CONTINUOUS
10
161.204
20
-94.948
11
161.201
21
-94.9516
0
LINE
8
BLACK
6
CONTINUOUS
10
161.201
20
-94.9516
11
161.198
21
-94.9553
0
LINE
8
BLACK
6
CONTINUOUS
10
161.198
20
-94.9553
11
161.198
21
-94.9554
0
LINE
8
BLACK
6
CONTINUOUS
10
161.198
20
-94.9554
11
161.198
21
-94.9555
0
LINE
8
BLACK
6
CONTINUOUS
10
161.198
20
-94.9555
11
161.194
21
-94.9584
0
LINE
8
BLACK
6
CONTINUOUS
10
161.194
20
-94.9584
11
161.191
21
-94.9614
0
LINE
8
BLACK
6
CONTINUOUS
10
161.191
20
-94.9614
11
161.191
21
-94.9615
0
LINE
8
BLACK
6
CONTINUOUS
10
161.191
20
-94.9615
11
161.19
21
-94.9616
0
LINE
8
BLACK
6
CONTINUOUS
10
161.19
20
-94.9616
11
161.186
21
-94.9638
0
LINE
8
BLACK
6
CONTINUOUS
10
161.186
20
-94.9638
11
161.182
21
-94.966
0
LINE
8
BLACK
6
CONTINUOUS
10
161.182
20
-94.966
11
161.182
21
-94.9661
0
LINE
8
BLACK
6
CONTINUOUS
10
161.182
20
-94.9661
11
161.182
21
-94.9662
0
LINE
8
BLACK
6
CONTINUOUS
10
161.182
20
-94.9662
11
161.177
21
-94.9675
0
LINE
8
BLACK
6
CONTINUOUS
10
161.177
20
-94.9675
11
161.173
21
-94.9688
0
LINE
8
BLACK
6
CONTINUOUS
10
161.173
20
-94.9688
11
161.173
21
-94.9689
0
LINE
8
BLACK
6
CONTINUOUS
10
161.173
20
-94.9689
11
161.172
21
-94.9689
0
LINE
8
BLACK
6
CONTINUOUS
10
161.172
20
-94.9689
11
161.168
21
-94.9693
0
LINE
8
BLACK
6
CONTINUOUS
10
161.168
20
-94.9693
11
161.163
21
-94.9698
0
LINE
8
BLACK
6
CONTINUOUS
10
161.163
20
-94.9698
11
160.528
21
-94.9698
0
LINE
8
BLACK
6
CONTINUOUS
10
160.528
20
-94.9698
11
160.528
21
-94.9698
0
LINE
8
BLACK
6
CONTINUOUS
10
160.528
20
-94.9698
11
160.528
21
-94.9698
0
LINE
8
BLACK
6
CONTINUOUS
10
160.528
20
-94.9698
11
160.528
21
-94.9698
0
LINE
8
BLACK
6
CONTINUOUS
10
160.528
20
-94.9698
11
160.527
21
-94.9698
0
LINE
8
BLACK
6
CONTINUOUS
10
160.527
20
-94.9698
11
160.523
21
-94.9693
0
LINE
8
BLACK
6
CONTINUOUS
10
160.523
20
-94.9693
11
160.518
21
-94.9688
0
LINE
8
BLACK
6
CONTINUOUS
10
160.518
20
-94.9688
11
160.518
21
-94.9687
0
LINE
8
BLACK
6
CONTINUOUS
10
160.518
20
-94.9687
11
160.518
21
-94.9687
0
LINE
8
BLACK
6
CONTINUOUS
10
160.518
20
-94.9687
11
160.513
21
-94.9673
0
LINE
8
BLACK
6
CONTINUOUS
10
160.513
20
-94.9673
11
160.509
21
-94.9659
0
LINE
8
BLACK
6
CONTINUOUS
10
160.509
20
-94.9659
11
160.508
21
-94.9658
0
LINE
8
BLACK
6
CONTINUOUS
10
160.508
20
-94.9658
11
160.508
21
-94.9658
0
LINE
8
BLACK
6
CONTINUOUS
10
160.508
20
-94.9658
11
160.504
21
-94.9635
0
LINE
8
BLACK
6
CONTINUOUS
10
160.504
20
-94.9635
11
160.5
21
-94.9613
0
LINE
8
BLACK
6
CONTINUOUS
10
160.5
20
-94.9613
11
160.5
21
-94.9611
0
LINE
8
BLACK
6
CONTINUOUS
10
160.5
20
-94.9611
11
160.5
21
-94.9611
0
LINE
8
BLACK
6
CONTINUOUS
10
160.5
20
-94.9611
11
160.496
21
-94.9581
0
LINE
8
BLACK
6
CONTINUOUS
10
160.496
20
-94.9581
11
160.493
21
-94.955
0
LINE
8
BLACK
6
CONTINUOUS
10
160.493
20
-94.955
11
160.492
21
-94.9549
0
LINE
8
BLACK
6
CONTINUOUS
10
160.492
20
-94.9549
11
160.492
21
-94.9548
0
LINE
8
BLACK
6
CONTINUOUS
10
160.492
20
-94.9548
11
160.489
21
-94.9512
0
LINE
8
BLACK
6
CONTINUOUS
10
160.489
20
-94.9512
11
160.486
21
-94.9475
0
LINE
8
BLACK
6
CONTINUOUS
10
160.486
20
-94.9475
11
160.486
21
-94.9473
0
LINE
8
BLACK
6
CONTINUOUS
10
160.486
20
-94.9473
11
160.486
21
-94.9472
0
LINE
8
BLACK
6
CONTINUOUS
10
160.486
20
-94.9472
11
160.484
21
-94.9431
0
LINE
8
BLACK
6
CONTINUOUS
10
160.484
20
-94.9431
11
160.482
21
-94.9389
0
LINE
8
BLACK
6
CONTINUOUS
10
160.482
20
-94.9389
11
160.482
21
-94.9387
0
LINE
8
BLACK
6
CONTINUOUS
10
160.482
20
-94.9387
11
160.482
21
-94.9385
0
LINE
8
BLACK
6
CONTINUOUS
10
160.482
20
-94.9385
11
160.48
21
-94.9341
0
LINE
8
BLACK
6
CONTINUOUS
10
160.48
20
-94.9341
11
160.479
21
-94.9295
0
LINE
8
BLACK
6
CONTINUOUS
10
160.479
20
-94.9295
11
160.479
21
-94.9293
0
LINE
8
BLACK
6
CONTINUOUS
10
160.479
20
-94.9293
11
160.479
21
-94.9292
0
LINE
8
BLACK
6
CONTINUOUS
10
160.479
20
-94.9292
11
160.478
21
-94.9245
0
LINE
8
BLACK
6
CONTINUOUS
10
160.478
20
-94.9245
11
160.478
21
-94.9198
0
LINE
8
BLACK
6
CONTINUOUS
10
160.478
20
-94.9198
11
160.478
21
-94.2848
0
LINE
8
BLACK
6
CONTINUOUS
10
160.478
20
-94.2848
11
160.478
21
-94.2845
0
LINE
8
BLACK
6
CONTINUOUS
10
160.478
20
-94.2845
11
160.478
21
-94.2845
0
LINE
8
BLACK
6
CONTINUOUS
10
160.478
20
-94.2845
11
160.478
21
-94.2844
0
LINE
8
BLACK
6
CONTINUOUS
10
160.478
20
-94.2844
11
160.478
21
-94.2841
0
LINE
8
BLACK
6
CONTINUOUS
10
160.478
20
-94.2841
11
160.479
21
-94.2795
0
LINE
8
BLACK
6
CONTINUOUS
10
160.479
20
-94.2795
11
160.479
21
-94.2747
0
LINE
8
BLACK
6
CONTINUOUS
10
160.479
20
-94.2747
11
160.479
21
-94.2746
0
LINE
8
BLACK
6
CONTINUOUS
10
160.479
20
-94.2746
11
160.479
21
-94.2744
0
LINE
8
BLACK
6
CONTINUOUS
10
160.479
20
-94.2744
11
160.481
21
-94.2699
0
LINE
8
BLACK
6
CONTINUOUS
10
160.481
20
-94.2699
11
160.482
21
-94.2654
0
LINE
8
BLACK
6
CONTINUOUS
10
160.482
20
-94.2654
11
160.482
21
-94.2653
0
LINE
8
BLACK
6
CONTINUOUS
10
160.482
20
-94.2653
11
160.482
21
-94.2651
0
LINE
8
BLACK
6
CONTINUOUS
10
160.482
20
-94.2651
11
160.484
21
-94.261
0
LINE
8
BLACK
6
CONTINUOUS
10
160.484
20
-94.261
11
160.487
21
-94.2568
0
LINE
8
BLACK
6
CONTINUOUS
10
160.487
20
-94.2568
11
160.487
21
-94.2567
0
LINE
8
BLACK
6
CONTINUOUS
10
160.487
20
-94.2567
11
160.487
21
-94.2566
0
LINE
8
BLACK
6
CONTINUOUS
10
160.487
20
-94.2566
11
160.49
21
-94.253
0
LINE
8
BLACK
6
CONTINUOUS
10
160.49
20
-94.253
11
160.493
21
-94.2493
0
LINE
8
BLACK
6
CONTINUOUS
10
160.493
20
-94.2493
11
160.493
21
-94.2492
0
LINE
8
BLACK
6
CONTINUOUS
10
160.493
20
-94.2492
11
160.493
21
-94.2491
0
LINE
8
BLACK
6
CONTINUOUS
10
160.493
20
-94.2491
11
160.497
21
-94.2462
0
LINE
8
BLACK
6
CONTINUOUS
10
160.497
20
-94.2462
11
160.5
21
-94.2432
0
LINE
8
BLACK
6
CONTINUOUS
10
160.5
20
-94.2432
11
160.5
21
-94.2431
0
LINE
8
BLACK
6
CONTINUOUS
10
160.5
20
-94.2431
11
160.501
21
-94.243
0
LINE
8
BLACK
6
CONTINUOUS
10
160.501
20
-94.243
11
160.505
21
-94.2408
0
LINE
8
BLACK
6
CONTINUOUS
10
160.505
20
-94.2408
11
160.509
21
-94.2386
0
LINE
8
BLACK
6
CONTINUOUS
10
160.509
20
-94.2386
11
160.509
21
-94.2385
0
LINE
8
BLACK
6
CONTINUOUS
10
160.509
20
-94.2385
11
160.509
21
-94.2384
0
LINE
8
BLACK
6
CONTINUOUS
10
160.509
20
-94.2384
11
160.514
21
-94.2371
0
LINE
8
BLACK
6
CONTINUOUS
10
160.514
20
-94.2371
11
160.518
21
-94.2358
0
LINE
8
BLACK
6
CONTINUOUS
10
160.518
20
-94.2358
11
160.518
21
-94.2357
0
LINE
8
BLACK
6
CONTINUOUS
10
160.518
20
-94.2357
11
160.519
21
-94.2357
0
LINE
8
BLACK
6
CONTINUOUS
10
160.519
20
-94.2357
11
160.523
21
-94.2353
0
LINE
8
BLACK
6
CONTINUOUS
10
160.523
20
-94.2353
11
160.528
21
-94.2348
0
LINE
8
BLACK
6
CONTINUOUS
10
160.528
20
-94.2348
11
161.163
21
-94.2348
0
LINE
8
BLACK
6
CONTINUOUS
10
161.163
20
-94.2348
11
161.163
21
-94.2348
0
LINE
8
BLACK
6
CONTINUOUS
10
165.608
20
-93.5998
11
165.608
21
-93.5998
0
LINE
8
BLACK
6
CONTINUOUS
10
165.608
20
-93.5998
11
165.608
21
-93.5998
0
LINE
8
BLACK
6
CONTINUOUS
10
165.608
20
-93.5998
11
165.609
21
-93.5998
0
LINE
8
BLACK
6
CONTINUOUS
10
165.609
20
-93.5998
11
165.613
21
-93.6003
0
LINE
8
BLACK
6
CONTINUOUS
10
165.613
20
-93.6003
11
165.618
21
-93.6008
0
LINE
8
BLACK
6
CONTINUOUS
10
165.618
20
-93.6008
11
165.618
21
-93.6009
0
LINE
8
BLACK
6
CONTINUOUS
10
165.618
20
-93.6009
11
165.618
21
-93.6009
0
LINE
8
BLACK
6
CONTINUOUS
10
165.618
20
-93.6009
11
165.623
21
-93.6023
0
LINE
8
BLACK
6
CONTINUOUS
10
165.623
20
-93.6023
11
165.627
21
-93.6037
0
LINE
8
BLACK
6
CONTINUOUS
10
165.627
20
-93.6037
11
165.628
21
-93.6038
0
LINE
8
BLACK
6
CONTINUOUS
10
165.628
20
-93.6038
11
165.628
21
-93.6038
0
LINE
8
BLACK
6
CONTINUOUS
10
165.628
20
-93.6038
11
165.632
21
-93.6061
0
LINE
8
BLACK
6
CONTINUOUS
10
165.632
20
-93.6061
11
165.636
21
-93.6083
0
LINE
8
BLACK
6
CONTINUOUS
10
165.636
20
-93.6083
11
165.636
21
-93.6085
0
LINE
8
BLACK
6
CONTINUOUS
10
165.636
20
-93.6085
11
165.636
21
-93.6085
0
LINE
8
BLACK
6
CONTINUOUS
10
165.636
20
-93.6085
11
165.64
21
-93.6115
0
LINE
8
BLACK
6
CONTINUOUS
10
165.64
20
-93.6115
11
165.643
21
-93.6146
0
LINE
8
BLACK
6
CONTINUOUS
10
165.643
20
-93.6146
11
165.644
21
-93.6147
0
LINE
8
BLACK
6
CONTINUOUS
10
165.644
20
-93.6147
11
165.644
21
-93.6148
0
LINE
8
BLACK
6
CONTINUOUS
10
165.644
20
-93.6148
11
165.647
21
-93.6184
0
LINE
8
BLACK
6
CONTINUOUS
10
165.647
20
-93.6184
11
165.65
21
-93.6221
0
LINE
8
BLACK
6
CONTINUOUS
10
165.65
20
-93.6221
11
165.65
21
-93.6223
0
LINE
8
BLACK
6
CONTINUOUS
10
165.65
20
-93.6223
11
165.65
21
-93.6224
0
LINE
8
BLACK
6
CONTINUOUS
10
165.65
20
-93.6224
11
165.652
21
-93.6265
0
LINE
8
BLACK
6
CONTINUOUS
10
165.652
20
-93.6265
11
165.654
21
-93.6307
0
LINE
8
BLACK
6
CONTINUOUS
10
165.654
20
-93.6307
11
165.654
21
-93.6309
0
LINE
8
BLACK
6
CONTINUOUS
10
165.654
20
-93.6309
11
165.654
21
-93.6311
0
LINE
8
BLACK
6
CONTINUOUS
10
165.654
20
-93.6311
11
165.656
21
-93.6355
0
LINE
8
BLACK
6
CONTINUOUS
10
165.656
20
-93.6355
11
165.657
21
-93.6401
0
LINE
8
BLACK
6
CONTINUOUS
10
165.657
20
-93.6401
11
165.657
21
-93.6403
0
LINE
8
BLACK
6
CONTINUOUS
10
165.657
20
-93.6403
11
165.657
21
-93.6404
0
LINE
8
BLACK
6
CONTINUOUS
10
165.657
20
-93.6404
11
165.658
21
-93.6451
0
LINE
8
BLACK
6
CONTINUOUS
10
165.658
20
-93.6451
11
165.658
21
-93.6498
0
LINE
8
BLACK
6
CONTINUOUS
10
165.658
20
-93.6498
11
165.658
21
-94.2848
0
LINE
8
BLACK
6
CONTINUOUS
10
165.658
20
-94.2848
11
165.658
21
-94.2851
0
LINE
8
BLACK
6
CONTINUOUS
10
165.658
20
-94.2851
11
165.658
21
-94.2851
0
LINE
8
BLACK
6
CONTINUOUS
10
165.658
20
-94.2851
11
165.658
21
-94.2852
0
LINE
8
BLACK
6
CONTINUOUS
10
165.658
20
-94.2852
11
165.658
21
-94.2855
0
LINE
8
BLACK
6
CONTINUOUS
10
165.658
20
-94.2855
11
165.657
21
-94.2901
0
LINE
8
BLACK
6
CONTINUOUS
10
165.657
20
-94.2901
11
165.657
21
-94.2949
0
LINE
8
BLACK
6
CONTINUOUS
10
165.657
20
-94.2949
11
165.657
21
-94.295
0
LINE
8
BLACK
6
CONTINUOUS
10
165.657
20
-94.295
11
165.657
21
-94.2952
0
LINE
8
BLACK
6
CONTINUOUS
10
165.657
20
-94.2952
11
165.655
21
-94.2997
0
LINE
8
BLACK
6
CONTINUOUS
10
165.655
20
-94.2997
11
165.654
21
-94.3042
0
LINE
8
BLACK
6
CONTINUOUS
10
165.654
20
-94.3042
11
165.654
21
-94.3043
0
LINE
8
BLACK
6
CONTINUOUS
10
165.654
20
-94.3043
11
165.654
21
-94.3045
0
LINE
8
BLACK
6
CONTINUOUS
10
165.654
20
-94.3045
11
165.652
21
-94.3086
0
LINE
8
BLACK
6
CONTINUOUS
10
165.652
20
-94.3086
11
165.649
21
-94.3128
0
LINE
8
BLACK
6
CONTINUOUS
10
165.649
20
-94.3128
11
165.649
21
-94.3129
0
LINE
8
BLACK
6
CONTINUOUS
10
165.649
20
-94.3129
11
165.649
21
-94.313
0
LINE
8
BLACK
6
CONTINUOUS
10
165.649
20
-94.313
11
165.646
21
-94.3166
0
LINE
8
BLACK
6
CONTINUOUS
10
165.646
20
-94.3166
11
165.643
21
-94.3203
0
LINE
8
BLACK
6
CONTINUOUS
10
165.643
20
-94.3203
11
165.643
21
-94.3204
0
LINE
8
BLACK
6
CONTINUOUS
10
165.643
20
-94.3204
11
165.643
21
-94.3205
0
LINE
8
BLACK
6
CONTINUOUS
10
165.643
20
-94.3205
11
165.639
21
-94.3234
0
LINE
8
BLACK
6
CONTINUOUS
10
165.639
20
-94.3234
11
165.636
21
-94.3264
0
LINE
8
BLACK
6
CONTINUOUS
10
165.636
20
-94.3264
11
165.636
21
-94.3265
0
LINE
8
BLACK
6
CONTINUOUS
10
165.636
20
-94.3265
11
165.635
21
-94.3266
0
LINE
8
BLACK
6
CONTINUOUS
10
165.635
20
-94.3266
11
165.631
21
-94.3288
0
LINE
8
BLACK
6
CONTINUOUS
10
165.631
20
-94.3288
11
165.627
21
-94.331
0
LINE
8
BLACK
6
CONTINUOUS
10
165.627
20
-94.331
11
165.627
21
-94.3311
0
LINE
8
BLACK
6
CONTINUOUS
10
165.627
20
-94.3311
11
165.627
21
-94.3312
0
LINE
8
BLACK
6
CONTINUOUS
10
165.627
20
-94.3312
11
165.622
21
-94.3325
0
LINE
8
BLACK
6
CONTINUOUS
10
165.622
20
-94.3325
11
165.618
21
-94.3338
0
LINE
8
BLACK
6
CONTINUOUS
10
165.618
20
-94.3338
11
165.618
21
-94.3339
0
LINE
8
BLACK
6
CONTINUOUS
10
165.618
20
-94.3339
11
165.617
21
-94.3339
0
LINE
8
BLACK
6
CONTINUOUS
10
165.617
20
-94.3339
11
165.613
21
-94.3343
0
LINE
8
BLACK
6
CONTINUOUS
10
165.613
20
-94.3343
11
165.608
21
-94.3348
0
LINE
8
BLACK
6
CONTINUOUS
10
165.608
20
-94.3348
11
164.973
21
-94.3348
0
LINE
8
BLACK
6
CONTINUOUS
10
164.973
20
-94.3348
11
164.973
21
-94.3348
0
LINE
8
BLACK
6
CONTINUOUS
10
164.973
20
-94.3348
11
164.973
21
-94.3348
0
LINE
8
BLACK
6
CONTINUOUS
10
164.973
20
-94.3348
11
164.973
21
-94.3348
0
LINE
8
BLACK
6
CONTINUOUS
10
164.973
20
-94.3348
11
164.972
21
-94.3348
0
LINE
8
BLACK
6
CONTINUOUS
10
164.972
20
-94.3348
11
164.968
21
-94.3343
0
LINE
8
BLACK
6
CONTINUOUS
10
164.968
20
-94.3343
11
164.963
21
-94.3338
0
LINE
8
BLACK
6
CONTINUOUS
10
164.963
20
-94.3338
11
164.963
21
-94.3337
0
LINE
8
BLACK
6
CONTINUOUS
10
164.963
20
-94.3337
11
164.963
21
-94.3337
0
LINE
8
BLACK
6
CONTINUOUS
10
164.963
20
-94.3337
11
164.958
21
-94.3323
0
LINE
8
BLACK
6
CONTINUOUS
10
164.958
20
-94.3323
11
164.954
21
-94.3309
0
LINE
8
BLACK
6
CONTINUOUS
10
164.954
20
-94.3309
11
164.953
21
-94.3308
0
LINE
8
BLACK
6
CONTINUOUS
10
164.953
20
-94.3308
11
164.953
21
-94.3308
0
LINE
8
BLACK
6
CONTINUOUS
10
164.953
20
-94.3308
11
164.949
21
-94.3285
0
LINE
8
BLACK
6
CONTINUOUS
10
164.949
20
-94.3285
11
164.945
21
-94.3263
0
LINE
8
BLACK
6
CONTINUOUS
10
164.945
20
-94.3263
11
164.945
21
-94.3261
0
LINE
8
BLACK
6
CONTINUOUS
10
164.945
20
-94.3261
11
164.945
21
-94.3261
0
LINE
8
BLACK
6
CONTINUOUS
10
164.945
20
-94.3261
11
164.941
21
-94.3231
0
LINE
8
BLACK
6
CONTINUOUS
10
164.941
20
-94.3231
11
164.938
21
-94.32
0
LINE
8
BLACK
6
CONTINUOUS
10
164.938
20
-94.32
11
164.937
21
-94.3199
0
LINE
8
BLACK
6
CONTINUOUS
10
164.937
20
-94.3199
11
164.937
21
-94.3198
0
LINE
8
BLACK
6
CONTINUOUS
10
164.937
20
-94.3198
11
164.934
21
-94.3162
0
LINE
8
BLACK
6
CONTINUOUS
10
164.934
20
-94.3162
11
164.931
21
-94.3125
0
LINE
8
BLACK
6
CONTINUOUS
10
164.931
20
-94.3125
11
164.931
21
-94.3123
0
LINE
8
BLACK
6
CONTINUOUS
10
164.931
20
-94.3123
11
164.931
21
-94.3122
0
LINE
8
BLACK
6
CONTINUOUS
10
164.931
20
-94.3122
11
164.929
21
-94.3081
0
LINE
8
BLACK
6
CONTINUOUS
10
164.929
20
-94.3081
11
164.927
21
-94.3039
0
LINE
8
BLACK
6
CONTINUOUS
10
164.927
20
-94.3039
11
164.927
21
-94.3037
0
LINE
8
BLACK
6
CONTINUOUS
10
164.927
20
-94.3037
11
164.927
21
-94.3035
0
LINE
8
BLACK
6
CONTINUOUS
10
164.927
20
-94.3035
11
164.925
21
-94.2991
0
LINE
8
BLACK
6
CONTINUOUS
10
164.925
20
-94.2991
11
164.924
21
-94.2945
0
LINE
8
BLACK
6
CONTINUOUS
10
164.924
20
-94.2945
11
164.924
21
-94.2943
0
LINE
8
BLACK
6
CONTINUOUS
10
164.924
20
-94.2943
11
164.924
21
-94.2942
0
LINE
8
BLACK
6
CONTINUOUS
10
164.924
20
-94.2942
11
164.923
21
-94.2895
0
LINE
8
BLACK
6
CONTINUOUS
10
164.923
20
-94.2895
11
164.923
21
-94.2848
0
LINE
8
BLACK
6
CONTINUOUS
10
164.923
20
-94.2848
11
164.923
21
-93.6498
0
LINE
8
BLACK
6
CONTINUOUS
10
164.923
20
-93.6498
11
164.923
21
-93.6495
0
LINE
8
BLACK
6
CONTINUOUS
10
164.923
20
-93.6495
11
164.923
21
-93.6495
0
LINE
8
BLACK
6
CONTINUOUS
10
164.923
20
-93.6495
11
164.923
21
-93.6494
0
LINE
8
BLACK
6
CONTINUOUS
10
164.923
20
-93.6494
11
164.923
21
-93.6491
0
LINE
8
BLACK
6
CONTINUOUS
10
164.923
20
-93.6491
11
164.924
21
-93.6445
0
LINE
8
BLACK
6
CONTINUOUS
10
164.924
20
-93.6445
11
164.924
21
-93.6397
0
LINE
8
BLACK
6
CONTINUOUS
10
164.924
20
-93.6397
11
164.924
21
-93.6396
0
LINE
8
BLACK
6
CONTINUOUS
10
164.924
20
-93.6396
11
164.924
21
-93.6394
0
LINE
8
BLACK
6
CONTINUOUS
10
164.924
20
-93.6394
11
164.926
21
-93.6349
0
LINE
8
BLACK
6
CONTINUOUS
10
164.926
20
-93.6349
11
164.927
21
-93.6304
0
LINE
8
BLACK
6
CONTINUOUS
10
164.927
20
-93.6304
11
164.927
21
-93.6303
0
LINE
8
BLACK
6
CONTINUOUS
10
164.927
20
-93.6303
11
164.927
21
-93.6301
0
LINE
8
BLACK
6
CONTINUOUS
10
164.927
20
-93.6301
11
164.929
21
-93.626
0
LINE
8
BLACK
6
CONTINUOUS
10
164.929
20
-93.626
11
164.932
21
-93.6218
0
LINE
8
BLACK
6
CONTINUOUS
10
164.932
20
-93.6218
11
164.932
21
-93.6217
0
LINE
8
BLACK
6
CONTINUOUS
10
164.932
20
-93.6217
11
164.932
21
-93.6216
0
LINE
8
BLACK
6
CONTINUOUS
10
164.932
20
-93.6216
11
164.935
21
-93.618
0
LINE
8
BLACK
6
CONTINUOUS
10
164.935
20
-93.618
11
164.938
21
-93.6143
0
LINE
8
BLACK
6
CONTINUOUS
10
164.938
20
-93.6143
11
164.938
21
-93.6142
0
LINE
8
BLACK
6
CONTINUOUS
10
164.938
20
-93.6142
11
164.938
21
-93.6141
0
LINE
8
BLACK
6
CONTINUOUS
10
164.938
20
-93.6141
11
164.942
21
-93.6112
0
LINE
8
BLACK
6
CONTINUOUS
10
164.942
20
-93.6112
11
164.945
21
-93.6082
0
LINE
8
BLACK
6
CONTINUOUS
10
164.945
20
-93.6082
11
164.945
21
-93.6081
0
LINE
8
BLACK
6
CONTINUOUS
10
164.945
20
-93.6081
11
164.946
21
-93.608
0
LINE
8
BLACK
6
CONTINUOUS
10
164.946
20
-93.608
11
164.95
21
-93.6058
0
LINE
8
BLACK
6
CONTINUOUS
10
164.95
20
-93.6058
11
164.954
21
-93.6036
0
LINE
8
BLACK
6
CONTINUOUS
10
164.954
20
-93.6036
11
164.954
21
-93.6035
0
LINE
8
BLACK
6
CONTINUOUS
10
164.954
20
-93.6035
11
164.954
21
-93.6034
0
LINE
8
BLACK
6
CONTINUOUS
10
164.954
20
-93.6034
11
164.959
21
-93.6021
0
LINE
8
BLACK
6
CONTINUOUS
10
164.959
20
-93.6021
11
164.963
21
-93.6008
0
LINE
8
BLACK
6
CONTINUOUS
10
164.963
20
-93.6008
11
164.963
21
-93.6007
0
LINE
8
BLACK
6
CONTINUOUS
10
164.963
20
-93.6007
11
164.964
21
-93.6007
0
LINE
8
BLACK
6
CONTINUOUS
10
164.964
20
-93.6007
11
164.968
21
-93.6003
0
LINE
8
BLACK
6
CONTINUOUS
10
164.968
20
-93.6003
11
164.973
21
-93.5998
0
LINE
8
BLACK
6
CONTINUOUS
10
164.973
20
-93.5998
11
165.608
21
-93.5998
0
LINE
8
BLACK
6
CONTINUOUS
10
165.608
20
-93.5998
11
165.608
21
-93.5998
0
LINE
8
BLACK
6
CONTINUOUS
10
164.388
20
-92.3801
11
164.388
21
-92.3801
0
LINE
8
BLACK
6
CONTINUOUS
10
164.388
20
-92.3801
11
164.388
21
-92.3802
0
LINE
8
BLACK
6
CONTINUOUS
10
164.388
20
-92.3802
11
164.388
21
-92.3805
0
LINE
8
BLACK
6
CONTINUOUS
10
164.388
20
-92.3805
11
164.387
21
-92.3851
0
LINE
8
BLACK
6
CONTINUOUS
10
164.387
20
-92.3851
11
164.387
21
-92.3899
0
LINE
8
BLACK
6
CONTINUOUS
10
164.387
20
-92.3899
11
164.387
21
-92.39
0
LINE
8
BLACK
6
CONTINUOUS
10
164.387
20
-92.39
11
164.387
21
-92.3902
0
LINE
8
BLACK
6
CONTINUOUS
10
164.387
20
-92.3902
11
164.385
21
-92.3947
0
LINE
8
BLACK
6
CONTINUOUS
10
164.385
20
-92.3947
11
164.384
21
-92.3992
0
LINE
8
BLACK
6
CONTINUOUS
10
164.384
20
-92.3992
11
164.384
21
-92.3993
0
LINE
8
BLACK
6
CONTINUOUS
10
164.384
20
-92.3993
11
164.384
21
-92.3995
0
LINE
8
BLACK
6
CONTINUOUS
10
164.384
20
-92.3995
11
164.382
21
-92.4036
0
LINE
8
BLACK
6
CONTINUOUS
10
164.382
20
-92.4036
11
164.379
21
-92.4078
0
LINE
8
BLACK
6
CONTINUOUS
10
164.379
20
-92.4078
11
164.379
21
-92.4079
0
LINE
8
BLACK
6
CONTINUOUS
10
164.379
20
-92.4079
11
164.379
21
-92.408
0
LINE
8
BLACK
6
CONTINUOUS
10
164.379
20
-92.408
11
164.376
21
-92.4116
0
LINE
8
BLACK
6
CONTINUOUS
10
164.376
20
-92.4116
11
164.373
21
-92.4153
0
LINE
8
BLACK
6
CONTINUOUS
10
164.373
20
-92.4153
11
164.373
21
-92.4154
0
LINE
8
BLACK
6
CONTINUOUS
10
164.373
20
-92.4154
11
164.373
21
-92.4155
0
LINE
8
BLACK
6
CONTINUOUS
10
164.373
20
-92.4155
11
164.369
21
-92.4184
0
LINE
8
BLACK
6
CONTINUOUS
10
164.369
20
-92.4184
11
164.366
21
-92.4214
0
LINE
8
BLACK
6
CONTINUOUS
10
164.366
20
-92.4214
11
164.366
21
-92.4215
0
LINE
8
BLACK
6
CONTINUOUS
10
164.366
20
-92.4215
11
164.365
21
-92.4216
0
LINE
8
BLACK
6
CONTINUOUS
10
164.365
20
-92.4216
11
164.361
21
-92.4238
0
LINE
8
BLACK
6
CONTINUOUS
10
164.361
20
-92.4238
11
164.357
21
-92.426
0
LINE
8
BLACK
6
CONTINUOUS
10
164.357
20
-92.426
11
164.357
21
-92.4261
0
LINE
8
BLACK
6
CONTINUOUS
10
164.357
20
-92.4261
11
164.357
21
-92.4262
0
LINE
8
BLACK
6
CONTINUOUS
10
164.357
20
-92.4262
11
164.352
21
-92.4275
0
LINE
8
BLACK
6
CONTINUOUS
10
164.352
20
-92.4275
11
164.348
21
-92.4288
0
LINE
8
BLACK
6
CONTINUOUS
10
164.348
20
-92.4288
11
164.348
21
-92.4289
0
LINE
8
BLACK
6
CONTINUOUS
10
164.348
20
-92.4289
11
164.347
21
-92.4289
0
LINE
8
BLACK
6
CONTINUOUS
10
164.347
20
-92.4289
11
164.343
21
-92.4293
0
LINE
8
BLACK
6
CONTINUOUS
10
164.343
20
-92.4293
11
164.338
21
-92.4298
0
LINE
8
BLACK
6
CONTINUOUS
10
164.338
20
-92.4298
11
163.753
21
-92.4298
0
LINE
8
BLACK
6
CONTINUOUS
10
163.753
20
-92.4298
11
163.753
21
-92.9648
0
LINE
8
BLACK
6
CONTINUOUS
10
163.753
20
-92.9648
11
164.338
21
-92.9648
0
LINE
8
BLACK
6
CONTINUOUS
10
164.338
20
-92.9648
11
164.338
21
-92.9648
0
LINE
8
BLACK
6
CONTINUOUS
10
164.338
20
-92.9648
11
164.338
21
-92.9648
0
LINE
8
BLACK
6
CONTINUOUS
10
164.338
20
-92.9648
11
164.338
21
-92.9648
0
LINE
8
BLACK
6
CONTINUOUS
10
164.338
20
-92.9648
11
164.339
21
-92.9648
0
LINE
8
BLACK
6
CONTINUOUS
10
164.339
20
-92.9648
11
164.343
21
-92.9653
0
LINE
8
BLACK
6
CONTINUOUS
10
164.343
20
-92.9653
11
164.348
21
-92.9658
0
LINE
8
BLACK
6
CONTINUOUS
10
164.348
20
-92.9658
11
164.348
21
-92.9659
0
LINE
8
BLACK
6
CONTINUOUS
10
164.348
20
-92.9659
11
164.348
21
-92.9659
0
LINE
8
BLACK
6
CONTINUOUS
10
164.348
20
-92.9659
11
164.353
21
-92.9673
0
LINE
8
BLACK
6
CONTINUOUS
10
164.353
20
-92.9673
11
164.357
21
-92.9687
0
LINE
8
BLACK
6
CONTINUOUS
10
164.357
20
-92.9687
11
164.358
21
-92.9688
0
LINE
8
BLACK
6
CONTINUOUS
10
164.358
20
-92.9688
11
164.358
21
-92.9688
0
LINE
8
BLACK
6
CONTINUOUS
10
164.358
20
-92.9688
11
164.362
21
-92.9711
0
LINE
8
BLACK
6
CONTINUOUS
10
164.362
20
-92.9711
11
164.366
21
-92.9733
0
LINE
8
BLACK
6
CONTINUOUS
10
164.366
20
-92.9733
11
164.366
21
-92.9735
0
LINE
8
BLACK
6
CONTINUOUS
10
164.366
20
-92.9735
11
164.366
21
-92.9735
0
LINE
8
BLACK
6
CONTINUOUS
10
164.366
20
-92.9735
11
164.37
21
-92.9765
0
LINE
8
BLACK
6
CONTINUOUS
10
164.37
20
-92.9765
11
164.373
21
-92.9796
0
LINE
8
BLACK
6
CONTINUOUS
10
164.373
20
-92.9796
11
164.374
21
-92.9797
0
LINE
8
BLACK
6
CONTINUOUS
10
164.374
20
-92.9797
11
164.374
21
-92.9798
0
LINE
8
BLACK
6
CONTINUOUS
10
164.374
20
-92.9798
11
164.377
21
-92.9834
0
LINE
8
BLACK
6
CONTINUOUS
10
164.377
20
-92.9834
11
164.38
21
-92.9871
0
LINE
8
BLACK
6
CONTINUOUS
10
164.38
20
-92.9871
11
164.38
21
-92.9873
0
LINE
8
BLACK
6
CONTINUOUS
10
164.38
20
-92.9873
11
164.38
21
-92.9874
0
LINE
8
BLACK
6
CONTINUOUS
10
164.38
20
-92.9874
11
164.382
21
-92.9915
0
LINE
8
BLACK
6
CONTINUOUS
10
164.382
20
-92.9915
11
164.384
21
-92.9957
0
LINE
8
BLACK
6
CONTINUOUS
10
164.384
20
-92.9957
11
164.384
21
-92.9959
0
LINE
8
BLACK
6
CONTINUOUS
10
164.384
20
-92.9959
11
164.384
21
-92.9961
0
LINE
8
BLACK
6
CONTINUOUS
10
164.384
20
-92.9961
11
164.386
21
-93.0005
0
LINE
8
BLACK
6
CONTINUOUS
10
164.386
20
-93.0005
11
164.387
21
-93.0051
0
LINE
8
BLACK
6
CONTINUOUS
10
164.387
20
-93.0051
11
164.387
21
-93.0053
0
LINE
8
BLACK
6
CONTINUOUS
10
164.387
20
-93.0053
11
164.387
21
-93.0054
0
LINE
8
BLACK
6
CONTINUOUS
10
164.387
20
-93.0054
11
164.388
21
-93.0101
0
LINE
8
BLACK
6
CONTINUOUS
10
164.388
20
-93.0101
11
164.388
21
-93.0148
0
LINE
8
BLACK
6
CONTINUOUS
10
164.388
20
-93.0148
11
164.388
21
-93.6498
0
LINE
8
BLACK
6
CONTINUOUS
10
164.388
20
-93.6498
11
164.388
21
-93.6501
0
LINE
8
BLACK
6
CONTINUOUS
10
164.388
20
-93.6501
11
164.388
21
-93.6501
0
LINE
8
BLACK
6
CONTINUOUS
10
164.388
20
-93.6501
11
164.388
21
-93.6502
0
LINE
8
BLACK
6
CONTINUOUS
10
164.388
20
-93.6502
11
164.388
21
-93.6505
0
LINE
8
BLACK
6
CONTINUOUS
10
164.388
20
-93.6505
11
164.387
21
-93.6551
0
LINE
8
BLACK
6
CONTINUOUS
10
164.387
20
-93.6551
11
164.387
21
-93.6599
0
LINE
8
BLACK
6
CONTINUOUS
10
164.387
20
-93.6599
11
164.387
21
-93.66
0
LINE
8
BLACK
6
CONTINUOUS
10
164.387
20
-93.66
11
164.387
21
-93.6602
0
LINE
8
BLACK
6
CONTINUOUS
10
164.387
20
-93.6602
11
164.385
21
-93.6647
0
LINE
8
BLACK
6
CONTINUOUS
10
164.385
20
-93.6647
11
164.384
21
-93.6692
0
LINE
8
BLACK
6
CONTINUOUS
10
164.384
20
-93.6692
11
164.384
21
-93.6693
0
LINE
8
BLACK
6
CONTINUOUS
10
164.384
20
-93.6693
11
164.384
21
-93.6695
0
LINE
8
BLACK
6
CONTINUOUS
10
164.384
20
-93.6695
11
164.382
21
-93.6736
0
LINE
8
BLACK
6
CONTINUOUS
10
164.382
20
-93.6736
11
164.379
21
-93.6778
0
LINE
8
BLACK
6
CONTINUOUS
10
164.379
20
-93.6778
11
164.379
21
-93.6779
0
LINE
8
BLACK
6
CONTINUOUS
10
164.379
20
-93.6779
11
164.379
21
-93.678
0
LINE
8
BLACK
6
CONTINUOUS
10
164.379
20
-93.678
11
164.376
21
-93.6816
0
LINE
8
BLACK
6
CONTINUOUS
10
164.376
20
-93.6816
11
164.373
21
-93.6853
0
LINE
8
BLACK
6
CONTINUOUS
10
164.373
20
-93.6853
11
164.373
21
-93.6854
0
LINE
8
BLACK
6
CONTINUOUS
10
164.373
20
-93.6854
11
164.373
21
-93.6855
0
LINE
8
BLACK
6
CONTINUOUS
10
164.373
20
-93.6855
11
164.369
21
-93.6884
0
LINE
8
BLACK
6
CONTINUOUS
10
164.369
20
-93.6884
11
164.366
21
-93.6914
0
LINE
8
BLACK
6
CONTINUOUS
10
164.366
20
-93.6914
11
164.366
21
-93.6915
0
LINE
8
BLACK
6
CONTINUOUS
10
164.366
20
-93.6915
11
164.365
21
-93.6916
0
LINE
8
BLACK
6
CONTINUOUS
10
164.365
20
-93.6916
11
164.361
21
-93.6938
0
LINE
8
BLACK
6
CONTINUOUS
10
164.361
20
-93.6938
11
164.357
21
-93.696
0
LINE
8
BLACK
6
CONTINUOUS
10
164.357
20
-93.696
11
164.357
21
-93.6961
0
LINE
8
BLACK
6
CONTINUOUS
10
164.357
20
-93.6961
11
164.357
21
-93.6962
0
LINE
8
BLACK
6
CONTINUOUS
10
164.357
20
-93.6962
11
164.352
21
-93.6975
0
LINE
8
BLACK
6
CONTINUOUS
10
164.352
20
-93.6975
11
164.348
21
-93.6988
0
LINE
8
BLACK
6
CONTINUOUS
10
164.348
20
-93.6988
11
164.348
21
-93.6989
0
LINE
8
BLACK
6
CONTINUOUS
10
164.348
20
-93.6989
11
164.347
21
-93.6989
0
LINE
8
BLACK
6
CONTINUOUS
10
164.347
20
-93.6989
11
164.343
21
-93.6993
0
LINE
8
BLACK
6
CONTINUOUS
10
164.343
20
-93.6993
11
164.338
21
-93.6998
0
LINE
8
BLACK
6
CONTINUOUS
10
164.338
20
-93.6998
11
162.433
21
-93.6998
0
LINE
8
BLACK
6
CONTINUOUS
10
162.433
20
-93.6998
11
162.433
21
-93.6998
0
LINE
8
BLACK
6
CONTINUOUS
10
162.433
20
-93.6998
11
162.433
21
-93.6998
0
LINE
8
BLACK
6
CONTINUOUS
10
162.433
20
-93.6998
11
162.433
21
-93.6998
0
LINE
8
BLACK
6
CONTINUOUS
10
162.433
20
-93.6998
11
162.432
21
-93.6998
0
LINE
8
BLACK
6
CONTINUOUS
10
162.432
20
-93.6998
11
162.428
21
-93.6993
0
LINE
8
BLACK
6
CONTINUOUS
10
162.428
20
-93.6993
11
162.423
21
-93.6988
0
LINE
8
BLACK
6
CONTINUOUS
10
162.423
20
-93.6988
11
162.423
21
-93.6987
0
LINE
8
BLACK
6
CONTINUOUS
10
162.423
20
-93.6987
11
162.423
21
-93.6987
0
LINE
8
BLACK
6
CONTINUOUS
10
162.423
20
-93.6987
11
162.418
21
-93.6973
0
LINE
8
BLACK
6
CONTINUOUS
10
162.418
20
-93.6973
11
162.414
21
-93.6959
0
LINE
8
BLACK
6
CONTINUOUS
10
162.414
20
-93.6959
11
162.413
21
-93.6958
0
LINE
8
BLACK
6
CONTINUOUS
10
162.413
20
-93.6958
11
162.413
21
-93.6958
0
LINE
8
BLACK
6
CONTINUOUS
10
162.413
20
-93.6958
11
162.409
21
-93.6935
0
LINE
8
BLACK
6
CONTINUOUS
10
162.409
20
-93.6935
11
162.405
21
-93.6913
0
LINE
8
BLACK
6
CONTINUOUS
10
162.405
20
-93.6913
11
162.405
21
-93.6911
0
LINE
8
BLACK
6
CONTINUOUS
10
162.405
20
-93.6911
11
162.405
21
-93.6911
0
LINE
8
BLACK
6
CONTINUOUS
10
162.405
20
-93.6911
11
162.401
21
-93.6881
0
LINE
8
BLACK
6
CONTINUOUS
10
162.401
20
-93.6881
11
162.398
21
-93.685
0
LINE
8
BLACK
6
CONTINUOUS
10
162.398
20
-93.685
11
162.397
21
-93.6849
0
LINE
8
BLACK
6
CONTINUOUS
10
162.397
20
-93.6849
11
162.397
21
-93.6848
0
LINE
8
BLACK
6
CONTINUOUS
10
162.397
20
-93.6848
11
162.394
21
-93.6812
0
LINE
8
BLACK
6
CONTINUOUS
10
162.394
20
-93.6812
11
162.391
21
-93.6775
0
LINE
8
BLACK
6
CONTINUOUS
10
162.391
20
-93.6775
11
162.391
21
-93.6773
0
LINE
8
BLACK
6
CONTINUOUS
10
162.391
20
-93.6773
11
162.391
21
-93.6772
0
LINE
8
BLACK
6
CONTINUOUS
10
162.391
20
-93.6772
11
162.389
21
-93.6731
0
LINE
8
BLACK
6
CONTINUOUS
10
162.389
20
-93.6731
11
162.387
21
-93.6689
0
LINE
8
BLACK
6
CONTINUOUS
10
162.387
20
-93.6689
11
162.387
21
-93.6687
0
LINE
8
BLACK
6
CONTINUOUS
10
162.387
20
-93.6687
11
162.387
21
-93.6685
0
LINE
8
BLACK
6
CONTINUOUS
10
162.387
20
-93.6685
11
162.385
21
-93.6641
0
LINE
8
BLACK
6
CONTINUOUS
10
162.385
20
-93.6641
11
162.384
21
-93.6595
0
LINE
8
BLACK
6
CONTINUOUS
10
162.384
20
-93.6595
11
162.384
21
-93.6593
0
LINE
8
BLACK
6
CONTINUOUS
10
162.384
20
-93.6593
11
162.384
21
-93.6592
0
LINE
8
BLACK
6
CONTINUOUS
10
162.384
20
-93.6592
11
162.383
21
-93.6545
0
LINE
8
BLACK
6
CONTINUOUS
10
162.383
20
-93.6545
11
162.383
21
-93.6498
0
LINE
8
BLACK
6
CONTINUOUS
10
162.383
20
-93.6498
11
162.383
21
-93.0648
0
LINE
8
BLACK
6
CONTINUOUS
10
162.383
20
-93.0648
11
161.798
21
-93.0648
0
LINE
8
BLACK
6
CONTINUOUS
10
161.798
20
-93.0648
11
161.798
21
-93.0648
0
LINE
8
BLACK
6
CONTINUOUS
10
161.798
20
-93.0648
11
161.798
21
-93.0648
0
LINE
8
BLACK
6
CONTINUOUS
10
161.798
20
-93.0648
11
161.798
21
-93.0648
0
LINE
8
BLACK
6
CONTINUOUS
10
161.798
20
-93.0648
11
161.797
21
-93.0648
0
LINE
8
BLACK
6
CONTINUOUS
10
161.797
20
-93.0648
11
161.793
21
-93.0643
0
LINE
8
BLACK
6
CONTINUOUS
10
161.793
20
-93.0643
11
161.788
21
-93.0638
0
LINE
8
BLACK
6
CONTINUOUS
10
161.788
20
-93.0638
11
161.788
21
-93.0637
0
LINE
8
BLACK
6
CONTINUOUS
10
161.788
20
-93.0637
11
161.788
21
-93.0637
0
LINE
8
BLACK
6
CONTINUOUS
10
161.788
20
-93.0637
11
161.783
21
-93.0623
0
LINE
8
BLACK
6
CONTINUOUS
10
161.783
20
-93.0623
11
161.779
21
-93.0609
0
LINE
8
BLACK
6
CONTINUOUS
10
161.779
20
-93.0609
11
161.778
21
-93.0608
0
LINE
8
BLACK
6
CONTINUOUS
10
161.778
20
-93.0608
11
161.778
21
-93.0608
0
LINE
8
BLACK
6
CONTINUOUS
10
161.778
20
-93.0608
11
161.774
21
-93.0585
0
LINE
8
BLACK
6
CONTINUOUS
10
161.774
20
-93.0585
11
161.77
21
-93.0563
0
LINE
8
BLACK
6
CONTINUOUS
10
161.77
20
-93.0563
11
161.77
21
-93.0561
0
LINE
8
BLACK
6
CONTINUOUS
10
161.77
20
-93.0561
11
161.77
21
-93.0561
0
LINE
8
BLACK
6
CONTINUOUS
10
161.77
20
-93.0561
11
161.766
21
-93.0531
0
LINE
8
BLACK
6
CONTINUOUS
10
161.766
20
-93.0531
11
161.763
21
-93.05
0
LINE
8
BLACK
6
CONTINUOUS
10
161.763
20
-93.05
11
161.762
21
-93.0499
0
LINE
8
BLACK
6
CONTINUOUS
10
161.762
20
-93.0499
11
161.762
21
-93.0498
0
LINE
8
BLACK
6
CONTINUOUS
10
161.762
20
-93.0498
11
161.759
21
-93.0462
0
LINE
8
BLACK
6
CONTINUOUS
10
161.759
20
-93.0462
11
161.756
21
-93.0425
0
LINE
8
BLACK
6
CONTINUOUS
10
161.756
20
-93.0425
11
161.756
21
-93.0423
0
LINE
8
BLACK
6
CONTINUOUS
10
161.756
20
-93.0423
11
161.756
21
-93.0422
0
LINE
8
BLACK
6
CONTINUOUS
10
161.756
20
-93.0422
11
161.754
21
-93.0381
0
LINE
8
BLACK
6
CONTINUOUS
10
161.754
20
-93.0381
11
161.752
21
-93.0339
0
LINE
8
BLACK
6
CONTINUOUS
10
161.752
20
-93.0339
11
161.752
21
-93.0337
0
LINE
8
BLACK
6
CONTINUOUS
10
161.752
20
-93.0337
11
161.752
21
-93.0335
0
LINE
8
BLACK
6
CONTINUOUS
10
161.752
20
-93.0335
11
161.75
21
-93.0291
0
LINE
8
BLACK
6
CONTINUOUS
10
161.75
20
-93.0291
11
161.749
21
-93.0245
0
LINE
8
BLACK
6
CONTINUOUS
10
161.749
20
-93.0245
11
161.749
21
-93.0243
0
LINE
8
BLACK
6
CONTINUOUS
10
161.749
20
-93.0243
11
161.749
21
-93.0242
0
LINE
8
BLACK
6
CONTINUOUS
10
161.749
20
-93.0242
11
161.748
21
-93.0195
0
LINE
8
BLACK
6
CONTINUOUS
10
161.748
20
-93.0195
11
161.748
21
-93.0148
0
LINE
8
BLACK
6
CONTINUOUS
10
161.748
20
-93.0148
11
161.748
21
-92.4298
0
LINE
8
BLACK
6
CONTINUOUS
10
161.748
20
-92.4298
11
161.163
21
-92.4298
0
LINE
8
BLACK
6
CONTINUOUS
10
161.163
20
-92.4298
11
161.163
21
-92.4298
0
LINE
8
BLACK
6
CONTINUOUS
10
161.163
20
-92.4298
11
161.163
21
-92.4298
0
LINE
8
BLACK
6
CONTINUOUS
10
161.163
20
-92.4298
11
161.163
21
-92.4298
0
LINE
8
BLACK
6
CONTINUOUS
10
161.163
20
-92.4298
11
161.162
21
-92.4298
0
LINE
8
BLACK
6
CONTINUOUS
10
161.162
20
-92.4298
11
161.158
21
-92.4293
0
LINE
8
BLACK
6
CONTINUOUS
10
161.158
20
-92.4293
11
161.153
21
-92.4288
0
LINE
8
BLACK
6
CONTINUOUS
10
161.153
20
-92.4288
11
161.153
21
-92.4287
0
LINE
8
BLACK
6
CONTINUOUS
10
161.153
20
-92.4287
11
161.153
21
-92.4287
0
LINE
8
BLACK
6
CONTINUOUS
10
161.153
20
-92.4287
11
161.148
21
-92.4273
0
LINE
8
BLACK
6
CONTINUOUS
10
161.148
20
-92.4273
11
161.144
21
-92.4259
0
LINE
8
BLACK
6
CONTINUOUS
10
161.144
20
-92.4259
11
161.143
21
-92.4258
0
LINE
8
BLACK
6
CONTINUOUS
10
161.143
20
-92.4258
11
161.143
21
-92.4258
0
LINE
8
BLACK
6
CONTINUOUS
10
161.143
20
-92.4258
11
161.139
21
-92.4235
0
LINE
8
BLACK
6
CONTINUOUS
10
161.139
20
-92.4235
11
161.135
21
-92.4213
0
LINE
8
BLACK
6
CONTINUOUS
10
161.135
20
-92.4213
11
161.135
21
-92.4211
0
LINE
8
BLACK
6
CONTINUOUS
10
161.135
20
-92.4211
11
161.135
21
-92.4211
0
LINE
8
BLACK
6
CONTINUOUS
10
161.135
20
-92.4211
11
161.131
21
-92.4181
0
LINE
8
BLACK
6
CONTINUOUS
10
161.131
20
-92.4181
11
161.128
21
-92.415
0
LINE
8
BLACK
6
CONTINUOUS
10
161.128
20
-92.415
11
161.127
21
-92.4149
0
LINE
8
BLACK
6
CONTINUOUS
10
161.127
20
-92.4149
11
161.127
21
-92.4148
0
LINE
8
BLACK
6
CONTINUOUS
10
161.127
20
-92.4148
11
161.124
21
-92.4112
0
LINE
8
BLACK
6
CONTINUOUS
10
161.124
20
-92.4112
11
161.121
21
-92.4075
0
LINE
8
BLACK
6
CONTINUOUS
10
161.121
20
-92.4075
11
161.121
21
-92.4073
0
LINE
8
BLACK
6
CONTINUOUS
10
161.121
20
-92.4073
11
161.121
21
-92.4072
0
LINE
8
BLACK
6
CONTINUOUS
10
161.121
20
-92.4072
11
161.119
21
-92.4031
0
LINE
8
BLACK
6
CONTINUOUS
10
161.119
20
-92.4031
11
161.117
21
-92.3989
0
LINE
8
BLACK
6
CONTINUOUS
10
161.117
20
-92.3989
11
161.117
21
-92.3987
0
LINE
8
BLACK
6
CONTINUOUS
10
161.117
20
-92.3987
11
161.117
21
-92.3985
0
LINE
8
BLACK
6
CONTINUOUS
10
161.117
20
-92.3985
11
161.115
21
-92.3941
0
LINE
8
BLACK
6
CONTINUOUS
10
161.115
20
-92.3941
11
161.114
21
-92.3895
0
LINE
8
BLACK
6
CONTINUOUS
10
161.114
20
-92.3895
11
161.114
21
-92.3893
0
LINE
8
BLACK
6
CONTINUOUS
10
161.114
20
-92.3893
11
161.114
21
-92.3892
0
LINE
8
BLACK
6
CONTINUOUS
10
161.114
20
-92.3892
11
161.113
21
-92.3845
0
LINE
8
BLACK
6
CONTINUOUS
10
161.113
20
-92.3845
11
161.113
21
-92.3798
0
LINE
8
BLACK
6
CONTINUOUS
10
161.113
20
-92.3798
11
161.113
21
-91.7448
0
LINE
8
BLACK
6
CONTINUOUS
10
161.113
20
-91.7448
11
161.113
21
-91.7445
0
LINE
8
BLACK
6
CONTINUOUS
10
161.113
20
-91.7445
11
161.113
21
-91.7445
0
LINE
8
BLACK
6
CONTINUOUS
10
161.113
20
-91.7445
11
161.113
21
-91.7444
0
LINE
8
BLACK
6
CONTINUOUS
10
161.113
20
-91.7444
11
161.113
21
-91.7441
0
LINE
8
BLACK
6
CONTINUOUS
10
161.113
20
-91.7441
11
161.114
21
-91.7395
0
LINE
8
BLACK
6
CONTINUOUS
10
161.114
20
-91.7395
11
161.114
21
-91.7347
0
LINE
8
BLACK
6
CONTINUOUS
10
161.114
20
-91.7347
11
161.114
21
-91.7346
0
LINE
8
BLACK
6
CONTINUOUS
10
161.114
20
-91.7346
11
161.114
21
-91.7344
0
LINE
8
BLACK
6
CONTINUOUS
10
161.114
20
-91.7344
11
161.116
21
-91.7299
0
LINE
8
BLACK
6
CONTINUOUS
10
161.116
20
-91.7299
11
161.117
21
-91.7254
0
LINE
8
BLACK
6
CONTINUOUS
10
161.117
20
-91.7254
11
161.117
21
-91.7253
0
LINE
8
BLACK
6
CONTINUOUS
10
161.117
20
-91.7253
11
161.117
21
-91.7251
0
LINE
8
BLACK
6
CONTINUOUS
10
161.117
20
-91.7251
11
161.119
21
-91.721
0
LINE
8
BLACK
6
CONTINUOUS
10
161.119
20
-91.721
11
161.122
21
-91.7168
0
LINE
8
BLACK
6
CONTINUOUS
10
161.122
20
-91.7168
11
161.122
21
-91.7167
0
LINE
8
BLACK
6
CONTINUOUS
10
161.122
20
-91.7167
11
161.122
21
-91.7166
0
LINE
8
BLACK
6
CONTINUOUS
10
161.122
20
-91.7166
11
161.125
21
-91.713
0
LINE
8
BLACK
6
CONTINUOUS
10
161.125
20
-91.713
11
161.128
21
-91.7093
0
LINE
8
BLACK
6
CONTINUOUS
10
161.128
20
-91.7093
11
161.128
21
-91.7092
0
LINE
8
BLACK
6
CONTINUOUS
10
161.128
20
-91.7092
11
161.128
21
-91.7091
0
LINE
8
BLACK
6
CONTINUOUS
10
161.128
20
-91.7091
11
161.132
21
-91.7062
0
LINE
8
BLACK
6
CONTINUOUS
10
161.132
20
-91.7062
11
161.135
21
-91.7032
0
LINE
8
BLACK
6
CONTINUOUS
10
161.135
20
-91.7032
11
161.135
21
-91.7031
0
LINE
8
BLACK
6
CONTINUOUS
10
161.135
20
-91.7031
11
161.136
21
-91.703
0
LINE
8
BLACK
6
CONTINUOUS
10
161.136
20
-91.703
11
161.14
21
-91.7008
0
LINE
8
BLACK
6
CONTINUOUS
10
161.14
20
-91.7008
11
161.144
21
-91.6986
0
LINE
8
BLACK
6
CONTINUOUS
10
161.144
20
-91.6986
11
161.144
21
-91.6985
0
LINE
8
BLACK
6
CONTINUOUS
10
161.144
20
-91.6985
11
161.144
21
-91.6984
0
LINE
8
BLACK
6
CONTINUOUS
10
161.144
20
-91.6984
11
161.149
21
-91.6971
0
LINE
8
BLACK
6
CONTINUOUS
10
161.149
20
-91.6971
11
161.153
21
-91.6958
0
LINE
8
BLACK
6
CONTINUOUS
10
161.153
20
-91.6958
11
161.153
21
-91.6957
0
LINE
8
BLACK
6
CONTINUOUS
10
161.153
20
-91.6957
11
161.154
21
-91.6957
0
LINE
8
BLACK
6
CONTINUOUS
10
161.154
20
-91.6957
11
161.158
21
-91.6953
0
LINE
8
BLACK
6
CONTINUOUS
10
161.158
20
-91.6953
11
161.163
21
-91.6948
0
LINE
8
BLACK
6
CONTINUOUS
10
161.163
20
-91.6948
11
162.383
21
-91.6948
0
LINE
8
BLACK
6
CONTINUOUS
10
162.383
20
-91.6948
11
162.383
21
-91.1098
0
LINE
8
BLACK
6
CONTINUOUS
10
162.383
20
-91.1098
11
162.383
21
-91.1095
0
LINE
8
BLACK
6
CONTINUOUS
10
162.383
20
-91.1095
11
162.383
21
-91.1095
0
LINE
8
BLACK
6
CONTINUOUS
10
162.383
20
-91.1095
11
162.383
21
-91.1094
0
LINE
8
BLACK
6
CONTINUOUS
10
162.383
20
-91.1094
11
162.383
21
-91.1091
0
LINE
8
BLACK
6
CONTINUOUS
10
162.383
20
-91.1091
11
162.384
21
-91.1045
0
LINE
8
BLACK
6
CONTINUOUS
10
162.384
20
-91.1045
11
162.384
21
-91.0997
0
LINE
8
BLACK
6
CONTINUOUS
10
162.384
20
-91.0997
11
162.384
21
-91.0996
0
LINE
8
BLACK
6
CONTINUOUS
10
162.384
20
-91.0996
11
162.384
21
-91.0994
0
LINE
8
BLACK
6
CONTINUOUS
10
162.384
20
-91.0994
11
162.386
21
-91.0949
0
LINE
8
BLACK
6
CONTINUOUS
10
162.386
20
-91.0949
11
162.387
21
-91.0904
0
LINE
8
BLACK
6
CONTINUOUS
10
162.387
20
-91.0904
11
162.387
21
-91.0903
0
LINE
8
BLACK
6
CONTINUOUS
10
162.387
20
-91.0903
11
162.387
21
-91.0901
0
LINE
8
BLACK
6
CONTINUOUS
10
162.387
20
-91.0901
11
162.389
21
-91.086
0
LINE
8
BLACK
6
CONTINUOUS
10
162.389
20
-91.086
11
162.392
21
-91.0818
0
LINE
8
BLACK
6
CONTINUOUS
10
162.392
20
-91.0818
11
162.392
21
-91.0817
0
LINE
8
BLACK
6
CONTINUOUS
10
162.392
20
-91.0817
11
162.392
21
-91.0816
0
LINE
8
BLACK
6
CONTINUOUS
10
162.392
20
-91.0816
11
162.395
21
-91.078
0
LINE
8
BLACK
6
CONTINUOUS
10
162.395
20
-91.078
11
162.398
21
-91.0743
0
LINE
8
BLACK
6
CONTINUOUS
10
162.398
20
-91.0743
11
162.398
21
-91.0742
0
LINE
8
BLACK
6
CONTINUOUS
10
162.398
20
-91.0742
11
162.398
21
-91.0741
0
LINE
8
BLACK
6
CONTINUOUS
10
162.398
20
-91.0741
11
162.402
21
-91.0712
0
LINE
8
BLACK
6
CONTINUOUS
10
162.402
20
-91.0712
11
162.405
21
-91.0682
0
LINE
8
BLACK
6
CONTINUOUS
10
162.405
20
-91.0682
11
162.405
21
-91.0681
0
LINE
8
BLACK
6
CONTINUOUS
10
162.405
20
-91.0681
11
162.406
21
-91.068
0
LINE
8
BLACK
6
CONTINUOUS
10
162.406
20
-91.068
11
162.41
21
-91.0658
0
LINE
8
BLACK
6
CONTINUOUS
10
162.41
20
-91.0658
11
162.414
21
-91.0636
0
LINE
8
BLACK
6
CONTINUOUS
10
162.414
20
-91.0636
11
162.414
21
-91.0635
0
LINE
8
BLACK
6
CONTINUOUS
10
162.414
20
-91.0635
11
162.414
21
-91.0634
0
LINE
8
BLACK
6
CONTINUOUS
10
162.414
20
-91.0634
11
162.419
21
-91.0621
0
LINE
8
BLACK
6
CONTINUOUS
10
162.419
20
-91.0621
11
162.423
21
-91.0608
0
LINE
8
BLACK
6
CONTINUOUS
10
162.423
20
-91.0608
11
162.423
21
-91.0607
0
LINE
8
BLACK
6
CONTINUOUS
10
162.423
20
-91.0607
11
162.424
21
-91.0607
0
LINE
8
BLACK
6
CONTINUOUS
10
162.424
20
-91.0607
11
162.428
21
-91.0603
0
LINE
8
BLACK
6
CONTINUOUS
10
162.428
20
-91.0603
11
162.433
21
-91.0598
0
LINE
8
BLACK
6
CONTINUOUS
10
162.433
20
-91.0598
11
163.068
21
-91.0598
0
LINE
8
BLACK
6
CONTINUOUS
10
163.068
20
-91.0598
11
163.068
21
-91.0598
0
LINE
8
BLACK
6
CONTINUOUS
10
163.068
20
-91.0598
11
163.068
21
-91.0598
0
LINE
8
BLACK
6
CONTINUOUS
10
163.068
20
-91.0598
11
163.068
21
-91.0598
0
LINE
8
BLACK
6
CONTINUOUS
10
163.068
20
-91.0598
11
163.069
21
-91.0598
0
LINE
8
BLACK
6
CONTINUOUS
10
163.069
20
-91.0598
11
163.073
21
-91.0603
0
LINE
8
BLACK
6
CONTINUOUS
10
163.073
20
-91.0603
11
163.078
21
-91.0608
0
LINE
8
BLACK
6
CONTINUOUS
10
163.078
20
-91.0608
11
163.078
21
-91.0609
0
LINE
8
BLACK
6
CONTINUOUS
10
163.078
20
-91.0609
11
163.078
21
-91.0609
0
LINE
8
BLACK
6
CONTINUOUS
10
163.078
20
-91.0609
11
163.083
21
-91.0623
0
LINE
8
BLACK
6
CONTINUOUS
10
163.083
20
-91.0623
11
163.087
21
-91.0637
0
LINE
8
BLACK
6
CONTINUOUS
10
163.087
20
-91.0637
11
163.088
21
-91.0638
0
LINE
8
BLACK
6
CONTINUOUS
10
163.088
20
-91.0638
11
163.088
21
-91.0638
0
LINE
8
BLACK
6
CONTINUOUS
10
163.088
20
-91.0638
11
163.092
21
-91.0661
0
LINE
8
BLACK
6
CONTINUOUS
10
163.092
20
-91.0661
11
163.096
21
-91.0683
0
LINE
8
BLACK
6
CONTINUOUS
10
163.096
20
-91.0683
11
163.096
21
-91.0685
0
LINE
8
BLACK
6
CONTINUOUS
10
163.096
20
-91.0685
11
163.096
21
-91.0685
0
LINE
8
BLACK
6
CONTINUOUS
10
163.096
20
-91.0685
11
163.1
21
-91.0715
0
LINE
8
BLACK
6
CONTINUOUS
10
163.1
20
-91.0715
11
163.103
21
-91.0746
0
LINE
8
BLACK
6
CONTINUOUS
10
163.103
20
-91.0746
11
163.104
21
-91.0747
0
LINE
8
BLACK
6
CONTINUOUS
10
163.104
20
-91.0747
11
163.104
21
-91.0748
0
LINE
8
BLACK
6
CONTINUOUS
10
163.104
20
-91.0748
11
163.107
21
-91.0784
0
LINE
8
BLACK
6
CONTINUOUS
10
163.107
20
-91.0784
11
163.11
21
-91.0821
0
LINE
8
BLACK
6
CONTINUOUS
10
163.11
20
-91.0821
11
163.11
21
-91.0823
0
LINE
8
BLACK
6
CONTINUOUS
10
163.11
20
-91.0823
11
163.11
21
-91.0824
0
LINE
8
BLACK
6
CONTINUOUS
10
163.11
20
-91.0824
11
163.112
21
-91.0865
0
LINE
8
BLACK
6
CONTINUOUS
10
163.112
20
-91.0865
11
163.114
21
-91.0907
0
LINE
8
BLACK
6
CONTINUOUS
10
163.114
20
-91.0907
11
163.114
21
-91.0909
0
LINE
8
BLACK
6
CONTINUOUS
10
163.114
20
-91.0909
11
163.114
21
-91.0911
0
LINE
8
BLACK
6
CONTINUOUS
10
163.114
20
-91.0911
11
163.116
21
-91.0955
0
LINE
8
BLACK
6
CONTINUOUS
10
163.116
20
-91.0955
11
163.117
21
-91.1001
0
LINE
8
BLACK
6
CONTINUOUS
10
163.117
20
-91.1001
11
163.117
21
-91.1003
0
LINE
8
BLACK
6
CONTINUOUS
10
163.117
20
-91.1003
11
163.117
21
-91.1004
0
LINE
8
BLACK
6
CONTINUOUS
10
163.117
20
-91.1004
11
163.118
21
-91.1051
0
LINE
8
BLACK
6
CONTINUOUS
10
163.118
20
-91.1051
11
163.118
21
-91.1098
0
LINE
8
BLACK
6
CONTINUOUS
10
163.118
20
-91.1098
11
163.118
21
-91.6948
0
LINE
8
BLACK
6
CONTINUOUS
10
163.118
20
-91.6948
11
163.653
21
-91.6948
0
LINE
8
BLACK
6
CONTINUOUS
10
163.653
20
-91.6948
11
163.653
21
-91.1098
0
LINE
8
BLACK
6
CONTINUOUS
10
163.653
20
-91.1098
11
163.653
21
-91.1095
0
LINE
8
BLACK
6
CONTINUOUS
10
163.653
20
-91.1095
11
163.653
21
-91.1095
0
LINE
8
BLACK
6
CONTINUOUS
10
163.653
20
-91.1095
11
163.653
21
-91.1094
0
LINE
8
BLACK
6
CONTINUOUS
10
163.653
20
-91.1094
11
163.653
21
-91.1091
0
LINE
8
BLACK
6
CONTINUOUS
10
163.653
20
-91.1091
11
163.654
21
-91.1045
0
LINE
8
BLACK
6
CONTINUOUS
10
163.654
20
-91.1045
11
163.654
21
-91.0997
0
LINE
8
BLACK
6
CONTINUOUS
10
163.654
20
-91.0997
11
163.654
21
-91.0996
0
LINE
8
BLACK
6
CONTINUOUS
10
163.654
20
-91.0996
11
163.654
21
-91.0994
0
LINE
8
BLACK
6
CONTINUOUS
10
163.654
20
-91.0994
11
163.656
21
-91.0949
0
LINE
8
BLACK
6
CONTINUOUS
10
163.656
20
-91.0949
11
163.657
21
-91.0904
0
LINE
8
BLACK
6
CONTINUOUS
10
163.657
20
-91.0904
11
163.657
21
-91.0903
0
LINE
8
BLACK
6
CONTINUOUS
10
163.657
20
-91.0903
11
163.657
21
-91.0901
0
LINE
8
BLACK
6
CONTINUOUS
10
163.657
20
-91.0901
11
163.659
21
-91.086
0
LINE
8
BLACK
6
CONTINUOUS
10
163.659
20
-91.086
11
163.662
21
-91.0818
0
LINE
8
BLACK
6
CONTINUOUS
10
163.662
20
-91.0818
11
163.662
21
-91.0817
0
LINE
8
BLACK
6
CONTINUOUS
10
163.662
20
-91.0817
11
163.662
21
-91.0816
0
LINE
8
BLACK
6
CONTINUOUS
10
163.662
20
-91.0816
11
163.665
21
-91.078
0
LINE
8
BLACK
6
CONTINUOUS
10
163.665
20
-91.078
11
163.668
21
-91.0743
0
LINE
8
BLACK
6
CONTINUOUS
10
163.668
20
-91.0743
11
163.668
21
-91.0742
0
LINE
8
BLACK
6
CONTINUOUS
10
163.668
20
-91.0742
11
163.668
21
-91.0741
0
LINE
8
BLACK
6
CONTINUOUS
10
163.668
20
-91.0741
11
163.672
21
-91.0712
0
LINE
8
BLACK
6
CONTINUOUS
10
163.672
20
-91.0712
11
163.675
21
-91.0682
0
LINE
8
BLACK
6
CONTINUOUS
10
163.675
20
-91.0682
11
163.675
21
-91.0681
0
LINE
8
BLACK
6
CONTINUOUS
10
163.675
20
-91.0681
11
163.676
21
-91.068
0
LINE
8
BLACK
6
CONTINUOUS
10
163.676
20
-91.068
11
163.68
21
-91.0658
0
LINE
8
BLACK
6
CONTINUOUS
10
163.68
20
-91.0658
11
163.684
21
-91.0636
0
LINE
8
BLACK
6
CONTINUOUS
10
163.684
20
-91.0636
11
163.684
21
-91.0635
0
LINE
8
BLACK
6
CONTINUOUS
10
163.684
20
-91.0635
11
163.684
21
-91.0634
0
LINE
8
BLACK
6
CONTINUOUS
10
163.684
20
-91.0634
11
163.689
21
-91.0621
0
LINE
8
BLACK
6
CONTINUOUS
10
163.689
20
-91.0621
11
163.693
21
-91.0608
0
LINE
8
BLACK
6
CONTINUOUS
10
163.693
20
-91.0608
11
163.693
21
-91.0607
0
LINE
8
BLACK
6
CONTINUOUS
10
163.693
20
-91.0607
11
163.694
21
-91.0607
0
LINE
8
BLACK
6
CONTINUOUS
10
163.694
20
-91.0607
11
163.698
21
-91.0603
0
LINE
8
BLACK
6
CONTINUOUS
10
163.698
20
-91.0603
11
163.703
21
-91.0598
0
LINE
8
BLACK
6
CONTINUOUS
10
163.703
20
-91.0598
11
164.338
21
-91.0598
0
LINE
8
BLACK
6
CONTINUOUS
10
164.338
20
-91.0598
11
164.338
21
-91.0598
0
LINE
8
BLACK
6
CONTINUOUS
10
164.338
20
-91.0598
11
164.338
21
-91.0598
0
LINE
8
BLACK
6
CONTINUOUS
10
164.338
20
-91.0598
11
164.338
21
-91.0598
0
LINE
8
BLACK
6
CONTINUOUS
10
164.338
20
-91.0598
11
164.339
21
-91.0598
0
LINE
8
BLACK
6
CONTINUOUS
10
164.339
20
-91.0598
11
164.343
21
-91.0603
0
LINE
8
BLACK
6
CONTINUOUS
10
164.343
20
-91.0603
11
164.348
21
-91.0608
0
LINE
8
BLACK
6
CONTINUOUS
10
164.348
20
-91.0608
11
164.348
21
-91.0609
0
LINE
8
BLACK
6
CONTINUOUS
10
164.348
20
-91.0609
11
164.348
21
-91.0609
0
LINE
8
BLACK
6
CONTINUOUS
10
164.348
20
-91.0609
11
164.353
21
-91.0623
0
LINE
8
BLACK
6
CONTINUOUS
10
164.353
20
-91.0623
11
164.357
21
-91.0637
0
LINE
8
BLACK
6
CONTINUOUS
10
164.357
20
-91.0637
11
164.358
21
-91.0638
0
LINE
8
BLACK
6
CONTINUOUS
10
164.358
20
-91.0638
11
164.358
21
-91.0638
0
LINE
8
BLACK
6
CONTINUOUS
10
164.358
20
-91.0638
11
164.362
21
-91.0661
0
LINE
8
BLACK
6
CONTINUOUS
10
164.362
20
-91.0661
11
164.366
21
-91.0683
0
LINE
8
BLACK
6
CONTINUOUS
10
164.366
20
-91.0683
11
164.366
21
-91.0685
0
LINE
8
BLACK
6
CONTINUOUS
10
164.366
20
-91.0685
11
164.366
21
-91.0685
0
LINE
8
BLACK
6
CONTINUOUS
10
164.366
20
-91.0685
11
164.37
21
-91.0715
0
LINE
8
BLACK
6
CONTINUOUS
10
164.37
20
-91.0715
11
164.373
21
-91.0746
0
LINE
8
BLACK
6
CONTINUOUS
10
164.373
20
-91.0746
11
164.374
21
-91.0747
0
LINE
8
BLACK
6
CONTINUOUS
10
164.374
20
-91.0747
11
164.374
21
-91.0748
0
LINE
8
BLACK
6
CONTINUOUS
10
164.374
20
-91.0748
11
164.377
21
-91.0784
0
LINE
8
BLACK
6
CONTINUOUS
10
164.377
20
-91.0784
11
164.38
21
-91.0821
0
LINE
8
BLACK
6
CONTINUOUS
10
164.38
20
-91.0821
11
164.38
21
-91.0823
0
LINE
8
BLACK
6
CONTINUOUS
10
164.38
20
-91.0823
11
164.38
21
-91.0824
0
LINE
8
BLACK
6
CONTINUOUS
10
164.38
20
-91.0824
11
164.382
21
-91.0865
0
LINE
8
BLACK
6
CONTINUOUS
10
164.382
20
-91.0865
11
164.384
21
-91.0907
0
LINE
8
BLACK
6
CONTINUOUS
10
164.384
20
-91.0907
11
164.384
21
-91.0909
0
LINE
8
BLACK
6
CONTINUOUS
10
164.384
20
-91.0909
11
164.384
21
-91.0911
0
LINE
8
BLACK
6
CONTINUOUS
10
164.384
20
-91.0911
11
164.386
21
-91.0955
0
LINE
8
BLACK
6
CONTINUOUS
10
164.386
20
-91.0955
11
164.387
21
-91.1001
0
LINE
8
BLACK
6
CONTINUOUS
10
164.387
20
-91.1001
11
164.387
21
-91.1003
0
LINE
8
BLACK
6
CONTINUOUS
10
164.387
20
-91.1003
11
164.387
21
-91.1004
0
LINE
8
BLACK
6
CONTINUOUS
10
164.387
20
-91.1004
11
164.388
21
-91.1051
0
LINE
8
BLACK
6
CONTINUOUS
10
164.388
20
-91.1051
11
164.388
21
-91.1098
0
LINE
8
BLACK
6
CONTINUOUS
10
164.388
20
-91.1098
11
164.388
21
-92.3798
0
LINE
8
BLACK
6
CONTINUOUS
10
164.388
20
-92.3798
11
164.388
21
-92.3801
0
LINE
8
BLACK
6
CONTINUOUS
10
162.483
20
-92.4298
11
162.483
21
-92.9648
0
LINE
8
BLACK
6
CONTINUOUS
10
162.483
20
-92.9648
11
163.018
21
-92.9648
0
LINE
8
BLACK
6
CONTINUOUS
10
163.018
20
-92.9648
11
163.018
21
-92.4298
0
LINE
8
BLACK
6
CONTINUOUS
10
163.018
20
-92.4298
11
162.483
21
-92.4298
0
LINE
8
BLACK
6
CONTINUOUS
10
165.608
20
-91.6948
11
165.608
21
-91.6948
0
LINE
8
BLACK
6
CONTINUOUS
10
165.608
20
-91.6948
11
165.608
21
-91.6948
0
LINE
8
BLACK
6
CONTINUOUS
10
165.608
20
-91.6948
11
165.609
21
-91.6948
0
LINE
8
BLACK
6
CONTINUOUS
10
165.609
20
-91.6948
11
165.613
21
-91.6953
0
LINE
8
BLACK
6
CONTINUOUS
10
165.613
20
-91.6953
11
165.618
21
-91.6958
0
LINE
8
BLACK
6
CONTINUOUS
10
165.618
20
-91.6958
11
165.618
21
-91.6959
0
LINE
8
BLACK
6
CONTINUOUS
10
165.618
20
-91.6959
11
165.618
21
-91.6959
0
LINE
8
BLACK
6
CONTINUOUS
10
165.618
20
-91.6959
11
165.623
21
-91.6973
0
LINE
8
BLACK
6
CONTINUOUS
10
165.623
20
-91.6973
11
165.627
21
-91.6987
0
LINE
8
BLACK
6
CONTINUOUS
10
165.627
20
-91.6987
11
165.628
21
-91.6988
0
LINE
8
BLACK
6
CONTINUOUS
10
165.628
20
-91.6988
11
165.628
21
-91.6988
0
LINE
8
BLACK
6
CONTINUOUS
10
165.628
20
-91.6988
11
165.632
21
-91.7011
0
LINE
8
BLACK
6
CONTINUOUS
10
165.632
20
-91.7011
11
165.636
21
-91.7033
0
LINE
8
BLACK
6
CONTINUOUS
10
165.636
20
-91.7033
11
165.636
21
-91.7035
0
LINE
8
BLACK
6
CONTINUOUS
10
165.636
20
-91.7035
11
165.636
21
-91.7035
0
LINE
8
BLACK
6
CONTINUOUS
10
165.636
20
-91.7035
11
165.64
21
-91.7065
0
LINE
8
BLACK
6
CONTINUOUS
10
165.64
20
-91.7065
11
165.643
21
-91.7096
0
LINE
8
BLACK
6
CONTINUOUS
10
165.643
20
-91.7096
11
165.644
21
-91.7097
0
LINE
8
BLACK
6
CONTINUOUS
10
165.644
20
-91.7097
11
165.644
21
-91.7098
0
LINE
8
BLACK
6
CONTINUOUS
10
165.644
20
-91.7098
11
165.647
21
-91.7134
0
LINE
8
BLACK
6
CONTINUOUS
10
165.647
20
-91.7134
11
165.65
21
-91.7171
0
LINE
8
BLACK
6
CONTINUOUS
10
165.65
20
-91.7171
11
165.65
21
-91.7173
0
LINE
8
BLACK
6
CONTINUOUS
10
165.65
20
-91.7173
11
165.65
21
-91.7174
0
LINE
8
BLACK
6
CONTINUOUS
10
165.65
20
-91.7174
11
165.652
21
-91.7215
0
LINE
8
BLACK
6
CONTINUOUS
10
165.652
20
-91.7215
11
165.654
21
-91.7257
0
LINE
8
BLACK
6
CONTINUOUS
10
165.654
20
-91.7257
11
165.654
21
-91.7259
0
LINE
8
BLACK
6
CONTINUOUS
10
165.654
20
-91.7259
11
165.654
21
-91.7261
0
LINE
8
BLACK
6
CONTINUOUS
10
165.654
20
-91.7261
11
165.656
21
-91.7305
0
LINE
8
BLACK
6
CONTINUOUS
10
165.656
20
-91.7305
11
165.657
21
-91.7351
0
LINE
8
BLACK
6
CONTINUOUS
10
165.657
20
-91.7351
11
165.657
21
-91.7353
0
LINE
8
BLACK
6
CONTINUOUS
10
165.657
20
-91.7353
11
165.657
21
-91.7354
0
LINE
8
BLACK
6
CONTINUOUS
10
165.657
20
-91.7354
11
165.658
21
-91.7401
0
LINE
8
BLACK
6
CONTINUOUS
10
165.658
20
-91.7401
11
165.658
21
-91.7448
0
LINE
8
BLACK
6
CONTINUOUS
10
165.658
20
-91.7448
11
165.658
21
-92.3798
0
LINE
8
BLACK
6
CONTINUOUS
10
165.658
20
-92.3798
11
165.658
21
-92.3801
0
LINE
8
BLACK
6
CONTINUOUS
10
165.658
20
-92.3801
11
165.658
21
-92.3801
0
LINE
8
BLACK
6
CONTINUOUS
10
165.658
20
-92.3801
11
165.658
21
-92.3802
0
LINE
8
BLACK
6
CONTINUOUS
10
165.658
20
-92.3802
11
165.658
21
-92.3805
0
LINE
8
BLACK
6
CONTINUOUS
10
165.658
20
-92.3805
11
165.657
21
-92.3851
0
LINE
8
BLACK
6
CONTINUOUS
10
165.657
20
-92.3851
11
165.657
21
-92.3899
0
LINE
8
BLACK
6
CONTINUOUS
10
165.657
20
-92.3899
11
165.657
21
-92.39
0
LINE
8
BLACK
6
CONTINUOUS
10
165.657
20
-92.39
11
165.657
21
-92.3902
0
LINE
8
BLACK
6
CONTINUOUS
10
165.657
20
-92.3902
11
165.655
21
-92.3947
0
LINE
8
BLACK
6
CONTINUOUS
10
165.655
20
-92.3947
11
165.654
21
-92.3992
0
LINE
8
BLACK
6
CONTINUOUS
10
165.654
20
-92.3992
11
165.654
21
-92.3993
0
LINE
8
BLACK
6
CONTINUOUS
10
165.654
20
-92.3993
11
165.654
21
-92.3995
0
LINE
8
BLACK
6
CONTINUOUS
10
165.654
20
-92.3995
11
165.652
21
-92.4036
0
LINE
8
BLACK
6
CONTINUOUS
10
165.652
20
-92.4036
11
165.649
21
-92.4078
0
LINE
8
BLACK
6
CONTINUOUS
10
165.649
20
-92.4078
11
165.649
21
-92.4079
0
LINE
8
BLACK
6
CONTINUOUS
10
165.649
20
-92.4079
11
165.649
21
-92.408
0
LINE
8
BLACK
6
CONTINUOUS
10
165.649
20
-92.408
11
165.646
21
-92.4116
0
LINE
8
BLACK
6
CONTINUOUS
10
165.646
20
-92.4116
11
165.643
21
-92.4153
0
LINE
8
BLACK
6
CONTINUOUS
10
165.643
20
-92.4153
11
165.643
21
-92.4154
0
LINE
8
BLACK
6
CONTINUOUS
10
165.643
20
-92.4154
11
165.643
21
-92.4155
0
LINE
8
BLACK
6
CONTINUOUS
10
165.643
20
-92.4155
11
165.639
21
-92.4184
0
LINE
8
BLACK
6
CONTINUOUS
10
165.639
20
-92.4184
11
165.636
21
-92.4214
0
LINE
8
BLACK
6
CONTINUOUS
10
165.636
20
-92.4214
11
165.636
21
-92.4215
0
LINE
8
BLACK
6
CONTINUOUS
10
165.636
20
-92.4215
11
165.635
21
-92.4216
0
LINE
8
BLACK
6
CONTINUOUS
10
165.635
20
-92.4216
11
165.631
21
-92.4238
0
LINE
8
BLACK
6
CONTINUOUS
10
165.631
20
-92.4238
11
165.627
21
-92.426
0
LINE
8
BLACK
6
CONTINUOUS
10
165.627
20
-92.426
11
165.627
21
-92.4261
0
LINE
8
BLACK
6
CONTINUOUS
10
165.627
20
-92.4261
11
165.627
21
-92.4262
0
LINE
8
BLACK
6
CONTINUOUS
10
165.627
20
-92.4262
11
165.622
21
-92.4275
0
LINE
8
BLACK
6
CONTINUOUS
10
165.622
20
-92.4275
11
165.618
21
-92.4288
0
LINE
8
BLACK
6
CONTINUOUS
10
165.618
20
-92.4288
11
165.618
21
-92.4289
0
LINE
8
BLACK
6
CONTINUOUS
10
165.618
20
-92.4289
11
165.617
21
-92.4289
0
LINE
8
BLACK
6
CONTINUOUS
10
165.617
20
-92.4289
11
165.613
21
-92.4293
0
LINE
8
BLACK
6
CONTINUOUS
10
165.613
20
-92.4293
11
165.608
21
-92.4298
0
LINE
8
BLACK
6
CONTINUOUS
10
165.608
20
-92.4298
11
164.973
21
-92.4298
0
LINE
8
BLACK
6
CONTINUOUS
10
164.973
20
-92.4298
11
164.973
21
-92.4298
0
LINE
8
BLACK
6
CONTINUOUS
10
164.973
20
-92.4298
11
164.973
21
-92.4298
0
LINE
8
BLACK
6
CONTINUOUS
10
164.973
20
-92.4298
11
164.973
21
-92.4298
0
LINE
8
BLACK
6
CONTINUOUS
10
164.973
20
-92.4298
11
164.972
21
-92.4298
0
LINE
8
BLACK
6
CONTINUOUS
10
164.972
20
-92.4298
11
164.968
21
-92.4293
0
LINE
8
BLACK
6
CONTINUOUS
10
164.968
20
-92.4293
11
164.963
21
-92.4288
0
LINE
8
BLACK
6
CONTINUOUS
10
164.963
20
-92.4288
11
164.963
21
-92.4287
0
LINE
8
BLACK
6
CONTINUOUS
10
164.963
20
-92.4287
11
164.963
21
-92.4287
0
LINE
8
BLACK
6
CONTINUOUS
10
164.963
20
-92.4287
11
164.958
21
-92.4273
0
LINE
8
BLACK
6
CONTINUOUS
10
164.958
20
-92.4273
11
164.954
21
-92.4259
0
LINE
8
BLACK
6
CONTINUOUS
10
164.954
20
-92.4259
11
164.953
21
-92.4258
0
LINE
8
BLACK
6
CONTINUOUS
10
164.953
20
-92.4258
11
164.953
21
-92.4258
0
LINE
8
BLACK
6
CONTINUOUS
10
164.953
20
-92.4258
11
164.949
21
-92.4235
0
LINE
8
BLACK
6
CONTINUOUS
10
164.949
20
-92.4235
11
164.945
21
-92.4213
0
LINE
8
BLACK
6
CONTINUOUS
10
164.945
20
-92.4213
11
164.945
21
-92.4211
0
LINE
8
BLACK
6
CONTINUOUS
10
164.945
20
-92.4211
11
164.945
21
-92.4211
0
LINE
8
BLACK
6
CONTINUOUS
10
164.945
20
-92.4211
11
164.941
21
-92.4181
0
LINE
8
BLACK
6
CONTINUOUS
10
164.941
20
-92.4181
11
164.938
21
-92.415
0
LINE
8
BLACK
6
CONTINUOUS
10
164.938
20
-92.415
11
164.937
21
-92.4149
0
LINE
8
BLACK
6
CONTINUOUS
10
164.937
20
-92.4149
11
164.937
21
-92.4148
0
LINE
8
BLACK
6
CONTINUOUS
10
164.937
20
-92.4148
11
164.934
21
-92.4112
0
LINE
8
BLACK
6
CONTINUOUS
10
164.934
20
-92.4112
11
164.931
21
-92.4075
0
LINE
8
BLACK
6
CONTINUOUS
10
164.931
20
-92.4075
11
164.931
21
-92.4073
0
LINE
8
BLACK
6
CONTINUOUS
10
164.931
20
-92.4073
11
164.931
21
-92.4072
0
LINE
8
BLACK
6
CONTINUOUS
10
164.931
20
-92.4072
11
164.929
21
-92.4031
0
LINE
8
BLACK
6
CONTINUOUS
10
164.929
20
-92.4031
11
164.927
21
-92.3989
0
LINE
8
BLACK
6
CONTINUOUS
10
164.927
20
-92.3989
11
164.927
21
-92.3987
0
LINE
8
BLACK
6
CONTINUOUS
10
164.927
20
-92.3987
11
164.927
21
-92.3985
0
LINE
8
BLACK
6
CONTINUOUS
10
164.927
20
-92.3985
11
164.925
21
-92.3941
0
LINE
8
BLACK
6
CONTINUOUS
10
164.925
20
-92.3941
11
164.924
21
-92.3895
0
LINE
8
BLACK
6
CONTINUOUS
10
164.924
20
-92.3895
11
164.924
21
-92.3893
0
LINE
8
BLACK
6
CONTINUOUS
10
164.924
20
-92.3893
11
164.924
21
-92.3892
0
LINE
8
BLACK
6
CONTINUOUS
10
164.924
20
-92.3892
11
164.923
21
-92.3845
0
LINE
8
BLACK
6
CONTINUOUS
10
164.923
20
-92.3845
11
164.923
21
-92.3798
0
LINE
8
BLACK
6
CONTINUOUS
10
164.923
20
-92.3798
11
164.923
21
-91.7448
0
LINE
8
BLACK
6
CONTINUOUS
10
164.923
20
-91.7448
11
164.923
21
-91.7445
0
LINE
8
BLACK
6
CONTINUOUS
10
164.923
20
-91.7445
11
164.923
21
-91.7445
0
LINE
8
BLACK
6
CONTINUOUS
10
164.923
20
-91.7445
11
164.923
21
-91.7444
0
LINE
8
BLACK
6
CONTINUOUS
10
164.923
20
-91.7444
11
164.923
21
-91.7441
0
LINE
8
BLACK
6
CONTINUOUS
10
164.923
20
-91.7441
11
164.924
21
-91.7395
0
LINE
8
BLACK
6
CONTINUOUS
10
164.924
20
-91.7395
11
164.924
21
-91.7347
0
LINE
8
BLACK
6
CONTINUOUS
10
164.924
20
-91.7347
11
164.924
21
-91.7346
0
LINE
8
BLACK
6
CONTINUOUS
10
164.924
20
-91.7346
11
164.924
21
-91.7344
0
LINE
8
BLACK
6
CONTINUOUS
10
164.924
20
-91.7344
11
164.926
21
-91.7299
0
LINE
8
BLACK
6
CONTINUOUS
10
164.926
20
-91.7299
11
164.927
21
-91.7254
0
LINE
8
BLACK
6
CONTINUOUS
10
164.927
20
-91.7254
11
164.927
21
-91.7253
0
LINE
8
BLACK
6
CONTINUOUS
10
164.927
20
-91.7253
11
164.927
21
-91.7251
0
LINE
8
BLACK
6
CONTINUOUS
10
164.927
20
-91.7251
11
164.929
21
-91.721
0
LINE
8
BLACK
6
CONTINUOUS
10
164.929
20
-91.721
11
164.932
21
-91.7168
0
LINE
8
BLACK
6
CONTINUOUS
10
164.932
20
-91.7168
11
164.932
21
-91.7167
0
LINE
8
BLACK
6
CONTINUOUS
10
164.932
20
-91.7167
11
164.932
21
-91.7166
0
LINE
8
BLACK
6
CONTINUOUS
10
164.932
20
-91.7166
11
164.935
21
-91.713
0
LINE
8
BLACK
6
CONTINUOUS
10
164.935
20
-91.713
11
164.938
21
-91.7093
0
LINE
8
BLACK
6
CONTINUOUS
10
164.938
20
-91.7093
11
164.938
21
-91.7092
0
LINE
8
BLACK
6
CONTINUOUS
10
164.938
20
-91.7092
11
164.938
21
-91.7091
0
LINE
8
BLACK
6
CONTINUOUS
10
164.938
20
-91.7091
11
164.942
21
-91.7062
0
LINE
8
BLACK
6
CONTINUOUS
10
164.942
20
-91.7062
11
164.945
21
-91.7032
0
LINE
8
BLACK
6
CONTINUOUS
10
164.945
20
-91.7032
11
164.945
21
-91.7031
0
LINE
8
BLACK
6
CONTINUOUS
10
164.945
20
-91.7031
11
164.946
21
-91.703
0
LINE
8
BLACK
6
CONTINUOUS
10
164.946
20
-91.703
11
164.95
21
-91.7008
0
LINE
8
BLACK
6
CONTINUOUS
10
164.95
20
-91.7008
11
164.954
21
-91.6986
0
LINE
8
BLACK
6
CONTINUOUS
10
164.954
20
-91.6986
11
164.954
21
-91.6985
0
LINE
8
BLACK
6
CONTINUOUS
10
164.954
20
-91.6985
11
164.954
21
-91.6984
0
LINE
8
BLACK
6
CONTINUOUS
10
164.954
20
-91.6984
11
164.959
21
-91.6971
0
LINE
8
BLACK
6
CONTINUOUS
10
164.959
20
-91.6971
11
164.963
21
-91.6958
0
LINE
8
BLACK
6
CONTINUOUS
10
164.963
20
-91.6958
11
164.963
21
-91.6957
0
LINE
8
BLACK
6
CONTINUOUS
10
164.963
20
-91.6957
11
164.964
21
-91.6957
0
LINE
8
BLACK
6
CONTINUOUS
10
164.964
20
-91.6957
11
164.968
21
-91.6953
0
LINE
8
BLACK
6
CONTINUOUS
10
164.968
20
-91.6953
11
164.973
21
-91.6948
0
LINE
8
BLACK
6
CONTINUOUS
10
164.973
20
-91.6948
11
165.608
21
-91.6948
0
LINE
8
BLACK
6
CONTINUOUS
10
165.608
20
-91.6948
11
165.608
21
-91.6948
0
LINE
8
BLACK
6
CONTINUOUS
10
124.845
20
-85.0882
11
125.263
21
-85.2616
0
LINE
8
BLACK
6
CONTINUOUS
10
125.263
20
-85.2616
11
125.64
21
-85.5133
0
LINE
8
BLACK
6
CONTINUOUS
10
125.64
20
-85.5133
11
125.961
21
-85.8336
0
LINE
8
BLACK
6
CONTINUOUS
10
125.961
20
-85.8336
11
126.212
21
-86.2103
0
LINE
8
BLACK
6
CONTINUOUS
10
126.212
20
-86.2103
11
126.386
21
-86.6289
0
LINE
8
BLACK
6
CONTINUOUS
10
126.386
20
-86.6289
11
126.474
21
-87.0733
0
LINE
8
BLACK
6
CONTINUOUS
10
126.474
20
-87.0733
11
126.474
21
-87.5263
0
LINE
8
BLACK
6
CONTINUOUS
10
126.474
20
-87.5263
11
126.386
21
-87.9707
0
LINE
8
BLACK
6
CONTINUOUS
10
126.386
20
-87.9707
11
126.212
21
-88.3893
0
LINE
8
BLACK
6
CONTINUOUS
10
126.212
20
-88.3893
11
125.961
21
-88.766
0
LINE
8
BLACK
6
CONTINUOUS
10
125.961
20
-88.766
11
125.64
21
-89.0863
0
LINE
8
BLACK
6
CONTINUOUS
10
125.64
20
-89.0863
11
125.263
21
-89.338
0
LINE
8
BLACK
6
CONTINUOUS
10
125.263
20
-89.338
11
124.845
21
-89.5114
0
LINE
8
BLACK
6
CONTINUOUS
10
124.845
20
-89.5114
11
124.401
21
-89.5998
0
LINE
8
BLACK
6
CONTINUOUS
10
124.401
20
-89.5998
11
123.947
21
-89.5998
0
LINE
8
BLACK
6
CONTINUOUS
10
123.947
20
-89.5998
11
123.503
21
-89.5114
0
LINE
8
BLACK
6
CONTINUOUS
10
123.503
20
-89.5114
11
123.085
21
-89.338
0
LINE
8
BLACK
6
CONTINUOUS
10
123.085
20
-89.338
11
122.708
21
-89.0863
0
LINE
8
BLACK
6
CONTINUOUS
10
122.708
20
-89.0863
11
122.387
21
-88.766
0
LINE
8
BLACK
6
CONTINUOUS
10
122.387
20
-88.766
11
122.136
21
-88.3893
0
LINE
8
BLACK
6
CONTINUOUS
10
122.136
20
-88.3893
11
121.962
21
-87.9707
0
LINE
8
BLACK
6
CONTINUOUS
10
121.962
20
-87.9707
11
121.874
21
-87.5263
0
LINE
8
BLACK
6
CONTINUOUS
10
121.874
20
-87.5263
11
121.874
21
-87.0733
0
LINE
8
BLACK
6
CONTINUOUS
10
121.874
20
-87.0733
11
121.962
21
-86.6289
0
LINE
8
BLACK
6
CONTINUOUS
10
121.962
20
-86.6289
11
122.136
21
-86.2103
0
LINE
8
BLACK
6
CONTINUOUS
10
122.136
20
-86.2103
11
122.387
21
-85.8336
0
LINE
8
BLACK
6
CONTINUOUS
10
122.387
20
-85.8336
11
122.708
21
-85.5133
0
LINE
8
BLACK
6
CONTINUOUS
10
122.708
20
-85.5133
11
123.085
21
-85.2616
0
LINE
8
BLACK
6
CONTINUOUS
10
123.085
20
-85.2616
11
123.503
21
-85.0882
0
LINE
8
BLACK
6
CONTINUOUS
10
123.503
20
-85.0882
11
123.947
21
-84.9998
0
LINE
8
BLACK
6
CONTINUOUS
10
123.947
20
-84.9998
11
124.401
21
-84.9998
0
LINE
8
BLACK
6
CONTINUOUS
10
124.401
20
-84.9998
11
124.845
21
-85.0882
0
LINE
8
BLACK
6
CONTINUOUS
10
112.145
20
-85.0374
11
112.563
21
-85.2108
0
LINE
8
BLACK
6
CONTINUOUS
10
112.563
20
-85.2108
11
112.94
21
-85.4625
0
LINE
8
BLACK
6
CONTINUOUS
10
112.94
20
-85.4625
11
113.261
21
-85.7828
0
LINE
8
BLACK
6
CONTINUOUS
10
113.261
20
-85.7828
11
113.512
21
-86.1595
0
LINE
8
BLACK
6
CONTINUOUS
10
113.512
20
-86.1595
11
113.686
21
-86.5781
0
LINE
8
BLACK
6
CONTINUOUS
10
113.686
20
-86.5781
11
113.774
21
-87.0225
0
LINE
8
BLACK
6
CONTINUOUS
10
113.774
20
-87.0225
11
113.774
21
-87.4755
0
LINE
8
BLACK
6
CONTINUOUS
10
113.774
20
-87.4755
11
113.686
21
-87.9199
0
LINE
8
BLACK
6
CONTINUOUS
10
113.686
20
-87.9199
11
113.512
21
-88.3385
0
LINE
8
BLACK
6
CONTINUOUS
10
113.512
20
-88.3385
11
113.261
21
-88.7152
0
LINE
8
BLACK
6
CONTINUOUS
10
113.261
20
-88.7152
11
112.94
21
-89.0355
0
LINE
8
BLACK
6
CONTINUOUS
10
112.94
20
-89.0355
11
112.563
21
-89.2872
0
LINE
8
BLACK
6
CONTINUOUS
10
112.563
20
-89.2872
11
112.145
21
-89.4606
0
LINE
8
BLACK
6
CONTINUOUS
10
112.145
20
-89.4606
11
111.701
21
-89.549
0
LINE
8
BLACK
6
CONTINUOUS
10
111.701
20
-89.549
11
111.247
21
-89.549
0
LINE
8
BLACK
6
CONTINUOUS
10
111.247
20
-89.549
11
110.803
21
-89.4606
0
LINE
8
BLACK
6
CONTINUOUS
10
110.803
20
-89.4606
11
110.385
21
-89.2872
0
LINE
8
BLACK
6
CONTINUOUS
10
110.385
20
-89.2872
11
110.008
21
-89.0355
0
LINE
8
BLACK
6
CONTINUOUS
10
110.008
20
-89.0355
11
109.687
21
-88.7152
0
LINE
8
BLACK
6
CONTINUOUS
10
109.687
20
-88.7152
11
109.436
21
-88.3385
0
LINE
8
BLACK
6
CONTINUOUS
10
109.436
20
-88.3385
11
109.262
21
-87.9199
0
LINE
8
BLACK
6
CONTINUOUS
10
109.262
20
-87.9199
11
109.174
21
-87.4755
0
LINE
8
BLACK
6
CONTINUOUS
10
109.174
20
-87.4755
11
109.174
21
-87.0225
0
LINE
8
BLACK
6
CONTINUOUS
10
109.174
20
-87.0225
11
109.262
21
-86.5781
0
LINE
8
BLACK
6
CONTINUOUS
10
109.262
20
-86.5781
11
109.436
21
-86.1595
0
LINE
8
BLACK
6
CONTINUOUS
10
109.436
20
-86.1595
11
109.687
21
-85.7828
0
LINE
8
BLACK
6
CONTINUOUS
10
109.687
20
-85.7828
11
110.008
21
-85.4625
0
LINE
8
BLACK
6
CONTINUOUS
10
110.008
20
-85.4625
11
110.385
21
-85.2108
0
LINE
8
BLACK
6
CONTINUOUS
10
110.385
20
-85.2108
11
110.803
21
-85.0374
0
LINE
8
BLACK
6
CONTINUOUS
10
110.803
20
-85.0374
11
111.247
21
-84.949
0
LINE
8
BLACK
6
CONTINUOUS
10
111.247
20
-84.949
11
111.701
21
-84.949
0
LINE
8
BLACK
6
CONTINUOUS
10
111.701
20
-84.949
11
112.145
21
-85.0374
0
LINE
8
BLACK
6
CONTINUOUS
10
99.4449
20
-85.0374
11
99.8635
21
-85.2108
0
LINE
8
BLACK
6
CONTINUOUS
10
99.8635
20
-85.2108
11
100.24
21
-85.4625
0
LINE
8
BLACK
6
CONTINUOUS
10
100.24
20
-85.4625
11
100.561
21
-85.7828
0
LINE
8
BLACK
6
CONTINUOUS
10
100.561
20
-85.7828
11
100.812
21
-86.1595
0
LINE
8
BLACK
6
CONTINUOUS
10
100.812
20
-86.1595
11
100.986
21
-86.5781
0
LINE
8
BLACK
6
CONTINUOUS
10
100.986
20
-86.5781
11
101.074
21
-87.0225
0
LINE
8
BLACK
6
CONTINUOUS
10
101.074
20
-87.0225
11
101.074
21
-87.4755
0
LINE
8
BLACK
6
CONTINUOUS
10
101.074
20
-87.4755
11
100.986
21
-87.9199
0
LINE
8
BLACK
6
CONTINUOUS
10
100.986
20
-87.9199
11
100.812
21
-88.3385
0
LINE
8
BLACK
6
CONTINUOUS
10
100.812
20
-88.3385
11
100.561
21
-88.7152
0
LINE
8
BLACK
6
CONTINUOUS
10
100.561
20
-88.7152
11
100.24
21
-89.0355
0
LINE
8
BLACK
6
CONTINUOUS
10
100.24
20
-89.0355
11
99.8635
21
-89.2872
0
LINE
8
BLACK
6
CONTINUOUS
10
99.8635
20
-89.2872
11
99.4449
21
-89.4606
0
LINE
8
BLACK
6
CONTINUOUS
10
99.4449
20
-89.4606
11
99.0005
21
-89.549
0
LINE
8
BLACK
6
CONTINUOUS
10
99.0005
20
-89.549
11
98.5475
21
-89.549
0
LINE
8
BLACK
6
CONTINUOUS
10
98.5475
20
-89.549
11
98.1031
21
-89.4606
0
LINE
8
BLACK
6
CONTINUOUS
10
98.1031
20
-89.4606
11
97.6845
21
-89.2872
0
LINE
8
BLACK
6
CONTINUOUS
10
97.6845
20
-89.2872
11
97.3078
21
-89.0355
0
LINE
8
BLACK
6
CONTINUOUS
10
97.3078
20
-89.0355
11
96.9875
21
-88.7152
0
LINE
8
BLACK
6
CONTINUOUS
10
96.9875
20
-88.7152
11
96.7358
21
-88.3385
0
LINE
8
BLACK
6
CONTINUOUS
10
96.7358
20
-88.3385
11
96.5624
21
-87.9199
0
LINE
8
BLACK
6
CONTINUOUS
10
96.5624
20
-87.9199
11
96.474
21
-87.4755
0
LINE
8
BLACK
6
CONTINUOUS
10
96.474
20
-87.4755
11
96.474
21
-87.0225
0
LINE
8
BLACK
6
CONTINUOUS
10
96.474
20
-87.0225
11
96.5624
21
-86.5781
0
LINE
8
BLACK
6
CONTINUOUS
10
96.5624
20
-86.5781
11
96.7358
21
-86.1595
0
LINE
8
BLACK
6
CONTINUOUS
10
96.7358
20
-86.1595
11
96.9875
21
-85.7828
0
LINE
8
BLACK
6
CONTINUOUS
10
96.9875
20
-85.7828
11
97.3078
21
-85.4625
0
LINE
8
BLACK
6
CONTINUOUS
10
97.3078
20
-85.4625
11
97.6845
21
-85.2108
0
LINE
8
BLACK
6
CONTINUOUS
10
97.6845
20
-85.2108
11
98.1031
21
-85.0374
0
LINE
8
BLACK
6
CONTINUOUS
10
98.1031
20
-85.0374
11
98.5475
21
-84.949
0
LINE
8
BLACK
6
CONTINUOUS
10
98.5475
20
-84.949
11
99.0005
21
-84.949
0
LINE
8
BLACK
6
CONTINUOUS
10
99.0005
20
-84.949
11
99.4449
21
-85.0374
  0
ENDSEC
  0
EOF
