%TF.GenerationSoftware,KiCad,Pcbnew,(5.1.12)-1*%
%TF.CreationDate,2022-01-29T13:47:59+00:00*%
%TF.ProjectId,RGBtoHDMI CDTV v2 - Mouse and Joystick Adapter - FFC Extender,52474274-6f48-4444-9d49-204344545620,rev?*%
%TF.SameCoordinates,Original*%
%TF.FileFunction,Copper,L2,Bot*%
%TF.FilePolarity,Positive*%
%FSLAX46Y46*%
G04 Gerber Fmt 4.6, Leading zero omitted, Abs format (unit mm)*
G04 Created by KiCad (PCBNEW (5.1.12)-1) date 2022-01-29 13:47:59*
%MOMM*%
%LPD*%
G01*
G04 APERTURE LIST*
%TA.AperFunction,EtchedComponent*%
%ADD10C,0.100000*%
%TD*%
G04 APERTURE END LIST*
D10*
%TO.C,solarmon1*%
G36*
X159435800Y-67487800D02*
G01*
X160070800Y-67487800D01*
X160070800Y-66852800D01*
X159435800Y-66852800D01*
X159435800Y-67487800D01*
G37*
X159435800Y-67487800D02*
X160070800Y-67487800D01*
X160070800Y-66852800D01*
X159435800Y-66852800D01*
X159435800Y-67487800D01*
G36*
X156895800Y-67487800D02*
G01*
X157530800Y-67487800D01*
X157530800Y-66852800D01*
X156895800Y-66852800D01*
X156895800Y-67487800D01*
G37*
X156895800Y-67487800D02*
X157530800Y-67487800D01*
X157530800Y-66852800D01*
X156895800Y-66852800D01*
X156895800Y-67487800D01*
G36*
X156895800Y-66217800D02*
G01*
X157530800Y-66217800D01*
X157530800Y-65582800D01*
X156895800Y-65582800D01*
X156895800Y-66217800D01*
G37*
X156895800Y-66217800D02*
X157530800Y-66217800D01*
X157530800Y-65582800D01*
X156895800Y-65582800D01*
X156895800Y-66217800D01*
G36*
X158165800Y-66217800D02*
G01*
X158800800Y-66217800D01*
X158800800Y-65582800D01*
X158165800Y-65582800D01*
X158165800Y-66217800D01*
G37*
X158165800Y-66217800D02*
X158800800Y-66217800D01*
X158800800Y-65582800D01*
X158165800Y-65582800D01*
X158165800Y-66217800D01*
G36*
X158800800Y-66217800D02*
G01*
X159435800Y-66217800D01*
X159435800Y-65582800D01*
X158800800Y-65582800D01*
X158800800Y-66217800D01*
G37*
X158800800Y-66217800D02*
X159435800Y-66217800D01*
X159435800Y-65582800D01*
X158800800Y-65582800D01*
X158800800Y-66217800D01*
G36*
X159435800Y-66217800D02*
G01*
X160070800Y-66217800D01*
X160070800Y-65582800D01*
X159435800Y-65582800D01*
X159435800Y-66217800D01*
G37*
X159435800Y-66217800D02*
X160070800Y-66217800D01*
X160070800Y-65582800D01*
X159435800Y-65582800D01*
X159435800Y-66217800D01*
G36*
X159435800Y-63677800D02*
G01*
X160070800Y-63677800D01*
X160070800Y-63042800D01*
X159435800Y-63042800D01*
X159435800Y-63677800D01*
G37*
X159435800Y-63677800D02*
X160070800Y-63677800D01*
X160070800Y-63042800D01*
X159435800Y-63042800D01*
X159435800Y-63677800D01*
G36*
X158800800Y-63677800D02*
G01*
X159435800Y-63677800D01*
X159435800Y-63042800D01*
X158800800Y-63042800D01*
X158800800Y-63677800D01*
G37*
X158800800Y-63677800D02*
X159435800Y-63677800D01*
X159435800Y-63042800D01*
X158800800Y-63042800D01*
X158800800Y-63677800D01*
G36*
X158165800Y-63042800D02*
G01*
X158800800Y-63042800D01*
X158800800Y-62407800D01*
X158165800Y-62407800D01*
X158165800Y-63042800D01*
G37*
X158165800Y-63042800D02*
X158800800Y-63042800D01*
X158800800Y-62407800D01*
X158165800Y-62407800D01*
X158165800Y-63042800D01*
G36*
X158165800Y-63677800D02*
G01*
X158800800Y-63677800D01*
X158800800Y-63042800D01*
X158165800Y-63042800D01*
X158165800Y-63677800D01*
G37*
X158165800Y-63677800D02*
X158800800Y-63677800D01*
X158800800Y-63042800D01*
X158165800Y-63042800D01*
X158165800Y-63677800D01*
G36*
X157530800Y-63677800D02*
G01*
X158165800Y-63677800D01*
X158165800Y-63042800D01*
X157530800Y-63042800D01*
X157530800Y-63677800D01*
G37*
X157530800Y-63677800D02*
X158165800Y-63677800D01*
X158165800Y-63042800D01*
X157530800Y-63042800D01*
X157530800Y-63677800D01*
G36*
X156895800Y-63677800D02*
G01*
X157530800Y-63677800D01*
X157530800Y-63042800D01*
X156895800Y-63042800D01*
X156895800Y-63677800D01*
G37*
X156895800Y-63677800D02*
X157530800Y-63677800D01*
X157530800Y-63042800D01*
X156895800Y-63042800D01*
X156895800Y-63677800D01*
G36*
X156895800Y-63042800D02*
G01*
X157530800Y-63042800D01*
X157530800Y-62407800D01*
X156895800Y-62407800D01*
X156895800Y-63042800D01*
G37*
X156895800Y-63042800D02*
X157530800Y-63042800D01*
X157530800Y-62407800D01*
X156895800Y-62407800D01*
X156895800Y-63042800D01*
G36*
X155625800Y-67487800D02*
G01*
X156260800Y-67487800D01*
X156260800Y-66852800D01*
X155625800Y-66852800D01*
X155625800Y-67487800D01*
G37*
X155625800Y-67487800D02*
X156260800Y-67487800D01*
X156260800Y-66852800D01*
X155625800Y-66852800D01*
X155625800Y-67487800D01*
G36*
X155625800Y-63677800D02*
G01*
X156260800Y-63677800D01*
X156260800Y-63042800D01*
X155625800Y-63042800D01*
X155625800Y-63677800D01*
G37*
X155625800Y-63677800D02*
X156260800Y-63677800D01*
X156260800Y-63042800D01*
X155625800Y-63042800D01*
X155625800Y-63677800D01*
%TD*%
M02*
