%TF.GenerationSoftware,KiCad,Pcbnew,(5.1.12)-1*%
%TF.CreationDate,2022-01-29T13:47:59+00:00*%
%TF.ProjectId,RGBtoHDMI CDTV v2 - Mouse and Joystick Adapter - FFC Extender,52474274-6f48-4444-9d49-204344545620,rev?*%
%TF.SameCoordinates,Original*%
%TF.FileFunction,Legend,Bot*%
%TF.FilePolarity,Positive*%
%FSLAX46Y46*%
G04 Gerber Fmt 4.6, Leading zero omitted, Abs format (unit mm)*
G04 Created by KiCad (PCBNEW (5.1.12)-1) date 2022-01-29 13:47:59*
%MOMM*%
%LPD*%
G01*
G04 APERTURE LIST*
%ADD10C,0.150000*%
%ADD11C,0.100000*%
G04 APERTURE END LIST*
D10*
X167289619Y-71048571D02*
X167622952Y-71048571D01*
X167622952Y-71572380D02*
X167622952Y-70572380D01*
X167146761Y-70572380D01*
X166432476Y-71048571D02*
X166765809Y-71048571D01*
X166765809Y-71572380D02*
X166765809Y-70572380D01*
X166289619Y-70572380D01*
X165337238Y-71477142D02*
X165384857Y-71524761D01*
X165527714Y-71572380D01*
X165622952Y-71572380D01*
X165765809Y-71524761D01*
X165861047Y-71429523D01*
X165908666Y-71334285D01*
X165956285Y-71143809D01*
X165956285Y-71000952D01*
X165908666Y-70810476D01*
X165861047Y-70715238D01*
X165765809Y-70620000D01*
X165622952Y-70572380D01*
X165527714Y-70572380D01*
X165384857Y-70620000D01*
X165337238Y-70667619D01*
X163622952Y-71572380D02*
X164194380Y-71572380D01*
X163908666Y-71572380D02*
X163908666Y-70572380D01*
X164003904Y-70715238D01*
X164099142Y-70810476D01*
X164194380Y-70858095D01*
X163051523Y-71000952D02*
X163146761Y-70953333D01*
X163194380Y-70905714D01*
X163242000Y-70810476D01*
X163242000Y-70762857D01*
X163194380Y-70667619D01*
X163146761Y-70620000D01*
X163051523Y-70572380D01*
X162861047Y-70572380D01*
X162765809Y-70620000D01*
X162718190Y-70667619D01*
X162670571Y-70762857D01*
X162670571Y-70810476D01*
X162718190Y-70905714D01*
X162765809Y-70953333D01*
X162861047Y-71000952D01*
X163051523Y-71000952D01*
X163146761Y-71048571D01*
X163194380Y-71096190D01*
X163242000Y-71191428D01*
X163242000Y-71381904D01*
X163194380Y-71477142D01*
X163146761Y-71524761D01*
X163051523Y-71572380D01*
X162861047Y-71572380D01*
X162765809Y-71524761D01*
X162718190Y-71477142D01*
X162670571Y-71381904D01*
X162670571Y-71191428D01*
X162718190Y-71096190D01*
X162765809Y-71048571D01*
X162861047Y-71000952D01*
X162242000Y-70905714D02*
X162242000Y-71905714D01*
X162242000Y-70953333D02*
X162146761Y-70905714D01*
X161956285Y-70905714D01*
X161861047Y-70953333D01*
X161813428Y-71000952D01*
X161765809Y-71096190D01*
X161765809Y-71381904D01*
X161813428Y-71477142D01*
X161861047Y-71524761D01*
X161956285Y-71572380D01*
X162146761Y-71572380D01*
X162242000Y-71524761D01*
X161337238Y-71572380D02*
X161337238Y-70905714D01*
X161337238Y-70572380D02*
X161384857Y-70620000D01*
X161337238Y-70667619D01*
X161289619Y-70620000D01*
X161337238Y-70572380D01*
X161337238Y-70667619D01*
X160861047Y-70905714D02*
X160861047Y-71572380D01*
X160861047Y-71000952D02*
X160813428Y-70953333D01*
X160718190Y-70905714D01*
X160575333Y-70905714D01*
X160480095Y-70953333D01*
X160432476Y-71048571D01*
X160432476Y-71572380D01*
X158670571Y-71572380D02*
X159242000Y-71572380D01*
X158956285Y-71572380D02*
X158956285Y-70572380D01*
X159051523Y-70715238D01*
X159146761Y-70810476D01*
X159242000Y-70858095D01*
X158242000Y-71572380D02*
X158242000Y-70905714D01*
X158242000Y-71000952D02*
X158194380Y-70953333D01*
X158099142Y-70905714D01*
X157956285Y-70905714D01*
X157861047Y-70953333D01*
X157813428Y-71048571D01*
X157813428Y-71572380D01*
X157813428Y-71048571D02*
X157765809Y-70953333D01*
X157670571Y-70905714D01*
X157527714Y-70905714D01*
X157432476Y-70953333D01*
X157384857Y-71048571D01*
X157384857Y-71572380D01*
X156908666Y-71572380D02*
X156908666Y-70905714D01*
X156908666Y-71000952D02*
X156861047Y-70953333D01*
X156765809Y-70905714D01*
X156622952Y-70905714D01*
X156527714Y-70953333D01*
X156480095Y-71048571D01*
X156480095Y-71572380D01*
X156480095Y-71048571D02*
X156432476Y-70953333D01*
X156337238Y-70905714D01*
X156194380Y-70905714D01*
X156099142Y-70953333D01*
X156051523Y-71048571D01*
X156051523Y-71572380D01*
X154813428Y-71048571D02*
X154480095Y-71048571D01*
X154337238Y-71572380D02*
X154813428Y-71572380D01*
X154813428Y-70572380D01*
X154337238Y-70572380D01*
X154003904Y-71572380D02*
X153480095Y-70905714D01*
X154003904Y-70905714D02*
X153480095Y-71572380D01*
X153242000Y-70905714D02*
X152861047Y-70905714D01*
X153099142Y-70572380D02*
X153099142Y-71429523D01*
X153051523Y-71524761D01*
X152956285Y-71572380D01*
X152861047Y-71572380D01*
X152146761Y-71524761D02*
X152242000Y-71572380D01*
X152432476Y-71572380D01*
X152527714Y-71524761D01*
X152575333Y-71429523D01*
X152575333Y-71048571D01*
X152527714Y-70953333D01*
X152432476Y-70905714D01*
X152242000Y-70905714D01*
X152146761Y-70953333D01*
X152099142Y-71048571D01*
X152099142Y-71143809D01*
X152575333Y-71239047D01*
X151670571Y-70905714D02*
X151670571Y-71572380D01*
X151670571Y-71000952D02*
X151622952Y-70953333D01*
X151527714Y-70905714D01*
X151384857Y-70905714D01*
X151289619Y-70953333D01*
X151242000Y-71048571D01*
X151242000Y-71572380D01*
X150337238Y-71572380D02*
X150337238Y-70572380D01*
X150337238Y-71524761D02*
X150432476Y-71572380D01*
X150622952Y-71572380D01*
X150718190Y-71524761D01*
X150765809Y-71477142D01*
X150813428Y-71381904D01*
X150813428Y-71096190D01*
X150765809Y-71000952D01*
X150718190Y-70953333D01*
X150622952Y-70905714D01*
X150432476Y-70905714D01*
X150337238Y-70953333D01*
X149480095Y-71524761D02*
X149575333Y-71572380D01*
X149765809Y-71572380D01*
X149861047Y-71524761D01*
X149908666Y-71429523D01*
X149908666Y-71048571D01*
X149861047Y-70953333D01*
X149765809Y-70905714D01*
X149575333Y-70905714D01*
X149480095Y-70953333D01*
X149432476Y-71048571D01*
X149432476Y-71143809D01*
X149908666Y-71239047D01*
X149003904Y-71572380D02*
X149003904Y-70905714D01*
X149003904Y-71096190D02*
X148956285Y-71000952D01*
X148908666Y-70953333D01*
X148813428Y-70905714D01*
X148718190Y-70905714D01*
X161503904Y-68857761D02*
X161408666Y-68905380D01*
X161218190Y-68905380D01*
X161122952Y-68857761D01*
X161075333Y-68762523D01*
X161075333Y-68714904D01*
X161122952Y-68619666D01*
X161218190Y-68572047D01*
X161361047Y-68572047D01*
X161456285Y-68524428D01*
X161503904Y-68429190D01*
X161503904Y-68381571D01*
X161456285Y-68286333D01*
X161361047Y-68238714D01*
X161218190Y-68238714D01*
X161122952Y-68286333D01*
X160503904Y-68905380D02*
X160599142Y-68857761D01*
X160646761Y-68810142D01*
X160694380Y-68714904D01*
X160694380Y-68429190D01*
X160646761Y-68333952D01*
X160599142Y-68286333D01*
X160503904Y-68238714D01*
X160361047Y-68238714D01*
X160265809Y-68286333D01*
X160218190Y-68333952D01*
X160170571Y-68429190D01*
X160170571Y-68714904D01*
X160218190Y-68810142D01*
X160265809Y-68857761D01*
X160361047Y-68905380D01*
X160503904Y-68905380D01*
X159599142Y-68905380D02*
X159694380Y-68857761D01*
X159742000Y-68762523D01*
X159742000Y-67905380D01*
X158789619Y-68905380D02*
X158789619Y-68381571D01*
X158837238Y-68286333D01*
X158932476Y-68238714D01*
X159122952Y-68238714D01*
X159218190Y-68286333D01*
X158789619Y-68857761D02*
X158884857Y-68905380D01*
X159122952Y-68905380D01*
X159218190Y-68857761D01*
X159265809Y-68762523D01*
X159265809Y-68667285D01*
X159218190Y-68572047D01*
X159122952Y-68524428D01*
X158884857Y-68524428D01*
X158789619Y-68476809D01*
X158313428Y-68905380D02*
X158313428Y-68238714D01*
X158313428Y-68429190D02*
X158265809Y-68333952D01*
X158218190Y-68286333D01*
X158122952Y-68238714D01*
X158027714Y-68238714D01*
X157694380Y-68905380D02*
X157694380Y-68238714D01*
X157694380Y-68333952D02*
X157646761Y-68286333D01*
X157551523Y-68238714D01*
X157408666Y-68238714D01*
X157313428Y-68286333D01*
X157265809Y-68381571D01*
X157265809Y-68905380D01*
X157265809Y-68381571D02*
X157218190Y-68286333D01*
X157122952Y-68238714D01*
X156980095Y-68238714D01*
X156884857Y-68286333D01*
X156837238Y-68381571D01*
X156837238Y-68905380D01*
X156218190Y-68905380D02*
X156313428Y-68857761D01*
X156361047Y-68810142D01*
X156408666Y-68714904D01*
X156408666Y-68429190D01*
X156361047Y-68333952D01*
X156313428Y-68286333D01*
X156218190Y-68238714D01*
X156075333Y-68238714D01*
X155980095Y-68286333D01*
X155932476Y-68333952D01*
X155884857Y-68429190D01*
X155884857Y-68714904D01*
X155932476Y-68810142D01*
X155980095Y-68857761D01*
X156075333Y-68905380D01*
X156218190Y-68905380D01*
X155456285Y-68238714D02*
X155456285Y-68905380D01*
X155456285Y-68333952D02*
X155408666Y-68286333D01*
X155313428Y-68238714D01*
X155170571Y-68238714D01*
X155075333Y-68286333D01*
X155027714Y-68381571D01*
X155027714Y-68905380D01*
D11*
%TO.C,solarmon1*%
X157530800Y-64312800D02*
X156895800Y-64312800D01*
G36*
X157530800Y-66217800D02*
G01*
X158165800Y-66217800D01*
X158165800Y-65582800D01*
X157530800Y-65582800D01*
X157530800Y-66217800D01*
G37*
X157530800Y-66217800D02*
X158165800Y-66217800D01*
X158165800Y-65582800D01*
X157530800Y-65582800D01*
X157530800Y-66217800D01*
G36*
X156895800Y-64312800D02*
G01*
X157530800Y-64312800D01*
X157530800Y-63677800D01*
X156895800Y-63677800D01*
X156895800Y-64312800D01*
G37*
X156895800Y-64312800D02*
X157530800Y-64312800D01*
X157530800Y-63677800D01*
X156895800Y-63677800D01*
X156895800Y-64312800D01*
G36*
X158165800Y-64312800D02*
G01*
X158800800Y-64312800D01*
X158800800Y-63677800D01*
X158165800Y-63677800D01*
X158165800Y-64312800D01*
G37*
X158165800Y-64312800D02*
X158800800Y-64312800D01*
X158800800Y-63677800D01*
X158165800Y-63677800D01*
X158165800Y-64312800D01*
X157530800Y-65582800D02*
X157530800Y-66217800D01*
X158165800Y-65582800D02*
X158165800Y-66217800D01*
X156260800Y-66852800D02*
X155625800Y-66852800D01*
X156260800Y-63677800D02*
X155625800Y-63677800D01*
X156260800Y-63042800D02*
X155625800Y-63042800D01*
X155625800Y-63042800D02*
X155625800Y-67487800D01*
X156260800Y-63042800D02*
X156260800Y-67487800D01*
X156260800Y-67487800D02*
X155625800Y-67487800D01*
X157530800Y-67487800D02*
X156895800Y-67487800D01*
X160070800Y-67487800D02*
X159435800Y-67487800D01*
X157530800Y-66852800D02*
X157530800Y-67487800D01*
X159435800Y-66852800D02*
X159435800Y-67487800D01*
X160070800Y-66852800D02*
X156895800Y-66852800D01*
X160705800Y-66217800D02*
X156895800Y-66217800D01*
X160705800Y-65582800D02*
X155625800Y-65582800D01*
X160705800Y-66217800D02*
X160705800Y-64947800D01*
X160705800Y-64947800D02*
X155625800Y-64947800D01*
X157530800Y-63677800D02*
X157530800Y-64312800D01*
X158165800Y-63677800D02*
X158165800Y-64312800D01*
X158800800Y-63677800D02*
X158800800Y-64947800D01*
X159435800Y-64312800D02*
X158165800Y-64312800D01*
X159435800Y-63677800D02*
X159435800Y-64312800D01*
X156895800Y-62407800D02*
X156895800Y-67487800D01*
X157530800Y-62407800D02*
X157530800Y-63042800D01*
X158165800Y-63042800D02*
X157530800Y-63042800D01*
X158165800Y-62407800D02*
X158165800Y-63042800D01*
X158800800Y-62407800D02*
X158800800Y-63042800D01*
X160070800Y-62407800D02*
X156895800Y-62407800D01*
X160705800Y-63677800D02*
X160705800Y-63042800D01*
X156895800Y-63677800D02*
X160705800Y-63677800D01*
X160070800Y-62407800D02*
X160070800Y-67487800D01*
X160705800Y-63042800D02*
X158800800Y-63042800D01*
%TD*%
M02*
