%TF.GenerationSoftware,KiCad,Pcbnew,(5.1.12)-1*%
%TF.CreationDate,2022-01-29T13:47:59+00:00*%
%TF.ProjectId,RGBtoHDMI CDTV v2 - Mouse and Joystick Adapter - FFC Extender,52474274-6f48-4444-9d49-204344545620,rev?*%
%TF.SameCoordinates,Original*%
%TF.FileFunction,Copper,L1,Top*%
%TF.FilePolarity,Positive*%
%FSLAX46Y46*%
G04 Gerber Fmt 4.6, Leading zero omitted, Abs format (unit mm)*
G04 Created by KiCad (PCBNEW (5.1.12)-1) date 2022-01-29 13:47:59*
%MOMM*%
%LPD*%
G01*
G04 APERTURE LIST*
%TA.AperFunction,SMDPad,CuDef*%
%ADD10R,2.500000X3.000000*%
%TD*%
%TA.AperFunction,SMDPad,CuDef*%
%ADD11R,0.600000X2.000000*%
%TD*%
%TA.AperFunction,Conductor*%
%ADD12C,0.500000*%
%TD*%
%TA.AperFunction,Conductor*%
%ADD13C,0.254000*%
%TD*%
%TA.AperFunction,Conductor*%
%ADD14C,0.100000*%
%TD*%
G04 APERTURE END LIST*
D10*
%TO.P,FFC2,MP*%
%TO.N,GND*%
X146915800Y-70694000D03*
X169415800Y-70694000D03*
D11*
%TO.P,FFC2,18*%
%TO.N,Net-(FFC1-Pad1)*%
X166665800Y-68244000D03*
%TO.P,FFC2,17*%
%TO.N,Net-(FFC1-Pad2)*%
X165665800Y-68244000D03*
%TO.P,FFC2,16*%
%TO.N,Net-(FFC1-Pad3)*%
X164665800Y-68244000D03*
%TO.P,FFC2,15*%
%TO.N,Net-(FFC1-Pad4)*%
X163665800Y-68244000D03*
%TO.P,FFC2,14*%
%TO.N,Net-(FFC1-Pad5)*%
X162665800Y-68244000D03*
%TO.P,FFC2,13*%
%TO.N,Net-(FFC1-Pad6)*%
X161665800Y-68244000D03*
%TO.P,FFC2,12*%
%TO.N,Net-(FFC1-Pad7)*%
X160665800Y-68244000D03*
%TO.P,FFC2,11*%
%TO.N,Net-(FFC1-Pad8)*%
X159665800Y-68244000D03*
%TO.P,FFC2,10*%
%TO.N,Net-(FFC1-Pad9)*%
X158665800Y-68244000D03*
%TO.P,FFC2,9*%
%TO.N,Net-(FFC1-Pad10)*%
X157665800Y-68244000D03*
%TO.P,FFC2,8*%
%TO.N,Net-(FFC1-Pad11)*%
X156665800Y-68244000D03*
%TO.P,FFC2,7*%
%TO.N,Net-(FFC1-Pad12)*%
X155665800Y-68244000D03*
%TO.P,FFC2,6*%
%TO.N,Net-(FFC1-Pad13)*%
X154665800Y-68244000D03*
%TO.P,FFC2,5*%
%TO.N,Net-(FFC1-Pad14)*%
X153665800Y-68244000D03*
%TO.P,FFC2,4*%
%TO.N,Net-(FFC1-Pad15)*%
X152665800Y-68244000D03*
%TO.P,FFC2,3*%
%TO.N,Net-(FFC1-Pad16)*%
X151665800Y-68244000D03*
%TO.P,FFC2,2*%
%TO.N,Net-(FFC1-Pad17)*%
X150665800Y-68244000D03*
%TO.P,FFC2,1*%
%TO.N,Net-(FFC1-Pad18)*%
X149665800Y-68244000D03*
%TD*%
D10*
%TO.P,FFC1,MP*%
%TO.N,GND*%
X169419000Y-60497000D03*
X146919000Y-60497000D03*
D11*
%TO.P,FFC1,18*%
%TO.N,Net-(FFC1-Pad18)*%
X149669000Y-62947000D03*
%TO.P,FFC1,17*%
%TO.N,Net-(FFC1-Pad17)*%
X150669000Y-62947000D03*
%TO.P,FFC1,16*%
%TO.N,Net-(FFC1-Pad16)*%
X151669000Y-62947000D03*
%TO.P,FFC1,15*%
%TO.N,Net-(FFC1-Pad15)*%
X152669000Y-62947000D03*
%TO.P,FFC1,14*%
%TO.N,Net-(FFC1-Pad14)*%
X153669000Y-62947000D03*
%TO.P,FFC1,13*%
%TO.N,Net-(FFC1-Pad13)*%
X154669000Y-62947000D03*
%TO.P,FFC1,12*%
%TO.N,Net-(FFC1-Pad12)*%
X155669000Y-62947000D03*
%TO.P,FFC1,11*%
%TO.N,Net-(FFC1-Pad11)*%
X156669000Y-62947000D03*
%TO.P,FFC1,10*%
%TO.N,Net-(FFC1-Pad10)*%
X157669000Y-62947000D03*
%TO.P,FFC1,9*%
%TO.N,Net-(FFC1-Pad9)*%
X158669000Y-62947000D03*
%TO.P,FFC1,8*%
%TO.N,Net-(FFC1-Pad8)*%
X159669000Y-62947000D03*
%TO.P,FFC1,7*%
%TO.N,Net-(FFC1-Pad7)*%
X160669000Y-62947000D03*
%TO.P,FFC1,6*%
%TO.N,Net-(FFC1-Pad6)*%
X161669000Y-62947000D03*
%TO.P,FFC1,5*%
%TO.N,Net-(FFC1-Pad5)*%
X162669000Y-62947000D03*
%TO.P,FFC1,4*%
%TO.N,Net-(FFC1-Pad4)*%
X163669000Y-62947000D03*
%TO.P,FFC1,3*%
%TO.N,Net-(FFC1-Pad3)*%
X164669000Y-62947000D03*
%TO.P,FFC1,2*%
%TO.N,Net-(FFC1-Pad2)*%
X165669000Y-62947000D03*
%TO.P,FFC1,1*%
%TO.N,Net-(FFC1-Pad1)*%
X166669000Y-62947000D03*
%TD*%
D12*
%TO.N,Net-(FFC1-Pad18)*%
X149669000Y-68240800D02*
X149665800Y-68244000D01*
X149669000Y-62947000D02*
X149669000Y-68240800D01*
%TO.N,Net-(FFC1-Pad17)*%
X150669000Y-68240800D02*
X150665800Y-68244000D01*
X150669000Y-62947000D02*
X150669000Y-68240800D01*
%TO.N,Net-(FFC1-Pad16)*%
X151669000Y-68240800D02*
X151665800Y-68244000D01*
X151669000Y-62947000D02*
X151669000Y-68240800D01*
%TO.N,Net-(FFC1-Pad15)*%
X152669000Y-68240800D02*
X152665800Y-68244000D01*
X152669000Y-62947000D02*
X152669000Y-68240800D01*
%TO.N,Net-(FFC1-Pad14)*%
X153669000Y-68240800D02*
X153665800Y-68244000D01*
X153669000Y-62947000D02*
X153669000Y-68240800D01*
%TO.N,Net-(FFC1-Pad13)*%
X154669000Y-68240800D02*
X154665800Y-68244000D01*
X154669000Y-62947000D02*
X154669000Y-68240800D01*
%TO.N,Net-(FFC1-Pad12)*%
X155669000Y-68240800D02*
X155665800Y-68244000D01*
X155669000Y-62947000D02*
X155669000Y-68240800D01*
%TO.N,Net-(FFC1-Pad11)*%
X156669000Y-68240800D02*
X156665800Y-68244000D01*
X156669000Y-62947000D02*
X156669000Y-68240800D01*
%TO.N,Net-(FFC1-Pad10)*%
X157669000Y-68240800D02*
X157665800Y-68244000D01*
X157669000Y-62947000D02*
X157669000Y-68240800D01*
%TO.N,Net-(FFC1-Pad9)*%
X158669000Y-68240800D02*
X158665800Y-68244000D01*
X158669000Y-62947000D02*
X158669000Y-68240800D01*
%TO.N,Net-(FFC1-Pad8)*%
X159669000Y-68240800D02*
X159665800Y-68244000D01*
X159669000Y-62947000D02*
X159669000Y-68240800D01*
%TO.N,Net-(FFC1-Pad7)*%
X160669000Y-68240800D02*
X160665800Y-68244000D01*
X160669000Y-62947000D02*
X160669000Y-68240800D01*
%TO.N,Net-(FFC1-Pad6)*%
X161669000Y-68240800D02*
X161665800Y-68244000D01*
X161669000Y-62947000D02*
X161669000Y-68240800D01*
%TO.N,Net-(FFC1-Pad5)*%
X162669000Y-68240800D02*
X162665800Y-68244000D01*
X162669000Y-62947000D02*
X162669000Y-68240800D01*
%TO.N,Net-(FFC1-Pad4)*%
X163669000Y-68240800D02*
X163665800Y-68244000D01*
X163669000Y-62947000D02*
X163669000Y-68240800D01*
%TO.N,Net-(FFC1-Pad3)*%
X164669000Y-68240800D02*
X164665800Y-68244000D01*
X164669000Y-62947000D02*
X164669000Y-68240800D01*
%TO.N,Net-(FFC1-Pad2)*%
X165669000Y-68240800D02*
X165665800Y-68244000D01*
X165669000Y-62947000D02*
X165669000Y-68240800D01*
%TO.N,Net-(FFC1-Pad1)*%
X166669000Y-68240800D02*
X166665800Y-68244000D01*
X166669000Y-62947000D02*
X166669000Y-68240800D01*
%TD*%
D13*
%TO.N,GND*%
X169319238Y-55083193D02*
X169712893Y-55202044D01*
X170075957Y-55395089D01*
X170394615Y-55654979D01*
X170656728Y-55971820D01*
X170852303Y-56333528D01*
X170973899Y-56726343D01*
X171019000Y-57155446D01*
X171019000Y-58843568D01*
X170987322Y-58784304D01*
X170939711Y-58726289D01*
X170881696Y-58678678D01*
X170815508Y-58643299D01*
X170743689Y-58621513D01*
X170669000Y-58614157D01*
X169641250Y-58616000D01*
X169546000Y-58711250D01*
X169546000Y-60370000D01*
X169566000Y-60370000D01*
X169566000Y-60624000D01*
X169546000Y-60624000D01*
X169546000Y-62282750D01*
X169641250Y-62378000D01*
X170669000Y-62379843D01*
X170743689Y-62372487D01*
X170815508Y-62350701D01*
X170881696Y-62315322D01*
X170939711Y-62267711D01*
X170987322Y-62209696D01*
X171019000Y-62150431D01*
X171019001Y-69046556D01*
X170984122Y-68981304D01*
X170936511Y-68923289D01*
X170878496Y-68875678D01*
X170812308Y-68840299D01*
X170740489Y-68818513D01*
X170665800Y-68811157D01*
X169638050Y-68813000D01*
X169542800Y-68908250D01*
X169542800Y-70567000D01*
X169562800Y-70567000D01*
X169562800Y-70821000D01*
X169542800Y-70821000D01*
X169542800Y-72479750D01*
X169638050Y-72575000D01*
X170665800Y-72576843D01*
X170740489Y-72569487D01*
X170812308Y-72547701D01*
X170878496Y-72512322D01*
X170936511Y-72464711D01*
X170984122Y-72406696D01*
X171019001Y-72341444D01*
X171019001Y-73638911D01*
X170976807Y-74069237D01*
X170857957Y-74462889D01*
X170664911Y-74825957D01*
X170405018Y-75144617D01*
X170088183Y-75406726D01*
X169726472Y-75602303D01*
X169333658Y-75723899D01*
X168904554Y-75769000D01*
X147341079Y-75769000D01*
X146910763Y-75726807D01*
X146517111Y-75607957D01*
X146154043Y-75414911D01*
X145835383Y-75155018D01*
X145573274Y-74838183D01*
X145377697Y-74476472D01*
X145256101Y-74083658D01*
X145211000Y-73654554D01*
X145211000Y-72194000D01*
X145282957Y-72194000D01*
X145290313Y-72268689D01*
X145312099Y-72340508D01*
X145347478Y-72406696D01*
X145395089Y-72464711D01*
X145453104Y-72512322D01*
X145519292Y-72547701D01*
X145591111Y-72569487D01*
X145665800Y-72576843D01*
X146693550Y-72575000D01*
X146788800Y-72479750D01*
X146788800Y-70821000D01*
X147042800Y-70821000D01*
X147042800Y-72479750D01*
X147138050Y-72575000D01*
X148165800Y-72576843D01*
X148240489Y-72569487D01*
X148312308Y-72547701D01*
X148378496Y-72512322D01*
X148436511Y-72464711D01*
X148484122Y-72406696D01*
X148519501Y-72340508D01*
X148541287Y-72268689D01*
X148548643Y-72194000D01*
X167782957Y-72194000D01*
X167790313Y-72268689D01*
X167812099Y-72340508D01*
X167847478Y-72406696D01*
X167895089Y-72464711D01*
X167953104Y-72512322D01*
X168019292Y-72547701D01*
X168091111Y-72569487D01*
X168165800Y-72576843D01*
X169193550Y-72575000D01*
X169288800Y-72479750D01*
X169288800Y-70821000D01*
X167880050Y-70821000D01*
X167784800Y-70916250D01*
X167782957Y-72194000D01*
X148548643Y-72194000D01*
X148546800Y-70916250D01*
X148451550Y-70821000D01*
X147042800Y-70821000D01*
X146788800Y-70821000D01*
X145380050Y-70821000D01*
X145284800Y-70916250D01*
X145282957Y-72194000D01*
X145211000Y-72194000D01*
X145211000Y-69194000D01*
X145282957Y-69194000D01*
X145284800Y-70471750D01*
X145380050Y-70567000D01*
X146788800Y-70567000D01*
X146788800Y-68908250D01*
X147042800Y-68908250D01*
X147042800Y-70567000D01*
X148451550Y-70567000D01*
X148546800Y-70471750D01*
X148548643Y-69194000D01*
X148541287Y-69119311D01*
X148519501Y-69047492D01*
X148484122Y-68981304D01*
X148436511Y-68923289D01*
X148378496Y-68875678D01*
X148312308Y-68840299D01*
X148240489Y-68818513D01*
X148165800Y-68811157D01*
X147138050Y-68813000D01*
X147042800Y-68908250D01*
X146788800Y-68908250D01*
X146693550Y-68813000D01*
X145665800Y-68811157D01*
X145591111Y-68818513D01*
X145519292Y-68840299D01*
X145453104Y-68875678D01*
X145395089Y-68923289D01*
X145347478Y-68981304D01*
X145312099Y-69047492D01*
X145290313Y-69119311D01*
X145282957Y-69194000D01*
X145211000Y-69194000D01*
X145211000Y-67244000D01*
X148982957Y-67244000D01*
X148982957Y-69244000D01*
X148990313Y-69318689D01*
X149012099Y-69390508D01*
X149047478Y-69456696D01*
X149095089Y-69514711D01*
X149153104Y-69562322D01*
X149219292Y-69597701D01*
X149291111Y-69619487D01*
X149365800Y-69626843D01*
X149965800Y-69626843D01*
X150040489Y-69619487D01*
X150112308Y-69597701D01*
X150165800Y-69569108D01*
X150219292Y-69597701D01*
X150291111Y-69619487D01*
X150365800Y-69626843D01*
X150965800Y-69626843D01*
X151040489Y-69619487D01*
X151112308Y-69597701D01*
X151165800Y-69569108D01*
X151219292Y-69597701D01*
X151291111Y-69619487D01*
X151365800Y-69626843D01*
X151965800Y-69626843D01*
X152040489Y-69619487D01*
X152112308Y-69597701D01*
X152165800Y-69569108D01*
X152219292Y-69597701D01*
X152291111Y-69619487D01*
X152365800Y-69626843D01*
X152965800Y-69626843D01*
X153040489Y-69619487D01*
X153112308Y-69597701D01*
X153165800Y-69569108D01*
X153219292Y-69597701D01*
X153291111Y-69619487D01*
X153365800Y-69626843D01*
X153965800Y-69626843D01*
X154040489Y-69619487D01*
X154112308Y-69597701D01*
X154165800Y-69569108D01*
X154219292Y-69597701D01*
X154291111Y-69619487D01*
X154365800Y-69626843D01*
X154965800Y-69626843D01*
X155040489Y-69619487D01*
X155112308Y-69597701D01*
X155165800Y-69569108D01*
X155219292Y-69597701D01*
X155291111Y-69619487D01*
X155365800Y-69626843D01*
X155965800Y-69626843D01*
X156040489Y-69619487D01*
X156112308Y-69597701D01*
X156165800Y-69569108D01*
X156219292Y-69597701D01*
X156291111Y-69619487D01*
X156365800Y-69626843D01*
X156965800Y-69626843D01*
X157040489Y-69619487D01*
X157112308Y-69597701D01*
X157165800Y-69569108D01*
X157219292Y-69597701D01*
X157291111Y-69619487D01*
X157365800Y-69626843D01*
X157965800Y-69626843D01*
X158040489Y-69619487D01*
X158112308Y-69597701D01*
X158165800Y-69569108D01*
X158219292Y-69597701D01*
X158291111Y-69619487D01*
X158365800Y-69626843D01*
X158965800Y-69626843D01*
X159040489Y-69619487D01*
X159112308Y-69597701D01*
X159165800Y-69569108D01*
X159219292Y-69597701D01*
X159291111Y-69619487D01*
X159365800Y-69626843D01*
X159965800Y-69626843D01*
X160040489Y-69619487D01*
X160112308Y-69597701D01*
X160165800Y-69569108D01*
X160219292Y-69597701D01*
X160291111Y-69619487D01*
X160365800Y-69626843D01*
X160965800Y-69626843D01*
X161040489Y-69619487D01*
X161112308Y-69597701D01*
X161165800Y-69569108D01*
X161219292Y-69597701D01*
X161291111Y-69619487D01*
X161365800Y-69626843D01*
X161965800Y-69626843D01*
X162040489Y-69619487D01*
X162112308Y-69597701D01*
X162165800Y-69569108D01*
X162219292Y-69597701D01*
X162291111Y-69619487D01*
X162365800Y-69626843D01*
X162965800Y-69626843D01*
X163040489Y-69619487D01*
X163112308Y-69597701D01*
X163165800Y-69569108D01*
X163219292Y-69597701D01*
X163291111Y-69619487D01*
X163365800Y-69626843D01*
X163965800Y-69626843D01*
X164040489Y-69619487D01*
X164112308Y-69597701D01*
X164165800Y-69569108D01*
X164219292Y-69597701D01*
X164291111Y-69619487D01*
X164365800Y-69626843D01*
X164965800Y-69626843D01*
X165040489Y-69619487D01*
X165112308Y-69597701D01*
X165165800Y-69569108D01*
X165219292Y-69597701D01*
X165291111Y-69619487D01*
X165365800Y-69626843D01*
X165965800Y-69626843D01*
X166040489Y-69619487D01*
X166112308Y-69597701D01*
X166165800Y-69569108D01*
X166219292Y-69597701D01*
X166291111Y-69619487D01*
X166365800Y-69626843D01*
X166965800Y-69626843D01*
X167040489Y-69619487D01*
X167112308Y-69597701D01*
X167178496Y-69562322D01*
X167236511Y-69514711D01*
X167284122Y-69456696D01*
X167319501Y-69390508D01*
X167341287Y-69318689D01*
X167348643Y-69244000D01*
X167348643Y-69194000D01*
X167782957Y-69194000D01*
X167784800Y-70471750D01*
X167880050Y-70567000D01*
X169288800Y-70567000D01*
X169288800Y-68908250D01*
X169193550Y-68813000D01*
X168165800Y-68811157D01*
X168091111Y-68818513D01*
X168019292Y-68840299D01*
X167953104Y-68875678D01*
X167895089Y-68923289D01*
X167847478Y-68981304D01*
X167812099Y-69047492D01*
X167790313Y-69119311D01*
X167782957Y-69194000D01*
X167348643Y-69194000D01*
X167348643Y-67244000D01*
X167341287Y-67169311D01*
X167319501Y-67097492D01*
X167300000Y-67061009D01*
X167300000Y-64135978D01*
X167322701Y-64093508D01*
X167344487Y-64021689D01*
X167351843Y-63947000D01*
X167351843Y-61997000D01*
X167786157Y-61997000D01*
X167793513Y-62071689D01*
X167815299Y-62143508D01*
X167850678Y-62209696D01*
X167898289Y-62267711D01*
X167956304Y-62315322D01*
X168022492Y-62350701D01*
X168094311Y-62372487D01*
X168169000Y-62379843D01*
X169196750Y-62378000D01*
X169292000Y-62282750D01*
X169292000Y-60624000D01*
X167883250Y-60624000D01*
X167788000Y-60719250D01*
X167786157Y-61997000D01*
X167351843Y-61997000D01*
X167351843Y-61947000D01*
X167344487Y-61872311D01*
X167322701Y-61800492D01*
X167287322Y-61734304D01*
X167239711Y-61676289D01*
X167181696Y-61628678D01*
X167115508Y-61593299D01*
X167043689Y-61571513D01*
X166969000Y-61564157D01*
X166369000Y-61564157D01*
X166294311Y-61571513D01*
X166222492Y-61593299D01*
X166169000Y-61621892D01*
X166115508Y-61593299D01*
X166043689Y-61571513D01*
X165969000Y-61564157D01*
X165369000Y-61564157D01*
X165294311Y-61571513D01*
X165222492Y-61593299D01*
X165169000Y-61621892D01*
X165115508Y-61593299D01*
X165043689Y-61571513D01*
X164969000Y-61564157D01*
X164369000Y-61564157D01*
X164294311Y-61571513D01*
X164222492Y-61593299D01*
X164169000Y-61621892D01*
X164115508Y-61593299D01*
X164043689Y-61571513D01*
X163969000Y-61564157D01*
X163369000Y-61564157D01*
X163294311Y-61571513D01*
X163222492Y-61593299D01*
X163169000Y-61621892D01*
X163115508Y-61593299D01*
X163043689Y-61571513D01*
X162969000Y-61564157D01*
X162369000Y-61564157D01*
X162294311Y-61571513D01*
X162222492Y-61593299D01*
X162169000Y-61621892D01*
X162115508Y-61593299D01*
X162043689Y-61571513D01*
X161969000Y-61564157D01*
X161369000Y-61564157D01*
X161294311Y-61571513D01*
X161222492Y-61593299D01*
X161169000Y-61621892D01*
X161115508Y-61593299D01*
X161043689Y-61571513D01*
X160969000Y-61564157D01*
X160369000Y-61564157D01*
X160294311Y-61571513D01*
X160222492Y-61593299D01*
X160169000Y-61621892D01*
X160115508Y-61593299D01*
X160043689Y-61571513D01*
X159969000Y-61564157D01*
X159369000Y-61564157D01*
X159294311Y-61571513D01*
X159222492Y-61593299D01*
X159169000Y-61621892D01*
X159115508Y-61593299D01*
X159043689Y-61571513D01*
X158969000Y-61564157D01*
X158369000Y-61564157D01*
X158294311Y-61571513D01*
X158222492Y-61593299D01*
X158169000Y-61621892D01*
X158115508Y-61593299D01*
X158043689Y-61571513D01*
X157969000Y-61564157D01*
X157369000Y-61564157D01*
X157294311Y-61571513D01*
X157222492Y-61593299D01*
X157169000Y-61621892D01*
X157115508Y-61593299D01*
X157043689Y-61571513D01*
X156969000Y-61564157D01*
X156369000Y-61564157D01*
X156294311Y-61571513D01*
X156222492Y-61593299D01*
X156169000Y-61621892D01*
X156115508Y-61593299D01*
X156043689Y-61571513D01*
X155969000Y-61564157D01*
X155369000Y-61564157D01*
X155294311Y-61571513D01*
X155222492Y-61593299D01*
X155169000Y-61621892D01*
X155115508Y-61593299D01*
X155043689Y-61571513D01*
X154969000Y-61564157D01*
X154369000Y-61564157D01*
X154294311Y-61571513D01*
X154222492Y-61593299D01*
X154169000Y-61621892D01*
X154115508Y-61593299D01*
X154043689Y-61571513D01*
X153969000Y-61564157D01*
X153369000Y-61564157D01*
X153294311Y-61571513D01*
X153222492Y-61593299D01*
X153169000Y-61621892D01*
X153115508Y-61593299D01*
X153043689Y-61571513D01*
X152969000Y-61564157D01*
X152369000Y-61564157D01*
X152294311Y-61571513D01*
X152222492Y-61593299D01*
X152169000Y-61621892D01*
X152115508Y-61593299D01*
X152043689Y-61571513D01*
X151969000Y-61564157D01*
X151369000Y-61564157D01*
X151294311Y-61571513D01*
X151222492Y-61593299D01*
X151169000Y-61621892D01*
X151115508Y-61593299D01*
X151043689Y-61571513D01*
X150969000Y-61564157D01*
X150369000Y-61564157D01*
X150294311Y-61571513D01*
X150222492Y-61593299D01*
X150169000Y-61621892D01*
X150115508Y-61593299D01*
X150043689Y-61571513D01*
X149969000Y-61564157D01*
X149369000Y-61564157D01*
X149294311Y-61571513D01*
X149222492Y-61593299D01*
X149156304Y-61628678D01*
X149098289Y-61676289D01*
X149050678Y-61734304D01*
X149015299Y-61800492D01*
X148993513Y-61872311D01*
X148986157Y-61947000D01*
X148986157Y-63947000D01*
X148993513Y-64021689D01*
X149015299Y-64093508D01*
X149038000Y-64135978D01*
X149038001Y-67049034D01*
X149012099Y-67097492D01*
X148990313Y-67169311D01*
X148982957Y-67244000D01*
X145211000Y-67244000D01*
X145211000Y-61997000D01*
X145286157Y-61997000D01*
X145293513Y-62071689D01*
X145315299Y-62143508D01*
X145350678Y-62209696D01*
X145398289Y-62267711D01*
X145456304Y-62315322D01*
X145522492Y-62350701D01*
X145594311Y-62372487D01*
X145669000Y-62379843D01*
X146696750Y-62378000D01*
X146792000Y-62282750D01*
X146792000Y-60624000D01*
X147046000Y-60624000D01*
X147046000Y-62282750D01*
X147141250Y-62378000D01*
X148169000Y-62379843D01*
X148243689Y-62372487D01*
X148315508Y-62350701D01*
X148381696Y-62315322D01*
X148439711Y-62267711D01*
X148487322Y-62209696D01*
X148522701Y-62143508D01*
X148544487Y-62071689D01*
X148551843Y-61997000D01*
X148550000Y-60719250D01*
X148454750Y-60624000D01*
X147046000Y-60624000D01*
X146792000Y-60624000D01*
X145383250Y-60624000D01*
X145288000Y-60719250D01*
X145286157Y-61997000D01*
X145211000Y-61997000D01*
X145211000Y-58997000D01*
X145286157Y-58997000D01*
X145288000Y-60274750D01*
X145383250Y-60370000D01*
X146792000Y-60370000D01*
X146792000Y-58711250D01*
X147046000Y-58711250D01*
X147046000Y-60370000D01*
X148454750Y-60370000D01*
X148550000Y-60274750D01*
X148551843Y-58997000D01*
X167786157Y-58997000D01*
X167788000Y-60274750D01*
X167883250Y-60370000D01*
X169292000Y-60370000D01*
X169292000Y-58711250D01*
X169196750Y-58616000D01*
X168169000Y-58614157D01*
X168094311Y-58621513D01*
X168022492Y-58643299D01*
X167956304Y-58678678D01*
X167898289Y-58726289D01*
X167850678Y-58784304D01*
X167815299Y-58850492D01*
X167793513Y-58922311D01*
X167786157Y-58997000D01*
X148551843Y-58997000D01*
X148544487Y-58922311D01*
X148522701Y-58850492D01*
X148487322Y-58784304D01*
X148439711Y-58726289D01*
X148381696Y-58678678D01*
X148315508Y-58643299D01*
X148243689Y-58621513D01*
X148169000Y-58614157D01*
X147141250Y-58616000D01*
X147046000Y-58711250D01*
X146792000Y-58711250D01*
X146696750Y-58616000D01*
X145669000Y-58614157D01*
X145594311Y-58621513D01*
X145522492Y-58643299D01*
X145456304Y-58678678D01*
X145398289Y-58726289D01*
X145350678Y-58784304D01*
X145315299Y-58850492D01*
X145293513Y-58922311D01*
X145286157Y-58997000D01*
X145211000Y-58997000D01*
X145211000Y-57171079D01*
X145253193Y-56740762D01*
X145372044Y-56347107D01*
X145565089Y-55984043D01*
X145824979Y-55665385D01*
X146141820Y-55403272D01*
X146503528Y-55207697D01*
X146896343Y-55086101D01*
X147325446Y-55041000D01*
X168888921Y-55041000D01*
X169319238Y-55083193D01*
%TA.AperFunction,Conductor*%
D14*
G36*
X169319238Y-55083193D02*
G01*
X169712893Y-55202044D01*
X170075957Y-55395089D01*
X170394615Y-55654979D01*
X170656728Y-55971820D01*
X170852303Y-56333528D01*
X170973899Y-56726343D01*
X171019000Y-57155446D01*
X171019000Y-58843568D01*
X170987322Y-58784304D01*
X170939711Y-58726289D01*
X170881696Y-58678678D01*
X170815508Y-58643299D01*
X170743689Y-58621513D01*
X170669000Y-58614157D01*
X169641250Y-58616000D01*
X169546000Y-58711250D01*
X169546000Y-60370000D01*
X169566000Y-60370000D01*
X169566000Y-60624000D01*
X169546000Y-60624000D01*
X169546000Y-62282750D01*
X169641250Y-62378000D01*
X170669000Y-62379843D01*
X170743689Y-62372487D01*
X170815508Y-62350701D01*
X170881696Y-62315322D01*
X170939711Y-62267711D01*
X170987322Y-62209696D01*
X171019000Y-62150431D01*
X171019001Y-69046556D01*
X170984122Y-68981304D01*
X170936511Y-68923289D01*
X170878496Y-68875678D01*
X170812308Y-68840299D01*
X170740489Y-68818513D01*
X170665800Y-68811157D01*
X169638050Y-68813000D01*
X169542800Y-68908250D01*
X169542800Y-70567000D01*
X169562800Y-70567000D01*
X169562800Y-70821000D01*
X169542800Y-70821000D01*
X169542800Y-72479750D01*
X169638050Y-72575000D01*
X170665800Y-72576843D01*
X170740489Y-72569487D01*
X170812308Y-72547701D01*
X170878496Y-72512322D01*
X170936511Y-72464711D01*
X170984122Y-72406696D01*
X171019001Y-72341444D01*
X171019001Y-73638911D01*
X170976807Y-74069237D01*
X170857957Y-74462889D01*
X170664911Y-74825957D01*
X170405018Y-75144617D01*
X170088183Y-75406726D01*
X169726472Y-75602303D01*
X169333658Y-75723899D01*
X168904554Y-75769000D01*
X147341079Y-75769000D01*
X146910763Y-75726807D01*
X146517111Y-75607957D01*
X146154043Y-75414911D01*
X145835383Y-75155018D01*
X145573274Y-74838183D01*
X145377697Y-74476472D01*
X145256101Y-74083658D01*
X145211000Y-73654554D01*
X145211000Y-72194000D01*
X145282957Y-72194000D01*
X145290313Y-72268689D01*
X145312099Y-72340508D01*
X145347478Y-72406696D01*
X145395089Y-72464711D01*
X145453104Y-72512322D01*
X145519292Y-72547701D01*
X145591111Y-72569487D01*
X145665800Y-72576843D01*
X146693550Y-72575000D01*
X146788800Y-72479750D01*
X146788800Y-70821000D01*
X147042800Y-70821000D01*
X147042800Y-72479750D01*
X147138050Y-72575000D01*
X148165800Y-72576843D01*
X148240489Y-72569487D01*
X148312308Y-72547701D01*
X148378496Y-72512322D01*
X148436511Y-72464711D01*
X148484122Y-72406696D01*
X148519501Y-72340508D01*
X148541287Y-72268689D01*
X148548643Y-72194000D01*
X167782957Y-72194000D01*
X167790313Y-72268689D01*
X167812099Y-72340508D01*
X167847478Y-72406696D01*
X167895089Y-72464711D01*
X167953104Y-72512322D01*
X168019292Y-72547701D01*
X168091111Y-72569487D01*
X168165800Y-72576843D01*
X169193550Y-72575000D01*
X169288800Y-72479750D01*
X169288800Y-70821000D01*
X167880050Y-70821000D01*
X167784800Y-70916250D01*
X167782957Y-72194000D01*
X148548643Y-72194000D01*
X148546800Y-70916250D01*
X148451550Y-70821000D01*
X147042800Y-70821000D01*
X146788800Y-70821000D01*
X145380050Y-70821000D01*
X145284800Y-70916250D01*
X145282957Y-72194000D01*
X145211000Y-72194000D01*
X145211000Y-69194000D01*
X145282957Y-69194000D01*
X145284800Y-70471750D01*
X145380050Y-70567000D01*
X146788800Y-70567000D01*
X146788800Y-68908250D01*
X147042800Y-68908250D01*
X147042800Y-70567000D01*
X148451550Y-70567000D01*
X148546800Y-70471750D01*
X148548643Y-69194000D01*
X148541287Y-69119311D01*
X148519501Y-69047492D01*
X148484122Y-68981304D01*
X148436511Y-68923289D01*
X148378496Y-68875678D01*
X148312308Y-68840299D01*
X148240489Y-68818513D01*
X148165800Y-68811157D01*
X147138050Y-68813000D01*
X147042800Y-68908250D01*
X146788800Y-68908250D01*
X146693550Y-68813000D01*
X145665800Y-68811157D01*
X145591111Y-68818513D01*
X145519292Y-68840299D01*
X145453104Y-68875678D01*
X145395089Y-68923289D01*
X145347478Y-68981304D01*
X145312099Y-69047492D01*
X145290313Y-69119311D01*
X145282957Y-69194000D01*
X145211000Y-69194000D01*
X145211000Y-67244000D01*
X148982957Y-67244000D01*
X148982957Y-69244000D01*
X148990313Y-69318689D01*
X149012099Y-69390508D01*
X149047478Y-69456696D01*
X149095089Y-69514711D01*
X149153104Y-69562322D01*
X149219292Y-69597701D01*
X149291111Y-69619487D01*
X149365800Y-69626843D01*
X149965800Y-69626843D01*
X150040489Y-69619487D01*
X150112308Y-69597701D01*
X150165800Y-69569108D01*
X150219292Y-69597701D01*
X150291111Y-69619487D01*
X150365800Y-69626843D01*
X150965800Y-69626843D01*
X151040489Y-69619487D01*
X151112308Y-69597701D01*
X151165800Y-69569108D01*
X151219292Y-69597701D01*
X151291111Y-69619487D01*
X151365800Y-69626843D01*
X151965800Y-69626843D01*
X152040489Y-69619487D01*
X152112308Y-69597701D01*
X152165800Y-69569108D01*
X152219292Y-69597701D01*
X152291111Y-69619487D01*
X152365800Y-69626843D01*
X152965800Y-69626843D01*
X153040489Y-69619487D01*
X153112308Y-69597701D01*
X153165800Y-69569108D01*
X153219292Y-69597701D01*
X153291111Y-69619487D01*
X153365800Y-69626843D01*
X153965800Y-69626843D01*
X154040489Y-69619487D01*
X154112308Y-69597701D01*
X154165800Y-69569108D01*
X154219292Y-69597701D01*
X154291111Y-69619487D01*
X154365800Y-69626843D01*
X154965800Y-69626843D01*
X155040489Y-69619487D01*
X155112308Y-69597701D01*
X155165800Y-69569108D01*
X155219292Y-69597701D01*
X155291111Y-69619487D01*
X155365800Y-69626843D01*
X155965800Y-69626843D01*
X156040489Y-69619487D01*
X156112308Y-69597701D01*
X156165800Y-69569108D01*
X156219292Y-69597701D01*
X156291111Y-69619487D01*
X156365800Y-69626843D01*
X156965800Y-69626843D01*
X157040489Y-69619487D01*
X157112308Y-69597701D01*
X157165800Y-69569108D01*
X157219292Y-69597701D01*
X157291111Y-69619487D01*
X157365800Y-69626843D01*
X157965800Y-69626843D01*
X158040489Y-69619487D01*
X158112308Y-69597701D01*
X158165800Y-69569108D01*
X158219292Y-69597701D01*
X158291111Y-69619487D01*
X158365800Y-69626843D01*
X158965800Y-69626843D01*
X159040489Y-69619487D01*
X159112308Y-69597701D01*
X159165800Y-69569108D01*
X159219292Y-69597701D01*
X159291111Y-69619487D01*
X159365800Y-69626843D01*
X159965800Y-69626843D01*
X160040489Y-69619487D01*
X160112308Y-69597701D01*
X160165800Y-69569108D01*
X160219292Y-69597701D01*
X160291111Y-69619487D01*
X160365800Y-69626843D01*
X160965800Y-69626843D01*
X161040489Y-69619487D01*
X161112308Y-69597701D01*
X161165800Y-69569108D01*
X161219292Y-69597701D01*
X161291111Y-69619487D01*
X161365800Y-69626843D01*
X161965800Y-69626843D01*
X162040489Y-69619487D01*
X162112308Y-69597701D01*
X162165800Y-69569108D01*
X162219292Y-69597701D01*
X162291111Y-69619487D01*
X162365800Y-69626843D01*
X162965800Y-69626843D01*
X163040489Y-69619487D01*
X163112308Y-69597701D01*
X163165800Y-69569108D01*
X163219292Y-69597701D01*
X163291111Y-69619487D01*
X163365800Y-69626843D01*
X163965800Y-69626843D01*
X164040489Y-69619487D01*
X164112308Y-69597701D01*
X164165800Y-69569108D01*
X164219292Y-69597701D01*
X164291111Y-69619487D01*
X164365800Y-69626843D01*
X164965800Y-69626843D01*
X165040489Y-69619487D01*
X165112308Y-69597701D01*
X165165800Y-69569108D01*
X165219292Y-69597701D01*
X165291111Y-69619487D01*
X165365800Y-69626843D01*
X165965800Y-69626843D01*
X166040489Y-69619487D01*
X166112308Y-69597701D01*
X166165800Y-69569108D01*
X166219292Y-69597701D01*
X166291111Y-69619487D01*
X166365800Y-69626843D01*
X166965800Y-69626843D01*
X167040489Y-69619487D01*
X167112308Y-69597701D01*
X167178496Y-69562322D01*
X167236511Y-69514711D01*
X167284122Y-69456696D01*
X167319501Y-69390508D01*
X167341287Y-69318689D01*
X167348643Y-69244000D01*
X167348643Y-69194000D01*
X167782957Y-69194000D01*
X167784800Y-70471750D01*
X167880050Y-70567000D01*
X169288800Y-70567000D01*
X169288800Y-68908250D01*
X169193550Y-68813000D01*
X168165800Y-68811157D01*
X168091111Y-68818513D01*
X168019292Y-68840299D01*
X167953104Y-68875678D01*
X167895089Y-68923289D01*
X167847478Y-68981304D01*
X167812099Y-69047492D01*
X167790313Y-69119311D01*
X167782957Y-69194000D01*
X167348643Y-69194000D01*
X167348643Y-67244000D01*
X167341287Y-67169311D01*
X167319501Y-67097492D01*
X167300000Y-67061009D01*
X167300000Y-64135978D01*
X167322701Y-64093508D01*
X167344487Y-64021689D01*
X167351843Y-63947000D01*
X167351843Y-61997000D01*
X167786157Y-61997000D01*
X167793513Y-62071689D01*
X167815299Y-62143508D01*
X167850678Y-62209696D01*
X167898289Y-62267711D01*
X167956304Y-62315322D01*
X168022492Y-62350701D01*
X168094311Y-62372487D01*
X168169000Y-62379843D01*
X169196750Y-62378000D01*
X169292000Y-62282750D01*
X169292000Y-60624000D01*
X167883250Y-60624000D01*
X167788000Y-60719250D01*
X167786157Y-61997000D01*
X167351843Y-61997000D01*
X167351843Y-61947000D01*
X167344487Y-61872311D01*
X167322701Y-61800492D01*
X167287322Y-61734304D01*
X167239711Y-61676289D01*
X167181696Y-61628678D01*
X167115508Y-61593299D01*
X167043689Y-61571513D01*
X166969000Y-61564157D01*
X166369000Y-61564157D01*
X166294311Y-61571513D01*
X166222492Y-61593299D01*
X166169000Y-61621892D01*
X166115508Y-61593299D01*
X166043689Y-61571513D01*
X165969000Y-61564157D01*
X165369000Y-61564157D01*
X165294311Y-61571513D01*
X165222492Y-61593299D01*
X165169000Y-61621892D01*
X165115508Y-61593299D01*
X165043689Y-61571513D01*
X164969000Y-61564157D01*
X164369000Y-61564157D01*
X164294311Y-61571513D01*
X164222492Y-61593299D01*
X164169000Y-61621892D01*
X164115508Y-61593299D01*
X164043689Y-61571513D01*
X163969000Y-61564157D01*
X163369000Y-61564157D01*
X163294311Y-61571513D01*
X163222492Y-61593299D01*
X163169000Y-61621892D01*
X163115508Y-61593299D01*
X163043689Y-61571513D01*
X162969000Y-61564157D01*
X162369000Y-61564157D01*
X162294311Y-61571513D01*
X162222492Y-61593299D01*
X162169000Y-61621892D01*
X162115508Y-61593299D01*
X162043689Y-61571513D01*
X161969000Y-61564157D01*
X161369000Y-61564157D01*
X161294311Y-61571513D01*
X161222492Y-61593299D01*
X161169000Y-61621892D01*
X161115508Y-61593299D01*
X161043689Y-61571513D01*
X160969000Y-61564157D01*
X160369000Y-61564157D01*
X160294311Y-61571513D01*
X160222492Y-61593299D01*
X160169000Y-61621892D01*
X160115508Y-61593299D01*
X160043689Y-61571513D01*
X159969000Y-61564157D01*
X159369000Y-61564157D01*
X159294311Y-61571513D01*
X159222492Y-61593299D01*
X159169000Y-61621892D01*
X159115508Y-61593299D01*
X159043689Y-61571513D01*
X158969000Y-61564157D01*
X158369000Y-61564157D01*
X158294311Y-61571513D01*
X158222492Y-61593299D01*
X158169000Y-61621892D01*
X158115508Y-61593299D01*
X158043689Y-61571513D01*
X157969000Y-61564157D01*
X157369000Y-61564157D01*
X157294311Y-61571513D01*
X157222492Y-61593299D01*
X157169000Y-61621892D01*
X157115508Y-61593299D01*
X157043689Y-61571513D01*
X156969000Y-61564157D01*
X156369000Y-61564157D01*
X156294311Y-61571513D01*
X156222492Y-61593299D01*
X156169000Y-61621892D01*
X156115508Y-61593299D01*
X156043689Y-61571513D01*
X155969000Y-61564157D01*
X155369000Y-61564157D01*
X155294311Y-61571513D01*
X155222492Y-61593299D01*
X155169000Y-61621892D01*
X155115508Y-61593299D01*
X155043689Y-61571513D01*
X154969000Y-61564157D01*
X154369000Y-61564157D01*
X154294311Y-61571513D01*
X154222492Y-61593299D01*
X154169000Y-61621892D01*
X154115508Y-61593299D01*
X154043689Y-61571513D01*
X153969000Y-61564157D01*
X153369000Y-61564157D01*
X153294311Y-61571513D01*
X153222492Y-61593299D01*
X153169000Y-61621892D01*
X153115508Y-61593299D01*
X153043689Y-61571513D01*
X152969000Y-61564157D01*
X152369000Y-61564157D01*
X152294311Y-61571513D01*
X152222492Y-61593299D01*
X152169000Y-61621892D01*
X152115508Y-61593299D01*
X152043689Y-61571513D01*
X151969000Y-61564157D01*
X151369000Y-61564157D01*
X151294311Y-61571513D01*
X151222492Y-61593299D01*
X151169000Y-61621892D01*
X151115508Y-61593299D01*
X151043689Y-61571513D01*
X150969000Y-61564157D01*
X150369000Y-61564157D01*
X150294311Y-61571513D01*
X150222492Y-61593299D01*
X150169000Y-61621892D01*
X150115508Y-61593299D01*
X150043689Y-61571513D01*
X149969000Y-61564157D01*
X149369000Y-61564157D01*
X149294311Y-61571513D01*
X149222492Y-61593299D01*
X149156304Y-61628678D01*
X149098289Y-61676289D01*
X149050678Y-61734304D01*
X149015299Y-61800492D01*
X148993513Y-61872311D01*
X148986157Y-61947000D01*
X148986157Y-63947000D01*
X148993513Y-64021689D01*
X149015299Y-64093508D01*
X149038000Y-64135978D01*
X149038001Y-67049034D01*
X149012099Y-67097492D01*
X148990313Y-67169311D01*
X148982957Y-67244000D01*
X145211000Y-67244000D01*
X145211000Y-61997000D01*
X145286157Y-61997000D01*
X145293513Y-62071689D01*
X145315299Y-62143508D01*
X145350678Y-62209696D01*
X145398289Y-62267711D01*
X145456304Y-62315322D01*
X145522492Y-62350701D01*
X145594311Y-62372487D01*
X145669000Y-62379843D01*
X146696750Y-62378000D01*
X146792000Y-62282750D01*
X146792000Y-60624000D01*
X147046000Y-60624000D01*
X147046000Y-62282750D01*
X147141250Y-62378000D01*
X148169000Y-62379843D01*
X148243689Y-62372487D01*
X148315508Y-62350701D01*
X148381696Y-62315322D01*
X148439711Y-62267711D01*
X148487322Y-62209696D01*
X148522701Y-62143508D01*
X148544487Y-62071689D01*
X148551843Y-61997000D01*
X148550000Y-60719250D01*
X148454750Y-60624000D01*
X147046000Y-60624000D01*
X146792000Y-60624000D01*
X145383250Y-60624000D01*
X145288000Y-60719250D01*
X145286157Y-61997000D01*
X145211000Y-61997000D01*
X145211000Y-58997000D01*
X145286157Y-58997000D01*
X145288000Y-60274750D01*
X145383250Y-60370000D01*
X146792000Y-60370000D01*
X146792000Y-58711250D01*
X147046000Y-58711250D01*
X147046000Y-60370000D01*
X148454750Y-60370000D01*
X148550000Y-60274750D01*
X148551843Y-58997000D01*
X167786157Y-58997000D01*
X167788000Y-60274750D01*
X167883250Y-60370000D01*
X169292000Y-60370000D01*
X169292000Y-58711250D01*
X169196750Y-58616000D01*
X168169000Y-58614157D01*
X168094311Y-58621513D01*
X168022492Y-58643299D01*
X167956304Y-58678678D01*
X167898289Y-58726289D01*
X167850678Y-58784304D01*
X167815299Y-58850492D01*
X167793513Y-58922311D01*
X167786157Y-58997000D01*
X148551843Y-58997000D01*
X148544487Y-58922311D01*
X148522701Y-58850492D01*
X148487322Y-58784304D01*
X148439711Y-58726289D01*
X148381696Y-58678678D01*
X148315508Y-58643299D01*
X148243689Y-58621513D01*
X148169000Y-58614157D01*
X147141250Y-58616000D01*
X147046000Y-58711250D01*
X146792000Y-58711250D01*
X146696750Y-58616000D01*
X145669000Y-58614157D01*
X145594311Y-58621513D01*
X145522492Y-58643299D01*
X145456304Y-58678678D01*
X145398289Y-58726289D01*
X145350678Y-58784304D01*
X145315299Y-58850492D01*
X145293513Y-58922311D01*
X145286157Y-58997000D01*
X145211000Y-58997000D01*
X145211000Y-57171079D01*
X145253193Y-56740762D01*
X145372044Y-56347107D01*
X145565089Y-55984043D01*
X145824979Y-55665385D01*
X146141820Y-55403272D01*
X146503528Y-55207697D01*
X146896343Y-55086101D01*
X147325446Y-55041000D01*
X168888921Y-55041000D01*
X169319238Y-55083193D01*
G37*
%TD.AperFunction*%
%TD*%
M02*
