  0
SECTION
  2
HEADER
  9
$ANGBASE
  50
0.0
  9
$ANGDIR
  70
1
  9
$MEASUREMENT
  70
1
  0
ENDSEC
  0
SECTION
  2
TABLES
  0
TABLE
  2
LTYPE
  70
4
  0
LTYPE
  5
40F
  2
CONTINUOUS
  70
0
  3
Solid line
  72
65
  73
0
  40
0.0
  0
LTYPE
  5
410
  2
DASHDOT
 70
0
  3
Dash Dot ____ _ ____ _
 72
65
 73
4
 40
2.0
 49
1.25
 49
-0.25
 49
0.25
 49
-0.25
  0
LTYPE
  5
411
  2
DASHED
 70
0
  3
Dashed __ __ __ __ __
 72
65
 73
2
 40
0.75
 49
0.5
 49
-0.25
  0
LTYPE
  5
43B
  2
DOTTED
 70
0
  3
Dotted .  .  .  .
 72
65
 73
2
 40
0.2
 49
0.0
 49
-0.2
  0
ENDTAB
  0
TABLE
  2
STYLE
  70
4
  0
STYLE
  2
KICAD
  70
0
  40
0
  41
1
  42
1
  50
0
  71
0
  3
isocp.shx
  0
STYLE
  2
KICADB
  70
0
  40
0
  41
1
  42
1
  50
0
  71
0
  3
isocp.shx
  0
STYLE
  2
KICADI
  70
0
  40
0
  41
1
  42
1
  50
15
  71
0
  3
isocp.shx
  0
STYLE
  2
KICADBI
  70
0
  40
0
  41
1
  42
1
  50
15
  71
0
  3
isocp.shx
  0
ENDTAB
  0
TABLE
  2
LAYER
  70
1
  0
LAYER
  2
BLACK
  70
0
  62
7
  6
CONTINUOUS
  0
ENDTAB
  0
ENDSEC
  0
SECTION
  2
ENTITIES
0
LINE
8
BLACK
6
CONTINUOUS
10
170.666
20
-72.194
11
168.166
21
-72.194
0
LINE
8
BLACK
6
CONTINUOUS
10
168.166
20
-72.194
11
168.166
21
-69.194
0
LINE
8
BLACK
6
CONTINUOUS
10
168.166
20
-69.194
11
170.666
21
-69.194
0
LINE
8
BLACK
6
CONTINUOUS
10
170.666
20
-69.194
11
170.666
21
-72.194
0
LINE
8
BLACK
6
CONTINUOUS
10
148.166
20
-72.194
11
145.666
21
-72.194
0
LINE
8
BLACK
6
CONTINUOUS
10
145.666
20
-72.194
11
145.666
21
-69.194
0
LINE
8
BLACK
6
CONTINUOUS
10
145.666
20
-69.194
11
148.166
21
-69.194
0
LINE
8
BLACK
6
CONTINUOUS
10
148.166
20
-69.194
11
148.166
21
-72.194
0
LINE
8
BLACK
6
CONTINUOUS
10
153.966
20
-69.244
11
153.366
21
-69.244
0
LINE
8
BLACK
6
CONTINUOUS
10
153.366
20
-69.244
11
153.366
21
-67.244
0
LINE
8
BLACK
6
CONTINUOUS
10
153.366
20
-67.244
11
153.966
21
-67.244
0
LINE
8
BLACK
6
CONTINUOUS
10
153.966
20
-67.244
11
153.966
21
-69.244
0
LINE
8
BLACK
6
CONTINUOUS
10
149.966
20
-69.244
11
149.366
21
-69.244
0
LINE
8
BLACK
6
CONTINUOUS
10
149.366
20
-69.244
11
149.366
21
-67.244
0
LINE
8
BLACK
6
CONTINUOUS
10
149.366
20
-67.244
11
149.966
21
-67.244
0
LINE
8
BLACK
6
CONTINUOUS
10
149.966
20
-67.244
11
149.966
21
-69.244
0
LINE
8
BLACK
6
CONTINUOUS
10
150.966
20
-69.244
11
150.366
21
-69.244
0
LINE
8
BLACK
6
CONTINUOUS
10
150.366
20
-69.244
11
150.366
21
-67.244
0
LINE
8
BLACK
6
CONTINUOUS
10
150.366
20
-67.244
11
150.966
21
-67.244
0
LINE
8
BLACK
6
CONTINUOUS
10
150.966
20
-67.244
11
150.966
21
-69.244
0
LINE
8
BLACK
6
CONTINUOUS
10
151.966
20
-69.244
11
151.366
21
-69.244
0
LINE
8
BLACK
6
CONTINUOUS
10
151.366
20
-69.244
11
151.366
21
-67.244
0
LINE
8
BLACK
6
CONTINUOUS
10
151.366
20
-67.244
11
151.966
21
-67.244
0
LINE
8
BLACK
6
CONTINUOUS
10
151.966
20
-67.244
11
151.966
21
-69.244
0
LINE
8
BLACK
6
CONTINUOUS
10
152.966
20
-69.244
11
152.366
21
-69.244
0
LINE
8
BLACK
6
CONTINUOUS
10
152.366
20
-69.244
11
152.366
21
-67.244
0
LINE
8
BLACK
6
CONTINUOUS
10
152.366
20
-67.244
11
152.966
21
-67.244
0
LINE
8
BLACK
6
CONTINUOUS
10
152.966
20
-67.244
11
152.966
21
-69.244
0
LINE
8
BLACK
6
CONTINUOUS
10
154.966
20
-69.244
11
154.366
21
-69.244
0
LINE
8
BLACK
6
CONTINUOUS
10
154.366
20
-69.244
11
154.366
21
-67.244
0
LINE
8
BLACK
6
CONTINUOUS
10
154.366
20
-67.244
11
154.966
21
-67.244
0
LINE
8
BLACK
6
CONTINUOUS
10
154.966
20
-67.244
11
154.966
21
-69.244
0
LINE
8
BLACK
6
CONTINUOUS
10
155.966
20
-69.244
11
155.366
21
-69.244
0
LINE
8
BLACK
6
CONTINUOUS
10
155.366
20
-69.244
11
155.366
21
-67.244
0
LINE
8
BLACK
6
CONTINUOUS
10
155.366
20
-67.244
11
155.966
21
-67.244
0
LINE
8
BLACK
6
CONTINUOUS
10
155.966
20
-67.244
11
155.966
21
-69.244
0
LINE
8
BLACK
6
CONTINUOUS
10
156.966
20
-69.244
11
156.366
21
-69.244
0
LINE
8
BLACK
6
CONTINUOUS
10
156.366
20
-69.244
11
156.366
21
-67.244
0
LINE
8
BLACK
6
CONTINUOUS
10
156.366
20
-67.244
11
156.966
21
-67.244
0
LINE
8
BLACK
6
CONTINUOUS
10
156.966
20
-67.244
11
156.966
21
-69.244
0
LINE
8
BLACK
6
CONTINUOUS
10
157.966
20
-69.244
11
157.366
21
-69.244
0
LINE
8
BLACK
6
CONTINUOUS
10
157.366
20
-69.244
11
157.366
21
-67.244
0
LINE
8
BLACK
6
CONTINUOUS
10
157.366
20
-67.244
11
157.966
21
-67.244
0
LINE
8
BLACK
6
CONTINUOUS
10
157.966
20
-67.244
11
157.966
21
-69.244
0
LINE
8
BLACK
6
CONTINUOUS
10
159.966
20
-69.244
11
159.366
21
-69.244
0
LINE
8
BLACK
6
CONTINUOUS
10
159.366
20
-69.244
11
159.366
21
-67.244
0
LINE
8
BLACK
6
CONTINUOUS
10
159.366
20
-67.244
11
159.966
21
-67.244
0
LINE
8
BLACK
6
CONTINUOUS
10
159.966
20
-67.244
11
159.966
21
-69.244
0
LINE
8
BLACK
6
CONTINUOUS
10
166.966
20
-69.244
11
166.366
21
-69.244
0
LINE
8
BLACK
6
CONTINUOUS
10
166.366
20
-69.244
11
166.366
21
-67.244
0
LINE
8
BLACK
6
CONTINUOUS
10
166.366
20
-67.244
11
166.966
21
-67.244
0
LINE
8
BLACK
6
CONTINUOUS
10
166.966
20
-67.244
11
166.966
21
-69.244
0
LINE
8
BLACK
6
CONTINUOUS
10
165.966
20
-69.244
11
165.366
21
-69.244
0
LINE
8
BLACK
6
CONTINUOUS
10
165.366
20
-69.244
11
165.366
21
-67.244
0
LINE
8
BLACK
6
CONTINUOUS
10
165.366
20
-67.244
11
165.966
21
-67.244
0
LINE
8
BLACK
6
CONTINUOUS
10
165.966
20
-67.244
11
165.966
21
-69.244
0
LINE
8
BLACK
6
CONTINUOUS
10
164.966
20
-69.244
11
164.366
21
-69.244
0
LINE
8
BLACK
6
CONTINUOUS
10
164.366
20
-69.244
11
164.366
21
-67.244
0
LINE
8
BLACK
6
CONTINUOUS
10
164.366
20
-67.244
11
164.966
21
-67.244
0
LINE
8
BLACK
6
CONTINUOUS
10
164.966
20
-67.244
11
164.966
21
-69.244
0
LINE
8
BLACK
6
CONTINUOUS
10
163.966
20
-69.244
11
163.366
21
-69.244
0
LINE
8
BLACK
6
CONTINUOUS
10
163.366
20
-69.244
11
163.366
21
-67.244
0
LINE
8
BLACK
6
CONTINUOUS
10
163.366
20
-67.244
11
163.966
21
-67.244
0
LINE
8
BLACK
6
CONTINUOUS
10
163.966
20
-67.244
11
163.966
21
-69.244
0
LINE
8
BLACK
6
CONTINUOUS
10
162.966
20
-69.244
11
162.366
21
-69.244
0
LINE
8
BLACK
6
CONTINUOUS
10
162.366
20
-69.244
11
162.366
21
-67.244
0
LINE
8
BLACK
6
CONTINUOUS
10
162.366
20
-67.244
11
162.966
21
-67.244
0
LINE
8
BLACK
6
CONTINUOUS
10
162.966
20
-67.244
11
162.966
21
-69.244
0
LINE
8
BLACK
6
CONTINUOUS
10
161.966
20
-69.244
11
161.366
21
-69.244
0
LINE
8
BLACK
6
CONTINUOUS
10
161.366
20
-69.244
11
161.366
21
-67.244
0
LINE
8
BLACK
6
CONTINUOUS
10
161.366
20
-67.244
11
161.966
21
-67.244
0
LINE
8
BLACK
6
CONTINUOUS
10
161.966
20
-67.244
11
161.966
21
-69.244
0
LINE
8
BLACK
6
CONTINUOUS
10
160.966
20
-69.244
11
160.366
21
-69.244
0
LINE
8
BLACK
6
CONTINUOUS
10
160.366
20
-69.244
11
160.366
21
-67.244
0
LINE
8
BLACK
6
CONTINUOUS
10
160.366
20
-67.244
11
160.966
21
-67.244
0
LINE
8
BLACK
6
CONTINUOUS
10
160.966
20
-67.244
11
160.966
21
-69.244
0
LINE
8
BLACK
6
CONTINUOUS
10
158.966
20
-69.244
11
158.366
21
-69.244
0
LINE
8
BLACK
6
CONTINUOUS
10
158.366
20
-69.244
11
158.366
21
-67.244
0
LINE
8
BLACK
6
CONTINUOUS
10
158.366
20
-67.244
11
158.966
21
-67.244
0
LINE
8
BLACK
6
CONTINUOUS
10
158.966
20
-67.244
11
158.966
21
-69.244
0
LINE
8
BLACK
6
CONTINUOUS
10
166.969
20
-63.947
11
166.369
21
-63.947
0
LINE
8
BLACK
6
CONTINUOUS
10
166.369
20
-63.947
11
166.369
21
-61.947
0
LINE
8
BLACK
6
CONTINUOUS
10
166.369
20
-61.947
11
166.969
21
-61.947
0
LINE
8
BLACK
6
CONTINUOUS
10
166.969
20
-61.947
11
166.969
21
-63.947
0
LINE
8
BLACK
6
CONTINUOUS
10
165.969
20
-63.947
11
165.369
21
-63.947
0
LINE
8
BLACK
6
CONTINUOUS
10
165.369
20
-63.947
11
165.369
21
-61.947
0
LINE
8
BLACK
6
CONTINUOUS
10
165.369
20
-61.947
11
165.969
21
-61.947
0
LINE
8
BLACK
6
CONTINUOUS
10
165.969
20
-61.947
11
165.969
21
-63.947
0
LINE
8
BLACK
6
CONTINUOUS
10
164.969
20
-63.947
11
164.369
21
-63.947
0
LINE
8
BLACK
6
CONTINUOUS
10
164.369
20
-63.947
11
164.369
21
-61.947
0
LINE
8
BLACK
6
CONTINUOUS
10
164.369
20
-61.947
11
164.969
21
-61.947
0
LINE
8
BLACK
6
CONTINUOUS
10
164.969
20
-61.947
11
164.969
21
-63.947
0
LINE
8
BLACK
6
CONTINUOUS
10
163.969
20
-63.947
11
163.369
21
-63.947
0
LINE
8
BLACK
6
CONTINUOUS
10
163.369
20
-63.947
11
163.369
21
-61.947
0
LINE
8
BLACK
6
CONTINUOUS
10
163.369
20
-61.947
11
163.969
21
-61.947
0
LINE
8
BLACK
6
CONTINUOUS
10
163.969
20
-61.947
11
163.969
21
-63.947
0
LINE
8
BLACK
6
CONTINUOUS
10
162.969
20
-63.947
11
162.369
21
-63.947
0
LINE
8
BLACK
6
CONTINUOUS
10
162.369
20
-63.947
11
162.369
21
-61.947
0
LINE
8
BLACK
6
CONTINUOUS
10
162.369
20
-61.947
11
162.969
21
-61.947
0
LINE
8
BLACK
6
CONTINUOUS
10
162.969
20
-61.947
11
162.969
21
-63.947
0
LINE
8
BLACK
6
CONTINUOUS
10
161.969
20
-63.947
11
161.369
21
-63.947
0
LINE
8
BLACK
6
CONTINUOUS
10
161.369
20
-63.947
11
161.369
21
-61.947
0
LINE
8
BLACK
6
CONTINUOUS
10
161.369
20
-61.947
11
161.969
21
-61.947
0
LINE
8
BLACK
6
CONTINUOUS
10
161.969
20
-61.947
11
161.969
21
-63.947
0
LINE
8
BLACK
6
CONTINUOUS
10
160.969
20
-63.947
11
160.369
21
-63.947
0
LINE
8
BLACK
6
CONTINUOUS
10
160.369
20
-63.947
11
160.369
21
-61.947
0
LINE
8
BLACK
6
CONTINUOUS
10
160.369
20
-61.947
11
160.969
21
-61.947
0
LINE
8
BLACK
6
CONTINUOUS
10
160.969
20
-61.947
11
160.969
21
-63.947
0
LINE
8
BLACK
6
CONTINUOUS
10
159.969
20
-63.947
11
159.369
21
-63.947
0
LINE
8
BLACK
6
CONTINUOUS
10
159.369
20
-63.947
11
159.369
21
-61.947
0
LINE
8
BLACK
6
CONTINUOUS
10
159.369
20
-61.947
11
159.969
21
-61.947
0
LINE
8
BLACK
6
CONTINUOUS
10
159.969
20
-61.947
11
159.969
21
-63.947
0
LINE
8
BLACK
6
CONTINUOUS
10
158.969
20
-63.947
11
158.369
21
-63.947
0
LINE
8
BLACK
6
CONTINUOUS
10
158.369
20
-63.947
11
158.369
21
-61.947
0
LINE
8
BLACK
6
CONTINUOUS
10
158.369
20
-61.947
11
158.969
21
-61.947
0
LINE
8
BLACK
6
CONTINUOUS
10
158.969
20
-61.947
11
158.969
21
-63.947
0
LINE
8
BLACK
6
CONTINUOUS
10
157.969
20
-63.947
11
157.369
21
-63.947
0
LINE
8
BLACK
6
CONTINUOUS
10
157.369
20
-63.947
11
157.369
21
-61.947
0
LINE
8
BLACK
6
CONTINUOUS
10
157.369
20
-61.947
11
157.969
21
-61.947
0
LINE
8
BLACK
6
CONTINUOUS
10
157.969
20
-61.947
11
157.969
21
-63.947
0
LINE
8
BLACK
6
CONTINUOUS
10
156.969
20
-63.947
11
156.369
21
-63.947
0
LINE
8
BLACK
6
CONTINUOUS
10
156.369
20
-63.947
11
156.369
21
-61.947
0
LINE
8
BLACK
6
CONTINUOUS
10
156.369
20
-61.947
11
156.969
21
-61.947
0
LINE
8
BLACK
6
CONTINUOUS
10
156.969
20
-61.947
11
156.969
21
-63.947
0
LINE
8
BLACK
6
CONTINUOUS
10
155.969
20
-63.947
11
155.369
21
-63.947
0
LINE
8
BLACK
6
CONTINUOUS
10
155.369
20
-63.947
11
155.369
21
-61.947
0
LINE
8
BLACK
6
CONTINUOUS
10
155.369
20
-61.947
11
155.969
21
-61.947
0
LINE
8
BLACK
6
CONTINUOUS
10
155.969
20
-61.947
11
155.969
21
-63.947
0
LINE
8
BLACK
6
CONTINUOUS
10
154.969
20
-63.947
11
154.369
21
-63.947
0
LINE
8
BLACK
6
CONTINUOUS
10
154.369
20
-63.947
11
154.369
21
-61.947
0
LINE
8
BLACK
6
CONTINUOUS
10
154.369
20
-61.947
11
154.969
21
-61.947
0
LINE
8
BLACK
6
CONTINUOUS
10
154.969
20
-61.947
11
154.969
21
-63.947
0
LINE
8
BLACK
6
CONTINUOUS
10
153.969
20
-63.947
11
153.369
21
-63.947
0
LINE
8
BLACK
6
CONTINUOUS
10
153.369
20
-63.947
11
153.369
21
-61.947
0
LINE
8
BLACK
6
CONTINUOUS
10
153.369
20
-61.947
11
153.969
21
-61.947
0
LINE
8
BLACK
6
CONTINUOUS
10
153.969
20
-61.947
11
153.969
21
-63.947
0
LINE
8
BLACK
6
CONTINUOUS
10
152.969
20
-63.947
11
152.369
21
-63.947
0
LINE
8
BLACK
6
CONTINUOUS
10
152.369
20
-63.947
11
152.369
21
-61.947
0
LINE
8
BLACK
6
CONTINUOUS
10
152.369
20
-61.947
11
152.969
21
-61.947
0
LINE
8
BLACK
6
CONTINUOUS
10
152.969
20
-61.947
11
152.969
21
-63.947
0
LINE
8
BLACK
6
CONTINUOUS
10
151.969
20
-63.947
11
151.369
21
-63.947
0
LINE
8
BLACK
6
CONTINUOUS
10
151.369
20
-63.947
11
151.369
21
-61.947
0
LINE
8
BLACK
6
CONTINUOUS
10
151.369
20
-61.947
11
151.969
21
-61.947
0
LINE
8
BLACK
6
CONTINUOUS
10
151.969
20
-61.947
11
151.969
21
-63.947
0
LINE
8
BLACK
6
CONTINUOUS
10
150.969
20
-63.947
11
150.369
21
-63.947
0
LINE
8
BLACK
6
CONTINUOUS
10
150.369
20
-63.947
11
150.369
21
-61.947
0
LINE
8
BLACK
6
CONTINUOUS
10
150.369
20
-61.947
11
150.969
21
-61.947
0
LINE
8
BLACK
6
CONTINUOUS
10
150.969
20
-61.947
11
150.969
21
-63.947
0
LINE
8
BLACK
6
CONTINUOUS
10
149.969
20
-63.947
11
149.369
21
-63.947
0
LINE
8
BLACK
6
CONTINUOUS
10
149.369
20
-63.947
11
149.369
21
-61.947
0
LINE
8
BLACK
6
CONTINUOUS
10
149.369
20
-61.947
11
149.969
21
-61.947
0
LINE
8
BLACK
6
CONTINUOUS
10
149.969
20
-61.947
11
149.969
21
-63.947
0
LINE
8
BLACK
6
CONTINUOUS
10
148.169
20
-61.997
11
145.669
21
-61.997
0
LINE
8
BLACK
6
CONTINUOUS
10
145.669
20
-61.997
11
145.669
21
-58.997
0
LINE
8
BLACK
6
CONTINUOUS
10
145.669
20
-58.997
11
148.169
21
-58.997
0
LINE
8
BLACK
6
CONTINUOUS
10
148.169
20
-58.997
11
148.169
21
-61.997
0
LINE
8
BLACK
6
CONTINUOUS
10
170.669
20
-61.997
11
168.169
21
-61.997
0
LINE
8
BLACK
6
CONTINUOUS
10
168.169
20
-61.997
11
168.169
21
-58.997
0
LINE
8
BLACK
6
CONTINUOUS
10
168.169
20
-58.997
11
170.669
21
-58.997
0
LINE
8
BLACK
6
CONTINUOUS
10
170.669
20
-58.997
11
170.669
21
-61.997
  0
ENDSEC
  0
EOF
