%TF.GenerationSoftware,KiCad,Pcbnew,(5.1.12)-1*%
%TF.CreationDate,2022-01-29T13:47:59+00:00*%
%TF.ProjectId,RGBtoHDMI CDTV v2 - Mouse and Joystick Adapter - FFC Extender,52474274-6f48-4444-9d49-204344545620,rev?*%
%TF.SameCoordinates,Original*%
%TF.FileFunction,Soldermask,Top*%
%TF.FilePolarity,Negative*%
%FSLAX46Y46*%
G04 Gerber Fmt 4.6, Leading zero omitted, Abs format (unit mm)*
G04 Created by KiCad (PCBNEW (5.1.12)-1) date 2022-01-29 13:47:59*
%MOMM*%
%LPD*%
G01*
G04 APERTURE LIST*
%ADD10R,2.500000X3.000000*%
%ADD11R,0.600000X2.000000*%
G04 APERTURE END LIST*
D10*
%TO.C,FFC2*%
X146915800Y-70694000D03*
X169415800Y-70694000D03*
D11*
X166665800Y-68244000D03*
X165665800Y-68244000D03*
X164665800Y-68244000D03*
X163665800Y-68244000D03*
X162665800Y-68244000D03*
X161665800Y-68244000D03*
X160665800Y-68244000D03*
X159665800Y-68244000D03*
X158665800Y-68244000D03*
X157665800Y-68244000D03*
X156665800Y-68244000D03*
X155665800Y-68244000D03*
X154665800Y-68244000D03*
X153665800Y-68244000D03*
X152665800Y-68244000D03*
X151665800Y-68244000D03*
X150665800Y-68244000D03*
X149665800Y-68244000D03*
%TD*%
D10*
%TO.C,FFC1*%
X169419000Y-60497000D03*
X146919000Y-60497000D03*
D11*
X149669000Y-62947000D03*
X150669000Y-62947000D03*
X151669000Y-62947000D03*
X152669000Y-62947000D03*
X153669000Y-62947000D03*
X154669000Y-62947000D03*
X155669000Y-62947000D03*
X156669000Y-62947000D03*
X157669000Y-62947000D03*
X158669000Y-62947000D03*
X159669000Y-62947000D03*
X160669000Y-62947000D03*
X161669000Y-62947000D03*
X162669000Y-62947000D03*
X163669000Y-62947000D03*
X164669000Y-62947000D03*
X165669000Y-62947000D03*
X166669000Y-62947000D03*
%TD*%
M02*
