  0
SECTION
  2
HEADER
  9
$ANGBASE
  50
0.0
  9
$ANGDIR
  70
1
  9
$MEASUREMENT
  70
1
  0
ENDSEC
  0
SECTION
  2
TABLES
  0
TABLE
  2
LTYPE
  70
4
  0
LTYPE
  5
40F
  2
CONTINUOUS
  70
0
  3
Solid line
  72
65
  73
0
  40
0.0
  0
LTYPE
  5
410
  2
DASHDOT
 70
0
  3
Dash Dot ____ _ ____ _
 72
65
 73
4
 40
2.0
 49
1.25
 49
-0.25
 49
0.25
 49
-0.25
  0
LTYPE
  5
411
  2
DASHED
 70
0
  3
Dashed __ __ __ __ __
 72
65
 73
2
 40
0.75
 49
0.5
 49
-0.25
  0
LTYPE
  5
43B
  2
DOTTED
 70
0
  3
Dotted .  .  .  .
 72
65
 73
2
 40
0.2
 49
0.0
 49
-0.2
  0
ENDTAB
  0
TABLE
  2
STYLE
  70
4
  0
STYLE
  2
KICAD
  70
0
  40
0
  41
1
  42
1
  50
0
  71
0
  3
isocp.shx
  0
STYLE
  2
KICADB
  70
0
  40
0
  41
1
  42
1
  50
0
  71
0
  3
isocp.shx
  0
STYLE
  2
KICADI
  70
0
  40
0
  41
1
  42
1
  50
15
  71
0
  3
isocp.shx
  0
STYLE
  2
KICADBI
  70
0
  40
0
  41
1
  42
1
  50
15
  71
0
  3
isocp.shx
  0
ENDTAB
  0
TABLE
  2
LAYER
  70
1
  0
LAYER
  2
BLACK
  70
0
  62
7
  6
CONTINUOUS
  0
ENDTAB
  0
ENDSEC
  0
SECTION
  2
ENTITIES
0
LINE
8
BLACK
6
CONTINUOUS
10
160.071
20
-66.8028
11
160.071
21
-66.8028
0
LINE
8
BLACK
6
CONTINUOUS
10
160.071
20
-66.8028
11
160.071
21
-66.8028
0
LINE
8
BLACK
6
CONTINUOUS
10
160.071
20
-66.8028
11
160.071
21
-66.8028
0
LINE
8
BLACK
6
CONTINUOUS
10
160.071
20
-66.8028
11
160.076
21
-66.8033
0
LINE
8
BLACK
6
CONTINUOUS
10
160.076
20
-66.8033
11
160.081
21
-66.8038
0
LINE
8
BLACK
6
CONTINUOUS
10
160.081
20
-66.8038
11
160.081
21
-66.8039
0
LINE
8
BLACK
6
CONTINUOUS
10
160.081
20
-66.8039
11
160.081
21
-66.8039
0
LINE
8
BLACK
6
CONTINUOUS
10
160.081
20
-66.8039
11
160.086
21
-66.8053
0
LINE
8
BLACK
6
CONTINUOUS
10
160.086
20
-66.8053
11
160.09
21
-66.8067
0
LINE
8
BLACK
6
CONTINUOUS
10
160.09
20
-66.8067
11
160.09
21
-66.8068
0
LINE
8
BLACK
6
CONTINUOUS
10
160.09
20
-66.8068
11
160.09
21
-66.8068
0
LINE
8
BLACK
6
CONTINUOUS
10
160.09
20
-66.8068
11
160.095
21
-66.8091
0
LINE
8
BLACK
6
CONTINUOUS
10
160.095
20
-66.8091
11
160.099
21
-66.8113
0
LINE
8
BLACK
6
CONTINUOUS
10
160.099
20
-66.8113
11
160.099
21
-66.8115
0
LINE
8
BLACK
6
CONTINUOUS
10
160.099
20
-66.8115
11
160.099
21
-66.8115
0
LINE
8
BLACK
6
CONTINUOUS
10
160.099
20
-66.8115
11
160.103
21
-66.8145
0
LINE
8
BLACK
6
CONTINUOUS
10
160.103
20
-66.8145
11
160.106
21
-66.8176
0
LINE
8
BLACK
6
CONTINUOUS
10
160.106
20
-66.8176
11
160.106
21
-66.8177
0
LINE
8
BLACK
6
CONTINUOUS
10
160.106
20
-66.8177
11
160.107
21
-66.8178
0
LINE
8
BLACK
6
CONTINUOUS
10
160.107
20
-66.8178
11
160.109
21
-66.8214
0
LINE
8
BLACK
6
CONTINUOUS
10
160.109
20
-66.8214
11
160.112
21
-66.8251
0
LINE
8
BLACK
6
CONTINUOUS
10
160.112
20
-66.8251
11
160.113
21
-66.8253
0
LINE
8
BLACK
6
CONTINUOUS
10
160.113
20
-66.8253
11
160.113
21
-66.8254
0
LINE
8
BLACK
6
CONTINUOUS
10
160.113
20
-66.8254
11
160.115
21
-66.8295
0
LINE
8
BLACK
6
CONTINUOUS
10
160.115
20
-66.8295
11
160.117
21
-66.8337
0
LINE
8
BLACK
6
CONTINUOUS
10
160.117
20
-66.8337
11
160.117
21
-66.8339
0
LINE
8
BLACK
6
CONTINUOUS
10
160.117
20
-66.8339
11
160.117
21
-66.8341
0
LINE
8
BLACK
6
CONTINUOUS
10
160.117
20
-66.8341
11
160.118
21
-66.8385
0
LINE
8
BLACK
6
CONTINUOUS
10
160.118
20
-66.8385
11
160.12
21
-66.8431
0
LINE
8
BLACK
6
CONTINUOUS
10
160.12
20
-66.8431
11
160.12
21
-66.8433
0
LINE
8
BLACK
6
CONTINUOUS
10
160.12
20
-66.8433
11
160.12
21
-66.8434
0
LINE
8
BLACK
6
CONTINUOUS
10
160.12
20
-66.8434
11
160.12
21
-66.8481
0
LINE
8
BLACK
6
CONTINUOUS
10
160.12
20
-66.8481
11
160.121
21
-66.8528
0
LINE
8
BLACK
6
CONTINUOUS
10
160.121
20
-66.8528
11
160.121
21
-67.4878
0
LINE
8
BLACK
6
CONTINUOUS
10
160.121
20
-67.4878
11
160.121
21
-67.4881
0
LINE
8
BLACK
6
CONTINUOUS
10
160.121
20
-67.4881
11
160.121
21
-67.4881
0
LINE
8
BLACK
6
CONTINUOUS
10
160.121
20
-67.4881
11
160.121
21
-67.4882
0
LINE
8
BLACK
6
CONTINUOUS
10
160.121
20
-67.4882
11
160.121
21
-67.4885
0
LINE
8
BLACK
6
CONTINUOUS
10
160.121
20
-67.4885
11
160.12
21
-67.4931
0
LINE
8
BLACK
6
CONTINUOUS
10
160.12
20
-67.4931
11
160.12
21
-67.4979
0
LINE
8
BLACK
6
CONTINUOUS
10
160.12
20
-67.4979
11
160.12
21
-67.498
0
LINE
8
BLACK
6
CONTINUOUS
10
160.12
20
-67.498
11
160.12
21
-67.4982
0
LINE
8
BLACK
6
CONTINUOUS
10
160.12
20
-67.4982
11
160.118
21
-67.5027
0
LINE
8
BLACK
6
CONTINUOUS
10
160.118
20
-67.5027
11
160.117
21
-67.5072
0
LINE
8
BLACK
6
CONTINUOUS
10
160.117
20
-67.5072
11
160.117
21
-67.5073
0
LINE
8
BLACK
6
CONTINUOUS
10
160.117
20
-67.5073
11
160.117
21
-67.5075
0
LINE
8
BLACK
6
CONTINUOUS
10
160.117
20
-67.5075
11
160.114
21
-67.5116
0
LINE
8
BLACK
6
CONTINUOUS
10
160.114
20
-67.5116
11
160.112
21
-67.5158
0
LINE
8
BLACK
6
CONTINUOUS
10
160.112
20
-67.5158
11
160.112
21
-67.5159
0
LINE
8
BLACK
6
CONTINUOUS
10
160.112
20
-67.5159
11
160.112
21
-67.516
0
LINE
8
BLACK
6
CONTINUOUS
10
160.112
20
-67.516
11
160.109
21
-67.5196
0
LINE
8
BLACK
6
CONTINUOUS
10
160.109
20
-67.5196
11
160.106
21
-67.5233
0
LINE
8
BLACK
6
CONTINUOUS
10
160.106
20
-67.5233
11
160.106
21
-67.5234
0
LINE
8
BLACK
6
CONTINUOUS
10
160.106
20
-67.5234
11
160.106
21
-67.5235
0
LINE
8
BLACK
6
CONTINUOUS
10
160.106
20
-67.5235
11
160.102
21
-67.5264
0
LINE
8
BLACK
6
CONTINUOUS
10
160.102
20
-67.5264
11
160.098
21
-67.5294
0
LINE
8
BLACK
6
CONTINUOUS
10
160.098
20
-67.5294
11
160.098
21
-67.5295
0
LINE
8
BLACK
6
CONTINUOUS
10
160.098
20
-67.5295
11
160.098
21
-67.5296
0
LINE
8
BLACK
6
CONTINUOUS
10
160.098
20
-67.5296
11
160.094
21
-67.5318
0
LINE
8
BLACK
6
CONTINUOUS
10
160.094
20
-67.5318
11
160.09
21
-67.534
0
LINE
8
BLACK
6
CONTINUOUS
10
160.09
20
-67.534
11
160.09
21
-67.5341
0
LINE
8
BLACK
6
CONTINUOUS
10
160.09
20
-67.5341
11
160.09
21
-67.5342
0
LINE
8
BLACK
6
CONTINUOUS
10
160.09
20
-67.5342
11
160.085
21
-67.5355
0
LINE
8
BLACK
6
CONTINUOUS
10
160.085
20
-67.5355
11
160.081
21
-67.5368
0
LINE
8
BLACK
6
CONTINUOUS
10
160.081
20
-67.5368
11
160.08
21
-67.5369
0
LINE
8
BLACK
6
CONTINUOUS
10
160.08
20
-67.5369
11
160.08
21
-67.5369
0
LINE
8
BLACK
6
CONTINUOUS
10
160.08
20
-67.5369
11
160.076
21
-67.5373
0
LINE
8
BLACK
6
CONTINUOUS
10
160.076
20
-67.5373
11
160.071
21
-67.5378
0
LINE
8
BLACK
6
CONTINUOUS
10
160.071
20
-67.5378
11
159.436
21
-67.5378
0
LINE
8
BLACK
6
CONTINUOUS
10
159.436
20
-67.5378
11
159.435
21
-67.5378
0
LINE
8
BLACK
6
CONTINUOUS
10
159.435
20
-67.5378
11
159.435
21
-67.5378
0
LINE
8
BLACK
6
CONTINUOUS
10
159.435
20
-67.5378
11
159.435
21
-67.5378
0
LINE
8
BLACK
6
CONTINUOUS
10
159.435
20
-67.5378
11
159.435
21
-67.5378
0
LINE
8
BLACK
6
CONTINUOUS
10
159.435
20
-67.5378
11
159.43
21
-67.5373
0
LINE
8
BLACK
6
CONTINUOUS
10
159.43
20
-67.5373
11
159.426
21
-67.5368
0
LINE
8
BLACK
6
CONTINUOUS
10
159.426
20
-67.5368
11
159.426
21
-67.5367
0
LINE
8
BLACK
6
CONTINUOUS
10
159.426
20
-67.5367
11
159.425
21
-67.5367
0
LINE
8
BLACK
6
CONTINUOUS
10
159.425
20
-67.5367
11
159.421
21
-67.5353
0
LINE
8
BLACK
6
CONTINUOUS
10
159.421
20
-67.5353
11
159.416
21
-67.5339
0
LINE
8
BLACK
6
CONTINUOUS
10
159.416
20
-67.5339
11
159.416
21
-67.5338
0
LINE
8
BLACK
6
CONTINUOUS
10
159.416
20
-67.5338
11
159.416
21
-67.5338
0
LINE
8
BLACK
6
CONTINUOUS
10
159.416
20
-67.5338
11
159.412
21
-67.5315
0
LINE
8
BLACK
6
CONTINUOUS
10
159.412
20
-67.5315
11
159.408
21
-67.5293
0
LINE
8
BLACK
6
CONTINUOUS
10
159.408
20
-67.5293
11
159.408
21
-67.5291
0
LINE
8
BLACK
6
CONTINUOUS
10
159.408
20
-67.5291
11
159.408
21
-67.5291
0
LINE
8
BLACK
6
CONTINUOUS
10
159.408
20
-67.5291
11
159.404
21
-67.5261
0
LINE
8
BLACK
6
CONTINUOUS
10
159.404
20
-67.5261
11
159.4
21
-67.523
0
LINE
8
BLACK
6
CONTINUOUS
10
159.4
20
-67.523
11
159.4
21
-67.5229
0
LINE
8
BLACK
6
CONTINUOUS
10
159.4
20
-67.5229
11
159.4
21
-67.5228
0
LINE
8
BLACK
6
CONTINUOUS
10
159.4
20
-67.5228
11
159.397
21
-67.5192
0
LINE
8
BLACK
6
CONTINUOUS
10
159.397
20
-67.5192
11
159.394
21
-67.5155
0
LINE
8
BLACK
6
CONTINUOUS
10
159.394
20
-67.5155
11
159.394
21
-67.5153
0
LINE
8
BLACK
6
CONTINUOUS
10
159.394
20
-67.5153
11
159.394
21
-67.5152
0
LINE
8
BLACK
6
CONTINUOUS
10
159.394
20
-67.5152
11
159.392
21
-67.5111
0
LINE
8
BLACK
6
CONTINUOUS
10
159.392
20
-67.5111
11
159.39
21
-67.5069
0
LINE
8
BLACK
6
CONTINUOUS
10
159.39
20
-67.5069
11
159.39
21
-67.5067
0
LINE
8
BLACK
6
CONTINUOUS
10
159.39
20
-67.5067
11
159.389
21
-67.5065
0
LINE
8
BLACK
6
CONTINUOUS
10
159.389
20
-67.5065
11
159.388
21
-67.5021
0
LINE
8
BLACK
6
CONTINUOUS
10
159.388
20
-67.5021
11
159.387
21
-67.4975
0
LINE
8
BLACK
6
CONTINUOUS
10
159.387
20
-67.4975
11
159.387
21
-67.4973
0
LINE
8
BLACK
6
CONTINUOUS
10
159.387
20
-67.4973
11
159.387
21
-67.4972
0
LINE
8
BLACK
6
CONTINUOUS
10
159.387
20
-67.4972
11
159.386
21
-67.4925
0
LINE
8
BLACK
6
CONTINUOUS
10
159.386
20
-67.4925
11
159.386
21
-67.4878
0
LINE
8
BLACK
6
CONTINUOUS
10
159.386
20
-67.4878
11
159.386
21
-66.8528
0
LINE
8
BLACK
6
CONTINUOUS
10
159.386
20
-66.8528
11
159.386
21
-66.8525
0
LINE
8
BLACK
6
CONTINUOUS
10
159.386
20
-66.8525
11
159.386
21
-66.8525
0
LINE
8
BLACK
6
CONTINUOUS
10
159.386
20
-66.8525
11
159.386
21
-66.8524
0
LINE
8
BLACK
6
CONTINUOUS
10
159.386
20
-66.8524
11
159.386
21
-66.8521
0
LINE
8
BLACK
6
CONTINUOUS
10
159.386
20
-66.8521
11
159.386
21
-66.8475
0
LINE
8
BLACK
6
CONTINUOUS
10
159.386
20
-66.8475
11
159.387
21
-66.8427
0
LINE
8
BLACK
6
CONTINUOUS
10
159.387
20
-66.8427
11
159.387
21
-66.8426
0
LINE
8
BLACK
6
CONTINUOUS
10
159.387
20
-66.8426
11
159.387
21
-66.8424
0
LINE
8
BLACK
6
CONTINUOUS
10
159.387
20
-66.8424
11
159.388
21
-66.8379
0
LINE
8
BLACK
6
CONTINUOUS
10
159.388
20
-66.8379
11
159.39
21
-66.8334
0
LINE
8
BLACK
6
CONTINUOUS
10
159.39
20
-66.8334
11
159.39
21
-66.8333
0
LINE
8
BLACK
6
CONTINUOUS
10
159.39
20
-66.8333
11
159.39
21
-66.8331
0
LINE
8
BLACK
6
CONTINUOUS
10
159.39
20
-66.8331
11
159.392
21
-66.829
0
LINE
8
BLACK
6
CONTINUOUS
10
159.392
20
-66.829
11
159.394
21
-66.8248
0
LINE
8
BLACK
6
CONTINUOUS
10
159.394
20
-66.8248
11
159.394
21
-66.8247
0
LINE
8
BLACK
6
CONTINUOUS
10
159.394
20
-66.8247
11
159.395
21
-66.8246
0
LINE
8
BLACK
6
CONTINUOUS
10
159.395
20
-66.8246
11
159.398
21
-66.821
0
LINE
8
BLACK
6
CONTINUOUS
10
159.398
20
-66.821
11
159.401
21
-66.8173
0
LINE
8
BLACK
6
CONTINUOUS
10
159.401
20
-66.8173
11
159.401
21
-66.8172
0
LINE
8
BLACK
6
CONTINUOUS
10
159.401
20
-66.8172
11
159.401
21
-66.8171
0
LINE
8
BLACK
6
CONTINUOUS
10
159.401
20
-66.8171
11
159.404
21
-66.8142
0
LINE
8
BLACK
6
CONTINUOUS
10
159.404
20
-66.8142
11
159.408
21
-66.8112
0
LINE
8
BLACK
6
CONTINUOUS
10
159.408
20
-66.8112
11
159.408
21
-66.8111
0
LINE
8
BLACK
6
CONTINUOUS
10
159.408
20
-66.8111
11
159.408
21
-66.811
0
LINE
8
BLACK
6
CONTINUOUS
10
159.408
20
-66.811
11
159.413
21
-66.8088
0
LINE
8
BLACK
6
CONTINUOUS
10
159.413
20
-66.8088
11
159.417
21
-66.8066
0
LINE
8
BLACK
6
CONTINUOUS
10
159.417
20
-66.8066
11
159.417
21
-66.8065
0
LINE
8
BLACK
6
CONTINUOUS
10
159.417
20
-66.8065
11
159.417
21
-66.8064
0
LINE
8
BLACK
6
CONTINUOUS
10
159.417
20
-66.8064
11
159.422
21
-66.8051
0
LINE
8
BLACK
6
CONTINUOUS
10
159.422
20
-66.8051
11
159.426
21
-66.8038
0
LINE
8
BLACK
6
CONTINUOUS
10
159.426
20
-66.8038
11
159.426
21
-66.8037
0
LINE
8
BLACK
6
CONTINUOUS
10
159.426
20
-66.8037
11
159.426
21
-66.8037
0
LINE
8
BLACK
6
CONTINUOUS
10
159.426
20
-66.8037
11
159.431
21
-66.8033
0
LINE
8
BLACK
6
CONTINUOUS
10
159.431
20
-66.8033
11
159.436
21
-66.8028
0
LINE
8
BLACK
6
CONTINUOUS
10
159.436
20
-66.8028
11
160.071
21
-66.8028
0
LINE
8
BLACK
6
CONTINUOUS
10
160.071
20
-66.8028
11
160.071
21
-66.8028
0
LINE
8
BLACK
6
CONTINUOUS
10
156.261
20
-66.8028
11
156.261
21
-66.8028
0
LINE
8
BLACK
6
CONTINUOUS
10
156.261
20
-66.8028
11
156.261
21
-66.8028
0
LINE
8
BLACK
6
CONTINUOUS
10
156.261
20
-66.8028
11
156.261
21
-66.8028
0
LINE
8
BLACK
6
CONTINUOUS
10
156.261
20
-66.8028
11
156.266
21
-66.8033
0
LINE
8
BLACK
6
CONTINUOUS
10
156.266
20
-66.8033
11
156.271
21
-66.8038
0
LINE
8
BLACK
6
CONTINUOUS
10
156.271
20
-66.8038
11
156.271
21
-66.8039
0
LINE
8
BLACK
6
CONTINUOUS
10
156.271
20
-66.8039
11
156.271
21
-66.8039
0
LINE
8
BLACK
6
CONTINUOUS
10
156.271
20
-66.8039
11
156.276
21
-66.8053
0
LINE
8
BLACK
6
CONTINUOUS
10
156.276
20
-66.8053
11
156.28
21
-66.8067
0
LINE
8
BLACK
6
CONTINUOUS
10
156.28
20
-66.8067
11
156.28
21
-66.8068
0
LINE
8
BLACK
6
CONTINUOUS
10
156.28
20
-66.8068
11
156.28
21
-66.8068
0
LINE
8
BLACK
6
CONTINUOUS
10
156.28
20
-66.8068
11
156.285
21
-66.8091
0
LINE
8
BLACK
6
CONTINUOUS
10
156.285
20
-66.8091
11
156.289
21
-66.8113
0
LINE
8
BLACK
6
CONTINUOUS
10
156.289
20
-66.8113
11
156.289
21
-66.8115
0
LINE
8
BLACK
6
CONTINUOUS
10
156.289
20
-66.8115
11
156.289
21
-66.8115
0
LINE
8
BLACK
6
CONTINUOUS
10
156.289
20
-66.8115
11
156.293
21
-66.8145
0
LINE
8
BLACK
6
CONTINUOUS
10
156.293
20
-66.8145
11
156.296
21
-66.8176
0
LINE
8
BLACK
6
CONTINUOUS
10
156.296
20
-66.8176
11
156.296
21
-66.8177
0
LINE
8
BLACK
6
CONTINUOUS
10
156.296
20
-66.8177
11
156.297
21
-66.8178
0
LINE
8
BLACK
6
CONTINUOUS
10
156.297
20
-66.8178
11
156.299
21
-66.8214
0
LINE
8
BLACK
6
CONTINUOUS
10
156.299
20
-66.8214
11
156.302
21
-66.8251
0
LINE
8
BLACK
6
CONTINUOUS
10
156.302
20
-66.8251
11
156.303
21
-66.8253
0
LINE
8
BLACK
6
CONTINUOUS
10
156.303
20
-66.8253
11
156.303
21
-66.8254
0
LINE
8
BLACK
6
CONTINUOUS
10
156.303
20
-66.8254
11
156.305
21
-66.8295
0
LINE
8
BLACK
6
CONTINUOUS
10
156.305
20
-66.8295
11
156.307
21
-66.8337
0
LINE
8
BLACK
6
CONTINUOUS
10
156.307
20
-66.8337
11
156.307
21
-66.8339
0
LINE
8
BLACK
6
CONTINUOUS
10
156.307
20
-66.8339
11
156.307
21
-66.8341
0
LINE
8
BLACK
6
CONTINUOUS
10
156.307
20
-66.8341
11
156.308
21
-66.8385
0
LINE
8
BLACK
6
CONTINUOUS
10
156.308
20
-66.8385
11
156.31
21
-66.8431
0
LINE
8
BLACK
6
CONTINUOUS
10
156.31
20
-66.8431
11
156.31
21
-66.8433
0
LINE
8
BLACK
6
CONTINUOUS
10
156.31
20
-66.8433
11
156.31
21
-66.8434
0
LINE
8
BLACK
6
CONTINUOUS
10
156.31
20
-66.8434
11
156.31
21
-66.8481
0
LINE
8
BLACK
6
CONTINUOUS
10
156.31
20
-66.8481
11
156.311
21
-66.8528
0
LINE
8
BLACK
6
CONTINUOUS
10
156.311
20
-66.8528
11
156.311
21
-67.4878
0
LINE
8
BLACK
6
CONTINUOUS
10
156.311
20
-67.4878
11
156.311
21
-67.4881
0
LINE
8
BLACK
6
CONTINUOUS
10
156.311
20
-67.4881
11
156.311
21
-67.4881
0
LINE
8
BLACK
6
CONTINUOUS
10
156.311
20
-67.4881
11
156.311
21
-67.4882
0
LINE
8
BLACK
6
CONTINUOUS
10
156.311
20
-67.4882
11
156.311
21
-67.4885
0
LINE
8
BLACK
6
CONTINUOUS
10
156.311
20
-67.4885
11
156.31
21
-67.4931
0
LINE
8
BLACK
6
CONTINUOUS
10
156.31
20
-67.4931
11
156.31
21
-67.4979
0
LINE
8
BLACK
6
CONTINUOUS
10
156.31
20
-67.4979
11
156.31
21
-67.498
0
LINE
8
BLACK
6
CONTINUOUS
10
156.31
20
-67.498
11
156.31
21
-67.4982
0
LINE
8
BLACK
6
CONTINUOUS
10
156.31
20
-67.4982
11
156.308
21
-67.5027
0
LINE
8
BLACK
6
CONTINUOUS
10
156.308
20
-67.5027
11
156.307
21
-67.5072
0
LINE
8
BLACK
6
CONTINUOUS
10
156.307
20
-67.5072
11
156.307
21
-67.5073
0
LINE
8
BLACK
6
CONTINUOUS
10
156.307
20
-67.5073
11
156.307
21
-67.5075
0
LINE
8
BLACK
6
CONTINUOUS
10
156.307
20
-67.5075
11
156.304
21
-67.5116
0
LINE
8
BLACK
6
CONTINUOUS
10
156.304
20
-67.5116
11
156.302
21
-67.5158
0
LINE
8
BLACK
6
CONTINUOUS
10
156.302
20
-67.5158
11
156.302
21
-67.5159
0
LINE
8
BLACK
6
CONTINUOUS
10
156.302
20
-67.5159
11
156.302
21
-67.516
0
LINE
8
BLACK
6
CONTINUOUS
10
156.302
20
-67.516
11
156.299
21
-67.5196
0
LINE
8
BLACK
6
CONTINUOUS
10
156.299
20
-67.5196
11
156.296
21
-67.5233
0
LINE
8
BLACK
6
CONTINUOUS
10
156.296
20
-67.5233
11
156.296
21
-67.5234
0
LINE
8
BLACK
6
CONTINUOUS
10
156.296
20
-67.5234
11
156.296
21
-67.5235
0
LINE
8
BLACK
6
CONTINUOUS
10
156.296
20
-67.5235
11
156.292
21
-67.5264
0
LINE
8
BLACK
6
CONTINUOUS
10
156.292
20
-67.5264
11
156.288
21
-67.5294
0
LINE
8
BLACK
6
CONTINUOUS
10
156.288
20
-67.5294
11
156.288
21
-67.5295
0
LINE
8
BLACK
6
CONTINUOUS
10
156.288
20
-67.5295
11
156.288
21
-67.5296
0
LINE
8
BLACK
6
CONTINUOUS
10
156.288
20
-67.5296
11
156.284
21
-67.5318
0
LINE
8
BLACK
6
CONTINUOUS
10
156.284
20
-67.5318
11
156.28
21
-67.534
0
LINE
8
BLACK
6
CONTINUOUS
10
156.28
20
-67.534
11
156.28
21
-67.5341
0
LINE
8
BLACK
6
CONTINUOUS
10
156.28
20
-67.5341
11
156.28
21
-67.5342
0
LINE
8
BLACK
6
CONTINUOUS
10
156.28
20
-67.5342
11
156.275
21
-67.5355
0
LINE
8
BLACK
6
CONTINUOUS
10
156.275
20
-67.5355
11
156.271
21
-67.5368
0
LINE
8
BLACK
6
CONTINUOUS
10
156.271
20
-67.5368
11
156.27
21
-67.5369
0
LINE
8
BLACK
6
CONTINUOUS
10
156.27
20
-67.5369
11
156.27
21
-67.5369
0
LINE
8
BLACK
6
CONTINUOUS
10
156.27
20
-67.5369
11
156.266
21
-67.5373
0
LINE
8
BLACK
6
CONTINUOUS
10
156.266
20
-67.5373
11
156.261
21
-67.5378
0
LINE
8
BLACK
6
CONTINUOUS
10
156.261
20
-67.5378
11
155.626
21
-67.5378
0
LINE
8
BLACK
6
CONTINUOUS
10
155.626
20
-67.5378
11
155.625
21
-67.5378
0
LINE
8
BLACK
6
CONTINUOUS
10
155.625
20
-67.5378
11
155.625
21
-67.5378
0
LINE
8
BLACK
6
CONTINUOUS
10
155.625
20
-67.5378
11
155.625
21
-67.5378
0
LINE
8
BLACK
6
CONTINUOUS
10
155.625
20
-67.5378
11
155.625
21
-67.5378
0
LINE
8
BLACK
6
CONTINUOUS
10
155.625
20
-67.5378
11
155.62
21
-67.5373
0
LINE
8
BLACK
6
CONTINUOUS
10
155.62
20
-67.5373
11
155.616
21
-67.5368
0
LINE
8
BLACK
6
CONTINUOUS
10
155.616
20
-67.5368
11
155.616
21
-67.5367
0
LINE
8
BLACK
6
CONTINUOUS
10
155.616
20
-67.5367
11
155.615
21
-67.5367
0
LINE
8
BLACK
6
CONTINUOUS
10
155.615
20
-67.5367
11
155.611
21
-67.5353
0
LINE
8
BLACK
6
CONTINUOUS
10
155.611
20
-67.5353
11
155.606
21
-67.5339
0
LINE
8
BLACK
6
CONTINUOUS
10
155.606
20
-67.5339
11
155.606
21
-67.5338
0
LINE
8
BLACK
6
CONTINUOUS
10
155.606
20
-67.5338
11
155.606
21
-67.5338
0
LINE
8
BLACK
6
CONTINUOUS
10
155.606
20
-67.5338
11
155.602
21
-67.5315
0
LINE
8
BLACK
6
CONTINUOUS
10
155.602
20
-67.5315
11
155.598
21
-67.5293
0
LINE
8
BLACK
6
CONTINUOUS
10
155.598
20
-67.5293
11
155.598
21
-67.5291
0
LINE
8
BLACK
6
CONTINUOUS
10
155.598
20
-67.5291
11
155.598
21
-67.5291
0
LINE
8
BLACK
6
CONTINUOUS
10
155.598
20
-67.5291
11
155.594
21
-67.5261
0
LINE
8
BLACK
6
CONTINUOUS
10
155.594
20
-67.5261
11
155.59
21
-67.523
0
LINE
8
BLACK
6
CONTINUOUS
10
155.59
20
-67.523
11
155.59
21
-67.5229
0
LINE
8
BLACK
6
CONTINUOUS
10
155.59
20
-67.5229
11
155.59
21
-67.5228
0
LINE
8
BLACK
6
CONTINUOUS
10
155.59
20
-67.5228
11
155.587
21
-67.5192
0
LINE
8
BLACK
6
CONTINUOUS
10
155.587
20
-67.5192
11
155.584
21
-67.5155
0
LINE
8
BLACK
6
CONTINUOUS
10
155.584
20
-67.5155
11
155.584
21
-67.5153
0
LINE
8
BLACK
6
CONTINUOUS
10
155.584
20
-67.5153
11
155.584
21
-67.5152
0
LINE
8
BLACK
6
CONTINUOUS
10
155.584
20
-67.5152
11
155.582
21
-67.5111
0
LINE
8
BLACK
6
CONTINUOUS
10
155.582
20
-67.5111
11
155.58
21
-67.5069
0
LINE
8
BLACK
6
CONTINUOUS
10
155.58
20
-67.5069
11
155.58
21
-67.5067
0
LINE
8
BLACK
6
CONTINUOUS
10
155.58
20
-67.5067
11
155.579
21
-67.5065
0
LINE
8
BLACK
6
CONTINUOUS
10
155.579
20
-67.5065
11
155.578
21
-67.5021
0
LINE
8
BLACK
6
CONTINUOUS
10
155.578
20
-67.5021
11
155.577
21
-67.4975
0
LINE
8
BLACK
6
CONTINUOUS
10
155.577
20
-67.4975
11
155.577
21
-67.4973
0
LINE
8
BLACK
6
CONTINUOUS
10
155.577
20
-67.4973
11
155.577
21
-67.4972
0
LINE
8
BLACK
6
CONTINUOUS
10
155.577
20
-67.4972
11
155.576
21
-67.4925
0
LINE
8
BLACK
6
CONTINUOUS
10
155.576
20
-67.4925
11
155.576
21
-67.4878
0
LINE
8
BLACK
6
CONTINUOUS
10
155.576
20
-67.4878
11
155.576
21
-66.8528
0
LINE
8
BLACK
6
CONTINUOUS
10
155.576
20
-66.8528
11
155.576
21
-66.8525
0
LINE
8
BLACK
6
CONTINUOUS
10
155.576
20
-66.8525
11
155.576
21
-66.8525
0
LINE
8
BLACK
6
CONTINUOUS
10
155.576
20
-66.8525
11
155.576
21
-66.8524
0
LINE
8
BLACK
6
CONTINUOUS
10
155.576
20
-66.8524
11
155.576
21
-66.8521
0
LINE
8
BLACK
6
CONTINUOUS
10
155.576
20
-66.8521
11
155.576
21
-66.8475
0
LINE
8
BLACK
6
CONTINUOUS
10
155.576
20
-66.8475
11
155.577
21
-66.8427
0
LINE
8
BLACK
6
CONTINUOUS
10
155.577
20
-66.8427
11
155.577
21
-66.8426
0
LINE
8
BLACK
6
CONTINUOUS
10
155.577
20
-66.8426
11
155.577
21
-66.8424
0
LINE
8
BLACK
6
CONTINUOUS
10
155.577
20
-66.8424
11
155.578
21
-66.8379
0
LINE
8
BLACK
6
CONTINUOUS
10
155.578
20
-66.8379
11
155.58
21
-66.8334
0
LINE
8
BLACK
6
CONTINUOUS
10
155.58
20
-66.8334
11
155.58
21
-66.8333
0
LINE
8
BLACK
6
CONTINUOUS
10
155.58
20
-66.8333
11
155.58
21
-66.8331
0
LINE
8
BLACK
6
CONTINUOUS
10
155.58
20
-66.8331
11
155.582
21
-66.829
0
LINE
8
BLACK
6
CONTINUOUS
10
155.582
20
-66.829
11
155.584
21
-66.8248
0
LINE
8
BLACK
6
CONTINUOUS
10
155.584
20
-66.8248
11
155.584
21
-66.8247
0
LINE
8
BLACK
6
CONTINUOUS
10
155.584
20
-66.8247
11
155.585
21
-66.8246
0
LINE
8
BLACK
6
CONTINUOUS
10
155.585
20
-66.8246
11
155.588
21
-66.821
0
LINE
8
BLACK
6
CONTINUOUS
10
155.588
20
-66.821
11
155.591
21
-66.8173
0
LINE
8
BLACK
6
CONTINUOUS
10
155.591
20
-66.8173
11
155.591
21
-66.8172
0
LINE
8
BLACK
6
CONTINUOUS
10
155.591
20
-66.8172
11
155.591
21
-66.8171
0
LINE
8
BLACK
6
CONTINUOUS
10
155.591
20
-66.8171
11
155.594
21
-66.8142
0
LINE
8
BLACK
6
CONTINUOUS
10
155.594
20
-66.8142
11
155.598
21
-66.8112
0
LINE
8
BLACK
6
CONTINUOUS
10
155.598
20
-66.8112
11
155.598
21
-66.8111
0
LINE
8
BLACK
6
CONTINUOUS
10
155.598
20
-66.8111
11
155.598
21
-66.811
0
LINE
8
BLACK
6
CONTINUOUS
10
155.598
20
-66.811
11
155.603
21
-66.8088
0
LINE
8
BLACK
6
CONTINUOUS
10
155.603
20
-66.8088
11
155.607
21
-66.8066
0
LINE
8
BLACK
6
CONTINUOUS
10
155.607
20
-66.8066
11
155.607
21
-66.8065
0
LINE
8
BLACK
6
CONTINUOUS
10
155.607
20
-66.8065
11
155.607
21
-66.8064
0
LINE
8
BLACK
6
CONTINUOUS
10
155.607
20
-66.8064
11
155.612
21
-66.8051
0
LINE
8
BLACK
6
CONTINUOUS
10
155.612
20
-66.8051
11
155.616
21
-66.8038
0
LINE
8
BLACK
6
CONTINUOUS
10
155.616
20
-66.8038
11
155.616
21
-66.8037
0
LINE
8
BLACK
6
CONTINUOUS
10
155.616
20
-66.8037
11
155.616
21
-66.8037
0
LINE
8
BLACK
6
CONTINUOUS
10
155.616
20
-66.8037
11
155.621
21
-66.8033
0
LINE
8
BLACK
6
CONTINUOUS
10
155.621
20
-66.8033
11
155.626
21
-66.8028
0
LINE
8
BLACK
6
CONTINUOUS
10
155.626
20
-66.8028
11
156.261
21
-66.8028
0
LINE
8
BLACK
6
CONTINUOUS
10
156.261
20
-66.8028
11
156.261
21
-66.8028
0
LINE
8
BLACK
6
CONTINUOUS
10
157.531
20
-66.8028
11
157.531
21
-66.8028
0
LINE
8
BLACK
6
CONTINUOUS
10
157.531
20
-66.8028
11
157.531
21
-66.8028
0
LINE
8
BLACK
6
CONTINUOUS
10
157.531
20
-66.8028
11
157.531
21
-66.8028
0
LINE
8
BLACK
6
CONTINUOUS
10
157.531
20
-66.8028
11
157.536
21
-66.8033
0
LINE
8
BLACK
6
CONTINUOUS
10
157.536
20
-66.8033
11
157.541
21
-66.8038
0
LINE
8
BLACK
6
CONTINUOUS
10
157.541
20
-66.8038
11
157.541
21
-66.8039
0
LINE
8
BLACK
6
CONTINUOUS
10
157.541
20
-66.8039
11
157.541
21
-66.8039
0
LINE
8
BLACK
6
CONTINUOUS
10
157.541
20
-66.8039
11
157.546
21
-66.8053
0
LINE
8
BLACK
6
CONTINUOUS
10
157.546
20
-66.8053
11
157.55
21
-66.8067
0
LINE
8
BLACK
6
CONTINUOUS
10
157.55
20
-66.8067
11
157.55
21
-66.8068
0
LINE
8
BLACK
6
CONTINUOUS
10
157.55
20
-66.8068
11
157.55
21
-66.8068
0
LINE
8
BLACK
6
CONTINUOUS
10
157.55
20
-66.8068
11
157.555
21
-66.8091
0
LINE
8
BLACK
6
CONTINUOUS
10
157.555
20
-66.8091
11
157.559
21
-66.8113
0
LINE
8
BLACK
6
CONTINUOUS
10
157.559
20
-66.8113
11
157.559
21
-66.8115
0
LINE
8
BLACK
6
CONTINUOUS
10
157.559
20
-66.8115
11
157.559
21
-66.8115
0
LINE
8
BLACK
6
CONTINUOUS
10
157.559
20
-66.8115
11
157.563
21
-66.8145
0
LINE
8
BLACK
6
CONTINUOUS
10
157.563
20
-66.8145
11
157.566
21
-66.8176
0
LINE
8
BLACK
6
CONTINUOUS
10
157.566
20
-66.8176
11
157.566
21
-66.8177
0
LINE
8
BLACK
6
CONTINUOUS
10
157.566
20
-66.8177
11
157.567
21
-66.8178
0
LINE
8
BLACK
6
CONTINUOUS
10
157.567
20
-66.8178
11
157.569
21
-66.8214
0
LINE
8
BLACK
6
CONTINUOUS
10
157.569
20
-66.8214
11
157.572
21
-66.8251
0
LINE
8
BLACK
6
CONTINUOUS
10
157.572
20
-66.8251
11
157.573
21
-66.8253
0
LINE
8
BLACK
6
CONTINUOUS
10
157.573
20
-66.8253
11
157.573
21
-66.8254
0
LINE
8
BLACK
6
CONTINUOUS
10
157.573
20
-66.8254
11
157.575
21
-66.8295
0
LINE
8
BLACK
6
CONTINUOUS
10
157.575
20
-66.8295
11
157.577
21
-66.8337
0
LINE
8
BLACK
6
CONTINUOUS
10
157.577
20
-66.8337
11
157.577
21
-66.8339
0
LINE
8
BLACK
6
CONTINUOUS
10
157.577
20
-66.8339
11
157.577
21
-66.8341
0
LINE
8
BLACK
6
CONTINUOUS
10
157.577
20
-66.8341
11
157.578
21
-66.8385
0
LINE
8
BLACK
6
CONTINUOUS
10
157.578
20
-66.8385
11
157.58
21
-66.8431
0
LINE
8
BLACK
6
CONTINUOUS
10
157.58
20
-66.8431
11
157.58
21
-66.8433
0
LINE
8
BLACK
6
CONTINUOUS
10
157.58
20
-66.8433
11
157.58
21
-66.8434
0
LINE
8
BLACK
6
CONTINUOUS
10
157.58
20
-66.8434
11
157.58
21
-66.8481
0
LINE
8
BLACK
6
CONTINUOUS
10
157.58
20
-66.8481
11
157.581
21
-66.8528
0
LINE
8
BLACK
6
CONTINUOUS
10
157.581
20
-66.8528
11
157.581
21
-67.4878
0
LINE
8
BLACK
6
CONTINUOUS
10
157.581
20
-67.4878
11
157.581
21
-67.4881
0
LINE
8
BLACK
6
CONTINUOUS
10
157.581
20
-67.4881
11
157.581
21
-67.4881
0
LINE
8
BLACK
6
CONTINUOUS
10
157.581
20
-67.4881
11
157.581
21
-67.4882
0
LINE
8
BLACK
6
CONTINUOUS
10
157.581
20
-67.4882
11
157.581
21
-67.4885
0
LINE
8
BLACK
6
CONTINUOUS
10
157.581
20
-67.4885
11
157.58
21
-67.4931
0
LINE
8
BLACK
6
CONTINUOUS
10
157.58
20
-67.4931
11
157.58
21
-67.4979
0
LINE
8
BLACK
6
CONTINUOUS
10
157.58
20
-67.4979
11
157.58
21
-67.498
0
LINE
8
BLACK
6
CONTINUOUS
10
157.58
20
-67.498
11
157.58
21
-67.4982
0
LINE
8
BLACK
6
CONTINUOUS
10
157.58
20
-67.4982
11
157.578
21
-67.5027
0
LINE
8
BLACK
6
CONTINUOUS
10
157.578
20
-67.5027
11
157.577
21
-67.5072
0
LINE
8
BLACK
6
CONTINUOUS
10
157.577
20
-67.5072
11
157.577
21
-67.5073
0
LINE
8
BLACK
6
CONTINUOUS
10
157.577
20
-67.5073
11
157.577
21
-67.5075
0
LINE
8
BLACK
6
CONTINUOUS
10
157.577
20
-67.5075
11
157.574
21
-67.5116
0
LINE
8
BLACK
6
CONTINUOUS
10
157.574
20
-67.5116
11
157.572
21
-67.5158
0
LINE
8
BLACK
6
CONTINUOUS
10
157.572
20
-67.5158
11
157.572
21
-67.5159
0
LINE
8
BLACK
6
CONTINUOUS
10
157.572
20
-67.5159
11
157.572
21
-67.516
0
LINE
8
BLACK
6
CONTINUOUS
10
157.572
20
-67.516
11
157.569
21
-67.5196
0
LINE
8
BLACK
6
CONTINUOUS
10
157.569
20
-67.5196
11
157.566
21
-67.5233
0
LINE
8
BLACK
6
CONTINUOUS
10
157.566
20
-67.5233
11
157.566
21
-67.5234
0
LINE
8
BLACK
6
CONTINUOUS
10
157.566
20
-67.5234
11
157.566
21
-67.5235
0
LINE
8
BLACK
6
CONTINUOUS
10
157.566
20
-67.5235
11
157.562
21
-67.5264
0
LINE
8
BLACK
6
CONTINUOUS
10
157.562
20
-67.5264
11
157.558
21
-67.5294
0
LINE
8
BLACK
6
CONTINUOUS
10
157.558
20
-67.5294
11
157.558
21
-67.5295
0
LINE
8
BLACK
6
CONTINUOUS
10
157.558
20
-67.5295
11
157.558
21
-67.5296
0
LINE
8
BLACK
6
CONTINUOUS
10
157.558
20
-67.5296
11
157.554
21
-67.5318
0
LINE
8
BLACK
6
CONTINUOUS
10
157.554
20
-67.5318
11
157.55
21
-67.534
0
LINE
8
BLACK
6
CONTINUOUS
10
157.55
20
-67.534
11
157.55
21
-67.5341
0
LINE
8
BLACK
6
CONTINUOUS
10
157.55
20
-67.5341
11
157.55
21
-67.5342
0
LINE
8
BLACK
6
CONTINUOUS
10
157.55
20
-67.5342
11
157.545
21
-67.5355
0
LINE
8
BLACK
6
CONTINUOUS
10
157.545
20
-67.5355
11
157.541
21
-67.5368
0
LINE
8
BLACK
6
CONTINUOUS
10
157.541
20
-67.5368
11
157.54
21
-67.5369
0
LINE
8
BLACK
6
CONTINUOUS
10
157.54
20
-67.5369
11
157.54
21
-67.5369
0
LINE
8
BLACK
6
CONTINUOUS
10
157.54
20
-67.5369
11
157.536
21
-67.5373
0
LINE
8
BLACK
6
CONTINUOUS
10
157.536
20
-67.5373
11
157.531
21
-67.5378
0
LINE
8
BLACK
6
CONTINUOUS
10
157.531
20
-67.5378
11
156.896
21
-67.5378
0
LINE
8
BLACK
6
CONTINUOUS
10
156.896
20
-67.5378
11
156.895
21
-67.5378
0
LINE
8
BLACK
6
CONTINUOUS
10
156.895
20
-67.5378
11
156.895
21
-67.5378
0
LINE
8
BLACK
6
CONTINUOUS
10
156.895
20
-67.5378
11
156.895
21
-67.5378
0
LINE
8
BLACK
6
CONTINUOUS
10
156.895
20
-67.5378
11
156.895
21
-67.5378
0
LINE
8
BLACK
6
CONTINUOUS
10
156.895
20
-67.5378
11
156.89
21
-67.5373
0
LINE
8
BLACK
6
CONTINUOUS
10
156.89
20
-67.5373
11
156.886
21
-67.5368
0
LINE
8
BLACK
6
CONTINUOUS
10
156.886
20
-67.5368
11
156.886
21
-67.5367
0
LINE
8
BLACK
6
CONTINUOUS
10
156.886
20
-67.5367
11
156.885
21
-67.5367
0
LINE
8
BLACK
6
CONTINUOUS
10
156.885
20
-67.5367
11
156.881
21
-67.5353
0
LINE
8
BLACK
6
CONTINUOUS
10
156.881
20
-67.5353
11
156.876
21
-67.5339
0
LINE
8
BLACK
6
CONTINUOUS
10
156.876
20
-67.5339
11
156.876
21
-67.5338
0
LINE
8
BLACK
6
CONTINUOUS
10
156.876
20
-67.5338
11
156.876
21
-67.5338
0
LINE
8
BLACK
6
CONTINUOUS
10
156.876
20
-67.5338
11
156.872
21
-67.5315
0
LINE
8
BLACK
6
CONTINUOUS
10
156.872
20
-67.5315
11
156.868
21
-67.5293
0
LINE
8
BLACK
6
CONTINUOUS
10
156.868
20
-67.5293
11
156.868
21
-67.5291
0
LINE
8
BLACK
6
CONTINUOUS
10
156.868
20
-67.5291
11
156.868
21
-67.5291
0
LINE
8
BLACK
6
CONTINUOUS
10
156.868
20
-67.5291
11
156.864
21
-67.5261
0
LINE
8
BLACK
6
CONTINUOUS
10
156.864
20
-67.5261
11
156.86
21
-67.523
0
LINE
8
BLACK
6
CONTINUOUS
10
156.86
20
-67.523
11
156.86
21
-67.5229
0
LINE
8
BLACK
6
CONTINUOUS
10
156.86
20
-67.5229
11
156.86
21
-67.5228
0
LINE
8
BLACK
6
CONTINUOUS
10
156.86
20
-67.5228
11
156.857
21
-67.5192
0
LINE
8
BLACK
6
CONTINUOUS
10
156.857
20
-67.5192
11
156.854
21
-67.5155
0
LINE
8
BLACK
6
CONTINUOUS
10
156.854
20
-67.5155
11
156.854
21
-67.5153
0
LINE
8
BLACK
6
CONTINUOUS
10
156.854
20
-67.5153
11
156.854
21
-67.5152
0
LINE
8
BLACK
6
CONTINUOUS
10
156.854
20
-67.5152
11
156.852
21
-67.5111
0
LINE
8
BLACK
6
CONTINUOUS
10
156.852
20
-67.5111
11
156.85
21
-67.5069
0
LINE
8
BLACK
6
CONTINUOUS
10
156.85
20
-67.5069
11
156.85
21
-67.5067
0
LINE
8
BLACK
6
CONTINUOUS
10
156.85
20
-67.5067
11
156.849
21
-67.5065
0
LINE
8
BLACK
6
CONTINUOUS
10
156.849
20
-67.5065
11
156.848
21
-67.5021
0
LINE
8
BLACK
6
CONTINUOUS
10
156.848
20
-67.5021
11
156.847
21
-67.4975
0
LINE
8
BLACK
6
CONTINUOUS
10
156.847
20
-67.4975
11
156.847
21
-67.4973
0
LINE
8
BLACK
6
CONTINUOUS
10
156.847
20
-67.4973
11
156.847
21
-67.4972
0
LINE
8
BLACK
6
CONTINUOUS
10
156.847
20
-67.4972
11
156.846
21
-67.4925
0
LINE
8
BLACK
6
CONTINUOUS
10
156.846
20
-67.4925
11
156.846
21
-67.4878
0
LINE
8
BLACK
6
CONTINUOUS
10
156.846
20
-67.4878
11
156.846
21
-66.8528
0
LINE
8
BLACK
6
CONTINUOUS
10
156.846
20
-66.8528
11
156.846
21
-66.8525
0
LINE
8
BLACK
6
CONTINUOUS
10
156.846
20
-66.8525
11
156.846
21
-66.8525
0
LINE
8
BLACK
6
CONTINUOUS
10
156.846
20
-66.8525
11
156.846
21
-66.8524
0
LINE
8
BLACK
6
CONTINUOUS
10
156.846
20
-66.8524
11
156.846
21
-66.8521
0
LINE
8
BLACK
6
CONTINUOUS
10
156.846
20
-66.8521
11
156.846
21
-66.8475
0
LINE
8
BLACK
6
CONTINUOUS
10
156.846
20
-66.8475
11
156.847
21
-66.8427
0
LINE
8
BLACK
6
CONTINUOUS
10
156.847
20
-66.8427
11
156.847
21
-66.8426
0
LINE
8
BLACK
6
CONTINUOUS
10
156.847
20
-66.8426
11
156.847
21
-66.8424
0
LINE
8
BLACK
6
CONTINUOUS
10
156.847
20
-66.8424
11
156.848
21
-66.8379
0
LINE
8
BLACK
6
CONTINUOUS
10
156.848
20
-66.8379
11
156.85
21
-66.8334
0
LINE
8
BLACK
6
CONTINUOUS
10
156.85
20
-66.8334
11
156.85
21
-66.8333
0
LINE
8
BLACK
6
CONTINUOUS
10
156.85
20
-66.8333
11
156.85
21
-66.8331
0
LINE
8
BLACK
6
CONTINUOUS
10
156.85
20
-66.8331
11
156.852
21
-66.829
0
LINE
8
BLACK
6
CONTINUOUS
10
156.852
20
-66.829
11
156.854
21
-66.8248
0
LINE
8
BLACK
6
CONTINUOUS
10
156.854
20
-66.8248
11
156.854
21
-66.8247
0
LINE
8
BLACK
6
CONTINUOUS
10
156.854
20
-66.8247
11
156.855
21
-66.8246
0
LINE
8
BLACK
6
CONTINUOUS
10
156.855
20
-66.8246
11
156.858
21
-66.821
0
LINE
8
BLACK
6
CONTINUOUS
10
156.858
20
-66.821
11
156.861
21
-66.8173
0
LINE
8
BLACK
6
CONTINUOUS
10
156.861
20
-66.8173
11
156.861
21
-66.8172
0
LINE
8
BLACK
6
CONTINUOUS
10
156.861
20
-66.8172
11
156.861
21
-66.8171
0
LINE
8
BLACK
6
CONTINUOUS
10
156.861
20
-66.8171
11
156.864
21
-66.8142
0
LINE
8
BLACK
6
CONTINUOUS
10
156.864
20
-66.8142
11
156.868
21
-66.8112
0
LINE
8
BLACK
6
CONTINUOUS
10
156.868
20
-66.8112
11
156.868
21
-66.8111
0
LINE
8
BLACK
6
CONTINUOUS
10
156.868
20
-66.8111
11
156.868
21
-66.811
0
LINE
8
BLACK
6
CONTINUOUS
10
156.868
20
-66.811
11
156.873
21
-66.8088
0
LINE
8
BLACK
6
CONTINUOUS
10
156.873
20
-66.8088
11
156.877
21
-66.8066
0
LINE
8
BLACK
6
CONTINUOUS
10
156.877
20
-66.8066
11
156.877
21
-66.8065
0
LINE
8
BLACK
6
CONTINUOUS
10
156.877
20
-66.8065
11
156.877
21
-66.8064
0
LINE
8
BLACK
6
CONTINUOUS
10
156.877
20
-66.8064
11
156.882
21
-66.8051
0
LINE
8
BLACK
6
CONTINUOUS
10
156.882
20
-66.8051
11
156.886
21
-66.8038
0
LINE
8
BLACK
6
CONTINUOUS
10
156.886
20
-66.8038
11
156.886
21
-66.8037
0
LINE
8
BLACK
6
CONTINUOUS
10
156.886
20
-66.8037
11
156.886
21
-66.8037
0
LINE
8
BLACK
6
CONTINUOUS
10
156.886
20
-66.8037
11
156.891
21
-66.8033
0
LINE
8
BLACK
6
CONTINUOUS
10
156.891
20
-66.8033
11
156.896
21
-66.8028
0
LINE
8
BLACK
6
CONTINUOUS
10
156.896
20
-66.8028
11
157.531
21
-66.8028
0
LINE
8
BLACK
6
CONTINUOUS
10
157.531
20
-66.8028
11
157.531
21
-66.8028
0
LINE
8
BLACK
6
CONTINUOUS
10
158.165
20
-66.2678
11
158.165
21
-66.2678
0
LINE
8
BLACK
6
CONTINUOUS
10
158.165
20
-66.2678
11
158.165
21
-66.2678
0
LINE
8
BLACK
6
CONTINUOUS
10
158.165
20
-66.2678
11
158.165
21
-66.2678
0
LINE
8
BLACK
6
CONTINUOUS
10
158.165
20
-66.2678
11
158.16
21
-66.2673
0
LINE
8
BLACK
6
CONTINUOUS
10
158.16
20
-66.2673
11
158.156
21
-66.2668
0
LINE
8
BLACK
6
CONTINUOUS
10
158.156
20
-66.2668
11
158.156
21
-66.2667
0
LINE
8
BLACK
6
CONTINUOUS
10
158.156
20
-66.2667
11
158.155
21
-66.2667
0
LINE
8
BLACK
6
CONTINUOUS
10
158.155
20
-66.2667
11
158.151
21
-66.2653
0
LINE
8
BLACK
6
CONTINUOUS
10
158.151
20
-66.2653
11
158.146
21
-66.2639
0
LINE
8
BLACK
6
CONTINUOUS
10
158.146
20
-66.2639
11
158.146
21
-66.2638
0
LINE
8
BLACK
6
CONTINUOUS
10
158.146
20
-66.2638
11
158.146
21
-66.2638
0
LINE
8
BLACK
6
CONTINUOUS
10
158.146
20
-66.2638
11
158.142
21
-66.2615
0
LINE
8
BLACK
6
CONTINUOUS
10
158.142
20
-66.2615
11
158.138
21
-66.2593
0
LINE
8
BLACK
6
CONTINUOUS
10
158.138
20
-66.2593
11
158.138
21
-66.2591
0
LINE
8
BLACK
6
CONTINUOUS
10
158.138
20
-66.2591
11
158.138
21
-66.2591
0
LINE
8
BLACK
6
CONTINUOUS
10
158.138
20
-66.2591
11
158.134
21
-66.2561
0
LINE
8
BLACK
6
CONTINUOUS
10
158.134
20
-66.2561
11
158.13
21
-66.253
0
LINE
8
BLACK
6
CONTINUOUS
10
158.13
20
-66.253
11
158.13
21
-66.2529
0
LINE
8
BLACK
6
CONTINUOUS
10
158.13
20
-66.2529
11
158.13
21
-66.2528
0
LINE
8
BLACK
6
CONTINUOUS
10
158.13
20
-66.2528
11
158.127
21
-66.2492
0
LINE
8
BLACK
6
CONTINUOUS
10
158.127
20
-66.2492
11
158.124
21
-66.2455
0
LINE
8
BLACK
6
CONTINUOUS
10
158.124
20
-66.2455
11
158.124
21
-66.2453
0
LINE
8
BLACK
6
CONTINUOUS
10
158.124
20
-66.2453
11
158.124
21
-66.2452
0
LINE
8
BLACK
6
CONTINUOUS
10
158.124
20
-66.2452
11
158.122
21
-66.2411
0
LINE
8
BLACK
6
CONTINUOUS
10
158.122
20
-66.2411
11
158.12
21
-66.2369
0
LINE
8
BLACK
6
CONTINUOUS
10
158.12
20
-66.2369
11
158.12
21
-66.2367
0
LINE
8
BLACK
6
CONTINUOUS
10
158.12
20
-66.2367
11
158.119
21
-66.2365
0
LINE
8
BLACK
6
CONTINUOUS
10
158.119
20
-66.2365
11
158.118
21
-66.2321
0
LINE
8
BLACK
6
CONTINUOUS
10
158.118
20
-66.2321
11
158.117
21
-66.2275
0
LINE
8
BLACK
6
CONTINUOUS
10
158.117
20
-66.2275
11
158.117
21
-66.2273
0
LINE
8
BLACK
6
CONTINUOUS
10
158.117
20
-66.2273
11
158.117
21
-66.2272
0
LINE
8
BLACK
6
CONTINUOUS
10
158.117
20
-66.2272
11
158.116
21
-66.2225
0
LINE
8
BLACK
6
CONTINUOUS
10
158.116
20
-66.2225
11
158.116
21
-66.2178
0
LINE
8
BLACK
6
CONTINUOUS
10
158.116
20
-66.2178
11
158.116
21
-65.5828
0
LINE
8
BLACK
6
CONTINUOUS
10
158.116
20
-65.5828
11
158.116
21
-65.5825
0
LINE
8
BLACK
6
CONTINUOUS
10
158.116
20
-65.5825
11
158.116
21
-65.5825
0
LINE
8
BLACK
6
CONTINUOUS
10
158.116
20
-65.5825
11
158.116
21
-65.5824
0
LINE
8
BLACK
6
CONTINUOUS
10
158.116
20
-65.5824
11
158.116
21
-65.5821
0
LINE
8
BLACK
6
CONTINUOUS
10
158.116
20
-65.5821
11
158.116
21
-65.5775
0
LINE
8
BLACK
6
CONTINUOUS
10
158.116
20
-65.5775
11
158.117
21
-65.5727
0
LINE
8
BLACK
6
CONTINUOUS
10
158.117
20
-65.5727
11
158.117
21
-65.5726
0
LINE
8
BLACK
6
CONTINUOUS
10
158.117
20
-65.5726
11
158.117
21
-65.5724
0
LINE
8
BLACK
6
CONTINUOUS
10
158.117
20
-65.5724
11
158.118
21
-65.5679
0
LINE
8
BLACK
6
CONTINUOUS
10
158.118
20
-65.5679
11
158.12
21
-65.5634
0
LINE
8
BLACK
6
CONTINUOUS
10
158.12
20
-65.5634
11
158.12
21
-65.5633
0
LINE
8
BLACK
6
CONTINUOUS
10
158.12
20
-65.5633
11
158.12
21
-65.5631
0
LINE
8
BLACK
6
CONTINUOUS
10
158.12
20
-65.5631
11
158.122
21
-65.559
0
LINE
8
BLACK
6
CONTINUOUS
10
158.122
20
-65.559
11
158.124
21
-65.5548
0
LINE
8
BLACK
6
CONTINUOUS
10
158.124
20
-65.5548
11
158.124
21
-65.5547
0
LINE
8
BLACK
6
CONTINUOUS
10
158.124
20
-65.5547
11
158.125
21
-65.5546
0
LINE
8
BLACK
6
CONTINUOUS
10
158.125
20
-65.5546
11
158.128
21
-65.551
0
LINE
8
BLACK
6
CONTINUOUS
10
158.128
20
-65.551
11
158.131
21
-65.5473
0
LINE
8
BLACK
6
CONTINUOUS
10
158.131
20
-65.5473
11
158.131
21
-65.5472
0
LINE
8
BLACK
6
CONTINUOUS
10
158.131
20
-65.5472
11
158.131
21
-65.5471
0
LINE
8
BLACK
6
CONTINUOUS
10
158.131
20
-65.5471
11
158.134
21
-65.5442
0
LINE
8
BLACK
6
CONTINUOUS
10
158.134
20
-65.5442
11
158.138
21
-65.5412
0
LINE
8
BLACK
6
CONTINUOUS
10
158.138
20
-65.5412
11
158.138
21
-65.5411
0
LINE
8
BLACK
6
CONTINUOUS
10
158.138
20
-65.5411
11
158.138
21
-65.541
0
LINE
8
BLACK
6
CONTINUOUS
10
158.138
20
-65.541
11
158.143
21
-65.5388
0
LINE
8
BLACK
6
CONTINUOUS
10
158.143
20
-65.5388
11
158.147
21
-65.5366
0
LINE
8
BLACK
6
CONTINUOUS
10
158.147
20
-65.5366
11
158.147
21
-65.5365
0
LINE
8
BLACK
6
CONTINUOUS
10
158.147
20
-65.5365
11
158.147
21
-65.5364
0
LINE
8
BLACK
6
CONTINUOUS
10
158.147
20
-65.5364
11
158.152
21
-65.5351
0
LINE
8
BLACK
6
CONTINUOUS
10
158.152
20
-65.5351
11
158.156
21
-65.5338
0
LINE
8
BLACK
6
CONTINUOUS
10
158.156
20
-65.5338
11
158.156
21
-65.5337
0
LINE
8
BLACK
6
CONTINUOUS
10
158.156
20
-65.5337
11
158.156
21
-65.5337
0
LINE
8
BLACK
6
CONTINUOUS
10
158.156
20
-65.5337
11
158.161
21
-65.5333
0
LINE
8
BLACK
6
CONTINUOUS
10
158.161
20
-65.5333
11
158.166
21
-65.5328
0
LINE
8
BLACK
6
CONTINUOUS
10
158.166
20
-65.5328
11
160.071
21
-65.5328
0
LINE
8
BLACK
6
CONTINUOUS
10
160.071
20
-65.5328
11
160.071
21
-65.5328
0
LINE
8
BLACK
6
CONTINUOUS
10
160.071
20
-65.5328
11
160.071
21
-65.5328
0
LINE
8
BLACK
6
CONTINUOUS
10
160.071
20
-65.5328
11
160.071
21
-65.5328
0
LINE
8
BLACK
6
CONTINUOUS
10
160.071
20
-65.5328
11
160.071
21
-65.5328
0
LINE
8
BLACK
6
CONTINUOUS
10
160.071
20
-65.5328
11
160.076
21
-65.5333
0
LINE
8
BLACK
6
CONTINUOUS
10
160.076
20
-65.5333
11
160.081
21
-65.5338
0
LINE
8
BLACK
6
CONTINUOUS
10
160.081
20
-65.5338
11
160.081
21
-65.5339
0
LINE
8
BLACK
6
CONTINUOUS
10
160.081
20
-65.5339
11
160.081
21
-65.5339
0
LINE
8
BLACK
6
CONTINUOUS
10
160.081
20
-65.5339
11
160.086
21
-65.5353
0
LINE
8
BLACK
6
CONTINUOUS
10
160.086
20
-65.5353
11
160.09
21
-65.5367
0
LINE
8
BLACK
6
CONTINUOUS
10
160.09
20
-65.5367
11
160.09
21
-65.5368
0
LINE
8
BLACK
6
CONTINUOUS
10
160.09
20
-65.5368
11
160.09
21
-65.5368
0
LINE
8
BLACK
6
CONTINUOUS
10
160.09
20
-65.5368
11
160.095
21
-65.5391
0
LINE
8
BLACK
6
CONTINUOUS
10
160.095
20
-65.5391
11
160.099
21
-65.5413
0
LINE
8
BLACK
6
CONTINUOUS
10
160.099
20
-65.5413
11
160.099
21
-65.5415
0
LINE
8
BLACK
6
CONTINUOUS
10
160.099
20
-65.5415
11
160.099
21
-65.5415
0
LINE
8
BLACK
6
CONTINUOUS
10
160.099
20
-65.5415
11
160.103
21
-65.5445
0
LINE
8
BLACK
6
CONTINUOUS
10
160.103
20
-65.5445
11
160.106
21
-65.5476
0
LINE
8
BLACK
6
CONTINUOUS
10
160.106
20
-65.5476
11
160.106
21
-65.5477
0
LINE
8
BLACK
6
CONTINUOUS
10
160.106
20
-65.5477
11
160.107
21
-65.5478
0
LINE
8
BLACK
6
CONTINUOUS
10
160.107
20
-65.5478
11
160.109
21
-65.5514
0
LINE
8
BLACK
6
CONTINUOUS
10
160.109
20
-65.5514
11
160.112
21
-65.5551
0
LINE
8
BLACK
6
CONTINUOUS
10
160.112
20
-65.5551
11
160.113
21
-65.5553
0
LINE
8
BLACK
6
CONTINUOUS
10
160.113
20
-65.5553
11
160.113
21
-65.5554
0
LINE
8
BLACK
6
CONTINUOUS
10
160.113
20
-65.5554
11
160.115
21
-65.5595
0
LINE
8
BLACK
6
CONTINUOUS
10
160.115
20
-65.5595
11
160.117
21
-65.5637
0
LINE
8
BLACK
6
CONTINUOUS
10
160.117
20
-65.5637
11
160.117
21
-65.5639
0
LINE
8
BLACK
6
CONTINUOUS
10
160.117
20
-65.5639
11
160.117
21
-65.5641
0
LINE
8
BLACK
6
CONTINUOUS
10
160.117
20
-65.5641
11
160.118
21
-65.5685
0
LINE
8
BLACK
6
CONTINUOUS
10
160.118
20
-65.5685
11
160.12
21
-65.5731
0
LINE
8
BLACK
6
CONTINUOUS
10
160.12
20
-65.5731
11
160.12
21
-65.5733
0
LINE
8
BLACK
6
CONTINUOUS
10
160.12
20
-65.5733
11
160.12
21
-65.5734
0
LINE
8
BLACK
6
CONTINUOUS
10
160.12
20
-65.5734
11
160.12
21
-65.5781
0
LINE
8
BLACK
6
CONTINUOUS
10
160.12
20
-65.5781
11
160.121
21
-65.5828
0
LINE
8
BLACK
6
CONTINUOUS
10
160.121
20
-65.5828
11
160.121
21
-66.2178
0
LINE
8
BLACK
6
CONTINUOUS
10
160.121
20
-66.2178
11
160.121
21
-66.2181
0
LINE
8
BLACK
6
CONTINUOUS
10
160.121
20
-66.2181
11
160.121
21
-66.2181
0
LINE
8
BLACK
6
CONTINUOUS
10
160.121
20
-66.2181
11
160.121
21
-66.2182
0
LINE
8
BLACK
6
CONTINUOUS
10
160.121
20
-66.2182
11
160.121
21
-66.2185
0
LINE
8
BLACK
6
CONTINUOUS
10
160.121
20
-66.2185
11
160.12
21
-66.2231
0
LINE
8
BLACK
6
CONTINUOUS
10
160.12
20
-66.2231
11
160.12
21
-66.2279
0
LINE
8
BLACK
6
CONTINUOUS
10
160.12
20
-66.2279
11
160.12
21
-66.228
0
LINE
8
BLACK
6
CONTINUOUS
10
160.12
20
-66.228
11
160.12
21
-66.2282
0
LINE
8
BLACK
6
CONTINUOUS
10
160.12
20
-66.2282
11
160.118
21
-66.2327
0
LINE
8
BLACK
6
CONTINUOUS
10
160.118
20
-66.2327
11
160.117
21
-66.2372
0
LINE
8
BLACK
6
CONTINUOUS
10
160.117
20
-66.2372
11
160.117
21
-66.2373
0
LINE
8
BLACK
6
CONTINUOUS
10
160.117
20
-66.2373
11
160.117
21
-66.2375
0
LINE
8
BLACK
6
CONTINUOUS
10
160.117
20
-66.2375
11
160.114
21
-66.2416
0
LINE
8
BLACK
6
CONTINUOUS
10
160.114
20
-66.2416
11
160.112
21
-66.2458
0
LINE
8
BLACK
6
CONTINUOUS
10
160.112
20
-66.2458
11
160.112
21
-66.2459
0
LINE
8
BLACK
6
CONTINUOUS
10
160.112
20
-66.2459
11
160.112
21
-66.246
0
LINE
8
BLACK
6
CONTINUOUS
10
160.112
20
-66.246
11
160.109
21
-66.2496
0
LINE
8
BLACK
6
CONTINUOUS
10
160.109
20
-66.2496
11
160.106
21
-66.2533
0
LINE
8
BLACK
6
CONTINUOUS
10
160.106
20
-66.2533
11
160.106
21
-66.2534
0
LINE
8
BLACK
6
CONTINUOUS
10
160.106
20
-66.2534
11
160.106
21
-66.2535
0
LINE
8
BLACK
6
CONTINUOUS
10
160.106
20
-66.2535
11
160.102
21
-66.2564
0
LINE
8
BLACK
6
CONTINUOUS
10
160.102
20
-66.2564
11
160.098
21
-66.2594
0
LINE
8
BLACK
6
CONTINUOUS
10
160.098
20
-66.2594
11
160.098
21
-66.2595
0
LINE
8
BLACK
6
CONTINUOUS
10
160.098
20
-66.2595
11
160.098
21
-66.2596
0
LINE
8
BLACK
6
CONTINUOUS
10
160.098
20
-66.2596
11
160.094
21
-66.2618
0
LINE
8
BLACK
6
CONTINUOUS
10
160.094
20
-66.2618
11
160.09
21
-66.264
0
LINE
8
BLACK
6
CONTINUOUS
10
160.09
20
-66.264
11
160.09
21
-66.2641
0
LINE
8
BLACK
6
CONTINUOUS
10
160.09
20
-66.2641
11
160.09
21
-66.2642
0
LINE
8
BLACK
6
CONTINUOUS
10
160.09
20
-66.2642
11
160.085
21
-66.2655
0
LINE
8
BLACK
6
CONTINUOUS
10
160.085
20
-66.2655
11
160.081
21
-66.2668
0
LINE
8
BLACK
6
CONTINUOUS
10
160.081
20
-66.2668
11
160.08
21
-66.2669
0
LINE
8
BLACK
6
CONTINUOUS
10
160.08
20
-66.2669
11
160.08
21
-66.2669
0
LINE
8
BLACK
6
CONTINUOUS
10
160.08
20
-66.2669
11
160.076
21
-66.2673
0
LINE
8
BLACK
6
CONTINUOUS
10
160.076
20
-66.2673
11
160.071
21
-66.2678
0
LINE
8
BLACK
6
CONTINUOUS
10
160.071
20
-66.2678
11
158.166
21
-66.2678
0
LINE
8
BLACK
6
CONTINUOUS
10
158.166
20
-66.2678
11
158.165
21
-66.2678
0
LINE
8
BLACK
6
CONTINUOUS
10
157.531
20
-65.5328
11
157.531
21
-65.5328
0
LINE
8
BLACK
6
CONTINUOUS
10
157.531
20
-65.5328
11
157.531
21
-65.5328
0
LINE
8
BLACK
6
CONTINUOUS
10
157.531
20
-65.5328
11
157.531
21
-65.5328
0
LINE
8
BLACK
6
CONTINUOUS
10
157.531
20
-65.5328
11
157.536
21
-65.5333
0
LINE
8
BLACK
6
CONTINUOUS
10
157.536
20
-65.5333
11
157.541
21
-65.5338
0
LINE
8
BLACK
6
CONTINUOUS
10
157.541
20
-65.5338
11
157.541
21
-65.5339
0
LINE
8
BLACK
6
CONTINUOUS
10
157.541
20
-65.5339
11
157.541
21
-65.5339
0
LINE
8
BLACK
6
CONTINUOUS
10
157.541
20
-65.5339
11
157.546
21
-65.5353
0
LINE
8
BLACK
6
CONTINUOUS
10
157.546
20
-65.5353
11
157.55
21
-65.5367
0
LINE
8
BLACK
6
CONTINUOUS
10
157.55
20
-65.5367
11
157.55
21
-65.5368
0
LINE
8
BLACK
6
CONTINUOUS
10
157.55
20
-65.5368
11
157.55
21
-65.5368
0
LINE
8
BLACK
6
CONTINUOUS
10
157.55
20
-65.5368
11
157.555
21
-65.5391
0
LINE
8
BLACK
6
CONTINUOUS
10
157.555
20
-65.5391
11
157.559
21
-65.5413
0
LINE
8
BLACK
6
CONTINUOUS
10
157.559
20
-65.5413
11
157.559
21
-65.5415
0
LINE
8
BLACK
6
CONTINUOUS
10
157.559
20
-65.5415
11
157.559
21
-65.5415
0
LINE
8
BLACK
6
CONTINUOUS
10
157.559
20
-65.5415
11
157.563
21
-65.5445
0
LINE
8
BLACK
6
CONTINUOUS
10
157.563
20
-65.5445
11
157.566
21
-65.5476
0
LINE
8
BLACK
6
CONTINUOUS
10
157.566
20
-65.5476
11
157.566
21
-65.5477
0
LINE
8
BLACK
6
CONTINUOUS
10
157.566
20
-65.5477
11
157.567
21
-65.5478
0
LINE
8
BLACK
6
CONTINUOUS
10
157.567
20
-65.5478
11
157.569
21
-65.5514
0
LINE
8
BLACK
6
CONTINUOUS
10
157.569
20
-65.5514
11
157.572
21
-65.5551
0
LINE
8
BLACK
6
CONTINUOUS
10
157.572
20
-65.5551
11
157.573
21
-65.5553
0
LINE
8
BLACK
6
CONTINUOUS
10
157.573
20
-65.5553
11
157.573
21
-65.5554
0
LINE
8
BLACK
6
CONTINUOUS
10
157.573
20
-65.5554
11
157.575
21
-65.5595
0
LINE
8
BLACK
6
CONTINUOUS
10
157.575
20
-65.5595
11
157.577
21
-65.5637
0
LINE
8
BLACK
6
CONTINUOUS
10
157.577
20
-65.5637
11
157.577
21
-65.5639
0
LINE
8
BLACK
6
CONTINUOUS
10
157.577
20
-65.5639
11
157.577
21
-65.5641
0
LINE
8
BLACK
6
CONTINUOUS
10
157.577
20
-65.5641
11
157.578
21
-65.5685
0
LINE
8
BLACK
6
CONTINUOUS
10
157.578
20
-65.5685
11
157.58
21
-65.5731
0
LINE
8
BLACK
6
CONTINUOUS
10
157.58
20
-65.5731
11
157.58
21
-65.5733
0
LINE
8
BLACK
6
CONTINUOUS
10
157.58
20
-65.5733
11
157.58
21
-65.5734
0
LINE
8
BLACK
6
CONTINUOUS
10
157.58
20
-65.5734
11
157.58
21
-65.5781
0
LINE
8
BLACK
6
CONTINUOUS
10
157.58
20
-65.5781
11
157.581
21
-65.5828
0
LINE
8
BLACK
6
CONTINUOUS
10
157.581
20
-65.5828
11
157.581
21
-66.2178
0
LINE
8
BLACK
6
CONTINUOUS
10
157.581
20
-66.2178
11
157.581
21
-66.2181
0
LINE
8
BLACK
6
CONTINUOUS
10
157.581
20
-66.2181
11
157.581
21
-66.2181
0
LINE
8
BLACK
6
CONTINUOUS
10
157.581
20
-66.2181
11
157.581
21
-66.2182
0
LINE
8
BLACK
6
CONTINUOUS
10
157.581
20
-66.2182
11
157.581
21
-66.2185
0
LINE
8
BLACK
6
CONTINUOUS
10
157.581
20
-66.2185
11
157.58
21
-66.2231
0
LINE
8
BLACK
6
CONTINUOUS
10
157.58
20
-66.2231
11
157.58
21
-66.2279
0
LINE
8
BLACK
6
CONTINUOUS
10
157.58
20
-66.2279
11
157.58
21
-66.228
0
LINE
8
BLACK
6
CONTINUOUS
10
157.58
20
-66.228
11
157.58
21
-66.2282
0
LINE
8
BLACK
6
CONTINUOUS
10
157.58
20
-66.2282
11
157.578
21
-66.2327
0
LINE
8
BLACK
6
CONTINUOUS
10
157.578
20
-66.2327
11
157.577
21
-66.2372
0
LINE
8
BLACK
6
CONTINUOUS
10
157.577
20
-66.2372
11
157.577
21
-66.2373
0
LINE
8
BLACK
6
CONTINUOUS
10
157.577
20
-66.2373
11
157.577
21
-66.2375
0
LINE
8
BLACK
6
CONTINUOUS
10
157.577
20
-66.2375
11
157.574
21
-66.2416
0
LINE
8
BLACK
6
CONTINUOUS
10
157.574
20
-66.2416
11
157.572
21
-66.2458
0
LINE
8
BLACK
6
CONTINUOUS
10
157.572
20
-66.2458
11
157.572
21
-66.2459
0
LINE
8
BLACK
6
CONTINUOUS
10
157.572
20
-66.2459
11
157.572
21
-66.246
0
LINE
8
BLACK
6
CONTINUOUS
10
157.572
20
-66.246
11
157.569
21
-66.2496
0
LINE
8
BLACK
6
CONTINUOUS
10
157.569
20
-66.2496
11
157.566
21
-66.2533
0
LINE
8
BLACK
6
CONTINUOUS
10
157.566
20
-66.2533
11
157.566
21
-66.2534
0
LINE
8
BLACK
6
CONTINUOUS
10
157.566
20
-66.2534
11
157.566
21
-66.2535
0
LINE
8
BLACK
6
CONTINUOUS
10
157.566
20
-66.2535
11
157.562
21
-66.2564
0
LINE
8
BLACK
6
CONTINUOUS
10
157.562
20
-66.2564
11
157.558
21
-66.2594
0
LINE
8
BLACK
6
CONTINUOUS
10
157.558
20
-66.2594
11
157.558
21
-66.2595
0
LINE
8
BLACK
6
CONTINUOUS
10
157.558
20
-66.2595
11
157.558
21
-66.2596
0
LINE
8
BLACK
6
CONTINUOUS
10
157.558
20
-66.2596
11
157.554
21
-66.2618
0
LINE
8
BLACK
6
CONTINUOUS
10
157.554
20
-66.2618
11
157.55
21
-66.264
0
LINE
8
BLACK
6
CONTINUOUS
10
157.55
20
-66.264
11
157.55
21
-66.2641
0
LINE
8
BLACK
6
CONTINUOUS
10
157.55
20
-66.2641
11
157.55
21
-66.2642
0
LINE
8
BLACK
6
CONTINUOUS
10
157.55
20
-66.2642
11
157.545
21
-66.2655
0
LINE
8
BLACK
6
CONTINUOUS
10
157.545
20
-66.2655
11
157.541
21
-66.2668
0
LINE
8
BLACK
6
CONTINUOUS
10
157.541
20
-66.2668
11
157.54
21
-66.2669
0
LINE
8
BLACK
6
CONTINUOUS
10
157.54
20
-66.2669
11
157.54
21
-66.2669
0
LINE
8
BLACK
6
CONTINUOUS
10
157.54
20
-66.2669
11
157.536
21
-66.2673
0
LINE
8
BLACK
6
CONTINUOUS
10
157.536
20
-66.2673
11
157.531
21
-66.2678
0
LINE
8
BLACK
6
CONTINUOUS
10
157.531
20
-66.2678
11
156.896
21
-66.2678
0
LINE
8
BLACK
6
CONTINUOUS
10
156.896
20
-66.2678
11
156.895
21
-66.2678
0
LINE
8
BLACK
6
CONTINUOUS
10
156.895
20
-66.2678
11
156.895
21
-66.2678
0
LINE
8
BLACK
6
CONTINUOUS
10
156.895
20
-66.2678
11
156.895
21
-66.2678
0
LINE
8
BLACK
6
CONTINUOUS
10
156.895
20
-66.2678
11
156.895
21
-66.2678
0
LINE
8
BLACK
6
CONTINUOUS
10
156.895
20
-66.2678
11
156.89
21
-66.2673
0
LINE
8
BLACK
6
CONTINUOUS
10
156.89
20
-66.2673
11
156.886
21
-66.2668
0
LINE
8
BLACK
6
CONTINUOUS
10
156.886
20
-66.2668
11
156.886
21
-66.2667
0
LINE
8
BLACK
6
CONTINUOUS
10
156.886
20
-66.2667
11
156.885
21
-66.2667
0
LINE
8
BLACK
6
CONTINUOUS
10
156.885
20
-66.2667
11
156.881
21
-66.2653
0
LINE
8
BLACK
6
CONTINUOUS
10
156.881
20
-66.2653
11
156.876
21
-66.2639
0
LINE
8
BLACK
6
CONTINUOUS
10
156.876
20
-66.2639
11
156.876
21
-66.2638
0
LINE
8
BLACK
6
CONTINUOUS
10
156.876
20
-66.2638
11
156.876
21
-66.2638
0
LINE
8
BLACK
6
CONTINUOUS
10
156.876
20
-66.2638
11
156.872
21
-66.2615
0
LINE
8
BLACK
6
CONTINUOUS
10
156.872
20
-66.2615
11
156.868
21
-66.2593
0
LINE
8
BLACK
6
CONTINUOUS
10
156.868
20
-66.2593
11
156.868
21
-66.2591
0
LINE
8
BLACK
6
CONTINUOUS
10
156.868
20
-66.2591
11
156.868
21
-66.2591
0
LINE
8
BLACK
6
CONTINUOUS
10
156.868
20
-66.2591
11
156.864
21
-66.2561
0
LINE
8
BLACK
6
CONTINUOUS
10
156.864
20
-66.2561
11
156.86
21
-66.253
0
LINE
8
BLACK
6
CONTINUOUS
10
156.86
20
-66.253
11
156.86
21
-66.2529
0
LINE
8
BLACK
6
CONTINUOUS
10
156.86
20
-66.2529
11
156.86
21
-66.2528
0
LINE
8
BLACK
6
CONTINUOUS
10
156.86
20
-66.2528
11
156.857
21
-66.2492
0
LINE
8
BLACK
6
CONTINUOUS
10
156.857
20
-66.2492
11
156.854
21
-66.2455
0
LINE
8
BLACK
6
CONTINUOUS
10
156.854
20
-66.2455
11
156.854
21
-66.2453
0
LINE
8
BLACK
6
CONTINUOUS
10
156.854
20
-66.2453
11
156.854
21
-66.2452
0
LINE
8
BLACK
6
CONTINUOUS
10
156.854
20
-66.2452
11
156.852
21
-66.2411
0
LINE
8
BLACK
6
CONTINUOUS
10
156.852
20
-66.2411
11
156.85
21
-66.2369
0
LINE
8
BLACK
6
CONTINUOUS
10
156.85
20
-66.2369
11
156.85
21
-66.2367
0
LINE
8
BLACK
6
CONTINUOUS
10
156.85
20
-66.2367
11
156.849
21
-66.2365
0
LINE
8
BLACK
6
CONTINUOUS
10
156.849
20
-66.2365
11
156.848
21
-66.2321
0
LINE
8
BLACK
6
CONTINUOUS
10
156.848
20
-66.2321
11
156.847
21
-66.2275
0
LINE
8
BLACK
6
CONTINUOUS
10
156.847
20
-66.2275
11
156.847
21
-66.2273
0
LINE
8
BLACK
6
CONTINUOUS
10
156.847
20
-66.2273
11
156.847
21
-66.2272
0
LINE
8
BLACK
6
CONTINUOUS
10
156.847
20
-66.2272
11
156.846
21
-66.2225
0
LINE
8
BLACK
6
CONTINUOUS
10
156.846
20
-66.2225
11
156.846
21
-66.2178
0
LINE
8
BLACK
6
CONTINUOUS
10
156.846
20
-66.2178
11
156.846
21
-65.5828
0
LINE
8
BLACK
6
CONTINUOUS
10
156.846
20
-65.5828
11
156.846
21
-65.5825
0
LINE
8
BLACK
6
CONTINUOUS
10
156.846
20
-65.5825
11
156.846
21
-65.5825
0
LINE
8
BLACK
6
CONTINUOUS
10
156.846
20
-65.5825
11
156.846
21
-65.5824
0
LINE
8
BLACK
6
CONTINUOUS
10
156.846
20
-65.5824
11
156.846
21
-65.5821
0
LINE
8
BLACK
6
CONTINUOUS
10
156.846
20
-65.5821
11
156.846
21
-65.5775
0
LINE
8
BLACK
6
CONTINUOUS
10
156.846
20
-65.5775
11
156.847
21
-65.5727
0
LINE
8
BLACK
6
CONTINUOUS
10
156.847
20
-65.5727
11
156.847
21
-65.5726
0
LINE
8
BLACK
6
CONTINUOUS
10
156.847
20
-65.5726
11
156.847
21
-65.5724
0
LINE
8
BLACK
6
CONTINUOUS
10
156.847
20
-65.5724
11
156.848
21
-65.5679
0
LINE
8
BLACK
6
CONTINUOUS
10
156.848
20
-65.5679
11
156.85
21
-65.5634
0
LINE
8
BLACK
6
CONTINUOUS
10
156.85
20
-65.5634
11
156.85
21
-65.5633
0
LINE
8
BLACK
6
CONTINUOUS
10
156.85
20
-65.5633
11
156.85
21
-65.5631
0
LINE
8
BLACK
6
CONTINUOUS
10
156.85
20
-65.5631
11
156.852
21
-65.559
0
LINE
8
BLACK
6
CONTINUOUS
10
156.852
20
-65.559
11
156.854
21
-65.5548
0
LINE
8
BLACK
6
CONTINUOUS
10
156.854
20
-65.5548
11
156.854
21
-65.5547
0
LINE
8
BLACK
6
CONTINUOUS
10
156.854
20
-65.5547
11
156.855
21
-65.5546
0
LINE
8
BLACK
6
CONTINUOUS
10
156.855
20
-65.5546
11
156.858
21
-65.551
0
LINE
8
BLACK
6
CONTINUOUS
10
156.858
20
-65.551
11
156.861
21
-65.5473
0
LINE
8
BLACK
6
CONTINUOUS
10
156.861
20
-65.5473
11
156.861
21
-65.5472
0
LINE
8
BLACK
6
CONTINUOUS
10
156.861
20
-65.5472
11
156.861
21
-65.5471
0
LINE
8
BLACK
6
CONTINUOUS
10
156.861
20
-65.5471
11
156.864
21
-65.5442
0
LINE
8
BLACK
6
CONTINUOUS
10
156.864
20
-65.5442
11
156.868
21
-65.5412
0
LINE
8
BLACK
6
CONTINUOUS
10
156.868
20
-65.5412
11
156.868
21
-65.5411
0
LINE
8
BLACK
6
CONTINUOUS
10
156.868
20
-65.5411
11
156.868
21
-65.541
0
LINE
8
BLACK
6
CONTINUOUS
10
156.868
20
-65.541
11
156.873
21
-65.5388
0
LINE
8
BLACK
6
CONTINUOUS
10
156.873
20
-65.5388
11
156.877
21
-65.5366
0
LINE
8
BLACK
6
CONTINUOUS
10
156.877
20
-65.5366
11
156.877
21
-65.5365
0
LINE
8
BLACK
6
CONTINUOUS
10
156.877
20
-65.5365
11
156.877
21
-65.5364
0
LINE
8
BLACK
6
CONTINUOUS
10
156.877
20
-65.5364
11
156.882
21
-65.5351
0
LINE
8
BLACK
6
CONTINUOUS
10
156.882
20
-65.5351
11
156.886
21
-65.5338
0
LINE
8
BLACK
6
CONTINUOUS
10
156.886
20
-65.5338
11
156.886
21
-65.5337
0
LINE
8
BLACK
6
CONTINUOUS
10
156.886
20
-65.5337
11
156.886
21
-65.5337
0
LINE
8
BLACK
6
CONTINUOUS
10
156.886
20
-65.5337
11
156.891
21
-65.5333
0
LINE
8
BLACK
6
CONTINUOUS
10
156.891
20
-65.5333
11
156.896
21
-65.5328
0
LINE
8
BLACK
6
CONTINUOUS
10
156.896
20
-65.5328
11
157.531
21
-65.5328
0
LINE
8
BLACK
6
CONTINUOUS
10
157.531
20
-65.5328
11
157.531
21
-65.5328
0
LINE
8
BLACK
6
CONTINUOUS
10
156.261
20
-62.9928
11
156.261
21
-62.9928
0
LINE
8
BLACK
6
CONTINUOUS
10
156.261
20
-62.9928
11
156.261
21
-62.9928
0
LINE
8
BLACK
6
CONTINUOUS
10
156.261
20
-62.9928
11
156.261
21
-62.9928
0
LINE
8
BLACK
6
CONTINUOUS
10
156.261
20
-62.9928
11
156.266
21
-62.9933
0
LINE
8
BLACK
6
CONTINUOUS
10
156.266
20
-62.9933
11
156.271
21
-62.9938
0
LINE
8
BLACK
6
CONTINUOUS
10
156.271
20
-62.9938
11
156.271
21
-62.9939
0
LINE
8
BLACK
6
CONTINUOUS
10
156.271
20
-62.9939
11
156.271
21
-62.9939
0
LINE
8
BLACK
6
CONTINUOUS
10
156.271
20
-62.9939
11
156.276
21
-62.9953
0
LINE
8
BLACK
6
CONTINUOUS
10
156.276
20
-62.9953
11
156.28
21
-62.9967
0
LINE
8
BLACK
6
CONTINUOUS
10
156.28
20
-62.9967
11
156.28
21
-62.9968
0
LINE
8
BLACK
6
CONTINUOUS
10
156.28
20
-62.9968
11
156.28
21
-62.9968
0
LINE
8
BLACK
6
CONTINUOUS
10
156.28
20
-62.9968
11
156.285
21
-62.9991
0
LINE
8
BLACK
6
CONTINUOUS
10
156.285
20
-62.9991
11
156.289
21
-63.0013
0
LINE
8
BLACK
6
CONTINUOUS
10
156.289
20
-63.0013
11
156.289
21
-63.0015
0
LINE
8
BLACK
6
CONTINUOUS
10
156.289
20
-63.0015
11
156.289
21
-63.0015
0
LINE
8
BLACK
6
CONTINUOUS
10
156.289
20
-63.0015
11
156.293
21
-63.0045
0
LINE
8
BLACK
6
CONTINUOUS
10
156.293
20
-63.0045
11
156.296
21
-63.0076
0
LINE
8
BLACK
6
CONTINUOUS
10
156.296
20
-63.0076
11
156.296
21
-63.0077
0
LINE
8
BLACK
6
CONTINUOUS
10
156.296
20
-63.0077
11
156.297
21
-63.0078
0
LINE
8
BLACK
6
CONTINUOUS
10
156.297
20
-63.0078
11
156.299
21
-63.0114
0
LINE
8
BLACK
6
CONTINUOUS
10
156.299
20
-63.0114
11
156.302
21
-63.0151
0
LINE
8
BLACK
6
CONTINUOUS
10
156.302
20
-63.0151
11
156.303
21
-63.0153
0
LINE
8
BLACK
6
CONTINUOUS
10
156.303
20
-63.0153
11
156.303
21
-63.0154
0
LINE
8
BLACK
6
CONTINUOUS
10
156.303
20
-63.0154
11
156.305
21
-63.0195
0
LINE
8
BLACK
6
CONTINUOUS
10
156.305
20
-63.0195
11
156.307
21
-63.0237
0
LINE
8
BLACK
6
CONTINUOUS
10
156.307
20
-63.0237
11
156.307
21
-63.0239
0
LINE
8
BLACK
6
CONTINUOUS
10
156.307
20
-63.0239
11
156.307
21
-63.0241
0
LINE
8
BLACK
6
CONTINUOUS
10
156.307
20
-63.0241
11
156.308
21
-63.0285
0
LINE
8
BLACK
6
CONTINUOUS
10
156.308
20
-63.0285
11
156.31
21
-63.0331
0
LINE
8
BLACK
6
CONTINUOUS
10
156.31
20
-63.0331
11
156.31
21
-63.0333
0
LINE
8
BLACK
6
CONTINUOUS
10
156.31
20
-63.0333
11
156.31
21
-63.0334
0
LINE
8
BLACK
6
CONTINUOUS
10
156.31
20
-63.0334
11
156.31
21
-63.0381
0
LINE
8
BLACK
6
CONTINUOUS
10
156.31
20
-63.0381
11
156.311
21
-63.0428
0
LINE
8
BLACK
6
CONTINUOUS
10
156.311
20
-63.0428
11
156.311
21
-63.6778
0
LINE
8
BLACK
6
CONTINUOUS
10
156.311
20
-63.6778
11
156.311
21
-63.6781
0
LINE
8
BLACK
6
CONTINUOUS
10
156.311
20
-63.6781
11
156.311
21
-63.6781
0
LINE
8
BLACK
6
CONTINUOUS
10
156.311
20
-63.6781
11
156.311
21
-63.6782
0
LINE
8
BLACK
6
CONTINUOUS
10
156.311
20
-63.6782
11
156.311
21
-63.6785
0
LINE
8
BLACK
6
CONTINUOUS
10
156.311
20
-63.6785
11
156.31
21
-63.6831
0
LINE
8
BLACK
6
CONTINUOUS
10
156.31
20
-63.6831
11
156.31
21
-63.6879
0
LINE
8
BLACK
6
CONTINUOUS
10
156.31
20
-63.6879
11
156.31
21
-63.688
0
LINE
8
BLACK
6
CONTINUOUS
10
156.31
20
-63.688
11
156.31
21
-63.6882
0
LINE
8
BLACK
6
CONTINUOUS
10
156.31
20
-63.6882
11
156.308
21
-63.6927
0
LINE
8
BLACK
6
CONTINUOUS
10
156.308
20
-63.6927
11
156.307
21
-63.6972
0
LINE
8
BLACK
6
CONTINUOUS
10
156.307
20
-63.6972
11
156.307
21
-63.6973
0
LINE
8
BLACK
6
CONTINUOUS
10
156.307
20
-63.6973
11
156.307
21
-63.6975
0
LINE
8
BLACK
6
CONTINUOUS
10
156.307
20
-63.6975
11
156.304
21
-63.7016
0
LINE
8
BLACK
6
CONTINUOUS
10
156.304
20
-63.7016
11
156.302
21
-63.7058
0
LINE
8
BLACK
6
CONTINUOUS
10
156.302
20
-63.7058
11
156.302
21
-63.7059
0
LINE
8
BLACK
6
CONTINUOUS
10
156.302
20
-63.7059
11
156.302
21
-63.706
0
LINE
8
BLACK
6
CONTINUOUS
10
156.302
20
-63.706
11
156.299
21
-63.7096
0
LINE
8
BLACK
6
CONTINUOUS
10
156.299
20
-63.7096
11
156.296
21
-63.7133
0
LINE
8
BLACK
6
CONTINUOUS
10
156.296
20
-63.7133
11
156.296
21
-63.7134
0
LINE
8
BLACK
6
CONTINUOUS
10
156.296
20
-63.7134
11
156.296
21
-63.7135
0
LINE
8
BLACK
6
CONTINUOUS
10
156.296
20
-63.7135
11
156.292
21
-63.7164
0
LINE
8
BLACK
6
CONTINUOUS
10
156.292
20
-63.7164
11
156.288
21
-63.7194
0
LINE
8
BLACK
6
CONTINUOUS
10
156.288
20
-63.7194
11
156.288
21
-63.7195
0
LINE
8
BLACK
6
CONTINUOUS
10
156.288
20
-63.7195
11
156.288
21
-63.7196
0
LINE
8
BLACK
6
CONTINUOUS
10
156.288
20
-63.7196
11
156.284
21
-63.7218
0
LINE
8
BLACK
6
CONTINUOUS
10
156.284
20
-63.7218
11
156.28
21
-63.724
0
LINE
8
BLACK
6
CONTINUOUS
10
156.28
20
-63.724
11
156.28
21
-63.7241
0
LINE
8
BLACK
6
CONTINUOUS
10
156.28
20
-63.7241
11
156.28
21
-63.7242
0
LINE
8
BLACK
6
CONTINUOUS
10
156.28
20
-63.7242
11
156.275
21
-63.7255
0
LINE
8
BLACK
6
CONTINUOUS
10
156.275
20
-63.7255
11
156.271
21
-63.7268
0
LINE
8
BLACK
6
CONTINUOUS
10
156.271
20
-63.7268
11
156.27
21
-63.7269
0
LINE
8
BLACK
6
CONTINUOUS
10
156.27
20
-63.7269
11
156.27
21
-63.7269
0
LINE
8
BLACK
6
CONTINUOUS
10
156.27
20
-63.7269
11
156.266
21
-63.7273
0
LINE
8
BLACK
6
CONTINUOUS
10
156.266
20
-63.7273
11
156.261
21
-63.7278
0
LINE
8
BLACK
6
CONTINUOUS
10
156.261
20
-63.7278
11
155.626
21
-63.7278
0
LINE
8
BLACK
6
CONTINUOUS
10
155.626
20
-63.7278
11
155.625
21
-63.7278
0
LINE
8
BLACK
6
CONTINUOUS
10
155.625
20
-63.7278
11
155.625
21
-63.7278
0
LINE
8
BLACK
6
CONTINUOUS
10
155.625
20
-63.7278
11
155.625
21
-63.7278
0
LINE
8
BLACK
6
CONTINUOUS
10
155.625
20
-63.7278
11
155.625
21
-63.7278
0
LINE
8
BLACK
6
CONTINUOUS
10
155.625
20
-63.7278
11
155.62
21
-63.7273
0
LINE
8
BLACK
6
CONTINUOUS
10
155.62
20
-63.7273
11
155.616
21
-63.7268
0
LINE
8
BLACK
6
CONTINUOUS
10
155.616
20
-63.7268
11
155.616
21
-63.7267
0
LINE
8
BLACK
6
CONTINUOUS
10
155.616
20
-63.7267
11
155.615
21
-63.7267
0
LINE
8
BLACK
6
CONTINUOUS
10
155.615
20
-63.7267
11
155.611
21
-63.7253
0
LINE
8
BLACK
6
CONTINUOUS
10
155.611
20
-63.7253
11
155.606
21
-63.7239
0
LINE
8
BLACK
6
CONTINUOUS
10
155.606
20
-63.7239
11
155.606
21
-63.7238
0
LINE
8
BLACK
6
CONTINUOUS
10
155.606
20
-63.7238
11
155.606
21
-63.7238
0
LINE
8
BLACK
6
CONTINUOUS
10
155.606
20
-63.7238
11
155.602
21
-63.7215
0
LINE
8
BLACK
6
CONTINUOUS
10
155.602
20
-63.7215
11
155.598
21
-63.7193
0
LINE
8
BLACK
6
CONTINUOUS
10
155.598
20
-63.7193
11
155.598
21
-63.7191
0
LINE
8
BLACK
6
CONTINUOUS
10
155.598
20
-63.7191
11
155.598
21
-63.7191
0
LINE
8
BLACK
6
CONTINUOUS
10
155.598
20
-63.7191
11
155.594
21
-63.7161
0
LINE
8
BLACK
6
CONTINUOUS
10
155.594
20
-63.7161
11
155.59
21
-63.713
0
LINE
8
BLACK
6
CONTINUOUS
10
155.59
20
-63.713
11
155.59
21
-63.7129
0
LINE
8
BLACK
6
CONTINUOUS
10
155.59
20
-63.7129
11
155.59
21
-63.7128
0
LINE
8
BLACK
6
CONTINUOUS
10
155.59
20
-63.7128
11
155.587
21
-63.7092
0
LINE
8
BLACK
6
CONTINUOUS
10
155.587
20
-63.7092
11
155.584
21
-63.7055
0
LINE
8
BLACK
6
CONTINUOUS
10
155.584
20
-63.7055
11
155.584
21
-63.7053
0
LINE
8
BLACK
6
CONTINUOUS
10
155.584
20
-63.7053
11
155.584
21
-63.7052
0
LINE
8
BLACK
6
CONTINUOUS
10
155.584
20
-63.7052
11
155.582
21
-63.7011
0
LINE
8
BLACK
6
CONTINUOUS
10
155.582
20
-63.7011
11
155.58
21
-63.6969
0
LINE
8
BLACK
6
CONTINUOUS
10
155.58
20
-63.6969
11
155.58
21
-63.6967
0
LINE
8
BLACK
6
CONTINUOUS
10
155.58
20
-63.6967
11
155.579
21
-63.6965
0
LINE
8
BLACK
6
CONTINUOUS
10
155.579
20
-63.6965
11
155.578
21
-63.6921
0
LINE
8
BLACK
6
CONTINUOUS
10
155.578
20
-63.6921
11
155.577
21
-63.6875
0
LINE
8
BLACK
6
CONTINUOUS
10
155.577
20
-63.6875
11
155.577
21
-63.6873
0
LINE
8
BLACK
6
CONTINUOUS
10
155.577
20
-63.6873
11
155.577
21
-63.6872
0
LINE
8
BLACK
6
CONTINUOUS
10
155.577
20
-63.6872
11
155.576
21
-63.6825
0
LINE
8
BLACK
6
CONTINUOUS
10
155.576
20
-63.6825
11
155.576
21
-63.6778
0
LINE
8
BLACK
6
CONTINUOUS
10
155.576
20
-63.6778
11
155.576
21
-63.0428
0
LINE
8
BLACK
6
CONTINUOUS
10
155.576
20
-63.0428
11
155.576
21
-63.0425
0
LINE
8
BLACK
6
CONTINUOUS
10
155.576
20
-63.0425
11
155.576
21
-63.0425
0
LINE
8
BLACK
6
CONTINUOUS
10
155.576
20
-63.0425
11
155.576
21
-63.0424
0
LINE
8
BLACK
6
CONTINUOUS
10
155.576
20
-63.0424
11
155.576
21
-63.0421
0
LINE
8
BLACK
6
CONTINUOUS
10
155.576
20
-63.0421
11
155.576
21
-63.0375
0
LINE
8
BLACK
6
CONTINUOUS
10
155.576
20
-63.0375
11
155.577
21
-63.0327
0
LINE
8
BLACK
6
CONTINUOUS
10
155.577
20
-63.0327
11
155.577
21
-63.0326
0
LINE
8
BLACK
6
CONTINUOUS
10
155.577
20
-63.0326
11
155.577
21
-63.0324
0
LINE
8
BLACK
6
CONTINUOUS
10
155.577
20
-63.0324
11
155.578
21
-63.0279
0
LINE
8
BLACK
6
CONTINUOUS
10
155.578
20
-63.0279
11
155.58
21
-63.0234
0
LINE
8
BLACK
6
CONTINUOUS
10
155.58
20
-63.0234
11
155.58
21
-63.0233
0
LINE
8
BLACK
6
CONTINUOUS
10
155.58
20
-63.0233
11
155.58
21
-63.0231
0
LINE
8
BLACK
6
CONTINUOUS
10
155.58
20
-63.0231
11
155.582
21
-63.019
0
LINE
8
BLACK
6
CONTINUOUS
10
155.582
20
-63.019
11
155.584
21
-63.0148
0
LINE
8
BLACK
6
CONTINUOUS
10
155.584
20
-63.0148
11
155.584
21
-63.0147
0
LINE
8
BLACK
6
CONTINUOUS
10
155.584
20
-63.0147
11
155.585
21
-63.0146
0
LINE
8
BLACK
6
CONTINUOUS
10
155.585
20
-63.0146
11
155.588
21
-63.011
0
LINE
8
BLACK
6
CONTINUOUS
10
155.588
20
-63.011
11
155.591
21
-63.0073
0
LINE
8
BLACK
6
CONTINUOUS
10
155.591
20
-63.0073
11
155.591
21
-63.0072
0
LINE
8
BLACK
6
CONTINUOUS
10
155.591
20
-63.0072
11
155.591
21
-63.0071
0
LINE
8
BLACK
6
CONTINUOUS
10
155.591
20
-63.0071
11
155.594
21
-63.0042
0
LINE
8
BLACK
6
CONTINUOUS
10
155.594
20
-63.0042
11
155.598
21
-63.0012
0
LINE
8
BLACK
6
CONTINUOUS
10
155.598
20
-63.0012
11
155.598
21
-63.0011
0
LINE
8
BLACK
6
CONTINUOUS
10
155.598
20
-63.0011
11
155.598
21
-63.001
0
LINE
8
BLACK
6
CONTINUOUS
10
155.598
20
-63.001
11
155.603
21
-62.9988
0
LINE
8
BLACK
6
CONTINUOUS
10
155.603
20
-62.9988
11
155.607
21
-62.9966
0
LINE
8
BLACK
6
CONTINUOUS
10
155.607
20
-62.9966
11
155.607
21
-62.9965
0
LINE
8
BLACK
6
CONTINUOUS
10
155.607
20
-62.9965
11
155.607
21
-62.9964
0
LINE
8
BLACK
6
CONTINUOUS
10
155.607
20
-62.9964
11
155.612
21
-62.9951
0
LINE
8
BLACK
6
CONTINUOUS
10
155.612
20
-62.9951
11
155.616
21
-62.9938
0
LINE
8
BLACK
6
CONTINUOUS
10
155.616
20
-62.9938
11
155.616
21
-62.9937
0
LINE
8
BLACK
6
CONTINUOUS
10
155.616
20
-62.9937
11
155.616
21
-62.9937
0
LINE
8
BLACK
6
CONTINUOUS
10
155.616
20
-62.9937
11
155.621
21
-62.9933
0
LINE
8
BLACK
6
CONTINUOUS
10
155.621
20
-62.9933
11
155.626
21
-62.9928
0
LINE
8
BLACK
6
CONTINUOUS
10
155.626
20
-62.9928
11
156.261
21
-62.9928
0
LINE
8
BLACK
6
CONTINUOUS
10
156.261
20
-62.9928
11
156.261
21
-62.9928
0
LINE
8
BLACK
6
CONTINUOUS
10
160.071
20
-62.9928
11
160.071
21
-62.9928
0
LINE
8
BLACK
6
CONTINUOUS
10
160.071
20
-62.9928
11
160.071
21
-62.9928
0
LINE
8
BLACK
6
CONTINUOUS
10
160.071
20
-62.9928
11
160.071
21
-62.9928
0
LINE
8
BLACK
6
CONTINUOUS
10
160.071
20
-62.9928
11
160.076
21
-62.9933
0
LINE
8
BLACK
6
CONTINUOUS
10
160.076
20
-62.9933
11
160.081
21
-62.9938
0
LINE
8
BLACK
6
CONTINUOUS
10
160.081
20
-62.9938
11
160.081
21
-62.9939
0
LINE
8
BLACK
6
CONTINUOUS
10
160.081
20
-62.9939
11
160.081
21
-62.9939
0
LINE
8
BLACK
6
CONTINUOUS
10
160.081
20
-62.9939
11
160.086
21
-62.9953
0
LINE
8
BLACK
6
CONTINUOUS
10
160.086
20
-62.9953
11
160.09
21
-62.9967
0
LINE
8
BLACK
6
CONTINUOUS
10
160.09
20
-62.9967
11
160.09
21
-62.9968
0
LINE
8
BLACK
6
CONTINUOUS
10
160.09
20
-62.9968
11
160.09
21
-62.9968
0
LINE
8
BLACK
6
CONTINUOUS
10
160.09
20
-62.9968
11
160.095
21
-62.9991
0
LINE
8
BLACK
6
CONTINUOUS
10
160.095
20
-62.9991
11
160.099
21
-63.0013
0
LINE
8
BLACK
6
CONTINUOUS
10
160.099
20
-63.0013
11
160.099
21
-63.0015
0
LINE
8
BLACK
6
CONTINUOUS
10
160.099
20
-63.0015
11
160.099
21
-63.0015
0
LINE
8
BLACK
6
CONTINUOUS
10
160.099
20
-63.0015
11
160.103
21
-63.0045
0
LINE
8
BLACK
6
CONTINUOUS
10
160.103
20
-63.0045
11
160.106
21
-63.0076
0
LINE
8
BLACK
6
CONTINUOUS
10
160.106
20
-63.0076
11
160.106
21
-63.0077
0
LINE
8
BLACK
6
CONTINUOUS
10
160.106
20
-63.0077
11
160.107
21
-63.0078
0
LINE
8
BLACK
6
CONTINUOUS
10
160.107
20
-63.0078
11
160.109
21
-63.0114
0
LINE
8
BLACK
6
CONTINUOUS
10
160.109
20
-63.0114
11
160.112
21
-63.0151
0
LINE
8
BLACK
6
CONTINUOUS
10
160.112
20
-63.0151
11
160.113
21
-63.0153
0
LINE
8
BLACK
6
CONTINUOUS
10
160.113
20
-63.0153
11
160.113
21
-63.0154
0
LINE
8
BLACK
6
CONTINUOUS
10
160.113
20
-63.0154
11
160.115
21
-63.0195
0
LINE
8
BLACK
6
CONTINUOUS
10
160.115
20
-63.0195
11
160.117
21
-63.0237
0
LINE
8
BLACK
6
CONTINUOUS
10
160.117
20
-63.0237
11
160.117
21
-63.0239
0
LINE
8
BLACK
6
CONTINUOUS
10
160.117
20
-63.0239
11
160.117
21
-63.0241
0
LINE
8
BLACK
6
CONTINUOUS
10
160.117
20
-63.0241
11
160.118
21
-63.0285
0
LINE
8
BLACK
6
CONTINUOUS
10
160.118
20
-63.0285
11
160.12
21
-63.0331
0
LINE
8
BLACK
6
CONTINUOUS
10
160.12
20
-63.0331
11
160.12
21
-63.0333
0
LINE
8
BLACK
6
CONTINUOUS
10
160.12
20
-63.0333
11
160.12
21
-63.0334
0
LINE
8
BLACK
6
CONTINUOUS
10
160.12
20
-63.0334
11
160.12
21
-63.0381
0
LINE
8
BLACK
6
CONTINUOUS
10
160.12
20
-63.0381
11
160.121
21
-63.0428
0
LINE
8
BLACK
6
CONTINUOUS
10
160.121
20
-63.0428
11
160.121
21
-63.6778
0
LINE
8
BLACK
6
CONTINUOUS
10
160.121
20
-63.6778
11
160.121
21
-63.6781
0
LINE
8
BLACK
6
CONTINUOUS
10
160.121
20
-63.6781
11
160.121
21
-63.6781
0
LINE
8
BLACK
6
CONTINUOUS
10
160.121
20
-63.6781
11
160.121
21
-63.6782
0
LINE
8
BLACK
6
CONTINUOUS
10
160.121
20
-63.6782
11
160.121
21
-63.6785
0
LINE
8
BLACK
6
CONTINUOUS
10
160.121
20
-63.6785
11
160.12
21
-63.6831
0
LINE
8
BLACK
6
CONTINUOUS
10
160.12
20
-63.6831
11
160.12
21
-63.6879
0
LINE
8
BLACK
6
CONTINUOUS
10
160.12
20
-63.6879
11
160.12
21
-63.688
0
LINE
8
BLACK
6
CONTINUOUS
10
160.12
20
-63.688
11
160.12
21
-63.6882
0
LINE
8
BLACK
6
CONTINUOUS
10
160.12
20
-63.6882
11
160.118
21
-63.6927
0
LINE
8
BLACK
6
CONTINUOUS
10
160.118
20
-63.6927
11
160.117
21
-63.6972
0
LINE
8
BLACK
6
CONTINUOUS
10
160.117
20
-63.6972
11
160.117
21
-63.6973
0
LINE
8
BLACK
6
CONTINUOUS
10
160.117
20
-63.6973
11
160.117
21
-63.6975
0
LINE
8
BLACK
6
CONTINUOUS
10
160.117
20
-63.6975
11
160.114
21
-63.7016
0
LINE
8
BLACK
6
CONTINUOUS
10
160.114
20
-63.7016
11
160.112
21
-63.7058
0
LINE
8
BLACK
6
CONTINUOUS
10
160.112
20
-63.7058
11
160.112
21
-63.7059
0
LINE
8
BLACK
6
CONTINUOUS
10
160.112
20
-63.7059
11
160.112
21
-63.706
0
LINE
8
BLACK
6
CONTINUOUS
10
160.112
20
-63.706
11
160.109
21
-63.7096
0
LINE
8
BLACK
6
CONTINUOUS
10
160.109
20
-63.7096
11
160.106
21
-63.7133
0
LINE
8
BLACK
6
CONTINUOUS
10
160.106
20
-63.7133
11
160.106
21
-63.7134
0
LINE
8
BLACK
6
CONTINUOUS
10
160.106
20
-63.7134
11
160.106
21
-63.7135
0
LINE
8
BLACK
6
CONTINUOUS
10
160.106
20
-63.7135
11
160.102
21
-63.7164
0
LINE
8
BLACK
6
CONTINUOUS
10
160.102
20
-63.7164
11
160.098
21
-63.7194
0
LINE
8
BLACK
6
CONTINUOUS
10
160.098
20
-63.7194
11
160.098
21
-63.7195
0
LINE
8
BLACK
6
CONTINUOUS
10
160.098
20
-63.7195
11
160.098
21
-63.7196
0
LINE
8
BLACK
6
CONTINUOUS
10
160.098
20
-63.7196
11
160.094
21
-63.7218
0
LINE
8
BLACK
6
CONTINUOUS
10
160.094
20
-63.7218
11
160.09
21
-63.724
0
LINE
8
BLACK
6
CONTINUOUS
10
160.09
20
-63.724
11
160.09
21
-63.7241
0
LINE
8
BLACK
6
CONTINUOUS
10
160.09
20
-63.7241
11
160.09
21
-63.7242
0
LINE
8
BLACK
6
CONTINUOUS
10
160.09
20
-63.7242
11
160.085
21
-63.7255
0
LINE
8
BLACK
6
CONTINUOUS
10
160.085
20
-63.7255
11
160.081
21
-63.7268
0
LINE
8
BLACK
6
CONTINUOUS
10
160.081
20
-63.7268
11
160.08
21
-63.7269
0
LINE
8
BLACK
6
CONTINUOUS
10
160.08
20
-63.7269
11
160.08
21
-63.7269
0
LINE
8
BLACK
6
CONTINUOUS
10
160.08
20
-63.7269
11
160.076
21
-63.7273
0
LINE
8
BLACK
6
CONTINUOUS
10
160.076
20
-63.7273
11
160.071
21
-63.7278
0
LINE
8
BLACK
6
CONTINUOUS
10
160.071
20
-63.7278
11
156.896
21
-63.7278
0
LINE
8
BLACK
6
CONTINUOUS
10
156.896
20
-63.7278
11
156.895
21
-63.7278
0
LINE
8
BLACK
6
CONTINUOUS
10
156.895
20
-63.7278
11
156.895
21
-63.7278
0
LINE
8
BLACK
6
CONTINUOUS
10
156.895
20
-63.7278
11
156.895
21
-63.7278
0
LINE
8
BLACK
6
CONTINUOUS
10
156.895
20
-63.7278
11
156.895
21
-63.7278
0
LINE
8
BLACK
6
CONTINUOUS
10
156.895
20
-63.7278
11
156.89
21
-63.7273
0
LINE
8
BLACK
6
CONTINUOUS
10
156.89
20
-63.7273
11
156.886
21
-63.7268
0
LINE
8
BLACK
6
CONTINUOUS
10
156.886
20
-63.7268
11
156.886
21
-63.7267
0
LINE
8
BLACK
6
CONTINUOUS
10
156.886
20
-63.7267
11
156.885
21
-63.7267
0
LINE
8
BLACK
6
CONTINUOUS
10
156.885
20
-63.7267
11
156.881
21
-63.7253
0
LINE
8
BLACK
6
CONTINUOUS
10
156.881
20
-63.7253
11
156.876
21
-63.7239
0
LINE
8
BLACK
6
CONTINUOUS
10
156.876
20
-63.7239
11
156.876
21
-63.7238
0
LINE
8
BLACK
6
CONTINUOUS
10
156.876
20
-63.7238
11
156.876
21
-63.7238
0
LINE
8
BLACK
6
CONTINUOUS
10
156.876
20
-63.7238
11
156.872
21
-63.7215
0
LINE
8
BLACK
6
CONTINUOUS
10
156.872
20
-63.7215
11
156.868
21
-63.7193
0
LINE
8
BLACK
6
CONTINUOUS
10
156.868
20
-63.7193
11
156.868
21
-63.7191
0
LINE
8
BLACK
6
CONTINUOUS
10
156.868
20
-63.7191
11
156.868
21
-63.7191
0
LINE
8
BLACK
6
CONTINUOUS
10
156.868
20
-63.7191
11
156.864
21
-63.7161
0
LINE
8
BLACK
6
CONTINUOUS
10
156.864
20
-63.7161
11
156.86
21
-63.713
0
LINE
8
BLACK
6
CONTINUOUS
10
156.86
20
-63.713
11
156.86
21
-63.7129
0
LINE
8
BLACK
6
CONTINUOUS
10
156.86
20
-63.7129
11
156.86
21
-63.7128
0
LINE
8
BLACK
6
CONTINUOUS
10
156.86
20
-63.7128
11
156.857
21
-63.7092
0
LINE
8
BLACK
6
CONTINUOUS
10
156.857
20
-63.7092
11
156.854
21
-63.7055
0
LINE
8
BLACK
6
CONTINUOUS
10
156.854
20
-63.7055
11
156.854
21
-63.7053
0
LINE
8
BLACK
6
CONTINUOUS
10
156.854
20
-63.7053
11
156.854
21
-63.7052
0
LINE
8
BLACK
6
CONTINUOUS
10
156.854
20
-63.7052
11
156.852
21
-63.7011
0
LINE
8
BLACK
6
CONTINUOUS
10
156.852
20
-63.7011
11
156.85
21
-63.6969
0
LINE
8
BLACK
6
CONTINUOUS
10
156.85
20
-63.6969
11
156.85
21
-63.6967
0
LINE
8
BLACK
6
CONTINUOUS
10
156.85
20
-63.6967
11
156.849
21
-63.6965
0
LINE
8
BLACK
6
CONTINUOUS
10
156.849
20
-63.6965
11
156.848
21
-63.6921
0
LINE
8
BLACK
6
CONTINUOUS
10
156.848
20
-63.6921
11
156.847
21
-63.6875
0
LINE
8
BLACK
6
CONTINUOUS
10
156.847
20
-63.6875
11
156.847
21
-63.6873
0
LINE
8
BLACK
6
CONTINUOUS
10
156.847
20
-63.6873
11
156.847
21
-63.6872
0
LINE
8
BLACK
6
CONTINUOUS
10
156.847
20
-63.6872
11
156.846
21
-63.6825
0
LINE
8
BLACK
6
CONTINUOUS
10
156.846
20
-63.6825
11
156.846
21
-63.6778
0
LINE
8
BLACK
6
CONTINUOUS
10
156.846
20
-63.6778
11
156.846
21
-62.4078
0
LINE
8
BLACK
6
CONTINUOUS
10
156.846
20
-62.4078
11
156.846
21
-62.4075
0
LINE
8
BLACK
6
CONTINUOUS
10
156.846
20
-62.4075
11
156.846
21
-62.4075
0
LINE
8
BLACK
6
CONTINUOUS
10
156.846
20
-62.4075
11
156.846
21
-62.4074
0
LINE
8
BLACK
6
CONTINUOUS
10
156.846
20
-62.4074
11
156.846
21
-62.4071
0
LINE
8
BLACK
6
CONTINUOUS
10
156.846
20
-62.4071
11
156.846
21
-62.4025
0
LINE
8
BLACK
6
CONTINUOUS
10
156.846
20
-62.4025
11
156.847
21
-62.3977
0
LINE
8
BLACK
6
CONTINUOUS
10
156.847
20
-62.3977
11
156.847
21
-62.3976
0
LINE
8
BLACK
6
CONTINUOUS
10
156.847
20
-62.3976
11
156.847
21
-62.3974
0
LINE
8
BLACK
6
CONTINUOUS
10
156.847
20
-62.3974
11
156.848
21
-62.3929
0
LINE
8
BLACK
6
CONTINUOUS
10
156.848
20
-62.3929
11
156.85
21
-62.3884
0
LINE
8
BLACK
6
CONTINUOUS
10
156.85
20
-62.3884
11
156.85
21
-62.3883
0
LINE
8
BLACK
6
CONTINUOUS
10
156.85
20
-62.3883
11
156.85
21
-62.3881
0
LINE
8
BLACK
6
CONTINUOUS
10
156.85
20
-62.3881
11
156.852
21
-62.384
0
LINE
8
BLACK
6
CONTINUOUS
10
156.852
20
-62.384
11
156.854
21
-62.3798
0
LINE
8
BLACK
6
CONTINUOUS
10
156.854
20
-62.3798
11
156.854
21
-62.3797
0
LINE
8
BLACK
6
CONTINUOUS
10
156.854
20
-62.3797
11
156.855
21
-62.3796
0
LINE
8
BLACK
6
CONTINUOUS
10
156.855
20
-62.3796
11
156.858
21
-62.376
0
LINE
8
BLACK
6
CONTINUOUS
10
156.858
20
-62.376
11
156.861
21
-62.3723
0
LINE
8
BLACK
6
CONTINUOUS
10
156.861
20
-62.3723
11
156.861
21
-62.3722
0
LINE
8
BLACK
6
CONTINUOUS
10
156.861
20
-62.3722
11
156.861
21
-62.3721
0
LINE
8
BLACK
6
CONTINUOUS
10
156.861
20
-62.3721
11
156.864
21
-62.3692
0
LINE
8
BLACK
6
CONTINUOUS
10
156.864
20
-62.3692
11
156.868
21
-62.3662
0
LINE
8
BLACK
6
CONTINUOUS
10
156.868
20
-62.3662
11
156.868
21
-62.3661
0
LINE
8
BLACK
6
CONTINUOUS
10
156.868
20
-62.3661
11
156.868
21
-62.366
0
LINE
8
BLACK
6
CONTINUOUS
10
156.868
20
-62.366
11
156.873
21
-62.3638
0
LINE
8
BLACK
6
CONTINUOUS
10
156.873
20
-62.3638
11
156.877
21
-62.3616
0
LINE
8
BLACK
6
CONTINUOUS
10
156.877
20
-62.3616
11
156.877
21
-62.3615
0
LINE
8
BLACK
6
CONTINUOUS
10
156.877
20
-62.3615
11
156.877
21
-62.3614
0
LINE
8
BLACK
6
CONTINUOUS
10
156.877
20
-62.3614
11
156.882
21
-62.3601
0
LINE
8
BLACK
6
CONTINUOUS
10
156.882
20
-62.3601
11
156.886
21
-62.3588
0
LINE
8
BLACK
6
CONTINUOUS
10
156.886
20
-62.3588
11
156.886
21
-62.3587
0
LINE
8
BLACK
6
CONTINUOUS
10
156.886
20
-62.3587
11
156.886
21
-62.3587
0
LINE
8
BLACK
6
CONTINUOUS
10
156.886
20
-62.3587
11
156.891
21
-62.3583
0
LINE
8
BLACK
6
CONTINUOUS
10
156.891
20
-62.3583
11
156.896
21
-62.3578
0
LINE
8
BLACK
6
CONTINUOUS
10
156.896
20
-62.3578
11
157.531
21
-62.3578
0
LINE
8
BLACK
6
CONTINUOUS
10
157.531
20
-62.3578
11
157.531
21
-62.3578
0
LINE
8
BLACK
6
CONTINUOUS
10
157.531
20
-62.3578
11
157.531
21
-62.3578
0
LINE
8
BLACK
6
CONTINUOUS
10
157.531
20
-62.3578
11
157.531
21
-62.3578
0
LINE
8
BLACK
6
CONTINUOUS
10
157.531
20
-62.3578
11
157.531
21
-62.3578
0
LINE
8
BLACK
6
CONTINUOUS
10
157.531
20
-62.3578
11
157.536
21
-62.3583
0
LINE
8
BLACK
6
CONTINUOUS
10
157.536
20
-62.3583
11
157.541
21
-62.3588
0
LINE
8
BLACK
6
CONTINUOUS
10
157.541
20
-62.3588
11
157.541
21
-62.3589
0
LINE
8
BLACK
6
CONTINUOUS
10
157.541
20
-62.3589
11
157.541
21
-62.3589
0
LINE
8
BLACK
6
CONTINUOUS
10
157.541
20
-62.3589
11
157.546
21
-62.3603
0
LINE
8
BLACK
6
CONTINUOUS
10
157.546
20
-62.3603
11
157.55
21
-62.3617
0
LINE
8
BLACK
6
CONTINUOUS
10
157.55
20
-62.3617
11
157.55
21
-62.3618
0
LINE
8
BLACK
6
CONTINUOUS
10
157.55
20
-62.3618
11
157.55
21
-62.3618
0
LINE
8
BLACK
6
CONTINUOUS
10
157.55
20
-62.3618
11
157.555
21
-62.3641
0
LINE
8
BLACK
6
CONTINUOUS
10
157.555
20
-62.3641
11
157.559
21
-62.3663
0
LINE
8
BLACK
6
CONTINUOUS
10
157.559
20
-62.3663
11
157.559
21
-62.3665
0
LINE
8
BLACK
6
CONTINUOUS
10
157.559
20
-62.3665
11
157.559
21
-62.3665
0
LINE
8
BLACK
6
CONTINUOUS
10
157.559
20
-62.3665
11
157.563
21
-62.3695
0
LINE
8
BLACK
6
CONTINUOUS
10
157.563
20
-62.3695
11
157.566
21
-62.3726
0
LINE
8
BLACK
6
CONTINUOUS
10
157.566
20
-62.3726
11
157.566
21
-62.3727
0
LINE
8
BLACK
6
CONTINUOUS
10
157.566
20
-62.3727
11
157.567
21
-62.3728
0
LINE
8
BLACK
6
CONTINUOUS
10
157.567
20
-62.3728
11
157.569
21
-62.3764
0
LINE
8
BLACK
6
CONTINUOUS
10
157.569
20
-62.3764
11
157.572
21
-62.3801
0
LINE
8
BLACK
6
CONTINUOUS
10
157.572
20
-62.3801
11
157.573
21
-62.3803
0
LINE
8
BLACK
6
CONTINUOUS
10
157.573
20
-62.3803
11
157.573
21
-62.3804
0
LINE
8
BLACK
6
CONTINUOUS
10
157.573
20
-62.3804
11
157.575
21
-62.3845
0
LINE
8
BLACK
6
CONTINUOUS
10
157.575
20
-62.3845
11
157.577
21
-62.3887
0
LINE
8
BLACK
6
CONTINUOUS
10
157.577
20
-62.3887
11
157.577
21
-62.3889
0
LINE
8
BLACK
6
CONTINUOUS
10
157.577
20
-62.3889
11
157.577
21
-62.3891
0
LINE
8
BLACK
6
CONTINUOUS
10
157.577
20
-62.3891
11
157.578
21
-62.3935
0
LINE
8
BLACK
6
CONTINUOUS
10
157.578
20
-62.3935
11
157.58
21
-62.3981
0
LINE
8
BLACK
6
CONTINUOUS
10
157.58
20
-62.3981
11
157.58
21
-62.3983
0
LINE
8
BLACK
6
CONTINUOUS
10
157.58
20
-62.3983
11
157.58
21
-62.3984
0
LINE
8
BLACK
6
CONTINUOUS
10
157.58
20
-62.3984
11
157.58
21
-62.4031
0
LINE
8
BLACK
6
CONTINUOUS
10
157.58
20
-62.4031
11
157.581
21
-62.4078
0
LINE
8
BLACK
6
CONTINUOUS
10
157.581
20
-62.4078
11
157.581
21
-62.9928
0
LINE
8
BLACK
6
CONTINUOUS
10
157.581
20
-62.9928
11
158.116
21
-62.9928
0
LINE
8
BLACK
6
CONTINUOUS
10
158.116
20
-62.9928
11
158.116
21
-62.4078
0
LINE
8
BLACK
6
CONTINUOUS
10
158.116
20
-62.4078
11
158.116
21
-62.4075
0
LINE
8
BLACK
6
CONTINUOUS
10
158.116
20
-62.4075
11
158.116
21
-62.4075
0
LINE
8
BLACK
6
CONTINUOUS
10
158.116
20
-62.4075
11
158.116
21
-62.4074
0
LINE
8
BLACK
6
CONTINUOUS
10
158.116
20
-62.4074
11
158.116
21
-62.4071
0
LINE
8
BLACK
6
CONTINUOUS
10
158.116
20
-62.4071
11
158.116
21
-62.4025
0
LINE
8
BLACK
6
CONTINUOUS
10
158.116
20
-62.4025
11
158.117
21
-62.3977
0
LINE
8
BLACK
6
CONTINUOUS
10
158.117
20
-62.3977
11
158.117
21
-62.3976
0
LINE
8
BLACK
6
CONTINUOUS
10
158.117
20
-62.3976
11
158.117
21
-62.3974
0
LINE
8
BLACK
6
CONTINUOUS
10
158.117
20
-62.3974
11
158.118
21
-62.3929
0
LINE
8
BLACK
6
CONTINUOUS
10
158.118
20
-62.3929
11
158.12
21
-62.3884
0
LINE
8
BLACK
6
CONTINUOUS
10
158.12
20
-62.3884
11
158.12
21
-62.3883
0
LINE
8
BLACK
6
CONTINUOUS
10
158.12
20
-62.3883
11
158.12
21
-62.3881
0
LINE
8
BLACK
6
CONTINUOUS
10
158.12
20
-62.3881
11
158.122
21
-62.384
0
LINE
8
BLACK
6
CONTINUOUS
10
158.122
20
-62.384
11
158.124
21
-62.3798
0
LINE
8
BLACK
6
CONTINUOUS
10
158.124
20
-62.3798
11
158.124
21
-62.3797
0
LINE
8
BLACK
6
CONTINUOUS
10
158.124
20
-62.3797
11
158.125
21
-62.3796
0
LINE
8
BLACK
6
CONTINUOUS
10
158.125
20
-62.3796
11
158.128
21
-62.376
0
LINE
8
BLACK
6
CONTINUOUS
10
158.128
20
-62.376
11
158.131
21
-62.3723
0
LINE
8
BLACK
6
CONTINUOUS
10
158.131
20
-62.3723
11
158.131
21
-62.3722
0
LINE
8
BLACK
6
CONTINUOUS
10
158.131
20
-62.3722
11
158.131
21
-62.3721
0
LINE
8
BLACK
6
CONTINUOUS
10
158.131
20
-62.3721
11
158.134
21
-62.3692
0
LINE
8
BLACK
6
CONTINUOUS
10
158.134
20
-62.3692
11
158.138
21
-62.3662
0
LINE
8
BLACK
6
CONTINUOUS
10
158.138
20
-62.3662
11
158.138
21
-62.3661
0
LINE
8
BLACK
6
CONTINUOUS
10
158.138
20
-62.3661
11
158.138
21
-62.366
0
LINE
8
BLACK
6
CONTINUOUS
10
158.138
20
-62.366
11
158.143
21
-62.3638
0
LINE
8
BLACK
6
CONTINUOUS
10
158.143
20
-62.3638
11
158.147
21
-62.3616
0
LINE
8
BLACK
6
CONTINUOUS
10
158.147
20
-62.3616
11
158.147
21
-62.3615
0
LINE
8
BLACK
6
CONTINUOUS
10
158.147
20
-62.3615
11
158.147
21
-62.3614
0
LINE
8
BLACK
6
CONTINUOUS
10
158.147
20
-62.3614
11
158.152
21
-62.3601
0
LINE
8
BLACK
6
CONTINUOUS
10
158.152
20
-62.3601
11
158.156
21
-62.3588
0
LINE
8
BLACK
6
CONTINUOUS
10
158.156
20
-62.3588
11
158.156
21
-62.3587
0
LINE
8
BLACK
6
CONTINUOUS
10
158.156
20
-62.3587
11
158.156
21
-62.3587
0
LINE
8
BLACK
6
CONTINUOUS
10
158.156
20
-62.3587
11
158.161
21
-62.3583
0
LINE
8
BLACK
6
CONTINUOUS
10
158.161
20
-62.3583
11
158.166
21
-62.3578
0
LINE
8
BLACK
6
CONTINUOUS
10
158.166
20
-62.3578
11
158.801
21
-62.3578
0
LINE
8
BLACK
6
CONTINUOUS
10
158.801
20
-62.3578
11
158.801
21
-62.3578
0
LINE
8
BLACK
6
CONTINUOUS
10
158.801
20
-62.3578
11
158.801
21
-62.3578
0
LINE
8
BLACK
6
CONTINUOUS
10
158.801
20
-62.3578
11
158.801
21
-62.3578
0
LINE
8
BLACK
6
CONTINUOUS
10
158.801
20
-62.3578
11
158.801
21
-62.3578
0
LINE
8
BLACK
6
CONTINUOUS
10
158.801
20
-62.3578
11
158.806
21
-62.3583
0
LINE
8
BLACK
6
CONTINUOUS
10
158.806
20
-62.3583
11
158.811
21
-62.3588
0
LINE
8
BLACK
6
CONTINUOUS
10
158.811
20
-62.3588
11
158.811
21
-62.3589
0
LINE
8
BLACK
6
CONTINUOUS
10
158.811
20
-62.3589
11
158.811
21
-62.3589
0
LINE
8
BLACK
6
CONTINUOUS
10
158.811
20
-62.3589
11
158.816
21
-62.3603
0
LINE
8
BLACK
6
CONTINUOUS
10
158.816
20
-62.3603
11
158.82
21
-62.3617
0
LINE
8
BLACK
6
CONTINUOUS
10
158.82
20
-62.3617
11
158.82
21
-62.3618
0
LINE
8
BLACK
6
CONTINUOUS
10
158.82
20
-62.3618
11
158.82
21
-62.3618
0
LINE
8
BLACK
6
CONTINUOUS
10
158.82
20
-62.3618
11
158.825
21
-62.3641
0
LINE
8
BLACK
6
CONTINUOUS
10
158.825
20
-62.3641
11
158.829
21
-62.3663
0
LINE
8
BLACK
6
CONTINUOUS
10
158.829
20
-62.3663
11
158.829
21
-62.3665
0
LINE
8
BLACK
6
CONTINUOUS
10
158.829
20
-62.3665
11
158.829
21
-62.3665
0
LINE
8
BLACK
6
CONTINUOUS
10
158.829
20
-62.3665
11
158.833
21
-62.3695
0
LINE
8
BLACK
6
CONTINUOUS
10
158.833
20
-62.3695
11
158.836
21
-62.3726
0
LINE
8
BLACK
6
CONTINUOUS
10
158.836
20
-62.3726
11
158.836
21
-62.3727
0
LINE
8
BLACK
6
CONTINUOUS
10
158.836
20
-62.3727
11
158.837
21
-62.3728
0
LINE
8
BLACK
6
CONTINUOUS
10
158.837
20
-62.3728
11
158.839
21
-62.3764
0
LINE
8
BLACK
6
CONTINUOUS
10
158.839
20
-62.3764
11
158.842
21
-62.3801
0
LINE
8
BLACK
6
CONTINUOUS
10
158.842
20
-62.3801
11
158.843
21
-62.3803
0
LINE
8
BLACK
6
CONTINUOUS
10
158.843
20
-62.3803
11
158.843
21
-62.3804
0
LINE
8
BLACK
6
CONTINUOUS
10
158.843
20
-62.3804
11
158.845
21
-62.3845
0
LINE
8
BLACK
6
CONTINUOUS
10
158.845
20
-62.3845
11
158.847
21
-62.3887
0
LINE
8
BLACK
6
CONTINUOUS
10
158.847
20
-62.3887
11
158.847
21
-62.3889
0
LINE
8
BLACK
6
CONTINUOUS
10
158.847
20
-62.3889
11
158.847
21
-62.3891
0
LINE
8
BLACK
6
CONTINUOUS
10
158.847
20
-62.3891
11
158.848
21
-62.3935
0
LINE
8
BLACK
6
CONTINUOUS
10
158.848
20
-62.3935
11
158.85
21
-62.3981
0
LINE
8
BLACK
6
CONTINUOUS
10
158.85
20
-62.3981
11
158.85
21
-62.3983
0
LINE
8
BLACK
6
CONTINUOUS
10
158.85
20
-62.3983
11
158.85
21
-62.3984
0
LINE
8
BLACK
6
CONTINUOUS
10
158.85
20
-62.3984
11
158.85
21
-62.4031
0
LINE
8
BLACK
6
CONTINUOUS
10
158.85
20
-62.4031
11
158.851
21
-62.4078
0
LINE
8
BLACK
6
CONTINUOUS
10
158.851
20
-62.4078
11
158.851
21
-62.9928
0
LINE
8
BLACK
6
CONTINUOUS
10
158.851
20
-62.9928
11
160.071
21
-62.9928
0
LINE
8
BLACK
6
CONTINUOUS
10
160.071
20
-62.9928
11
160.071
21
-62.9928
  0
ENDSEC
  0
EOF
