  0
SECTION
  2
HEADER
  9
$ANGBASE
  50
0.0
  9
$ANGDIR
  70
1
  9
$MEASUREMENT
  70
1
  0
ENDSEC
  0
SECTION
  2
TABLES
  0
TABLE
  2
LTYPE
  70
4
  0
LTYPE
  5
40F
  2
CONTINUOUS
  70
0
  3
Solid line
  72
65
  73
0
  40
0.0
  0
LTYPE
  5
410
  2
DASHDOT
 70
0
  3
Dash Dot ____ _ ____ _
 72
65
 73
4
 40
2.0
 49
1.25
 49
-0.25
 49
0.25
 49
-0.25
  0
LTYPE
  5
411
  2
DASHED
 70
0
  3
Dashed __ __ __ __ __
 72
65
 73
2
 40
0.75
 49
0.5
 49
-0.25
  0
LTYPE
  5
43B
  2
DOTTED
 70
0
  3
Dotted .  .  .  .
 72
65
 73
2
 40
0.2
 49
0.0
 49
-0.2
  0
ENDTAB
  0
TABLE
  2
STYLE
  70
4
  0
STYLE
  2
KICAD
  70
0
  40
0
  41
1
  42
1
  50
0
  71
0
  3
isocp.shx
  0
STYLE
  2
KICADB
  70
0
  40
0
  41
1
  42
1
  50
0
  71
0
  3
isocp.shx
  0
STYLE
  2
KICADI
  70
0
  40
0
  41
1
  42
1
  50
15
  71
0
  3
isocp.shx
  0
STYLE
  2
KICADBI
  70
0
  40
0
  41
1
  42
1
  50
15
  71
0
  3
isocp.shx
  0
ENDTAB
  0
TABLE
  2
LAYER
  70
1
  0
LAYER
  2
BLACK
  70
0
  62
7
  6
CONTINUOUS
  0
ENDTAB
  0
ENDSEC
  0
SECTION
  2
ENTITIES
0
LINE
8
BLACK
6
CONTINUOUS
10
169.37
20
-75.8457
11
169.358
21
-75.8479
0
LINE
8
BLACK
6
CONTINUOUS
10
169.358
20
-75.8479
11
169.347
21
-75.8502
0
LINE
8
BLACK
6
CONTINUOUS
10
169.347
20
-75.8502
11
168.918
21
-75.8953
0
LINE
8
BLACK
6
CONTINUOUS
10
168.918
20
-75.8953
11
168.916
21
-75.8955
0
LINE
8
BLACK
6
CONTINUOUS
10
168.916
20
-75.8955
11
168.91
21
-75.8954
0
LINE
8
BLACK
6
CONTINUOUS
10
168.91
20
-75.8954
11
168.905
21
-75.896
0
LINE
8
BLACK
6
CONTINUOUS
10
168.905
20
-75.896
11
147.341
21
-75.896
0
LINE
8
BLACK
6
CONTINUOUS
10
147.341
20
-75.896
11
147.339
21
-75.896
0
LINE
8
BLACK
6
CONTINUOUS
10
147.339
20
-75.896
11
147.334
21
-75.8954
0
LINE
8
BLACK
6
CONTINUOUS
10
147.334
20
-75.8954
11
147.329
21
-75.8954
0
LINE
8
BLACK
6
CONTINUOUS
10
147.329
20
-75.8954
11
146.898
21
-75.8532
0
LINE
8
BLACK
6
CONTINUOUS
10
146.898
20
-75.8532
11
146.897
21
-75.853
0
LINE
8
BLACK
6
CONTINUOUS
10
146.897
20
-75.853
11
146.885
21
-75.8506
0
LINE
8
BLACK
6
CONTINUOUS
10
146.885
20
-75.8506
11
146.874
21
-75.8484
0
LINE
8
BLACK
6
CONTINUOUS
10
146.874
20
-75.8484
11
146.48
21
-75.7295
0
LINE
8
BLACK
6
CONTINUOUS
10
146.48
20
-75.7295
11
146.479
21
-75.729
0
LINE
8
BLACK
6
CONTINUOUS
10
146.479
20
-75.729
11
146.468
21
-75.7245
0
LINE
8
BLACK
6
CONTINUOUS
10
146.468
20
-75.7245
11
146.457
21
-75.7201
0
LINE
8
BLACK
6
CONTINUOUS
10
146.457
20
-75.7201
11
146.094
21
-75.527
0
LINE
8
BLACK
6
CONTINUOUS
10
146.094
20
-75.527
11
146.093
21
-75.5262
0
LINE
8
BLACK
6
CONTINUOUS
10
146.093
20
-75.5262
11
146.083
21
-75.5197
0
LINE
8
BLACK
6
CONTINUOUS
10
146.083
20
-75.5197
11
146.074
21
-75.5133
0
LINE
8
BLACK
6
CONTINUOUS
10
146.074
20
-75.5133
11
145.755
21
-75.2534
0
LINE
8
BLACK
6
CONTINUOUS
10
145.755
20
-75.2534
11
145.754
21
-75.2523
0
LINE
8
BLACK
6
CONTINUOUS
10
145.754
20
-75.2523
11
145.746
21
-75.2441
0
LINE
8
BLACK
6
CONTINUOUS
10
145.746
20
-75.2441
11
145.738
21
-75.236
0
LINE
8
BLACK
6
CONTINUOUS
10
145.738
20
-75.236
11
145.475
21
-74.9191
0
LINE
8
BLACK
6
CONTINUOUS
10
145.475
20
-74.9191
11
145.474
21
-74.9178
0
LINE
8
BLACK
6
CONTINUOUS
10
145.474
20
-74.9178
11
145.468
21
-74.9081
0
LINE
8
BLACK
6
CONTINUOUS
10
145.468
20
-74.9081
11
145.462
21
-74.8986
0
LINE
8
BLACK
6
CONTINUOUS
10
145.462
20
-74.8986
11
145.266
21
-74.5369
0
LINE
8
BLACK
6
CONTINUOUS
10
145.266
20
-74.5369
11
145.266
21
-74.5369
0
LINE
8
BLACK
6
CONTINUOUS
10
145.266
20
-74.5369
11
145.266
21
-74.5369
0
LINE
8
BLACK
6
CONTINUOUS
10
145.266
20
-74.5369
11
145.265
21
-74.5353
0
LINE
8
BLACK
6
CONTINUOUS
10
145.265
20
-74.5353
11
145.261
21
-74.5246
0
LINE
8
BLACK
6
CONTINUOUS
10
145.261
20
-74.5246
11
145.256
21
-74.514
0
LINE
8
BLACK
6
CONTINUOUS
10
145.256
20
-74.514
11
145.135
21
-74.1212
0
LINE
8
BLACK
6
CONTINUOUS
10
145.135
20
-74.1212
11
145.134
21
-74.1195
0
LINE
8
BLACK
6
CONTINUOUS
10
145.134
20
-74.1195
11
145.132
21
-74.1082
0
LINE
8
BLACK
6
CONTINUOUS
10
145.132
20
-74.1082
11
145.13
21
-74.0969
0
LINE
8
BLACK
6
CONTINUOUS
10
145.13
20
-74.0969
11
145.085
21
-73.6678
0
LINE
8
BLACK
6
CONTINUOUS
10
145.085
20
-73.6678
11
145.085
21
-73.6661
0
LINE
8
BLACK
6
CONTINUOUS
10
145.085
20
-73.6661
11
145.085
21
-73.6603
0
LINE
8
BLACK
6
CONTINUOUS
10
145.085
20
-73.6603
11
145.084
21
-73.6546
0
LINE
8
BLACK
6
CONTINUOUS
10
145.084
20
-73.6546
11
145.084
21
-57.1711
0
LINE
8
BLACK
6
CONTINUOUS
10
145.084
20
-57.1711
11
145.084
21
-57.1693
0
LINE
8
BLACK
6
CONTINUOUS
10
145.084
20
-57.1693
11
145.085
21
-57.164
0
LINE
8
BLACK
6
CONTINUOUS
10
145.085
20
-57.164
11
145.085
21
-57.1587
0
LINE
8
BLACK
6
CONTINUOUS
10
145.085
20
-57.1587
11
145.127
21
-56.7284
0
LINE
8
BLACK
6
CONTINUOUS
10
145.127
20
-56.7284
11
145.127
21
-56.7266
0
LINE
8
BLACK
6
CONTINUOUS
10
145.127
20
-56.7266
11
145.129
21
-56.7153
0
LINE
8
BLACK
6
CONTINUOUS
10
145.129
20
-56.7153
11
145.132
21
-56.7041
0
LINE
8
BLACK
6
CONTINUOUS
10
145.132
20
-56.7041
11
145.25
21
-56.3104
0
LINE
8
BLACK
6
CONTINUOUS
10
145.25
20
-56.3104
11
145.251
21
-56.3087
0
LINE
8
BLACK
6
CONTINUOUS
10
145.251
20
-56.3087
11
145.256
21
-56.2981
0
LINE
8
BLACK
6
CONTINUOUS
10
145.256
20
-56.2981
11
145.26
21
-56.2875
0
LINE
8
BLACK
6
CONTINUOUS
10
145.26
20
-56.2875
11
145.453
21
-55.9244
0
LINE
8
BLACK
6
CONTINUOUS
10
145.453
20
-55.9244
11
145.454
21
-55.9229
0
LINE
8
BLACK
6
CONTINUOUS
10
145.454
20
-55.9229
11
145.46
21
-55.9133
0
LINE
8
BLACK
6
CONTINUOUS
10
145.46
20
-55.9133
11
145.467
21
-55.9038
0
LINE
8
BLACK
6
CONTINUOUS
10
145.467
20
-55.9038
11
145.727
21
-55.5851
0
LINE
8
BLACK
6
CONTINUOUS
10
145.727
20
-55.5851
11
145.728
21
-55.5838
0
LINE
8
BLACK
6
CONTINUOUS
10
145.728
20
-55.5838
11
145.736
21
-55.5757
0
LINE
8
BLACK
6
CONTINUOUS
10
145.736
20
-55.5757
11
145.744
21
-55.5675
0
LINE
8
BLACK
6
CONTINUOUS
10
145.744
20
-55.5675
11
146.061
21
-55.3054
0
LINE
8
BLACK
6
CONTINUOUS
10
146.061
20
-55.3054
11
146.062
21
-55.3043
0
LINE
8
BLACK
6
CONTINUOUS
10
146.062
20
-55.3043
11
146.072
21
-55.298
0
LINE
8
BLACK
6
CONTINUOUS
10
146.072
20
-55.298
11
146.081
21
-55.2916
0
LINE
8
BLACK
6
CONTINUOUS
10
146.081
20
-55.2916
11
146.443
21
-55.096
0
LINE
8
BLACK
6
CONTINUOUS
10
146.443
20
-55.096
11
146.445
21
-55.0951
0
LINE
8
BLACK
6
CONTINUOUS
10
146.445
20
-55.0951
11
146.455
21
-55.0908
0
LINE
8
BLACK
6
CONTINUOUS
10
146.455
20
-55.0908
11
146.466
21
-55.0864
0
LINE
8
BLACK
6
CONTINUOUS
10
146.466
20
-55.0864
11
146.859
21
-54.9648
0
LINE
8
BLACK
6
CONTINUOUS
10
146.859
20
-54.9648
11
146.86
21
-54.9643
0
LINE
8
BLACK
6
CONTINUOUS
10
146.86
20
-54.9643
11
146.872
21
-54.9621
0
LINE
8
BLACK
6
CONTINUOUS
10
146.872
20
-54.9621
11
146.883
21
-54.9598
0
LINE
8
BLACK
6
CONTINUOUS
10
146.883
20
-54.9598
11
147.312
21
-54.9147
0
LINE
8
BLACK
6
CONTINUOUS
10
147.312
20
-54.9147
11
147.314
21
-54.9145
0
LINE
8
BLACK
6
CONTINUOUS
10
147.314
20
-54.9145
11
147.32
21
-54.9146
0
LINE
8
BLACK
6
CONTINUOUS
10
147.32
20
-54.9146
11
147.325
21
-54.914
0
LINE
8
BLACK
6
CONTINUOUS
10
147.325
20
-54.914
11
168.889
21
-54.914
0
LINE
8
BLACK
6
CONTINUOUS
10
168.889
20
-54.914
11
168.891
21
-54.914
0
LINE
8
BLACK
6
CONTINUOUS
10
168.891
20
-54.914
11
168.896
21
-54.9146
0
LINE
8
BLACK
6
CONTINUOUS
10
168.896
20
-54.9146
11
168.901
21
-54.9146
0
LINE
8
BLACK
6
CONTINUOUS
10
168.901
20
-54.9146
11
169.332
21
-54.9568
0
LINE
8
BLACK
6
CONTINUOUS
10
169.332
20
-54.9568
11
169.333
21
-54.957
0
LINE
8
BLACK
6
CONTINUOUS
10
169.333
20
-54.957
11
169.345
21
-54.9594
0
LINE
8
BLACK
6
CONTINUOUS
10
169.345
20
-54.9594
11
169.356
21
-54.9616
0
LINE
8
BLACK
6
CONTINUOUS
10
169.356
20
-54.9616
11
169.75
21
-55.0805
0
LINE
8
BLACK
6
CONTINUOUS
10
169.75
20
-55.0805
11
169.751
21
-55.081
0
LINE
8
BLACK
6
CONTINUOUS
10
169.751
20
-55.081
11
169.762
21
-55.0855
0
LINE
8
BLACK
6
CONTINUOUS
10
169.762
20
-55.0855
11
169.773
21
-55.0899
0
LINE
8
BLACK
6
CONTINUOUS
10
169.773
20
-55.0899
11
170.136
21
-55.283
0
LINE
8
BLACK
6
CONTINUOUS
10
170.136
20
-55.283
11
170.137
21
-55.2838
0
LINE
8
BLACK
6
CONTINUOUS
10
170.137
20
-55.2838
11
170.147
21
-55.2903
0
LINE
8
BLACK
6
CONTINUOUS
10
170.147
20
-55.2903
11
170.156
21
-55.2967
0
LINE
8
BLACK
6
CONTINUOUS
10
170.156
20
-55.2967
11
170.475
21
-55.5566
0
LINE
8
BLACK
6
CONTINUOUS
10
170.475
20
-55.5566
11
170.476
21
-55.5577
0
LINE
8
BLACK
6
CONTINUOUS
10
170.476
20
-55.5577
11
170.484
21
-55.5659
0
LINE
8
BLACK
6
CONTINUOUS
10
170.484
20
-55.5659
11
170.492
21
-55.574
0
LINE
8
BLACK
6
CONTINUOUS
10
170.492
20
-55.574
11
170.755
21
-55.8909
0
LINE
8
BLACK
6
CONTINUOUS
10
170.755
20
-55.8909
11
170.756
21
-55.8922
0
LINE
8
BLACK
6
CONTINUOUS
10
170.756
20
-55.8922
11
170.762
21
-55.9019
0
LINE
8
BLACK
6
CONTINUOUS
10
170.762
20
-55.9019
11
170.768
21
-55.9114
0
LINE
8
BLACK
6
CONTINUOUS
10
170.768
20
-55.9114
11
170.964
21
-56.2731
0
LINE
8
BLACK
6
CONTINUOUS
10
170.964
20
-56.2731
11
170.965
21
-56.2747
0
LINE
8
BLACK
6
CONTINUOUS
10
170.965
20
-56.2747
11
170.969
21
-56.2854
0
LINE
8
BLACK
6
CONTINUOUS
10
170.969
20
-56.2854
11
170.974
21
-56.296
0
LINE
8
BLACK
6
CONTINUOUS
10
170.974
20
-56.296
11
171.095
21
-56.6888
0
LINE
8
BLACK
6
CONTINUOUS
10
171.095
20
-56.6888
11
171.096
21
-56.6905
0
LINE
8
BLACK
6
CONTINUOUS
10
171.096
20
-56.6905
11
171.098
21
-56.7018
0
LINE
8
BLACK
6
CONTINUOUS
10
171.098
20
-56.7018
11
171.1
21
-56.7131
0
LINE
8
BLACK
6
CONTINUOUS
10
171.1
20
-56.7131
11
171.145
21
-57.1422
0
LINE
8
BLACK
6
CONTINUOUS
10
171.145
20
-57.1422
11
171.145
21
-57.1439
0
LINE
8
BLACK
6
CONTINUOUS
10
171.145
20
-57.1439
11
171.145
21
-57.1497
0
LINE
8
BLACK
6
CONTINUOUS
10
171.145
20
-57.1497
11
171.146
21
-57.1554
0
LINE
8
BLACK
6
CONTINUOUS
10
171.146
20
-57.1554
11
171.146
21
-58.8436
0
LINE
8
BLACK
6
CONTINUOUS
10
171.146
20
-58.8436
11
171.146
21
-58.8453
0
LINE
8
BLACK
6
CONTINUOUS
10
171.146
20
-58.8453
11
171.145
21
-58.8514
0
LINE
8
BLACK
6
CONTINUOUS
10
171.145
20
-58.8514
11
171.145
21
-58.8574
0
LINE
8
BLACK
6
CONTINUOUS
10
171.145
20
-58.8574
11
171.144
21
-58.8637
0
LINE
8
BLACK
6
CONTINUOUS
10
171.144
20
-58.8637
11
171.143
21
-58.87
0
LINE
8
BLACK
6
CONTINUOUS
10
171.143
20
-58.87
11
171.141
21
-58.8758
0
LINE
8
BLACK
6
CONTINUOUS
10
171.141
20
-58.8758
11
171.14
21
-58.8817
0
LINE
8
BLACK
6
CONTINUOUS
10
171.14
20
-58.8817
11
171.138
21
-58.8875
0
LINE
8
BLACK
6
CONTINUOUS
10
171.138
20
-58.8875
11
171.136
21
-58.8936
0
LINE
8
BLACK
6
CONTINUOUS
10
171.136
20
-58.8936
11
171.133
21
-58.8989
0
LINE
8
BLACK
6
CONTINUOUS
10
171.133
20
-58.8989
11
171.13
21
-58.9045
0
LINE
8
BLACK
6
CONTINUOUS
10
171.13
20
-58.9045
11
171.127
21
-58.9098
0
LINE
8
BLACK
6
CONTINUOUS
10
171.127
20
-58.9098
11
171.124
21
-58.9153
0
LINE
8
BLACK
6
CONTINUOUS
10
171.124
20
-58.9153
11
171.12
21
-58.92
0
LINE
8
BLACK
6
CONTINUOUS
10
171.12
20
-58.92
11
171.116
21
-58.925
0
LINE
8
BLACK
6
CONTINUOUS
10
171.116
20
-58.925
11
171.112
21
-58.9294
0
LINE
8
BLACK
6
CONTINUOUS
10
171.112
20
-58.9294
11
171.108
21
-58.9343
0
LINE
8
BLACK
6
CONTINUOUS
10
171.108
20
-58.9343
11
171.103
21
-58.9381
0
LINE
8
BLACK
6
CONTINUOUS
10
171.103
20
-58.9381
11
171.099
21
-58.9424
0
LINE
8
BLACK
6
CONTINUOUS
10
171.099
20
-58.9424
11
171.093
21
-58.9459
0
LINE
8
BLACK
6
CONTINUOUS
10
171.093
20
-58.9459
11
171.089
21
-58.9498
0
LINE
8
BLACK
6
CONTINUOUS
10
171.089
20
-58.9498
11
171.083
21
-58.9526
0
LINE
8
BLACK
6
CONTINUOUS
10
171.083
20
-58.9526
11
171.078
21
-58.956
0
LINE
8
BLACK
6
CONTINUOUS
10
171.078
20
-58.956
11
171.072
21
-58.9584
0
LINE
8
BLACK
6
CONTINUOUS
10
171.072
20
-58.9584
11
171.067
21
-58.9613
0
LINE
8
BLACK
6
CONTINUOUS
10
171.067
20
-58.9613
11
171.061
21
-58.963
0
LINE
8
BLACK
6
CONTINUOUS
10
171.061
20
-58.963
11
171.055
21
-58.9653
0
LINE
8
BLACK
6
CONTINUOUS
10
171.055
20
-58.9653
11
171.049
21
-58.9665
0
LINE
8
BLACK
6
CONTINUOUS
10
171.049
20
-58.9665
11
171.043
21
-58.9683
0
LINE
8
BLACK
6
CONTINUOUS
10
171.043
20
-58.9683
11
171.037
21
-58.9689
0
LINE
8
BLACK
6
CONTINUOUS
10
171.037
20
-58.9689
11
171.031
21
-58.97
0
LINE
8
BLACK
6
CONTINUOUS
10
171.031
20
-58.97
11
171.024
21
-58.97
0
LINE
8
BLACK
6
CONTINUOUS
10
171.024
20
-58.97
11
171.018
21
-58.9706
0
LINE
8
BLACK
6
CONTINUOUS
10
171.018
20
-58.9706
11
171.012
21
-58.9699
0
LINE
8
BLACK
6
CONTINUOUS
10
171.012
20
-58.9699
11
171.006
21
-58.9699
0
LINE
8
BLACK
6
CONTINUOUS
10
171.006
20
-58.9699
11
171
21
-58.9686
0
LINE
8
BLACK
6
CONTINUOUS
10
171
20
-58.9686
11
170.993
21
-58.968
0
LINE
8
BLACK
6
CONTINUOUS
10
170.993
20
-58.968
11
170.988
21
-58.9662
0
LINE
8
BLACK
6
CONTINUOUS
10
170.988
20
-58.9662
11
170.982
21
-58.965
0
LINE
8
BLACK
6
CONTINUOUS
10
170.982
20
-58.965
11
170.976
21
-58.9625
0
LINE
8
BLACK
6
CONTINUOUS
10
170.976
20
-58.9625
11
170.97
21
-58.9606
0
LINE
8
BLACK
6
CONTINUOUS
10
170.97
20
-58.9606
11
170.964
21
-58.9578
0
LINE
8
BLACK
6
CONTINUOUS
10
170.964
20
-58.9578
11
170.959
21
-58.9554
0
LINE
8
BLACK
6
CONTINUOUS
10
170.959
20
-58.9554
11
170.954
21
-58.9519
0
LINE
8
BLACK
6
CONTINUOUS
10
170.954
20
-58.9519
11
170.948
21
-58.9489
0
LINE
8
BLACK
6
CONTINUOUS
10
170.948
20
-58.9489
11
170.943
21
-58.945
0
LINE
8
BLACK
6
CONTINUOUS
10
170.943
20
-58.945
11
170.938
21
-58.9416
0
LINE
8
BLACK
6
CONTINUOUS
10
170.938
20
-58.9416
11
170.934
21
-58.9371
0
LINE
8
BLACK
6
CONTINUOUS
10
170.934
20
-58.9371
11
170.929
21
-58.9331
0
LINE
8
BLACK
6
CONTINUOUS
10
170.929
20
-58.9331
11
170.925
21
-58.9283
0
LINE
8
BLACK
6
CONTINUOUS
10
170.925
20
-58.9283
11
170.921
21
-58.9241
0
LINE
8
BLACK
6
CONTINUOUS
10
170.921
20
-58.9241
11
170.917
21
-58.9188
0
LINE
8
BLACK
6
CONTINUOUS
10
170.917
20
-58.9188
11
170.913
21
-58.9138
0
LINE
8
BLACK
6
CONTINUOUS
10
170.913
20
-58.9138
11
170.91
21
-58.9085
0
LINE
8
BLACK
6
CONTINUOUS
10
170.91
20
-58.9085
11
170.907
21
-58.9034
0
LINE
8
BLACK
6
CONTINUOUS
10
170.907
20
-58.9034
11
170.881
21
-58.8552
0
LINE
8
BLACK
6
CONTINUOUS
10
170.881
20
-58.8552
11
170.849
21
-58.8165
0
LINE
8
BLACK
6
CONTINUOUS
10
170.849
20
-58.8165
11
170.811
21
-58.7848
0
LINE
8
BLACK
6
CONTINUOUS
10
170.811
20
-58.7848
11
170.767
21
-58.7612
0
LINE
8
BLACK
6
CONTINUOUS
10
170.767
20
-58.7612
11
170.719
21
-58.7467
0
LINE
8
BLACK
6
CONTINUOUS
10
170.719
20
-58.7467
11
170.663
21
-58.7412
0
LINE
8
BLACK
6
CONTINUOUS
10
170.663
20
-58.7412
11
169.694
21
-58.7429
0
LINE
8
BLACK
6
CONTINUOUS
10
169.694
20
-58.7429
11
169.673
21
-58.7639
0
LINE
8
BLACK
6
CONTINUOUS
10
169.673
20
-58.7639
11
169.673
21
-58.997
0
LINE
8
BLACK
6
CONTINUOUS
10
169.673
20
-58.997
11
170.669
21
-58.997
0
LINE
8
BLACK
6
CONTINUOUS
10
170.669
20
-58.997
11
170.669
21
-61.997
0
LINE
8
BLACK
6
CONTINUOUS
10
170.669
20
-61.997
11
169.673
21
-61.997
0
LINE
8
BLACK
6
CONTINUOUS
10
169.673
20
-61.997
11
169.673
21
-62.2301
0
LINE
8
BLACK
6
CONTINUOUS
10
169.673
20
-62.2301
11
169.694
21
-62.2511
0
LINE
8
BLACK
6
CONTINUOUS
10
169.694
20
-62.2511
11
170.663
21
-62.2528
0
LINE
8
BLACK
6
CONTINUOUS
10
170.663
20
-62.2528
11
170.719
21
-62.2473
0
LINE
8
BLACK
6
CONTINUOUS
10
170.719
20
-62.2473
11
170.767
21
-62.2328
0
LINE
8
BLACK
6
CONTINUOUS
10
170.767
20
-62.2328
11
170.811
21
-62.2092
0
LINE
8
BLACK
6
CONTINUOUS
10
170.811
20
-62.2092
11
170.849
21
-62.1775
0
LINE
8
BLACK
6
CONTINUOUS
10
170.849
20
-62.1775
11
170.881
21
-62.1388
0
LINE
8
BLACK
6
CONTINUOUS
10
170.881
20
-62.1388
11
170.907
21
-62.0906
0
LINE
8
BLACK
6
CONTINUOUS
10
170.907
20
-62.0906
11
170.908
21
-62.089
0
LINE
8
BLACK
6
CONTINUOUS
10
170.908
20
-62.089
11
170.911
21
-62.084
0
LINE
8
BLACK
6
CONTINUOUS
10
170.911
20
-62.084
11
170.914
21
-62.0787
0
LINE
8
BLACK
6
CONTINUOUS
10
170.914
20
-62.0787
11
170.918
21
-62.0738
0
LINE
8
BLACK
6
CONTINUOUS
10
170.918
20
-62.0738
11
170.922
21
-62.0686
0
LINE
8
BLACK
6
CONTINUOUS
10
170.922
20
-62.0686
11
170.926
21
-62.0643
0
LINE
8
BLACK
6
CONTINUOUS
10
170.926
20
-62.0643
11
170.93
21
-62.0597
0
LINE
8
BLACK
6
CONTINUOUS
10
170.93
20
-62.0597
11
170.935
21
-62.0557
0
LINE
8
BLACK
6
CONTINUOUS
10
170.935
20
-62.0557
11
170.94
21
-62.0513
0
LINE
8
BLACK
6
CONTINUOUS
10
170.94
20
-62.0513
11
170.945
21
-62.048
0
LINE
8
BLACK
6
CONTINUOUS
10
170.945
20
-62.048
11
170.949
21
-62.0442
0
LINE
8
BLACK
6
CONTINUOUS
10
170.949
20
-62.0442
11
170.955
21
-62.0412
0
LINE
8
BLACK
6
CONTINUOUS
10
170.955
20
-62.0412
11
170.96
21
-62.0378
0
LINE
8
BLACK
6
CONTINUOUS
10
170.96
20
-62.0378
11
170.966
21
-62.0355
0
LINE
8
BLACK
6
CONTINUOUS
10
170.966
20
-62.0355
11
170.971
21
-62.0327
0
LINE
8
BLACK
6
CONTINUOUS
10
170.971
20
-62.0327
11
170.978
21
-62.0309
0
LINE
8
BLACK
6
CONTINUOUS
10
170.978
20
-62.0309
11
170.983
21
-62.0285
0
LINE
8
BLACK
6
CONTINUOUS
10
170.983
20
-62.0285
11
170.989
21
-62.0274
0
LINE
8
BLACK
6
CONTINUOUS
10
170.989
20
-62.0274
11
170.995
21
-62.0257
0
LINE
8
BLACK
6
CONTINUOUS
10
170.995
20
-62.0257
11
171.002
21
-62.0251
0
LINE
8
BLACK
6
CONTINUOUS
10
171.002
20
-62.0251
11
171.008
21
-62.0239
0
LINE
8
BLACK
6
CONTINUOUS
10
171.008
20
-62.0239
11
171.014
21
-62.024
0
LINE
8
BLACK
6
CONTINUOUS
10
171.014
20
-62.024
11
171.02
21
-62.0234
0
LINE
8
BLACK
6
CONTINUOUS
10
171.02
20
-62.0234
11
171.026
21
-62.0241
0
LINE
8
BLACK
6
CONTINUOUS
10
171.026
20
-62.0241
11
171.033
21
-62.0242
0
LINE
8
BLACK
6
CONTINUOUS
10
171.033
20
-62.0242
11
171.038
21
-62.0254
0
LINE
8
BLACK
6
CONTINUOUS
10
171.038
20
-62.0254
11
171.045
21
-62.026
0
LINE
8
BLACK
6
CONTINUOUS
10
171.045
20
-62.026
11
171.051
21
-62.0279
0
LINE
8
BLACK
6
CONTINUOUS
10
171.051
20
-62.0279
11
171.057
21
-62.0292
0
LINE
8
BLACK
6
CONTINUOUS
10
171.057
20
-62.0292
11
171.062
21
-62.0316
0
LINE
8
BLACK
6
CONTINUOUS
10
171.062
20
-62.0316
11
171.068
21
-62.0334
0
LINE
8
BLACK
6
CONTINUOUS
10
171.068
20
-62.0334
11
171.074
21
-62.0364
0
LINE
8
BLACK
6
CONTINUOUS
10
171.074
20
-62.0364
11
171.08
21
-62.0388
0
LINE
8
BLACK
6
CONTINUOUS
10
171.08
20
-62.0388
11
171.085
21
-62.0423
0
LINE
8
BLACK
6
CONTINUOUS
10
171.085
20
-62.0423
11
171.09
21
-62.0451
0
LINE
8
BLACK
6
CONTINUOUS
10
171.09
20
-62.0451
11
171.095
21
-62.0492
0
LINE
8
BLACK
6
CONTINUOUS
10
171.095
20
-62.0492
11
171.1
21
-62.0528
0
LINE
8
BLACK
6
CONTINUOUS
10
171.1
20
-62.0528
11
171.104
21
-62.0571
0
LINE
8
BLACK
6
CONTINUOUS
10
171.104
20
-62.0571
11
171.109
21
-62.0609
0
LINE
8
BLACK
6
CONTINUOUS
10
171.109
20
-62.0609
11
171.113
21
-62.0659
0
LINE
8
BLACK
6
CONTINUOUS
10
171.113
20
-62.0659
11
171.118
21
-62.0704
0
LINE
8
BLACK
6
CONTINUOUS
10
171.118
20
-62.0704
11
171.121
21
-62.0754
0
LINE
8
BLACK
6
CONTINUOUS
10
171.121
20
-62.0754
11
171.125
21
-62.0801
0
LINE
8
BLACK
6
CONTINUOUS
10
171.125
20
-62.0801
11
171.128
21
-62.0858
0
LINE
8
BLACK
6
CONTINUOUS
10
171.128
20
-62.0858
11
171.131
21
-62.0911
0
LINE
8
BLACK
6
CONTINUOUS
10
171.131
20
-62.0911
11
171.134
21
-62.0967
0
LINE
8
BLACK
6
CONTINUOUS
10
171.134
20
-62.0967
11
171.136
21
-62.102
0
LINE
8
BLACK
6
CONTINUOUS
10
171.136
20
-62.102
11
171.138
21
-62.1081
0
LINE
8
BLACK
6
CONTINUOUS
10
171.138
20
-62.1081
11
171.141
21
-62.114
0
LINE
8
BLACK
6
CONTINUOUS
10
171.141
20
-62.114
11
171.142
21
-62.1199
0
LINE
8
BLACK
6
CONTINUOUS
10
171.142
20
-62.1199
11
171.144
21
-62.1258
0
LINE
8
BLACK
6
CONTINUOUS
10
171.144
20
-62.1258
11
171.144
21
-62.1321
0
LINE
8
BLACK
6
CONTINUOUS
10
171.144
20
-62.1321
11
171.145
21
-62.1383
0
LINE
8
BLACK
6
CONTINUOUS
10
171.145
20
-62.1383
11
171.145
21
-62.1444
0
LINE
8
BLACK
6
CONTINUOUS
10
171.145
20
-62.1444
11
171.146
21
-62.1504
0
LINE
8
BLACK
6
CONTINUOUS
10
171.146
20
-62.1504
11
171.146
21
-69.0466
0
LINE
8
BLACK
6
CONTINUOUS
10
171.146
20
-69.0466
11
171.146
21
-69.0483
0
LINE
8
BLACK
6
CONTINUOUS
10
171.146
20
-69.0483
11
171.145
21
-69.0544
0
LINE
8
BLACK
6
CONTINUOUS
10
171.145
20
-69.0544
11
171.145
21
-69.0604
0
LINE
8
BLACK
6
CONTINUOUS
10
171.145
20
-69.0604
11
171.144
21
-69.0666
0
LINE
8
BLACK
6
CONTINUOUS
10
171.144
20
-69.0666
11
171.143
21
-69.073
0
LINE
8
BLACK
6
CONTINUOUS
10
171.143
20
-69.073
11
171.141
21
-69.0788
0
LINE
8
BLACK
6
CONTINUOUS
10
171.141
20
-69.0788
11
171.14
21
-69.0847
0
LINE
8
BLACK
6
CONTINUOUS
10
171.14
20
-69.0847
11
171.138
21
-69.0905
0
LINE
8
BLACK
6
CONTINUOUS
10
171.138
20
-69.0905
11
171.136
21
-69.0966
0
LINE
8
BLACK
6
CONTINUOUS
10
171.136
20
-69.0966
11
171.133
21
-69.1019
0
LINE
8
BLACK
6
CONTINUOUS
10
171.133
20
-69.1019
11
171.13
21
-69.1075
0
LINE
8
BLACK
6
CONTINUOUS
10
171.13
20
-69.1075
11
171.127
21
-69.1127
0
LINE
8
BLACK
6
CONTINUOUS
10
171.127
20
-69.1127
11
171.124
21
-69.1183
0
LINE
8
BLACK
6
CONTINUOUS
10
171.124
20
-69.1183
11
171.12
21
-69.123
0
LINE
8
BLACK
6
CONTINUOUS
10
171.12
20
-69.123
11
171.116
21
-69.128
0
LINE
8
BLACK
6
CONTINUOUS
10
171.116
20
-69.128
11
171.112
21
-69.1324
0
LINE
8
BLACK
6
CONTINUOUS
10
171.112
20
-69.1324
11
171.108
21
-69.1373
0
LINE
8
BLACK
6
CONTINUOUS
10
171.108
20
-69.1373
11
171.103
21
-69.1411
0
LINE
8
BLACK
6
CONTINUOUS
10
171.103
20
-69.1411
11
171.099
21
-69.1454
0
LINE
8
BLACK
6
CONTINUOUS
10
171.099
20
-69.1454
11
171.093
21
-69.1488
0
LINE
8
BLACK
6
CONTINUOUS
10
171.093
20
-69.1488
11
171.089
21
-69.1528
0
LINE
8
BLACK
6
CONTINUOUS
10
171.089
20
-69.1528
11
171.083
21
-69.1556
0
LINE
8
BLACK
6
CONTINUOUS
10
171.083
20
-69.1556
11
171.078
21
-69.159
0
LINE
8
BLACK
6
CONTINUOUS
10
171.078
20
-69.159
11
171.072
21
-69.1614
0
LINE
8
BLACK
6
CONTINUOUS
10
171.072
20
-69.1614
11
171.067
21
-69.1643
0
LINE
8
BLACK
6
CONTINUOUS
10
171.067
20
-69.1643
11
171.061
21
-69.166
0
LINE
8
BLACK
6
CONTINUOUS
10
171.061
20
-69.166
11
171.055
21
-69.1683
0
LINE
8
BLACK
6
CONTINUOUS
10
171.055
20
-69.1683
11
171.049
21
-69.1695
0
LINE
8
BLACK
6
CONTINUOUS
10
171.049
20
-69.1695
11
171.043
21
-69.1713
0
LINE
8
BLACK
6
CONTINUOUS
10
171.043
20
-69.1713
11
171.037
21
-69.1719
0
LINE
8
BLACK
6
CONTINUOUS
10
171.037
20
-69.1719
11
171.031
21
-69.173
0
LINE
8
BLACK
6
CONTINUOUS
10
171.031
20
-69.173
11
171.024
21
-69.173
0
LINE
8
BLACK
6
CONTINUOUS
10
171.024
20
-69.173
11
171.018
21
-69.1736
0
LINE
8
BLACK
6
CONTINUOUS
10
171.018
20
-69.1736
11
171.012
21
-69.1729
0
LINE
8
BLACK
6
CONTINUOUS
10
171.012
20
-69.1729
11
171.006
21
-69.1729
0
LINE
8
BLACK
6
CONTINUOUS
10
171.006
20
-69.1729
11
171
21
-69.1716
0
LINE
8
BLACK
6
CONTINUOUS
10
171
20
-69.1716
11
170.993
21
-69.171
0
LINE
8
BLACK
6
CONTINUOUS
10
170.993
20
-69.171
11
170.988
21
-69.1692
0
LINE
8
BLACK
6
CONTINUOUS
10
170.988
20
-69.1692
11
170.982
21
-69.168
0
LINE
8
BLACK
6
CONTINUOUS
10
170.982
20
-69.168
11
170.976
21
-69.1655
0
LINE
8
BLACK
6
CONTINUOUS
10
170.976
20
-69.1655
11
170.97
21
-69.1636
0
LINE
8
BLACK
6
CONTINUOUS
10
170.97
20
-69.1636
11
170.964
21
-69.1607
0
LINE
8
BLACK
6
CONTINUOUS
10
170.964
20
-69.1607
11
170.959
21
-69.1584
0
LINE
8
BLACK
6
CONTINUOUS
10
170.959
20
-69.1584
11
170.954
21
-69.1549
0
LINE
8
BLACK
6
CONTINUOUS
10
170.954
20
-69.1549
11
170.948
21
-69.1518
0
LINE
8
BLACK
6
CONTINUOUS
10
170.948
20
-69.1518
11
170.943
21
-69.148
0
LINE
8
BLACK
6
CONTINUOUS
10
170.943
20
-69.148
11
170.938
21
-69.1446
0
LINE
8
BLACK
6
CONTINUOUS
10
170.938
20
-69.1446
11
170.934
21
-69.1401
0
LINE
8
BLACK
6
CONTINUOUS
10
170.934
20
-69.1401
11
170.929
21
-69.136
0
LINE
8
BLACK
6
CONTINUOUS
10
170.929
20
-69.136
11
170.925
21
-69.1313
0
LINE
8
BLACK
6
CONTINUOUS
10
170.925
20
-69.1313
11
170.921
21
-69.127
0
LINE
8
BLACK
6
CONTINUOUS
10
170.921
20
-69.127
11
170.917
21
-69.1218
0
LINE
8
BLACK
6
CONTINUOUS
10
170.917
20
-69.1218
11
170.913
21
-69.1168
0
LINE
8
BLACK
6
CONTINUOUS
10
170.913
20
-69.1168
11
170.91
21
-69.1115
0
LINE
8
BLACK
6
CONTINUOUS
10
170.91
20
-69.1115
11
170.907
21
-69.1064
0
LINE
8
BLACK
6
CONTINUOUS
10
170.907
20
-69.1064
11
170.878
21
-69.0522
0
LINE
8
BLACK
6
CONTINUOUS
10
170.878
20
-69.0522
11
170.846
21
-69.0135
0
LINE
8
BLACK
6
CONTINUOUS
10
170.846
20
-69.0135
11
170.808
21
-68.9818
0
LINE
8
BLACK
6
CONTINUOUS
10
170.808
20
-68.9818
11
170.763
21
-68.9582
0
LINE
8
BLACK
6
CONTINUOUS
10
170.763
20
-68.9582
11
170.716
21
-68.9437
0
LINE
8
BLACK
6
CONTINUOUS
10
170.716
20
-68.9437
11
170.66
21
-68.9382
0
LINE
8
BLACK
6
CONTINUOUS
10
170.66
20
-68.9382
11
169.691
21
-68.9399
0
LINE
8
BLACK
6
CONTINUOUS
10
169.691
20
-68.9399
11
169.67
21
-68.9609
0
LINE
8
BLACK
6
CONTINUOUS
10
169.67
20
-68.9609
11
169.67
21
-69.194
0
LINE
8
BLACK
6
CONTINUOUS
10
169.67
20
-69.194
11
170.666
21
-69.194
0
LINE
8
BLACK
6
CONTINUOUS
10
170.666
20
-69.194
11
170.666
21
-72.194
0
LINE
8
BLACK
6
CONTINUOUS
10
170.666
20
-72.194
11
169.67
21
-72.194
0
LINE
8
BLACK
6
CONTINUOUS
10
169.67
20
-72.194
11
169.67
21
-72.4271
0
LINE
8
BLACK
6
CONTINUOUS
10
169.67
20
-72.4271
11
169.691
21
-72.4481
0
LINE
8
BLACK
6
CONTINUOUS
10
169.691
20
-72.4481
11
170.66
21
-72.4498
0
LINE
8
BLACK
6
CONTINUOUS
10
170.66
20
-72.4498
11
170.716
21
-72.4443
0
LINE
8
BLACK
6
CONTINUOUS
10
170.716
20
-72.4443
11
170.763
21
-72.4298
0
LINE
8
BLACK
6
CONTINUOUS
10
170.763
20
-72.4298
11
170.808
21
-72.4062
0
LINE
8
BLACK
6
CONTINUOUS
10
170.808
20
-72.4062
11
170.846
21
-72.3745
0
LINE
8
BLACK
6
CONTINUOUS
10
170.846
20
-72.3745
11
170.878
21
-72.3358
0
LINE
8
BLACK
6
CONTINUOUS
10
170.878
20
-72.3358
11
170.907
21
-72.2816
0
LINE
8
BLACK
6
CONTINUOUS
10
170.907
20
-72.2816
11
170.908
21
-72.28
0
LINE
8
BLACK
6
CONTINUOUS
10
170.908
20
-72.28
11
170.911
21
-72.275
0
LINE
8
BLACK
6
CONTINUOUS
10
170.911
20
-72.275
11
170.914
21
-72.2697
0
LINE
8
BLACK
6
CONTINUOUS
10
170.914
20
-72.2697
11
170.918
21
-72.2648
0
LINE
8
BLACK
6
CONTINUOUS
10
170.918
20
-72.2648
11
170.922
21
-72.2596
0
LINE
8
BLACK
6
CONTINUOUS
10
170.922
20
-72.2596
11
170.926
21
-72.2554
0
LINE
8
BLACK
6
CONTINUOUS
10
170.926
20
-72.2554
11
170.93
21
-72.2507
0
LINE
8
BLACK
6
CONTINUOUS
10
170.93
20
-72.2507
11
170.935
21
-72.2467
0
LINE
8
BLACK
6
CONTINUOUS
10
170.935
20
-72.2467
11
170.94
21
-72.2423
0
LINE
8
BLACK
6
CONTINUOUS
10
170.94
20
-72.2423
11
170.945
21
-72.239
0
LINE
8
BLACK
6
CONTINUOUS
10
170.945
20
-72.239
11
170.949
21
-72.2352
0
LINE
8
BLACK
6
CONTINUOUS
10
170.949
20
-72.2352
11
170.955
21
-72.2322
0
LINE
8
BLACK
6
CONTINUOUS
10
170.955
20
-72.2322
11
170.96
21
-72.2288
0
LINE
8
BLACK
6
CONTINUOUS
10
170.96
20
-72.2288
11
170.966
21
-72.2265
0
LINE
8
BLACK
6
CONTINUOUS
10
170.966
20
-72.2265
11
170.971
21
-72.2237
0
LINE
8
BLACK
6
CONTINUOUS
10
170.971
20
-72.2237
11
170.978
21
-72.2219
0
LINE
8
BLACK
6
CONTINUOUS
10
170.978
20
-72.2219
11
170.983
21
-72.2195
0
LINE
8
BLACK
6
CONTINUOUS
10
170.983
20
-72.2195
11
170.989
21
-72.2184
0
LINE
8
BLACK
6
CONTINUOUS
10
170.989
20
-72.2184
11
170.995
21
-72.2167
0
LINE
8
BLACK
6
CONTINUOUS
10
170.995
20
-72.2167
11
171.002
21
-72.2161
0
LINE
8
BLACK
6
CONTINUOUS
10
171.002
20
-72.2161
11
171.008
21
-72.2149
0
LINE
8
BLACK
6
CONTINUOUS
10
171.008
20
-72.2149
11
171.014
21
-72.215
0
LINE
8
BLACK
6
CONTINUOUS
10
171.014
20
-72.215
11
171.02
21
-72.2144
0
LINE
8
BLACK
6
CONTINUOUS
10
171.02
20
-72.2144
11
171.026
21
-72.2151
0
LINE
8
BLACK
6
CONTINUOUS
10
171.026
20
-72.2151
11
171.033
21
-72.2152
0
LINE
8
BLACK
6
CONTINUOUS
10
171.033
20
-72.2152
11
171.038
21
-72.2164
0
LINE
8
BLACK
6
CONTINUOUS
10
171.038
20
-72.2164
11
171.045
21
-72.217
0
LINE
8
BLACK
6
CONTINUOUS
10
171.045
20
-72.217
11
171.051
21
-72.2189
0
LINE
8
BLACK
6
CONTINUOUS
10
171.051
20
-72.2189
11
171.057
21
-72.2202
0
LINE
8
BLACK
6
CONTINUOUS
10
171.057
20
-72.2202
11
171.062
21
-72.2226
0
LINE
8
BLACK
6
CONTINUOUS
10
171.062
20
-72.2226
11
171.068
21
-72.2244
0
LINE
8
BLACK
6
CONTINUOUS
10
171.068
20
-72.2244
11
171.074
21
-72.2274
0
LINE
8
BLACK
6
CONTINUOUS
10
171.074
20
-72.2274
11
171.08
21
-72.2299
0
LINE
8
BLACK
6
CONTINUOUS
10
171.08
20
-72.2299
11
171.085
21
-72.2333
0
LINE
8
BLACK
6
CONTINUOUS
10
171.085
20
-72.2333
11
171.09
21
-72.2362
0
LINE
8
BLACK
6
CONTINUOUS
10
171.09
20
-72.2362
11
171.095
21
-72.2402
0
LINE
8
BLACK
6
CONTINUOUS
10
171.095
20
-72.2402
11
171.1
21
-72.2438
0
LINE
8
BLACK
6
CONTINUOUS
10
171.1
20
-72.2438
11
171.104
21
-72.2481
0
LINE
8
BLACK
6
CONTINUOUS
10
171.104
20
-72.2481
11
171.109
21
-72.252
0
LINE
8
BLACK
6
CONTINUOUS
10
171.109
20
-72.252
11
171.113
21
-72.2569
0
LINE
8
BLACK
6
CONTINUOUS
10
171.113
20
-72.2569
11
171.118
21
-72.2614
0
LINE
8
BLACK
6
CONTINUOUS
10
171.118
20
-72.2614
11
171.121
21
-72.2665
0
LINE
8
BLACK
6
CONTINUOUS
10
171.121
20
-72.2665
11
171.125
21
-72.2712
0
LINE
8
BLACK
6
CONTINUOUS
10
171.125
20
-72.2712
11
171.128
21
-72.2768
0
LINE
8
BLACK
6
CONTINUOUS
10
171.128
20
-72.2768
11
171.131
21
-72.2821
0
LINE
8
BLACK
6
CONTINUOUS
10
171.131
20
-72.2821
11
171.134
21
-72.2877
0
LINE
8
BLACK
6
CONTINUOUS
10
171.134
20
-72.2877
11
171.136
21
-72.293
0
LINE
8
BLACK
6
CONTINUOUS
10
171.136
20
-72.293
11
171.138
21
-72.2991
0
LINE
8
BLACK
6
CONTINUOUS
10
171.138
20
-72.2991
11
171.141
21
-72.305
0
LINE
8
BLACK
6
CONTINUOUS
10
171.141
20
-72.305
11
171.142
21
-72.311
0
LINE
8
BLACK
6
CONTINUOUS
10
171.142
20
-72.311
11
171.144
21
-72.3168
0
LINE
8
BLACK
6
CONTINUOUS
10
171.144
20
-72.3168
11
171.144
21
-72.3231
0
LINE
8
BLACK
6
CONTINUOUS
10
171.144
20
-72.3231
11
171.145
21
-72.3293
0
LINE
8
BLACK
6
CONTINUOUS
10
171.145
20
-72.3293
11
171.145
21
-72.3354
0
LINE
8
BLACK
6
CONTINUOUS
10
171.145
20
-72.3354
11
171.146
21
-72.3414
0
LINE
8
BLACK
6
CONTINUOUS
10
171.146
20
-72.3414
11
171.146
21
-73.6389
0
LINE
8
BLACK
6
CONTINUOUS
10
171.146
20
-73.6389
11
171.146
21
-73.6407
0
LINE
8
BLACK
6
CONTINUOUS
10
171.146
20
-73.6407
11
171.145
21
-73.646
0
LINE
8
BLACK
6
CONTINUOUS
10
171.145
20
-73.646
11
171.145
21
-73.6513
0
LINE
8
BLACK
6
CONTINUOUS
10
171.145
20
-73.6513
11
171.103
21
-74.0816
0
LINE
8
BLACK
6
CONTINUOUS
10
171.103
20
-74.0816
11
171.103
21
-74.0834
0
LINE
8
BLACK
6
CONTINUOUS
10
171.103
20
-74.0834
11
171.101
21
-74.0946
0
LINE
8
BLACK
6
CONTINUOUS
10
171.101
20
-74.0946
11
171.098
21
-74.1059
0
LINE
8
BLACK
6
CONTINUOUS
10
171.098
20
-74.1059
11
170.98
21
-74.4996
0
LINE
8
BLACK
6
CONTINUOUS
10
170.98
20
-74.4996
11
170.979
21
-74.5013
0
LINE
8
BLACK
6
CONTINUOUS
10
170.979
20
-74.5013
11
170.974
21
-74.5119
0
LINE
8
BLACK
6
CONTINUOUS
10
170.974
20
-74.5119
11
170.97
21
-74.5225
0
LINE
8
BLACK
6
CONTINUOUS
10
170.97
20
-74.5225
11
170.777
21
-74.8856
0
LINE
8
BLACK
6
CONTINUOUS
10
170.777
20
-74.8856
11
170.776
21
-74.8871
0
LINE
8
BLACK
6
CONTINUOUS
10
170.776
20
-74.8871
11
170.77
21
-74.8967
0
LINE
8
BLACK
6
CONTINUOUS
10
170.77
20
-74.8967
11
170.763
21
-74.9062
0
LINE
8
BLACK
6
CONTINUOUS
10
170.763
20
-74.9062
11
170.503
21
-75.2249
0
LINE
8
BLACK
6
CONTINUOUS
10
170.503
20
-75.2249
11
170.502
21
-75.2263
0
LINE
8
BLACK
6
CONTINUOUS
10
170.502
20
-75.2263
11
170.494
21
-75.2343
0
LINE
8
BLACK
6
CONTINUOUS
10
170.494
20
-75.2343
11
170.486
21
-75.2425
0
LINE
8
BLACK
6
CONTINUOUS
10
170.486
20
-75.2425
11
170.169
21
-75.5046
0
LINE
8
BLACK
6
CONTINUOUS
10
170.169
20
-75.5046
11
170.168
21
-75.5057
0
LINE
8
BLACK
6
CONTINUOUS
10
170.168
20
-75.5057
11
170.158
21
-75.512
0
LINE
8
BLACK
6
CONTINUOUS
10
170.158
20
-75.512
11
170.149
21
-75.5184
0
LINE
8
BLACK
6
CONTINUOUS
10
170.149
20
-75.5184
11
169.787
21
-75.714
0
LINE
8
BLACK
6
CONTINUOUS
10
169.787
20
-75.714
11
169.787
21
-75.714
0
LINE
8
BLACK
6
CONTINUOUS
10
169.787
20
-75.714
11
169.787
21
-75.714
0
LINE
8
BLACK
6
CONTINUOUS
10
169.787
20
-75.714
11
169.785
21
-75.7149
0
LINE
8
BLACK
6
CONTINUOUS
10
169.785
20
-75.7149
11
169.775
21
-75.7192
0
LINE
8
BLACK
6
CONTINUOUS
10
169.775
20
-75.7192
11
169.764
21
-75.7236
0
LINE
8
BLACK
6
CONTINUOUS
10
169.764
20
-75.7236
11
169.371
21
-75.8452
0
LINE
8
BLACK
6
CONTINUOUS
10
169.371
20
-75.8452
11
169.371
21
-75.8452
0
LINE
8
BLACK
6
CONTINUOUS
10
169.371
20
-75.8452
11
169.37
21
-75.8457
0
LINE
8
BLACK
6
CONTINUOUS
10
145.433
20
-70.948
11
145.412
21
-70.9689
0
LINE
8
BLACK
6
CONTINUOUS
10
145.412
20
-70.9689
11
145.41
21
-72.1879
0
LINE
8
BLACK
6
CONTINUOUS
10
145.41
20
-72.1879
11
145.415
21
-72.2438
0
LINE
8
BLACK
6
CONTINUOUS
10
145.415
20
-72.2438
11
145.43
21
-72.2917
0
LINE
8
BLACK
6
CONTINUOUS
10
145.43
20
-72.2917
11
145.454
21
-72.3358
0
LINE
8
BLACK
6
CONTINUOUS
10
145.454
20
-72.3358
11
145.485
21
-72.3745
0
LINE
8
BLACK
6
CONTINUOUS
10
145.485
20
-72.3745
11
145.524
21
-72.4062
0
LINE
8
BLACK
6
CONTINUOUS
10
145.524
20
-72.4062
11
145.568
21
-72.4298
0
LINE
8
BLACK
6
CONTINUOUS
10
145.568
20
-72.4298
11
145.616
21
-72.4443
0
LINE
8
BLACK
6
CONTINUOUS
10
145.616
20
-72.4443
11
145.672
21
-72.4498
0
LINE
8
BLACK
6
CONTINUOUS
10
145.672
20
-72.4498
11
146.641
21
-72.4481
0
LINE
8
BLACK
6
CONTINUOUS
10
146.641
20
-72.4481
11
146.662
21
-72.4271
0
LINE
8
BLACK
6
CONTINUOUS
10
146.662
20
-72.4271
11
146.662
21
-72.194
0
LINE
8
BLACK
6
CONTINUOUS
10
146.662
20
-72.194
11
145.666
21
-72.194
0
LINE
8
BLACK
6
CONTINUOUS
10
145.666
20
-72.194
11
145.666
21
-70.948
0
LINE
8
BLACK
6
CONTINUOUS
10
145.666
20
-70.948
11
145.433
21
-70.948
0
LINE
8
BLACK
6
CONTINUOUS
10
148.166
20
-70.948
11
148.166
21
-72.194
0
LINE
8
BLACK
6
CONTINUOUS
10
148.166
20
-72.194
11
147.17
21
-72.194
0
LINE
8
BLACK
6
CONTINUOUS
10
147.17
20
-72.194
11
147.17
21
-72.4271
0
LINE
8
BLACK
6
CONTINUOUS
10
147.17
20
-72.4271
11
147.191
21
-72.4481
0
LINE
8
BLACK
6
CONTINUOUS
10
147.191
20
-72.4481
11
148.16
21
-72.4498
0
LINE
8
BLACK
6
CONTINUOUS
10
148.16
20
-72.4498
11
148.216
21
-72.4443
0
LINE
8
BLACK
6
CONTINUOUS
10
148.216
20
-72.4443
11
148.263
21
-72.4298
0
LINE
8
BLACK
6
CONTINUOUS
10
148.263
20
-72.4298
11
148.308
21
-72.4062
0
LINE
8
BLACK
6
CONTINUOUS
10
148.308
20
-72.4062
11
148.346
21
-72.3745
0
LINE
8
BLACK
6
CONTINUOUS
10
148.346
20
-72.3745
11
148.378
21
-72.3358
0
LINE
8
BLACK
6
CONTINUOUS
10
148.378
20
-72.3358
11
148.402
21
-72.2917
0
LINE
8
BLACK
6
CONTINUOUS
10
148.402
20
-72.2917
11
148.416
21
-72.2438
0
LINE
8
BLACK
6
CONTINUOUS
10
148.416
20
-72.2438
11
148.422
21
-72.1878
0
LINE
8
BLACK
6
CONTINUOUS
10
148.422
20
-72.1878
11
148.42
21
-70.9689
0
LINE
8
BLACK
6
CONTINUOUS
10
148.42
20
-70.9689
11
148.399
21
-70.948
0
LINE
8
BLACK
6
CONTINUOUS
10
148.399
20
-70.948
11
148.166
21
-70.948
0
LINE
8
BLACK
6
CONTINUOUS
10
167.933
20
-70.948
11
167.912
21
-70.9689
0
LINE
8
BLACK
6
CONTINUOUS
10
167.912
20
-70.9689
11
167.91
21
-72.1879
0
LINE
8
BLACK
6
CONTINUOUS
10
167.91
20
-72.1879
11
167.915
21
-72.2438
0
LINE
8
BLACK
6
CONTINUOUS
10
167.915
20
-72.2438
11
167.93
21
-72.2917
0
LINE
8
BLACK
6
CONTINUOUS
10
167.93
20
-72.2917
11
167.954
21
-72.3358
0
LINE
8
BLACK
6
CONTINUOUS
10
167.954
20
-72.3358
11
167.985
21
-72.3745
0
LINE
8
BLACK
6
CONTINUOUS
10
167.985
20
-72.3745
11
168.024
21
-72.4062
0
LINE
8
BLACK
6
CONTINUOUS
10
168.024
20
-72.4062
11
168.068
21
-72.4298
0
LINE
8
BLACK
6
CONTINUOUS
10
168.068
20
-72.4298
11
168.116
21
-72.4443
0
LINE
8
BLACK
6
CONTINUOUS
10
168.116
20
-72.4443
11
168.172
21
-72.4498
0
LINE
8
BLACK
6
CONTINUOUS
10
168.172
20
-72.4498
11
169.141
21
-72.4481
0
LINE
8
BLACK
6
CONTINUOUS
10
169.141
20
-72.4481
11
169.162
21
-72.4271
0
LINE
8
BLACK
6
CONTINUOUS
10
169.162
20
-72.4271
11
169.162
21
-72.194
0
LINE
8
BLACK
6
CONTINUOUS
10
169.162
20
-72.194
11
168.166
21
-72.194
0
LINE
8
BLACK
6
CONTINUOUS
10
168.166
20
-72.194
11
168.166
21
-70.948
0
LINE
8
BLACK
6
CONTINUOUS
10
168.166
20
-70.948
11
167.933
21
-70.948
0
LINE
8
BLACK
6
CONTINUOUS
10
168.116
20
-68.9437
11
168.068
21
-68.9582
0
LINE
8
BLACK
6
CONTINUOUS
10
168.068
20
-68.9582
11
168.024
21
-68.9818
0
LINE
8
BLACK
6
CONTINUOUS
10
168.024
20
-68.9818
11
167.985
21
-69.0135
0
LINE
8
BLACK
6
CONTINUOUS
10
167.985
20
-69.0135
11
167.954
21
-69.0522
0
LINE
8
BLACK
6
CONTINUOUS
10
167.954
20
-69.0522
11
167.93
21
-69.0963
0
LINE
8
BLACK
6
CONTINUOUS
10
167.93
20
-69.0963
11
167.915
21
-69.1442
0
LINE
8
BLACK
6
CONTINUOUS
10
167.915
20
-69.1442
11
167.91
21
-69.2001
0
LINE
8
BLACK
6
CONTINUOUS
10
167.91
20
-69.2001
11
167.912
21
-70.4191
0
LINE
8
BLACK
6
CONTINUOUS
10
167.912
20
-70.4191
11
167.933
21
-70.44
0
LINE
8
BLACK
6
CONTINUOUS
10
167.933
20
-70.44
11
168.166
21
-70.44
0
LINE
8
BLACK
6
CONTINUOUS
10
168.166
20
-70.44
11
168.166
21
-69.194
0
LINE
8
BLACK
6
CONTINUOUS
10
168.166
20
-69.194
11
169.162
21
-69.194
0
LINE
8
BLACK
6
CONTINUOUS
10
169.162
20
-69.194
11
169.162
21
-68.9609
0
LINE
8
BLACK
6
CONTINUOUS
10
169.162
20
-68.9609
11
169.141
21
-68.9399
0
LINE
8
BLACK
6
CONTINUOUS
10
169.141
20
-68.9399
11
168.172
21
-68.9382
0
LINE
8
BLACK
6
CONTINUOUS
10
168.172
20
-68.9382
11
168.116
21
-68.9437
0
LINE
8
BLACK
6
CONTINUOUS
10
147.191
20
-68.9399
11
147.17
21
-68.9609
0
LINE
8
BLACK
6
CONTINUOUS
10
147.17
20
-68.9609
11
147.17
21
-69.194
0
LINE
8
BLACK
6
CONTINUOUS
10
147.17
20
-69.194
11
148.166
21
-69.194
0
LINE
8
BLACK
6
CONTINUOUS
10
148.166
20
-69.194
11
148.166
21
-70.44
0
LINE
8
BLACK
6
CONTINUOUS
10
148.166
20
-70.44
11
148.399
21
-70.44
0
LINE
8
BLACK
6
CONTINUOUS
10
148.399
20
-70.44
11
148.42
21
-70.4191
0
LINE
8
BLACK
6
CONTINUOUS
10
148.42
20
-70.4191
11
148.422
21
-69.2001
0
LINE
8
BLACK
6
CONTINUOUS
10
148.422
20
-69.2001
11
148.416
21
-69.1442
0
LINE
8
BLACK
6
CONTINUOUS
10
148.416
20
-69.1442
11
148.402
21
-69.0963
0
LINE
8
BLACK
6
CONTINUOUS
10
148.402
20
-69.0963
11
148.378
21
-69.0522
0
LINE
8
BLACK
6
CONTINUOUS
10
148.378
20
-69.0522
11
148.346
21
-69.0135
0
LINE
8
BLACK
6
CONTINUOUS
10
148.346
20
-69.0135
11
148.308
21
-68.9818
0
LINE
8
BLACK
6
CONTINUOUS
10
148.308
20
-68.9818
11
148.263
21
-68.9582
0
LINE
8
BLACK
6
CONTINUOUS
10
148.263
20
-68.9582
11
148.216
21
-68.9437
0
LINE
8
BLACK
6
CONTINUOUS
10
148.216
20
-68.9437
11
148.16
21
-68.9382
0
LINE
8
BLACK
6
CONTINUOUS
10
148.16
20
-68.9382
11
147.191
21
-68.9399
0
LINE
8
BLACK
6
CONTINUOUS
10
145.616
20
-68.9437
11
145.568
21
-68.9582
0
LINE
8
BLACK
6
CONTINUOUS
10
145.568
20
-68.9582
11
145.524
21
-68.9818
0
LINE
8
BLACK
6
CONTINUOUS
10
145.524
20
-68.9818
11
145.485
21
-69.0135
0
LINE
8
BLACK
6
CONTINUOUS
10
145.485
20
-69.0135
11
145.454
21
-69.0522
0
LINE
8
BLACK
6
CONTINUOUS
10
145.454
20
-69.0522
11
145.43
21
-69.0963
0
LINE
8
BLACK
6
CONTINUOUS
10
145.43
20
-69.0963
11
145.415
21
-69.1442
0
LINE
8
BLACK
6
CONTINUOUS
10
145.415
20
-69.1442
11
145.41
21
-69.2001
0
LINE
8
BLACK
6
CONTINUOUS
10
145.41
20
-69.2001
11
145.412
21
-70.4191
0
LINE
8
BLACK
6
CONTINUOUS
10
145.412
20
-70.4191
11
145.433
21
-70.44
0
LINE
8
BLACK
6
CONTINUOUS
10
145.433
20
-70.44
11
145.666
21
-70.44
0
LINE
8
BLACK
6
CONTINUOUS
10
145.666
20
-70.44
11
145.666
21
-69.194
0
LINE
8
BLACK
6
CONTINUOUS
10
145.666
20
-69.194
11
146.662
21
-69.194
0
LINE
8
BLACK
6
CONTINUOUS
10
146.662
20
-69.194
11
146.662
21
-68.9609
0
LINE
8
BLACK
6
CONTINUOUS
10
146.662
20
-68.9609
11
146.641
21
-68.9399
0
LINE
8
BLACK
6
CONTINUOUS
10
146.641
20
-68.9399
11
145.672
21
-68.9382
0
LINE
8
BLACK
6
CONTINUOUS
10
145.672
20
-68.9382
11
145.616
21
-68.9437
0
LINE
8
BLACK
6
CONTINUOUS
10
167.216
20
-67.1942
11
167.202
21
-67.1463
0
LINE
8
BLACK
6
CONTINUOUS
10
167.202
20
-67.1463
11
167.188
21
-67.1209
0
LINE
8
BLACK
6
CONTINUOUS
10
167.188
20
-67.1209
11
167.187
21
-67.1193
0
LINE
8
BLACK
6
CONTINUOUS
10
167.187
20
-67.1193
11
167.185
21
-67.1142
0
LINE
8
BLACK
6
CONTINUOUS
10
167.185
20
-67.1142
11
167.183
21
-67.1094
0
LINE
8
BLACK
6
CONTINUOUS
10
167.183
20
-67.1094
11
167.181
21
-67.1028
0
LINE
8
BLACK
6
CONTINUOUS
10
167.181
20
-67.1028
11
167.178
21
-67.0963
0
LINE
8
BLACK
6
CONTINUOUS
10
167.178
20
-67.0963
11
167.177
21
-67.0909
0
LINE
8
BLACK
6
CONTINUOUS
10
167.177
20
-67.0909
11
167.175
21
-67.0857
0
LINE
8
BLACK
6
CONTINUOUS
10
167.175
20
-67.0857
11
167.175
21
-67.0788
0
LINE
8
BLACK
6
CONTINUOUS
10
167.175
20
-67.0788
11
167.173
21
-67.0719
0
LINE
8
BLACK
6
CONTINUOUS
10
167.173
20
-67.0719
11
167.174
21
-67.0664
0
LINE
8
BLACK
6
CONTINUOUS
10
167.174
20
-67.0664
11
167.173
21
-67.061
0
LINE
8
BLACK
6
CONTINUOUS
10
167.173
20
-67.061
11
167.173
21
-64.136
0
LINE
8
BLACK
6
CONTINUOUS
10
167.173
20
-64.136
11
167.173
21
-64.1342
0
LINE
8
BLACK
6
CONTINUOUS
10
167.173
20
-64.1342
11
167.174
21
-64.1288
0
LINE
8
BLACK
6
CONTINUOUS
10
167.174
20
-64.1288
11
167.174
21
-64.1233
0
LINE
8
BLACK
6
CONTINUOUS
10
167.174
20
-64.1233
11
167.175
21
-64.1165
0
LINE
8
BLACK
6
CONTINUOUS
10
167.175
20
-64.1165
11
167.176
21
-64.1096
0
LINE
8
BLACK
6
CONTINUOUS
10
167.176
20
-64.1096
11
167.177
21
-64.1044
0
LINE
8
BLACK
6
CONTINUOUS
10
167.177
20
-64.1044
11
167.179
21
-64.099
0
LINE
8
BLACK
6
CONTINUOUS
10
167.179
20
-64.099
11
167.181
21
-64.0926
0
LINE
8
BLACK
6
CONTINUOUS
10
167.181
20
-64.0926
11
167.183
21
-64.0859
0
LINE
8
BLACK
6
CONTINUOUS
10
167.183
20
-64.0859
11
167.186
21
-64.0812
0
LINE
8
BLACK
6
CONTINUOUS
10
167.186
20
-64.0812
11
167.188
21
-64.0761
0
LINE
8
BLACK
6
CONTINUOUS
10
167.188
20
-64.0761
11
167.205
21
-64.0447
0
LINE
8
BLACK
6
CONTINUOUS
10
167.205
20
-64.0447
11
167.219
21
-63.9968
0
LINE
8
BLACK
6
CONTINUOUS
10
167.219
20
-63.9968
11
167.225
21
-63.9408
0
LINE
8
BLACK
6
CONTINUOUS
10
167.225
20
-63.9408
11
167.225
21
-61.9532
0
LINE
8
BLACK
6
CONTINUOUS
10
167.225
20
-61.9532
11
167.219
21
-61.8972
0
LINE
8
BLACK
6
CONTINUOUS
10
167.219
20
-61.8972
11
167.205
21
-61.8493
0
LINE
8
BLACK
6
CONTINUOUS
10
167.205
20
-61.8493
11
167.181
21
-61.8052
0
LINE
8
BLACK
6
CONTINUOUS
10
167.181
20
-61.8052
11
167.149
21
-61.7665
0
LINE
8
BLACK
6
CONTINUOUS
10
167.149
20
-61.7665
11
167.111
21
-61.7348
0
LINE
8
BLACK
6
CONTINUOUS
10
167.111
20
-61.7348
11
167.067
21
-61.7112
0
LINE
8
BLACK
6
CONTINUOUS
10
167.067
20
-61.7112
11
167.019
21
-61.6967
0
LINE
8
BLACK
6
CONTINUOUS
10
167.019
20
-61.6967
11
166.963
21
-61.6912
0
LINE
8
BLACK
6
CONTINUOUS
10
166.963
20
-61.6912
11
166.375
21
-61.6912
0
LINE
8
BLACK
6
CONTINUOUS
10
166.375
20
-61.6912
11
166.319
21
-61.6967
0
LINE
8
BLACK
6
CONTINUOUS
10
166.319
20
-61.6967
11
166.271
21
-61.7112
0
LINE
8
BLACK
6
CONTINUOUS
10
166.271
20
-61.7112
11
166.229
21
-61.7339
0
LINE
8
BLACK
6
CONTINUOUS
10
166.229
20
-61.7339
11
166.228
21
-61.7341
0
LINE
8
BLACK
6
CONTINUOUS
10
166.228
20
-61.7341
11
166.228
21
-61.7342
0
LINE
8
BLACK
6
CONTINUOUS
10
166.228
20
-61.7342
11
166.228
21
-61.7342
0
LINE
8
BLACK
6
CONTINUOUS
10
166.228
20
-61.7342
11
166.227
21
-61.7347
0
LINE
8
BLACK
6
CONTINUOUS
10
166.227
20
-61.7347
11
166.216
21
-61.7391
0
LINE
8
BLACK
6
CONTINUOUS
10
166.216
20
-61.7391
11
166.205
21
-61.7436
0
LINE
8
BLACK
6
CONTINUOUS
10
166.205
20
-61.7436
11
166.205
21
-61.7437
0
LINE
8
BLACK
6
CONTINUOUS
10
166.205
20
-61.7437
11
166.204
21
-61.7439
0
LINE
8
BLACK
6
CONTINUOUS
10
166.204
20
-61.7439
11
166.193
21
-61.7461
0
LINE
8
BLACK
6
CONTINUOUS
10
166.193
20
-61.7461
11
166.181
21
-61.7483
0
LINE
8
BLACK
6
CONTINUOUS
10
166.181
20
-61.7483
11
166.181
21
-61.7483
0
LINE
8
BLACK
6
CONTINUOUS
10
166.181
20
-61.7483
11
166.18
21
-61.7484
0
LINE
8
BLACK
6
CONTINUOUS
10
166.18
20
-61.7484
11
166.168
21
-61.7483
0
LINE
8
BLACK
6
CONTINUOUS
10
166.168
20
-61.7483
11
166.156
21
-61.7483
0
LINE
8
BLACK
6
CONTINUOUS
10
166.156
20
-61.7483
11
166.156
21
-61.7481
0
LINE
8
BLACK
6
CONTINUOUS
10
166.156
20
-61.7481
11
166.155
21
-61.7481
0
LINE
8
BLACK
6
CONTINUOUS
10
166.155
20
-61.7481
11
166.144
21
-61.7457
0
LINE
8
BLACK
6
CONTINUOUS
10
166.144
20
-61.7457
11
166.132
21
-61.7434
0
LINE
8
BLACK
6
CONTINUOUS
10
166.132
20
-61.7434
11
166.131
21
-61.7432
0
LINE
8
BLACK
6
CONTINUOUS
10
166.131
20
-61.7432
11
166.131
21
-61.743
0
LINE
8
BLACK
6
CONTINUOUS
10
166.131
20
-61.743
11
166.12
21
-61.7384
0
LINE
8
BLACK
6
CONTINUOUS
10
166.12
20
-61.7384
11
166.109
21
-61.7339
0
LINE
8
BLACK
6
CONTINUOUS
10
166.109
20
-61.7339
11
166.067
21
-61.7112
0
LINE
8
BLACK
6
CONTINUOUS
10
166.067
20
-61.7112
11
166.019
21
-61.6967
0
LINE
8
BLACK
6
CONTINUOUS
10
166.019
20
-61.6967
11
165.963
21
-61.6912
0
LINE
8
BLACK
6
CONTINUOUS
10
165.963
20
-61.6912
11
165.375
21
-61.6912
0
LINE
8
BLACK
6
CONTINUOUS
10
165.375
20
-61.6912
11
165.319
21
-61.6967
0
LINE
8
BLACK
6
CONTINUOUS
10
165.319
20
-61.6967
11
165.271
21
-61.7112
0
LINE
8
BLACK
6
CONTINUOUS
10
165.271
20
-61.7112
11
165.229
21
-61.7339
0
LINE
8
BLACK
6
CONTINUOUS
10
165.229
20
-61.7339
11
165.228
21
-61.7341
0
LINE
8
BLACK
6
CONTINUOUS
10
165.228
20
-61.7341
11
165.228
21
-61.7342
0
LINE
8
BLACK
6
CONTINUOUS
10
165.228
20
-61.7342
11
165.228
21
-61.7342
0
LINE
8
BLACK
6
CONTINUOUS
10
165.228
20
-61.7342
11
165.227
21
-61.7347
0
LINE
8
BLACK
6
CONTINUOUS
10
165.227
20
-61.7347
11
165.216
21
-61.7391
0
LINE
8
BLACK
6
CONTINUOUS
10
165.216
20
-61.7391
11
165.205
21
-61.7436
0
LINE
8
BLACK
6
CONTINUOUS
10
165.205
20
-61.7436
11
165.205
21
-61.7437
0
LINE
8
BLACK
6
CONTINUOUS
10
165.205
20
-61.7437
11
165.204
21
-61.7439
0
LINE
8
BLACK
6
CONTINUOUS
10
165.204
20
-61.7439
11
165.193
21
-61.7461
0
LINE
8
BLACK
6
CONTINUOUS
10
165.193
20
-61.7461
11
165.181
21
-61.7483
0
LINE
8
BLACK
6
CONTINUOUS
10
165.181
20
-61.7483
11
165.181
21
-61.7483
0
LINE
8
BLACK
6
CONTINUOUS
10
165.181
20
-61.7483
11
165.18
21
-61.7484
0
LINE
8
BLACK
6
CONTINUOUS
10
165.18
20
-61.7484
11
165.168
21
-61.7483
0
LINE
8
BLACK
6
CONTINUOUS
10
165.168
20
-61.7483
11
165.156
21
-61.7483
0
LINE
8
BLACK
6
CONTINUOUS
10
165.156
20
-61.7483
11
165.156
21
-61.7481
0
LINE
8
BLACK
6
CONTINUOUS
10
165.156
20
-61.7481
11
165.155
21
-61.7481
0
LINE
8
BLACK
6
CONTINUOUS
10
165.155
20
-61.7481
11
165.144
21
-61.7457
0
LINE
8
BLACK
6
CONTINUOUS
10
165.144
20
-61.7457
11
165.132
21
-61.7434
0
LINE
8
BLACK
6
CONTINUOUS
10
165.132
20
-61.7434
11
165.131
21
-61.7432
0
LINE
8
BLACK
6
CONTINUOUS
10
165.131
20
-61.7432
11
165.131
21
-61.743
0
LINE
8
BLACK
6
CONTINUOUS
10
165.131
20
-61.743
11
165.12
21
-61.7384
0
LINE
8
BLACK
6
CONTINUOUS
10
165.12
20
-61.7384
11
165.109
21
-61.7339
0
LINE
8
BLACK
6
CONTINUOUS
10
165.109
20
-61.7339
11
165.067
21
-61.7112
0
LINE
8
BLACK
6
CONTINUOUS
10
165.067
20
-61.7112
11
165.019
21
-61.6967
0
LINE
8
BLACK
6
CONTINUOUS
10
165.019
20
-61.6967
11
164.963
21
-61.6912
0
LINE
8
BLACK
6
CONTINUOUS
10
164.963
20
-61.6912
11
164.375
21
-61.6912
0
LINE
8
BLACK
6
CONTINUOUS
10
164.375
20
-61.6912
11
164.319
21
-61.6967
0
LINE
8
BLACK
6
CONTINUOUS
10
164.319
20
-61.6967
11
164.271
21
-61.7112
0
LINE
8
BLACK
6
CONTINUOUS
10
164.271
20
-61.7112
11
164.229
21
-61.7339
0
LINE
8
BLACK
6
CONTINUOUS
10
164.229
20
-61.7339
11
164.228
21
-61.7341
0
LINE
8
BLACK
6
CONTINUOUS
10
164.228
20
-61.7341
11
164.228
21
-61.7342
0
LINE
8
BLACK
6
CONTINUOUS
10
164.228
20
-61.7342
11
164.228
21
-61.7342
0
LINE
8
BLACK
6
CONTINUOUS
10
164.228
20
-61.7342
11
164.227
21
-61.7347
0
LINE
8
BLACK
6
CONTINUOUS
10
164.227
20
-61.7347
11
164.216
21
-61.7391
0
LINE
8
BLACK
6
CONTINUOUS
10
164.216
20
-61.7391
11
164.205
21
-61.7436
0
LINE
8
BLACK
6
CONTINUOUS
10
164.205
20
-61.7436
11
164.205
21
-61.7437
0
LINE
8
BLACK
6
CONTINUOUS
10
164.205
20
-61.7437
11
164.204
21
-61.7439
0
LINE
8
BLACK
6
CONTINUOUS
10
164.204
20
-61.7439
11
164.193
21
-61.7461
0
LINE
8
BLACK
6
CONTINUOUS
10
164.193
20
-61.7461
11
164.181
21
-61.7483
0
LINE
8
BLACK
6
CONTINUOUS
10
164.181
20
-61.7483
11
164.181
21
-61.7483
0
LINE
8
BLACK
6
CONTINUOUS
10
164.181
20
-61.7483
11
164.18
21
-61.7484
0
LINE
8
BLACK
6
CONTINUOUS
10
164.18
20
-61.7484
11
164.168
21
-61.7483
0
LINE
8
BLACK
6
CONTINUOUS
10
164.168
20
-61.7483
11
164.156
21
-61.7483
0
LINE
8
BLACK
6
CONTINUOUS
10
164.156
20
-61.7483
11
164.156
21
-61.7481
0
LINE
8
BLACK
6
CONTINUOUS
10
164.156
20
-61.7481
11
164.155
21
-61.7481
0
LINE
8
BLACK
6
CONTINUOUS
10
164.155
20
-61.7481
11
164.144
21
-61.7457
0
LINE
8
BLACK
6
CONTINUOUS
10
164.144
20
-61.7457
11
164.132
21
-61.7434
0
LINE
8
BLACK
6
CONTINUOUS
10
164.132
20
-61.7434
11
164.131
21
-61.7432
0
LINE
8
BLACK
6
CONTINUOUS
10
164.131
20
-61.7432
11
164.131
21
-61.743
0
LINE
8
BLACK
6
CONTINUOUS
10
164.131
20
-61.743
11
164.12
21
-61.7384
0
LINE
8
BLACK
6
CONTINUOUS
10
164.12
20
-61.7384
11
164.109
21
-61.7339
0
LINE
8
BLACK
6
CONTINUOUS
10
164.109
20
-61.7339
11
164.067
21
-61.7112
0
LINE
8
BLACK
6
CONTINUOUS
10
164.067
20
-61.7112
11
164.019
21
-61.6967
0
LINE
8
BLACK
6
CONTINUOUS
10
164.019
20
-61.6967
11
163.963
21
-61.6912
0
LINE
8
BLACK
6
CONTINUOUS
10
163.963
20
-61.6912
11
163.375
21
-61.6912
0
LINE
8
BLACK
6
CONTINUOUS
10
163.375
20
-61.6912
11
163.319
21
-61.6967
0
LINE
8
BLACK
6
CONTINUOUS
10
163.319
20
-61.6967
11
163.271
21
-61.7112
0
LINE
8
BLACK
6
CONTINUOUS
10
163.271
20
-61.7112
11
163.229
21
-61.7339
0
LINE
8
BLACK
6
CONTINUOUS
10
163.229
20
-61.7339
11
163.228
21
-61.7341
0
LINE
8
BLACK
6
CONTINUOUS
10
163.228
20
-61.7341
11
163.228
21
-61.7342
0
LINE
8
BLACK
6
CONTINUOUS
10
163.228
20
-61.7342
11
163.228
21
-61.7342
0
LINE
8
BLACK
6
CONTINUOUS
10
163.228
20
-61.7342
11
163.227
21
-61.7347
0
LINE
8
BLACK
6
CONTINUOUS
10
163.227
20
-61.7347
11
163.216
21
-61.7391
0
LINE
8
BLACK
6
CONTINUOUS
10
163.216
20
-61.7391
11
163.205
21
-61.7436
0
LINE
8
BLACK
6
CONTINUOUS
10
163.205
20
-61.7436
11
163.205
21
-61.7437
0
LINE
8
BLACK
6
CONTINUOUS
10
163.205
20
-61.7437
11
163.204
21
-61.7439
0
LINE
8
BLACK
6
CONTINUOUS
10
163.204
20
-61.7439
11
163.193
21
-61.7461
0
LINE
8
BLACK
6
CONTINUOUS
10
163.193
20
-61.7461
11
163.181
21
-61.7483
0
LINE
8
BLACK
6
CONTINUOUS
10
163.181
20
-61.7483
11
163.181
21
-61.7483
0
LINE
8
BLACK
6
CONTINUOUS
10
163.181
20
-61.7483
11
163.18
21
-61.7484
0
LINE
8
BLACK
6
CONTINUOUS
10
163.18
20
-61.7484
11
163.168
21
-61.7483
0
LINE
8
BLACK
6
CONTINUOUS
10
163.168
20
-61.7483
11
163.156
21
-61.7483
0
LINE
8
BLACK
6
CONTINUOUS
10
163.156
20
-61.7483
11
163.156
21
-61.7481
0
LINE
8
BLACK
6
CONTINUOUS
10
163.156
20
-61.7481
11
163.155
21
-61.7481
0
LINE
8
BLACK
6
CONTINUOUS
10
163.155
20
-61.7481
11
163.144
21
-61.7457
0
LINE
8
BLACK
6
CONTINUOUS
10
163.144
20
-61.7457
11
163.132
21
-61.7434
0
LINE
8
BLACK
6
CONTINUOUS
10
163.132
20
-61.7434
11
163.131
21
-61.7432
0
LINE
8
BLACK
6
CONTINUOUS
10
163.131
20
-61.7432
11
163.131
21
-61.743
0
LINE
8
BLACK
6
CONTINUOUS
10
163.131
20
-61.743
11
163.12
21
-61.7384
0
LINE
8
BLACK
6
CONTINUOUS
10
163.12
20
-61.7384
11
163.109
21
-61.7339
0
LINE
8
BLACK
6
CONTINUOUS
10
163.109
20
-61.7339
11
163.067
21
-61.7112
0
LINE
8
BLACK
6
CONTINUOUS
10
163.067
20
-61.7112
11
163.019
21
-61.6967
0
LINE
8
BLACK
6
CONTINUOUS
10
163.019
20
-61.6967
11
162.963
21
-61.6912
0
LINE
8
BLACK
6
CONTINUOUS
10
162.963
20
-61.6912
11
162.375
21
-61.6912
0
LINE
8
BLACK
6
CONTINUOUS
10
162.375
20
-61.6912
11
162.319
21
-61.6967
0
LINE
8
BLACK
6
CONTINUOUS
10
162.319
20
-61.6967
11
162.271
21
-61.7112
0
LINE
8
BLACK
6
CONTINUOUS
10
162.271
20
-61.7112
11
162.229
21
-61.7339
0
LINE
8
BLACK
6
CONTINUOUS
10
162.229
20
-61.7339
11
162.228
21
-61.7341
0
LINE
8
BLACK
6
CONTINUOUS
10
162.228
20
-61.7341
11
162.228
21
-61.7342
0
LINE
8
BLACK
6
CONTINUOUS
10
162.228
20
-61.7342
11
162.228
21
-61.7342
0
LINE
8
BLACK
6
CONTINUOUS
10
162.228
20
-61.7342
11
162.227
21
-61.7347
0
LINE
8
BLACK
6
CONTINUOUS
10
162.227
20
-61.7347
11
162.216
21
-61.7391
0
LINE
8
BLACK
6
CONTINUOUS
10
162.216
20
-61.7391
11
162.205
21
-61.7436
0
LINE
8
BLACK
6
CONTINUOUS
10
162.205
20
-61.7436
11
162.205
21
-61.7437
0
LINE
8
BLACK
6
CONTINUOUS
10
162.205
20
-61.7437
11
162.204
21
-61.7439
0
LINE
8
BLACK
6
CONTINUOUS
10
162.204
20
-61.7439
11
162.193
21
-61.7461
0
LINE
8
BLACK
6
CONTINUOUS
10
162.193
20
-61.7461
11
162.181
21
-61.7483
0
LINE
8
BLACK
6
CONTINUOUS
10
162.181
20
-61.7483
11
162.181
21
-61.7483
0
LINE
8
BLACK
6
CONTINUOUS
10
162.181
20
-61.7483
11
162.18
21
-61.7484
0
LINE
8
BLACK
6
CONTINUOUS
10
162.18
20
-61.7484
11
162.168
21
-61.7483
0
LINE
8
BLACK
6
CONTINUOUS
10
162.168
20
-61.7483
11
162.156
21
-61.7483
0
LINE
8
BLACK
6
CONTINUOUS
10
162.156
20
-61.7483
11
162.156
21
-61.7481
0
LINE
8
BLACK
6
CONTINUOUS
10
162.156
20
-61.7481
11
162.155
21
-61.7481
0
LINE
8
BLACK
6
CONTINUOUS
10
162.155
20
-61.7481
11
162.144
21
-61.7457
0
LINE
8
BLACK
6
CONTINUOUS
10
162.144
20
-61.7457
11
162.132
21
-61.7434
0
LINE
8
BLACK
6
CONTINUOUS
10
162.132
20
-61.7434
11
162.131
21
-61.7432
0
LINE
8
BLACK
6
CONTINUOUS
10
162.131
20
-61.7432
11
162.131
21
-61.743
0
LINE
8
BLACK
6
CONTINUOUS
10
162.131
20
-61.743
11
162.12
21
-61.7384
0
LINE
8
BLACK
6
CONTINUOUS
10
162.12
20
-61.7384
11
162.109
21
-61.7339
0
LINE
8
BLACK
6
CONTINUOUS
10
162.109
20
-61.7339
11
162.067
21
-61.7112
0
LINE
8
BLACK
6
CONTINUOUS
10
162.067
20
-61.7112
11
162.019
21
-61.6967
0
LINE
8
BLACK
6
CONTINUOUS
10
162.019
20
-61.6967
11
161.963
21
-61.6912
0
LINE
8
BLACK
6
CONTINUOUS
10
161.963
20
-61.6912
11
161.375
21
-61.6912
0
LINE
8
BLACK
6
CONTINUOUS
10
161.375
20
-61.6912
11
161.319
21
-61.6967
0
LINE
8
BLACK
6
CONTINUOUS
10
161.319
20
-61.6967
11
161.271
21
-61.7112
0
LINE
8
BLACK
6
CONTINUOUS
10
161.271
20
-61.7112
11
161.229
21
-61.7339
0
LINE
8
BLACK
6
CONTINUOUS
10
161.229
20
-61.7339
11
161.228
21
-61.7341
0
LINE
8
BLACK
6
CONTINUOUS
10
161.228
20
-61.7341
11
161.228
21
-61.7342
0
LINE
8
BLACK
6
CONTINUOUS
10
161.228
20
-61.7342
11
161.228
21
-61.7342
0
LINE
8
BLACK
6
CONTINUOUS
10
161.228
20
-61.7342
11
161.227
21
-61.7347
0
LINE
8
BLACK
6
CONTINUOUS
10
161.227
20
-61.7347
11
161.216
21
-61.7391
0
LINE
8
BLACK
6
CONTINUOUS
10
161.216
20
-61.7391
11
161.205
21
-61.7436
0
LINE
8
BLACK
6
CONTINUOUS
10
161.205
20
-61.7436
11
161.205
21
-61.7437
0
LINE
8
BLACK
6
CONTINUOUS
10
161.205
20
-61.7437
11
161.204
21
-61.7439
0
LINE
8
BLACK
6
CONTINUOUS
10
161.204
20
-61.7439
11
161.193
21
-61.7461
0
LINE
8
BLACK
6
CONTINUOUS
10
161.193
20
-61.7461
11
161.181
21
-61.7483
0
LINE
8
BLACK
6
CONTINUOUS
10
161.181
20
-61.7483
11
161.181
21
-61.7483
0
LINE
8
BLACK
6
CONTINUOUS
10
161.181
20
-61.7483
11
161.18
21
-61.7484
0
LINE
8
BLACK
6
CONTINUOUS
10
161.18
20
-61.7484
11
161.168
21
-61.7483
0
LINE
8
BLACK
6
CONTINUOUS
10
161.168
20
-61.7483
11
161.156
21
-61.7483
0
LINE
8
BLACK
6
CONTINUOUS
10
161.156
20
-61.7483
11
161.156
21
-61.7481
0
LINE
8
BLACK
6
CONTINUOUS
10
161.156
20
-61.7481
11
161.155
21
-61.7481
0
LINE
8
BLACK
6
CONTINUOUS
10
161.155
20
-61.7481
11
161.144
21
-61.7457
0
LINE
8
BLACK
6
CONTINUOUS
10
161.144
20
-61.7457
11
161.132
21
-61.7434
0
LINE
8
BLACK
6
CONTINUOUS
10
161.132
20
-61.7434
11
161.131
21
-61.7432
0
LINE
8
BLACK
6
CONTINUOUS
10
161.131
20
-61.7432
11
161.131
21
-61.743
0
LINE
8
BLACK
6
CONTINUOUS
10
161.131
20
-61.743
11
161.12
21
-61.7384
0
LINE
8
BLACK
6
CONTINUOUS
10
161.12
20
-61.7384
11
161.109
21
-61.7339
0
LINE
8
BLACK
6
CONTINUOUS
10
161.109
20
-61.7339
11
161.067
21
-61.7112
0
LINE
8
BLACK
6
CONTINUOUS
10
161.067
20
-61.7112
11
161.019
21
-61.6967
0
LINE
8
BLACK
6
CONTINUOUS
10
161.019
20
-61.6967
11
160.963
21
-61.6912
0
LINE
8
BLACK
6
CONTINUOUS
10
160.963
20
-61.6912
11
160.375
21
-61.6912
0
LINE
8
BLACK
6
CONTINUOUS
10
160.375
20
-61.6912
11
160.319
21
-61.6967
0
LINE
8
BLACK
6
CONTINUOUS
10
160.319
20
-61.6967
11
160.271
21
-61.7112
0
LINE
8
BLACK
6
CONTINUOUS
10
160.271
20
-61.7112
11
160.229
21
-61.7339
0
LINE
8
BLACK
6
CONTINUOUS
10
160.229
20
-61.7339
11
160.228
21
-61.7341
0
LINE
8
BLACK
6
CONTINUOUS
10
160.228
20
-61.7341
11
160.228
21
-61.7342
0
LINE
8
BLACK
6
CONTINUOUS
10
160.228
20
-61.7342
11
160.228
21
-61.7342
0
LINE
8
BLACK
6
CONTINUOUS
10
160.228
20
-61.7342
11
160.227
21
-61.7347
0
LINE
8
BLACK
6
CONTINUOUS
10
160.227
20
-61.7347
11
160.216
21
-61.7391
0
LINE
8
BLACK
6
CONTINUOUS
10
160.216
20
-61.7391
11
160.205
21
-61.7436
0
LINE
8
BLACK
6
CONTINUOUS
10
160.205
20
-61.7436
11
160.205
21
-61.7437
0
LINE
8
BLACK
6
CONTINUOUS
10
160.205
20
-61.7437
11
160.204
21
-61.7439
0
LINE
8
BLACK
6
CONTINUOUS
10
160.204
20
-61.7439
11
160.193
21
-61.7461
0
LINE
8
BLACK
6
CONTINUOUS
10
160.193
20
-61.7461
11
160.181
21
-61.7483
0
LINE
8
BLACK
6
CONTINUOUS
10
160.181
20
-61.7483
11
160.181
21
-61.7483
0
LINE
8
BLACK
6
CONTINUOUS
10
160.181
20
-61.7483
11
160.18
21
-61.7484
0
LINE
8
BLACK
6
CONTINUOUS
10
160.18
20
-61.7484
11
160.168
21
-61.7483
0
LINE
8
BLACK
6
CONTINUOUS
10
160.168
20
-61.7483
11
160.156
21
-61.7483
0
LINE
8
BLACK
6
CONTINUOUS
10
160.156
20
-61.7483
11
160.156
21
-61.7481
0
LINE
8
BLACK
6
CONTINUOUS
10
160.156
20
-61.7481
11
160.155
21
-61.7481
0
LINE
8
BLACK
6
CONTINUOUS
10
160.155
20
-61.7481
11
160.144
21
-61.7457
0
LINE
8
BLACK
6
CONTINUOUS
10
160.144
20
-61.7457
11
160.132
21
-61.7434
0
LINE
8
BLACK
6
CONTINUOUS
10
160.132
20
-61.7434
11
160.131
21
-61.7432
0
LINE
8
BLACK
6
CONTINUOUS
10
160.131
20
-61.7432
11
160.131
21
-61.743
0
LINE
8
BLACK
6
CONTINUOUS
10
160.131
20
-61.743
11
160.12
21
-61.7384
0
LINE
8
BLACK
6
CONTINUOUS
10
160.12
20
-61.7384
11
160.109
21
-61.7339
0
LINE
8
BLACK
6
CONTINUOUS
10
160.109
20
-61.7339
11
160.067
21
-61.7112
0
LINE
8
BLACK
6
CONTINUOUS
10
160.067
20
-61.7112
11
160.019
21
-61.6967
0
LINE
8
BLACK
6
CONTINUOUS
10
160.019
20
-61.6967
11
159.963
21
-61.6912
0
LINE
8
BLACK
6
CONTINUOUS
10
159.963
20
-61.6912
11
159.375
21
-61.6912
0
LINE
8
BLACK
6
CONTINUOUS
10
159.375
20
-61.6912
11
159.319
21
-61.6967
0
LINE
8
BLACK
6
CONTINUOUS
10
159.319
20
-61.6967
11
159.271
21
-61.7112
0
LINE
8
BLACK
6
CONTINUOUS
10
159.271
20
-61.7112
11
159.229
21
-61.7339
0
LINE
8
BLACK
6
CONTINUOUS
10
159.229
20
-61.7339
11
159.228
21
-61.7341
0
LINE
8
BLACK
6
CONTINUOUS
10
159.228
20
-61.7341
11
159.228
21
-61.7342
0
LINE
8
BLACK
6
CONTINUOUS
10
159.228
20
-61.7342
11
159.228
21
-61.7342
0
LINE
8
BLACK
6
CONTINUOUS
10
159.228
20
-61.7342
11
159.227
21
-61.7347
0
LINE
8
BLACK
6
CONTINUOUS
10
159.227
20
-61.7347
11
159.216
21
-61.7391
0
LINE
8
BLACK
6
CONTINUOUS
10
159.216
20
-61.7391
11
159.205
21
-61.7436
0
LINE
8
BLACK
6
CONTINUOUS
10
159.205
20
-61.7436
11
159.205
21
-61.7437
0
LINE
8
BLACK
6
CONTINUOUS
10
159.205
20
-61.7437
11
159.204
21
-61.7439
0
LINE
8
BLACK
6
CONTINUOUS
10
159.204
20
-61.7439
11
159.193
21
-61.7461
0
LINE
8
BLACK
6
CONTINUOUS
10
159.193
20
-61.7461
11
159.181
21
-61.7483
0
LINE
8
BLACK
6
CONTINUOUS
10
159.181
20
-61.7483
11
159.181
21
-61.7483
0
LINE
8
BLACK
6
CONTINUOUS
10
159.181
20
-61.7483
11
159.18
21
-61.7484
0
LINE
8
BLACK
6
CONTINUOUS
10
159.18
20
-61.7484
11
159.168
21
-61.7483
0
LINE
8
BLACK
6
CONTINUOUS
10
159.168
20
-61.7483
11
159.156
21
-61.7483
0
LINE
8
BLACK
6
CONTINUOUS
10
159.156
20
-61.7483
11
159.156
21
-61.7481
0
LINE
8
BLACK
6
CONTINUOUS
10
159.156
20
-61.7481
11
159.155
21
-61.7481
0
LINE
8
BLACK
6
CONTINUOUS
10
159.155
20
-61.7481
11
159.144
21
-61.7457
0
LINE
8
BLACK
6
CONTINUOUS
10
159.144
20
-61.7457
11
159.132
21
-61.7434
0
LINE
8
BLACK
6
CONTINUOUS
10
159.132
20
-61.7434
11
159.131
21
-61.7432
0
LINE
8
BLACK
6
CONTINUOUS
10
159.131
20
-61.7432
11
159.131
21
-61.743
0
LINE
8
BLACK
6
CONTINUOUS
10
159.131
20
-61.743
11
159.12
21
-61.7384
0
LINE
8
BLACK
6
CONTINUOUS
10
159.12
20
-61.7384
11
159.109
21
-61.7339
0
LINE
8
BLACK
6
CONTINUOUS
10
159.109
20
-61.7339
11
159.067
21
-61.7112
0
LINE
8
BLACK
6
CONTINUOUS
10
159.067
20
-61.7112
11
159.019
21
-61.6967
0
LINE
8
BLACK
6
CONTINUOUS
10
159.019
20
-61.6967
11
158.963
21
-61.6912
0
LINE
8
BLACK
6
CONTINUOUS
10
158.963
20
-61.6912
11
158.375
21
-61.6912
0
LINE
8
BLACK
6
CONTINUOUS
10
158.375
20
-61.6912
11
158.319
21
-61.6967
0
LINE
8
BLACK
6
CONTINUOUS
10
158.319
20
-61.6967
11
158.271
21
-61.7112
0
LINE
8
BLACK
6
CONTINUOUS
10
158.271
20
-61.7112
11
158.229
21
-61.7339
0
LINE
8
BLACK
6
CONTINUOUS
10
158.229
20
-61.7339
11
158.228
21
-61.7341
0
LINE
8
BLACK
6
CONTINUOUS
10
158.228
20
-61.7341
11
158.228
21
-61.7342
0
LINE
8
BLACK
6
CONTINUOUS
10
158.228
20
-61.7342
11
158.228
21
-61.7342
0
LINE
8
BLACK
6
CONTINUOUS
10
158.228
20
-61.7342
11
158.227
21
-61.7347
0
LINE
8
BLACK
6
CONTINUOUS
10
158.227
20
-61.7347
11
158.216
21
-61.7391
0
LINE
8
BLACK
6
CONTINUOUS
10
158.216
20
-61.7391
11
158.205
21
-61.7436
0
LINE
8
BLACK
6
CONTINUOUS
10
158.205
20
-61.7436
11
158.205
21
-61.7437
0
LINE
8
BLACK
6
CONTINUOUS
10
158.205
20
-61.7437
11
158.204
21
-61.7439
0
LINE
8
BLACK
6
CONTINUOUS
10
158.204
20
-61.7439
11
158.193
21
-61.7461
0
LINE
8
BLACK
6
CONTINUOUS
10
158.193
20
-61.7461
11
158.181
21
-61.7483
0
LINE
8
BLACK
6
CONTINUOUS
10
158.181
20
-61.7483
11
158.181
21
-61.7483
0
LINE
8
BLACK
6
CONTINUOUS
10
158.181
20
-61.7483
11
158.18
21
-61.7484
0
LINE
8
BLACK
6
CONTINUOUS
10
158.18
20
-61.7484
11
158.168
21
-61.7483
0
LINE
8
BLACK
6
CONTINUOUS
10
158.168
20
-61.7483
11
158.156
21
-61.7483
0
LINE
8
BLACK
6
CONTINUOUS
10
158.156
20
-61.7483
11
158.156
21
-61.7481
0
LINE
8
BLACK
6
CONTINUOUS
10
158.156
20
-61.7481
11
158.155
21
-61.7481
0
LINE
8
BLACK
6
CONTINUOUS
10
158.155
20
-61.7481
11
158.144
21
-61.7457
0
LINE
8
BLACK
6
CONTINUOUS
10
158.144
20
-61.7457
11
158.132
21
-61.7434
0
LINE
8
BLACK
6
CONTINUOUS
10
158.132
20
-61.7434
11
158.131
21
-61.7432
0
LINE
8
BLACK
6
CONTINUOUS
10
158.131
20
-61.7432
11
158.131
21
-61.743
0
LINE
8
BLACK
6
CONTINUOUS
10
158.131
20
-61.743
11
158.12
21
-61.7384
0
LINE
8
BLACK
6
CONTINUOUS
10
158.12
20
-61.7384
11
158.109
21
-61.7339
0
LINE
8
BLACK
6
CONTINUOUS
10
158.109
20
-61.7339
11
158.067
21
-61.7112
0
LINE
8
BLACK
6
CONTINUOUS
10
158.067
20
-61.7112
11
158.019
21
-61.6967
0
LINE
8
BLACK
6
CONTINUOUS
10
158.019
20
-61.6967
11
157.963
21
-61.6912
0
LINE
8
BLACK
6
CONTINUOUS
10
157.963
20
-61.6912
11
157.375
21
-61.6912
0
LINE
8
BLACK
6
CONTINUOUS
10
157.375
20
-61.6912
11
157.319
21
-61.6967
0
LINE
8
BLACK
6
CONTINUOUS
10
157.319
20
-61.6967
11
157.271
21
-61.7112
0
LINE
8
BLACK
6
CONTINUOUS
10
157.271
20
-61.7112
11
157.229
21
-61.7339
0
LINE
8
BLACK
6
CONTINUOUS
10
157.229
20
-61.7339
11
157.228
21
-61.7341
0
LINE
8
BLACK
6
CONTINUOUS
10
157.228
20
-61.7341
11
157.228
21
-61.7342
0
LINE
8
BLACK
6
CONTINUOUS
10
157.228
20
-61.7342
11
157.228
21
-61.7342
0
LINE
8
BLACK
6
CONTINUOUS
10
157.228
20
-61.7342
11
157.227
21
-61.7347
0
LINE
8
BLACK
6
CONTINUOUS
10
157.227
20
-61.7347
11
157.216
21
-61.7391
0
LINE
8
BLACK
6
CONTINUOUS
10
157.216
20
-61.7391
11
157.205
21
-61.7436
0
LINE
8
BLACK
6
CONTINUOUS
10
157.205
20
-61.7436
11
157.205
21
-61.7437
0
LINE
8
BLACK
6
CONTINUOUS
10
157.205
20
-61.7437
11
157.204
21
-61.7439
0
LINE
8
BLACK
6
CONTINUOUS
10
157.204
20
-61.7439
11
157.193
21
-61.7461
0
LINE
8
BLACK
6
CONTINUOUS
10
157.193
20
-61.7461
11
157.181
21
-61.7483
0
LINE
8
BLACK
6
CONTINUOUS
10
157.181
20
-61.7483
11
157.181
21
-61.7483
0
LINE
8
BLACK
6
CONTINUOUS
10
157.181
20
-61.7483
11
157.18
21
-61.7484
0
LINE
8
BLACK
6
CONTINUOUS
10
157.18
20
-61.7484
11
157.168
21
-61.7483
0
LINE
8
BLACK
6
CONTINUOUS
10
157.168
20
-61.7483
11
157.156
21
-61.7483
0
LINE
8
BLACK
6
CONTINUOUS
10
157.156
20
-61.7483
11
157.156
21
-61.7481
0
LINE
8
BLACK
6
CONTINUOUS
10
157.156
20
-61.7481
11
157.155
21
-61.7481
0
LINE
8
BLACK
6
CONTINUOUS
10
157.155
20
-61.7481
11
157.144
21
-61.7457
0
LINE
8
BLACK
6
CONTINUOUS
10
157.144
20
-61.7457
11
157.132
21
-61.7434
0
LINE
8
BLACK
6
CONTINUOUS
10
157.132
20
-61.7434
11
157.131
21
-61.7432
0
LINE
8
BLACK
6
CONTINUOUS
10
157.131
20
-61.7432
11
157.131
21
-61.743
0
LINE
8
BLACK
6
CONTINUOUS
10
157.131
20
-61.743
11
157.12
21
-61.7384
0
LINE
8
BLACK
6
CONTINUOUS
10
157.12
20
-61.7384
11
157.109
21
-61.7339
0
LINE
8
BLACK
6
CONTINUOUS
10
157.109
20
-61.7339
11
157.067
21
-61.7112
0
LINE
8
BLACK
6
CONTINUOUS
10
157.067
20
-61.7112
11
157.019
21
-61.6967
0
LINE
8
BLACK
6
CONTINUOUS
10
157.019
20
-61.6967
11
156.963
21
-61.6912
0
LINE
8
BLACK
6
CONTINUOUS
10
156.963
20
-61.6912
11
156.375
21
-61.6912
0
LINE
8
BLACK
6
CONTINUOUS
10
156.375
20
-61.6912
11
156.319
21
-61.6967
0
LINE
8
BLACK
6
CONTINUOUS
10
156.319
20
-61.6967
11
156.271
21
-61.7112
0
LINE
8
BLACK
6
CONTINUOUS
10
156.271
20
-61.7112
11
156.229
21
-61.7339
0
LINE
8
BLACK
6
CONTINUOUS
10
156.229
20
-61.7339
11
156.228
21
-61.7341
0
LINE
8
BLACK
6
CONTINUOUS
10
156.228
20
-61.7341
11
156.228
21
-61.7342
0
LINE
8
BLACK
6
CONTINUOUS
10
156.228
20
-61.7342
11
156.228
21
-61.7342
0
LINE
8
BLACK
6
CONTINUOUS
10
156.228
20
-61.7342
11
156.227
21
-61.7347
0
LINE
8
BLACK
6
CONTINUOUS
10
156.227
20
-61.7347
11
156.216
21
-61.7391
0
LINE
8
BLACK
6
CONTINUOUS
10
156.216
20
-61.7391
11
156.205
21
-61.7436
0
LINE
8
BLACK
6
CONTINUOUS
10
156.205
20
-61.7436
11
156.205
21
-61.7437
0
LINE
8
BLACK
6
CONTINUOUS
10
156.205
20
-61.7437
11
156.204
21
-61.7439
0
LINE
8
BLACK
6
CONTINUOUS
10
156.204
20
-61.7439
11
156.193
21
-61.7461
0
LINE
8
BLACK
6
CONTINUOUS
10
156.193
20
-61.7461
11
156.181
21
-61.7483
0
LINE
8
BLACK
6
CONTINUOUS
10
156.181
20
-61.7483
11
156.181
21
-61.7483
0
LINE
8
BLACK
6
CONTINUOUS
10
156.181
20
-61.7483
11
156.18
21
-61.7484
0
LINE
8
BLACK
6
CONTINUOUS
10
156.18
20
-61.7484
11
156.168
21
-61.7483
0
LINE
8
BLACK
6
CONTINUOUS
10
156.168
20
-61.7483
11
156.156
21
-61.7483
0
LINE
8
BLACK
6
CONTINUOUS
10
156.156
20
-61.7483
11
156.156
21
-61.7481
0
LINE
8
BLACK
6
CONTINUOUS
10
156.156
20
-61.7481
11
156.155
21
-61.7481
0
LINE
8
BLACK
6
CONTINUOUS
10
156.155
20
-61.7481
11
156.144
21
-61.7457
0
LINE
8
BLACK
6
CONTINUOUS
10
156.144
20
-61.7457
11
156.132
21
-61.7434
0
LINE
8
BLACK
6
CONTINUOUS
10
156.132
20
-61.7434
11
156.131
21
-61.7432
0
LINE
8
BLACK
6
CONTINUOUS
10
156.131
20
-61.7432
11
156.131
21
-61.743
0
LINE
8
BLACK
6
CONTINUOUS
10
156.131
20
-61.743
11
156.12
21
-61.7384
0
LINE
8
BLACK
6
CONTINUOUS
10
156.12
20
-61.7384
11
156.109
21
-61.7339
0
LINE
8
BLACK
6
CONTINUOUS
10
156.109
20
-61.7339
11
156.067
21
-61.7112
0
LINE
8
BLACK
6
CONTINUOUS
10
156.067
20
-61.7112
11
156.019
21
-61.6967
0
LINE
8
BLACK
6
CONTINUOUS
10
156.019
20
-61.6967
11
155.963
21
-61.6912
0
LINE
8
BLACK
6
CONTINUOUS
10
155.963
20
-61.6912
11
155.375
21
-61.6912
0
LINE
8
BLACK
6
CONTINUOUS
10
155.375
20
-61.6912
11
155.319
21
-61.6967
0
LINE
8
BLACK
6
CONTINUOUS
10
155.319
20
-61.6967
11
155.271
21
-61.7112
0
LINE
8
BLACK
6
CONTINUOUS
10
155.271
20
-61.7112
11
155.229
21
-61.7339
0
LINE
8
BLACK
6
CONTINUOUS
10
155.229
20
-61.7339
11
155.228
21
-61.7341
0
LINE
8
BLACK
6
CONTINUOUS
10
155.228
20
-61.7341
11
155.228
21
-61.7342
0
LINE
8
BLACK
6
CONTINUOUS
10
155.228
20
-61.7342
11
155.228
21
-61.7342
0
LINE
8
BLACK
6
CONTINUOUS
10
155.228
20
-61.7342
11
155.227
21
-61.7347
0
LINE
8
BLACK
6
CONTINUOUS
10
155.227
20
-61.7347
11
155.216
21
-61.7391
0
LINE
8
BLACK
6
CONTINUOUS
10
155.216
20
-61.7391
11
155.205
21
-61.7436
0
LINE
8
BLACK
6
CONTINUOUS
10
155.205
20
-61.7436
11
155.205
21
-61.7437
0
LINE
8
BLACK
6
CONTINUOUS
10
155.205
20
-61.7437
11
155.204
21
-61.7439
0
LINE
8
BLACK
6
CONTINUOUS
10
155.204
20
-61.7439
11
155.193
21
-61.7461
0
LINE
8
BLACK
6
CONTINUOUS
10
155.193
20
-61.7461
11
155.181
21
-61.7483
0
LINE
8
BLACK
6
CONTINUOUS
10
155.181
20
-61.7483
11
155.181
21
-61.7483
0
LINE
8
BLACK
6
CONTINUOUS
10
155.181
20
-61.7483
11
155.18
21
-61.7484
0
LINE
8
BLACK
6
CONTINUOUS
10
155.18
20
-61.7484
11
155.168
21
-61.7483
0
LINE
8
BLACK
6
CONTINUOUS
10
155.168
20
-61.7483
11
155.156
21
-61.7483
0
LINE
8
BLACK
6
CONTINUOUS
10
155.156
20
-61.7483
11
155.156
21
-61.7481
0
LINE
8
BLACK
6
CONTINUOUS
10
155.156
20
-61.7481
11
155.155
21
-61.7481
0
LINE
8
BLACK
6
CONTINUOUS
10
155.155
20
-61.7481
11
155.144
21
-61.7457
0
LINE
8
BLACK
6
CONTINUOUS
10
155.144
20
-61.7457
11
155.132
21
-61.7434
0
LINE
8
BLACK
6
CONTINUOUS
10
155.132
20
-61.7434
11
155.131
21
-61.7432
0
LINE
8
BLACK
6
CONTINUOUS
10
155.131
20
-61.7432
11
155.131
21
-61.743
0
LINE
8
BLACK
6
CONTINUOUS
10
155.131
20
-61.743
11
155.12
21
-61.7384
0
LINE
8
BLACK
6
CONTINUOUS
10
155.12
20
-61.7384
11
155.109
21
-61.7339
0
LINE
8
BLACK
6
CONTINUOUS
10
155.109
20
-61.7339
11
155.067
21
-61.7112
0
LINE
8
BLACK
6
CONTINUOUS
10
155.067
20
-61.7112
11
155.019
21
-61.6967
0
LINE
8
BLACK
6
CONTINUOUS
10
155.019
20
-61.6967
11
154.963
21
-61.6912
0
LINE
8
BLACK
6
CONTINUOUS
10
154.963
20
-61.6912
11
154.375
21
-61.6912
0
LINE
8
BLACK
6
CONTINUOUS
10
154.375
20
-61.6912
11
154.319
21
-61.6967
0
LINE
8
BLACK
6
CONTINUOUS
10
154.319
20
-61.6967
11
154.271
21
-61.7112
0
LINE
8
BLACK
6
CONTINUOUS
10
154.271
20
-61.7112
11
154.229
21
-61.7339
0
LINE
8
BLACK
6
CONTINUOUS
10
154.229
20
-61.7339
11
154.228
21
-61.7341
0
LINE
8
BLACK
6
CONTINUOUS
10
154.228
20
-61.7341
11
154.228
21
-61.7342
0
LINE
8
BLACK
6
CONTINUOUS
10
154.228
20
-61.7342
11
154.228
21
-61.7342
0
LINE
8
BLACK
6
CONTINUOUS
10
154.228
20
-61.7342
11
154.227
21
-61.7347
0
LINE
8
BLACK
6
CONTINUOUS
10
154.227
20
-61.7347
11
154.216
21
-61.7391
0
LINE
8
BLACK
6
CONTINUOUS
10
154.216
20
-61.7391
11
154.205
21
-61.7436
0
LINE
8
BLACK
6
CONTINUOUS
10
154.205
20
-61.7436
11
154.205
21
-61.7437
0
LINE
8
BLACK
6
CONTINUOUS
10
154.205
20
-61.7437
11
154.204
21
-61.7439
0
LINE
8
BLACK
6
CONTINUOUS
10
154.204
20
-61.7439
11
154.193
21
-61.7461
0
LINE
8
BLACK
6
CONTINUOUS
10
154.193
20
-61.7461
11
154.181
21
-61.7483
0
LINE
8
BLACK
6
CONTINUOUS
10
154.181
20
-61.7483
11
154.181
21
-61.7483
0
LINE
8
BLACK
6
CONTINUOUS
10
154.181
20
-61.7483
11
154.18
21
-61.7484
0
LINE
8
BLACK
6
CONTINUOUS
10
154.18
20
-61.7484
11
154.168
21
-61.7483
0
LINE
8
BLACK
6
CONTINUOUS
10
154.168
20
-61.7483
11
154.156
21
-61.7483
0
LINE
8
BLACK
6
CONTINUOUS
10
154.156
20
-61.7483
11
154.156
21
-61.7481
0
LINE
8
BLACK
6
CONTINUOUS
10
154.156
20
-61.7481
11
154.155
21
-61.7481
0
LINE
8
BLACK
6
CONTINUOUS
10
154.155
20
-61.7481
11
154.144
21
-61.7457
0
LINE
8
BLACK
6
CONTINUOUS
10
154.144
20
-61.7457
11
154.132
21
-61.7434
0
LINE
8
BLACK
6
CONTINUOUS
10
154.132
20
-61.7434
11
154.131
21
-61.7432
0
LINE
8
BLACK
6
CONTINUOUS
10
154.131
20
-61.7432
11
154.131
21
-61.743
0
LINE
8
BLACK
6
CONTINUOUS
10
154.131
20
-61.743
11
154.12
21
-61.7384
0
LINE
8
BLACK
6
CONTINUOUS
10
154.12
20
-61.7384
11
154.109
21
-61.7339
0
LINE
8
BLACK
6
CONTINUOUS
10
154.109
20
-61.7339
11
154.067
21
-61.7112
0
LINE
8
BLACK
6
CONTINUOUS
10
154.067
20
-61.7112
11
154.019
21
-61.6967
0
LINE
8
BLACK
6
CONTINUOUS
10
154.019
20
-61.6967
11
153.963
21
-61.6912
0
LINE
8
BLACK
6
CONTINUOUS
10
153.963
20
-61.6912
11
153.375
21
-61.6912
0
LINE
8
BLACK
6
CONTINUOUS
10
153.375
20
-61.6912
11
153.319
21
-61.6967
0
LINE
8
BLACK
6
CONTINUOUS
10
153.319
20
-61.6967
11
153.271
21
-61.7112
0
LINE
8
BLACK
6
CONTINUOUS
10
153.271
20
-61.7112
11
153.229
21
-61.7339
0
LINE
8
BLACK
6
CONTINUOUS
10
153.229
20
-61.7339
11
153.228
21
-61.7341
0
LINE
8
BLACK
6
CONTINUOUS
10
153.228
20
-61.7341
11
153.228
21
-61.7342
0
LINE
8
BLACK
6
CONTINUOUS
10
153.228
20
-61.7342
11
153.228
21
-61.7342
0
LINE
8
BLACK
6
CONTINUOUS
10
153.228
20
-61.7342
11
153.227
21
-61.7347
0
LINE
8
BLACK
6
CONTINUOUS
10
153.227
20
-61.7347
11
153.216
21
-61.7391
0
LINE
8
BLACK
6
CONTINUOUS
10
153.216
20
-61.7391
11
153.205
21
-61.7436
0
LINE
8
BLACK
6
CONTINUOUS
10
153.205
20
-61.7436
11
153.205
21
-61.7437
0
LINE
8
BLACK
6
CONTINUOUS
10
153.205
20
-61.7437
11
153.204
21
-61.7439
0
LINE
8
BLACK
6
CONTINUOUS
10
153.204
20
-61.7439
11
153.193
21
-61.7461
0
LINE
8
BLACK
6
CONTINUOUS
10
153.193
20
-61.7461
11
153.181
21
-61.7483
0
LINE
8
BLACK
6
CONTINUOUS
10
153.181
20
-61.7483
11
153.181
21
-61.7483
0
LINE
8
BLACK
6
CONTINUOUS
10
153.181
20
-61.7483
11
153.18
21
-61.7484
0
LINE
8
BLACK
6
CONTINUOUS
10
153.18
20
-61.7484
11
153.168
21
-61.7483
0
LINE
8
BLACK
6
CONTINUOUS
10
153.168
20
-61.7483
11
153.156
21
-61.7483
0
LINE
8
BLACK
6
CONTINUOUS
10
153.156
20
-61.7483
11
153.156
21
-61.7481
0
LINE
8
BLACK
6
CONTINUOUS
10
153.156
20
-61.7481
11
153.155
21
-61.7481
0
LINE
8
BLACK
6
CONTINUOUS
10
153.155
20
-61.7481
11
153.144
21
-61.7457
0
LINE
8
BLACK
6
CONTINUOUS
10
153.144
20
-61.7457
11
153.132
21
-61.7434
0
LINE
8
BLACK
6
CONTINUOUS
10
153.132
20
-61.7434
11
153.131
21
-61.7432
0
LINE
8
BLACK
6
CONTINUOUS
10
153.131
20
-61.7432
11
153.131
21
-61.743
0
LINE
8
BLACK
6
CONTINUOUS
10
153.131
20
-61.743
11
153.12
21
-61.7384
0
LINE
8
BLACK
6
CONTINUOUS
10
153.12
20
-61.7384
11
153.109
21
-61.7339
0
LINE
8
BLACK
6
CONTINUOUS
10
153.109
20
-61.7339
11
153.067
21
-61.7112
0
LINE
8
BLACK
6
CONTINUOUS
10
153.067
20
-61.7112
11
153.019
21
-61.6967
0
LINE
8
BLACK
6
CONTINUOUS
10
153.019
20
-61.6967
11
152.963
21
-61.6912
0
LINE
8
BLACK
6
CONTINUOUS
10
152.963
20
-61.6912
11
152.375
21
-61.6912
0
LINE
8
BLACK
6
CONTINUOUS
10
152.375
20
-61.6912
11
152.319
21
-61.6967
0
LINE
8
BLACK
6
CONTINUOUS
10
152.319
20
-61.6967
11
152.271
21
-61.7112
0
LINE
8
BLACK
6
CONTINUOUS
10
152.271
20
-61.7112
11
152.229
21
-61.7339
0
LINE
8
BLACK
6
CONTINUOUS
10
152.229
20
-61.7339
11
152.228
21
-61.7341
0
LINE
8
BLACK
6
CONTINUOUS
10
152.228
20
-61.7341
11
152.228
21
-61.7342
0
LINE
8
BLACK
6
CONTINUOUS
10
152.228
20
-61.7342
11
152.228
21
-61.7342
0
LINE
8
BLACK
6
CONTINUOUS
10
152.228
20
-61.7342
11
152.227
21
-61.7347
0
LINE
8
BLACK
6
CONTINUOUS
10
152.227
20
-61.7347
11
152.216
21
-61.7391
0
LINE
8
BLACK
6
CONTINUOUS
10
152.216
20
-61.7391
11
152.205
21
-61.7436
0
LINE
8
BLACK
6
CONTINUOUS
10
152.205
20
-61.7436
11
152.205
21
-61.7437
0
LINE
8
BLACK
6
CONTINUOUS
10
152.205
20
-61.7437
11
152.204
21
-61.7439
0
LINE
8
BLACK
6
CONTINUOUS
10
152.204
20
-61.7439
11
152.193
21
-61.7461
0
LINE
8
BLACK
6
CONTINUOUS
10
152.193
20
-61.7461
11
152.181
21
-61.7483
0
LINE
8
BLACK
6
CONTINUOUS
10
152.181
20
-61.7483
11
152.181
21
-61.7483
0
LINE
8
BLACK
6
CONTINUOUS
10
152.181
20
-61.7483
11
152.18
21
-61.7484
0
LINE
8
BLACK
6
CONTINUOUS
10
152.18
20
-61.7484
11
152.168
21
-61.7483
0
LINE
8
BLACK
6
CONTINUOUS
10
152.168
20
-61.7483
11
152.156
21
-61.7483
0
LINE
8
BLACK
6
CONTINUOUS
10
152.156
20
-61.7483
11
152.156
21
-61.7481
0
LINE
8
BLACK
6
CONTINUOUS
10
152.156
20
-61.7481
11
152.155
21
-61.7481
0
LINE
8
BLACK
6
CONTINUOUS
10
152.155
20
-61.7481
11
152.144
21
-61.7457
0
LINE
8
BLACK
6
CONTINUOUS
10
152.144
20
-61.7457
11
152.132
21
-61.7434
0
LINE
8
BLACK
6
CONTINUOUS
10
152.132
20
-61.7434
11
152.131
21
-61.7432
0
LINE
8
BLACK
6
CONTINUOUS
10
152.131
20
-61.7432
11
152.131
21
-61.743
0
LINE
8
BLACK
6
CONTINUOUS
10
152.131
20
-61.743
11
152.12
21
-61.7384
0
LINE
8
BLACK
6
CONTINUOUS
10
152.12
20
-61.7384
11
152.109
21
-61.7339
0
LINE
8
BLACK
6
CONTINUOUS
10
152.109
20
-61.7339
11
152.067
21
-61.7112
0
LINE
8
BLACK
6
CONTINUOUS
10
152.067
20
-61.7112
11
152.019
21
-61.6967
0
LINE
8
BLACK
6
CONTINUOUS
10
152.019
20
-61.6967
11
151.963
21
-61.6912
0
LINE
8
BLACK
6
CONTINUOUS
10
151.963
20
-61.6912
11
151.375
21
-61.6912
0
LINE
8
BLACK
6
CONTINUOUS
10
151.375
20
-61.6912
11
151.319
21
-61.6967
0
LINE
8
BLACK
6
CONTINUOUS
10
151.319
20
-61.6967
11
151.271
21
-61.7112
0
LINE
8
BLACK
6
CONTINUOUS
10
151.271
20
-61.7112
11
151.229
21
-61.7339
0
LINE
8
BLACK
6
CONTINUOUS
10
151.229
20
-61.7339
11
151.228
21
-61.7341
0
LINE
8
BLACK
6
CONTINUOUS
10
151.228
20
-61.7341
11
151.228
21
-61.7342
0
LINE
8
BLACK
6
CONTINUOUS
10
151.228
20
-61.7342
11
151.228
21
-61.7342
0
LINE
8
BLACK
6
CONTINUOUS
10
151.228
20
-61.7342
11
151.227
21
-61.7347
0
LINE
8
BLACK
6
CONTINUOUS
10
151.227
20
-61.7347
11
151.216
21
-61.7391
0
LINE
8
BLACK
6
CONTINUOUS
10
151.216
20
-61.7391
11
151.205
21
-61.7436
0
LINE
8
BLACK
6
CONTINUOUS
10
151.205
20
-61.7436
11
151.205
21
-61.7437
0
LINE
8
BLACK
6
CONTINUOUS
10
151.205
20
-61.7437
11
151.204
21
-61.7439
0
LINE
8
BLACK
6
CONTINUOUS
10
151.204
20
-61.7439
11
151.193
21
-61.7461
0
LINE
8
BLACK
6
CONTINUOUS
10
151.193
20
-61.7461
11
151.181
21
-61.7483
0
LINE
8
BLACK
6
CONTINUOUS
10
151.181
20
-61.7483
11
151.181
21
-61.7483
0
LINE
8
BLACK
6
CONTINUOUS
10
151.181
20
-61.7483
11
151.18
21
-61.7484
0
LINE
8
BLACK
6
CONTINUOUS
10
151.18
20
-61.7484
11
151.168
21
-61.7483
0
LINE
8
BLACK
6
CONTINUOUS
10
151.168
20
-61.7483
11
151.156
21
-61.7483
0
LINE
8
BLACK
6
CONTINUOUS
10
151.156
20
-61.7483
11
151.156
21
-61.7481
0
LINE
8
BLACK
6
CONTINUOUS
10
151.156
20
-61.7481
11
151.155
21
-61.7481
0
LINE
8
BLACK
6
CONTINUOUS
10
151.155
20
-61.7481
11
151.144
21
-61.7457
0
LINE
8
BLACK
6
CONTINUOUS
10
151.144
20
-61.7457
11
151.132
21
-61.7434
0
LINE
8
BLACK
6
CONTINUOUS
10
151.132
20
-61.7434
11
151.131
21
-61.7432
0
LINE
8
BLACK
6
CONTINUOUS
10
151.131
20
-61.7432
11
151.131
21
-61.743
0
LINE
8
BLACK
6
CONTINUOUS
10
151.131
20
-61.743
11
151.12
21
-61.7384
0
LINE
8
BLACK
6
CONTINUOUS
10
151.12
20
-61.7384
11
151.109
21
-61.7339
0
LINE
8
BLACK
6
CONTINUOUS
10
151.109
20
-61.7339
11
151.067
21
-61.7112
0
LINE
8
BLACK
6
CONTINUOUS
10
151.067
20
-61.7112
11
151.019
21
-61.6967
0
LINE
8
BLACK
6
CONTINUOUS
10
151.019
20
-61.6967
11
150.963
21
-61.6912
0
LINE
8
BLACK
6
CONTINUOUS
10
150.963
20
-61.6912
11
150.375
21
-61.6912
0
LINE
8
BLACK
6
CONTINUOUS
10
150.375
20
-61.6912
11
150.319
21
-61.6967
0
LINE
8
BLACK
6
CONTINUOUS
10
150.319
20
-61.6967
11
150.271
21
-61.7112
0
LINE
8
BLACK
6
CONTINUOUS
10
150.271
20
-61.7112
11
150.229
21
-61.7339
0
LINE
8
BLACK
6
CONTINUOUS
10
150.229
20
-61.7339
11
150.228
21
-61.7341
0
LINE
8
BLACK
6
CONTINUOUS
10
150.228
20
-61.7341
11
150.228
21
-61.7342
0
LINE
8
BLACK
6
CONTINUOUS
10
150.228
20
-61.7342
11
150.228
21
-61.7342
0
LINE
8
BLACK
6
CONTINUOUS
10
150.228
20
-61.7342
11
150.227
21
-61.7347
0
LINE
8
BLACK
6
CONTINUOUS
10
150.227
20
-61.7347
11
150.216
21
-61.7391
0
LINE
8
BLACK
6
CONTINUOUS
10
150.216
20
-61.7391
11
150.205
21
-61.7436
0
LINE
8
BLACK
6
CONTINUOUS
10
150.205
20
-61.7436
11
150.205
21
-61.7437
0
LINE
8
BLACK
6
CONTINUOUS
10
150.205
20
-61.7437
11
150.204
21
-61.7439
0
LINE
8
BLACK
6
CONTINUOUS
10
150.204
20
-61.7439
11
150.193
21
-61.7461
0
LINE
8
BLACK
6
CONTINUOUS
10
150.193
20
-61.7461
11
150.181
21
-61.7483
0
LINE
8
BLACK
6
CONTINUOUS
10
150.181
20
-61.7483
11
150.181
21
-61.7483
0
LINE
8
BLACK
6
CONTINUOUS
10
150.181
20
-61.7483
11
150.18
21
-61.7484
0
LINE
8
BLACK
6
CONTINUOUS
10
150.18
20
-61.7484
11
150.168
21
-61.7483
0
LINE
8
BLACK
6
CONTINUOUS
10
150.168
20
-61.7483
11
150.156
21
-61.7483
0
LINE
8
BLACK
6
CONTINUOUS
10
150.156
20
-61.7483
11
150.156
21
-61.7481
0
LINE
8
BLACK
6
CONTINUOUS
10
150.156
20
-61.7481
11
150.155
21
-61.7481
0
LINE
8
BLACK
6
CONTINUOUS
10
150.155
20
-61.7481
11
150.144
21
-61.7457
0
LINE
8
BLACK
6
CONTINUOUS
10
150.144
20
-61.7457
11
150.132
21
-61.7434
0
LINE
8
BLACK
6
CONTINUOUS
10
150.132
20
-61.7434
11
150.131
21
-61.7432
0
LINE
8
BLACK
6
CONTINUOUS
10
150.131
20
-61.7432
11
150.131
21
-61.743
0
LINE
8
BLACK
6
CONTINUOUS
10
150.131
20
-61.743
11
150.12
21
-61.7384
0
LINE
8
BLACK
6
CONTINUOUS
10
150.12
20
-61.7384
11
150.109
21
-61.7339
0
LINE
8
BLACK
6
CONTINUOUS
10
150.109
20
-61.7339
11
150.067
21
-61.7112
0
LINE
8
BLACK
6
CONTINUOUS
10
150.067
20
-61.7112
11
150.019
21
-61.6967
0
LINE
8
BLACK
6
CONTINUOUS
10
150.019
20
-61.6967
11
149.963
21
-61.6912
0
LINE
8
BLACK
6
CONTINUOUS
10
149.963
20
-61.6912
11
149.375
21
-61.6912
0
LINE
8
BLACK
6
CONTINUOUS
10
149.375
20
-61.6912
11
149.319
21
-61.6967
0
LINE
8
BLACK
6
CONTINUOUS
10
149.319
20
-61.6967
11
149.271
21
-61.7112
0
LINE
8
BLACK
6
CONTINUOUS
10
149.271
20
-61.7112
11
149.227
21
-61.7348
0
LINE
8
BLACK
6
CONTINUOUS
10
149.227
20
-61.7348
11
149.189
21
-61.7665
0
LINE
8
BLACK
6
CONTINUOUS
10
149.189
20
-61.7665
11
149.157
21
-61.8052
0
LINE
8
BLACK
6
CONTINUOUS
10
149.157
20
-61.8052
11
149.133
21
-61.8493
0
LINE
8
BLACK
6
CONTINUOUS
10
149.133
20
-61.8493
11
149.119
21
-61.8972
0
LINE
8
BLACK
6
CONTINUOUS
10
149.119
20
-61.8972
11
149.113
21
-61.9532
0
LINE
8
BLACK
6
CONTINUOUS
10
149.113
20
-61.9532
11
149.113
21
-63.9408
0
LINE
8
BLACK
6
CONTINUOUS
10
149.113
20
-63.9408
11
149.119
21
-63.9968
0
LINE
8
BLACK
6
CONTINUOUS
10
149.119
20
-63.9968
11
149.133
21
-64.0447
0
LINE
8
BLACK
6
CONTINUOUS
10
149.133
20
-64.0447
11
149.15
21
-64.0761
0
LINE
8
BLACK
6
CONTINUOUS
10
149.15
20
-64.0761
11
149.151
21
-64.0777
0
LINE
8
BLACK
6
CONTINUOUS
10
149.151
20
-64.0777
11
149.153
21
-64.0828
0
LINE
8
BLACK
6
CONTINUOUS
10
149.153
20
-64.0828
11
149.155
21
-64.0876
0
LINE
8
BLACK
6
CONTINUOUS
10
149.155
20
-64.0876
11
149.157
21
-64.0942
0
LINE
8
BLACK
6
CONTINUOUS
10
149.157
20
-64.0942
11
149.16
21
-64.1007
0
LINE
8
BLACK
6
CONTINUOUS
10
149.16
20
-64.1007
11
149.161
21
-64.1061
0
LINE
8
BLACK
6
CONTINUOUS
10
149.161
20
-64.1061
11
149.163
21
-64.1113
0
LINE
8
BLACK
6
CONTINUOUS
10
149.163
20
-64.1113
11
149.163
21
-64.1182
0
LINE
8
BLACK
6
CONTINUOUS
10
149.163
20
-64.1182
11
149.165
21
-64.1251
0
LINE
8
BLACK
6
CONTINUOUS
10
149.165
20
-64.1251
11
149.164
21
-64.1305
0
LINE
8
BLACK
6
CONTINUOUS
10
149.164
20
-64.1305
11
149.165
21
-64.136
0
LINE
8
BLACK
6
CONTINUOUS
10
149.165
20
-64.136
11
149.165
21
-67.049
0
LINE
8
BLACK
6
CONTINUOUS
10
149.165
20
-67.049
11
149.165
21
-67.0508
0
LINE
8
BLACK
6
CONTINUOUS
10
149.165
20
-67.0508
11
149.164
21
-67.0562
0
LINE
8
BLACK
6
CONTINUOUS
10
149.164
20
-67.0562
11
149.164
21
-67.0617
0
LINE
8
BLACK
6
CONTINUOUS
10
149.164
20
-67.0617
11
149.163
21
-67.0685
0
LINE
8
BLACK
6
CONTINUOUS
10
149.163
20
-67.0685
11
149.162
21
-67.0754
0
LINE
8
BLACK
6
CONTINUOUS
10
149.162
20
-67.0754
11
149.161
21
-67.0807
0
LINE
8
BLACK
6
CONTINUOUS
10
149.161
20
-67.0807
11
149.159
21
-67.086
0
LINE
8
BLACK
6
CONTINUOUS
10
149.159
20
-67.086
11
149.157
21
-67.0924
0
LINE
8
BLACK
6
CONTINUOUS
10
149.157
20
-67.0924
11
149.155
21
-67.0991
0
LINE
8
BLACK
6
CONTINUOUS
10
149.155
20
-67.0991
11
149.152
21
-67.1039
0
LINE
8
BLACK
6
CONTINUOUS
10
149.152
20
-67.1039
11
149.15
21
-67.1089
0
LINE
8
BLACK
6
CONTINUOUS
10
149.15
20
-67.1089
11
149.13
21
-67.1463
0
LINE
8
BLACK
6
CONTINUOUS
10
149.13
20
-67.1463
11
149.115
21
-67.1942
0
LINE
8
BLACK
6
CONTINUOUS
10
149.115
20
-67.1942
11
149.11
21
-67.2502
0
LINE
8
BLACK
6
CONTINUOUS
10
149.11
20
-67.2502
11
149.11
21
-69.2378
0
LINE
8
BLACK
6
CONTINUOUS
10
149.11
20
-69.2378
11
149.115
21
-69.2938
0
LINE
8
BLACK
6
CONTINUOUS
10
149.115
20
-69.2938
11
149.13
21
-69.3417
0
LINE
8
BLACK
6
CONTINUOUS
10
149.13
20
-69.3417
11
149.154
21
-69.3858
0
LINE
8
BLACK
6
CONTINUOUS
10
149.154
20
-69.3858
11
149.185
21
-69.4245
0
LINE
8
BLACK
6
CONTINUOUS
10
149.185
20
-69.4245
11
149.224
21
-69.4562
0
LINE
8
BLACK
6
CONTINUOUS
10
149.224
20
-69.4562
11
149.268
21
-69.4798
0
LINE
8
BLACK
6
CONTINUOUS
10
149.268
20
-69.4798
11
149.316
21
-69.4943
0
LINE
8
BLACK
6
CONTINUOUS
10
149.316
20
-69.4943
11
149.372
21
-69.4998
0
LINE
8
BLACK
6
CONTINUOUS
10
149.372
20
-69.4998
11
149.96
21
-69.4998
0
LINE
8
BLACK
6
CONTINUOUS
10
149.96
20
-69.4998
11
150.016
21
-69.4943
0
LINE
8
BLACK
6
CONTINUOUS
10
150.016
20
-69.4943
11
150.063
21
-69.4798
0
LINE
8
BLACK
6
CONTINUOUS
10
150.063
20
-69.4798
11
150.106
21
-69.4571
0
LINE
8
BLACK
6
CONTINUOUS
10
150.106
20
-69.4571
11
150.106
21
-69.4569
0
LINE
8
BLACK
6
CONTINUOUS
10
150.106
20
-69.4569
11
150.106
21
-69.4568
0
LINE
8
BLACK
6
CONTINUOUS
10
150.106
20
-69.4568
11
150.106
21
-69.4568
0
LINE
8
BLACK
6
CONTINUOUS
10
150.106
20
-69.4568
11
150.107
21
-69.4563
0
LINE
8
BLACK
6
CONTINUOUS
10
150.107
20
-69.4563
11
150.118
21
-69.4519
0
LINE
8
BLACK
6
CONTINUOUS
10
150.118
20
-69.4519
11
150.129
21
-69.4474
0
LINE
8
BLACK
6
CONTINUOUS
10
150.129
20
-69.4474
11
150.13
21
-69.4473
0
LINE
8
BLACK
6
CONTINUOUS
10
150.13
20
-69.4473
11
150.131
21
-69.4471
0
LINE
8
BLACK
6
CONTINUOUS
10
150.131
20
-69.4471
11
150.142
21
-69.445
0
LINE
8
BLACK
6
CONTINUOUS
10
150.142
20
-69.445
11
150.154
21
-69.4427
0
LINE
8
BLACK
6
CONTINUOUS
10
150.154
20
-69.4427
11
150.154
21
-69.4427
0
LINE
8
BLACK
6
CONTINUOUS
10
150.154
20
-69.4427
11
150.155
21
-69.4426
0
LINE
8
BLACK
6
CONTINUOUS
10
150.155
20
-69.4426
11
150.167
21
-69.4427
0
LINE
8
BLACK
6
CONTINUOUS
10
150.167
20
-69.4427
11
150.178
21
-69.4427
0
LINE
8
BLACK
6
CONTINUOUS
10
150.178
20
-69.4427
11
150.179
21
-69.4429
0
LINE
8
BLACK
6
CONTINUOUS
10
150.179
20
-69.4429
11
150.18
21
-69.4429
0
LINE
8
BLACK
6
CONTINUOUS
10
150.18
20
-69.4429
11
150.191
21
-69.4453
0
LINE
8
BLACK
6
CONTINUOUS
10
150.191
20
-69.4453
11
150.203
21
-69.4476
0
LINE
8
BLACK
6
CONTINUOUS
10
150.203
20
-69.4476
11
150.203
21
-69.4478
0
LINE
8
BLACK
6
CONTINUOUS
10
150.203
20
-69.4478
11
150.204
21
-69.448
0
LINE
8
BLACK
6
CONTINUOUS
10
150.204
20
-69.448
11
150.215
21
-69.4526
0
LINE
8
BLACK
6
CONTINUOUS
10
150.215
20
-69.4526
11
150.226
21
-69.4571
0
LINE
8
BLACK
6
CONTINUOUS
10
150.226
20
-69.4571
11
150.268
21
-69.4798
0
LINE
8
BLACK
6
CONTINUOUS
10
150.268
20
-69.4798
11
150.316
21
-69.4943
0
LINE
8
BLACK
6
CONTINUOUS
10
150.316
20
-69.4943
11
150.372
21
-69.4998
0
LINE
8
BLACK
6
CONTINUOUS
10
150.372
20
-69.4998
11
150.96
21
-69.4998
0
LINE
8
BLACK
6
CONTINUOUS
10
150.96
20
-69.4998
11
151.016
21
-69.4943
0
LINE
8
BLACK
6
CONTINUOUS
10
151.016
20
-69.4943
11
151.063
21
-69.4798
0
LINE
8
BLACK
6
CONTINUOUS
10
151.063
20
-69.4798
11
151.106
21
-69.4571
0
LINE
8
BLACK
6
CONTINUOUS
10
151.106
20
-69.4571
11
151.106
21
-69.4569
0
LINE
8
BLACK
6
CONTINUOUS
10
151.106
20
-69.4569
11
151.106
21
-69.4568
0
LINE
8
BLACK
6
CONTINUOUS
10
151.106
20
-69.4568
11
151.106
21
-69.4568
0
LINE
8
BLACK
6
CONTINUOUS
10
151.106
20
-69.4568
11
151.107
21
-69.4563
0
LINE
8
BLACK
6
CONTINUOUS
10
151.107
20
-69.4563
11
151.118
21
-69.4519
0
LINE
8
BLACK
6
CONTINUOUS
10
151.118
20
-69.4519
11
151.129
21
-69.4474
0
LINE
8
BLACK
6
CONTINUOUS
10
151.129
20
-69.4474
11
151.13
21
-69.4473
0
LINE
8
BLACK
6
CONTINUOUS
10
151.13
20
-69.4473
11
151.131
21
-69.4471
0
LINE
8
BLACK
6
CONTINUOUS
10
151.131
20
-69.4471
11
151.142
21
-69.445
0
LINE
8
BLACK
6
CONTINUOUS
10
151.142
20
-69.445
11
151.154
21
-69.4427
0
LINE
8
BLACK
6
CONTINUOUS
10
151.154
20
-69.4427
11
151.154
21
-69.4427
0
LINE
8
BLACK
6
CONTINUOUS
10
151.154
20
-69.4427
11
151.155
21
-69.4426
0
LINE
8
BLACK
6
CONTINUOUS
10
151.155
20
-69.4426
11
151.167
21
-69.4427
0
LINE
8
BLACK
6
CONTINUOUS
10
151.167
20
-69.4427
11
151.178
21
-69.4427
0
LINE
8
BLACK
6
CONTINUOUS
10
151.178
20
-69.4427
11
151.179
21
-69.4429
0
LINE
8
BLACK
6
CONTINUOUS
10
151.179
20
-69.4429
11
151.18
21
-69.4429
0
LINE
8
BLACK
6
CONTINUOUS
10
151.18
20
-69.4429
11
151.191
21
-69.4453
0
LINE
8
BLACK
6
CONTINUOUS
10
151.191
20
-69.4453
11
151.203
21
-69.4476
0
LINE
8
BLACK
6
CONTINUOUS
10
151.203
20
-69.4476
11
151.203
21
-69.4478
0
LINE
8
BLACK
6
CONTINUOUS
10
151.203
20
-69.4478
11
151.204
21
-69.448
0
LINE
8
BLACK
6
CONTINUOUS
10
151.204
20
-69.448
11
151.215
21
-69.4526
0
LINE
8
BLACK
6
CONTINUOUS
10
151.215
20
-69.4526
11
151.226
21
-69.4571
0
LINE
8
BLACK
6
CONTINUOUS
10
151.226
20
-69.4571
11
151.268
21
-69.4798
0
LINE
8
BLACK
6
CONTINUOUS
10
151.268
20
-69.4798
11
151.316
21
-69.4943
0
LINE
8
BLACK
6
CONTINUOUS
10
151.316
20
-69.4943
11
151.372
21
-69.4998
0
LINE
8
BLACK
6
CONTINUOUS
10
151.372
20
-69.4998
11
151.96
21
-69.4998
0
LINE
8
BLACK
6
CONTINUOUS
10
151.96
20
-69.4998
11
152.016
21
-69.4943
0
LINE
8
BLACK
6
CONTINUOUS
10
152.016
20
-69.4943
11
152.063
21
-69.4798
0
LINE
8
BLACK
6
CONTINUOUS
10
152.063
20
-69.4798
11
152.106
21
-69.4571
0
LINE
8
BLACK
6
CONTINUOUS
10
152.106
20
-69.4571
11
152.106
21
-69.4569
0
LINE
8
BLACK
6
CONTINUOUS
10
152.106
20
-69.4569
11
152.106
21
-69.4568
0
LINE
8
BLACK
6
CONTINUOUS
10
152.106
20
-69.4568
11
152.106
21
-69.4568
0
LINE
8
BLACK
6
CONTINUOUS
10
152.106
20
-69.4568
11
152.107
21
-69.4563
0
LINE
8
BLACK
6
CONTINUOUS
10
152.107
20
-69.4563
11
152.118
21
-69.4519
0
LINE
8
BLACK
6
CONTINUOUS
10
152.118
20
-69.4519
11
152.129
21
-69.4474
0
LINE
8
BLACK
6
CONTINUOUS
10
152.129
20
-69.4474
11
152.13
21
-69.4473
0
LINE
8
BLACK
6
CONTINUOUS
10
152.13
20
-69.4473
11
152.131
21
-69.4471
0
LINE
8
BLACK
6
CONTINUOUS
10
152.131
20
-69.4471
11
152.142
21
-69.445
0
LINE
8
BLACK
6
CONTINUOUS
10
152.142
20
-69.445
11
152.154
21
-69.4427
0
LINE
8
BLACK
6
CONTINUOUS
10
152.154
20
-69.4427
11
152.154
21
-69.4427
0
LINE
8
BLACK
6
CONTINUOUS
10
152.154
20
-69.4427
11
152.155
21
-69.4426
0
LINE
8
BLACK
6
CONTINUOUS
10
152.155
20
-69.4426
11
152.167
21
-69.4427
0
LINE
8
BLACK
6
CONTINUOUS
10
152.167
20
-69.4427
11
152.178
21
-69.4427
0
LINE
8
BLACK
6
CONTINUOUS
10
152.178
20
-69.4427
11
152.179
21
-69.4429
0
LINE
8
BLACK
6
CONTINUOUS
10
152.179
20
-69.4429
11
152.18
21
-69.4429
0
LINE
8
BLACK
6
CONTINUOUS
10
152.18
20
-69.4429
11
152.191
21
-69.4453
0
LINE
8
BLACK
6
CONTINUOUS
10
152.191
20
-69.4453
11
152.203
21
-69.4476
0
LINE
8
BLACK
6
CONTINUOUS
10
152.203
20
-69.4476
11
152.203
21
-69.4478
0
LINE
8
BLACK
6
CONTINUOUS
10
152.203
20
-69.4478
11
152.204
21
-69.448
0
LINE
8
BLACK
6
CONTINUOUS
10
152.204
20
-69.448
11
152.215
21
-69.4526
0
LINE
8
BLACK
6
CONTINUOUS
10
152.215
20
-69.4526
11
152.226
21
-69.4571
0
LINE
8
BLACK
6
CONTINUOUS
10
152.226
20
-69.4571
11
152.268
21
-69.4798
0
LINE
8
BLACK
6
CONTINUOUS
10
152.268
20
-69.4798
11
152.316
21
-69.4943
0
LINE
8
BLACK
6
CONTINUOUS
10
152.316
20
-69.4943
11
152.372
21
-69.4998
0
LINE
8
BLACK
6
CONTINUOUS
10
152.372
20
-69.4998
11
152.96
21
-69.4998
0
LINE
8
BLACK
6
CONTINUOUS
10
152.96
20
-69.4998
11
153.016
21
-69.4943
0
LINE
8
BLACK
6
CONTINUOUS
10
153.016
20
-69.4943
11
153.063
21
-69.4798
0
LINE
8
BLACK
6
CONTINUOUS
10
153.063
20
-69.4798
11
153.106
21
-69.4571
0
LINE
8
BLACK
6
CONTINUOUS
10
153.106
20
-69.4571
11
153.106
21
-69.4569
0
LINE
8
BLACK
6
CONTINUOUS
10
153.106
20
-69.4569
11
153.106
21
-69.4568
0
LINE
8
BLACK
6
CONTINUOUS
10
153.106
20
-69.4568
11
153.106
21
-69.4568
0
LINE
8
BLACK
6
CONTINUOUS
10
153.106
20
-69.4568
11
153.107
21
-69.4563
0
LINE
8
BLACK
6
CONTINUOUS
10
153.107
20
-69.4563
11
153.118
21
-69.4519
0
LINE
8
BLACK
6
CONTINUOUS
10
153.118
20
-69.4519
11
153.129
21
-69.4474
0
LINE
8
BLACK
6
CONTINUOUS
10
153.129
20
-69.4474
11
153.13
21
-69.4473
0
LINE
8
BLACK
6
CONTINUOUS
10
153.13
20
-69.4473
11
153.131
21
-69.4471
0
LINE
8
BLACK
6
CONTINUOUS
10
153.131
20
-69.4471
11
153.142
21
-69.445
0
LINE
8
BLACK
6
CONTINUOUS
10
153.142
20
-69.445
11
153.154
21
-69.4427
0
LINE
8
BLACK
6
CONTINUOUS
10
153.154
20
-69.4427
11
153.154
21
-69.4427
0
LINE
8
BLACK
6
CONTINUOUS
10
153.154
20
-69.4427
11
153.155
21
-69.4426
0
LINE
8
BLACK
6
CONTINUOUS
10
153.155
20
-69.4426
11
153.167
21
-69.4427
0
LINE
8
BLACK
6
CONTINUOUS
10
153.167
20
-69.4427
11
153.178
21
-69.4427
0
LINE
8
BLACK
6
CONTINUOUS
10
153.178
20
-69.4427
11
153.179
21
-69.4429
0
LINE
8
BLACK
6
CONTINUOUS
10
153.179
20
-69.4429
11
153.18
21
-69.4429
0
LINE
8
BLACK
6
CONTINUOUS
10
153.18
20
-69.4429
11
153.191
21
-69.4453
0
LINE
8
BLACK
6
CONTINUOUS
10
153.191
20
-69.4453
11
153.203
21
-69.4476
0
LINE
8
BLACK
6
CONTINUOUS
10
153.203
20
-69.4476
11
153.203
21
-69.4478
0
LINE
8
BLACK
6
CONTINUOUS
10
153.203
20
-69.4478
11
153.204
21
-69.448
0
LINE
8
BLACK
6
CONTINUOUS
10
153.204
20
-69.448
11
153.215
21
-69.4526
0
LINE
8
BLACK
6
CONTINUOUS
10
153.215
20
-69.4526
11
153.226
21
-69.4571
0
LINE
8
BLACK
6
CONTINUOUS
10
153.226
20
-69.4571
11
153.268
21
-69.4798
0
LINE
8
BLACK
6
CONTINUOUS
10
153.268
20
-69.4798
11
153.316
21
-69.4943
0
LINE
8
BLACK
6
CONTINUOUS
10
153.316
20
-69.4943
11
153.372
21
-69.4998
0
LINE
8
BLACK
6
CONTINUOUS
10
153.372
20
-69.4998
11
153.96
21
-69.4998
0
LINE
8
BLACK
6
CONTINUOUS
10
153.96
20
-69.4998
11
154.016
21
-69.4943
0
LINE
8
BLACK
6
CONTINUOUS
10
154.016
20
-69.4943
11
154.063
21
-69.4798
0
LINE
8
BLACK
6
CONTINUOUS
10
154.063
20
-69.4798
11
154.106
21
-69.4571
0
LINE
8
BLACK
6
CONTINUOUS
10
154.106
20
-69.4571
11
154.106
21
-69.4569
0
LINE
8
BLACK
6
CONTINUOUS
10
154.106
20
-69.4569
11
154.106
21
-69.4568
0
LINE
8
BLACK
6
CONTINUOUS
10
154.106
20
-69.4568
11
154.106
21
-69.4568
0
LINE
8
BLACK
6
CONTINUOUS
10
154.106
20
-69.4568
11
154.107
21
-69.4563
0
LINE
8
BLACK
6
CONTINUOUS
10
154.107
20
-69.4563
11
154.118
21
-69.4519
0
LINE
8
BLACK
6
CONTINUOUS
10
154.118
20
-69.4519
11
154.129
21
-69.4474
0
LINE
8
BLACK
6
CONTINUOUS
10
154.129
20
-69.4474
11
154.13
21
-69.4473
0
LINE
8
BLACK
6
CONTINUOUS
10
154.13
20
-69.4473
11
154.131
21
-69.4471
0
LINE
8
BLACK
6
CONTINUOUS
10
154.131
20
-69.4471
11
154.142
21
-69.445
0
LINE
8
BLACK
6
CONTINUOUS
10
154.142
20
-69.445
11
154.154
21
-69.4427
0
LINE
8
BLACK
6
CONTINUOUS
10
154.154
20
-69.4427
11
154.154
21
-69.4427
0
LINE
8
BLACK
6
CONTINUOUS
10
154.154
20
-69.4427
11
154.155
21
-69.4426
0
LINE
8
BLACK
6
CONTINUOUS
10
154.155
20
-69.4426
11
154.167
21
-69.4427
0
LINE
8
BLACK
6
CONTINUOUS
10
154.167
20
-69.4427
11
154.178
21
-69.4427
0
LINE
8
BLACK
6
CONTINUOUS
10
154.178
20
-69.4427
11
154.179
21
-69.4429
0
LINE
8
BLACK
6
CONTINUOUS
10
154.179
20
-69.4429
11
154.18
21
-69.4429
0
LINE
8
BLACK
6
CONTINUOUS
10
154.18
20
-69.4429
11
154.191
21
-69.4453
0
LINE
8
BLACK
6
CONTINUOUS
10
154.191
20
-69.4453
11
154.203
21
-69.4476
0
LINE
8
BLACK
6
CONTINUOUS
10
154.203
20
-69.4476
11
154.203
21
-69.4478
0
LINE
8
BLACK
6
CONTINUOUS
10
154.203
20
-69.4478
11
154.204
21
-69.448
0
LINE
8
BLACK
6
CONTINUOUS
10
154.204
20
-69.448
11
154.215
21
-69.4526
0
LINE
8
BLACK
6
CONTINUOUS
10
154.215
20
-69.4526
11
154.226
21
-69.4571
0
LINE
8
BLACK
6
CONTINUOUS
10
154.226
20
-69.4571
11
154.268
21
-69.4798
0
LINE
8
BLACK
6
CONTINUOUS
10
154.268
20
-69.4798
11
154.316
21
-69.4943
0
LINE
8
BLACK
6
CONTINUOUS
10
154.316
20
-69.4943
11
154.372
21
-69.4998
0
LINE
8
BLACK
6
CONTINUOUS
10
154.372
20
-69.4998
11
154.96
21
-69.4998
0
LINE
8
BLACK
6
CONTINUOUS
10
154.96
20
-69.4998
11
155.016
21
-69.4943
0
LINE
8
BLACK
6
CONTINUOUS
10
155.016
20
-69.4943
11
155.063
21
-69.4798
0
LINE
8
BLACK
6
CONTINUOUS
10
155.063
20
-69.4798
11
155.106
21
-69.4571
0
LINE
8
BLACK
6
CONTINUOUS
10
155.106
20
-69.4571
11
155.106
21
-69.4569
0
LINE
8
BLACK
6
CONTINUOUS
10
155.106
20
-69.4569
11
155.106
21
-69.4568
0
LINE
8
BLACK
6
CONTINUOUS
10
155.106
20
-69.4568
11
155.106
21
-69.4568
0
LINE
8
BLACK
6
CONTINUOUS
10
155.106
20
-69.4568
11
155.107
21
-69.4563
0
LINE
8
BLACK
6
CONTINUOUS
10
155.107
20
-69.4563
11
155.118
21
-69.4519
0
LINE
8
BLACK
6
CONTINUOUS
10
155.118
20
-69.4519
11
155.129
21
-69.4474
0
LINE
8
BLACK
6
CONTINUOUS
10
155.129
20
-69.4474
11
155.13
21
-69.4473
0
LINE
8
BLACK
6
CONTINUOUS
10
155.13
20
-69.4473
11
155.131
21
-69.4471
0
LINE
8
BLACK
6
CONTINUOUS
10
155.131
20
-69.4471
11
155.142
21
-69.445
0
LINE
8
BLACK
6
CONTINUOUS
10
155.142
20
-69.445
11
155.154
21
-69.4427
0
LINE
8
BLACK
6
CONTINUOUS
10
155.154
20
-69.4427
11
155.154
21
-69.4427
0
LINE
8
BLACK
6
CONTINUOUS
10
155.154
20
-69.4427
11
155.155
21
-69.4426
0
LINE
8
BLACK
6
CONTINUOUS
10
155.155
20
-69.4426
11
155.167
21
-69.4427
0
LINE
8
BLACK
6
CONTINUOUS
10
155.167
20
-69.4427
11
155.178
21
-69.4427
0
LINE
8
BLACK
6
CONTINUOUS
10
155.178
20
-69.4427
11
155.179
21
-69.4429
0
LINE
8
BLACK
6
CONTINUOUS
10
155.179
20
-69.4429
11
155.18
21
-69.4429
0
LINE
8
BLACK
6
CONTINUOUS
10
155.18
20
-69.4429
11
155.191
21
-69.4453
0
LINE
8
BLACK
6
CONTINUOUS
10
155.191
20
-69.4453
11
155.203
21
-69.4476
0
LINE
8
BLACK
6
CONTINUOUS
10
155.203
20
-69.4476
11
155.203
21
-69.4478
0
LINE
8
BLACK
6
CONTINUOUS
10
155.203
20
-69.4478
11
155.204
21
-69.448
0
LINE
8
BLACK
6
CONTINUOUS
10
155.204
20
-69.448
11
155.215
21
-69.4526
0
LINE
8
BLACK
6
CONTINUOUS
10
155.215
20
-69.4526
11
155.226
21
-69.4571
0
LINE
8
BLACK
6
CONTINUOUS
10
155.226
20
-69.4571
11
155.268
21
-69.4798
0
LINE
8
BLACK
6
CONTINUOUS
10
155.268
20
-69.4798
11
155.316
21
-69.4943
0
LINE
8
BLACK
6
CONTINUOUS
10
155.316
20
-69.4943
11
155.372
21
-69.4998
0
LINE
8
BLACK
6
CONTINUOUS
10
155.372
20
-69.4998
11
155.96
21
-69.4998
0
LINE
8
BLACK
6
CONTINUOUS
10
155.96
20
-69.4998
11
156.016
21
-69.4943
0
LINE
8
BLACK
6
CONTINUOUS
10
156.016
20
-69.4943
11
156.063
21
-69.4798
0
LINE
8
BLACK
6
CONTINUOUS
10
156.063
20
-69.4798
11
156.106
21
-69.4571
0
LINE
8
BLACK
6
CONTINUOUS
10
156.106
20
-69.4571
11
156.106
21
-69.4569
0
LINE
8
BLACK
6
CONTINUOUS
10
156.106
20
-69.4569
11
156.106
21
-69.4568
0
LINE
8
BLACK
6
CONTINUOUS
10
156.106
20
-69.4568
11
156.106
21
-69.4568
0
LINE
8
BLACK
6
CONTINUOUS
10
156.106
20
-69.4568
11
156.107
21
-69.4563
0
LINE
8
BLACK
6
CONTINUOUS
10
156.107
20
-69.4563
11
156.118
21
-69.4519
0
LINE
8
BLACK
6
CONTINUOUS
10
156.118
20
-69.4519
11
156.129
21
-69.4474
0
LINE
8
BLACK
6
CONTINUOUS
10
156.129
20
-69.4474
11
156.13
21
-69.4473
0
LINE
8
BLACK
6
CONTINUOUS
10
156.13
20
-69.4473
11
156.131
21
-69.4471
0
LINE
8
BLACK
6
CONTINUOUS
10
156.131
20
-69.4471
11
156.142
21
-69.445
0
LINE
8
BLACK
6
CONTINUOUS
10
156.142
20
-69.445
11
156.154
21
-69.4427
0
LINE
8
BLACK
6
CONTINUOUS
10
156.154
20
-69.4427
11
156.154
21
-69.4427
0
LINE
8
BLACK
6
CONTINUOUS
10
156.154
20
-69.4427
11
156.155
21
-69.4426
0
LINE
8
BLACK
6
CONTINUOUS
10
156.155
20
-69.4426
11
156.167
21
-69.4427
0
LINE
8
BLACK
6
CONTINUOUS
10
156.167
20
-69.4427
11
156.178
21
-69.4427
0
LINE
8
BLACK
6
CONTINUOUS
10
156.178
20
-69.4427
11
156.179
21
-69.4429
0
LINE
8
BLACK
6
CONTINUOUS
10
156.179
20
-69.4429
11
156.18
21
-69.4429
0
LINE
8
BLACK
6
CONTINUOUS
10
156.18
20
-69.4429
11
156.191
21
-69.4453
0
LINE
8
BLACK
6
CONTINUOUS
10
156.191
20
-69.4453
11
156.203
21
-69.4476
0
LINE
8
BLACK
6
CONTINUOUS
10
156.203
20
-69.4476
11
156.203
21
-69.4478
0
LINE
8
BLACK
6
CONTINUOUS
10
156.203
20
-69.4478
11
156.204
21
-69.448
0
LINE
8
BLACK
6
CONTINUOUS
10
156.204
20
-69.448
11
156.215
21
-69.4526
0
LINE
8
BLACK
6
CONTINUOUS
10
156.215
20
-69.4526
11
156.226
21
-69.4571
0
LINE
8
BLACK
6
CONTINUOUS
10
156.226
20
-69.4571
11
156.268
21
-69.4798
0
LINE
8
BLACK
6
CONTINUOUS
10
156.268
20
-69.4798
11
156.316
21
-69.4943
0
LINE
8
BLACK
6
CONTINUOUS
10
156.316
20
-69.4943
11
156.372
21
-69.4998
0
LINE
8
BLACK
6
CONTINUOUS
10
156.372
20
-69.4998
11
156.96
21
-69.4998
0
LINE
8
BLACK
6
CONTINUOUS
10
156.96
20
-69.4998
11
157.016
21
-69.4943
0
LINE
8
BLACK
6
CONTINUOUS
10
157.016
20
-69.4943
11
157.063
21
-69.4798
0
LINE
8
BLACK
6
CONTINUOUS
10
157.063
20
-69.4798
11
157.106
21
-69.4571
0
LINE
8
BLACK
6
CONTINUOUS
10
157.106
20
-69.4571
11
157.106
21
-69.4569
0
LINE
8
BLACK
6
CONTINUOUS
10
157.106
20
-69.4569
11
157.106
21
-69.4568
0
LINE
8
BLACK
6
CONTINUOUS
10
157.106
20
-69.4568
11
157.106
21
-69.4568
0
LINE
8
BLACK
6
CONTINUOUS
10
157.106
20
-69.4568
11
157.107
21
-69.4563
0
LINE
8
BLACK
6
CONTINUOUS
10
157.107
20
-69.4563
11
157.118
21
-69.4519
0
LINE
8
BLACK
6
CONTINUOUS
10
157.118
20
-69.4519
11
157.129
21
-69.4474
0
LINE
8
BLACK
6
CONTINUOUS
10
157.129
20
-69.4474
11
157.13
21
-69.4473
0
LINE
8
BLACK
6
CONTINUOUS
10
157.13
20
-69.4473
11
157.131
21
-69.4471
0
LINE
8
BLACK
6
CONTINUOUS
10
157.131
20
-69.4471
11
157.142
21
-69.445
0
LINE
8
BLACK
6
CONTINUOUS
10
157.142
20
-69.445
11
157.154
21
-69.4427
0
LINE
8
BLACK
6
CONTINUOUS
10
157.154
20
-69.4427
11
157.154
21
-69.4427
0
LINE
8
BLACK
6
CONTINUOUS
10
157.154
20
-69.4427
11
157.155
21
-69.4426
0
LINE
8
BLACK
6
CONTINUOUS
10
157.155
20
-69.4426
11
157.167
21
-69.4427
0
LINE
8
BLACK
6
CONTINUOUS
10
157.167
20
-69.4427
11
157.178
21
-69.4427
0
LINE
8
BLACK
6
CONTINUOUS
10
157.178
20
-69.4427
11
157.179
21
-69.4429
0
LINE
8
BLACK
6
CONTINUOUS
10
157.179
20
-69.4429
11
157.18
21
-69.4429
0
LINE
8
BLACK
6
CONTINUOUS
10
157.18
20
-69.4429
11
157.191
21
-69.4453
0
LINE
8
BLACK
6
CONTINUOUS
10
157.191
20
-69.4453
11
157.203
21
-69.4476
0
LINE
8
BLACK
6
CONTINUOUS
10
157.203
20
-69.4476
11
157.203
21
-69.4478
0
LINE
8
BLACK
6
CONTINUOUS
10
157.203
20
-69.4478
11
157.204
21
-69.448
0
LINE
8
BLACK
6
CONTINUOUS
10
157.204
20
-69.448
11
157.215
21
-69.4526
0
LINE
8
BLACK
6
CONTINUOUS
10
157.215
20
-69.4526
11
157.226
21
-69.4571
0
LINE
8
BLACK
6
CONTINUOUS
10
157.226
20
-69.4571
11
157.268
21
-69.4798
0
LINE
8
BLACK
6
CONTINUOUS
10
157.268
20
-69.4798
11
157.316
21
-69.4943
0
LINE
8
BLACK
6
CONTINUOUS
10
157.316
20
-69.4943
11
157.372
21
-69.4998
0
LINE
8
BLACK
6
CONTINUOUS
10
157.372
20
-69.4998
11
157.96
21
-69.4998
0
LINE
8
BLACK
6
CONTINUOUS
10
157.96
20
-69.4998
11
158.016
21
-69.4943
0
LINE
8
BLACK
6
CONTINUOUS
10
158.016
20
-69.4943
11
158.063
21
-69.4798
0
LINE
8
BLACK
6
CONTINUOUS
10
158.063
20
-69.4798
11
158.106
21
-69.4571
0
LINE
8
BLACK
6
CONTINUOUS
10
158.106
20
-69.4571
11
158.106
21
-69.4569
0
LINE
8
BLACK
6
CONTINUOUS
10
158.106
20
-69.4569
11
158.106
21
-69.4568
0
LINE
8
BLACK
6
CONTINUOUS
10
158.106
20
-69.4568
11
158.106
21
-69.4568
0
LINE
8
BLACK
6
CONTINUOUS
10
158.106
20
-69.4568
11
158.107
21
-69.4563
0
LINE
8
BLACK
6
CONTINUOUS
10
158.107
20
-69.4563
11
158.118
21
-69.4519
0
LINE
8
BLACK
6
CONTINUOUS
10
158.118
20
-69.4519
11
158.129
21
-69.4474
0
LINE
8
BLACK
6
CONTINUOUS
10
158.129
20
-69.4474
11
158.13
21
-69.4473
0
LINE
8
BLACK
6
CONTINUOUS
10
158.13
20
-69.4473
11
158.131
21
-69.4471
0
LINE
8
BLACK
6
CONTINUOUS
10
158.131
20
-69.4471
11
158.142
21
-69.445
0
LINE
8
BLACK
6
CONTINUOUS
10
158.142
20
-69.445
11
158.154
21
-69.4427
0
LINE
8
BLACK
6
CONTINUOUS
10
158.154
20
-69.4427
11
158.154
21
-69.4427
0
LINE
8
BLACK
6
CONTINUOUS
10
158.154
20
-69.4427
11
158.155
21
-69.4426
0
LINE
8
BLACK
6
CONTINUOUS
10
158.155
20
-69.4426
11
158.167
21
-69.4427
0
LINE
8
BLACK
6
CONTINUOUS
10
158.167
20
-69.4427
11
158.178
21
-69.4427
0
LINE
8
BLACK
6
CONTINUOUS
10
158.178
20
-69.4427
11
158.179
21
-69.4429
0
LINE
8
BLACK
6
CONTINUOUS
10
158.179
20
-69.4429
11
158.18
21
-69.4429
0
LINE
8
BLACK
6
CONTINUOUS
10
158.18
20
-69.4429
11
158.191
21
-69.4453
0
LINE
8
BLACK
6
CONTINUOUS
10
158.191
20
-69.4453
11
158.203
21
-69.4476
0
LINE
8
BLACK
6
CONTINUOUS
10
158.203
20
-69.4476
11
158.203
21
-69.4478
0
LINE
8
BLACK
6
CONTINUOUS
10
158.203
20
-69.4478
11
158.204
21
-69.448
0
LINE
8
BLACK
6
CONTINUOUS
10
158.204
20
-69.448
11
158.215
21
-69.4526
0
LINE
8
BLACK
6
CONTINUOUS
10
158.215
20
-69.4526
11
158.226
21
-69.4571
0
LINE
8
BLACK
6
CONTINUOUS
10
158.226
20
-69.4571
11
158.268
21
-69.4798
0
LINE
8
BLACK
6
CONTINUOUS
10
158.268
20
-69.4798
11
158.316
21
-69.4943
0
LINE
8
BLACK
6
CONTINUOUS
10
158.316
20
-69.4943
11
158.372
21
-69.4998
0
LINE
8
BLACK
6
CONTINUOUS
10
158.372
20
-69.4998
11
158.96
21
-69.4998
0
LINE
8
BLACK
6
CONTINUOUS
10
158.96
20
-69.4998
11
159.016
21
-69.4943
0
LINE
8
BLACK
6
CONTINUOUS
10
159.016
20
-69.4943
11
159.063
21
-69.4798
0
LINE
8
BLACK
6
CONTINUOUS
10
159.063
20
-69.4798
11
159.106
21
-69.4571
0
LINE
8
BLACK
6
CONTINUOUS
10
159.106
20
-69.4571
11
159.106
21
-69.4569
0
LINE
8
BLACK
6
CONTINUOUS
10
159.106
20
-69.4569
11
159.106
21
-69.4568
0
LINE
8
BLACK
6
CONTINUOUS
10
159.106
20
-69.4568
11
159.106
21
-69.4568
0
LINE
8
BLACK
6
CONTINUOUS
10
159.106
20
-69.4568
11
159.107
21
-69.4563
0
LINE
8
BLACK
6
CONTINUOUS
10
159.107
20
-69.4563
11
159.118
21
-69.4519
0
LINE
8
BLACK
6
CONTINUOUS
10
159.118
20
-69.4519
11
159.129
21
-69.4474
0
LINE
8
BLACK
6
CONTINUOUS
10
159.129
20
-69.4474
11
159.13
21
-69.4473
0
LINE
8
BLACK
6
CONTINUOUS
10
159.13
20
-69.4473
11
159.131
21
-69.4471
0
LINE
8
BLACK
6
CONTINUOUS
10
159.131
20
-69.4471
11
159.142
21
-69.445
0
LINE
8
BLACK
6
CONTINUOUS
10
159.142
20
-69.445
11
159.154
21
-69.4427
0
LINE
8
BLACK
6
CONTINUOUS
10
159.154
20
-69.4427
11
159.154
21
-69.4427
0
LINE
8
BLACK
6
CONTINUOUS
10
159.154
20
-69.4427
11
159.155
21
-69.4426
0
LINE
8
BLACK
6
CONTINUOUS
10
159.155
20
-69.4426
11
159.167
21
-69.4427
0
LINE
8
BLACK
6
CONTINUOUS
10
159.167
20
-69.4427
11
159.178
21
-69.4427
0
LINE
8
BLACK
6
CONTINUOUS
10
159.178
20
-69.4427
11
159.179
21
-69.4429
0
LINE
8
BLACK
6
CONTINUOUS
10
159.179
20
-69.4429
11
159.18
21
-69.4429
0
LINE
8
BLACK
6
CONTINUOUS
10
159.18
20
-69.4429
11
159.191
21
-69.4453
0
LINE
8
BLACK
6
CONTINUOUS
10
159.191
20
-69.4453
11
159.203
21
-69.4476
0
LINE
8
BLACK
6
CONTINUOUS
10
159.203
20
-69.4476
11
159.203
21
-69.4478
0
LINE
8
BLACK
6
CONTINUOUS
10
159.203
20
-69.4478
11
159.204
21
-69.448
0
LINE
8
BLACK
6
CONTINUOUS
10
159.204
20
-69.448
11
159.215
21
-69.4526
0
LINE
8
BLACK
6
CONTINUOUS
10
159.215
20
-69.4526
11
159.226
21
-69.4571
0
LINE
8
BLACK
6
CONTINUOUS
10
159.226
20
-69.4571
11
159.268
21
-69.4798
0
LINE
8
BLACK
6
CONTINUOUS
10
159.268
20
-69.4798
11
159.316
21
-69.4943
0
LINE
8
BLACK
6
CONTINUOUS
10
159.316
20
-69.4943
11
159.372
21
-69.4998
0
LINE
8
BLACK
6
CONTINUOUS
10
159.372
20
-69.4998
11
159.96
21
-69.4998
0
LINE
8
BLACK
6
CONTINUOUS
10
159.96
20
-69.4998
11
160.016
21
-69.4943
0
LINE
8
BLACK
6
CONTINUOUS
10
160.016
20
-69.4943
11
160.063
21
-69.4798
0
LINE
8
BLACK
6
CONTINUOUS
10
160.063
20
-69.4798
11
160.106
21
-69.4571
0
LINE
8
BLACK
6
CONTINUOUS
10
160.106
20
-69.4571
11
160.106
21
-69.4569
0
LINE
8
BLACK
6
CONTINUOUS
10
160.106
20
-69.4569
11
160.106
21
-69.4568
0
LINE
8
BLACK
6
CONTINUOUS
10
160.106
20
-69.4568
11
160.106
21
-69.4568
0
LINE
8
BLACK
6
CONTINUOUS
10
160.106
20
-69.4568
11
160.107
21
-69.4563
0
LINE
8
BLACK
6
CONTINUOUS
10
160.107
20
-69.4563
11
160.118
21
-69.4519
0
LINE
8
BLACK
6
CONTINUOUS
10
160.118
20
-69.4519
11
160.129
21
-69.4474
0
LINE
8
BLACK
6
CONTINUOUS
10
160.129
20
-69.4474
11
160.13
21
-69.4473
0
LINE
8
BLACK
6
CONTINUOUS
10
160.13
20
-69.4473
11
160.131
21
-69.4471
0
LINE
8
BLACK
6
CONTINUOUS
10
160.131
20
-69.4471
11
160.142
21
-69.445
0
LINE
8
BLACK
6
CONTINUOUS
10
160.142
20
-69.445
11
160.154
21
-69.4427
0
LINE
8
BLACK
6
CONTINUOUS
10
160.154
20
-69.4427
11
160.154
21
-69.4427
0
LINE
8
BLACK
6
CONTINUOUS
10
160.154
20
-69.4427
11
160.155
21
-69.4426
0
LINE
8
BLACK
6
CONTINUOUS
10
160.155
20
-69.4426
11
160.167
21
-69.4427
0
LINE
8
BLACK
6
CONTINUOUS
10
160.167
20
-69.4427
11
160.178
21
-69.4427
0
LINE
8
BLACK
6
CONTINUOUS
10
160.178
20
-69.4427
11
160.179
21
-69.4429
0
LINE
8
BLACK
6
CONTINUOUS
10
160.179
20
-69.4429
11
160.18
21
-69.4429
0
LINE
8
BLACK
6
CONTINUOUS
10
160.18
20
-69.4429
11
160.191
21
-69.4453
0
LINE
8
BLACK
6
CONTINUOUS
10
160.191
20
-69.4453
11
160.203
21
-69.4476
0
LINE
8
BLACK
6
CONTINUOUS
10
160.203
20
-69.4476
11
160.203
21
-69.4478
0
LINE
8
BLACK
6
CONTINUOUS
10
160.203
20
-69.4478
11
160.204
21
-69.448
0
LINE
8
BLACK
6
CONTINUOUS
10
160.204
20
-69.448
11
160.215
21
-69.4526
0
LINE
8
BLACK
6
CONTINUOUS
10
160.215
20
-69.4526
11
160.226
21
-69.4571
0
LINE
8
BLACK
6
CONTINUOUS
10
160.226
20
-69.4571
11
160.268
21
-69.4798
0
LINE
8
BLACK
6
CONTINUOUS
10
160.268
20
-69.4798
11
160.316
21
-69.4943
0
LINE
8
BLACK
6
CONTINUOUS
10
160.316
20
-69.4943
11
160.372
21
-69.4998
0
LINE
8
BLACK
6
CONTINUOUS
10
160.372
20
-69.4998
11
160.96
21
-69.4998
0
LINE
8
BLACK
6
CONTINUOUS
10
160.96
20
-69.4998
11
161.016
21
-69.4943
0
LINE
8
BLACK
6
CONTINUOUS
10
161.016
20
-69.4943
11
161.063
21
-69.4798
0
LINE
8
BLACK
6
CONTINUOUS
10
161.063
20
-69.4798
11
161.106
21
-69.4571
0
LINE
8
BLACK
6
CONTINUOUS
10
161.106
20
-69.4571
11
161.106
21
-69.4569
0
LINE
8
BLACK
6
CONTINUOUS
10
161.106
20
-69.4569
11
161.106
21
-69.4568
0
LINE
8
BLACK
6
CONTINUOUS
10
161.106
20
-69.4568
11
161.106
21
-69.4568
0
LINE
8
BLACK
6
CONTINUOUS
10
161.106
20
-69.4568
11
161.107
21
-69.4563
0
LINE
8
BLACK
6
CONTINUOUS
10
161.107
20
-69.4563
11
161.118
21
-69.4519
0
LINE
8
BLACK
6
CONTINUOUS
10
161.118
20
-69.4519
11
161.129
21
-69.4474
0
LINE
8
BLACK
6
CONTINUOUS
10
161.129
20
-69.4474
11
161.13
21
-69.4473
0
LINE
8
BLACK
6
CONTINUOUS
10
161.13
20
-69.4473
11
161.131
21
-69.4471
0
LINE
8
BLACK
6
CONTINUOUS
10
161.131
20
-69.4471
11
161.142
21
-69.445
0
LINE
8
BLACK
6
CONTINUOUS
10
161.142
20
-69.445
11
161.154
21
-69.4427
0
LINE
8
BLACK
6
CONTINUOUS
10
161.154
20
-69.4427
11
161.154
21
-69.4427
0
LINE
8
BLACK
6
CONTINUOUS
10
161.154
20
-69.4427
11
161.155
21
-69.4426
0
LINE
8
BLACK
6
CONTINUOUS
10
161.155
20
-69.4426
11
161.167
21
-69.4427
0
LINE
8
BLACK
6
CONTINUOUS
10
161.167
20
-69.4427
11
161.178
21
-69.4427
0
LINE
8
BLACK
6
CONTINUOUS
10
161.178
20
-69.4427
11
161.179
21
-69.4429
0
LINE
8
BLACK
6
CONTINUOUS
10
161.179
20
-69.4429
11
161.18
21
-69.4429
0
LINE
8
BLACK
6
CONTINUOUS
10
161.18
20
-69.4429
11
161.191
21
-69.4453
0
LINE
8
BLACK
6
CONTINUOUS
10
161.191
20
-69.4453
11
161.203
21
-69.4476
0
LINE
8
BLACK
6
CONTINUOUS
10
161.203
20
-69.4476
11
161.203
21
-69.4478
0
LINE
8
BLACK
6
CONTINUOUS
10
161.203
20
-69.4478
11
161.204
21
-69.448
0
LINE
8
BLACK
6
CONTINUOUS
10
161.204
20
-69.448
11
161.215
21
-69.4526
0
LINE
8
BLACK
6
CONTINUOUS
10
161.215
20
-69.4526
11
161.226
21
-69.4571
0
LINE
8
BLACK
6
CONTINUOUS
10
161.226
20
-69.4571
11
161.268
21
-69.4798
0
LINE
8
BLACK
6
CONTINUOUS
10
161.268
20
-69.4798
11
161.316
21
-69.4943
0
LINE
8
BLACK
6
CONTINUOUS
10
161.316
20
-69.4943
11
161.372
21
-69.4998
0
LINE
8
BLACK
6
CONTINUOUS
10
161.372
20
-69.4998
11
161.96
21
-69.4998
0
LINE
8
BLACK
6
CONTINUOUS
10
161.96
20
-69.4998
11
162.016
21
-69.4943
0
LINE
8
BLACK
6
CONTINUOUS
10
162.016
20
-69.4943
11
162.063
21
-69.4798
0
LINE
8
BLACK
6
CONTINUOUS
10
162.063
20
-69.4798
11
162.106
21
-69.4571
0
LINE
8
BLACK
6
CONTINUOUS
10
162.106
20
-69.4571
11
162.106
21
-69.4569
0
LINE
8
BLACK
6
CONTINUOUS
10
162.106
20
-69.4569
11
162.106
21
-69.4568
0
LINE
8
BLACK
6
CONTINUOUS
10
162.106
20
-69.4568
11
162.106
21
-69.4568
0
LINE
8
BLACK
6
CONTINUOUS
10
162.106
20
-69.4568
11
162.107
21
-69.4563
0
LINE
8
BLACK
6
CONTINUOUS
10
162.107
20
-69.4563
11
162.118
21
-69.4519
0
LINE
8
BLACK
6
CONTINUOUS
10
162.118
20
-69.4519
11
162.129
21
-69.4474
0
LINE
8
BLACK
6
CONTINUOUS
10
162.129
20
-69.4474
11
162.13
21
-69.4473
0
LINE
8
BLACK
6
CONTINUOUS
10
162.13
20
-69.4473
11
162.131
21
-69.4471
0
LINE
8
BLACK
6
CONTINUOUS
10
162.131
20
-69.4471
11
162.142
21
-69.445
0
LINE
8
BLACK
6
CONTINUOUS
10
162.142
20
-69.445
11
162.154
21
-69.4427
0
LINE
8
BLACK
6
CONTINUOUS
10
162.154
20
-69.4427
11
162.154
21
-69.4427
0
LINE
8
BLACK
6
CONTINUOUS
10
162.154
20
-69.4427
11
162.155
21
-69.4426
0
LINE
8
BLACK
6
CONTINUOUS
10
162.155
20
-69.4426
11
162.167
21
-69.4427
0
LINE
8
BLACK
6
CONTINUOUS
10
162.167
20
-69.4427
11
162.178
21
-69.4427
0
LINE
8
BLACK
6
CONTINUOUS
10
162.178
20
-69.4427
11
162.179
21
-69.4429
0
LINE
8
BLACK
6
CONTINUOUS
10
162.179
20
-69.4429
11
162.18
21
-69.4429
0
LINE
8
BLACK
6
CONTINUOUS
10
162.18
20
-69.4429
11
162.191
21
-69.4453
0
LINE
8
BLACK
6
CONTINUOUS
10
162.191
20
-69.4453
11
162.203
21
-69.4476
0
LINE
8
BLACK
6
CONTINUOUS
10
162.203
20
-69.4476
11
162.203
21
-69.4478
0
LINE
8
BLACK
6
CONTINUOUS
10
162.203
20
-69.4478
11
162.204
21
-69.448
0
LINE
8
BLACK
6
CONTINUOUS
10
162.204
20
-69.448
11
162.215
21
-69.4526
0
LINE
8
BLACK
6
CONTINUOUS
10
162.215
20
-69.4526
11
162.226
21
-69.4571
0
LINE
8
BLACK
6
CONTINUOUS
10
162.226
20
-69.4571
11
162.268
21
-69.4798
0
LINE
8
BLACK
6
CONTINUOUS
10
162.268
20
-69.4798
11
162.316
21
-69.4943
0
LINE
8
BLACK
6
CONTINUOUS
10
162.316
20
-69.4943
11
162.372
21
-69.4998
0
LINE
8
BLACK
6
CONTINUOUS
10
162.372
20
-69.4998
11
162.96
21
-69.4998
0
LINE
8
BLACK
6
CONTINUOUS
10
162.96
20
-69.4998
11
163.016
21
-69.4943
0
LINE
8
BLACK
6
CONTINUOUS
10
163.016
20
-69.4943
11
163.063
21
-69.4798
0
LINE
8
BLACK
6
CONTINUOUS
10
163.063
20
-69.4798
11
163.106
21
-69.4571
0
LINE
8
BLACK
6
CONTINUOUS
10
163.106
20
-69.4571
11
163.106
21
-69.4569
0
LINE
8
BLACK
6
CONTINUOUS
10
163.106
20
-69.4569
11
163.106
21
-69.4568
0
LINE
8
BLACK
6
CONTINUOUS
10
163.106
20
-69.4568
11
163.106
21
-69.4568
0
LINE
8
BLACK
6
CONTINUOUS
10
163.106
20
-69.4568
11
163.107
21
-69.4563
0
LINE
8
BLACK
6
CONTINUOUS
10
163.107
20
-69.4563
11
163.118
21
-69.4519
0
LINE
8
BLACK
6
CONTINUOUS
10
163.118
20
-69.4519
11
163.129
21
-69.4474
0
LINE
8
BLACK
6
CONTINUOUS
10
163.129
20
-69.4474
11
163.13
21
-69.4473
0
LINE
8
BLACK
6
CONTINUOUS
10
163.13
20
-69.4473
11
163.131
21
-69.4471
0
LINE
8
BLACK
6
CONTINUOUS
10
163.131
20
-69.4471
11
163.142
21
-69.445
0
LINE
8
BLACK
6
CONTINUOUS
10
163.142
20
-69.445
11
163.154
21
-69.4427
0
LINE
8
BLACK
6
CONTINUOUS
10
163.154
20
-69.4427
11
163.154
21
-69.4427
0
LINE
8
BLACK
6
CONTINUOUS
10
163.154
20
-69.4427
11
163.155
21
-69.4426
0
LINE
8
BLACK
6
CONTINUOUS
10
163.155
20
-69.4426
11
163.167
21
-69.4427
0
LINE
8
BLACK
6
CONTINUOUS
10
163.167
20
-69.4427
11
163.178
21
-69.4427
0
LINE
8
BLACK
6
CONTINUOUS
10
163.178
20
-69.4427
11
163.179
21
-69.4429
0
LINE
8
BLACK
6
CONTINUOUS
10
163.179
20
-69.4429
11
163.18
21
-69.4429
0
LINE
8
BLACK
6
CONTINUOUS
10
163.18
20
-69.4429
11
163.191
21
-69.4453
0
LINE
8
BLACK
6
CONTINUOUS
10
163.191
20
-69.4453
11
163.203
21
-69.4476
0
LINE
8
BLACK
6
CONTINUOUS
10
163.203
20
-69.4476
11
163.203
21
-69.4478
0
LINE
8
BLACK
6
CONTINUOUS
10
163.203
20
-69.4478
11
163.204
21
-69.448
0
LINE
8
BLACK
6
CONTINUOUS
10
163.204
20
-69.448
11
163.215
21
-69.4526
0
LINE
8
BLACK
6
CONTINUOUS
10
163.215
20
-69.4526
11
163.226
21
-69.4571
0
LINE
8
BLACK
6
CONTINUOUS
10
163.226
20
-69.4571
11
163.268
21
-69.4798
0
LINE
8
BLACK
6
CONTINUOUS
10
163.268
20
-69.4798
11
163.316
21
-69.4943
0
LINE
8
BLACK
6
CONTINUOUS
10
163.316
20
-69.4943
11
163.372
21
-69.4998
0
LINE
8
BLACK
6
CONTINUOUS
10
163.372
20
-69.4998
11
163.96
21
-69.4998
0
LINE
8
BLACK
6
CONTINUOUS
10
163.96
20
-69.4998
11
164.016
21
-69.4943
0
LINE
8
BLACK
6
CONTINUOUS
10
164.016
20
-69.4943
11
164.063
21
-69.4798
0
LINE
8
BLACK
6
CONTINUOUS
10
164.063
20
-69.4798
11
164.106
21
-69.4571
0
LINE
8
BLACK
6
CONTINUOUS
10
164.106
20
-69.4571
11
164.106
21
-69.4569
0
LINE
8
BLACK
6
CONTINUOUS
10
164.106
20
-69.4569
11
164.106
21
-69.4568
0
LINE
8
BLACK
6
CONTINUOUS
10
164.106
20
-69.4568
11
164.106
21
-69.4568
0
LINE
8
BLACK
6
CONTINUOUS
10
164.106
20
-69.4568
11
164.107
21
-69.4563
0
LINE
8
BLACK
6
CONTINUOUS
10
164.107
20
-69.4563
11
164.118
21
-69.4519
0
LINE
8
BLACK
6
CONTINUOUS
10
164.118
20
-69.4519
11
164.129
21
-69.4474
0
LINE
8
BLACK
6
CONTINUOUS
10
164.129
20
-69.4474
11
164.13
21
-69.4473
0
LINE
8
BLACK
6
CONTINUOUS
10
164.13
20
-69.4473
11
164.131
21
-69.4471
0
LINE
8
BLACK
6
CONTINUOUS
10
164.131
20
-69.4471
11
164.142
21
-69.445
0
LINE
8
BLACK
6
CONTINUOUS
10
164.142
20
-69.445
11
164.154
21
-69.4427
0
LINE
8
BLACK
6
CONTINUOUS
10
164.154
20
-69.4427
11
164.154
21
-69.4427
0
LINE
8
BLACK
6
CONTINUOUS
10
164.154
20
-69.4427
11
164.155
21
-69.4426
0
LINE
8
BLACK
6
CONTINUOUS
10
164.155
20
-69.4426
11
164.167
21
-69.4427
0
LINE
8
BLACK
6
CONTINUOUS
10
164.167
20
-69.4427
11
164.178
21
-69.4427
0
LINE
8
BLACK
6
CONTINUOUS
10
164.178
20
-69.4427
11
164.179
21
-69.4429
0
LINE
8
BLACK
6
CONTINUOUS
10
164.179
20
-69.4429
11
164.18
21
-69.4429
0
LINE
8
BLACK
6
CONTINUOUS
10
164.18
20
-69.4429
11
164.191
21
-69.4453
0
LINE
8
BLACK
6
CONTINUOUS
10
164.191
20
-69.4453
11
164.203
21
-69.4476
0
LINE
8
BLACK
6
CONTINUOUS
10
164.203
20
-69.4476
11
164.203
21
-69.4478
0
LINE
8
BLACK
6
CONTINUOUS
10
164.203
20
-69.4478
11
164.204
21
-69.448
0
LINE
8
BLACK
6
CONTINUOUS
10
164.204
20
-69.448
11
164.215
21
-69.4526
0
LINE
8
BLACK
6
CONTINUOUS
10
164.215
20
-69.4526
11
164.226
21
-69.4571
0
LINE
8
BLACK
6
CONTINUOUS
10
164.226
20
-69.4571
11
164.268
21
-69.4798
0
LINE
8
BLACK
6
CONTINUOUS
10
164.268
20
-69.4798
11
164.316
21
-69.4943
0
LINE
8
BLACK
6
CONTINUOUS
10
164.316
20
-69.4943
11
164.372
21
-69.4998
0
LINE
8
BLACK
6
CONTINUOUS
10
164.372
20
-69.4998
11
164.96
21
-69.4998
0
LINE
8
BLACK
6
CONTINUOUS
10
164.96
20
-69.4998
11
165.016
21
-69.4943
0
LINE
8
BLACK
6
CONTINUOUS
10
165.016
20
-69.4943
11
165.063
21
-69.4798
0
LINE
8
BLACK
6
CONTINUOUS
10
165.063
20
-69.4798
11
165.106
21
-69.4571
0
LINE
8
BLACK
6
CONTINUOUS
10
165.106
20
-69.4571
11
165.106
21
-69.4569
0
LINE
8
BLACK
6
CONTINUOUS
10
165.106
20
-69.4569
11
165.106
21
-69.4568
0
LINE
8
BLACK
6
CONTINUOUS
10
165.106
20
-69.4568
11
165.106
21
-69.4568
0
LINE
8
BLACK
6
CONTINUOUS
10
165.106
20
-69.4568
11
165.107
21
-69.4563
0
LINE
8
BLACK
6
CONTINUOUS
10
165.107
20
-69.4563
11
165.118
21
-69.4519
0
LINE
8
BLACK
6
CONTINUOUS
10
165.118
20
-69.4519
11
165.129
21
-69.4474
0
LINE
8
BLACK
6
CONTINUOUS
10
165.129
20
-69.4474
11
165.13
21
-69.4473
0
LINE
8
BLACK
6
CONTINUOUS
10
165.13
20
-69.4473
11
165.131
21
-69.4471
0
LINE
8
BLACK
6
CONTINUOUS
10
165.131
20
-69.4471
11
165.142
21
-69.445
0
LINE
8
BLACK
6
CONTINUOUS
10
165.142
20
-69.445
11
165.154
21
-69.4427
0
LINE
8
BLACK
6
CONTINUOUS
10
165.154
20
-69.4427
11
165.154
21
-69.4427
0
LINE
8
BLACK
6
CONTINUOUS
10
165.154
20
-69.4427
11
165.155
21
-69.4426
0
LINE
8
BLACK
6
CONTINUOUS
10
165.155
20
-69.4426
11
165.167
21
-69.4427
0
LINE
8
BLACK
6
CONTINUOUS
10
165.167
20
-69.4427
11
165.178
21
-69.4427
0
LINE
8
BLACK
6
CONTINUOUS
10
165.178
20
-69.4427
11
165.179
21
-69.4429
0
LINE
8
BLACK
6
CONTINUOUS
10
165.179
20
-69.4429
11
165.18
21
-69.4429
0
LINE
8
BLACK
6
CONTINUOUS
10
165.18
20
-69.4429
11
165.191
21
-69.4453
0
LINE
8
BLACK
6
CONTINUOUS
10
165.191
20
-69.4453
11
165.203
21
-69.4476
0
LINE
8
BLACK
6
CONTINUOUS
10
165.203
20
-69.4476
11
165.203
21
-69.4478
0
LINE
8
BLACK
6
CONTINUOUS
10
165.203
20
-69.4478
11
165.204
21
-69.448
0
LINE
8
BLACK
6
CONTINUOUS
10
165.204
20
-69.448
11
165.215
21
-69.4526
0
LINE
8
BLACK
6
CONTINUOUS
10
165.215
20
-69.4526
11
165.226
21
-69.4571
0
LINE
8
BLACK
6
CONTINUOUS
10
165.226
20
-69.4571
11
165.268
21
-69.4798
0
LINE
8
BLACK
6
CONTINUOUS
10
165.268
20
-69.4798
11
165.316
21
-69.4943
0
LINE
8
BLACK
6
CONTINUOUS
10
165.316
20
-69.4943
11
165.372
21
-69.4998
0
LINE
8
BLACK
6
CONTINUOUS
10
165.372
20
-69.4998
11
165.96
21
-69.4998
0
LINE
8
BLACK
6
CONTINUOUS
10
165.96
20
-69.4998
11
166.016
21
-69.4943
0
LINE
8
BLACK
6
CONTINUOUS
10
166.016
20
-69.4943
11
166.063
21
-69.4798
0
LINE
8
BLACK
6
CONTINUOUS
10
166.063
20
-69.4798
11
166.106
21
-69.4571
0
LINE
8
BLACK
6
CONTINUOUS
10
166.106
20
-69.4571
11
166.106
21
-69.4569
0
LINE
8
BLACK
6
CONTINUOUS
10
166.106
20
-69.4569
11
166.106
21
-69.4568
0
LINE
8
BLACK
6
CONTINUOUS
10
166.106
20
-69.4568
11
166.106
21
-69.4568
0
LINE
8
BLACK
6
CONTINUOUS
10
166.106
20
-69.4568
11
166.107
21
-69.4563
0
LINE
8
BLACK
6
CONTINUOUS
10
166.107
20
-69.4563
11
166.118
21
-69.4519
0
LINE
8
BLACK
6
CONTINUOUS
10
166.118
20
-69.4519
11
166.129
21
-69.4474
0
LINE
8
BLACK
6
CONTINUOUS
10
166.129
20
-69.4474
11
166.13
21
-69.4473
0
LINE
8
BLACK
6
CONTINUOUS
10
166.13
20
-69.4473
11
166.131
21
-69.4471
0
LINE
8
BLACK
6
CONTINUOUS
10
166.131
20
-69.4471
11
166.142
21
-69.445
0
LINE
8
BLACK
6
CONTINUOUS
10
166.142
20
-69.445
11
166.154
21
-69.4427
0
LINE
8
BLACK
6
CONTINUOUS
10
166.154
20
-69.4427
11
166.154
21
-69.4427
0
LINE
8
BLACK
6
CONTINUOUS
10
166.154
20
-69.4427
11
166.155
21
-69.4426
0
LINE
8
BLACK
6
CONTINUOUS
10
166.155
20
-69.4426
11
166.167
21
-69.4427
0
LINE
8
BLACK
6
CONTINUOUS
10
166.167
20
-69.4427
11
166.178
21
-69.4427
0
LINE
8
BLACK
6
CONTINUOUS
10
166.178
20
-69.4427
11
166.179
21
-69.4429
0
LINE
8
BLACK
6
CONTINUOUS
10
166.179
20
-69.4429
11
166.18
21
-69.4429
0
LINE
8
BLACK
6
CONTINUOUS
10
166.18
20
-69.4429
11
166.191
21
-69.4453
0
LINE
8
BLACK
6
CONTINUOUS
10
166.191
20
-69.4453
11
166.203
21
-69.4476
0
LINE
8
BLACK
6
CONTINUOUS
10
166.203
20
-69.4476
11
166.203
21
-69.4478
0
LINE
8
BLACK
6
CONTINUOUS
10
166.203
20
-69.4478
11
166.204
21
-69.448
0
LINE
8
BLACK
6
CONTINUOUS
10
166.204
20
-69.448
11
166.215
21
-69.4526
0
LINE
8
BLACK
6
CONTINUOUS
10
166.215
20
-69.4526
11
166.226
21
-69.4571
0
LINE
8
BLACK
6
CONTINUOUS
10
166.226
20
-69.4571
11
166.268
21
-69.4798
0
LINE
8
BLACK
6
CONTINUOUS
10
166.268
20
-69.4798
11
166.316
21
-69.4943
0
LINE
8
BLACK
6
CONTINUOUS
10
166.316
20
-69.4943
11
166.372
21
-69.4998
0
LINE
8
BLACK
6
CONTINUOUS
10
166.372
20
-69.4998
11
166.96
21
-69.4998
0
LINE
8
BLACK
6
CONTINUOUS
10
166.96
20
-69.4998
11
167.016
21
-69.4943
0
LINE
8
BLACK
6
CONTINUOUS
10
167.016
20
-69.4943
11
167.063
21
-69.4798
0
LINE
8
BLACK
6
CONTINUOUS
10
167.063
20
-69.4798
11
167.108
21
-69.4562
0
LINE
8
BLACK
6
CONTINUOUS
10
167.108
20
-69.4562
11
167.146
21
-69.4245
0
LINE
8
BLACK
6
CONTINUOUS
10
167.146
20
-69.4245
11
167.178
21
-69.3858
0
LINE
8
BLACK
6
CONTINUOUS
10
167.178
20
-69.3858
11
167.202
21
-69.3417
0
LINE
8
BLACK
6
CONTINUOUS
10
167.202
20
-69.3417
11
167.216
21
-69.2938
0
LINE
8
BLACK
6
CONTINUOUS
10
167.216
20
-69.2938
11
167.222
21
-69.2378
0
LINE
8
BLACK
6
CONTINUOUS
10
167.222
20
-69.2378
11
167.222
21
-67.2502
0
LINE
8
BLACK
6
CONTINUOUS
10
167.222
20
-67.2502
11
167.216
21
-67.1942
0
LINE
8
BLACK
6
CONTINUOUS
10
145.436
20
-60.751
11
145.415
21
-60.7719
0
LINE
8
BLACK
6
CONTINUOUS
10
145.415
20
-60.7719
11
145.413
21
-61.9909
0
LINE
8
BLACK
6
CONTINUOUS
10
145.413
20
-61.9909
11
145.419
21
-62.0468
0
LINE
8
BLACK
6
CONTINUOUS
10
145.419
20
-62.0468
11
145.433
21
-62.0947
0
LINE
8
BLACK
6
CONTINUOUS
10
145.433
20
-62.0947
11
145.457
21
-62.1388
0
LINE
8
BLACK
6
CONTINUOUS
10
145.457
20
-62.1388
11
145.489
21
-62.1775
0
LINE
8
BLACK
6
CONTINUOUS
10
145.489
20
-62.1775
11
145.527
21
-62.2092
0
LINE
8
BLACK
6
CONTINUOUS
10
145.527
20
-62.2092
11
145.571
21
-62.2328
0
LINE
8
BLACK
6
CONTINUOUS
10
145.571
20
-62.2328
11
145.619
21
-62.2473
0
LINE
8
BLACK
6
CONTINUOUS
10
145.619
20
-62.2473
11
145.675
21
-62.2528
0
LINE
8
BLACK
6
CONTINUOUS
10
145.675
20
-62.2528
11
146.644
21
-62.2511
0
LINE
8
BLACK
6
CONTINUOUS
10
146.644
20
-62.2511
11
146.665
21
-62.2301
0
LINE
8
BLACK
6
CONTINUOUS
10
146.665
20
-62.2301
11
146.665
21
-61.997
0
LINE
8
BLACK
6
CONTINUOUS
10
146.665
20
-61.997
11
145.669
21
-61.997
0
LINE
8
BLACK
6
CONTINUOUS
10
145.669
20
-61.997
11
145.669
21
-60.751
0
LINE
8
BLACK
6
CONTINUOUS
10
145.669
20
-60.751
11
145.436
21
-60.751
0
LINE
8
BLACK
6
CONTINUOUS
10
148.169
20
-60.751
11
148.169
21
-61.997
0
LINE
8
BLACK
6
CONTINUOUS
10
148.169
20
-61.997
11
147.173
21
-61.997
0
LINE
8
BLACK
6
CONTINUOUS
10
147.173
20
-61.997
11
147.173
21
-62.2301
0
LINE
8
BLACK
6
CONTINUOUS
10
147.173
20
-62.2301
11
147.194
21
-62.2511
0
LINE
8
BLACK
6
CONTINUOUS
10
147.194
20
-62.2511
11
148.163
21
-62.2528
0
LINE
8
BLACK
6
CONTINUOUS
10
148.163
20
-62.2528
11
148.219
21
-62.2473
0
LINE
8
BLACK
6
CONTINUOUS
10
148.219
20
-62.2473
11
148.267
21
-62.2328
0
LINE
8
BLACK
6
CONTINUOUS
10
148.267
20
-62.2328
11
148.311
21
-62.2092
0
LINE
8
BLACK
6
CONTINUOUS
10
148.311
20
-62.2092
11
148.349
21
-62.1775
0
LINE
8
BLACK
6
CONTINUOUS
10
148.349
20
-62.1775
11
148.381
21
-62.1388
0
LINE
8
BLACK
6
CONTINUOUS
10
148.381
20
-62.1388
11
148.405
21
-62.0947
0
LINE
8
BLACK
6
CONTINUOUS
10
148.405
20
-62.0947
11
148.419
21
-62.0468
0
LINE
8
BLACK
6
CONTINUOUS
10
148.419
20
-62.0468
11
148.425
21
-61.9908
0
LINE
8
BLACK
6
CONTINUOUS
10
148.425
20
-61.9908
11
148.423
21
-60.7719
0
LINE
8
BLACK
6
CONTINUOUS
10
148.423
20
-60.7719
11
148.402
21
-60.751
0
LINE
8
BLACK
6
CONTINUOUS
10
148.402
20
-60.751
11
148.169
21
-60.751
0
LINE
8
BLACK
6
CONTINUOUS
10
167.936
20
-60.751
11
167.915
21
-60.7719
0
LINE
8
BLACK
6
CONTINUOUS
10
167.915
20
-60.7719
11
167.913
21
-61.9909
0
LINE
8
BLACK
6
CONTINUOUS
10
167.913
20
-61.9909
11
167.919
21
-62.0468
0
LINE
8
BLACK
6
CONTINUOUS
10
167.919
20
-62.0468
11
167.933
21
-62.0947
0
LINE
8
BLACK
6
CONTINUOUS
10
167.933
20
-62.0947
11
167.957
21
-62.1388
0
LINE
8
BLACK
6
CONTINUOUS
10
167.957
20
-62.1388
11
167.989
21
-62.1775
0
LINE
8
BLACK
6
CONTINUOUS
10
167.989
20
-62.1775
11
168.027
21
-62.2092
0
LINE
8
BLACK
6
CONTINUOUS
10
168.027
20
-62.2092
11
168.071
21
-62.2328
0
LINE
8
BLACK
6
CONTINUOUS
10
168.071
20
-62.2328
11
168.119
21
-62.2473
0
LINE
8
BLACK
6
CONTINUOUS
10
168.119
20
-62.2473
11
168.175
21
-62.2528
0
LINE
8
BLACK
6
CONTINUOUS
10
168.175
20
-62.2528
11
169.144
21
-62.2511
0
LINE
8
BLACK
6
CONTINUOUS
10
169.144
20
-62.2511
11
169.165
21
-62.2301
0
LINE
8
BLACK
6
CONTINUOUS
10
169.165
20
-62.2301
11
169.165
21
-61.997
0
LINE
8
BLACK
6
CONTINUOUS
10
169.165
20
-61.997
11
168.169
21
-61.997
0
LINE
8
BLACK
6
CONTINUOUS
10
168.169
20
-61.997
11
168.169
21
-60.751
0
LINE
8
BLACK
6
CONTINUOUS
10
168.169
20
-60.751
11
167.936
21
-60.751
0
LINE
8
BLACK
6
CONTINUOUS
10
168.119
20
-58.7467
11
168.071
21
-58.7612
0
LINE
8
BLACK
6
CONTINUOUS
10
168.071
20
-58.7612
11
168.027
21
-58.7848
0
LINE
8
BLACK
6
CONTINUOUS
10
168.027
20
-58.7848
11
167.989
21
-58.8165
0
LINE
8
BLACK
6
CONTINUOUS
10
167.989
20
-58.8165
11
167.957
21
-58.8552
0
LINE
8
BLACK
6
CONTINUOUS
10
167.957
20
-58.8552
11
167.933
21
-58.8993
0
LINE
8
BLACK
6
CONTINUOUS
10
167.933
20
-58.8993
11
167.919
21
-58.9472
0
LINE
8
BLACK
6
CONTINUOUS
10
167.919
20
-58.9472
11
167.913
21
-59.0031
0
LINE
8
BLACK
6
CONTINUOUS
10
167.913
20
-59.0031
11
167.915
21
-60.2221
0
LINE
8
BLACK
6
CONTINUOUS
10
167.915
20
-60.2221
11
167.936
21
-60.243
0
LINE
8
BLACK
6
CONTINUOUS
10
167.936
20
-60.243
11
168.169
21
-60.243
0
LINE
8
BLACK
6
CONTINUOUS
10
168.169
20
-60.243
11
168.169
21
-58.997
0
LINE
8
BLACK
6
CONTINUOUS
10
168.169
20
-58.997
11
169.165
21
-58.997
0
LINE
8
BLACK
6
CONTINUOUS
10
169.165
20
-58.997
11
169.165
21
-58.7639
0
LINE
8
BLACK
6
CONTINUOUS
10
169.165
20
-58.7639
11
169.144
21
-58.7429
0
LINE
8
BLACK
6
CONTINUOUS
10
169.144
20
-58.7429
11
168.175
21
-58.7412
0
LINE
8
BLACK
6
CONTINUOUS
10
168.175
20
-58.7412
11
168.119
21
-58.7467
0
LINE
8
BLACK
6
CONTINUOUS
10
147.194
20
-58.7429
11
147.173
21
-58.7639
0
LINE
8
BLACK
6
CONTINUOUS
10
147.173
20
-58.7639
11
147.173
21
-58.997
0
LINE
8
BLACK
6
CONTINUOUS
10
147.173
20
-58.997
11
148.169
21
-58.997
0
LINE
8
BLACK
6
CONTINUOUS
10
148.169
20
-58.997
11
148.169
21
-60.243
0
LINE
8
BLACK
6
CONTINUOUS
10
148.169
20
-60.243
11
148.402
21
-60.243
0
LINE
8
BLACK
6
CONTINUOUS
10
148.402
20
-60.243
11
148.423
21
-60.2221
0
LINE
8
BLACK
6
CONTINUOUS
10
148.423
20
-60.2221
11
148.425
21
-59.0031
0
LINE
8
BLACK
6
CONTINUOUS
10
148.425
20
-59.0031
11
148.419
21
-58.9472
0
LINE
8
BLACK
6
CONTINUOUS
10
148.419
20
-58.9472
11
148.405
21
-58.8993
0
LINE
8
BLACK
6
CONTINUOUS
10
148.405
20
-58.8993
11
148.381
21
-58.8552
0
LINE
8
BLACK
6
CONTINUOUS
10
148.381
20
-58.8552
11
148.349
21
-58.8165
0
LINE
8
BLACK
6
CONTINUOUS
10
148.349
20
-58.8165
11
148.311
21
-58.7848
0
LINE
8
BLACK
6
CONTINUOUS
10
148.311
20
-58.7848
11
148.267
21
-58.7612
0
LINE
8
BLACK
6
CONTINUOUS
10
148.267
20
-58.7612
11
148.219
21
-58.7467
0
LINE
8
BLACK
6
CONTINUOUS
10
148.219
20
-58.7467
11
148.163
21
-58.7412
0
LINE
8
BLACK
6
CONTINUOUS
10
148.163
20
-58.7412
11
147.194
21
-58.7429
0
LINE
8
BLACK
6
CONTINUOUS
10
145.619
20
-58.7467
11
145.571
21
-58.7612
0
LINE
8
BLACK
6
CONTINUOUS
10
145.571
20
-58.7612
11
145.527
21
-58.7848
0
LINE
8
BLACK
6
CONTINUOUS
10
145.527
20
-58.7848
11
145.489
21
-58.8165
0
LINE
8
BLACK
6
CONTINUOUS
10
145.489
20
-58.8165
11
145.457
21
-58.8552
0
LINE
8
BLACK
6
CONTINUOUS
10
145.457
20
-58.8552
11
145.433
21
-58.8993
0
LINE
8
BLACK
6
CONTINUOUS
10
145.433
20
-58.8993
11
145.419
21
-58.9472
0
LINE
8
BLACK
6
CONTINUOUS
10
145.419
20
-58.9472
11
145.413
21
-59.0031
0
LINE
8
BLACK
6
CONTINUOUS
10
145.413
20
-59.0031
11
145.415
21
-60.2221
0
LINE
8
BLACK
6
CONTINUOUS
10
145.415
20
-60.2221
11
145.436
21
-60.243
0
LINE
8
BLACK
6
CONTINUOUS
10
145.436
20
-60.243
11
145.669
21
-60.243
0
LINE
8
BLACK
6
CONTINUOUS
10
145.669
20
-60.243
11
145.669
21
-58.997
0
LINE
8
BLACK
6
CONTINUOUS
10
145.669
20
-58.997
11
146.665
21
-58.997
0
LINE
8
BLACK
6
CONTINUOUS
10
146.665
20
-58.997
11
146.665
21
-58.7639
0
LINE
8
BLACK
6
CONTINUOUS
10
146.665
20
-58.7639
11
146.644
21
-58.7429
0
LINE
8
BLACK
6
CONTINUOUS
10
146.644
20
-58.7429
11
145.675
21
-58.7412
0
LINE
8
BLACK
6
CONTINUOUS
10
145.675
20
-58.7412
11
145.619
21
-58.7467
0
LINE
8
BLACK
6
CONTINUOUS
10
159.969
20
-63.947
11
159.919
21
-63.947
0
LINE
8
BLACK
6
CONTINUOUS
10
159.919
20
-63.947
11
159.919
21
-67.244
0
LINE
8
BLACK
6
CONTINUOUS
10
159.919
20
-67.244
11
159.966
21
-67.244
0
LINE
8
BLACK
6
CONTINUOUS
10
159.966
20
-67.244
11
159.966
21
-69.244
0
LINE
8
BLACK
6
CONTINUOUS
10
159.966
20
-69.244
11
159.366
21
-69.244
0
LINE
8
BLACK
6
CONTINUOUS
10
159.366
20
-69.244
11
159.366
21
-67.244
0
LINE
8
BLACK
6
CONTINUOUS
10
159.366
20
-67.244
11
159.419
21
-67.244
0
LINE
8
BLACK
6
CONTINUOUS
10
159.419
20
-67.244
11
159.419
21
-63.947
0
LINE
8
BLACK
6
CONTINUOUS
10
159.419
20
-63.947
11
159.369
21
-63.947
0
LINE
8
BLACK
6
CONTINUOUS
10
159.369
20
-63.947
11
159.369
21
-61.947
0
LINE
8
BLACK
6
CONTINUOUS
10
159.369
20
-61.947
11
159.969
21
-61.947
0
LINE
8
BLACK
6
CONTINUOUS
10
159.969
20
-61.947
11
159.969
21
-63.947
0
LINE
8
BLACK
6
CONTINUOUS
10
162.969
20
-63.947
11
162.919
21
-63.947
0
LINE
8
BLACK
6
CONTINUOUS
10
162.919
20
-63.947
11
162.919
21
-67.244
0
LINE
8
BLACK
6
CONTINUOUS
10
162.919
20
-67.244
11
162.966
21
-67.244
0
LINE
8
BLACK
6
CONTINUOUS
10
162.966
20
-67.244
11
162.966
21
-69.244
0
LINE
8
BLACK
6
CONTINUOUS
10
162.966
20
-69.244
11
162.366
21
-69.244
0
LINE
8
BLACK
6
CONTINUOUS
10
162.366
20
-69.244
11
162.366
21
-67.244
0
LINE
8
BLACK
6
CONTINUOUS
10
162.366
20
-67.244
11
162.419
21
-67.244
0
LINE
8
BLACK
6
CONTINUOUS
10
162.419
20
-67.244
11
162.419
21
-63.947
0
LINE
8
BLACK
6
CONTINUOUS
10
162.419
20
-63.947
11
162.369
21
-63.947
0
LINE
8
BLACK
6
CONTINUOUS
10
162.369
20
-63.947
11
162.369
21
-61.947
0
LINE
8
BLACK
6
CONTINUOUS
10
162.369
20
-61.947
11
162.969
21
-61.947
0
LINE
8
BLACK
6
CONTINUOUS
10
162.969
20
-61.947
11
162.969
21
-63.947
0
LINE
8
BLACK
6
CONTINUOUS
10
150.969
20
-63.947
11
150.919
21
-63.947
0
LINE
8
BLACK
6
CONTINUOUS
10
150.919
20
-63.947
11
150.919
21
-67.244
0
LINE
8
BLACK
6
CONTINUOUS
10
150.919
20
-67.244
11
150.966
21
-67.244
0
LINE
8
BLACK
6
CONTINUOUS
10
150.966
20
-67.244
11
150.966
21
-69.244
0
LINE
8
BLACK
6
CONTINUOUS
10
150.966
20
-69.244
11
150.366
21
-69.244
0
LINE
8
BLACK
6
CONTINUOUS
10
150.366
20
-69.244
11
150.366
21
-67.244
0
LINE
8
BLACK
6
CONTINUOUS
10
150.366
20
-67.244
11
150.419
21
-67.244
0
LINE
8
BLACK
6
CONTINUOUS
10
150.419
20
-67.244
11
150.419
21
-63.947
0
LINE
8
BLACK
6
CONTINUOUS
10
150.419
20
-63.947
11
150.369
21
-63.947
0
LINE
8
BLACK
6
CONTINUOUS
10
150.369
20
-63.947
11
150.369
21
-61.947
0
LINE
8
BLACK
6
CONTINUOUS
10
150.369
20
-61.947
11
150.969
21
-61.947
0
LINE
8
BLACK
6
CONTINUOUS
10
150.969
20
-61.947
11
150.969
21
-63.947
0
LINE
8
BLACK
6
CONTINUOUS
10
149.969
20
-63.947
11
149.919
21
-63.947
0
LINE
8
BLACK
6
CONTINUOUS
10
149.919
20
-63.947
11
149.919
21
-67.244
0
LINE
8
BLACK
6
CONTINUOUS
10
149.919
20
-67.244
11
149.966
21
-67.244
0
LINE
8
BLACK
6
CONTINUOUS
10
149.966
20
-67.244
11
149.966
21
-69.244
0
LINE
8
BLACK
6
CONTINUOUS
10
149.966
20
-69.244
11
149.366
21
-69.244
0
LINE
8
BLACK
6
CONTINUOUS
10
149.366
20
-69.244
11
149.366
21
-67.244
0
LINE
8
BLACK
6
CONTINUOUS
10
149.366
20
-67.244
11
149.419
21
-67.244
0
LINE
8
BLACK
6
CONTINUOUS
10
149.419
20
-67.244
11
149.419
21
-63.947
0
LINE
8
BLACK
6
CONTINUOUS
10
149.419
20
-63.947
11
149.369
21
-63.947
0
LINE
8
BLACK
6
CONTINUOUS
10
149.369
20
-63.947
11
149.369
21
-61.947
0
LINE
8
BLACK
6
CONTINUOUS
10
149.369
20
-61.947
11
149.969
21
-61.947
0
LINE
8
BLACK
6
CONTINUOUS
10
149.969
20
-61.947
11
149.969
21
-63.947
0
LINE
8
BLACK
6
CONTINUOUS
10
151.969
20
-63.947
11
151.919
21
-63.947
0
LINE
8
BLACK
6
CONTINUOUS
10
151.919
20
-63.947
11
151.919
21
-67.244
0
LINE
8
BLACK
6
CONTINUOUS
10
151.919
20
-67.244
11
151.966
21
-67.244
0
LINE
8
BLACK
6
CONTINUOUS
10
151.966
20
-67.244
11
151.966
21
-69.244
0
LINE
8
BLACK
6
CONTINUOUS
10
151.966
20
-69.244
11
151.366
21
-69.244
0
LINE
8
BLACK
6
CONTINUOUS
10
151.366
20
-69.244
11
151.366
21
-67.244
0
LINE
8
BLACK
6
CONTINUOUS
10
151.366
20
-67.244
11
151.419
21
-67.244
0
LINE
8
BLACK
6
CONTINUOUS
10
151.419
20
-67.244
11
151.419
21
-63.947
0
LINE
8
BLACK
6
CONTINUOUS
10
151.419
20
-63.947
11
151.369
21
-63.947
0
LINE
8
BLACK
6
CONTINUOUS
10
151.369
20
-63.947
11
151.369
21
-61.947
0
LINE
8
BLACK
6
CONTINUOUS
10
151.369
20
-61.947
11
151.969
21
-61.947
0
LINE
8
BLACK
6
CONTINUOUS
10
151.969
20
-61.947
11
151.969
21
-63.947
0
LINE
8
BLACK
6
CONTINUOUS
10
152.969
20
-63.947
11
152.919
21
-63.947
0
LINE
8
BLACK
6
CONTINUOUS
10
152.919
20
-63.947
11
152.919
21
-67.244
0
LINE
8
BLACK
6
CONTINUOUS
10
152.919
20
-67.244
11
152.966
21
-67.244
0
LINE
8
BLACK
6
CONTINUOUS
10
152.966
20
-67.244
11
152.966
21
-69.244
0
LINE
8
BLACK
6
CONTINUOUS
10
152.966
20
-69.244
11
152.366
21
-69.244
0
LINE
8
BLACK
6
CONTINUOUS
10
152.366
20
-69.244
11
152.366
21
-67.244
0
LINE
8
BLACK
6
CONTINUOUS
10
152.366
20
-67.244
11
152.419
21
-67.244
0
LINE
8
BLACK
6
CONTINUOUS
10
152.419
20
-67.244
11
152.419
21
-63.947
0
LINE
8
BLACK
6
CONTINUOUS
10
152.419
20
-63.947
11
152.369
21
-63.947
0
LINE
8
BLACK
6
CONTINUOUS
10
152.369
20
-63.947
11
152.369
21
-61.947
0
LINE
8
BLACK
6
CONTINUOUS
10
152.369
20
-61.947
11
152.969
21
-61.947
0
LINE
8
BLACK
6
CONTINUOUS
10
152.969
20
-61.947
11
152.969
21
-63.947
0
LINE
8
BLACK
6
CONTINUOUS
10
153.969
20
-63.947
11
153.919
21
-63.947
0
LINE
8
BLACK
6
CONTINUOUS
10
153.919
20
-63.947
11
153.919
21
-67.244
0
LINE
8
BLACK
6
CONTINUOUS
10
153.919
20
-67.244
11
153.966
21
-67.244
0
LINE
8
BLACK
6
CONTINUOUS
10
153.966
20
-67.244
11
153.966
21
-69.244
0
LINE
8
BLACK
6
CONTINUOUS
10
153.966
20
-69.244
11
153.366
21
-69.244
0
LINE
8
BLACK
6
CONTINUOUS
10
153.366
20
-69.244
11
153.366
21
-67.244
0
LINE
8
BLACK
6
CONTINUOUS
10
153.366
20
-67.244
11
153.419
21
-67.244
0
LINE
8
BLACK
6
CONTINUOUS
10
153.419
20
-67.244
11
153.419
21
-63.947
0
LINE
8
BLACK
6
CONTINUOUS
10
153.419
20
-63.947
11
153.369
21
-63.947
0
LINE
8
BLACK
6
CONTINUOUS
10
153.369
20
-63.947
11
153.369
21
-61.947
0
LINE
8
BLACK
6
CONTINUOUS
10
153.369
20
-61.947
11
153.969
21
-61.947
0
LINE
8
BLACK
6
CONTINUOUS
10
153.969
20
-61.947
11
153.969
21
-63.947
0
LINE
8
BLACK
6
CONTINUOUS
10
154.969
20
-63.947
11
154.919
21
-63.947
0
LINE
8
BLACK
6
CONTINUOUS
10
154.919
20
-63.947
11
154.919
21
-67.244
0
LINE
8
BLACK
6
CONTINUOUS
10
154.919
20
-67.244
11
154.966
21
-67.244
0
LINE
8
BLACK
6
CONTINUOUS
10
154.966
20
-67.244
11
154.966
21
-69.244
0
LINE
8
BLACK
6
CONTINUOUS
10
154.966
20
-69.244
11
154.366
21
-69.244
0
LINE
8
BLACK
6
CONTINUOUS
10
154.366
20
-69.244
11
154.366
21
-67.244
0
LINE
8
BLACK
6
CONTINUOUS
10
154.366
20
-67.244
11
154.419
21
-67.244
0
LINE
8
BLACK
6
CONTINUOUS
10
154.419
20
-67.244
11
154.419
21
-63.947
0
LINE
8
BLACK
6
CONTINUOUS
10
154.419
20
-63.947
11
154.369
21
-63.947
0
LINE
8
BLACK
6
CONTINUOUS
10
154.369
20
-63.947
11
154.369
21
-61.947
0
LINE
8
BLACK
6
CONTINUOUS
10
154.369
20
-61.947
11
154.969
21
-61.947
0
LINE
8
BLACK
6
CONTINUOUS
10
154.969
20
-61.947
11
154.969
21
-63.947
0
LINE
8
BLACK
6
CONTINUOUS
10
155.969
20
-63.947
11
155.919
21
-63.947
0
LINE
8
BLACK
6
CONTINUOUS
10
155.919
20
-63.947
11
155.919
21
-67.244
0
LINE
8
BLACK
6
CONTINUOUS
10
155.919
20
-67.244
11
155.966
21
-67.244
0
LINE
8
BLACK
6
CONTINUOUS
10
155.966
20
-67.244
11
155.966
21
-69.244
0
LINE
8
BLACK
6
CONTINUOUS
10
155.966
20
-69.244
11
155.366
21
-69.244
0
LINE
8
BLACK
6
CONTINUOUS
10
155.366
20
-69.244
11
155.366
21
-67.244
0
LINE
8
BLACK
6
CONTINUOUS
10
155.366
20
-67.244
11
155.419
21
-67.244
0
LINE
8
BLACK
6
CONTINUOUS
10
155.419
20
-67.244
11
155.419
21
-63.947
0
LINE
8
BLACK
6
CONTINUOUS
10
155.419
20
-63.947
11
155.369
21
-63.947
0
LINE
8
BLACK
6
CONTINUOUS
10
155.369
20
-63.947
11
155.369
21
-61.947
0
LINE
8
BLACK
6
CONTINUOUS
10
155.369
20
-61.947
11
155.969
21
-61.947
0
LINE
8
BLACK
6
CONTINUOUS
10
155.969
20
-61.947
11
155.969
21
-63.947
0
LINE
8
BLACK
6
CONTINUOUS
10
156.969
20
-63.947
11
156.919
21
-63.947
0
LINE
8
BLACK
6
CONTINUOUS
10
156.919
20
-63.947
11
156.919
21
-67.244
0
LINE
8
BLACK
6
CONTINUOUS
10
156.919
20
-67.244
11
156.966
21
-67.244
0
LINE
8
BLACK
6
CONTINUOUS
10
156.966
20
-67.244
11
156.966
21
-69.244
0
LINE
8
BLACK
6
CONTINUOUS
10
156.966
20
-69.244
11
156.366
21
-69.244
0
LINE
8
BLACK
6
CONTINUOUS
10
156.366
20
-69.244
11
156.366
21
-67.244
0
LINE
8
BLACK
6
CONTINUOUS
10
156.366
20
-67.244
11
156.419
21
-67.244
0
LINE
8
BLACK
6
CONTINUOUS
10
156.419
20
-67.244
11
156.419
21
-63.947
0
LINE
8
BLACK
6
CONTINUOUS
10
156.419
20
-63.947
11
156.369
21
-63.947
0
LINE
8
BLACK
6
CONTINUOUS
10
156.369
20
-63.947
11
156.369
21
-61.947
0
LINE
8
BLACK
6
CONTINUOUS
10
156.369
20
-61.947
11
156.969
21
-61.947
0
LINE
8
BLACK
6
CONTINUOUS
10
156.969
20
-61.947
11
156.969
21
-63.947
0
LINE
8
BLACK
6
CONTINUOUS
10
157.969
20
-63.947
11
157.919
21
-63.947
0
LINE
8
BLACK
6
CONTINUOUS
10
157.919
20
-63.947
11
157.919
21
-67.244
0
LINE
8
BLACK
6
CONTINUOUS
10
157.919
20
-67.244
11
157.966
21
-67.244
0
LINE
8
BLACK
6
CONTINUOUS
10
157.966
20
-67.244
11
157.966
21
-69.244
0
LINE
8
BLACK
6
CONTINUOUS
10
157.966
20
-69.244
11
157.366
21
-69.244
0
LINE
8
BLACK
6
CONTINUOUS
10
157.366
20
-69.244
11
157.366
21
-67.244
0
LINE
8
BLACK
6
CONTINUOUS
10
157.366
20
-67.244
11
157.419
21
-67.244
0
LINE
8
BLACK
6
CONTINUOUS
10
157.419
20
-67.244
11
157.419
21
-63.947
0
LINE
8
BLACK
6
CONTINUOUS
10
157.419
20
-63.947
11
157.369
21
-63.947
0
LINE
8
BLACK
6
CONTINUOUS
10
157.369
20
-63.947
11
157.369
21
-61.947
0
LINE
8
BLACK
6
CONTINUOUS
10
157.369
20
-61.947
11
157.969
21
-61.947
0
LINE
8
BLACK
6
CONTINUOUS
10
157.969
20
-61.947
11
157.969
21
-63.947
0
LINE
8
BLACK
6
CONTINUOUS
10
158.969
20
-63.947
11
158.919
21
-63.947
0
LINE
8
BLACK
6
CONTINUOUS
10
158.919
20
-63.947
11
158.919
21
-67.244
0
LINE
8
BLACK
6
CONTINUOUS
10
158.919
20
-67.244
11
158.966
21
-67.244
0
LINE
8
BLACK
6
CONTINUOUS
10
158.966
20
-67.244
11
158.966
21
-69.244
0
LINE
8
BLACK
6
CONTINUOUS
10
158.966
20
-69.244
11
158.366
21
-69.244
0
LINE
8
BLACK
6
CONTINUOUS
10
158.366
20
-69.244
11
158.366
21
-67.244
0
LINE
8
BLACK
6
CONTINUOUS
10
158.366
20
-67.244
11
158.419
21
-67.244
0
LINE
8
BLACK
6
CONTINUOUS
10
158.419
20
-67.244
11
158.419
21
-63.947
0
LINE
8
BLACK
6
CONTINUOUS
10
158.419
20
-63.947
11
158.369
21
-63.947
0
LINE
8
BLACK
6
CONTINUOUS
10
158.369
20
-63.947
11
158.369
21
-61.947
0
LINE
8
BLACK
6
CONTINUOUS
10
158.369
20
-61.947
11
158.969
21
-61.947
0
LINE
8
BLACK
6
CONTINUOUS
10
158.969
20
-61.947
11
158.969
21
-63.947
0
LINE
8
BLACK
6
CONTINUOUS
10
160.969
20
-63.947
11
160.919
21
-63.947
0
LINE
8
BLACK
6
CONTINUOUS
10
160.919
20
-63.947
11
160.919
21
-67.244
0
LINE
8
BLACK
6
CONTINUOUS
10
160.919
20
-67.244
11
160.966
21
-67.244
0
LINE
8
BLACK
6
CONTINUOUS
10
160.966
20
-67.244
11
160.966
21
-69.244
0
LINE
8
BLACK
6
CONTINUOUS
10
160.966
20
-69.244
11
160.366
21
-69.244
0
LINE
8
BLACK
6
CONTINUOUS
10
160.366
20
-69.244
11
160.366
21
-67.244
0
LINE
8
BLACK
6
CONTINUOUS
10
160.366
20
-67.244
11
160.419
21
-67.244
0
LINE
8
BLACK
6
CONTINUOUS
10
160.419
20
-67.244
11
160.419
21
-63.947
0
LINE
8
BLACK
6
CONTINUOUS
10
160.419
20
-63.947
11
160.369
21
-63.947
0
LINE
8
BLACK
6
CONTINUOUS
10
160.369
20
-63.947
11
160.369
21
-61.947
0
LINE
8
BLACK
6
CONTINUOUS
10
160.369
20
-61.947
11
160.969
21
-61.947
0
LINE
8
BLACK
6
CONTINUOUS
10
160.969
20
-61.947
11
160.969
21
-63.947
0
LINE
8
BLACK
6
CONTINUOUS
10
161.969
20
-63.947
11
161.919
21
-63.947
0
LINE
8
BLACK
6
CONTINUOUS
10
161.919
20
-63.947
11
161.919
21
-67.244
0
LINE
8
BLACK
6
CONTINUOUS
10
161.919
20
-67.244
11
161.966
21
-67.244
0
LINE
8
BLACK
6
CONTINUOUS
10
161.966
20
-67.244
11
161.966
21
-69.244
0
LINE
8
BLACK
6
CONTINUOUS
10
161.966
20
-69.244
11
161.366
21
-69.244
0
LINE
8
BLACK
6
CONTINUOUS
10
161.366
20
-69.244
11
161.366
21
-67.244
0
LINE
8
BLACK
6
CONTINUOUS
10
161.366
20
-67.244
11
161.419
21
-67.244
0
LINE
8
BLACK
6
CONTINUOUS
10
161.419
20
-67.244
11
161.419
21
-63.947
0
LINE
8
BLACK
6
CONTINUOUS
10
161.419
20
-63.947
11
161.369
21
-63.947
0
LINE
8
BLACK
6
CONTINUOUS
10
161.369
20
-63.947
11
161.369
21
-61.947
0
LINE
8
BLACK
6
CONTINUOUS
10
161.369
20
-61.947
11
161.969
21
-61.947
0
LINE
8
BLACK
6
CONTINUOUS
10
161.969
20
-61.947
11
161.969
21
-63.947
0
LINE
8
BLACK
6
CONTINUOUS
10
163.969
20
-63.947
11
163.919
21
-63.947
0
LINE
8
BLACK
6
CONTINUOUS
10
163.919
20
-63.947
11
163.919
21
-67.244
0
LINE
8
BLACK
6
CONTINUOUS
10
163.919
20
-67.244
11
163.966
21
-67.244
0
LINE
8
BLACK
6
CONTINUOUS
10
163.966
20
-67.244
11
163.966
21
-69.244
0
LINE
8
BLACK
6
CONTINUOUS
10
163.966
20
-69.244
11
163.366
21
-69.244
0
LINE
8
BLACK
6
CONTINUOUS
10
163.366
20
-69.244
11
163.366
21
-67.244
0
LINE
8
BLACK
6
CONTINUOUS
10
163.366
20
-67.244
11
163.419
21
-67.244
0
LINE
8
BLACK
6
CONTINUOUS
10
163.419
20
-67.244
11
163.419
21
-63.947
0
LINE
8
BLACK
6
CONTINUOUS
10
163.419
20
-63.947
11
163.369
21
-63.947
0
LINE
8
BLACK
6
CONTINUOUS
10
163.369
20
-63.947
11
163.369
21
-61.947
0
LINE
8
BLACK
6
CONTINUOUS
10
163.369
20
-61.947
11
163.969
21
-61.947
0
LINE
8
BLACK
6
CONTINUOUS
10
163.969
20
-61.947
11
163.969
21
-63.947
0
LINE
8
BLACK
6
CONTINUOUS
10
164.969
20
-63.947
11
164.919
21
-63.947
0
LINE
8
BLACK
6
CONTINUOUS
10
164.919
20
-63.947
11
164.919
21
-67.244
0
LINE
8
BLACK
6
CONTINUOUS
10
164.919
20
-67.244
11
164.966
21
-67.244
0
LINE
8
BLACK
6
CONTINUOUS
10
164.966
20
-67.244
11
164.966
21
-69.244
0
LINE
8
BLACK
6
CONTINUOUS
10
164.966
20
-69.244
11
164.366
21
-69.244
0
LINE
8
BLACK
6
CONTINUOUS
10
164.366
20
-69.244
11
164.366
21
-67.244
0
LINE
8
BLACK
6
CONTINUOUS
10
164.366
20
-67.244
11
164.419
21
-67.244
0
LINE
8
BLACK
6
CONTINUOUS
10
164.419
20
-67.244
11
164.419
21
-63.947
0
LINE
8
BLACK
6
CONTINUOUS
10
164.419
20
-63.947
11
164.369
21
-63.947
0
LINE
8
BLACK
6
CONTINUOUS
10
164.369
20
-63.947
11
164.369
21
-61.947
0
LINE
8
BLACK
6
CONTINUOUS
10
164.369
20
-61.947
11
164.969
21
-61.947
0
LINE
8
BLACK
6
CONTINUOUS
10
164.969
20
-61.947
11
164.969
21
-63.947
0
LINE
8
BLACK
6
CONTINUOUS
10
166.969
20
-63.947
11
166.919
21
-63.947
0
LINE
8
BLACK
6
CONTINUOUS
10
166.919
20
-63.947
11
166.919
21
-67.244
0
LINE
8
BLACK
6
CONTINUOUS
10
166.919
20
-67.244
11
166.966
21
-67.244
0
LINE
8
BLACK
6
CONTINUOUS
10
166.966
20
-67.244
11
166.966
21
-69.244
0
LINE
8
BLACK
6
CONTINUOUS
10
166.966
20
-69.244
11
166.366
21
-69.244
0
LINE
8
BLACK
6
CONTINUOUS
10
166.366
20
-69.244
11
166.366
21
-67.244
0
LINE
8
BLACK
6
CONTINUOUS
10
166.366
20
-67.244
11
166.419
21
-67.244
0
LINE
8
BLACK
6
CONTINUOUS
10
166.419
20
-67.244
11
166.419
21
-63.947
0
LINE
8
BLACK
6
CONTINUOUS
10
166.419
20
-63.947
11
166.369
21
-63.947
0
LINE
8
BLACK
6
CONTINUOUS
10
166.369
20
-63.947
11
166.369
21
-61.947
0
LINE
8
BLACK
6
CONTINUOUS
10
166.369
20
-61.947
11
166.969
21
-61.947
0
LINE
8
BLACK
6
CONTINUOUS
10
166.969
20
-61.947
11
166.969
21
-63.947
0
LINE
8
BLACK
6
CONTINUOUS
10
165.969
20
-63.947
11
165.919
21
-63.947
0
LINE
8
BLACK
6
CONTINUOUS
10
165.919
20
-63.947
11
165.919
21
-67.244
0
LINE
8
BLACK
6
CONTINUOUS
10
165.919
20
-67.244
11
165.966
21
-67.244
0
LINE
8
BLACK
6
CONTINUOUS
10
165.966
20
-67.244
11
165.966
21
-69.244
0
LINE
8
BLACK
6
CONTINUOUS
10
165.966
20
-69.244
11
165.366
21
-69.244
0
LINE
8
BLACK
6
CONTINUOUS
10
165.366
20
-69.244
11
165.366
21
-67.244
0
LINE
8
BLACK
6
CONTINUOUS
10
165.366
20
-67.244
11
165.419
21
-67.244
0
LINE
8
BLACK
6
CONTINUOUS
10
165.419
20
-67.244
11
165.419
21
-63.947
0
LINE
8
BLACK
6
CONTINUOUS
10
165.419
20
-63.947
11
165.369
21
-63.947
0
LINE
8
BLACK
6
CONTINUOUS
10
165.369
20
-63.947
11
165.369
21
-61.947
0
LINE
8
BLACK
6
CONTINUOUS
10
165.369
20
-61.947
11
165.969
21
-61.947
0
LINE
8
BLACK
6
CONTINUOUS
10
165.969
20
-61.947
11
165.969
21
-63.947
  0
ENDSEC
  0
EOF
