  0
SECTION
  2
HEADER
  9
$ANGBASE
  50
0.0
  9
$ANGDIR
  70
1
  9
$MEASUREMENT
  70
1
  0
ENDSEC
  0
SECTION
  2
TABLES
  0
TABLE
  2
LTYPE
  70
4
  0
LTYPE
  5
40F
  2
CONTINUOUS
  70
0
  3
Solid line
  72
65
  73
0
  40
0.0
  0
LTYPE
  5
410
  2
DASHDOT
 70
0
  3
Dash Dot ____ _ ____ _
 72
65
 73
4
 40
2.0
 49
1.25
 49
-0.25
 49
0.25
 49
-0.25
  0
LTYPE
  5
411
  2
DASHED
 70
0
  3
Dashed __ __ __ __ __
 72
65
 73
2
 40
0.75
 49
0.5
 49
-0.25
  0
LTYPE
  5
43B
  2
DOTTED
 70
0
  3
Dotted .  .  .  .
 72
65
 73
2
 40
0.2
 49
0.0
 49
-0.2
  0
ENDTAB
  0
TABLE
  2
STYLE
  70
4
  0
STYLE
  2
KICAD
  70
0
  40
0
  41
1
  42
1
  50
0
  71
0
  3
isocp.shx
  0
STYLE
  2
KICADB
  70
0
  40
0
  41
1
  42
1
  50
0
  71
0
  3
isocp.shx
  0
STYLE
  2
KICADI
  70
0
  40
0
  41
1
  42
1
  50
15
  71
0
  3
isocp.shx
  0
STYLE
  2
KICADBI
  70
0
  40
0
  41
1
  42
1
  50
15
  71
0
  3
isocp.shx
  0
ENDTAB
  0
TABLE
  2
LAYER
  70
1
  0
LAYER
  2
BLACK
  70
0
  62
7
  6
CONTINUOUS
  0
ENDTAB
  0
ENDSEC
  0
SECTION
  2
ENTITIES
0
LINE
8
BLACK
6
CONTINUOUS
10
169.435
20
-76.1961
11
169.43
21
-76.1969
0
LINE
8
BLACK
6
CONTINUOUS
10
169.43
20
-76.1969
11
169.426
21
-76.1978
0
LINE
8
BLACK
6
CONTINUOUS
10
169.426
20
-76.1978
11
168.933
21
-76.2497
0
LINE
8
BLACK
6
CONTINUOUS
10
168.933
20
-76.2497
11
168.932
21
-76.2497
0
LINE
8
BLACK
6
CONTINUOUS
10
168.932
20
-76.2497
11
168.93
21
-76.2497
0
LINE
8
BLACK
6
CONTINUOUS
10
168.93
20
-76.2497
11
168.928
21
-76.2499
0
LINE
8
BLACK
6
CONTINUOUS
10
168.928
20
-76.2499
11
168.913
21
-76.25
0
LINE
8
BLACK
6
CONTINUOUS
10
168.913
20
-76.25
11
168.912
21
-76.25
0
LINE
8
BLACK
6
CONTINUOUS
10
168.912
20
-76.25
11
147.318
21
-76.25
0
LINE
8
BLACK
6
CONTINUOUS
10
147.318
20
-76.25
11
147.315
21
-76.2498
0
LINE
8
BLACK
6
CONTINUOUS
10
147.315
20
-76.2498
11
147.315
21
-76.2498
0
LINE
8
BLACK
6
CONTINUOUS
10
147.315
20
-76.2498
11
146.822
21
-76.2014
0
LINE
8
BLACK
6
CONTINUOUS
10
146.822
20
-76.2014
11
146.822
21
-76.2014
0
LINE
8
BLACK
6
CONTINUOUS
10
146.822
20
-76.2014
11
146.822
21
-76.2014
0
LINE
8
BLACK
6
CONTINUOUS
10
146.822
20
-76.2014
11
146.821
21
-76.2013
0
LINE
8
BLACK
6
CONTINUOUS
10
146.821
20
-76.2013
11
146.817
21
-76.2004
0
LINE
8
BLACK
6
CONTINUOUS
10
146.817
20
-76.2004
11
146.812
21
-76.1995
0
LINE
8
BLACK
6
CONTINUOUS
10
146.812
20
-76.1995
11
146.338
21
-76.0562
0
LINE
8
BLACK
6
CONTINUOUS
10
146.338
20
-76.0562
11
146.337
21
-76.056
0
LINE
8
BLACK
6
CONTINUOUS
10
146.337
20
-76.056
11
146.333
21
-76.0542
0
LINE
8
BLACK
6
CONTINUOUS
10
146.333
20
-76.0542
11
146.329
21
-76.0525
0
LINE
8
BLACK
6
CONTINUOUS
10
146.329
20
-76.0525
11
145.891
21
-75.8198
0
LINE
8
BLACK
6
CONTINUOUS
10
145.891
20
-75.8198
11
145.891
21
-75.8198
0
LINE
8
BLACK
6
CONTINUOUS
10
145.891
20
-75.8198
11
145.89
21
-75.8194
0
LINE
8
BLACK
6
CONTINUOUS
10
145.89
20
-75.8194
11
145.887
21
-75.8169
0
LINE
8
BLACK
6
CONTINUOUS
10
145.887
20
-75.8169
11
145.883
21
-75.8144
0
LINE
8
BLACK
6
CONTINUOUS
10
145.883
20
-75.8144
11
145.499
21
-75.5011
0
LINE
8
BLACK
6
CONTINUOUS
10
145.499
20
-75.5011
11
145.499
21
-75.5011
0
LINE
8
BLACK
6
CONTINUOUS
10
145.499
20
-75.5011
11
145.499
21
-75.501
0
LINE
8
BLACK
6
CONTINUOUS
10
145.499
20
-75.501
11
145.498
21
-75.5006
0
LINE
8
BLACK
6
CONTINUOUS
10
145.498
20
-75.5006
11
145.495
21
-75.4974
0
LINE
8
BLACK
6
CONTINUOUS
10
145.495
20
-75.4974
11
145.492
21
-75.4942
0
LINE
8
BLACK
6
CONTINUOUS
10
145.492
20
-75.4942
11
145.176
21
-75.1122
0
LINE
8
BLACK
6
CONTINUOUS
10
145.176
20
-75.1122
11
145.176
21
-75.1122
0
LINE
8
BLACK
6
CONTINUOUS
10
145.176
20
-75.1122
11
145.176
21
-75.1122
0
LINE
8
BLACK
6
CONTINUOUS
10
145.176
20
-75.1122
11
145.175
21
-75.1117
0
LINE
8
BLACK
6
CONTINUOUS
10
145.175
20
-75.1117
11
145.173
21
-75.1079
0
LINE
8
BLACK
6
CONTINUOUS
10
145.173
20
-75.1079
11
145.17
21
-75.1041
0
LINE
8
BLACK
6
CONTINUOUS
10
145.17
20
-75.1041
11
144.934
21
-74.6681
0
LINE
8
BLACK
6
CONTINUOUS
10
144.934
20
-74.6681
11
144.934
21
-74.6681
0
LINE
8
BLACK
6
CONTINUOUS
10
144.934
20
-74.6681
11
144.934
21
-74.6681
0
LINE
8
BLACK
6
CONTINUOUS
10
144.934
20
-74.6681
11
144.934
21
-74.6675
0
LINE
8
BLACK
6
CONTINUOUS
10
144.934
20
-74.6675
11
144.932
21
-74.6633
0
LINE
8
BLACK
6
CONTINUOUS
10
144.932
20
-74.6633
11
144.931
21
-74.6591
0
LINE
8
BLACK
6
CONTINUOUS
10
144.931
20
-74.6591
11
144.784
21
-74.1855
0
LINE
8
BLACK
6
CONTINUOUS
10
144.784
20
-74.1855
11
144.784
21
-74.1849
0
LINE
8
BLACK
6
CONTINUOUS
10
144.784
20
-74.1849
11
144.783
21
-74.1804
0
LINE
8
BLACK
6
CONTINUOUS
10
144.783
20
-74.1804
11
144.782
21
-74.176
0
LINE
8
BLACK
6
CONTINUOUS
10
144.782
20
-74.176
11
144.73
21
-73.683
0
LINE
8
BLACK
6
CONTINUOUS
10
144.73
20
-73.683
11
144.73
21
-73.6823
0
LINE
8
BLACK
6
CONTINUOUS
10
144.73
20
-73.6823
11
144.73
21
-73.6801
0
LINE
8
BLACK
6
CONTINUOUS
10
144.73
20
-73.6801
11
144.73
21
-73.6779
0
LINE
8
BLACK
6
CONTINUOUS
10
144.73
20
-73.6779
11
144.73
21
-73.6625
0
LINE
8
BLACK
6
CONTINUOUS
10
144.73
20
-73.6625
11
144.73
21
-73.6624
0
LINE
8
BLACK
6
CONTINUOUS
10
144.73
20
-73.6624
11
144.73
21
-57.1476
0
LINE
8
BLACK
6
CONTINUOUS
10
144.73
20
-57.1476
11
144.73
21
-57.1451
0
LINE
8
BLACK
6
CONTINUOUS
10
144.73
20
-57.1451
11
144.73
21
-57.1451
0
LINE
8
BLACK
6
CONTINUOUS
10
144.73
20
-57.1451
11
144.779
21
-56.6518
0
LINE
8
BLACK
6
CONTINUOUS
10
144.779
20
-56.6518
11
144.779
21
-56.6518
0
LINE
8
BLACK
6
CONTINUOUS
10
144.779
20
-56.6518
11
144.779
21
-56.6518
0
LINE
8
BLACK
6
CONTINUOUS
10
144.779
20
-56.6518
11
144.779
21
-56.6511
0
LINE
8
BLACK
6
CONTINUOUS
10
144.779
20
-56.6511
11
144.78
21
-56.6467
0
LINE
8
BLACK
6
CONTINUOUS
10
144.78
20
-56.6467
11
144.781
21
-56.6422
0
LINE
8
BLACK
6
CONTINUOUS
10
144.781
20
-56.6422
11
144.924
21
-56.1676
0
LINE
8
BLACK
6
CONTINUOUS
10
144.924
20
-56.1676
11
144.924
21
-56.167
0
LINE
8
BLACK
6
CONTINUOUS
10
144.924
20
-56.167
11
144.926
21
-56.1628
0
LINE
8
BLACK
6
CONTINUOUS
10
144.926
20
-56.1628
11
144.928
21
-56.1586
0
LINE
8
BLACK
6
CONTINUOUS
10
144.928
20
-56.1586
11
145.16
21
-55.7209
0
LINE
8
BLACK
6
CONTINUOUS
10
145.16
20
-55.7209
11
145.16
21
-55.7209
0
LINE
8
BLACK
6
CONTINUOUS
10
145.16
20
-55.7209
11
145.16
21
-55.7209
0
LINE
8
BLACK
6
CONTINUOUS
10
145.16
20
-55.7209
11
145.161
21
-55.7203
0
LINE
8
BLACK
6
CONTINUOUS
10
145.161
20
-55.7203
11
145.163
21
-55.7166
0
LINE
8
BLACK
6
CONTINUOUS
10
145.163
20
-55.7166
11
145.166
21
-55.7128
0
LINE
8
BLACK
6
CONTINUOUS
10
145.166
20
-55.7128
11
145.479
21
-55.3286
0
LINE
8
BLACK
6
CONTINUOUS
10
145.479
20
-55.3286
11
145.479
21
-55.3286
0
LINE
8
BLACK
6
CONTINUOUS
10
145.479
20
-55.3286
11
145.479
21
-55.3286
0
LINE
8
BLACK
6
CONTINUOUS
10
145.479
20
-55.3286
11
145.479
21
-55.3281
0
LINE
8
BLACK
6
CONTINUOUS
10
145.479
20
-55.3281
11
145.483
21
-55.325
0
LINE
8
BLACK
6
CONTINUOUS
10
145.483
20
-55.325
11
145.486
21
-55.3217
0
LINE
8
BLACK
6
CONTINUOUS
10
145.486
20
-55.3217
11
145.868
21
-55.0057
0
LINE
8
BLACK
6
CONTINUOUS
10
145.868
20
-55.0057
11
145.868
21
-55.0057
0
LINE
8
BLACK
6
CONTINUOUS
10
145.868
20
-55.0057
11
145.868
21
-55.0057
0
LINE
8
BLACK
6
CONTINUOUS
10
145.868
20
-55.0057
11
145.868
21
-55.0053
0
LINE
8
BLACK
6
CONTINUOUS
10
145.868
20
-55.0053
11
145.872
21
-55.0028
0
LINE
8
BLACK
6
CONTINUOUS
10
145.872
20
-55.0028
11
145.876
21
-55.0003
0
LINE
8
BLACK
6
CONTINUOUS
10
145.876
20
-55.0003
11
146.312
21
-54.7645
0
LINE
8
BLACK
6
CONTINUOUS
10
146.312
20
-54.7645
11
146.312
21
-54.7645
0
LINE
8
BLACK
6
CONTINUOUS
10
146.312
20
-54.7645
11
146.312
21
-54.7645
0
LINE
8
BLACK
6
CONTINUOUS
10
146.312
20
-54.7645
11
146.313
21
-54.7642
0
LINE
8
BLACK
6
CONTINUOUS
10
146.313
20
-54.7642
11
146.317
21
-54.7625
0
LINE
8
BLACK
6
CONTINUOUS
10
146.317
20
-54.7625
11
146.321
21
-54.7607
0
LINE
8
BLACK
6
CONTINUOUS
10
146.321
20
-54.7607
11
146.794
21
-54.6141
0
LINE
8
BLACK
6
CONTINUOUS
10
146.794
20
-54.6141
11
146.794
21
-54.6141
0
LINE
8
BLACK
6
CONTINUOUS
10
146.794
20
-54.6141
11
146.795
21
-54.6139
0
LINE
8
BLACK
6
CONTINUOUS
10
146.795
20
-54.6139
11
146.8
21
-54.6131
0
LINE
8
BLACK
6
CONTINUOUS
10
146.8
20
-54.6131
11
146.804
21
-54.6122
0
LINE
8
BLACK
6
CONTINUOUS
10
146.804
20
-54.6122
11
147.297
21
-54.5603
0
LINE
8
BLACK
6
CONTINUOUS
10
147.297
20
-54.5603
11
147.298
21
-54.5603
0
LINE
8
BLACK
6
CONTINUOUS
10
147.298
20
-54.5603
11
147.3
21
-54.5603
0
LINE
8
BLACK
6
CONTINUOUS
10
147.3
20
-54.5603
11
147.302
21
-54.5601
0
LINE
8
BLACK
6
CONTINUOUS
10
147.302
20
-54.5601
11
147.317
21
-54.56
0
LINE
8
BLACK
6
CONTINUOUS
10
147.317
20
-54.56
11
147.318
21
-54.56
0
LINE
8
BLACK
6
CONTINUOUS
10
147.318
20
-54.56
11
168.912
21
-54.56
0
LINE
8
BLACK
6
CONTINUOUS
10
168.912
20
-54.56
11
168.915
21
-54.5602
0
LINE
8
BLACK
6
CONTINUOUS
10
168.915
20
-54.5602
11
168.915
21
-54.5602
0
LINE
8
BLACK
6
CONTINUOUS
10
168.915
20
-54.5602
11
169.408
21
-54.6086
0
LINE
8
BLACK
6
CONTINUOUS
10
169.408
20
-54.6086
11
169.408
21
-54.6086
0
LINE
8
BLACK
6
CONTINUOUS
10
169.408
20
-54.6086
11
169.408
21
-54.6086
0
LINE
8
BLACK
6
CONTINUOUS
10
169.408
20
-54.6086
11
169.409
21
-54.6087
0
LINE
8
BLACK
6
CONTINUOUS
10
169.409
20
-54.6087
11
169.413
21
-54.6096
0
LINE
8
BLACK
6
CONTINUOUS
10
169.413
20
-54.6096
11
169.418
21
-54.6105
0
LINE
8
BLACK
6
CONTINUOUS
10
169.418
20
-54.6105
11
169.892
21
-54.7538
0
LINE
8
BLACK
6
CONTINUOUS
10
169.892
20
-54.7538
11
169.893
21
-54.754
0
LINE
8
BLACK
6
CONTINUOUS
10
169.893
20
-54.754
11
169.897
21
-54.7558
0
LINE
8
BLACK
6
CONTINUOUS
10
169.897
20
-54.7558
11
169.901
21
-54.7575
0
LINE
8
BLACK
6
CONTINUOUS
10
169.901
20
-54.7575
11
170.339
21
-54.9902
0
LINE
8
BLACK
6
CONTINUOUS
10
170.339
20
-54.9902
11
170.339
21
-54.9902
0
LINE
8
BLACK
6
CONTINUOUS
10
170.339
20
-54.9902
11
170.339
21
-54.9902
0
LINE
8
BLACK
6
CONTINUOUS
10
170.339
20
-54.9902
11
170.34
21
-54.9906
0
LINE
8
BLACK
6
CONTINUOUS
10
170.34
20
-54.9906
11
170.343
21
-54.9931
0
LINE
8
BLACK
6
CONTINUOUS
10
170.343
20
-54.9931
11
170.347
21
-54.9956
0
LINE
8
BLACK
6
CONTINUOUS
10
170.347
20
-54.9956
11
170.731
21
-55.3089
0
LINE
8
BLACK
6
CONTINUOUS
10
170.731
20
-55.3089
11
170.731
21
-55.3089
0
LINE
8
BLACK
6
CONTINUOUS
10
170.731
20
-55.3089
11
170.731
21
-55.3089
0
LINE
8
BLACK
6
CONTINUOUS
10
170.731
20
-55.3089
11
170.732
21
-55.3094
0
LINE
8
BLACK
6
CONTINUOUS
10
170.732
20
-55.3094
11
170.735
21
-55.3126
0
LINE
8
BLACK
6
CONTINUOUS
10
170.735
20
-55.3126
11
170.738
21
-55.3158
0
LINE
8
BLACK
6
CONTINUOUS
10
170.738
20
-55.3158
11
171.054
21
-55.6978
0
LINE
8
BLACK
6
CONTINUOUS
10
171.054
20
-55.6978
11
171.054
21
-55.6978
0
LINE
8
BLACK
6
CONTINUOUS
10
171.054
20
-55.6978
11
171.054
21
-55.6978
0
LINE
8
BLACK
6
CONTINUOUS
10
171.054
20
-55.6978
11
171.055
21
-55.6983
0
LINE
8
BLACK
6
CONTINUOUS
10
171.055
20
-55.6983
11
171.057
21
-55.7021
0
LINE
8
BLACK
6
CONTINUOUS
10
171.057
20
-55.7021
11
171.06
21
-55.7059
0
LINE
8
BLACK
6
CONTINUOUS
10
171.06
20
-55.7059
11
171.296
21
-56.1419
0
LINE
8
BLACK
6
CONTINUOUS
10
171.296
20
-56.1419
11
171.296
21
-56.1419
0
LINE
8
BLACK
6
CONTINUOUS
10
171.296
20
-56.1419
11
171.296
21
-56.1419
0
LINE
8
BLACK
6
CONTINUOUS
10
171.296
20
-56.1419
11
171.296
21
-56.1425
0
LINE
8
BLACK
6
CONTINUOUS
10
171.296
20
-56.1425
11
171.298
21
-56.1467
0
LINE
8
BLACK
6
CONTINUOUS
10
171.298
20
-56.1467
11
171.299
21
-56.1509
0
LINE
8
BLACK
6
CONTINUOUS
10
171.299
20
-56.1509
11
171.446
21
-56.6245
0
LINE
8
BLACK
6
CONTINUOUS
10
171.446
20
-56.6245
11
171.446
21
-56.6251
0
LINE
8
BLACK
6
CONTINUOUS
10
171.446
20
-56.6251
11
171.447
21
-56.6296
0
LINE
8
BLACK
6
CONTINUOUS
10
171.447
20
-56.6296
11
171.448
21
-56.634
0
LINE
8
BLACK
6
CONTINUOUS
10
171.448
20
-56.634
11
171.5
21
-57.127
0
LINE
8
BLACK
6
CONTINUOUS
10
171.5
20
-57.127
11
171.5
21
-57.1277
0
LINE
8
BLACK
6
CONTINUOUS
10
171.5
20
-57.1277
11
171.5
21
-57.1299
0
LINE
8
BLACK
6
CONTINUOUS
10
171.5
20
-57.1299
11
171.5
21
-57.1321
0
LINE
8
BLACK
6
CONTINUOUS
10
171.5
20
-57.1321
11
171.5
21
-57.1475
0
LINE
8
BLACK
6
CONTINUOUS
10
171.5
20
-57.1475
11
171.5
21
-57.1476
0
LINE
8
BLACK
6
CONTINUOUS
10
171.5
20
-57.1476
11
171.5
21
-73.6624
0
LINE
8
BLACK
6
CONTINUOUS
10
171.5
20
-73.6624
11
171.5
21
-73.6649
0
LINE
8
BLACK
6
CONTINUOUS
10
171.5
20
-73.6649
11
171.5
21
-73.6649
0
LINE
8
BLACK
6
CONTINUOUS
10
171.5
20
-73.6649
11
171.451
21
-74.1582
0
LINE
8
BLACK
6
CONTINUOUS
10
171.451
20
-74.1582
11
171.451
21
-74.1582
0
LINE
8
BLACK
6
CONTINUOUS
10
171.451
20
-74.1582
11
171.451
21
-74.1582
0
LINE
8
BLACK
6
CONTINUOUS
10
171.451
20
-74.1582
11
171.451
21
-74.1589
0
LINE
8
BLACK
6
CONTINUOUS
10
171.451
20
-74.1589
11
171.45
21
-74.1633
0
LINE
8
BLACK
6
CONTINUOUS
10
171.45
20
-74.1633
11
171.449
21
-74.1678
0
LINE
8
BLACK
6
CONTINUOUS
10
171.449
20
-74.1678
11
171.306
21
-74.6424
0
LINE
8
BLACK
6
CONTINUOUS
10
171.306
20
-74.6424
11
171.306
21
-74.643
0
LINE
8
BLACK
6
CONTINUOUS
10
171.306
20
-74.643
11
171.304
21
-74.6472
0
LINE
8
BLACK
6
CONTINUOUS
10
171.304
20
-74.6472
11
171.302
21
-74.6514
0
LINE
8
BLACK
6
CONTINUOUS
10
171.302
20
-74.6514
11
171.07
21
-75.0891
0
LINE
8
BLACK
6
CONTINUOUS
10
171.07
20
-75.0891
11
171.069
21
-75.0897
0
LINE
8
BLACK
6
CONTINUOUS
10
171.069
20
-75.0897
11
171.067
21
-75.0935
0
LINE
8
BLACK
6
CONTINUOUS
10
171.067
20
-75.0935
11
171.064
21
-75.0972
0
LINE
8
BLACK
6
CONTINUOUS
10
171.064
20
-75.0972
11
170.751
21
-75.4814
0
LINE
8
BLACK
6
CONTINUOUS
10
170.751
20
-75.4814
11
170.751
21
-75.4814
0
LINE
8
BLACK
6
CONTINUOUS
10
170.751
20
-75.4814
11
170.751
21
-75.4814
0
LINE
8
BLACK
6
CONTINUOUS
10
170.751
20
-75.4814
11
170.751
21
-75.4819
0
LINE
8
BLACK
6
CONTINUOUS
10
170.751
20
-75.4819
11
170.747
21
-75.485
0
LINE
8
BLACK
6
CONTINUOUS
10
170.747
20
-75.485
11
170.744
21
-75.4883
0
LINE
8
BLACK
6
CONTINUOUS
10
170.744
20
-75.4883
11
170.362
21
-75.8043
0
LINE
8
BLACK
6
CONTINUOUS
10
170.362
20
-75.8043
11
170.362
21
-75.8043
0
LINE
8
BLACK
6
CONTINUOUS
10
170.362
20
-75.8043
11
170.362
21
-75.8043
0
LINE
8
BLACK
6
CONTINUOUS
10
170.362
20
-75.8043
11
170.362
21
-75.8047
0
LINE
8
BLACK
6
CONTINUOUS
10
170.362
20
-75.8047
11
170.358
21
-75.8072
0
LINE
8
BLACK
6
CONTINUOUS
10
170.358
20
-75.8072
11
170.354
21
-75.8097
0
LINE
8
BLACK
6
CONTINUOUS
10
170.354
20
-75.8097
11
169.918
21
-76.0455
0
LINE
8
BLACK
6
CONTINUOUS
10
169.918
20
-76.0455
11
169.918
21
-76.0455
0
LINE
8
BLACK
6
CONTINUOUS
10
169.918
20
-76.0455
11
169.918
21
-76.0455
0
LINE
8
BLACK
6
CONTINUOUS
10
169.918
20
-76.0455
11
169.917
21
-76.0458
0
LINE
8
BLACK
6
CONTINUOUS
10
169.917
20
-76.0458
11
169.913
21
-76.0475
0
LINE
8
BLACK
6
CONTINUOUS
10
169.913
20
-76.0475
11
169.909
21
-76.0493
0
LINE
8
BLACK
6
CONTINUOUS
10
169.909
20
-76.0493
11
169.436
21
-76.1959
0
LINE
8
BLACK
6
CONTINUOUS
10
169.436
20
-76.1959
11
169.436
21
-76.1959
0
LINE
8
BLACK
6
CONTINUOUS
10
169.436
20
-76.1959
11
169.435
21
-76.1961
0
LINE
8
BLACK
6
CONTINUOUS
10
147.32
20
-54.66
11
147.305
21
-54.6601
0
LINE
8
BLACK
6
CONTINUOUS
10
147.305
20
-54.6601
11
146.819
21
-54.7111
0
LINE
8
BLACK
6
CONTINUOUS
10
146.819
20
-54.7111
11
146.355
21
-54.8548
0
LINE
8
BLACK
6
CONTINUOUS
10
146.355
20
-54.8548
11
145.928
21
-55.0859
0
LINE
8
BLACK
6
CONTINUOUS
10
145.928
20
-55.0859
11
145.553
21
-55.3956
0
LINE
8
BLACK
6
CONTINUOUS
10
145.553
20
-55.3956
11
145.246
21
-55.7722
0
LINE
8
BLACK
6
CONTINUOUS
10
145.246
20
-55.7722
11
145.018
21
-56.2012
0
LINE
8
BLACK
6
CONTINUOUS
10
145.018
20
-56.2012
11
144.878
21
-56.6664
0
LINE
8
BLACK
6
CONTINUOUS
10
144.878
20
-56.6664
11
144.83
21
-57.1524
0
LINE
8
BLACK
6
CONTINUOUS
10
144.83
20
-57.1524
11
144.83
21
-73.6598
0
LINE
8
BLACK
6
CONTINUOUS
10
144.83
20
-73.6598
11
144.83
21
-73.675
0
LINE
8
BLACK
6
CONTINUOUS
10
144.83
20
-73.675
11
144.881
21
-74.1606
0
LINE
8
BLACK
6
CONTINUOUS
10
144.881
20
-74.1606
11
145.025
21
-74.6248
0
LINE
8
BLACK
6
CONTINUOUS
10
145.025
20
-74.6248
11
145.256
21
-75.0523
0
LINE
8
BLACK
6
CONTINUOUS
10
145.256
20
-75.0523
11
145.566
21
-75.4267
0
LINE
8
BLACK
6
CONTINUOUS
10
145.566
20
-75.4267
11
145.942
21
-75.7338
0
LINE
8
BLACK
6
CONTINUOUS
10
145.942
20
-75.7338
11
146.371
21
-75.9619
0
LINE
8
BLACK
6
CONTINUOUS
10
146.371
20
-75.9619
11
146.836
21
-76.1023
0
LINE
8
BLACK
6
CONTINUOUS
10
146.836
20
-76.1023
11
147.322
21
-76.15
0
LINE
8
BLACK
6
CONTINUOUS
10
147.322
20
-76.15
11
168.91
21
-76.15
0
LINE
8
BLACK
6
CONTINUOUS
10
168.91
20
-76.15
11
168.925
21
-76.1499
0
LINE
8
BLACK
6
CONTINUOUS
10
168.925
20
-76.1499
11
169.411
21
-76.0989
0
LINE
8
BLACK
6
CONTINUOUS
10
169.411
20
-76.0989
11
169.875
21
-75.9552
0
LINE
8
BLACK
6
CONTINUOUS
10
169.875
20
-75.9552
11
170.302
21
-75.7241
0
LINE
8
BLACK
6
CONTINUOUS
10
170.302
20
-75.7241
11
170.677
21
-75.4144
0
LINE
8
BLACK
6
CONTINUOUS
10
170.677
20
-75.4144
11
170.984
21
-75.0378
0
LINE
8
BLACK
6
CONTINUOUS
10
170.984
20
-75.0378
11
171.212
21
-74.6088
0
LINE
8
BLACK
6
CONTINUOUS
10
171.212
20
-74.6088
11
171.352
21
-74.1436
0
LINE
8
BLACK
6
CONTINUOUS
10
171.352
20
-74.1436
11
171.4
21
-73.6575
0
LINE
8
BLACK
6
CONTINUOUS
10
171.4
20
-73.6575
11
171.4
21
-57.1502
0
LINE
8
BLACK
6
CONTINUOUS
10
171.4
20
-57.1502
11
171.4
21
-57.135
0
LINE
8
BLACK
6
CONTINUOUS
10
171.4
20
-57.135
11
171.349
21
-56.6494
0
LINE
8
BLACK
6
CONTINUOUS
10
171.349
20
-56.6494
11
171.205
21
-56.1852
0
LINE
8
BLACK
6
CONTINUOUS
10
171.205
20
-56.1852
11
170.974
21
-55.7577
0
LINE
8
BLACK
6
CONTINUOUS
10
170.974
20
-55.7577
11
170.664
21
-55.3833
0
LINE
8
BLACK
6
CONTINUOUS
10
170.664
20
-55.3833
11
170.288
21
-55.0762
0
LINE
8
BLACK
6
CONTINUOUS
10
170.288
20
-55.0762
11
169.859
21
-54.8481
0
LINE
8
BLACK
6
CONTINUOUS
10
169.859
20
-54.8481
11
169.394
21
-54.7077
0
LINE
8
BLACK
6
CONTINUOUS
10
169.394
20
-54.7077
11
168.908
21
-54.66
0
LINE
8
BLACK
6
CONTINUOUS
10
168.908
20
-54.66
11
147.32
21
-54.66
  0
ENDSEC
  0
EOF
