  0
SECTION
  2
HEADER
  9
$ANGBASE
  50
0.0
  9
$ANGDIR
  70
1
  9
$MEASUREMENT
  70
1
  0
ENDSEC
  0
SECTION
  2
TABLES
  0
TABLE
  2
LTYPE
  70
4
  0
LTYPE
  5
40F
  2
CONTINUOUS
  70
0
  3
Solid line
  72
65
  73
0
  40
0.0
  0
LTYPE
  5
410
  2
DASHDOT
 70
0
  3
Dash Dot ____ _ ____ _
 72
65
 73
4
 40
2.0
 49
1.25
 49
-0.25
 49
0.25
 49
-0.25
  0
LTYPE
  5
411
  2
DASHED
 70
0
  3
Dashed __ __ __ __ __
 72
65
 73
2
 40
0.75
 49
0.5
 49
-0.25
  0
LTYPE
  5
43B
  2
DOTTED
 70
0
  3
Dotted .  .  .  .
 72
65
 73
2
 40
0.2
 49
0.0
 49
-0.2
  0
ENDTAB
  0
TABLE
  2
STYLE
  70
4
  0
STYLE
  2
KICAD
  70
0
  40
0
  41
1
  42
1
  50
0
  71
0
  3
isocp.shx
  0
STYLE
  2
KICADB
  70
0
  40
0
  41
1
  42
1
  50
0
  71
0
  3
isocp.shx
  0
STYLE
  2
KICADI
  70
0
  40
0
  41
1
  42
1
  50
15
  71
0
  3
isocp.shx
  0
STYLE
  2
KICADBI
  70
0
  40
0
  41
1
  42
1
  50
15
  71
0
  3
isocp.shx
  0
ENDTAB
  0
TABLE
  2
LAYER
  70
1
  0
LAYER
  2
BLACK
  70
0
  62
7
  6
CONTINUOUS
  0
ENDTAB
  0
ENDSEC
  0
SECTION
  2
ENTITIES
0
LINE
8
BLACK
6
CONTINUOUS
10
169.431
20
-72.2998
11
169.455
21
-72.3071
0
LINE
8
BLACK
6
CONTINUOUS
10
169.455
20
-72.3071
11
169.477
21
-72.3189
0
LINE
8
BLACK
6
CONTINUOUS
10
169.477
20
-72.3189
11
169.496
21
-72.3348
0
LINE
8
BLACK
6
CONTINUOUS
10
169.496
20
-72.3348
11
169.512
21
-72.3541
0
LINE
8
BLACK
6
CONTINUOUS
10
169.512
20
-72.3541
11
169.524
21
-72.3762
0
LINE
8
BLACK
6
CONTINUOUS
10
169.524
20
-72.3762
11
169.531
21
-72.4001
0
LINE
8
BLACK
6
CONTINUOUS
10
169.531
20
-72.4001
11
169.533
21
-72.4188
0
LINE
8
BLACK
6
CONTINUOUS
10
169.533
20
-72.4188
11
169.533
21
-74.5428
0
LINE
8
BLACK
6
CONTINUOUS
10
169.533
20
-74.5428
11
169.533
21
-74.549
0
LINE
8
BLACK
6
CONTINUOUS
10
169.533
20
-74.549
11
169.531
21
-74.5739
0
LINE
8
BLACK
6
CONTINUOUS
10
169.531
20
-74.5739
11
169.524
21
-74.5978
0
LINE
8
BLACK
6
CONTINUOUS
10
169.524
20
-74.5978
11
169.512
21
-74.6199
0
LINE
8
BLACK
6
CONTINUOUS
10
169.512
20
-74.6199
11
169.496
21
-74.6392
0
LINE
8
BLACK
6
CONTINUOUS
10
169.496
20
-74.6392
11
169.477
21
-74.6551
0
LINE
8
BLACK
6
CONTINUOUS
10
169.477
20
-74.6551
11
169.455
21
-74.6669
0
LINE
8
BLACK
6
CONTINUOUS
10
169.455
20
-74.6669
11
169.431
21
-74.6742
0
LINE
8
BLACK
6
CONTINUOUS
10
169.431
20
-74.6742
11
169.412
21
-74.676
0
LINE
8
BLACK
6
CONTINUOUS
10
169.412
20
-74.676
11
169.406
21
-74.6766
0
LINE
8
BLACK
6
CONTINUOUS
10
169.406
20
-74.6766
11
169.4
21
-74.676
0
LINE
8
BLACK
6
CONTINUOUS
10
169.4
20
-74.676
11
146.932
21
-74.676
0
LINE
8
BLACK
6
CONTINUOUS
10
146.932
20
-74.676
11
146.926
21
-74.6766
0
LINE
8
BLACK
6
CONTINUOUS
10
146.926
20
-74.6766
11
146.92
21
-74.676
0
LINE
8
BLACK
6
CONTINUOUS
10
146.92
20
-74.676
11
146.901
21
-74.6742
0
LINE
8
BLACK
6
CONTINUOUS
10
146.901
20
-74.6742
11
146.877
21
-74.6669
0
LINE
8
BLACK
6
CONTINUOUS
10
146.877
20
-74.6669
11
146.855
21
-74.6551
0
LINE
8
BLACK
6
CONTINUOUS
10
146.855
20
-74.6551
11
146.836
21
-74.6392
0
LINE
8
BLACK
6
CONTINUOUS
10
146.836
20
-74.6392
11
146.82
21
-74.6199
0
LINE
8
BLACK
6
CONTINUOUS
10
146.82
20
-74.6199
11
146.808
21
-74.5978
0
LINE
8
BLACK
6
CONTINUOUS
10
146.808
20
-74.5978
11
146.801
21
-74.5739
0
LINE
8
BLACK
6
CONTINUOUS
10
146.801
20
-74.5739
11
146.798
21
-74.549
0
LINE
8
BLACK
6
CONTINUOUS
10
146.798
20
-74.549
11
146.799
21
-74.5428
0
LINE
8
BLACK
6
CONTINUOUS
10
146.799
20
-74.5428
11
146.799
21
-72.4188
0
LINE
8
BLACK
6
CONTINUOUS
10
146.799
20
-72.4188
11
146.801
21
-72.4001
0
LINE
8
BLACK
6
CONTINUOUS
10
146.801
20
-72.4001
11
146.808
21
-72.3762
0
LINE
8
BLACK
6
CONTINUOUS
10
146.808
20
-72.3762
11
146.82
21
-72.3541
0
LINE
8
BLACK
6
CONTINUOUS
10
146.82
20
-72.3541
11
146.836
21
-72.3348
0
LINE
8
BLACK
6
CONTINUOUS
10
146.836
20
-72.3348
11
146.855
21
-72.3189
0
LINE
8
BLACK
6
CONTINUOUS
10
146.855
20
-72.3189
11
146.877
21
-72.3071
0
LINE
8
BLACK
6
CONTINUOUS
10
146.877
20
-72.3071
11
146.901
21
-72.2998
0
LINE
8
BLACK
6
CONTINUOUS
10
146.901
20
-72.2998
11
146.926
21
-72.2974
0
LINE
8
BLACK
6
CONTINUOUS
10
146.926
20
-72.2974
11
146.951
21
-72.2998
0
LINE
8
BLACK
6
CONTINUOUS
10
146.951
20
-72.2998
11
146.975
21
-72.3071
0
LINE
8
BLACK
6
CONTINUOUS
10
146.975
20
-72.3071
11
146.997
21
-72.3189
0
LINE
8
BLACK
6
CONTINUOUS
10
146.997
20
-72.3189
11
147.016
21
-72.3348
0
LINE
8
BLACK
6
CONTINUOUS
10
147.016
20
-72.3348
11
147.032
21
-72.3541
0
LINE
8
BLACK
6
CONTINUOUS
10
147.032
20
-72.3541
11
147.044
21
-72.3762
0
LINE
8
BLACK
6
CONTINUOUS
10
147.044
20
-72.3762
11
147.051
21
-72.4001
0
LINE
8
BLACK
6
CONTINUOUS
10
147.051
20
-72.4001
11
147.053
21
-72.4188
0
LINE
8
BLACK
6
CONTINUOUS
10
147.053
20
-72.4188
11
147.053
21
-74.422
0
LINE
8
BLACK
6
CONTINUOUS
10
147.053
20
-74.422
11
169.279
21
-74.422
0
LINE
8
BLACK
6
CONTINUOUS
10
169.279
20
-74.422
11
169.279
21
-72.4188
0
LINE
8
BLACK
6
CONTINUOUS
10
169.279
20
-72.4188
11
169.281
21
-72.4001
0
LINE
8
BLACK
6
CONTINUOUS
10
169.281
20
-72.4001
11
169.288
21
-72.3762
0
LINE
8
BLACK
6
CONTINUOUS
10
169.288
20
-72.3762
11
169.3
21
-72.3541
0
LINE
8
BLACK
6
CONTINUOUS
10
169.3
20
-72.3541
11
169.316
21
-72.3348
0
LINE
8
BLACK
6
CONTINUOUS
10
169.316
20
-72.3348
11
169.335
21
-72.3189
0
LINE
8
BLACK
6
CONTINUOUS
10
169.335
20
-72.3189
11
169.357
21
-72.3071
0
LINE
8
BLACK
6
CONTINUOUS
10
169.357
20
-72.3071
11
169.381
21
-72.2998
0
LINE
8
BLACK
6
CONTINUOUS
10
169.381
20
-72.2998
11
169.406
21
-72.2974
0
LINE
8
BLACK
6
CONTINUOUS
10
169.406
20
-72.2974
11
169.431
21
-72.2998
0
LINE
8
BLACK
6
CONTINUOUS
10
169.412
20
-67.437
11
169.431
21
-67.4388
0
LINE
8
BLACK
6
CONTINUOUS
10
169.431
20
-67.4388
11
169.455
21
-67.4461
0
LINE
8
BLACK
6
CONTINUOUS
10
169.455
20
-67.4461
11
169.477
21
-67.4579
0
LINE
8
BLACK
6
CONTINUOUS
10
169.477
20
-67.4579
11
169.496
21
-67.4738
0
LINE
8
BLACK
6
CONTINUOUS
10
169.496
20
-67.4738
11
169.512
21
-67.4931
0
LINE
8
BLACK
6
CONTINUOUS
10
169.512
20
-67.4931
11
169.524
21
-67.5152
0
LINE
8
BLACK
6
CONTINUOUS
10
169.524
20
-67.5152
11
169.531
21
-67.5391
0
LINE
8
BLACK
6
CONTINUOUS
10
169.531
20
-67.5391
11
169.533
21
-67.564
0
LINE
8
BLACK
6
CONTINUOUS
10
169.533
20
-67.564
11
169.533
21
-67.5702
0
LINE
8
BLACK
6
CONTINUOUS
10
169.533
20
-67.5702
11
169.533
21
-68.9692
0
LINE
8
BLACK
6
CONTINUOUS
10
169.533
20
-68.9692
11
169.531
21
-68.9879
0
LINE
8
BLACK
6
CONTINUOUS
10
169.531
20
-68.9879
11
169.524
21
-69.0118
0
LINE
8
BLACK
6
CONTINUOUS
10
169.524
20
-69.0118
11
169.512
21
-69.0339
0
LINE
8
BLACK
6
CONTINUOUS
10
169.512
20
-69.0339
11
169.496
21
-69.0532
0
LINE
8
BLACK
6
CONTINUOUS
10
169.496
20
-69.0532
11
169.477
21
-69.0691
0
LINE
8
BLACK
6
CONTINUOUS
10
169.477
20
-69.0691
11
169.455
21
-69.0809
0
LINE
8
BLACK
6
CONTINUOUS
10
169.455
20
-69.0809
11
169.431
21
-69.0882
0
LINE
8
BLACK
6
CONTINUOUS
10
169.431
20
-69.0882
11
169.406
21
-69.0906
0
LINE
8
BLACK
6
CONTINUOUS
10
169.406
20
-69.0906
11
169.381
21
-69.0882
0
LINE
8
BLACK
6
CONTINUOUS
10
169.381
20
-69.0882
11
169.357
21
-69.0809
0
LINE
8
BLACK
6
CONTINUOUS
10
169.357
20
-69.0809
11
169.335
21
-69.0691
0
LINE
8
BLACK
6
CONTINUOUS
10
169.335
20
-69.0691
11
169.316
21
-69.0532
0
LINE
8
BLACK
6
CONTINUOUS
10
169.316
20
-69.0532
11
169.3
21
-69.0339
0
LINE
8
BLACK
6
CONTINUOUS
10
169.3
20
-69.0339
11
169.288
21
-69.0118
0
LINE
8
BLACK
6
CONTINUOUS
10
169.288
20
-69.0118
11
169.281
21
-68.9879
0
LINE
8
BLACK
6
CONTINUOUS
10
169.281
20
-68.9879
11
169.279
21
-68.9692
0
LINE
8
BLACK
6
CONTINUOUS
10
169.279
20
-68.9692
11
169.279
21
-67.691
0
LINE
8
BLACK
6
CONTINUOUS
10
169.279
20
-67.691
11
167.191
21
-67.691
0
LINE
8
BLACK
6
CONTINUOUS
10
167.191
20
-67.691
11
167.172
21
-67.6892
0
LINE
8
BLACK
6
CONTINUOUS
10
167.172
20
-67.6892
11
167.148
21
-67.6819
0
LINE
8
BLACK
6
CONTINUOUS
10
167.148
20
-67.6819
11
167.126
21
-67.6701
0
LINE
8
BLACK
6
CONTINUOUS
10
167.126
20
-67.6701
11
167.107
21
-67.6542
0
LINE
8
BLACK
6
CONTINUOUS
10
167.107
20
-67.6542
11
167.091
21
-67.6349
0
LINE
8
BLACK
6
CONTINUOUS
10
167.091
20
-67.6349
11
167.079
21
-67.6128
0
LINE
8
BLACK
6
CONTINUOUS
10
167.079
20
-67.6128
11
167.072
21
-67.5889
0
LINE
8
BLACK
6
CONTINUOUS
10
167.072
20
-67.5889
11
167.069
21
-67.564
0
LINE
8
BLACK
6
CONTINUOUS
10
167.069
20
-67.564
11
167.072
21
-67.5391
0
LINE
8
BLACK
6
CONTINUOUS
10
167.072
20
-67.5391
11
167.079
21
-67.5152
0
LINE
8
BLACK
6
CONTINUOUS
10
167.079
20
-67.5152
11
167.091
21
-67.4931
0
LINE
8
BLACK
6
CONTINUOUS
10
167.091
20
-67.4931
11
167.107
21
-67.4738
0
LINE
8
BLACK
6
CONTINUOUS
10
167.107
20
-67.4738
11
167.126
21
-67.4579
0
LINE
8
BLACK
6
CONTINUOUS
10
167.126
20
-67.4579
11
167.148
21
-67.4461
0
LINE
8
BLACK
6
CONTINUOUS
10
167.148
20
-67.4461
11
167.172
21
-67.4388
0
LINE
8
BLACK
6
CONTINUOUS
10
167.172
20
-67.4388
11
167.191
21
-67.437
0
LINE
8
BLACK
6
CONTINUOUS
10
167.191
20
-67.437
11
169.4
21
-67.437
0
LINE
8
BLACK
6
CONTINUOUS
10
169.4
20
-67.437
11
169.406
21
-67.4364
0
LINE
8
BLACK
6
CONTINUOUS
10
169.406
20
-67.4364
11
169.412
21
-67.437
0
LINE
8
BLACK
6
CONTINUOUS
10
146.932
20
-67.437
11
149.141
21
-67.437
0
LINE
8
BLACK
6
CONTINUOUS
10
149.141
20
-67.437
11
149.16
21
-67.4388
0
LINE
8
BLACK
6
CONTINUOUS
10
149.16
20
-67.4388
11
149.184
21
-67.4461
0
LINE
8
BLACK
6
CONTINUOUS
10
149.184
20
-67.4461
11
149.206
21
-67.4579
0
LINE
8
BLACK
6
CONTINUOUS
10
149.206
20
-67.4579
11
149.225
21
-67.4738
0
LINE
8
BLACK
6
CONTINUOUS
10
149.225
20
-67.4738
11
149.241
21
-67.4931
0
LINE
8
BLACK
6
CONTINUOUS
10
149.241
20
-67.4931
11
149.253
21
-67.5152
0
LINE
8
BLACK
6
CONTINUOUS
10
149.253
20
-67.5152
11
149.26
21
-67.5391
0
LINE
8
BLACK
6
CONTINUOUS
10
149.26
20
-67.5391
11
149.262
21
-67.564
0
LINE
8
BLACK
6
CONTINUOUS
10
149.262
20
-67.564
11
149.26
21
-67.5889
0
LINE
8
BLACK
6
CONTINUOUS
10
149.26
20
-67.5889
11
149.253
21
-67.6128
0
LINE
8
BLACK
6
CONTINUOUS
10
149.253
20
-67.6128
11
149.241
21
-67.6349
0
LINE
8
BLACK
6
CONTINUOUS
10
149.241
20
-67.6349
11
149.225
21
-67.6542
0
LINE
8
BLACK
6
CONTINUOUS
10
149.225
20
-67.6542
11
149.206
21
-67.6701
0
LINE
8
BLACK
6
CONTINUOUS
10
149.206
20
-67.6701
11
149.184
21
-67.6819
0
LINE
8
BLACK
6
CONTINUOUS
10
149.184
20
-67.6819
11
149.16
21
-67.6892
0
LINE
8
BLACK
6
CONTINUOUS
10
149.16
20
-67.6892
11
149.141
21
-67.691
0
LINE
8
BLACK
6
CONTINUOUS
10
149.141
20
-67.691
11
147.406
21
-67.691
0
LINE
8
BLACK
6
CONTINUOUS
10
147.406
20
-67.691
11
147.436
21
-67.7034
0
LINE
8
BLACK
6
CONTINUOUS
10
147.436
20
-67.7034
11
147.481
21
-67.7332
0
LINE
8
BLACK
6
CONTINUOUS
10
147.481
20
-67.7332
11
147.519
21
-67.7712
0
LINE
8
BLACK
6
CONTINUOUS
10
147.519
20
-67.7712
11
147.548
21
-67.8158
0
LINE
8
BLACK
6
CONTINUOUS
10
147.548
20
-67.8158
11
147.569
21
-67.8655
0
LINE
8
BLACK
6
CONTINUOUS
10
147.569
20
-67.8655
11
147.579
21
-67.9181
0
LINE
8
BLACK
6
CONTINUOUS
10
147.579
20
-67.9181
11
147.579
21
-67.9719
0
LINE
8
BLACK
6
CONTINUOUS
10
147.579
20
-67.9719
11
147.569
21
-68.0245
0
LINE
8
BLACK
6
CONTINUOUS
10
147.569
20
-68.0245
11
147.548
21
-68.0742
0
LINE
8
BLACK
6
CONTINUOUS
10
147.548
20
-68.0742
11
147.519
21
-68.1188
0
LINE
8
BLACK
6
CONTINUOUS
10
147.519
20
-68.1188
11
147.481
21
-68.1568
0
LINE
8
BLACK
6
CONTINUOUS
10
147.481
20
-68.1568
11
147.436
21
-68.1866
0
LINE
8
BLACK
6
CONTINUOUS
10
147.436
20
-68.1866
11
147.386
21
-68.2072
0
LINE
8
BLACK
6
CONTINUOUS
10
147.386
20
-68.2072
11
147.334
21
-68.2177
0
LINE
8
BLACK
6
CONTINUOUS
10
147.334
20
-68.2177
11
147.28
21
-68.2177
0
LINE
8
BLACK
6
CONTINUOUS
10
147.28
20
-68.2177
11
147.227
21
-68.2072
0
LINE
8
BLACK
6
CONTINUOUS
10
147.227
20
-68.2072
11
147.178
21
-68.1866
0
LINE
8
BLACK
6
CONTINUOUS
10
147.178
20
-68.1866
11
147.133
21
-68.1568
0
LINE
8
BLACK
6
CONTINUOUS
10
147.133
20
-68.1568
11
147.095
21
-68.1188
0
LINE
8
BLACK
6
CONTINUOUS
10
147.095
20
-68.1188
11
147.065
21
-68.0742
0
LINE
8
BLACK
6
CONTINUOUS
10
147.065
20
-68.0742
11
147.053
21
-68.0443
0
LINE
8
BLACK
6
CONTINUOUS
10
147.053
20
-68.0443
11
147.053
21
-68.9692
0
LINE
8
BLACK
6
CONTINUOUS
10
147.053
20
-68.9692
11
147.051
21
-68.9879
0
LINE
8
BLACK
6
CONTINUOUS
10
147.051
20
-68.9879
11
147.044
21
-69.0118
0
LINE
8
BLACK
6
CONTINUOUS
10
147.044
20
-69.0118
11
147.032
21
-69.0339
0
LINE
8
BLACK
6
CONTINUOUS
10
147.032
20
-69.0339
11
147.016
21
-69.0532
0
LINE
8
BLACK
6
CONTINUOUS
10
147.016
20
-69.0532
11
146.997
21
-69.0691
0
LINE
8
BLACK
6
CONTINUOUS
10
146.997
20
-69.0691
11
146.975
21
-69.0809
0
LINE
8
BLACK
6
CONTINUOUS
10
146.975
20
-69.0809
11
146.951
21
-69.0882
0
LINE
8
BLACK
6
CONTINUOUS
10
146.951
20
-69.0882
11
146.926
21
-69.0906
0
LINE
8
BLACK
6
CONTINUOUS
10
146.926
20
-69.0906
11
146.901
21
-69.0882
0
LINE
8
BLACK
6
CONTINUOUS
10
146.901
20
-69.0882
11
146.877
21
-69.0809
0
LINE
8
BLACK
6
CONTINUOUS
10
146.877
20
-69.0809
11
146.855
21
-69.0691
0
LINE
8
BLACK
6
CONTINUOUS
10
146.855
20
-69.0691
11
146.836
21
-69.0532
0
LINE
8
BLACK
6
CONTINUOUS
10
146.836
20
-69.0532
11
146.82
21
-69.0339
0
LINE
8
BLACK
6
CONTINUOUS
10
146.82
20
-69.0339
11
146.808
21
-69.0118
0
LINE
8
BLACK
6
CONTINUOUS
10
146.808
20
-69.0118
11
146.801
21
-68.9879
0
LINE
8
BLACK
6
CONTINUOUS
10
146.801
20
-68.9879
11
146.799
21
-68.9692
0
LINE
8
BLACK
6
CONTINUOUS
10
146.799
20
-68.9692
11
146.799
21
-67.5702
0
LINE
8
BLACK
6
CONTINUOUS
10
146.799
20
-67.5702
11
146.798
21
-67.564
0
LINE
8
BLACK
6
CONTINUOUS
10
146.798
20
-67.564
11
146.801
21
-67.5391
0
LINE
8
BLACK
6
CONTINUOUS
10
146.801
20
-67.5391
11
146.808
21
-67.5152
0
LINE
8
BLACK
6
CONTINUOUS
10
146.808
20
-67.5152
11
146.82
21
-67.4931
0
LINE
8
BLACK
6
CONTINUOUS
10
146.82
20
-67.4931
11
146.836
21
-67.4738
0
LINE
8
BLACK
6
CONTINUOUS
10
146.836
20
-67.4738
11
146.855
21
-67.4579
0
LINE
8
BLACK
6
CONTINUOUS
10
146.855
20
-67.4579
11
146.877
21
-67.4461
0
LINE
8
BLACK
6
CONTINUOUS
10
146.877
20
-67.4461
11
146.901
21
-67.4388
0
LINE
8
BLACK
6
CONTINUOUS
10
146.901
20
-67.4388
11
146.92
21
-67.437
0
LINE
8
BLACK
6
CONTINUOUS
10
146.92
20
-67.437
11
146.926
21
-67.4364
0
LINE
8
BLACK
6
CONTINUOUS
10
146.926
20
-67.4364
11
146.932
21
-67.437
0
LINE
8
BLACK
6
CONTINUOUS
10
147.053
20
-67.691
11
147.053
21
-67.8457
0
LINE
8
BLACK
6
CONTINUOUS
10
147.053
20
-67.8457
11
147.065
21
-67.8158
0
LINE
8
BLACK
6
CONTINUOUS
10
147.065
20
-67.8158
11
147.095
21
-67.7712
0
LINE
8
BLACK
6
CONTINUOUS
10
147.095
20
-67.7712
11
147.133
21
-67.7332
0
LINE
8
BLACK
6
CONTINUOUS
10
147.133
20
-67.7332
11
147.178
21
-67.7034
0
LINE
8
BLACK
6
CONTINUOUS
10
147.178
20
-67.7034
11
147.207
21
-67.691
0
LINE
8
BLACK
6
CONTINUOUS
10
147.207
20
-67.691
11
147.053
21
-67.691
0
LINE
8
BLACK
6
CONTINUOUS
10
146.954
20
-62.1028
11
146.978
21
-62.1101
0
LINE
8
BLACK
6
CONTINUOUS
10
146.978
20
-62.1101
11
147
21
-62.1219
0
LINE
8
BLACK
6
CONTINUOUS
10
147
20
-62.1219
11
147.019
21
-62.1378
0
LINE
8
BLACK
6
CONTINUOUS
10
147.019
20
-62.1378
11
147.035
21
-62.1571
0
LINE
8
BLACK
6
CONTINUOUS
10
147.035
20
-62.1571
11
147.047
21
-62.1792
0
LINE
8
BLACK
6
CONTINUOUS
10
147.047
20
-62.1792
11
147.054
21
-62.2031
0
LINE
8
BLACK
6
CONTINUOUS
10
147.054
20
-62.2031
11
147.056
21
-62.2218
0
LINE
8
BLACK
6
CONTINUOUS
10
147.056
20
-62.2218
11
147.056
21
-63.5
0
LINE
8
BLACK
6
CONTINUOUS
10
147.056
20
-63.5
11
149.144
21
-63.5
0
LINE
8
BLACK
6
CONTINUOUS
10
149.144
20
-63.5
11
149.163
21
-63.5018
0
LINE
8
BLACK
6
CONTINUOUS
10
149.163
20
-63.5018
11
149.187
21
-63.5091
0
LINE
8
BLACK
6
CONTINUOUS
10
149.187
20
-63.5091
11
149.209
21
-63.5209
0
LINE
8
BLACK
6
CONTINUOUS
10
149.209
20
-63.5209
11
149.228
21
-63.5368
0
LINE
8
BLACK
6
CONTINUOUS
10
149.228
20
-63.5368
11
149.244
21
-63.5561
0
LINE
8
BLACK
6
CONTINUOUS
10
149.244
20
-63.5561
11
149.256
21
-63.5782
0
LINE
8
BLACK
6
CONTINUOUS
10
149.256
20
-63.5782
11
149.263
21
-63.6021
0
LINE
8
BLACK
6
CONTINUOUS
10
149.263
20
-63.6021
11
149.266
21
-63.627
0
LINE
8
BLACK
6
CONTINUOUS
10
149.266
20
-63.627
11
149.263
21
-63.6519
0
LINE
8
BLACK
6
CONTINUOUS
10
149.263
20
-63.6519
11
149.256
21
-63.6758
0
LINE
8
BLACK
6
CONTINUOUS
10
149.256
20
-63.6758
11
149.244
21
-63.6979
0
LINE
8
BLACK
6
CONTINUOUS
10
149.244
20
-63.6979
11
149.228
21
-63.7172
0
LINE
8
BLACK
6
CONTINUOUS
10
149.228
20
-63.7172
11
149.209
21
-63.7331
0
LINE
8
BLACK
6
CONTINUOUS
10
149.209
20
-63.7331
11
149.187
21
-63.7449
0
LINE
8
BLACK
6
CONTINUOUS
10
149.187
20
-63.7449
11
149.163
21
-63.7522
0
LINE
8
BLACK
6
CONTINUOUS
10
149.163
20
-63.7522
11
149.144
21
-63.754
0
LINE
8
BLACK
6
CONTINUOUS
10
149.144
20
-63.754
11
146.935
21
-63.754
0
LINE
8
BLACK
6
CONTINUOUS
10
146.935
20
-63.754
11
146.929
21
-63.7546
0
LINE
8
BLACK
6
CONTINUOUS
10
146.929
20
-63.7546
11
146.923
21
-63.754
0
LINE
8
BLACK
6
CONTINUOUS
10
146.923
20
-63.754
11
146.904
21
-63.7522
0
LINE
8
BLACK
6
CONTINUOUS
10
146.904
20
-63.7522
11
146.88
21
-63.7449
0
LINE
8
BLACK
6
CONTINUOUS
10
146.88
20
-63.7449
11
146.858
21
-63.7331
0
LINE
8
BLACK
6
CONTINUOUS
10
146.858
20
-63.7331
11
146.839
21
-63.7172
0
LINE
8
BLACK
6
CONTINUOUS
10
146.839
20
-63.7172
11
146.823
21
-63.6979
0
LINE
8
BLACK
6
CONTINUOUS
10
146.823
20
-63.6979
11
146.811
21
-63.6758
0
LINE
8
BLACK
6
CONTINUOUS
10
146.811
20
-63.6758
11
146.804
21
-63.6519
0
LINE
8
BLACK
6
CONTINUOUS
10
146.804
20
-63.6519
11
146.801
21
-63.627
0
LINE
8
BLACK
6
CONTINUOUS
10
146.801
20
-63.627
11
146.802
21
-63.6208
0
LINE
8
BLACK
6
CONTINUOUS
10
146.802
20
-63.6208
11
146.802
21
-62.2218
0
LINE
8
BLACK
6
CONTINUOUS
10
146.802
20
-62.2218
11
146.804
21
-62.2031
0
LINE
8
BLACK
6
CONTINUOUS
10
146.804
20
-62.2031
11
146.811
21
-62.1792
0
LINE
8
BLACK
6
CONTINUOUS
10
146.811
20
-62.1792
11
146.823
21
-62.1571
0
LINE
8
BLACK
6
CONTINUOUS
10
146.823
20
-62.1571
11
146.839
21
-62.1378
0
LINE
8
BLACK
6
CONTINUOUS
10
146.839
20
-62.1378
11
146.858
21
-62.1219
0
LINE
8
BLACK
6
CONTINUOUS
10
146.858
20
-62.1219
11
146.88
21
-62.1101
0
LINE
8
BLACK
6
CONTINUOUS
10
146.88
20
-62.1101
11
146.904
21
-62.1028
0
LINE
8
BLACK
6
CONTINUOUS
10
146.904
20
-62.1028
11
146.929
21
-62.1004
0
LINE
8
BLACK
6
CONTINUOUS
10
146.929
20
-62.1004
11
146.954
21
-62.1028
0
LINE
8
BLACK
6
CONTINUOUS
10
169.434
20
-62.1028
11
169.458
21
-62.1101
0
LINE
8
BLACK
6
CONTINUOUS
10
169.458
20
-62.1101
11
169.48
21
-62.1219
0
LINE
8
BLACK
6
CONTINUOUS
10
169.48
20
-62.1219
11
169.499
21
-62.1378
0
LINE
8
BLACK
6
CONTINUOUS
10
169.499
20
-62.1378
11
169.515
21
-62.1571
0
LINE
8
BLACK
6
CONTINUOUS
10
169.515
20
-62.1571
11
169.527
21
-62.1792
0
LINE
8
BLACK
6
CONTINUOUS
10
169.527
20
-62.1792
11
169.534
21
-62.2031
0
LINE
8
BLACK
6
CONTINUOUS
10
169.534
20
-62.2031
11
169.536
21
-62.2218
0
LINE
8
BLACK
6
CONTINUOUS
10
169.536
20
-62.2218
11
169.536
21
-63.6208
0
LINE
8
BLACK
6
CONTINUOUS
10
169.536
20
-63.6208
11
169.537
21
-63.627
0
LINE
8
BLACK
6
CONTINUOUS
10
169.537
20
-63.627
11
169.534
21
-63.6519
0
LINE
8
BLACK
6
CONTINUOUS
10
169.534
20
-63.6519
11
169.527
21
-63.6758
0
LINE
8
BLACK
6
CONTINUOUS
10
169.527
20
-63.6758
11
169.515
21
-63.6979
0
LINE
8
BLACK
6
CONTINUOUS
10
169.515
20
-63.6979
11
169.499
21
-63.7172
0
LINE
8
BLACK
6
CONTINUOUS
10
169.499
20
-63.7172
11
169.48
21
-63.7331
0
LINE
8
BLACK
6
CONTINUOUS
10
169.48
20
-63.7331
11
169.458
21
-63.7449
0
LINE
8
BLACK
6
CONTINUOUS
10
169.458
20
-63.7449
11
169.434
21
-63.7522
0
LINE
8
BLACK
6
CONTINUOUS
10
169.434
20
-63.7522
11
169.415
21
-63.754
0
LINE
8
BLACK
6
CONTINUOUS
10
169.415
20
-63.754
11
169.409
21
-63.7546
0
LINE
8
BLACK
6
CONTINUOUS
10
169.409
20
-63.7546
11
169.403
21
-63.754
0
LINE
8
BLACK
6
CONTINUOUS
10
169.403
20
-63.754
11
167.194
21
-63.754
0
LINE
8
BLACK
6
CONTINUOUS
10
167.194
20
-63.754
11
167.175
21
-63.7522
0
LINE
8
BLACK
6
CONTINUOUS
10
167.175
20
-63.7522
11
167.151
21
-63.7449
0
LINE
8
BLACK
6
CONTINUOUS
10
167.151
20
-63.7449
11
167.129
21
-63.7331
0
LINE
8
BLACK
6
CONTINUOUS
10
167.129
20
-63.7331
11
167.11
21
-63.7172
0
LINE
8
BLACK
6
CONTINUOUS
10
167.11
20
-63.7172
11
167.094
21
-63.6979
0
LINE
8
BLACK
6
CONTINUOUS
10
167.094
20
-63.6979
11
167.082
21
-63.6758
0
LINE
8
BLACK
6
CONTINUOUS
10
167.082
20
-63.6758
11
167.075
21
-63.6519
0
LINE
8
BLACK
6
CONTINUOUS
10
167.075
20
-63.6519
11
167.072
21
-63.627
0
LINE
8
BLACK
6
CONTINUOUS
10
167.072
20
-63.627
11
167.075
21
-63.6021
0
LINE
8
BLACK
6
CONTINUOUS
10
167.075
20
-63.6021
11
167.082
21
-63.5782
0
LINE
8
BLACK
6
CONTINUOUS
10
167.082
20
-63.5782
11
167.094
21
-63.5561
0
LINE
8
BLACK
6
CONTINUOUS
10
167.094
20
-63.5561
11
167.11
21
-63.5368
0
LINE
8
BLACK
6
CONTINUOUS
10
167.11
20
-63.5368
11
167.129
21
-63.5209
0
LINE
8
BLACK
6
CONTINUOUS
10
167.129
20
-63.5209
11
167.151
21
-63.5091
0
LINE
8
BLACK
6
CONTINUOUS
10
167.151
20
-63.5091
11
167.175
21
-63.5018
0
LINE
8
BLACK
6
CONTINUOUS
10
167.175
20
-63.5018
11
167.194
21
-63.5
0
LINE
8
BLACK
6
CONTINUOUS
10
167.194
20
-63.5
11
168.929
21
-63.5
0
LINE
8
BLACK
6
CONTINUOUS
10
168.929
20
-63.5
11
168.899
21
-63.4876
0
LINE
8
BLACK
6
CONTINUOUS
10
168.899
20
-63.4876
11
168.854
21
-63.4578
0
LINE
8
BLACK
6
CONTINUOUS
10
168.854
20
-63.4578
11
168.816
21
-63.4198
0
LINE
8
BLACK
6
CONTINUOUS
10
168.816
20
-63.4198
11
168.786
21
-63.3752
0
LINE
8
BLACK
6
CONTINUOUS
10
168.786
20
-63.3752
11
168.766
21
-63.3255
0
LINE
8
BLACK
6
CONTINUOUS
10
168.766
20
-63.3255
11
168.755
21
-63.2729
0
LINE
8
BLACK
6
CONTINUOUS
10
168.755
20
-63.2729
11
168.755
21
-63.2191
0
LINE
8
BLACK
6
CONTINUOUS
10
168.755
20
-63.2191
11
168.766
21
-63.1665
0
LINE
8
BLACK
6
CONTINUOUS
10
168.766
20
-63.1665
11
168.786
21
-63.1168
0
LINE
8
BLACK
6
CONTINUOUS
10
168.786
20
-63.1168
11
168.816
21
-63.0722
0
LINE
8
BLACK
6
CONTINUOUS
10
168.816
20
-63.0722
11
168.854
21
-63.0342
0
LINE
8
BLACK
6
CONTINUOUS
10
168.854
20
-63.0342
11
168.899
21
-63.0044
0
LINE
8
BLACK
6
CONTINUOUS
10
168.899
20
-63.0044
11
168.948
21
-62.9838
0
LINE
8
BLACK
6
CONTINUOUS
10
168.948
20
-62.9838
11
169.001
21
-62.9733
0
LINE
8
BLACK
6
CONTINUOUS
10
169.001
20
-62.9733
11
169.055
21
-62.9733
0
LINE
8
BLACK
6
CONTINUOUS
10
169.055
20
-62.9733
11
169.108
21
-62.9838
0
LINE
8
BLACK
6
CONTINUOUS
10
169.108
20
-62.9838
11
169.157
21
-63.0044
0
LINE
8
BLACK
6
CONTINUOUS
10
169.157
20
-63.0044
11
169.202
21
-63.0342
0
LINE
8
BLACK
6
CONTINUOUS
10
169.202
20
-63.0342
11
169.24
21
-63.0722
0
LINE
8
BLACK
6
CONTINUOUS
10
169.24
20
-63.0722
11
169.27
21
-63.1168
0
LINE
8
BLACK
6
CONTINUOUS
10
169.27
20
-63.1168
11
169.282
21
-63.1467
0
LINE
8
BLACK
6
CONTINUOUS
10
169.282
20
-63.1467
11
169.282
21
-62.2218
0
LINE
8
BLACK
6
CONTINUOUS
10
169.282
20
-62.2218
11
169.284
21
-62.2031
0
LINE
8
BLACK
6
CONTINUOUS
10
169.284
20
-62.2031
11
169.291
21
-62.1792
0
LINE
8
BLACK
6
CONTINUOUS
10
169.291
20
-62.1792
11
169.303
21
-62.1571
0
LINE
8
BLACK
6
CONTINUOUS
10
169.303
20
-62.1571
11
169.319
21
-62.1378
0
LINE
8
BLACK
6
CONTINUOUS
10
169.319
20
-62.1378
11
169.338
21
-62.1219
0
LINE
8
BLACK
6
CONTINUOUS
10
169.338
20
-62.1219
11
169.36
21
-62.1101
0
LINE
8
BLACK
6
CONTINUOUS
10
169.36
20
-62.1101
11
169.384
21
-62.1028
0
LINE
8
BLACK
6
CONTINUOUS
10
169.384
20
-62.1028
11
169.409
21
-62.1004
0
LINE
8
BLACK
6
CONTINUOUS
10
169.409
20
-62.1004
11
169.434
21
-62.1028
0
LINE
8
BLACK
6
CONTINUOUS
10
169.27
20
-63.3752
11
169.24
21
-63.4198
0
LINE
8
BLACK
6
CONTINUOUS
10
169.24
20
-63.4198
11
169.202
21
-63.4578
0
LINE
8
BLACK
6
CONTINUOUS
10
169.202
20
-63.4578
11
169.157
21
-63.4876
0
LINE
8
BLACK
6
CONTINUOUS
10
169.157
20
-63.4876
11
169.127
21
-63.5
0
LINE
8
BLACK
6
CONTINUOUS
10
169.127
20
-63.5
11
169.282
21
-63.5
0
LINE
8
BLACK
6
CONTINUOUS
10
169.282
20
-63.5
11
169.282
21
-63.3453
0
LINE
8
BLACK
6
CONTINUOUS
10
169.282
20
-63.3453
11
169.27
21
-63.3752
0
LINE
8
BLACK
6
CONTINUOUS
10
169.415
20
-56.515
11
169.434
21
-56.5168
0
LINE
8
BLACK
6
CONTINUOUS
10
169.434
20
-56.5168
11
169.458
21
-56.5241
0
LINE
8
BLACK
6
CONTINUOUS
10
169.458
20
-56.5241
11
169.48
21
-56.5359
0
LINE
8
BLACK
6
CONTINUOUS
10
169.48
20
-56.5359
11
169.499
21
-56.5518
0
LINE
8
BLACK
6
CONTINUOUS
10
169.499
20
-56.5518
11
169.515
21
-56.5711
0
LINE
8
BLACK
6
CONTINUOUS
10
169.515
20
-56.5711
11
169.527
21
-56.5932
0
LINE
8
BLACK
6
CONTINUOUS
10
169.527
20
-56.5932
11
169.534
21
-56.6171
0
LINE
8
BLACK
6
CONTINUOUS
10
169.534
20
-56.6171
11
169.537
21
-56.642
0
LINE
8
BLACK
6
CONTINUOUS
10
169.537
20
-56.642
11
169.536
21
-56.6482
0
LINE
8
BLACK
6
CONTINUOUS
10
169.536
20
-56.6482
11
169.536
21
-58.7722
0
LINE
8
BLACK
6
CONTINUOUS
10
169.536
20
-58.7722
11
169.534
21
-58.7909
0
LINE
8
BLACK
6
CONTINUOUS
10
169.534
20
-58.7909
11
169.527
21
-58.8148
0
LINE
8
BLACK
6
CONTINUOUS
10
169.527
20
-58.8148
11
169.515
21
-58.8369
0
LINE
8
BLACK
6
CONTINUOUS
10
169.515
20
-58.8369
11
169.499
21
-58.8562
0
LINE
8
BLACK
6
CONTINUOUS
10
169.499
20
-58.8562
11
169.48
21
-58.8721
0
LINE
8
BLACK
6
CONTINUOUS
10
169.48
20
-58.8721
11
169.458
21
-58.8839
0
LINE
8
BLACK
6
CONTINUOUS
10
169.458
20
-58.8839
11
169.434
21
-58.8912
0
LINE
8
BLACK
6
CONTINUOUS
10
169.434
20
-58.8912
11
169.409
21
-58.8936
0
LINE
8
BLACK
6
CONTINUOUS
10
169.409
20
-58.8936
11
169.384
21
-58.8912
0
LINE
8
BLACK
6
CONTINUOUS
10
169.384
20
-58.8912
11
169.36
21
-58.8839
0
LINE
8
BLACK
6
CONTINUOUS
10
169.36
20
-58.8839
11
169.338
21
-58.8721
0
LINE
8
BLACK
6
CONTINUOUS
10
169.338
20
-58.8721
11
169.319
21
-58.8562
0
LINE
8
BLACK
6
CONTINUOUS
10
169.319
20
-58.8562
11
169.303
21
-58.8369
0
LINE
8
BLACK
6
CONTINUOUS
10
169.303
20
-58.8369
11
169.291
21
-58.8148
0
LINE
8
BLACK
6
CONTINUOUS
10
169.291
20
-58.8148
11
169.284
21
-58.7909
0
LINE
8
BLACK
6
CONTINUOUS
10
169.284
20
-58.7909
11
169.282
21
-58.7722
0
LINE
8
BLACK
6
CONTINUOUS
10
169.282
20
-58.7722
11
169.282
21
-56.769
0
LINE
8
BLACK
6
CONTINUOUS
10
169.282
20
-56.769
11
147.056
21
-56.769
0
LINE
8
BLACK
6
CONTINUOUS
10
147.056
20
-56.769
11
147.056
21
-58.7722
0
LINE
8
BLACK
6
CONTINUOUS
10
147.056
20
-58.7722
11
147.054
21
-58.7909
0
LINE
8
BLACK
6
CONTINUOUS
10
147.054
20
-58.7909
11
147.047
21
-58.8148
0
LINE
8
BLACK
6
CONTINUOUS
10
147.047
20
-58.8148
11
147.035
21
-58.8369
0
LINE
8
BLACK
6
CONTINUOUS
10
147.035
20
-58.8369
11
147.019
21
-58.8562
0
LINE
8
BLACK
6
CONTINUOUS
10
147.019
20
-58.8562
11
147
21
-58.8721
0
LINE
8
BLACK
6
CONTINUOUS
10
147
20
-58.8721
11
146.978
21
-58.8839
0
LINE
8
BLACK
6
CONTINUOUS
10
146.978
20
-58.8839
11
146.954
21
-58.8912
0
LINE
8
BLACK
6
CONTINUOUS
10
146.954
20
-58.8912
11
146.929
21
-58.8936
0
LINE
8
BLACK
6
CONTINUOUS
10
146.929
20
-58.8936
11
146.904
21
-58.8912
0
LINE
8
BLACK
6
CONTINUOUS
10
146.904
20
-58.8912
11
146.88
21
-58.8839
0
LINE
8
BLACK
6
CONTINUOUS
10
146.88
20
-58.8839
11
146.858
21
-58.8721
0
LINE
8
BLACK
6
CONTINUOUS
10
146.858
20
-58.8721
11
146.839
21
-58.8562
0
LINE
8
BLACK
6
CONTINUOUS
10
146.839
20
-58.8562
11
146.823
21
-58.8369
0
LINE
8
BLACK
6
CONTINUOUS
10
146.823
20
-58.8369
11
146.811
21
-58.8148
0
LINE
8
BLACK
6
CONTINUOUS
10
146.811
20
-58.8148
11
146.804
21
-58.7909
0
LINE
8
BLACK
6
CONTINUOUS
10
146.804
20
-58.7909
11
146.802
21
-58.7722
0
LINE
8
BLACK
6
CONTINUOUS
10
146.802
20
-58.7722
11
146.802
21
-56.6482
0
LINE
8
BLACK
6
CONTINUOUS
10
146.802
20
-56.6482
11
146.801
21
-56.642
0
LINE
8
BLACK
6
CONTINUOUS
10
146.801
20
-56.642
11
146.804
21
-56.6171
0
LINE
8
BLACK
6
CONTINUOUS
10
146.804
20
-56.6171
11
146.811
21
-56.5932
0
LINE
8
BLACK
6
CONTINUOUS
10
146.811
20
-56.5932
11
146.823
21
-56.5711
0
LINE
8
BLACK
6
CONTINUOUS
10
146.823
20
-56.5711
11
146.839
21
-56.5518
0
LINE
8
BLACK
6
CONTINUOUS
10
146.839
20
-56.5518
11
146.858
21
-56.5359
0
LINE
8
BLACK
6
CONTINUOUS
10
146.858
20
-56.5359
11
146.88
21
-56.5241
0
LINE
8
BLACK
6
CONTINUOUS
10
146.88
20
-56.5241
11
146.904
21
-56.5168
0
LINE
8
BLACK
6
CONTINUOUS
10
146.904
20
-56.5168
11
146.923
21
-56.515
0
LINE
8
BLACK
6
CONTINUOUS
10
146.923
20
-56.515
11
146.929
21
-56.5144
0
LINE
8
BLACK
6
CONTINUOUS
10
146.929
20
-56.5144
11
146.935
21
-56.515
0
LINE
8
BLACK
6
CONTINUOUS
10
146.935
20
-56.515
11
169.403
21
-56.515
0
LINE
8
BLACK
6
CONTINUOUS
10
169.403
20
-56.515
11
169.409
21
-56.5144
0
LINE
8
BLACK
6
CONTINUOUS
10
169.409
20
-56.5144
11
169.415
21
-56.515
  0
ENDSEC
  0
EOF
