M48
; DRILL file {KiCad (5.1.12)-1} date 01/29/22 13:41:38
; FORMAT={-:-/ absolute / inch / decimal}
; #@! TF.CreationDate,2022-01-29T13:41:38+00:00
; #@! TF.GenerationSoftware,Kicad,Pcbnew,(5.1.12)-1
; #@! TF.FileFunction,Plated,1,2,PTH
FMAT,2
INCH
T1C0.0157
T2C0.0315
T3C0.0394
%
G90
G05
T1
X2.955Y-2.935
X2.955Y-3.01
X2.975Y-2.725
X2.975Y-3.305
X3.01Y-2.935
X3.01Y-3.01
X3.17Y-3.28
X3.185Y-2.755
X3.21Y-3.22
X3.25Y-3.175
X3.29Y-3.115
X3.325Y-3.06
X3.335Y-3.25
X3.495Y-3.25
X3.605Y-3.25
X3.635Y-2.77
X3.76Y-2.81
X3.76Y-2.94
X3.795Y-2.875
X3.84Y-2.94
X3.84Y-3.005
X3.895Y-2.94
X3.895Y-3.005
X3.97Y-2.78
X3.995Y-3.01
X4.105Y-3.01
X4.215Y-3.01
X4.315Y-3.01
X4.325Y-3.3
X4.425Y-3.3
X4.485Y-3.01
X4.525Y-3.3
X4.625Y-3.3
X4.725Y-3.3
X4.875Y-3.25
X5.475Y-3.25
X6.19Y-2.685
X6.375Y-2.55
X6.375Y-2.65
X6.375Y-2.975
X6.375Y-3.175
T2
X4.075Y-2.775
X4.075Y-2.89
X4.075Y-3.375
X4.075Y-3.49
X4.175Y-2.775
X4.175Y-2.89
X4.175Y-3.375
X4.175Y-3.49
X4.275Y-2.775
X4.275Y-2.89
X4.275Y-3.375
X4.275Y-3.49
X4.375Y-2.775
X4.375Y-2.89
X4.375Y-3.375
X4.375Y-3.49
X4.475Y-2.775
X4.475Y-2.89
X4.475Y-3.375
X4.475Y-3.49
X4.575Y-2.775
X4.575Y-2.89
X4.575Y-3.375
X4.575Y-3.49
X4.675Y-2.775
X4.675Y-2.89
X4.675Y-3.375
X4.675Y-3.49
X4.775Y-2.775
X4.775Y-2.89
X4.775Y-3.375
X4.775Y-3.49
X4.875Y-2.775
X4.875Y-2.89
X4.875Y-3.375
X4.875Y-3.49
X4.975Y-2.775
X4.975Y-2.89
X4.975Y-3.375
X4.975Y-3.49
X5.075Y-2.775
X5.075Y-2.89
X5.075Y-3.375
X5.075Y-3.49
X5.175Y-2.775
X5.175Y-2.89
X5.175Y-3.375
X5.175Y-3.49
X5.275Y-2.775
X5.275Y-2.89
X5.275Y-3.375
X5.275Y-3.49
X5.375Y-2.775
X5.375Y-2.89
X5.375Y-3.375
X5.375Y-3.49
X5.475Y-2.775
X5.475Y-2.89
X5.475Y-3.375
X5.475Y-3.49
X5.575Y-2.775
X5.575Y-2.89
X5.575Y-3.375
X5.575Y-3.49
X5.675Y-2.775
X5.675Y-2.89
X5.675Y-3.375
X5.675Y-3.49
X5.775Y-2.775
X5.775Y-2.89
X5.775Y-3.375
X5.775Y-3.49
X5.875Y-2.775
X5.875Y-2.89
X5.875Y-3.375
X5.875Y-3.49
X5.975Y-2.775
X5.975Y-2.89
X5.975Y-3.375
X5.975Y-3.49
X6.075Y-2.775
X6.075Y-2.89
X6.075Y-3.375
X6.075Y-3.49
X6.175Y-2.775
X6.175Y-2.89
X6.175Y-3.375
X6.175Y-3.49
X6.275Y-2.775
X6.275Y-2.89
X6.275Y-3.375
X6.275Y-3.49
X6.375Y-2.775
X6.375Y-2.89
X6.375Y-3.375
X6.375Y-3.49
T3
X6.285Y-2.55
X6.285Y-2.65
T0
M30
