G04 #@! TF.GenerationSoftware,KiCad,Pcbnew,(5.1.12)-1*
G04 #@! TF.CreationDate,2022-01-29T13:41:41+00:00*
G04 #@! TF.ProjectId,RGBtoHDMI CDTV v2 - Denise Breakout,52474274-6f48-4444-9d49-204344545620,v2*
G04 #@! TF.SameCoordinates,Original*
G04 #@! TF.FileFunction,Copper,L2,Bot*
G04 #@! TF.FilePolarity,Positive*
%FSLAX46Y46*%
G04 Gerber Fmt 4.6, Leading zero omitted, Abs format (unit mm)*
G04 Created by KiCad (PCBNEW (5.1.12)-1) date 2022-01-29 13:41:42*
%MOMM*%
%LPD*%
G01*
G04 APERTURE LIST*
G04 #@! TA.AperFunction,ComponentPad*
%ADD10O,1.600000X1.600000*%
G04 #@! TD*
G04 #@! TA.AperFunction,ComponentPad*
%ADD11R,1.600000X1.600000*%
G04 #@! TD*
G04 #@! TA.AperFunction,ComponentPad*
%ADD12O,1.600000X2.400000*%
G04 #@! TD*
G04 #@! TA.AperFunction,ComponentPad*
%ADD13R,1.600000X2.400000*%
G04 #@! TD*
G04 #@! TA.AperFunction,ComponentPad*
%ADD14O,1.700000X1.700000*%
G04 #@! TD*
G04 #@! TA.AperFunction,ComponentPad*
%ADD15R,1.700000X1.700000*%
G04 #@! TD*
G04 #@! TA.AperFunction,ViaPad*
%ADD16C,0.800000*%
G04 #@! TD*
G04 #@! TA.AperFunction,Conductor*
%ADD17C,0.250000*%
G04 #@! TD*
G04 #@! TA.AperFunction,Conductor*
%ADD18C,0.254000*%
G04 #@! TD*
G04 #@! TA.AperFunction,Conductor*
%ADD19C,0.100000*%
G04 #@! TD*
G04 APERTURE END LIST*
D10*
X103505000Y-88646000D03*
X106045000Y-88646000D03*
X108585000Y-88646000D03*
X111125000Y-88646000D03*
X113665000Y-88646000D03*
X116205000Y-88646000D03*
X118745000Y-88646000D03*
X121285000Y-88646000D03*
X123825000Y-88646000D03*
X126365000Y-88646000D03*
X128905000Y-88646000D03*
X131445000Y-88646000D03*
X133985000Y-88646000D03*
X136525000Y-88646000D03*
X139065000Y-88646000D03*
X141605000Y-88646000D03*
X144145000Y-88646000D03*
X146685000Y-88646000D03*
X149225000Y-88646000D03*
X151765000Y-88646000D03*
X154305000Y-88646000D03*
X156845000Y-88646000D03*
X159385000Y-88646000D03*
D11*
X161925000Y-88646000D03*
D10*
X103505000Y-73406000D03*
X106045000Y-73406000D03*
X108585000Y-73406000D03*
X111125000Y-73406000D03*
X113665000Y-73406000D03*
X116205000Y-73406000D03*
X118745000Y-73406000D03*
X121285000Y-73406000D03*
X123825000Y-73406000D03*
X126365000Y-73406000D03*
X128905000Y-73406000D03*
X131445000Y-73406000D03*
X133985000Y-73406000D03*
X136525000Y-73406000D03*
X139065000Y-73406000D03*
X141605000Y-73406000D03*
X144145000Y-73406000D03*
X146685000Y-73406000D03*
X149225000Y-73406000D03*
X151765000Y-73406000D03*
X154305000Y-73406000D03*
X156845000Y-73406000D03*
X159385000Y-73406000D03*
D11*
X161925000Y-73406000D03*
D12*
X161925000Y-85725000D03*
X103505000Y-70485000D03*
X159385000Y-85725000D03*
X106045000Y-70485000D03*
X156845000Y-85725000D03*
X108585000Y-70485000D03*
X154305000Y-85725000D03*
X111125000Y-70485000D03*
X151765000Y-85725000D03*
X113665000Y-70485000D03*
X149225000Y-85725000D03*
X116205000Y-70485000D03*
X146685000Y-85725000D03*
X118745000Y-70485000D03*
X144145000Y-85725000D03*
X121285000Y-70485000D03*
X141605000Y-85725000D03*
X123825000Y-70485000D03*
X139065000Y-85725000D03*
X126365000Y-70485000D03*
X136525000Y-85725000D03*
X128905000Y-70485000D03*
X133985000Y-85725000D03*
X131445000Y-70485000D03*
X131445000Y-85725000D03*
X133985000Y-70485000D03*
X128905000Y-85725000D03*
X136525000Y-70485000D03*
X126365000Y-85725000D03*
X139065000Y-70485000D03*
X123825000Y-85725000D03*
X141605000Y-70485000D03*
X121285000Y-85725000D03*
X144145000Y-70485000D03*
X118745000Y-85725000D03*
X146685000Y-70485000D03*
X116205000Y-85725000D03*
X149225000Y-70485000D03*
X113665000Y-85725000D03*
X151765000Y-70485000D03*
X111125000Y-85725000D03*
X154305000Y-70485000D03*
X108585000Y-85725000D03*
X156845000Y-70485000D03*
X106045000Y-85725000D03*
X159385000Y-70485000D03*
X103505000Y-85725000D03*
D13*
X161925000Y-70485000D03*
D14*
X159639000Y-67310000D03*
D15*
X159639000Y-64770000D03*
D16*
X97536000Y-76327000D03*
X98933000Y-76327000D03*
X98933000Y-74676000D03*
X97536000Y-74676000D03*
X75057000Y-76454000D03*
X76454000Y-76454000D03*
X76454000Y-74549000D03*
X75057000Y-74549000D03*
X95504000Y-74676000D03*
X95504000Y-71374000D03*
X96393000Y-73025000D03*
X92329000Y-70358000D03*
X80899000Y-69977000D03*
X100838000Y-70612000D03*
X161925000Y-64770000D03*
X161925000Y-67310000D03*
X161925000Y-75565000D03*
X161925000Y-80645000D03*
X113919000Y-76454000D03*
X75565000Y-83947000D03*
X75565000Y-69215000D03*
X123825000Y-82550000D03*
X139065000Y-82550000D03*
X157226000Y-68199000D03*
X120015000Y-83820000D03*
X117475000Y-83820000D03*
X114935000Y-83820000D03*
X112395000Y-83820000D03*
X109855000Y-83820000D03*
X88773000Y-82550000D03*
X84709000Y-82550000D03*
X91567000Y-82550000D03*
X109601000Y-76454000D03*
X107061000Y-76454000D03*
X104267000Y-76454000D03*
X101473000Y-76454000D03*
X84455000Y-77724000D03*
X83566000Y-79121000D03*
X82550004Y-80645000D03*
X81534000Y-81788000D03*
X80518006Y-83312000D03*
D17*
X103505000Y-73025000D02*
X98806000Y-77724000D01*
X98806000Y-77724000D02*
X84455000Y-77724000D01*
X106045000Y-73279000D02*
X100203000Y-79121000D01*
X100203000Y-79121000D02*
X83566000Y-79121000D01*
X108585000Y-73406000D02*
X101346000Y-80645000D01*
X101346000Y-80645000D02*
X82550004Y-80645000D01*
X111125000Y-73533000D02*
X102870000Y-81788000D01*
X102870000Y-81788000D02*
X81534000Y-81788000D01*
X103886000Y-83312000D02*
X80518006Y-83312000D01*
X113665000Y-73533000D02*
X103886000Y-83312000D01*
D18*
X158406157Y-63980274D02*
X158406157Y-65620000D01*
X158413513Y-65694689D01*
X158435299Y-65766508D01*
X158470678Y-65832696D01*
X158518289Y-65890711D01*
X158576304Y-65938322D01*
X158642492Y-65973701D01*
X158714311Y-65995487D01*
X158789000Y-66002843D01*
X160489000Y-66002843D01*
X160563689Y-65995487D01*
X160635508Y-65973701D01*
X160701696Y-65938322D01*
X160759711Y-65890711D01*
X160807322Y-65832696D01*
X160842701Y-65766508D01*
X160864487Y-65694689D01*
X160871843Y-65620000D01*
X160871843Y-63980705D01*
X162536437Y-63980996D01*
X162688135Y-63995870D01*
X162811388Y-64033082D01*
X162925068Y-64093526D01*
X163024841Y-64174899D01*
X163106911Y-64274105D01*
X163168147Y-64387357D01*
X163206220Y-64510352D01*
X163222000Y-64660492D01*
X163222001Y-76692154D01*
X163157316Y-76712673D01*
X163117245Y-76729847D01*
X163076937Y-76746461D01*
X163071035Y-76749653D01*
X163071032Y-76749654D01*
X163071029Y-76749656D01*
X162897268Y-76845183D01*
X162861307Y-76869807D01*
X162824989Y-76893936D01*
X162819814Y-76898217D01*
X162667916Y-77025674D01*
X162637415Y-77056820D01*
X162606480Y-77087540D01*
X162602235Y-77092745D01*
X162477986Y-77247279D01*
X162454114Y-77283759D01*
X162429736Y-77319902D01*
X162426583Y-77325832D01*
X162334717Y-77501555D01*
X162318401Y-77541939D01*
X162301492Y-77582164D01*
X162299551Y-77588594D01*
X162243566Y-77778815D01*
X162235398Y-77821632D01*
X162226631Y-77864344D01*
X162225976Y-77871028D01*
X162208005Y-78068500D01*
X162208309Y-78112094D01*
X162208005Y-78155688D01*
X162208660Y-78162372D01*
X162229387Y-78359573D01*
X162238148Y-78402254D01*
X162246322Y-78445100D01*
X162248263Y-78451529D01*
X162306898Y-78640951D01*
X162323786Y-78681127D01*
X162340123Y-78721562D01*
X162343276Y-78727492D01*
X162437587Y-78901915D01*
X162461968Y-78938061D01*
X162485837Y-78974536D01*
X162490081Y-78979741D01*
X162616475Y-79132525D01*
X162647410Y-79163245D01*
X162677911Y-79194391D01*
X162683085Y-79198672D01*
X162836747Y-79323996D01*
X162873047Y-79348113D01*
X162909030Y-79372751D01*
X162914937Y-79375945D01*
X163090015Y-79469036D01*
X163130323Y-79485650D01*
X163170394Y-79502824D01*
X163176810Y-79504810D01*
X163222000Y-79518453D01*
X163222001Y-88876470D01*
X163207130Y-89028135D01*
X163169918Y-89151388D01*
X163109474Y-89265067D01*
X163107843Y-89267067D01*
X163107843Y-87846000D01*
X163100487Y-87771311D01*
X163078701Y-87699492D01*
X163043322Y-87633304D01*
X162995711Y-87575289D01*
X162937696Y-87527678D01*
X162871508Y-87492299D01*
X162799689Y-87470513D01*
X162725000Y-87463157D01*
X161125000Y-87463157D01*
X161050311Y-87470513D01*
X160978492Y-87492299D01*
X160912304Y-87527678D01*
X160854289Y-87575289D01*
X160806678Y-87633304D01*
X160771299Y-87699492D01*
X160749513Y-87771311D01*
X160742157Y-87846000D01*
X160742157Y-89446000D01*
X160749513Y-89520689D01*
X160762045Y-89562000D01*
X160139185Y-89562000D01*
X160302342Y-89398843D01*
X160431588Y-89205413D01*
X160520614Y-88990485D01*
X160566000Y-88762318D01*
X160566000Y-88529682D01*
X160520614Y-88301515D01*
X160431588Y-88086587D01*
X160302342Y-87893157D01*
X160137843Y-87728658D01*
X159944413Y-87599412D01*
X159729485Y-87510386D01*
X159501318Y-87465000D01*
X159268682Y-87465000D01*
X159040515Y-87510386D01*
X158825587Y-87599412D01*
X158632157Y-87728658D01*
X158467658Y-87893157D01*
X158338412Y-88086587D01*
X158249386Y-88301515D01*
X158204000Y-88529682D01*
X158204000Y-88762318D01*
X158249386Y-88990485D01*
X158338412Y-89205413D01*
X158467658Y-89398843D01*
X158630815Y-89562000D01*
X157599185Y-89562000D01*
X157762342Y-89398843D01*
X157891588Y-89205413D01*
X157980614Y-88990485D01*
X158026000Y-88762318D01*
X158026000Y-88529682D01*
X157980614Y-88301515D01*
X157891588Y-88086587D01*
X157762342Y-87893157D01*
X157597843Y-87728658D01*
X157404413Y-87599412D01*
X157189485Y-87510386D01*
X156961318Y-87465000D01*
X156728682Y-87465000D01*
X156500515Y-87510386D01*
X156285587Y-87599412D01*
X156092157Y-87728658D01*
X155927658Y-87893157D01*
X155798412Y-88086587D01*
X155709386Y-88301515D01*
X155664000Y-88529682D01*
X155664000Y-88762318D01*
X155709386Y-88990485D01*
X155798412Y-89205413D01*
X155927658Y-89398843D01*
X156090815Y-89562000D01*
X155059185Y-89562000D01*
X155222342Y-89398843D01*
X155351588Y-89205413D01*
X155440614Y-88990485D01*
X155486000Y-88762318D01*
X155486000Y-88529682D01*
X155440614Y-88301515D01*
X155351588Y-88086587D01*
X155222342Y-87893157D01*
X155057843Y-87728658D01*
X154864413Y-87599412D01*
X154649485Y-87510386D01*
X154421318Y-87465000D01*
X154188682Y-87465000D01*
X153960515Y-87510386D01*
X153745587Y-87599412D01*
X153552157Y-87728658D01*
X153387658Y-87893157D01*
X153258412Y-88086587D01*
X153169386Y-88301515D01*
X153124000Y-88529682D01*
X153124000Y-88762318D01*
X153169386Y-88990485D01*
X153258412Y-89205413D01*
X153387658Y-89398843D01*
X153550815Y-89562000D01*
X152519185Y-89562000D01*
X152682342Y-89398843D01*
X152811588Y-89205413D01*
X152900614Y-88990485D01*
X152946000Y-88762318D01*
X152946000Y-88529682D01*
X152900614Y-88301515D01*
X152811588Y-88086587D01*
X152682342Y-87893157D01*
X152517843Y-87728658D01*
X152324413Y-87599412D01*
X152109485Y-87510386D01*
X151881318Y-87465000D01*
X151648682Y-87465000D01*
X151420515Y-87510386D01*
X151205587Y-87599412D01*
X151012157Y-87728658D01*
X150847658Y-87893157D01*
X150718412Y-88086587D01*
X150629386Y-88301515D01*
X150584000Y-88529682D01*
X150584000Y-88762318D01*
X150629386Y-88990485D01*
X150718412Y-89205413D01*
X150847658Y-89398843D01*
X151010815Y-89562000D01*
X149979185Y-89562000D01*
X150142342Y-89398843D01*
X150271588Y-89205413D01*
X150360614Y-88990485D01*
X150406000Y-88762318D01*
X150406000Y-88529682D01*
X150360614Y-88301515D01*
X150271588Y-88086587D01*
X150142342Y-87893157D01*
X149977843Y-87728658D01*
X149784413Y-87599412D01*
X149569485Y-87510386D01*
X149341318Y-87465000D01*
X149108682Y-87465000D01*
X148880515Y-87510386D01*
X148665587Y-87599412D01*
X148472157Y-87728658D01*
X148307658Y-87893157D01*
X148178412Y-88086587D01*
X148089386Y-88301515D01*
X148044000Y-88529682D01*
X148044000Y-88762318D01*
X148089386Y-88990485D01*
X148178412Y-89205413D01*
X148307658Y-89398843D01*
X148470815Y-89562000D01*
X147439185Y-89562000D01*
X147602342Y-89398843D01*
X147731588Y-89205413D01*
X147820614Y-88990485D01*
X147866000Y-88762318D01*
X147866000Y-88529682D01*
X147820614Y-88301515D01*
X147731588Y-88086587D01*
X147602342Y-87893157D01*
X147437843Y-87728658D01*
X147244413Y-87599412D01*
X147029485Y-87510386D01*
X146801318Y-87465000D01*
X146568682Y-87465000D01*
X146340515Y-87510386D01*
X146125587Y-87599412D01*
X145932157Y-87728658D01*
X145767658Y-87893157D01*
X145638412Y-88086587D01*
X145549386Y-88301515D01*
X145504000Y-88529682D01*
X145504000Y-88762318D01*
X145549386Y-88990485D01*
X145638412Y-89205413D01*
X145767658Y-89398843D01*
X145930815Y-89562000D01*
X144899185Y-89562000D01*
X145062342Y-89398843D01*
X145191588Y-89205413D01*
X145280614Y-88990485D01*
X145326000Y-88762318D01*
X145326000Y-88529682D01*
X145280614Y-88301515D01*
X145191588Y-88086587D01*
X145062342Y-87893157D01*
X144897843Y-87728658D01*
X144704413Y-87599412D01*
X144489485Y-87510386D01*
X144261318Y-87465000D01*
X144028682Y-87465000D01*
X143800515Y-87510386D01*
X143585587Y-87599412D01*
X143392157Y-87728658D01*
X143227658Y-87893157D01*
X143098412Y-88086587D01*
X143009386Y-88301515D01*
X142964000Y-88529682D01*
X142964000Y-88762318D01*
X143009386Y-88990485D01*
X143098412Y-89205413D01*
X143227658Y-89398843D01*
X143390815Y-89562000D01*
X142359185Y-89562000D01*
X142522342Y-89398843D01*
X142651588Y-89205413D01*
X142740614Y-88990485D01*
X142786000Y-88762318D01*
X142786000Y-88529682D01*
X142740614Y-88301515D01*
X142651588Y-88086587D01*
X142522342Y-87893157D01*
X142357843Y-87728658D01*
X142164413Y-87599412D01*
X141949485Y-87510386D01*
X141721318Y-87465000D01*
X141488682Y-87465000D01*
X141260515Y-87510386D01*
X141045587Y-87599412D01*
X140852157Y-87728658D01*
X140687658Y-87893157D01*
X140558412Y-88086587D01*
X140469386Y-88301515D01*
X140424000Y-88529682D01*
X140424000Y-88762318D01*
X140469386Y-88990485D01*
X140558412Y-89205413D01*
X140687658Y-89398843D01*
X140850815Y-89562000D01*
X139819185Y-89562000D01*
X139982342Y-89398843D01*
X140111588Y-89205413D01*
X140200614Y-88990485D01*
X140246000Y-88762318D01*
X140246000Y-88529682D01*
X140200614Y-88301515D01*
X140111588Y-88086587D01*
X139982342Y-87893157D01*
X139817843Y-87728658D01*
X139624413Y-87599412D01*
X139409485Y-87510386D01*
X139181318Y-87465000D01*
X138948682Y-87465000D01*
X138720515Y-87510386D01*
X138505587Y-87599412D01*
X138312157Y-87728658D01*
X138147658Y-87893157D01*
X138018412Y-88086587D01*
X137929386Y-88301515D01*
X137884000Y-88529682D01*
X137884000Y-88762318D01*
X137929386Y-88990485D01*
X138018412Y-89205413D01*
X138147658Y-89398843D01*
X138310815Y-89562000D01*
X137279185Y-89562000D01*
X137442342Y-89398843D01*
X137571588Y-89205413D01*
X137660614Y-88990485D01*
X137706000Y-88762318D01*
X137706000Y-88529682D01*
X137660614Y-88301515D01*
X137571588Y-88086587D01*
X137442342Y-87893157D01*
X137277843Y-87728658D01*
X137084413Y-87599412D01*
X136869485Y-87510386D01*
X136641318Y-87465000D01*
X136408682Y-87465000D01*
X136180515Y-87510386D01*
X135965587Y-87599412D01*
X135772157Y-87728658D01*
X135607658Y-87893157D01*
X135478412Y-88086587D01*
X135389386Y-88301515D01*
X135344000Y-88529682D01*
X135344000Y-88762318D01*
X135389386Y-88990485D01*
X135478412Y-89205413D01*
X135607658Y-89398843D01*
X135770815Y-89562000D01*
X134724878Y-89562000D01*
X134761003Y-89536278D01*
X134919777Y-89367781D01*
X135042628Y-89171546D01*
X135124835Y-88955115D01*
X135063908Y-88773000D01*
X134112000Y-88773000D01*
X134112000Y-88793000D01*
X133858000Y-88793000D01*
X133858000Y-88773000D01*
X132906092Y-88773000D01*
X132845165Y-88955115D01*
X132927372Y-89171546D01*
X133050223Y-89367781D01*
X133208997Y-89536278D01*
X133245122Y-89562000D01*
X132199185Y-89562000D01*
X132362342Y-89398843D01*
X132491588Y-89205413D01*
X132580614Y-88990485D01*
X132626000Y-88762318D01*
X132626000Y-88529682D01*
X132587650Y-88336885D01*
X132845165Y-88336885D01*
X132906092Y-88519000D01*
X133858000Y-88519000D01*
X133858000Y-87567703D01*
X134112000Y-87567703D01*
X134112000Y-88519000D01*
X135063908Y-88519000D01*
X135124835Y-88336885D01*
X135042628Y-88120454D01*
X134919777Y-87924219D01*
X134761003Y-87755722D01*
X134572408Y-87621438D01*
X134361239Y-87526527D01*
X134294114Y-87506171D01*
X134112000Y-87567703D01*
X133858000Y-87567703D01*
X133675886Y-87506171D01*
X133608761Y-87526527D01*
X133397592Y-87621438D01*
X133208997Y-87755722D01*
X133050223Y-87924219D01*
X132927372Y-88120454D01*
X132845165Y-88336885D01*
X132587650Y-88336885D01*
X132580614Y-88301515D01*
X132491588Y-88086587D01*
X132362342Y-87893157D01*
X132197843Y-87728658D01*
X132004413Y-87599412D01*
X131789485Y-87510386D01*
X131561318Y-87465000D01*
X131328682Y-87465000D01*
X131100515Y-87510386D01*
X130885587Y-87599412D01*
X130692157Y-87728658D01*
X130527658Y-87893157D01*
X130398412Y-88086587D01*
X130309386Y-88301515D01*
X130264000Y-88529682D01*
X130264000Y-88762318D01*
X130309386Y-88990485D01*
X130398412Y-89205413D01*
X130527658Y-89398843D01*
X130690815Y-89562000D01*
X129659185Y-89562000D01*
X129822342Y-89398843D01*
X129951588Y-89205413D01*
X130040614Y-88990485D01*
X130086000Y-88762318D01*
X130086000Y-88529682D01*
X130040614Y-88301515D01*
X129951588Y-88086587D01*
X129822342Y-87893157D01*
X129657843Y-87728658D01*
X129464413Y-87599412D01*
X129249485Y-87510386D01*
X129021318Y-87465000D01*
X128788682Y-87465000D01*
X128560515Y-87510386D01*
X128345587Y-87599412D01*
X128152157Y-87728658D01*
X127987658Y-87893157D01*
X127858412Y-88086587D01*
X127769386Y-88301515D01*
X127724000Y-88529682D01*
X127724000Y-88762318D01*
X127769386Y-88990485D01*
X127858412Y-89205413D01*
X127987658Y-89398843D01*
X128150815Y-89562000D01*
X127119185Y-89562000D01*
X127282342Y-89398843D01*
X127411588Y-89205413D01*
X127500614Y-88990485D01*
X127546000Y-88762318D01*
X127546000Y-88529682D01*
X127500614Y-88301515D01*
X127411588Y-88086587D01*
X127282342Y-87893157D01*
X127117843Y-87728658D01*
X126924413Y-87599412D01*
X126709485Y-87510386D01*
X126481318Y-87465000D01*
X126248682Y-87465000D01*
X126020515Y-87510386D01*
X125805587Y-87599412D01*
X125612157Y-87728658D01*
X125447658Y-87893157D01*
X125318412Y-88086587D01*
X125229386Y-88301515D01*
X125184000Y-88529682D01*
X125184000Y-88762318D01*
X125229386Y-88990485D01*
X125318412Y-89205413D01*
X125447658Y-89398843D01*
X125610815Y-89562000D01*
X124579185Y-89562000D01*
X124742342Y-89398843D01*
X124871588Y-89205413D01*
X124960614Y-88990485D01*
X125006000Y-88762318D01*
X125006000Y-88529682D01*
X124960614Y-88301515D01*
X124871588Y-88086587D01*
X124742342Y-87893157D01*
X124577843Y-87728658D01*
X124384413Y-87599412D01*
X124169485Y-87510386D01*
X123941318Y-87465000D01*
X123708682Y-87465000D01*
X123480515Y-87510386D01*
X123265587Y-87599412D01*
X123072157Y-87728658D01*
X122907658Y-87893157D01*
X122778412Y-88086587D01*
X122689386Y-88301515D01*
X122644000Y-88529682D01*
X122644000Y-88762318D01*
X122689386Y-88990485D01*
X122778412Y-89205413D01*
X122907658Y-89398843D01*
X123070815Y-89562000D01*
X122039185Y-89562000D01*
X122202342Y-89398843D01*
X122331588Y-89205413D01*
X122420614Y-88990485D01*
X122466000Y-88762318D01*
X122466000Y-88529682D01*
X122420614Y-88301515D01*
X122331588Y-88086587D01*
X122202342Y-87893157D01*
X122037843Y-87728658D01*
X121844413Y-87599412D01*
X121629485Y-87510386D01*
X121401318Y-87465000D01*
X121168682Y-87465000D01*
X120940515Y-87510386D01*
X120725587Y-87599412D01*
X120532157Y-87728658D01*
X120367658Y-87893157D01*
X120238412Y-88086587D01*
X120149386Y-88301515D01*
X120104000Y-88529682D01*
X120104000Y-88762318D01*
X120149386Y-88990485D01*
X120238412Y-89205413D01*
X120367658Y-89398843D01*
X120530815Y-89562000D01*
X119499185Y-89562000D01*
X119662342Y-89398843D01*
X119791588Y-89205413D01*
X119880614Y-88990485D01*
X119926000Y-88762318D01*
X119926000Y-88529682D01*
X119880614Y-88301515D01*
X119791588Y-88086587D01*
X119662342Y-87893157D01*
X119497843Y-87728658D01*
X119304413Y-87599412D01*
X119089485Y-87510386D01*
X118861318Y-87465000D01*
X118628682Y-87465000D01*
X118400515Y-87510386D01*
X118185587Y-87599412D01*
X117992157Y-87728658D01*
X117827658Y-87893157D01*
X117698412Y-88086587D01*
X117609386Y-88301515D01*
X117564000Y-88529682D01*
X117564000Y-88762318D01*
X117609386Y-88990485D01*
X117698412Y-89205413D01*
X117827658Y-89398843D01*
X117990815Y-89562000D01*
X116959185Y-89562000D01*
X117122342Y-89398843D01*
X117251588Y-89205413D01*
X117340614Y-88990485D01*
X117386000Y-88762318D01*
X117386000Y-88529682D01*
X117340614Y-88301515D01*
X117251588Y-88086587D01*
X117122342Y-87893157D01*
X116957843Y-87728658D01*
X116764413Y-87599412D01*
X116549485Y-87510386D01*
X116321318Y-87465000D01*
X116088682Y-87465000D01*
X115860515Y-87510386D01*
X115645587Y-87599412D01*
X115452157Y-87728658D01*
X115287658Y-87893157D01*
X115158412Y-88086587D01*
X115069386Y-88301515D01*
X115024000Y-88529682D01*
X115024000Y-88762318D01*
X115069386Y-88990485D01*
X115158412Y-89205413D01*
X115287658Y-89398843D01*
X115450815Y-89562000D01*
X114419185Y-89562000D01*
X114582342Y-89398843D01*
X114711588Y-89205413D01*
X114800614Y-88990485D01*
X114846000Y-88762318D01*
X114846000Y-88529682D01*
X114800614Y-88301515D01*
X114711588Y-88086587D01*
X114582342Y-87893157D01*
X114417843Y-87728658D01*
X114224413Y-87599412D01*
X114009485Y-87510386D01*
X113781318Y-87465000D01*
X113548682Y-87465000D01*
X113320515Y-87510386D01*
X113105587Y-87599412D01*
X112912157Y-87728658D01*
X112747658Y-87893157D01*
X112618412Y-88086587D01*
X112529386Y-88301515D01*
X112484000Y-88529682D01*
X112484000Y-88762318D01*
X112529386Y-88990485D01*
X112618412Y-89205413D01*
X112747658Y-89398843D01*
X112910815Y-89562000D01*
X111879185Y-89562000D01*
X112042342Y-89398843D01*
X112171588Y-89205413D01*
X112260614Y-88990485D01*
X112306000Y-88762318D01*
X112306000Y-88529682D01*
X112260614Y-88301515D01*
X112171588Y-88086587D01*
X112042342Y-87893157D01*
X111877843Y-87728658D01*
X111684413Y-87599412D01*
X111469485Y-87510386D01*
X111241318Y-87465000D01*
X111008682Y-87465000D01*
X110780515Y-87510386D01*
X110565587Y-87599412D01*
X110372157Y-87728658D01*
X110207658Y-87893157D01*
X110078412Y-88086587D01*
X109989386Y-88301515D01*
X109944000Y-88529682D01*
X109944000Y-88762318D01*
X109989386Y-88990485D01*
X110078412Y-89205413D01*
X110207658Y-89398843D01*
X110370815Y-89562000D01*
X109339185Y-89562000D01*
X109502342Y-89398843D01*
X109631588Y-89205413D01*
X109720614Y-88990485D01*
X109766000Y-88762318D01*
X109766000Y-88529682D01*
X109720614Y-88301515D01*
X109631588Y-88086587D01*
X109502342Y-87893157D01*
X109337843Y-87728658D01*
X109144413Y-87599412D01*
X108929485Y-87510386D01*
X108701318Y-87465000D01*
X108468682Y-87465000D01*
X108240515Y-87510386D01*
X108025587Y-87599412D01*
X107832157Y-87728658D01*
X107667658Y-87893157D01*
X107538412Y-88086587D01*
X107449386Y-88301515D01*
X107404000Y-88529682D01*
X107404000Y-88762318D01*
X107449386Y-88990485D01*
X107538412Y-89205413D01*
X107667658Y-89398843D01*
X107830815Y-89562000D01*
X106799185Y-89562000D01*
X106962342Y-89398843D01*
X107091588Y-89205413D01*
X107180614Y-88990485D01*
X107226000Y-88762318D01*
X107226000Y-88529682D01*
X107180614Y-88301515D01*
X107091588Y-88086587D01*
X106962342Y-87893157D01*
X106797843Y-87728658D01*
X106604413Y-87599412D01*
X106389485Y-87510386D01*
X106161318Y-87465000D01*
X105928682Y-87465000D01*
X105700515Y-87510386D01*
X105485587Y-87599412D01*
X105292157Y-87728658D01*
X105127658Y-87893157D01*
X104998412Y-88086587D01*
X104909386Y-88301515D01*
X104864000Y-88529682D01*
X104864000Y-88762318D01*
X104909386Y-88990485D01*
X104998412Y-89205413D01*
X105127658Y-89398843D01*
X105290815Y-89562000D01*
X104259185Y-89562000D01*
X104422342Y-89398843D01*
X104551588Y-89205413D01*
X104640614Y-88990485D01*
X104686000Y-88762318D01*
X104686000Y-88529682D01*
X104640614Y-88301515D01*
X104551588Y-88086587D01*
X104422342Y-87893157D01*
X104257843Y-87728658D01*
X104064413Y-87599412D01*
X103849485Y-87510386D01*
X103621318Y-87465000D01*
X103388682Y-87465000D01*
X103160515Y-87510386D01*
X102945587Y-87599412D01*
X102752157Y-87728658D01*
X102587658Y-87893157D01*
X102458412Y-88086587D01*
X102369386Y-88301515D01*
X102324000Y-88529682D01*
X102324000Y-88762318D01*
X102369386Y-88990485D01*
X102458412Y-89205413D01*
X102587658Y-89398843D01*
X102733385Y-89544570D01*
X102618612Y-89509918D01*
X102504933Y-89449474D01*
X102405155Y-89368097D01*
X102323090Y-89268897D01*
X102261852Y-89155640D01*
X102223780Y-89032648D01*
X102208000Y-88882508D01*
X102208000Y-86336374D01*
X102205943Y-86315486D01*
X102205992Y-86308427D01*
X102205337Y-86301743D01*
X102182020Y-86079891D01*
X102173254Y-86037186D01*
X102165085Y-85994361D01*
X102163144Y-85987932D01*
X102097179Y-85774834D01*
X102080292Y-85734662D01*
X102063954Y-85694224D01*
X102060801Y-85688294D01*
X101954701Y-85492067D01*
X101930321Y-85455923D01*
X101906452Y-85419447D01*
X101902207Y-85414243D01*
X101902206Y-85414241D01*
X101902202Y-85414237D01*
X101780385Y-85266984D01*
X102324000Y-85266984D01*
X102324000Y-86183015D01*
X102341088Y-86356515D01*
X102408619Y-86579135D01*
X102518283Y-86784302D01*
X102665866Y-86964134D01*
X102845697Y-87111717D01*
X103050864Y-87221381D01*
X103273484Y-87288912D01*
X103505000Y-87311714D01*
X103736515Y-87288912D01*
X103959135Y-87221381D01*
X104164302Y-87111717D01*
X104344134Y-86964134D01*
X104491717Y-86784303D01*
X104601381Y-86579136D01*
X104668912Y-86356516D01*
X104686000Y-86183016D01*
X104686000Y-85266985D01*
X104686000Y-85266984D01*
X104864000Y-85266984D01*
X104864000Y-86183015D01*
X104881088Y-86356515D01*
X104948619Y-86579135D01*
X105058283Y-86784302D01*
X105205866Y-86964134D01*
X105385697Y-87111717D01*
X105590864Y-87221381D01*
X105813484Y-87288912D01*
X106045000Y-87311714D01*
X106276515Y-87288912D01*
X106499135Y-87221381D01*
X106704302Y-87111717D01*
X106884134Y-86964134D01*
X107031717Y-86784303D01*
X107141381Y-86579136D01*
X107208912Y-86356516D01*
X107226000Y-86183016D01*
X107226000Y-85266985D01*
X107226000Y-85266984D01*
X107404000Y-85266984D01*
X107404000Y-86183015D01*
X107421088Y-86356515D01*
X107488619Y-86579135D01*
X107598283Y-86784302D01*
X107745866Y-86964134D01*
X107925697Y-87111717D01*
X108130864Y-87221381D01*
X108353484Y-87288912D01*
X108585000Y-87311714D01*
X108816515Y-87288912D01*
X109039135Y-87221381D01*
X109244302Y-87111717D01*
X109424134Y-86964134D01*
X109571717Y-86784303D01*
X109681381Y-86579136D01*
X109748912Y-86356516D01*
X109766000Y-86183016D01*
X109766000Y-85266985D01*
X109766000Y-85266984D01*
X109944000Y-85266984D01*
X109944000Y-86183015D01*
X109961088Y-86356515D01*
X110028619Y-86579135D01*
X110138283Y-86784302D01*
X110285866Y-86964134D01*
X110465697Y-87111717D01*
X110670864Y-87221381D01*
X110893484Y-87288912D01*
X111125000Y-87311714D01*
X111356515Y-87288912D01*
X111579135Y-87221381D01*
X111784302Y-87111717D01*
X111964134Y-86964134D01*
X112111717Y-86784303D01*
X112221381Y-86579136D01*
X112288912Y-86356516D01*
X112306000Y-86183016D01*
X112306000Y-85266985D01*
X112306000Y-85266984D01*
X112484000Y-85266984D01*
X112484000Y-86183015D01*
X112501088Y-86356515D01*
X112568619Y-86579135D01*
X112678283Y-86784302D01*
X112825866Y-86964134D01*
X113005697Y-87111717D01*
X113210864Y-87221381D01*
X113433484Y-87288912D01*
X113665000Y-87311714D01*
X113896515Y-87288912D01*
X114119135Y-87221381D01*
X114324302Y-87111717D01*
X114504134Y-86964134D01*
X114651717Y-86784303D01*
X114761381Y-86579136D01*
X114828912Y-86356516D01*
X114846000Y-86183016D01*
X114846000Y-85266985D01*
X114846000Y-85266984D01*
X115024000Y-85266984D01*
X115024000Y-86183015D01*
X115041088Y-86356515D01*
X115108619Y-86579135D01*
X115218283Y-86784302D01*
X115365866Y-86964134D01*
X115545697Y-87111717D01*
X115750864Y-87221381D01*
X115973484Y-87288912D01*
X116205000Y-87311714D01*
X116436515Y-87288912D01*
X116659135Y-87221381D01*
X116864302Y-87111717D01*
X117044134Y-86964134D01*
X117191717Y-86784303D01*
X117301381Y-86579136D01*
X117368912Y-86356516D01*
X117386000Y-86183016D01*
X117386000Y-85266985D01*
X117386000Y-85266984D01*
X117564000Y-85266984D01*
X117564000Y-86183015D01*
X117581088Y-86356515D01*
X117648619Y-86579135D01*
X117758283Y-86784302D01*
X117905866Y-86964134D01*
X118085697Y-87111717D01*
X118290864Y-87221381D01*
X118513484Y-87288912D01*
X118745000Y-87311714D01*
X118976515Y-87288912D01*
X119199135Y-87221381D01*
X119404302Y-87111717D01*
X119584134Y-86964134D01*
X119731717Y-86784303D01*
X119841381Y-86579136D01*
X119908912Y-86356516D01*
X119926000Y-86183016D01*
X119926000Y-85266985D01*
X119926000Y-85266984D01*
X120104000Y-85266984D01*
X120104000Y-86183015D01*
X120121088Y-86356515D01*
X120188619Y-86579135D01*
X120298283Y-86784302D01*
X120445866Y-86964134D01*
X120625697Y-87111717D01*
X120830864Y-87221381D01*
X121053484Y-87288912D01*
X121285000Y-87311714D01*
X121516515Y-87288912D01*
X121739135Y-87221381D01*
X121944302Y-87111717D01*
X122124134Y-86964134D01*
X122271717Y-86784303D01*
X122381381Y-86579136D01*
X122448912Y-86356516D01*
X122466000Y-86183016D01*
X122466000Y-85266985D01*
X122466000Y-85266984D01*
X122644000Y-85266984D01*
X122644000Y-86183015D01*
X122661088Y-86356515D01*
X122728619Y-86579135D01*
X122838283Y-86784302D01*
X122985866Y-86964134D01*
X123165697Y-87111717D01*
X123370864Y-87221381D01*
X123593484Y-87288912D01*
X123825000Y-87311714D01*
X124056515Y-87288912D01*
X124279135Y-87221381D01*
X124484302Y-87111717D01*
X124664134Y-86964134D01*
X124811717Y-86784303D01*
X124921381Y-86579136D01*
X124988912Y-86356516D01*
X125006000Y-86183016D01*
X125006000Y-85266985D01*
X125006000Y-85266984D01*
X125184000Y-85266984D01*
X125184000Y-86183015D01*
X125201088Y-86356515D01*
X125268619Y-86579135D01*
X125378283Y-86784302D01*
X125525866Y-86964134D01*
X125705697Y-87111717D01*
X125910864Y-87221381D01*
X126133484Y-87288912D01*
X126365000Y-87311714D01*
X126596515Y-87288912D01*
X126819135Y-87221381D01*
X127024302Y-87111717D01*
X127204134Y-86964134D01*
X127351717Y-86784303D01*
X127461381Y-86579136D01*
X127528912Y-86356516D01*
X127546000Y-86183016D01*
X127546000Y-85266985D01*
X127546000Y-85266984D01*
X127724000Y-85266984D01*
X127724000Y-86183015D01*
X127741088Y-86356515D01*
X127808619Y-86579135D01*
X127918283Y-86784302D01*
X128065866Y-86964134D01*
X128245697Y-87111717D01*
X128450864Y-87221381D01*
X128673484Y-87288912D01*
X128905000Y-87311714D01*
X129136515Y-87288912D01*
X129359135Y-87221381D01*
X129564302Y-87111717D01*
X129744134Y-86964134D01*
X129891717Y-86784303D01*
X130001381Y-86579136D01*
X130068912Y-86356516D01*
X130086000Y-86183016D01*
X130086000Y-85266985D01*
X130086000Y-85266984D01*
X130264000Y-85266984D01*
X130264000Y-86183015D01*
X130281088Y-86356515D01*
X130348619Y-86579135D01*
X130458283Y-86784302D01*
X130605866Y-86964134D01*
X130785697Y-87111717D01*
X130990864Y-87221381D01*
X131213484Y-87288912D01*
X131445000Y-87311714D01*
X131676515Y-87288912D01*
X131899135Y-87221381D01*
X132104302Y-87111717D01*
X132284134Y-86964134D01*
X132431717Y-86784303D01*
X132541381Y-86579136D01*
X132608912Y-86356516D01*
X132626000Y-86183016D01*
X132626000Y-85852000D01*
X132804000Y-85852000D01*
X132804000Y-86252000D01*
X132851469Y-86479961D01*
X132942499Y-86694281D01*
X133073592Y-86886724D01*
X133239709Y-87049895D01*
X133434468Y-87177522D01*
X133650383Y-87264702D01*
X133675886Y-87264829D01*
X133858000Y-87203297D01*
X133858000Y-85852000D01*
X134112000Y-85852000D01*
X134112000Y-87203297D01*
X134294114Y-87264829D01*
X134319617Y-87264702D01*
X134535532Y-87177522D01*
X134730291Y-87049895D01*
X134896408Y-86886724D01*
X135027501Y-86694281D01*
X135118531Y-86479961D01*
X135166000Y-86252000D01*
X135166000Y-85852000D01*
X134112000Y-85852000D01*
X133858000Y-85852000D01*
X132804000Y-85852000D01*
X132626000Y-85852000D01*
X132626000Y-85266985D01*
X132619206Y-85198000D01*
X132804000Y-85198000D01*
X132804000Y-85598000D01*
X133858000Y-85598000D01*
X133858000Y-84246703D01*
X134112000Y-84246703D01*
X134112000Y-85598000D01*
X135166000Y-85598000D01*
X135166000Y-85266984D01*
X135344000Y-85266984D01*
X135344000Y-86183015D01*
X135361088Y-86356515D01*
X135428619Y-86579135D01*
X135538283Y-86784302D01*
X135685866Y-86964134D01*
X135865697Y-87111717D01*
X136070864Y-87221381D01*
X136293484Y-87288912D01*
X136525000Y-87311714D01*
X136756515Y-87288912D01*
X136979135Y-87221381D01*
X137184302Y-87111717D01*
X137364134Y-86964134D01*
X137511717Y-86784303D01*
X137621381Y-86579136D01*
X137688912Y-86356516D01*
X137706000Y-86183016D01*
X137706000Y-85266985D01*
X137706000Y-85266984D01*
X137884000Y-85266984D01*
X137884000Y-86183015D01*
X137901088Y-86356515D01*
X137968619Y-86579135D01*
X138078283Y-86784302D01*
X138225866Y-86964134D01*
X138405697Y-87111717D01*
X138610864Y-87221381D01*
X138833484Y-87288912D01*
X139065000Y-87311714D01*
X139296515Y-87288912D01*
X139519135Y-87221381D01*
X139724302Y-87111717D01*
X139904134Y-86964134D01*
X140051717Y-86784303D01*
X140161381Y-86579136D01*
X140228912Y-86356516D01*
X140246000Y-86183016D01*
X140246000Y-85266985D01*
X140246000Y-85266984D01*
X140424000Y-85266984D01*
X140424000Y-86183015D01*
X140441088Y-86356515D01*
X140508619Y-86579135D01*
X140618283Y-86784302D01*
X140765866Y-86964134D01*
X140945697Y-87111717D01*
X141150864Y-87221381D01*
X141373484Y-87288912D01*
X141605000Y-87311714D01*
X141836515Y-87288912D01*
X142059135Y-87221381D01*
X142264302Y-87111717D01*
X142444134Y-86964134D01*
X142591717Y-86784303D01*
X142701381Y-86579136D01*
X142768912Y-86356516D01*
X142786000Y-86183016D01*
X142786000Y-85266985D01*
X142786000Y-85266984D01*
X142964000Y-85266984D01*
X142964000Y-86183015D01*
X142981088Y-86356515D01*
X143048619Y-86579135D01*
X143158283Y-86784302D01*
X143305866Y-86964134D01*
X143485697Y-87111717D01*
X143690864Y-87221381D01*
X143913484Y-87288912D01*
X144145000Y-87311714D01*
X144376515Y-87288912D01*
X144599135Y-87221381D01*
X144804302Y-87111717D01*
X144984134Y-86964134D01*
X145131717Y-86784303D01*
X145241381Y-86579136D01*
X145308912Y-86356516D01*
X145326000Y-86183016D01*
X145326000Y-85266985D01*
X145326000Y-85266984D01*
X145504000Y-85266984D01*
X145504000Y-86183015D01*
X145521088Y-86356515D01*
X145588619Y-86579135D01*
X145698283Y-86784302D01*
X145845866Y-86964134D01*
X146025697Y-87111717D01*
X146230864Y-87221381D01*
X146453484Y-87288912D01*
X146685000Y-87311714D01*
X146916515Y-87288912D01*
X147139135Y-87221381D01*
X147344302Y-87111717D01*
X147524134Y-86964134D01*
X147671717Y-86784303D01*
X147781381Y-86579136D01*
X147848912Y-86356516D01*
X147866000Y-86183016D01*
X147866000Y-85266985D01*
X147866000Y-85266984D01*
X148044000Y-85266984D01*
X148044000Y-86183015D01*
X148061088Y-86356515D01*
X148128619Y-86579135D01*
X148238283Y-86784302D01*
X148385866Y-86964134D01*
X148565697Y-87111717D01*
X148770864Y-87221381D01*
X148993484Y-87288912D01*
X149225000Y-87311714D01*
X149456515Y-87288912D01*
X149679135Y-87221381D01*
X149884302Y-87111717D01*
X150064134Y-86964134D01*
X150211717Y-86784303D01*
X150321381Y-86579136D01*
X150388912Y-86356516D01*
X150406000Y-86183016D01*
X150406000Y-85266985D01*
X150406000Y-85266984D01*
X150584000Y-85266984D01*
X150584000Y-86183015D01*
X150601088Y-86356515D01*
X150668619Y-86579135D01*
X150778283Y-86784302D01*
X150925866Y-86964134D01*
X151105697Y-87111717D01*
X151310864Y-87221381D01*
X151533484Y-87288912D01*
X151765000Y-87311714D01*
X151996515Y-87288912D01*
X152219135Y-87221381D01*
X152424302Y-87111717D01*
X152604134Y-86964134D01*
X152751717Y-86784303D01*
X152861381Y-86579136D01*
X152928912Y-86356516D01*
X152946000Y-86183016D01*
X152946000Y-85266985D01*
X152946000Y-85266984D01*
X153124000Y-85266984D01*
X153124000Y-86183015D01*
X153141088Y-86356515D01*
X153208619Y-86579135D01*
X153318283Y-86784302D01*
X153465866Y-86964134D01*
X153645697Y-87111717D01*
X153850864Y-87221381D01*
X154073484Y-87288912D01*
X154305000Y-87311714D01*
X154536515Y-87288912D01*
X154759135Y-87221381D01*
X154964302Y-87111717D01*
X155144134Y-86964134D01*
X155291717Y-86784303D01*
X155401381Y-86579136D01*
X155468912Y-86356516D01*
X155486000Y-86183016D01*
X155486000Y-85266985D01*
X155486000Y-85266984D01*
X155664000Y-85266984D01*
X155664000Y-86183015D01*
X155681088Y-86356515D01*
X155748619Y-86579135D01*
X155858283Y-86784302D01*
X156005866Y-86964134D01*
X156185697Y-87111717D01*
X156390864Y-87221381D01*
X156613484Y-87288912D01*
X156845000Y-87311714D01*
X157076515Y-87288912D01*
X157299135Y-87221381D01*
X157504302Y-87111717D01*
X157684134Y-86964134D01*
X157831717Y-86784303D01*
X157941381Y-86579136D01*
X158008912Y-86356516D01*
X158026000Y-86183016D01*
X158026000Y-85266985D01*
X158026000Y-85266984D01*
X158204000Y-85266984D01*
X158204000Y-86183015D01*
X158221088Y-86356515D01*
X158288619Y-86579135D01*
X158398283Y-86784302D01*
X158545866Y-86964134D01*
X158725697Y-87111717D01*
X158930864Y-87221381D01*
X159153484Y-87288912D01*
X159385000Y-87311714D01*
X159616515Y-87288912D01*
X159839135Y-87221381D01*
X160044302Y-87111717D01*
X160224134Y-86964134D01*
X160371717Y-86784303D01*
X160481381Y-86579136D01*
X160548912Y-86356516D01*
X160566000Y-86183016D01*
X160566000Y-85266985D01*
X160566000Y-85266984D01*
X160744000Y-85266984D01*
X160744000Y-86183015D01*
X160761088Y-86356515D01*
X160828619Y-86579135D01*
X160938283Y-86784302D01*
X161085866Y-86964134D01*
X161265697Y-87111717D01*
X161470864Y-87221381D01*
X161693484Y-87288912D01*
X161925000Y-87311714D01*
X162156515Y-87288912D01*
X162379135Y-87221381D01*
X162584302Y-87111717D01*
X162764134Y-86964134D01*
X162911717Y-86784303D01*
X163021381Y-86579136D01*
X163088912Y-86356516D01*
X163106000Y-86183016D01*
X163106000Y-85266985D01*
X163088912Y-85093485D01*
X163021381Y-84870864D01*
X162911717Y-84665697D01*
X162764134Y-84485866D01*
X162584303Y-84338283D01*
X162379136Y-84228619D01*
X162156516Y-84161088D01*
X161925000Y-84138286D01*
X161693485Y-84161088D01*
X161470865Y-84228619D01*
X161265698Y-84338283D01*
X161085867Y-84485866D01*
X160938284Y-84665697D01*
X160828619Y-84870864D01*
X160761088Y-85093484D01*
X160744000Y-85266984D01*
X160566000Y-85266984D01*
X160548912Y-85093485D01*
X160481381Y-84870864D01*
X160371717Y-84665697D01*
X160224134Y-84485866D01*
X160044303Y-84338283D01*
X159839136Y-84228619D01*
X159616516Y-84161088D01*
X159385000Y-84138286D01*
X159153485Y-84161088D01*
X158930865Y-84228619D01*
X158725698Y-84338283D01*
X158545867Y-84485866D01*
X158398284Y-84665697D01*
X158288619Y-84870864D01*
X158221088Y-85093484D01*
X158204000Y-85266984D01*
X158026000Y-85266984D01*
X158008912Y-85093485D01*
X157941381Y-84870864D01*
X157831717Y-84665697D01*
X157684134Y-84485866D01*
X157504303Y-84338283D01*
X157299136Y-84228619D01*
X157076516Y-84161088D01*
X156845000Y-84138286D01*
X156613485Y-84161088D01*
X156390865Y-84228619D01*
X156185698Y-84338283D01*
X156005867Y-84485866D01*
X155858284Y-84665697D01*
X155748619Y-84870864D01*
X155681088Y-85093484D01*
X155664000Y-85266984D01*
X155486000Y-85266984D01*
X155468912Y-85093485D01*
X155401381Y-84870864D01*
X155291717Y-84665697D01*
X155144134Y-84485866D01*
X154964303Y-84338283D01*
X154759136Y-84228619D01*
X154536516Y-84161088D01*
X154305000Y-84138286D01*
X154073485Y-84161088D01*
X153850865Y-84228619D01*
X153645698Y-84338283D01*
X153465867Y-84485866D01*
X153318284Y-84665697D01*
X153208619Y-84870864D01*
X153141088Y-85093484D01*
X153124000Y-85266984D01*
X152946000Y-85266984D01*
X152928912Y-85093485D01*
X152861381Y-84870864D01*
X152751717Y-84665697D01*
X152604134Y-84485866D01*
X152424303Y-84338283D01*
X152219136Y-84228619D01*
X151996516Y-84161088D01*
X151765000Y-84138286D01*
X151533485Y-84161088D01*
X151310865Y-84228619D01*
X151105698Y-84338283D01*
X150925867Y-84485866D01*
X150778284Y-84665697D01*
X150668619Y-84870864D01*
X150601088Y-85093484D01*
X150584000Y-85266984D01*
X150406000Y-85266984D01*
X150388912Y-85093485D01*
X150321381Y-84870864D01*
X150211717Y-84665697D01*
X150064134Y-84485866D01*
X149884303Y-84338283D01*
X149679136Y-84228619D01*
X149456516Y-84161088D01*
X149225000Y-84138286D01*
X148993485Y-84161088D01*
X148770865Y-84228619D01*
X148565698Y-84338283D01*
X148385867Y-84485866D01*
X148238284Y-84665697D01*
X148128619Y-84870864D01*
X148061088Y-85093484D01*
X148044000Y-85266984D01*
X147866000Y-85266984D01*
X147848912Y-85093485D01*
X147781381Y-84870864D01*
X147671717Y-84665697D01*
X147524134Y-84485866D01*
X147344303Y-84338283D01*
X147139136Y-84228619D01*
X146916516Y-84161088D01*
X146685000Y-84138286D01*
X146453485Y-84161088D01*
X146230865Y-84228619D01*
X146025698Y-84338283D01*
X145845867Y-84485866D01*
X145698284Y-84665697D01*
X145588619Y-84870864D01*
X145521088Y-85093484D01*
X145504000Y-85266984D01*
X145326000Y-85266984D01*
X145308912Y-85093485D01*
X145241381Y-84870864D01*
X145131717Y-84665697D01*
X144984134Y-84485866D01*
X144804303Y-84338283D01*
X144599136Y-84228619D01*
X144376516Y-84161088D01*
X144145000Y-84138286D01*
X143913485Y-84161088D01*
X143690865Y-84228619D01*
X143485698Y-84338283D01*
X143305867Y-84485866D01*
X143158284Y-84665697D01*
X143048619Y-84870864D01*
X142981088Y-85093484D01*
X142964000Y-85266984D01*
X142786000Y-85266984D01*
X142768912Y-85093485D01*
X142701381Y-84870864D01*
X142591717Y-84665697D01*
X142444134Y-84485866D01*
X142264303Y-84338283D01*
X142059136Y-84228619D01*
X141836516Y-84161088D01*
X141605000Y-84138286D01*
X141373485Y-84161088D01*
X141150865Y-84228619D01*
X140945698Y-84338283D01*
X140765867Y-84485866D01*
X140618284Y-84665697D01*
X140508619Y-84870864D01*
X140441088Y-85093484D01*
X140424000Y-85266984D01*
X140246000Y-85266984D01*
X140228912Y-85093485D01*
X140161381Y-84870864D01*
X140051717Y-84665697D01*
X139904134Y-84485866D01*
X139724303Y-84338283D01*
X139519136Y-84228619D01*
X139296516Y-84161088D01*
X139065000Y-84138286D01*
X138833485Y-84161088D01*
X138610865Y-84228619D01*
X138405698Y-84338283D01*
X138225867Y-84485866D01*
X138078284Y-84665697D01*
X137968619Y-84870864D01*
X137901088Y-85093484D01*
X137884000Y-85266984D01*
X137706000Y-85266984D01*
X137688912Y-85093485D01*
X137621381Y-84870864D01*
X137511717Y-84665697D01*
X137364134Y-84485866D01*
X137184303Y-84338283D01*
X136979136Y-84228619D01*
X136756516Y-84161088D01*
X136525000Y-84138286D01*
X136293485Y-84161088D01*
X136070865Y-84228619D01*
X135865698Y-84338283D01*
X135685867Y-84485866D01*
X135538284Y-84665697D01*
X135428619Y-84870864D01*
X135361088Y-85093484D01*
X135344000Y-85266984D01*
X135166000Y-85266984D01*
X135166000Y-85198000D01*
X135118531Y-84970039D01*
X135027501Y-84755719D01*
X134896408Y-84563276D01*
X134730291Y-84400105D01*
X134535532Y-84272478D01*
X134319617Y-84185298D01*
X134294114Y-84185171D01*
X134112000Y-84246703D01*
X133858000Y-84246703D01*
X133675886Y-84185171D01*
X133650383Y-84185298D01*
X133434468Y-84272478D01*
X133239709Y-84400105D01*
X133073592Y-84563276D01*
X132942499Y-84755719D01*
X132851469Y-84970039D01*
X132804000Y-85198000D01*
X132619206Y-85198000D01*
X132608912Y-85093485D01*
X132541381Y-84870864D01*
X132431717Y-84665697D01*
X132284134Y-84485866D01*
X132104303Y-84338283D01*
X131899136Y-84228619D01*
X131676516Y-84161088D01*
X131445000Y-84138286D01*
X131213485Y-84161088D01*
X130990865Y-84228619D01*
X130785698Y-84338283D01*
X130605867Y-84485866D01*
X130458284Y-84665697D01*
X130348619Y-84870864D01*
X130281088Y-85093484D01*
X130264000Y-85266984D01*
X130086000Y-85266984D01*
X130068912Y-85093485D01*
X130001381Y-84870864D01*
X129891717Y-84665697D01*
X129744134Y-84485866D01*
X129564303Y-84338283D01*
X129359136Y-84228619D01*
X129136516Y-84161088D01*
X128905000Y-84138286D01*
X128673485Y-84161088D01*
X128450865Y-84228619D01*
X128245698Y-84338283D01*
X128065867Y-84485866D01*
X127918284Y-84665697D01*
X127808619Y-84870864D01*
X127741088Y-85093484D01*
X127724000Y-85266984D01*
X127546000Y-85266984D01*
X127528912Y-85093485D01*
X127461381Y-84870864D01*
X127351717Y-84665697D01*
X127204134Y-84485866D01*
X127024303Y-84338283D01*
X126819136Y-84228619D01*
X126596516Y-84161088D01*
X126365000Y-84138286D01*
X126133485Y-84161088D01*
X125910865Y-84228619D01*
X125705698Y-84338283D01*
X125525867Y-84485866D01*
X125378284Y-84665697D01*
X125268619Y-84870864D01*
X125201088Y-85093484D01*
X125184000Y-85266984D01*
X125006000Y-85266984D01*
X124988912Y-85093485D01*
X124921381Y-84870864D01*
X124811717Y-84665697D01*
X124664134Y-84485866D01*
X124484303Y-84338283D01*
X124279136Y-84228619D01*
X124056516Y-84161088D01*
X123825000Y-84138286D01*
X123593485Y-84161088D01*
X123370865Y-84228619D01*
X123165698Y-84338283D01*
X122985867Y-84485866D01*
X122838284Y-84665697D01*
X122728619Y-84870864D01*
X122661088Y-85093484D01*
X122644000Y-85266984D01*
X122466000Y-85266984D01*
X122448912Y-85093485D01*
X122381381Y-84870864D01*
X122271717Y-84665697D01*
X122124134Y-84485866D01*
X121944303Y-84338283D01*
X121739136Y-84228619D01*
X121516516Y-84161088D01*
X121285000Y-84138286D01*
X121053485Y-84161088D01*
X120830865Y-84228619D01*
X120625698Y-84338283D01*
X120445867Y-84485866D01*
X120298284Y-84665697D01*
X120188619Y-84870864D01*
X120121088Y-85093484D01*
X120104000Y-85266984D01*
X119926000Y-85266984D01*
X119908912Y-85093485D01*
X119841381Y-84870864D01*
X119731717Y-84665697D01*
X119584134Y-84485866D01*
X119404303Y-84338283D01*
X119199136Y-84228619D01*
X118976516Y-84161088D01*
X118745000Y-84138286D01*
X118513485Y-84161088D01*
X118290865Y-84228619D01*
X118085698Y-84338283D01*
X117905867Y-84485866D01*
X117758284Y-84665697D01*
X117648619Y-84870864D01*
X117581088Y-85093484D01*
X117564000Y-85266984D01*
X117386000Y-85266984D01*
X117368912Y-85093485D01*
X117301381Y-84870864D01*
X117191717Y-84665697D01*
X117044134Y-84485866D01*
X116864303Y-84338283D01*
X116659136Y-84228619D01*
X116436516Y-84161088D01*
X116205000Y-84138286D01*
X115973485Y-84161088D01*
X115750865Y-84228619D01*
X115545698Y-84338283D01*
X115365867Y-84485866D01*
X115218284Y-84665697D01*
X115108619Y-84870864D01*
X115041088Y-85093484D01*
X115024000Y-85266984D01*
X114846000Y-85266984D01*
X114828912Y-85093485D01*
X114761381Y-84870864D01*
X114651717Y-84665697D01*
X114504134Y-84485866D01*
X114324303Y-84338283D01*
X114119136Y-84228619D01*
X113896516Y-84161088D01*
X113665000Y-84138286D01*
X113433485Y-84161088D01*
X113210865Y-84228619D01*
X113005698Y-84338283D01*
X112825867Y-84485866D01*
X112678284Y-84665697D01*
X112568619Y-84870864D01*
X112501088Y-85093484D01*
X112484000Y-85266984D01*
X112306000Y-85266984D01*
X112288912Y-85093485D01*
X112221381Y-84870864D01*
X112111717Y-84665697D01*
X111964134Y-84485866D01*
X111784303Y-84338283D01*
X111579136Y-84228619D01*
X111356516Y-84161088D01*
X111125000Y-84138286D01*
X110893485Y-84161088D01*
X110670865Y-84228619D01*
X110465698Y-84338283D01*
X110285867Y-84485866D01*
X110138284Y-84665697D01*
X110028619Y-84870864D01*
X109961088Y-85093484D01*
X109944000Y-85266984D01*
X109766000Y-85266984D01*
X109748912Y-85093485D01*
X109681381Y-84870864D01*
X109571717Y-84665697D01*
X109424134Y-84485866D01*
X109244303Y-84338283D01*
X109039136Y-84228619D01*
X108816516Y-84161088D01*
X108585000Y-84138286D01*
X108353485Y-84161088D01*
X108130865Y-84228619D01*
X107925698Y-84338283D01*
X107745867Y-84485866D01*
X107598284Y-84665697D01*
X107488619Y-84870864D01*
X107421088Y-85093484D01*
X107404000Y-85266984D01*
X107226000Y-85266984D01*
X107208912Y-85093485D01*
X107141381Y-84870864D01*
X107031717Y-84665697D01*
X106884134Y-84485866D01*
X106704303Y-84338283D01*
X106499136Y-84228619D01*
X106276516Y-84161088D01*
X106045000Y-84138286D01*
X105813485Y-84161088D01*
X105590865Y-84228619D01*
X105385698Y-84338283D01*
X105205867Y-84485866D01*
X105058284Y-84665697D01*
X104948619Y-84870864D01*
X104881088Y-85093484D01*
X104864000Y-85266984D01*
X104686000Y-85266984D01*
X104668912Y-85093485D01*
X104601381Y-84870864D01*
X104491717Y-84665697D01*
X104344134Y-84485866D01*
X104164303Y-84338283D01*
X103959136Y-84228619D01*
X103736516Y-84161088D01*
X103505000Y-84138286D01*
X103273485Y-84161088D01*
X103050865Y-84228619D01*
X102845698Y-84338283D01*
X102665867Y-84485866D01*
X102518284Y-84665697D01*
X102408619Y-84870864D01*
X102341088Y-85093484D01*
X102324000Y-85266984D01*
X101780385Y-85266984D01*
X101760014Y-85242360D01*
X101729079Y-85211640D01*
X101698578Y-85180494D01*
X101693404Y-85176213D01*
X101520534Y-85035223D01*
X101484216Y-85011094D01*
X101448249Y-84986467D01*
X101442342Y-84983273D01*
X101245378Y-84878546D01*
X101205079Y-84861936D01*
X101165004Y-84844760D01*
X101158588Y-84842774D01*
X101158590Y-84842774D01*
X101158582Y-84842772D01*
X100945035Y-84778298D01*
X100902297Y-84769835D01*
X100859627Y-84760766D01*
X100852949Y-84760064D01*
X100852947Y-84760064D01*
X100631084Y-84738310D01*
X100607626Y-84736000D01*
X75461520Y-84736000D01*
X75309865Y-84721130D01*
X75186612Y-84683918D01*
X75072933Y-84623474D01*
X74973155Y-84542097D01*
X74891090Y-84442897D01*
X74829852Y-84329640D01*
X74791780Y-84206648D01*
X74776000Y-84056508D01*
X74776000Y-83235078D01*
X79737006Y-83235078D01*
X79737006Y-83388922D01*
X79767019Y-83539809D01*
X79825893Y-83681942D01*
X79911364Y-83809859D01*
X80020147Y-83918642D01*
X80148064Y-84004113D01*
X80290197Y-84062987D01*
X80441084Y-84093000D01*
X80594928Y-84093000D01*
X80745815Y-84062987D01*
X80887948Y-84004113D01*
X81015865Y-83918642D01*
X81116507Y-83818000D01*
X103861154Y-83818000D01*
X103886000Y-83820447D01*
X103910846Y-83818000D01*
X103910854Y-83818000D01*
X103985193Y-83810678D01*
X104080575Y-83781745D01*
X104168479Y-83734759D01*
X104245527Y-83671527D01*
X104261376Y-83652215D01*
X113363440Y-74550152D01*
X113548682Y-74587000D01*
X113781318Y-74587000D01*
X114009485Y-74541614D01*
X114224413Y-74452588D01*
X114417843Y-74323342D01*
X114582342Y-74158843D01*
X114711588Y-73965413D01*
X114800614Y-73750485D01*
X114846000Y-73522318D01*
X114846000Y-73289682D01*
X115024000Y-73289682D01*
X115024000Y-73522318D01*
X115069386Y-73750485D01*
X115158412Y-73965413D01*
X115287658Y-74158843D01*
X115452157Y-74323342D01*
X115645587Y-74452588D01*
X115860515Y-74541614D01*
X116088682Y-74587000D01*
X116321318Y-74587000D01*
X116549485Y-74541614D01*
X116764413Y-74452588D01*
X116957843Y-74323342D01*
X117122342Y-74158843D01*
X117251588Y-73965413D01*
X117340614Y-73750485D01*
X117386000Y-73522318D01*
X117386000Y-73289682D01*
X117564000Y-73289682D01*
X117564000Y-73522318D01*
X117609386Y-73750485D01*
X117698412Y-73965413D01*
X117827658Y-74158843D01*
X117992157Y-74323342D01*
X118185587Y-74452588D01*
X118400515Y-74541614D01*
X118628682Y-74587000D01*
X118861318Y-74587000D01*
X119089485Y-74541614D01*
X119304413Y-74452588D01*
X119497843Y-74323342D01*
X119662342Y-74158843D01*
X119791588Y-73965413D01*
X119880614Y-73750485D01*
X119926000Y-73522318D01*
X119926000Y-73289682D01*
X120104000Y-73289682D01*
X120104000Y-73522318D01*
X120149386Y-73750485D01*
X120238412Y-73965413D01*
X120367658Y-74158843D01*
X120532157Y-74323342D01*
X120725587Y-74452588D01*
X120940515Y-74541614D01*
X121168682Y-74587000D01*
X121401318Y-74587000D01*
X121629485Y-74541614D01*
X121844413Y-74452588D01*
X122037843Y-74323342D01*
X122202342Y-74158843D01*
X122331588Y-73965413D01*
X122420614Y-73750485D01*
X122466000Y-73522318D01*
X122466000Y-73289682D01*
X122644000Y-73289682D01*
X122644000Y-73522318D01*
X122689386Y-73750485D01*
X122778412Y-73965413D01*
X122907658Y-74158843D01*
X123072157Y-74323342D01*
X123265587Y-74452588D01*
X123480515Y-74541614D01*
X123708682Y-74587000D01*
X123941318Y-74587000D01*
X124169485Y-74541614D01*
X124384413Y-74452588D01*
X124577843Y-74323342D01*
X124742342Y-74158843D01*
X124871588Y-73965413D01*
X124960614Y-73750485D01*
X125006000Y-73522318D01*
X125006000Y-73289682D01*
X125184000Y-73289682D01*
X125184000Y-73522318D01*
X125229386Y-73750485D01*
X125318412Y-73965413D01*
X125447658Y-74158843D01*
X125612157Y-74323342D01*
X125805587Y-74452588D01*
X126020515Y-74541614D01*
X126248682Y-74587000D01*
X126481318Y-74587000D01*
X126709485Y-74541614D01*
X126924413Y-74452588D01*
X127117843Y-74323342D01*
X127282342Y-74158843D01*
X127411588Y-73965413D01*
X127500614Y-73750485D01*
X127546000Y-73522318D01*
X127546000Y-73289682D01*
X127724000Y-73289682D01*
X127724000Y-73522318D01*
X127769386Y-73750485D01*
X127858412Y-73965413D01*
X127987658Y-74158843D01*
X128152157Y-74323342D01*
X128345587Y-74452588D01*
X128560515Y-74541614D01*
X128788682Y-74587000D01*
X129021318Y-74587000D01*
X129249485Y-74541614D01*
X129464413Y-74452588D01*
X129657843Y-74323342D01*
X129822342Y-74158843D01*
X129951588Y-73965413D01*
X130040614Y-73750485D01*
X130086000Y-73522318D01*
X130086000Y-73289682D01*
X130264000Y-73289682D01*
X130264000Y-73522318D01*
X130309386Y-73750485D01*
X130398412Y-73965413D01*
X130527658Y-74158843D01*
X130692157Y-74323342D01*
X130885587Y-74452588D01*
X131100515Y-74541614D01*
X131328682Y-74587000D01*
X131561318Y-74587000D01*
X131789485Y-74541614D01*
X132004413Y-74452588D01*
X132197843Y-74323342D01*
X132362342Y-74158843D01*
X132491588Y-73965413D01*
X132580614Y-73750485D01*
X132626000Y-73522318D01*
X132626000Y-73289682D01*
X132804000Y-73289682D01*
X132804000Y-73522318D01*
X132849386Y-73750485D01*
X132938412Y-73965413D01*
X133067658Y-74158843D01*
X133232157Y-74323342D01*
X133425587Y-74452588D01*
X133640515Y-74541614D01*
X133868682Y-74587000D01*
X134101318Y-74587000D01*
X134329485Y-74541614D01*
X134544413Y-74452588D01*
X134737843Y-74323342D01*
X134902342Y-74158843D01*
X135031588Y-73965413D01*
X135120614Y-73750485D01*
X135166000Y-73522318D01*
X135166000Y-73289682D01*
X135344000Y-73289682D01*
X135344000Y-73522318D01*
X135389386Y-73750485D01*
X135478412Y-73965413D01*
X135607658Y-74158843D01*
X135772157Y-74323342D01*
X135965587Y-74452588D01*
X136180515Y-74541614D01*
X136408682Y-74587000D01*
X136641318Y-74587000D01*
X136869485Y-74541614D01*
X137084413Y-74452588D01*
X137277843Y-74323342D01*
X137442342Y-74158843D01*
X137571588Y-73965413D01*
X137660614Y-73750485D01*
X137706000Y-73522318D01*
X137706000Y-73289682D01*
X137884000Y-73289682D01*
X137884000Y-73522318D01*
X137929386Y-73750485D01*
X138018412Y-73965413D01*
X138147658Y-74158843D01*
X138312157Y-74323342D01*
X138505587Y-74452588D01*
X138720515Y-74541614D01*
X138948682Y-74587000D01*
X139181318Y-74587000D01*
X139409485Y-74541614D01*
X139624413Y-74452588D01*
X139817843Y-74323342D01*
X139982342Y-74158843D01*
X140111588Y-73965413D01*
X140200614Y-73750485D01*
X140246000Y-73522318D01*
X140246000Y-73289682D01*
X140424000Y-73289682D01*
X140424000Y-73522318D01*
X140469386Y-73750485D01*
X140558412Y-73965413D01*
X140687658Y-74158843D01*
X140852157Y-74323342D01*
X141045587Y-74452588D01*
X141260515Y-74541614D01*
X141488682Y-74587000D01*
X141721318Y-74587000D01*
X141949485Y-74541614D01*
X142164413Y-74452588D01*
X142357843Y-74323342D01*
X142522342Y-74158843D01*
X142651588Y-73965413D01*
X142740614Y-73750485D01*
X142786000Y-73522318D01*
X142786000Y-73289682D01*
X142964000Y-73289682D01*
X142964000Y-73522318D01*
X143009386Y-73750485D01*
X143098412Y-73965413D01*
X143227658Y-74158843D01*
X143392157Y-74323342D01*
X143585587Y-74452588D01*
X143800515Y-74541614D01*
X144028682Y-74587000D01*
X144261318Y-74587000D01*
X144489485Y-74541614D01*
X144704413Y-74452588D01*
X144897843Y-74323342D01*
X145062342Y-74158843D01*
X145191588Y-73965413D01*
X145280614Y-73750485D01*
X145326000Y-73522318D01*
X145326000Y-73289682D01*
X145504000Y-73289682D01*
X145504000Y-73522318D01*
X145549386Y-73750485D01*
X145638412Y-73965413D01*
X145767658Y-74158843D01*
X145932157Y-74323342D01*
X146125587Y-74452588D01*
X146340515Y-74541614D01*
X146568682Y-74587000D01*
X146801318Y-74587000D01*
X147029485Y-74541614D01*
X147244413Y-74452588D01*
X147437843Y-74323342D01*
X147602342Y-74158843D01*
X147731588Y-73965413D01*
X147820614Y-73750485D01*
X147866000Y-73522318D01*
X147866000Y-73289682D01*
X148044000Y-73289682D01*
X148044000Y-73522318D01*
X148089386Y-73750485D01*
X148178412Y-73965413D01*
X148307658Y-74158843D01*
X148472157Y-74323342D01*
X148665587Y-74452588D01*
X148880515Y-74541614D01*
X149108682Y-74587000D01*
X149341318Y-74587000D01*
X149569485Y-74541614D01*
X149784413Y-74452588D01*
X149977843Y-74323342D01*
X150142342Y-74158843D01*
X150271588Y-73965413D01*
X150360614Y-73750485D01*
X150406000Y-73522318D01*
X150406000Y-73289682D01*
X150584000Y-73289682D01*
X150584000Y-73522318D01*
X150629386Y-73750485D01*
X150718412Y-73965413D01*
X150847658Y-74158843D01*
X151012157Y-74323342D01*
X151205587Y-74452588D01*
X151420515Y-74541614D01*
X151648682Y-74587000D01*
X151881318Y-74587000D01*
X152109485Y-74541614D01*
X152324413Y-74452588D01*
X152517843Y-74323342D01*
X152682342Y-74158843D01*
X152811588Y-73965413D01*
X152900614Y-73750485D01*
X152946000Y-73522318D01*
X152946000Y-73289682D01*
X153124000Y-73289682D01*
X153124000Y-73522318D01*
X153169386Y-73750485D01*
X153258412Y-73965413D01*
X153387658Y-74158843D01*
X153552157Y-74323342D01*
X153745587Y-74452588D01*
X153960515Y-74541614D01*
X154188682Y-74587000D01*
X154421318Y-74587000D01*
X154649485Y-74541614D01*
X154864413Y-74452588D01*
X155057843Y-74323342D01*
X155222342Y-74158843D01*
X155351588Y-73965413D01*
X155440614Y-73750485D01*
X155486000Y-73522318D01*
X155486000Y-73289682D01*
X155664000Y-73289682D01*
X155664000Y-73522318D01*
X155709386Y-73750485D01*
X155798412Y-73965413D01*
X155927658Y-74158843D01*
X156092157Y-74323342D01*
X156285587Y-74452588D01*
X156500515Y-74541614D01*
X156728682Y-74587000D01*
X156961318Y-74587000D01*
X157189485Y-74541614D01*
X157404413Y-74452588D01*
X157597843Y-74323342D01*
X157762342Y-74158843D01*
X157891588Y-73965413D01*
X157980614Y-73750485D01*
X158026000Y-73522318D01*
X158026000Y-73289682D01*
X158204000Y-73289682D01*
X158204000Y-73522318D01*
X158249386Y-73750485D01*
X158338412Y-73965413D01*
X158467658Y-74158843D01*
X158632157Y-74323342D01*
X158825587Y-74452588D01*
X159040515Y-74541614D01*
X159268682Y-74587000D01*
X159501318Y-74587000D01*
X159729485Y-74541614D01*
X159944413Y-74452588D01*
X160137843Y-74323342D01*
X160302342Y-74158843D01*
X160431588Y-73965413D01*
X160520614Y-73750485D01*
X160566000Y-73522318D01*
X160566000Y-73289682D01*
X160520614Y-73061515D01*
X160431588Y-72846587D01*
X160302342Y-72653157D01*
X160255185Y-72606000D01*
X160742157Y-72606000D01*
X160742157Y-74206000D01*
X160749513Y-74280689D01*
X160771299Y-74352508D01*
X160806678Y-74418696D01*
X160854289Y-74476711D01*
X160912304Y-74524322D01*
X160978492Y-74559701D01*
X161050311Y-74581487D01*
X161125000Y-74588843D01*
X162725000Y-74588843D01*
X162799689Y-74581487D01*
X162871508Y-74559701D01*
X162937696Y-74524322D01*
X162995711Y-74476711D01*
X163043322Y-74418696D01*
X163078701Y-74352508D01*
X163100487Y-74280689D01*
X163107843Y-74206000D01*
X163107843Y-72606000D01*
X163100487Y-72531311D01*
X163078701Y-72459492D01*
X163043322Y-72393304D01*
X162995711Y-72335289D01*
X162937696Y-72287678D01*
X162871508Y-72252299D01*
X162799689Y-72230513D01*
X162725000Y-72223157D01*
X161125000Y-72223157D01*
X161050311Y-72230513D01*
X160978492Y-72252299D01*
X160912304Y-72287678D01*
X160854289Y-72335289D01*
X160806678Y-72393304D01*
X160771299Y-72459492D01*
X160749513Y-72531311D01*
X160742157Y-72606000D01*
X160255185Y-72606000D01*
X160137843Y-72488658D01*
X159944413Y-72359412D01*
X159729485Y-72270386D01*
X159501318Y-72225000D01*
X159268682Y-72225000D01*
X159040515Y-72270386D01*
X158825587Y-72359412D01*
X158632157Y-72488658D01*
X158467658Y-72653157D01*
X158338412Y-72846587D01*
X158249386Y-73061515D01*
X158204000Y-73289682D01*
X158026000Y-73289682D01*
X157980614Y-73061515D01*
X157891588Y-72846587D01*
X157762342Y-72653157D01*
X157597843Y-72488658D01*
X157404413Y-72359412D01*
X157189485Y-72270386D01*
X156961318Y-72225000D01*
X156728682Y-72225000D01*
X156500515Y-72270386D01*
X156285587Y-72359412D01*
X156092157Y-72488658D01*
X155927658Y-72653157D01*
X155798412Y-72846587D01*
X155709386Y-73061515D01*
X155664000Y-73289682D01*
X155486000Y-73289682D01*
X155440614Y-73061515D01*
X155351588Y-72846587D01*
X155222342Y-72653157D01*
X155057843Y-72488658D01*
X154864413Y-72359412D01*
X154649485Y-72270386D01*
X154421318Y-72225000D01*
X154188682Y-72225000D01*
X153960515Y-72270386D01*
X153745587Y-72359412D01*
X153552157Y-72488658D01*
X153387658Y-72653157D01*
X153258412Y-72846587D01*
X153169386Y-73061515D01*
X153124000Y-73289682D01*
X152946000Y-73289682D01*
X152900614Y-73061515D01*
X152811588Y-72846587D01*
X152682342Y-72653157D01*
X152517843Y-72488658D01*
X152324413Y-72359412D01*
X152109485Y-72270386D01*
X151881318Y-72225000D01*
X151648682Y-72225000D01*
X151420515Y-72270386D01*
X151205587Y-72359412D01*
X151012157Y-72488658D01*
X150847658Y-72653157D01*
X150718412Y-72846587D01*
X150629386Y-73061515D01*
X150584000Y-73289682D01*
X150406000Y-73289682D01*
X150360614Y-73061515D01*
X150271588Y-72846587D01*
X150142342Y-72653157D01*
X149977843Y-72488658D01*
X149784413Y-72359412D01*
X149569485Y-72270386D01*
X149341318Y-72225000D01*
X149108682Y-72225000D01*
X148880515Y-72270386D01*
X148665587Y-72359412D01*
X148472157Y-72488658D01*
X148307658Y-72653157D01*
X148178412Y-72846587D01*
X148089386Y-73061515D01*
X148044000Y-73289682D01*
X147866000Y-73289682D01*
X147820614Y-73061515D01*
X147731588Y-72846587D01*
X147602342Y-72653157D01*
X147437843Y-72488658D01*
X147244413Y-72359412D01*
X147029485Y-72270386D01*
X146801318Y-72225000D01*
X146568682Y-72225000D01*
X146340515Y-72270386D01*
X146125587Y-72359412D01*
X145932157Y-72488658D01*
X145767658Y-72653157D01*
X145638412Y-72846587D01*
X145549386Y-73061515D01*
X145504000Y-73289682D01*
X145326000Y-73289682D01*
X145280614Y-73061515D01*
X145191588Y-72846587D01*
X145062342Y-72653157D01*
X144897843Y-72488658D01*
X144704413Y-72359412D01*
X144489485Y-72270386D01*
X144261318Y-72225000D01*
X144028682Y-72225000D01*
X143800515Y-72270386D01*
X143585587Y-72359412D01*
X143392157Y-72488658D01*
X143227658Y-72653157D01*
X143098412Y-72846587D01*
X143009386Y-73061515D01*
X142964000Y-73289682D01*
X142786000Y-73289682D01*
X142740614Y-73061515D01*
X142651588Y-72846587D01*
X142522342Y-72653157D01*
X142357843Y-72488658D01*
X142164413Y-72359412D01*
X141949485Y-72270386D01*
X141721318Y-72225000D01*
X141488682Y-72225000D01*
X141260515Y-72270386D01*
X141045587Y-72359412D01*
X140852157Y-72488658D01*
X140687658Y-72653157D01*
X140558412Y-72846587D01*
X140469386Y-73061515D01*
X140424000Y-73289682D01*
X140246000Y-73289682D01*
X140200614Y-73061515D01*
X140111588Y-72846587D01*
X139982342Y-72653157D01*
X139817843Y-72488658D01*
X139624413Y-72359412D01*
X139409485Y-72270386D01*
X139181318Y-72225000D01*
X138948682Y-72225000D01*
X138720515Y-72270386D01*
X138505587Y-72359412D01*
X138312157Y-72488658D01*
X138147658Y-72653157D01*
X138018412Y-72846587D01*
X137929386Y-73061515D01*
X137884000Y-73289682D01*
X137706000Y-73289682D01*
X137660614Y-73061515D01*
X137571588Y-72846587D01*
X137442342Y-72653157D01*
X137277843Y-72488658D01*
X137084413Y-72359412D01*
X136869485Y-72270386D01*
X136641318Y-72225000D01*
X136408682Y-72225000D01*
X136180515Y-72270386D01*
X135965587Y-72359412D01*
X135772157Y-72488658D01*
X135607658Y-72653157D01*
X135478412Y-72846587D01*
X135389386Y-73061515D01*
X135344000Y-73289682D01*
X135166000Y-73289682D01*
X135120614Y-73061515D01*
X135031588Y-72846587D01*
X134902342Y-72653157D01*
X134737843Y-72488658D01*
X134544413Y-72359412D01*
X134329485Y-72270386D01*
X134101318Y-72225000D01*
X133868682Y-72225000D01*
X133640515Y-72270386D01*
X133425587Y-72359412D01*
X133232157Y-72488658D01*
X133067658Y-72653157D01*
X132938412Y-72846587D01*
X132849386Y-73061515D01*
X132804000Y-73289682D01*
X132626000Y-73289682D01*
X132580614Y-73061515D01*
X132491588Y-72846587D01*
X132362342Y-72653157D01*
X132197843Y-72488658D01*
X132004413Y-72359412D01*
X131789485Y-72270386D01*
X131561318Y-72225000D01*
X131328682Y-72225000D01*
X131100515Y-72270386D01*
X130885587Y-72359412D01*
X130692157Y-72488658D01*
X130527658Y-72653157D01*
X130398412Y-72846587D01*
X130309386Y-73061515D01*
X130264000Y-73289682D01*
X130086000Y-73289682D01*
X130040614Y-73061515D01*
X129951588Y-72846587D01*
X129822342Y-72653157D01*
X129657843Y-72488658D01*
X129464413Y-72359412D01*
X129249485Y-72270386D01*
X129021318Y-72225000D01*
X128788682Y-72225000D01*
X128560515Y-72270386D01*
X128345587Y-72359412D01*
X128152157Y-72488658D01*
X127987658Y-72653157D01*
X127858412Y-72846587D01*
X127769386Y-73061515D01*
X127724000Y-73289682D01*
X127546000Y-73289682D01*
X127500614Y-73061515D01*
X127411588Y-72846587D01*
X127282342Y-72653157D01*
X127117843Y-72488658D01*
X126924413Y-72359412D01*
X126709485Y-72270386D01*
X126481318Y-72225000D01*
X126248682Y-72225000D01*
X126020515Y-72270386D01*
X125805587Y-72359412D01*
X125612157Y-72488658D01*
X125447658Y-72653157D01*
X125318412Y-72846587D01*
X125229386Y-73061515D01*
X125184000Y-73289682D01*
X125006000Y-73289682D01*
X124960614Y-73061515D01*
X124871588Y-72846587D01*
X124742342Y-72653157D01*
X124577843Y-72488658D01*
X124384413Y-72359412D01*
X124169485Y-72270386D01*
X123941318Y-72225000D01*
X123708682Y-72225000D01*
X123480515Y-72270386D01*
X123265587Y-72359412D01*
X123072157Y-72488658D01*
X122907658Y-72653157D01*
X122778412Y-72846587D01*
X122689386Y-73061515D01*
X122644000Y-73289682D01*
X122466000Y-73289682D01*
X122420614Y-73061515D01*
X122331588Y-72846587D01*
X122202342Y-72653157D01*
X122037843Y-72488658D01*
X121844413Y-72359412D01*
X121629485Y-72270386D01*
X121401318Y-72225000D01*
X121168682Y-72225000D01*
X120940515Y-72270386D01*
X120725587Y-72359412D01*
X120532157Y-72488658D01*
X120367658Y-72653157D01*
X120238412Y-72846587D01*
X120149386Y-73061515D01*
X120104000Y-73289682D01*
X119926000Y-73289682D01*
X119880614Y-73061515D01*
X119791588Y-72846587D01*
X119662342Y-72653157D01*
X119497843Y-72488658D01*
X119304413Y-72359412D01*
X119089485Y-72270386D01*
X118861318Y-72225000D01*
X118628682Y-72225000D01*
X118400515Y-72270386D01*
X118185587Y-72359412D01*
X117992157Y-72488658D01*
X117827658Y-72653157D01*
X117698412Y-72846587D01*
X117609386Y-73061515D01*
X117564000Y-73289682D01*
X117386000Y-73289682D01*
X117340614Y-73061515D01*
X117251588Y-72846587D01*
X117122342Y-72653157D01*
X116957843Y-72488658D01*
X116764413Y-72359412D01*
X116549485Y-72270386D01*
X116321318Y-72225000D01*
X116088682Y-72225000D01*
X115860515Y-72270386D01*
X115645587Y-72359412D01*
X115452157Y-72488658D01*
X115287658Y-72653157D01*
X115158412Y-72846587D01*
X115069386Y-73061515D01*
X115024000Y-73289682D01*
X114846000Y-73289682D01*
X114800614Y-73061515D01*
X114711588Y-72846587D01*
X114582342Y-72653157D01*
X114417843Y-72488658D01*
X114224413Y-72359412D01*
X114009485Y-72270386D01*
X113781318Y-72225000D01*
X113548682Y-72225000D01*
X113320515Y-72270386D01*
X113105587Y-72359412D01*
X112912157Y-72488658D01*
X112747658Y-72653157D01*
X112618412Y-72846587D01*
X112529386Y-73061515D01*
X112484000Y-73289682D01*
X112484000Y-73522318D01*
X112529386Y-73750485D01*
X112588708Y-73893700D01*
X103676409Y-82806000D01*
X81116507Y-82806000D01*
X81015865Y-82705358D01*
X80887948Y-82619887D01*
X80745815Y-82561013D01*
X80594928Y-82531000D01*
X80441084Y-82531000D01*
X80290197Y-82561013D01*
X80148064Y-82619887D01*
X80020147Y-82705358D01*
X79911364Y-82814141D01*
X79825893Y-82942058D01*
X79767019Y-83084191D01*
X79737006Y-83235078D01*
X74776000Y-83235078D01*
X74776000Y-81711078D01*
X80753000Y-81711078D01*
X80753000Y-81864922D01*
X80783013Y-82015809D01*
X80841887Y-82157942D01*
X80927358Y-82285859D01*
X81036141Y-82394642D01*
X81164058Y-82480113D01*
X81306191Y-82538987D01*
X81457078Y-82569000D01*
X81610922Y-82569000D01*
X81761809Y-82538987D01*
X81903942Y-82480113D01*
X82031859Y-82394642D01*
X82132501Y-82294000D01*
X102845154Y-82294000D01*
X102870000Y-82296447D01*
X102894846Y-82294000D01*
X102894854Y-82294000D01*
X102969193Y-82286678D01*
X103064575Y-82257745D01*
X103152479Y-82210759D01*
X103229527Y-82147527D01*
X103245376Y-82128215D01*
X110823440Y-74550152D01*
X111008682Y-74587000D01*
X111241318Y-74587000D01*
X111469485Y-74541614D01*
X111684413Y-74452588D01*
X111877843Y-74323342D01*
X112042342Y-74158843D01*
X112171588Y-73965413D01*
X112260614Y-73750485D01*
X112306000Y-73522318D01*
X112306000Y-73289682D01*
X112260614Y-73061515D01*
X112171588Y-72846587D01*
X112042342Y-72653157D01*
X111877843Y-72488658D01*
X111684413Y-72359412D01*
X111469485Y-72270386D01*
X111241318Y-72225000D01*
X111008682Y-72225000D01*
X110780515Y-72270386D01*
X110565587Y-72359412D01*
X110372157Y-72488658D01*
X110207658Y-72653157D01*
X110078412Y-72846587D01*
X109989386Y-73061515D01*
X109944000Y-73289682D01*
X109944000Y-73522318D01*
X109989386Y-73750485D01*
X110048708Y-73893700D01*
X102660409Y-81282000D01*
X83002429Y-81282000D01*
X83047863Y-81251642D01*
X83148505Y-81151000D01*
X101321154Y-81151000D01*
X101346000Y-81153447D01*
X101370846Y-81151000D01*
X101370854Y-81151000D01*
X101445193Y-81143678D01*
X101540575Y-81114745D01*
X101628479Y-81067759D01*
X101705527Y-81004527D01*
X101721376Y-80985215D01*
X108187102Y-74519490D01*
X108240515Y-74541614D01*
X108468682Y-74587000D01*
X108701318Y-74587000D01*
X108929485Y-74541614D01*
X109144413Y-74452588D01*
X109337843Y-74323342D01*
X109502342Y-74158843D01*
X109631588Y-73965413D01*
X109720614Y-73750485D01*
X109766000Y-73522318D01*
X109766000Y-73289682D01*
X109720614Y-73061515D01*
X109631588Y-72846587D01*
X109502342Y-72653157D01*
X109337843Y-72488658D01*
X109144413Y-72359412D01*
X108929485Y-72270386D01*
X108701318Y-72225000D01*
X108468682Y-72225000D01*
X108240515Y-72270386D01*
X108025587Y-72359412D01*
X107832157Y-72488658D01*
X107667658Y-72653157D01*
X107538412Y-72846587D01*
X107449386Y-73061515D01*
X107404000Y-73289682D01*
X107404000Y-73522318D01*
X107449386Y-73750485D01*
X107471510Y-73803898D01*
X101136409Y-80139000D01*
X83148505Y-80139000D01*
X83047863Y-80038358D01*
X82919946Y-79952887D01*
X82777813Y-79894013D01*
X82626926Y-79864000D01*
X82473082Y-79864000D01*
X82322195Y-79894013D01*
X82180062Y-79952887D01*
X82052145Y-80038358D01*
X81943362Y-80147141D01*
X81857891Y-80275058D01*
X81799017Y-80417191D01*
X81769004Y-80568078D01*
X81769004Y-80721922D01*
X81799017Y-80872809D01*
X81857891Y-81014942D01*
X81918457Y-81105585D01*
X81903942Y-81095887D01*
X81761809Y-81037013D01*
X81610922Y-81007000D01*
X81457078Y-81007000D01*
X81306191Y-81037013D01*
X81164058Y-81095887D01*
X81036141Y-81181358D01*
X80927358Y-81290141D01*
X80841887Y-81418058D01*
X80783013Y-81560191D01*
X80753000Y-81711078D01*
X74776000Y-81711078D01*
X74776000Y-79044078D01*
X82785000Y-79044078D01*
X82785000Y-79197922D01*
X82815013Y-79348809D01*
X82873887Y-79490942D01*
X82959358Y-79618859D01*
X83068141Y-79727642D01*
X83196058Y-79813113D01*
X83338191Y-79871987D01*
X83489078Y-79902000D01*
X83642922Y-79902000D01*
X83793809Y-79871987D01*
X83935942Y-79813113D01*
X84063859Y-79727642D01*
X84164501Y-79627000D01*
X100178154Y-79627000D01*
X100203000Y-79629447D01*
X100227846Y-79627000D01*
X100227854Y-79627000D01*
X100302193Y-79619678D01*
X100397575Y-79590745D01*
X100485479Y-79543759D01*
X100562527Y-79480527D01*
X100578376Y-79461215D01*
X105557300Y-74482292D01*
X105700515Y-74541614D01*
X105928682Y-74587000D01*
X106161318Y-74587000D01*
X106389485Y-74541614D01*
X106604413Y-74452588D01*
X106797843Y-74323342D01*
X106962342Y-74158843D01*
X107091588Y-73965413D01*
X107180614Y-73750485D01*
X107226000Y-73522318D01*
X107226000Y-73289682D01*
X107180614Y-73061515D01*
X107091588Y-72846587D01*
X106962342Y-72653157D01*
X106797843Y-72488658D01*
X106604413Y-72359412D01*
X106389485Y-72270386D01*
X106161318Y-72225000D01*
X105928682Y-72225000D01*
X105700515Y-72270386D01*
X105485587Y-72359412D01*
X105292157Y-72488658D01*
X105127658Y-72653157D01*
X104998412Y-72846587D01*
X104909386Y-73061515D01*
X104864000Y-73289682D01*
X104864000Y-73522318D01*
X104900848Y-73707560D01*
X99993409Y-78615000D01*
X84164501Y-78615000D01*
X84063859Y-78514358D01*
X83935942Y-78428887D01*
X83793809Y-78370013D01*
X83642922Y-78340000D01*
X83489078Y-78340000D01*
X83338191Y-78370013D01*
X83196058Y-78428887D01*
X83068141Y-78514358D01*
X82959358Y-78623141D01*
X82873887Y-78751058D01*
X82815013Y-78893191D01*
X82785000Y-79044078D01*
X74776000Y-79044078D01*
X74776000Y-77647078D01*
X83674000Y-77647078D01*
X83674000Y-77800922D01*
X83704013Y-77951809D01*
X83762887Y-78093942D01*
X83848358Y-78221859D01*
X83957141Y-78330642D01*
X84085058Y-78416113D01*
X84227191Y-78474987D01*
X84378078Y-78505000D01*
X84531922Y-78505000D01*
X84682809Y-78474987D01*
X84824942Y-78416113D01*
X84952859Y-78330642D01*
X85053501Y-78230000D01*
X98781154Y-78230000D01*
X98806000Y-78232447D01*
X98830846Y-78230000D01*
X98830854Y-78230000D01*
X98905193Y-78222678D01*
X99000575Y-78193745D01*
X99088479Y-78146759D01*
X99165527Y-78083527D01*
X99181376Y-78064215D01*
X102854120Y-74391472D01*
X102945587Y-74452588D01*
X103160515Y-74541614D01*
X103388682Y-74587000D01*
X103621318Y-74587000D01*
X103849485Y-74541614D01*
X104064413Y-74452588D01*
X104257843Y-74323342D01*
X104422342Y-74158843D01*
X104551588Y-73965413D01*
X104640614Y-73750485D01*
X104686000Y-73522318D01*
X104686000Y-73289682D01*
X104640614Y-73061515D01*
X104551588Y-72846587D01*
X104422342Y-72653157D01*
X104257843Y-72488658D01*
X104064413Y-72359412D01*
X103849485Y-72270386D01*
X103621318Y-72225000D01*
X103388682Y-72225000D01*
X103160515Y-72270386D01*
X102945587Y-72359412D01*
X102752157Y-72488658D01*
X102587658Y-72653157D01*
X102458412Y-72846587D01*
X102369386Y-73061515D01*
X102324000Y-73289682D01*
X102324000Y-73490408D01*
X98596409Y-77218000D01*
X85053501Y-77218000D01*
X84952859Y-77117358D01*
X84824942Y-77031887D01*
X84682809Y-76973013D01*
X84531922Y-76943000D01*
X84378078Y-76943000D01*
X84227191Y-76973013D01*
X84085058Y-77031887D01*
X83957141Y-77117358D01*
X83848358Y-77226141D01*
X83762887Y-77354058D01*
X83704013Y-77496191D01*
X83674000Y-77647078D01*
X74776000Y-77647078D01*
X74776000Y-70026984D01*
X102324000Y-70026984D01*
X102324000Y-70943015D01*
X102341088Y-71116515D01*
X102408619Y-71339135D01*
X102518283Y-71544302D01*
X102665866Y-71724134D01*
X102845697Y-71871717D01*
X103050864Y-71981381D01*
X103273484Y-72048912D01*
X103505000Y-72071714D01*
X103736515Y-72048912D01*
X103959135Y-71981381D01*
X104164302Y-71871717D01*
X104344134Y-71724134D01*
X104491717Y-71544303D01*
X104601381Y-71339136D01*
X104668912Y-71116516D01*
X104686000Y-70943016D01*
X104686000Y-70026985D01*
X104686000Y-70026984D01*
X104864000Y-70026984D01*
X104864000Y-70943015D01*
X104881088Y-71116515D01*
X104948619Y-71339135D01*
X105058283Y-71544302D01*
X105205866Y-71724134D01*
X105385697Y-71871717D01*
X105590864Y-71981381D01*
X105813484Y-72048912D01*
X106045000Y-72071714D01*
X106276515Y-72048912D01*
X106499135Y-71981381D01*
X106704302Y-71871717D01*
X106884134Y-71724134D01*
X107031717Y-71544303D01*
X107141381Y-71339136D01*
X107208912Y-71116516D01*
X107226000Y-70943016D01*
X107226000Y-70026985D01*
X107226000Y-70026984D01*
X107404000Y-70026984D01*
X107404000Y-70943015D01*
X107421088Y-71116515D01*
X107488619Y-71339135D01*
X107598283Y-71544302D01*
X107745866Y-71724134D01*
X107925697Y-71871717D01*
X108130864Y-71981381D01*
X108353484Y-72048912D01*
X108585000Y-72071714D01*
X108816515Y-72048912D01*
X109039135Y-71981381D01*
X109244302Y-71871717D01*
X109424134Y-71724134D01*
X109571717Y-71544303D01*
X109681381Y-71339136D01*
X109748912Y-71116516D01*
X109766000Y-70943016D01*
X109766000Y-70026985D01*
X109766000Y-70026984D01*
X109944000Y-70026984D01*
X109944000Y-70943015D01*
X109961088Y-71116515D01*
X110028619Y-71339135D01*
X110138283Y-71544302D01*
X110285866Y-71724134D01*
X110465697Y-71871717D01*
X110670864Y-71981381D01*
X110893484Y-72048912D01*
X111125000Y-72071714D01*
X111356515Y-72048912D01*
X111579135Y-71981381D01*
X111784302Y-71871717D01*
X111964134Y-71724134D01*
X112111717Y-71544303D01*
X112221381Y-71339136D01*
X112288912Y-71116516D01*
X112306000Y-70943016D01*
X112306000Y-70026985D01*
X112306000Y-70026984D01*
X112484000Y-70026984D01*
X112484000Y-70943015D01*
X112501088Y-71116515D01*
X112568619Y-71339135D01*
X112678283Y-71544302D01*
X112825866Y-71724134D01*
X113005697Y-71871717D01*
X113210864Y-71981381D01*
X113433484Y-72048912D01*
X113665000Y-72071714D01*
X113896515Y-72048912D01*
X114119135Y-71981381D01*
X114324302Y-71871717D01*
X114504134Y-71724134D01*
X114651717Y-71544303D01*
X114761381Y-71339136D01*
X114828912Y-71116516D01*
X114846000Y-70943016D01*
X114846000Y-70026985D01*
X114846000Y-70026984D01*
X115024000Y-70026984D01*
X115024000Y-70943015D01*
X115041088Y-71116515D01*
X115108619Y-71339135D01*
X115218283Y-71544302D01*
X115365866Y-71724134D01*
X115545697Y-71871717D01*
X115750864Y-71981381D01*
X115973484Y-72048912D01*
X116205000Y-72071714D01*
X116436515Y-72048912D01*
X116659135Y-71981381D01*
X116864302Y-71871717D01*
X117044134Y-71724134D01*
X117191717Y-71544303D01*
X117301381Y-71339136D01*
X117368912Y-71116516D01*
X117386000Y-70943016D01*
X117386000Y-70026985D01*
X117386000Y-70026984D01*
X117564000Y-70026984D01*
X117564000Y-70943015D01*
X117581088Y-71116515D01*
X117648619Y-71339135D01*
X117758283Y-71544302D01*
X117905866Y-71724134D01*
X118085697Y-71871717D01*
X118290864Y-71981381D01*
X118513484Y-72048912D01*
X118745000Y-72071714D01*
X118976515Y-72048912D01*
X119199135Y-71981381D01*
X119404302Y-71871717D01*
X119584134Y-71724134D01*
X119731717Y-71544303D01*
X119841381Y-71339136D01*
X119908912Y-71116516D01*
X119926000Y-70943016D01*
X119926000Y-70026985D01*
X119926000Y-70026984D01*
X120104000Y-70026984D01*
X120104000Y-70943015D01*
X120121088Y-71116515D01*
X120188619Y-71339135D01*
X120298283Y-71544302D01*
X120445866Y-71724134D01*
X120625697Y-71871717D01*
X120830864Y-71981381D01*
X121053484Y-72048912D01*
X121285000Y-72071714D01*
X121516515Y-72048912D01*
X121739135Y-71981381D01*
X121944302Y-71871717D01*
X122124134Y-71724134D01*
X122271717Y-71544303D01*
X122381381Y-71339136D01*
X122448912Y-71116516D01*
X122466000Y-70943016D01*
X122466000Y-70026985D01*
X122466000Y-70026984D01*
X122644000Y-70026984D01*
X122644000Y-70943015D01*
X122661088Y-71116515D01*
X122728619Y-71339135D01*
X122838283Y-71544302D01*
X122985866Y-71724134D01*
X123165697Y-71871717D01*
X123370864Y-71981381D01*
X123593484Y-72048912D01*
X123825000Y-72071714D01*
X124056515Y-72048912D01*
X124279135Y-71981381D01*
X124484302Y-71871717D01*
X124664134Y-71724134D01*
X124811717Y-71544303D01*
X124921381Y-71339136D01*
X124988912Y-71116516D01*
X125006000Y-70943016D01*
X125006000Y-70026985D01*
X125006000Y-70026984D01*
X125184000Y-70026984D01*
X125184000Y-70943015D01*
X125201088Y-71116515D01*
X125268619Y-71339135D01*
X125378283Y-71544302D01*
X125525866Y-71724134D01*
X125705697Y-71871717D01*
X125910864Y-71981381D01*
X126133484Y-72048912D01*
X126365000Y-72071714D01*
X126596515Y-72048912D01*
X126819135Y-71981381D01*
X127024302Y-71871717D01*
X127204134Y-71724134D01*
X127351717Y-71544303D01*
X127461381Y-71339136D01*
X127528912Y-71116516D01*
X127546000Y-70943016D01*
X127546000Y-70026985D01*
X127546000Y-70026984D01*
X127724000Y-70026984D01*
X127724000Y-70943015D01*
X127741088Y-71116515D01*
X127808619Y-71339135D01*
X127918283Y-71544302D01*
X128065866Y-71724134D01*
X128245697Y-71871717D01*
X128450864Y-71981381D01*
X128673484Y-72048912D01*
X128905000Y-72071714D01*
X129136515Y-72048912D01*
X129359135Y-71981381D01*
X129564302Y-71871717D01*
X129744134Y-71724134D01*
X129891717Y-71544303D01*
X130001381Y-71339136D01*
X130068912Y-71116516D01*
X130086000Y-70943016D01*
X130086000Y-70026985D01*
X130086000Y-70026984D01*
X130264000Y-70026984D01*
X130264000Y-70943015D01*
X130281088Y-71116515D01*
X130348619Y-71339135D01*
X130458283Y-71544302D01*
X130605866Y-71724134D01*
X130785697Y-71871717D01*
X130990864Y-71981381D01*
X131213484Y-72048912D01*
X131445000Y-72071714D01*
X131676515Y-72048912D01*
X131899135Y-71981381D01*
X132104302Y-71871717D01*
X132284134Y-71724134D01*
X132431717Y-71544303D01*
X132541381Y-71339136D01*
X132608912Y-71116516D01*
X132626000Y-70943016D01*
X132626000Y-70026985D01*
X132626000Y-70026984D01*
X132804000Y-70026984D01*
X132804000Y-70943015D01*
X132821088Y-71116515D01*
X132888619Y-71339135D01*
X132998283Y-71544302D01*
X133145866Y-71724134D01*
X133325697Y-71871717D01*
X133530864Y-71981381D01*
X133753484Y-72048912D01*
X133985000Y-72071714D01*
X134216515Y-72048912D01*
X134439135Y-71981381D01*
X134644302Y-71871717D01*
X134824134Y-71724134D01*
X134971717Y-71544303D01*
X135081381Y-71339136D01*
X135148912Y-71116516D01*
X135166000Y-70943016D01*
X135166000Y-70026985D01*
X135166000Y-70026984D01*
X135344000Y-70026984D01*
X135344000Y-70943015D01*
X135361088Y-71116515D01*
X135428619Y-71339135D01*
X135538283Y-71544302D01*
X135685866Y-71724134D01*
X135865697Y-71871717D01*
X136070864Y-71981381D01*
X136293484Y-72048912D01*
X136525000Y-72071714D01*
X136756515Y-72048912D01*
X136979135Y-71981381D01*
X137184302Y-71871717D01*
X137364134Y-71724134D01*
X137511717Y-71544303D01*
X137621381Y-71339136D01*
X137688912Y-71116516D01*
X137706000Y-70943016D01*
X137706000Y-70026985D01*
X137706000Y-70026984D01*
X137884000Y-70026984D01*
X137884000Y-70943015D01*
X137901088Y-71116515D01*
X137968619Y-71339135D01*
X138078283Y-71544302D01*
X138225866Y-71724134D01*
X138405697Y-71871717D01*
X138610864Y-71981381D01*
X138833484Y-72048912D01*
X139065000Y-72071714D01*
X139296515Y-72048912D01*
X139519135Y-71981381D01*
X139724302Y-71871717D01*
X139904134Y-71724134D01*
X140051717Y-71544303D01*
X140161381Y-71339136D01*
X140228912Y-71116516D01*
X140246000Y-70943016D01*
X140246000Y-70026985D01*
X140246000Y-70026984D01*
X140424000Y-70026984D01*
X140424000Y-70943015D01*
X140441088Y-71116515D01*
X140508619Y-71339135D01*
X140618283Y-71544302D01*
X140765866Y-71724134D01*
X140945697Y-71871717D01*
X141150864Y-71981381D01*
X141373484Y-72048912D01*
X141605000Y-72071714D01*
X141836515Y-72048912D01*
X142059135Y-71981381D01*
X142264302Y-71871717D01*
X142444134Y-71724134D01*
X142591717Y-71544303D01*
X142701381Y-71339136D01*
X142768912Y-71116516D01*
X142786000Y-70943016D01*
X142786000Y-70026985D01*
X142786000Y-70026984D01*
X142964000Y-70026984D01*
X142964000Y-70943015D01*
X142981088Y-71116515D01*
X143048619Y-71339135D01*
X143158283Y-71544302D01*
X143305866Y-71724134D01*
X143485697Y-71871717D01*
X143690864Y-71981381D01*
X143913484Y-72048912D01*
X144145000Y-72071714D01*
X144376515Y-72048912D01*
X144599135Y-71981381D01*
X144804302Y-71871717D01*
X144984134Y-71724134D01*
X145131717Y-71544303D01*
X145241381Y-71339136D01*
X145308912Y-71116516D01*
X145326000Y-70943016D01*
X145326000Y-70026985D01*
X145326000Y-70026984D01*
X145504000Y-70026984D01*
X145504000Y-70943015D01*
X145521088Y-71116515D01*
X145588619Y-71339135D01*
X145698283Y-71544302D01*
X145845866Y-71724134D01*
X146025697Y-71871717D01*
X146230864Y-71981381D01*
X146453484Y-72048912D01*
X146685000Y-72071714D01*
X146916515Y-72048912D01*
X147139135Y-71981381D01*
X147344302Y-71871717D01*
X147524134Y-71724134D01*
X147671717Y-71544303D01*
X147781381Y-71339136D01*
X147848912Y-71116516D01*
X147866000Y-70943016D01*
X147866000Y-70026985D01*
X147866000Y-70026984D01*
X148044000Y-70026984D01*
X148044000Y-70943015D01*
X148061088Y-71116515D01*
X148128619Y-71339135D01*
X148238283Y-71544302D01*
X148385866Y-71724134D01*
X148565697Y-71871717D01*
X148770864Y-71981381D01*
X148993484Y-72048912D01*
X149225000Y-72071714D01*
X149456515Y-72048912D01*
X149679135Y-71981381D01*
X149884302Y-71871717D01*
X150064134Y-71724134D01*
X150211717Y-71544303D01*
X150321381Y-71339136D01*
X150388912Y-71116516D01*
X150406000Y-70943016D01*
X150406000Y-70026985D01*
X150406000Y-70026984D01*
X150584000Y-70026984D01*
X150584000Y-70943015D01*
X150601088Y-71116515D01*
X150668619Y-71339135D01*
X150778283Y-71544302D01*
X150925866Y-71724134D01*
X151105697Y-71871717D01*
X151310864Y-71981381D01*
X151533484Y-72048912D01*
X151765000Y-72071714D01*
X151996515Y-72048912D01*
X152219135Y-71981381D01*
X152424302Y-71871717D01*
X152604134Y-71724134D01*
X152751717Y-71544303D01*
X152861381Y-71339136D01*
X152928912Y-71116516D01*
X152946000Y-70943016D01*
X152946000Y-70026985D01*
X152946000Y-70026984D01*
X153124000Y-70026984D01*
X153124000Y-70943015D01*
X153141088Y-71116515D01*
X153208619Y-71339135D01*
X153318283Y-71544302D01*
X153465866Y-71724134D01*
X153645697Y-71871717D01*
X153850864Y-71981381D01*
X154073484Y-72048912D01*
X154305000Y-72071714D01*
X154536515Y-72048912D01*
X154759135Y-71981381D01*
X154964302Y-71871717D01*
X155144134Y-71724134D01*
X155291717Y-71544303D01*
X155401381Y-71339136D01*
X155468912Y-71116516D01*
X155486000Y-70943016D01*
X155486000Y-70026985D01*
X155486000Y-70026984D01*
X155664000Y-70026984D01*
X155664000Y-70943015D01*
X155681088Y-71116515D01*
X155748619Y-71339135D01*
X155858283Y-71544302D01*
X156005866Y-71724134D01*
X156185697Y-71871717D01*
X156390864Y-71981381D01*
X156613484Y-72048912D01*
X156845000Y-72071714D01*
X157076515Y-72048912D01*
X157299135Y-71981381D01*
X157504302Y-71871717D01*
X157684134Y-71724134D01*
X157831717Y-71544303D01*
X157941381Y-71339136D01*
X158008912Y-71116516D01*
X158026000Y-70943016D01*
X158026000Y-70026985D01*
X158026000Y-70026984D01*
X158204000Y-70026984D01*
X158204000Y-70943015D01*
X158221088Y-71116515D01*
X158288619Y-71339135D01*
X158398283Y-71544302D01*
X158545866Y-71724134D01*
X158725697Y-71871717D01*
X158930864Y-71981381D01*
X159153484Y-72048912D01*
X159385000Y-72071714D01*
X159616515Y-72048912D01*
X159839135Y-71981381D01*
X160044302Y-71871717D01*
X160224134Y-71724134D01*
X160371717Y-71544303D01*
X160481381Y-71339136D01*
X160548912Y-71116516D01*
X160566000Y-70943016D01*
X160566000Y-70026985D01*
X160548912Y-69853485D01*
X160481381Y-69630864D01*
X160371717Y-69425697D01*
X160256251Y-69285000D01*
X160742157Y-69285000D01*
X160742157Y-71685000D01*
X160749513Y-71759689D01*
X160771299Y-71831508D01*
X160806678Y-71897696D01*
X160854289Y-71955711D01*
X160912304Y-72003322D01*
X160978492Y-72038701D01*
X161050311Y-72060487D01*
X161125000Y-72067843D01*
X162725000Y-72067843D01*
X162799689Y-72060487D01*
X162871508Y-72038701D01*
X162937696Y-72003322D01*
X162995711Y-71955711D01*
X163043322Y-71897696D01*
X163078701Y-71831508D01*
X163100487Y-71759689D01*
X163107843Y-71685000D01*
X163107843Y-69285000D01*
X163100487Y-69210311D01*
X163078701Y-69138492D01*
X163043322Y-69072304D01*
X162995711Y-69014289D01*
X162937696Y-68966678D01*
X162871508Y-68931299D01*
X162799689Y-68909513D01*
X162725000Y-68902157D01*
X161125000Y-68902157D01*
X161050311Y-68909513D01*
X160978492Y-68931299D01*
X160912304Y-68966678D01*
X160854289Y-69014289D01*
X160806678Y-69072304D01*
X160771299Y-69138492D01*
X160749513Y-69210311D01*
X160742157Y-69285000D01*
X160256251Y-69285000D01*
X160224134Y-69245866D01*
X160044303Y-69098283D01*
X159839136Y-68988619D01*
X159616516Y-68921088D01*
X159385000Y-68898286D01*
X159153485Y-68921088D01*
X158930865Y-68988619D01*
X158725698Y-69098283D01*
X158545867Y-69245866D01*
X158398284Y-69425697D01*
X158288619Y-69630864D01*
X158221088Y-69853484D01*
X158204000Y-70026984D01*
X158026000Y-70026984D01*
X158008912Y-69853485D01*
X157941381Y-69630864D01*
X157831717Y-69425697D01*
X157684134Y-69245866D01*
X157504303Y-69098283D01*
X157299136Y-68988619D01*
X157076516Y-68921088D01*
X156845000Y-68898286D01*
X156613485Y-68921088D01*
X156390865Y-68988619D01*
X156185698Y-69098283D01*
X156005867Y-69245866D01*
X155858284Y-69425697D01*
X155748619Y-69630864D01*
X155681088Y-69853484D01*
X155664000Y-70026984D01*
X155486000Y-70026984D01*
X155468912Y-69853485D01*
X155401381Y-69630864D01*
X155291717Y-69425697D01*
X155144134Y-69245866D01*
X154964303Y-69098283D01*
X154759136Y-68988619D01*
X154536516Y-68921088D01*
X154305000Y-68898286D01*
X154073485Y-68921088D01*
X153850865Y-68988619D01*
X153645698Y-69098283D01*
X153465867Y-69245866D01*
X153318284Y-69425697D01*
X153208619Y-69630864D01*
X153141088Y-69853484D01*
X153124000Y-70026984D01*
X152946000Y-70026984D01*
X152928912Y-69853485D01*
X152861381Y-69630864D01*
X152751717Y-69425697D01*
X152604134Y-69245866D01*
X152424303Y-69098283D01*
X152219136Y-68988619D01*
X151996516Y-68921088D01*
X151765000Y-68898286D01*
X151533485Y-68921088D01*
X151310865Y-68988619D01*
X151105698Y-69098283D01*
X150925867Y-69245866D01*
X150778284Y-69425697D01*
X150668619Y-69630864D01*
X150601088Y-69853484D01*
X150584000Y-70026984D01*
X150406000Y-70026984D01*
X150388912Y-69853485D01*
X150321381Y-69630864D01*
X150211717Y-69425697D01*
X150064134Y-69245866D01*
X149884303Y-69098283D01*
X149679136Y-68988619D01*
X149456516Y-68921088D01*
X149225000Y-68898286D01*
X148993485Y-68921088D01*
X148770865Y-68988619D01*
X148565698Y-69098283D01*
X148385867Y-69245866D01*
X148238284Y-69425697D01*
X148128619Y-69630864D01*
X148061088Y-69853484D01*
X148044000Y-70026984D01*
X147866000Y-70026984D01*
X147848912Y-69853485D01*
X147781381Y-69630864D01*
X147671717Y-69425697D01*
X147524134Y-69245866D01*
X147344303Y-69098283D01*
X147139136Y-68988619D01*
X146916516Y-68921088D01*
X146685000Y-68898286D01*
X146453485Y-68921088D01*
X146230865Y-68988619D01*
X146025698Y-69098283D01*
X145845867Y-69245866D01*
X145698284Y-69425697D01*
X145588619Y-69630864D01*
X145521088Y-69853484D01*
X145504000Y-70026984D01*
X145326000Y-70026984D01*
X145308912Y-69853485D01*
X145241381Y-69630864D01*
X145131717Y-69425697D01*
X144984134Y-69245866D01*
X144804303Y-69098283D01*
X144599136Y-68988619D01*
X144376516Y-68921088D01*
X144145000Y-68898286D01*
X143913485Y-68921088D01*
X143690865Y-68988619D01*
X143485698Y-69098283D01*
X143305867Y-69245866D01*
X143158284Y-69425697D01*
X143048619Y-69630864D01*
X142981088Y-69853484D01*
X142964000Y-70026984D01*
X142786000Y-70026984D01*
X142768912Y-69853485D01*
X142701381Y-69630864D01*
X142591717Y-69425697D01*
X142444134Y-69245866D01*
X142264303Y-69098283D01*
X142059136Y-68988619D01*
X141836516Y-68921088D01*
X141605000Y-68898286D01*
X141373485Y-68921088D01*
X141150865Y-68988619D01*
X140945698Y-69098283D01*
X140765867Y-69245866D01*
X140618284Y-69425697D01*
X140508619Y-69630864D01*
X140441088Y-69853484D01*
X140424000Y-70026984D01*
X140246000Y-70026984D01*
X140228912Y-69853485D01*
X140161381Y-69630864D01*
X140051717Y-69425697D01*
X139904134Y-69245866D01*
X139724303Y-69098283D01*
X139519136Y-68988619D01*
X139296516Y-68921088D01*
X139065000Y-68898286D01*
X138833485Y-68921088D01*
X138610865Y-68988619D01*
X138405698Y-69098283D01*
X138225867Y-69245866D01*
X138078284Y-69425697D01*
X137968619Y-69630864D01*
X137901088Y-69853484D01*
X137884000Y-70026984D01*
X137706000Y-70026984D01*
X137688912Y-69853485D01*
X137621381Y-69630864D01*
X137511717Y-69425697D01*
X137364134Y-69245866D01*
X137184303Y-69098283D01*
X136979136Y-68988619D01*
X136756516Y-68921088D01*
X136525000Y-68898286D01*
X136293485Y-68921088D01*
X136070865Y-68988619D01*
X135865698Y-69098283D01*
X135685867Y-69245866D01*
X135538284Y-69425697D01*
X135428619Y-69630864D01*
X135361088Y-69853484D01*
X135344000Y-70026984D01*
X135166000Y-70026984D01*
X135148912Y-69853485D01*
X135081381Y-69630864D01*
X134971717Y-69425697D01*
X134824134Y-69245866D01*
X134644303Y-69098283D01*
X134439136Y-68988619D01*
X134216516Y-68921088D01*
X133985000Y-68898286D01*
X133753485Y-68921088D01*
X133530865Y-68988619D01*
X133325698Y-69098283D01*
X133145867Y-69245866D01*
X132998284Y-69425697D01*
X132888619Y-69630864D01*
X132821088Y-69853484D01*
X132804000Y-70026984D01*
X132626000Y-70026984D01*
X132608912Y-69853485D01*
X132541381Y-69630864D01*
X132431717Y-69425697D01*
X132284134Y-69245866D01*
X132104303Y-69098283D01*
X131899136Y-68988619D01*
X131676516Y-68921088D01*
X131445000Y-68898286D01*
X131213485Y-68921088D01*
X130990865Y-68988619D01*
X130785698Y-69098283D01*
X130605867Y-69245866D01*
X130458284Y-69425697D01*
X130348619Y-69630864D01*
X130281088Y-69853484D01*
X130264000Y-70026984D01*
X130086000Y-70026984D01*
X130068912Y-69853485D01*
X130001381Y-69630864D01*
X129891717Y-69425697D01*
X129744134Y-69245866D01*
X129564303Y-69098283D01*
X129359136Y-68988619D01*
X129136516Y-68921088D01*
X128905000Y-68898286D01*
X128673485Y-68921088D01*
X128450865Y-68988619D01*
X128245698Y-69098283D01*
X128065867Y-69245866D01*
X127918284Y-69425697D01*
X127808619Y-69630864D01*
X127741088Y-69853484D01*
X127724000Y-70026984D01*
X127546000Y-70026984D01*
X127528912Y-69853485D01*
X127461381Y-69630864D01*
X127351717Y-69425697D01*
X127204134Y-69245866D01*
X127024303Y-69098283D01*
X126819136Y-68988619D01*
X126596516Y-68921088D01*
X126365000Y-68898286D01*
X126133485Y-68921088D01*
X125910865Y-68988619D01*
X125705698Y-69098283D01*
X125525867Y-69245866D01*
X125378284Y-69425697D01*
X125268619Y-69630864D01*
X125201088Y-69853484D01*
X125184000Y-70026984D01*
X125006000Y-70026984D01*
X124988912Y-69853485D01*
X124921381Y-69630864D01*
X124811717Y-69425697D01*
X124664134Y-69245866D01*
X124484303Y-69098283D01*
X124279136Y-68988619D01*
X124056516Y-68921088D01*
X123825000Y-68898286D01*
X123593485Y-68921088D01*
X123370865Y-68988619D01*
X123165698Y-69098283D01*
X122985867Y-69245866D01*
X122838284Y-69425697D01*
X122728619Y-69630864D01*
X122661088Y-69853484D01*
X122644000Y-70026984D01*
X122466000Y-70026984D01*
X122448912Y-69853485D01*
X122381381Y-69630864D01*
X122271717Y-69425697D01*
X122124134Y-69245866D01*
X121944303Y-69098283D01*
X121739136Y-68988619D01*
X121516516Y-68921088D01*
X121285000Y-68898286D01*
X121053485Y-68921088D01*
X120830865Y-68988619D01*
X120625698Y-69098283D01*
X120445867Y-69245866D01*
X120298284Y-69425697D01*
X120188619Y-69630864D01*
X120121088Y-69853484D01*
X120104000Y-70026984D01*
X119926000Y-70026984D01*
X119908912Y-69853485D01*
X119841381Y-69630864D01*
X119731717Y-69425697D01*
X119584134Y-69245866D01*
X119404303Y-69098283D01*
X119199136Y-68988619D01*
X118976516Y-68921088D01*
X118745000Y-68898286D01*
X118513485Y-68921088D01*
X118290865Y-68988619D01*
X118085698Y-69098283D01*
X117905867Y-69245866D01*
X117758284Y-69425697D01*
X117648619Y-69630864D01*
X117581088Y-69853484D01*
X117564000Y-70026984D01*
X117386000Y-70026984D01*
X117368912Y-69853485D01*
X117301381Y-69630864D01*
X117191717Y-69425697D01*
X117044134Y-69245866D01*
X116864303Y-69098283D01*
X116659136Y-68988619D01*
X116436516Y-68921088D01*
X116205000Y-68898286D01*
X115973485Y-68921088D01*
X115750865Y-68988619D01*
X115545698Y-69098283D01*
X115365867Y-69245866D01*
X115218284Y-69425697D01*
X115108619Y-69630864D01*
X115041088Y-69853484D01*
X115024000Y-70026984D01*
X114846000Y-70026984D01*
X114828912Y-69853485D01*
X114761381Y-69630864D01*
X114651717Y-69425697D01*
X114504134Y-69245866D01*
X114324303Y-69098283D01*
X114119136Y-68988619D01*
X113896516Y-68921088D01*
X113665000Y-68898286D01*
X113433485Y-68921088D01*
X113210865Y-68988619D01*
X113005698Y-69098283D01*
X112825867Y-69245866D01*
X112678284Y-69425697D01*
X112568619Y-69630864D01*
X112501088Y-69853484D01*
X112484000Y-70026984D01*
X112306000Y-70026984D01*
X112288912Y-69853485D01*
X112221381Y-69630864D01*
X112111717Y-69425697D01*
X111964134Y-69245866D01*
X111784303Y-69098283D01*
X111579136Y-68988619D01*
X111356516Y-68921088D01*
X111125000Y-68898286D01*
X110893485Y-68921088D01*
X110670865Y-68988619D01*
X110465698Y-69098283D01*
X110285867Y-69245866D01*
X110138284Y-69425697D01*
X110028619Y-69630864D01*
X109961088Y-69853484D01*
X109944000Y-70026984D01*
X109766000Y-70026984D01*
X109748912Y-69853485D01*
X109681381Y-69630864D01*
X109571717Y-69425697D01*
X109424134Y-69245866D01*
X109244303Y-69098283D01*
X109039136Y-68988619D01*
X108816516Y-68921088D01*
X108585000Y-68898286D01*
X108353485Y-68921088D01*
X108130865Y-68988619D01*
X107925698Y-69098283D01*
X107745867Y-69245866D01*
X107598284Y-69425697D01*
X107488619Y-69630864D01*
X107421088Y-69853484D01*
X107404000Y-70026984D01*
X107226000Y-70026984D01*
X107208912Y-69853485D01*
X107141381Y-69630864D01*
X107031717Y-69425697D01*
X106884134Y-69245866D01*
X106704303Y-69098283D01*
X106499136Y-68988619D01*
X106276516Y-68921088D01*
X106045000Y-68898286D01*
X105813485Y-68921088D01*
X105590865Y-68988619D01*
X105385698Y-69098283D01*
X105205867Y-69245866D01*
X105058284Y-69425697D01*
X104948619Y-69630864D01*
X104881088Y-69853484D01*
X104864000Y-70026984D01*
X104686000Y-70026984D01*
X104668912Y-69853485D01*
X104601381Y-69630864D01*
X104491717Y-69425697D01*
X104344134Y-69245866D01*
X104164303Y-69098283D01*
X103959136Y-68988619D01*
X103736516Y-68921088D01*
X103505000Y-68898286D01*
X103273485Y-68921088D01*
X103050865Y-68988619D01*
X102845698Y-69098283D01*
X102665867Y-69245866D01*
X102518284Y-69425697D01*
X102408619Y-69630864D01*
X102341088Y-69853484D01*
X102324000Y-70026984D01*
X74776000Y-70026984D01*
X74776000Y-69111520D01*
X74790870Y-68959865D01*
X74828082Y-68836612D01*
X74888526Y-68722932D01*
X74969899Y-68623159D01*
X75069105Y-68541089D01*
X75182357Y-68479853D01*
X75305352Y-68441780D01*
X75455492Y-68426000D01*
X155852626Y-68426000D01*
X155873514Y-68423943D01*
X155880573Y-68423992D01*
X155887257Y-68423337D01*
X156109109Y-68400020D01*
X156151789Y-68391259D01*
X156194638Y-68383085D01*
X156201068Y-68381144D01*
X156414166Y-68315179D01*
X156454315Y-68298301D01*
X156494776Y-68281954D01*
X156500706Y-68278801D01*
X156696933Y-68172700D01*
X156733059Y-68148333D01*
X156769553Y-68124452D01*
X156774758Y-68120207D01*
X156946640Y-67978014D01*
X156977359Y-67947080D01*
X157008505Y-67916579D01*
X157012787Y-67911404D01*
X157153776Y-67738534D01*
X157177887Y-67702245D01*
X157202533Y-67666250D01*
X157205727Y-67660342D01*
X157310454Y-67463378D01*
X157327064Y-67423079D01*
X157344240Y-67383004D01*
X157346226Y-67376588D01*
X157402936Y-67188757D01*
X158408000Y-67188757D01*
X158408000Y-67431243D01*
X158455307Y-67669069D01*
X158548102Y-67893097D01*
X158682820Y-68094717D01*
X158854283Y-68266180D01*
X159055903Y-68400898D01*
X159279931Y-68493693D01*
X159517757Y-68541000D01*
X159760243Y-68541000D01*
X159998069Y-68493693D01*
X160222097Y-68400898D01*
X160423717Y-68266180D01*
X160595180Y-68094717D01*
X160729898Y-67893097D01*
X160822693Y-67669069D01*
X160870000Y-67431243D01*
X160870000Y-67188757D01*
X160822693Y-66950931D01*
X160729898Y-66726903D01*
X160595180Y-66525283D01*
X160423717Y-66353820D01*
X160222097Y-66219102D01*
X159998069Y-66126307D01*
X159760243Y-66079000D01*
X159517757Y-66079000D01*
X159279931Y-66126307D01*
X159055903Y-66219102D01*
X158854283Y-66353820D01*
X158682820Y-66525283D01*
X158548102Y-66726903D01*
X158455307Y-66950931D01*
X158408000Y-67188757D01*
X157402936Y-67188757D01*
X157410702Y-67163035D01*
X157419166Y-67120289D01*
X157428234Y-67077626D01*
X157428936Y-67070947D01*
X157450704Y-66848936D01*
X157453000Y-66825626D01*
X157453000Y-64566301D01*
X157478987Y-64443409D01*
X157529584Y-64325017D01*
X157602212Y-64218708D01*
X157694103Y-64128533D01*
X157801768Y-64057919D01*
X157921087Y-64009566D01*
X158059871Y-63982941D01*
X158119018Y-63980224D01*
X158406157Y-63980274D01*
G04 #@! TA.AperFunction,Conductor*
D19*
G36*
X158406157Y-63980274D02*
G01*
X158406157Y-65620000D01*
X158413513Y-65694689D01*
X158435299Y-65766508D01*
X158470678Y-65832696D01*
X158518289Y-65890711D01*
X158576304Y-65938322D01*
X158642492Y-65973701D01*
X158714311Y-65995487D01*
X158789000Y-66002843D01*
X160489000Y-66002843D01*
X160563689Y-65995487D01*
X160635508Y-65973701D01*
X160701696Y-65938322D01*
X160759711Y-65890711D01*
X160807322Y-65832696D01*
X160842701Y-65766508D01*
X160864487Y-65694689D01*
X160871843Y-65620000D01*
X160871843Y-63980705D01*
X162536437Y-63980996D01*
X162688135Y-63995870D01*
X162811388Y-64033082D01*
X162925068Y-64093526D01*
X163024841Y-64174899D01*
X163106911Y-64274105D01*
X163168147Y-64387357D01*
X163206220Y-64510352D01*
X163222000Y-64660492D01*
X163222001Y-76692154D01*
X163157316Y-76712673D01*
X163117245Y-76729847D01*
X163076937Y-76746461D01*
X163071035Y-76749653D01*
X163071032Y-76749654D01*
X163071029Y-76749656D01*
X162897268Y-76845183D01*
X162861307Y-76869807D01*
X162824989Y-76893936D01*
X162819814Y-76898217D01*
X162667916Y-77025674D01*
X162637415Y-77056820D01*
X162606480Y-77087540D01*
X162602235Y-77092745D01*
X162477986Y-77247279D01*
X162454114Y-77283759D01*
X162429736Y-77319902D01*
X162426583Y-77325832D01*
X162334717Y-77501555D01*
X162318401Y-77541939D01*
X162301492Y-77582164D01*
X162299551Y-77588594D01*
X162243566Y-77778815D01*
X162235398Y-77821632D01*
X162226631Y-77864344D01*
X162225976Y-77871028D01*
X162208005Y-78068500D01*
X162208309Y-78112094D01*
X162208005Y-78155688D01*
X162208660Y-78162372D01*
X162229387Y-78359573D01*
X162238148Y-78402254D01*
X162246322Y-78445100D01*
X162248263Y-78451529D01*
X162306898Y-78640951D01*
X162323786Y-78681127D01*
X162340123Y-78721562D01*
X162343276Y-78727492D01*
X162437587Y-78901915D01*
X162461968Y-78938061D01*
X162485837Y-78974536D01*
X162490081Y-78979741D01*
X162616475Y-79132525D01*
X162647410Y-79163245D01*
X162677911Y-79194391D01*
X162683085Y-79198672D01*
X162836747Y-79323996D01*
X162873047Y-79348113D01*
X162909030Y-79372751D01*
X162914937Y-79375945D01*
X163090015Y-79469036D01*
X163130323Y-79485650D01*
X163170394Y-79502824D01*
X163176810Y-79504810D01*
X163222000Y-79518453D01*
X163222001Y-88876470D01*
X163207130Y-89028135D01*
X163169918Y-89151388D01*
X163109474Y-89265067D01*
X163107843Y-89267067D01*
X163107843Y-87846000D01*
X163100487Y-87771311D01*
X163078701Y-87699492D01*
X163043322Y-87633304D01*
X162995711Y-87575289D01*
X162937696Y-87527678D01*
X162871508Y-87492299D01*
X162799689Y-87470513D01*
X162725000Y-87463157D01*
X161125000Y-87463157D01*
X161050311Y-87470513D01*
X160978492Y-87492299D01*
X160912304Y-87527678D01*
X160854289Y-87575289D01*
X160806678Y-87633304D01*
X160771299Y-87699492D01*
X160749513Y-87771311D01*
X160742157Y-87846000D01*
X160742157Y-89446000D01*
X160749513Y-89520689D01*
X160762045Y-89562000D01*
X160139185Y-89562000D01*
X160302342Y-89398843D01*
X160431588Y-89205413D01*
X160520614Y-88990485D01*
X160566000Y-88762318D01*
X160566000Y-88529682D01*
X160520614Y-88301515D01*
X160431588Y-88086587D01*
X160302342Y-87893157D01*
X160137843Y-87728658D01*
X159944413Y-87599412D01*
X159729485Y-87510386D01*
X159501318Y-87465000D01*
X159268682Y-87465000D01*
X159040515Y-87510386D01*
X158825587Y-87599412D01*
X158632157Y-87728658D01*
X158467658Y-87893157D01*
X158338412Y-88086587D01*
X158249386Y-88301515D01*
X158204000Y-88529682D01*
X158204000Y-88762318D01*
X158249386Y-88990485D01*
X158338412Y-89205413D01*
X158467658Y-89398843D01*
X158630815Y-89562000D01*
X157599185Y-89562000D01*
X157762342Y-89398843D01*
X157891588Y-89205413D01*
X157980614Y-88990485D01*
X158026000Y-88762318D01*
X158026000Y-88529682D01*
X157980614Y-88301515D01*
X157891588Y-88086587D01*
X157762342Y-87893157D01*
X157597843Y-87728658D01*
X157404413Y-87599412D01*
X157189485Y-87510386D01*
X156961318Y-87465000D01*
X156728682Y-87465000D01*
X156500515Y-87510386D01*
X156285587Y-87599412D01*
X156092157Y-87728658D01*
X155927658Y-87893157D01*
X155798412Y-88086587D01*
X155709386Y-88301515D01*
X155664000Y-88529682D01*
X155664000Y-88762318D01*
X155709386Y-88990485D01*
X155798412Y-89205413D01*
X155927658Y-89398843D01*
X156090815Y-89562000D01*
X155059185Y-89562000D01*
X155222342Y-89398843D01*
X155351588Y-89205413D01*
X155440614Y-88990485D01*
X155486000Y-88762318D01*
X155486000Y-88529682D01*
X155440614Y-88301515D01*
X155351588Y-88086587D01*
X155222342Y-87893157D01*
X155057843Y-87728658D01*
X154864413Y-87599412D01*
X154649485Y-87510386D01*
X154421318Y-87465000D01*
X154188682Y-87465000D01*
X153960515Y-87510386D01*
X153745587Y-87599412D01*
X153552157Y-87728658D01*
X153387658Y-87893157D01*
X153258412Y-88086587D01*
X153169386Y-88301515D01*
X153124000Y-88529682D01*
X153124000Y-88762318D01*
X153169386Y-88990485D01*
X153258412Y-89205413D01*
X153387658Y-89398843D01*
X153550815Y-89562000D01*
X152519185Y-89562000D01*
X152682342Y-89398843D01*
X152811588Y-89205413D01*
X152900614Y-88990485D01*
X152946000Y-88762318D01*
X152946000Y-88529682D01*
X152900614Y-88301515D01*
X152811588Y-88086587D01*
X152682342Y-87893157D01*
X152517843Y-87728658D01*
X152324413Y-87599412D01*
X152109485Y-87510386D01*
X151881318Y-87465000D01*
X151648682Y-87465000D01*
X151420515Y-87510386D01*
X151205587Y-87599412D01*
X151012157Y-87728658D01*
X150847658Y-87893157D01*
X150718412Y-88086587D01*
X150629386Y-88301515D01*
X150584000Y-88529682D01*
X150584000Y-88762318D01*
X150629386Y-88990485D01*
X150718412Y-89205413D01*
X150847658Y-89398843D01*
X151010815Y-89562000D01*
X149979185Y-89562000D01*
X150142342Y-89398843D01*
X150271588Y-89205413D01*
X150360614Y-88990485D01*
X150406000Y-88762318D01*
X150406000Y-88529682D01*
X150360614Y-88301515D01*
X150271588Y-88086587D01*
X150142342Y-87893157D01*
X149977843Y-87728658D01*
X149784413Y-87599412D01*
X149569485Y-87510386D01*
X149341318Y-87465000D01*
X149108682Y-87465000D01*
X148880515Y-87510386D01*
X148665587Y-87599412D01*
X148472157Y-87728658D01*
X148307658Y-87893157D01*
X148178412Y-88086587D01*
X148089386Y-88301515D01*
X148044000Y-88529682D01*
X148044000Y-88762318D01*
X148089386Y-88990485D01*
X148178412Y-89205413D01*
X148307658Y-89398843D01*
X148470815Y-89562000D01*
X147439185Y-89562000D01*
X147602342Y-89398843D01*
X147731588Y-89205413D01*
X147820614Y-88990485D01*
X147866000Y-88762318D01*
X147866000Y-88529682D01*
X147820614Y-88301515D01*
X147731588Y-88086587D01*
X147602342Y-87893157D01*
X147437843Y-87728658D01*
X147244413Y-87599412D01*
X147029485Y-87510386D01*
X146801318Y-87465000D01*
X146568682Y-87465000D01*
X146340515Y-87510386D01*
X146125587Y-87599412D01*
X145932157Y-87728658D01*
X145767658Y-87893157D01*
X145638412Y-88086587D01*
X145549386Y-88301515D01*
X145504000Y-88529682D01*
X145504000Y-88762318D01*
X145549386Y-88990485D01*
X145638412Y-89205413D01*
X145767658Y-89398843D01*
X145930815Y-89562000D01*
X144899185Y-89562000D01*
X145062342Y-89398843D01*
X145191588Y-89205413D01*
X145280614Y-88990485D01*
X145326000Y-88762318D01*
X145326000Y-88529682D01*
X145280614Y-88301515D01*
X145191588Y-88086587D01*
X145062342Y-87893157D01*
X144897843Y-87728658D01*
X144704413Y-87599412D01*
X144489485Y-87510386D01*
X144261318Y-87465000D01*
X144028682Y-87465000D01*
X143800515Y-87510386D01*
X143585587Y-87599412D01*
X143392157Y-87728658D01*
X143227658Y-87893157D01*
X143098412Y-88086587D01*
X143009386Y-88301515D01*
X142964000Y-88529682D01*
X142964000Y-88762318D01*
X143009386Y-88990485D01*
X143098412Y-89205413D01*
X143227658Y-89398843D01*
X143390815Y-89562000D01*
X142359185Y-89562000D01*
X142522342Y-89398843D01*
X142651588Y-89205413D01*
X142740614Y-88990485D01*
X142786000Y-88762318D01*
X142786000Y-88529682D01*
X142740614Y-88301515D01*
X142651588Y-88086587D01*
X142522342Y-87893157D01*
X142357843Y-87728658D01*
X142164413Y-87599412D01*
X141949485Y-87510386D01*
X141721318Y-87465000D01*
X141488682Y-87465000D01*
X141260515Y-87510386D01*
X141045587Y-87599412D01*
X140852157Y-87728658D01*
X140687658Y-87893157D01*
X140558412Y-88086587D01*
X140469386Y-88301515D01*
X140424000Y-88529682D01*
X140424000Y-88762318D01*
X140469386Y-88990485D01*
X140558412Y-89205413D01*
X140687658Y-89398843D01*
X140850815Y-89562000D01*
X139819185Y-89562000D01*
X139982342Y-89398843D01*
X140111588Y-89205413D01*
X140200614Y-88990485D01*
X140246000Y-88762318D01*
X140246000Y-88529682D01*
X140200614Y-88301515D01*
X140111588Y-88086587D01*
X139982342Y-87893157D01*
X139817843Y-87728658D01*
X139624413Y-87599412D01*
X139409485Y-87510386D01*
X139181318Y-87465000D01*
X138948682Y-87465000D01*
X138720515Y-87510386D01*
X138505587Y-87599412D01*
X138312157Y-87728658D01*
X138147658Y-87893157D01*
X138018412Y-88086587D01*
X137929386Y-88301515D01*
X137884000Y-88529682D01*
X137884000Y-88762318D01*
X137929386Y-88990485D01*
X138018412Y-89205413D01*
X138147658Y-89398843D01*
X138310815Y-89562000D01*
X137279185Y-89562000D01*
X137442342Y-89398843D01*
X137571588Y-89205413D01*
X137660614Y-88990485D01*
X137706000Y-88762318D01*
X137706000Y-88529682D01*
X137660614Y-88301515D01*
X137571588Y-88086587D01*
X137442342Y-87893157D01*
X137277843Y-87728658D01*
X137084413Y-87599412D01*
X136869485Y-87510386D01*
X136641318Y-87465000D01*
X136408682Y-87465000D01*
X136180515Y-87510386D01*
X135965587Y-87599412D01*
X135772157Y-87728658D01*
X135607658Y-87893157D01*
X135478412Y-88086587D01*
X135389386Y-88301515D01*
X135344000Y-88529682D01*
X135344000Y-88762318D01*
X135389386Y-88990485D01*
X135478412Y-89205413D01*
X135607658Y-89398843D01*
X135770815Y-89562000D01*
X134724878Y-89562000D01*
X134761003Y-89536278D01*
X134919777Y-89367781D01*
X135042628Y-89171546D01*
X135124835Y-88955115D01*
X135063908Y-88773000D01*
X134112000Y-88773000D01*
X134112000Y-88793000D01*
X133858000Y-88793000D01*
X133858000Y-88773000D01*
X132906092Y-88773000D01*
X132845165Y-88955115D01*
X132927372Y-89171546D01*
X133050223Y-89367781D01*
X133208997Y-89536278D01*
X133245122Y-89562000D01*
X132199185Y-89562000D01*
X132362342Y-89398843D01*
X132491588Y-89205413D01*
X132580614Y-88990485D01*
X132626000Y-88762318D01*
X132626000Y-88529682D01*
X132587650Y-88336885D01*
X132845165Y-88336885D01*
X132906092Y-88519000D01*
X133858000Y-88519000D01*
X133858000Y-87567703D01*
X134112000Y-87567703D01*
X134112000Y-88519000D01*
X135063908Y-88519000D01*
X135124835Y-88336885D01*
X135042628Y-88120454D01*
X134919777Y-87924219D01*
X134761003Y-87755722D01*
X134572408Y-87621438D01*
X134361239Y-87526527D01*
X134294114Y-87506171D01*
X134112000Y-87567703D01*
X133858000Y-87567703D01*
X133675886Y-87506171D01*
X133608761Y-87526527D01*
X133397592Y-87621438D01*
X133208997Y-87755722D01*
X133050223Y-87924219D01*
X132927372Y-88120454D01*
X132845165Y-88336885D01*
X132587650Y-88336885D01*
X132580614Y-88301515D01*
X132491588Y-88086587D01*
X132362342Y-87893157D01*
X132197843Y-87728658D01*
X132004413Y-87599412D01*
X131789485Y-87510386D01*
X131561318Y-87465000D01*
X131328682Y-87465000D01*
X131100515Y-87510386D01*
X130885587Y-87599412D01*
X130692157Y-87728658D01*
X130527658Y-87893157D01*
X130398412Y-88086587D01*
X130309386Y-88301515D01*
X130264000Y-88529682D01*
X130264000Y-88762318D01*
X130309386Y-88990485D01*
X130398412Y-89205413D01*
X130527658Y-89398843D01*
X130690815Y-89562000D01*
X129659185Y-89562000D01*
X129822342Y-89398843D01*
X129951588Y-89205413D01*
X130040614Y-88990485D01*
X130086000Y-88762318D01*
X130086000Y-88529682D01*
X130040614Y-88301515D01*
X129951588Y-88086587D01*
X129822342Y-87893157D01*
X129657843Y-87728658D01*
X129464413Y-87599412D01*
X129249485Y-87510386D01*
X129021318Y-87465000D01*
X128788682Y-87465000D01*
X128560515Y-87510386D01*
X128345587Y-87599412D01*
X128152157Y-87728658D01*
X127987658Y-87893157D01*
X127858412Y-88086587D01*
X127769386Y-88301515D01*
X127724000Y-88529682D01*
X127724000Y-88762318D01*
X127769386Y-88990485D01*
X127858412Y-89205413D01*
X127987658Y-89398843D01*
X128150815Y-89562000D01*
X127119185Y-89562000D01*
X127282342Y-89398843D01*
X127411588Y-89205413D01*
X127500614Y-88990485D01*
X127546000Y-88762318D01*
X127546000Y-88529682D01*
X127500614Y-88301515D01*
X127411588Y-88086587D01*
X127282342Y-87893157D01*
X127117843Y-87728658D01*
X126924413Y-87599412D01*
X126709485Y-87510386D01*
X126481318Y-87465000D01*
X126248682Y-87465000D01*
X126020515Y-87510386D01*
X125805587Y-87599412D01*
X125612157Y-87728658D01*
X125447658Y-87893157D01*
X125318412Y-88086587D01*
X125229386Y-88301515D01*
X125184000Y-88529682D01*
X125184000Y-88762318D01*
X125229386Y-88990485D01*
X125318412Y-89205413D01*
X125447658Y-89398843D01*
X125610815Y-89562000D01*
X124579185Y-89562000D01*
X124742342Y-89398843D01*
X124871588Y-89205413D01*
X124960614Y-88990485D01*
X125006000Y-88762318D01*
X125006000Y-88529682D01*
X124960614Y-88301515D01*
X124871588Y-88086587D01*
X124742342Y-87893157D01*
X124577843Y-87728658D01*
X124384413Y-87599412D01*
X124169485Y-87510386D01*
X123941318Y-87465000D01*
X123708682Y-87465000D01*
X123480515Y-87510386D01*
X123265587Y-87599412D01*
X123072157Y-87728658D01*
X122907658Y-87893157D01*
X122778412Y-88086587D01*
X122689386Y-88301515D01*
X122644000Y-88529682D01*
X122644000Y-88762318D01*
X122689386Y-88990485D01*
X122778412Y-89205413D01*
X122907658Y-89398843D01*
X123070815Y-89562000D01*
X122039185Y-89562000D01*
X122202342Y-89398843D01*
X122331588Y-89205413D01*
X122420614Y-88990485D01*
X122466000Y-88762318D01*
X122466000Y-88529682D01*
X122420614Y-88301515D01*
X122331588Y-88086587D01*
X122202342Y-87893157D01*
X122037843Y-87728658D01*
X121844413Y-87599412D01*
X121629485Y-87510386D01*
X121401318Y-87465000D01*
X121168682Y-87465000D01*
X120940515Y-87510386D01*
X120725587Y-87599412D01*
X120532157Y-87728658D01*
X120367658Y-87893157D01*
X120238412Y-88086587D01*
X120149386Y-88301515D01*
X120104000Y-88529682D01*
X120104000Y-88762318D01*
X120149386Y-88990485D01*
X120238412Y-89205413D01*
X120367658Y-89398843D01*
X120530815Y-89562000D01*
X119499185Y-89562000D01*
X119662342Y-89398843D01*
X119791588Y-89205413D01*
X119880614Y-88990485D01*
X119926000Y-88762318D01*
X119926000Y-88529682D01*
X119880614Y-88301515D01*
X119791588Y-88086587D01*
X119662342Y-87893157D01*
X119497843Y-87728658D01*
X119304413Y-87599412D01*
X119089485Y-87510386D01*
X118861318Y-87465000D01*
X118628682Y-87465000D01*
X118400515Y-87510386D01*
X118185587Y-87599412D01*
X117992157Y-87728658D01*
X117827658Y-87893157D01*
X117698412Y-88086587D01*
X117609386Y-88301515D01*
X117564000Y-88529682D01*
X117564000Y-88762318D01*
X117609386Y-88990485D01*
X117698412Y-89205413D01*
X117827658Y-89398843D01*
X117990815Y-89562000D01*
X116959185Y-89562000D01*
X117122342Y-89398843D01*
X117251588Y-89205413D01*
X117340614Y-88990485D01*
X117386000Y-88762318D01*
X117386000Y-88529682D01*
X117340614Y-88301515D01*
X117251588Y-88086587D01*
X117122342Y-87893157D01*
X116957843Y-87728658D01*
X116764413Y-87599412D01*
X116549485Y-87510386D01*
X116321318Y-87465000D01*
X116088682Y-87465000D01*
X115860515Y-87510386D01*
X115645587Y-87599412D01*
X115452157Y-87728658D01*
X115287658Y-87893157D01*
X115158412Y-88086587D01*
X115069386Y-88301515D01*
X115024000Y-88529682D01*
X115024000Y-88762318D01*
X115069386Y-88990485D01*
X115158412Y-89205413D01*
X115287658Y-89398843D01*
X115450815Y-89562000D01*
X114419185Y-89562000D01*
X114582342Y-89398843D01*
X114711588Y-89205413D01*
X114800614Y-88990485D01*
X114846000Y-88762318D01*
X114846000Y-88529682D01*
X114800614Y-88301515D01*
X114711588Y-88086587D01*
X114582342Y-87893157D01*
X114417843Y-87728658D01*
X114224413Y-87599412D01*
X114009485Y-87510386D01*
X113781318Y-87465000D01*
X113548682Y-87465000D01*
X113320515Y-87510386D01*
X113105587Y-87599412D01*
X112912157Y-87728658D01*
X112747658Y-87893157D01*
X112618412Y-88086587D01*
X112529386Y-88301515D01*
X112484000Y-88529682D01*
X112484000Y-88762318D01*
X112529386Y-88990485D01*
X112618412Y-89205413D01*
X112747658Y-89398843D01*
X112910815Y-89562000D01*
X111879185Y-89562000D01*
X112042342Y-89398843D01*
X112171588Y-89205413D01*
X112260614Y-88990485D01*
X112306000Y-88762318D01*
X112306000Y-88529682D01*
X112260614Y-88301515D01*
X112171588Y-88086587D01*
X112042342Y-87893157D01*
X111877843Y-87728658D01*
X111684413Y-87599412D01*
X111469485Y-87510386D01*
X111241318Y-87465000D01*
X111008682Y-87465000D01*
X110780515Y-87510386D01*
X110565587Y-87599412D01*
X110372157Y-87728658D01*
X110207658Y-87893157D01*
X110078412Y-88086587D01*
X109989386Y-88301515D01*
X109944000Y-88529682D01*
X109944000Y-88762318D01*
X109989386Y-88990485D01*
X110078412Y-89205413D01*
X110207658Y-89398843D01*
X110370815Y-89562000D01*
X109339185Y-89562000D01*
X109502342Y-89398843D01*
X109631588Y-89205413D01*
X109720614Y-88990485D01*
X109766000Y-88762318D01*
X109766000Y-88529682D01*
X109720614Y-88301515D01*
X109631588Y-88086587D01*
X109502342Y-87893157D01*
X109337843Y-87728658D01*
X109144413Y-87599412D01*
X108929485Y-87510386D01*
X108701318Y-87465000D01*
X108468682Y-87465000D01*
X108240515Y-87510386D01*
X108025587Y-87599412D01*
X107832157Y-87728658D01*
X107667658Y-87893157D01*
X107538412Y-88086587D01*
X107449386Y-88301515D01*
X107404000Y-88529682D01*
X107404000Y-88762318D01*
X107449386Y-88990485D01*
X107538412Y-89205413D01*
X107667658Y-89398843D01*
X107830815Y-89562000D01*
X106799185Y-89562000D01*
X106962342Y-89398843D01*
X107091588Y-89205413D01*
X107180614Y-88990485D01*
X107226000Y-88762318D01*
X107226000Y-88529682D01*
X107180614Y-88301515D01*
X107091588Y-88086587D01*
X106962342Y-87893157D01*
X106797843Y-87728658D01*
X106604413Y-87599412D01*
X106389485Y-87510386D01*
X106161318Y-87465000D01*
X105928682Y-87465000D01*
X105700515Y-87510386D01*
X105485587Y-87599412D01*
X105292157Y-87728658D01*
X105127658Y-87893157D01*
X104998412Y-88086587D01*
X104909386Y-88301515D01*
X104864000Y-88529682D01*
X104864000Y-88762318D01*
X104909386Y-88990485D01*
X104998412Y-89205413D01*
X105127658Y-89398843D01*
X105290815Y-89562000D01*
X104259185Y-89562000D01*
X104422342Y-89398843D01*
X104551588Y-89205413D01*
X104640614Y-88990485D01*
X104686000Y-88762318D01*
X104686000Y-88529682D01*
X104640614Y-88301515D01*
X104551588Y-88086587D01*
X104422342Y-87893157D01*
X104257843Y-87728658D01*
X104064413Y-87599412D01*
X103849485Y-87510386D01*
X103621318Y-87465000D01*
X103388682Y-87465000D01*
X103160515Y-87510386D01*
X102945587Y-87599412D01*
X102752157Y-87728658D01*
X102587658Y-87893157D01*
X102458412Y-88086587D01*
X102369386Y-88301515D01*
X102324000Y-88529682D01*
X102324000Y-88762318D01*
X102369386Y-88990485D01*
X102458412Y-89205413D01*
X102587658Y-89398843D01*
X102733385Y-89544570D01*
X102618612Y-89509918D01*
X102504933Y-89449474D01*
X102405155Y-89368097D01*
X102323090Y-89268897D01*
X102261852Y-89155640D01*
X102223780Y-89032648D01*
X102208000Y-88882508D01*
X102208000Y-86336374D01*
X102205943Y-86315486D01*
X102205992Y-86308427D01*
X102205337Y-86301743D01*
X102182020Y-86079891D01*
X102173254Y-86037186D01*
X102165085Y-85994361D01*
X102163144Y-85987932D01*
X102097179Y-85774834D01*
X102080292Y-85734662D01*
X102063954Y-85694224D01*
X102060801Y-85688294D01*
X101954701Y-85492067D01*
X101930321Y-85455923D01*
X101906452Y-85419447D01*
X101902207Y-85414243D01*
X101902206Y-85414241D01*
X101902202Y-85414237D01*
X101780385Y-85266984D01*
X102324000Y-85266984D01*
X102324000Y-86183015D01*
X102341088Y-86356515D01*
X102408619Y-86579135D01*
X102518283Y-86784302D01*
X102665866Y-86964134D01*
X102845697Y-87111717D01*
X103050864Y-87221381D01*
X103273484Y-87288912D01*
X103505000Y-87311714D01*
X103736515Y-87288912D01*
X103959135Y-87221381D01*
X104164302Y-87111717D01*
X104344134Y-86964134D01*
X104491717Y-86784303D01*
X104601381Y-86579136D01*
X104668912Y-86356516D01*
X104686000Y-86183016D01*
X104686000Y-85266985D01*
X104686000Y-85266984D01*
X104864000Y-85266984D01*
X104864000Y-86183015D01*
X104881088Y-86356515D01*
X104948619Y-86579135D01*
X105058283Y-86784302D01*
X105205866Y-86964134D01*
X105385697Y-87111717D01*
X105590864Y-87221381D01*
X105813484Y-87288912D01*
X106045000Y-87311714D01*
X106276515Y-87288912D01*
X106499135Y-87221381D01*
X106704302Y-87111717D01*
X106884134Y-86964134D01*
X107031717Y-86784303D01*
X107141381Y-86579136D01*
X107208912Y-86356516D01*
X107226000Y-86183016D01*
X107226000Y-85266985D01*
X107226000Y-85266984D01*
X107404000Y-85266984D01*
X107404000Y-86183015D01*
X107421088Y-86356515D01*
X107488619Y-86579135D01*
X107598283Y-86784302D01*
X107745866Y-86964134D01*
X107925697Y-87111717D01*
X108130864Y-87221381D01*
X108353484Y-87288912D01*
X108585000Y-87311714D01*
X108816515Y-87288912D01*
X109039135Y-87221381D01*
X109244302Y-87111717D01*
X109424134Y-86964134D01*
X109571717Y-86784303D01*
X109681381Y-86579136D01*
X109748912Y-86356516D01*
X109766000Y-86183016D01*
X109766000Y-85266985D01*
X109766000Y-85266984D01*
X109944000Y-85266984D01*
X109944000Y-86183015D01*
X109961088Y-86356515D01*
X110028619Y-86579135D01*
X110138283Y-86784302D01*
X110285866Y-86964134D01*
X110465697Y-87111717D01*
X110670864Y-87221381D01*
X110893484Y-87288912D01*
X111125000Y-87311714D01*
X111356515Y-87288912D01*
X111579135Y-87221381D01*
X111784302Y-87111717D01*
X111964134Y-86964134D01*
X112111717Y-86784303D01*
X112221381Y-86579136D01*
X112288912Y-86356516D01*
X112306000Y-86183016D01*
X112306000Y-85266985D01*
X112306000Y-85266984D01*
X112484000Y-85266984D01*
X112484000Y-86183015D01*
X112501088Y-86356515D01*
X112568619Y-86579135D01*
X112678283Y-86784302D01*
X112825866Y-86964134D01*
X113005697Y-87111717D01*
X113210864Y-87221381D01*
X113433484Y-87288912D01*
X113665000Y-87311714D01*
X113896515Y-87288912D01*
X114119135Y-87221381D01*
X114324302Y-87111717D01*
X114504134Y-86964134D01*
X114651717Y-86784303D01*
X114761381Y-86579136D01*
X114828912Y-86356516D01*
X114846000Y-86183016D01*
X114846000Y-85266985D01*
X114846000Y-85266984D01*
X115024000Y-85266984D01*
X115024000Y-86183015D01*
X115041088Y-86356515D01*
X115108619Y-86579135D01*
X115218283Y-86784302D01*
X115365866Y-86964134D01*
X115545697Y-87111717D01*
X115750864Y-87221381D01*
X115973484Y-87288912D01*
X116205000Y-87311714D01*
X116436515Y-87288912D01*
X116659135Y-87221381D01*
X116864302Y-87111717D01*
X117044134Y-86964134D01*
X117191717Y-86784303D01*
X117301381Y-86579136D01*
X117368912Y-86356516D01*
X117386000Y-86183016D01*
X117386000Y-85266985D01*
X117386000Y-85266984D01*
X117564000Y-85266984D01*
X117564000Y-86183015D01*
X117581088Y-86356515D01*
X117648619Y-86579135D01*
X117758283Y-86784302D01*
X117905866Y-86964134D01*
X118085697Y-87111717D01*
X118290864Y-87221381D01*
X118513484Y-87288912D01*
X118745000Y-87311714D01*
X118976515Y-87288912D01*
X119199135Y-87221381D01*
X119404302Y-87111717D01*
X119584134Y-86964134D01*
X119731717Y-86784303D01*
X119841381Y-86579136D01*
X119908912Y-86356516D01*
X119926000Y-86183016D01*
X119926000Y-85266985D01*
X119926000Y-85266984D01*
X120104000Y-85266984D01*
X120104000Y-86183015D01*
X120121088Y-86356515D01*
X120188619Y-86579135D01*
X120298283Y-86784302D01*
X120445866Y-86964134D01*
X120625697Y-87111717D01*
X120830864Y-87221381D01*
X121053484Y-87288912D01*
X121285000Y-87311714D01*
X121516515Y-87288912D01*
X121739135Y-87221381D01*
X121944302Y-87111717D01*
X122124134Y-86964134D01*
X122271717Y-86784303D01*
X122381381Y-86579136D01*
X122448912Y-86356516D01*
X122466000Y-86183016D01*
X122466000Y-85266985D01*
X122466000Y-85266984D01*
X122644000Y-85266984D01*
X122644000Y-86183015D01*
X122661088Y-86356515D01*
X122728619Y-86579135D01*
X122838283Y-86784302D01*
X122985866Y-86964134D01*
X123165697Y-87111717D01*
X123370864Y-87221381D01*
X123593484Y-87288912D01*
X123825000Y-87311714D01*
X124056515Y-87288912D01*
X124279135Y-87221381D01*
X124484302Y-87111717D01*
X124664134Y-86964134D01*
X124811717Y-86784303D01*
X124921381Y-86579136D01*
X124988912Y-86356516D01*
X125006000Y-86183016D01*
X125006000Y-85266985D01*
X125006000Y-85266984D01*
X125184000Y-85266984D01*
X125184000Y-86183015D01*
X125201088Y-86356515D01*
X125268619Y-86579135D01*
X125378283Y-86784302D01*
X125525866Y-86964134D01*
X125705697Y-87111717D01*
X125910864Y-87221381D01*
X126133484Y-87288912D01*
X126365000Y-87311714D01*
X126596515Y-87288912D01*
X126819135Y-87221381D01*
X127024302Y-87111717D01*
X127204134Y-86964134D01*
X127351717Y-86784303D01*
X127461381Y-86579136D01*
X127528912Y-86356516D01*
X127546000Y-86183016D01*
X127546000Y-85266985D01*
X127546000Y-85266984D01*
X127724000Y-85266984D01*
X127724000Y-86183015D01*
X127741088Y-86356515D01*
X127808619Y-86579135D01*
X127918283Y-86784302D01*
X128065866Y-86964134D01*
X128245697Y-87111717D01*
X128450864Y-87221381D01*
X128673484Y-87288912D01*
X128905000Y-87311714D01*
X129136515Y-87288912D01*
X129359135Y-87221381D01*
X129564302Y-87111717D01*
X129744134Y-86964134D01*
X129891717Y-86784303D01*
X130001381Y-86579136D01*
X130068912Y-86356516D01*
X130086000Y-86183016D01*
X130086000Y-85266985D01*
X130086000Y-85266984D01*
X130264000Y-85266984D01*
X130264000Y-86183015D01*
X130281088Y-86356515D01*
X130348619Y-86579135D01*
X130458283Y-86784302D01*
X130605866Y-86964134D01*
X130785697Y-87111717D01*
X130990864Y-87221381D01*
X131213484Y-87288912D01*
X131445000Y-87311714D01*
X131676515Y-87288912D01*
X131899135Y-87221381D01*
X132104302Y-87111717D01*
X132284134Y-86964134D01*
X132431717Y-86784303D01*
X132541381Y-86579136D01*
X132608912Y-86356516D01*
X132626000Y-86183016D01*
X132626000Y-85852000D01*
X132804000Y-85852000D01*
X132804000Y-86252000D01*
X132851469Y-86479961D01*
X132942499Y-86694281D01*
X133073592Y-86886724D01*
X133239709Y-87049895D01*
X133434468Y-87177522D01*
X133650383Y-87264702D01*
X133675886Y-87264829D01*
X133858000Y-87203297D01*
X133858000Y-85852000D01*
X134112000Y-85852000D01*
X134112000Y-87203297D01*
X134294114Y-87264829D01*
X134319617Y-87264702D01*
X134535532Y-87177522D01*
X134730291Y-87049895D01*
X134896408Y-86886724D01*
X135027501Y-86694281D01*
X135118531Y-86479961D01*
X135166000Y-86252000D01*
X135166000Y-85852000D01*
X134112000Y-85852000D01*
X133858000Y-85852000D01*
X132804000Y-85852000D01*
X132626000Y-85852000D01*
X132626000Y-85266985D01*
X132619206Y-85198000D01*
X132804000Y-85198000D01*
X132804000Y-85598000D01*
X133858000Y-85598000D01*
X133858000Y-84246703D01*
X134112000Y-84246703D01*
X134112000Y-85598000D01*
X135166000Y-85598000D01*
X135166000Y-85266984D01*
X135344000Y-85266984D01*
X135344000Y-86183015D01*
X135361088Y-86356515D01*
X135428619Y-86579135D01*
X135538283Y-86784302D01*
X135685866Y-86964134D01*
X135865697Y-87111717D01*
X136070864Y-87221381D01*
X136293484Y-87288912D01*
X136525000Y-87311714D01*
X136756515Y-87288912D01*
X136979135Y-87221381D01*
X137184302Y-87111717D01*
X137364134Y-86964134D01*
X137511717Y-86784303D01*
X137621381Y-86579136D01*
X137688912Y-86356516D01*
X137706000Y-86183016D01*
X137706000Y-85266985D01*
X137706000Y-85266984D01*
X137884000Y-85266984D01*
X137884000Y-86183015D01*
X137901088Y-86356515D01*
X137968619Y-86579135D01*
X138078283Y-86784302D01*
X138225866Y-86964134D01*
X138405697Y-87111717D01*
X138610864Y-87221381D01*
X138833484Y-87288912D01*
X139065000Y-87311714D01*
X139296515Y-87288912D01*
X139519135Y-87221381D01*
X139724302Y-87111717D01*
X139904134Y-86964134D01*
X140051717Y-86784303D01*
X140161381Y-86579136D01*
X140228912Y-86356516D01*
X140246000Y-86183016D01*
X140246000Y-85266985D01*
X140246000Y-85266984D01*
X140424000Y-85266984D01*
X140424000Y-86183015D01*
X140441088Y-86356515D01*
X140508619Y-86579135D01*
X140618283Y-86784302D01*
X140765866Y-86964134D01*
X140945697Y-87111717D01*
X141150864Y-87221381D01*
X141373484Y-87288912D01*
X141605000Y-87311714D01*
X141836515Y-87288912D01*
X142059135Y-87221381D01*
X142264302Y-87111717D01*
X142444134Y-86964134D01*
X142591717Y-86784303D01*
X142701381Y-86579136D01*
X142768912Y-86356516D01*
X142786000Y-86183016D01*
X142786000Y-85266985D01*
X142786000Y-85266984D01*
X142964000Y-85266984D01*
X142964000Y-86183015D01*
X142981088Y-86356515D01*
X143048619Y-86579135D01*
X143158283Y-86784302D01*
X143305866Y-86964134D01*
X143485697Y-87111717D01*
X143690864Y-87221381D01*
X143913484Y-87288912D01*
X144145000Y-87311714D01*
X144376515Y-87288912D01*
X144599135Y-87221381D01*
X144804302Y-87111717D01*
X144984134Y-86964134D01*
X145131717Y-86784303D01*
X145241381Y-86579136D01*
X145308912Y-86356516D01*
X145326000Y-86183016D01*
X145326000Y-85266985D01*
X145326000Y-85266984D01*
X145504000Y-85266984D01*
X145504000Y-86183015D01*
X145521088Y-86356515D01*
X145588619Y-86579135D01*
X145698283Y-86784302D01*
X145845866Y-86964134D01*
X146025697Y-87111717D01*
X146230864Y-87221381D01*
X146453484Y-87288912D01*
X146685000Y-87311714D01*
X146916515Y-87288912D01*
X147139135Y-87221381D01*
X147344302Y-87111717D01*
X147524134Y-86964134D01*
X147671717Y-86784303D01*
X147781381Y-86579136D01*
X147848912Y-86356516D01*
X147866000Y-86183016D01*
X147866000Y-85266985D01*
X147866000Y-85266984D01*
X148044000Y-85266984D01*
X148044000Y-86183015D01*
X148061088Y-86356515D01*
X148128619Y-86579135D01*
X148238283Y-86784302D01*
X148385866Y-86964134D01*
X148565697Y-87111717D01*
X148770864Y-87221381D01*
X148993484Y-87288912D01*
X149225000Y-87311714D01*
X149456515Y-87288912D01*
X149679135Y-87221381D01*
X149884302Y-87111717D01*
X150064134Y-86964134D01*
X150211717Y-86784303D01*
X150321381Y-86579136D01*
X150388912Y-86356516D01*
X150406000Y-86183016D01*
X150406000Y-85266985D01*
X150406000Y-85266984D01*
X150584000Y-85266984D01*
X150584000Y-86183015D01*
X150601088Y-86356515D01*
X150668619Y-86579135D01*
X150778283Y-86784302D01*
X150925866Y-86964134D01*
X151105697Y-87111717D01*
X151310864Y-87221381D01*
X151533484Y-87288912D01*
X151765000Y-87311714D01*
X151996515Y-87288912D01*
X152219135Y-87221381D01*
X152424302Y-87111717D01*
X152604134Y-86964134D01*
X152751717Y-86784303D01*
X152861381Y-86579136D01*
X152928912Y-86356516D01*
X152946000Y-86183016D01*
X152946000Y-85266985D01*
X152946000Y-85266984D01*
X153124000Y-85266984D01*
X153124000Y-86183015D01*
X153141088Y-86356515D01*
X153208619Y-86579135D01*
X153318283Y-86784302D01*
X153465866Y-86964134D01*
X153645697Y-87111717D01*
X153850864Y-87221381D01*
X154073484Y-87288912D01*
X154305000Y-87311714D01*
X154536515Y-87288912D01*
X154759135Y-87221381D01*
X154964302Y-87111717D01*
X155144134Y-86964134D01*
X155291717Y-86784303D01*
X155401381Y-86579136D01*
X155468912Y-86356516D01*
X155486000Y-86183016D01*
X155486000Y-85266985D01*
X155486000Y-85266984D01*
X155664000Y-85266984D01*
X155664000Y-86183015D01*
X155681088Y-86356515D01*
X155748619Y-86579135D01*
X155858283Y-86784302D01*
X156005866Y-86964134D01*
X156185697Y-87111717D01*
X156390864Y-87221381D01*
X156613484Y-87288912D01*
X156845000Y-87311714D01*
X157076515Y-87288912D01*
X157299135Y-87221381D01*
X157504302Y-87111717D01*
X157684134Y-86964134D01*
X157831717Y-86784303D01*
X157941381Y-86579136D01*
X158008912Y-86356516D01*
X158026000Y-86183016D01*
X158026000Y-85266985D01*
X158026000Y-85266984D01*
X158204000Y-85266984D01*
X158204000Y-86183015D01*
X158221088Y-86356515D01*
X158288619Y-86579135D01*
X158398283Y-86784302D01*
X158545866Y-86964134D01*
X158725697Y-87111717D01*
X158930864Y-87221381D01*
X159153484Y-87288912D01*
X159385000Y-87311714D01*
X159616515Y-87288912D01*
X159839135Y-87221381D01*
X160044302Y-87111717D01*
X160224134Y-86964134D01*
X160371717Y-86784303D01*
X160481381Y-86579136D01*
X160548912Y-86356516D01*
X160566000Y-86183016D01*
X160566000Y-85266985D01*
X160566000Y-85266984D01*
X160744000Y-85266984D01*
X160744000Y-86183015D01*
X160761088Y-86356515D01*
X160828619Y-86579135D01*
X160938283Y-86784302D01*
X161085866Y-86964134D01*
X161265697Y-87111717D01*
X161470864Y-87221381D01*
X161693484Y-87288912D01*
X161925000Y-87311714D01*
X162156515Y-87288912D01*
X162379135Y-87221381D01*
X162584302Y-87111717D01*
X162764134Y-86964134D01*
X162911717Y-86784303D01*
X163021381Y-86579136D01*
X163088912Y-86356516D01*
X163106000Y-86183016D01*
X163106000Y-85266985D01*
X163088912Y-85093485D01*
X163021381Y-84870864D01*
X162911717Y-84665697D01*
X162764134Y-84485866D01*
X162584303Y-84338283D01*
X162379136Y-84228619D01*
X162156516Y-84161088D01*
X161925000Y-84138286D01*
X161693485Y-84161088D01*
X161470865Y-84228619D01*
X161265698Y-84338283D01*
X161085867Y-84485866D01*
X160938284Y-84665697D01*
X160828619Y-84870864D01*
X160761088Y-85093484D01*
X160744000Y-85266984D01*
X160566000Y-85266984D01*
X160548912Y-85093485D01*
X160481381Y-84870864D01*
X160371717Y-84665697D01*
X160224134Y-84485866D01*
X160044303Y-84338283D01*
X159839136Y-84228619D01*
X159616516Y-84161088D01*
X159385000Y-84138286D01*
X159153485Y-84161088D01*
X158930865Y-84228619D01*
X158725698Y-84338283D01*
X158545867Y-84485866D01*
X158398284Y-84665697D01*
X158288619Y-84870864D01*
X158221088Y-85093484D01*
X158204000Y-85266984D01*
X158026000Y-85266984D01*
X158008912Y-85093485D01*
X157941381Y-84870864D01*
X157831717Y-84665697D01*
X157684134Y-84485866D01*
X157504303Y-84338283D01*
X157299136Y-84228619D01*
X157076516Y-84161088D01*
X156845000Y-84138286D01*
X156613485Y-84161088D01*
X156390865Y-84228619D01*
X156185698Y-84338283D01*
X156005867Y-84485866D01*
X155858284Y-84665697D01*
X155748619Y-84870864D01*
X155681088Y-85093484D01*
X155664000Y-85266984D01*
X155486000Y-85266984D01*
X155468912Y-85093485D01*
X155401381Y-84870864D01*
X155291717Y-84665697D01*
X155144134Y-84485866D01*
X154964303Y-84338283D01*
X154759136Y-84228619D01*
X154536516Y-84161088D01*
X154305000Y-84138286D01*
X154073485Y-84161088D01*
X153850865Y-84228619D01*
X153645698Y-84338283D01*
X153465867Y-84485866D01*
X153318284Y-84665697D01*
X153208619Y-84870864D01*
X153141088Y-85093484D01*
X153124000Y-85266984D01*
X152946000Y-85266984D01*
X152928912Y-85093485D01*
X152861381Y-84870864D01*
X152751717Y-84665697D01*
X152604134Y-84485866D01*
X152424303Y-84338283D01*
X152219136Y-84228619D01*
X151996516Y-84161088D01*
X151765000Y-84138286D01*
X151533485Y-84161088D01*
X151310865Y-84228619D01*
X151105698Y-84338283D01*
X150925867Y-84485866D01*
X150778284Y-84665697D01*
X150668619Y-84870864D01*
X150601088Y-85093484D01*
X150584000Y-85266984D01*
X150406000Y-85266984D01*
X150388912Y-85093485D01*
X150321381Y-84870864D01*
X150211717Y-84665697D01*
X150064134Y-84485866D01*
X149884303Y-84338283D01*
X149679136Y-84228619D01*
X149456516Y-84161088D01*
X149225000Y-84138286D01*
X148993485Y-84161088D01*
X148770865Y-84228619D01*
X148565698Y-84338283D01*
X148385867Y-84485866D01*
X148238284Y-84665697D01*
X148128619Y-84870864D01*
X148061088Y-85093484D01*
X148044000Y-85266984D01*
X147866000Y-85266984D01*
X147848912Y-85093485D01*
X147781381Y-84870864D01*
X147671717Y-84665697D01*
X147524134Y-84485866D01*
X147344303Y-84338283D01*
X147139136Y-84228619D01*
X146916516Y-84161088D01*
X146685000Y-84138286D01*
X146453485Y-84161088D01*
X146230865Y-84228619D01*
X146025698Y-84338283D01*
X145845867Y-84485866D01*
X145698284Y-84665697D01*
X145588619Y-84870864D01*
X145521088Y-85093484D01*
X145504000Y-85266984D01*
X145326000Y-85266984D01*
X145308912Y-85093485D01*
X145241381Y-84870864D01*
X145131717Y-84665697D01*
X144984134Y-84485866D01*
X144804303Y-84338283D01*
X144599136Y-84228619D01*
X144376516Y-84161088D01*
X144145000Y-84138286D01*
X143913485Y-84161088D01*
X143690865Y-84228619D01*
X143485698Y-84338283D01*
X143305867Y-84485866D01*
X143158284Y-84665697D01*
X143048619Y-84870864D01*
X142981088Y-85093484D01*
X142964000Y-85266984D01*
X142786000Y-85266984D01*
X142768912Y-85093485D01*
X142701381Y-84870864D01*
X142591717Y-84665697D01*
X142444134Y-84485866D01*
X142264303Y-84338283D01*
X142059136Y-84228619D01*
X141836516Y-84161088D01*
X141605000Y-84138286D01*
X141373485Y-84161088D01*
X141150865Y-84228619D01*
X140945698Y-84338283D01*
X140765867Y-84485866D01*
X140618284Y-84665697D01*
X140508619Y-84870864D01*
X140441088Y-85093484D01*
X140424000Y-85266984D01*
X140246000Y-85266984D01*
X140228912Y-85093485D01*
X140161381Y-84870864D01*
X140051717Y-84665697D01*
X139904134Y-84485866D01*
X139724303Y-84338283D01*
X139519136Y-84228619D01*
X139296516Y-84161088D01*
X139065000Y-84138286D01*
X138833485Y-84161088D01*
X138610865Y-84228619D01*
X138405698Y-84338283D01*
X138225867Y-84485866D01*
X138078284Y-84665697D01*
X137968619Y-84870864D01*
X137901088Y-85093484D01*
X137884000Y-85266984D01*
X137706000Y-85266984D01*
X137688912Y-85093485D01*
X137621381Y-84870864D01*
X137511717Y-84665697D01*
X137364134Y-84485866D01*
X137184303Y-84338283D01*
X136979136Y-84228619D01*
X136756516Y-84161088D01*
X136525000Y-84138286D01*
X136293485Y-84161088D01*
X136070865Y-84228619D01*
X135865698Y-84338283D01*
X135685867Y-84485866D01*
X135538284Y-84665697D01*
X135428619Y-84870864D01*
X135361088Y-85093484D01*
X135344000Y-85266984D01*
X135166000Y-85266984D01*
X135166000Y-85198000D01*
X135118531Y-84970039D01*
X135027501Y-84755719D01*
X134896408Y-84563276D01*
X134730291Y-84400105D01*
X134535532Y-84272478D01*
X134319617Y-84185298D01*
X134294114Y-84185171D01*
X134112000Y-84246703D01*
X133858000Y-84246703D01*
X133675886Y-84185171D01*
X133650383Y-84185298D01*
X133434468Y-84272478D01*
X133239709Y-84400105D01*
X133073592Y-84563276D01*
X132942499Y-84755719D01*
X132851469Y-84970039D01*
X132804000Y-85198000D01*
X132619206Y-85198000D01*
X132608912Y-85093485D01*
X132541381Y-84870864D01*
X132431717Y-84665697D01*
X132284134Y-84485866D01*
X132104303Y-84338283D01*
X131899136Y-84228619D01*
X131676516Y-84161088D01*
X131445000Y-84138286D01*
X131213485Y-84161088D01*
X130990865Y-84228619D01*
X130785698Y-84338283D01*
X130605867Y-84485866D01*
X130458284Y-84665697D01*
X130348619Y-84870864D01*
X130281088Y-85093484D01*
X130264000Y-85266984D01*
X130086000Y-85266984D01*
X130068912Y-85093485D01*
X130001381Y-84870864D01*
X129891717Y-84665697D01*
X129744134Y-84485866D01*
X129564303Y-84338283D01*
X129359136Y-84228619D01*
X129136516Y-84161088D01*
X128905000Y-84138286D01*
X128673485Y-84161088D01*
X128450865Y-84228619D01*
X128245698Y-84338283D01*
X128065867Y-84485866D01*
X127918284Y-84665697D01*
X127808619Y-84870864D01*
X127741088Y-85093484D01*
X127724000Y-85266984D01*
X127546000Y-85266984D01*
X127528912Y-85093485D01*
X127461381Y-84870864D01*
X127351717Y-84665697D01*
X127204134Y-84485866D01*
X127024303Y-84338283D01*
X126819136Y-84228619D01*
X126596516Y-84161088D01*
X126365000Y-84138286D01*
X126133485Y-84161088D01*
X125910865Y-84228619D01*
X125705698Y-84338283D01*
X125525867Y-84485866D01*
X125378284Y-84665697D01*
X125268619Y-84870864D01*
X125201088Y-85093484D01*
X125184000Y-85266984D01*
X125006000Y-85266984D01*
X124988912Y-85093485D01*
X124921381Y-84870864D01*
X124811717Y-84665697D01*
X124664134Y-84485866D01*
X124484303Y-84338283D01*
X124279136Y-84228619D01*
X124056516Y-84161088D01*
X123825000Y-84138286D01*
X123593485Y-84161088D01*
X123370865Y-84228619D01*
X123165698Y-84338283D01*
X122985867Y-84485866D01*
X122838284Y-84665697D01*
X122728619Y-84870864D01*
X122661088Y-85093484D01*
X122644000Y-85266984D01*
X122466000Y-85266984D01*
X122448912Y-85093485D01*
X122381381Y-84870864D01*
X122271717Y-84665697D01*
X122124134Y-84485866D01*
X121944303Y-84338283D01*
X121739136Y-84228619D01*
X121516516Y-84161088D01*
X121285000Y-84138286D01*
X121053485Y-84161088D01*
X120830865Y-84228619D01*
X120625698Y-84338283D01*
X120445867Y-84485866D01*
X120298284Y-84665697D01*
X120188619Y-84870864D01*
X120121088Y-85093484D01*
X120104000Y-85266984D01*
X119926000Y-85266984D01*
X119908912Y-85093485D01*
X119841381Y-84870864D01*
X119731717Y-84665697D01*
X119584134Y-84485866D01*
X119404303Y-84338283D01*
X119199136Y-84228619D01*
X118976516Y-84161088D01*
X118745000Y-84138286D01*
X118513485Y-84161088D01*
X118290865Y-84228619D01*
X118085698Y-84338283D01*
X117905867Y-84485866D01*
X117758284Y-84665697D01*
X117648619Y-84870864D01*
X117581088Y-85093484D01*
X117564000Y-85266984D01*
X117386000Y-85266984D01*
X117368912Y-85093485D01*
X117301381Y-84870864D01*
X117191717Y-84665697D01*
X117044134Y-84485866D01*
X116864303Y-84338283D01*
X116659136Y-84228619D01*
X116436516Y-84161088D01*
X116205000Y-84138286D01*
X115973485Y-84161088D01*
X115750865Y-84228619D01*
X115545698Y-84338283D01*
X115365867Y-84485866D01*
X115218284Y-84665697D01*
X115108619Y-84870864D01*
X115041088Y-85093484D01*
X115024000Y-85266984D01*
X114846000Y-85266984D01*
X114828912Y-85093485D01*
X114761381Y-84870864D01*
X114651717Y-84665697D01*
X114504134Y-84485866D01*
X114324303Y-84338283D01*
X114119136Y-84228619D01*
X113896516Y-84161088D01*
X113665000Y-84138286D01*
X113433485Y-84161088D01*
X113210865Y-84228619D01*
X113005698Y-84338283D01*
X112825867Y-84485866D01*
X112678284Y-84665697D01*
X112568619Y-84870864D01*
X112501088Y-85093484D01*
X112484000Y-85266984D01*
X112306000Y-85266984D01*
X112288912Y-85093485D01*
X112221381Y-84870864D01*
X112111717Y-84665697D01*
X111964134Y-84485866D01*
X111784303Y-84338283D01*
X111579136Y-84228619D01*
X111356516Y-84161088D01*
X111125000Y-84138286D01*
X110893485Y-84161088D01*
X110670865Y-84228619D01*
X110465698Y-84338283D01*
X110285867Y-84485866D01*
X110138284Y-84665697D01*
X110028619Y-84870864D01*
X109961088Y-85093484D01*
X109944000Y-85266984D01*
X109766000Y-85266984D01*
X109748912Y-85093485D01*
X109681381Y-84870864D01*
X109571717Y-84665697D01*
X109424134Y-84485866D01*
X109244303Y-84338283D01*
X109039136Y-84228619D01*
X108816516Y-84161088D01*
X108585000Y-84138286D01*
X108353485Y-84161088D01*
X108130865Y-84228619D01*
X107925698Y-84338283D01*
X107745867Y-84485866D01*
X107598284Y-84665697D01*
X107488619Y-84870864D01*
X107421088Y-85093484D01*
X107404000Y-85266984D01*
X107226000Y-85266984D01*
X107208912Y-85093485D01*
X107141381Y-84870864D01*
X107031717Y-84665697D01*
X106884134Y-84485866D01*
X106704303Y-84338283D01*
X106499136Y-84228619D01*
X106276516Y-84161088D01*
X106045000Y-84138286D01*
X105813485Y-84161088D01*
X105590865Y-84228619D01*
X105385698Y-84338283D01*
X105205867Y-84485866D01*
X105058284Y-84665697D01*
X104948619Y-84870864D01*
X104881088Y-85093484D01*
X104864000Y-85266984D01*
X104686000Y-85266984D01*
X104668912Y-85093485D01*
X104601381Y-84870864D01*
X104491717Y-84665697D01*
X104344134Y-84485866D01*
X104164303Y-84338283D01*
X103959136Y-84228619D01*
X103736516Y-84161088D01*
X103505000Y-84138286D01*
X103273485Y-84161088D01*
X103050865Y-84228619D01*
X102845698Y-84338283D01*
X102665867Y-84485866D01*
X102518284Y-84665697D01*
X102408619Y-84870864D01*
X102341088Y-85093484D01*
X102324000Y-85266984D01*
X101780385Y-85266984D01*
X101760014Y-85242360D01*
X101729079Y-85211640D01*
X101698578Y-85180494D01*
X101693404Y-85176213D01*
X101520534Y-85035223D01*
X101484216Y-85011094D01*
X101448249Y-84986467D01*
X101442342Y-84983273D01*
X101245378Y-84878546D01*
X101205079Y-84861936D01*
X101165004Y-84844760D01*
X101158588Y-84842774D01*
X101158590Y-84842774D01*
X101158582Y-84842772D01*
X100945035Y-84778298D01*
X100902297Y-84769835D01*
X100859627Y-84760766D01*
X100852949Y-84760064D01*
X100852947Y-84760064D01*
X100631084Y-84738310D01*
X100607626Y-84736000D01*
X75461520Y-84736000D01*
X75309865Y-84721130D01*
X75186612Y-84683918D01*
X75072933Y-84623474D01*
X74973155Y-84542097D01*
X74891090Y-84442897D01*
X74829852Y-84329640D01*
X74791780Y-84206648D01*
X74776000Y-84056508D01*
X74776000Y-83235078D01*
X79737006Y-83235078D01*
X79737006Y-83388922D01*
X79767019Y-83539809D01*
X79825893Y-83681942D01*
X79911364Y-83809859D01*
X80020147Y-83918642D01*
X80148064Y-84004113D01*
X80290197Y-84062987D01*
X80441084Y-84093000D01*
X80594928Y-84093000D01*
X80745815Y-84062987D01*
X80887948Y-84004113D01*
X81015865Y-83918642D01*
X81116507Y-83818000D01*
X103861154Y-83818000D01*
X103886000Y-83820447D01*
X103910846Y-83818000D01*
X103910854Y-83818000D01*
X103985193Y-83810678D01*
X104080575Y-83781745D01*
X104168479Y-83734759D01*
X104245527Y-83671527D01*
X104261376Y-83652215D01*
X113363440Y-74550152D01*
X113548682Y-74587000D01*
X113781318Y-74587000D01*
X114009485Y-74541614D01*
X114224413Y-74452588D01*
X114417843Y-74323342D01*
X114582342Y-74158843D01*
X114711588Y-73965413D01*
X114800614Y-73750485D01*
X114846000Y-73522318D01*
X114846000Y-73289682D01*
X115024000Y-73289682D01*
X115024000Y-73522318D01*
X115069386Y-73750485D01*
X115158412Y-73965413D01*
X115287658Y-74158843D01*
X115452157Y-74323342D01*
X115645587Y-74452588D01*
X115860515Y-74541614D01*
X116088682Y-74587000D01*
X116321318Y-74587000D01*
X116549485Y-74541614D01*
X116764413Y-74452588D01*
X116957843Y-74323342D01*
X117122342Y-74158843D01*
X117251588Y-73965413D01*
X117340614Y-73750485D01*
X117386000Y-73522318D01*
X117386000Y-73289682D01*
X117564000Y-73289682D01*
X117564000Y-73522318D01*
X117609386Y-73750485D01*
X117698412Y-73965413D01*
X117827658Y-74158843D01*
X117992157Y-74323342D01*
X118185587Y-74452588D01*
X118400515Y-74541614D01*
X118628682Y-74587000D01*
X118861318Y-74587000D01*
X119089485Y-74541614D01*
X119304413Y-74452588D01*
X119497843Y-74323342D01*
X119662342Y-74158843D01*
X119791588Y-73965413D01*
X119880614Y-73750485D01*
X119926000Y-73522318D01*
X119926000Y-73289682D01*
X120104000Y-73289682D01*
X120104000Y-73522318D01*
X120149386Y-73750485D01*
X120238412Y-73965413D01*
X120367658Y-74158843D01*
X120532157Y-74323342D01*
X120725587Y-74452588D01*
X120940515Y-74541614D01*
X121168682Y-74587000D01*
X121401318Y-74587000D01*
X121629485Y-74541614D01*
X121844413Y-74452588D01*
X122037843Y-74323342D01*
X122202342Y-74158843D01*
X122331588Y-73965413D01*
X122420614Y-73750485D01*
X122466000Y-73522318D01*
X122466000Y-73289682D01*
X122644000Y-73289682D01*
X122644000Y-73522318D01*
X122689386Y-73750485D01*
X122778412Y-73965413D01*
X122907658Y-74158843D01*
X123072157Y-74323342D01*
X123265587Y-74452588D01*
X123480515Y-74541614D01*
X123708682Y-74587000D01*
X123941318Y-74587000D01*
X124169485Y-74541614D01*
X124384413Y-74452588D01*
X124577843Y-74323342D01*
X124742342Y-74158843D01*
X124871588Y-73965413D01*
X124960614Y-73750485D01*
X125006000Y-73522318D01*
X125006000Y-73289682D01*
X125184000Y-73289682D01*
X125184000Y-73522318D01*
X125229386Y-73750485D01*
X125318412Y-73965413D01*
X125447658Y-74158843D01*
X125612157Y-74323342D01*
X125805587Y-74452588D01*
X126020515Y-74541614D01*
X126248682Y-74587000D01*
X126481318Y-74587000D01*
X126709485Y-74541614D01*
X126924413Y-74452588D01*
X127117843Y-74323342D01*
X127282342Y-74158843D01*
X127411588Y-73965413D01*
X127500614Y-73750485D01*
X127546000Y-73522318D01*
X127546000Y-73289682D01*
X127724000Y-73289682D01*
X127724000Y-73522318D01*
X127769386Y-73750485D01*
X127858412Y-73965413D01*
X127987658Y-74158843D01*
X128152157Y-74323342D01*
X128345587Y-74452588D01*
X128560515Y-74541614D01*
X128788682Y-74587000D01*
X129021318Y-74587000D01*
X129249485Y-74541614D01*
X129464413Y-74452588D01*
X129657843Y-74323342D01*
X129822342Y-74158843D01*
X129951588Y-73965413D01*
X130040614Y-73750485D01*
X130086000Y-73522318D01*
X130086000Y-73289682D01*
X130264000Y-73289682D01*
X130264000Y-73522318D01*
X130309386Y-73750485D01*
X130398412Y-73965413D01*
X130527658Y-74158843D01*
X130692157Y-74323342D01*
X130885587Y-74452588D01*
X131100515Y-74541614D01*
X131328682Y-74587000D01*
X131561318Y-74587000D01*
X131789485Y-74541614D01*
X132004413Y-74452588D01*
X132197843Y-74323342D01*
X132362342Y-74158843D01*
X132491588Y-73965413D01*
X132580614Y-73750485D01*
X132626000Y-73522318D01*
X132626000Y-73289682D01*
X132804000Y-73289682D01*
X132804000Y-73522318D01*
X132849386Y-73750485D01*
X132938412Y-73965413D01*
X133067658Y-74158843D01*
X133232157Y-74323342D01*
X133425587Y-74452588D01*
X133640515Y-74541614D01*
X133868682Y-74587000D01*
X134101318Y-74587000D01*
X134329485Y-74541614D01*
X134544413Y-74452588D01*
X134737843Y-74323342D01*
X134902342Y-74158843D01*
X135031588Y-73965413D01*
X135120614Y-73750485D01*
X135166000Y-73522318D01*
X135166000Y-73289682D01*
X135344000Y-73289682D01*
X135344000Y-73522318D01*
X135389386Y-73750485D01*
X135478412Y-73965413D01*
X135607658Y-74158843D01*
X135772157Y-74323342D01*
X135965587Y-74452588D01*
X136180515Y-74541614D01*
X136408682Y-74587000D01*
X136641318Y-74587000D01*
X136869485Y-74541614D01*
X137084413Y-74452588D01*
X137277843Y-74323342D01*
X137442342Y-74158843D01*
X137571588Y-73965413D01*
X137660614Y-73750485D01*
X137706000Y-73522318D01*
X137706000Y-73289682D01*
X137884000Y-73289682D01*
X137884000Y-73522318D01*
X137929386Y-73750485D01*
X138018412Y-73965413D01*
X138147658Y-74158843D01*
X138312157Y-74323342D01*
X138505587Y-74452588D01*
X138720515Y-74541614D01*
X138948682Y-74587000D01*
X139181318Y-74587000D01*
X139409485Y-74541614D01*
X139624413Y-74452588D01*
X139817843Y-74323342D01*
X139982342Y-74158843D01*
X140111588Y-73965413D01*
X140200614Y-73750485D01*
X140246000Y-73522318D01*
X140246000Y-73289682D01*
X140424000Y-73289682D01*
X140424000Y-73522318D01*
X140469386Y-73750485D01*
X140558412Y-73965413D01*
X140687658Y-74158843D01*
X140852157Y-74323342D01*
X141045587Y-74452588D01*
X141260515Y-74541614D01*
X141488682Y-74587000D01*
X141721318Y-74587000D01*
X141949485Y-74541614D01*
X142164413Y-74452588D01*
X142357843Y-74323342D01*
X142522342Y-74158843D01*
X142651588Y-73965413D01*
X142740614Y-73750485D01*
X142786000Y-73522318D01*
X142786000Y-73289682D01*
X142964000Y-73289682D01*
X142964000Y-73522318D01*
X143009386Y-73750485D01*
X143098412Y-73965413D01*
X143227658Y-74158843D01*
X143392157Y-74323342D01*
X143585587Y-74452588D01*
X143800515Y-74541614D01*
X144028682Y-74587000D01*
X144261318Y-74587000D01*
X144489485Y-74541614D01*
X144704413Y-74452588D01*
X144897843Y-74323342D01*
X145062342Y-74158843D01*
X145191588Y-73965413D01*
X145280614Y-73750485D01*
X145326000Y-73522318D01*
X145326000Y-73289682D01*
X145504000Y-73289682D01*
X145504000Y-73522318D01*
X145549386Y-73750485D01*
X145638412Y-73965413D01*
X145767658Y-74158843D01*
X145932157Y-74323342D01*
X146125587Y-74452588D01*
X146340515Y-74541614D01*
X146568682Y-74587000D01*
X146801318Y-74587000D01*
X147029485Y-74541614D01*
X147244413Y-74452588D01*
X147437843Y-74323342D01*
X147602342Y-74158843D01*
X147731588Y-73965413D01*
X147820614Y-73750485D01*
X147866000Y-73522318D01*
X147866000Y-73289682D01*
X148044000Y-73289682D01*
X148044000Y-73522318D01*
X148089386Y-73750485D01*
X148178412Y-73965413D01*
X148307658Y-74158843D01*
X148472157Y-74323342D01*
X148665587Y-74452588D01*
X148880515Y-74541614D01*
X149108682Y-74587000D01*
X149341318Y-74587000D01*
X149569485Y-74541614D01*
X149784413Y-74452588D01*
X149977843Y-74323342D01*
X150142342Y-74158843D01*
X150271588Y-73965413D01*
X150360614Y-73750485D01*
X150406000Y-73522318D01*
X150406000Y-73289682D01*
X150584000Y-73289682D01*
X150584000Y-73522318D01*
X150629386Y-73750485D01*
X150718412Y-73965413D01*
X150847658Y-74158843D01*
X151012157Y-74323342D01*
X151205587Y-74452588D01*
X151420515Y-74541614D01*
X151648682Y-74587000D01*
X151881318Y-74587000D01*
X152109485Y-74541614D01*
X152324413Y-74452588D01*
X152517843Y-74323342D01*
X152682342Y-74158843D01*
X152811588Y-73965413D01*
X152900614Y-73750485D01*
X152946000Y-73522318D01*
X152946000Y-73289682D01*
X153124000Y-73289682D01*
X153124000Y-73522318D01*
X153169386Y-73750485D01*
X153258412Y-73965413D01*
X153387658Y-74158843D01*
X153552157Y-74323342D01*
X153745587Y-74452588D01*
X153960515Y-74541614D01*
X154188682Y-74587000D01*
X154421318Y-74587000D01*
X154649485Y-74541614D01*
X154864413Y-74452588D01*
X155057843Y-74323342D01*
X155222342Y-74158843D01*
X155351588Y-73965413D01*
X155440614Y-73750485D01*
X155486000Y-73522318D01*
X155486000Y-73289682D01*
X155664000Y-73289682D01*
X155664000Y-73522318D01*
X155709386Y-73750485D01*
X155798412Y-73965413D01*
X155927658Y-74158843D01*
X156092157Y-74323342D01*
X156285587Y-74452588D01*
X156500515Y-74541614D01*
X156728682Y-74587000D01*
X156961318Y-74587000D01*
X157189485Y-74541614D01*
X157404413Y-74452588D01*
X157597843Y-74323342D01*
X157762342Y-74158843D01*
X157891588Y-73965413D01*
X157980614Y-73750485D01*
X158026000Y-73522318D01*
X158026000Y-73289682D01*
X158204000Y-73289682D01*
X158204000Y-73522318D01*
X158249386Y-73750485D01*
X158338412Y-73965413D01*
X158467658Y-74158843D01*
X158632157Y-74323342D01*
X158825587Y-74452588D01*
X159040515Y-74541614D01*
X159268682Y-74587000D01*
X159501318Y-74587000D01*
X159729485Y-74541614D01*
X159944413Y-74452588D01*
X160137843Y-74323342D01*
X160302342Y-74158843D01*
X160431588Y-73965413D01*
X160520614Y-73750485D01*
X160566000Y-73522318D01*
X160566000Y-73289682D01*
X160520614Y-73061515D01*
X160431588Y-72846587D01*
X160302342Y-72653157D01*
X160255185Y-72606000D01*
X160742157Y-72606000D01*
X160742157Y-74206000D01*
X160749513Y-74280689D01*
X160771299Y-74352508D01*
X160806678Y-74418696D01*
X160854289Y-74476711D01*
X160912304Y-74524322D01*
X160978492Y-74559701D01*
X161050311Y-74581487D01*
X161125000Y-74588843D01*
X162725000Y-74588843D01*
X162799689Y-74581487D01*
X162871508Y-74559701D01*
X162937696Y-74524322D01*
X162995711Y-74476711D01*
X163043322Y-74418696D01*
X163078701Y-74352508D01*
X163100487Y-74280689D01*
X163107843Y-74206000D01*
X163107843Y-72606000D01*
X163100487Y-72531311D01*
X163078701Y-72459492D01*
X163043322Y-72393304D01*
X162995711Y-72335289D01*
X162937696Y-72287678D01*
X162871508Y-72252299D01*
X162799689Y-72230513D01*
X162725000Y-72223157D01*
X161125000Y-72223157D01*
X161050311Y-72230513D01*
X160978492Y-72252299D01*
X160912304Y-72287678D01*
X160854289Y-72335289D01*
X160806678Y-72393304D01*
X160771299Y-72459492D01*
X160749513Y-72531311D01*
X160742157Y-72606000D01*
X160255185Y-72606000D01*
X160137843Y-72488658D01*
X159944413Y-72359412D01*
X159729485Y-72270386D01*
X159501318Y-72225000D01*
X159268682Y-72225000D01*
X159040515Y-72270386D01*
X158825587Y-72359412D01*
X158632157Y-72488658D01*
X158467658Y-72653157D01*
X158338412Y-72846587D01*
X158249386Y-73061515D01*
X158204000Y-73289682D01*
X158026000Y-73289682D01*
X157980614Y-73061515D01*
X157891588Y-72846587D01*
X157762342Y-72653157D01*
X157597843Y-72488658D01*
X157404413Y-72359412D01*
X157189485Y-72270386D01*
X156961318Y-72225000D01*
X156728682Y-72225000D01*
X156500515Y-72270386D01*
X156285587Y-72359412D01*
X156092157Y-72488658D01*
X155927658Y-72653157D01*
X155798412Y-72846587D01*
X155709386Y-73061515D01*
X155664000Y-73289682D01*
X155486000Y-73289682D01*
X155440614Y-73061515D01*
X155351588Y-72846587D01*
X155222342Y-72653157D01*
X155057843Y-72488658D01*
X154864413Y-72359412D01*
X154649485Y-72270386D01*
X154421318Y-72225000D01*
X154188682Y-72225000D01*
X153960515Y-72270386D01*
X153745587Y-72359412D01*
X153552157Y-72488658D01*
X153387658Y-72653157D01*
X153258412Y-72846587D01*
X153169386Y-73061515D01*
X153124000Y-73289682D01*
X152946000Y-73289682D01*
X152900614Y-73061515D01*
X152811588Y-72846587D01*
X152682342Y-72653157D01*
X152517843Y-72488658D01*
X152324413Y-72359412D01*
X152109485Y-72270386D01*
X151881318Y-72225000D01*
X151648682Y-72225000D01*
X151420515Y-72270386D01*
X151205587Y-72359412D01*
X151012157Y-72488658D01*
X150847658Y-72653157D01*
X150718412Y-72846587D01*
X150629386Y-73061515D01*
X150584000Y-73289682D01*
X150406000Y-73289682D01*
X150360614Y-73061515D01*
X150271588Y-72846587D01*
X150142342Y-72653157D01*
X149977843Y-72488658D01*
X149784413Y-72359412D01*
X149569485Y-72270386D01*
X149341318Y-72225000D01*
X149108682Y-72225000D01*
X148880515Y-72270386D01*
X148665587Y-72359412D01*
X148472157Y-72488658D01*
X148307658Y-72653157D01*
X148178412Y-72846587D01*
X148089386Y-73061515D01*
X148044000Y-73289682D01*
X147866000Y-73289682D01*
X147820614Y-73061515D01*
X147731588Y-72846587D01*
X147602342Y-72653157D01*
X147437843Y-72488658D01*
X147244413Y-72359412D01*
X147029485Y-72270386D01*
X146801318Y-72225000D01*
X146568682Y-72225000D01*
X146340515Y-72270386D01*
X146125587Y-72359412D01*
X145932157Y-72488658D01*
X145767658Y-72653157D01*
X145638412Y-72846587D01*
X145549386Y-73061515D01*
X145504000Y-73289682D01*
X145326000Y-73289682D01*
X145280614Y-73061515D01*
X145191588Y-72846587D01*
X145062342Y-72653157D01*
X144897843Y-72488658D01*
X144704413Y-72359412D01*
X144489485Y-72270386D01*
X144261318Y-72225000D01*
X144028682Y-72225000D01*
X143800515Y-72270386D01*
X143585587Y-72359412D01*
X143392157Y-72488658D01*
X143227658Y-72653157D01*
X143098412Y-72846587D01*
X143009386Y-73061515D01*
X142964000Y-73289682D01*
X142786000Y-73289682D01*
X142740614Y-73061515D01*
X142651588Y-72846587D01*
X142522342Y-72653157D01*
X142357843Y-72488658D01*
X142164413Y-72359412D01*
X141949485Y-72270386D01*
X141721318Y-72225000D01*
X141488682Y-72225000D01*
X141260515Y-72270386D01*
X141045587Y-72359412D01*
X140852157Y-72488658D01*
X140687658Y-72653157D01*
X140558412Y-72846587D01*
X140469386Y-73061515D01*
X140424000Y-73289682D01*
X140246000Y-73289682D01*
X140200614Y-73061515D01*
X140111588Y-72846587D01*
X139982342Y-72653157D01*
X139817843Y-72488658D01*
X139624413Y-72359412D01*
X139409485Y-72270386D01*
X139181318Y-72225000D01*
X138948682Y-72225000D01*
X138720515Y-72270386D01*
X138505587Y-72359412D01*
X138312157Y-72488658D01*
X138147658Y-72653157D01*
X138018412Y-72846587D01*
X137929386Y-73061515D01*
X137884000Y-73289682D01*
X137706000Y-73289682D01*
X137660614Y-73061515D01*
X137571588Y-72846587D01*
X137442342Y-72653157D01*
X137277843Y-72488658D01*
X137084413Y-72359412D01*
X136869485Y-72270386D01*
X136641318Y-72225000D01*
X136408682Y-72225000D01*
X136180515Y-72270386D01*
X135965587Y-72359412D01*
X135772157Y-72488658D01*
X135607658Y-72653157D01*
X135478412Y-72846587D01*
X135389386Y-73061515D01*
X135344000Y-73289682D01*
X135166000Y-73289682D01*
X135120614Y-73061515D01*
X135031588Y-72846587D01*
X134902342Y-72653157D01*
X134737843Y-72488658D01*
X134544413Y-72359412D01*
X134329485Y-72270386D01*
X134101318Y-72225000D01*
X133868682Y-72225000D01*
X133640515Y-72270386D01*
X133425587Y-72359412D01*
X133232157Y-72488658D01*
X133067658Y-72653157D01*
X132938412Y-72846587D01*
X132849386Y-73061515D01*
X132804000Y-73289682D01*
X132626000Y-73289682D01*
X132580614Y-73061515D01*
X132491588Y-72846587D01*
X132362342Y-72653157D01*
X132197843Y-72488658D01*
X132004413Y-72359412D01*
X131789485Y-72270386D01*
X131561318Y-72225000D01*
X131328682Y-72225000D01*
X131100515Y-72270386D01*
X130885587Y-72359412D01*
X130692157Y-72488658D01*
X130527658Y-72653157D01*
X130398412Y-72846587D01*
X130309386Y-73061515D01*
X130264000Y-73289682D01*
X130086000Y-73289682D01*
X130040614Y-73061515D01*
X129951588Y-72846587D01*
X129822342Y-72653157D01*
X129657843Y-72488658D01*
X129464413Y-72359412D01*
X129249485Y-72270386D01*
X129021318Y-72225000D01*
X128788682Y-72225000D01*
X128560515Y-72270386D01*
X128345587Y-72359412D01*
X128152157Y-72488658D01*
X127987658Y-72653157D01*
X127858412Y-72846587D01*
X127769386Y-73061515D01*
X127724000Y-73289682D01*
X127546000Y-73289682D01*
X127500614Y-73061515D01*
X127411588Y-72846587D01*
X127282342Y-72653157D01*
X127117843Y-72488658D01*
X126924413Y-72359412D01*
X126709485Y-72270386D01*
X126481318Y-72225000D01*
X126248682Y-72225000D01*
X126020515Y-72270386D01*
X125805587Y-72359412D01*
X125612157Y-72488658D01*
X125447658Y-72653157D01*
X125318412Y-72846587D01*
X125229386Y-73061515D01*
X125184000Y-73289682D01*
X125006000Y-73289682D01*
X124960614Y-73061515D01*
X124871588Y-72846587D01*
X124742342Y-72653157D01*
X124577843Y-72488658D01*
X124384413Y-72359412D01*
X124169485Y-72270386D01*
X123941318Y-72225000D01*
X123708682Y-72225000D01*
X123480515Y-72270386D01*
X123265587Y-72359412D01*
X123072157Y-72488658D01*
X122907658Y-72653157D01*
X122778412Y-72846587D01*
X122689386Y-73061515D01*
X122644000Y-73289682D01*
X122466000Y-73289682D01*
X122420614Y-73061515D01*
X122331588Y-72846587D01*
X122202342Y-72653157D01*
X122037843Y-72488658D01*
X121844413Y-72359412D01*
X121629485Y-72270386D01*
X121401318Y-72225000D01*
X121168682Y-72225000D01*
X120940515Y-72270386D01*
X120725587Y-72359412D01*
X120532157Y-72488658D01*
X120367658Y-72653157D01*
X120238412Y-72846587D01*
X120149386Y-73061515D01*
X120104000Y-73289682D01*
X119926000Y-73289682D01*
X119880614Y-73061515D01*
X119791588Y-72846587D01*
X119662342Y-72653157D01*
X119497843Y-72488658D01*
X119304413Y-72359412D01*
X119089485Y-72270386D01*
X118861318Y-72225000D01*
X118628682Y-72225000D01*
X118400515Y-72270386D01*
X118185587Y-72359412D01*
X117992157Y-72488658D01*
X117827658Y-72653157D01*
X117698412Y-72846587D01*
X117609386Y-73061515D01*
X117564000Y-73289682D01*
X117386000Y-73289682D01*
X117340614Y-73061515D01*
X117251588Y-72846587D01*
X117122342Y-72653157D01*
X116957843Y-72488658D01*
X116764413Y-72359412D01*
X116549485Y-72270386D01*
X116321318Y-72225000D01*
X116088682Y-72225000D01*
X115860515Y-72270386D01*
X115645587Y-72359412D01*
X115452157Y-72488658D01*
X115287658Y-72653157D01*
X115158412Y-72846587D01*
X115069386Y-73061515D01*
X115024000Y-73289682D01*
X114846000Y-73289682D01*
X114800614Y-73061515D01*
X114711588Y-72846587D01*
X114582342Y-72653157D01*
X114417843Y-72488658D01*
X114224413Y-72359412D01*
X114009485Y-72270386D01*
X113781318Y-72225000D01*
X113548682Y-72225000D01*
X113320515Y-72270386D01*
X113105587Y-72359412D01*
X112912157Y-72488658D01*
X112747658Y-72653157D01*
X112618412Y-72846587D01*
X112529386Y-73061515D01*
X112484000Y-73289682D01*
X112484000Y-73522318D01*
X112529386Y-73750485D01*
X112588708Y-73893700D01*
X103676409Y-82806000D01*
X81116507Y-82806000D01*
X81015865Y-82705358D01*
X80887948Y-82619887D01*
X80745815Y-82561013D01*
X80594928Y-82531000D01*
X80441084Y-82531000D01*
X80290197Y-82561013D01*
X80148064Y-82619887D01*
X80020147Y-82705358D01*
X79911364Y-82814141D01*
X79825893Y-82942058D01*
X79767019Y-83084191D01*
X79737006Y-83235078D01*
X74776000Y-83235078D01*
X74776000Y-81711078D01*
X80753000Y-81711078D01*
X80753000Y-81864922D01*
X80783013Y-82015809D01*
X80841887Y-82157942D01*
X80927358Y-82285859D01*
X81036141Y-82394642D01*
X81164058Y-82480113D01*
X81306191Y-82538987D01*
X81457078Y-82569000D01*
X81610922Y-82569000D01*
X81761809Y-82538987D01*
X81903942Y-82480113D01*
X82031859Y-82394642D01*
X82132501Y-82294000D01*
X102845154Y-82294000D01*
X102870000Y-82296447D01*
X102894846Y-82294000D01*
X102894854Y-82294000D01*
X102969193Y-82286678D01*
X103064575Y-82257745D01*
X103152479Y-82210759D01*
X103229527Y-82147527D01*
X103245376Y-82128215D01*
X110823440Y-74550152D01*
X111008682Y-74587000D01*
X111241318Y-74587000D01*
X111469485Y-74541614D01*
X111684413Y-74452588D01*
X111877843Y-74323342D01*
X112042342Y-74158843D01*
X112171588Y-73965413D01*
X112260614Y-73750485D01*
X112306000Y-73522318D01*
X112306000Y-73289682D01*
X112260614Y-73061515D01*
X112171588Y-72846587D01*
X112042342Y-72653157D01*
X111877843Y-72488658D01*
X111684413Y-72359412D01*
X111469485Y-72270386D01*
X111241318Y-72225000D01*
X111008682Y-72225000D01*
X110780515Y-72270386D01*
X110565587Y-72359412D01*
X110372157Y-72488658D01*
X110207658Y-72653157D01*
X110078412Y-72846587D01*
X109989386Y-73061515D01*
X109944000Y-73289682D01*
X109944000Y-73522318D01*
X109989386Y-73750485D01*
X110048708Y-73893700D01*
X102660409Y-81282000D01*
X83002429Y-81282000D01*
X83047863Y-81251642D01*
X83148505Y-81151000D01*
X101321154Y-81151000D01*
X101346000Y-81153447D01*
X101370846Y-81151000D01*
X101370854Y-81151000D01*
X101445193Y-81143678D01*
X101540575Y-81114745D01*
X101628479Y-81067759D01*
X101705527Y-81004527D01*
X101721376Y-80985215D01*
X108187102Y-74519490D01*
X108240515Y-74541614D01*
X108468682Y-74587000D01*
X108701318Y-74587000D01*
X108929485Y-74541614D01*
X109144413Y-74452588D01*
X109337843Y-74323342D01*
X109502342Y-74158843D01*
X109631588Y-73965413D01*
X109720614Y-73750485D01*
X109766000Y-73522318D01*
X109766000Y-73289682D01*
X109720614Y-73061515D01*
X109631588Y-72846587D01*
X109502342Y-72653157D01*
X109337843Y-72488658D01*
X109144413Y-72359412D01*
X108929485Y-72270386D01*
X108701318Y-72225000D01*
X108468682Y-72225000D01*
X108240515Y-72270386D01*
X108025587Y-72359412D01*
X107832157Y-72488658D01*
X107667658Y-72653157D01*
X107538412Y-72846587D01*
X107449386Y-73061515D01*
X107404000Y-73289682D01*
X107404000Y-73522318D01*
X107449386Y-73750485D01*
X107471510Y-73803898D01*
X101136409Y-80139000D01*
X83148505Y-80139000D01*
X83047863Y-80038358D01*
X82919946Y-79952887D01*
X82777813Y-79894013D01*
X82626926Y-79864000D01*
X82473082Y-79864000D01*
X82322195Y-79894013D01*
X82180062Y-79952887D01*
X82052145Y-80038358D01*
X81943362Y-80147141D01*
X81857891Y-80275058D01*
X81799017Y-80417191D01*
X81769004Y-80568078D01*
X81769004Y-80721922D01*
X81799017Y-80872809D01*
X81857891Y-81014942D01*
X81918457Y-81105585D01*
X81903942Y-81095887D01*
X81761809Y-81037013D01*
X81610922Y-81007000D01*
X81457078Y-81007000D01*
X81306191Y-81037013D01*
X81164058Y-81095887D01*
X81036141Y-81181358D01*
X80927358Y-81290141D01*
X80841887Y-81418058D01*
X80783013Y-81560191D01*
X80753000Y-81711078D01*
X74776000Y-81711078D01*
X74776000Y-79044078D01*
X82785000Y-79044078D01*
X82785000Y-79197922D01*
X82815013Y-79348809D01*
X82873887Y-79490942D01*
X82959358Y-79618859D01*
X83068141Y-79727642D01*
X83196058Y-79813113D01*
X83338191Y-79871987D01*
X83489078Y-79902000D01*
X83642922Y-79902000D01*
X83793809Y-79871987D01*
X83935942Y-79813113D01*
X84063859Y-79727642D01*
X84164501Y-79627000D01*
X100178154Y-79627000D01*
X100203000Y-79629447D01*
X100227846Y-79627000D01*
X100227854Y-79627000D01*
X100302193Y-79619678D01*
X100397575Y-79590745D01*
X100485479Y-79543759D01*
X100562527Y-79480527D01*
X100578376Y-79461215D01*
X105557300Y-74482292D01*
X105700515Y-74541614D01*
X105928682Y-74587000D01*
X106161318Y-74587000D01*
X106389485Y-74541614D01*
X106604413Y-74452588D01*
X106797843Y-74323342D01*
X106962342Y-74158843D01*
X107091588Y-73965413D01*
X107180614Y-73750485D01*
X107226000Y-73522318D01*
X107226000Y-73289682D01*
X107180614Y-73061515D01*
X107091588Y-72846587D01*
X106962342Y-72653157D01*
X106797843Y-72488658D01*
X106604413Y-72359412D01*
X106389485Y-72270386D01*
X106161318Y-72225000D01*
X105928682Y-72225000D01*
X105700515Y-72270386D01*
X105485587Y-72359412D01*
X105292157Y-72488658D01*
X105127658Y-72653157D01*
X104998412Y-72846587D01*
X104909386Y-73061515D01*
X104864000Y-73289682D01*
X104864000Y-73522318D01*
X104900848Y-73707560D01*
X99993409Y-78615000D01*
X84164501Y-78615000D01*
X84063859Y-78514358D01*
X83935942Y-78428887D01*
X83793809Y-78370013D01*
X83642922Y-78340000D01*
X83489078Y-78340000D01*
X83338191Y-78370013D01*
X83196058Y-78428887D01*
X83068141Y-78514358D01*
X82959358Y-78623141D01*
X82873887Y-78751058D01*
X82815013Y-78893191D01*
X82785000Y-79044078D01*
X74776000Y-79044078D01*
X74776000Y-77647078D01*
X83674000Y-77647078D01*
X83674000Y-77800922D01*
X83704013Y-77951809D01*
X83762887Y-78093942D01*
X83848358Y-78221859D01*
X83957141Y-78330642D01*
X84085058Y-78416113D01*
X84227191Y-78474987D01*
X84378078Y-78505000D01*
X84531922Y-78505000D01*
X84682809Y-78474987D01*
X84824942Y-78416113D01*
X84952859Y-78330642D01*
X85053501Y-78230000D01*
X98781154Y-78230000D01*
X98806000Y-78232447D01*
X98830846Y-78230000D01*
X98830854Y-78230000D01*
X98905193Y-78222678D01*
X99000575Y-78193745D01*
X99088479Y-78146759D01*
X99165527Y-78083527D01*
X99181376Y-78064215D01*
X102854120Y-74391472D01*
X102945587Y-74452588D01*
X103160515Y-74541614D01*
X103388682Y-74587000D01*
X103621318Y-74587000D01*
X103849485Y-74541614D01*
X104064413Y-74452588D01*
X104257843Y-74323342D01*
X104422342Y-74158843D01*
X104551588Y-73965413D01*
X104640614Y-73750485D01*
X104686000Y-73522318D01*
X104686000Y-73289682D01*
X104640614Y-73061515D01*
X104551588Y-72846587D01*
X104422342Y-72653157D01*
X104257843Y-72488658D01*
X104064413Y-72359412D01*
X103849485Y-72270386D01*
X103621318Y-72225000D01*
X103388682Y-72225000D01*
X103160515Y-72270386D01*
X102945587Y-72359412D01*
X102752157Y-72488658D01*
X102587658Y-72653157D01*
X102458412Y-72846587D01*
X102369386Y-73061515D01*
X102324000Y-73289682D01*
X102324000Y-73490408D01*
X98596409Y-77218000D01*
X85053501Y-77218000D01*
X84952859Y-77117358D01*
X84824942Y-77031887D01*
X84682809Y-76973013D01*
X84531922Y-76943000D01*
X84378078Y-76943000D01*
X84227191Y-76973013D01*
X84085058Y-77031887D01*
X83957141Y-77117358D01*
X83848358Y-77226141D01*
X83762887Y-77354058D01*
X83704013Y-77496191D01*
X83674000Y-77647078D01*
X74776000Y-77647078D01*
X74776000Y-70026984D01*
X102324000Y-70026984D01*
X102324000Y-70943015D01*
X102341088Y-71116515D01*
X102408619Y-71339135D01*
X102518283Y-71544302D01*
X102665866Y-71724134D01*
X102845697Y-71871717D01*
X103050864Y-71981381D01*
X103273484Y-72048912D01*
X103505000Y-72071714D01*
X103736515Y-72048912D01*
X103959135Y-71981381D01*
X104164302Y-71871717D01*
X104344134Y-71724134D01*
X104491717Y-71544303D01*
X104601381Y-71339136D01*
X104668912Y-71116516D01*
X104686000Y-70943016D01*
X104686000Y-70026985D01*
X104686000Y-70026984D01*
X104864000Y-70026984D01*
X104864000Y-70943015D01*
X104881088Y-71116515D01*
X104948619Y-71339135D01*
X105058283Y-71544302D01*
X105205866Y-71724134D01*
X105385697Y-71871717D01*
X105590864Y-71981381D01*
X105813484Y-72048912D01*
X106045000Y-72071714D01*
X106276515Y-72048912D01*
X106499135Y-71981381D01*
X106704302Y-71871717D01*
X106884134Y-71724134D01*
X107031717Y-71544303D01*
X107141381Y-71339136D01*
X107208912Y-71116516D01*
X107226000Y-70943016D01*
X107226000Y-70026985D01*
X107226000Y-70026984D01*
X107404000Y-70026984D01*
X107404000Y-70943015D01*
X107421088Y-71116515D01*
X107488619Y-71339135D01*
X107598283Y-71544302D01*
X107745866Y-71724134D01*
X107925697Y-71871717D01*
X108130864Y-71981381D01*
X108353484Y-72048912D01*
X108585000Y-72071714D01*
X108816515Y-72048912D01*
X109039135Y-71981381D01*
X109244302Y-71871717D01*
X109424134Y-71724134D01*
X109571717Y-71544303D01*
X109681381Y-71339136D01*
X109748912Y-71116516D01*
X109766000Y-70943016D01*
X109766000Y-70026985D01*
X109766000Y-70026984D01*
X109944000Y-70026984D01*
X109944000Y-70943015D01*
X109961088Y-71116515D01*
X110028619Y-71339135D01*
X110138283Y-71544302D01*
X110285866Y-71724134D01*
X110465697Y-71871717D01*
X110670864Y-71981381D01*
X110893484Y-72048912D01*
X111125000Y-72071714D01*
X111356515Y-72048912D01*
X111579135Y-71981381D01*
X111784302Y-71871717D01*
X111964134Y-71724134D01*
X112111717Y-71544303D01*
X112221381Y-71339136D01*
X112288912Y-71116516D01*
X112306000Y-70943016D01*
X112306000Y-70026985D01*
X112306000Y-70026984D01*
X112484000Y-70026984D01*
X112484000Y-70943015D01*
X112501088Y-71116515D01*
X112568619Y-71339135D01*
X112678283Y-71544302D01*
X112825866Y-71724134D01*
X113005697Y-71871717D01*
X113210864Y-71981381D01*
X113433484Y-72048912D01*
X113665000Y-72071714D01*
X113896515Y-72048912D01*
X114119135Y-71981381D01*
X114324302Y-71871717D01*
X114504134Y-71724134D01*
X114651717Y-71544303D01*
X114761381Y-71339136D01*
X114828912Y-71116516D01*
X114846000Y-70943016D01*
X114846000Y-70026985D01*
X114846000Y-70026984D01*
X115024000Y-70026984D01*
X115024000Y-70943015D01*
X115041088Y-71116515D01*
X115108619Y-71339135D01*
X115218283Y-71544302D01*
X115365866Y-71724134D01*
X115545697Y-71871717D01*
X115750864Y-71981381D01*
X115973484Y-72048912D01*
X116205000Y-72071714D01*
X116436515Y-72048912D01*
X116659135Y-71981381D01*
X116864302Y-71871717D01*
X117044134Y-71724134D01*
X117191717Y-71544303D01*
X117301381Y-71339136D01*
X117368912Y-71116516D01*
X117386000Y-70943016D01*
X117386000Y-70026985D01*
X117386000Y-70026984D01*
X117564000Y-70026984D01*
X117564000Y-70943015D01*
X117581088Y-71116515D01*
X117648619Y-71339135D01*
X117758283Y-71544302D01*
X117905866Y-71724134D01*
X118085697Y-71871717D01*
X118290864Y-71981381D01*
X118513484Y-72048912D01*
X118745000Y-72071714D01*
X118976515Y-72048912D01*
X119199135Y-71981381D01*
X119404302Y-71871717D01*
X119584134Y-71724134D01*
X119731717Y-71544303D01*
X119841381Y-71339136D01*
X119908912Y-71116516D01*
X119926000Y-70943016D01*
X119926000Y-70026985D01*
X119926000Y-70026984D01*
X120104000Y-70026984D01*
X120104000Y-70943015D01*
X120121088Y-71116515D01*
X120188619Y-71339135D01*
X120298283Y-71544302D01*
X120445866Y-71724134D01*
X120625697Y-71871717D01*
X120830864Y-71981381D01*
X121053484Y-72048912D01*
X121285000Y-72071714D01*
X121516515Y-72048912D01*
X121739135Y-71981381D01*
X121944302Y-71871717D01*
X122124134Y-71724134D01*
X122271717Y-71544303D01*
X122381381Y-71339136D01*
X122448912Y-71116516D01*
X122466000Y-70943016D01*
X122466000Y-70026985D01*
X122466000Y-70026984D01*
X122644000Y-70026984D01*
X122644000Y-70943015D01*
X122661088Y-71116515D01*
X122728619Y-71339135D01*
X122838283Y-71544302D01*
X122985866Y-71724134D01*
X123165697Y-71871717D01*
X123370864Y-71981381D01*
X123593484Y-72048912D01*
X123825000Y-72071714D01*
X124056515Y-72048912D01*
X124279135Y-71981381D01*
X124484302Y-71871717D01*
X124664134Y-71724134D01*
X124811717Y-71544303D01*
X124921381Y-71339136D01*
X124988912Y-71116516D01*
X125006000Y-70943016D01*
X125006000Y-70026985D01*
X125006000Y-70026984D01*
X125184000Y-70026984D01*
X125184000Y-70943015D01*
X125201088Y-71116515D01*
X125268619Y-71339135D01*
X125378283Y-71544302D01*
X125525866Y-71724134D01*
X125705697Y-71871717D01*
X125910864Y-71981381D01*
X126133484Y-72048912D01*
X126365000Y-72071714D01*
X126596515Y-72048912D01*
X126819135Y-71981381D01*
X127024302Y-71871717D01*
X127204134Y-71724134D01*
X127351717Y-71544303D01*
X127461381Y-71339136D01*
X127528912Y-71116516D01*
X127546000Y-70943016D01*
X127546000Y-70026985D01*
X127546000Y-70026984D01*
X127724000Y-70026984D01*
X127724000Y-70943015D01*
X127741088Y-71116515D01*
X127808619Y-71339135D01*
X127918283Y-71544302D01*
X128065866Y-71724134D01*
X128245697Y-71871717D01*
X128450864Y-71981381D01*
X128673484Y-72048912D01*
X128905000Y-72071714D01*
X129136515Y-72048912D01*
X129359135Y-71981381D01*
X129564302Y-71871717D01*
X129744134Y-71724134D01*
X129891717Y-71544303D01*
X130001381Y-71339136D01*
X130068912Y-71116516D01*
X130086000Y-70943016D01*
X130086000Y-70026985D01*
X130086000Y-70026984D01*
X130264000Y-70026984D01*
X130264000Y-70943015D01*
X130281088Y-71116515D01*
X130348619Y-71339135D01*
X130458283Y-71544302D01*
X130605866Y-71724134D01*
X130785697Y-71871717D01*
X130990864Y-71981381D01*
X131213484Y-72048912D01*
X131445000Y-72071714D01*
X131676515Y-72048912D01*
X131899135Y-71981381D01*
X132104302Y-71871717D01*
X132284134Y-71724134D01*
X132431717Y-71544303D01*
X132541381Y-71339136D01*
X132608912Y-71116516D01*
X132626000Y-70943016D01*
X132626000Y-70026985D01*
X132626000Y-70026984D01*
X132804000Y-70026984D01*
X132804000Y-70943015D01*
X132821088Y-71116515D01*
X132888619Y-71339135D01*
X132998283Y-71544302D01*
X133145866Y-71724134D01*
X133325697Y-71871717D01*
X133530864Y-71981381D01*
X133753484Y-72048912D01*
X133985000Y-72071714D01*
X134216515Y-72048912D01*
X134439135Y-71981381D01*
X134644302Y-71871717D01*
X134824134Y-71724134D01*
X134971717Y-71544303D01*
X135081381Y-71339136D01*
X135148912Y-71116516D01*
X135166000Y-70943016D01*
X135166000Y-70026985D01*
X135166000Y-70026984D01*
X135344000Y-70026984D01*
X135344000Y-70943015D01*
X135361088Y-71116515D01*
X135428619Y-71339135D01*
X135538283Y-71544302D01*
X135685866Y-71724134D01*
X135865697Y-71871717D01*
X136070864Y-71981381D01*
X136293484Y-72048912D01*
X136525000Y-72071714D01*
X136756515Y-72048912D01*
X136979135Y-71981381D01*
X137184302Y-71871717D01*
X137364134Y-71724134D01*
X137511717Y-71544303D01*
X137621381Y-71339136D01*
X137688912Y-71116516D01*
X137706000Y-70943016D01*
X137706000Y-70026985D01*
X137706000Y-70026984D01*
X137884000Y-70026984D01*
X137884000Y-70943015D01*
X137901088Y-71116515D01*
X137968619Y-71339135D01*
X138078283Y-71544302D01*
X138225866Y-71724134D01*
X138405697Y-71871717D01*
X138610864Y-71981381D01*
X138833484Y-72048912D01*
X139065000Y-72071714D01*
X139296515Y-72048912D01*
X139519135Y-71981381D01*
X139724302Y-71871717D01*
X139904134Y-71724134D01*
X140051717Y-71544303D01*
X140161381Y-71339136D01*
X140228912Y-71116516D01*
X140246000Y-70943016D01*
X140246000Y-70026985D01*
X140246000Y-70026984D01*
X140424000Y-70026984D01*
X140424000Y-70943015D01*
X140441088Y-71116515D01*
X140508619Y-71339135D01*
X140618283Y-71544302D01*
X140765866Y-71724134D01*
X140945697Y-71871717D01*
X141150864Y-71981381D01*
X141373484Y-72048912D01*
X141605000Y-72071714D01*
X141836515Y-72048912D01*
X142059135Y-71981381D01*
X142264302Y-71871717D01*
X142444134Y-71724134D01*
X142591717Y-71544303D01*
X142701381Y-71339136D01*
X142768912Y-71116516D01*
X142786000Y-70943016D01*
X142786000Y-70026985D01*
X142786000Y-70026984D01*
X142964000Y-70026984D01*
X142964000Y-70943015D01*
X142981088Y-71116515D01*
X143048619Y-71339135D01*
X143158283Y-71544302D01*
X143305866Y-71724134D01*
X143485697Y-71871717D01*
X143690864Y-71981381D01*
X143913484Y-72048912D01*
X144145000Y-72071714D01*
X144376515Y-72048912D01*
X144599135Y-71981381D01*
X144804302Y-71871717D01*
X144984134Y-71724134D01*
X145131717Y-71544303D01*
X145241381Y-71339136D01*
X145308912Y-71116516D01*
X145326000Y-70943016D01*
X145326000Y-70026985D01*
X145326000Y-70026984D01*
X145504000Y-70026984D01*
X145504000Y-70943015D01*
X145521088Y-71116515D01*
X145588619Y-71339135D01*
X145698283Y-71544302D01*
X145845866Y-71724134D01*
X146025697Y-71871717D01*
X146230864Y-71981381D01*
X146453484Y-72048912D01*
X146685000Y-72071714D01*
X146916515Y-72048912D01*
X147139135Y-71981381D01*
X147344302Y-71871717D01*
X147524134Y-71724134D01*
X147671717Y-71544303D01*
X147781381Y-71339136D01*
X147848912Y-71116516D01*
X147866000Y-70943016D01*
X147866000Y-70026985D01*
X147866000Y-70026984D01*
X148044000Y-70026984D01*
X148044000Y-70943015D01*
X148061088Y-71116515D01*
X148128619Y-71339135D01*
X148238283Y-71544302D01*
X148385866Y-71724134D01*
X148565697Y-71871717D01*
X148770864Y-71981381D01*
X148993484Y-72048912D01*
X149225000Y-72071714D01*
X149456515Y-72048912D01*
X149679135Y-71981381D01*
X149884302Y-71871717D01*
X150064134Y-71724134D01*
X150211717Y-71544303D01*
X150321381Y-71339136D01*
X150388912Y-71116516D01*
X150406000Y-70943016D01*
X150406000Y-70026985D01*
X150406000Y-70026984D01*
X150584000Y-70026984D01*
X150584000Y-70943015D01*
X150601088Y-71116515D01*
X150668619Y-71339135D01*
X150778283Y-71544302D01*
X150925866Y-71724134D01*
X151105697Y-71871717D01*
X151310864Y-71981381D01*
X151533484Y-72048912D01*
X151765000Y-72071714D01*
X151996515Y-72048912D01*
X152219135Y-71981381D01*
X152424302Y-71871717D01*
X152604134Y-71724134D01*
X152751717Y-71544303D01*
X152861381Y-71339136D01*
X152928912Y-71116516D01*
X152946000Y-70943016D01*
X152946000Y-70026985D01*
X152946000Y-70026984D01*
X153124000Y-70026984D01*
X153124000Y-70943015D01*
X153141088Y-71116515D01*
X153208619Y-71339135D01*
X153318283Y-71544302D01*
X153465866Y-71724134D01*
X153645697Y-71871717D01*
X153850864Y-71981381D01*
X154073484Y-72048912D01*
X154305000Y-72071714D01*
X154536515Y-72048912D01*
X154759135Y-71981381D01*
X154964302Y-71871717D01*
X155144134Y-71724134D01*
X155291717Y-71544303D01*
X155401381Y-71339136D01*
X155468912Y-71116516D01*
X155486000Y-70943016D01*
X155486000Y-70026985D01*
X155486000Y-70026984D01*
X155664000Y-70026984D01*
X155664000Y-70943015D01*
X155681088Y-71116515D01*
X155748619Y-71339135D01*
X155858283Y-71544302D01*
X156005866Y-71724134D01*
X156185697Y-71871717D01*
X156390864Y-71981381D01*
X156613484Y-72048912D01*
X156845000Y-72071714D01*
X157076515Y-72048912D01*
X157299135Y-71981381D01*
X157504302Y-71871717D01*
X157684134Y-71724134D01*
X157831717Y-71544303D01*
X157941381Y-71339136D01*
X158008912Y-71116516D01*
X158026000Y-70943016D01*
X158026000Y-70026985D01*
X158026000Y-70026984D01*
X158204000Y-70026984D01*
X158204000Y-70943015D01*
X158221088Y-71116515D01*
X158288619Y-71339135D01*
X158398283Y-71544302D01*
X158545866Y-71724134D01*
X158725697Y-71871717D01*
X158930864Y-71981381D01*
X159153484Y-72048912D01*
X159385000Y-72071714D01*
X159616515Y-72048912D01*
X159839135Y-71981381D01*
X160044302Y-71871717D01*
X160224134Y-71724134D01*
X160371717Y-71544303D01*
X160481381Y-71339136D01*
X160548912Y-71116516D01*
X160566000Y-70943016D01*
X160566000Y-70026985D01*
X160548912Y-69853485D01*
X160481381Y-69630864D01*
X160371717Y-69425697D01*
X160256251Y-69285000D01*
X160742157Y-69285000D01*
X160742157Y-71685000D01*
X160749513Y-71759689D01*
X160771299Y-71831508D01*
X160806678Y-71897696D01*
X160854289Y-71955711D01*
X160912304Y-72003322D01*
X160978492Y-72038701D01*
X161050311Y-72060487D01*
X161125000Y-72067843D01*
X162725000Y-72067843D01*
X162799689Y-72060487D01*
X162871508Y-72038701D01*
X162937696Y-72003322D01*
X162995711Y-71955711D01*
X163043322Y-71897696D01*
X163078701Y-71831508D01*
X163100487Y-71759689D01*
X163107843Y-71685000D01*
X163107843Y-69285000D01*
X163100487Y-69210311D01*
X163078701Y-69138492D01*
X163043322Y-69072304D01*
X162995711Y-69014289D01*
X162937696Y-68966678D01*
X162871508Y-68931299D01*
X162799689Y-68909513D01*
X162725000Y-68902157D01*
X161125000Y-68902157D01*
X161050311Y-68909513D01*
X160978492Y-68931299D01*
X160912304Y-68966678D01*
X160854289Y-69014289D01*
X160806678Y-69072304D01*
X160771299Y-69138492D01*
X160749513Y-69210311D01*
X160742157Y-69285000D01*
X160256251Y-69285000D01*
X160224134Y-69245866D01*
X160044303Y-69098283D01*
X159839136Y-68988619D01*
X159616516Y-68921088D01*
X159385000Y-68898286D01*
X159153485Y-68921088D01*
X158930865Y-68988619D01*
X158725698Y-69098283D01*
X158545867Y-69245866D01*
X158398284Y-69425697D01*
X158288619Y-69630864D01*
X158221088Y-69853484D01*
X158204000Y-70026984D01*
X158026000Y-70026984D01*
X158008912Y-69853485D01*
X157941381Y-69630864D01*
X157831717Y-69425697D01*
X157684134Y-69245866D01*
X157504303Y-69098283D01*
X157299136Y-68988619D01*
X157076516Y-68921088D01*
X156845000Y-68898286D01*
X156613485Y-68921088D01*
X156390865Y-68988619D01*
X156185698Y-69098283D01*
X156005867Y-69245866D01*
X155858284Y-69425697D01*
X155748619Y-69630864D01*
X155681088Y-69853484D01*
X155664000Y-70026984D01*
X155486000Y-70026984D01*
X155468912Y-69853485D01*
X155401381Y-69630864D01*
X155291717Y-69425697D01*
X155144134Y-69245866D01*
X154964303Y-69098283D01*
X154759136Y-68988619D01*
X154536516Y-68921088D01*
X154305000Y-68898286D01*
X154073485Y-68921088D01*
X153850865Y-68988619D01*
X153645698Y-69098283D01*
X153465867Y-69245866D01*
X153318284Y-69425697D01*
X153208619Y-69630864D01*
X153141088Y-69853484D01*
X153124000Y-70026984D01*
X152946000Y-70026984D01*
X152928912Y-69853485D01*
X152861381Y-69630864D01*
X152751717Y-69425697D01*
X152604134Y-69245866D01*
X152424303Y-69098283D01*
X152219136Y-68988619D01*
X151996516Y-68921088D01*
X151765000Y-68898286D01*
X151533485Y-68921088D01*
X151310865Y-68988619D01*
X151105698Y-69098283D01*
X150925867Y-69245866D01*
X150778284Y-69425697D01*
X150668619Y-69630864D01*
X150601088Y-69853484D01*
X150584000Y-70026984D01*
X150406000Y-70026984D01*
X150388912Y-69853485D01*
X150321381Y-69630864D01*
X150211717Y-69425697D01*
X150064134Y-69245866D01*
X149884303Y-69098283D01*
X149679136Y-68988619D01*
X149456516Y-68921088D01*
X149225000Y-68898286D01*
X148993485Y-68921088D01*
X148770865Y-68988619D01*
X148565698Y-69098283D01*
X148385867Y-69245866D01*
X148238284Y-69425697D01*
X148128619Y-69630864D01*
X148061088Y-69853484D01*
X148044000Y-70026984D01*
X147866000Y-70026984D01*
X147848912Y-69853485D01*
X147781381Y-69630864D01*
X147671717Y-69425697D01*
X147524134Y-69245866D01*
X147344303Y-69098283D01*
X147139136Y-68988619D01*
X146916516Y-68921088D01*
X146685000Y-68898286D01*
X146453485Y-68921088D01*
X146230865Y-68988619D01*
X146025698Y-69098283D01*
X145845867Y-69245866D01*
X145698284Y-69425697D01*
X145588619Y-69630864D01*
X145521088Y-69853484D01*
X145504000Y-70026984D01*
X145326000Y-70026984D01*
X145308912Y-69853485D01*
X145241381Y-69630864D01*
X145131717Y-69425697D01*
X144984134Y-69245866D01*
X144804303Y-69098283D01*
X144599136Y-68988619D01*
X144376516Y-68921088D01*
X144145000Y-68898286D01*
X143913485Y-68921088D01*
X143690865Y-68988619D01*
X143485698Y-69098283D01*
X143305867Y-69245866D01*
X143158284Y-69425697D01*
X143048619Y-69630864D01*
X142981088Y-69853484D01*
X142964000Y-70026984D01*
X142786000Y-70026984D01*
X142768912Y-69853485D01*
X142701381Y-69630864D01*
X142591717Y-69425697D01*
X142444134Y-69245866D01*
X142264303Y-69098283D01*
X142059136Y-68988619D01*
X141836516Y-68921088D01*
X141605000Y-68898286D01*
X141373485Y-68921088D01*
X141150865Y-68988619D01*
X140945698Y-69098283D01*
X140765867Y-69245866D01*
X140618284Y-69425697D01*
X140508619Y-69630864D01*
X140441088Y-69853484D01*
X140424000Y-70026984D01*
X140246000Y-70026984D01*
X140228912Y-69853485D01*
X140161381Y-69630864D01*
X140051717Y-69425697D01*
X139904134Y-69245866D01*
X139724303Y-69098283D01*
X139519136Y-68988619D01*
X139296516Y-68921088D01*
X139065000Y-68898286D01*
X138833485Y-68921088D01*
X138610865Y-68988619D01*
X138405698Y-69098283D01*
X138225867Y-69245866D01*
X138078284Y-69425697D01*
X137968619Y-69630864D01*
X137901088Y-69853484D01*
X137884000Y-70026984D01*
X137706000Y-70026984D01*
X137688912Y-69853485D01*
X137621381Y-69630864D01*
X137511717Y-69425697D01*
X137364134Y-69245866D01*
X137184303Y-69098283D01*
X136979136Y-68988619D01*
X136756516Y-68921088D01*
X136525000Y-68898286D01*
X136293485Y-68921088D01*
X136070865Y-68988619D01*
X135865698Y-69098283D01*
X135685867Y-69245866D01*
X135538284Y-69425697D01*
X135428619Y-69630864D01*
X135361088Y-69853484D01*
X135344000Y-70026984D01*
X135166000Y-70026984D01*
X135148912Y-69853485D01*
X135081381Y-69630864D01*
X134971717Y-69425697D01*
X134824134Y-69245866D01*
X134644303Y-69098283D01*
X134439136Y-68988619D01*
X134216516Y-68921088D01*
X133985000Y-68898286D01*
X133753485Y-68921088D01*
X133530865Y-68988619D01*
X133325698Y-69098283D01*
X133145867Y-69245866D01*
X132998284Y-69425697D01*
X132888619Y-69630864D01*
X132821088Y-69853484D01*
X132804000Y-70026984D01*
X132626000Y-70026984D01*
X132608912Y-69853485D01*
X132541381Y-69630864D01*
X132431717Y-69425697D01*
X132284134Y-69245866D01*
X132104303Y-69098283D01*
X131899136Y-68988619D01*
X131676516Y-68921088D01*
X131445000Y-68898286D01*
X131213485Y-68921088D01*
X130990865Y-68988619D01*
X130785698Y-69098283D01*
X130605867Y-69245866D01*
X130458284Y-69425697D01*
X130348619Y-69630864D01*
X130281088Y-69853484D01*
X130264000Y-70026984D01*
X130086000Y-70026984D01*
X130068912Y-69853485D01*
X130001381Y-69630864D01*
X129891717Y-69425697D01*
X129744134Y-69245866D01*
X129564303Y-69098283D01*
X129359136Y-68988619D01*
X129136516Y-68921088D01*
X128905000Y-68898286D01*
X128673485Y-68921088D01*
X128450865Y-68988619D01*
X128245698Y-69098283D01*
X128065867Y-69245866D01*
X127918284Y-69425697D01*
X127808619Y-69630864D01*
X127741088Y-69853484D01*
X127724000Y-70026984D01*
X127546000Y-70026984D01*
X127528912Y-69853485D01*
X127461381Y-69630864D01*
X127351717Y-69425697D01*
X127204134Y-69245866D01*
X127024303Y-69098283D01*
X126819136Y-68988619D01*
X126596516Y-68921088D01*
X126365000Y-68898286D01*
X126133485Y-68921088D01*
X125910865Y-68988619D01*
X125705698Y-69098283D01*
X125525867Y-69245866D01*
X125378284Y-69425697D01*
X125268619Y-69630864D01*
X125201088Y-69853484D01*
X125184000Y-70026984D01*
X125006000Y-70026984D01*
X124988912Y-69853485D01*
X124921381Y-69630864D01*
X124811717Y-69425697D01*
X124664134Y-69245866D01*
X124484303Y-69098283D01*
X124279136Y-68988619D01*
X124056516Y-68921088D01*
X123825000Y-68898286D01*
X123593485Y-68921088D01*
X123370865Y-68988619D01*
X123165698Y-69098283D01*
X122985867Y-69245866D01*
X122838284Y-69425697D01*
X122728619Y-69630864D01*
X122661088Y-69853484D01*
X122644000Y-70026984D01*
X122466000Y-70026984D01*
X122448912Y-69853485D01*
X122381381Y-69630864D01*
X122271717Y-69425697D01*
X122124134Y-69245866D01*
X121944303Y-69098283D01*
X121739136Y-68988619D01*
X121516516Y-68921088D01*
X121285000Y-68898286D01*
X121053485Y-68921088D01*
X120830865Y-68988619D01*
X120625698Y-69098283D01*
X120445867Y-69245866D01*
X120298284Y-69425697D01*
X120188619Y-69630864D01*
X120121088Y-69853484D01*
X120104000Y-70026984D01*
X119926000Y-70026984D01*
X119908912Y-69853485D01*
X119841381Y-69630864D01*
X119731717Y-69425697D01*
X119584134Y-69245866D01*
X119404303Y-69098283D01*
X119199136Y-68988619D01*
X118976516Y-68921088D01*
X118745000Y-68898286D01*
X118513485Y-68921088D01*
X118290865Y-68988619D01*
X118085698Y-69098283D01*
X117905867Y-69245866D01*
X117758284Y-69425697D01*
X117648619Y-69630864D01*
X117581088Y-69853484D01*
X117564000Y-70026984D01*
X117386000Y-70026984D01*
X117368912Y-69853485D01*
X117301381Y-69630864D01*
X117191717Y-69425697D01*
X117044134Y-69245866D01*
X116864303Y-69098283D01*
X116659136Y-68988619D01*
X116436516Y-68921088D01*
X116205000Y-68898286D01*
X115973485Y-68921088D01*
X115750865Y-68988619D01*
X115545698Y-69098283D01*
X115365867Y-69245866D01*
X115218284Y-69425697D01*
X115108619Y-69630864D01*
X115041088Y-69853484D01*
X115024000Y-70026984D01*
X114846000Y-70026984D01*
X114828912Y-69853485D01*
X114761381Y-69630864D01*
X114651717Y-69425697D01*
X114504134Y-69245866D01*
X114324303Y-69098283D01*
X114119136Y-68988619D01*
X113896516Y-68921088D01*
X113665000Y-68898286D01*
X113433485Y-68921088D01*
X113210865Y-68988619D01*
X113005698Y-69098283D01*
X112825867Y-69245866D01*
X112678284Y-69425697D01*
X112568619Y-69630864D01*
X112501088Y-69853484D01*
X112484000Y-70026984D01*
X112306000Y-70026984D01*
X112288912Y-69853485D01*
X112221381Y-69630864D01*
X112111717Y-69425697D01*
X111964134Y-69245866D01*
X111784303Y-69098283D01*
X111579136Y-68988619D01*
X111356516Y-68921088D01*
X111125000Y-68898286D01*
X110893485Y-68921088D01*
X110670865Y-68988619D01*
X110465698Y-69098283D01*
X110285867Y-69245866D01*
X110138284Y-69425697D01*
X110028619Y-69630864D01*
X109961088Y-69853484D01*
X109944000Y-70026984D01*
X109766000Y-70026984D01*
X109748912Y-69853485D01*
X109681381Y-69630864D01*
X109571717Y-69425697D01*
X109424134Y-69245866D01*
X109244303Y-69098283D01*
X109039136Y-68988619D01*
X108816516Y-68921088D01*
X108585000Y-68898286D01*
X108353485Y-68921088D01*
X108130865Y-68988619D01*
X107925698Y-69098283D01*
X107745867Y-69245866D01*
X107598284Y-69425697D01*
X107488619Y-69630864D01*
X107421088Y-69853484D01*
X107404000Y-70026984D01*
X107226000Y-70026984D01*
X107208912Y-69853485D01*
X107141381Y-69630864D01*
X107031717Y-69425697D01*
X106884134Y-69245866D01*
X106704303Y-69098283D01*
X106499136Y-68988619D01*
X106276516Y-68921088D01*
X106045000Y-68898286D01*
X105813485Y-68921088D01*
X105590865Y-68988619D01*
X105385698Y-69098283D01*
X105205867Y-69245866D01*
X105058284Y-69425697D01*
X104948619Y-69630864D01*
X104881088Y-69853484D01*
X104864000Y-70026984D01*
X104686000Y-70026984D01*
X104668912Y-69853485D01*
X104601381Y-69630864D01*
X104491717Y-69425697D01*
X104344134Y-69245866D01*
X104164303Y-69098283D01*
X103959136Y-68988619D01*
X103736516Y-68921088D01*
X103505000Y-68898286D01*
X103273485Y-68921088D01*
X103050865Y-68988619D01*
X102845698Y-69098283D01*
X102665867Y-69245866D01*
X102518284Y-69425697D01*
X102408619Y-69630864D01*
X102341088Y-69853484D01*
X102324000Y-70026984D01*
X74776000Y-70026984D01*
X74776000Y-69111520D01*
X74790870Y-68959865D01*
X74828082Y-68836612D01*
X74888526Y-68722932D01*
X74969899Y-68623159D01*
X75069105Y-68541089D01*
X75182357Y-68479853D01*
X75305352Y-68441780D01*
X75455492Y-68426000D01*
X155852626Y-68426000D01*
X155873514Y-68423943D01*
X155880573Y-68423992D01*
X155887257Y-68423337D01*
X156109109Y-68400020D01*
X156151789Y-68391259D01*
X156194638Y-68383085D01*
X156201068Y-68381144D01*
X156414166Y-68315179D01*
X156454315Y-68298301D01*
X156494776Y-68281954D01*
X156500706Y-68278801D01*
X156696933Y-68172700D01*
X156733059Y-68148333D01*
X156769553Y-68124452D01*
X156774758Y-68120207D01*
X156946640Y-67978014D01*
X156977359Y-67947080D01*
X157008505Y-67916579D01*
X157012787Y-67911404D01*
X157153776Y-67738534D01*
X157177887Y-67702245D01*
X157202533Y-67666250D01*
X157205727Y-67660342D01*
X157310454Y-67463378D01*
X157327064Y-67423079D01*
X157344240Y-67383004D01*
X157346226Y-67376588D01*
X157402936Y-67188757D01*
X158408000Y-67188757D01*
X158408000Y-67431243D01*
X158455307Y-67669069D01*
X158548102Y-67893097D01*
X158682820Y-68094717D01*
X158854283Y-68266180D01*
X159055903Y-68400898D01*
X159279931Y-68493693D01*
X159517757Y-68541000D01*
X159760243Y-68541000D01*
X159998069Y-68493693D01*
X160222097Y-68400898D01*
X160423717Y-68266180D01*
X160595180Y-68094717D01*
X160729898Y-67893097D01*
X160822693Y-67669069D01*
X160870000Y-67431243D01*
X160870000Y-67188757D01*
X160822693Y-66950931D01*
X160729898Y-66726903D01*
X160595180Y-66525283D01*
X160423717Y-66353820D01*
X160222097Y-66219102D01*
X159998069Y-66126307D01*
X159760243Y-66079000D01*
X159517757Y-66079000D01*
X159279931Y-66126307D01*
X159055903Y-66219102D01*
X158854283Y-66353820D01*
X158682820Y-66525283D01*
X158548102Y-66726903D01*
X158455307Y-66950931D01*
X158408000Y-67188757D01*
X157402936Y-67188757D01*
X157410702Y-67163035D01*
X157419166Y-67120289D01*
X157428234Y-67077626D01*
X157428936Y-67070947D01*
X157450704Y-66848936D01*
X157453000Y-66825626D01*
X157453000Y-64566301D01*
X157478987Y-64443409D01*
X157529584Y-64325017D01*
X157602212Y-64218708D01*
X157694103Y-64128533D01*
X157801768Y-64057919D01*
X157921087Y-64009566D01*
X158059871Y-63982941D01*
X158119018Y-63980224D01*
X158406157Y-63980274D01*
G37*
G04 #@! TD.AperFunction*
M02*
