  0
SECTION
  2
HEADER
  9
$ANGBASE
  50
0.0
  9
$ANGDIR
  70
1
  9
$MEASUREMENT
  70
1
  0
ENDSEC
  0
SECTION
  2
TABLES
  0
TABLE
  2
LTYPE
  70
4
  0
LTYPE
  5
40F
  2
CONTINUOUS
  70
0
  3
Solid line
  72
65
  73
0
  40
0.0
  0
LTYPE
  5
410
  2
DASHDOT
 70
0
  3
Dash Dot ____ _ ____ _
 72
65
 73
4
 40
2.0
 49
1.25
 49
-0.25
 49
0.25
 49
-0.25
  0
LTYPE
  5
411
  2
DASHED
 70
0
  3
Dashed __ __ __ __ __
 72
65
 73
2
 40
0.75
 49
0.5
 49
-0.25
  0
LTYPE
  5
43B
  2
DOTTED
 70
0
  3
Dotted .  .  .  .
 72
65
 73
2
 40
0.2
 49
0.0
 49
-0.2
  0
ENDTAB
  0
TABLE
  2
STYLE
  70
4
  0
STYLE
  2
KICAD
  70
0
  40
0
  41
1
  42
1
  50
0
  71
0
  3
isocp.shx
  0
STYLE
  2
KICADB
  70
0
  40
0
  41
1
  42
1
  50
0
  71
0
  3
isocp.shx
  0
STYLE
  2
KICADI
  70
0
  40
0
  41
1
  42
1
  50
15
  71
0
  3
isocp.shx
  0
STYLE
  2
KICADBI
  70
0
  40
0
  41
1
  42
1
  50
15
  71
0
  3
isocp.shx
  0
ENDTAB
  0
TABLE
  2
LAYER
  70
1
  0
LAYER
  2
BLACK
  70
0
  62
7
  6
CONTINUOUS
  0
ENDTAB
  0
ENDSEC
  0
SECTION
  2
ENTITIES
0
LINE
8
BLACK
6
CONTINUOUS
10
163.026
20
-63.4909
11
163.034
21
-63.4945
0
LINE
8
BLACK
6
CONTINUOUS
10
163.034
20
-63.4945
11
163.043
21
-63.4979
0
LINE
8
BLACK
6
CONTINUOUS
10
163.043
20
-63.4979
11
163.239
21
-63.6027
0
LINE
8
BLACK
6
CONTINUOUS
10
163.239
20
-63.6027
11
163.239
21
-63.6027
0
LINE
8
BLACK
6
CONTINUOUS
10
163.239
20
-63.6027
11
163.239
21
-63.6027
0
LINE
8
BLACK
6
CONTINUOUS
10
163.239
20
-63.6027
11
163.241
21
-63.6033
0
LINE
8
BLACK
6
CONTINUOUS
10
163.241
20
-63.6033
11
163.248
21
-63.6085
0
LINE
8
BLACK
6
CONTINUOUS
10
163.248
20
-63.6085
11
163.256
21
-63.6135
0
LINE
8
BLACK
6
CONTINUOUS
10
163.256
20
-63.6135
11
163.429
21
-63.7545
0
LINE
8
BLACK
6
CONTINUOUS
10
163.429
20
-63.7545
11
163.43
21
-63.7554
0
LINE
8
BLACK
6
CONTINUOUS
10
163.43
20
-63.7554
11
163.436
21
-63.7618
0
LINE
8
BLACK
6
CONTINUOUS
10
163.436
20
-63.7618
11
163.442
21
-63.7682
0
LINE
8
BLACK
6
CONTINUOUS
10
163.442
20
-63.7682
11
163.585
21
-63.9401
0
LINE
8
BLACK
6
CONTINUOUS
10
163.585
20
-63.9401
11
163.586
21
-63.9412
0
LINE
8
BLACK
6
CONTINUOUS
10
163.586
20
-63.9412
11
163.59
21
-63.9488
0
LINE
8
BLACK
6
CONTINUOUS
10
163.59
20
-63.9488
11
163.596
21
-63.9563
0
LINE
8
BLACK
6
CONTINUOUS
10
163.596
20
-63.9563
11
163.702
21
-64.1525
0
LINE
8
BLACK
6
CONTINUOUS
10
163.702
20
-64.1525
11
163.702
21
-64.1537
0
LINE
8
BLACK
6
CONTINUOUS
10
163.702
20
-64.1537
11
163.706
21
-64.1621
0
LINE
8
BLACK
6
CONTINUOUS
10
163.706
20
-64.1621
11
163.709
21
-64.1705
0
LINE
8
BLACK
6
CONTINUOUS
10
163.709
20
-64.1705
11
163.775
21
-64.3836
0
LINE
8
BLACK
6
CONTINUOUS
10
163.775
20
-64.3836
11
163.776
21
-64.3849
0
LINE
8
BLACK
6
CONTINUOUS
10
163.776
20
-64.3849
11
163.777
21
-64.3939
0
LINE
8
BLACK
6
CONTINUOUS
10
163.777
20
-64.3939
11
163.779
21
-64.4027
0
LINE
8
BLACK
6
CONTINUOUS
10
163.779
20
-64.4027
11
163.802
21
-64.6246
0
LINE
8
BLACK
6
CONTINUOUS
10
163.802
20
-64.6246
11
163.803
21
-64.626
0
LINE
8
BLACK
6
CONTINUOUS
10
163.803
20
-64.626
11
163.803
21
-64.6303
0
LINE
8
BLACK
6
CONTINUOUS
10
163.803
20
-64.6303
11
163.803
21
-64.6347
0
LINE
8
BLACK
6
CONTINUOUS
10
163.803
20
-64.6347
11
163.803
21
-64.6379
0
LINE
8
BLACK
6
CONTINUOUS
10
163.803
20
-64.6379
11
163.803
21
-64.6381
0
LINE
8
BLACK
6
CONTINUOUS
10
163.803
20
-64.6381
11
163.803
21
-77.0939
0
LINE
8
BLACK
6
CONTINUOUS
10
163.803
20
-77.0939
11
163.802
21
-77.1086
0
LINE
8
BLACK
6
CONTINUOUS
10
163.802
20
-77.1086
11
163.796
21
-77.1275
0
LINE
8
BLACK
6
CONTINUOUS
10
163.796
20
-77.1275
11
163.787
21
-77.1448
0
LINE
8
BLACK
6
CONTINUOUS
10
163.787
20
-77.1448
11
163.774
21
-77.1601
0
LINE
8
BLACK
6
CONTINUOUS
10
163.774
20
-77.1601
11
163.759
21
-77.1725
0
LINE
8
BLACK
6
CONTINUOUS
10
163.759
20
-77.1725
11
163.741
21
-77.1818
0
LINE
8
BLACK
6
CONTINUOUS
10
163.741
20
-77.1818
11
163.723
21
-77.1876
0
LINE
8
BLACK
6
CONTINUOUS
10
163.723
20
-77.1876
11
163.703
21
-77.1895
0
LINE
8
BLACK
6
CONTINUOUS
10
163.703
20
-77.1895
11
163.698
21
-77.189
0
LINE
8
BLACK
6
CONTINUOUS
10
163.698
20
-77.189
11
163.695
21
-77.1891
0
LINE
8
BLACK
6
CONTINUOUS
10
163.695
20
-77.1891
11
163.513
21
-77.2095
0
LINE
8
BLACK
6
CONTINUOUS
10
163.513
20
-77.2095
11
163.342
21
-77.2635
0
LINE
8
BLACK
6
CONTINUOUS
10
163.342
20
-77.2635
11
163.186
21
-77.3496
0
LINE
8
BLACK
6
CONTINUOUS
10
163.186
20
-77.3496
11
163.049
21
-77.4644
0
LINE
8
BLACK
6
CONTINUOUS
10
163.049
20
-77.4644
11
162.937
21
-77.6037
0
LINE
8
BLACK
6
CONTINUOUS
10
162.937
20
-77.6037
11
162.854
21
-77.762
0
LINE
8
BLACK
6
CONTINUOUS
10
162.854
20
-77.762
11
162.804
21
-77.9334
0
LINE
8
BLACK
6
CONTINUOUS
10
162.804
20
-77.9334
11
162.788
21
-78.1114
0
LINE
8
BLACK
6
CONTINUOUS
10
162.788
20
-78.1114
11
162.806
21
-78.2891
0
LINE
8
BLACK
6
CONTINUOUS
10
162.806
20
-78.2891
11
162.859
21
-78.4598
0
LINE
8
BLACK
6
CONTINUOUS
10
162.859
20
-78.4598
11
162.944
21
-78.617
0
LINE
8
BLACK
6
CONTINUOUS
10
162.944
20
-78.617
11
163.058
21
-78.7546
0
LINE
8
BLACK
6
CONTINUOUS
10
163.058
20
-78.7546
11
163.196
21
-78.8676
0
LINE
8
BLACK
6
CONTINUOUS
10
163.196
20
-78.8676
11
163.354
21
-78.9514
0
LINE
8
BLACK
6
CONTINUOUS
10
163.354
20
-78.9514
11
163.525
21
-79.0031
0
LINE
8
BLACK
6
CONTINUOUS
10
163.525
20
-79.0031
11
163.703
21
-79.0205
0
LINE
8
BLACK
6
CONTINUOUS
10
163.703
20
-79.0205
11
163.703
21
-79.0205
0
LINE
8
BLACK
6
CONTINUOUS
10
163.703
20
-79.0205
11
163.71
21
-79.0212
0
LINE
8
BLACK
6
CONTINUOUS
10
163.71
20
-79.0212
11
163.713
21
-79.0215
0
LINE
8
BLACK
6
CONTINUOUS
10
163.713
20
-79.0215
11
163.713
21
-79.0215
0
LINE
8
BLACK
6
CONTINUOUS
10
163.713
20
-79.0215
11
163.723
21
-79.0224
0
LINE
8
BLACK
6
CONTINUOUS
10
163.723
20
-79.0224
11
163.741
21
-79.0282
0
LINE
8
BLACK
6
CONTINUOUS
10
163.741
20
-79.0282
11
163.759
21
-79.0375
0
LINE
8
BLACK
6
CONTINUOUS
10
163.759
20
-79.0375
11
163.774
21
-79.0499
0
LINE
8
BLACK
6
CONTINUOUS
10
163.774
20
-79.0499
11
163.787
21
-79.0652
0
LINE
8
BLACK
6
CONTINUOUS
10
163.787
20
-79.0652
11
163.796
21
-79.0825
0
LINE
8
BLACK
6
CONTINUOUS
10
163.796
20
-79.0825
11
163.802
21
-79.1014
0
LINE
8
BLACK
6
CONTINUOUS
10
163.802
20
-79.1014
11
163.803
21
-79.1161
0
LINE
8
BLACK
6
CONTINUOUS
10
163.803
20
-79.1161
11
163.803
21
-88.9049
0
LINE
8
BLACK
6
CONTINUOUS
10
163.803
20
-88.9049
11
163.803
21
-88.9097
0
LINE
8
BLACK
6
CONTINUOUS
10
163.803
20
-88.9097
11
163.803
21
-88.9098
0
LINE
8
BLACK
6
CONTINUOUS
10
163.803
20
-88.9098
11
163.781
21
-89.1318
0
LINE
8
BLACK
6
CONTINUOUS
10
163.781
20
-89.1318
11
163.781
21
-89.1332
0
LINE
8
BLACK
6
CONTINUOUS
10
163.781
20
-89.1332
11
163.779
21
-89.142
0
LINE
8
BLACK
6
CONTINUOUS
10
163.779
20
-89.142
11
163.777
21
-89.1509
0
LINE
8
BLACK
6
CONTINUOUS
10
163.777
20
-89.1509
11
163.712
21
-89.3645
0
LINE
8
BLACK
6
CONTINUOUS
10
163.712
20
-89.3645
11
163.712
21
-89.3658
0
LINE
8
BLACK
6
CONTINUOUS
10
163.712
20
-89.3658
11
163.709
21
-89.3741
0
LINE
8
BLACK
6
CONTINUOUS
10
163.709
20
-89.3741
11
163.705
21
-89.3825
0
LINE
8
BLACK
6
CONTINUOUS
10
163.705
20
-89.3825
11
163.6
21
-89.5795
0
LINE
8
BLACK
6
CONTINUOUS
10
163.6
20
-89.5795
11
163.6
21
-89.5807
0
LINE
8
BLACK
6
CONTINUOUS
10
163.6
20
-89.5807
11
163.595
21
-89.5882
0
LINE
8
BLACK
6
CONTINUOUS
10
163.595
20
-89.5882
11
163.59
21
-89.5957
0
LINE
8
BLACK
6
CONTINUOUS
10
163.59
20
-89.5957
11
163.449
21
-89.7686
0
LINE
8
BLACK
6
CONTINUOUS
10
163.449
20
-89.7686
11
163.449
21
-89.7686
0
LINE
8
BLACK
6
CONTINUOUS
10
163.449
20
-89.7686
11
163.449
21
-89.7686
0
LINE
8
BLACK
6
CONTINUOUS
10
163.449
20
-89.7686
11
163.448
21
-89.7697
0
LINE
8
BLACK
6
CONTINUOUS
10
163.448
20
-89.7697
11
163.441
21
-89.776
0
LINE
8
BLACK
6
CONTINUOUS
10
163.441
20
-89.776
11
163.435
21
-89.7824
0
LINE
8
BLACK
6
CONTINUOUS
10
163.435
20
-89.7824
11
163.263
21
-89.9246
0
LINE
8
BLACK
6
CONTINUOUS
10
163.263
20
-89.9246
11
163.263
21
-89.9246
0
LINE
8
BLACK
6
CONTINUOUS
10
163.263
20
-89.9246
11
163.263
21
-89.9247
0
LINE
8
BLACK
6
CONTINUOUS
10
163.263
20
-89.9247
11
163.262
21
-89.9255
0
LINE
8
BLACK
6
CONTINUOUS
10
163.262
20
-89.9255
11
163.254
21
-89.9304
0
LINE
8
BLACK
6
CONTINUOUS
10
163.254
20
-89.9304
11
163.247
21
-89.9356
0
LINE
8
BLACK
6
CONTINUOUS
10
163.247
20
-89.9356
11
163.05
21
-90.0417
0
LINE
8
BLACK
6
CONTINUOUS
10
163.05
20
-90.0417
11
163.05
21
-90.0417
0
LINE
8
BLACK
6
CONTINUOUS
10
163.05
20
-90.0417
11
163.05
21
-90.0417
0
LINE
8
BLACK
6
CONTINUOUS
10
163.05
20
-90.0417
11
163.049
21
-90.0423
0
LINE
8
BLACK
6
CONTINUOUS
10
163.049
20
-90.0423
11
163.041
21
-90.0457
0
LINE
8
BLACK
6
CONTINUOUS
10
163.041
20
-90.0457
11
163.033
21
-90.0492
0
LINE
8
BLACK
6
CONTINUOUS
10
163.033
20
-90.0492
11
162.819
21
-90.1152
0
LINE
8
BLACK
6
CONTINUOUS
10
162.819
20
-90.1152
11
162.818
21
-90.1156
0
LINE
8
BLACK
6
CONTINUOUS
10
162.818
20
-90.1156
11
162.809
21
-90.1173
0
LINE
8
BLACK
6
CONTINUOUS
10
162.809
20
-90.1173
11
162.8
21
-90.1191
0
LINE
8
BLACK
6
CONTINUOUS
10
162.8
20
-90.1191
11
162.578
21
-90.1424
0
LINE
8
BLACK
6
CONTINUOUS
10
162.578
20
-90.1424
11
162.577
21
-90.1426
0
LINE
8
BLACK
6
CONTINUOUS
10
162.577
20
-90.1426
11
162.573
21
-90.1425
0
LINE
8
BLACK
6
CONTINUOUS
10
162.573
20
-90.1425
11
162.568
21
-90.143
0
LINE
8
BLACK
6
CONTINUOUS
10
162.568
20
-90.143
11
162.565
21
-90.143
0
LINE
8
BLACK
6
CONTINUOUS
10
162.565
20
-90.143
11
162.565
21
-90.143
0
LINE
8
BLACK
6
CONTINUOUS
10
162.565
20
-90.143
11
102.865
21
-90.143
0
LINE
8
BLACK
6
CONTINUOUS
10
102.865
20
-90.143
11
102.86
21
-90.1425
0
LINE
8
BLACK
6
CONTINUOUS
10
102.86
20
-90.1425
11
102.86
21
-90.1425
0
LINE
8
BLACK
6
CONTINUOUS
10
102.86
20
-90.1425
11
102.638
21
-90.1208
0
LINE
8
BLACK
6
CONTINUOUS
10
102.638
20
-90.1208
11
102.638
21
-90.1208
0
LINE
8
BLACK
6
CONTINUOUS
10
102.638
20
-90.1208
11
102.637
21
-90.1206
0
LINE
8
BLACK
6
CONTINUOUS
10
102.637
20
-90.1206
11
102.628
21
-90.1187
0
LINE
8
BLACK
6
CONTINUOUS
10
102.628
20
-90.1187
11
102.619
21
-90.117
0
LINE
8
BLACK
6
CONTINUOUS
10
102.619
20
-90.117
11
102.406
21
-90.0525
0
LINE
8
BLACK
6
CONTINUOUS
10
102.406
20
-90.0525
11
102.406
21
-90.0525
0
LINE
8
BLACK
6
CONTINUOUS
10
102.406
20
-90.0525
11
102.404
21
-90.0521
0
LINE
8
BLACK
6
CONTINUOUS
10
102.404
20
-90.0521
11
102.396
21
-90.0485
0
LINE
8
BLACK
6
CONTINUOUS
10
102.396
20
-90.0485
11
102.387
21
-90.0451
0
LINE
8
BLACK
6
CONTINUOUS
10
102.387
20
-90.0451
11
102.191
21
-89.9403
0
LINE
8
BLACK
6
CONTINUOUS
10
102.191
20
-89.9403
11
102.189
21
-89.9397
0
LINE
8
BLACK
6
CONTINUOUS
10
102.189
20
-89.9397
11
102.182
21
-89.9345
0
LINE
8
BLACK
6
CONTINUOUS
10
102.182
20
-89.9345
11
102.174
21
-89.9295
0
LINE
8
BLACK
6
CONTINUOUS
10
102.174
20
-89.9295
11
102.001
21
-89.7885
0
LINE
8
BLACK
6
CONTINUOUS
10
102.001
20
-89.7885
11
102.001
21
-89.7885
0
LINE
8
BLACK
6
CONTINUOUS
10
102.001
20
-89.7885
11
102.001
21
-89.7885
0
LINE
8
BLACK
6
CONTINUOUS
10
102.001
20
-89.7885
11
102
21
-89.7876
0
LINE
8
BLACK
6
CONTINUOUS
10
102
20
-89.7876
11
101.994
21
-89.7812
0
LINE
8
BLACK
6
CONTINUOUS
10
101.994
20
-89.7812
11
101.988
21
-89.7748
0
LINE
8
BLACK
6
CONTINUOUS
10
101.988
20
-89.7748
11
101.845
21
-89.6029
0
LINE
8
BLACK
6
CONTINUOUS
10
101.845
20
-89.6029
11
101.845
21
-89.6029
0
LINE
8
BLACK
6
CONTINUOUS
10
101.845
20
-89.6029
11
101.845
21
-89.6029
0
LINE
8
BLACK
6
CONTINUOUS
10
101.845
20
-89.6029
11
101.844
21
-89.6018
0
LINE
8
BLACK
6
CONTINUOUS
10
101.844
20
-89.6018
11
101.84
21
-89.5943
0
LINE
8
BLACK
6
CONTINUOUS
10
101.84
20
-89.5943
11
101.834
21
-89.5867
0
LINE
8
BLACK
6
CONTINUOUS
10
101.834
20
-89.5867
11
101.728
21
-89.3905
0
LINE
8
BLACK
6
CONTINUOUS
10
101.728
20
-89.3905
11
101.728
21
-89.3893
0
LINE
8
BLACK
6
CONTINUOUS
10
101.728
20
-89.3893
11
101.724
21
-89.3809
0
LINE
8
BLACK
6
CONTINUOUS
10
101.724
20
-89.3809
11
101.721
21
-89.3725
0
LINE
8
BLACK
6
CONTINUOUS
10
101.721
20
-89.3725
11
101.655
21
-89.1594
0
LINE
8
BLACK
6
CONTINUOUS
10
101.655
20
-89.1594
11
101.654
21
-89.1581
0
LINE
8
BLACK
6
CONTINUOUS
10
101.654
20
-89.1581
11
101.653
21
-89.1492
0
LINE
8
BLACK
6
CONTINUOUS
10
101.653
20
-89.1492
11
101.651
21
-89.1403
0
LINE
8
BLACK
6
CONTINUOUS
10
101.651
20
-89.1403
11
101.628
21
-88.9184
0
LINE
8
BLACK
6
CONTINUOUS
10
101.628
20
-88.9184
11
101.627
21
-88.917
0
LINE
8
BLACK
6
CONTINUOUS
10
101.627
20
-88.917
11
101.627
21
-88.9127
0
LINE
8
BLACK
6
CONTINUOUS
10
101.627
20
-88.9127
11
101.627
21
-88.9083
0
LINE
8
BLACK
6
CONTINUOUS
10
101.627
20
-88.9083
11
101.627
21
-88.9051
0
LINE
8
BLACK
6
CONTINUOUS
10
101.627
20
-88.9051
11
101.627
21
-88.9049
0
LINE
8
BLACK
6
CONTINUOUS
10
101.627
20
-88.9049
11
101.627
21
-86.3601
0
LINE
8
BLACK
6
CONTINUOUS
10
101.627
20
-86.3601
11
101.627
21
-86.3574
0
LINE
8
BLACK
6
CONTINUOUS
10
101.627
20
-86.3574
11
101.605
21
-86.1504
0
LINE
8
BLACK
6
CONTINUOUS
10
101.605
20
-86.1504
11
101.545
21
-85.956
0
LINE
8
BLACK
6
CONTINUOUS
10
101.545
20
-85.956
11
101.448
21
-85.777
0
LINE
8
BLACK
6
CONTINUOUS
10
101.448
20
-85.777
11
101.319
21
-85.6203
0
LINE
8
BLACK
6
CONTINUOUS
10
101.319
20
-85.6203
11
101.161
21
-85.4917
0
LINE
8
BLACK
6
CONTINUOUS
10
101.161
20
-85.4917
11
100.981
21
-85.3961
0
LINE
8
BLACK
6
CONTINUOUS
10
100.981
20
-85.3961
11
100.786
21
-85.3373
0
LINE
8
BLACK
6
CONTINUOUS
10
100.786
20
-85.3373
11
100.579
21
-85.317
0
LINE
8
BLACK
6
CONTINUOUS
10
100.579
20
-85.317
11
75.4331
21
-85.317
0
LINE
8
BLACK
6
CONTINUOUS
10
75.4331
20
-85.317
11
75.4283
21
-85.3165
0
LINE
8
BLACK
6
CONTINUOUS
10
75.4283
20
-85.3165
11
75.4282
21
-85.3165
0
LINE
8
BLACK
6
CONTINUOUS
10
75.4282
20
-85.3165
11
75.2062
21
-85.2948
0
LINE
8
BLACK
6
CONTINUOUS
10
75.2062
20
-85.2948
11
75.2062
21
-85.2948
0
LINE
8
BLACK
6
CONTINUOUS
10
75.2062
20
-85.2948
11
75.2048
21
-85.2946
0
LINE
8
BLACK
6
CONTINUOUS
10
75.2048
20
-85.2946
11
75.196
21
-85.2927
0
LINE
8
BLACK
6
CONTINUOUS
10
75.196
20
-85.2927
11
75.1871
21
-85.291
0
LINE
8
BLACK
6
CONTINUOUS
10
75.1871
20
-85.291
11
74.9735
21
-85.2265
0
LINE
8
BLACK
6
CONTINUOUS
10
74.9735
20
-85.2265
11
74.9735
21
-85.2265
0
LINE
8
BLACK
6
CONTINUOUS
10
74.9735
20
-85.2265
11
74.9722
21
-85.2261
0
LINE
8
BLACK
6
CONTINUOUS
10
74.9722
20
-85.2261
11
74.9639
21
-85.2225
0
LINE
8
BLACK
6
CONTINUOUS
10
74.9639
20
-85.2225
11
74.9555
21
-85.2191
0
LINE
8
BLACK
6
CONTINUOUS
10
74.9555
20
-85.2191
11
74.7585
21
-85.1143
0
LINE
8
BLACK
6
CONTINUOUS
10
74.7585
20
-85.1143
11
74.7573
21
-85.1137
0
LINE
8
BLACK
6
CONTINUOUS
10
74.7573
20
-85.1137
11
74.7498
21
-85.1085
0
LINE
8
BLACK
6
CONTINUOUS
10
74.7498
20
-85.1085
11
74.7423
21
-85.1035
0
LINE
8
BLACK
6
CONTINUOUS
10
74.7423
20
-85.1035
11
74.5694
21
-84.9625
0
LINE
8
BLACK
6
CONTINUOUS
10
74.5694
20
-84.9625
11
74.5694
21
-84.9625
0
LINE
8
BLACK
6
CONTINUOUS
10
74.5694
20
-84.9625
11
74.5694
21
-84.9625
0
LINE
8
BLACK
6
CONTINUOUS
10
74.5694
20
-84.9625
11
74.5683
21
-84.9616
0
LINE
8
BLACK
6
CONTINUOUS
10
74.5683
20
-84.9616
11
74.562
21
-84.9552
0
LINE
8
BLACK
6
CONTINUOUS
10
74.562
20
-84.9552
11
74.5556
21
-84.9488
0
LINE
8
BLACK
6
CONTINUOUS
10
74.5556
20
-84.9488
11
74.4134
21
-84.7769
0
LINE
8
BLACK
6
CONTINUOUS
10
74.4134
20
-84.7769
11
74.4134
21
-84.7769
0
LINE
8
BLACK
6
CONTINUOUS
10
74.4134
20
-84.7769
11
74.4133
21
-84.7769
0
LINE
8
BLACK
6
CONTINUOUS
10
74.4133
20
-84.7769
11
74.4125
21
-84.7758
0
LINE
8
BLACK
6
CONTINUOUS
10
74.4125
20
-84.7758
11
74.4076
21
-84.7683
0
LINE
8
BLACK
6
CONTINUOUS
10
74.4076
20
-84.7683
11
74.4024
21
-84.7607
0
LINE
8
BLACK
6
CONTINUOUS
10
74.4024
20
-84.7607
11
74.2963
21
-84.5645
0
LINE
8
BLACK
6
CONTINUOUS
10
74.2963
20
-84.5645
11
74.2957
21
-84.5633
0
LINE
8
BLACK
6
CONTINUOUS
10
74.2957
20
-84.5633
11
74.2923
21
-84.5549
0
LINE
8
BLACK
6
CONTINUOUS
10
74.2923
20
-84.5549
11
74.2888
21
-84.5465
0
LINE
8
BLACK
6
CONTINUOUS
10
74.2888
20
-84.5465
11
74.2228
21
-84.3334
0
LINE
8
BLACK
6
CONTINUOUS
10
74.2228
20
-84.3334
11
74.2224
21
-84.3321
0
LINE
8
BLACK
6
CONTINUOUS
10
74.2224
20
-84.3321
11
74.2207
21
-84.3232
0
LINE
8
BLACK
6
CONTINUOUS
10
74.2207
20
-84.3232
11
74.2189
21
-84.3143
0
LINE
8
BLACK
6
CONTINUOUS
10
74.2189
20
-84.3143
11
74.1956
21
-84.0924
0
LINE
8
BLACK
6
CONTINUOUS
10
74.1956
20
-84.0924
11
74.1954
21
-84.091
0
LINE
8
BLACK
6
CONTINUOUS
10
74.1954
20
-84.091
11
74.1955
21
-84.0867
0
LINE
8
BLACK
6
CONTINUOUS
10
74.1955
20
-84.0867
11
74.195
21
-84.0823
0
LINE
8
BLACK
6
CONTINUOUS
10
74.195
20
-84.0823
11
74.195
21
-84.0791
0
LINE
8
BLACK
6
CONTINUOUS
10
74.195
20
-84.0791
11
74.195
21
-84.0789
0
LINE
8
BLACK
6
CONTINUOUS
10
74.195
20
-84.0789
11
74.195
21
-69.0831
0
LINE
8
BLACK
6
CONTINUOUS
10
74.195
20
-69.0831
11
74.1955
21
-69.0783
0
LINE
8
BLACK
6
CONTINUOUS
10
74.1955
20
-69.0783
11
74.1955
21
-69.0782
0
LINE
8
BLACK
6
CONTINUOUS
10
74.1955
20
-69.0782
11
74.2172
21
-68.8562
0
LINE
8
BLACK
6
CONTINUOUS
10
74.2172
20
-68.8562
11
74.2174
21
-68.8548
0
LINE
8
BLACK
6
CONTINUOUS
10
74.2174
20
-68.8548
11
74.2193
21
-68.846
0
LINE
8
BLACK
6
CONTINUOUS
10
74.2193
20
-68.846
11
74.221
21
-68.8371
0
LINE
8
BLACK
6
CONTINUOUS
10
74.221
20
-68.8371
11
74.2855
21
-68.6235
0
LINE
8
BLACK
6
CONTINUOUS
10
74.2855
20
-68.6235
11
74.2859
21
-68.6222
0
LINE
8
BLACK
6
CONTINUOUS
10
74.2859
20
-68.6222
11
74.2895
21
-68.6139
0
LINE
8
BLACK
6
CONTINUOUS
10
74.2895
20
-68.6139
11
74.2929
21
-68.6055
0
LINE
8
BLACK
6
CONTINUOUS
10
74.2929
20
-68.6055
11
74.3977
21
-68.4085
0
LINE
8
BLACK
6
CONTINUOUS
10
74.3977
20
-68.4085
11
74.3977
21
-68.4085
0
LINE
8
BLACK
6
CONTINUOUS
10
74.3977
20
-68.4085
11
74.3977
21
-68.4085
0
LINE
8
BLACK
6
CONTINUOUS
10
74.3977
20
-68.4085
11
74.3983
21
-68.4073
0
LINE
8
BLACK
6
CONTINUOUS
10
74.3983
20
-68.4073
11
74.4035
21
-68.3998
0
LINE
8
BLACK
6
CONTINUOUS
10
74.4035
20
-68.3998
11
74.4085
21
-68.3923
0
LINE
8
BLACK
6
CONTINUOUS
10
74.4085
20
-68.3923
11
74.5495
21
-68.2194
0
LINE
8
BLACK
6
CONTINUOUS
10
74.5495
20
-68.2194
11
74.5504
21
-68.2183
0
LINE
8
BLACK
6
CONTINUOUS
10
74.5504
20
-68.2183
11
74.5568
21
-68.212
0
LINE
8
BLACK
6
CONTINUOUS
10
74.5568
20
-68.212
11
74.5632
21
-68.2056
0
LINE
8
BLACK
6
CONTINUOUS
10
74.5632
20
-68.2056
11
74.7351
21
-68.0634
0
LINE
8
BLACK
6
CONTINUOUS
10
74.7351
20
-68.0634
11
74.7362
21
-68.0625
0
LINE
8
BLACK
6
CONTINUOUS
10
74.7362
20
-68.0625
11
74.7438
21
-68.0575
0
LINE
8
BLACK
6
CONTINUOUS
10
74.7438
20
-68.0575
11
74.7513
21
-68.0524
0
LINE
8
BLACK
6
CONTINUOUS
10
74.7513
20
-68.0524
11
74.9475
21
-67.9463
0
LINE
8
BLACK
6
CONTINUOUS
10
74.9475
20
-67.9463
11
74.9487
21
-67.9457
0
LINE
8
BLACK
6
CONTINUOUS
10
74.9487
20
-67.9457
11
74.9571
21
-67.9423
0
LINE
8
BLACK
6
CONTINUOUS
10
74.9571
20
-67.9423
11
74.9655
21
-67.9388
0
LINE
8
BLACK
6
CONTINUOUS
10
74.9655
20
-67.9388
11
75.1786
21
-67.8728
0
LINE
8
BLACK
6
CONTINUOUS
10
75.1786
20
-67.8728
11
75.1799
21
-67.8724
0
LINE
8
BLACK
6
CONTINUOUS
10
75.1799
20
-67.8724
11
75.1889
21
-67.8707
0
LINE
8
BLACK
6
CONTINUOUS
10
75.1889
20
-67.8707
11
75.1977
21
-67.8689
0
LINE
8
BLACK
6
CONTINUOUS
10
75.1977
20
-67.8689
11
75.4196
21
-67.8456
0
LINE
8
BLACK
6
CONTINUOUS
10
75.4196
20
-67.8456
11
75.421
21
-67.8454
0
LINE
8
BLACK
6
CONTINUOUS
10
75.421
20
-67.8454
11
75.4253
21
-67.8455
0
LINE
8
BLACK
6
CONTINUOUS
10
75.4253
20
-67.8455
11
75.4297
21
-67.845
0
LINE
8
BLACK
6
CONTINUOUS
10
75.4297
20
-67.845
11
75.4329
21
-67.845
0
LINE
8
BLACK
6
CONTINUOUS
10
75.4329
20
-67.845
11
75.4331
21
-67.845
0
LINE
8
BLACK
6
CONTINUOUS
10
75.4331
20
-67.845
11
155.829
21
-67.845
0
LINE
8
BLACK
6
CONTINUOUS
10
155.829
20
-67.845
11
155.832
21
-67.845
0
LINE
8
BLACK
6
CONTINUOUS
10
155.832
20
-67.845
11
156.039
21
-67.8232
0
LINE
8
BLACK
6
CONTINUOUS
10
156.039
20
-67.8232
11
156.233
21
-67.7631
0
LINE
8
BLACK
6
CONTINUOUS
10
156.233
20
-67.7631
11
156.412
21
-67.6663
0
LINE
8
BLACK
6
CONTINUOUS
10
156.412
20
-67.6663
11
156.569
21
-67.5366
0
LINE
8
BLACK
6
CONTINUOUS
10
156.569
20
-67.5366
11
156.697
21
-67.3789
0
LINE
8
BLACK
6
CONTINUOUS
10
156.697
20
-67.3789
11
156.793
21
-67.1993
0
LINE
8
BLACK
6
CONTINUOUS
10
156.793
20
-67.1993
11
156.852
21
-67.0045
0
LINE
8
BLACK
6
CONTINUOUS
10
156.852
20
-67.0045
11
156.872
21
-66.7971
0
LINE
8
BLACK
6
CONTINUOUS
10
156.872
20
-66.7971
11
156.872
21
-64.5111
0
LINE
8
BLACK
6
CONTINUOUS
10
156.872
20
-64.5111
11
156.873
21
-64.4964
0
LINE
8
BLACK
6
CONTINUOUS
10
156.873
20
-64.4964
11
156.875
21
-64.4911
0
LINE
8
BLACK
6
CONTINUOUS
10
156.875
20
-64.4911
11
156.92
21
-64.2771
0
LINE
8
BLACK
6
CONTINUOUS
10
156.92
20
-64.2771
11
156.92
21
-64.2771
0
LINE
8
BLACK
6
CONTINUOUS
10
156.92
20
-64.2771
11
156.92
21
-64.277
0
LINE
8
BLACK
6
CONTINUOUS
10
156.92
20
-64.277
11
156.921
21
-64.2757
0
LINE
8
BLACK
6
CONTINUOUS
10
156.921
20
-64.2757
11
156.923
21
-64.2671
0
LINE
8
BLACK
6
CONTINUOUS
10
156.923
20
-64.2671
11
156.926
21
-64.2585
0
LINE
8
BLACK
6
CONTINUOUS
10
156.926
20
-64.2585
11
157.014
21
-64.0533
0
LINE
8
BLACK
6
CONTINUOUS
10
157.014
20
-64.0533
11
157.014
21
-64.052
0
LINE
8
BLACK
6
CONTINUOUS
10
157.014
20
-64.052
11
157.019
21
-64.0442
0
LINE
8
BLACK
6
CONTINUOUS
10
157.019
20
-64.0442
11
157.023
21
-64.0362
0
LINE
8
BLACK
6
CONTINUOUS
10
157.023
20
-64.0362
11
157.149
21
-63.852
0
LINE
8
BLACK
6
CONTINUOUS
10
157.149
20
-63.852
11
157.15
21
-63.8509
0
LINE
8
BLACK
6
CONTINUOUS
10
157.15
20
-63.8509
11
157.156
21
-63.844
0
LINE
8
BLACK
6
CONTINUOUS
10
157.156
20
-63.844
11
157.162
21
-63.8371
0
LINE
8
BLACK
6
CONTINUOUS
10
157.162
20
-63.8371
11
157.321
21
-63.6808
0
LINE
8
BLACK
6
CONTINUOUS
10
157.321
20
-63.6808
11
157.321
21
-63.6808
0
LINE
8
BLACK
6
CONTINUOUS
10
157.321
20
-63.6808
11
157.321
21
-63.6808
0
LINE
8
BLACK
6
CONTINUOUS
10
157.321
20
-63.6808
11
157.322
21
-63.6798
0
LINE
8
BLACK
6
CONTINUOUS
10
157.322
20
-63.6798
11
157.329
21
-63.6743
0
LINE
8
BLACK
6
CONTINUOUS
10
157.329
20
-63.6743
11
157.336
21
-63.6686
0
LINE
8
BLACK
6
CONTINUOUS
10
157.336
20
-63.6686
11
157.523
21
-63.5462
0
LINE
8
BLACK
6
CONTINUOUS
10
157.523
20
-63.5462
11
157.523
21
-63.5462
0
LINE
8
BLACK
6
CONTINUOUS
10
157.523
20
-63.5462
11
157.523
21
-63.5462
0
LINE
8
BLACK
6
CONTINUOUS
10
157.523
20
-63.5462
11
157.524
21
-63.5455
0
LINE
8
BLACK
6
CONTINUOUS
10
157.524
20
-63.5455
11
157.532
21
-63.5414
0
LINE
8
BLACK
6
CONTINUOUS
10
157.532
20
-63.5414
11
157.54
21
-63.5372
0
LINE
8
BLACK
6
CONTINUOUS
10
157.54
20
-63.5372
11
157.747
21
-63.4534
0
LINE
8
BLACK
6
CONTINUOUS
10
157.747
20
-63.4534
11
157.747
21
-63.4534
0
LINE
8
BLACK
6
CONTINUOUS
10
157.747
20
-63.4534
11
157.747
21
-63.4534
0
LINE
8
BLACK
6
CONTINUOUS
10
157.747
20
-63.4534
11
157.748
21
-63.4529
0
LINE
8
BLACK
6
CONTINUOUS
10
157.748
20
-63.4529
11
157.757
21
-63.4504
0
LINE
8
BLACK
6
CONTINUOUS
10
157.757
20
-63.4504
11
157.765
21
-63.4479
0
LINE
8
BLACK
6
CONTINUOUS
10
157.765
20
-63.4479
11
157.984
21
-63.4058
0
LINE
8
BLACK
6
CONTINUOUS
10
157.984
20
-63.4058
11
157.986
21
-63.4056
0
LINE
8
BLACK
6
CONTINUOUS
10
157.986
20
-63.4056
11
157.992
21
-63.4051
0
LINE
8
BLACK
6
CONTINUOUS
10
157.992
20
-63.4051
11
157.999
21
-63.4041
0
LINE
8
BLACK
6
CONTINUOUS
10
157.999
20
-63.4041
11
158.101
21
-63.3994
0
LINE
8
BLACK
6
CONTINUOUS
10
158.101
20
-63.3994
11
158.103
21
-63.3992
0
LINE
8
BLACK
6
CONTINUOUS
10
158.103
20
-63.3992
11
162.565
21
-63.4
0
LINE
8
BLACK
6
CONTINUOUS
10
162.565
20
-63.4
11
162.57
21
-63.4005
0
LINE
8
BLACK
6
CONTINUOUS
10
162.57
20
-63.4005
11
162.57
21
-63.4005
0
LINE
8
BLACK
6
CONTINUOUS
10
162.57
20
-63.4005
11
162.792
21
-63.4222
0
LINE
8
BLACK
6
CONTINUOUS
10
162.792
20
-63.4222
11
162.793
21
-63.4224
0
LINE
8
BLACK
6
CONTINUOUS
10
162.793
20
-63.4224
11
162.802
21
-63.4243
0
LINE
8
BLACK
6
CONTINUOUS
10
162.802
20
-63.4243
11
162.811
21
-63.426
0
LINE
8
BLACK
6
CONTINUOUS
10
162.811
20
-63.426
11
163.024
21
-63.4905
0
LINE
8
BLACK
6
CONTINUOUS
10
163.024
20
-63.4905
11
163.024
21
-63.4905
0
LINE
8
BLACK
6
CONTINUOUS
10
163.024
20
-63.4905
11
163.026
21
-63.4909
0
LINE
8
BLACK
6
CONTINUOUS
10
101.05
20
-85.2079
11
101.058
21
-85.2115
0
LINE
8
BLACK
6
CONTINUOUS
10
101.058
20
-85.2115
11
101.067
21
-85.2149
0
LINE
8
BLACK
6
CONTINUOUS
10
101.067
20
-85.2149
11
101.263
21
-85.3197
0
LINE
8
BLACK
6
CONTINUOUS
10
101.263
20
-85.3197
11
101.263
21
-85.3197
0
LINE
8
BLACK
6
CONTINUOUS
10
101.263
20
-85.3197
11
101.263
21
-85.3197
0
LINE
8
BLACK
6
CONTINUOUS
10
101.263
20
-85.3197
11
101.265
21
-85.3203
0
LINE
8
BLACK
6
CONTINUOUS
10
101.265
20
-85.3203
11
101.272
21
-85.3255
0
LINE
8
BLACK
6
CONTINUOUS
10
101.272
20
-85.3255
11
101.28
21
-85.3305
0
LINE
8
BLACK
6
CONTINUOUS
10
101.28
20
-85.3305
11
101.453
21
-85.4715
0
LINE
8
BLACK
6
CONTINUOUS
10
101.453
20
-85.4715
11
101.454
21
-85.4724
0
LINE
8
BLACK
6
CONTINUOUS
10
101.454
20
-85.4724
11
101.46
21
-85.4788
0
LINE
8
BLACK
6
CONTINUOUS
10
101.46
20
-85.4788
11
101.466
21
-85.4852
0
LINE
8
BLACK
6
CONTINUOUS
10
101.466
20
-85.4852
11
101.609
21
-85.6571
0
LINE
8
BLACK
6
CONTINUOUS
10
101.609
20
-85.6571
11
101.61
21
-85.6582
0
LINE
8
BLACK
6
CONTINUOUS
10
101.61
20
-85.6582
11
101.614
21
-85.6658
0
LINE
8
BLACK
6
CONTINUOUS
10
101.614
20
-85.6658
11
101.62
21
-85.6733
0
LINE
8
BLACK
6
CONTINUOUS
10
101.62
20
-85.6733
11
101.726
21
-85.8695
0
LINE
8
BLACK
6
CONTINUOUS
10
101.726
20
-85.8695
11
101.726
21
-85.8707
0
LINE
8
BLACK
6
CONTINUOUS
10
101.726
20
-85.8707
11
101.73
21
-85.8791
0
LINE
8
BLACK
6
CONTINUOUS
10
101.73
20
-85.8791
11
101.733
21
-85.8875
0
LINE
8
BLACK
6
CONTINUOUS
10
101.733
20
-85.8875
11
101.799
21
-86.1006
0
LINE
8
BLACK
6
CONTINUOUS
10
101.799
20
-86.1006
11
101.8
21
-86.1019
0
LINE
8
BLACK
6
CONTINUOUS
10
101.8
20
-86.1019
11
101.801
21
-86.1109
0
LINE
8
BLACK
6
CONTINUOUS
10
101.801
20
-86.1109
11
101.803
21
-86.1197
0
LINE
8
BLACK
6
CONTINUOUS
10
101.803
20
-86.1197
11
101.826
21
-86.3416
0
LINE
8
BLACK
6
CONTINUOUS
10
101.826
20
-86.3416
11
101.827
21
-86.343
0
LINE
8
BLACK
6
CONTINUOUS
10
101.827
20
-86.343
11
101.827
21
-86.3473
0
LINE
8
BLACK
6
CONTINUOUS
10
101.827
20
-86.3473
11
101.827
21
-86.3517
0
LINE
8
BLACK
6
CONTINUOUS
10
101.827
20
-86.3517
11
101.827
21
-86.3549
0
LINE
8
BLACK
6
CONTINUOUS
10
101.827
20
-86.3549
11
101.827
21
-86.3551
0
LINE
8
BLACK
6
CONTINUOUS
10
101.827
20
-86.3551
11
101.827
21
-88.8999
0
LINE
8
BLACK
6
CONTINUOUS
10
101.827
20
-88.8999
11
101.827
21
-88.9026
0
LINE
8
BLACK
6
CONTINUOUS
10
101.827
20
-88.9026
11
101.849
21
-89.1096
0
LINE
8
BLACK
6
CONTINUOUS
10
101.849
20
-89.1096
11
101.909
21
-89.304
0
LINE
8
BLACK
6
CONTINUOUS
10
101.909
20
-89.304
11
102.006
21
-89.483
0
LINE
8
BLACK
6
CONTINUOUS
10
102.006
20
-89.483
11
102.135
21
-89.6397
0
LINE
8
BLACK
6
CONTINUOUS
10
102.135
20
-89.6397
11
102.293
21
-89.7683
0
LINE
8
BLACK
6
CONTINUOUS
10
102.293
20
-89.7683
11
102.473
21
-89.8639
0
LINE
8
BLACK
6
CONTINUOUS
10
102.473
20
-89.8639
11
102.668
21
-89.9227
0
LINE
8
BLACK
6
CONTINUOUS
10
102.668
20
-89.9227
11
102.875
21
-89.943
0
LINE
8
BLACK
6
CONTINUOUS
10
102.875
20
-89.943
11
162.56
21
-89.943
0
LINE
8
BLACK
6
CONTINUOUS
10
162.56
20
-89.943
11
162.563
21
-89.943
0
LINE
8
BLACK
6
CONTINUOUS
10
162.563
20
-89.943
11
162.77
21
-89.9212
0
LINE
8
BLACK
6
CONTINUOUS
10
162.77
20
-89.9212
11
162.964
21
-89.8611
0
LINE
8
BLACK
6
CONTINUOUS
10
162.964
20
-89.8611
11
163.143
21
-89.7643
0
LINE
8
BLACK
6
CONTINUOUS
10
163.143
20
-89.7643
11
163.3
21
-89.6346
0
LINE
8
BLACK
6
CONTINUOUS
10
163.3
20
-89.6346
11
163.428
21
-89.4769
0
LINE
8
BLACK
6
CONTINUOUS
10
163.428
20
-89.4769
11
163.524
21
-89.2973
0
LINE
8
BLACK
6
CONTINUOUS
10
163.524
20
-89.2973
11
163.583
21
-89.1025
0
LINE
8
BLACK
6
CONTINUOUS
10
163.583
20
-89.1025
11
163.603
21
-88.8951
0
LINE
8
BLACK
6
CONTINUOUS
10
163.603
20
-88.8951
11
163.603
21
-79.2117
0
LINE
8
BLACK
6
CONTINUOUS
10
163.603
20
-79.2117
11
163.496
21
-79.2012
0
LINE
8
BLACK
6
CONTINUOUS
10
163.496
20
-79.2012
11
163.495
21
-79.201
0
LINE
8
BLACK
6
CONTINUOUS
10
163.495
20
-79.201
11
163.486
21
-79.1991
0
LINE
8
BLACK
6
CONTINUOUS
10
163.486
20
-79.1991
11
163.477
21
-79.1974
0
LINE
8
BLACK
6
CONTINUOUS
10
163.477
20
-79.1974
11
163.287
21
-79.1401
0
LINE
8
BLACK
6
CONTINUOUS
10
163.287
20
-79.1401
11
163.287
21
-79.1401
0
LINE
8
BLACK
6
CONTINUOUS
10
163.287
20
-79.1401
11
163.286
21
-79.1397
0
LINE
8
BLACK
6
CONTINUOUS
10
163.286
20
-79.1397
11
163.277
21
-79.1361
0
LINE
8
BLACK
6
CONTINUOUS
10
163.277
20
-79.1361
11
163.269
21
-79.1326
0
LINE
8
BLACK
6
CONTINUOUS
10
163.269
20
-79.1326
11
163.094
21
-79.0395
0
LINE
8
BLACK
6
CONTINUOUS
10
163.094
20
-79.0395
11
163.094
21
-79.0395
0
LINE
8
BLACK
6
CONTINUOUS
10
163.094
20
-79.0395
11
163.094
21
-79.0395
0
LINE
8
BLACK
6
CONTINUOUS
10
163.094
20
-79.0395
11
163.093
21
-79.0389
0
LINE
8
BLACK
6
CONTINUOUS
10
163.093
20
-79.0389
11
163.085
21
-79.0338
0
LINE
8
BLACK
6
CONTINUOUS
10
163.085
20
-79.0338
11
163.078
21
-79.0287
0
LINE
8
BLACK
6
CONTINUOUS
10
163.078
20
-79.0287
11
162.924
21
-78.9034
0
LINE
8
BLACK
6
CONTINUOUS
10
162.924
20
-78.9034
11
162.924
21
-78.9034
0
LINE
8
BLACK
6
CONTINUOUS
10
162.924
20
-78.9034
11
162.924
21
-78.9034
0
LINE
8
BLACK
6
CONTINUOUS
10
162.924
20
-78.9034
11
162.923
21
-78.9025
0
LINE
8
BLACK
6
CONTINUOUS
10
162.923
20
-78.9025
11
162.916
21
-78.8961
0
LINE
8
BLACK
6
CONTINUOUS
10
162.916
20
-78.8961
11
162.91
21
-78.8897
0
LINE
8
BLACK
6
CONTINUOUS
10
162.91
20
-78.8897
11
162.784
21
-78.7369
0
LINE
8
BLACK
6
CONTINUOUS
10
162.784
20
-78.7369
11
162.784
21
-78.7369
0
LINE
8
BLACK
6
CONTINUOUS
10
162.784
20
-78.7369
11
162.784
21
-78.7369
0
LINE
8
BLACK
6
CONTINUOUS
10
162.784
20
-78.7369
11
162.783
21
-78.7358
0
LINE
8
BLACK
6
CONTINUOUS
10
162.783
20
-78.7358
11
162.778
21
-78.7283
0
LINE
8
BLACK
6
CONTINUOUS
10
162.778
20
-78.7283
11
162.773
21
-78.7207
0
LINE
8
BLACK
6
CONTINUOUS
10
162.773
20
-78.7207
11
162.678
21
-78.5463
0
LINE
8
BLACK
6
CONTINUOUS
10
162.678
20
-78.5463
11
162.678
21
-78.545
0
LINE
8
BLACK
6
CONTINUOUS
10
162.678
20
-78.545
11
162.674
21
-78.5367
0
LINE
8
BLACK
6
CONTINUOUS
10
162.674
20
-78.5367
11
162.671
21
-78.5283
0
LINE
8
BLACK
6
CONTINUOUS
10
162.671
20
-78.5283
11
162.612
21
-78.3389
0
LINE
8
BLACK
6
CONTINUOUS
10
162.612
20
-78.3389
11
162.612
21
-78.3375
0
LINE
8
BLACK
6
CONTINUOUS
10
162.612
20
-78.3375
11
162.61
21
-78.3286
0
LINE
8
BLACK
6
CONTINUOUS
10
162.61
20
-78.3286
11
162.608
21
-78.3197
0
LINE
8
BLACK
6
CONTINUOUS
10
162.608
20
-78.3197
11
162.588
21
-78.1226
0
LINE
8
BLACK
6
CONTINUOUS
10
162.588
20
-78.1226
11
162.588
21
-78.1225
0
LINE
8
BLACK
6
CONTINUOUS
10
162.588
20
-78.1225
11
162.588
21
-78.1225
0
LINE
8
BLACK
6
CONTINUOUS
10
162.588
20
-78.1225
11
162.587
21
-78.1212
0
LINE
8
BLACK
6
CONTINUOUS
10
162.587
20
-78.1212
11
162.588
21
-78.1121
0
LINE
8
BLACK
6
CONTINUOUS
10
162.588
20
-78.1121
11
162.587
21
-78.103
0
LINE
8
BLACK
6
CONTINUOUS
10
162.587
20
-78.103
11
162.605
21
-77.9056
0
LINE
8
BLACK
6
CONTINUOUS
10
162.605
20
-77.9056
11
162.605
21
-77.9056
0
LINE
8
BLACK
6
CONTINUOUS
10
162.605
20
-77.9056
11
162.605
21
-77.9055
0
LINE
8
BLACK
6
CONTINUOUS
10
162.605
20
-77.9055
11
162.606
21
-77.9042
0
LINE
8
BLACK
6
CONTINUOUS
10
162.606
20
-77.9042
11
162.607
21
-77.8953
0
LINE
8
BLACK
6
CONTINUOUS
10
162.607
20
-77.8953
11
162.609
21
-77.8864
0
LINE
8
BLACK
6
CONTINUOUS
10
162.609
20
-77.8864
11
162.665
21
-77.6962
0
LINE
8
BLACK
6
CONTINUOUS
10
162.665
20
-77.6962
11
162.665
21
-77.6962
0
LINE
8
BLACK
6
CONTINUOUS
10
162.665
20
-77.6962
11
162.665
21
-77.6962
0
LINE
8
BLACK
6
CONTINUOUS
10
162.665
20
-77.6962
11
162.665
21
-77.6948
0
LINE
8
BLACK
6
CONTINUOUS
10
162.665
20
-77.6948
11
162.669
21
-77.6865
0
LINE
8
BLACK
6
CONTINUOUS
10
162.669
20
-77.6865
11
162.672
21
-77.6781
0
LINE
8
BLACK
6
CONTINUOUS
10
162.672
20
-77.6781
11
162.764
21
-77.5023
0
LINE
8
BLACK
6
CONTINUOUS
10
162.764
20
-77.5023
11
162.765
21
-77.5011
0
LINE
8
BLACK
6
CONTINUOUS
10
162.765
20
-77.5011
11
162.77
21
-77.4936
0
LINE
8
BLACK
6
CONTINUOUS
10
162.77
20
-77.4936
11
162.775
21
-77.486
0
LINE
8
BLACK
6
CONTINUOUS
10
162.775
20
-77.486
11
162.899
21
-77.3315
0
LINE
8
BLACK
6
CONTINUOUS
10
162.899
20
-77.3315
11
162.899
21
-77.3315
0
LINE
8
BLACK
6
CONTINUOUS
10
162.899
20
-77.3315
11
162.899
21
-77.3315
0
LINE
8
BLACK
6
CONTINUOUS
10
162.899
20
-77.3315
11
162.9
21
-77.3304
0
LINE
8
BLACK
6
CONTINUOUS
10
162.9
20
-77.3304
11
162.906
21
-77.3241
0
LINE
8
BLACK
6
CONTINUOUS
10
162.906
20
-77.3241
11
162.913
21
-77.3175
0
LINE
8
BLACK
6
CONTINUOUS
10
162.913
20
-77.3175
11
163.065
21
-77.1901
0
LINE
8
BLACK
6
CONTINUOUS
10
163.065
20
-77.1901
11
163.065
21
-77.1901
0
LINE
8
BLACK
6
CONTINUOUS
10
163.065
20
-77.1901
11
163.065
21
-77.1901
0
LINE
8
BLACK
6
CONTINUOUS
10
163.065
20
-77.1901
11
163.066
21
-77.1892
0
LINE
8
BLACK
6
CONTINUOUS
10
163.066
20
-77.1892
11
163.073
21
-77.1842
0
LINE
8
BLACK
6
CONTINUOUS
10
163.073
20
-77.1842
11
163.081
21
-77.1791
0
LINE
8
BLACK
6
CONTINUOUS
10
163.081
20
-77.1791
11
163.255
21
-77.0835
0
LINE
8
BLACK
6
CONTINUOUS
10
163.255
20
-77.0835
11
163.255
21
-77.0835
0
LINE
8
BLACK
6
CONTINUOUS
10
163.255
20
-77.0835
11
163.255
21
-77.0835
0
LINE
8
BLACK
6
CONTINUOUS
10
163.255
20
-77.0835
11
163.256
21
-77.0829
0
LINE
8
BLACK
6
CONTINUOUS
10
163.256
20
-77.0829
11
163.264
21
-77.0794
0
LINE
8
BLACK
6
CONTINUOUS
10
163.264
20
-77.0794
11
163.273
21
-77.0758
0
LINE
8
BLACK
6
CONTINUOUS
10
163.273
20
-77.0758
11
163.462
21
-77.0159
0
LINE
8
BLACK
6
CONTINUOUS
10
163.462
20
-77.0159
11
163.462
21
-77.0159
0
LINE
8
BLACK
6
CONTINUOUS
10
163.462
20
-77.0159
11
163.462
21
-77.0159
0
LINE
8
BLACK
6
CONTINUOUS
10
163.462
20
-77.0159
11
163.463
21
-77.0155
0
LINE
8
BLACK
6
CONTINUOUS
10
163.463
20
-77.0155
11
163.472
21
-77.0137
0
LINE
8
BLACK
6
CONTINUOUS
10
163.472
20
-77.0137
11
163.481
21
-77.0118
0
LINE
8
BLACK
6
CONTINUOUS
10
163.481
20
-77.0118
11
163.603
21
-76.9981
0
LINE
8
BLACK
6
CONTINUOUS
10
163.603
20
-76.9981
11
163.603
21
-64.6431
0
LINE
8
BLACK
6
CONTINUOUS
10
163.603
20
-64.6431
11
163.603
21
-64.6404
0
LINE
8
BLACK
6
CONTINUOUS
10
163.603
20
-64.6404
11
163.581
21
-64.4334
0
LINE
8
BLACK
6
CONTINUOUS
10
163.581
20
-64.4334
11
163.521
21
-64.239
0
LINE
8
BLACK
6
CONTINUOUS
10
163.521
20
-64.239
11
163.424
21
-64.06
0
LINE
8
BLACK
6
CONTINUOUS
10
163.424
20
-64.06
11
163.295
21
-63.9033
0
LINE
8
BLACK
6
CONTINUOUS
10
163.295
20
-63.9033
11
163.137
21
-63.7747
0
LINE
8
BLACK
6
CONTINUOUS
10
163.137
20
-63.7747
11
162.957
21
-63.6791
0
LINE
8
BLACK
6
CONTINUOUS
10
162.957
20
-63.6791
11
162.762
21
-63.6203
0
LINE
8
BLACK
6
CONTINUOUS
10
162.762
20
-63.6203
11
162.555
21
-63.6
0
LINE
8
BLACK
6
CONTINUOUS
10
162.555
20
-63.6
11
158.11
21
-63.5992
0
LINE
8
BLACK
6
CONTINUOUS
10
158.11
20
-63.5992
11
158.015
21
-63.6036
0
LINE
8
BLACK
6
CONTINUOUS
10
158.015
20
-63.6036
11
157.813
21
-63.6424
0
LINE
8
BLACK
6
CONTINUOUS
10
157.813
20
-63.6424
11
157.624
21
-63.7188
0
LINE
8
BLACK
6
CONTINUOUS
10
157.624
20
-63.7188
11
157.454
21
-63.8304
0
LINE
8
BLACK
6
CONTINUOUS
10
157.454
20
-63.8304
11
157.309
21
-63.9729
0
LINE
8
BLACK
6
CONTINUOUS
10
157.309
20
-63.9729
11
157.194
21
-64.1409
0
LINE
8
BLACK
6
CONTINUOUS
10
157.194
20
-64.1409
11
157.114
21
-64.328
0
LINE
8
BLACK
6
CONTINUOUS
10
157.114
20
-64.328
11
157.072
21
-64.5265
0
LINE
8
BLACK
6
CONTINUOUS
10
157.072
20
-64.5265
11
157.072
21
-66.8069
0
LINE
8
BLACK
6
CONTINUOUS
10
157.072
20
-66.8069
11
157.072
21
-66.8117
0
LINE
8
BLACK
6
CONTINUOUS
10
157.072
20
-66.8117
11
157.072
21
-66.8118
0
LINE
8
BLACK
6
CONTINUOUS
10
157.072
20
-66.8118
11
157.05
21
-67.0338
0
LINE
8
BLACK
6
CONTINUOUS
10
157.05
20
-67.0338
11
157.05
21
-67.0352
0
LINE
8
BLACK
6
CONTINUOUS
10
157.05
20
-67.0352
11
157.048
21
-67.044
0
LINE
8
BLACK
6
CONTINUOUS
10
157.048
20
-67.044
11
157.046
21
-67.0529
0
LINE
8
BLACK
6
CONTINUOUS
10
157.046
20
-67.0529
11
156.981
21
-67.2665
0
LINE
8
BLACK
6
CONTINUOUS
10
156.981
20
-67.2665
11
156.981
21
-67.2678
0
LINE
8
BLACK
6
CONTINUOUS
10
156.981
20
-67.2678
11
156.978
21
-67.2761
0
LINE
8
BLACK
6
CONTINUOUS
10
156.978
20
-67.2761
11
156.974
21
-67.2845
0
LINE
8
BLACK
6
CONTINUOUS
10
156.974
20
-67.2845
11
156.869
21
-67.4815
0
LINE
8
BLACK
6
CONTINUOUS
10
156.869
20
-67.4815
11
156.869
21
-67.4827
0
LINE
8
BLACK
6
CONTINUOUS
10
156.869
20
-67.4827
11
156.864
21
-67.4902
0
LINE
8
BLACK
6
CONTINUOUS
10
156.864
20
-67.4902
11
156.859
21
-67.4977
0
LINE
8
BLACK
6
CONTINUOUS
10
156.859
20
-67.4977
11
156.718
21
-67.6706
0
LINE
8
BLACK
6
CONTINUOUS
10
156.718
20
-67.6706
11
156.718
21
-67.6706
0
LINE
8
BLACK
6
CONTINUOUS
10
156.718
20
-67.6706
11
156.718
21
-67.6706
0
LINE
8
BLACK
6
CONTINUOUS
10
156.718
20
-67.6706
11
156.717
21
-67.6717
0
LINE
8
BLACK
6
CONTINUOUS
10
156.717
20
-67.6717
11
156.71
21
-67.678
0
LINE
8
BLACK
6
CONTINUOUS
10
156.71
20
-67.678
11
156.704
21
-67.6844
0
LINE
8
BLACK
6
CONTINUOUS
10
156.704
20
-67.6844
11
156.532
21
-67.8266
0
LINE
8
BLACK
6
CONTINUOUS
10
156.532
20
-67.8266
11
156.532
21
-67.8266
0
LINE
8
BLACK
6
CONTINUOUS
10
156.532
20
-67.8266
11
156.532
21
-67.8267
0
LINE
8
BLACK
6
CONTINUOUS
10
156.532
20
-67.8267
11
156.531
21
-67.8275
0
LINE
8
BLACK
6
CONTINUOUS
10
156.531
20
-67.8275
11
156.523
21
-67.8324
0
LINE
8
BLACK
6
CONTINUOUS
10
156.523
20
-67.8324
11
156.516
21
-67.8376
0
LINE
8
BLACK
6
CONTINUOUS
10
156.516
20
-67.8376
11
156.319
21
-67.9437
0
LINE
8
BLACK
6
CONTINUOUS
10
156.319
20
-67.9437
11
156.319
21
-67.9437
0
LINE
8
BLACK
6
CONTINUOUS
10
156.319
20
-67.9437
11
156.319
21
-67.9437
0
LINE
8
BLACK
6
CONTINUOUS
10
156.319
20
-67.9437
11
156.318
21
-67.9443
0
LINE
8
BLACK
6
CONTINUOUS
10
156.318
20
-67.9443
11
156.31
21
-67.9477
0
LINE
8
BLACK
6
CONTINUOUS
10
156.31
20
-67.9477
11
156.302
21
-67.9512
0
LINE
8
BLACK
6
CONTINUOUS
10
156.302
20
-67.9512
11
156.088
21
-68.0172
0
LINE
8
BLACK
6
CONTINUOUS
10
156.088
20
-68.0172
11
156.087
21
-68.0176
0
LINE
8
BLACK
6
CONTINUOUS
10
156.087
20
-68.0176
11
156.078
21
-68.0193
0
LINE
8
BLACK
6
CONTINUOUS
10
156.078
20
-68.0193
11
156.069
21
-68.0211
0
LINE
8
BLACK
6
CONTINUOUS
10
156.069
20
-68.0211
11
155.847
21
-68.0444
0
LINE
8
BLACK
6
CONTINUOUS
10
155.847
20
-68.0444
11
155.846
21
-68.0446
0
LINE
8
BLACK
6
CONTINUOUS
10
155.846
20
-68.0446
11
155.842
21
-68.0445
0
LINE
8
BLACK
6
CONTINUOUS
10
155.842
20
-68.0445
11
155.837
21
-68.045
0
LINE
8
BLACK
6
CONTINUOUS
10
155.837
20
-68.045
11
155.834
21
-68.045
0
LINE
8
BLACK
6
CONTINUOUS
10
155.834
20
-68.045
11
155.834
21
-68.045
0
LINE
8
BLACK
6
CONTINUOUS
10
155.834
20
-68.045
11
75.4381
21
-68.045
0
LINE
8
BLACK
6
CONTINUOUS
10
75.4381
20
-68.045
11
75.4354
21
-68.045
0
LINE
8
BLACK
6
CONTINUOUS
10
75.4354
20
-68.045
11
75.2284
21
-68.0668
0
LINE
8
BLACK
6
CONTINUOUS
10
75.2284
20
-68.0668
11
75.034
21
-68.1269
0
LINE
8
BLACK
6
CONTINUOUS
10
75.034
20
-68.1269
11
74.855
21
-68.2237
0
LINE
8
BLACK
6
CONTINUOUS
10
74.855
20
-68.2237
11
74.6983
21
-68.3534
0
LINE
8
BLACK
6
CONTINUOUS
10
74.6983
20
-68.3534
11
74.5697
21
-68.5111
0
LINE
8
BLACK
6
CONTINUOUS
10
74.5697
20
-68.5111
11
74.4741
21
-68.6907
0
LINE
8
BLACK
6
CONTINUOUS
10
74.4741
20
-68.6907
11
74.4153
21
-68.8855
0
LINE
8
BLACK
6
CONTINUOUS
10
74.4153
20
-68.8855
11
74.395
21
-69.0929
0
LINE
8
BLACK
6
CONTINUOUS
10
74.395
20
-69.0929
11
74.395
21
-84.0739
0
LINE
8
BLACK
6
CONTINUOUS
10
74.395
20
-84.0739
11
74.395
21
-84.0766
0
LINE
8
BLACK
6
CONTINUOUS
10
74.395
20
-84.0766
11
74.4168
21
-84.2836
0
LINE
8
BLACK
6
CONTINUOUS
10
74.4168
20
-84.2836
11
74.4769
21
-84.478
0
LINE
8
BLACK
6
CONTINUOUS
10
74.4769
20
-84.478
11
74.5737
21
-84.657
0
LINE
8
BLACK
6
CONTINUOUS
10
74.5737
20
-84.657
11
74.7034
21
-84.8137
0
LINE
8
BLACK
6
CONTINUOUS
10
74.7034
20
-84.8137
11
74.8611
21
-84.9423
0
LINE
8
BLACK
6
CONTINUOUS
10
74.8611
20
-84.9423
11
75.0407
21
-85.0379
0
LINE
8
BLACK
6
CONTINUOUS
10
75.0407
20
-85.0379
11
75.2355
21
-85.0967
0
LINE
8
BLACK
6
CONTINUOUS
10
75.2355
20
-85.0967
11
75.4429
21
-85.117
0
LINE
8
BLACK
6
CONTINUOUS
10
75.4429
20
-85.117
11
100.589
21
-85.117
0
LINE
8
BLACK
6
CONTINUOUS
10
100.589
20
-85.117
11
100.594
21
-85.1175
0
LINE
8
BLACK
6
CONTINUOUS
10
100.594
20
-85.1175
11
100.594
21
-85.1175
0
LINE
8
BLACK
6
CONTINUOUS
10
100.594
20
-85.1175
11
100.816
21
-85.1392
0
LINE
8
BLACK
6
CONTINUOUS
10
100.816
20
-85.1392
11
100.817
21
-85.1394
0
LINE
8
BLACK
6
CONTINUOUS
10
100.817
20
-85.1394
11
100.826
21
-85.1413
0
LINE
8
BLACK
6
CONTINUOUS
10
100.826
20
-85.1413
11
100.835
21
-85.143
0
LINE
8
BLACK
6
CONTINUOUS
10
100.835
20
-85.143
11
101.048
21
-85.2075
0
LINE
8
BLACK
6
CONTINUOUS
10
101.048
20
-85.2075
11
101.048
21
-85.2075
0
LINE
8
BLACK
6
CONTINUOUS
10
101.048
20
-85.2075
11
101.05
21
-85.2079
  0
ENDSEC
  0
EOF
