  0
SECTION
  2
HEADER
  9
$ANGBASE
  50
0.0
  9
$ANGDIR
  70
1
  9
$MEASUREMENT
  70
1
  0
ENDSEC
  0
SECTION
  2
TABLES
  0
TABLE
  2
LTYPE
  70
4
  0
LTYPE
  5
40F
  2
CONTINUOUS
  70
0
  3
Solid line
  72
65
  73
0
  40
0.0
  0
LTYPE
  5
410
  2
DASHDOT
 70
0
  3
Dash Dot ____ _ ____ _
 72
65
 73
4
 40
2.0
 49
1.25
 49
-0.25
 49
0.25
 49
-0.25
  0
LTYPE
  5
411
  2
DASHED
 70
0
  3
Dashed __ __ __ __ __
 72
65
 73
2
 40
0.75
 49
0.5
 49
-0.25
  0
LTYPE
  5
43B
  2
DOTTED
 70
0
  3
Dotted .  .  .  .
 72
65
 73
2
 40
0.2
 49
0.0
 49
-0.2
  0
ENDTAB
  0
TABLE
  2
STYLE
  70
4
  0
STYLE
  2
KICAD
  70
0
  40
0
  41
1
  42
1
  50
0
  71
0
  3
isocp.shx
  0
STYLE
  2
KICADB
  70
0
  40
0
  41
1
  42
1
  50
0
  71
0
  3
isocp.shx
  0
STYLE
  2
KICADI
  70
0
  40
0
  41
1
  42
1
  50
15
  71
0
  3
isocp.shx
  0
STYLE
  2
KICADBI
  70
0
  40
0
  41
1
  42
1
  50
15
  71
0
  3
isocp.shx
  0
ENDTAB
  0
TABLE
  2
LAYER
  70
1
  0
LAYER
  2
BLACK
  70
0
  62
7
  6
CONTINUOUS
  0
ENDTAB
  0
ENDSEC
  0
SECTION
  2
ENTITIES
0
LINE
8
BLACK
6
CONTINUOUS
10
163.267
20
-88.5869
11
163.278
21
-88.5903
0
LINE
8
BLACK
6
CONTINUOUS
10
163.278
20
-88.5903
11
163.288
21
-88.5959
0
LINE
8
BLACK
6
CONTINUOUS
10
163.288
20
-88.5959
11
163.298
21
-88.6034
0
LINE
8
BLACK
6
CONTINUOUS
10
163.298
20
-88.6034
11
163.305
21
-88.6125
0
LINE
8
BLACK
6
CONTINUOUS
10
163.305
20
-88.6125
11
163.311
21
-88.6229
0
LINE
8
BLACK
6
CONTINUOUS
10
163.311
20
-88.6229
11
163.314
21
-88.6342
0
LINE
8
BLACK
6
CONTINUOUS
10
163.314
20
-88.6342
11
163.315
21
-88.6431
0
LINE
8
BLACK
6
CONTINUOUS
10
163.315
20
-88.6431
11
163.315
21
-89.9731
0
LINE
8
BLACK
6
CONTINUOUS
10
163.315
20
-89.9731
11
163.315
21
-89.976
0
LINE
8
BLACK
6
CONTINUOUS
10
163.315
20
-89.976
11
163.314
21
-89.9878
0
LINE
8
BLACK
6
CONTINUOUS
10
163.314
20
-89.9878
11
163.311
21
-89.9991
0
LINE
8
BLACK
6
CONTINUOUS
10
163.311
20
-89.9991
11
163.305
21
-90.0095
0
LINE
8
BLACK
6
CONTINUOUS
10
163.305
20
-90.0095
11
163.298
21
-90.0186
0
LINE
8
BLACK
6
CONTINUOUS
10
163.298
20
-90.0186
11
163.288
21
-90.0261
0
LINE
8
BLACK
6
CONTINUOUS
10
163.288
20
-90.0261
11
163.278
21
-90.0317
0
LINE
8
BLACK
6
CONTINUOUS
10
163.278
20
-90.0317
11
163.267
21
-90.0351
0
LINE
8
BLACK
6
CONTINUOUS
10
163.267
20
-90.0351
11
163.258
21
-90.036
0
LINE
8
BLACK
6
CONTINUOUS
10
163.258
20
-90.036
11
163.258
21
-90.036
0
LINE
8
BLACK
6
CONTINUOUS
10
163.258
20
-90.036
11
163.255
21
-90.0363
0
LINE
8
BLACK
6
CONTINUOUS
10
163.255
20
-90.0363
11
163.252
21
-90.036
0
LINE
8
BLACK
6
CONTINUOUS
10
163.252
20
-90.036
11
161.922
21
-90.036
0
LINE
8
BLACK
6
CONTINUOUS
10
161.922
20
-90.036
11
161.913
21
-90.0351
0
LINE
8
BLACK
6
CONTINUOUS
10
161.913
20
-90.0351
11
161.902
21
-90.0317
0
LINE
8
BLACK
6
CONTINUOUS
10
161.902
20
-90.0317
11
161.892
21
-90.0261
0
LINE
8
BLACK
6
CONTINUOUS
10
161.892
20
-90.0261
11
161.882
21
-90.0186
0
LINE
8
BLACK
6
CONTINUOUS
10
161.882
20
-90.0186
11
161.875
21
-90.0095
0
LINE
8
BLACK
6
CONTINUOUS
10
161.875
20
-90.0095
11
161.869
21
-89.9991
0
LINE
8
BLACK
6
CONTINUOUS
10
161.869
20
-89.9991
11
161.866
21
-89.9878
0
LINE
8
BLACK
6
CONTINUOUS
10
161.866
20
-89.9878
11
161.865
21
-89.976
0
LINE
8
BLACK
6
CONTINUOUS
10
161.865
20
-89.976
11
161.866
21
-89.9642
0
LINE
8
BLACK
6
CONTINUOUS
10
161.866
20
-89.9642
11
161.869
21
-89.9529
0
LINE
8
BLACK
6
CONTINUOUS
10
161.869
20
-89.9529
11
161.875
21
-89.9425
0
LINE
8
BLACK
6
CONTINUOUS
10
161.875
20
-89.9425
11
161.882
21
-89.9334
0
LINE
8
BLACK
6
CONTINUOUS
10
161.882
20
-89.9334
11
161.892
21
-89.9259
0
LINE
8
BLACK
6
CONTINUOUS
10
161.892
20
-89.9259
11
161.902
21
-89.9203
0
LINE
8
BLACK
6
CONTINUOUS
10
161.902
20
-89.9203
11
161.913
21
-89.9169
0
LINE
8
BLACK
6
CONTINUOUS
10
161.913
20
-89.9169
11
161.922
21
-89.916
0
LINE
8
BLACK
6
CONTINUOUS
10
161.922
20
-89.916
11
163.195
21
-89.916
0
LINE
8
BLACK
6
CONTINUOUS
10
163.195
20
-89.916
11
163.195
21
-88.6431
0
LINE
8
BLACK
6
CONTINUOUS
10
163.195
20
-88.6431
11
163.196
21
-88.6342
0
LINE
8
BLACK
6
CONTINUOUS
10
163.196
20
-88.6342
11
163.199
21
-88.6229
0
LINE
8
BLACK
6
CONTINUOUS
10
163.199
20
-88.6229
11
163.205
21
-88.6125
0
LINE
8
BLACK
6
CONTINUOUS
10
163.205
20
-88.6125
11
163.212
21
-88.6034
0
LINE
8
BLACK
6
CONTINUOUS
10
163.212
20
-88.6034
11
163.222
21
-88.5959
0
LINE
8
BLACK
6
CONTINUOUS
10
163.222
20
-88.5959
11
163.232
21
-88.5903
0
LINE
8
BLACK
6
CONTINUOUS
10
163.232
20
-88.5903
11
163.243
21
-88.5869
0
LINE
8
BLACK
6
CONTINUOUS
10
163.243
20
-88.5869
11
163.255
21
-88.5857
0
LINE
8
BLACK
6
CONTINUOUS
10
163.255
20
-88.5857
11
163.267
21
-88.5869
0
LINE
8
BLACK
6
CONTINUOUS
10
160.658
20
-87.256
11
160.667
21
-87.2569
0
LINE
8
BLACK
6
CONTINUOUS
10
160.667
20
-87.2569
11
160.678
21
-87.2603
0
LINE
8
BLACK
6
CONTINUOUS
10
160.678
20
-87.2603
11
160.688
21
-87.2659
0
LINE
8
BLACK
6
CONTINUOUS
10
160.688
20
-87.2659
11
160.698
21
-87.2734
0
LINE
8
BLACK
6
CONTINUOUS
10
160.698
20
-87.2734
11
160.705
21
-87.2825
0
LINE
8
BLACK
6
CONTINUOUS
10
160.705
20
-87.2825
11
160.711
21
-87.2929
0
LINE
8
BLACK
6
CONTINUOUS
10
160.711
20
-87.2929
11
160.714
21
-87.3042
0
LINE
8
BLACK
6
CONTINUOUS
10
160.714
20
-87.3042
11
160.715
21
-87.316
0
LINE
8
BLACK
6
CONTINUOUS
10
160.715
20
-87.316
11
160.715
21
-87.3189
0
LINE
8
BLACK
6
CONTINUOUS
10
160.715
20
-87.3189
11
160.715
21
-89.9731
0
LINE
8
BLACK
6
CONTINUOUS
10
160.715
20
-89.9731
11
160.715
21
-89.976
0
LINE
8
BLACK
6
CONTINUOUS
10
160.715
20
-89.976
11
160.714
21
-89.9878
0
LINE
8
BLACK
6
CONTINUOUS
10
160.714
20
-89.9878
11
160.711
21
-89.9991
0
LINE
8
BLACK
6
CONTINUOUS
10
160.711
20
-89.9991
11
160.705
21
-90.0095
0
LINE
8
BLACK
6
CONTINUOUS
10
160.705
20
-90.0095
11
160.698
21
-90.0186
0
LINE
8
BLACK
6
CONTINUOUS
10
160.698
20
-90.0186
11
160.688
21
-90.0261
0
LINE
8
BLACK
6
CONTINUOUS
10
160.688
20
-90.0261
11
160.678
21
-90.0317
0
LINE
8
BLACK
6
CONTINUOUS
10
160.678
20
-90.0317
11
160.667
21
-90.0351
0
LINE
8
BLACK
6
CONTINUOUS
10
160.667
20
-90.0351
11
160.658
21
-90.036
0
LINE
8
BLACK
6
CONTINUOUS
10
160.658
20
-90.036
11
160.658
21
-90.036
0
LINE
8
BLACK
6
CONTINUOUS
10
160.658
20
-90.036
11
160.655
21
-90.0363
0
LINE
8
BLACK
6
CONTINUOUS
10
160.655
20
-90.0363
11
160.652
21
-90.036
0
LINE
8
BLACK
6
CONTINUOUS
10
160.652
20
-90.036
11
102.178
21
-90.036
0
LINE
8
BLACK
6
CONTINUOUS
10
102.178
20
-90.036
11
102.175
21
-90.0363
0
LINE
8
BLACK
6
CONTINUOUS
10
102.175
20
-90.0363
11
102.163
21
-90.0351
0
LINE
8
BLACK
6
CONTINUOUS
10
102.163
20
-90.0351
11
102.152
21
-90.0317
0
LINE
8
BLACK
6
CONTINUOUS
10
102.152
20
-90.0317
11
102.142
21
-90.0261
0
LINE
8
BLACK
6
CONTINUOUS
10
102.142
20
-90.0261
11
102.132
21
-90.0186
0
LINE
8
BLACK
6
CONTINUOUS
10
102.132
20
-90.0186
11
102.125
21
-90.0095
0
LINE
8
BLACK
6
CONTINUOUS
10
102.125
20
-90.0095
11
102.119
21
-89.9991
0
LINE
8
BLACK
6
CONTINUOUS
10
102.119
20
-89.9991
11
102.116
21
-89.9878
0
LINE
8
BLACK
6
CONTINUOUS
10
102.116
20
-89.9878
11
102.115
21
-89.976
0
LINE
8
BLACK
6
CONTINUOUS
10
102.115
20
-89.976
11
102.115
21
-89.9731
0
LINE
8
BLACK
6
CONTINUOUS
10
102.115
20
-89.9731
11
102.115
21
-87.319
0
LINE
8
BLACK
6
CONTINUOUS
10
102.115
20
-87.319
11
102.115
21
-87.316
0
LINE
8
BLACK
6
CONTINUOUS
10
102.115
20
-87.316
11
102.116
21
-87.3042
0
LINE
8
BLACK
6
CONTINUOUS
10
102.116
20
-87.3042
11
102.119
21
-87.2929
0
LINE
8
BLACK
6
CONTINUOUS
10
102.119
20
-87.2929
11
102.125
21
-87.2825
0
LINE
8
BLACK
6
CONTINUOUS
10
102.125
20
-87.2825
11
102.132
21
-87.2734
0
LINE
8
BLACK
6
CONTINUOUS
10
102.132
20
-87.2734
11
102.142
21
-87.2659
0
LINE
8
BLACK
6
CONTINUOUS
10
102.142
20
-87.2659
11
102.152
21
-87.2603
0
LINE
8
BLACK
6
CONTINUOUS
10
102.152
20
-87.2603
11
102.163
21
-87.2569
0
LINE
8
BLACK
6
CONTINUOUS
10
102.163
20
-87.2569
11
102.172
21
-87.256
0
LINE
8
BLACK
6
CONTINUOUS
10
102.172
20
-87.256
11
102.172
21
-87.256
0
LINE
8
BLACK
6
CONTINUOUS
10
102.172
20
-87.256
11
102.175
21
-87.2557
0
LINE
8
BLACK
6
CONTINUOUS
10
102.175
20
-87.2557
11
102.178
21
-87.256
0
LINE
8
BLACK
6
CONTINUOUS
10
102.178
20
-87.256
11
160.652
21
-87.256
0
LINE
8
BLACK
6
CONTINUOUS
10
160.652
20
-87.256
11
160.655
21
-87.2557
0
LINE
8
BLACK
6
CONTINUOUS
10
160.655
20
-87.2557
11
160.658
21
-87.256
0
LINE
8
BLACK
6
CONTINUOUS
10
102.235
20
-87.376
11
102.235
21
-89.916
0
LINE
8
BLACK
6
CONTINUOUS
10
102.235
20
-89.916
11
160.595
21
-89.916
0
LINE
8
BLACK
6
CONTINUOUS
10
160.595
20
-89.916
11
160.595
21
-87.376
0
LINE
8
BLACK
6
CONTINUOUS
10
160.595
20
-87.376
11
102.235
21
-87.376
0
LINE
8
BLACK
6
CONTINUOUS
10
163.267
20
-73.3469
11
163.278
21
-73.3503
0
LINE
8
BLACK
6
CONTINUOUS
10
163.278
20
-73.3503
11
163.288
21
-73.3559
0
LINE
8
BLACK
6
CONTINUOUS
10
163.288
20
-73.3559
11
163.298
21
-73.3634
0
LINE
8
BLACK
6
CONTINUOUS
10
163.298
20
-73.3634
11
163.305
21
-73.3725
0
LINE
8
BLACK
6
CONTINUOUS
10
163.305
20
-73.3725
11
163.311
21
-73.3829
0
LINE
8
BLACK
6
CONTINUOUS
10
163.311
20
-73.3829
11
163.314
21
-73.3942
0
LINE
8
BLACK
6
CONTINUOUS
10
163.314
20
-73.3942
11
163.315
21
-73.4031
0
LINE
8
BLACK
6
CONTINUOUS
10
163.315
20
-73.4031
11
163.315
21
-74.7331
0
LINE
8
BLACK
6
CONTINUOUS
10
163.315
20
-74.7331
11
163.315
21
-74.736
0
LINE
8
BLACK
6
CONTINUOUS
10
163.315
20
-74.736
11
163.314
21
-74.7478
0
LINE
8
BLACK
6
CONTINUOUS
10
163.314
20
-74.7478
11
163.311
21
-74.7591
0
LINE
8
BLACK
6
CONTINUOUS
10
163.311
20
-74.7591
11
163.305
21
-74.7695
0
LINE
8
BLACK
6
CONTINUOUS
10
163.305
20
-74.7695
11
163.298
21
-74.7786
0
LINE
8
BLACK
6
CONTINUOUS
10
163.298
20
-74.7786
11
163.288
21
-74.7861
0
LINE
8
BLACK
6
CONTINUOUS
10
163.288
20
-74.7861
11
163.278
21
-74.7917
0
LINE
8
BLACK
6
CONTINUOUS
10
163.278
20
-74.7917
11
163.267
21
-74.7951
0
LINE
8
BLACK
6
CONTINUOUS
10
163.267
20
-74.7951
11
163.258
21
-74.796
0
LINE
8
BLACK
6
CONTINUOUS
10
163.258
20
-74.796
11
163.258
21
-74.796
0
LINE
8
BLACK
6
CONTINUOUS
10
163.258
20
-74.796
11
163.255
21
-74.7963
0
LINE
8
BLACK
6
CONTINUOUS
10
163.255
20
-74.7963
11
163.252
21
-74.796
0
LINE
8
BLACK
6
CONTINUOUS
10
163.252
20
-74.796
11
161.922
21
-74.796
0
LINE
8
BLACK
6
CONTINUOUS
10
161.922
20
-74.796
11
161.913
21
-74.7951
0
LINE
8
BLACK
6
CONTINUOUS
10
161.913
20
-74.7951
11
161.902
21
-74.7917
0
LINE
8
BLACK
6
CONTINUOUS
10
161.902
20
-74.7917
11
161.892
21
-74.7861
0
LINE
8
BLACK
6
CONTINUOUS
10
161.892
20
-74.7861
11
161.882
21
-74.7786
0
LINE
8
BLACK
6
CONTINUOUS
10
161.882
20
-74.7786
11
161.875
21
-74.7695
0
LINE
8
BLACK
6
CONTINUOUS
10
161.875
20
-74.7695
11
161.869
21
-74.7591
0
LINE
8
BLACK
6
CONTINUOUS
10
161.869
20
-74.7591
11
161.866
21
-74.7478
0
LINE
8
BLACK
6
CONTINUOUS
10
161.866
20
-74.7478
11
161.865
21
-74.736
0
LINE
8
BLACK
6
CONTINUOUS
10
161.865
20
-74.736
11
161.866
21
-74.7242
0
LINE
8
BLACK
6
CONTINUOUS
10
161.866
20
-74.7242
11
161.869
21
-74.7129
0
LINE
8
BLACK
6
CONTINUOUS
10
161.869
20
-74.7129
11
161.875
21
-74.7025
0
LINE
8
BLACK
6
CONTINUOUS
10
161.875
20
-74.7025
11
161.882
21
-74.6934
0
LINE
8
BLACK
6
CONTINUOUS
10
161.882
20
-74.6934
11
161.892
21
-74.6859
0
LINE
8
BLACK
6
CONTINUOUS
10
161.892
20
-74.6859
11
161.902
21
-74.6803
0
LINE
8
BLACK
6
CONTINUOUS
10
161.902
20
-74.6803
11
161.913
21
-74.6769
0
LINE
8
BLACK
6
CONTINUOUS
10
161.913
20
-74.6769
11
161.922
21
-74.676
0
LINE
8
BLACK
6
CONTINUOUS
10
161.922
20
-74.676
11
163.195
21
-74.676
0
LINE
8
BLACK
6
CONTINUOUS
10
163.195
20
-74.676
11
163.195
21
-73.4031
0
LINE
8
BLACK
6
CONTINUOUS
10
163.195
20
-73.4031
11
163.196
21
-73.3942
0
LINE
8
BLACK
6
CONTINUOUS
10
163.196
20
-73.3942
11
163.199
21
-73.3829
0
LINE
8
BLACK
6
CONTINUOUS
10
163.199
20
-73.3829
11
163.205
21
-73.3725
0
LINE
8
BLACK
6
CONTINUOUS
10
163.205
20
-73.3725
11
163.212
21
-73.3634
0
LINE
8
BLACK
6
CONTINUOUS
10
163.212
20
-73.3634
11
163.222
21
-73.3559
0
LINE
8
BLACK
6
CONTINUOUS
10
163.222
20
-73.3559
11
163.232
21
-73.3503
0
LINE
8
BLACK
6
CONTINUOUS
10
163.232
20
-73.3503
11
163.243
21
-73.3469
0
LINE
8
BLACK
6
CONTINUOUS
10
163.243
20
-73.3469
11
163.255
21
-73.3457
0
LINE
8
BLACK
6
CONTINUOUS
10
163.255
20
-73.3457
11
163.267
21
-73.3469
0
LINE
8
BLACK
6
CONTINUOUS
10
160.658
20
-72.016
11
160.667
21
-72.0169
0
LINE
8
BLACK
6
CONTINUOUS
10
160.667
20
-72.0169
11
160.678
21
-72.0203
0
LINE
8
BLACK
6
CONTINUOUS
10
160.678
20
-72.0203
11
160.688
21
-72.0259
0
LINE
8
BLACK
6
CONTINUOUS
10
160.688
20
-72.0259
11
160.698
21
-72.0334
0
LINE
8
BLACK
6
CONTINUOUS
10
160.698
20
-72.0334
11
160.705
21
-72.0425
0
LINE
8
BLACK
6
CONTINUOUS
10
160.705
20
-72.0425
11
160.711
21
-72.0529
0
LINE
8
BLACK
6
CONTINUOUS
10
160.711
20
-72.0529
11
160.714
21
-72.0642
0
LINE
8
BLACK
6
CONTINUOUS
10
160.714
20
-72.0642
11
160.715
21
-72.076
0
LINE
8
BLACK
6
CONTINUOUS
10
160.715
20
-72.076
11
160.715
21
-72.0789
0
LINE
8
BLACK
6
CONTINUOUS
10
160.715
20
-72.0789
11
160.715
21
-74.7331
0
LINE
8
BLACK
6
CONTINUOUS
10
160.715
20
-74.7331
11
160.715
21
-74.736
0
LINE
8
BLACK
6
CONTINUOUS
10
160.715
20
-74.736
11
160.714
21
-74.7478
0
LINE
8
BLACK
6
CONTINUOUS
10
160.714
20
-74.7478
11
160.711
21
-74.7591
0
LINE
8
BLACK
6
CONTINUOUS
10
160.711
20
-74.7591
11
160.705
21
-74.7695
0
LINE
8
BLACK
6
CONTINUOUS
10
160.705
20
-74.7695
11
160.698
21
-74.7786
0
LINE
8
BLACK
6
CONTINUOUS
10
160.698
20
-74.7786
11
160.688
21
-74.7861
0
LINE
8
BLACK
6
CONTINUOUS
10
160.688
20
-74.7861
11
160.678
21
-74.7917
0
LINE
8
BLACK
6
CONTINUOUS
10
160.678
20
-74.7917
11
160.667
21
-74.7951
0
LINE
8
BLACK
6
CONTINUOUS
10
160.667
20
-74.7951
11
160.658
21
-74.796
0
LINE
8
BLACK
6
CONTINUOUS
10
160.658
20
-74.796
11
160.658
21
-74.796
0
LINE
8
BLACK
6
CONTINUOUS
10
160.658
20
-74.796
11
160.655
21
-74.7963
0
LINE
8
BLACK
6
CONTINUOUS
10
160.655
20
-74.7963
11
160.652
21
-74.796
0
LINE
8
BLACK
6
CONTINUOUS
10
160.652
20
-74.796
11
102.178
21
-74.796
0
LINE
8
BLACK
6
CONTINUOUS
10
102.178
20
-74.796
11
102.175
21
-74.7963
0
LINE
8
BLACK
6
CONTINUOUS
10
102.175
20
-74.7963
11
102.163
21
-74.7951
0
LINE
8
BLACK
6
CONTINUOUS
10
102.163
20
-74.7951
11
102.152
21
-74.7917
0
LINE
8
BLACK
6
CONTINUOUS
10
102.152
20
-74.7917
11
102.142
21
-74.7861
0
LINE
8
BLACK
6
CONTINUOUS
10
102.142
20
-74.7861
11
102.132
21
-74.7786
0
LINE
8
BLACK
6
CONTINUOUS
10
102.132
20
-74.7786
11
102.125
21
-74.7695
0
LINE
8
BLACK
6
CONTINUOUS
10
102.125
20
-74.7695
11
102.119
21
-74.7591
0
LINE
8
BLACK
6
CONTINUOUS
10
102.119
20
-74.7591
11
102.116
21
-74.7478
0
LINE
8
BLACK
6
CONTINUOUS
10
102.116
20
-74.7478
11
102.115
21
-74.736
0
LINE
8
BLACK
6
CONTINUOUS
10
102.115
20
-74.736
11
102.115
21
-74.7331
0
LINE
8
BLACK
6
CONTINUOUS
10
102.115
20
-74.7331
11
102.115
21
-72.079
0
LINE
8
BLACK
6
CONTINUOUS
10
102.115
20
-72.079
11
102.115
21
-72.076
0
LINE
8
BLACK
6
CONTINUOUS
10
102.115
20
-72.076
11
102.116
21
-72.0642
0
LINE
8
BLACK
6
CONTINUOUS
10
102.116
20
-72.0642
11
102.119
21
-72.0529
0
LINE
8
BLACK
6
CONTINUOUS
10
102.119
20
-72.0529
11
102.125
21
-72.0425
0
LINE
8
BLACK
6
CONTINUOUS
10
102.125
20
-72.0425
11
102.132
21
-72.0334
0
LINE
8
BLACK
6
CONTINUOUS
10
102.132
20
-72.0334
11
102.142
21
-72.0259
0
LINE
8
BLACK
6
CONTINUOUS
10
102.142
20
-72.0259
11
102.152
21
-72.0203
0
LINE
8
BLACK
6
CONTINUOUS
10
102.152
20
-72.0203
11
102.163
21
-72.0169
0
LINE
8
BLACK
6
CONTINUOUS
10
102.163
20
-72.0169
11
102.172
21
-72.016
0
LINE
8
BLACK
6
CONTINUOUS
10
102.172
20
-72.016
11
102.172
21
-72.016
0
LINE
8
BLACK
6
CONTINUOUS
10
102.172
20
-72.016
11
102.175
21
-72.0157
0
LINE
8
BLACK
6
CONTINUOUS
10
102.175
20
-72.0157
11
102.178
21
-72.016
0
LINE
8
BLACK
6
CONTINUOUS
10
102.178
20
-72.016
11
160.652
21
-72.016
0
LINE
8
BLACK
6
CONTINUOUS
10
160.652
20
-72.016
11
160.655
21
-72.0157
0
LINE
8
BLACK
6
CONTINUOUS
10
160.655
20
-72.0157
11
160.658
21
-72.016
0
LINE
8
BLACK
6
CONTINUOUS
10
102.235
20
-72.136
11
102.235
21
-74.676
0
LINE
8
BLACK
6
CONTINUOUS
10
102.235
20
-74.676
11
160.595
21
-74.676
0
LINE
8
BLACK
6
CONTINUOUS
10
160.595
20
-74.676
11
160.595
21
-72.136
0
LINE
8
BLACK
6
CONTINUOUS
10
160.595
20
-72.136
11
102.235
21
-72.136
  0
ENDSEC
  0
EOF
