G04 #@! TF.GenerationSoftware,KiCad,Pcbnew,(5.1.12)-1*
G04 #@! TF.CreationDate,2022-01-29T13:41:41+00:00*
G04 #@! TF.ProjectId,RGBtoHDMI CDTV v2 - Denise Breakout,52474274-6f48-4444-9d49-204344545620,v2*
G04 #@! TF.SameCoordinates,Original*
G04 #@! TF.FileFunction,Copper,L1,Top*
G04 #@! TF.FilePolarity,Positive*
%FSLAX46Y46*%
G04 Gerber Fmt 4.6, Leading zero omitted, Abs format (unit mm)*
G04 Created by KiCad (PCBNEW (5.1.12)-1) date 2022-01-29 13:41:41*
%MOMM*%
%LPD*%
G01*
G04 APERTURE LIST*
G04 #@! TA.AperFunction,EtchedComponent*
%ADD10C,0.100000*%
G04 #@! TD*
G04 #@! TA.AperFunction,ComponentPad*
%ADD11O,1.600000X1.600000*%
G04 #@! TD*
G04 #@! TA.AperFunction,ComponentPad*
%ADD12R,1.600000X1.600000*%
G04 #@! TD*
G04 #@! TA.AperFunction,ComponentPad*
%ADD13O,1.600000X2.400000*%
G04 #@! TD*
G04 #@! TA.AperFunction,ComponentPad*
%ADD14R,1.600000X2.400000*%
G04 #@! TD*
G04 #@! TA.AperFunction,ComponentPad*
%ADD15O,1.700000X1.700000*%
G04 #@! TD*
G04 #@! TA.AperFunction,ComponentPad*
%ADD16R,1.700000X1.700000*%
G04 #@! TD*
G04 #@! TA.AperFunction,SMDPad,CuDef*
%ADD17R,2.500000X3.000000*%
G04 #@! TD*
G04 #@! TA.AperFunction,SMDPad,CuDef*
%ADD18R,0.600000X2.000000*%
G04 #@! TD*
G04 #@! TA.AperFunction,ViaPad*
%ADD19C,0.800000*%
G04 #@! TD*
G04 #@! TA.AperFunction,Conductor*
%ADD20C,1.000000*%
G04 #@! TD*
G04 #@! TA.AperFunction,Conductor*
%ADD21C,0.250000*%
G04 #@! TD*
G04 #@! TA.AperFunction,Conductor*
%ADD22C,0.254000*%
G04 #@! TD*
G04 #@! TA.AperFunction,Conductor*
%ADD23C,0.100000*%
G04 #@! TD*
G04 APERTURE END LIST*
D10*
G36*
X150495000Y-81661000D02*
G01*
X149860000Y-81661000D01*
X149860000Y-81026000D01*
X150495000Y-81026000D01*
X150495000Y-81661000D01*
G37*
X150495000Y-81661000D02*
X149860000Y-81661000D01*
X149860000Y-81026000D01*
X150495000Y-81026000D01*
X150495000Y-81661000D01*
G36*
X153035000Y-81661000D02*
G01*
X152400000Y-81661000D01*
X152400000Y-81026000D01*
X153035000Y-81026000D01*
X153035000Y-81661000D01*
G37*
X153035000Y-81661000D02*
X152400000Y-81661000D01*
X152400000Y-81026000D01*
X153035000Y-81026000D01*
X153035000Y-81661000D01*
G36*
X153035000Y-80391000D02*
G01*
X152400000Y-80391000D01*
X152400000Y-79756000D01*
X153035000Y-79756000D01*
X153035000Y-80391000D01*
G37*
X153035000Y-80391000D02*
X152400000Y-80391000D01*
X152400000Y-79756000D01*
X153035000Y-79756000D01*
X153035000Y-80391000D01*
G36*
X151765000Y-80391000D02*
G01*
X151130000Y-80391000D01*
X151130000Y-79756000D01*
X151765000Y-79756000D01*
X151765000Y-80391000D01*
G37*
X151765000Y-80391000D02*
X151130000Y-80391000D01*
X151130000Y-79756000D01*
X151765000Y-79756000D01*
X151765000Y-80391000D01*
G36*
X151130000Y-80391000D02*
G01*
X150495000Y-80391000D01*
X150495000Y-79756000D01*
X151130000Y-79756000D01*
X151130000Y-80391000D01*
G37*
X151130000Y-80391000D02*
X150495000Y-80391000D01*
X150495000Y-79756000D01*
X151130000Y-79756000D01*
X151130000Y-80391000D01*
G36*
X150495000Y-80391000D02*
G01*
X149860000Y-80391000D01*
X149860000Y-79756000D01*
X150495000Y-79756000D01*
X150495000Y-80391000D01*
G37*
X150495000Y-80391000D02*
X149860000Y-80391000D01*
X149860000Y-79756000D01*
X150495000Y-79756000D01*
X150495000Y-80391000D01*
G36*
X150495000Y-77851000D02*
G01*
X149860000Y-77851000D01*
X149860000Y-77216000D01*
X150495000Y-77216000D01*
X150495000Y-77851000D01*
G37*
X150495000Y-77851000D02*
X149860000Y-77851000D01*
X149860000Y-77216000D01*
X150495000Y-77216000D01*
X150495000Y-77851000D01*
G36*
X151130000Y-77851000D02*
G01*
X150495000Y-77851000D01*
X150495000Y-77216000D01*
X151130000Y-77216000D01*
X151130000Y-77851000D01*
G37*
X151130000Y-77851000D02*
X150495000Y-77851000D01*
X150495000Y-77216000D01*
X151130000Y-77216000D01*
X151130000Y-77851000D01*
G36*
X151765000Y-77216000D02*
G01*
X151130000Y-77216000D01*
X151130000Y-76581000D01*
X151765000Y-76581000D01*
X151765000Y-77216000D01*
G37*
X151765000Y-77216000D02*
X151130000Y-77216000D01*
X151130000Y-76581000D01*
X151765000Y-76581000D01*
X151765000Y-77216000D01*
G36*
X151765000Y-77851000D02*
G01*
X151130000Y-77851000D01*
X151130000Y-77216000D01*
X151765000Y-77216000D01*
X151765000Y-77851000D01*
G37*
X151765000Y-77851000D02*
X151130000Y-77851000D01*
X151130000Y-77216000D01*
X151765000Y-77216000D01*
X151765000Y-77851000D01*
G36*
X152400000Y-77851000D02*
G01*
X151765000Y-77851000D01*
X151765000Y-77216000D01*
X152400000Y-77216000D01*
X152400000Y-77851000D01*
G37*
X152400000Y-77851000D02*
X151765000Y-77851000D01*
X151765000Y-77216000D01*
X152400000Y-77216000D01*
X152400000Y-77851000D01*
G36*
X153035000Y-77851000D02*
G01*
X152400000Y-77851000D01*
X152400000Y-77216000D01*
X153035000Y-77216000D01*
X153035000Y-77851000D01*
G37*
X153035000Y-77851000D02*
X152400000Y-77851000D01*
X152400000Y-77216000D01*
X153035000Y-77216000D01*
X153035000Y-77851000D01*
G36*
X153035000Y-77216000D02*
G01*
X152400000Y-77216000D01*
X152400000Y-76581000D01*
X153035000Y-76581000D01*
X153035000Y-77216000D01*
G37*
X153035000Y-77216000D02*
X152400000Y-77216000D01*
X152400000Y-76581000D01*
X153035000Y-76581000D01*
X153035000Y-77216000D01*
G36*
X154305000Y-81661000D02*
G01*
X153670000Y-81661000D01*
X153670000Y-81026000D01*
X154305000Y-81026000D01*
X154305000Y-81661000D01*
G37*
X154305000Y-81661000D02*
X153670000Y-81661000D01*
X153670000Y-81026000D01*
X154305000Y-81026000D01*
X154305000Y-81661000D01*
G36*
X154305000Y-77851000D02*
G01*
X153670000Y-77851000D01*
X153670000Y-77216000D01*
X154305000Y-77216000D01*
X154305000Y-77851000D01*
G37*
X154305000Y-77851000D02*
X153670000Y-77851000D01*
X153670000Y-77216000D01*
X154305000Y-77216000D01*
X154305000Y-77851000D01*
D11*
X103505000Y-88646000D03*
X106045000Y-88646000D03*
X108585000Y-88646000D03*
X111125000Y-88646000D03*
X113665000Y-88646000D03*
X116205000Y-88646000D03*
X118745000Y-88646000D03*
X121285000Y-88646000D03*
X123825000Y-88646000D03*
X126365000Y-88646000D03*
X128905000Y-88646000D03*
X131445000Y-88646000D03*
X133985000Y-88646000D03*
X136525000Y-88646000D03*
X139065000Y-88646000D03*
X141605000Y-88646000D03*
X144145000Y-88646000D03*
X146685000Y-88646000D03*
X149225000Y-88646000D03*
X151765000Y-88646000D03*
X154305000Y-88646000D03*
X156845000Y-88646000D03*
X159385000Y-88646000D03*
D12*
X161925000Y-88646000D03*
D11*
X103505000Y-73406000D03*
X106045000Y-73406000D03*
X108585000Y-73406000D03*
X111125000Y-73406000D03*
X113665000Y-73406000D03*
X116205000Y-73406000D03*
X118745000Y-73406000D03*
X121285000Y-73406000D03*
X123825000Y-73406000D03*
X126365000Y-73406000D03*
X128905000Y-73406000D03*
X131445000Y-73406000D03*
X133985000Y-73406000D03*
X136525000Y-73406000D03*
X139065000Y-73406000D03*
X141605000Y-73406000D03*
X144145000Y-73406000D03*
X146685000Y-73406000D03*
X149225000Y-73406000D03*
X151765000Y-73406000D03*
X154305000Y-73406000D03*
X156845000Y-73406000D03*
X159385000Y-73406000D03*
D12*
X161925000Y-73406000D03*
D13*
X161925000Y-85725000D03*
X103505000Y-70485000D03*
X159385000Y-85725000D03*
X106045000Y-70485000D03*
X156845000Y-85725000D03*
X108585000Y-70485000D03*
X154305000Y-85725000D03*
X111125000Y-70485000D03*
X151765000Y-85725000D03*
X113665000Y-70485000D03*
X149225000Y-85725000D03*
X116205000Y-70485000D03*
X146685000Y-85725000D03*
X118745000Y-70485000D03*
X144145000Y-85725000D03*
X121285000Y-70485000D03*
X141605000Y-85725000D03*
X123825000Y-70485000D03*
X139065000Y-85725000D03*
X126365000Y-70485000D03*
X136525000Y-85725000D03*
X128905000Y-70485000D03*
X133985000Y-85725000D03*
X131445000Y-70485000D03*
X131445000Y-85725000D03*
X133985000Y-70485000D03*
X128905000Y-85725000D03*
X136525000Y-70485000D03*
X126365000Y-85725000D03*
X139065000Y-70485000D03*
X123825000Y-85725000D03*
X141605000Y-70485000D03*
X121285000Y-85725000D03*
X144145000Y-70485000D03*
X118745000Y-85725000D03*
X146685000Y-70485000D03*
X116205000Y-85725000D03*
X149225000Y-70485000D03*
X113665000Y-85725000D03*
X151765000Y-70485000D03*
X111125000Y-85725000D03*
X154305000Y-70485000D03*
X108585000Y-85725000D03*
X156845000Y-70485000D03*
X106045000Y-85725000D03*
X159385000Y-70485000D03*
X103505000Y-85725000D03*
D14*
X161925000Y-70485000D03*
D15*
X159639000Y-67310000D03*
D16*
X159639000Y-64770000D03*
D17*
X75745000Y-75520000D03*
X98245000Y-75520000D03*
D18*
X95495000Y-73070000D03*
X94495000Y-73070000D03*
X93495000Y-73070000D03*
X92495000Y-73070000D03*
X91495000Y-73070000D03*
X90495000Y-73070000D03*
X89495000Y-73070000D03*
X88495000Y-73070000D03*
X87495000Y-73070000D03*
X86495000Y-73070000D03*
X85495000Y-73070000D03*
X84495000Y-73070000D03*
X83495000Y-73070000D03*
X82495000Y-73070000D03*
X81495000Y-73070000D03*
X80495000Y-73070000D03*
X79495000Y-73070000D03*
X78495000Y-73070000D03*
D19*
X97536000Y-76327000D03*
X98933000Y-76327000D03*
X98933000Y-74676000D03*
X97536000Y-74676000D03*
X75057000Y-76454000D03*
X76454000Y-76454000D03*
X76454000Y-74549000D03*
X75057000Y-74549000D03*
X95504000Y-74676000D03*
X95504000Y-71374000D03*
X96393000Y-73025000D03*
X92329000Y-70358000D03*
X80899000Y-69977000D03*
X100838000Y-70612000D03*
X161925000Y-64770000D03*
X161925000Y-67310000D03*
X161925000Y-75565000D03*
X161925000Y-80645000D03*
X113919000Y-76454000D03*
X75565000Y-83947000D03*
X75565000Y-69215000D03*
X123825000Y-82550000D03*
X139065000Y-82550000D03*
X157226000Y-68199000D03*
X120015000Y-83820000D03*
X117475000Y-83820000D03*
X114935000Y-83820000D03*
X112395000Y-83820000D03*
X109855000Y-83820000D03*
X88773000Y-82550000D03*
X84709000Y-82550000D03*
X91567000Y-82550000D03*
X109601000Y-76454000D03*
X107061000Y-76454000D03*
X104267000Y-76454000D03*
X101473000Y-76454000D03*
X84455000Y-77724000D03*
X83566000Y-79121000D03*
X82550004Y-80645000D03*
X81534000Y-81788000D03*
X80518006Y-83312000D03*
D20*
X133985000Y-85725000D02*
X133985000Y-88900000D01*
D21*
X84495000Y-77684000D02*
X84455000Y-77724000D01*
X84495000Y-73070000D02*
X84495000Y-77684000D01*
D20*
X103505000Y-70485000D02*
X103505000Y-73660000D01*
D21*
X83495000Y-73070000D02*
X83495000Y-79050000D01*
X83495000Y-79050000D02*
X83566000Y-79121000D01*
D20*
X106045000Y-70485000D02*
X106045000Y-73660000D01*
D21*
X82495000Y-73070000D02*
X82495000Y-80589996D01*
X82495000Y-80589996D02*
X82550004Y-80645000D01*
D20*
X108585000Y-70485000D02*
X108585000Y-73660000D01*
D21*
X81495000Y-81749000D02*
X81534000Y-81788000D01*
X81495000Y-73070000D02*
X81495000Y-81749000D01*
D20*
X111125000Y-70485000D02*
X111125000Y-73660000D01*
D21*
X80495000Y-73070000D02*
X80495000Y-83288994D01*
X80495000Y-83288994D02*
X80518006Y-83312000D01*
D20*
X113665000Y-70485000D02*
X113665000Y-73660000D01*
X116205000Y-70485000D02*
X116205000Y-73660000D01*
X118745000Y-70485000D02*
X118745000Y-73660000D01*
X121285000Y-70485000D02*
X121285000Y-73660000D01*
X123825000Y-70485000D02*
X123825000Y-73660000D01*
X126365000Y-70485000D02*
X126365000Y-73660000D01*
X128905000Y-70485000D02*
X128905000Y-73660000D01*
X133985000Y-70485000D02*
X133985000Y-73660000D01*
X136525000Y-70485000D02*
X136525000Y-73660000D01*
X126365000Y-85725000D02*
X126365000Y-88900000D01*
X139065000Y-70485000D02*
X139065000Y-73660000D01*
X141605000Y-70485000D02*
X141605000Y-73660000D01*
D21*
X93495000Y-75207000D02*
X93495000Y-73070000D01*
X95885000Y-77597000D02*
X93495000Y-75207000D01*
X115570000Y-77597000D02*
X95885000Y-77597000D01*
X121285000Y-83312000D02*
X115570000Y-77597000D01*
X121285000Y-85725000D02*
X121285000Y-83312000D01*
D20*
X121285000Y-85725000D02*
X121285000Y-88900000D01*
X144145000Y-70485000D02*
X144145000Y-73660000D01*
D21*
X91567000Y-73142000D02*
X91495000Y-73070000D01*
X91567000Y-74930000D02*
X91567000Y-73142000D01*
X95758000Y-79121000D02*
X91567000Y-74930000D01*
X114173000Y-79121000D02*
X95758000Y-79121000D01*
X118745000Y-83693000D02*
X114173000Y-79121000D01*
X118745000Y-85725000D02*
X118745000Y-83693000D01*
D20*
X118745000Y-85725000D02*
X118745000Y-88900000D01*
X146685000Y-70485000D02*
X146685000Y-73660000D01*
D21*
X90495000Y-75318500D02*
X90495000Y-73070000D01*
X95313500Y-80137000D02*
X90495000Y-75318500D01*
X113157000Y-80137000D02*
X95313500Y-80137000D01*
X116205000Y-83185000D02*
X113157000Y-80137000D01*
X116205000Y-85725000D02*
X116205000Y-83185000D01*
D20*
X116205000Y-85725000D02*
X116205000Y-88900000D01*
X149225000Y-70485000D02*
X149225000Y-73660000D01*
D21*
X95121589Y-81280000D02*
X89495000Y-75653411D01*
X111252000Y-81280000D02*
X95121589Y-81280000D01*
X89495000Y-75653411D02*
X89495000Y-73070000D01*
X113665000Y-83693000D02*
X111252000Y-81280000D01*
X113665000Y-85725000D02*
X113665000Y-83693000D01*
D20*
X113665000Y-85725000D02*
X113665000Y-88900000D01*
X151765000Y-70485000D02*
X151765000Y-73660000D01*
D21*
X88495000Y-76430000D02*
X88495000Y-73070000D01*
X94361000Y-82296000D02*
X88495000Y-76430000D01*
X109728000Y-82296000D02*
X94361000Y-82296000D01*
X111125000Y-83693000D02*
X109728000Y-82296000D01*
X111125000Y-85725000D02*
X111125000Y-83693000D01*
D20*
X111125000Y-85725000D02*
X111125000Y-88900000D01*
X154305000Y-70485000D02*
X154305000Y-73660000D01*
D21*
X93218000Y-83058000D02*
X87495000Y-77335000D01*
X107823000Y-83058000D02*
X93218000Y-83058000D01*
X87495000Y-77335000D02*
X87495000Y-73070000D01*
X108585000Y-83820000D02*
X107823000Y-83058000D01*
X108585000Y-85725000D02*
X108585000Y-83820000D01*
D20*
X108585000Y-85725000D02*
X108585000Y-88900000D01*
X156845000Y-70485000D02*
X156845000Y-73660000D01*
D21*
X86495000Y-73959000D02*
X86495000Y-73070000D01*
X105537000Y-83820000D02*
X91440000Y-83820000D01*
X91440000Y-83820000D02*
X86495000Y-78875000D01*
X106045000Y-84328000D02*
X105537000Y-83820000D01*
X86495000Y-78875000D02*
X86495000Y-73959000D01*
X106045000Y-85725000D02*
X106045000Y-84328000D01*
D20*
X106045000Y-85725000D02*
X106045000Y-88900000D01*
X159385000Y-70485000D02*
X159385000Y-73660000D01*
D21*
X85598000Y-73173000D02*
X85495000Y-73070000D01*
X89027000Y-84582000D02*
X85598000Y-81153000D01*
X85598000Y-81153000D02*
X85598000Y-73173000D01*
X102362000Y-84582000D02*
X89027000Y-84582000D01*
X103505000Y-85725000D02*
X102362000Y-84582000D01*
D20*
X103505000Y-85725000D02*
X103505000Y-88900000D01*
X161925000Y-70485000D02*
X161925000Y-73660000D01*
X128905000Y-85725000D02*
X128905000Y-88900000D01*
X123825000Y-85725000D02*
X123825000Y-88900000D01*
X131445000Y-85725000D02*
X131445000Y-88900000D01*
X131445000Y-70485000D02*
X131445000Y-73660000D01*
X136525000Y-85725000D02*
X136525000Y-88900000D01*
X139065000Y-85725000D02*
X139065000Y-88900000D01*
X141605000Y-85725000D02*
X141605000Y-88900000D01*
X144145000Y-85725000D02*
X144145000Y-88900000D01*
X146685000Y-85725000D02*
X146685000Y-88900000D01*
X149225000Y-85725000D02*
X149225000Y-88900000D01*
X151765000Y-85725000D02*
X151765000Y-88900000D01*
X154305000Y-85725000D02*
X154305000Y-88900000D01*
X156845000Y-85725000D02*
X156845000Y-88900000D01*
X159385000Y-85725000D02*
X159385000Y-88900000D01*
X161925000Y-85725000D02*
X161925000Y-88900000D01*
D21*
X159823989Y-75634011D02*
X102812011Y-75634011D01*
X160655000Y-68326000D02*
X160655000Y-74803000D01*
X160655000Y-74803000D02*
X159823989Y-75634011D01*
X102812011Y-75634011D02*
X97536000Y-70358000D01*
X159639000Y-67310000D02*
X160655000Y-68326000D01*
X97536000Y-70358000D02*
X95221499Y-70358000D01*
X95221499Y-70358000D02*
X94495000Y-71084499D01*
X94495000Y-71084499D02*
X94495000Y-73070000D01*
X92495000Y-71820000D02*
X92495000Y-73070000D01*
X94407011Y-69907989D02*
X92495000Y-71820000D01*
X97722400Y-69907989D02*
X94407011Y-69907989D01*
X102998411Y-75184000D02*
X97722400Y-69907989D01*
X157353000Y-75184000D02*
X102998411Y-75184000D01*
X158115000Y-74422000D02*
X157353000Y-75184000D01*
X158115000Y-66294000D02*
X158115000Y-74422000D01*
X159639000Y-64770000D02*
X158115000Y-66294000D01*
D22*
X162536437Y-63980996D02*
X162688135Y-63995870D01*
X162811388Y-64033082D01*
X162925068Y-64093526D01*
X163024841Y-64174899D01*
X163106911Y-64274105D01*
X163168147Y-64387357D01*
X163206220Y-64510352D01*
X163222000Y-64660492D01*
X163222001Y-76692154D01*
X163157316Y-76712673D01*
X163117245Y-76729847D01*
X163076937Y-76746461D01*
X163071035Y-76749653D01*
X163071032Y-76749654D01*
X163071029Y-76749656D01*
X162897268Y-76845183D01*
X162861307Y-76869807D01*
X162824989Y-76893936D01*
X162819814Y-76898217D01*
X162667916Y-77025674D01*
X162637415Y-77056820D01*
X162606480Y-77087540D01*
X162602235Y-77092745D01*
X162477986Y-77247279D01*
X162454114Y-77283759D01*
X162429736Y-77319902D01*
X162426583Y-77325832D01*
X162334717Y-77501555D01*
X162318401Y-77541939D01*
X162301492Y-77582164D01*
X162299551Y-77588594D01*
X162243566Y-77778815D01*
X162235398Y-77821632D01*
X162226631Y-77864344D01*
X162225976Y-77871028D01*
X162208005Y-78068500D01*
X162208309Y-78112094D01*
X162208005Y-78155688D01*
X162208660Y-78162372D01*
X162229387Y-78359573D01*
X162238148Y-78402254D01*
X162246322Y-78445100D01*
X162248263Y-78451529D01*
X162306898Y-78640951D01*
X162323786Y-78681127D01*
X162340123Y-78721562D01*
X162343276Y-78727492D01*
X162437587Y-78901915D01*
X162461968Y-78938061D01*
X162485837Y-78974536D01*
X162490081Y-78979741D01*
X162616475Y-79132525D01*
X162647410Y-79163245D01*
X162677911Y-79194391D01*
X162683085Y-79198672D01*
X162836747Y-79323996D01*
X162873047Y-79348113D01*
X162909030Y-79372751D01*
X162914937Y-79375945D01*
X163090015Y-79469036D01*
X163130323Y-79485650D01*
X163170394Y-79502824D01*
X163176810Y-79504810D01*
X163222000Y-79518453D01*
X163222001Y-88876470D01*
X163207130Y-89028135D01*
X163169918Y-89151388D01*
X163109474Y-89265067D01*
X163107843Y-89267067D01*
X163107843Y-87846000D01*
X163100487Y-87771311D01*
X163078701Y-87699492D01*
X163043322Y-87633304D01*
X162995711Y-87575289D01*
X162937696Y-87527678D01*
X162871508Y-87492299D01*
X162806000Y-87472427D01*
X162806000Y-86913120D01*
X162911717Y-86784303D01*
X163021381Y-86579136D01*
X163088912Y-86356516D01*
X163106000Y-86183016D01*
X163106000Y-85266985D01*
X163088912Y-85093485D01*
X163021381Y-84870864D01*
X162911717Y-84665697D01*
X162764134Y-84485866D01*
X162584303Y-84338283D01*
X162379136Y-84228619D01*
X162156516Y-84161088D01*
X161925000Y-84138286D01*
X161693485Y-84161088D01*
X161470865Y-84228619D01*
X161265698Y-84338283D01*
X161085867Y-84485866D01*
X160938284Y-84665697D01*
X160828619Y-84870864D01*
X160761088Y-85093484D01*
X160744000Y-85266984D01*
X160744000Y-86183015D01*
X160761088Y-86356515D01*
X160828619Y-86579135D01*
X160938283Y-86784302D01*
X161044000Y-86913120D01*
X161044001Y-87472427D01*
X160978492Y-87492299D01*
X160912304Y-87527678D01*
X160854289Y-87575289D01*
X160806678Y-87633304D01*
X160771299Y-87699492D01*
X160749513Y-87771311D01*
X160742157Y-87846000D01*
X160742157Y-89446000D01*
X160749513Y-89520689D01*
X160762045Y-89562000D01*
X160139185Y-89562000D01*
X160302342Y-89398843D01*
X160431588Y-89205413D01*
X160520614Y-88990485D01*
X160566000Y-88762318D01*
X160566000Y-88529682D01*
X160520614Y-88301515D01*
X160431588Y-88086587D01*
X160302342Y-87893157D01*
X160266000Y-87856815D01*
X160266000Y-86913120D01*
X160371717Y-86784303D01*
X160481381Y-86579136D01*
X160548912Y-86356516D01*
X160566000Y-86183016D01*
X160566000Y-85266985D01*
X160548912Y-85093485D01*
X160481381Y-84870864D01*
X160371717Y-84665697D01*
X160224134Y-84485866D01*
X160044303Y-84338283D01*
X159839136Y-84228619D01*
X159616516Y-84161088D01*
X159385000Y-84138286D01*
X159153485Y-84161088D01*
X158930865Y-84228619D01*
X158725698Y-84338283D01*
X158545867Y-84485866D01*
X158398284Y-84665697D01*
X158288619Y-84870864D01*
X158221088Y-85093484D01*
X158204000Y-85266984D01*
X158204000Y-86183015D01*
X158221088Y-86356515D01*
X158288619Y-86579135D01*
X158398283Y-86784302D01*
X158504000Y-86913120D01*
X158504001Y-87856814D01*
X158467658Y-87893157D01*
X158338412Y-88086587D01*
X158249386Y-88301515D01*
X158204000Y-88529682D01*
X158204000Y-88762318D01*
X158249386Y-88990485D01*
X158338412Y-89205413D01*
X158467658Y-89398843D01*
X158630815Y-89562000D01*
X157599185Y-89562000D01*
X157762342Y-89398843D01*
X157891588Y-89205413D01*
X157980614Y-88990485D01*
X158026000Y-88762318D01*
X158026000Y-88529682D01*
X157980614Y-88301515D01*
X157891588Y-88086587D01*
X157762342Y-87893157D01*
X157726000Y-87856815D01*
X157726000Y-86913120D01*
X157831717Y-86784303D01*
X157941381Y-86579136D01*
X158008912Y-86356516D01*
X158026000Y-86183016D01*
X158026000Y-85266985D01*
X158008912Y-85093485D01*
X157941381Y-84870864D01*
X157831717Y-84665697D01*
X157684134Y-84485866D01*
X157504303Y-84338283D01*
X157299136Y-84228619D01*
X157076516Y-84161088D01*
X156845000Y-84138286D01*
X156613485Y-84161088D01*
X156390865Y-84228619D01*
X156185698Y-84338283D01*
X156005867Y-84485866D01*
X155858284Y-84665697D01*
X155748619Y-84870864D01*
X155681088Y-85093484D01*
X155664000Y-85266984D01*
X155664000Y-86183015D01*
X155681088Y-86356515D01*
X155748619Y-86579135D01*
X155858283Y-86784302D01*
X155964000Y-86913120D01*
X155964001Y-87856814D01*
X155927658Y-87893157D01*
X155798412Y-88086587D01*
X155709386Y-88301515D01*
X155664000Y-88529682D01*
X155664000Y-88762318D01*
X155709386Y-88990485D01*
X155798412Y-89205413D01*
X155927658Y-89398843D01*
X156090815Y-89562000D01*
X155059185Y-89562000D01*
X155222342Y-89398843D01*
X155351588Y-89205413D01*
X155440614Y-88990485D01*
X155486000Y-88762318D01*
X155486000Y-88529682D01*
X155440614Y-88301515D01*
X155351588Y-88086587D01*
X155222342Y-87893157D01*
X155186000Y-87856815D01*
X155186000Y-86913120D01*
X155291717Y-86784303D01*
X155401381Y-86579136D01*
X155468912Y-86356516D01*
X155486000Y-86183016D01*
X155486000Y-85266985D01*
X155468912Y-85093485D01*
X155401381Y-84870864D01*
X155291717Y-84665697D01*
X155144134Y-84485866D01*
X154964303Y-84338283D01*
X154759136Y-84228619D01*
X154536516Y-84161088D01*
X154305000Y-84138286D01*
X154073485Y-84161088D01*
X153850865Y-84228619D01*
X153645698Y-84338283D01*
X153465867Y-84485866D01*
X153318284Y-84665697D01*
X153208619Y-84870864D01*
X153141088Y-85093484D01*
X153124000Y-85266984D01*
X153124000Y-86183015D01*
X153141088Y-86356515D01*
X153208619Y-86579135D01*
X153318283Y-86784302D01*
X153424000Y-86913120D01*
X153424001Y-87856814D01*
X153387658Y-87893157D01*
X153258412Y-88086587D01*
X153169386Y-88301515D01*
X153124000Y-88529682D01*
X153124000Y-88762318D01*
X153169386Y-88990485D01*
X153258412Y-89205413D01*
X153387658Y-89398843D01*
X153550815Y-89562000D01*
X152519185Y-89562000D01*
X152682342Y-89398843D01*
X152811588Y-89205413D01*
X152900614Y-88990485D01*
X152946000Y-88762318D01*
X152946000Y-88529682D01*
X152900614Y-88301515D01*
X152811588Y-88086587D01*
X152682342Y-87893157D01*
X152646000Y-87856815D01*
X152646000Y-86913120D01*
X152751717Y-86784303D01*
X152861381Y-86579136D01*
X152928912Y-86356516D01*
X152946000Y-86183016D01*
X152946000Y-85266985D01*
X152928912Y-85093485D01*
X152861381Y-84870864D01*
X152751717Y-84665697D01*
X152604134Y-84485866D01*
X152424303Y-84338283D01*
X152219136Y-84228619D01*
X151996516Y-84161088D01*
X151765000Y-84138286D01*
X151533485Y-84161088D01*
X151310865Y-84228619D01*
X151105698Y-84338283D01*
X150925867Y-84485866D01*
X150778284Y-84665697D01*
X150668619Y-84870864D01*
X150601088Y-85093484D01*
X150584000Y-85266984D01*
X150584000Y-86183015D01*
X150601088Y-86356515D01*
X150668619Y-86579135D01*
X150778283Y-86784302D01*
X150884000Y-86913120D01*
X150884001Y-87856814D01*
X150847658Y-87893157D01*
X150718412Y-88086587D01*
X150629386Y-88301515D01*
X150584000Y-88529682D01*
X150584000Y-88762318D01*
X150629386Y-88990485D01*
X150718412Y-89205413D01*
X150847658Y-89398843D01*
X151010815Y-89562000D01*
X149979185Y-89562000D01*
X150142342Y-89398843D01*
X150271588Y-89205413D01*
X150360614Y-88990485D01*
X150406000Y-88762318D01*
X150406000Y-88529682D01*
X150360614Y-88301515D01*
X150271588Y-88086587D01*
X150142342Y-87893157D01*
X150106000Y-87856815D01*
X150106000Y-86913120D01*
X150211717Y-86784303D01*
X150321381Y-86579136D01*
X150388912Y-86356516D01*
X150406000Y-86183016D01*
X150406000Y-85266985D01*
X150388912Y-85093485D01*
X150321381Y-84870864D01*
X150211717Y-84665697D01*
X150064134Y-84485866D01*
X149884303Y-84338283D01*
X149679136Y-84228619D01*
X149456516Y-84161088D01*
X149225000Y-84138286D01*
X148993485Y-84161088D01*
X148770865Y-84228619D01*
X148565698Y-84338283D01*
X148385867Y-84485866D01*
X148238284Y-84665697D01*
X148128619Y-84870864D01*
X148061088Y-85093484D01*
X148044000Y-85266984D01*
X148044000Y-86183015D01*
X148061088Y-86356515D01*
X148128619Y-86579135D01*
X148238283Y-86784302D01*
X148344000Y-86913120D01*
X148344001Y-87856814D01*
X148307658Y-87893157D01*
X148178412Y-88086587D01*
X148089386Y-88301515D01*
X148044000Y-88529682D01*
X148044000Y-88762318D01*
X148089386Y-88990485D01*
X148178412Y-89205413D01*
X148307658Y-89398843D01*
X148470815Y-89562000D01*
X147439185Y-89562000D01*
X147602342Y-89398843D01*
X147731588Y-89205413D01*
X147820614Y-88990485D01*
X147866000Y-88762318D01*
X147866000Y-88529682D01*
X147820614Y-88301515D01*
X147731588Y-88086587D01*
X147602342Y-87893157D01*
X147566000Y-87856815D01*
X147566000Y-86913120D01*
X147671717Y-86784303D01*
X147781381Y-86579136D01*
X147848912Y-86356516D01*
X147866000Y-86183016D01*
X147866000Y-85266985D01*
X147848912Y-85093485D01*
X147781381Y-84870864D01*
X147671717Y-84665697D01*
X147524134Y-84485866D01*
X147344303Y-84338283D01*
X147139136Y-84228619D01*
X146916516Y-84161088D01*
X146685000Y-84138286D01*
X146453485Y-84161088D01*
X146230865Y-84228619D01*
X146025698Y-84338283D01*
X145845867Y-84485866D01*
X145698284Y-84665697D01*
X145588619Y-84870864D01*
X145521088Y-85093484D01*
X145504000Y-85266984D01*
X145504000Y-86183015D01*
X145521088Y-86356515D01*
X145588619Y-86579135D01*
X145698283Y-86784302D01*
X145804000Y-86913120D01*
X145804001Y-87856814D01*
X145767658Y-87893157D01*
X145638412Y-88086587D01*
X145549386Y-88301515D01*
X145504000Y-88529682D01*
X145504000Y-88762318D01*
X145549386Y-88990485D01*
X145638412Y-89205413D01*
X145767658Y-89398843D01*
X145930815Y-89562000D01*
X144899185Y-89562000D01*
X145062342Y-89398843D01*
X145191588Y-89205413D01*
X145280614Y-88990485D01*
X145326000Y-88762318D01*
X145326000Y-88529682D01*
X145280614Y-88301515D01*
X145191588Y-88086587D01*
X145062342Y-87893157D01*
X145026000Y-87856815D01*
X145026000Y-86913120D01*
X145131717Y-86784303D01*
X145241381Y-86579136D01*
X145308912Y-86356516D01*
X145326000Y-86183016D01*
X145326000Y-85266985D01*
X145308912Y-85093485D01*
X145241381Y-84870864D01*
X145131717Y-84665697D01*
X144984134Y-84485866D01*
X144804303Y-84338283D01*
X144599136Y-84228619D01*
X144376516Y-84161088D01*
X144145000Y-84138286D01*
X143913485Y-84161088D01*
X143690865Y-84228619D01*
X143485698Y-84338283D01*
X143305867Y-84485866D01*
X143158284Y-84665697D01*
X143048619Y-84870864D01*
X142981088Y-85093484D01*
X142964000Y-85266984D01*
X142964000Y-86183015D01*
X142981088Y-86356515D01*
X143048619Y-86579135D01*
X143158283Y-86784302D01*
X143264000Y-86913120D01*
X143264001Y-87856814D01*
X143227658Y-87893157D01*
X143098412Y-88086587D01*
X143009386Y-88301515D01*
X142964000Y-88529682D01*
X142964000Y-88762318D01*
X143009386Y-88990485D01*
X143098412Y-89205413D01*
X143227658Y-89398843D01*
X143390815Y-89562000D01*
X142359185Y-89562000D01*
X142522342Y-89398843D01*
X142651588Y-89205413D01*
X142740614Y-88990485D01*
X142786000Y-88762318D01*
X142786000Y-88529682D01*
X142740614Y-88301515D01*
X142651588Y-88086587D01*
X142522342Y-87893157D01*
X142486000Y-87856815D01*
X142486000Y-86913120D01*
X142591717Y-86784303D01*
X142701381Y-86579136D01*
X142768912Y-86356516D01*
X142786000Y-86183016D01*
X142786000Y-85266985D01*
X142768912Y-85093485D01*
X142701381Y-84870864D01*
X142591717Y-84665697D01*
X142444134Y-84485866D01*
X142264303Y-84338283D01*
X142059136Y-84228619D01*
X141836516Y-84161088D01*
X141605000Y-84138286D01*
X141373485Y-84161088D01*
X141150865Y-84228619D01*
X140945698Y-84338283D01*
X140765867Y-84485866D01*
X140618284Y-84665697D01*
X140508619Y-84870864D01*
X140441088Y-85093484D01*
X140424000Y-85266984D01*
X140424000Y-86183015D01*
X140441088Y-86356515D01*
X140508619Y-86579135D01*
X140618283Y-86784302D01*
X140724000Y-86913120D01*
X140724001Y-87856814D01*
X140687658Y-87893157D01*
X140558412Y-88086587D01*
X140469386Y-88301515D01*
X140424000Y-88529682D01*
X140424000Y-88762318D01*
X140469386Y-88990485D01*
X140558412Y-89205413D01*
X140687658Y-89398843D01*
X140850815Y-89562000D01*
X139819185Y-89562000D01*
X139982342Y-89398843D01*
X140111588Y-89205413D01*
X140200614Y-88990485D01*
X140246000Y-88762318D01*
X140246000Y-88529682D01*
X140200614Y-88301515D01*
X140111588Y-88086587D01*
X139982342Y-87893157D01*
X139946000Y-87856815D01*
X139946000Y-86913120D01*
X140051717Y-86784303D01*
X140161381Y-86579136D01*
X140228912Y-86356516D01*
X140246000Y-86183016D01*
X140246000Y-85266985D01*
X140228912Y-85093485D01*
X140161381Y-84870864D01*
X140051717Y-84665697D01*
X139904134Y-84485866D01*
X139724303Y-84338283D01*
X139519136Y-84228619D01*
X139296516Y-84161088D01*
X139065000Y-84138286D01*
X138833485Y-84161088D01*
X138610865Y-84228619D01*
X138405698Y-84338283D01*
X138225867Y-84485866D01*
X138078284Y-84665697D01*
X137968619Y-84870864D01*
X137901088Y-85093484D01*
X137884000Y-85266984D01*
X137884000Y-86183015D01*
X137901088Y-86356515D01*
X137968619Y-86579135D01*
X138078283Y-86784302D01*
X138184000Y-86913120D01*
X138184001Y-87856814D01*
X138147658Y-87893157D01*
X138018412Y-88086587D01*
X137929386Y-88301515D01*
X137884000Y-88529682D01*
X137884000Y-88762318D01*
X137929386Y-88990485D01*
X138018412Y-89205413D01*
X138147658Y-89398843D01*
X138310815Y-89562000D01*
X137279185Y-89562000D01*
X137442342Y-89398843D01*
X137571588Y-89205413D01*
X137660614Y-88990485D01*
X137706000Y-88762318D01*
X137706000Y-88529682D01*
X137660614Y-88301515D01*
X137571588Y-88086587D01*
X137442342Y-87893157D01*
X137406000Y-87856815D01*
X137406000Y-86913120D01*
X137511717Y-86784303D01*
X137621381Y-86579136D01*
X137688912Y-86356516D01*
X137706000Y-86183016D01*
X137706000Y-85266985D01*
X137688912Y-85093485D01*
X137621381Y-84870864D01*
X137511717Y-84665697D01*
X137364134Y-84485866D01*
X137184303Y-84338283D01*
X136979136Y-84228619D01*
X136756516Y-84161088D01*
X136525000Y-84138286D01*
X136293485Y-84161088D01*
X136070865Y-84228619D01*
X135865698Y-84338283D01*
X135685867Y-84485866D01*
X135538284Y-84665697D01*
X135428619Y-84870864D01*
X135361088Y-85093484D01*
X135344000Y-85266984D01*
X135344000Y-86183015D01*
X135361088Y-86356515D01*
X135428619Y-86579135D01*
X135538283Y-86784302D01*
X135644000Y-86913120D01*
X135644001Y-87856814D01*
X135607658Y-87893157D01*
X135478412Y-88086587D01*
X135389386Y-88301515D01*
X135344000Y-88529682D01*
X135344000Y-88762318D01*
X135389386Y-88990485D01*
X135478412Y-89205413D01*
X135607658Y-89398843D01*
X135770815Y-89562000D01*
X134724878Y-89562000D01*
X134761003Y-89536278D01*
X134919777Y-89367781D01*
X135042628Y-89171546D01*
X135124835Y-88955115D01*
X135063908Y-88773000D01*
X134112000Y-88773000D01*
X134112000Y-88793000D01*
X133858000Y-88793000D01*
X133858000Y-88773000D01*
X132906092Y-88773000D01*
X132845165Y-88955115D01*
X132927372Y-89171546D01*
X133050223Y-89367781D01*
X133208997Y-89536278D01*
X133245122Y-89562000D01*
X132199185Y-89562000D01*
X132362342Y-89398843D01*
X132491588Y-89205413D01*
X132580614Y-88990485D01*
X132626000Y-88762318D01*
X132626000Y-88529682D01*
X132587650Y-88336885D01*
X132845165Y-88336885D01*
X132906092Y-88519000D01*
X133858000Y-88519000D01*
X133858000Y-87567703D01*
X134112000Y-87567703D01*
X134112000Y-88519000D01*
X135063908Y-88519000D01*
X135124835Y-88336885D01*
X135042628Y-88120454D01*
X134919777Y-87924219D01*
X134761003Y-87755722D01*
X134572408Y-87621438D01*
X134361239Y-87526527D01*
X134294114Y-87506171D01*
X134112000Y-87567703D01*
X133858000Y-87567703D01*
X133675886Y-87506171D01*
X133608761Y-87526527D01*
X133397592Y-87621438D01*
X133208997Y-87755722D01*
X133050223Y-87924219D01*
X132927372Y-88120454D01*
X132845165Y-88336885D01*
X132587650Y-88336885D01*
X132580614Y-88301515D01*
X132491588Y-88086587D01*
X132362342Y-87893157D01*
X132326000Y-87856815D01*
X132326000Y-86913120D01*
X132431717Y-86784303D01*
X132541381Y-86579136D01*
X132608912Y-86356516D01*
X132626000Y-86183016D01*
X132626000Y-85852000D01*
X132804000Y-85852000D01*
X132804000Y-86252000D01*
X132851469Y-86479961D01*
X132942499Y-86694281D01*
X133073592Y-86886724D01*
X133239709Y-87049895D01*
X133434468Y-87177522D01*
X133650383Y-87264702D01*
X133675886Y-87264829D01*
X133858000Y-87203297D01*
X133858000Y-85852000D01*
X134112000Y-85852000D01*
X134112000Y-87203297D01*
X134294114Y-87264829D01*
X134319617Y-87264702D01*
X134535532Y-87177522D01*
X134730291Y-87049895D01*
X134896408Y-86886724D01*
X135027501Y-86694281D01*
X135118531Y-86479961D01*
X135166000Y-86252000D01*
X135166000Y-85852000D01*
X134112000Y-85852000D01*
X133858000Y-85852000D01*
X132804000Y-85852000D01*
X132626000Y-85852000D01*
X132626000Y-85266985D01*
X132619206Y-85198000D01*
X132804000Y-85198000D01*
X132804000Y-85598000D01*
X133858000Y-85598000D01*
X133858000Y-84246703D01*
X134112000Y-84246703D01*
X134112000Y-85598000D01*
X135166000Y-85598000D01*
X135166000Y-85198000D01*
X135118531Y-84970039D01*
X135027501Y-84755719D01*
X134896408Y-84563276D01*
X134730291Y-84400105D01*
X134535532Y-84272478D01*
X134319617Y-84185298D01*
X134294114Y-84185171D01*
X134112000Y-84246703D01*
X133858000Y-84246703D01*
X133675886Y-84185171D01*
X133650383Y-84185298D01*
X133434468Y-84272478D01*
X133239709Y-84400105D01*
X133073592Y-84563276D01*
X132942499Y-84755719D01*
X132851469Y-84970039D01*
X132804000Y-85198000D01*
X132619206Y-85198000D01*
X132608912Y-85093485D01*
X132541381Y-84870864D01*
X132431717Y-84665697D01*
X132284134Y-84485866D01*
X132104303Y-84338283D01*
X131899136Y-84228619D01*
X131676516Y-84161088D01*
X131445000Y-84138286D01*
X131213485Y-84161088D01*
X130990865Y-84228619D01*
X130785698Y-84338283D01*
X130605867Y-84485866D01*
X130458284Y-84665697D01*
X130348619Y-84870864D01*
X130281088Y-85093484D01*
X130264000Y-85266984D01*
X130264000Y-86183015D01*
X130281088Y-86356515D01*
X130348619Y-86579135D01*
X130458283Y-86784302D01*
X130564000Y-86913120D01*
X130564001Y-87856814D01*
X130527658Y-87893157D01*
X130398412Y-88086587D01*
X130309386Y-88301515D01*
X130264000Y-88529682D01*
X130264000Y-88762318D01*
X130309386Y-88990485D01*
X130398412Y-89205413D01*
X130527658Y-89398843D01*
X130690815Y-89562000D01*
X129659185Y-89562000D01*
X129822342Y-89398843D01*
X129951588Y-89205413D01*
X130040614Y-88990485D01*
X130086000Y-88762318D01*
X130086000Y-88529682D01*
X130040614Y-88301515D01*
X129951588Y-88086587D01*
X129822342Y-87893157D01*
X129786000Y-87856815D01*
X129786000Y-86913120D01*
X129891717Y-86784303D01*
X130001381Y-86579136D01*
X130068912Y-86356516D01*
X130086000Y-86183016D01*
X130086000Y-85266985D01*
X130068912Y-85093485D01*
X130001381Y-84870864D01*
X129891717Y-84665697D01*
X129744134Y-84485866D01*
X129564303Y-84338283D01*
X129359136Y-84228619D01*
X129136516Y-84161088D01*
X128905000Y-84138286D01*
X128673485Y-84161088D01*
X128450865Y-84228619D01*
X128245698Y-84338283D01*
X128065867Y-84485866D01*
X127918284Y-84665697D01*
X127808619Y-84870864D01*
X127741088Y-85093484D01*
X127724000Y-85266984D01*
X127724000Y-86183015D01*
X127741088Y-86356515D01*
X127808619Y-86579135D01*
X127918283Y-86784302D01*
X128024000Y-86913120D01*
X128024001Y-87856814D01*
X127987658Y-87893157D01*
X127858412Y-88086587D01*
X127769386Y-88301515D01*
X127724000Y-88529682D01*
X127724000Y-88762318D01*
X127769386Y-88990485D01*
X127858412Y-89205413D01*
X127987658Y-89398843D01*
X128150815Y-89562000D01*
X127119185Y-89562000D01*
X127282342Y-89398843D01*
X127411588Y-89205413D01*
X127500614Y-88990485D01*
X127546000Y-88762318D01*
X127546000Y-88529682D01*
X127500614Y-88301515D01*
X127411588Y-88086587D01*
X127282342Y-87893157D01*
X127246000Y-87856815D01*
X127246000Y-86913120D01*
X127351717Y-86784303D01*
X127461381Y-86579136D01*
X127528912Y-86356516D01*
X127546000Y-86183016D01*
X127546000Y-85266985D01*
X127528912Y-85093485D01*
X127461381Y-84870864D01*
X127351717Y-84665697D01*
X127204134Y-84485866D01*
X127024303Y-84338283D01*
X126819136Y-84228619D01*
X126596516Y-84161088D01*
X126365000Y-84138286D01*
X126133485Y-84161088D01*
X125910865Y-84228619D01*
X125705698Y-84338283D01*
X125525867Y-84485866D01*
X125378284Y-84665697D01*
X125268619Y-84870864D01*
X125201088Y-85093484D01*
X125184000Y-85266984D01*
X125184000Y-86183015D01*
X125201088Y-86356515D01*
X125268619Y-86579135D01*
X125378283Y-86784302D01*
X125484000Y-86913120D01*
X125484001Y-87856814D01*
X125447658Y-87893157D01*
X125318412Y-88086587D01*
X125229386Y-88301515D01*
X125184000Y-88529682D01*
X125184000Y-88762318D01*
X125229386Y-88990485D01*
X125318412Y-89205413D01*
X125447658Y-89398843D01*
X125610815Y-89562000D01*
X124579185Y-89562000D01*
X124742342Y-89398843D01*
X124871588Y-89205413D01*
X124960614Y-88990485D01*
X125006000Y-88762318D01*
X125006000Y-88529682D01*
X124960614Y-88301515D01*
X124871588Y-88086587D01*
X124742342Y-87893157D01*
X124706000Y-87856815D01*
X124706000Y-86913120D01*
X124811717Y-86784303D01*
X124921381Y-86579136D01*
X124988912Y-86356516D01*
X125006000Y-86183016D01*
X125006000Y-85266985D01*
X124988912Y-85093485D01*
X124921381Y-84870864D01*
X124811717Y-84665697D01*
X124664134Y-84485866D01*
X124484303Y-84338283D01*
X124279136Y-84228619D01*
X124056516Y-84161088D01*
X123825000Y-84138286D01*
X123593485Y-84161088D01*
X123370865Y-84228619D01*
X123165698Y-84338283D01*
X122985867Y-84485866D01*
X122838284Y-84665697D01*
X122728619Y-84870864D01*
X122661088Y-85093484D01*
X122644000Y-85266984D01*
X122644000Y-86183015D01*
X122661088Y-86356515D01*
X122728619Y-86579135D01*
X122838283Y-86784302D01*
X122944000Y-86913120D01*
X122944001Y-87856814D01*
X122907658Y-87893157D01*
X122778412Y-88086587D01*
X122689386Y-88301515D01*
X122644000Y-88529682D01*
X122644000Y-88762318D01*
X122689386Y-88990485D01*
X122778412Y-89205413D01*
X122907658Y-89398843D01*
X123070815Y-89562000D01*
X122039185Y-89562000D01*
X122202342Y-89398843D01*
X122331588Y-89205413D01*
X122420614Y-88990485D01*
X122466000Y-88762318D01*
X122466000Y-88529682D01*
X122420614Y-88301515D01*
X122331588Y-88086587D01*
X122202342Y-87893157D01*
X122166000Y-87856815D01*
X122166000Y-86913120D01*
X122271717Y-86784303D01*
X122381381Y-86579136D01*
X122448912Y-86356516D01*
X122466000Y-86183016D01*
X122466000Y-85266985D01*
X122448912Y-85093485D01*
X122381381Y-84870864D01*
X122271717Y-84665697D01*
X122124134Y-84485866D01*
X121944303Y-84338283D01*
X121791000Y-84256341D01*
X121791000Y-83336854D01*
X121793448Y-83312000D01*
X121783678Y-83212807D01*
X121754745Y-83117425D01*
X121742448Y-83094420D01*
X121707759Y-83029521D01*
X121644527Y-82952473D01*
X121625220Y-82936628D01*
X115945376Y-77256785D01*
X115929527Y-77237473D01*
X115852479Y-77174241D01*
X115764575Y-77127255D01*
X115669193Y-77098322D01*
X115594854Y-77091000D01*
X115594846Y-77091000D01*
X115570000Y-77088553D01*
X115545154Y-77091000D01*
X96094592Y-77091000D01*
X95330592Y-76327000D01*
X147828000Y-76327000D01*
X147828000Y-83185000D01*
X147830440Y-83209776D01*
X147837667Y-83233601D01*
X147849403Y-83255557D01*
X147865197Y-83274803D01*
X147884443Y-83290597D01*
X147906399Y-83302333D01*
X147930224Y-83309560D01*
X147955000Y-83312000D01*
X155321000Y-83312000D01*
X155345776Y-83309560D01*
X155369601Y-83302333D01*
X155391557Y-83290597D01*
X155410803Y-83274803D01*
X155426597Y-83255557D01*
X155438333Y-83233601D01*
X155445560Y-83209776D01*
X155448000Y-83185000D01*
X155448000Y-76327000D01*
X155445560Y-76302224D01*
X155438333Y-76278399D01*
X155426597Y-76256443D01*
X155410803Y-76237197D01*
X155391557Y-76221403D01*
X155369601Y-76209667D01*
X155345776Y-76202440D01*
X155321000Y-76200000D01*
X153232342Y-76200000D01*
X153204789Y-76184853D01*
X153203349Y-76184396D01*
X153202019Y-76183677D01*
X153163273Y-76171683D01*
X153124610Y-76159418D01*
X153123107Y-76159249D01*
X153121665Y-76158803D01*
X153081381Y-76154569D01*
X153041018Y-76150042D01*
X153038111Y-76150022D01*
X153038009Y-76150011D01*
X153037907Y-76150020D01*
X153035000Y-76150000D01*
X152400000Y-76150000D01*
X152359588Y-76153962D01*
X152319239Y-76157634D01*
X152317790Y-76158060D01*
X152316285Y-76158208D01*
X152277442Y-76169936D01*
X152238545Y-76181384D01*
X152237206Y-76182084D01*
X152235759Y-76182521D01*
X152202885Y-76200000D01*
X151962342Y-76200000D01*
X151934789Y-76184853D01*
X151933349Y-76184396D01*
X151932019Y-76183677D01*
X151893273Y-76171683D01*
X151854610Y-76159418D01*
X151853107Y-76159249D01*
X151851665Y-76158803D01*
X151811381Y-76154569D01*
X151771018Y-76150042D01*
X151768111Y-76150022D01*
X151768009Y-76150011D01*
X151767907Y-76150020D01*
X151765000Y-76150000D01*
X151130000Y-76150000D01*
X151089588Y-76153962D01*
X151049239Y-76157634D01*
X151047790Y-76158060D01*
X151046285Y-76158208D01*
X151007442Y-76169936D01*
X150968545Y-76181384D01*
X150967206Y-76182084D01*
X150965759Y-76182521D01*
X150932885Y-76200000D01*
X147955000Y-76200000D01*
X147930224Y-76202440D01*
X147906399Y-76209667D01*
X147884443Y-76221403D01*
X147865197Y-76237197D01*
X147849403Y-76256443D01*
X147837667Y-76278399D01*
X147830440Y-76302224D01*
X147828000Y-76327000D01*
X95330592Y-76327000D01*
X94001000Y-74997409D01*
X94001000Y-74398315D01*
X94048492Y-74423701D01*
X94120311Y-74445487D01*
X94195000Y-74452843D01*
X94795000Y-74452843D01*
X94869689Y-74445487D01*
X94941508Y-74423701D01*
X94995000Y-74395108D01*
X95048492Y-74423701D01*
X95120311Y-74445487D01*
X95195000Y-74452843D01*
X95272750Y-74451000D01*
X95368000Y-74355750D01*
X95368000Y-73197000D01*
X95622000Y-73197000D01*
X95622000Y-74355750D01*
X95717250Y-74451000D01*
X95795000Y-74452843D01*
X95869689Y-74445487D01*
X95941508Y-74423701D01*
X96007696Y-74388322D01*
X96065711Y-74340711D01*
X96113322Y-74282696D01*
X96148701Y-74216508D01*
X96170487Y-74144689D01*
X96177843Y-74070000D01*
X96176000Y-73292250D01*
X96080750Y-73197000D01*
X95622000Y-73197000D01*
X95368000Y-73197000D01*
X95348000Y-73197000D01*
X95348000Y-72943000D01*
X95368000Y-72943000D01*
X95368000Y-71784250D01*
X95622000Y-71784250D01*
X95622000Y-72943000D01*
X96080750Y-72943000D01*
X96176000Y-72847750D01*
X96177843Y-72070000D01*
X96170487Y-71995311D01*
X96148701Y-71923492D01*
X96113322Y-71857304D01*
X96065711Y-71799289D01*
X96007696Y-71751678D01*
X95941508Y-71716299D01*
X95869689Y-71694513D01*
X95795000Y-71687157D01*
X95717250Y-71689000D01*
X95622000Y-71784250D01*
X95368000Y-71784250D01*
X95272750Y-71689000D01*
X95195000Y-71687157D01*
X95120311Y-71694513D01*
X95048492Y-71716299D01*
X95001000Y-71741685D01*
X95001000Y-71294090D01*
X95431091Y-70864000D01*
X97326409Y-70864000D01*
X102436639Y-75974231D01*
X102452484Y-75993538D01*
X102529532Y-76056770D01*
X102617436Y-76103756D01*
X102681391Y-76123156D01*
X102712817Y-76132689D01*
X102722705Y-76133663D01*
X102787157Y-76140011D01*
X102787164Y-76140011D01*
X102812010Y-76142458D01*
X102836856Y-76140011D01*
X159799143Y-76140011D01*
X159823989Y-76142458D01*
X159848835Y-76140011D01*
X159848843Y-76140011D01*
X159923182Y-76132689D01*
X160018564Y-76103756D01*
X160106468Y-76056770D01*
X160183516Y-75993538D01*
X160199365Y-75974226D01*
X160995220Y-75178372D01*
X161014527Y-75162527D01*
X161077759Y-75085479D01*
X161124745Y-74997575D01*
X161153678Y-74902193D01*
X161161000Y-74827854D01*
X161161000Y-74827847D01*
X161163447Y-74803001D01*
X161161000Y-74778155D01*
X161161000Y-74588843D01*
X162725000Y-74588843D01*
X162799689Y-74581487D01*
X162871508Y-74559701D01*
X162937696Y-74524322D01*
X162995711Y-74476711D01*
X163043322Y-74418696D01*
X163078701Y-74352508D01*
X163100487Y-74280689D01*
X163107843Y-74206000D01*
X163107843Y-72606000D01*
X163100487Y-72531311D01*
X163078701Y-72459492D01*
X163043322Y-72393304D01*
X162995711Y-72335289D01*
X162937696Y-72287678D01*
X162871508Y-72252299D01*
X162806000Y-72232427D01*
X162806000Y-72058573D01*
X162871508Y-72038701D01*
X162937696Y-72003322D01*
X162995711Y-71955711D01*
X163043322Y-71897696D01*
X163078701Y-71831508D01*
X163100487Y-71759689D01*
X163107843Y-71685000D01*
X163107843Y-69285000D01*
X163100487Y-69210311D01*
X163078701Y-69138492D01*
X163043322Y-69072304D01*
X162995711Y-69014289D01*
X162937696Y-68966678D01*
X162871508Y-68931299D01*
X162799689Y-68909513D01*
X162725000Y-68902157D01*
X161161000Y-68902157D01*
X161161000Y-68350846D01*
X161163447Y-68326000D01*
X161161000Y-68301154D01*
X161161000Y-68301146D01*
X161153678Y-68226807D01*
X161124745Y-68131425D01*
X161077759Y-68043521D01*
X161014527Y-67966473D01*
X160995220Y-67950628D01*
X160790758Y-67746167D01*
X160822693Y-67669069D01*
X160870000Y-67431243D01*
X160870000Y-67188757D01*
X160822693Y-66950931D01*
X160729898Y-66726903D01*
X160595180Y-66525283D01*
X160423717Y-66353820D01*
X160222097Y-66219102D01*
X159998069Y-66126307D01*
X159760243Y-66079000D01*
X159517757Y-66079000D01*
X159279931Y-66126307D01*
X159055903Y-66219102D01*
X158854283Y-66353820D01*
X158682820Y-66525283D01*
X158621000Y-66617803D01*
X158621000Y-66503591D01*
X159121748Y-66002843D01*
X160489000Y-66002843D01*
X160563689Y-65995487D01*
X160635508Y-65973701D01*
X160701696Y-65938322D01*
X160759711Y-65890711D01*
X160807322Y-65832696D01*
X160842701Y-65766508D01*
X160864487Y-65694689D01*
X160871843Y-65620000D01*
X160871843Y-63980705D01*
X162536437Y-63980996D01*
G04 #@! TA.AperFunction,Conductor*
D23*
G36*
X162536437Y-63980996D02*
G01*
X162688135Y-63995870D01*
X162811388Y-64033082D01*
X162925068Y-64093526D01*
X163024841Y-64174899D01*
X163106911Y-64274105D01*
X163168147Y-64387357D01*
X163206220Y-64510352D01*
X163222000Y-64660492D01*
X163222001Y-76692154D01*
X163157316Y-76712673D01*
X163117245Y-76729847D01*
X163076937Y-76746461D01*
X163071035Y-76749653D01*
X163071032Y-76749654D01*
X163071029Y-76749656D01*
X162897268Y-76845183D01*
X162861307Y-76869807D01*
X162824989Y-76893936D01*
X162819814Y-76898217D01*
X162667916Y-77025674D01*
X162637415Y-77056820D01*
X162606480Y-77087540D01*
X162602235Y-77092745D01*
X162477986Y-77247279D01*
X162454114Y-77283759D01*
X162429736Y-77319902D01*
X162426583Y-77325832D01*
X162334717Y-77501555D01*
X162318401Y-77541939D01*
X162301492Y-77582164D01*
X162299551Y-77588594D01*
X162243566Y-77778815D01*
X162235398Y-77821632D01*
X162226631Y-77864344D01*
X162225976Y-77871028D01*
X162208005Y-78068500D01*
X162208309Y-78112094D01*
X162208005Y-78155688D01*
X162208660Y-78162372D01*
X162229387Y-78359573D01*
X162238148Y-78402254D01*
X162246322Y-78445100D01*
X162248263Y-78451529D01*
X162306898Y-78640951D01*
X162323786Y-78681127D01*
X162340123Y-78721562D01*
X162343276Y-78727492D01*
X162437587Y-78901915D01*
X162461968Y-78938061D01*
X162485837Y-78974536D01*
X162490081Y-78979741D01*
X162616475Y-79132525D01*
X162647410Y-79163245D01*
X162677911Y-79194391D01*
X162683085Y-79198672D01*
X162836747Y-79323996D01*
X162873047Y-79348113D01*
X162909030Y-79372751D01*
X162914937Y-79375945D01*
X163090015Y-79469036D01*
X163130323Y-79485650D01*
X163170394Y-79502824D01*
X163176810Y-79504810D01*
X163222000Y-79518453D01*
X163222001Y-88876470D01*
X163207130Y-89028135D01*
X163169918Y-89151388D01*
X163109474Y-89265067D01*
X163107843Y-89267067D01*
X163107843Y-87846000D01*
X163100487Y-87771311D01*
X163078701Y-87699492D01*
X163043322Y-87633304D01*
X162995711Y-87575289D01*
X162937696Y-87527678D01*
X162871508Y-87492299D01*
X162806000Y-87472427D01*
X162806000Y-86913120D01*
X162911717Y-86784303D01*
X163021381Y-86579136D01*
X163088912Y-86356516D01*
X163106000Y-86183016D01*
X163106000Y-85266985D01*
X163088912Y-85093485D01*
X163021381Y-84870864D01*
X162911717Y-84665697D01*
X162764134Y-84485866D01*
X162584303Y-84338283D01*
X162379136Y-84228619D01*
X162156516Y-84161088D01*
X161925000Y-84138286D01*
X161693485Y-84161088D01*
X161470865Y-84228619D01*
X161265698Y-84338283D01*
X161085867Y-84485866D01*
X160938284Y-84665697D01*
X160828619Y-84870864D01*
X160761088Y-85093484D01*
X160744000Y-85266984D01*
X160744000Y-86183015D01*
X160761088Y-86356515D01*
X160828619Y-86579135D01*
X160938283Y-86784302D01*
X161044000Y-86913120D01*
X161044001Y-87472427D01*
X160978492Y-87492299D01*
X160912304Y-87527678D01*
X160854289Y-87575289D01*
X160806678Y-87633304D01*
X160771299Y-87699492D01*
X160749513Y-87771311D01*
X160742157Y-87846000D01*
X160742157Y-89446000D01*
X160749513Y-89520689D01*
X160762045Y-89562000D01*
X160139185Y-89562000D01*
X160302342Y-89398843D01*
X160431588Y-89205413D01*
X160520614Y-88990485D01*
X160566000Y-88762318D01*
X160566000Y-88529682D01*
X160520614Y-88301515D01*
X160431588Y-88086587D01*
X160302342Y-87893157D01*
X160266000Y-87856815D01*
X160266000Y-86913120D01*
X160371717Y-86784303D01*
X160481381Y-86579136D01*
X160548912Y-86356516D01*
X160566000Y-86183016D01*
X160566000Y-85266985D01*
X160548912Y-85093485D01*
X160481381Y-84870864D01*
X160371717Y-84665697D01*
X160224134Y-84485866D01*
X160044303Y-84338283D01*
X159839136Y-84228619D01*
X159616516Y-84161088D01*
X159385000Y-84138286D01*
X159153485Y-84161088D01*
X158930865Y-84228619D01*
X158725698Y-84338283D01*
X158545867Y-84485866D01*
X158398284Y-84665697D01*
X158288619Y-84870864D01*
X158221088Y-85093484D01*
X158204000Y-85266984D01*
X158204000Y-86183015D01*
X158221088Y-86356515D01*
X158288619Y-86579135D01*
X158398283Y-86784302D01*
X158504000Y-86913120D01*
X158504001Y-87856814D01*
X158467658Y-87893157D01*
X158338412Y-88086587D01*
X158249386Y-88301515D01*
X158204000Y-88529682D01*
X158204000Y-88762318D01*
X158249386Y-88990485D01*
X158338412Y-89205413D01*
X158467658Y-89398843D01*
X158630815Y-89562000D01*
X157599185Y-89562000D01*
X157762342Y-89398843D01*
X157891588Y-89205413D01*
X157980614Y-88990485D01*
X158026000Y-88762318D01*
X158026000Y-88529682D01*
X157980614Y-88301515D01*
X157891588Y-88086587D01*
X157762342Y-87893157D01*
X157726000Y-87856815D01*
X157726000Y-86913120D01*
X157831717Y-86784303D01*
X157941381Y-86579136D01*
X158008912Y-86356516D01*
X158026000Y-86183016D01*
X158026000Y-85266985D01*
X158008912Y-85093485D01*
X157941381Y-84870864D01*
X157831717Y-84665697D01*
X157684134Y-84485866D01*
X157504303Y-84338283D01*
X157299136Y-84228619D01*
X157076516Y-84161088D01*
X156845000Y-84138286D01*
X156613485Y-84161088D01*
X156390865Y-84228619D01*
X156185698Y-84338283D01*
X156005867Y-84485866D01*
X155858284Y-84665697D01*
X155748619Y-84870864D01*
X155681088Y-85093484D01*
X155664000Y-85266984D01*
X155664000Y-86183015D01*
X155681088Y-86356515D01*
X155748619Y-86579135D01*
X155858283Y-86784302D01*
X155964000Y-86913120D01*
X155964001Y-87856814D01*
X155927658Y-87893157D01*
X155798412Y-88086587D01*
X155709386Y-88301515D01*
X155664000Y-88529682D01*
X155664000Y-88762318D01*
X155709386Y-88990485D01*
X155798412Y-89205413D01*
X155927658Y-89398843D01*
X156090815Y-89562000D01*
X155059185Y-89562000D01*
X155222342Y-89398843D01*
X155351588Y-89205413D01*
X155440614Y-88990485D01*
X155486000Y-88762318D01*
X155486000Y-88529682D01*
X155440614Y-88301515D01*
X155351588Y-88086587D01*
X155222342Y-87893157D01*
X155186000Y-87856815D01*
X155186000Y-86913120D01*
X155291717Y-86784303D01*
X155401381Y-86579136D01*
X155468912Y-86356516D01*
X155486000Y-86183016D01*
X155486000Y-85266985D01*
X155468912Y-85093485D01*
X155401381Y-84870864D01*
X155291717Y-84665697D01*
X155144134Y-84485866D01*
X154964303Y-84338283D01*
X154759136Y-84228619D01*
X154536516Y-84161088D01*
X154305000Y-84138286D01*
X154073485Y-84161088D01*
X153850865Y-84228619D01*
X153645698Y-84338283D01*
X153465867Y-84485866D01*
X153318284Y-84665697D01*
X153208619Y-84870864D01*
X153141088Y-85093484D01*
X153124000Y-85266984D01*
X153124000Y-86183015D01*
X153141088Y-86356515D01*
X153208619Y-86579135D01*
X153318283Y-86784302D01*
X153424000Y-86913120D01*
X153424001Y-87856814D01*
X153387658Y-87893157D01*
X153258412Y-88086587D01*
X153169386Y-88301515D01*
X153124000Y-88529682D01*
X153124000Y-88762318D01*
X153169386Y-88990485D01*
X153258412Y-89205413D01*
X153387658Y-89398843D01*
X153550815Y-89562000D01*
X152519185Y-89562000D01*
X152682342Y-89398843D01*
X152811588Y-89205413D01*
X152900614Y-88990485D01*
X152946000Y-88762318D01*
X152946000Y-88529682D01*
X152900614Y-88301515D01*
X152811588Y-88086587D01*
X152682342Y-87893157D01*
X152646000Y-87856815D01*
X152646000Y-86913120D01*
X152751717Y-86784303D01*
X152861381Y-86579136D01*
X152928912Y-86356516D01*
X152946000Y-86183016D01*
X152946000Y-85266985D01*
X152928912Y-85093485D01*
X152861381Y-84870864D01*
X152751717Y-84665697D01*
X152604134Y-84485866D01*
X152424303Y-84338283D01*
X152219136Y-84228619D01*
X151996516Y-84161088D01*
X151765000Y-84138286D01*
X151533485Y-84161088D01*
X151310865Y-84228619D01*
X151105698Y-84338283D01*
X150925867Y-84485866D01*
X150778284Y-84665697D01*
X150668619Y-84870864D01*
X150601088Y-85093484D01*
X150584000Y-85266984D01*
X150584000Y-86183015D01*
X150601088Y-86356515D01*
X150668619Y-86579135D01*
X150778283Y-86784302D01*
X150884000Y-86913120D01*
X150884001Y-87856814D01*
X150847658Y-87893157D01*
X150718412Y-88086587D01*
X150629386Y-88301515D01*
X150584000Y-88529682D01*
X150584000Y-88762318D01*
X150629386Y-88990485D01*
X150718412Y-89205413D01*
X150847658Y-89398843D01*
X151010815Y-89562000D01*
X149979185Y-89562000D01*
X150142342Y-89398843D01*
X150271588Y-89205413D01*
X150360614Y-88990485D01*
X150406000Y-88762318D01*
X150406000Y-88529682D01*
X150360614Y-88301515D01*
X150271588Y-88086587D01*
X150142342Y-87893157D01*
X150106000Y-87856815D01*
X150106000Y-86913120D01*
X150211717Y-86784303D01*
X150321381Y-86579136D01*
X150388912Y-86356516D01*
X150406000Y-86183016D01*
X150406000Y-85266985D01*
X150388912Y-85093485D01*
X150321381Y-84870864D01*
X150211717Y-84665697D01*
X150064134Y-84485866D01*
X149884303Y-84338283D01*
X149679136Y-84228619D01*
X149456516Y-84161088D01*
X149225000Y-84138286D01*
X148993485Y-84161088D01*
X148770865Y-84228619D01*
X148565698Y-84338283D01*
X148385867Y-84485866D01*
X148238284Y-84665697D01*
X148128619Y-84870864D01*
X148061088Y-85093484D01*
X148044000Y-85266984D01*
X148044000Y-86183015D01*
X148061088Y-86356515D01*
X148128619Y-86579135D01*
X148238283Y-86784302D01*
X148344000Y-86913120D01*
X148344001Y-87856814D01*
X148307658Y-87893157D01*
X148178412Y-88086587D01*
X148089386Y-88301515D01*
X148044000Y-88529682D01*
X148044000Y-88762318D01*
X148089386Y-88990485D01*
X148178412Y-89205413D01*
X148307658Y-89398843D01*
X148470815Y-89562000D01*
X147439185Y-89562000D01*
X147602342Y-89398843D01*
X147731588Y-89205413D01*
X147820614Y-88990485D01*
X147866000Y-88762318D01*
X147866000Y-88529682D01*
X147820614Y-88301515D01*
X147731588Y-88086587D01*
X147602342Y-87893157D01*
X147566000Y-87856815D01*
X147566000Y-86913120D01*
X147671717Y-86784303D01*
X147781381Y-86579136D01*
X147848912Y-86356516D01*
X147866000Y-86183016D01*
X147866000Y-85266985D01*
X147848912Y-85093485D01*
X147781381Y-84870864D01*
X147671717Y-84665697D01*
X147524134Y-84485866D01*
X147344303Y-84338283D01*
X147139136Y-84228619D01*
X146916516Y-84161088D01*
X146685000Y-84138286D01*
X146453485Y-84161088D01*
X146230865Y-84228619D01*
X146025698Y-84338283D01*
X145845867Y-84485866D01*
X145698284Y-84665697D01*
X145588619Y-84870864D01*
X145521088Y-85093484D01*
X145504000Y-85266984D01*
X145504000Y-86183015D01*
X145521088Y-86356515D01*
X145588619Y-86579135D01*
X145698283Y-86784302D01*
X145804000Y-86913120D01*
X145804001Y-87856814D01*
X145767658Y-87893157D01*
X145638412Y-88086587D01*
X145549386Y-88301515D01*
X145504000Y-88529682D01*
X145504000Y-88762318D01*
X145549386Y-88990485D01*
X145638412Y-89205413D01*
X145767658Y-89398843D01*
X145930815Y-89562000D01*
X144899185Y-89562000D01*
X145062342Y-89398843D01*
X145191588Y-89205413D01*
X145280614Y-88990485D01*
X145326000Y-88762318D01*
X145326000Y-88529682D01*
X145280614Y-88301515D01*
X145191588Y-88086587D01*
X145062342Y-87893157D01*
X145026000Y-87856815D01*
X145026000Y-86913120D01*
X145131717Y-86784303D01*
X145241381Y-86579136D01*
X145308912Y-86356516D01*
X145326000Y-86183016D01*
X145326000Y-85266985D01*
X145308912Y-85093485D01*
X145241381Y-84870864D01*
X145131717Y-84665697D01*
X144984134Y-84485866D01*
X144804303Y-84338283D01*
X144599136Y-84228619D01*
X144376516Y-84161088D01*
X144145000Y-84138286D01*
X143913485Y-84161088D01*
X143690865Y-84228619D01*
X143485698Y-84338283D01*
X143305867Y-84485866D01*
X143158284Y-84665697D01*
X143048619Y-84870864D01*
X142981088Y-85093484D01*
X142964000Y-85266984D01*
X142964000Y-86183015D01*
X142981088Y-86356515D01*
X143048619Y-86579135D01*
X143158283Y-86784302D01*
X143264000Y-86913120D01*
X143264001Y-87856814D01*
X143227658Y-87893157D01*
X143098412Y-88086587D01*
X143009386Y-88301515D01*
X142964000Y-88529682D01*
X142964000Y-88762318D01*
X143009386Y-88990485D01*
X143098412Y-89205413D01*
X143227658Y-89398843D01*
X143390815Y-89562000D01*
X142359185Y-89562000D01*
X142522342Y-89398843D01*
X142651588Y-89205413D01*
X142740614Y-88990485D01*
X142786000Y-88762318D01*
X142786000Y-88529682D01*
X142740614Y-88301515D01*
X142651588Y-88086587D01*
X142522342Y-87893157D01*
X142486000Y-87856815D01*
X142486000Y-86913120D01*
X142591717Y-86784303D01*
X142701381Y-86579136D01*
X142768912Y-86356516D01*
X142786000Y-86183016D01*
X142786000Y-85266985D01*
X142768912Y-85093485D01*
X142701381Y-84870864D01*
X142591717Y-84665697D01*
X142444134Y-84485866D01*
X142264303Y-84338283D01*
X142059136Y-84228619D01*
X141836516Y-84161088D01*
X141605000Y-84138286D01*
X141373485Y-84161088D01*
X141150865Y-84228619D01*
X140945698Y-84338283D01*
X140765867Y-84485866D01*
X140618284Y-84665697D01*
X140508619Y-84870864D01*
X140441088Y-85093484D01*
X140424000Y-85266984D01*
X140424000Y-86183015D01*
X140441088Y-86356515D01*
X140508619Y-86579135D01*
X140618283Y-86784302D01*
X140724000Y-86913120D01*
X140724001Y-87856814D01*
X140687658Y-87893157D01*
X140558412Y-88086587D01*
X140469386Y-88301515D01*
X140424000Y-88529682D01*
X140424000Y-88762318D01*
X140469386Y-88990485D01*
X140558412Y-89205413D01*
X140687658Y-89398843D01*
X140850815Y-89562000D01*
X139819185Y-89562000D01*
X139982342Y-89398843D01*
X140111588Y-89205413D01*
X140200614Y-88990485D01*
X140246000Y-88762318D01*
X140246000Y-88529682D01*
X140200614Y-88301515D01*
X140111588Y-88086587D01*
X139982342Y-87893157D01*
X139946000Y-87856815D01*
X139946000Y-86913120D01*
X140051717Y-86784303D01*
X140161381Y-86579136D01*
X140228912Y-86356516D01*
X140246000Y-86183016D01*
X140246000Y-85266985D01*
X140228912Y-85093485D01*
X140161381Y-84870864D01*
X140051717Y-84665697D01*
X139904134Y-84485866D01*
X139724303Y-84338283D01*
X139519136Y-84228619D01*
X139296516Y-84161088D01*
X139065000Y-84138286D01*
X138833485Y-84161088D01*
X138610865Y-84228619D01*
X138405698Y-84338283D01*
X138225867Y-84485866D01*
X138078284Y-84665697D01*
X137968619Y-84870864D01*
X137901088Y-85093484D01*
X137884000Y-85266984D01*
X137884000Y-86183015D01*
X137901088Y-86356515D01*
X137968619Y-86579135D01*
X138078283Y-86784302D01*
X138184000Y-86913120D01*
X138184001Y-87856814D01*
X138147658Y-87893157D01*
X138018412Y-88086587D01*
X137929386Y-88301515D01*
X137884000Y-88529682D01*
X137884000Y-88762318D01*
X137929386Y-88990485D01*
X138018412Y-89205413D01*
X138147658Y-89398843D01*
X138310815Y-89562000D01*
X137279185Y-89562000D01*
X137442342Y-89398843D01*
X137571588Y-89205413D01*
X137660614Y-88990485D01*
X137706000Y-88762318D01*
X137706000Y-88529682D01*
X137660614Y-88301515D01*
X137571588Y-88086587D01*
X137442342Y-87893157D01*
X137406000Y-87856815D01*
X137406000Y-86913120D01*
X137511717Y-86784303D01*
X137621381Y-86579136D01*
X137688912Y-86356516D01*
X137706000Y-86183016D01*
X137706000Y-85266985D01*
X137688912Y-85093485D01*
X137621381Y-84870864D01*
X137511717Y-84665697D01*
X137364134Y-84485866D01*
X137184303Y-84338283D01*
X136979136Y-84228619D01*
X136756516Y-84161088D01*
X136525000Y-84138286D01*
X136293485Y-84161088D01*
X136070865Y-84228619D01*
X135865698Y-84338283D01*
X135685867Y-84485866D01*
X135538284Y-84665697D01*
X135428619Y-84870864D01*
X135361088Y-85093484D01*
X135344000Y-85266984D01*
X135344000Y-86183015D01*
X135361088Y-86356515D01*
X135428619Y-86579135D01*
X135538283Y-86784302D01*
X135644000Y-86913120D01*
X135644001Y-87856814D01*
X135607658Y-87893157D01*
X135478412Y-88086587D01*
X135389386Y-88301515D01*
X135344000Y-88529682D01*
X135344000Y-88762318D01*
X135389386Y-88990485D01*
X135478412Y-89205413D01*
X135607658Y-89398843D01*
X135770815Y-89562000D01*
X134724878Y-89562000D01*
X134761003Y-89536278D01*
X134919777Y-89367781D01*
X135042628Y-89171546D01*
X135124835Y-88955115D01*
X135063908Y-88773000D01*
X134112000Y-88773000D01*
X134112000Y-88793000D01*
X133858000Y-88793000D01*
X133858000Y-88773000D01*
X132906092Y-88773000D01*
X132845165Y-88955115D01*
X132927372Y-89171546D01*
X133050223Y-89367781D01*
X133208997Y-89536278D01*
X133245122Y-89562000D01*
X132199185Y-89562000D01*
X132362342Y-89398843D01*
X132491588Y-89205413D01*
X132580614Y-88990485D01*
X132626000Y-88762318D01*
X132626000Y-88529682D01*
X132587650Y-88336885D01*
X132845165Y-88336885D01*
X132906092Y-88519000D01*
X133858000Y-88519000D01*
X133858000Y-87567703D01*
X134112000Y-87567703D01*
X134112000Y-88519000D01*
X135063908Y-88519000D01*
X135124835Y-88336885D01*
X135042628Y-88120454D01*
X134919777Y-87924219D01*
X134761003Y-87755722D01*
X134572408Y-87621438D01*
X134361239Y-87526527D01*
X134294114Y-87506171D01*
X134112000Y-87567703D01*
X133858000Y-87567703D01*
X133675886Y-87506171D01*
X133608761Y-87526527D01*
X133397592Y-87621438D01*
X133208997Y-87755722D01*
X133050223Y-87924219D01*
X132927372Y-88120454D01*
X132845165Y-88336885D01*
X132587650Y-88336885D01*
X132580614Y-88301515D01*
X132491588Y-88086587D01*
X132362342Y-87893157D01*
X132326000Y-87856815D01*
X132326000Y-86913120D01*
X132431717Y-86784303D01*
X132541381Y-86579136D01*
X132608912Y-86356516D01*
X132626000Y-86183016D01*
X132626000Y-85852000D01*
X132804000Y-85852000D01*
X132804000Y-86252000D01*
X132851469Y-86479961D01*
X132942499Y-86694281D01*
X133073592Y-86886724D01*
X133239709Y-87049895D01*
X133434468Y-87177522D01*
X133650383Y-87264702D01*
X133675886Y-87264829D01*
X133858000Y-87203297D01*
X133858000Y-85852000D01*
X134112000Y-85852000D01*
X134112000Y-87203297D01*
X134294114Y-87264829D01*
X134319617Y-87264702D01*
X134535532Y-87177522D01*
X134730291Y-87049895D01*
X134896408Y-86886724D01*
X135027501Y-86694281D01*
X135118531Y-86479961D01*
X135166000Y-86252000D01*
X135166000Y-85852000D01*
X134112000Y-85852000D01*
X133858000Y-85852000D01*
X132804000Y-85852000D01*
X132626000Y-85852000D01*
X132626000Y-85266985D01*
X132619206Y-85198000D01*
X132804000Y-85198000D01*
X132804000Y-85598000D01*
X133858000Y-85598000D01*
X133858000Y-84246703D01*
X134112000Y-84246703D01*
X134112000Y-85598000D01*
X135166000Y-85598000D01*
X135166000Y-85198000D01*
X135118531Y-84970039D01*
X135027501Y-84755719D01*
X134896408Y-84563276D01*
X134730291Y-84400105D01*
X134535532Y-84272478D01*
X134319617Y-84185298D01*
X134294114Y-84185171D01*
X134112000Y-84246703D01*
X133858000Y-84246703D01*
X133675886Y-84185171D01*
X133650383Y-84185298D01*
X133434468Y-84272478D01*
X133239709Y-84400105D01*
X133073592Y-84563276D01*
X132942499Y-84755719D01*
X132851469Y-84970039D01*
X132804000Y-85198000D01*
X132619206Y-85198000D01*
X132608912Y-85093485D01*
X132541381Y-84870864D01*
X132431717Y-84665697D01*
X132284134Y-84485866D01*
X132104303Y-84338283D01*
X131899136Y-84228619D01*
X131676516Y-84161088D01*
X131445000Y-84138286D01*
X131213485Y-84161088D01*
X130990865Y-84228619D01*
X130785698Y-84338283D01*
X130605867Y-84485866D01*
X130458284Y-84665697D01*
X130348619Y-84870864D01*
X130281088Y-85093484D01*
X130264000Y-85266984D01*
X130264000Y-86183015D01*
X130281088Y-86356515D01*
X130348619Y-86579135D01*
X130458283Y-86784302D01*
X130564000Y-86913120D01*
X130564001Y-87856814D01*
X130527658Y-87893157D01*
X130398412Y-88086587D01*
X130309386Y-88301515D01*
X130264000Y-88529682D01*
X130264000Y-88762318D01*
X130309386Y-88990485D01*
X130398412Y-89205413D01*
X130527658Y-89398843D01*
X130690815Y-89562000D01*
X129659185Y-89562000D01*
X129822342Y-89398843D01*
X129951588Y-89205413D01*
X130040614Y-88990485D01*
X130086000Y-88762318D01*
X130086000Y-88529682D01*
X130040614Y-88301515D01*
X129951588Y-88086587D01*
X129822342Y-87893157D01*
X129786000Y-87856815D01*
X129786000Y-86913120D01*
X129891717Y-86784303D01*
X130001381Y-86579136D01*
X130068912Y-86356516D01*
X130086000Y-86183016D01*
X130086000Y-85266985D01*
X130068912Y-85093485D01*
X130001381Y-84870864D01*
X129891717Y-84665697D01*
X129744134Y-84485866D01*
X129564303Y-84338283D01*
X129359136Y-84228619D01*
X129136516Y-84161088D01*
X128905000Y-84138286D01*
X128673485Y-84161088D01*
X128450865Y-84228619D01*
X128245698Y-84338283D01*
X128065867Y-84485866D01*
X127918284Y-84665697D01*
X127808619Y-84870864D01*
X127741088Y-85093484D01*
X127724000Y-85266984D01*
X127724000Y-86183015D01*
X127741088Y-86356515D01*
X127808619Y-86579135D01*
X127918283Y-86784302D01*
X128024000Y-86913120D01*
X128024001Y-87856814D01*
X127987658Y-87893157D01*
X127858412Y-88086587D01*
X127769386Y-88301515D01*
X127724000Y-88529682D01*
X127724000Y-88762318D01*
X127769386Y-88990485D01*
X127858412Y-89205413D01*
X127987658Y-89398843D01*
X128150815Y-89562000D01*
X127119185Y-89562000D01*
X127282342Y-89398843D01*
X127411588Y-89205413D01*
X127500614Y-88990485D01*
X127546000Y-88762318D01*
X127546000Y-88529682D01*
X127500614Y-88301515D01*
X127411588Y-88086587D01*
X127282342Y-87893157D01*
X127246000Y-87856815D01*
X127246000Y-86913120D01*
X127351717Y-86784303D01*
X127461381Y-86579136D01*
X127528912Y-86356516D01*
X127546000Y-86183016D01*
X127546000Y-85266985D01*
X127528912Y-85093485D01*
X127461381Y-84870864D01*
X127351717Y-84665697D01*
X127204134Y-84485866D01*
X127024303Y-84338283D01*
X126819136Y-84228619D01*
X126596516Y-84161088D01*
X126365000Y-84138286D01*
X126133485Y-84161088D01*
X125910865Y-84228619D01*
X125705698Y-84338283D01*
X125525867Y-84485866D01*
X125378284Y-84665697D01*
X125268619Y-84870864D01*
X125201088Y-85093484D01*
X125184000Y-85266984D01*
X125184000Y-86183015D01*
X125201088Y-86356515D01*
X125268619Y-86579135D01*
X125378283Y-86784302D01*
X125484000Y-86913120D01*
X125484001Y-87856814D01*
X125447658Y-87893157D01*
X125318412Y-88086587D01*
X125229386Y-88301515D01*
X125184000Y-88529682D01*
X125184000Y-88762318D01*
X125229386Y-88990485D01*
X125318412Y-89205413D01*
X125447658Y-89398843D01*
X125610815Y-89562000D01*
X124579185Y-89562000D01*
X124742342Y-89398843D01*
X124871588Y-89205413D01*
X124960614Y-88990485D01*
X125006000Y-88762318D01*
X125006000Y-88529682D01*
X124960614Y-88301515D01*
X124871588Y-88086587D01*
X124742342Y-87893157D01*
X124706000Y-87856815D01*
X124706000Y-86913120D01*
X124811717Y-86784303D01*
X124921381Y-86579136D01*
X124988912Y-86356516D01*
X125006000Y-86183016D01*
X125006000Y-85266985D01*
X124988912Y-85093485D01*
X124921381Y-84870864D01*
X124811717Y-84665697D01*
X124664134Y-84485866D01*
X124484303Y-84338283D01*
X124279136Y-84228619D01*
X124056516Y-84161088D01*
X123825000Y-84138286D01*
X123593485Y-84161088D01*
X123370865Y-84228619D01*
X123165698Y-84338283D01*
X122985867Y-84485866D01*
X122838284Y-84665697D01*
X122728619Y-84870864D01*
X122661088Y-85093484D01*
X122644000Y-85266984D01*
X122644000Y-86183015D01*
X122661088Y-86356515D01*
X122728619Y-86579135D01*
X122838283Y-86784302D01*
X122944000Y-86913120D01*
X122944001Y-87856814D01*
X122907658Y-87893157D01*
X122778412Y-88086587D01*
X122689386Y-88301515D01*
X122644000Y-88529682D01*
X122644000Y-88762318D01*
X122689386Y-88990485D01*
X122778412Y-89205413D01*
X122907658Y-89398843D01*
X123070815Y-89562000D01*
X122039185Y-89562000D01*
X122202342Y-89398843D01*
X122331588Y-89205413D01*
X122420614Y-88990485D01*
X122466000Y-88762318D01*
X122466000Y-88529682D01*
X122420614Y-88301515D01*
X122331588Y-88086587D01*
X122202342Y-87893157D01*
X122166000Y-87856815D01*
X122166000Y-86913120D01*
X122271717Y-86784303D01*
X122381381Y-86579136D01*
X122448912Y-86356516D01*
X122466000Y-86183016D01*
X122466000Y-85266985D01*
X122448912Y-85093485D01*
X122381381Y-84870864D01*
X122271717Y-84665697D01*
X122124134Y-84485866D01*
X121944303Y-84338283D01*
X121791000Y-84256341D01*
X121791000Y-83336854D01*
X121793448Y-83312000D01*
X121783678Y-83212807D01*
X121754745Y-83117425D01*
X121742448Y-83094420D01*
X121707759Y-83029521D01*
X121644527Y-82952473D01*
X121625220Y-82936628D01*
X115945376Y-77256785D01*
X115929527Y-77237473D01*
X115852479Y-77174241D01*
X115764575Y-77127255D01*
X115669193Y-77098322D01*
X115594854Y-77091000D01*
X115594846Y-77091000D01*
X115570000Y-77088553D01*
X115545154Y-77091000D01*
X96094592Y-77091000D01*
X95330592Y-76327000D01*
X147828000Y-76327000D01*
X147828000Y-83185000D01*
X147830440Y-83209776D01*
X147837667Y-83233601D01*
X147849403Y-83255557D01*
X147865197Y-83274803D01*
X147884443Y-83290597D01*
X147906399Y-83302333D01*
X147930224Y-83309560D01*
X147955000Y-83312000D01*
X155321000Y-83312000D01*
X155345776Y-83309560D01*
X155369601Y-83302333D01*
X155391557Y-83290597D01*
X155410803Y-83274803D01*
X155426597Y-83255557D01*
X155438333Y-83233601D01*
X155445560Y-83209776D01*
X155448000Y-83185000D01*
X155448000Y-76327000D01*
X155445560Y-76302224D01*
X155438333Y-76278399D01*
X155426597Y-76256443D01*
X155410803Y-76237197D01*
X155391557Y-76221403D01*
X155369601Y-76209667D01*
X155345776Y-76202440D01*
X155321000Y-76200000D01*
X153232342Y-76200000D01*
X153204789Y-76184853D01*
X153203349Y-76184396D01*
X153202019Y-76183677D01*
X153163273Y-76171683D01*
X153124610Y-76159418D01*
X153123107Y-76159249D01*
X153121665Y-76158803D01*
X153081381Y-76154569D01*
X153041018Y-76150042D01*
X153038111Y-76150022D01*
X153038009Y-76150011D01*
X153037907Y-76150020D01*
X153035000Y-76150000D01*
X152400000Y-76150000D01*
X152359588Y-76153962D01*
X152319239Y-76157634D01*
X152317790Y-76158060D01*
X152316285Y-76158208D01*
X152277442Y-76169936D01*
X152238545Y-76181384D01*
X152237206Y-76182084D01*
X152235759Y-76182521D01*
X152202885Y-76200000D01*
X151962342Y-76200000D01*
X151934789Y-76184853D01*
X151933349Y-76184396D01*
X151932019Y-76183677D01*
X151893273Y-76171683D01*
X151854610Y-76159418D01*
X151853107Y-76159249D01*
X151851665Y-76158803D01*
X151811381Y-76154569D01*
X151771018Y-76150042D01*
X151768111Y-76150022D01*
X151768009Y-76150011D01*
X151767907Y-76150020D01*
X151765000Y-76150000D01*
X151130000Y-76150000D01*
X151089588Y-76153962D01*
X151049239Y-76157634D01*
X151047790Y-76158060D01*
X151046285Y-76158208D01*
X151007442Y-76169936D01*
X150968545Y-76181384D01*
X150967206Y-76182084D01*
X150965759Y-76182521D01*
X150932885Y-76200000D01*
X147955000Y-76200000D01*
X147930224Y-76202440D01*
X147906399Y-76209667D01*
X147884443Y-76221403D01*
X147865197Y-76237197D01*
X147849403Y-76256443D01*
X147837667Y-76278399D01*
X147830440Y-76302224D01*
X147828000Y-76327000D01*
X95330592Y-76327000D01*
X94001000Y-74997409D01*
X94001000Y-74398315D01*
X94048492Y-74423701D01*
X94120311Y-74445487D01*
X94195000Y-74452843D01*
X94795000Y-74452843D01*
X94869689Y-74445487D01*
X94941508Y-74423701D01*
X94995000Y-74395108D01*
X95048492Y-74423701D01*
X95120311Y-74445487D01*
X95195000Y-74452843D01*
X95272750Y-74451000D01*
X95368000Y-74355750D01*
X95368000Y-73197000D01*
X95622000Y-73197000D01*
X95622000Y-74355750D01*
X95717250Y-74451000D01*
X95795000Y-74452843D01*
X95869689Y-74445487D01*
X95941508Y-74423701D01*
X96007696Y-74388322D01*
X96065711Y-74340711D01*
X96113322Y-74282696D01*
X96148701Y-74216508D01*
X96170487Y-74144689D01*
X96177843Y-74070000D01*
X96176000Y-73292250D01*
X96080750Y-73197000D01*
X95622000Y-73197000D01*
X95368000Y-73197000D01*
X95348000Y-73197000D01*
X95348000Y-72943000D01*
X95368000Y-72943000D01*
X95368000Y-71784250D01*
X95622000Y-71784250D01*
X95622000Y-72943000D01*
X96080750Y-72943000D01*
X96176000Y-72847750D01*
X96177843Y-72070000D01*
X96170487Y-71995311D01*
X96148701Y-71923492D01*
X96113322Y-71857304D01*
X96065711Y-71799289D01*
X96007696Y-71751678D01*
X95941508Y-71716299D01*
X95869689Y-71694513D01*
X95795000Y-71687157D01*
X95717250Y-71689000D01*
X95622000Y-71784250D01*
X95368000Y-71784250D01*
X95272750Y-71689000D01*
X95195000Y-71687157D01*
X95120311Y-71694513D01*
X95048492Y-71716299D01*
X95001000Y-71741685D01*
X95001000Y-71294090D01*
X95431091Y-70864000D01*
X97326409Y-70864000D01*
X102436639Y-75974231D01*
X102452484Y-75993538D01*
X102529532Y-76056770D01*
X102617436Y-76103756D01*
X102681391Y-76123156D01*
X102712817Y-76132689D01*
X102722705Y-76133663D01*
X102787157Y-76140011D01*
X102787164Y-76140011D01*
X102812010Y-76142458D01*
X102836856Y-76140011D01*
X159799143Y-76140011D01*
X159823989Y-76142458D01*
X159848835Y-76140011D01*
X159848843Y-76140011D01*
X159923182Y-76132689D01*
X160018564Y-76103756D01*
X160106468Y-76056770D01*
X160183516Y-75993538D01*
X160199365Y-75974226D01*
X160995220Y-75178372D01*
X161014527Y-75162527D01*
X161077759Y-75085479D01*
X161124745Y-74997575D01*
X161153678Y-74902193D01*
X161161000Y-74827854D01*
X161161000Y-74827847D01*
X161163447Y-74803001D01*
X161161000Y-74778155D01*
X161161000Y-74588843D01*
X162725000Y-74588843D01*
X162799689Y-74581487D01*
X162871508Y-74559701D01*
X162937696Y-74524322D01*
X162995711Y-74476711D01*
X163043322Y-74418696D01*
X163078701Y-74352508D01*
X163100487Y-74280689D01*
X163107843Y-74206000D01*
X163107843Y-72606000D01*
X163100487Y-72531311D01*
X163078701Y-72459492D01*
X163043322Y-72393304D01*
X162995711Y-72335289D01*
X162937696Y-72287678D01*
X162871508Y-72252299D01*
X162806000Y-72232427D01*
X162806000Y-72058573D01*
X162871508Y-72038701D01*
X162937696Y-72003322D01*
X162995711Y-71955711D01*
X163043322Y-71897696D01*
X163078701Y-71831508D01*
X163100487Y-71759689D01*
X163107843Y-71685000D01*
X163107843Y-69285000D01*
X163100487Y-69210311D01*
X163078701Y-69138492D01*
X163043322Y-69072304D01*
X162995711Y-69014289D01*
X162937696Y-68966678D01*
X162871508Y-68931299D01*
X162799689Y-68909513D01*
X162725000Y-68902157D01*
X161161000Y-68902157D01*
X161161000Y-68350846D01*
X161163447Y-68326000D01*
X161161000Y-68301154D01*
X161161000Y-68301146D01*
X161153678Y-68226807D01*
X161124745Y-68131425D01*
X161077759Y-68043521D01*
X161014527Y-67966473D01*
X160995220Y-67950628D01*
X160790758Y-67746167D01*
X160822693Y-67669069D01*
X160870000Y-67431243D01*
X160870000Y-67188757D01*
X160822693Y-66950931D01*
X160729898Y-66726903D01*
X160595180Y-66525283D01*
X160423717Y-66353820D01*
X160222097Y-66219102D01*
X159998069Y-66126307D01*
X159760243Y-66079000D01*
X159517757Y-66079000D01*
X159279931Y-66126307D01*
X159055903Y-66219102D01*
X158854283Y-66353820D01*
X158682820Y-66525283D01*
X158621000Y-66617803D01*
X158621000Y-66503591D01*
X159121748Y-66002843D01*
X160489000Y-66002843D01*
X160563689Y-65995487D01*
X160635508Y-65973701D01*
X160701696Y-65938322D01*
X160759711Y-65890711D01*
X160807322Y-65832696D01*
X160842701Y-65766508D01*
X160864487Y-65694689D01*
X160871843Y-65620000D01*
X160871843Y-63980705D01*
X162536437Y-63980996D01*
G37*
G04 #@! TD.AperFunction*
D22*
X92989000Y-75182154D02*
X92986553Y-75207000D01*
X92989000Y-75231846D01*
X92989000Y-75231853D01*
X92996322Y-75306192D01*
X93025255Y-75401574D01*
X93072241Y-75489479D01*
X93135473Y-75566527D01*
X93154785Y-75582376D01*
X95509628Y-77937220D01*
X95525473Y-77956527D01*
X95602521Y-78019759D01*
X95690425Y-78066745D01*
X95757199Y-78087000D01*
X95785806Y-78095678D01*
X95795694Y-78096652D01*
X95860146Y-78103000D01*
X95860153Y-78103000D01*
X95884999Y-78105447D01*
X95909845Y-78103000D01*
X115360409Y-78103000D01*
X120779001Y-83521593D01*
X120779001Y-84256341D01*
X120625698Y-84338283D01*
X120445867Y-84485866D01*
X120298284Y-84665697D01*
X120188619Y-84870864D01*
X120121088Y-85093484D01*
X120104000Y-85266984D01*
X120104000Y-86183015D01*
X120121088Y-86356515D01*
X120188619Y-86579135D01*
X120298283Y-86784302D01*
X120404000Y-86913120D01*
X120404001Y-87856814D01*
X120367658Y-87893157D01*
X120238412Y-88086587D01*
X120149386Y-88301515D01*
X120104000Y-88529682D01*
X120104000Y-88762318D01*
X120149386Y-88990485D01*
X120238412Y-89205413D01*
X120367658Y-89398843D01*
X120530815Y-89562000D01*
X119499185Y-89562000D01*
X119662342Y-89398843D01*
X119791588Y-89205413D01*
X119880614Y-88990485D01*
X119926000Y-88762318D01*
X119926000Y-88529682D01*
X119880614Y-88301515D01*
X119791588Y-88086587D01*
X119662342Y-87893157D01*
X119626000Y-87856815D01*
X119626000Y-86913120D01*
X119731717Y-86784303D01*
X119841381Y-86579136D01*
X119908912Y-86356516D01*
X119926000Y-86183016D01*
X119926000Y-85266985D01*
X119908912Y-85093485D01*
X119841381Y-84870864D01*
X119731717Y-84665697D01*
X119584134Y-84485866D01*
X119404303Y-84338283D01*
X119251000Y-84256341D01*
X119251000Y-83717845D01*
X119253447Y-83692999D01*
X119251000Y-83668153D01*
X119251000Y-83668146D01*
X119243678Y-83593807D01*
X119214745Y-83498425D01*
X119167759Y-83410521D01*
X119104527Y-83333473D01*
X119085220Y-83317628D01*
X114548376Y-78780785D01*
X114532527Y-78761473D01*
X114455479Y-78698241D01*
X114367575Y-78651255D01*
X114272193Y-78622322D01*
X114197854Y-78615000D01*
X114197846Y-78615000D01*
X114173000Y-78612553D01*
X114148154Y-78615000D01*
X95967592Y-78615000D01*
X92073000Y-74720409D01*
X92073000Y-74431135D01*
X92120311Y-74445487D01*
X92195000Y-74452843D01*
X92795000Y-74452843D01*
X92869689Y-74445487D01*
X92941508Y-74423701D01*
X92989000Y-74398315D01*
X92989000Y-75182154D01*
G04 #@! TA.AperFunction,Conductor*
D23*
G36*
X92989000Y-75182154D02*
G01*
X92986553Y-75207000D01*
X92989000Y-75231846D01*
X92989000Y-75231853D01*
X92996322Y-75306192D01*
X93025255Y-75401574D01*
X93072241Y-75489479D01*
X93135473Y-75566527D01*
X93154785Y-75582376D01*
X95509628Y-77937220D01*
X95525473Y-77956527D01*
X95602521Y-78019759D01*
X95690425Y-78066745D01*
X95757199Y-78087000D01*
X95785806Y-78095678D01*
X95795694Y-78096652D01*
X95860146Y-78103000D01*
X95860153Y-78103000D01*
X95884999Y-78105447D01*
X95909845Y-78103000D01*
X115360409Y-78103000D01*
X120779001Y-83521593D01*
X120779001Y-84256341D01*
X120625698Y-84338283D01*
X120445867Y-84485866D01*
X120298284Y-84665697D01*
X120188619Y-84870864D01*
X120121088Y-85093484D01*
X120104000Y-85266984D01*
X120104000Y-86183015D01*
X120121088Y-86356515D01*
X120188619Y-86579135D01*
X120298283Y-86784302D01*
X120404000Y-86913120D01*
X120404001Y-87856814D01*
X120367658Y-87893157D01*
X120238412Y-88086587D01*
X120149386Y-88301515D01*
X120104000Y-88529682D01*
X120104000Y-88762318D01*
X120149386Y-88990485D01*
X120238412Y-89205413D01*
X120367658Y-89398843D01*
X120530815Y-89562000D01*
X119499185Y-89562000D01*
X119662342Y-89398843D01*
X119791588Y-89205413D01*
X119880614Y-88990485D01*
X119926000Y-88762318D01*
X119926000Y-88529682D01*
X119880614Y-88301515D01*
X119791588Y-88086587D01*
X119662342Y-87893157D01*
X119626000Y-87856815D01*
X119626000Y-86913120D01*
X119731717Y-86784303D01*
X119841381Y-86579136D01*
X119908912Y-86356516D01*
X119926000Y-86183016D01*
X119926000Y-85266985D01*
X119908912Y-85093485D01*
X119841381Y-84870864D01*
X119731717Y-84665697D01*
X119584134Y-84485866D01*
X119404303Y-84338283D01*
X119251000Y-84256341D01*
X119251000Y-83717845D01*
X119253447Y-83692999D01*
X119251000Y-83668153D01*
X119251000Y-83668146D01*
X119243678Y-83593807D01*
X119214745Y-83498425D01*
X119167759Y-83410521D01*
X119104527Y-83333473D01*
X119085220Y-83317628D01*
X114548376Y-78780785D01*
X114532527Y-78761473D01*
X114455479Y-78698241D01*
X114367575Y-78651255D01*
X114272193Y-78622322D01*
X114197854Y-78615000D01*
X114197846Y-78615000D01*
X114173000Y-78612553D01*
X114148154Y-78615000D01*
X95967592Y-78615000D01*
X92073000Y-74720409D01*
X92073000Y-74431135D01*
X92120311Y-74445487D01*
X92195000Y-74452843D01*
X92795000Y-74452843D01*
X92869689Y-74445487D01*
X92941508Y-74423701D01*
X92989000Y-74398315D01*
X92989000Y-75182154D01*
G37*
G04 #@! TD.AperFunction*
D22*
X95214307Y-80635678D02*
X95288646Y-80643000D01*
X95288653Y-80643000D01*
X95313499Y-80645447D01*
X95338345Y-80643000D01*
X112947409Y-80643000D01*
X115699001Y-83394593D01*
X115699001Y-84256341D01*
X115545698Y-84338283D01*
X115365867Y-84485866D01*
X115218284Y-84665697D01*
X115108619Y-84870864D01*
X115041088Y-85093484D01*
X115024000Y-85266984D01*
X115024000Y-86183015D01*
X115041088Y-86356515D01*
X115108619Y-86579135D01*
X115218283Y-86784302D01*
X115324000Y-86913120D01*
X115324001Y-87856814D01*
X115287658Y-87893157D01*
X115158412Y-88086587D01*
X115069386Y-88301515D01*
X115024000Y-88529682D01*
X115024000Y-88762318D01*
X115069386Y-88990485D01*
X115158412Y-89205413D01*
X115287658Y-89398843D01*
X115450815Y-89562000D01*
X114419185Y-89562000D01*
X114582342Y-89398843D01*
X114711588Y-89205413D01*
X114800614Y-88990485D01*
X114846000Y-88762318D01*
X114846000Y-88529682D01*
X114800614Y-88301515D01*
X114711588Y-88086587D01*
X114582342Y-87893157D01*
X114546000Y-87856815D01*
X114546000Y-86913120D01*
X114651717Y-86784303D01*
X114761381Y-86579136D01*
X114828912Y-86356516D01*
X114846000Y-86183016D01*
X114846000Y-85266985D01*
X114828912Y-85093485D01*
X114761381Y-84870864D01*
X114651717Y-84665697D01*
X114504134Y-84485866D01*
X114324303Y-84338283D01*
X114171000Y-84256341D01*
X114171000Y-83717845D01*
X114173447Y-83692999D01*
X114171000Y-83668153D01*
X114171000Y-83668146D01*
X114163678Y-83593807D01*
X114134745Y-83498425D01*
X114087759Y-83410521D01*
X114024527Y-83333473D01*
X114005220Y-83317628D01*
X111627376Y-80939785D01*
X111611527Y-80920473D01*
X111534479Y-80857241D01*
X111446575Y-80810255D01*
X111351193Y-80781322D01*
X111276854Y-80774000D01*
X111276846Y-80774000D01*
X111252000Y-80771553D01*
X111227154Y-80774000D01*
X95331181Y-80774000D01*
X95183520Y-80626339D01*
X95214307Y-80635678D01*
G04 #@! TA.AperFunction,Conductor*
D23*
G36*
X95214307Y-80635678D02*
G01*
X95288646Y-80643000D01*
X95288653Y-80643000D01*
X95313499Y-80645447D01*
X95338345Y-80643000D01*
X112947409Y-80643000D01*
X115699001Y-83394593D01*
X115699001Y-84256341D01*
X115545698Y-84338283D01*
X115365867Y-84485866D01*
X115218284Y-84665697D01*
X115108619Y-84870864D01*
X115041088Y-85093484D01*
X115024000Y-85266984D01*
X115024000Y-86183015D01*
X115041088Y-86356515D01*
X115108619Y-86579135D01*
X115218283Y-86784302D01*
X115324000Y-86913120D01*
X115324001Y-87856814D01*
X115287658Y-87893157D01*
X115158412Y-88086587D01*
X115069386Y-88301515D01*
X115024000Y-88529682D01*
X115024000Y-88762318D01*
X115069386Y-88990485D01*
X115158412Y-89205413D01*
X115287658Y-89398843D01*
X115450815Y-89562000D01*
X114419185Y-89562000D01*
X114582342Y-89398843D01*
X114711588Y-89205413D01*
X114800614Y-88990485D01*
X114846000Y-88762318D01*
X114846000Y-88529682D01*
X114800614Y-88301515D01*
X114711588Y-88086587D01*
X114582342Y-87893157D01*
X114546000Y-87856815D01*
X114546000Y-86913120D01*
X114651717Y-86784303D01*
X114761381Y-86579136D01*
X114828912Y-86356516D01*
X114846000Y-86183016D01*
X114846000Y-85266985D01*
X114828912Y-85093485D01*
X114761381Y-84870864D01*
X114651717Y-84665697D01*
X114504134Y-84485866D01*
X114324303Y-84338283D01*
X114171000Y-84256341D01*
X114171000Y-83717845D01*
X114173447Y-83692999D01*
X114171000Y-83668153D01*
X114171000Y-83668146D01*
X114163678Y-83593807D01*
X114134745Y-83498425D01*
X114087759Y-83410521D01*
X114024527Y-83333473D01*
X114005220Y-83317628D01*
X111627376Y-80939785D01*
X111611527Y-80920473D01*
X111534479Y-80857241D01*
X111446575Y-80810255D01*
X111351193Y-80781322D01*
X111276854Y-80774000D01*
X111276846Y-80774000D01*
X111252000Y-80771553D01*
X111227154Y-80774000D01*
X95331181Y-80774000D01*
X95183520Y-80626339D01*
X95214307Y-80635678D01*
G37*
G04 #@! TD.AperFunction*
D22*
X89025255Y-75847985D02*
X89072241Y-75935890D01*
X89135473Y-76012938D01*
X89154785Y-76028787D01*
X94746217Y-81620220D01*
X94762062Y-81639527D01*
X94839110Y-81702759D01*
X94927014Y-81749745D01*
X95000196Y-81771944D01*
X95022395Y-81778678D01*
X95032283Y-81779652D01*
X95096735Y-81786000D01*
X95096742Y-81786000D01*
X95121588Y-81788447D01*
X95146434Y-81786000D01*
X111042409Y-81786000D01*
X113159001Y-83902593D01*
X113159001Y-84256341D01*
X113005698Y-84338283D01*
X112825867Y-84485866D01*
X112678284Y-84665697D01*
X112568619Y-84870864D01*
X112501088Y-85093484D01*
X112484000Y-85266984D01*
X112484000Y-86183015D01*
X112501088Y-86356515D01*
X112568619Y-86579135D01*
X112678283Y-86784302D01*
X112784000Y-86913120D01*
X112784001Y-87856814D01*
X112747658Y-87893157D01*
X112618412Y-88086587D01*
X112529386Y-88301515D01*
X112484000Y-88529682D01*
X112484000Y-88762318D01*
X112529386Y-88990485D01*
X112618412Y-89205413D01*
X112747658Y-89398843D01*
X112910815Y-89562000D01*
X111879185Y-89562000D01*
X112042342Y-89398843D01*
X112171588Y-89205413D01*
X112260614Y-88990485D01*
X112306000Y-88762318D01*
X112306000Y-88529682D01*
X112260614Y-88301515D01*
X112171588Y-88086587D01*
X112042342Y-87893157D01*
X112006000Y-87856815D01*
X112006000Y-86913120D01*
X112111717Y-86784303D01*
X112221381Y-86579136D01*
X112288912Y-86356516D01*
X112306000Y-86183016D01*
X112306000Y-85266985D01*
X112288912Y-85093485D01*
X112221381Y-84870864D01*
X112111717Y-84665697D01*
X111964134Y-84485866D01*
X111784303Y-84338283D01*
X111631000Y-84256341D01*
X111631000Y-83717845D01*
X111633447Y-83692999D01*
X111631000Y-83668153D01*
X111631000Y-83668146D01*
X111623678Y-83593807D01*
X111594745Y-83498425D01*
X111547759Y-83410521D01*
X111484527Y-83333473D01*
X111465220Y-83317628D01*
X110103376Y-81955785D01*
X110087527Y-81936473D01*
X110010479Y-81873241D01*
X109922575Y-81826255D01*
X109827193Y-81797322D01*
X109752854Y-81790000D01*
X109752846Y-81790000D01*
X109728000Y-81787553D01*
X109703154Y-81790000D01*
X94570592Y-81790000D01*
X89001000Y-76220409D01*
X89001000Y-75768025D01*
X89025255Y-75847985D01*
G04 #@! TA.AperFunction,Conductor*
D23*
G36*
X89025255Y-75847985D02*
G01*
X89072241Y-75935890D01*
X89135473Y-76012938D01*
X89154785Y-76028787D01*
X94746217Y-81620220D01*
X94762062Y-81639527D01*
X94839110Y-81702759D01*
X94927014Y-81749745D01*
X95000196Y-81771944D01*
X95022395Y-81778678D01*
X95032283Y-81779652D01*
X95096735Y-81786000D01*
X95096742Y-81786000D01*
X95121588Y-81788447D01*
X95146434Y-81786000D01*
X111042409Y-81786000D01*
X113159001Y-83902593D01*
X113159001Y-84256341D01*
X113005698Y-84338283D01*
X112825867Y-84485866D01*
X112678284Y-84665697D01*
X112568619Y-84870864D01*
X112501088Y-85093484D01*
X112484000Y-85266984D01*
X112484000Y-86183015D01*
X112501088Y-86356515D01*
X112568619Y-86579135D01*
X112678283Y-86784302D01*
X112784000Y-86913120D01*
X112784001Y-87856814D01*
X112747658Y-87893157D01*
X112618412Y-88086587D01*
X112529386Y-88301515D01*
X112484000Y-88529682D01*
X112484000Y-88762318D01*
X112529386Y-88990485D01*
X112618412Y-89205413D01*
X112747658Y-89398843D01*
X112910815Y-89562000D01*
X111879185Y-89562000D01*
X112042342Y-89398843D01*
X112171588Y-89205413D01*
X112260614Y-88990485D01*
X112306000Y-88762318D01*
X112306000Y-88529682D01*
X112260614Y-88301515D01*
X112171588Y-88086587D01*
X112042342Y-87893157D01*
X112006000Y-87856815D01*
X112006000Y-86913120D01*
X112111717Y-86784303D01*
X112221381Y-86579136D01*
X112288912Y-86356516D01*
X112306000Y-86183016D01*
X112306000Y-85266985D01*
X112288912Y-85093485D01*
X112221381Y-84870864D01*
X112111717Y-84665697D01*
X111964134Y-84485866D01*
X111784303Y-84338283D01*
X111631000Y-84256341D01*
X111631000Y-83717845D01*
X111633447Y-83692999D01*
X111631000Y-83668153D01*
X111631000Y-83668146D01*
X111623678Y-83593807D01*
X111594745Y-83498425D01*
X111547759Y-83410521D01*
X111484527Y-83333473D01*
X111465220Y-83317628D01*
X110103376Y-81955785D01*
X110087527Y-81936473D01*
X110010479Y-81873241D01*
X109922575Y-81826255D01*
X109827193Y-81797322D01*
X109752854Y-81790000D01*
X109752846Y-81790000D01*
X109728000Y-81787553D01*
X109703154Y-81790000D01*
X94570592Y-81790000D01*
X89001000Y-76220409D01*
X89001000Y-75768025D01*
X89025255Y-75847985D01*
G37*
G04 #@! TD.AperFunction*
D22*
X110619001Y-83902593D02*
X110619001Y-84256341D01*
X110465698Y-84338283D01*
X110285867Y-84485866D01*
X110138284Y-84665697D01*
X110028619Y-84870864D01*
X109961088Y-85093484D01*
X109944000Y-85266984D01*
X109944000Y-86183015D01*
X109961088Y-86356515D01*
X110028619Y-86579135D01*
X110138283Y-86784302D01*
X110244000Y-86913120D01*
X110244001Y-87856814D01*
X110207658Y-87893157D01*
X110078412Y-88086587D01*
X109989386Y-88301515D01*
X109944000Y-88529682D01*
X109944000Y-88762318D01*
X109989386Y-88990485D01*
X110078412Y-89205413D01*
X110207658Y-89398843D01*
X110370815Y-89562000D01*
X109339185Y-89562000D01*
X109502342Y-89398843D01*
X109631588Y-89205413D01*
X109720614Y-88990485D01*
X109766000Y-88762318D01*
X109766000Y-88529682D01*
X109720614Y-88301515D01*
X109631588Y-88086587D01*
X109502342Y-87893157D01*
X109466000Y-87856815D01*
X109466000Y-86913120D01*
X109571717Y-86784303D01*
X109681381Y-86579136D01*
X109748912Y-86356516D01*
X109766000Y-86183016D01*
X109766000Y-85266985D01*
X109748912Y-85093485D01*
X109681381Y-84870864D01*
X109571717Y-84665697D01*
X109424134Y-84485866D01*
X109244303Y-84338283D01*
X109091000Y-84256341D01*
X109091000Y-83844854D01*
X109093448Y-83820000D01*
X109083678Y-83720807D01*
X109054745Y-83625425D01*
X109038203Y-83594478D01*
X109007759Y-83537521D01*
X108944527Y-83460473D01*
X108925220Y-83444628D01*
X108282591Y-82802000D01*
X109518409Y-82802000D01*
X110619001Y-83902593D01*
G04 #@! TA.AperFunction,Conductor*
D23*
G36*
X110619001Y-83902593D02*
G01*
X110619001Y-84256341D01*
X110465698Y-84338283D01*
X110285867Y-84485866D01*
X110138284Y-84665697D01*
X110028619Y-84870864D01*
X109961088Y-85093484D01*
X109944000Y-85266984D01*
X109944000Y-86183015D01*
X109961088Y-86356515D01*
X110028619Y-86579135D01*
X110138283Y-86784302D01*
X110244000Y-86913120D01*
X110244001Y-87856814D01*
X110207658Y-87893157D01*
X110078412Y-88086587D01*
X109989386Y-88301515D01*
X109944000Y-88529682D01*
X109944000Y-88762318D01*
X109989386Y-88990485D01*
X110078412Y-89205413D01*
X110207658Y-89398843D01*
X110370815Y-89562000D01*
X109339185Y-89562000D01*
X109502342Y-89398843D01*
X109631588Y-89205413D01*
X109720614Y-88990485D01*
X109766000Y-88762318D01*
X109766000Y-88529682D01*
X109720614Y-88301515D01*
X109631588Y-88086587D01*
X109502342Y-87893157D01*
X109466000Y-87856815D01*
X109466000Y-86913120D01*
X109571717Y-86784303D01*
X109681381Y-86579136D01*
X109748912Y-86356516D01*
X109766000Y-86183016D01*
X109766000Y-85266985D01*
X109748912Y-85093485D01*
X109681381Y-84870864D01*
X109571717Y-84665697D01*
X109424134Y-84485866D01*
X109244303Y-84338283D01*
X109091000Y-84256341D01*
X109091000Y-83844854D01*
X109093448Y-83820000D01*
X109083678Y-83720807D01*
X109054745Y-83625425D01*
X109038203Y-83594478D01*
X109007759Y-83537521D01*
X108944527Y-83460473D01*
X108925220Y-83444628D01*
X108282591Y-82802000D01*
X109518409Y-82802000D01*
X110619001Y-83902593D01*
G37*
G04 #@! TD.AperFunction*
D22*
X91048492Y-74423701D02*
X91061000Y-74427495D01*
X91061000Y-74905153D01*
X91058553Y-74930000D01*
X91061000Y-74954846D01*
X91061000Y-74954853D01*
X91068322Y-75029192D01*
X91097255Y-75124574D01*
X91144241Y-75212479D01*
X91207473Y-75289527D01*
X91226785Y-75305376D01*
X95382628Y-79461220D01*
X95398473Y-79480527D01*
X95475521Y-79543759D01*
X95563425Y-79590745D01*
X95658807Y-79619678D01*
X95733146Y-79627000D01*
X95733153Y-79627000D01*
X95757999Y-79629447D01*
X95782845Y-79627000D01*
X113963409Y-79627000D01*
X118239001Y-83902593D01*
X118239001Y-84256341D01*
X118085698Y-84338283D01*
X117905867Y-84485866D01*
X117758284Y-84665697D01*
X117648619Y-84870864D01*
X117581088Y-85093484D01*
X117564000Y-85266984D01*
X117564000Y-86183015D01*
X117581088Y-86356515D01*
X117648619Y-86579135D01*
X117758283Y-86784302D01*
X117864000Y-86913120D01*
X117864001Y-87856814D01*
X117827658Y-87893157D01*
X117698412Y-88086587D01*
X117609386Y-88301515D01*
X117564000Y-88529682D01*
X117564000Y-88762318D01*
X117609386Y-88990485D01*
X117698412Y-89205413D01*
X117827658Y-89398843D01*
X117990815Y-89562000D01*
X116959185Y-89562000D01*
X117122342Y-89398843D01*
X117251588Y-89205413D01*
X117340614Y-88990485D01*
X117386000Y-88762318D01*
X117386000Y-88529682D01*
X117340614Y-88301515D01*
X117251588Y-88086587D01*
X117122342Y-87893157D01*
X117086000Y-87856815D01*
X117086000Y-86913120D01*
X117191717Y-86784303D01*
X117301381Y-86579136D01*
X117368912Y-86356516D01*
X117386000Y-86183016D01*
X117386000Y-85266985D01*
X117368912Y-85093485D01*
X117301381Y-84870864D01*
X117191717Y-84665697D01*
X117044134Y-84485866D01*
X116864303Y-84338283D01*
X116711000Y-84256341D01*
X116711000Y-83209854D01*
X116713448Y-83185000D01*
X116703678Y-83085807D01*
X116674745Y-82990425D01*
X116657845Y-82958808D01*
X116627759Y-82902521D01*
X116564527Y-82825473D01*
X116545220Y-82809628D01*
X113532376Y-79796785D01*
X113516527Y-79777473D01*
X113439479Y-79714241D01*
X113351575Y-79667255D01*
X113256193Y-79638322D01*
X113181854Y-79631000D01*
X113181846Y-79631000D01*
X113157000Y-79628553D01*
X113132154Y-79631000D01*
X95523092Y-79631000D01*
X91001000Y-75108909D01*
X91001000Y-74398315D01*
X91048492Y-74423701D01*
G04 #@! TA.AperFunction,Conductor*
D23*
G36*
X91048492Y-74423701D02*
G01*
X91061000Y-74427495D01*
X91061000Y-74905153D01*
X91058553Y-74930000D01*
X91061000Y-74954846D01*
X91061000Y-74954853D01*
X91068322Y-75029192D01*
X91097255Y-75124574D01*
X91144241Y-75212479D01*
X91207473Y-75289527D01*
X91226785Y-75305376D01*
X95382628Y-79461220D01*
X95398473Y-79480527D01*
X95475521Y-79543759D01*
X95563425Y-79590745D01*
X95658807Y-79619678D01*
X95733146Y-79627000D01*
X95733153Y-79627000D01*
X95757999Y-79629447D01*
X95782845Y-79627000D01*
X113963409Y-79627000D01*
X118239001Y-83902593D01*
X118239001Y-84256341D01*
X118085698Y-84338283D01*
X117905867Y-84485866D01*
X117758284Y-84665697D01*
X117648619Y-84870864D01*
X117581088Y-85093484D01*
X117564000Y-85266984D01*
X117564000Y-86183015D01*
X117581088Y-86356515D01*
X117648619Y-86579135D01*
X117758283Y-86784302D01*
X117864000Y-86913120D01*
X117864001Y-87856814D01*
X117827658Y-87893157D01*
X117698412Y-88086587D01*
X117609386Y-88301515D01*
X117564000Y-88529682D01*
X117564000Y-88762318D01*
X117609386Y-88990485D01*
X117698412Y-89205413D01*
X117827658Y-89398843D01*
X117990815Y-89562000D01*
X116959185Y-89562000D01*
X117122342Y-89398843D01*
X117251588Y-89205413D01*
X117340614Y-88990485D01*
X117386000Y-88762318D01*
X117386000Y-88529682D01*
X117340614Y-88301515D01*
X117251588Y-88086587D01*
X117122342Y-87893157D01*
X117086000Y-87856815D01*
X117086000Y-86913120D01*
X117191717Y-86784303D01*
X117301381Y-86579136D01*
X117368912Y-86356516D01*
X117386000Y-86183016D01*
X117386000Y-85266985D01*
X117368912Y-85093485D01*
X117301381Y-84870864D01*
X117191717Y-84665697D01*
X117044134Y-84485866D01*
X116864303Y-84338283D01*
X116711000Y-84256341D01*
X116711000Y-83209854D01*
X116713448Y-83185000D01*
X116703678Y-83085807D01*
X116674745Y-82990425D01*
X116657845Y-82958808D01*
X116627759Y-82902521D01*
X116564527Y-82825473D01*
X116545220Y-82809628D01*
X113532376Y-79796785D01*
X113516527Y-79777473D01*
X113439479Y-79714241D01*
X113351575Y-79667255D01*
X113256193Y-79638322D01*
X113181854Y-79631000D01*
X113181846Y-79631000D01*
X113157000Y-79628553D01*
X113132154Y-79631000D01*
X95523092Y-79631000D01*
X91001000Y-75108909D01*
X91001000Y-74398315D01*
X91048492Y-74423701D01*
G37*
G04 #@! TD.AperFunction*
D22*
X77727259Y-68522270D02*
X77724000Y-68572000D01*
X77724000Y-74303000D01*
X77727259Y-74352730D01*
X77744296Y-74482140D01*
X77770039Y-74578212D01*
X77819989Y-74698802D01*
X77869721Y-74784940D01*
X77949181Y-74888493D01*
X78019507Y-74958819D01*
X78123060Y-75038279D01*
X78209198Y-75088011D01*
X78329788Y-75137961D01*
X78425860Y-75163704D01*
X78555270Y-75180741D01*
X78605000Y-75184000D01*
X79510000Y-75184000D01*
X79559730Y-75180741D01*
X79689140Y-75163704D01*
X79785212Y-75137961D01*
X79905802Y-75088011D01*
X79989000Y-75039976D01*
X79989001Y-82736504D01*
X79911364Y-82814141D01*
X79825893Y-82942058D01*
X79767019Y-83084191D01*
X79737006Y-83235078D01*
X79737006Y-83388922D01*
X79767019Y-83539809D01*
X79825893Y-83681942D01*
X79911364Y-83809859D01*
X80020147Y-83918642D01*
X80148064Y-84004113D01*
X80290197Y-84062987D01*
X80441084Y-84093000D01*
X80594928Y-84093000D01*
X80745815Y-84062987D01*
X80887948Y-84004113D01*
X81015865Y-83918642D01*
X81124648Y-83809859D01*
X81210119Y-83681942D01*
X81268993Y-83539809D01*
X81299006Y-83388922D01*
X81299006Y-83235078D01*
X81268993Y-83084191D01*
X81210119Y-82942058D01*
X81124648Y-82814141D01*
X81015865Y-82705358D01*
X81001000Y-82695426D01*
X81001000Y-82359501D01*
X81036141Y-82394642D01*
X81164058Y-82480113D01*
X81306191Y-82538987D01*
X81457078Y-82569000D01*
X81610922Y-82569000D01*
X81761809Y-82538987D01*
X81903942Y-82480113D01*
X82031859Y-82394642D01*
X82140642Y-82285859D01*
X82226113Y-82157942D01*
X82284987Y-82015809D01*
X82315000Y-81864922D01*
X82315000Y-81711078D01*
X82284987Y-81560191D01*
X82226113Y-81418058D01*
X82165547Y-81327415D01*
X82180062Y-81337113D01*
X82322195Y-81395987D01*
X82473082Y-81426000D01*
X82626926Y-81426000D01*
X82777813Y-81395987D01*
X82919946Y-81337113D01*
X83047863Y-81251642D01*
X83156646Y-81142859D01*
X83242117Y-81014942D01*
X83300991Y-80872809D01*
X83331004Y-80721922D01*
X83331004Y-80568078D01*
X83300991Y-80417191D01*
X83242117Y-80275058D01*
X83156646Y-80147141D01*
X83047863Y-80038358D01*
X83001000Y-80007045D01*
X83001000Y-79660501D01*
X83068141Y-79727642D01*
X83196058Y-79813113D01*
X83338191Y-79871987D01*
X83489078Y-79902000D01*
X83642922Y-79902000D01*
X83793809Y-79871987D01*
X83935942Y-79813113D01*
X84063859Y-79727642D01*
X84172642Y-79618859D01*
X84258113Y-79490942D01*
X84316987Y-79348809D01*
X84347000Y-79197922D01*
X84347000Y-79044078D01*
X84316987Y-78893191D01*
X84258113Y-78751058D01*
X84172642Y-78623141D01*
X84063859Y-78514358D01*
X84001000Y-78472357D01*
X84001000Y-78359948D01*
X84085058Y-78416113D01*
X84227191Y-78474987D01*
X84378078Y-78505000D01*
X84531922Y-78505000D01*
X84682809Y-78474987D01*
X84824942Y-78416113D01*
X84952859Y-78330642D01*
X85061642Y-78221859D01*
X85092000Y-78176424D01*
X85092000Y-81128154D01*
X85089553Y-81153000D01*
X85092000Y-81177846D01*
X85092000Y-81177853D01*
X85099322Y-81252192D01*
X85128255Y-81347574D01*
X85175241Y-81435479D01*
X85238473Y-81512527D01*
X85257785Y-81528376D01*
X88465408Y-84736000D01*
X75461520Y-84736000D01*
X75309865Y-84721130D01*
X75186612Y-84683918D01*
X75072933Y-84623474D01*
X74973155Y-84542097D01*
X74891090Y-84442897D01*
X74829852Y-84329640D01*
X74791780Y-84206648D01*
X74776000Y-84056508D01*
X74776000Y-69111520D01*
X74790870Y-68959865D01*
X74828082Y-68836612D01*
X74888526Y-68722932D01*
X74969899Y-68623159D01*
X75069105Y-68541089D01*
X75182357Y-68479853D01*
X75305352Y-68441780D01*
X75455492Y-68426000D01*
X77739933Y-68426000D01*
X77727259Y-68522270D01*
G04 #@! TA.AperFunction,Conductor*
D23*
G36*
X77727259Y-68522270D02*
G01*
X77724000Y-68572000D01*
X77724000Y-74303000D01*
X77727259Y-74352730D01*
X77744296Y-74482140D01*
X77770039Y-74578212D01*
X77819989Y-74698802D01*
X77869721Y-74784940D01*
X77949181Y-74888493D01*
X78019507Y-74958819D01*
X78123060Y-75038279D01*
X78209198Y-75088011D01*
X78329788Y-75137961D01*
X78425860Y-75163704D01*
X78555270Y-75180741D01*
X78605000Y-75184000D01*
X79510000Y-75184000D01*
X79559730Y-75180741D01*
X79689140Y-75163704D01*
X79785212Y-75137961D01*
X79905802Y-75088011D01*
X79989000Y-75039976D01*
X79989001Y-82736504D01*
X79911364Y-82814141D01*
X79825893Y-82942058D01*
X79767019Y-83084191D01*
X79737006Y-83235078D01*
X79737006Y-83388922D01*
X79767019Y-83539809D01*
X79825893Y-83681942D01*
X79911364Y-83809859D01*
X80020147Y-83918642D01*
X80148064Y-84004113D01*
X80290197Y-84062987D01*
X80441084Y-84093000D01*
X80594928Y-84093000D01*
X80745815Y-84062987D01*
X80887948Y-84004113D01*
X81015865Y-83918642D01*
X81124648Y-83809859D01*
X81210119Y-83681942D01*
X81268993Y-83539809D01*
X81299006Y-83388922D01*
X81299006Y-83235078D01*
X81268993Y-83084191D01*
X81210119Y-82942058D01*
X81124648Y-82814141D01*
X81015865Y-82705358D01*
X81001000Y-82695426D01*
X81001000Y-82359501D01*
X81036141Y-82394642D01*
X81164058Y-82480113D01*
X81306191Y-82538987D01*
X81457078Y-82569000D01*
X81610922Y-82569000D01*
X81761809Y-82538987D01*
X81903942Y-82480113D01*
X82031859Y-82394642D01*
X82140642Y-82285859D01*
X82226113Y-82157942D01*
X82284987Y-82015809D01*
X82315000Y-81864922D01*
X82315000Y-81711078D01*
X82284987Y-81560191D01*
X82226113Y-81418058D01*
X82165547Y-81327415D01*
X82180062Y-81337113D01*
X82322195Y-81395987D01*
X82473082Y-81426000D01*
X82626926Y-81426000D01*
X82777813Y-81395987D01*
X82919946Y-81337113D01*
X83047863Y-81251642D01*
X83156646Y-81142859D01*
X83242117Y-81014942D01*
X83300991Y-80872809D01*
X83331004Y-80721922D01*
X83331004Y-80568078D01*
X83300991Y-80417191D01*
X83242117Y-80275058D01*
X83156646Y-80147141D01*
X83047863Y-80038358D01*
X83001000Y-80007045D01*
X83001000Y-79660501D01*
X83068141Y-79727642D01*
X83196058Y-79813113D01*
X83338191Y-79871987D01*
X83489078Y-79902000D01*
X83642922Y-79902000D01*
X83793809Y-79871987D01*
X83935942Y-79813113D01*
X84063859Y-79727642D01*
X84172642Y-79618859D01*
X84258113Y-79490942D01*
X84316987Y-79348809D01*
X84347000Y-79197922D01*
X84347000Y-79044078D01*
X84316987Y-78893191D01*
X84258113Y-78751058D01*
X84172642Y-78623141D01*
X84063859Y-78514358D01*
X84001000Y-78472357D01*
X84001000Y-78359948D01*
X84085058Y-78416113D01*
X84227191Y-78474987D01*
X84378078Y-78505000D01*
X84531922Y-78505000D01*
X84682809Y-78474987D01*
X84824942Y-78416113D01*
X84952859Y-78330642D01*
X85061642Y-78221859D01*
X85092000Y-78176424D01*
X85092000Y-81128154D01*
X85089553Y-81153000D01*
X85092000Y-81177846D01*
X85092000Y-81177853D01*
X85099322Y-81252192D01*
X85128255Y-81347574D01*
X85175241Y-81435479D01*
X85238473Y-81512527D01*
X85257785Y-81528376D01*
X88465408Y-84736000D01*
X75461520Y-84736000D01*
X75309865Y-84721130D01*
X75186612Y-84683918D01*
X75072933Y-84623474D01*
X74973155Y-84542097D01*
X74891090Y-84442897D01*
X74829852Y-84329640D01*
X74791780Y-84206648D01*
X74776000Y-84056508D01*
X74776000Y-69111520D01*
X74790870Y-68959865D01*
X74828082Y-68836612D01*
X74888526Y-68722932D01*
X74969899Y-68623159D01*
X75069105Y-68541089D01*
X75182357Y-68479853D01*
X75305352Y-68441780D01*
X75455492Y-68426000D01*
X77739933Y-68426000D01*
X77727259Y-68522270D01*
G37*
G04 #@! TD.AperFunction*
D22*
X86135473Y-79234527D02*
X86154785Y-79250376D01*
X90980408Y-84076000D01*
X89236592Y-84076000D01*
X86104000Y-80943409D01*
X86104000Y-79196177D01*
X86135473Y-79234527D01*
G04 #@! TA.AperFunction,Conductor*
D23*
G36*
X86135473Y-79234527D02*
G01*
X86154785Y-79250376D01*
X90980408Y-84076000D01*
X89236592Y-84076000D01*
X86104000Y-80943409D01*
X86104000Y-79196177D01*
X86135473Y-79234527D01*
G37*
G04 #@! TD.AperFunction*
D22*
X87025255Y-77529574D02*
X87072241Y-77617479D01*
X87135473Y-77694527D01*
X87154785Y-77710376D01*
X92758408Y-83314000D01*
X91649592Y-83314000D01*
X87001000Y-78665409D01*
X87001000Y-77449614D01*
X87025255Y-77529574D01*
G04 #@! TA.AperFunction,Conductor*
D23*
G36*
X87025255Y-77529574D02*
G01*
X87072241Y-77617479D01*
X87135473Y-77694527D01*
X87154785Y-77710376D01*
X92758408Y-83314000D01*
X91649592Y-83314000D01*
X87001000Y-78665409D01*
X87001000Y-77449614D01*
X87025255Y-77529574D01*
G37*
G04 #@! TD.AperFunction*
D22*
X158406157Y-63980274D02*
X158406157Y-65287252D01*
X157774785Y-65918624D01*
X157755473Y-65934473D01*
X157692241Y-66011521D01*
X157645255Y-66099426D01*
X157616322Y-66194808D01*
X157609000Y-66269147D01*
X157609000Y-66269154D01*
X157606553Y-66294000D01*
X157609000Y-66318846D01*
X157609000Y-69184206D01*
X157504303Y-69098283D01*
X157299136Y-68988619D01*
X157076516Y-68921088D01*
X156845000Y-68898286D01*
X156613485Y-68921088D01*
X156390865Y-68988619D01*
X156185698Y-69098283D01*
X156005867Y-69245866D01*
X155858284Y-69425697D01*
X155748619Y-69630864D01*
X155681088Y-69853484D01*
X155664000Y-70026984D01*
X155664000Y-70943015D01*
X155681088Y-71116515D01*
X155748619Y-71339135D01*
X155858283Y-71544302D01*
X155964000Y-71673120D01*
X155964001Y-72616814D01*
X155927658Y-72653157D01*
X155798412Y-72846587D01*
X155709386Y-73061515D01*
X155664000Y-73289682D01*
X155664000Y-73522318D01*
X155709386Y-73750485D01*
X155798412Y-73965413D01*
X155927658Y-74158843D01*
X156092157Y-74323342D01*
X156285587Y-74452588D01*
X156500515Y-74541614D01*
X156728682Y-74587000D01*
X156961318Y-74587000D01*
X157189485Y-74541614D01*
X157343653Y-74477756D01*
X157143409Y-74678000D01*
X117944253Y-74678000D01*
X117962704Y-74609140D01*
X117979741Y-74479730D01*
X117983000Y-74430000D01*
X117983000Y-74314185D01*
X117992157Y-74323342D01*
X118185587Y-74452588D01*
X118400515Y-74541614D01*
X118628682Y-74587000D01*
X118861318Y-74587000D01*
X119089485Y-74541614D01*
X119304413Y-74452588D01*
X119497843Y-74323342D01*
X119662342Y-74158843D01*
X119791588Y-73965413D01*
X119880614Y-73750485D01*
X119926000Y-73522318D01*
X119926000Y-73289682D01*
X119880614Y-73061515D01*
X119791588Y-72846587D01*
X119662342Y-72653157D01*
X119626000Y-72616815D01*
X119626000Y-71673120D01*
X119731717Y-71544303D01*
X119841381Y-71339136D01*
X119908912Y-71116516D01*
X119926000Y-70943016D01*
X119926000Y-70026985D01*
X119926000Y-70026984D01*
X120104000Y-70026984D01*
X120104000Y-70943015D01*
X120121088Y-71116515D01*
X120188619Y-71339135D01*
X120298283Y-71544302D01*
X120404000Y-71673120D01*
X120404001Y-72616814D01*
X120367658Y-72653157D01*
X120238412Y-72846587D01*
X120149386Y-73061515D01*
X120104000Y-73289682D01*
X120104000Y-73522318D01*
X120149386Y-73750485D01*
X120238412Y-73965413D01*
X120367658Y-74158843D01*
X120532157Y-74323342D01*
X120725587Y-74452588D01*
X120940515Y-74541614D01*
X121168682Y-74587000D01*
X121401318Y-74587000D01*
X121629485Y-74541614D01*
X121844413Y-74452588D01*
X122037843Y-74323342D01*
X122202342Y-74158843D01*
X122331588Y-73965413D01*
X122420614Y-73750485D01*
X122466000Y-73522318D01*
X122466000Y-73289682D01*
X122420614Y-73061515D01*
X122331588Y-72846587D01*
X122202342Y-72653157D01*
X122166000Y-72616815D01*
X122166000Y-71673120D01*
X122271717Y-71544303D01*
X122381381Y-71339136D01*
X122448912Y-71116516D01*
X122466000Y-70943016D01*
X122466000Y-70026985D01*
X122466000Y-70026984D01*
X122644000Y-70026984D01*
X122644000Y-70943015D01*
X122661088Y-71116515D01*
X122728619Y-71339135D01*
X122838283Y-71544302D01*
X122944000Y-71673120D01*
X122944001Y-72616814D01*
X122907658Y-72653157D01*
X122778412Y-72846587D01*
X122689386Y-73061515D01*
X122644000Y-73289682D01*
X122644000Y-73522318D01*
X122689386Y-73750485D01*
X122778412Y-73965413D01*
X122907658Y-74158843D01*
X123072157Y-74323342D01*
X123265587Y-74452588D01*
X123480515Y-74541614D01*
X123708682Y-74587000D01*
X123941318Y-74587000D01*
X124169485Y-74541614D01*
X124384413Y-74452588D01*
X124577843Y-74323342D01*
X124742342Y-74158843D01*
X124871588Y-73965413D01*
X124960614Y-73750485D01*
X125006000Y-73522318D01*
X125006000Y-73289682D01*
X124960614Y-73061515D01*
X124871588Y-72846587D01*
X124742342Y-72653157D01*
X124706000Y-72616815D01*
X124706000Y-71673120D01*
X124811717Y-71544303D01*
X124921381Y-71339136D01*
X124988912Y-71116516D01*
X125006000Y-70943016D01*
X125006000Y-70026985D01*
X125006000Y-70026984D01*
X125184000Y-70026984D01*
X125184000Y-70943015D01*
X125201088Y-71116515D01*
X125268619Y-71339135D01*
X125378283Y-71544302D01*
X125484000Y-71673120D01*
X125484001Y-72616814D01*
X125447658Y-72653157D01*
X125318412Y-72846587D01*
X125229386Y-73061515D01*
X125184000Y-73289682D01*
X125184000Y-73522318D01*
X125229386Y-73750485D01*
X125318412Y-73965413D01*
X125447658Y-74158843D01*
X125612157Y-74323342D01*
X125805587Y-74452588D01*
X126020515Y-74541614D01*
X126248682Y-74587000D01*
X126481318Y-74587000D01*
X126709485Y-74541614D01*
X126924413Y-74452588D01*
X127117843Y-74323342D01*
X127282342Y-74158843D01*
X127411588Y-73965413D01*
X127500614Y-73750485D01*
X127546000Y-73522318D01*
X127546000Y-73289682D01*
X127500614Y-73061515D01*
X127411588Y-72846587D01*
X127282342Y-72653157D01*
X127246000Y-72616815D01*
X127246000Y-71673120D01*
X127351717Y-71544303D01*
X127461381Y-71339136D01*
X127528912Y-71116516D01*
X127546000Y-70943016D01*
X127546000Y-70026985D01*
X127546000Y-70026984D01*
X127724000Y-70026984D01*
X127724000Y-70943015D01*
X127741088Y-71116515D01*
X127808619Y-71339135D01*
X127918283Y-71544302D01*
X128024000Y-71673120D01*
X128024001Y-72616814D01*
X127987658Y-72653157D01*
X127858412Y-72846587D01*
X127769386Y-73061515D01*
X127724000Y-73289682D01*
X127724000Y-73522318D01*
X127769386Y-73750485D01*
X127858412Y-73965413D01*
X127987658Y-74158843D01*
X128152157Y-74323342D01*
X128345587Y-74452588D01*
X128560515Y-74541614D01*
X128788682Y-74587000D01*
X129021318Y-74587000D01*
X129249485Y-74541614D01*
X129464413Y-74452588D01*
X129657843Y-74323342D01*
X129822342Y-74158843D01*
X129951588Y-73965413D01*
X130040614Y-73750485D01*
X130086000Y-73522318D01*
X130086000Y-73289682D01*
X130040614Y-73061515D01*
X129951588Y-72846587D01*
X129822342Y-72653157D01*
X129786000Y-72616815D01*
X129786000Y-71673120D01*
X129891717Y-71544303D01*
X130001381Y-71339136D01*
X130068912Y-71116516D01*
X130086000Y-70943016D01*
X130086000Y-70026985D01*
X130086000Y-70026984D01*
X130264000Y-70026984D01*
X130264000Y-70943015D01*
X130281088Y-71116515D01*
X130348619Y-71339135D01*
X130458283Y-71544302D01*
X130564000Y-71673120D01*
X130564001Y-72616814D01*
X130527658Y-72653157D01*
X130398412Y-72846587D01*
X130309386Y-73061515D01*
X130264000Y-73289682D01*
X130264000Y-73522318D01*
X130309386Y-73750485D01*
X130398412Y-73965413D01*
X130527658Y-74158843D01*
X130692157Y-74323342D01*
X130885587Y-74452588D01*
X131100515Y-74541614D01*
X131328682Y-74587000D01*
X131561318Y-74587000D01*
X131789485Y-74541614D01*
X132004413Y-74452588D01*
X132197843Y-74323342D01*
X132362342Y-74158843D01*
X132491588Y-73965413D01*
X132580614Y-73750485D01*
X132626000Y-73522318D01*
X132626000Y-73289682D01*
X132580614Y-73061515D01*
X132491588Y-72846587D01*
X132362342Y-72653157D01*
X132326000Y-72616815D01*
X132326000Y-71673120D01*
X132431717Y-71544303D01*
X132541381Y-71339136D01*
X132608912Y-71116516D01*
X132626000Y-70943016D01*
X132626000Y-70026985D01*
X132626000Y-70026984D01*
X132804000Y-70026984D01*
X132804000Y-70943015D01*
X132821088Y-71116515D01*
X132888619Y-71339135D01*
X132998283Y-71544302D01*
X133104000Y-71673120D01*
X133104001Y-72616814D01*
X133067658Y-72653157D01*
X132938412Y-72846587D01*
X132849386Y-73061515D01*
X132804000Y-73289682D01*
X132804000Y-73522318D01*
X132849386Y-73750485D01*
X132938412Y-73965413D01*
X133067658Y-74158843D01*
X133232157Y-74323342D01*
X133425587Y-74452588D01*
X133640515Y-74541614D01*
X133868682Y-74587000D01*
X134101318Y-74587000D01*
X134329485Y-74541614D01*
X134544413Y-74452588D01*
X134737843Y-74323342D01*
X134902342Y-74158843D01*
X135031588Y-73965413D01*
X135120614Y-73750485D01*
X135166000Y-73522318D01*
X135166000Y-73289682D01*
X135120614Y-73061515D01*
X135031588Y-72846587D01*
X134902342Y-72653157D01*
X134866000Y-72616815D01*
X134866000Y-71673120D01*
X134971717Y-71544303D01*
X135081381Y-71339136D01*
X135148912Y-71116516D01*
X135166000Y-70943016D01*
X135166000Y-70026985D01*
X135166000Y-70026984D01*
X135344000Y-70026984D01*
X135344000Y-70943015D01*
X135361088Y-71116515D01*
X135428619Y-71339135D01*
X135538283Y-71544302D01*
X135644000Y-71673120D01*
X135644001Y-72616814D01*
X135607658Y-72653157D01*
X135478412Y-72846587D01*
X135389386Y-73061515D01*
X135344000Y-73289682D01*
X135344000Y-73522318D01*
X135389386Y-73750485D01*
X135478412Y-73965413D01*
X135607658Y-74158843D01*
X135772157Y-74323342D01*
X135965587Y-74452588D01*
X136180515Y-74541614D01*
X136408682Y-74587000D01*
X136641318Y-74587000D01*
X136869485Y-74541614D01*
X137084413Y-74452588D01*
X137277843Y-74323342D01*
X137442342Y-74158843D01*
X137571588Y-73965413D01*
X137660614Y-73750485D01*
X137706000Y-73522318D01*
X137706000Y-73289682D01*
X137660614Y-73061515D01*
X137571588Y-72846587D01*
X137442342Y-72653157D01*
X137406000Y-72616815D01*
X137406000Y-71673120D01*
X137511717Y-71544303D01*
X137621381Y-71339136D01*
X137688912Y-71116516D01*
X137706000Y-70943016D01*
X137706000Y-70026985D01*
X137706000Y-70026984D01*
X137884000Y-70026984D01*
X137884000Y-70943015D01*
X137901088Y-71116515D01*
X137968619Y-71339135D01*
X138078283Y-71544302D01*
X138184000Y-71673120D01*
X138184001Y-72616814D01*
X138147658Y-72653157D01*
X138018412Y-72846587D01*
X137929386Y-73061515D01*
X137884000Y-73289682D01*
X137884000Y-73522318D01*
X137929386Y-73750485D01*
X138018412Y-73965413D01*
X138147658Y-74158843D01*
X138312157Y-74323342D01*
X138505587Y-74452588D01*
X138720515Y-74541614D01*
X138948682Y-74587000D01*
X139181318Y-74587000D01*
X139409485Y-74541614D01*
X139624413Y-74452588D01*
X139817843Y-74323342D01*
X139982342Y-74158843D01*
X140111588Y-73965413D01*
X140200614Y-73750485D01*
X140246000Y-73522318D01*
X140246000Y-73289682D01*
X140200614Y-73061515D01*
X140111588Y-72846587D01*
X139982342Y-72653157D01*
X139946000Y-72616815D01*
X139946000Y-71673120D01*
X140051717Y-71544303D01*
X140161381Y-71339136D01*
X140228912Y-71116516D01*
X140246000Y-70943016D01*
X140246000Y-70026985D01*
X140246000Y-70026984D01*
X140424000Y-70026984D01*
X140424000Y-70943015D01*
X140441088Y-71116515D01*
X140508619Y-71339135D01*
X140618283Y-71544302D01*
X140724000Y-71673120D01*
X140724001Y-72616814D01*
X140687658Y-72653157D01*
X140558412Y-72846587D01*
X140469386Y-73061515D01*
X140424000Y-73289682D01*
X140424000Y-73522318D01*
X140469386Y-73750485D01*
X140558412Y-73965413D01*
X140687658Y-74158843D01*
X140852157Y-74323342D01*
X141045587Y-74452588D01*
X141260515Y-74541614D01*
X141488682Y-74587000D01*
X141721318Y-74587000D01*
X141949485Y-74541614D01*
X142164413Y-74452588D01*
X142357843Y-74323342D01*
X142522342Y-74158843D01*
X142651588Y-73965413D01*
X142740614Y-73750485D01*
X142786000Y-73522318D01*
X142786000Y-73289682D01*
X142740614Y-73061515D01*
X142651588Y-72846587D01*
X142522342Y-72653157D01*
X142486000Y-72616815D01*
X142486000Y-71673120D01*
X142591717Y-71544303D01*
X142701381Y-71339136D01*
X142768912Y-71116516D01*
X142786000Y-70943016D01*
X142786000Y-70026985D01*
X142786000Y-70026984D01*
X142964000Y-70026984D01*
X142964000Y-70943015D01*
X142981088Y-71116515D01*
X143048619Y-71339135D01*
X143158283Y-71544302D01*
X143264000Y-71673120D01*
X143264001Y-72616814D01*
X143227658Y-72653157D01*
X143098412Y-72846587D01*
X143009386Y-73061515D01*
X142964000Y-73289682D01*
X142964000Y-73522318D01*
X143009386Y-73750485D01*
X143098412Y-73965413D01*
X143227658Y-74158843D01*
X143392157Y-74323342D01*
X143585587Y-74452588D01*
X143800515Y-74541614D01*
X144028682Y-74587000D01*
X144261318Y-74587000D01*
X144489485Y-74541614D01*
X144704413Y-74452588D01*
X144897843Y-74323342D01*
X145062342Y-74158843D01*
X145191588Y-73965413D01*
X145280614Y-73750485D01*
X145326000Y-73522318D01*
X145326000Y-73289682D01*
X145280614Y-73061515D01*
X145191588Y-72846587D01*
X145062342Y-72653157D01*
X145026000Y-72616815D01*
X145026000Y-71673120D01*
X145131717Y-71544303D01*
X145241381Y-71339136D01*
X145308912Y-71116516D01*
X145326000Y-70943016D01*
X145326000Y-70026985D01*
X145326000Y-70026984D01*
X145504000Y-70026984D01*
X145504000Y-70943015D01*
X145521088Y-71116515D01*
X145588619Y-71339135D01*
X145698283Y-71544302D01*
X145804000Y-71673120D01*
X145804001Y-72616814D01*
X145767658Y-72653157D01*
X145638412Y-72846587D01*
X145549386Y-73061515D01*
X145504000Y-73289682D01*
X145504000Y-73522318D01*
X145549386Y-73750485D01*
X145638412Y-73965413D01*
X145767658Y-74158843D01*
X145932157Y-74323342D01*
X146125587Y-74452588D01*
X146340515Y-74541614D01*
X146568682Y-74587000D01*
X146801318Y-74587000D01*
X147029485Y-74541614D01*
X147244413Y-74452588D01*
X147437843Y-74323342D01*
X147602342Y-74158843D01*
X147731588Y-73965413D01*
X147820614Y-73750485D01*
X147866000Y-73522318D01*
X147866000Y-73289682D01*
X147820614Y-73061515D01*
X147731588Y-72846587D01*
X147602342Y-72653157D01*
X147566000Y-72616815D01*
X147566000Y-71673120D01*
X147671717Y-71544303D01*
X147781381Y-71339136D01*
X147848912Y-71116516D01*
X147866000Y-70943016D01*
X147866000Y-70026985D01*
X147866000Y-70026984D01*
X148044000Y-70026984D01*
X148044000Y-70943015D01*
X148061088Y-71116515D01*
X148128619Y-71339135D01*
X148238283Y-71544302D01*
X148344000Y-71673120D01*
X148344001Y-72616814D01*
X148307658Y-72653157D01*
X148178412Y-72846587D01*
X148089386Y-73061515D01*
X148044000Y-73289682D01*
X148044000Y-73522318D01*
X148089386Y-73750485D01*
X148178412Y-73965413D01*
X148307658Y-74158843D01*
X148472157Y-74323342D01*
X148665587Y-74452588D01*
X148880515Y-74541614D01*
X149108682Y-74587000D01*
X149341318Y-74587000D01*
X149569485Y-74541614D01*
X149784413Y-74452588D01*
X149977843Y-74323342D01*
X150142342Y-74158843D01*
X150271588Y-73965413D01*
X150360614Y-73750485D01*
X150406000Y-73522318D01*
X150406000Y-73289682D01*
X150360614Y-73061515D01*
X150271588Y-72846587D01*
X150142342Y-72653157D01*
X150106000Y-72616815D01*
X150106000Y-71673120D01*
X150211717Y-71544303D01*
X150321381Y-71339136D01*
X150388912Y-71116516D01*
X150406000Y-70943016D01*
X150406000Y-70026985D01*
X150406000Y-70026984D01*
X150584000Y-70026984D01*
X150584000Y-70943015D01*
X150601088Y-71116515D01*
X150668619Y-71339135D01*
X150778283Y-71544302D01*
X150884000Y-71673120D01*
X150884001Y-72616814D01*
X150847658Y-72653157D01*
X150718412Y-72846587D01*
X150629386Y-73061515D01*
X150584000Y-73289682D01*
X150584000Y-73522318D01*
X150629386Y-73750485D01*
X150718412Y-73965413D01*
X150847658Y-74158843D01*
X151012157Y-74323342D01*
X151205587Y-74452588D01*
X151420515Y-74541614D01*
X151648682Y-74587000D01*
X151881318Y-74587000D01*
X152109485Y-74541614D01*
X152324413Y-74452588D01*
X152517843Y-74323342D01*
X152682342Y-74158843D01*
X152811588Y-73965413D01*
X152900614Y-73750485D01*
X152946000Y-73522318D01*
X152946000Y-73289682D01*
X152900614Y-73061515D01*
X152811588Y-72846587D01*
X152682342Y-72653157D01*
X152646000Y-72616815D01*
X152646000Y-71673120D01*
X152751717Y-71544303D01*
X152861381Y-71339136D01*
X152928912Y-71116516D01*
X152946000Y-70943016D01*
X152946000Y-70026985D01*
X152946000Y-70026984D01*
X153124000Y-70026984D01*
X153124000Y-70943015D01*
X153141088Y-71116515D01*
X153208619Y-71339135D01*
X153318283Y-71544302D01*
X153424000Y-71673120D01*
X153424001Y-72616814D01*
X153387658Y-72653157D01*
X153258412Y-72846587D01*
X153169386Y-73061515D01*
X153124000Y-73289682D01*
X153124000Y-73522318D01*
X153169386Y-73750485D01*
X153258412Y-73965413D01*
X153387658Y-74158843D01*
X153552157Y-74323342D01*
X153745587Y-74452588D01*
X153960515Y-74541614D01*
X154188682Y-74587000D01*
X154421318Y-74587000D01*
X154649485Y-74541614D01*
X154864413Y-74452588D01*
X155057843Y-74323342D01*
X155222342Y-74158843D01*
X155351588Y-73965413D01*
X155440614Y-73750485D01*
X155486000Y-73522318D01*
X155486000Y-73289682D01*
X155440614Y-73061515D01*
X155351588Y-72846587D01*
X155222342Y-72653157D01*
X155186000Y-72616815D01*
X155186000Y-71673120D01*
X155291717Y-71544303D01*
X155401381Y-71339136D01*
X155468912Y-71116516D01*
X155486000Y-70943016D01*
X155486000Y-70026985D01*
X155468912Y-69853485D01*
X155401381Y-69630864D01*
X155291717Y-69425697D01*
X155144134Y-69245866D01*
X154964303Y-69098283D01*
X154759136Y-68988619D01*
X154536516Y-68921088D01*
X154305000Y-68898286D01*
X154073485Y-68921088D01*
X153850865Y-68988619D01*
X153645698Y-69098283D01*
X153465867Y-69245866D01*
X153318284Y-69425697D01*
X153208619Y-69630864D01*
X153141088Y-69853484D01*
X153124000Y-70026984D01*
X152946000Y-70026984D01*
X152928912Y-69853485D01*
X152861381Y-69630864D01*
X152751717Y-69425697D01*
X152604134Y-69245866D01*
X152424303Y-69098283D01*
X152219136Y-68988619D01*
X151996516Y-68921088D01*
X151765000Y-68898286D01*
X151533485Y-68921088D01*
X151310865Y-68988619D01*
X151105698Y-69098283D01*
X150925867Y-69245866D01*
X150778284Y-69425697D01*
X150668619Y-69630864D01*
X150601088Y-69853484D01*
X150584000Y-70026984D01*
X150406000Y-70026984D01*
X150388912Y-69853485D01*
X150321381Y-69630864D01*
X150211717Y-69425697D01*
X150064134Y-69245866D01*
X149884303Y-69098283D01*
X149679136Y-68988619D01*
X149456516Y-68921088D01*
X149225000Y-68898286D01*
X148993485Y-68921088D01*
X148770865Y-68988619D01*
X148565698Y-69098283D01*
X148385867Y-69245866D01*
X148238284Y-69425697D01*
X148128619Y-69630864D01*
X148061088Y-69853484D01*
X148044000Y-70026984D01*
X147866000Y-70026984D01*
X147848912Y-69853485D01*
X147781381Y-69630864D01*
X147671717Y-69425697D01*
X147524134Y-69245866D01*
X147344303Y-69098283D01*
X147139136Y-68988619D01*
X146916516Y-68921088D01*
X146685000Y-68898286D01*
X146453485Y-68921088D01*
X146230865Y-68988619D01*
X146025698Y-69098283D01*
X145845867Y-69245866D01*
X145698284Y-69425697D01*
X145588619Y-69630864D01*
X145521088Y-69853484D01*
X145504000Y-70026984D01*
X145326000Y-70026984D01*
X145308912Y-69853485D01*
X145241381Y-69630864D01*
X145131717Y-69425697D01*
X144984134Y-69245866D01*
X144804303Y-69098283D01*
X144599136Y-68988619D01*
X144376516Y-68921088D01*
X144145000Y-68898286D01*
X143913485Y-68921088D01*
X143690865Y-68988619D01*
X143485698Y-69098283D01*
X143305867Y-69245866D01*
X143158284Y-69425697D01*
X143048619Y-69630864D01*
X142981088Y-69853484D01*
X142964000Y-70026984D01*
X142786000Y-70026984D01*
X142768912Y-69853485D01*
X142701381Y-69630864D01*
X142591717Y-69425697D01*
X142444134Y-69245866D01*
X142264303Y-69098283D01*
X142059136Y-68988619D01*
X141836516Y-68921088D01*
X141605000Y-68898286D01*
X141373485Y-68921088D01*
X141150865Y-68988619D01*
X140945698Y-69098283D01*
X140765867Y-69245866D01*
X140618284Y-69425697D01*
X140508619Y-69630864D01*
X140441088Y-69853484D01*
X140424000Y-70026984D01*
X140246000Y-70026984D01*
X140228912Y-69853485D01*
X140161381Y-69630864D01*
X140051717Y-69425697D01*
X139904134Y-69245866D01*
X139724303Y-69098283D01*
X139519136Y-68988619D01*
X139296516Y-68921088D01*
X139065000Y-68898286D01*
X138833485Y-68921088D01*
X138610865Y-68988619D01*
X138405698Y-69098283D01*
X138225867Y-69245866D01*
X138078284Y-69425697D01*
X137968619Y-69630864D01*
X137901088Y-69853484D01*
X137884000Y-70026984D01*
X137706000Y-70026984D01*
X137688912Y-69853485D01*
X137621381Y-69630864D01*
X137511717Y-69425697D01*
X137364134Y-69245866D01*
X137184303Y-69098283D01*
X136979136Y-68988619D01*
X136756516Y-68921088D01*
X136525000Y-68898286D01*
X136293485Y-68921088D01*
X136070865Y-68988619D01*
X135865698Y-69098283D01*
X135685867Y-69245866D01*
X135538284Y-69425697D01*
X135428619Y-69630864D01*
X135361088Y-69853484D01*
X135344000Y-70026984D01*
X135166000Y-70026984D01*
X135148912Y-69853485D01*
X135081381Y-69630864D01*
X134971717Y-69425697D01*
X134824134Y-69245866D01*
X134644303Y-69098283D01*
X134439136Y-68988619D01*
X134216516Y-68921088D01*
X133985000Y-68898286D01*
X133753485Y-68921088D01*
X133530865Y-68988619D01*
X133325698Y-69098283D01*
X133145867Y-69245866D01*
X132998284Y-69425697D01*
X132888619Y-69630864D01*
X132821088Y-69853484D01*
X132804000Y-70026984D01*
X132626000Y-70026984D01*
X132608912Y-69853485D01*
X132541381Y-69630864D01*
X132431717Y-69425697D01*
X132284134Y-69245866D01*
X132104303Y-69098283D01*
X131899136Y-68988619D01*
X131676516Y-68921088D01*
X131445000Y-68898286D01*
X131213485Y-68921088D01*
X130990865Y-68988619D01*
X130785698Y-69098283D01*
X130605867Y-69245866D01*
X130458284Y-69425697D01*
X130348619Y-69630864D01*
X130281088Y-69853484D01*
X130264000Y-70026984D01*
X130086000Y-70026984D01*
X130068912Y-69853485D01*
X130001381Y-69630864D01*
X129891717Y-69425697D01*
X129744134Y-69245866D01*
X129564303Y-69098283D01*
X129359136Y-68988619D01*
X129136516Y-68921088D01*
X128905000Y-68898286D01*
X128673485Y-68921088D01*
X128450865Y-68988619D01*
X128245698Y-69098283D01*
X128065867Y-69245866D01*
X127918284Y-69425697D01*
X127808619Y-69630864D01*
X127741088Y-69853484D01*
X127724000Y-70026984D01*
X127546000Y-70026984D01*
X127528912Y-69853485D01*
X127461381Y-69630864D01*
X127351717Y-69425697D01*
X127204134Y-69245866D01*
X127024303Y-69098283D01*
X126819136Y-68988619D01*
X126596516Y-68921088D01*
X126365000Y-68898286D01*
X126133485Y-68921088D01*
X125910865Y-68988619D01*
X125705698Y-69098283D01*
X125525867Y-69245866D01*
X125378284Y-69425697D01*
X125268619Y-69630864D01*
X125201088Y-69853484D01*
X125184000Y-70026984D01*
X125006000Y-70026984D01*
X124988912Y-69853485D01*
X124921381Y-69630864D01*
X124811717Y-69425697D01*
X124664134Y-69245866D01*
X124484303Y-69098283D01*
X124279136Y-68988619D01*
X124056516Y-68921088D01*
X123825000Y-68898286D01*
X123593485Y-68921088D01*
X123370865Y-68988619D01*
X123165698Y-69098283D01*
X122985867Y-69245866D01*
X122838284Y-69425697D01*
X122728619Y-69630864D01*
X122661088Y-69853484D01*
X122644000Y-70026984D01*
X122466000Y-70026984D01*
X122448912Y-69853485D01*
X122381381Y-69630864D01*
X122271717Y-69425697D01*
X122124134Y-69245866D01*
X121944303Y-69098283D01*
X121739136Y-68988619D01*
X121516516Y-68921088D01*
X121285000Y-68898286D01*
X121053485Y-68921088D01*
X120830865Y-68988619D01*
X120625698Y-69098283D01*
X120445867Y-69245866D01*
X120298284Y-69425697D01*
X120188619Y-69630864D01*
X120121088Y-69853484D01*
X120104000Y-70026984D01*
X119926000Y-70026984D01*
X119908912Y-69853485D01*
X119841381Y-69630864D01*
X119731717Y-69425697D01*
X119584134Y-69245866D01*
X119404303Y-69098283D01*
X119199136Y-68988619D01*
X118976516Y-68921088D01*
X118745000Y-68898286D01*
X118513485Y-68921088D01*
X118290865Y-68988619D01*
X118085698Y-69098283D01*
X117983000Y-69182565D01*
X117983000Y-68572000D01*
X117979741Y-68522270D01*
X117967067Y-68426000D01*
X155852626Y-68426000D01*
X155873514Y-68423943D01*
X155880573Y-68423992D01*
X155887257Y-68423337D01*
X156109109Y-68400020D01*
X156151789Y-68391259D01*
X156194638Y-68383085D01*
X156201068Y-68381144D01*
X156414166Y-68315179D01*
X156454315Y-68298301D01*
X156494776Y-68281954D01*
X156500706Y-68278801D01*
X156696933Y-68172700D01*
X156733059Y-68148333D01*
X156769553Y-68124452D01*
X156774758Y-68120207D01*
X156946640Y-67978014D01*
X156977359Y-67947080D01*
X157008505Y-67916579D01*
X157012787Y-67911404D01*
X157153776Y-67738534D01*
X157177887Y-67702245D01*
X157202533Y-67666250D01*
X157205727Y-67660342D01*
X157310454Y-67463378D01*
X157327064Y-67423079D01*
X157344240Y-67383004D01*
X157346226Y-67376588D01*
X157410702Y-67163035D01*
X157419166Y-67120289D01*
X157428234Y-67077626D01*
X157428936Y-67070947D01*
X157450704Y-66848936D01*
X157453000Y-66825626D01*
X157453000Y-64566301D01*
X157478987Y-64443409D01*
X157529584Y-64325017D01*
X157602212Y-64218708D01*
X157694103Y-64128533D01*
X157801768Y-64057919D01*
X157921087Y-64009566D01*
X158059871Y-63982941D01*
X158119018Y-63980224D01*
X158406157Y-63980274D01*
G04 #@! TA.AperFunction,Conductor*
D23*
G36*
X158406157Y-63980274D02*
G01*
X158406157Y-65287252D01*
X157774785Y-65918624D01*
X157755473Y-65934473D01*
X157692241Y-66011521D01*
X157645255Y-66099426D01*
X157616322Y-66194808D01*
X157609000Y-66269147D01*
X157609000Y-66269154D01*
X157606553Y-66294000D01*
X157609000Y-66318846D01*
X157609000Y-69184206D01*
X157504303Y-69098283D01*
X157299136Y-68988619D01*
X157076516Y-68921088D01*
X156845000Y-68898286D01*
X156613485Y-68921088D01*
X156390865Y-68988619D01*
X156185698Y-69098283D01*
X156005867Y-69245866D01*
X155858284Y-69425697D01*
X155748619Y-69630864D01*
X155681088Y-69853484D01*
X155664000Y-70026984D01*
X155664000Y-70943015D01*
X155681088Y-71116515D01*
X155748619Y-71339135D01*
X155858283Y-71544302D01*
X155964000Y-71673120D01*
X155964001Y-72616814D01*
X155927658Y-72653157D01*
X155798412Y-72846587D01*
X155709386Y-73061515D01*
X155664000Y-73289682D01*
X155664000Y-73522318D01*
X155709386Y-73750485D01*
X155798412Y-73965413D01*
X155927658Y-74158843D01*
X156092157Y-74323342D01*
X156285587Y-74452588D01*
X156500515Y-74541614D01*
X156728682Y-74587000D01*
X156961318Y-74587000D01*
X157189485Y-74541614D01*
X157343653Y-74477756D01*
X157143409Y-74678000D01*
X117944253Y-74678000D01*
X117962704Y-74609140D01*
X117979741Y-74479730D01*
X117983000Y-74430000D01*
X117983000Y-74314185D01*
X117992157Y-74323342D01*
X118185587Y-74452588D01*
X118400515Y-74541614D01*
X118628682Y-74587000D01*
X118861318Y-74587000D01*
X119089485Y-74541614D01*
X119304413Y-74452588D01*
X119497843Y-74323342D01*
X119662342Y-74158843D01*
X119791588Y-73965413D01*
X119880614Y-73750485D01*
X119926000Y-73522318D01*
X119926000Y-73289682D01*
X119880614Y-73061515D01*
X119791588Y-72846587D01*
X119662342Y-72653157D01*
X119626000Y-72616815D01*
X119626000Y-71673120D01*
X119731717Y-71544303D01*
X119841381Y-71339136D01*
X119908912Y-71116516D01*
X119926000Y-70943016D01*
X119926000Y-70026985D01*
X119926000Y-70026984D01*
X120104000Y-70026984D01*
X120104000Y-70943015D01*
X120121088Y-71116515D01*
X120188619Y-71339135D01*
X120298283Y-71544302D01*
X120404000Y-71673120D01*
X120404001Y-72616814D01*
X120367658Y-72653157D01*
X120238412Y-72846587D01*
X120149386Y-73061515D01*
X120104000Y-73289682D01*
X120104000Y-73522318D01*
X120149386Y-73750485D01*
X120238412Y-73965413D01*
X120367658Y-74158843D01*
X120532157Y-74323342D01*
X120725587Y-74452588D01*
X120940515Y-74541614D01*
X121168682Y-74587000D01*
X121401318Y-74587000D01*
X121629485Y-74541614D01*
X121844413Y-74452588D01*
X122037843Y-74323342D01*
X122202342Y-74158843D01*
X122331588Y-73965413D01*
X122420614Y-73750485D01*
X122466000Y-73522318D01*
X122466000Y-73289682D01*
X122420614Y-73061515D01*
X122331588Y-72846587D01*
X122202342Y-72653157D01*
X122166000Y-72616815D01*
X122166000Y-71673120D01*
X122271717Y-71544303D01*
X122381381Y-71339136D01*
X122448912Y-71116516D01*
X122466000Y-70943016D01*
X122466000Y-70026985D01*
X122466000Y-70026984D01*
X122644000Y-70026984D01*
X122644000Y-70943015D01*
X122661088Y-71116515D01*
X122728619Y-71339135D01*
X122838283Y-71544302D01*
X122944000Y-71673120D01*
X122944001Y-72616814D01*
X122907658Y-72653157D01*
X122778412Y-72846587D01*
X122689386Y-73061515D01*
X122644000Y-73289682D01*
X122644000Y-73522318D01*
X122689386Y-73750485D01*
X122778412Y-73965413D01*
X122907658Y-74158843D01*
X123072157Y-74323342D01*
X123265587Y-74452588D01*
X123480515Y-74541614D01*
X123708682Y-74587000D01*
X123941318Y-74587000D01*
X124169485Y-74541614D01*
X124384413Y-74452588D01*
X124577843Y-74323342D01*
X124742342Y-74158843D01*
X124871588Y-73965413D01*
X124960614Y-73750485D01*
X125006000Y-73522318D01*
X125006000Y-73289682D01*
X124960614Y-73061515D01*
X124871588Y-72846587D01*
X124742342Y-72653157D01*
X124706000Y-72616815D01*
X124706000Y-71673120D01*
X124811717Y-71544303D01*
X124921381Y-71339136D01*
X124988912Y-71116516D01*
X125006000Y-70943016D01*
X125006000Y-70026985D01*
X125006000Y-70026984D01*
X125184000Y-70026984D01*
X125184000Y-70943015D01*
X125201088Y-71116515D01*
X125268619Y-71339135D01*
X125378283Y-71544302D01*
X125484000Y-71673120D01*
X125484001Y-72616814D01*
X125447658Y-72653157D01*
X125318412Y-72846587D01*
X125229386Y-73061515D01*
X125184000Y-73289682D01*
X125184000Y-73522318D01*
X125229386Y-73750485D01*
X125318412Y-73965413D01*
X125447658Y-74158843D01*
X125612157Y-74323342D01*
X125805587Y-74452588D01*
X126020515Y-74541614D01*
X126248682Y-74587000D01*
X126481318Y-74587000D01*
X126709485Y-74541614D01*
X126924413Y-74452588D01*
X127117843Y-74323342D01*
X127282342Y-74158843D01*
X127411588Y-73965413D01*
X127500614Y-73750485D01*
X127546000Y-73522318D01*
X127546000Y-73289682D01*
X127500614Y-73061515D01*
X127411588Y-72846587D01*
X127282342Y-72653157D01*
X127246000Y-72616815D01*
X127246000Y-71673120D01*
X127351717Y-71544303D01*
X127461381Y-71339136D01*
X127528912Y-71116516D01*
X127546000Y-70943016D01*
X127546000Y-70026985D01*
X127546000Y-70026984D01*
X127724000Y-70026984D01*
X127724000Y-70943015D01*
X127741088Y-71116515D01*
X127808619Y-71339135D01*
X127918283Y-71544302D01*
X128024000Y-71673120D01*
X128024001Y-72616814D01*
X127987658Y-72653157D01*
X127858412Y-72846587D01*
X127769386Y-73061515D01*
X127724000Y-73289682D01*
X127724000Y-73522318D01*
X127769386Y-73750485D01*
X127858412Y-73965413D01*
X127987658Y-74158843D01*
X128152157Y-74323342D01*
X128345587Y-74452588D01*
X128560515Y-74541614D01*
X128788682Y-74587000D01*
X129021318Y-74587000D01*
X129249485Y-74541614D01*
X129464413Y-74452588D01*
X129657843Y-74323342D01*
X129822342Y-74158843D01*
X129951588Y-73965413D01*
X130040614Y-73750485D01*
X130086000Y-73522318D01*
X130086000Y-73289682D01*
X130040614Y-73061515D01*
X129951588Y-72846587D01*
X129822342Y-72653157D01*
X129786000Y-72616815D01*
X129786000Y-71673120D01*
X129891717Y-71544303D01*
X130001381Y-71339136D01*
X130068912Y-71116516D01*
X130086000Y-70943016D01*
X130086000Y-70026985D01*
X130086000Y-70026984D01*
X130264000Y-70026984D01*
X130264000Y-70943015D01*
X130281088Y-71116515D01*
X130348619Y-71339135D01*
X130458283Y-71544302D01*
X130564000Y-71673120D01*
X130564001Y-72616814D01*
X130527658Y-72653157D01*
X130398412Y-72846587D01*
X130309386Y-73061515D01*
X130264000Y-73289682D01*
X130264000Y-73522318D01*
X130309386Y-73750485D01*
X130398412Y-73965413D01*
X130527658Y-74158843D01*
X130692157Y-74323342D01*
X130885587Y-74452588D01*
X131100515Y-74541614D01*
X131328682Y-74587000D01*
X131561318Y-74587000D01*
X131789485Y-74541614D01*
X132004413Y-74452588D01*
X132197843Y-74323342D01*
X132362342Y-74158843D01*
X132491588Y-73965413D01*
X132580614Y-73750485D01*
X132626000Y-73522318D01*
X132626000Y-73289682D01*
X132580614Y-73061515D01*
X132491588Y-72846587D01*
X132362342Y-72653157D01*
X132326000Y-72616815D01*
X132326000Y-71673120D01*
X132431717Y-71544303D01*
X132541381Y-71339136D01*
X132608912Y-71116516D01*
X132626000Y-70943016D01*
X132626000Y-70026985D01*
X132626000Y-70026984D01*
X132804000Y-70026984D01*
X132804000Y-70943015D01*
X132821088Y-71116515D01*
X132888619Y-71339135D01*
X132998283Y-71544302D01*
X133104000Y-71673120D01*
X133104001Y-72616814D01*
X133067658Y-72653157D01*
X132938412Y-72846587D01*
X132849386Y-73061515D01*
X132804000Y-73289682D01*
X132804000Y-73522318D01*
X132849386Y-73750485D01*
X132938412Y-73965413D01*
X133067658Y-74158843D01*
X133232157Y-74323342D01*
X133425587Y-74452588D01*
X133640515Y-74541614D01*
X133868682Y-74587000D01*
X134101318Y-74587000D01*
X134329485Y-74541614D01*
X134544413Y-74452588D01*
X134737843Y-74323342D01*
X134902342Y-74158843D01*
X135031588Y-73965413D01*
X135120614Y-73750485D01*
X135166000Y-73522318D01*
X135166000Y-73289682D01*
X135120614Y-73061515D01*
X135031588Y-72846587D01*
X134902342Y-72653157D01*
X134866000Y-72616815D01*
X134866000Y-71673120D01*
X134971717Y-71544303D01*
X135081381Y-71339136D01*
X135148912Y-71116516D01*
X135166000Y-70943016D01*
X135166000Y-70026985D01*
X135166000Y-70026984D01*
X135344000Y-70026984D01*
X135344000Y-70943015D01*
X135361088Y-71116515D01*
X135428619Y-71339135D01*
X135538283Y-71544302D01*
X135644000Y-71673120D01*
X135644001Y-72616814D01*
X135607658Y-72653157D01*
X135478412Y-72846587D01*
X135389386Y-73061515D01*
X135344000Y-73289682D01*
X135344000Y-73522318D01*
X135389386Y-73750485D01*
X135478412Y-73965413D01*
X135607658Y-74158843D01*
X135772157Y-74323342D01*
X135965587Y-74452588D01*
X136180515Y-74541614D01*
X136408682Y-74587000D01*
X136641318Y-74587000D01*
X136869485Y-74541614D01*
X137084413Y-74452588D01*
X137277843Y-74323342D01*
X137442342Y-74158843D01*
X137571588Y-73965413D01*
X137660614Y-73750485D01*
X137706000Y-73522318D01*
X137706000Y-73289682D01*
X137660614Y-73061515D01*
X137571588Y-72846587D01*
X137442342Y-72653157D01*
X137406000Y-72616815D01*
X137406000Y-71673120D01*
X137511717Y-71544303D01*
X137621381Y-71339136D01*
X137688912Y-71116516D01*
X137706000Y-70943016D01*
X137706000Y-70026985D01*
X137706000Y-70026984D01*
X137884000Y-70026984D01*
X137884000Y-70943015D01*
X137901088Y-71116515D01*
X137968619Y-71339135D01*
X138078283Y-71544302D01*
X138184000Y-71673120D01*
X138184001Y-72616814D01*
X138147658Y-72653157D01*
X138018412Y-72846587D01*
X137929386Y-73061515D01*
X137884000Y-73289682D01*
X137884000Y-73522318D01*
X137929386Y-73750485D01*
X138018412Y-73965413D01*
X138147658Y-74158843D01*
X138312157Y-74323342D01*
X138505587Y-74452588D01*
X138720515Y-74541614D01*
X138948682Y-74587000D01*
X139181318Y-74587000D01*
X139409485Y-74541614D01*
X139624413Y-74452588D01*
X139817843Y-74323342D01*
X139982342Y-74158843D01*
X140111588Y-73965413D01*
X140200614Y-73750485D01*
X140246000Y-73522318D01*
X140246000Y-73289682D01*
X140200614Y-73061515D01*
X140111588Y-72846587D01*
X139982342Y-72653157D01*
X139946000Y-72616815D01*
X139946000Y-71673120D01*
X140051717Y-71544303D01*
X140161381Y-71339136D01*
X140228912Y-71116516D01*
X140246000Y-70943016D01*
X140246000Y-70026985D01*
X140246000Y-70026984D01*
X140424000Y-70026984D01*
X140424000Y-70943015D01*
X140441088Y-71116515D01*
X140508619Y-71339135D01*
X140618283Y-71544302D01*
X140724000Y-71673120D01*
X140724001Y-72616814D01*
X140687658Y-72653157D01*
X140558412Y-72846587D01*
X140469386Y-73061515D01*
X140424000Y-73289682D01*
X140424000Y-73522318D01*
X140469386Y-73750485D01*
X140558412Y-73965413D01*
X140687658Y-74158843D01*
X140852157Y-74323342D01*
X141045587Y-74452588D01*
X141260515Y-74541614D01*
X141488682Y-74587000D01*
X141721318Y-74587000D01*
X141949485Y-74541614D01*
X142164413Y-74452588D01*
X142357843Y-74323342D01*
X142522342Y-74158843D01*
X142651588Y-73965413D01*
X142740614Y-73750485D01*
X142786000Y-73522318D01*
X142786000Y-73289682D01*
X142740614Y-73061515D01*
X142651588Y-72846587D01*
X142522342Y-72653157D01*
X142486000Y-72616815D01*
X142486000Y-71673120D01*
X142591717Y-71544303D01*
X142701381Y-71339136D01*
X142768912Y-71116516D01*
X142786000Y-70943016D01*
X142786000Y-70026985D01*
X142786000Y-70026984D01*
X142964000Y-70026984D01*
X142964000Y-70943015D01*
X142981088Y-71116515D01*
X143048619Y-71339135D01*
X143158283Y-71544302D01*
X143264000Y-71673120D01*
X143264001Y-72616814D01*
X143227658Y-72653157D01*
X143098412Y-72846587D01*
X143009386Y-73061515D01*
X142964000Y-73289682D01*
X142964000Y-73522318D01*
X143009386Y-73750485D01*
X143098412Y-73965413D01*
X143227658Y-74158843D01*
X143392157Y-74323342D01*
X143585587Y-74452588D01*
X143800515Y-74541614D01*
X144028682Y-74587000D01*
X144261318Y-74587000D01*
X144489485Y-74541614D01*
X144704413Y-74452588D01*
X144897843Y-74323342D01*
X145062342Y-74158843D01*
X145191588Y-73965413D01*
X145280614Y-73750485D01*
X145326000Y-73522318D01*
X145326000Y-73289682D01*
X145280614Y-73061515D01*
X145191588Y-72846587D01*
X145062342Y-72653157D01*
X145026000Y-72616815D01*
X145026000Y-71673120D01*
X145131717Y-71544303D01*
X145241381Y-71339136D01*
X145308912Y-71116516D01*
X145326000Y-70943016D01*
X145326000Y-70026985D01*
X145326000Y-70026984D01*
X145504000Y-70026984D01*
X145504000Y-70943015D01*
X145521088Y-71116515D01*
X145588619Y-71339135D01*
X145698283Y-71544302D01*
X145804000Y-71673120D01*
X145804001Y-72616814D01*
X145767658Y-72653157D01*
X145638412Y-72846587D01*
X145549386Y-73061515D01*
X145504000Y-73289682D01*
X145504000Y-73522318D01*
X145549386Y-73750485D01*
X145638412Y-73965413D01*
X145767658Y-74158843D01*
X145932157Y-74323342D01*
X146125587Y-74452588D01*
X146340515Y-74541614D01*
X146568682Y-74587000D01*
X146801318Y-74587000D01*
X147029485Y-74541614D01*
X147244413Y-74452588D01*
X147437843Y-74323342D01*
X147602342Y-74158843D01*
X147731588Y-73965413D01*
X147820614Y-73750485D01*
X147866000Y-73522318D01*
X147866000Y-73289682D01*
X147820614Y-73061515D01*
X147731588Y-72846587D01*
X147602342Y-72653157D01*
X147566000Y-72616815D01*
X147566000Y-71673120D01*
X147671717Y-71544303D01*
X147781381Y-71339136D01*
X147848912Y-71116516D01*
X147866000Y-70943016D01*
X147866000Y-70026985D01*
X147866000Y-70026984D01*
X148044000Y-70026984D01*
X148044000Y-70943015D01*
X148061088Y-71116515D01*
X148128619Y-71339135D01*
X148238283Y-71544302D01*
X148344000Y-71673120D01*
X148344001Y-72616814D01*
X148307658Y-72653157D01*
X148178412Y-72846587D01*
X148089386Y-73061515D01*
X148044000Y-73289682D01*
X148044000Y-73522318D01*
X148089386Y-73750485D01*
X148178412Y-73965413D01*
X148307658Y-74158843D01*
X148472157Y-74323342D01*
X148665587Y-74452588D01*
X148880515Y-74541614D01*
X149108682Y-74587000D01*
X149341318Y-74587000D01*
X149569485Y-74541614D01*
X149784413Y-74452588D01*
X149977843Y-74323342D01*
X150142342Y-74158843D01*
X150271588Y-73965413D01*
X150360614Y-73750485D01*
X150406000Y-73522318D01*
X150406000Y-73289682D01*
X150360614Y-73061515D01*
X150271588Y-72846587D01*
X150142342Y-72653157D01*
X150106000Y-72616815D01*
X150106000Y-71673120D01*
X150211717Y-71544303D01*
X150321381Y-71339136D01*
X150388912Y-71116516D01*
X150406000Y-70943016D01*
X150406000Y-70026985D01*
X150406000Y-70026984D01*
X150584000Y-70026984D01*
X150584000Y-70943015D01*
X150601088Y-71116515D01*
X150668619Y-71339135D01*
X150778283Y-71544302D01*
X150884000Y-71673120D01*
X150884001Y-72616814D01*
X150847658Y-72653157D01*
X150718412Y-72846587D01*
X150629386Y-73061515D01*
X150584000Y-73289682D01*
X150584000Y-73522318D01*
X150629386Y-73750485D01*
X150718412Y-73965413D01*
X150847658Y-74158843D01*
X151012157Y-74323342D01*
X151205587Y-74452588D01*
X151420515Y-74541614D01*
X151648682Y-74587000D01*
X151881318Y-74587000D01*
X152109485Y-74541614D01*
X152324413Y-74452588D01*
X152517843Y-74323342D01*
X152682342Y-74158843D01*
X152811588Y-73965413D01*
X152900614Y-73750485D01*
X152946000Y-73522318D01*
X152946000Y-73289682D01*
X152900614Y-73061515D01*
X152811588Y-72846587D01*
X152682342Y-72653157D01*
X152646000Y-72616815D01*
X152646000Y-71673120D01*
X152751717Y-71544303D01*
X152861381Y-71339136D01*
X152928912Y-71116516D01*
X152946000Y-70943016D01*
X152946000Y-70026985D01*
X152946000Y-70026984D01*
X153124000Y-70026984D01*
X153124000Y-70943015D01*
X153141088Y-71116515D01*
X153208619Y-71339135D01*
X153318283Y-71544302D01*
X153424000Y-71673120D01*
X153424001Y-72616814D01*
X153387658Y-72653157D01*
X153258412Y-72846587D01*
X153169386Y-73061515D01*
X153124000Y-73289682D01*
X153124000Y-73522318D01*
X153169386Y-73750485D01*
X153258412Y-73965413D01*
X153387658Y-74158843D01*
X153552157Y-74323342D01*
X153745587Y-74452588D01*
X153960515Y-74541614D01*
X154188682Y-74587000D01*
X154421318Y-74587000D01*
X154649485Y-74541614D01*
X154864413Y-74452588D01*
X155057843Y-74323342D01*
X155222342Y-74158843D01*
X155351588Y-73965413D01*
X155440614Y-73750485D01*
X155486000Y-73522318D01*
X155486000Y-73289682D01*
X155440614Y-73061515D01*
X155351588Y-72846587D01*
X155222342Y-72653157D01*
X155186000Y-72616815D01*
X155186000Y-71673120D01*
X155291717Y-71544303D01*
X155401381Y-71339136D01*
X155468912Y-71116516D01*
X155486000Y-70943016D01*
X155486000Y-70026985D01*
X155468912Y-69853485D01*
X155401381Y-69630864D01*
X155291717Y-69425697D01*
X155144134Y-69245866D01*
X154964303Y-69098283D01*
X154759136Y-68988619D01*
X154536516Y-68921088D01*
X154305000Y-68898286D01*
X154073485Y-68921088D01*
X153850865Y-68988619D01*
X153645698Y-69098283D01*
X153465867Y-69245866D01*
X153318284Y-69425697D01*
X153208619Y-69630864D01*
X153141088Y-69853484D01*
X153124000Y-70026984D01*
X152946000Y-70026984D01*
X152928912Y-69853485D01*
X152861381Y-69630864D01*
X152751717Y-69425697D01*
X152604134Y-69245866D01*
X152424303Y-69098283D01*
X152219136Y-68988619D01*
X151996516Y-68921088D01*
X151765000Y-68898286D01*
X151533485Y-68921088D01*
X151310865Y-68988619D01*
X151105698Y-69098283D01*
X150925867Y-69245866D01*
X150778284Y-69425697D01*
X150668619Y-69630864D01*
X150601088Y-69853484D01*
X150584000Y-70026984D01*
X150406000Y-70026984D01*
X150388912Y-69853485D01*
X150321381Y-69630864D01*
X150211717Y-69425697D01*
X150064134Y-69245866D01*
X149884303Y-69098283D01*
X149679136Y-68988619D01*
X149456516Y-68921088D01*
X149225000Y-68898286D01*
X148993485Y-68921088D01*
X148770865Y-68988619D01*
X148565698Y-69098283D01*
X148385867Y-69245866D01*
X148238284Y-69425697D01*
X148128619Y-69630864D01*
X148061088Y-69853484D01*
X148044000Y-70026984D01*
X147866000Y-70026984D01*
X147848912Y-69853485D01*
X147781381Y-69630864D01*
X147671717Y-69425697D01*
X147524134Y-69245866D01*
X147344303Y-69098283D01*
X147139136Y-68988619D01*
X146916516Y-68921088D01*
X146685000Y-68898286D01*
X146453485Y-68921088D01*
X146230865Y-68988619D01*
X146025698Y-69098283D01*
X145845867Y-69245866D01*
X145698284Y-69425697D01*
X145588619Y-69630864D01*
X145521088Y-69853484D01*
X145504000Y-70026984D01*
X145326000Y-70026984D01*
X145308912Y-69853485D01*
X145241381Y-69630864D01*
X145131717Y-69425697D01*
X144984134Y-69245866D01*
X144804303Y-69098283D01*
X144599136Y-68988619D01*
X144376516Y-68921088D01*
X144145000Y-68898286D01*
X143913485Y-68921088D01*
X143690865Y-68988619D01*
X143485698Y-69098283D01*
X143305867Y-69245866D01*
X143158284Y-69425697D01*
X143048619Y-69630864D01*
X142981088Y-69853484D01*
X142964000Y-70026984D01*
X142786000Y-70026984D01*
X142768912Y-69853485D01*
X142701381Y-69630864D01*
X142591717Y-69425697D01*
X142444134Y-69245866D01*
X142264303Y-69098283D01*
X142059136Y-68988619D01*
X141836516Y-68921088D01*
X141605000Y-68898286D01*
X141373485Y-68921088D01*
X141150865Y-68988619D01*
X140945698Y-69098283D01*
X140765867Y-69245866D01*
X140618284Y-69425697D01*
X140508619Y-69630864D01*
X140441088Y-69853484D01*
X140424000Y-70026984D01*
X140246000Y-70026984D01*
X140228912Y-69853485D01*
X140161381Y-69630864D01*
X140051717Y-69425697D01*
X139904134Y-69245866D01*
X139724303Y-69098283D01*
X139519136Y-68988619D01*
X139296516Y-68921088D01*
X139065000Y-68898286D01*
X138833485Y-68921088D01*
X138610865Y-68988619D01*
X138405698Y-69098283D01*
X138225867Y-69245866D01*
X138078284Y-69425697D01*
X137968619Y-69630864D01*
X137901088Y-69853484D01*
X137884000Y-70026984D01*
X137706000Y-70026984D01*
X137688912Y-69853485D01*
X137621381Y-69630864D01*
X137511717Y-69425697D01*
X137364134Y-69245866D01*
X137184303Y-69098283D01*
X136979136Y-68988619D01*
X136756516Y-68921088D01*
X136525000Y-68898286D01*
X136293485Y-68921088D01*
X136070865Y-68988619D01*
X135865698Y-69098283D01*
X135685867Y-69245866D01*
X135538284Y-69425697D01*
X135428619Y-69630864D01*
X135361088Y-69853484D01*
X135344000Y-70026984D01*
X135166000Y-70026984D01*
X135148912Y-69853485D01*
X135081381Y-69630864D01*
X134971717Y-69425697D01*
X134824134Y-69245866D01*
X134644303Y-69098283D01*
X134439136Y-68988619D01*
X134216516Y-68921088D01*
X133985000Y-68898286D01*
X133753485Y-68921088D01*
X133530865Y-68988619D01*
X133325698Y-69098283D01*
X133145867Y-69245866D01*
X132998284Y-69425697D01*
X132888619Y-69630864D01*
X132821088Y-69853484D01*
X132804000Y-70026984D01*
X132626000Y-70026984D01*
X132608912Y-69853485D01*
X132541381Y-69630864D01*
X132431717Y-69425697D01*
X132284134Y-69245866D01*
X132104303Y-69098283D01*
X131899136Y-68988619D01*
X131676516Y-68921088D01*
X131445000Y-68898286D01*
X131213485Y-68921088D01*
X130990865Y-68988619D01*
X130785698Y-69098283D01*
X130605867Y-69245866D01*
X130458284Y-69425697D01*
X130348619Y-69630864D01*
X130281088Y-69853484D01*
X130264000Y-70026984D01*
X130086000Y-70026984D01*
X130068912Y-69853485D01*
X130001381Y-69630864D01*
X129891717Y-69425697D01*
X129744134Y-69245866D01*
X129564303Y-69098283D01*
X129359136Y-68988619D01*
X129136516Y-68921088D01*
X128905000Y-68898286D01*
X128673485Y-68921088D01*
X128450865Y-68988619D01*
X128245698Y-69098283D01*
X128065867Y-69245866D01*
X127918284Y-69425697D01*
X127808619Y-69630864D01*
X127741088Y-69853484D01*
X127724000Y-70026984D01*
X127546000Y-70026984D01*
X127528912Y-69853485D01*
X127461381Y-69630864D01*
X127351717Y-69425697D01*
X127204134Y-69245866D01*
X127024303Y-69098283D01*
X126819136Y-68988619D01*
X126596516Y-68921088D01*
X126365000Y-68898286D01*
X126133485Y-68921088D01*
X125910865Y-68988619D01*
X125705698Y-69098283D01*
X125525867Y-69245866D01*
X125378284Y-69425697D01*
X125268619Y-69630864D01*
X125201088Y-69853484D01*
X125184000Y-70026984D01*
X125006000Y-70026984D01*
X124988912Y-69853485D01*
X124921381Y-69630864D01*
X124811717Y-69425697D01*
X124664134Y-69245866D01*
X124484303Y-69098283D01*
X124279136Y-68988619D01*
X124056516Y-68921088D01*
X123825000Y-68898286D01*
X123593485Y-68921088D01*
X123370865Y-68988619D01*
X123165698Y-69098283D01*
X122985867Y-69245866D01*
X122838284Y-69425697D01*
X122728619Y-69630864D01*
X122661088Y-69853484D01*
X122644000Y-70026984D01*
X122466000Y-70026984D01*
X122448912Y-69853485D01*
X122381381Y-69630864D01*
X122271717Y-69425697D01*
X122124134Y-69245866D01*
X121944303Y-69098283D01*
X121739136Y-68988619D01*
X121516516Y-68921088D01*
X121285000Y-68898286D01*
X121053485Y-68921088D01*
X120830865Y-68988619D01*
X120625698Y-69098283D01*
X120445867Y-69245866D01*
X120298284Y-69425697D01*
X120188619Y-69630864D01*
X120121088Y-69853484D01*
X120104000Y-70026984D01*
X119926000Y-70026984D01*
X119908912Y-69853485D01*
X119841381Y-69630864D01*
X119731717Y-69425697D01*
X119584134Y-69245866D01*
X119404303Y-69098283D01*
X119199136Y-68988619D01*
X118976516Y-68921088D01*
X118745000Y-68898286D01*
X118513485Y-68921088D01*
X118290865Y-68988619D01*
X118085698Y-69098283D01*
X117983000Y-69182565D01*
X117983000Y-68572000D01*
X117979741Y-68522270D01*
X117967067Y-68426000D01*
X155852626Y-68426000D01*
X155873514Y-68423943D01*
X155880573Y-68423992D01*
X155887257Y-68423337D01*
X156109109Y-68400020D01*
X156151789Y-68391259D01*
X156194638Y-68383085D01*
X156201068Y-68381144D01*
X156414166Y-68315179D01*
X156454315Y-68298301D01*
X156494776Y-68281954D01*
X156500706Y-68278801D01*
X156696933Y-68172700D01*
X156733059Y-68148333D01*
X156769553Y-68124452D01*
X156774758Y-68120207D01*
X156946640Y-67978014D01*
X156977359Y-67947080D01*
X157008505Y-67916579D01*
X157012787Y-67911404D01*
X157153776Y-67738534D01*
X157177887Y-67702245D01*
X157202533Y-67666250D01*
X157205727Y-67660342D01*
X157310454Y-67463378D01*
X157327064Y-67423079D01*
X157344240Y-67383004D01*
X157346226Y-67376588D01*
X157410702Y-67163035D01*
X157419166Y-67120289D01*
X157428234Y-67077626D01*
X157428936Y-67070947D01*
X157450704Y-66848936D01*
X157453000Y-66825626D01*
X157453000Y-64566301D01*
X157478987Y-64443409D01*
X157529584Y-64325017D01*
X157602212Y-64218708D01*
X157694103Y-64128533D01*
X157801768Y-64057919D01*
X157921087Y-64009566D01*
X158059871Y-63982941D01*
X158119018Y-63980224D01*
X158406157Y-63980274D01*
G37*
G04 #@! TD.AperFunction*
D22*
X102341088Y-69853484D02*
X102324000Y-70026984D01*
X102324000Y-70943015D01*
X102341088Y-71116515D01*
X102408619Y-71339135D01*
X102518283Y-71544302D01*
X102624000Y-71673120D01*
X102624001Y-72616814D01*
X102587658Y-72653157D01*
X102458412Y-72846587D01*
X102369386Y-73061515D01*
X102324000Y-73289682D01*
X102324000Y-73522318D01*
X102369386Y-73750485D01*
X102432246Y-73902244D01*
X98253002Y-69723000D01*
X102380670Y-69723000D01*
X102341088Y-69853484D01*
G04 #@! TA.AperFunction,Conductor*
D23*
G36*
X102341088Y-69853484D02*
G01*
X102324000Y-70026984D01*
X102324000Y-70943015D01*
X102341088Y-71116515D01*
X102408619Y-71339135D01*
X102518283Y-71544302D01*
X102624000Y-71673120D01*
X102624001Y-72616814D01*
X102587658Y-72653157D01*
X102458412Y-72846587D01*
X102369386Y-73061515D01*
X102324000Y-73289682D01*
X102324000Y-73522318D01*
X102369386Y-73750485D01*
X102432246Y-73902244D01*
X98253002Y-69723000D01*
X102380670Y-69723000D01*
X102341088Y-69853484D01*
G37*
G04 #@! TD.AperFunction*
D22*
X92154785Y-71444624D02*
X92135473Y-71460473D01*
X92072241Y-71537521D01*
X92025255Y-71625426D01*
X91996322Y-71720808D01*
X91994002Y-71744358D01*
X91941508Y-71716299D01*
X91869689Y-71694513D01*
X91795000Y-71687157D01*
X91195000Y-71687157D01*
X91120311Y-71694513D01*
X91048492Y-71716299D01*
X90995000Y-71744892D01*
X90941508Y-71716299D01*
X90869689Y-71694513D01*
X90795000Y-71687157D01*
X90195000Y-71687157D01*
X90120311Y-71694513D01*
X90048492Y-71716299D01*
X89995000Y-71744892D01*
X89941508Y-71716299D01*
X89869689Y-71694513D01*
X89795000Y-71687157D01*
X89195000Y-71687157D01*
X89120311Y-71694513D01*
X89048492Y-71716299D01*
X88995000Y-71744892D01*
X88941508Y-71716299D01*
X88869689Y-71694513D01*
X88795000Y-71687157D01*
X88195000Y-71687157D01*
X88120311Y-71694513D01*
X88048492Y-71716299D01*
X87995000Y-71744892D01*
X87941508Y-71716299D01*
X87869689Y-71694513D01*
X87795000Y-71687157D01*
X87195000Y-71687157D01*
X87120311Y-71694513D01*
X87048492Y-71716299D01*
X86995000Y-71744892D01*
X86941508Y-71716299D01*
X86869689Y-71694513D01*
X86795000Y-71687157D01*
X86195000Y-71687157D01*
X86120311Y-71694513D01*
X86048492Y-71716299D01*
X85995000Y-71744892D01*
X85941508Y-71716299D01*
X85869689Y-71694513D01*
X85795000Y-71687157D01*
X85195000Y-71687157D01*
X85120311Y-71694513D01*
X85048492Y-71716299D01*
X84995000Y-71744892D01*
X84941508Y-71716299D01*
X84869689Y-71694513D01*
X84795000Y-71687157D01*
X84195000Y-71687157D01*
X84120311Y-71694513D01*
X84048492Y-71716299D01*
X83995000Y-71744892D01*
X83941508Y-71716299D01*
X83869689Y-71694513D01*
X83795000Y-71687157D01*
X83195000Y-71687157D01*
X83120311Y-71694513D01*
X83048492Y-71716299D01*
X82995000Y-71744892D01*
X82941508Y-71716299D01*
X82869689Y-71694513D01*
X82795000Y-71687157D01*
X82195000Y-71687157D01*
X82120311Y-71694513D01*
X82048492Y-71716299D01*
X81995000Y-71744892D01*
X81941508Y-71716299D01*
X81869689Y-71694513D01*
X81795000Y-71687157D01*
X81195000Y-71687157D01*
X81120311Y-71694513D01*
X81048492Y-71716299D01*
X80995000Y-71744892D01*
X80941508Y-71716299D01*
X80869689Y-71694513D01*
X80795000Y-71687157D01*
X80391000Y-71687157D01*
X80391000Y-69866975D01*
X80398231Y-69812048D01*
X80409789Y-69784145D01*
X80428179Y-69760179D01*
X80452145Y-69741789D01*
X80480048Y-69730231D01*
X80534975Y-69723000D01*
X93876408Y-69723000D01*
X92154785Y-71444624D01*
G04 #@! TA.AperFunction,Conductor*
D23*
G36*
X92154785Y-71444624D02*
G01*
X92135473Y-71460473D01*
X92072241Y-71537521D01*
X92025255Y-71625426D01*
X91996322Y-71720808D01*
X91994002Y-71744358D01*
X91941508Y-71716299D01*
X91869689Y-71694513D01*
X91795000Y-71687157D01*
X91195000Y-71687157D01*
X91120311Y-71694513D01*
X91048492Y-71716299D01*
X90995000Y-71744892D01*
X90941508Y-71716299D01*
X90869689Y-71694513D01*
X90795000Y-71687157D01*
X90195000Y-71687157D01*
X90120311Y-71694513D01*
X90048492Y-71716299D01*
X89995000Y-71744892D01*
X89941508Y-71716299D01*
X89869689Y-71694513D01*
X89795000Y-71687157D01*
X89195000Y-71687157D01*
X89120311Y-71694513D01*
X89048492Y-71716299D01*
X88995000Y-71744892D01*
X88941508Y-71716299D01*
X88869689Y-71694513D01*
X88795000Y-71687157D01*
X88195000Y-71687157D01*
X88120311Y-71694513D01*
X88048492Y-71716299D01*
X87995000Y-71744892D01*
X87941508Y-71716299D01*
X87869689Y-71694513D01*
X87795000Y-71687157D01*
X87195000Y-71687157D01*
X87120311Y-71694513D01*
X87048492Y-71716299D01*
X86995000Y-71744892D01*
X86941508Y-71716299D01*
X86869689Y-71694513D01*
X86795000Y-71687157D01*
X86195000Y-71687157D01*
X86120311Y-71694513D01*
X86048492Y-71716299D01*
X85995000Y-71744892D01*
X85941508Y-71716299D01*
X85869689Y-71694513D01*
X85795000Y-71687157D01*
X85195000Y-71687157D01*
X85120311Y-71694513D01*
X85048492Y-71716299D01*
X84995000Y-71744892D01*
X84941508Y-71716299D01*
X84869689Y-71694513D01*
X84795000Y-71687157D01*
X84195000Y-71687157D01*
X84120311Y-71694513D01*
X84048492Y-71716299D01*
X83995000Y-71744892D01*
X83941508Y-71716299D01*
X83869689Y-71694513D01*
X83795000Y-71687157D01*
X83195000Y-71687157D01*
X83120311Y-71694513D01*
X83048492Y-71716299D01*
X82995000Y-71744892D01*
X82941508Y-71716299D01*
X82869689Y-71694513D01*
X82795000Y-71687157D01*
X82195000Y-71687157D01*
X82120311Y-71694513D01*
X82048492Y-71716299D01*
X81995000Y-71744892D01*
X81941508Y-71716299D01*
X81869689Y-71694513D01*
X81795000Y-71687157D01*
X81195000Y-71687157D01*
X81120311Y-71694513D01*
X81048492Y-71716299D01*
X80995000Y-71744892D01*
X80941508Y-71716299D01*
X80869689Y-71694513D01*
X80795000Y-71687157D01*
X80391000Y-71687157D01*
X80391000Y-69866975D01*
X80398231Y-69812048D01*
X80409789Y-69784145D01*
X80428179Y-69760179D01*
X80452145Y-69741789D01*
X80480048Y-69730231D01*
X80534975Y-69723000D01*
X93876408Y-69723000D01*
X92154785Y-71444624D01*
G37*
G04 #@! TD.AperFunction*
D22*
X117461231Y-68475743D02*
X117475000Y-68580328D01*
X117475000Y-74421672D01*
X117461231Y-74526257D01*
X117424077Y-74615955D01*
X117376468Y-74678000D01*
X115033532Y-74678000D01*
X114985923Y-74615955D01*
X114948769Y-74526257D01*
X114935000Y-74421672D01*
X114935000Y-73715115D01*
X115065165Y-73715115D01*
X115147372Y-73931546D01*
X115270223Y-74127781D01*
X115428997Y-74296278D01*
X115617592Y-74430562D01*
X115828761Y-74525473D01*
X115895886Y-74545829D01*
X116078000Y-74484297D01*
X116078000Y-73533000D01*
X116332000Y-73533000D01*
X116332000Y-74484297D01*
X116514114Y-74545829D01*
X116581239Y-74525473D01*
X116792408Y-74430562D01*
X116981003Y-74296278D01*
X117139777Y-74127781D01*
X117262628Y-73931546D01*
X117344835Y-73715115D01*
X117283908Y-73533000D01*
X116332000Y-73533000D01*
X116078000Y-73533000D01*
X115126092Y-73533000D01*
X115065165Y-73715115D01*
X114935000Y-73715115D01*
X114935000Y-73096885D01*
X115065165Y-73096885D01*
X115126092Y-73279000D01*
X116078000Y-73279000D01*
X116078000Y-72327703D01*
X116332000Y-72327703D01*
X116332000Y-73279000D01*
X117283908Y-73279000D01*
X117344835Y-73096885D01*
X117262628Y-72880454D01*
X117139777Y-72684219D01*
X116981003Y-72515722D01*
X116792408Y-72381438D01*
X116581239Y-72286527D01*
X116514114Y-72266171D01*
X116332000Y-72327703D01*
X116078000Y-72327703D01*
X115895886Y-72266171D01*
X115828761Y-72286527D01*
X115617592Y-72381438D01*
X115428997Y-72515722D01*
X115270223Y-72684219D01*
X115147372Y-72880454D01*
X115065165Y-73096885D01*
X114935000Y-73096885D01*
X114935000Y-70612000D01*
X115024000Y-70612000D01*
X115024000Y-71012000D01*
X115071469Y-71239961D01*
X115162499Y-71454281D01*
X115293592Y-71646724D01*
X115459709Y-71809895D01*
X115654468Y-71937522D01*
X115870383Y-72024702D01*
X115895886Y-72024829D01*
X116078000Y-71963297D01*
X116078000Y-70612000D01*
X116332000Y-70612000D01*
X116332000Y-71963297D01*
X116514114Y-72024829D01*
X116539617Y-72024702D01*
X116755532Y-71937522D01*
X116950291Y-71809895D01*
X117116408Y-71646724D01*
X117247501Y-71454281D01*
X117338531Y-71239961D01*
X117386000Y-71012000D01*
X117386000Y-70612000D01*
X116332000Y-70612000D01*
X116078000Y-70612000D01*
X115024000Y-70612000D01*
X114935000Y-70612000D01*
X114935000Y-69958000D01*
X115024000Y-69958000D01*
X115024000Y-70358000D01*
X116078000Y-70358000D01*
X116078000Y-69006703D01*
X116332000Y-69006703D01*
X116332000Y-70358000D01*
X117386000Y-70358000D01*
X117386000Y-69958000D01*
X117338531Y-69730039D01*
X117247501Y-69515719D01*
X117116408Y-69323276D01*
X116950291Y-69160105D01*
X116755532Y-69032478D01*
X116539617Y-68945298D01*
X116514114Y-68945171D01*
X116332000Y-69006703D01*
X116078000Y-69006703D01*
X115895886Y-68945171D01*
X115870383Y-68945298D01*
X115654468Y-69032478D01*
X115459709Y-69160105D01*
X115293592Y-69323276D01*
X115162499Y-69515719D01*
X115071469Y-69730039D01*
X115024000Y-69958000D01*
X114935000Y-69958000D01*
X114935000Y-69842000D01*
X114933914Y-69825423D01*
X114916877Y-69696013D01*
X114908296Y-69663989D01*
X114858346Y-69543399D01*
X114841768Y-69514687D01*
X114762308Y-69411134D01*
X114738866Y-69387692D01*
X114635313Y-69308232D01*
X114606601Y-69291654D01*
X114508293Y-69250933D01*
X114504134Y-69245866D01*
X114324303Y-69098283D01*
X114119136Y-68988619D01*
X113896516Y-68921088D01*
X113665000Y-68898286D01*
X113433485Y-68921088D01*
X113210865Y-68988619D01*
X113005698Y-69098283D01*
X112863477Y-69215000D01*
X111926524Y-69215000D01*
X111784303Y-69098283D01*
X111579136Y-68988619D01*
X111356516Y-68921088D01*
X111125000Y-68898286D01*
X110893485Y-68921088D01*
X110670865Y-68988619D01*
X110465698Y-69098283D01*
X110323477Y-69215000D01*
X109386524Y-69215000D01*
X109244303Y-69098283D01*
X109039136Y-68988619D01*
X108816516Y-68921088D01*
X108585000Y-68898286D01*
X108353485Y-68921088D01*
X108130865Y-68988619D01*
X107925698Y-69098283D01*
X107783477Y-69215000D01*
X106846524Y-69215000D01*
X106704303Y-69098283D01*
X106499136Y-68988619D01*
X106276516Y-68921088D01*
X106045000Y-68898286D01*
X105813485Y-68921088D01*
X105590865Y-68988619D01*
X105385698Y-69098283D01*
X105243477Y-69215000D01*
X104306524Y-69215000D01*
X104164303Y-69098283D01*
X103959136Y-68988619D01*
X103736516Y-68921088D01*
X103505000Y-68898286D01*
X103273485Y-68921088D01*
X103050865Y-68988619D01*
X102845698Y-69098283D01*
X102703477Y-69215000D01*
X81071442Y-69215000D01*
X80975922Y-69196000D01*
X80822078Y-69196000D01*
X80726558Y-69215000D01*
X80510000Y-69215000D01*
X80493423Y-69216086D01*
X80364013Y-69233123D01*
X80331989Y-69241704D01*
X80211399Y-69291654D01*
X80182687Y-69308232D01*
X80079134Y-69387692D01*
X80055692Y-69411134D01*
X79976232Y-69514687D01*
X79959654Y-69543399D01*
X79909704Y-69663989D01*
X79901123Y-69696013D01*
X79884086Y-69825423D01*
X79883000Y-69842000D01*
X79883000Y-71698551D01*
X79869689Y-71694513D01*
X79795000Y-71687157D01*
X79717250Y-71689000D01*
X79622000Y-71784250D01*
X79622000Y-72943000D01*
X79642000Y-72943000D01*
X79642000Y-73197000D01*
X79622000Y-73197000D01*
X79622000Y-74355750D01*
X79717250Y-74451000D01*
X79795000Y-74452843D01*
X79849248Y-74447500D01*
X79832077Y-74488955D01*
X79772976Y-74565976D01*
X79695955Y-74625077D01*
X79606257Y-74662231D01*
X79501672Y-74676000D01*
X78613328Y-74676000D01*
X78508743Y-74662231D01*
X78419045Y-74625077D01*
X78342024Y-74565976D01*
X78282923Y-74488955D01*
X78267256Y-74451130D01*
X78272750Y-74451000D01*
X78368000Y-74355750D01*
X78368000Y-73197000D01*
X78622000Y-73197000D01*
X78622000Y-74355750D01*
X78717250Y-74451000D01*
X78795000Y-74452843D01*
X78869689Y-74445487D01*
X78941508Y-74423701D01*
X78995000Y-74395108D01*
X79048492Y-74423701D01*
X79120311Y-74445487D01*
X79195000Y-74452843D01*
X79272750Y-74451000D01*
X79368000Y-74355750D01*
X79368000Y-73197000D01*
X78622000Y-73197000D01*
X78368000Y-73197000D01*
X78348000Y-73197000D01*
X78348000Y-72943000D01*
X78368000Y-72943000D01*
X78368000Y-71784250D01*
X78622000Y-71784250D01*
X78622000Y-72943000D01*
X79368000Y-72943000D01*
X79368000Y-71784250D01*
X79272750Y-71689000D01*
X79195000Y-71687157D01*
X79120311Y-71694513D01*
X79048492Y-71716299D01*
X78995000Y-71744892D01*
X78941508Y-71716299D01*
X78869689Y-71694513D01*
X78795000Y-71687157D01*
X78717250Y-71689000D01*
X78622000Y-71784250D01*
X78368000Y-71784250D01*
X78272750Y-71689000D01*
X78232000Y-71688034D01*
X78232000Y-68580328D01*
X78245769Y-68475743D01*
X78266373Y-68426000D01*
X117440627Y-68426000D01*
X117461231Y-68475743D01*
G04 #@! TA.AperFunction,Conductor*
D23*
G36*
X117461231Y-68475743D02*
G01*
X117475000Y-68580328D01*
X117475000Y-74421672D01*
X117461231Y-74526257D01*
X117424077Y-74615955D01*
X117376468Y-74678000D01*
X115033532Y-74678000D01*
X114985923Y-74615955D01*
X114948769Y-74526257D01*
X114935000Y-74421672D01*
X114935000Y-73715115D01*
X115065165Y-73715115D01*
X115147372Y-73931546D01*
X115270223Y-74127781D01*
X115428997Y-74296278D01*
X115617592Y-74430562D01*
X115828761Y-74525473D01*
X115895886Y-74545829D01*
X116078000Y-74484297D01*
X116078000Y-73533000D01*
X116332000Y-73533000D01*
X116332000Y-74484297D01*
X116514114Y-74545829D01*
X116581239Y-74525473D01*
X116792408Y-74430562D01*
X116981003Y-74296278D01*
X117139777Y-74127781D01*
X117262628Y-73931546D01*
X117344835Y-73715115D01*
X117283908Y-73533000D01*
X116332000Y-73533000D01*
X116078000Y-73533000D01*
X115126092Y-73533000D01*
X115065165Y-73715115D01*
X114935000Y-73715115D01*
X114935000Y-73096885D01*
X115065165Y-73096885D01*
X115126092Y-73279000D01*
X116078000Y-73279000D01*
X116078000Y-72327703D01*
X116332000Y-72327703D01*
X116332000Y-73279000D01*
X117283908Y-73279000D01*
X117344835Y-73096885D01*
X117262628Y-72880454D01*
X117139777Y-72684219D01*
X116981003Y-72515722D01*
X116792408Y-72381438D01*
X116581239Y-72286527D01*
X116514114Y-72266171D01*
X116332000Y-72327703D01*
X116078000Y-72327703D01*
X115895886Y-72266171D01*
X115828761Y-72286527D01*
X115617592Y-72381438D01*
X115428997Y-72515722D01*
X115270223Y-72684219D01*
X115147372Y-72880454D01*
X115065165Y-73096885D01*
X114935000Y-73096885D01*
X114935000Y-70612000D01*
X115024000Y-70612000D01*
X115024000Y-71012000D01*
X115071469Y-71239961D01*
X115162499Y-71454281D01*
X115293592Y-71646724D01*
X115459709Y-71809895D01*
X115654468Y-71937522D01*
X115870383Y-72024702D01*
X115895886Y-72024829D01*
X116078000Y-71963297D01*
X116078000Y-70612000D01*
X116332000Y-70612000D01*
X116332000Y-71963297D01*
X116514114Y-72024829D01*
X116539617Y-72024702D01*
X116755532Y-71937522D01*
X116950291Y-71809895D01*
X117116408Y-71646724D01*
X117247501Y-71454281D01*
X117338531Y-71239961D01*
X117386000Y-71012000D01*
X117386000Y-70612000D01*
X116332000Y-70612000D01*
X116078000Y-70612000D01*
X115024000Y-70612000D01*
X114935000Y-70612000D01*
X114935000Y-69958000D01*
X115024000Y-69958000D01*
X115024000Y-70358000D01*
X116078000Y-70358000D01*
X116078000Y-69006703D01*
X116332000Y-69006703D01*
X116332000Y-70358000D01*
X117386000Y-70358000D01*
X117386000Y-69958000D01*
X117338531Y-69730039D01*
X117247501Y-69515719D01*
X117116408Y-69323276D01*
X116950291Y-69160105D01*
X116755532Y-69032478D01*
X116539617Y-68945298D01*
X116514114Y-68945171D01*
X116332000Y-69006703D01*
X116078000Y-69006703D01*
X115895886Y-68945171D01*
X115870383Y-68945298D01*
X115654468Y-69032478D01*
X115459709Y-69160105D01*
X115293592Y-69323276D01*
X115162499Y-69515719D01*
X115071469Y-69730039D01*
X115024000Y-69958000D01*
X114935000Y-69958000D01*
X114935000Y-69842000D01*
X114933914Y-69825423D01*
X114916877Y-69696013D01*
X114908296Y-69663989D01*
X114858346Y-69543399D01*
X114841768Y-69514687D01*
X114762308Y-69411134D01*
X114738866Y-69387692D01*
X114635313Y-69308232D01*
X114606601Y-69291654D01*
X114508293Y-69250933D01*
X114504134Y-69245866D01*
X114324303Y-69098283D01*
X114119136Y-68988619D01*
X113896516Y-68921088D01*
X113665000Y-68898286D01*
X113433485Y-68921088D01*
X113210865Y-68988619D01*
X113005698Y-69098283D01*
X112863477Y-69215000D01*
X111926524Y-69215000D01*
X111784303Y-69098283D01*
X111579136Y-68988619D01*
X111356516Y-68921088D01*
X111125000Y-68898286D01*
X110893485Y-68921088D01*
X110670865Y-68988619D01*
X110465698Y-69098283D01*
X110323477Y-69215000D01*
X109386524Y-69215000D01*
X109244303Y-69098283D01*
X109039136Y-68988619D01*
X108816516Y-68921088D01*
X108585000Y-68898286D01*
X108353485Y-68921088D01*
X108130865Y-68988619D01*
X107925698Y-69098283D01*
X107783477Y-69215000D01*
X106846524Y-69215000D01*
X106704303Y-69098283D01*
X106499136Y-68988619D01*
X106276516Y-68921088D01*
X106045000Y-68898286D01*
X105813485Y-68921088D01*
X105590865Y-68988619D01*
X105385698Y-69098283D01*
X105243477Y-69215000D01*
X104306524Y-69215000D01*
X104164303Y-69098283D01*
X103959136Y-68988619D01*
X103736516Y-68921088D01*
X103505000Y-68898286D01*
X103273485Y-68921088D01*
X103050865Y-68988619D01*
X102845698Y-69098283D01*
X102703477Y-69215000D01*
X81071442Y-69215000D01*
X80975922Y-69196000D01*
X80822078Y-69196000D01*
X80726558Y-69215000D01*
X80510000Y-69215000D01*
X80493423Y-69216086D01*
X80364013Y-69233123D01*
X80331989Y-69241704D01*
X80211399Y-69291654D01*
X80182687Y-69308232D01*
X80079134Y-69387692D01*
X80055692Y-69411134D01*
X79976232Y-69514687D01*
X79959654Y-69543399D01*
X79909704Y-69663989D01*
X79901123Y-69696013D01*
X79884086Y-69825423D01*
X79883000Y-69842000D01*
X79883000Y-71698551D01*
X79869689Y-71694513D01*
X79795000Y-71687157D01*
X79717250Y-71689000D01*
X79622000Y-71784250D01*
X79622000Y-72943000D01*
X79642000Y-72943000D01*
X79642000Y-73197000D01*
X79622000Y-73197000D01*
X79622000Y-74355750D01*
X79717250Y-74451000D01*
X79795000Y-74452843D01*
X79849248Y-74447500D01*
X79832077Y-74488955D01*
X79772976Y-74565976D01*
X79695955Y-74625077D01*
X79606257Y-74662231D01*
X79501672Y-74676000D01*
X78613328Y-74676000D01*
X78508743Y-74662231D01*
X78419045Y-74625077D01*
X78342024Y-74565976D01*
X78282923Y-74488955D01*
X78267256Y-74451130D01*
X78272750Y-74451000D01*
X78368000Y-74355750D01*
X78368000Y-73197000D01*
X78622000Y-73197000D01*
X78622000Y-74355750D01*
X78717250Y-74451000D01*
X78795000Y-74452843D01*
X78869689Y-74445487D01*
X78941508Y-74423701D01*
X78995000Y-74395108D01*
X79048492Y-74423701D01*
X79120311Y-74445487D01*
X79195000Y-74452843D01*
X79272750Y-74451000D01*
X79368000Y-74355750D01*
X79368000Y-73197000D01*
X78622000Y-73197000D01*
X78368000Y-73197000D01*
X78348000Y-73197000D01*
X78348000Y-72943000D01*
X78368000Y-72943000D01*
X78368000Y-71784250D01*
X78622000Y-71784250D01*
X78622000Y-72943000D01*
X79368000Y-72943000D01*
X79368000Y-71784250D01*
X79272750Y-71689000D01*
X79195000Y-71687157D01*
X79120311Y-71694513D01*
X79048492Y-71716299D01*
X78995000Y-71744892D01*
X78941508Y-71716299D01*
X78869689Y-71694513D01*
X78795000Y-71687157D01*
X78717250Y-71689000D01*
X78622000Y-71784250D01*
X78368000Y-71784250D01*
X78272750Y-71689000D01*
X78232000Y-71688034D01*
X78232000Y-68580328D01*
X78245769Y-68475743D01*
X78266373Y-68426000D01*
X117440627Y-68426000D01*
X117461231Y-68475743D01*
G37*
G04 #@! TD.AperFunction*
M02*
