%TF.GenerationSoftware,KiCad,Pcbnew,(5.1.12)-1*%
%TF.CreationDate,2022-02-28T21:35:26+00:00*%
%TF.ProjectId,RGBtoHDMI CDTV v2 - Face Plate - Lite,52474274-6f48-4444-9d49-204344545620,1*%
%TF.SameCoordinates,Original*%
%TF.FileFunction,Legend,Top*%
%TF.FilePolarity,Positive*%
%FSLAX46Y46*%
G04 Gerber Fmt 4.6, Leading zero omitted, Abs format (unit mm)*
G04 Created by KiCad (PCBNEW (5.1.12)-1) date 2022-02-28 21:35:26*
%MOMM*%
%LPD*%
G01*
G04 APERTURE LIST*
%ADD10C,0.100000*%
%ADD11C,0.150000*%
%ADD12C,0.200000*%
G04 APERTURE END LIST*
D10*
X152009571Y-86834657D02*
X152466714Y-86834657D01*
X152238142Y-87063228D02*
X152238142Y-86606085D01*
X153038142Y-86463228D02*
X152752428Y-86463228D01*
X152723857Y-86748942D01*
X152752428Y-86720371D01*
X152809571Y-86691800D01*
X152952428Y-86691800D01*
X153009571Y-86720371D01*
X153038142Y-86748942D01*
X153066714Y-86806085D01*
X153066714Y-86948942D01*
X153038142Y-87006085D01*
X153009571Y-87034657D01*
X152952428Y-87063228D01*
X152809571Y-87063228D01*
X152752428Y-87034657D01*
X152723857Y-87006085D01*
X153238142Y-86463228D02*
X153438142Y-87063228D01*
X153638142Y-86463228D01*
X154863857Y-86491800D02*
X154806714Y-86463228D01*
X154721000Y-86463228D01*
X154635285Y-86491800D01*
X154578142Y-86548942D01*
X154549571Y-86606085D01*
X154521000Y-86720371D01*
X154521000Y-86806085D01*
X154549571Y-86920371D01*
X154578142Y-86977514D01*
X154635285Y-87034657D01*
X154721000Y-87063228D01*
X154778142Y-87063228D01*
X154863857Y-87034657D01*
X154892428Y-87006085D01*
X154892428Y-86806085D01*
X154778142Y-86806085D01*
X155149571Y-87063228D02*
X155149571Y-86463228D01*
X155492428Y-87063228D01*
X155492428Y-86463228D01*
X155778142Y-87063228D02*
X155778142Y-86463228D01*
X155921000Y-86463228D01*
X156006714Y-86491800D01*
X156063857Y-86548942D01*
X156092428Y-86606085D01*
X156121000Y-86720371D01*
X156121000Y-86806085D01*
X156092428Y-86920371D01*
X156063857Y-86977514D01*
X156006714Y-87034657D01*
X155921000Y-87063228D01*
X155778142Y-87063228D01*
X157327666Y-86408466D02*
X157727666Y-86408466D01*
X157527666Y-87108466D02*
X157527666Y-86408466D01*
X157894333Y-86408466D02*
X158361000Y-87108466D01*
X158361000Y-86408466D02*
X157894333Y-87108466D01*
X160030333Y-87108466D02*
X159797000Y-86775133D01*
X159630333Y-87108466D02*
X159630333Y-86408466D01*
X159897000Y-86408466D01*
X159963666Y-86441800D01*
X159997000Y-86475133D01*
X160030333Y-86541800D01*
X160030333Y-86641800D01*
X159997000Y-86708466D01*
X159963666Y-86741800D01*
X159897000Y-86775133D01*
X159630333Y-86775133D01*
X160263666Y-86408466D02*
X160730333Y-87108466D01*
X160730333Y-86408466D02*
X160263666Y-87108466D01*
D11*
X152194190Y-88720561D02*
X152337047Y-88768180D01*
X152575142Y-88768180D01*
X152670380Y-88720561D01*
X152718000Y-88672942D01*
X152765619Y-88577704D01*
X152765619Y-88482466D01*
X152718000Y-88387228D01*
X152670380Y-88339609D01*
X152575142Y-88291990D01*
X152384666Y-88244371D01*
X152289428Y-88196752D01*
X152241809Y-88149133D01*
X152194190Y-88053895D01*
X152194190Y-87958657D01*
X152241809Y-87863419D01*
X152289428Y-87815800D01*
X152384666Y-87768180D01*
X152622761Y-87768180D01*
X152765619Y-87815800D01*
X153575142Y-88720561D02*
X153479904Y-88768180D01*
X153289428Y-88768180D01*
X153194190Y-88720561D01*
X153146571Y-88625323D01*
X153146571Y-88244371D01*
X153194190Y-88149133D01*
X153289428Y-88101514D01*
X153479904Y-88101514D01*
X153575142Y-88149133D01*
X153622761Y-88244371D01*
X153622761Y-88339609D01*
X153146571Y-88434847D01*
X154051333Y-88768180D02*
X154051333Y-88101514D01*
X154051333Y-88291990D02*
X154098952Y-88196752D01*
X154146571Y-88149133D01*
X154241809Y-88101514D01*
X154337047Y-88101514D01*
X154670380Y-88768180D02*
X154670380Y-88101514D01*
X154670380Y-87768180D02*
X154622761Y-87815800D01*
X154670380Y-87863419D01*
X154718000Y-87815800D01*
X154670380Y-87768180D01*
X154670380Y-87863419D01*
X155575142Y-88768180D02*
X155575142Y-88244371D01*
X155527523Y-88149133D01*
X155432285Y-88101514D01*
X155241809Y-88101514D01*
X155146571Y-88149133D01*
X155575142Y-88720561D02*
X155479904Y-88768180D01*
X155241809Y-88768180D01*
X155146571Y-88720561D01*
X155098952Y-88625323D01*
X155098952Y-88530085D01*
X155146571Y-88434847D01*
X155241809Y-88387228D01*
X155479904Y-88387228D01*
X155575142Y-88339609D01*
X156194190Y-88768180D02*
X156098952Y-88720561D01*
X156051333Y-88625323D01*
X156051333Y-87768180D01*
X157527523Y-87768180D02*
X157718000Y-87768180D01*
X157813238Y-87815800D01*
X157908476Y-87911038D01*
X157956095Y-88101514D01*
X157956095Y-88434847D01*
X157908476Y-88625323D01*
X157813238Y-88720561D01*
X157718000Y-88768180D01*
X157527523Y-88768180D01*
X157432285Y-88720561D01*
X157337047Y-88625323D01*
X157289428Y-88434847D01*
X157289428Y-88101514D01*
X157337047Y-87911038D01*
X157432285Y-87815800D01*
X157527523Y-87768180D01*
X158813238Y-88101514D02*
X158813238Y-88768180D01*
X158384666Y-88101514D02*
X158384666Y-88625323D01*
X158432285Y-88720561D01*
X158527523Y-88768180D01*
X158670380Y-88768180D01*
X158765619Y-88720561D01*
X158813238Y-88672942D01*
X159289428Y-88101514D02*
X159289428Y-89101514D01*
X159289428Y-88149133D02*
X159384666Y-88101514D01*
X159575142Y-88101514D01*
X159670380Y-88149133D01*
X159718000Y-88196752D01*
X159765619Y-88291990D01*
X159765619Y-88577704D01*
X159718000Y-88672942D01*
X159670380Y-88720561D01*
X159575142Y-88768180D01*
X159384666Y-88768180D01*
X159289428Y-88720561D01*
X160622761Y-88101514D02*
X160622761Y-88768180D01*
X160194190Y-88101514D02*
X160194190Y-88625323D01*
X160241809Y-88720561D01*
X160337047Y-88768180D01*
X160479904Y-88768180D01*
X160575142Y-88720561D01*
X160622761Y-88672942D01*
X160956095Y-88101514D02*
X161337047Y-88101514D01*
X161098952Y-87768180D02*
X161098952Y-88625323D01*
X161146571Y-88720561D01*
X161241809Y-88768180D01*
X161337047Y-88768180D01*
D12*
X140875000Y-89657228D02*
X141636904Y-89657228D01*
X141255952Y-90038180D02*
X141255952Y-89276276D01*
X142017857Y-89038180D02*
X142636904Y-89038180D01*
X142303571Y-89419133D01*
X142446428Y-89419133D01*
X142541666Y-89466752D01*
X142589285Y-89514371D01*
X142636904Y-89609609D01*
X142636904Y-89847704D01*
X142589285Y-89942942D01*
X142541666Y-89990561D01*
X142446428Y-90038180D01*
X142160714Y-90038180D01*
X142065476Y-89990561D01*
X142017857Y-89942942D01*
X143065476Y-89942942D02*
X143113095Y-89990561D01*
X143065476Y-90038180D01*
X143017857Y-89990561D01*
X143065476Y-89942942D01*
X143065476Y-90038180D01*
X143446428Y-89038180D02*
X144065476Y-89038180D01*
X143732142Y-89419133D01*
X143875000Y-89419133D01*
X143970238Y-89466752D01*
X144017857Y-89514371D01*
X144065476Y-89609609D01*
X144065476Y-89847704D01*
X144017857Y-89942942D01*
X143970238Y-89990561D01*
X143875000Y-90038180D01*
X143589285Y-90038180D01*
X143494047Y-89990561D01*
X143446428Y-89942942D01*
X144351190Y-89038180D02*
X144684523Y-90038180D01*
X145017857Y-89038180D01*
X132572285Y-89657228D02*
X133334190Y-89657228D01*
X132953238Y-90038180D02*
X132953238Y-89276276D01*
X134286571Y-89038180D02*
X133810380Y-89038180D01*
X133762761Y-89514371D01*
X133810380Y-89466752D01*
X133905619Y-89419133D01*
X134143714Y-89419133D01*
X134238952Y-89466752D01*
X134286571Y-89514371D01*
X134334190Y-89609609D01*
X134334190Y-89847704D01*
X134286571Y-89942942D01*
X134238952Y-89990561D01*
X134143714Y-90038180D01*
X133905619Y-90038180D01*
X133810380Y-89990561D01*
X133762761Y-89942942D01*
X134619904Y-89038180D02*
X134953238Y-90038180D01*
X135286571Y-89038180D01*
X103030857Y-80584561D02*
X102364190Y-79632180D01*
X101888000Y-80584561D02*
X101888000Y-78584561D01*
X102649904Y-78584561D01*
X102840380Y-78679800D01*
X102935619Y-78775038D01*
X103030857Y-78965514D01*
X103030857Y-79251228D01*
X102935619Y-79441704D01*
X102840380Y-79536942D01*
X102649904Y-79632180D01*
X101888000Y-79632180D01*
X104935619Y-78679800D02*
X104745142Y-78584561D01*
X104459428Y-78584561D01*
X104173714Y-78679800D01*
X103983238Y-78870276D01*
X103888000Y-79060752D01*
X103792761Y-79441704D01*
X103792761Y-79727419D01*
X103888000Y-80108371D01*
X103983238Y-80298847D01*
X104173714Y-80489323D01*
X104459428Y-80584561D01*
X104649904Y-80584561D01*
X104935619Y-80489323D01*
X105030857Y-80394085D01*
X105030857Y-79727419D01*
X104649904Y-79727419D01*
X106554666Y-79536942D02*
X106840380Y-79632180D01*
X106935619Y-79727419D01*
X107030857Y-79917895D01*
X107030857Y-80203609D01*
X106935619Y-80394085D01*
X106840380Y-80489323D01*
X106649904Y-80584561D01*
X105888000Y-80584561D01*
X105888000Y-78584561D01*
X106554666Y-78584561D01*
X106745142Y-78679800D01*
X106840380Y-78775038D01*
X106935619Y-78965514D01*
X106935619Y-79155990D01*
X106840380Y-79346466D01*
X106745142Y-79441704D01*
X106554666Y-79536942D01*
X105888000Y-79536942D01*
X107602285Y-79251228D02*
X108364190Y-79251228D01*
X107888000Y-78584561D02*
X107888000Y-80298847D01*
X107983238Y-80489323D01*
X108173714Y-80584561D01*
X108364190Y-80584561D01*
X109316571Y-80584561D02*
X109126095Y-80489323D01*
X109030857Y-80394085D01*
X108935619Y-80203609D01*
X108935619Y-79632180D01*
X109030857Y-79441704D01*
X109126095Y-79346466D01*
X109316571Y-79251228D01*
X109602285Y-79251228D01*
X109792761Y-79346466D01*
X109888000Y-79441704D01*
X109983238Y-79632180D01*
X109983238Y-80203609D01*
X109888000Y-80394085D01*
X109792761Y-80489323D01*
X109602285Y-80584561D01*
X109316571Y-80584561D01*
X110840380Y-80584561D02*
X110840380Y-78584561D01*
X110840380Y-79536942D02*
X111983238Y-79536942D01*
X111983238Y-80584561D02*
X111983238Y-78584561D01*
X112935619Y-80584561D02*
X112935619Y-78584561D01*
X113411809Y-78584561D01*
X113697523Y-78679800D01*
X113888000Y-78870276D01*
X113983238Y-79060752D01*
X114078476Y-79441704D01*
X114078476Y-79727419D01*
X113983238Y-80108371D01*
X113888000Y-80298847D01*
X113697523Y-80489323D01*
X113411809Y-80584561D01*
X112935619Y-80584561D01*
X114935619Y-80584561D02*
X114935619Y-78584561D01*
X115602285Y-80013133D01*
X116268952Y-78584561D01*
X116268952Y-80584561D01*
X117221333Y-80584561D02*
X117221333Y-78584561D01*
X120840380Y-80394085D02*
X120745142Y-80489323D01*
X120459428Y-80584561D01*
X120268952Y-80584561D01*
X119983238Y-80489323D01*
X119792761Y-80298847D01*
X119697523Y-80108371D01*
X119602285Y-79727419D01*
X119602285Y-79441704D01*
X119697523Y-79060752D01*
X119792761Y-78870276D01*
X119983238Y-78679800D01*
X120268952Y-78584561D01*
X120459428Y-78584561D01*
X120745142Y-78679800D01*
X120840380Y-78775038D01*
X121697523Y-80584561D02*
X121697523Y-78584561D01*
X122173714Y-78584561D01*
X122459428Y-78679800D01*
X122649904Y-78870276D01*
X122745142Y-79060752D01*
X122840380Y-79441704D01*
X122840380Y-79727419D01*
X122745142Y-80108371D01*
X122649904Y-80298847D01*
X122459428Y-80489323D01*
X122173714Y-80584561D01*
X121697523Y-80584561D01*
X123411809Y-78584561D02*
X124554666Y-78584561D01*
X123983238Y-80584561D02*
X123983238Y-78584561D01*
X124935619Y-78584561D02*
X125602285Y-80584561D01*
X126268952Y-78584561D01*
X128268952Y-79251228D02*
X128745142Y-80584561D01*
X129221333Y-79251228D01*
X129887999Y-78775038D02*
X129983238Y-78679800D01*
X130173714Y-78584561D01*
X130649904Y-78584561D01*
X130840380Y-78679800D01*
X130935619Y-78775038D01*
X131030857Y-78965514D01*
X131030857Y-79155990D01*
X130935619Y-79441704D01*
X129792761Y-80584561D01*
X131030857Y-80584561D01*
X134364190Y-80584561D02*
X133411809Y-80584561D01*
X133411809Y-78584561D01*
X135030857Y-80584561D02*
X135030857Y-79251228D01*
X135030857Y-78584561D02*
X134935619Y-78679800D01*
X135030857Y-78775038D01*
X135126095Y-78679800D01*
X135030857Y-78584561D01*
X135030857Y-78775038D01*
X135697523Y-79251228D02*
X136459428Y-79251228D01*
X135983238Y-78584561D02*
X135983238Y-80298847D01*
X136078476Y-80489323D01*
X136268952Y-80584561D01*
X136459428Y-80584561D01*
X137888000Y-80489323D02*
X137697523Y-80584561D01*
X137316571Y-80584561D01*
X137126095Y-80489323D01*
X137030857Y-80298847D01*
X137030857Y-79536942D01*
X137126095Y-79346466D01*
X137316571Y-79251228D01*
X137697523Y-79251228D01*
X137888000Y-79346466D01*
X137983238Y-79536942D01*
X137983238Y-79727419D01*
X137030857Y-79917895D01*
X78190190Y-89411895D02*
X78190190Y-88111895D01*
X78190190Y-88730942D02*
X78933047Y-88730942D01*
X78933047Y-89411895D02*
X78933047Y-88111895D01*
X79552095Y-89411895D02*
X79552095Y-88111895D01*
X79861619Y-88111895D01*
X80047333Y-88173800D01*
X80171142Y-88297609D01*
X80233047Y-88421419D01*
X80294952Y-88669038D01*
X80294952Y-88854752D01*
X80233047Y-89102371D01*
X80171142Y-89226180D01*
X80047333Y-89349990D01*
X79861619Y-89411895D01*
X79552095Y-89411895D01*
X80852095Y-89411895D02*
X80852095Y-88111895D01*
X81285428Y-89040466D01*
X81718761Y-88111895D01*
X81718761Y-89411895D01*
X82337809Y-89411895D02*
X82337809Y-88111895D01*
D10*
%TO.C,solarmon*%
X117475000Y-69900800D02*
X119380000Y-69900800D01*
X118110000Y-69265800D02*
X118110000Y-74345800D01*
X121285000Y-70535800D02*
X117475000Y-70535800D01*
X117475000Y-70535800D02*
X117475000Y-69900800D01*
X118110000Y-69265800D02*
X121285000Y-69265800D01*
X119380000Y-69265800D02*
X119380000Y-69900800D01*
X120015000Y-69265800D02*
X120015000Y-69900800D01*
X120015000Y-69900800D02*
X120650000Y-69900800D01*
X120650000Y-69265800D02*
X120650000Y-69900800D01*
X121285000Y-69265800D02*
X121285000Y-74345800D01*
X118745000Y-70535800D02*
X118745000Y-71170800D01*
X118745000Y-71170800D02*
X120015000Y-71170800D01*
X119380000Y-70535800D02*
X119380000Y-71805800D01*
X120015000Y-70535800D02*
X120015000Y-71170800D01*
X120650000Y-70535800D02*
X120650000Y-71170800D01*
X117475000Y-71805800D02*
X122555000Y-71805800D01*
X117475000Y-73075800D02*
X117475000Y-71805800D01*
X117475000Y-72440800D02*
X122555000Y-72440800D01*
X117475000Y-73075800D02*
X121285000Y-73075800D01*
X118110000Y-73710800D02*
X121285000Y-73710800D01*
X118745000Y-73710800D02*
X118745000Y-74345800D01*
X120650000Y-73710800D02*
X120650000Y-74345800D01*
X118110000Y-74345800D02*
X118745000Y-74345800D01*
X120650000Y-74345800D02*
X121285000Y-74345800D01*
X121920000Y-74345800D02*
X122555000Y-74345800D01*
X121920000Y-69900800D02*
X121920000Y-74345800D01*
X122555000Y-69900800D02*
X122555000Y-74345800D01*
X121920000Y-69900800D02*
X122555000Y-69900800D01*
X121920000Y-70535800D02*
X122555000Y-70535800D01*
X121920000Y-73710800D02*
X122555000Y-73710800D01*
X120015000Y-72440800D02*
X120015000Y-73075800D01*
X120650000Y-72440800D02*
X120650000Y-73075800D01*
G36*
X120015000Y-71170800D02*
G01*
X119380000Y-71170800D01*
X119380000Y-70535800D01*
X120015000Y-70535800D01*
X120015000Y-71170800D01*
G37*
X120015000Y-71170800D02*
X119380000Y-71170800D01*
X119380000Y-70535800D01*
X120015000Y-70535800D01*
X120015000Y-71170800D01*
G36*
X121285000Y-71170800D02*
G01*
X120650000Y-71170800D01*
X120650000Y-70535800D01*
X121285000Y-70535800D01*
X121285000Y-71170800D01*
G37*
X121285000Y-71170800D02*
X120650000Y-71170800D01*
X120650000Y-70535800D01*
X121285000Y-70535800D01*
X121285000Y-71170800D01*
G36*
X120650000Y-73075800D02*
G01*
X120015000Y-73075800D01*
X120015000Y-72440800D01*
X120650000Y-72440800D01*
X120650000Y-73075800D01*
G37*
X120650000Y-73075800D02*
X120015000Y-73075800D01*
X120015000Y-72440800D01*
X120650000Y-72440800D01*
X120650000Y-73075800D01*
X120650000Y-71170800D02*
X121285000Y-71170800D01*
D11*
X116753095Y-75753861D02*
X116848333Y-75801480D01*
X117038809Y-75801480D01*
X117134047Y-75753861D01*
X117181666Y-75658623D01*
X117181666Y-75611004D01*
X117134047Y-75515766D01*
X117038809Y-75468147D01*
X116895952Y-75468147D01*
X116800714Y-75420528D01*
X116753095Y-75325290D01*
X116753095Y-75277671D01*
X116800714Y-75182433D01*
X116895952Y-75134814D01*
X117038809Y-75134814D01*
X117134047Y-75182433D01*
X117753095Y-75801480D02*
X117657857Y-75753861D01*
X117610238Y-75706242D01*
X117562619Y-75611004D01*
X117562619Y-75325290D01*
X117610238Y-75230052D01*
X117657857Y-75182433D01*
X117753095Y-75134814D01*
X117895952Y-75134814D01*
X117991190Y-75182433D01*
X118038809Y-75230052D01*
X118086428Y-75325290D01*
X118086428Y-75611004D01*
X118038809Y-75706242D01*
X117991190Y-75753861D01*
X117895952Y-75801480D01*
X117753095Y-75801480D01*
X118657857Y-75801480D02*
X118562619Y-75753861D01*
X118515000Y-75658623D01*
X118515000Y-74801480D01*
X119467380Y-75801480D02*
X119467380Y-75277671D01*
X119419761Y-75182433D01*
X119324523Y-75134814D01*
X119134047Y-75134814D01*
X119038809Y-75182433D01*
X119467380Y-75753861D02*
X119372142Y-75801480D01*
X119134047Y-75801480D01*
X119038809Y-75753861D01*
X118991190Y-75658623D01*
X118991190Y-75563385D01*
X119038809Y-75468147D01*
X119134047Y-75420528D01*
X119372142Y-75420528D01*
X119467380Y-75372909D01*
X119943571Y-75801480D02*
X119943571Y-75134814D01*
X119943571Y-75325290D02*
X119991190Y-75230052D01*
X120038809Y-75182433D01*
X120134047Y-75134814D01*
X120229285Y-75134814D01*
X120562619Y-75801480D02*
X120562619Y-75134814D01*
X120562619Y-75230052D02*
X120610238Y-75182433D01*
X120705476Y-75134814D01*
X120848333Y-75134814D01*
X120943571Y-75182433D01*
X120991190Y-75277671D01*
X120991190Y-75801480D01*
X120991190Y-75277671D02*
X121038809Y-75182433D01*
X121134047Y-75134814D01*
X121276904Y-75134814D01*
X121372142Y-75182433D01*
X121419761Y-75277671D01*
X121419761Y-75801480D01*
X122038809Y-75801480D02*
X121943571Y-75753861D01*
X121895952Y-75706242D01*
X121848333Y-75611004D01*
X121848333Y-75325290D01*
X121895952Y-75230052D01*
X121943571Y-75182433D01*
X122038809Y-75134814D01*
X122181666Y-75134814D01*
X122276904Y-75182433D01*
X122324523Y-75230052D01*
X122372142Y-75325290D01*
X122372142Y-75611004D01*
X122324523Y-75706242D01*
X122276904Y-75753861D01*
X122181666Y-75801480D01*
X122038809Y-75801480D01*
X122800714Y-75134814D02*
X122800714Y-75801480D01*
X122800714Y-75230052D02*
X122848333Y-75182433D01*
X122943571Y-75134814D01*
X123086428Y-75134814D01*
X123181666Y-75182433D01*
X123229285Y-75277671D01*
X123229285Y-75801480D01*
%TO.C,UP*%
D12*
X122995428Y-91355171D02*
X122995428Y-92569457D01*
X123066857Y-92712314D01*
X123138285Y-92783742D01*
X123281142Y-92855171D01*
X123566857Y-92855171D01*
X123709714Y-92783742D01*
X123781142Y-92712314D01*
X123852571Y-92569457D01*
X123852571Y-91355171D01*
X124566857Y-92855171D02*
X124566857Y-91355171D01*
X125138285Y-91355171D01*
X125281142Y-91426600D01*
X125352571Y-91498028D01*
X125424000Y-91640885D01*
X125424000Y-91855171D01*
X125352571Y-91998028D01*
X125281142Y-92069457D01*
X125138285Y-92140885D01*
X124566857Y-92140885D01*
%TO.C,DOWN*%
X108652571Y-92918671D02*
X108652571Y-91418671D01*
X109009714Y-91418671D01*
X109224000Y-91490100D01*
X109366857Y-91632957D01*
X109438285Y-91775814D01*
X109509714Y-92061528D01*
X109509714Y-92275814D01*
X109438285Y-92561528D01*
X109366857Y-92704385D01*
X109224000Y-92847242D01*
X109009714Y-92918671D01*
X108652571Y-92918671D01*
X110438285Y-91418671D02*
X110724000Y-91418671D01*
X110866857Y-91490100D01*
X111009714Y-91632957D01*
X111081142Y-91918671D01*
X111081142Y-92418671D01*
X111009714Y-92704385D01*
X110866857Y-92847242D01*
X110724000Y-92918671D01*
X110438285Y-92918671D01*
X110295428Y-92847242D01*
X110152571Y-92704385D01*
X110081142Y-92418671D01*
X110081142Y-91918671D01*
X110152571Y-91632957D01*
X110295428Y-91490100D01*
X110438285Y-91418671D01*
X111581142Y-91418671D02*
X111938285Y-92918671D01*
X112224000Y-91847242D01*
X112509714Y-92918671D01*
X112866857Y-91418671D01*
X113438285Y-92918671D02*
X113438285Y-91418671D01*
X114295428Y-92918671D01*
X114295428Y-91418671D01*
%TO.C,SELECT*%
X95059714Y-92732942D02*
X95274000Y-92804371D01*
X95631142Y-92804371D01*
X95774000Y-92732942D01*
X95845428Y-92661514D01*
X95916857Y-92518657D01*
X95916857Y-92375800D01*
X95845428Y-92232942D01*
X95774000Y-92161514D01*
X95631142Y-92090085D01*
X95345428Y-92018657D01*
X95202571Y-91947228D01*
X95131142Y-91875800D01*
X95059714Y-91732942D01*
X95059714Y-91590085D01*
X95131142Y-91447228D01*
X95202571Y-91375800D01*
X95345428Y-91304371D01*
X95702571Y-91304371D01*
X95916857Y-91375800D01*
X96559714Y-92018657D02*
X97059714Y-92018657D01*
X97274000Y-92804371D02*
X96559714Y-92804371D01*
X96559714Y-91304371D01*
X97274000Y-91304371D01*
X98631142Y-92804371D02*
X97916857Y-92804371D01*
X97916857Y-91304371D01*
X99131142Y-92018657D02*
X99631142Y-92018657D01*
X99845428Y-92804371D02*
X99131142Y-92804371D01*
X99131142Y-91304371D01*
X99845428Y-91304371D01*
X101345428Y-92661514D02*
X101274000Y-92732942D01*
X101059714Y-92804371D01*
X100916857Y-92804371D01*
X100702571Y-92732942D01*
X100559714Y-92590085D01*
X100488285Y-92447228D01*
X100416857Y-92161514D01*
X100416857Y-91947228D01*
X100488285Y-91661514D01*
X100559714Y-91518657D01*
X100702571Y-91375800D01*
X100916857Y-91304371D01*
X101059714Y-91304371D01*
X101274000Y-91375800D01*
X101345428Y-91447228D01*
X101774000Y-91304371D02*
X102631142Y-91304371D01*
X102202571Y-92804371D02*
X102202571Y-91304371D01*
%TD*%
M02*
