  0
SECTION
  2
HEADER
  9
$ANGBASE
  50
0.0
  9
$ANGDIR
  70
1
  9
$MEASUREMENT
  70
1
  0
ENDSEC
  0
SECTION
  2
TABLES
  0
TABLE
  2
LTYPE
  70
4
  0
LTYPE
  5
40F
  2
CONTINUOUS
  70
0
  3
Solid line
  72
65
  73
0
  40
0.0
  0
LTYPE
  5
410
  2
DASHDOT
 70
0
  3
Dash Dot ____ _ ____ _
 72
65
 73
4
 40
2.0
 49
1.25
 49
-0.25
 49
0.25
 49
-0.25
  0
LTYPE
  5
411
  2
DASHED
 70
0
  3
Dashed __ __ __ __ __
 72
65
 73
2
 40
0.75
 49
0.5
 49
-0.25
  0
LTYPE
  5
43B
  2
DOTTED
 70
0
  3
Dotted .  .  .  .
 72
65
 73
2
 40
0.2
 49
0.0
 49
-0.2
  0
ENDTAB
  0
TABLE
  2
STYLE
  70
4
  0
STYLE
  2
KICAD
  70
0
  40
0
  41
1
  42
1
  50
0
  71
0
  3
isocp.shx
  0
STYLE
  2
KICADB
  70
0
  40
0
  41
1
  42
1
  50
0
  71
0
  3
isocp.shx
  0
STYLE
  2
KICADI
  70
0
  40
0
  41
1
  42
1
  50
15
  71
0
  3
isocp.shx
  0
STYLE
  2
KICADBI
  70
0
  40
0
  41
1
  42
1
  50
15
  71
0
  3
isocp.shx
  0
ENDTAB
  0
TABLE
  2
LAYER
  70
1
  0
LAYER
  2
BLACK
  70
0
  62
7
  6
CONTINUOUS
  0
ENDTAB
  0
ENDSEC
  0
SECTION
  2
ENTITIES
0
LINE
8
BLACK
6
CONTINUOUS
10
70.2274
20
-61.2235
11
70.2274
21
-61.2232
0
LINE
8
BLACK
6
CONTINUOUS
10
70.2274
20
-61.2232
11
70.2274
21
-61.2228
0
LINE
8
BLACK
6
CONTINUOUS
10
70.2274
20
-61.2228
11
70.2285
21
-61.2136
0
LINE
8
BLACK
6
CONTINUOUS
10
70.2285
20
-61.2136
11
70.2296
21
-61.2041
0
LINE
8
BLACK
6
CONTINUOUS
10
70.2296
20
-61.2041
11
70.2297
21
-61.2038
0
LINE
8
BLACK
6
CONTINUOUS
10
70.2297
20
-61.2038
11
70.2297
21
-61.2035
0
LINE
8
BLACK
6
CONTINUOUS
10
70.2297
20
-61.2035
11
70.2326
21
-61.1946
0
LINE
8
BLACK
6
CONTINUOUS
10
70.2326
20
-61.1946
11
70.2355
21
-61.1855
0
LINE
8
BLACK
6
CONTINUOUS
10
70.2355
20
-61.1855
11
70.2357
21
-61.1852
0
LINE
8
BLACK
6
CONTINUOUS
10
70.2357
20
-61.1852
11
70.2358
21
-61.1849
0
LINE
8
BLACK
6
CONTINUOUS
10
70.2358
20
-61.1849
11
70.2404
21
-61.1767
0
LINE
8
BLACK
6
CONTINUOUS
10
70.2404
20
-61.1767
11
70.2449
21
-61.1684
0
LINE
8
BLACK
6
CONTINUOUS
10
70.2449
20
-61.1684
11
70.2451
21
-61.1682
0
LINE
8
BLACK
6
CONTINUOUS
10
70.2451
20
-61.1682
11
70.2453
21
-61.1679
0
LINE
8
BLACK
6
CONTINUOUS
10
70.2453
20
-61.1679
11
70.2514
21
-61.1607
0
LINE
8
BLACK
6
CONTINUOUS
10
70.2514
20
-61.1607
11
70.2574
21
-61.1535
0
LINE
8
BLACK
6
CONTINUOUS
10
70.2574
20
-61.1535
11
70.2577
21
-61.1533
0
LINE
8
BLACK
6
CONTINUOUS
10
70.2577
20
-61.1533
11
70.2579
21
-61.153
0
LINE
8
BLACK
6
CONTINUOUS
10
70.2579
20
-61.153
11
71.1819
21
-60.2606
0
LINE
8
BLACK
6
CONTINUOUS
10
71.1819
20
-60.2606
11
71.1829
21
-60.2596
0
LINE
8
BLACK
6
CONTINUOUS
10
71.1829
20
-60.2596
11
71.1895
21
-60.2545
0
LINE
8
BLACK
6
CONTINUOUS
10
71.1895
20
-60.2545
11
71.196
21
-60.2492
0
LINE
8
BLACK
6
CONTINUOUS
10
71.196
20
-60.2492
11
71.1972
21
-60.2485
0
LINE
8
BLACK
6
CONTINUOUS
10
71.1972
20
-60.2485
11
71.1983
21
-60.2477
0
LINE
8
BLACK
6
CONTINUOUS
10
71.1983
20
-60.2477
11
71.2059
21
-60.244
0
LINE
8
BLACK
6
CONTINUOUS
10
71.2059
20
-60.244
11
71.2132
21
-60.24
0
LINE
8
BLACK
6
CONTINUOUS
10
71.2132
20
-60.24
11
71.2146
21
-60.2396
0
LINE
8
BLACK
6
CONTINUOUS
10
71.2146
20
-60.2396
11
71.2158
21
-60.239
0
LINE
8
BLACK
6
CONTINUOUS
10
71.2158
20
-60.239
11
71.2239
21
-60.2368
0
LINE
8
BLACK
6
CONTINUOUS
10
71.2239
20
-60.2368
11
71.2319
21
-60.2344
0
LINE
8
BLACK
6
CONTINUOUS
10
71.2319
20
-60.2344
11
71.2333
21
-60.2343
0
LINE
8
BLACK
6
CONTINUOUS
10
71.2333
20
-60.2343
11
71.2347
21
-60.2339
0
LINE
8
BLACK
6
CONTINUOUS
10
71.2347
20
-60.2339
11
71.243
21
-60.2333
0
LINE
8
BLACK
6
CONTINUOUS
10
71.243
20
-60.2333
11
71.2513
21
-60.2325
0
LINE
8
BLACK
6
CONTINUOUS
10
71.2513
20
-60.2325
11
167.781
21
-60.2198
0
LINE
8
BLACK
6
CONTINUOUS
10
167.781
20
-60.2198
11
167.783
21
-60.2198
0
LINE
8
BLACK
6
CONTINUOUS
10
167.783
20
-60.2198
11
167.783
21
-60.2199
0
LINE
8
BLACK
6
CONTINUOUS
10
167.783
20
-60.2199
11
167.784
21
-60.2198
0
LINE
8
BLACK
6
CONTINUOUS
10
167.784
20
-60.2198
11
167.793
21
-60.2209
0
LINE
8
BLACK
6
CONTINUOUS
10
167.793
20
-60.2209
11
167.802
21
-60.222
0
LINE
8
BLACK
6
CONTINUOUS
10
167.802
20
-60.222
11
167.803
21
-60.2221
0
LINE
8
BLACK
6
CONTINUOUS
10
167.803
20
-60.2221
11
167.803
21
-60.2221
0
LINE
8
BLACK
6
CONTINUOUS
10
167.803
20
-60.2221
11
167.812
21
-60.225
0
LINE
8
BLACK
6
CONTINUOUS
10
167.812
20
-60.225
11
167.821
21
-60.2279
0
LINE
8
BLACK
6
CONTINUOUS
10
167.821
20
-60.2279
11
167.821
21
-60.2281
0
LINE
8
BLACK
6
CONTINUOUS
10
167.821
20
-60.2281
11
167.822
21
-60.2282
0
LINE
8
BLACK
6
CONTINUOUS
10
167.822
20
-60.2282
11
167.83
21
-60.2328
0
LINE
8
BLACK
6
CONTINUOUS
10
167.83
20
-60.2328
11
167.838
21
-60.2373
0
LINE
8
BLACK
6
CONTINUOUS
10
167.838
20
-60.2373
11
167.838
21
-60.2375
0
LINE
8
BLACK
6
CONTINUOUS
10
167.838
20
-60.2375
11
167.839
21
-60.2377
0
LINE
8
BLACK
6
CONTINUOUS
10
167.839
20
-60.2377
11
167.846
21
-60.2439
0
LINE
8
BLACK
6
CONTINUOUS
10
167.846
20
-60.2439
11
167.853
21
-60.2498
0
LINE
8
BLACK
6
CONTINUOUS
10
167.853
20
-60.2498
11
167.853
21
-60.2501
0
LINE
8
BLACK
6
CONTINUOUS
10
167.853
20
-60.2501
11
167.853
21
-60.2503
0
LINE
8
BLACK
6
CONTINUOUS
10
167.853
20
-60.2503
11
168.746
21
-61.1743
0
LINE
8
BLACK
6
CONTINUOUS
10
168.746
20
-61.1743
11
168.747
21
-61.1753
0
LINE
8
BLACK
6
CONTINUOUS
10
168.747
20
-61.1753
11
168.752
21
-61.1819
0
LINE
8
BLACK
6
CONTINUOUS
10
168.752
20
-61.1819
11
168.757
21
-61.1884
0
LINE
8
BLACK
6
CONTINUOUS
10
168.757
20
-61.1884
11
168.758
21
-61.1896
0
LINE
8
BLACK
6
CONTINUOUS
10
168.758
20
-61.1896
11
168.759
21
-61.1907
0
LINE
8
BLACK
6
CONTINUOUS
10
168.759
20
-61.1907
11
168.762
21
-61.1982
0
LINE
8
BLACK
6
CONTINUOUS
10
168.762
20
-61.1982
11
168.766
21
-61.2056
0
LINE
8
BLACK
6
CONTINUOUS
10
168.766
20
-61.2056
11
168.767
21
-61.207
0
LINE
8
BLACK
6
CONTINUOUS
10
168.767
20
-61.207
11
168.767
21
-61.2082
0
LINE
8
BLACK
6
CONTINUOUS
10
168.767
20
-61.2082
11
168.77
21
-61.2163
0
LINE
8
BLACK
6
CONTINUOUS
10
168.77
20
-61.2163
11
168.772
21
-61.2243
0
LINE
8
BLACK
6
CONTINUOUS
10
168.772
20
-61.2243
11
168.772
21
-61.2257
0
LINE
8
BLACK
6
CONTINUOUS
10
168.772
20
-61.2257
11
168.772
21
-61.227
0
LINE
8
BLACK
6
CONTINUOUS
10
168.772
20
-61.227
11
168.773
21
-61.2354
0
LINE
8
BLACK
6
CONTINUOUS
10
168.773
20
-61.2354
11
168.774
21
-61.2437
0
LINE
8
BLACK
6
CONTINUOUS
10
168.774
20
-61.2437
11
168.774
21
-98.7824
0
LINE
8
BLACK
6
CONTINUOUS
10
168.774
20
-98.7824
11
168.774
21
-98.7838
0
LINE
8
BLACK
6
CONTINUOUS
10
168.774
20
-98.7838
11
168.774
21
-98.7841
0
LINE
8
BLACK
6
CONTINUOUS
10
168.774
20
-98.7841
11
168.774
21
-98.7844
0
LINE
8
BLACK
6
CONTINUOUS
10
168.774
20
-98.7844
11
168.773
21
-98.7938
0
LINE
8
BLACK
6
CONTINUOUS
10
168.773
20
-98.7938
11
168.772
21
-98.8032
0
LINE
8
BLACK
6
CONTINUOUS
10
168.772
20
-98.8032
11
168.772
21
-98.8035
0
LINE
8
BLACK
6
CONTINUOUS
10
168.772
20
-98.8035
11
168.772
21
-98.8038
0
LINE
8
BLACK
6
CONTINUOUS
10
168.772
20
-98.8038
11
168.769
21
-98.8128
0
LINE
8
BLACK
6
CONTINUOUS
10
168.769
20
-98.8128
11
168.766
21
-98.8218
0
LINE
8
BLACK
6
CONTINUOUS
10
168.766
20
-98.8218
11
168.766
21
-98.8221
0
LINE
8
BLACK
6
CONTINUOUS
10
168.766
20
-98.8221
11
168.766
21
-98.8224
0
LINE
8
BLACK
6
CONTINUOUS
10
168.766
20
-98.8224
11
168.761
21
-98.8307
0
LINE
8
BLACK
6
CONTINUOUS
10
168.761
20
-98.8307
11
168.756
21
-98.8389
0
LINE
8
BLACK
6
CONTINUOUS
10
168.756
20
-98.8389
11
168.756
21
-98.8391
0
LINE
8
BLACK
6
CONTINUOUS
10
168.756
20
-98.8391
11
168.756
21
-98.8394
0
LINE
8
BLACK
6
CONTINUOUS
10
168.756
20
-98.8394
11
168.75
21
-98.8467
0
LINE
8
BLACK
6
CONTINUOUS
10
168.75
20
-98.8467
11
168.744
21
-98.8538
0
LINE
8
BLACK
6
CONTINUOUS
10
168.744
20
-98.8538
11
168.744
21
-98.854
0
LINE
8
BLACK
6
CONTINUOUS
10
168.744
20
-98.854
11
168.743
21
-98.8543
0
LINE
8
BLACK
6
CONTINUOUS
10
168.743
20
-98.8543
11
167.819
21
-99.7467
0
LINE
8
BLACK
6
CONTINUOUS
10
167.819
20
-99.7467
11
167.818
21
-99.7477
0
LINE
8
BLACK
6
CONTINUOUS
10
167.818
20
-99.7477
11
167.812
21
-99.7528
0
LINE
8
BLACK
6
CONTINUOUS
10
167.812
20
-99.7528
11
167.805
21
-99.7581
0
LINE
8
BLACK
6
CONTINUOUS
10
167.805
20
-99.7581
11
167.804
21
-99.7587
0
LINE
8
BLACK
6
CONTINUOUS
10
167.804
20
-99.7587
11
167.803
21
-99.7596
0
LINE
8
BLACK
6
CONTINUOUS
10
167.803
20
-99.7596
11
167.795
21
-99.7633
0
LINE
8
BLACK
6
CONTINUOUS
10
167.795
20
-99.7633
11
167.788
21
-99.7673
0
LINE
8
BLACK
6
CONTINUOUS
10
167.788
20
-99.7673
11
167.787
21
-99.7677
0
LINE
8
BLACK
6
CONTINUOUS
10
167.787
20
-99.7677
11
167.785
21
-99.7683
0
LINE
8
BLACK
6
CONTINUOUS
10
167.785
20
-99.7683
11
167.777
21
-99.7705
0
LINE
8
BLACK
6
CONTINUOUS
10
167.777
20
-99.7705
11
167.769
21
-99.7729
0
LINE
8
BLACK
6
CONTINUOUS
10
167.769
20
-99.7729
11
167.768
21
-99.773
0
LINE
8
BLACK
6
CONTINUOUS
10
167.768
20
-99.773
11
167.767
21
-99.7734
0
LINE
8
BLACK
6
CONTINUOUS
10
167.767
20
-99.7734
11
167.758
21
-99.774
0
LINE
8
BLACK
6
CONTINUOUS
10
167.758
20
-99.774
11
167.75
21
-99.7748
0
LINE
8
BLACK
6
CONTINUOUS
10
167.75
20
-99.7748
11
71.2198
21
-99.7748
0
LINE
8
BLACK
6
CONTINUOUS
10
71.2198
20
-99.7748
11
71.2184
21
-99.7748
0
LINE
8
BLACK
6
CONTINUOUS
10
71.2184
20
-99.7748
11
71.2181
21
-99.7748
0
LINE
8
BLACK
6
CONTINUOUS
10
71.2181
20
-99.7748
11
71.2177
21
-99.7748
0
LINE
8
BLACK
6
CONTINUOUS
10
71.2177
20
-99.7748
11
71.2085
21
-99.7737
0
LINE
8
BLACK
6
CONTINUOUS
10
71.2085
20
-99.7737
11
71.199
21
-99.7726
0
LINE
8
BLACK
6
CONTINUOUS
10
71.199
20
-99.7726
11
71.1987
21
-99.7725
0
LINE
8
BLACK
6
CONTINUOUS
10
71.1987
20
-99.7725
11
71.1984
21
-99.7725
0
LINE
8
BLACK
6
CONTINUOUS
10
71.1984
20
-99.7725
11
71.1895
21
-99.7696
0
LINE
8
BLACK
6
CONTINUOUS
10
71.1895
20
-99.7696
11
71.1804
21
-99.7667
0
LINE
8
BLACK
6
CONTINUOUS
10
71.1804
20
-99.7667
11
71.1801
21
-99.7665
0
LINE
8
BLACK
6
CONTINUOUS
10
71.1801
20
-99.7665
11
71.1798
21
-99.7664
0
LINE
8
BLACK
6
CONTINUOUS
10
71.1798
20
-99.7664
11
71.1716
21
-99.7618
0
LINE
8
BLACK
6
CONTINUOUS
10
71.1716
20
-99.7618
11
71.1633
21
-99.7573
0
LINE
8
BLACK
6
CONTINUOUS
10
71.1633
20
-99.7573
11
71.1631
21
-99.7571
0
LINE
8
BLACK
6
CONTINUOUS
10
71.1631
20
-99.7571
11
71.1628
21
-99.7569
0
LINE
8
BLACK
6
CONTINUOUS
10
71.1628
20
-99.7569
11
71.1556
21
-99.7508
0
LINE
8
BLACK
6
CONTINUOUS
10
71.1556
20
-99.7508
11
71.1484
21
-99.7448
0
LINE
8
BLACK
6
CONTINUOUS
10
71.1484
20
-99.7448
11
71.1482
21
-99.7445
0
LINE
8
BLACK
6
CONTINUOUS
10
71.1482
20
-99.7445
11
71.1479
21
-99.7443
0
LINE
8
BLACK
6
CONTINUOUS
10
71.1479
20
-99.7443
11
70.2555
21
-98.8203
0
LINE
8
BLACK
6
CONTINUOUS
10
70.2555
20
-98.8203
11
70.2545
21
-98.8193
0
LINE
8
BLACK
6
CONTINUOUS
10
70.2545
20
-98.8193
11
70.2494
21
-98.8127
0
LINE
8
BLACK
6
CONTINUOUS
10
70.2494
20
-98.8127
11
70.2441
21
-98.8062
0
LINE
8
BLACK
6
CONTINUOUS
10
70.2441
20
-98.8062
11
70.2435
21
-98.805
0
LINE
8
BLACK
6
CONTINUOUS
10
70.2435
20
-98.805
11
70.2426
21
-98.8039
0
LINE
8
BLACK
6
CONTINUOUS
10
70.2426
20
-98.8039
11
70.2389
21
-98.7964
0
LINE
8
BLACK
6
CONTINUOUS
10
70.2389
20
-98.7964
11
70.2349
21
-98.789
0
LINE
8
BLACK
6
CONTINUOUS
10
70.2349
20
-98.789
11
70.2345
21
-98.7876
0
LINE
8
BLACK
6
CONTINUOUS
10
70.2345
20
-98.7876
11
70.2339
21
-98.7864
0
LINE
8
BLACK
6
CONTINUOUS
10
70.2339
20
-98.7864
11
70.2317
21
-98.7783
0
LINE
8
BLACK
6
CONTINUOUS
10
70.2317
20
-98.7783
11
70.2293
21
-98.7703
0
LINE
8
BLACK
6
CONTINUOUS
10
70.2293
20
-98.7703
11
70.2292
21
-98.7689
0
LINE
8
BLACK
6
CONTINUOUS
10
70.2292
20
-98.7689
11
70.2288
21
-98.7676
0
LINE
8
BLACK
6
CONTINUOUS
10
70.2288
20
-98.7676
11
70.2282
21
-98.7592
0
LINE
8
BLACK
6
CONTINUOUS
10
70.2282
20
-98.7592
11
70.2274
21
-98.7509
0
LINE
8
BLACK
6
CONTINUOUS
10
70.2274
20
-98.7509
11
70.2274
21
-61.2249
0
LINE
8
BLACK
6
CONTINUOUS
10
70.2274
20
-61.2249
11
70.2274
21
-61.2235
0
LINE
8
BLACK
6
CONTINUOUS
10
149.302
20
-93.3738
11
148.954
21
-93.443
0
LINE
8
BLACK
6
CONTINUOUS
10
148.954
20
-93.443
11
148.626
21
-93.5787
0
LINE
8
BLACK
6
CONTINUOUS
10
148.626
20
-93.5787
11
148.332
21
-93.7756
0
LINE
8
BLACK
6
CONTINUOUS
10
148.332
20
-93.7756
11
148.081
21
-94.0264
0
LINE
8
BLACK
6
CONTINUOUS
10
148.081
20
-94.0264
11
147.884
21
-94.3212
0
LINE
8
BLACK
6
CONTINUOUS
10
147.884
20
-94.3212
11
147.748
21
-94.6488
0
LINE
8
BLACK
6
CONTINUOUS
10
147.748
20
-94.6488
11
147.679
21
-94.9965
0
LINE
8
BLACK
6
CONTINUOUS
10
147.679
20
-94.9965
11
147.679
21
-95.3511
0
LINE
8
BLACK
6
CONTINUOUS
10
147.679
20
-95.3511
11
147.748
21
-95.6988
0
LINE
8
BLACK
6
CONTINUOUS
10
147.748
20
-95.6988
11
147.884
21
-96.0264
0
LINE
8
BLACK
6
CONTINUOUS
10
147.884
20
-96.0264
11
148.081
21
-96.3212
0
LINE
8
BLACK
6
CONTINUOUS
10
148.081
20
-96.3212
11
148.332
21
-96.572
0
LINE
8
BLACK
6
CONTINUOUS
10
148.332
20
-96.572
11
148.626
21
-96.7689
0
LINE
8
BLACK
6
CONTINUOUS
10
148.626
20
-96.7689
11
148.954
21
-96.9046
0
LINE
8
BLACK
6
CONTINUOUS
10
148.954
20
-96.9046
11
149.302
21
-96.9738
0
LINE
8
BLACK
6
CONTINUOUS
10
149.302
20
-96.9738
11
149.656
21
-96.9738
0
LINE
8
BLACK
6
CONTINUOUS
10
149.656
20
-96.9738
11
150.004
21
-96.9046
0
LINE
8
BLACK
6
CONTINUOUS
10
150.004
20
-96.9046
11
150.332
21
-96.7689
0
LINE
8
BLACK
6
CONTINUOUS
10
150.332
20
-96.7689
11
150.626
21
-96.572
0
LINE
8
BLACK
6
CONTINUOUS
10
150.626
20
-96.572
11
150.877
21
-96.3212
0
LINE
8
BLACK
6
CONTINUOUS
10
150.877
20
-96.3212
11
151.074
21
-96.0264
0
LINE
8
BLACK
6
CONTINUOUS
10
151.074
20
-96.0264
11
151.21
21
-95.6988
0
LINE
8
BLACK
6
CONTINUOUS
10
151.21
20
-95.6988
11
151.279
21
-95.3511
0
LINE
8
BLACK
6
CONTINUOUS
10
151.279
20
-95.3511
11
151.279
21
-94.9965
0
LINE
8
BLACK
6
CONTINUOUS
10
151.279
20
-94.9965
11
151.21
21
-94.6488
0
LINE
8
BLACK
6
CONTINUOUS
10
151.21
20
-94.6488
11
151.074
21
-94.3212
0
LINE
8
BLACK
6
CONTINUOUS
10
151.074
20
-94.3212
11
150.877
21
-94.0264
0
LINE
8
BLACK
6
CONTINUOUS
10
150.877
20
-94.0264
11
150.626
21
-93.7756
0
LINE
8
BLACK
6
CONTINUOUS
10
150.626
20
-93.7756
11
150.332
21
-93.5787
0
LINE
8
BLACK
6
CONTINUOUS
10
150.332
20
-93.5787
11
150.004
21
-93.443
0
LINE
8
BLACK
6
CONTINUOUS
10
150.004
20
-93.443
11
149.656
21
-93.3738
0
LINE
8
BLACK
6
CONTINUOUS
10
149.656
20
-93.3738
11
149.302
21
-93.3738
0
LINE
8
BLACK
6
CONTINUOUS
10
91.2404
20
-94.6107
11
91.1047
21
-94.2831
0
LINE
8
BLACK
6
CONTINUOUS
10
91.1047
20
-94.2831
11
90.9077
21
-93.9883
0
LINE
8
BLACK
6
CONTINUOUS
10
90.9077
20
-93.9883
11
90.657
21
-93.7375
0
LINE
8
BLACK
6
CONTINUOUS
10
90.657
20
-93.7375
11
90.3622
21
-93.5406
0
LINE
8
BLACK
6
CONTINUOUS
10
90.3622
20
-93.5406
11
90.0346
21
-93.4049
0
LINE
8
BLACK
6
CONTINUOUS
10
90.0346
20
-93.4049
11
89.6869
21
-93.3357
0
LINE
8
BLACK
6
CONTINUOUS
10
89.6869
20
-93.3357
11
89.3323
21
-93.3357
0
LINE
8
BLACK
6
CONTINUOUS
10
89.3323
20
-93.3357
11
88.9846
21
-93.4049
0
LINE
8
BLACK
6
CONTINUOUS
10
88.9846
20
-93.4049
11
88.657
21
-93.5406
0
LINE
8
BLACK
6
CONTINUOUS
10
88.657
20
-93.5406
11
88.3622
21
-93.7375
0
LINE
8
BLACK
6
CONTINUOUS
10
88.3622
20
-93.7375
11
88.1114
21
-93.9883
0
LINE
8
BLACK
6
CONTINUOUS
10
88.1114
20
-93.9883
11
87.9145
21
-94.2831
0
LINE
8
BLACK
6
CONTINUOUS
10
87.9145
20
-94.2831
11
87.7788
21
-94.6107
0
LINE
8
BLACK
6
CONTINUOUS
10
87.7788
20
-94.6107
11
87.7096
21
-94.9584
0
LINE
8
BLACK
6
CONTINUOUS
10
87.7096
20
-94.9584
11
87.7096
21
-95.313
0
LINE
8
BLACK
6
CONTINUOUS
10
87.7096
20
-95.313
11
87.7788
21
-95.6607
0
LINE
8
BLACK
6
CONTINUOUS
10
87.7788
20
-95.6607
11
87.9145
21
-95.9883
0
LINE
8
BLACK
6
CONTINUOUS
10
87.9145
20
-95.9883
11
88.1114
21
-96.2831
0
LINE
8
BLACK
6
CONTINUOUS
10
88.1114
20
-96.2831
11
88.3622
21
-96.5339
0
LINE
8
BLACK
6
CONTINUOUS
10
88.3622
20
-96.5339
11
88.657
21
-96.7308
0
LINE
8
BLACK
6
CONTINUOUS
10
88.657
20
-96.7308
11
88.9846
21
-96.8665
0
LINE
8
BLACK
6
CONTINUOUS
10
88.9846
20
-96.8665
11
89.3323
21
-96.9357
0
LINE
8
BLACK
6
CONTINUOUS
10
89.3323
20
-96.9357
11
89.6869
21
-96.9357
0
LINE
8
BLACK
6
CONTINUOUS
10
89.6869
20
-96.9357
11
90.0346
21
-96.8665
0
LINE
8
BLACK
6
CONTINUOUS
10
90.0346
20
-96.8665
11
90.3622
21
-96.7308
0
LINE
8
BLACK
6
CONTINUOUS
10
90.3622
20
-96.7308
11
90.657
21
-96.5339
0
LINE
8
BLACK
6
CONTINUOUS
10
90.657
20
-96.5339
11
90.9077
21
-96.2831
0
LINE
8
BLACK
6
CONTINUOUS
10
90.9077
20
-96.2831
11
91.1047
21
-95.9883
0
LINE
8
BLACK
6
CONTINUOUS
10
91.1047
20
-95.9883
11
91.2404
21
-95.6607
0
LINE
8
BLACK
6
CONTINUOUS
10
91.2404
20
-95.6607
11
91.3096
21
-95.313
0
LINE
8
BLACK
6
CONTINUOUS
10
91.3096
20
-95.313
11
91.3096
21
-94.9584
0
LINE
8
BLACK
6
CONTINUOUS
10
91.3096
20
-94.9584
11
91.2404
21
-94.6107
0
LINE
8
BLACK
6
CONTINUOUS
10
123.943
20
-84.9498
11
123.489
21
-85.0401
0
LINE
8
BLACK
6
CONTINUOUS
10
123.489
20
-85.0401
11
123.061
21
-85.2173
0
LINE
8
BLACK
6
CONTINUOUS
10
123.061
20
-85.2173
11
122.676
21
-85.4744
0
LINE
8
BLACK
6
CONTINUOUS
10
122.676
20
-85.4744
11
122.349
21
-85.8018
0
LINE
8
BLACK
6
CONTINUOUS
10
122.349
20
-85.8018
11
122.091
21
-86.1867
0
LINE
8
BLACK
6
CONTINUOUS
10
122.091
20
-86.1867
11
121.914
21
-86.6143
0
LINE
8
BLACK
6
CONTINUOUS
10
121.914
20
-86.6143
11
121.824
21
-87.0683
0
LINE
8
BLACK
6
CONTINUOUS
10
121.824
20
-87.0683
11
121.824
21
-87.5313
0
LINE
8
BLACK
6
CONTINUOUS
10
121.824
20
-87.5313
11
121.914
21
-87.9853
0
LINE
8
BLACK
6
CONTINUOUS
10
121.914
20
-87.9853
11
122.091
21
-88.4129
0
LINE
8
BLACK
6
CONTINUOUS
10
122.091
20
-88.4129
11
122.349
21
-88.7978
0
LINE
8
BLACK
6
CONTINUOUS
10
122.349
20
-88.7978
11
122.676
21
-89.1252
0
LINE
8
BLACK
6
CONTINUOUS
10
122.676
20
-89.1252
11
123.061
21
-89.3823
0
LINE
8
BLACK
6
CONTINUOUS
10
123.061
20
-89.3823
11
123.489
21
-89.5595
0
LINE
8
BLACK
6
CONTINUOUS
10
123.489
20
-89.5595
11
123.943
21
-89.6498
0
LINE
8
BLACK
6
CONTINUOUS
10
123.943
20
-89.6498
11
124.405
21
-89.6498
0
LINE
8
BLACK
6
CONTINUOUS
10
124.405
20
-89.6498
11
124.859
21
-89.5595
0
LINE
8
BLACK
6
CONTINUOUS
10
124.859
20
-89.5595
11
125.287
21
-89.3823
0
LINE
8
BLACK
6
CONTINUOUS
10
125.287
20
-89.3823
11
125.672
21
-89.1252
0
LINE
8
BLACK
6
CONTINUOUS
10
125.672
20
-89.1252
11
125.999
21
-88.7978
0
LINE
8
BLACK
6
CONTINUOUS
10
125.999
20
-88.7978
11
126.257
21
-88.4129
0
LINE
8
BLACK
6
CONTINUOUS
10
126.257
20
-88.4129
11
126.434
21
-87.9853
0
LINE
8
BLACK
6
CONTINUOUS
10
126.434
20
-87.9853
11
126.524
21
-87.5313
0
LINE
8
BLACK
6
CONTINUOUS
10
126.524
20
-87.5313
11
126.524
21
-87.0683
0
LINE
8
BLACK
6
CONTINUOUS
10
126.524
20
-87.0683
11
126.434
21
-86.6143
0
LINE
8
BLACK
6
CONTINUOUS
10
126.434
20
-86.6143
11
126.281
21
-86.2459
0
LINE
8
BLACK
6
CONTINUOUS
10
126.281
20
-86.2459
11
126.257
21
-86.1867
0
LINE
8
BLACK
6
CONTINUOUS
10
126.257
20
-86.1867
11
125.999
21
-85.8018
0
LINE
8
BLACK
6
CONTINUOUS
10
125.999
20
-85.8018
11
125.672
21
-85.4744
0
LINE
8
BLACK
6
CONTINUOUS
10
125.672
20
-85.4744
11
125.287
21
-85.2173
0
LINE
8
BLACK
6
CONTINUOUS
10
125.287
20
-85.2173
11
124.859
21
-85.0401
0
LINE
8
BLACK
6
CONTINUOUS
10
124.859
20
-85.0401
11
124.405
21
-84.9498
0
LINE
8
BLACK
6
CONTINUOUS
10
124.405
20
-84.9498
11
123.943
21
-84.9498
0
LINE
8
BLACK
6
CONTINUOUS
10
113.734
20
-86.5635
11
113.557
21
-86.1359
0
LINE
8
BLACK
6
CONTINUOUS
10
113.557
20
-86.1359
11
113.299
21
-85.751
0
LINE
8
BLACK
6
CONTINUOUS
10
113.299
20
-85.751
11
112.972
21
-85.4236
0
LINE
8
BLACK
6
CONTINUOUS
10
112.972
20
-85.4236
11
112.587
21
-85.1665
0
LINE
8
BLACK
6
CONTINUOUS
10
112.587
20
-85.1665
11
112.159
21
-84.9893
0
LINE
8
BLACK
6
CONTINUOUS
10
112.159
20
-84.9893
11
111.705
21
-84.899
0
LINE
8
BLACK
6
CONTINUOUS
10
111.705
20
-84.899
11
111.243
21
-84.899
0
LINE
8
BLACK
6
CONTINUOUS
10
111.243
20
-84.899
11
110.789
21
-84.9893
0
LINE
8
BLACK
6
CONTINUOUS
10
110.789
20
-84.9893
11
110.361
21
-85.1665
0
LINE
8
BLACK
6
CONTINUOUS
10
110.361
20
-85.1665
11
109.976
21
-85.4236
0
LINE
8
BLACK
6
CONTINUOUS
10
109.976
20
-85.4236
11
109.649
21
-85.751
0
LINE
8
BLACK
6
CONTINUOUS
10
109.649
20
-85.751
11
109.391
21
-86.1359
0
LINE
8
BLACK
6
CONTINUOUS
10
109.391
20
-86.1359
11
109.214
21
-86.5635
0
LINE
8
BLACK
6
CONTINUOUS
10
109.214
20
-86.5635
11
109.124
21
-87.0175
0
LINE
8
BLACK
6
CONTINUOUS
10
109.124
20
-87.0175
11
109.124
21
-87.4805
0
LINE
8
BLACK
6
CONTINUOUS
10
109.124
20
-87.4805
11
109.214
21
-87.9345
0
LINE
8
BLACK
6
CONTINUOUS
10
109.214
20
-87.9345
11
109.391
21
-88.3621
0
LINE
8
BLACK
6
CONTINUOUS
10
109.391
20
-88.3621
11
109.649
21
-88.747
0
LINE
8
BLACK
6
CONTINUOUS
10
109.649
20
-88.747
11
109.976
21
-89.0744
0
LINE
8
BLACK
6
CONTINUOUS
10
109.976
20
-89.0744
11
110.361
21
-89.3315
0
LINE
8
BLACK
6
CONTINUOUS
10
110.361
20
-89.3315
11
110.789
21
-89.5087
0
LINE
8
BLACK
6
CONTINUOUS
10
110.789
20
-89.5087
11
111.243
21
-89.599
0
LINE
8
BLACK
6
CONTINUOUS
10
111.243
20
-89.599
11
111.705
21
-89.599
0
LINE
8
BLACK
6
CONTINUOUS
10
111.705
20
-89.599
11
112.159
21
-89.5087
0
LINE
8
BLACK
6
CONTINUOUS
10
112.159
20
-89.5087
11
112.587
21
-89.3315
0
LINE
8
BLACK
6
CONTINUOUS
10
112.587
20
-89.3315
11
112.972
21
-89.0744
0
LINE
8
BLACK
6
CONTINUOUS
10
112.972
20
-89.0744
11
113.299
21
-88.747
0
LINE
8
BLACK
6
CONTINUOUS
10
113.299
20
-88.747
11
113.557
21
-88.3621
0
LINE
8
BLACK
6
CONTINUOUS
10
113.557
20
-88.3621
11
113.734
21
-87.9345
0
LINE
8
BLACK
6
CONTINUOUS
10
113.734
20
-87.9345
11
113.824
21
-87.4805
0
LINE
8
BLACK
6
CONTINUOUS
10
113.824
20
-87.4805
11
113.824
21
-87.0175
0
LINE
8
BLACK
6
CONTINUOUS
10
113.824
20
-87.0175
11
113.734
21
-86.5635
0
LINE
8
BLACK
6
CONTINUOUS
10
98.5425
20
-84.899
11
98.0885
21
-84.9893
0
LINE
8
BLACK
6
CONTINUOUS
10
98.0885
20
-84.9893
11
97.6609
21
-85.1665
0
LINE
8
BLACK
6
CONTINUOUS
10
97.6609
20
-85.1665
11
97.276
21
-85.4236
0
LINE
8
BLACK
6
CONTINUOUS
10
97.276
20
-85.4236
11
96.9486
21
-85.751
0
LINE
8
BLACK
6
CONTINUOUS
10
96.9486
20
-85.751
11
96.6915
21
-86.1359
0
LINE
8
BLACK
6
CONTINUOUS
10
96.6915
20
-86.1359
11
96.5143
21
-86.5635
0
LINE
8
BLACK
6
CONTINUOUS
10
96.5143
20
-86.5635
11
96.424
21
-87.0175
0
LINE
8
BLACK
6
CONTINUOUS
10
96.424
20
-87.0175
11
96.424
21
-87.4805
0
LINE
8
BLACK
6
CONTINUOUS
10
96.424
20
-87.4805
11
96.5143
21
-87.9345
0
LINE
8
BLACK
6
CONTINUOUS
10
96.5143
20
-87.9345
11
96.6915
21
-88.3621
0
LINE
8
BLACK
6
CONTINUOUS
10
96.6915
20
-88.3621
11
96.9486
21
-88.747
0
LINE
8
BLACK
6
CONTINUOUS
10
96.9486
20
-88.747
11
97.276
21
-89.0744
0
LINE
8
BLACK
6
CONTINUOUS
10
97.276
20
-89.0744
11
97.6609
21
-89.3315
0
LINE
8
BLACK
6
CONTINUOUS
10
97.6609
20
-89.3315
11
98.0885
21
-89.5087
0
LINE
8
BLACK
6
CONTINUOUS
10
98.0885
20
-89.5087
11
98.5425
21
-89.599
0
LINE
8
BLACK
6
CONTINUOUS
10
98.5425
20
-89.599
11
99.0055
21
-89.599
0
LINE
8
BLACK
6
CONTINUOUS
10
99.0055
20
-89.599
11
99.4595
21
-89.5087
0
LINE
8
BLACK
6
CONTINUOUS
10
99.4595
20
-89.5087
11
99.8871
21
-89.3315
0
LINE
8
BLACK
6
CONTINUOUS
10
99.8871
20
-89.3315
11
100.272
21
-89.0744
0
LINE
8
BLACK
6
CONTINUOUS
10
100.272
20
-89.0744
11
100.599
21
-88.747
0
LINE
8
BLACK
6
CONTINUOUS
10
100.599
20
-88.747
11
100.857
21
-88.3621
0
LINE
8
BLACK
6
CONTINUOUS
10
100.857
20
-88.3621
11
101.034
21
-87.9345
0
LINE
8
BLACK
6
CONTINUOUS
10
101.034
20
-87.9345
11
101.124
21
-87.4805
0
LINE
8
BLACK
6
CONTINUOUS
10
101.124
20
-87.4805
11
101.124
21
-87.0175
0
LINE
8
BLACK
6
CONTINUOUS
10
101.124
20
-87.0175
11
101.034
21
-86.5635
0
LINE
8
BLACK
6
CONTINUOUS
10
101.034
20
-86.5635
11
100.857
21
-86.1359
0
LINE
8
BLACK
6
CONTINUOUS
10
100.857
20
-86.1359
11
100.599
21
-85.751
0
LINE
8
BLACK
6
CONTINUOUS
10
100.599
20
-85.751
11
100.272
21
-85.4236
0
LINE
8
BLACK
6
CONTINUOUS
10
100.272
20
-85.4236
11
99.8871
21
-85.1665
0
LINE
8
BLACK
6
CONTINUOUS
10
99.8871
20
-85.1665
11
99.4595
21
-84.9893
0
LINE
8
BLACK
6
CONTINUOUS
10
99.4595
20
-84.9893
11
99.0055
21
-84.899
0
LINE
8
BLACK
6
CONTINUOUS
10
99.0055
20
-84.899
11
98.5425
21
-84.899
0
LINE
8
BLACK
6
CONTINUOUS
10
145.46
20
-85.9948
11
145.458
21
-85.9949
0
LINE
8
BLACK
6
CONTINUOUS
10
145.458
20
-85.9949
11
145.454
21
-85.9949
0
LINE
8
BLACK
6
CONTINUOUS
10
145.454
20
-85.9949
11
145.45
21
-85.9953
0
LINE
8
BLACK
6
CONTINUOUS
10
145.45
20
-85.9953
11
140.3
21
-85.9953
0
LINE
8
BLACK
6
CONTINUOUS
10
140.3
20
-85.9953
11
140.299
21
-85.9953
0
LINE
8
BLACK
6
CONTINUOUS
10
140.299
20
-85.9953
11
140.295
21
-85.9948
0
LINE
8
BLACK
6
CONTINUOUS
10
140.295
20
-85.9948
11
140.29
21
-85.9948
0
LINE
8
BLACK
6
CONTINUOUS
10
140.29
20
-85.9948
11
140.284
21
-85.9942
0
LINE
8
BLACK
6
CONTINUOUS
10
140.284
20
-85.9942
11
140.278
21
-85.9948
0
LINE
8
BLACK
6
CONTINUOUS
10
140.278
20
-85.9948
11
140.24
21
-85.9986
0
LINE
8
BLACK
6
CONTINUOUS
10
140.24
20
-85.9986
11
140.198
21
-86.0114
0
LINE
8
BLACK
6
CONTINUOUS
10
140.198
20
-86.0114
11
140.159
21
-86.0323
0
LINE
8
BLACK
6
CONTINUOUS
10
140.159
20
-86.0323
11
140.124
21
-86.0604
0
LINE
8
BLACK
6
CONTINUOUS
10
140.124
20
-86.0604
11
140.096
21
-86.0947
0
LINE
8
BLACK
6
CONTINUOUS
10
140.096
20
-86.0947
11
140.075
21
-86.1338
0
LINE
8
BLACK
6
CONTINUOUS
10
140.075
20
-86.1338
11
140.062
21
-86.1762
0
LINE
8
BLACK
6
CONTINUOUS
10
140.062
20
-86.1762
11
140.058
21
-86.2203
0
LINE
8
BLACK
6
CONTINUOUS
10
140.058
20
-86.2203
11
140.059
21
-86.2265
0
LINE
8
BLACK
6
CONTINUOUS
10
140.059
20
-86.2265
11
140.059
21
-86.2278
0
LINE
8
BLACK
6
CONTINUOUS
10
140.059
20
-86.2278
11
140.059
21
-86.2321
0
LINE
8
BLACK
6
CONTINUOUS
10
140.059
20
-86.2321
11
140.059
21
-86.2363
0
LINE
8
BLACK
6
CONTINUOUS
10
140.059
20
-86.2363
11
140.059
21
-88.2109
0
LINE
8
BLACK
6
CONTINUOUS
10
140.059
20
-88.2109
11
140.059
21
-88.2123
0
LINE
8
BLACK
6
CONTINUOUS
10
140.059
20
-88.2123
11
140.059
21
-88.2165
0
LINE
8
BLACK
6
CONTINUOUS
10
140.059
20
-88.2165
11
140.059
21
-88.2207
0
LINE
8
BLACK
6
CONTINUOUS
10
140.059
20
-88.2207
11
140.058
21
-88.2269
0
LINE
8
BLACK
6
CONTINUOUS
10
140.058
20
-88.2269
11
140.062
21
-88.271
0
LINE
8
BLACK
6
CONTINUOUS
10
140.062
20
-88.271
11
140.075
21
-88.3134
0
LINE
8
BLACK
6
CONTINUOUS
10
140.075
20
-88.3134
11
140.096
21
-88.3525
0
LINE
8
BLACK
6
CONTINUOUS
10
140.096
20
-88.3525
11
140.124
21
-88.3868
0
LINE
8
BLACK
6
CONTINUOUS
10
140.124
20
-88.3868
11
140.159
21
-88.4149
0
LINE
8
BLACK
6
CONTINUOUS
10
140.159
20
-88.4149
11
140.198
21
-88.4358
0
LINE
8
BLACK
6
CONTINUOUS
10
140.198
20
-88.4358
11
140.24
21
-88.4486
0
LINE
8
BLACK
6
CONTINUOUS
10
140.24
20
-88.4486
11
140.278
21
-88.4524
0
LINE
8
BLACK
6
CONTINUOUS
10
140.278
20
-88.4524
11
140.278
21
-88.4524
0
LINE
8
BLACK
6
CONTINUOUS
10
140.278
20
-88.4524
11
140.284
21
-88.453
0
LINE
8
BLACK
6
CONTINUOUS
10
140.284
20
-88.453
11
140.29
21
-88.4524
0
LINE
8
BLACK
6
CONTINUOUS
10
140.29
20
-88.4524
11
140.292
21
-88.4523
0
LINE
8
BLACK
6
CONTINUOUS
10
140.292
20
-88.4523
11
140.296
21
-88.4523
0
LINE
8
BLACK
6
CONTINUOUS
10
140.296
20
-88.4523
11
140.3
21
-88.4519
0
LINE
8
BLACK
6
CONTINUOUS
10
140.3
20
-88.4519
11
145.45
21
-88.4519
0
LINE
8
BLACK
6
CONTINUOUS
10
145.45
20
-88.4519
11
145.451
21
-88.4519
0
LINE
8
BLACK
6
CONTINUOUS
10
145.451
20
-88.4519
11
145.455
21
-88.4524
0
LINE
8
BLACK
6
CONTINUOUS
10
145.455
20
-88.4524
11
145.46
21
-88.4524
0
LINE
8
BLACK
6
CONTINUOUS
10
145.46
20
-88.4524
11
145.466
21
-88.453
0
LINE
8
BLACK
6
CONTINUOUS
10
145.466
20
-88.453
11
145.472
21
-88.4524
0
LINE
8
BLACK
6
CONTINUOUS
10
145.472
20
-88.4524
11
145.472
21
-88.4524
0
LINE
8
BLACK
6
CONTINUOUS
10
145.472
20
-88.4524
11
145.51
21
-88.4486
0
LINE
8
BLACK
6
CONTINUOUS
10
145.51
20
-88.4486
11
145.552
21
-88.4358
0
LINE
8
BLACK
6
CONTINUOUS
10
145.552
20
-88.4358
11
145.591
21
-88.4149
0
LINE
8
BLACK
6
CONTINUOUS
10
145.591
20
-88.4149
11
145.626
21
-88.3868
0
LINE
8
BLACK
6
CONTINUOUS
10
145.626
20
-88.3868
11
145.654
21
-88.3525
0
LINE
8
BLACK
6
CONTINUOUS
10
145.654
20
-88.3525
11
145.675
21
-88.3134
0
LINE
8
BLACK
6
CONTINUOUS
10
145.675
20
-88.3134
11
145.688
21
-88.271
0
LINE
8
BLACK
6
CONTINUOUS
10
145.688
20
-88.271
11
145.692
21
-88.2269
0
LINE
8
BLACK
6
CONTINUOUS
10
145.692
20
-88.2269
11
145.691
21
-88.2207
0
LINE
8
BLACK
6
CONTINUOUS
10
145.691
20
-88.2207
11
145.691
21
-88.2193
0
LINE
8
BLACK
6
CONTINUOUS
10
145.691
20
-88.2193
11
145.691
21
-88.2151
0
LINE
8
BLACK
6
CONTINUOUS
10
145.691
20
-88.2151
11
145.691
21
-88.2109
0
LINE
8
BLACK
6
CONTINUOUS
10
145.691
20
-88.2109
11
145.691
21
-86.2363
0
LINE
8
BLACK
6
CONTINUOUS
10
145.691
20
-86.2363
11
145.691
21
-86.2349
0
LINE
8
BLACK
6
CONTINUOUS
10
145.691
20
-86.2349
11
145.691
21
-86.2307
0
LINE
8
BLACK
6
CONTINUOUS
10
145.691
20
-86.2307
11
145.691
21
-86.2265
0
LINE
8
BLACK
6
CONTINUOUS
10
145.691
20
-86.2265
11
145.692
21
-86.2203
0
LINE
8
BLACK
6
CONTINUOUS
10
145.692
20
-86.2203
11
145.688
21
-86.1762
0
LINE
8
BLACK
6
CONTINUOUS
10
145.688
20
-86.1762
11
145.675
21
-86.1338
0
LINE
8
BLACK
6
CONTINUOUS
10
145.675
20
-86.1338
11
145.654
21
-86.0947
0
LINE
8
BLACK
6
CONTINUOUS
10
145.654
20
-86.0947
11
145.626
21
-86.0604
0
LINE
8
BLACK
6
CONTINUOUS
10
145.626
20
-86.0604
11
145.591
21
-86.0323
0
LINE
8
BLACK
6
CONTINUOUS
10
145.591
20
-86.0323
11
145.552
21
-86.0114
0
LINE
8
BLACK
6
CONTINUOUS
10
145.552
20
-86.0114
11
145.51
21
-85.9986
0
LINE
8
BLACK
6
CONTINUOUS
10
145.51
20
-85.9986
11
145.472
21
-85.9948
0
LINE
8
BLACK
6
CONTINUOUS
10
145.472
20
-85.9948
11
145.466
21
-85.9942
0
LINE
8
BLACK
6
CONTINUOUS
10
145.466
20
-85.9942
11
145.46
21
-85.9948
0
LINE
8
BLACK
6
CONTINUOUS
10
136.519
20
-85.9821
11
136.517
21
-85.9822
0
LINE
8
BLACK
6
CONTINUOUS
10
136.517
20
-85.9822
11
136.513
21
-85.9822
0
LINE
8
BLACK
6
CONTINUOUS
10
136.513
20
-85.9822
11
136.509
21
-85.9826
0
LINE
8
BLACK
6
CONTINUOUS
10
136.509
20
-85.9826
11
131.359
21
-85.9826
0
LINE
8
BLACK
6
CONTINUOUS
10
131.359
20
-85.9826
11
131.358
21
-85.9826
0
LINE
8
BLACK
6
CONTINUOUS
10
131.358
20
-85.9826
11
131.354
21
-85.9821
0
LINE
8
BLACK
6
CONTINUOUS
10
131.354
20
-85.9821
11
131.35
21
-85.9821
0
LINE
8
BLACK
6
CONTINUOUS
10
131.35
20
-85.9821
11
131.343
21
-85.9815
0
LINE
8
BLACK
6
CONTINUOUS
10
131.343
20
-85.9815
11
131.337
21
-85.9821
0
LINE
8
BLACK
6
CONTINUOUS
10
131.337
20
-85.9821
11
131.299
21
-85.9859
0
LINE
8
BLACK
6
CONTINUOUS
10
131.299
20
-85.9859
11
131.257
21
-85.9987
0
LINE
8
BLACK
6
CONTINUOUS
10
131.257
20
-85.9987
11
131.218
21
-86.0196
0
LINE
8
BLACK
6
CONTINUOUS
10
131.218
20
-86.0196
11
131.184
21
-86.0477
0
LINE
8
BLACK
6
CONTINUOUS
10
131.184
20
-86.0477
11
131.155
21
-86.082
0
LINE
8
BLACK
6
CONTINUOUS
10
131.155
20
-86.082
11
131.135
21
-86.1211
0
LINE
8
BLACK
6
CONTINUOUS
10
131.135
20
-86.1211
11
131.122
21
-86.1635
0
LINE
8
BLACK
6
CONTINUOUS
10
131.122
20
-86.1635
11
131.117
21
-86.2076
0
LINE
8
BLACK
6
CONTINUOUS
10
131.117
20
-86.2076
11
131.118
21
-86.2138
0
LINE
8
BLACK
6
CONTINUOUS
10
131.118
20
-86.2138
11
131.118
21
-86.2151
0
LINE
8
BLACK
6
CONTINUOUS
10
131.118
20
-86.2151
11
131.118
21
-86.2194
0
LINE
8
BLACK
6
CONTINUOUS
10
131.118
20
-86.2194
11
131.118
21
-86.2236
0
LINE
8
BLACK
6
CONTINUOUS
10
131.118
20
-86.2236
11
131.118
21
-88.1982
0
LINE
8
BLACK
6
CONTINUOUS
10
131.118
20
-88.1982
11
131.118
21
-88.1996
0
LINE
8
BLACK
6
CONTINUOUS
10
131.118
20
-88.1996
11
131.118
21
-88.2038
0
LINE
8
BLACK
6
CONTINUOUS
10
131.118
20
-88.2038
11
131.118
21
-88.208
0
LINE
8
BLACK
6
CONTINUOUS
10
131.118
20
-88.208
11
131.117
21
-88.2142
0
LINE
8
BLACK
6
CONTINUOUS
10
131.117
20
-88.2142
11
131.122
21
-88.2583
0
LINE
8
BLACK
6
CONTINUOUS
10
131.122
20
-88.2583
11
131.135
21
-88.3007
0
LINE
8
BLACK
6
CONTINUOUS
10
131.135
20
-88.3007
11
131.155
21
-88.3398
0
LINE
8
BLACK
6
CONTINUOUS
10
131.155
20
-88.3398
11
131.184
21
-88.3741
0
LINE
8
BLACK
6
CONTINUOUS
10
131.184
20
-88.3741
11
131.218
21
-88.4022
0
LINE
8
BLACK
6
CONTINUOUS
10
131.218
20
-88.4022
11
131.257
21
-88.4231
0
LINE
8
BLACK
6
CONTINUOUS
10
131.257
20
-88.4231
11
131.299
21
-88.4359
0
LINE
8
BLACK
6
CONTINUOUS
10
131.299
20
-88.4359
11
131.337
21
-88.4397
0
LINE
8
BLACK
6
CONTINUOUS
10
131.337
20
-88.4397
11
131.337
21
-88.4397
0
LINE
8
BLACK
6
CONTINUOUS
10
131.337
20
-88.4397
11
131.343
21
-88.4403
0
LINE
8
BLACK
6
CONTINUOUS
10
131.343
20
-88.4403
11
131.35
21
-88.4397
0
LINE
8
BLACK
6
CONTINUOUS
10
131.35
20
-88.4397
11
131.351
21
-88.4396
0
LINE
8
BLACK
6
CONTINUOUS
10
131.351
20
-88.4396
11
131.355
21
-88.4396
0
LINE
8
BLACK
6
CONTINUOUS
10
131.355
20
-88.4396
11
131.359
21
-88.4392
0
LINE
8
BLACK
6
CONTINUOUS
10
131.359
20
-88.4392
11
136.509
21
-88.4392
0
LINE
8
BLACK
6
CONTINUOUS
10
136.509
20
-88.4392
11
136.51
21
-88.4392
0
LINE
8
BLACK
6
CONTINUOUS
10
136.51
20
-88.4392
11
136.515
21
-88.4397
0
LINE
8
BLACK
6
CONTINUOUS
10
136.515
20
-88.4397
11
136.519
21
-88.4397
0
LINE
8
BLACK
6
CONTINUOUS
10
136.519
20
-88.4397
11
136.525
21
-88.4403
0
LINE
8
BLACK
6
CONTINUOUS
10
136.525
20
-88.4403
11
136.531
21
-88.4397
0
LINE
8
BLACK
6
CONTINUOUS
10
136.531
20
-88.4397
11
136.531
21
-88.4397
0
LINE
8
BLACK
6
CONTINUOUS
10
136.531
20
-88.4397
11
136.569
21
-88.4359
0
LINE
8
BLACK
6
CONTINUOUS
10
136.569
20
-88.4359
11
136.612
21
-88.4231
0
LINE
8
BLACK
6
CONTINUOUS
10
136.612
20
-88.4231
11
136.651
21
-88.4022
0
LINE
8
BLACK
6
CONTINUOUS
10
136.651
20
-88.4022
11
136.685
21
-88.3741
0
LINE
8
BLACK
6
CONTINUOUS
10
136.685
20
-88.3741
11
136.713
21
-88.3398
0
LINE
8
BLACK
6
CONTINUOUS
10
136.713
20
-88.3398
11
136.734
21
-88.3007
0
LINE
8
BLACK
6
CONTINUOUS
10
136.734
20
-88.3007
11
136.747
21
-88.2583
0
LINE
8
BLACK
6
CONTINUOUS
10
136.747
20
-88.2583
11
136.751
21
-88.2142
0
LINE
8
BLACK
6
CONTINUOUS
10
136.751
20
-88.2142
11
136.75
21
-88.208
0
LINE
8
BLACK
6
CONTINUOUS
10
136.75
20
-88.208
11
136.75
21
-88.2066
0
LINE
8
BLACK
6
CONTINUOUS
10
136.75
20
-88.2066
11
136.75
21
-88.2024
0
LINE
8
BLACK
6
CONTINUOUS
10
136.75
20
-88.2024
11
136.75
21
-88.1982
0
LINE
8
BLACK
6
CONTINUOUS
10
136.75
20
-88.1982
11
136.75
21
-86.2236
0
LINE
8
BLACK
6
CONTINUOUS
10
136.75
20
-86.2236
11
136.75
21
-86.2222
0
LINE
8
BLACK
6
CONTINUOUS
10
136.75
20
-86.2222
11
136.75
21
-86.218
0
LINE
8
BLACK
6
CONTINUOUS
10
136.75
20
-86.218
11
136.75
21
-86.2138
0
LINE
8
BLACK
6
CONTINUOUS
10
136.75
20
-86.2138
11
136.751
21
-86.2105
0
LINE
8
BLACK
6
CONTINUOUS
10
136.751
20
-86.2105
11
136.751
21
-86.2105
0
LINE
8
BLACK
6
CONTINUOUS
10
136.751
20
-86.2105
11
136.751
21
-86.2076
0
LINE
8
BLACK
6
CONTINUOUS
10
136.751
20
-86.2076
11
136.747
21
-86.1635
0
LINE
8
BLACK
6
CONTINUOUS
10
136.747
20
-86.1635
11
136.734
21
-86.1211
0
LINE
8
BLACK
6
CONTINUOUS
10
136.734
20
-86.1211
11
136.713
21
-86.082
0
LINE
8
BLACK
6
CONTINUOUS
10
136.713
20
-86.082
11
136.685
21
-86.0477
0
LINE
8
BLACK
6
CONTINUOUS
10
136.685
20
-86.0477
11
136.651
21
-86.0196
0
LINE
8
BLACK
6
CONTINUOUS
10
136.651
20
-86.0196
11
136.612
21
-85.9987
0
LINE
8
BLACK
6
CONTINUOUS
10
136.612
20
-85.9987
11
136.569
21
-85.9859
0
LINE
8
BLACK
6
CONTINUOUS
10
136.569
20
-85.9859
11
136.531
21
-85.9821
0
LINE
8
BLACK
6
CONTINUOUS
10
136.531
20
-85.9821
11
136.525
21
-85.9815
0
LINE
8
BLACK
6
CONTINUOUS
10
136.525
20
-85.9815
11
136.519
21
-85.9821
0
LINE
8
BLACK
6
CONTINUOUS
10
83.664
20
-73.6086
11
83.6648
21
-73.6017
0
LINE
8
BLACK
6
CONTINUOUS
10
83.6648
20
-73.6017
11
83.6641
21
-73.5816
0
LINE
8
BLACK
6
CONTINUOUS
10
83.6641
20
-73.5816
11
83.664
21
-73.5802
0
LINE
8
BLACK
6
CONTINUOUS
10
83.664
20
-73.5802
11
83.6641
21
-73.5791
0
LINE
8
BLACK
6
CONTINUOUS
10
83.6641
20
-73.5791
11
83.664
21
-73.578
0
LINE
8
BLACK
6
CONTINUOUS
10
83.664
20
-73.578
11
83.664
21
-73.5727
0
LINE
8
BLACK
6
CONTINUOUS
10
83.664
20
-73.5727
11
83.6639
21
-73.5719
0
LINE
8
BLACK
6
CONTINUOUS
10
83.6639
20
-73.5719
11
83.6638
21
-73.5705
0
LINE
8
BLACK
6
CONTINUOUS
10
83.6638
20
-73.5705
11
83.6638
21
-73.568
0
LINE
8
BLACK
6
CONTINUOUS
10
83.6638
20
-73.568
11
83.6635
21
-73.5656
0
LINE
8
BLACK
6
CONTINUOUS
10
83.6635
20
-73.5656
11
83.6631
21
-73.5536
0
LINE
8
BLACK
6
CONTINUOUS
10
83.6631
20
-73.5536
11
83.663
21
-73.5533
0
LINE
8
BLACK
6
CONTINUOUS
10
83.663
20
-73.5533
11
83.6627
21
-73.5519
0
LINE
8
BLACK
6
CONTINUOUS
10
83.6627
20
-73.5519
11
83.6619
21
-73.546
0
LINE
8
BLACK
6
CONTINUOUS
10
83.6619
20
-73.546
11
83.6608
21
-73.5401
0
LINE
8
BLACK
6
CONTINUOUS
10
83.6608
20
-73.5401
11
83.6607
21
-73.5397
0
LINE
8
BLACK
6
CONTINUOUS
10
83.6607
20
-73.5397
11
83.6573
21
-73.5282
0
LINE
8
BLACK
6
CONTINUOUS
10
83.6573
20
-73.5282
11
83.6569
21
-73.5269
0
LINE
8
BLACK
6
CONTINUOUS
10
83.6569
20
-73.5269
11
83.6564
21
-73.5245
0
LINE
8
BLACK
6
CONTINUOUS
10
83.6564
20
-73.5245
11
83.6556
21
-73.5222
0
LINE
8
BLACK
6
CONTINUOUS
10
83.6556
20
-73.5222
11
83.6529
21
-73.5105
0
LINE
8
BLACK
6
CONTINUOUS
10
83.6529
20
-73.5105
11
83.6527
21
-73.5102
0
LINE
8
BLACK
6
CONTINUOUS
10
83.6527
20
-73.5102
11
83.6521
21
-73.5089
0
LINE
8
BLACK
6
CONTINUOUS
10
83.6521
20
-73.5089
11
83.6503
21
-73.5032
0
LINE
8
BLACK
6
CONTINUOUS
10
83.6503
20
-73.5032
11
83.648
21
-73.4976
0
LINE
8
BLACK
6
CONTINUOUS
10
83.648
20
-73.4976
11
83.6479
21
-73.4973
0
LINE
8
BLACK
6
CONTINUOUS
10
83.6479
20
-73.4973
11
83.6422
21
-73.4867
0
LINE
8
BLACK
6
CONTINUOUS
10
83.6422
20
-73.4867
11
83.6416
21
-73.4855
0
LINE
8
BLACK
6
CONTINUOUS
10
83.6416
20
-73.4855
11
83.6407
21
-73.4832
0
LINE
8
BLACK
6
CONTINUOUS
10
83.6407
20
-73.4832
11
83.6394
21
-73.4811
0
LINE
8
BLACK
6
CONTINUOUS
10
83.6394
20
-73.4811
11
83.6345
21
-73.4702
0
LINE
8
BLACK
6
CONTINUOUS
10
83.6345
20
-73.4702
11
83.6342
21
-73.4699
0
LINE
8
BLACK
6
CONTINUOUS
10
83.6342
20
-73.4699
11
83.6334
21
-73.4687
0
LINE
8
BLACK
6
CONTINUOUS
10
83.6334
20
-73.4687
11
83.6305
21
-73.4635
0
LINE
8
BLACK
6
CONTINUOUS
10
83.6305
20
-73.4635
11
83.6272
21
-73.4585
0
LINE
8
BLACK
6
CONTINUOUS
10
83.6272
20
-73.4585
11
83.627
21
-73.4582
0
LINE
8
BLACK
6
CONTINUOUS
10
83.627
20
-73.4582
11
83.6194
21
-73.4489
0
LINE
8
BLACK
6
CONTINUOUS
10
83.6194
20
-73.4489
11
83.6185
21
-73.4478
0
LINE
8
BLACK
6
CONTINUOUS
10
83.6185
20
-73.4478
11
83.6172
21
-73.4458
0
LINE
8
BLACK
6
CONTINUOUS
10
83.6172
20
-73.4458
11
83.6156
21
-73.444
0
LINE
8
BLACK
6
CONTINUOUS
10
83.6156
20
-73.444
11
83.615
21
-73.4432
0
LINE
8
BLACK
6
CONTINUOUS
10
83.615
20
-73.4432
11
83.6115
21
-73.4393
0
LINE
8
BLACK
6
CONTINUOUS
10
83.6115
20
-73.4393
11
83.6106
21
-73.4382
0
LINE
8
BLACK
6
CONTINUOUS
10
83.6106
20
-73.4382
11
83.61
21
-73.4373
0
LINE
8
BLACK
6
CONTINUOUS
10
83.61
20
-73.4373
11
83.6092
21
-73.4366
0
LINE
8
BLACK
6
CONTINUOUS
10
83.6092
20
-73.4366
11
83.5966
21
-73.4212
0
LINE
8
BLACK
6
CONTINUOUS
10
83.5966
20
-73.4212
11
83.5958
21
-73.4203
0
LINE
8
BLACK
6
CONTINUOUS
10
83.5958
20
-73.4203
11
83.5904
21
-73.4153
0
LINE
8
BLACK
6
CONTINUOUS
10
83.5904
20
-73.4153
11
82.5881
21
-72.2791
0
LINE
8
BLACK
6
CONTINUOUS
10
82.5881
20
-72.2791
11
82.5834
21
-72.2747
0
LINE
8
BLACK
6
CONTINUOUS
10
82.5834
20
-72.2747
11
82.5824
21
-72.2738
0
LINE
8
BLACK
6
CONTINUOUS
10
82.5824
20
-72.2738
11
82.5819
21
-72.2732
0
LINE
8
BLACK
6
CONTINUOUS
10
82.5819
20
-72.2732
11
82.5814
21
-72.2728
0
LINE
8
BLACK
6
CONTINUOUS
10
82.5814
20
-72.2728
11
82.5173
21
-72.2096
0
LINE
8
BLACK
6
CONTINUOUS
10
82.5173
20
-72.2096
11
82.5173
21
-72.2096
0
LINE
8
BLACK
6
CONTINUOUS
10
82.5173
20
-72.2096
11
82.5173
21
-72.2096
0
LINE
8
BLACK
6
CONTINUOUS
10
82.5173
20
-72.2096
11
82.5163
21
-72.2086
0
LINE
8
BLACK
6
CONTINUOUS
10
82.5163
20
-72.2086
11
82.5106
21
-72.2016
0
LINE
8
BLACK
6
CONTINUOUS
10
82.5106
20
-72.2016
11
82.5048
21
-72.1946
0
LINE
8
BLACK
6
CONTINUOUS
10
82.5048
20
-72.1946
11
82.4695
21
-72.1428
0
LINE
8
BLACK
6
CONTINUOUS
10
82.4695
20
-72.1428
11
82.4687
21
-72.1417
0
LINE
8
BLACK
6
CONTINUOUS
10
82.4687
20
-72.1417
11
82.4645
21
-72.1337
0
LINE
8
BLACK
6
CONTINUOUS
10
82.4645
20
-72.1337
11
82.4602
21
-72.1257
0
LINE
8
BLACK
6
CONTINUOUS
10
82.4602
20
-72.1257
11
82.4328
21
-72.0614
0
LINE
8
BLACK
6
CONTINUOUS
10
82.4328
20
-72.0614
11
82.4323
21
-72.0601
0
LINE
8
BLACK
6
CONTINUOUS
10
82.4323
20
-72.0601
11
82.4303
21
-72.0535
0
LINE
8
BLACK
6
CONTINUOUS
10
82.4303
20
-72.0535
11
82.428
21
-72.0471
0
LINE
8
BLACK
6
CONTINUOUS
10
82.428
20
-72.0471
11
82.424
21
-72.0313
0
LINE
8
BLACK
6
CONTINUOUS
10
82.424
20
-72.0313
11
82.4236
21
-72.03
0
LINE
8
BLACK
6
CONTINUOUS
10
82.4236
20
-72.03
11
82.4229
21
-72.0251
0
LINE
8
BLACK
6
CONTINUOUS
10
82.4229
20
-72.0251
11
82.4126
21
-71.9883
0
LINE
8
BLACK
6
CONTINUOUS
10
82.4126
20
-71.9883
11
82.2476
21
-71.5653
0
LINE
8
BLACK
6
CONTINUOUS
10
82.2476
20
-71.5653
11
82.2326
21
-71.5357
0
LINE
8
BLACK
6
CONTINUOUS
10
82.2326
20
-71.5357
11
82.2289
21
-71.531
0
LINE
8
BLACK
6
CONTINUOUS
10
82.2289
20
-71.531
11
82.228
21
-71.5299
0
LINE
8
BLACK
6
CONTINUOUS
10
82.228
20
-71.5299
11
82.2258
21
-71.5262
0
LINE
8
BLACK
6
CONTINUOUS
10
82.2258
20
-71.5262
11
82.2231
21
-71.5229
0
LINE
8
BLACK
6
CONTINUOUS
10
82.2231
20
-71.5229
11
82.2134
21
-71.5075
0
LINE
8
BLACK
6
CONTINUOUS
10
82.2134
20
-71.5075
11
82.2053
21
-71.4973
0
LINE
8
BLACK
6
CONTINUOUS
10
82.2053
20
-71.4973
11
82.2045
21
-71.4962
0
LINE
8
BLACK
6
CONTINUOUS
10
82.2045
20
-71.4962
11
82.2026
21
-71.4931
0
LINE
8
BLACK
6
CONTINUOUS
10
82.2026
20
-71.4931
11
82.2004
21
-71.4903
0
LINE
8
BLACK
6
CONTINUOUS
10
82.2004
20
-71.4903
11
82.1934
21
-71.4798
0
LINE
8
BLACK
6
CONTINUOUS
10
82.1934
20
-71.4798
11
82.1053
21
-71.3732
0
LINE
8
BLACK
6
CONTINUOUS
10
82.1053
20
-71.3732
11
82.0879
21
-71.3559
0
LINE
8
BLACK
6
CONTINUOUS
10
82.0879
20
-71.3559
11
82.0869
21
-71.3549
0
LINE
8
BLACK
6
CONTINUOUS
10
82.0869
20
-71.3549
11
82.07
21
-71.3377
0
LINE
8
BLACK
6
CONTINUOUS
10
82.07
20
-71.3377
11
81.9628
21
-71.2503
0
LINE
8
BLACK
6
CONTINUOUS
10
81.9628
20
-71.2503
11
81.9423
21
-71.2367
0
LINE
8
BLACK
6
CONTINUOUS
10
81.9423
20
-71.2367
11
81.9412
21
-71.2359
0
LINE
8
BLACK
6
CONTINUOUS
10
81.9412
20
-71.2359
11
81.9213
21
-71.2222
0
LINE
8
BLACK
6
CONTINUOUS
10
81.9213
20
-71.2222
11
81.7991
21
-71.1573
0
LINE
8
BLACK
6
CONTINUOUS
10
81.7991
20
-71.1573
11
81.7764
21
-71.148
0
LINE
8
BLACK
6
CONTINUOUS
10
81.7764
20
-71.148
11
81.7752
21
-71.1474
0
LINE
8
BLACK
6
CONTINUOUS
10
81.7752
20
-71.1474
11
81.7529
21
-71.1379
0
LINE
8
BLACK
6
CONTINUOUS
10
81.7529
20
-71.1379
11
81.6205
21
-71.0979
0
LINE
8
BLACK
6
CONTINUOUS
10
81.6205
20
-71.0979
11
81.5965
21
-71.0932
0
LINE
8
BLACK
6
CONTINUOUS
10
81.5965
20
-71.0932
11
81.5951
21
-71.0929
0
LINE
8
BLACK
6
CONTINUOUS
10
81.5951
20
-71.0929
11
81.5951
21
-71.0929
0
LINE
8
BLACK
6
CONTINUOUS
10
81.5951
20
-71.0929
11
81.5715
21
-71.0878
0
LINE
8
BLACK
6
CONTINUOUS
10
81.5715
20
-71.0878
11
81.429
21
-71.0739
0
LINE
8
BLACK
6
CONTINUOUS
10
81.429
20
-71.0739
11
81.4289
21
-71.0739
0
LINE
8
BLACK
6
CONTINUOUS
10
81.4289
20
-71.0739
11
81.4289
21
-71.0739
0
LINE
8
BLACK
6
CONTINUOUS
10
81.4289
20
-71.0739
11
81.4181
21
-71.0728
0
LINE
8
BLACK
6
CONTINUOUS
10
81.4181
20
-71.0728
11
78.094
21
-71.0728
0
LINE
8
BLACK
6
CONTINUOUS
10
78.094
20
-71.0728
11
78.0848
21
-71.0737
0
LINE
8
BLACK
6
CONTINUOUS
10
78.0848
20
-71.0737
11
78.0834
21
-71.0738
0
LINE
8
BLACK
6
CONTINUOUS
10
78.0834
20
-71.0738
11
78.0798
21
-71.0738
0
LINE
8
BLACK
6
CONTINUOUS
10
78.0798
20
-71.0738
11
78.0766
21
-71.0741
0
LINE
8
BLACK
6
CONTINUOUS
10
78.0766
20
-71.0741
11
77.9587
21
-71.0865
0
LINE
8
BLACK
6
CONTINUOUS
10
77.9587
20
-71.0865
11
77.9346
21
-71.0914
0
LINE
8
BLACK
6
CONTINUOUS
10
77.9346
20
-71.0914
11
77.9333
21
-71.0917
0
LINE
8
BLACK
6
CONTINUOUS
10
77.9333
20
-71.0917
11
77.9332
21
-71.0917
0
LINE
8
BLACK
6
CONTINUOUS
10
77.9332
20
-71.0917
11
77.9095
21
-71.0962
0
LINE
8
BLACK
6
CONTINUOUS
10
77.9095
20
-71.0962
11
77.7971
21
-71.131
0
LINE
8
BLACK
6
CONTINUOUS
10
77.7971
20
-71.131
11
77.7744
21
-71.1406
0
LINE
8
BLACK
6
CONTINUOUS
10
77.7744
20
-71.1406
11
77.7731
21
-71.1411
0
LINE
8
BLACK
6
CONTINUOUS
10
77.7731
20
-71.1411
11
77.7731
21
-71.1411
0
LINE
8
BLACK
6
CONTINUOUS
10
77.7731
20
-71.1411
11
77.7507
21
-71.1501
0
LINE
8
BLACK
6
CONTINUOUS
10
77.7507
20
-71.1501
11
77.6472
21
-71.2061
0
LINE
8
BLACK
6
CONTINUOUS
10
77.6472
20
-71.2061
11
77.6268
21
-71.2198
0
LINE
8
BLACK
6
CONTINUOUS
10
77.6268
20
-71.2198
11
77.6257
21
-71.2206
0
LINE
8
BLACK
6
CONTINUOUS
10
77.6257
20
-71.2206
11
77.6257
21
-71.2206
0
LINE
8
BLACK
6
CONTINUOUS
10
77.6257
20
-71.2206
11
77.6055
21
-71.2338
0
LINE
8
BLACK
6
CONTINUOUS
10
77.6055
20
-71.2338
11
77.5148
21
-71.3089
0
LINE
8
BLACK
6
CONTINUOUS
10
77.5148
20
-71.3089
11
77.4975
21
-71.3263
0
LINE
8
BLACK
6
CONTINUOUS
10
77.4975
20
-71.3263
11
77.4965
21
-71.3273
0
LINE
8
BLACK
6
CONTINUOUS
10
77.4965
20
-71.3273
11
77.4792
21
-71.3442
0
LINE
8
BLACK
6
CONTINUOUS
10
77.4792
20
-71.3442
11
77.4048
21
-71.4354
0
LINE
8
BLACK
6
CONTINUOUS
10
77.4048
20
-71.4354
11
77.3912
21
-71.4559
0
LINE
8
BLACK
6
CONTINUOUS
10
77.3912
20
-71.4559
11
77.3905
21
-71.457
0
LINE
8
BLACK
6
CONTINUOUS
10
77.3905
20
-71.457
11
77.3905
21
-71.457
0
LINE
8
BLACK
6
CONTINUOUS
10
77.3905
20
-71.457
11
77.3768
21
-71.4769
0
LINE
8
BLACK
6
CONTINUOUS
10
77.3768
20
-71.4769
11
77.3215
21
-71.5809
0
LINE
8
BLACK
6
CONTINUOUS
10
77.3215
20
-71.5809
11
77.3122
21
-71.6036
0
LINE
8
BLACK
6
CONTINUOUS
10
77.3122
20
-71.6036
11
77.3117
21
-71.6049
0
LINE
8
BLACK
6
CONTINUOUS
10
77.3117
20
-71.6049
11
77.3116
21
-71.6049
0
LINE
8
BLACK
6
CONTINUOUS
10
77.3116
20
-71.6049
11
77.3021
21
-71.6271
0
LINE
8
BLACK
6
CONTINUOUS
10
77.3021
20
-71.6271
11
77.2681
21
-71.7397
0
LINE
8
BLACK
6
CONTINUOUS
10
77.2681
20
-71.7397
11
77.2633
21
-71.7639
0
LINE
8
BLACK
6
CONTINUOUS
10
77.2633
20
-71.7639
11
77.2631
21
-71.7652
0
LINE
8
BLACK
6
CONTINUOUS
10
77.2631
20
-71.7652
11
77.2631
21
-71.7652
0
LINE
8
BLACK
6
CONTINUOUS
10
77.2631
20
-71.7652
11
77.258
21
-71.7888
0
LINE
8
BLACK
6
CONTINUOUS
10
77.258
20
-71.7888
11
77.2461
21
-71.9108
0
LINE
8
BLACK
6
CONTINUOUS
10
77.2461
20
-71.9108
11
77.2461
21
-71.9109
0
LINE
8
BLACK
6
CONTINUOUS
10
77.2461
20
-71.9109
11
77.2461
21
-71.9109
0
LINE
8
BLACK
6
CONTINUOUS
10
77.2461
20
-71.9109
11
77.245
21
-71.9217
0
LINE
8
BLACK
6
CONTINUOUS
10
77.245
20
-71.9217
11
77.245
21
-86.0408
0
LINE
8
BLACK
6
CONTINUOUS
10
77.245
20
-86.0408
11
77.2459
21
-86.05
0
LINE
8
BLACK
6
CONTINUOUS
10
77.2459
20
-86.05
11
77.246
21
-86.0514
0
LINE
8
BLACK
6
CONTINUOUS
10
77.246
20
-86.0514
11
77.246
21
-86.055
0
LINE
8
BLACK
6
CONTINUOUS
10
77.246
20
-86.055
11
77.2463
21
-86.0581
0
LINE
8
BLACK
6
CONTINUOUS
10
77.2463
20
-86.0581
11
77.2587
21
-86.1761
0
LINE
8
BLACK
6
CONTINUOUS
10
77.2587
20
-86.1761
11
77.2636
21
-86.2002
0
LINE
8
BLACK
6
CONTINUOUS
10
77.2636
20
-86.2002
11
77.2639
21
-86.2016
0
LINE
8
BLACK
6
CONTINUOUS
10
77.2639
20
-86.2016
11
77.2639
21
-86.2016
0
LINE
8
BLACK
6
CONTINUOUS
10
77.2639
20
-86.2016
11
77.2684
21
-86.2253
0
LINE
8
BLACK
6
CONTINUOUS
10
77.2684
20
-86.2253
11
77.3032
21
-86.3377
0
LINE
8
BLACK
6
CONTINUOUS
10
77.3032
20
-86.3377
11
77.3128
21
-86.3604
0
LINE
8
BLACK
6
CONTINUOUS
10
77.3128
20
-86.3604
11
77.3133
21
-86.3617
0
LINE
8
BLACK
6
CONTINUOUS
10
77.3133
20
-86.3617
11
77.3223
21
-86.3841
0
LINE
8
BLACK
6
CONTINUOUS
10
77.3223
20
-86.3841
11
77.3783
21
-86.4876
0
LINE
8
BLACK
6
CONTINUOUS
10
77.3783
20
-86.4876
11
77.3921
21
-86.508
0
LINE
8
BLACK
6
CONTINUOUS
10
77.3921
20
-86.508
11
77.3928
21
-86.5091
0
LINE
8
BLACK
6
CONTINUOUS
10
77.3928
20
-86.5091
11
77.406
21
-86.5293
0
LINE
8
BLACK
6
CONTINUOUS
10
77.406
20
-86.5293
11
77.4811
21
-86.62
0
LINE
8
BLACK
6
CONTINUOUS
10
77.4811
20
-86.62
11
77.4985
21
-86.6373
0
LINE
8
BLACK
6
CONTINUOUS
10
77.4985
20
-86.6373
11
77.4995
21
-86.6383
0
LINE
8
BLACK
6
CONTINUOUS
10
77.4995
20
-86.6383
11
77.5164
21
-86.6556
0
LINE
8
BLACK
6
CONTINUOUS
10
77.5164
20
-86.6556
11
77.6076
21
-86.73
0
LINE
8
BLACK
6
CONTINUOUS
10
77.6076
20
-86.73
11
77.6281
21
-86.7436
0
LINE
8
BLACK
6
CONTINUOUS
10
77.6281
20
-86.7436
11
77.6292
21
-86.7443
0
LINE
8
BLACK
6
CONTINUOUS
10
77.6292
20
-86.7443
11
77.6292
21
-86.7443
0
LINE
8
BLACK
6
CONTINUOUS
10
77.6292
20
-86.7443
11
77.6491
21
-86.758
0
LINE
8
BLACK
6
CONTINUOUS
10
77.6491
20
-86.758
11
77.7531
21
-86.8133
0
LINE
8
BLACK
6
CONTINUOUS
10
77.7531
20
-86.8133
11
77.7758
21
-86.8226
0
LINE
8
BLACK
6
CONTINUOUS
10
77.7758
20
-86.8226
11
77.7771
21
-86.8232
0
LINE
8
BLACK
6
CONTINUOUS
10
77.7771
20
-86.8232
11
77.7771
21
-86.8232
0
LINE
8
BLACK
6
CONTINUOUS
10
77.7771
20
-86.8232
11
77.7993
21
-86.8327
0
LINE
8
BLACK
6
CONTINUOUS
10
77.7993
20
-86.8327
11
77.9119
21
-86.8667
0
LINE
8
BLACK
6
CONTINUOUS
10
77.9119
20
-86.8667
11
77.9361
21
-86.8715
0
LINE
8
BLACK
6
CONTINUOUS
10
77.9361
20
-86.8715
11
77.9374
21
-86.8717
0
LINE
8
BLACK
6
CONTINUOUS
10
77.9374
20
-86.8717
11
77.9374
21
-86.8717
0
LINE
8
BLACK
6
CONTINUOUS
10
77.9374
20
-86.8717
11
77.961
21
-86.8768
0
LINE
8
BLACK
6
CONTINUOUS
10
77.961
20
-86.8768
11
78.083
21
-86.8887
0
LINE
8
BLACK
6
CONTINUOUS
10
78.083
20
-86.8887
11
78.0831
21
-86.8887
0
LINE
8
BLACK
6
CONTINUOUS
10
78.0831
20
-86.8887
11
78.0831
21
-86.8887
0
LINE
8
BLACK
6
CONTINUOUS
10
78.0831
20
-86.8887
11
78.0939
21
-86.8898
0
LINE
8
BLACK
6
CONTINUOUS
10
78.0939
20
-86.8898
11
81.2911
21
-86.8898
0
LINE
8
BLACK
6
CONTINUOUS
10
81.2911
20
-86.8898
11
81.2918
21
-86.8897
0
LINE
8
BLACK
6
CONTINUOUS
10
81.2918
20
-86.8897
11
81.2947
21
-86.8898
0
LINE
8
BLACK
6
CONTINUOUS
10
81.2947
20
-86.8898
11
81.2976
21
-86.8894
0
LINE
8
BLACK
6
CONTINUOUS
10
81.2976
20
-86.8894
11
81.3203
21
-86.8888
0
LINE
8
BLACK
6
CONTINUOUS
10
81.3203
20
-86.8888
11
81.3332
21
-86.8872
0
LINE
8
BLACK
6
CONTINUOUS
10
81.3332
20
-86.8872
11
81.3346
21
-86.887
0
LINE
8
BLACK
6
CONTINUOUS
10
81.3346
20
-86.887
11
81.3382
21
-86.887
0
LINE
8
BLACK
6
CONTINUOUS
10
81.3382
20
-86.887
11
81.3417
21
-86.8865
0
LINE
8
BLACK
6
CONTINUOUS
10
81.3417
20
-86.8865
11
81.3543
21
-86.886
0
LINE
8
BLACK
6
CONTINUOUS
10
81.3543
20
-86.886
11
81.4911
21
-86.8652
0
LINE
8
BLACK
6
CONTINUOUS
10
81.4911
20
-86.8652
11
81.5149
21
-86.8592
0
LINE
8
BLACK
6
CONTINUOUS
10
81.5149
20
-86.8592
11
81.5162
21
-86.8589
0
LINE
8
BLACK
6
CONTINUOUS
10
81.5162
20
-86.8589
11
81.5162
21
-86.8589
0
LINE
8
BLACK
6
CONTINUOUS
10
81.5162
20
-86.8589
11
81.5162
21
-86.8589
0
LINE
8
BLACK
6
CONTINUOUS
10
81.5162
20
-86.8589
11
81.5397
21
-86.8533
0
LINE
8
BLACK
6
CONTINUOUS
10
81.5397
20
-86.8533
11
81.6698
21
-86.8063
0
LINE
8
BLACK
6
CONTINUOUS
10
81.6698
20
-86.8063
11
81.692
21
-86.7958
0
LINE
8
BLACK
6
CONTINUOUS
10
81.692
20
-86.7958
11
81.6932
21
-86.7952
0
LINE
8
BLACK
6
CONTINUOUS
10
81.6932
20
-86.7952
11
81.6932
21
-86.7952
0
LINE
8
BLACK
6
CONTINUOUS
10
81.6932
20
-86.7952
11
81.6933
21
-86.7952
0
LINE
8
BLACK
6
CONTINUOUS
10
81.6933
20
-86.7952
11
81.7152
21
-86.7851
0
LINE
8
BLACK
6
CONTINUOUS
10
81.7152
20
-86.7851
11
81.8337
21
-86.7138
0
LINE
8
BLACK
6
CONTINUOUS
10
81.8337
20
-86.7138
11
81.8534
21
-86.6992
0
LINE
8
BLACK
6
CONTINUOUS
10
81.8534
20
-86.6992
11
81.8545
21
-86.6983
0
LINE
8
BLACK
6
CONTINUOUS
10
81.8545
20
-86.6983
11
81.8546
21
-86.6983
0
LINE
8
BLACK
6
CONTINUOUS
10
81.8546
20
-86.6983
11
81.8741
21
-86.6842
0
LINE
8
BLACK
6
CONTINUOUS
10
81.8741
20
-86.6842
11
81.9765
21
-86.5912
0
LINE
8
BLACK
6
CONTINUOUS
10
81.9765
20
-86.5912
11
81.993
21
-86.573
0
LINE
8
BLACK
6
CONTINUOUS
10
81.993
20
-86.573
11
81.9939
21
-86.572
0
LINE
8
BLACK
6
CONTINUOUS
10
81.9939
20
-86.572
11
82.0104
21
-86.5543
0
LINE
8
BLACK
6
CONTINUOUS
10
82.0104
20
-86.5543
11
82.093
21
-86.443
0
LINE
8
BLACK
6
CONTINUOUS
10
82.093
20
-86.443
11
82.0938
21
-86.4418
0
LINE
8
BLACK
6
CONTINUOUS
10
82.0938
20
-86.4418
11
82.0943
21
-86.4413
0
LINE
8
BLACK
6
CONTINUOUS
10
82.0943
20
-86.4413
11
82.0947
21
-86.4407
0
LINE
8
BLACK
6
CONTINUOUS
10
82.0947
20
-86.4407
11
82.1056
21
-86.4269
0
LINE
8
BLACK
6
CONTINUOUS
10
82.1056
20
-86.4269
11
82.1206
21
-86.3973
0
LINE
8
BLACK
6
CONTINUOUS
10
82.1206
20
-86.3973
11
82.2856
21
-85.9743
0
LINE
8
BLACK
6
CONTINUOUS
10
82.2856
20
-85.9743
11
82.2876
21
-85.967
0
LINE
8
BLACK
6
CONTINUOUS
10
82.2876
20
-85.967
11
82.288
21
-85.9657
0
LINE
8
BLACK
6
CONTINUOUS
10
82.288
20
-85.9657
11
82.2882
21
-85.9653
0
LINE
8
BLACK
6
CONTINUOUS
10
82.2882
20
-85.9653
11
82.2882
21
-85.965
0
LINE
8
BLACK
6
CONTINUOUS
10
82.2882
20
-85.965
11
82.3147
21
-85.8778
0
LINE
8
BLACK
6
CONTINUOUS
10
82.3147
20
-85.8778
11
82.3147
21
-85.8778
0
LINE
8
BLACK
6
CONTINUOUS
10
82.3147
20
-85.8778
11
82.3147
21
-85.8778
0
LINE
8
BLACK
6
CONTINUOUS
10
82.3147
20
-85.8778
11
82.3152
21
-85.8765
0
LINE
8
BLACK
6
CONTINUOUS
10
82.3152
20
-85.8765
11
82.3187
21
-85.8682
0
LINE
8
BLACK
6
CONTINUOUS
10
82.3187
20
-85.8682
11
82.3222
21
-85.8598
0
LINE
8
BLACK
6
CONTINUOUS
10
82.3222
20
-85.8598
11
82.3517
21
-85.8045
0
LINE
8
BLACK
6
CONTINUOUS
10
82.3517
20
-85.8045
11
82.3524
21
-85.8033
0
LINE
8
BLACK
6
CONTINUOUS
10
82.3524
20
-85.8033
11
82.3575
21
-85.7958
0
LINE
8
BLACK
6
CONTINUOUS
10
82.3575
20
-85.7958
11
82.3626
21
-85.7883
0
LINE
8
BLACK
6
CONTINUOUS
10
82.3626
20
-85.7883
11
82.4069
21
-85.7342
0
LINE
8
BLACK
6
CONTINUOUS
10
82.4069
20
-85.7342
11
82.4078
21
-85.7331
0
LINE
8
BLACK
6
CONTINUOUS
10
82.4078
20
-85.7331
11
82.4127
21
-85.7283
0
LINE
8
BLACK
6
CONTINUOUS
10
82.4127
20
-85.7283
11
82.4173
21
-85.7233
0
LINE
8
BLACK
6
CONTINUOUS
10
82.4173
20
-85.7233
11
82.4501
21
-85.6936
0
LINE
8
BLACK
6
CONTINUOUS
10
82.4501
20
-85.6936
11
82.4504
21
-85.6935
0
LINE
8
BLACK
6
CONTINUOUS
10
82.4504
20
-85.6935
11
82.4504
21
-85.6934
0
LINE
8
BLACK
6
CONTINUOUS
10
82.4504
20
-85.6934
11
83.5839
21
-84.6781
0
LINE
8
BLACK
6
CONTINUOUS
10
83.5839
20
-84.6781
11
83.5849
21
-84.6771
0
LINE
8
BLACK
6
CONTINUOUS
10
83.5849
20
-84.6771
11
83.5861
21
-84.6763
0
LINE
8
BLACK
6
CONTINUOUS
10
83.5861
20
-84.6763
11
83.5872
21
-84.6753
0
LINE
8
BLACK
6
CONTINUOUS
10
83.5872
20
-84.6753
11
83.5989
21
-84.6657
0
LINE
8
BLACK
6
CONTINUOUS
10
83.5989
20
-84.6657
11
83.6073
21
-84.6554
0
LINE
8
BLACK
6
CONTINUOUS
10
83.6073
20
-84.6554
11
83.6082
21
-84.6544
0
LINE
8
BLACK
6
CONTINUOUS
10
83.6082
20
-84.6544
11
83.6096
21
-84.6529
0
LINE
8
BLACK
6
CONTINUOUS
10
83.6096
20
-84.6529
11
83.6109
21
-84.6513
0
LINE
8
BLACK
6
CONTINUOUS
10
83.6109
20
-84.6513
11
83.6198
21
-84.6415
0
LINE
8
BLACK
6
CONTINUOUS
10
83.6198
20
-84.6415
11
83.6201
21
-84.6411
0
LINE
8
BLACK
6
CONTINUOUS
10
83.6201
20
-84.6411
11
83.624
21
-84.636
0
LINE
8
BLACK
6
CONTINUOUS
10
83.624
20
-84.636
11
83.6266
21
-84.6322
0
LINE
8
BLACK
6
CONTINUOUS
10
83.6266
20
-84.6322
11
83.6332
21
-84.6197
0
LINE
8
BLACK
6
CONTINUOUS
10
83.6332
20
-84.6197
11
83.6339
21
-84.6185
0
LINE
8
BLACK
6
CONTINUOUS
10
83.6339
20
-84.6185
11
83.6351
21
-84.6168
0
LINE
8
BLACK
6
CONTINUOUS
10
83.6351
20
-84.6168
11
83.6359
21
-84.615
0
LINE
8
BLACK
6
CONTINUOUS
10
83.6359
20
-84.615
11
83.6428
21
-84.6036
0
LINE
8
BLACK
6
CONTINUOUS
10
83.6428
20
-84.6036
11
83.643
21
-84.6032
0
LINE
8
BLACK
6
CONTINUOUS
10
83.643
20
-84.6032
11
83.6458
21
-84.5975
0
LINE
8
BLACK
6
CONTINUOUS
10
83.6458
20
-84.5975
11
83.6476
21
-84.5931
0
LINE
8
BLACK
6
CONTINUOUS
10
83.6476
20
-84.5931
11
83.6517
21
-84.5797
0
LINE
8
BLACK
6
CONTINUOUS
10
83.6517
20
-84.5797
11
83.6521
21
-84.5783
0
LINE
8
BLACK
6
CONTINUOUS
10
83.6521
20
-84.5783
11
83.6529
21
-84.5764
0
LINE
8
BLACK
6
CONTINUOUS
10
83.6529
20
-84.5764
11
83.6535
21
-84.5744
0
LINE
8
BLACK
6
CONTINUOUS
10
83.6535
20
-84.5744
11
83.658
21
-84.562
0
LINE
8
BLACK
6
CONTINUOUS
10
83.658
20
-84.562
11
83.6581
21
-84.5615
0
LINE
8
BLACK
6
CONTINUOUS
10
83.6581
20
-84.5615
11
83.6597
21
-84.5553
0
LINE
8
BLACK
6
CONTINUOUS
10
83.6597
20
-84.5553
11
83.6607
21
-84.5507
0
LINE
8
BLACK
6
CONTINUOUS
10
83.6607
20
-84.5507
11
83.662
21
-84.5367
0
LINE
8
BLACK
6
CONTINUOUS
10
83.662
20
-84.5367
11
83.6622
21
-84.5353
0
LINE
8
BLACK
6
CONTINUOUS
10
83.6622
20
-84.5353
11
83.6626
21
-84.5333
0
LINE
8
BLACK
6
CONTINUOUS
10
83.6626
20
-84.5333
11
83.6627
21
-84.5313
0
LINE
8
BLACK
6
CONTINUOUS
10
83.6627
20
-84.5313
11
83.6647
21
-84.5182
0
LINE
8
BLACK
6
CONTINUOUS
10
83.6647
20
-84.5182
11
83.6641
21
-84.5031
0
LINE
8
BLACK
6
CONTINUOUS
10
83.6641
20
-84.5031
11
83.664
21
-84.5017
0
LINE
8
BLACK
6
CONTINUOUS
10
83.664
20
-84.5017
11
83.6641
21
-84.5003
0
LINE
8
BLACK
6
CONTINUOUS
10
83.6641
20
-84.5003
11
83.664
21
-84.4988
0
LINE
8
BLACK
6
CONTINUOUS
10
83.664
20
-84.4988
11
83.664
21
-73.61
0
LINE
8
BLACK
6
CONTINUOUS
10
83.664
20
-73.61
11
83.664
21
-73.6086
0
LINE
8
BLACK
6
CONTINUOUS
10
163.062
20
-82.8833
11
163.06
21
-82.8834
0
LINE
8
BLACK
6
CONTINUOUS
10
163.06
20
-82.8834
11
163.056
21
-82.8834
0
LINE
8
BLACK
6
CONTINUOUS
10
163.056
20
-82.8834
11
163.052
21
-82.8838
0
LINE
8
BLACK
6
CONTINUOUS
10
163.052
20
-82.8838
11
149.749
21
-82.8838
0
LINE
8
BLACK
6
CONTINUOUS
10
149.749
20
-82.8838
11
149.748
21
-82.8838
0
LINE
8
BLACK
6
CONTINUOUS
10
149.748
20
-82.8838
11
149.743
21
-82.8833
0
LINE
8
BLACK
6
CONTINUOUS
10
149.743
20
-82.8833
11
149.739
21
-82.8833
0
LINE
8
BLACK
6
CONTINUOUS
10
149.739
20
-82.8833
11
149.733
21
-82.8827
0
LINE
8
BLACK
6
CONTINUOUS
10
149.733
20
-82.8827
11
149.727
21
-82.8833
0
LINE
8
BLACK
6
CONTINUOUS
10
149.727
20
-82.8833
11
149.689
21
-82.8871
0
LINE
8
BLACK
6
CONTINUOUS
10
149.689
20
-82.8871
11
149.646
21
-82.8999
0
LINE
8
BLACK
6
CONTINUOUS
10
149.646
20
-82.8999
11
149.607
21
-82.9208
0
LINE
8
BLACK
6
CONTINUOUS
10
149.607
20
-82.9208
11
149.573
21
-82.9489
0
LINE
8
BLACK
6
CONTINUOUS
10
149.573
20
-82.9489
11
149.545
21
-82.9832
0
LINE
8
BLACK
6
CONTINUOUS
10
149.545
20
-82.9832
11
149.524
21
-83.0223
0
LINE
8
BLACK
6
CONTINUOUS
10
149.524
20
-83.0223
11
149.511
21
-83.0647
0
LINE
8
BLACK
6
CONTINUOUS
10
149.511
20
-83.0647
11
149.507
21
-83.1088
0
LINE
8
BLACK
6
CONTINUOUS
10
149.507
20
-83.1088
11
149.508
21
-83.115
0
LINE
8
BLACK
6
CONTINUOUS
10
149.508
20
-83.115
11
149.508
21
-83.1163
0
LINE
8
BLACK
6
CONTINUOUS
10
149.508
20
-83.1163
11
149.508
21
-83.1206
0
LINE
8
BLACK
6
CONTINUOUS
10
149.508
20
-83.1206
11
149.508
21
-83.1248
0
LINE
8
BLACK
6
CONTINUOUS
10
149.508
20
-83.1248
11
149.508
21
-85.7598
0
LINE
8
BLACK
6
CONTINUOUS
10
149.508
20
-85.7598
11
149.508
21
-85.7612
0
LINE
8
BLACK
6
CONTINUOUS
10
149.508
20
-85.7612
11
149.508
21
-85.7654
0
LINE
8
BLACK
6
CONTINUOUS
10
149.508
20
-85.7654
11
149.508
21
-85.7696
0
LINE
8
BLACK
6
CONTINUOUS
10
149.508
20
-85.7696
11
149.507
21
-85.7758
0
LINE
8
BLACK
6
CONTINUOUS
10
149.507
20
-85.7758
11
149.511
21
-85.8199
0
LINE
8
BLACK
6
CONTINUOUS
10
149.511
20
-85.8199
11
149.524
21
-85.8623
0
LINE
8
BLACK
6
CONTINUOUS
10
149.524
20
-85.8623
11
149.545
21
-85.9014
0
LINE
8
BLACK
6
CONTINUOUS
10
149.545
20
-85.9014
11
149.573
21
-85.9357
0
LINE
8
BLACK
6
CONTINUOUS
10
149.573
20
-85.9357
11
149.607
21
-85.9638
0
LINE
8
BLACK
6
CONTINUOUS
10
149.607
20
-85.9638
11
149.646
21
-85.9847
0
LINE
8
BLACK
6
CONTINUOUS
10
149.646
20
-85.9847
11
149.689
21
-85.9975
0
LINE
8
BLACK
6
CONTINUOUS
10
149.689
20
-85.9975
11
149.727
21
-86.0013
0
LINE
8
BLACK
6
CONTINUOUS
10
149.727
20
-86.0013
11
149.727
21
-86.0013
0
LINE
8
BLACK
6
CONTINUOUS
10
149.727
20
-86.0013
11
149.733
21
-86.0019
0
LINE
8
BLACK
6
CONTINUOUS
10
149.733
20
-86.0019
11
149.739
21
-86.0013
0
LINE
8
BLACK
6
CONTINUOUS
10
149.739
20
-86.0013
11
149.741
21
-86.0012
0
LINE
8
BLACK
6
CONTINUOUS
10
149.741
20
-86.0012
11
149.745
21
-86.0012
0
LINE
8
BLACK
6
CONTINUOUS
10
149.745
20
-86.0012
11
149.749
21
-86.0008
0
LINE
8
BLACK
6
CONTINUOUS
10
149.749
20
-86.0008
11
163.052
21
-86.0008
0
LINE
8
BLACK
6
CONTINUOUS
10
163.052
20
-86.0008
11
163.053
21
-86.0008
0
LINE
8
BLACK
6
CONTINUOUS
10
163.053
20
-86.0008
11
163.058
21
-86.0013
0
LINE
8
BLACK
6
CONTINUOUS
10
163.058
20
-86.0013
11
163.062
21
-86.0013
0
LINE
8
BLACK
6
CONTINUOUS
10
163.062
20
-86.0013
11
163.068
21
-86.0019
0
LINE
8
BLACK
6
CONTINUOUS
10
163.068
20
-86.0019
11
163.103
21
-85.9984
0
LINE
8
BLACK
6
CONTINUOUS
10
163.103
20
-85.9984
11
163.112
21
-85.9975
0
LINE
8
BLACK
6
CONTINUOUS
10
163.112
20
-85.9975
11
163.155
21
-85.9847
0
LINE
8
BLACK
6
CONTINUOUS
10
163.155
20
-85.9847
11
163.194
21
-85.9638
0
LINE
8
BLACK
6
CONTINUOUS
10
163.194
20
-85.9638
11
163.228
21
-85.9357
0
LINE
8
BLACK
6
CONTINUOUS
10
163.228
20
-85.9357
11
163.256
21
-85.9014
0
LINE
8
BLACK
6
CONTINUOUS
10
163.256
20
-85.9014
11
163.277
21
-85.8623
0
LINE
8
BLACK
6
CONTINUOUS
10
163.277
20
-85.8623
11
163.29
21
-85.8199
0
LINE
8
BLACK
6
CONTINUOUS
10
163.29
20
-85.8199
11
163.294
21
-85.7758
0
LINE
8
BLACK
6
CONTINUOUS
10
163.294
20
-85.7758
11
163.293
21
-85.7696
0
LINE
8
BLACK
6
CONTINUOUS
10
163.293
20
-85.7696
11
163.293
21
-85.7682
0
LINE
8
BLACK
6
CONTINUOUS
10
163.293
20
-85.7682
11
163.293
21
-85.764
0
LINE
8
BLACK
6
CONTINUOUS
10
163.293
20
-85.764
11
163.293
21
-85.7598
0
LINE
8
BLACK
6
CONTINUOUS
10
163.293
20
-85.7598
11
163.293
21
-83.1248
0
LINE
8
BLACK
6
CONTINUOUS
10
163.293
20
-83.1248
11
163.293
21
-83.1234
0
LINE
8
BLACK
6
CONTINUOUS
10
163.293
20
-83.1234
11
163.293
21
-83.1192
0
LINE
8
BLACK
6
CONTINUOUS
10
163.293
20
-83.1192
11
163.293
21
-83.115
0
LINE
8
BLACK
6
CONTINUOUS
10
163.293
20
-83.115
11
163.294
21
-83.1088
0
LINE
8
BLACK
6
CONTINUOUS
10
163.294
20
-83.1088
11
163.29
21
-83.0647
0
LINE
8
BLACK
6
CONTINUOUS
10
163.29
20
-83.0647
11
163.277
21
-83.0223
0
LINE
8
BLACK
6
CONTINUOUS
10
163.277
20
-83.0223
11
163.256
21
-82.9832
0
LINE
8
BLACK
6
CONTINUOUS
10
163.256
20
-82.9832
11
163.228
21
-82.9489
0
LINE
8
BLACK
6
CONTINUOUS
10
163.228
20
-82.9489
11
163.194
21
-82.9208
0
LINE
8
BLACK
6
CONTINUOUS
10
163.194
20
-82.9208
11
163.155
21
-82.8999
0
LINE
8
BLACK
6
CONTINUOUS
10
163.155
20
-82.8999
11
163.112
21
-82.8871
0
LINE
8
BLACK
6
CONTINUOUS
10
163.112
20
-82.8871
11
163.074
21
-82.8833
0
LINE
8
BLACK
6
CONTINUOUS
10
163.074
20
-82.8833
11
163.074
21
-82.8833
0
LINE
8
BLACK
6
CONTINUOUS
10
163.074
20
-82.8833
11
163.068
21
-82.8827
0
LINE
8
BLACK
6
CONTINUOUS
10
163.068
20
-82.8827
11
163.062
21
-82.8833
0
LINE
8
BLACK
6
CONTINUOUS
10
123.698
20
-68.6312
11
123.693
21
-68.6308
0
LINE
8
BLACK
6
CONTINUOUS
10
123.693
20
-68.6308
11
116.337
21
-68.6308
0
LINE
8
BLACK
6
CONTINUOUS
10
116.337
20
-68.6308
11
116.332
21
-68.6312
0
LINE
8
BLACK
6
CONTINUOUS
10
116.332
20
-68.6312
11
116.332
21
-68.6357
0
LINE
8
BLACK
6
CONTINUOUS
10
116.332
20
-68.6357
11
116.332
21
-76.3729
0
LINE
8
BLACK
6
CONTINUOUS
10
116.332
20
-76.3729
11
116.332
21
-76.3774
0
LINE
8
BLACK
6
CONTINUOUS
10
116.332
20
-76.3774
11
116.337
21
-76.3778
0
LINE
8
BLACK
6
CONTINUOUS
10
116.337
20
-76.3778
11
123.693
21
-76.3778
0
LINE
8
BLACK
6
CONTINUOUS
10
123.693
20
-76.3778
11
123.698
21
-76.3774
0
LINE
8
BLACK
6
CONTINUOUS
10
123.698
20
-76.3774
11
123.698
21
-76.3729
0
LINE
8
BLACK
6
CONTINUOUS
10
123.698
20
-76.3729
11
123.698
21
-68.6357
0
LINE
8
BLACK
6
CONTINUOUS
10
123.698
20
-68.6357
11
123.698
21
-68.6312
0
LINE
8
BLACK
6
CONTINUOUS
10
77.2098
20
-68.5831
11
77.2085
21
-68.5832
0
LINE
8
BLACK
6
CONTINUOUS
10
77.2085
20
-68.5832
11
77.2042
21
-68.5832
0
LINE
8
BLACK
6
CONTINUOUS
10
77.2042
20
-68.5832
11
77.2
21
-68.5836
0
LINE
8
BLACK
6
CONTINUOUS
10
77.2
20
-68.5836
11
70.9328
21
-68.5836
0
LINE
8
BLACK
6
CONTINUOUS
10
70.9328
20
-68.5836
11
70.9314
21
-68.5836
0
LINE
8
BLACK
6
CONTINUOUS
10
70.9314
20
-68.5836
11
70.9272
21
-68.5831
0
LINE
8
BLACK
6
CONTINUOUS
10
70.9272
20
-68.5831
11
70.923
21
-68.5831
0
LINE
8
BLACK
6
CONTINUOUS
10
70.923
20
-68.5831
11
70.9168
21
-68.5825
0
LINE
8
BLACK
6
CONTINUOUS
10
70.9168
20
-68.5825
11
70.9106
21
-68.5831
0
LINE
8
BLACK
6
CONTINUOUS
10
70.9106
20
-68.5831
11
70.8727
21
-68.5869
0
LINE
8
BLACK
6
CONTINUOUS
10
70.8727
20
-68.5869
11
70.8303
21
-68.5997
0
LINE
8
BLACK
6
CONTINUOUS
10
70.8303
20
-68.5997
11
70.7912
21
-68.6206
0
LINE
8
BLACK
6
CONTINUOUS
10
70.7912
20
-68.6206
11
70.7569
21
-68.6487
0
LINE
8
BLACK
6
CONTINUOUS
10
70.7569
20
-68.6487
11
70.7288
21
-68.683
0
LINE
8
BLACK
6
CONTINUOUS
10
70.7288
20
-68.683
11
70.7079
21
-68.7221
0
LINE
8
BLACK
6
CONTINUOUS
10
70.7079
20
-68.7221
11
70.6951
21
-68.7645
0
LINE
8
BLACK
6
CONTINUOUS
10
70.6951
20
-68.7645
11
70.6907
21
-68.8086
0
LINE
8
BLACK
6
CONTINUOUS
10
70.6907
20
-68.8086
11
70.6913
21
-68.8148
0
LINE
8
BLACK
6
CONTINUOUS
10
70.6913
20
-68.8148
11
70.6914
21
-68.8161
0
LINE
8
BLACK
6
CONTINUOUS
10
70.6914
20
-68.8161
11
70.6914
21
-68.8204
0
LINE
8
BLACK
6
CONTINUOUS
10
70.6914
20
-68.8204
11
70.6918
21
-68.8246
0
LINE
8
BLACK
6
CONTINUOUS
10
70.6918
20
-68.8246
11
70.6918
21
-70.3928
0
LINE
8
BLACK
6
CONTINUOUS
10
70.6918
20
-70.3928
11
70.6918
21
-70.3942
0
LINE
8
BLACK
6
CONTINUOUS
10
70.6918
20
-70.3942
11
70.6913
21
-70.3984
0
LINE
8
BLACK
6
CONTINUOUS
10
70.6913
20
-70.3984
11
70.6913
21
-70.4026
0
LINE
8
BLACK
6
CONTINUOUS
10
70.6913
20
-70.4026
11
70.6907
21
-70.4088
0
LINE
8
BLACK
6
CONTINUOUS
10
70.6907
20
-70.4088
11
70.6951
21
-70.4529
0
LINE
8
BLACK
6
CONTINUOUS
10
70.6951
20
-70.4529
11
70.7079
21
-70.4953
0
LINE
8
BLACK
6
CONTINUOUS
10
70.7079
20
-70.4953
11
70.7288
21
-70.5344
0
LINE
8
BLACK
6
CONTINUOUS
10
70.7288
20
-70.5344
11
70.7569
21
-70.5687
0
LINE
8
BLACK
6
CONTINUOUS
10
70.7569
20
-70.5687
11
70.7912
21
-70.5968
0
LINE
8
BLACK
6
CONTINUOUS
10
70.7912
20
-70.5968
11
70.8303
21
-70.6177
0
LINE
8
BLACK
6
CONTINUOUS
10
70.8303
20
-70.6177
11
70.8727
21
-70.6305
0
LINE
8
BLACK
6
CONTINUOUS
10
70.8727
20
-70.6305
11
70.9106
21
-70.6343
0
LINE
8
BLACK
6
CONTINUOUS
10
70.9106
20
-70.6343
11
70.9106
21
-70.6343
0
LINE
8
BLACK
6
CONTINUOUS
10
70.9106
20
-70.6343
11
70.9168
21
-70.6349
0
LINE
8
BLACK
6
CONTINUOUS
10
70.9168
20
-70.6349
11
70.923
21
-70.6343
0
LINE
8
BLACK
6
CONTINUOUS
10
70.923
20
-70.6343
11
70.9243
21
-70.6342
0
LINE
8
BLACK
6
CONTINUOUS
10
70.9243
20
-70.6342
11
70.9286
21
-70.6342
0
LINE
8
BLACK
6
CONTINUOUS
10
70.9286
20
-70.6342
11
70.9328
21
-70.6338
0
LINE
8
BLACK
6
CONTINUOUS
10
70.9328
20
-70.6338
11
77.2
21
-70.6338
0
LINE
8
BLACK
6
CONTINUOUS
10
77.2
20
-70.6338
11
77.2014
21
-70.6338
0
LINE
8
BLACK
6
CONTINUOUS
10
77.2014
20
-70.6338
11
77.2056
21
-70.6343
0
LINE
8
BLACK
6
CONTINUOUS
10
77.2056
20
-70.6343
11
77.2098
21
-70.6343
0
LINE
8
BLACK
6
CONTINUOUS
10
77.2098
20
-70.6343
11
77.216
21
-70.6349
0
LINE
8
BLACK
6
CONTINUOUS
10
77.216
20
-70.6349
11
77.2222
21
-70.6343
0
LINE
8
BLACK
6
CONTINUOUS
10
77.2222
20
-70.6343
11
77.2222
21
-70.6343
0
LINE
8
BLACK
6
CONTINUOUS
10
77.2222
20
-70.6343
11
77.2601
21
-70.6305
0
LINE
8
BLACK
6
CONTINUOUS
10
77.2601
20
-70.6305
11
77.3025
21
-70.6177
0
LINE
8
BLACK
6
CONTINUOUS
10
77.3025
20
-70.6177
11
77.3416
21
-70.5968
0
LINE
8
BLACK
6
CONTINUOUS
10
77.3416
20
-70.5968
11
77.3759
21
-70.5687
0
LINE
8
BLACK
6
CONTINUOUS
10
77.3759
20
-70.5687
11
77.404
21
-70.5344
0
LINE
8
BLACK
6
CONTINUOUS
10
77.404
20
-70.5344
11
77.4249
21
-70.4953
0
LINE
8
BLACK
6
CONTINUOUS
10
77.4249
20
-70.4953
11
77.4377
21
-70.4529
0
LINE
8
BLACK
6
CONTINUOUS
10
77.4377
20
-70.4529
11
77.4421
21
-70.4088
0
LINE
8
BLACK
6
CONTINUOUS
10
77.4421
20
-70.4088
11
77.4415
21
-70.4026
0
LINE
8
BLACK
6
CONTINUOUS
10
77.4415
20
-70.4026
11
77.4414
21
-70.4012
0
LINE
8
BLACK
6
CONTINUOUS
10
77.4414
20
-70.4012
11
77.4414
21
-70.397
0
LINE
8
BLACK
6
CONTINUOUS
10
77.4414
20
-70.397
11
77.441
21
-70.3928
0
LINE
8
BLACK
6
CONTINUOUS
10
77.441
20
-70.3928
11
77.441
21
-68.8246
0
LINE
8
BLACK
6
CONTINUOUS
10
77.441
20
-68.8246
11
77.441
21
-68.8232
0
LINE
8
BLACK
6
CONTINUOUS
10
77.441
20
-68.8232
11
77.4415
21
-68.819
0
LINE
8
BLACK
6
CONTINUOUS
10
77.4415
20
-68.819
11
77.4415
21
-68.8148
0
LINE
8
BLACK
6
CONTINUOUS
10
77.4415
20
-68.8148
11
77.4421
21
-68.8086
0
LINE
8
BLACK
6
CONTINUOUS
10
77.4421
20
-68.8086
11
77.4377
21
-68.7645
0
LINE
8
BLACK
6
CONTINUOUS
10
77.4377
20
-68.7645
11
77.4249
21
-68.7221
0
LINE
8
BLACK
6
CONTINUOUS
10
77.4249
20
-68.7221
11
77.404
21
-68.683
0
LINE
8
BLACK
6
CONTINUOUS
10
77.404
20
-68.683
11
77.3759
21
-68.6487
0
LINE
8
BLACK
6
CONTINUOUS
10
77.3759
20
-68.6487
11
77.3416
21
-68.6206
0
LINE
8
BLACK
6
CONTINUOUS
10
77.3416
20
-68.6206
11
77.3025
21
-68.5997
0
LINE
8
BLACK
6
CONTINUOUS
10
77.3025
20
-68.5997
11
77.2601
21
-68.5869
0
LINE
8
BLACK
6
CONTINUOUS
10
77.2601
20
-68.5869
11
77.2222
21
-68.5831
0
LINE
8
BLACK
6
CONTINUOUS
10
77.2222
20
-68.5831
11
77.216
21
-68.5825
0
LINE
8
BLACK
6
CONTINUOUS
10
77.216
20
-68.5825
11
77.2098
21
-68.5831
0
LINE
8
BLACK
6
CONTINUOUS
10
165.145
20
-68.5704
11
165.143
21
-68.5705
0
LINE
8
BLACK
6
CONTINUOUS
10
165.143
20
-68.5705
11
165.139
21
-68.5705
0
LINE
8
BLACK
6
CONTINUOUS
10
165.139
20
-68.5705
11
165.135
21
-68.5709
0
LINE
8
BLACK
6
CONTINUOUS
10
165.135
20
-68.5709
11
158.868
21
-68.5709
0
LINE
8
BLACK
6
CONTINUOUS
10
158.868
20
-68.5709
11
158.866
21
-68.5709
0
LINE
8
BLACK
6
CONTINUOUS
10
158.866
20
-68.5709
11
158.862
21
-68.5704
0
LINE
8
BLACK
6
CONTINUOUS
10
158.862
20
-68.5704
11
158.858
21
-68.5704
0
LINE
8
BLACK
6
CONTINUOUS
10
158.858
20
-68.5704
11
158.852
21
-68.5698
0
LINE
8
BLACK
6
CONTINUOUS
10
158.852
20
-68.5698
11
158.845
21
-68.5704
0
LINE
8
BLACK
6
CONTINUOUS
10
158.845
20
-68.5704
11
158.807
21
-68.5742
0
LINE
8
BLACK
6
CONTINUOUS
10
158.807
20
-68.5742
11
158.765
21
-68.587
0
LINE
8
BLACK
6
CONTINUOUS
10
158.765
20
-68.587
11
158.726
21
-68.6079
0
LINE
8
BLACK
6
CONTINUOUS
10
158.726
20
-68.6079
11
158.692
21
-68.636
0
LINE
8
BLACK
6
CONTINUOUS
10
158.692
20
-68.636
11
158.664
21
-68.6703
0
LINE
8
BLACK
6
CONTINUOUS
10
158.664
20
-68.6703
11
158.643
21
-68.7094
0
LINE
8
BLACK
6
CONTINUOUS
10
158.643
20
-68.7094
11
158.63
21
-68.7518
0
LINE
8
BLACK
6
CONTINUOUS
10
158.63
20
-68.7518
11
158.626
21
-68.7959
0
LINE
8
BLACK
6
CONTINUOUS
10
158.626
20
-68.7959
11
158.626
21
-68.8021
0
LINE
8
BLACK
6
CONTINUOUS
10
158.626
20
-68.8021
11
158.626
21
-68.8034
0
LINE
8
BLACK
6
CONTINUOUS
10
158.626
20
-68.8034
11
158.626
21
-68.8077
0
LINE
8
BLACK
6
CONTINUOUS
10
158.626
20
-68.8077
11
158.627
21
-68.8119
0
LINE
8
BLACK
6
CONTINUOUS
10
158.627
20
-68.8119
11
158.627
21
-70.3801
0
LINE
8
BLACK
6
CONTINUOUS
10
158.627
20
-70.3801
11
158.627
21
-70.3815
0
LINE
8
BLACK
6
CONTINUOUS
10
158.627
20
-70.3815
11
158.626
21
-70.3857
0
LINE
8
BLACK
6
CONTINUOUS
10
158.626
20
-70.3857
11
158.626
21
-70.3899
0
LINE
8
BLACK
6
CONTINUOUS
10
158.626
20
-70.3899
11
158.626
21
-70.3961
0
LINE
8
BLACK
6
CONTINUOUS
10
158.626
20
-70.3961
11
158.63
21
-70.4402
0
LINE
8
BLACK
6
CONTINUOUS
10
158.63
20
-70.4402
11
158.643
21
-70.4826
0
LINE
8
BLACK
6
CONTINUOUS
10
158.643
20
-70.4826
11
158.664
21
-70.5217
0
LINE
8
BLACK
6
CONTINUOUS
10
158.664
20
-70.5217
11
158.692
21
-70.556
0
LINE
8
BLACK
6
CONTINUOUS
10
158.692
20
-70.556
11
158.726
21
-70.5841
0
LINE
8
BLACK
6
CONTINUOUS
10
158.726
20
-70.5841
11
158.765
21
-70.605
0
LINE
8
BLACK
6
CONTINUOUS
10
158.765
20
-70.605
11
158.807
21
-70.6178
0
LINE
8
BLACK
6
CONTINUOUS
10
158.807
20
-70.6178
11
158.845
21
-70.6216
0
LINE
8
BLACK
6
CONTINUOUS
10
158.845
20
-70.6216
11
158.845
21
-70.6216
0
LINE
8
BLACK
6
CONTINUOUS
10
158.845
20
-70.6216
11
158.852
21
-70.6222
0
LINE
8
BLACK
6
CONTINUOUS
10
158.852
20
-70.6222
11
158.858
21
-70.6216
0
LINE
8
BLACK
6
CONTINUOUS
10
158.858
20
-70.6216
11
158.859
21
-70.6215
0
LINE
8
BLACK
6
CONTINUOUS
10
158.859
20
-70.6215
11
158.863
21
-70.6215
0
LINE
8
BLACK
6
CONTINUOUS
10
158.863
20
-70.6215
11
158.868
21
-70.6211
0
LINE
8
BLACK
6
CONTINUOUS
10
158.868
20
-70.6211
11
165.135
21
-70.6211
0
LINE
8
BLACK
6
CONTINUOUS
10
165.135
20
-70.6211
11
165.136
21
-70.6211
0
LINE
8
BLACK
6
CONTINUOUS
10
165.136
20
-70.6211
11
165.14
21
-70.6216
0
LINE
8
BLACK
6
CONTINUOUS
10
165.14
20
-70.6216
11
165.145
21
-70.6216
0
LINE
8
BLACK
6
CONTINUOUS
10
165.145
20
-70.6216
11
165.151
21
-70.6222
0
LINE
8
BLACK
6
CONTINUOUS
10
165.151
20
-70.6222
11
165.157
21
-70.6216
0
LINE
8
BLACK
6
CONTINUOUS
10
165.157
20
-70.6216
11
165.157
21
-70.6216
0
LINE
8
BLACK
6
CONTINUOUS
10
165.157
20
-70.6216
11
165.195
21
-70.6178
0
LINE
8
BLACK
6
CONTINUOUS
10
165.195
20
-70.6178
11
165.237
21
-70.605
0
LINE
8
BLACK
6
CONTINUOUS
10
165.237
20
-70.605
11
165.276
21
-70.5841
0
LINE
8
BLACK
6
CONTINUOUS
10
165.276
20
-70.5841
11
165.311
21
-70.556
0
LINE
8
BLACK
6
CONTINUOUS
10
165.311
20
-70.556
11
165.339
21
-70.5217
0
LINE
8
BLACK
6
CONTINUOUS
10
165.339
20
-70.5217
11
165.36
21
-70.4826
0
LINE
8
BLACK
6
CONTINUOUS
10
165.36
20
-70.4826
11
165.373
21
-70.4402
0
LINE
8
BLACK
6
CONTINUOUS
10
165.373
20
-70.4402
11
165.377
21
-70.3961
0
LINE
8
BLACK
6
CONTINUOUS
10
165.377
20
-70.3961
11
165.376
21
-70.3899
0
LINE
8
BLACK
6
CONTINUOUS
10
165.376
20
-70.3899
11
165.376
21
-70.3885
0
LINE
8
BLACK
6
CONTINUOUS
10
165.376
20
-70.3885
11
165.376
21
-70.3843
0
LINE
8
BLACK
6
CONTINUOUS
10
165.376
20
-70.3843
11
165.376
21
-70.3801
0
LINE
8
BLACK
6
CONTINUOUS
10
165.376
20
-70.3801
11
165.376
21
-68.8119
0
LINE
8
BLACK
6
CONTINUOUS
10
165.376
20
-68.8119
11
165.376
21
-68.8105
0
LINE
8
BLACK
6
CONTINUOUS
10
165.376
20
-68.8105
11
165.376
21
-68.8063
0
LINE
8
BLACK
6
CONTINUOUS
10
165.376
20
-68.8063
11
165.376
21
-68.8021
0
LINE
8
BLACK
6
CONTINUOUS
10
165.376
20
-68.8021
11
165.377
21
-68.7959
0
LINE
8
BLACK
6
CONTINUOUS
10
165.377
20
-68.7959
11
165.373
21
-68.7518
0
LINE
8
BLACK
6
CONTINUOUS
10
165.373
20
-68.7518
11
165.36
21
-68.7094
0
LINE
8
BLACK
6
CONTINUOUS
10
165.36
20
-68.7094
11
165.339
21
-68.6703
0
LINE
8
BLACK
6
CONTINUOUS
10
165.339
20
-68.6703
11
165.311
21
-68.636
0
LINE
8
BLACK
6
CONTINUOUS
10
165.311
20
-68.636
11
165.276
21
-68.6079
0
LINE
8
BLACK
6
CONTINUOUS
10
165.276
20
-68.6079
11
165.237
21
-68.587
0
LINE
8
BLACK
6
CONTINUOUS
10
165.237
20
-68.587
11
165.195
21
-68.5742
0
LINE
8
BLACK
6
CONTINUOUS
10
165.195
20
-68.5742
11
165.157
21
-68.5704
0
LINE
8
BLACK
6
CONTINUOUS
10
165.157
20
-68.5704
11
165.151
21
-68.5698
0
LINE
8
BLACK
6
CONTINUOUS
10
165.151
20
-68.5698
11
165.145
21
-68.5704
0
LINE
8
BLACK
6
CONTINUOUS
10
149.946
20
-93.6353
11
150.237
21
-93.7559
0
LINE
8
BLACK
6
CONTINUOUS
10
150.237
20
-93.7559
11
150.499
21
-93.931
0
LINE
8
BLACK
6
CONTINUOUS
10
150.499
20
-93.931
11
150.722
21
-94.1539
0
LINE
8
BLACK
6
CONTINUOUS
10
150.722
20
-94.1539
11
150.897
21
-94.4159
0
LINE
8
BLACK
6
CONTINUOUS
10
150.897
20
-94.4159
11
151.018
21
-94.7071
0
LINE
8
BLACK
6
CONTINUOUS
10
151.018
20
-94.7071
11
151.079
21
-95.0162
0
LINE
8
BLACK
6
CONTINUOUS
10
151.079
20
-95.0162
11
151.079
21
-95.3314
0
LINE
8
BLACK
6
CONTINUOUS
10
151.079
20
-95.3314
11
151.018
21
-95.6405
0
LINE
8
BLACK
6
CONTINUOUS
10
151.018
20
-95.6405
11
150.897
21
-95.9317
0
LINE
8
BLACK
6
CONTINUOUS
10
150.897
20
-95.9317
11
150.722
21
-96.1937
0
LINE
8
BLACK
6
CONTINUOUS
10
150.722
20
-96.1937
11
150.499
21
-96.4166
0
LINE
8
BLACK
6
CONTINUOUS
10
150.499
20
-96.4166
11
150.237
21
-96.5917
0
LINE
8
BLACK
6
CONTINUOUS
10
150.237
20
-96.5917
11
149.946
21
-96.7123
0
LINE
8
BLACK
6
CONTINUOUS
10
149.946
20
-96.7123
11
149.637
21
-96.7738
0
LINE
8
BLACK
6
CONTINUOUS
10
149.637
20
-96.7738
11
149.321
21
-96.7738
0
LINE
8
BLACK
6
CONTINUOUS
10
149.321
20
-96.7738
11
149.012
21
-96.7123
0
LINE
8
BLACK
6
CONTINUOUS
10
149.012
20
-96.7123
11
148.721
21
-96.5917
0
LINE
8
BLACK
6
CONTINUOUS
10
148.721
20
-96.5917
11
148.459
21
-96.4166
0
LINE
8
BLACK
6
CONTINUOUS
10
148.459
20
-96.4166
11
148.236
21
-96.1937
0
LINE
8
BLACK
6
CONTINUOUS
10
148.236
20
-96.1937
11
148.061
21
-95.9317
0
LINE
8
BLACK
6
CONTINUOUS
10
148.061
20
-95.9317
11
147.94
21
-95.6405
0
LINE
8
BLACK
6
CONTINUOUS
10
147.94
20
-95.6405
11
147.879
21
-95.3314
0
LINE
8
BLACK
6
CONTINUOUS
10
147.879
20
-95.3314
11
147.879
21
-95.0162
0
LINE
8
BLACK
6
CONTINUOUS
10
147.879
20
-95.0162
11
147.94
21
-94.7071
0
LINE
8
BLACK
6
CONTINUOUS
10
147.94
20
-94.7071
11
148.061
21
-94.4159
0
LINE
8
BLACK
6
CONTINUOUS
10
148.061
20
-94.4159
11
148.236
21
-94.1539
0
LINE
8
BLACK
6
CONTINUOUS
10
148.236
20
-94.1539
11
148.459
21
-93.931
0
LINE
8
BLACK
6
CONTINUOUS
10
148.459
20
-93.931
11
148.721
21
-93.7559
0
LINE
8
BLACK
6
CONTINUOUS
10
148.721
20
-93.7559
11
149.012
21
-93.6353
0
LINE
8
BLACK
6
CONTINUOUS
10
149.012
20
-93.6353
11
149.321
21
-93.5738
0
LINE
8
BLACK
6
CONTINUOUS
10
149.321
20
-93.5738
11
149.637
21
-93.5738
0
LINE
8
BLACK
6
CONTINUOUS
10
149.637
20
-93.5738
11
149.946
21
-93.6353
0
LINE
8
BLACK
6
CONTINUOUS
10
89.9763
20
-93.5972
11
90.2675
21
-93.7178
0
LINE
8
BLACK
6
CONTINUOUS
10
90.2675
20
-93.7178
11
90.5295
21
-93.8929
0
LINE
8
BLACK
6
CONTINUOUS
10
90.5295
20
-93.8929
11
90.7524
21
-94.1158
0
LINE
8
BLACK
6
CONTINUOUS
10
90.7524
20
-94.1158
11
90.9275
21
-94.3778
0
LINE
8
BLACK
6
CONTINUOUS
10
90.9275
20
-94.3778
11
91.0481
21
-94.669
0
LINE
8
BLACK
6
CONTINUOUS
10
91.0481
20
-94.669
11
91.1096
21
-94.9781
0
LINE
8
BLACK
6
CONTINUOUS
10
91.1096
20
-94.9781
11
91.1096
21
-95.2933
0
LINE
8
BLACK
6
CONTINUOUS
10
91.1096
20
-95.2933
11
91.0481
21
-95.6024
0
LINE
8
BLACK
6
CONTINUOUS
10
91.0481
20
-95.6024
11
90.9275
21
-95.8936
0
LINE
8
BLACK
6
CONTINUOUS
10
90.9275
20
-95.8936
11
90.7524
21
-96.1556
0
LINE
8
BLACK
6
CONTINUOUS
10
90.7524
20
-96.1556
11
90.5295
21
-96.3785
0
LINE
8
BLACK
6
CONTINUOUS
10
90.5295
20
-96.3785
11
90.2675
21
-96.5536
0
LINE
8
BLACK
6
CONTINUOUS
10
90.2675
20
-96.5536
11
89.9763
21
-96.6742
0
LINE
8
BLACK
6
CONTINUOUS
10
89.9763
20
-96.6742
11
89.6672
21
-96.7357
0
LINE
8
BLACK
6
CONTINUOUS
10
89.6672
20
-96.7357
11
89.352
21
-96.7357
0
LINE
8
BLACK
6
CONTINUOUS
10
89.352
20
-96.7357
11
89.0429
21
-96.6742
0
LINE
8
BLACK
6
CONTINUOUS
10
89.0429
20
-96.6742
11
88.7517
21
-96.5536
0
LINE
8
BLACK
6
CONTINUOUS
10
88.7517
20
-96.5536
11
88.4897
21
-96.3785
0
LINE
8
BLACK
6
CONTINUOUS
10
88.4897
20
-96.3785
11
88.2668
21
-96.1556
0
LINE
8
BLACK
6
CONTINUOUS
10
88.2668
20
-96.1556
11
88.0917
21
-95.8936
0
LINE
8
BLACK
6
CONTINUOUS
10
88.0917
20
-95.8936
11
87.9711
21
-95.6024
0
LINE
8
BLACK
6
CONTINUOUS
10
87.9711
20
-95.6024
11
87.9096
21
-95.2933
0
LINE
8
BLACK
6
CONTINUOUS
10
87.9096
20
-95.2933
11
87.9096
21
-94.9781
0
LINE
8
BLACK
6
CONTINUOUS
10
87.9096
20
-94.9781
11
87.9711
21
-94.669
0
LINE
8
BLACK
6
CONTINUOUS
10
87.9711
20
-94.669
11
88.0917
21
-94.3778
0
LINE
8
BLACK
6
CONTINUOUS
10
88.0917
20
-94.3778
11
88.2668
21
-94.1158
0
LINE
8
BLACK
6
CONTINUOUS
10
88.2668
20
-94.1158
11
88.4897
21
-93.8929
0
LINE
8
BLACK
6
CONTINUOUS
10
88.4897
20
-93.8929
11
88.7517
21
-93.7178
0
LINE
8
BLACK
6
CONTINUOUS
10
88.7517
20
-93.7178
11
89.0429
21
-93.5972
0
LINE
8
BLACK
6
CONTINUOUS
10
89.0429
20
-93.5972
11
89.352
21
-93.5357
0
LINE
8
BLACK
6
CONTINUOUS
10
89.352
20
-93.5357
11
89.6672
21
-93.5357
0
LINE
8
BLACK
6
CONTINUOUS
10
89.6672
20
-93.5357
11
89.9763
21
-93.5972
0
LINE
8
BLACK
6
CONTINUOUS
10
124.801
20
-85.2324
11
125.192
21
-85.3945
0
LINE
8
BLACK
6
CONTINUOUS
10
125.192
20
-85.3945
11
125.545
21
-85.6298
0
LINE
8
BLACK
6
CONTINUOUS
10
125.545
20
-85.6298
11
125.844
21
-85.9293
0
LINE
8
BLACK
6
CONTINUOUS
10
125.844
20
-85.9293
11
126.079
21
-86.2814
0
LINE
8
BLACK
6
CONTINUOUS
10
126.079
20
-86.2814
11
126.241
21
-86.6727
0
LINE
8
BLACK
6
CONTINUOUS
10
126.241
20
-86.6727
11
126.324
21
-87.088
0
LINE
8
BLACK
6
CONTINUOUS
10
126.324
20
-87.088
11
126.324
21
-87.5116
0
LINE
8
BLACK
6
CONTINUOUS
10
126.324
20
-87.5116
11
126.241
21
-87.9269
0
LINE
8
BLACK
6
CONTINUOUS
10
126.241
20
-87.9269
11
126.079
21
-88.3182
0
LINE
8
BLACK
6
CONTINUOUS
10
126.079
20
-88.3182
11
125.844
21
-88.6703
0
LINE
8
BLACK
6
CONTINUOUS
10
125.844
20
-88.6703
11
125.545
21
-88.9698
0
LINE
8
BLACK
6
CONTINUOUS
10
125.545
20
-88.9698
11
125.192
21
-89.2051
0
LINE
8
BLACK
6
CONTINUOUS
10
125.192
20
-89.2051
11
124.801
21
-89.3672
0
LINE
8
BLACK
6
CONTINUOUS
10
124.801
20
-89.3672
11
124.386
21
-89.4498
0
LINE
8
BLACK
6
CONTINUOUS
10
124.386
20
-89.4498
11
123.962
21
-89.4498
0
LINE
8
BLACK
6
CONTINUOUS
10
123.962
20
-89.4498
11
123.547
21
-89.3672
0
LINE
8
BLACK
6
CONTINUOUS
10
123.547
20
-89.3672
11
123.156
21
-89.2051
0
LINE
8
BLACK
6
CONTINUOUS
10
123.156
20
-89.2051
11
122.803
21
-88.9698
0
LINE
8
BLACK
6
CONTINUOUS
10
122.803
20
-88.9698
11
122.504
21
-88.6703
0
LINE
8
BLACK
6
CONTINUOUS
10
122.504
20
-88.6703
11
122.269
21
-88.3182
0
LINE
8
BLACK
6
CONTINUOUS
10
122.269
20
-88.3182
11
122.107
21
-87.9269
0
LINE
8
BLACK
6
CONTINUOUS
10
122.107
20
-87.9269
11
122.024
21
-87.5116
0
LINE
8
BLACK
6
CONTINUOUS
10
122.024
20
-87.5116
11
122.024
21
-87.088
0
LINE
8
BLACK
6
CONTINUOUS
10
122.024
20
-87.088
11
122.107
21
-86.6727
0
LINE
8
BLACK
6
CONTINUOUS
10
122.107
20
-86.6727
11
122.269
21
-86.2814
0
LINE
8
BLACK
6
CONTINUOUS
10
122.269
20
-86.2814
11
122.504
21
-85.9293
0
LINE
8
BLACK
6
CONTINUOUS
10
122.504
20
-85.9293
11
122.803
21
-85.6298
0
LINE
8
BLACK
6
CONTINUOUS
10
122.803
20
-85.6298
11
123.156
21
-85.3945
0
LINE
8
BLACK
6
CONTINUOUS
10
123.156
20
-85.3945
11
123.547
21
-85.2324
0
LINE
8
BLACK
6
CONTINUOUS
10
123.547
20
-85.2324
11
123.962
21
-85.1498
0
LINE
8
BLACK
6
CONTINUOUS
10
123.962
20
-85.1498
11
124.386
21
-85.1498
0
LINE
8
BLACK
6
CONTINUOUS
10
124.386
20
-85.1498
11
124.801
21
-85.2324
0
LINE
8
BLACK
6
CONTINUOUS
10
112.101
20
-85.1816
11
112.492
21
-85.3437
0
LINE
8
BLACK
6
CONTINUOUS
10
112.492
20
-85.3437
11
112.845
21
-85.579
0
LINE
8
BLACK
6
CONTINUOUS
10
112.845
20
-85.579
11
113.144
21
-85.8785
0
LINE
8
BLACK
6
CONTINUOUS
10
113.144
20
-85.8785
11
113.379
21
-86.2306
0
LINE
8
BLACK
6
CONTINUOUS
10
113.379
20
-86.2306
11
113.541
21
-86.6219
0
LINE
8
BLACK
6
CONTINUOUS
10
113.541
20
-86.6219
11
113.624
21
-87.0372
0
LINE
8
BLACK
6
CONTINUOUS
10
113.624
20
-87.0372
11
113.624
21
-87.4608
0
LINE
8
BLACK
6
CONTINUOUS
10
113.624
20
-87.4608
11
113.541
21
-87.8761
0
LINE
8
BLACK
6
CONTINUOUS
10
113.541
20
-87.8761
11
113.379
21
-88.2674
0
LINE
8
BLACK
6
CONTINUOUS
10
113.379
20
-88.2674
11
113.144
21
-88.6195
0
LINE
8
BLACK
6
CONTINUOUS
10
113.144
20
-88.6195
11
112.845
21
-88.919
0
LINE
8
BLACK
6
CONTINUOUS
10
112.845
20
-88.919
11
112.492
21
-89.1543
0
LINE
8
BLACK
6
CONTINUOUS
10
112.492
20
-89.1543
11
112.101
21
-89.3164
0
LINE
8
BLACK
6
CONTINUOUS
10
112.101
20
-89.3164
11
111.686
21
-89.399
0
LINE
8
BLACK
6
CONTINUOUS
10
111.686
20
-89.399
11
111.262
21
-89.399
0
LINE
8
BLACK
6
CONTINUOUS
10
111.262
20
-89.399
11
110.847
21
-89.3164
0
LINE
8
BLACK
6
CONTINUOUS
10
110.847
20
-89.3164
11
110.456
21
-89.1543
0
LINE
8
BLACK
6
CONTINUOUS
10
110.456
20
-89.1543
11
110.103
21
-88.919
0
LINE
8
BLACK
6
CONTINUOUS
10
110.103
20
-88.919
11
109.804
21
-88.6195
0
LINE
8
BLACK
6
CONTINUOUS
10
109.804
20
-88.6195
11
109.569
21
-88.2674
0
LINE
8
BLACK
6
CONTINUOUS
10
109.569
20
-88.2674
11
109.407
21
-87.8761
0
LINE
8
BLACK
6
CONTINUOUS
10
109.407
20
-87.8761
11
109.324
21
-87.4608
0
LINE
8
BLACK
6
CONTINUOUS
10
109.324
20
-87.4608
11
109.324
21
-87.0372
0
LINE
8
BLACK
6
CONTINUOUS
10
109.324
20
-87.0372
11
109.407
21
-86.6219
0
LINE
8
BLACK
6
CONTINUOUS
10
109.407
20
-86.6219
11
109.569
21
-86.2306
0
LINE
8
BLACK
6
CONTINUOUS
10
109.569
20
-86.2306
11
109.804
21
-85.8785
0
LINE
8
BLACK
6
CONTINUOUS
10
109.804
20
-85.8785
11
110.103
21
-85.579
0
LINE
8
BLACK
6
CONTINUOUS
10
110.103
20
-85.579
11
110.456
21
-85.3437
0
LINE
8
BLACK
6
CONTINUOUS
10
110.456
20
-85.3437
11
110.847
21
-85.1816
0
LINE
8
BLACK
6
CONTINUOUS
10
110.847
20
-85.1816
11
111.262
21
-85.099
0
LINE
8
BLACK
6
CONTINUOUS
10
111.262
20
-85.099
11
111.686
21
-85.099
0
LINE
8
BLACK
6
CONTINUOUS
10
111.686
20
-85.099
11
112.101
21
-85.1816
0
LINE
8
BLACK
6
CONTINUOUS
10
99.4011
20
-85.1816
11
99.7924
21
-85.3437
0
LINE
8
BLACK
6
CONTINUOUS
10
99.7924
20
-85.3437
11
100.145
21
-85.579
0
LINE
8
BLACK
6
CONTINUOUS
10
100.145
20
-85.579
11
100.444
21
-85.8785
0
LINE
8
BLACK
6
CONTINUOUS
10
100.444
20
-85.8785
11
100.679
21
-86.2306
0
LINE
8
BLACK
6
CONTINUOUS
10
100.679
20
-86.2306
11
100.841
21
-86.6219
0
LINE
8
BLACK
6
CONTINUOUS
10
100.841
20
-86.6219
11
100.924
21
-87.0372
0
LINE
8
BLACK
6
CONTINUOUS
10
100.924
20
-87.0372
11
100.924
21
-87.4608
0
LINE
8
BLACK
6
CONTINUOUS
10
100.924
20
-87.4608
11
100.841
21
-87.8761
0
LINE
8
BLACK
6
CONTINUOUS
10
100.841
20
-87.8761
11
100.679
21
-88.2674
0
LINE
8
BLACK
6
CONTINUOUS
10
100.679
20
-88.2674
11
100.444
21
-88.6195
0
LINE
8
BLACK
6
CONTINUOUS
10
100.444
20
-88.6195
11
100.145
21
-88.919
0
LINE
8
BLACK
6
CONTINUOUS
10
100.145
20
-88.919
11
99.7924
21
-89.1543
0
LINE
8
BLACK
6
CONTINUOUS
10
99.7924
20
-89.1543
11
99.4011
21
-89.3164
0
LINE
8
BLACK
6
CONTINUOUS
10
99.4011
20
-89.3164
11
98.9858
21
-89.399
0
LINE
8
BLACK
6
CONTINUOUS
10
98.9858
20
-89.399
11
98.5622
21
-89.399
0
LINE
8
BLACK
6
CONTINUOUS
10
98.5622
20
-89.399
11
98.1469
21
-89.3164
0
LINE
8
BLACK
6
CONTINUOUS
10
98.1469
20
-89.3164
11
97.7556
21
-89.1543
0
LINE
8
BLACK
6
CONTINUOUS
10
97.7556
20
-89.1543
11
97.4035
21
-88.919
0
LINE
8
BLACK
6
CONTINUOUS
10
97.4035
20
-88.919
11
97.104
21
-88.6195
0
LINE
8
BLACK
6
CONTINUOUS
10
97.104
20
-88.6195
11
96.8687
21
-88.2674
0
LINE
8
BLACK
6
CONTINUOUS
10
96.8687
20
-88.2674
11
96.7066
21
-87.8761
0
LINE
8
BLACK
6
CONTINUOUS
10
96.7066
20
-87.8761
11
96.624
21
-87.4608
0
LINE
8
BLACK
6
CONTINUOUS
10
96.624
20
-87.4608
11
96.624
21
-87.0372
0
LINE
8
BLACK
6
CONTINUOUS
10
96.624
20
-87.0372
11
96.7066
21
-86.6219
0
LINE
8
BLACK
6
CONTINUOUS
10
96.7066
20
-86.6219
11
96.8687
21
-86.2306
0
LINE
8
BLACK
6
CONTINUOUS
10
96.8687
20
-86.2306
11
97.104
21
-85.8785
0
LINE
8
BLACK
6
CONTINUOUS
10
97.104
20
-85.8785
11
97.4035
21
-85.579
0
LINE
8
BLACK
6
CONTINUOUS
10
97.4035
20
-85.579
11
97.7556
21
-85.3437
0
LINE
8
BLACK
6
CONTINUOUS
10
97.7556
20
-85.3437
11
98.1469
21
-85.1816
0
LINE
8
BLACK
6
CONTINUOUS
10
98.1469
20
-85.1816
11
98.5622
21
-85.099
0
LINE
8
BLACK
6
CONTINUOUS
10
98.5622
20
-85.099
11
98.9858
21
-85.099
0
LINE
8
BLACK
6
CONTINUOUS
10
98.9858
20
-85.099
11
99.4011
21
-85.1816
0
LINE
8
BLACK
6
CONTINUOUS
10
121.285
20
-73.6608
11
121.285
21
-73.6608
0
LINE
8
BLACK
6
CONTINUOUS
10
121.285
20
-73.6608
11
121.285
21
-73.6608
0
LINE
8
BLACK
6
CONTINUOUS
10
121.285
20
-73.6608
11
121.286
21
-73.6608
0
LINE
8
BLACK
6
CONTINUOUS
10
121.286
20
-73.6608
11
121.29
21
-73.6613
0
LINE
8
BLACK
6
CONTINUOUS
10
121.29
20
-73.6613
11
121.295
21
-73.6618
0
LINE
8
BLACK
6
CONTINUOUS
10
121.295
20
-73.6618
11
121.295
21
-73.6619
0
LINE
8
BLACK
6
CONTINUOUS
10
121.295
20
-73.6619
11
121.295
21
-73.6619
0
LINE
8
BLACK
6
CONTINUOUS
10
121.295
20
-73.6619
11
121.3
21
-73.6633
0
LINE
8
BLACK
6
CONTINUOUS
10
121.3
20
-73.6633
11
121.304
21
-73.6647
0
LINE
8
BLACK
6
CONTINUOUS
10
121.304
20
-73.6647
11
121.305
21
-73.6648
0
LINE
8
BLACK
6
CONTINUOUS
10
121.305
20
-73.6648
11
121.305
21
-73.6648
0
LINE
8
BLACK
6
CONTINUOUS
10
121.305
20
-73.6648
11
121.309
21
-73.6671
0
LINE
8
BLACK
6
CONTINUOUS
10
121.309
20
-73.6671
11
121.313
21
-73.6693
0
LINE
8
BLACK
6
CONTINUOUS
10
121.313
20
-73.6693
11
121.313
21
-73.6695
0
LINE
8
BLACK
6
CONTINUOUS
10
121.313
20
-73.6695
11
121.313
21
-73.6695
0
LINE
8
BLACK
6
CONTINUOUS
10
121.313
20
-73.6695
11
121.317
21
-73.6725
0
LINE
8
BLACK
6
CONTINUOUS
10
121.317
20
-73.6725
11
121.32
21
-73.6756
0
LINE
8
BLACK
6
CONTINUOUS
10
121.32
20
-73.6756
11
121.321
21
-73.6757
0
LINE
8
BLACK
6
CONTINUOUS
10
121.321
20
-73.6757
11
121.321
21
-73.6758
0
LINE
8
BLACK
6
CONTINUOUS
10
121.321
20
-73.6758
11
121.324
21
-73.6794
0
LINE
8
BLACK
6
CONTINUOUS
10
121.324
20
-73.6794
11
121.327
21
-73.6831
0
LINE
8
BLACK
6
CONTINUOUS
10
121.327
20
-73.6831
11
121.327
21
-73.6833
0
LINE
8
BLACK
6
CONTINUOUS
10
121.327
20
-73.6833
11
121.327
21
-73.6834
0
LINE
8
BLACK
6
CONTINUOUS
10
121.327
20
-73.6834
11
121.329
21
-73.6875
0
LINE
8
BLACK
6
CONTINUOUS
10
121.329
20
-73.6875
11
121.331
21
-73.6917
0
LINE
8
BLACK
6
CONTINUOUS
10
121.331
20
-73.6917
11
121.331
21
-73.6919
0
LINE
8
BLACK
6
CONTINUOUS
10
121.331
20
-73.6919
11
121.331
21
-73.6921
0
LINE
8
BLACK
6
CONTINUOUS
10
121.331
20
-73.6921
11
121.333
21
-73.6965
0
LINE
8
BLACK
6
CONTINUOUS
10
121.333
20
-73.6965
11
121.334
21
-73.7011
0
LINE
8
BLACK
6
CONTINUOUS
10
121.334
20
-73.7011
11
121.334
21
-73.7013
0
LINE
8
BLACK
6
CONTINUOUS
10
121.334
20
-73.7013
11
121.334
21
-73.7014
0
LINE
8
BLACK
6
CONTINUOUS
10
121.334
20
-73.7014
11
121.335
21
-73.7061
0
LINE
8
BLACK
6
CONTINUOUS
10
121.335
20
-73.7061
11
121.335
21
-73.7108
0
LINE
8
BLACK
6
CONTINUOUS
10
121.335
20
-73.7108
11
121.335
21
-74.3458
0
LINE
8
BLACK
6
CONTINUOUS
10
121.335
20
-74.3458
11
121.335
21
-74.3461
0
LINE
8
BLACK
6
CONTINUOUS
10
121.335
20
-74.3461
11
121.335
21
-74.3461
0
LINE
8
BLACK
6
CONTINUOUS
10
121.335
20
-74.3461
11
121.335
21
-74.3462
0
LINE
8
BLACK
6
CONTINUOUS
10
121.335
20
-74.3462
11
121.335
21
-74.3465
0
LINE
8
BLACK
6
CONTINUOUS
10
121.335
20
-74.3465
11
121.334
21
-74.3511
0
LINE
8
BLACK
6
CONTINUOUS
10
121.334
20
-74.3511
11
121.334
21
-74.3559
0
LINE
8
BLACK
6
CONTINUOUS
10
121.334
20
-74.3559
11
121.334
21
-74.356
0
LINE
8
BLACK
6
CONTINUOUS
10
121.334
20
-74.356
11
121.334
21
-74.3562
0
LINE
8
BLACK
6
CONTINUOUS
10
121.334
20
-74.3562
11
121.332
21
-74.3607
0
LINE
8
BLACK
6
CONTINUOUS
10
121.332
20
-74.3607
11
121.331
21
-74.3652
0
LINE
8
BLACK
6
CONTINUOUS
10
121.331
20
-74.3652
11
121.331
21
-74.3653
0
LINE
8
BLACK
6
CONTINUOUS
10
121.331
20
-74.3653
11
121.331
21
-74.3655
0
LINE
8
BLACK
6
CONTINUOUS
10
121.331
20
-74.3655
11
121.329
21
-74.3696
0
LINE
8
BLACK
6
CONTINUOUS
10
121.329
20
-74.3696
11
121.326
21
-74.3738
0
LINE
8
BLACK
6
CONTINUOUS
10
121.326
20
-74.3738
11
121.326
21
-74.3739
0
LINE
8
BLACK
6
CONTINUOUS
10
121.326
20
-74.3739
11
121.326
21
-74.374
0
LINE
8
BLACK
6
CONTINUOUS
10
121.326
20
-74.374
11
121.323
21
-74.3776
0
LINE
8
BLACK
6
CONTINUOUS
10
121.323
20
-74.3776
11
121.32
21
-74.3813
0
LINE
8
BLACK
6
CONTINUOUS
10
121.32
20
-74.3813
11
121.32
21
-74.3814
0
LINE
8
BLACK
6
CONTINUOUS
10
121.32
20
-74.3814
11
121.32
21
-74.3815
0
LINE
8
BLACK
6
CONTINUOUS
10
121.32
20
-74.3815
11
121.316
21
-74.3844
0
LINE
8
BLACK
6
CONTINUOUS
10
121.316
20
-74.3844
11
121.313
21
-74.3874
0
LINE
8
BLACK
6
CONTINUOUS
10
121.313
20
-74.3874
11
121.313
21
-74.3875
0
LINE
8
BLACK
6
CONTINUOUS
10
121.313
20
-74.3875
11
121.312
21
-74.3876
0
LINE
8
BLACK
6
CONTINUOUS
10
121.312
20
-74.3876
11
121.308
21
-74.3898
0
LINE
8
BLACK
6
CONTINUOUS
10
121.308
20
-74.3898
11
121.304
21
-74.392
0
LINE
8
BLACK
6
CONTINUOUS
10
121.304
20
-74.392
11
121.304
21
-74.3921
0
LINE
8
BLACK
6
CONTINUOUS
10
121.304
20
-74.3921
11
121.304
21
-74.3922
0
LINE
8
BLACK
6
CONTINUOUS
10
121.304
20
-74.3922
11
121.299
21
-74.3935
0
LINE
8
BLACK
6
CONTINUOUS
10
121.299
20
-74.3935
11
121.295
21
-74.3948
0
LINE
8
BLACK
6
CONTINUOUS
10
121.295
20
-74.3948
11
121.295
21
-74.3949
0
LINE
8
BLACK
6
CONTINUOUS
10
121.295
20
-74.3949
11
121.294
21
-74.3949
0
LINE
8
BLACK
6
CONTINUOUS
10
121.294
20
-74.3949
11
121.29
21
-74.3953
0
LINE
8
BLACK
6
CONTINUOUS
10
121.29
20
-74.3953
11
121.285
21
-74.3958
0
LINE
8
BLACK
6
CONTINUOUS
10
121.285
20
-74.3958
11
120.65
21
-74.3958
0
LINE
8
BLACK
6
CONTINUOUS
10
120.65
20
-74.3958
11
120.65
21
-74.3958
0
LINE
8
BLACK
6
CONTINUOUS
10
120.65
20
-74.3958
11
120.65
21
-74.3958
0
LINE
8
BLACK
6
CONTINUOUS
10
120.65
20
-74.3958
11
120.65
21
-74.3958
0
LINE
8
BLACK
6
CONTINUOUS
10
120.65
20
-74.3958
11
120.649
21
-74.3958
0
LINE
8
BLACK
6
CONTINUOUS
10
120.649
20
-74.3958
11
120.645
21
-74.3953
0
LINE
8
BLACK
6
CONTINUOUS
10
120.645
20
-74.3953
11
120.64
21
-74.3948
0
LINE
8
BLACK
6
CONTINUOUS
10
120.64
20
-74.3948
11
120.64
21
-74.3947
0
LINE
8
BLACK
6
CONTINUOUS
10
120.64
20
-74.3947
11
120.64
21
-74.3947
0
LINE
8
BLACK
6
CONTINUOUS
10
120.64
20
-74.3947
11
120.635
21
-74.3933
0
LINE
8
BLACK
6
CONTINUOUS
10
120.635
20
-74.3933
11
120.631
21
-74.3919
0
LINE
8
BLACK
6
CONTINUOUS
10
120.631
20
-74.3919
11
120.63
21
-74.3918
0
LINE
8
BLACK
6
CONTINUOUS
10
120.63
20
-74.3918
11
120.63
21
-74.3918
0
LINE
8
BLACK
6
CONTINUOUS
10
120.63
20
-74.3918
11
120.626
21
-74.3895
0
LINE
8
BLACK
6
CONTINUOUS
10
120.626
20
-74.3895
11
120.622
21
-74.3873
0
LINE
8
BLACK
6
CONTINUOUS
10
120.622
20
-74.3873
11
120.622
21
-74.3871
0
LINE
8
BLACK
6
CONTINUOUS
10
120.622
20
-74.3871
11
120.622
21
-74.3871
0
LINE
8
BLACK
6
CONTINUOUS
10
120.622
20
-74.3871
11
120.618
21
-74.3841
0
LINE
8
BLACK
6
CONTINUOUS
10
120.618
20
-74.3841
11
120.615
21
-74.381
0
LINE
8
BLACK
6
CONTINUOUS
10
120.615
20
-74.381
11
120.614
21
-74.3809
0
LINE
8
BLACK
6
CONTINUOUS
10
120.614
20
-74.3809
11
120.614
21
-74.3808
0
LINE
8
BLACK
6
CONTINUOUS
10
120.614
20
-74.3808
11
120.611
21
-74.3772
0
LINE
8
BLACK
6
CONTINUOUS
10
120.611
20
-74.3772
11
120.608
21
-74.3735
0
LINE
8
BLACK
6
CONTINUOUS
10
120.608
20
-74.3735
11
120.608
21
-74.3733
0
LINE
8
BLACK
6
CONTINUOUS
10
120.608
20
-74.3733
11
120.608
21
-74.3732
0
LINE
8
BLACK
6
CONTINUOUS
10
120.608
20
-74.3732
11
120.606
21
-74.3691
0
LINE
8
BLACK
6
CONTINUOUS
10
120.606
20
-74.3691
11
120.604
21
-74.3649
0
LINE
8
BLACK
6
CONTINUOUS
10
120.604
20
-74.3649
11
120.604
21
-74.3647
0
LINE
8
BLACK
6
CONTINUOUS
10
120.604
20
-74.3647
11
120.604
21
-74.3645
0
LINE
8
BLACK
6
CONTINUOUS
10
120.604
20
-74.3645
11
120.602
21
-74.3601
0
LINE
8
BLACK
6
CONTINUOUS
10
120.602
20
-74.3601
11
120.601
21
-74.3555
0
LINE
8
BLACK
6
CONTINUOUS
10
120.601
20
-74.3555
11
120.601
21
-74.3553
0
LINE
8
BLACK
6
CONTINUOUS
10
120.601
20
-74.3553
11
120.601
21
-74.3552
0
LINE
8
BLACK
6
CONTINUOUS
10
120.601
20
-74.3552
11
120.6
21
-74.3505
0
LINE
8
BLACK
6
CONTINUOUS
10
120.6
20
-74.3505
11
120.6
21
-74.3458
0
LINE
8
BLACK
6
CONTINUOUS
10
120.6
20
-74.3458
11
120.6
21
-73.7108
0
LINE
8
BLACK
6
CONTINUOUS
10
120.6
20
-73.7108
11
120.6
21
-73.7105
0
LINE
8
BLACK
6
CONTINUOUS
10
120.6
20
-73.7105
11
120.6
21
-73.7105
0
LINE
8
BLACK
6
CONTINUOUS
10
120.6
20
-73.7105
11
120.6
21
-73.7104
0
LINE
8
BLACK
6
CONTINUOUS
10
120.6
20
-73.7104
11
120.6
21
-73.7101
0
LINE
8
BLACK
6
CONTINUOUS
10
120.6
20
-73.7101
11
120.601
21
-73.7055
0
LINE
8
BLACK
6
CONTINUOUS
10
120.601
20
-73.7055
11
120.601
21
-73.7007
0
LINE
8
BLACK
6
CONTINUOUS
10
120.601
20
-73.7007
11
120.601
21
-73.7006
0
LINE
8
BLACK
6
CONTINUOUS
10
120.601
20
-73.7006
11
120.601
21
-73.7004
0
LINE
8
BLACK
6
CONTINUOUS
10
120.601
20
-73.7004
11
120.603
21
-73.6959
0
LINE
8
BLACK
6
CONTINUOUS
10
120.603
20
-73.6959
11
120.604
21
-73.6914
0
LINE
8
BLACK
6
CONTINUOUS
10
120.604
20
-73.6914
11
120.604
21
-73.6913
0
LINE
8
BLACK
6
CONTINUOUS
10
120.604
20
-73.6913
11
120.604
21
-73.6911
0
LINE
8
BLACK
6
CONTINUOUS
10
120.604
20
-73.6911
11
120.606
21
-73.687
0
LINE
8
BLACK
6
CONTINUOUS
10
120.606
20
-73.687
11
120.609
21
-73.6828
0
LINE
8
BLACK
6
CONTINUOUS
10
120.609
20
-73.6828
11
120.609
21
-73.6827
0
LINE
8
BLACK
6
CONTINUOUS
10
120.609
20
-73.6827
11
120.609
21
-73.6826
0
LINE
8
BLACK
6
CONTINUOUS
10
120.609
20
-73.6826
11
120.612
21
-73.679
0
LINE
8
BLACK
6
CONTINUOUS
10
120.612
20
-73.679
11
120.615
21
-73.6753
0
LINE
8
BLACK
6
CONTINUOUS
10
120.615
20
-73.6753
11
120.615
21
-73.6752
0
LINE
8
BLACK
6
CONTINUOUS
10
120.615
20
-73.6752
11
120.615
21
-73.6751
0
LINE
8
BLACK
6
CONTINUOUS
10
120.615
20
-73.6751
11
120.619
21
-73.6722
0
LINE
8
BLACK
6
CONTINUOUS
10
120.619
20
-73.6722
11
120.622
21
-73.6692
0
LINE
8
BLACK
6
CONTINUOUS
10
120.622
20
-73.6692
11
120.622
21
-73.6691
0
LINE
8
BLACK
6
CONTINUOUS
10
120.622
20
-73.6691
11
120.623
21
-73.669
0
LINE
8
BLACK
6
CONTINUOUS
10
120.623
20
-73.669
11
120.627
21
-73.6668
0
LINE
8
BLACK
6
CONTINUOUS
10
120.627
20
-73.6668
11
120.631
21
-73.6646
0
LINE
8
BLACK
6
CONTINUOUS
10
120.631
20
-73.6646
11
120.631
21
-73.6645
0
LINE
8
BLACK
6
CONTINUOUS
10
120.631
20
-73.6645
11
120.631
21
-73.6644
0
LINE
8
BLACK
6
CONTINUOUS
10
120.631
20
-73.6644
11
120.636
21
-73.6631
0
LINE
8
BLACK
6
CONTINUOUS
10
120.636
20
-73.6631
11
120.64
21
-73.6618
0
LINE
8
BLACK
6
CONTINUOUS
10
120.64
20
-73.6618
11
120.64
21
-73.6617
0
LINE
8
BLACK
6
CONTINUOUS
10
120.64
20
-73.6617
11
120.641
21
-73.6617
0
LINE
8
BLACK
6
CONTINUOUS
10
120.641
20
-73.6617
11
120.645
21
-73.6613
0
LINE
8
BLACK
6
CONTINUOUS
10
120.645
20
-73.6613
11
120.65
21
-73.6608
0
LINE
8
BLACK
6
CONTINUOUS
10
120.65
20
-73.6608
11
121.285
21
-73.6608
0
LINE
8
BLACK
6
CONTINUOUS
10
121.285
20
-73.6608
11
121.285
21
-73.6608
0
LINE
8
BLACK
6
CONTINUOUS
10
122.555
20
-73.6608
11
122.555
21
-73.6608
0
LINE
8
BLACK
6
CONTINUOUS
10
122.555
20
-73.6608
11
122.555
21
-73.6608
0
LINE
8
BLACK
6
CONTINUOUS
10
122.555
20
-73.6608
11
122.556
21
-73.6608
0
LINE
8
BLACK
6
CONTINUOUS
10
122.556
20
-73.6608
11
122.56
21
-73.6613
0
LINE
8
BLACK
6
CONTINUOUS
10
122.56
20
-73.6613
11
122.565
21
-73.6618
0
LINE
8
BLACK
6
CONTINUOUS
10
122.565
20
-73.6618
11
122.565
21
-73.6619
0
LINE
8
BLACK
6
CONTINUOUS
10
122.565
20
-73.6619
11
122.565
21
-73.6619
0
LINE
8
BLACK
6
CONTINUOUS
10
122.565
20
-73.6619
11
122.57
21
-73.6633
0
LINE
8
BLACK
6
CONTINUOUS
10
122.57
20
-73.6633
11
122.574
21
-73.6647
0
LINE
8
BLACK
6
CONTINUOUS
10
122.574
20
-73.6647
11
122.575
21
-73.6648
0
LINE
8
BLACK
6
CONTINUOUS
10
122.575
20
-73.6648
11
122.575
21
-73.6648
0
LINE
8
BLACK
6
CONTINUOUS
10
122.575
20
-73.6648
11
122.579
21
-73.6671
0
LINE
8
BLACK
6
CONTINUOUS
10
122.579
20
-73.6671
11
122.583
21
-73.6693
0
LINE
8
BLACK
6
CONTINUOUS
10
122.583
20
-73.6693
11
122.583
21
-73.6695
0
LINE
8
BLACK
6
CONTINUOUS
10
122.583
20
-73.6695
11
122.583
21
-73.6695
0
LINE
8
BLACK
6
CONTINUOUS
10
122.583
20
-73.6695
11
122.587
21
-73.6725
0
LINE
8
BLACK
6
CONTINUOUS
10
122.587
20
-73.6725
11
122.59
21
-73.6756
0
LINE
8
BLACK
6
CONTINUOUS
10
122.59
20
-73.6756
11
122.591
21
-73.6757
0
LINE
8
BLACK
6
CONTINUOUS
10
122.591
20
-73.6757
11
122.591
21
-73.6758
0
LINE
8
BLACK
6
CONTINUOUS
10
122.591
20
-73.6758
11
122.594
21
-73.6794
0
LINE
8
BLACK
6
CONTINUOUS
10
122.594
20
-73.6794
11
122.597
21
-73.6831
0
LINE
8
BLACK
6
CONTINUOUS
10
122.597
20
-73.6831
11
122.597
21
-73.6833
0
LINE
8
BLACK
6
CONTINUOUS
10
122.597
20
-73.6833
11
122.597
21
-73.6834
0
LINE
8
BLACK
6
CONTINUOUS
10
122.597
20
-73.6834
11
122.599
21
-73.6875
0
LINE
8
BLACK
6
CONTINUOUS
10
122.599
20
-73.6875
11
122.601
21
-73.6917
0
LINE
8
BLACK
6
CONTINUOUS
10
122.601
20
-73.6917
11
122.601
21
-73.6919
0
LINE
8
BLACK
6
CONTINUOUS
10
122.601
20
-73.6919
11
122.601
21
-73.6921
0
LINE
8
BLACK
6
CONTINUOUS
10
122.601
20
-73.6921
11
122.603
21
-73.6965
0
LINE
8
BLACK
6
CONTINUOUS
10
122.603
20
-73.6965
11
122.604
21
-73.7011
0
LINE
8
BLACK
6
CONTINUOUS
10
122.604
20
-73.7011
11
122.604
21
-73.7013
0
LINE
8
BLACK
6
CONTINUOUS
10
122.604
20
-73.7013
11
122.604
21
-73.7014
0
LINE
8
BLACK
6
CONTINUOUS
10
122.604
20
-73.7014
11
122.605
21
-73.7061
0
LINE
8
BLACK
6
CONTINUOUS
10
122.605
20
-73.7061
11
122.605
21
-73.7108
0
LINE
8
BLACK
6
CONTINUOUS
10
122.605
20
-73.7108
11
122.605
21
-74.3458
0
LINE
8
BLACK
6
CONTINUOUS
10
122.605
20
-74.3458
11
122.605
21
-74.3461
0
LINE
8
BLACK
6
CONTINUOUS
10
122.605
20
-74.3461
11
122.605
21
-74.3461
0
LINE
8
BLACK
6
CONTINUOUS
10
122.605
20
-74.3461
11
122.605
21
-74.3462
0
LINE
8
BLACK
6
CONTINUOUS
10
122.605
20
-74.3462
11
122.605
21
-74.3465
0
LINE
8
BLACK
6
CONTINUOUS
10
122.605
20
-74.3465
11
122.604
21
-74.3511
0
LINE
8
BLACK
6
CONTINUOUS
10
122.604
20
-74.3511
11
122.604
21
-74.3559
0
LINE
8
BLACK
6
CONTINUOUS
10
122.604
20
-74.3559
11
122.604
21
-74.356
0
LINE
8
BLACK
6
CONTINUOUS
10
122.604
20
-74.356
11
122.604
21
-74.3562
0
LINE
8
BLACK
6
CONTINUOUS
10
122.604
20
-74.3562
11
122.602
21
-74.3607
0
LINE
8
BLACK
6
CONTINUOUS
10
122.602
20
-74.3607
11
122.601
21
-74.3652
0
LINE
8
BLACK
6
CONTINUOUS
10
122.601
20
-74.3652
11
122.601
21
-74.3653
0
LINE
8
BLACK
6
CONTINUOUS
10
122.601
20
-74.3653
11
122.601
21
-74.3655
0
LINE
8
BLACK
6
CONTINUOUS
10
122.601
20
-74.3655
11
122.599
21
-74.3696
0
LINE
8
BLACK
6
CONTINUOUS
10
122.599
20
-74.3696
11
122.596
21
-74.3738
0
LINE
8
BLACK
6
CONTINUOUS
10
122.596
20
-74.3738
11
122.596
21
-74.3739
0
LINE
8
BLACK
6
CONTINUOUS
10
122.596
20
-74.3739
11
122.596
21
-74.374
0
LINE
8
BLACK
6
CONTINUOUS
10
122.596
20
-74.374
11
122.593
21
-74.3776
0
LINE
8
BLACK
6
CONTINUOUS
10
122.593
20
-74.3776
11
122.59
21
-74.3813
0
LINE
8
BLACK
6
CONTINUOUS
10
122.59
20
-74.3813
11
122.59
21
-74.3814
0
LINE
8
BLACK
6
CONTINUOUS
10
122.59
20
-74.3814
11
122.59
21
-74.3815
0
LINE
8
BLACK
6
CONTINUOUS
10
122.59
20
-74.3815
11
122.586
21
-74.3844
0
LINE
8
BLACK
6
CONTINUOUS
10
122.586
20
-74.3844
11
122.583
21
-74.3874
0
LINE
8
BLACK
6
CONTINUOUS
10
122.583
20
-74.3874
11
122.583
21
-74.3875
0
LINE
8
BLACK
6
CONTINUOUS
10
122.583
20
-74.3875
11
122.582
21
-74.3876
0
LINE
8
BLACK
6
CONTINUOUS
10
122.582
20
-74.3876
11
122.578
21
-74.3898
0
LINE
8
BLACK
6
CONTINUOUS
10
122.578
20
-74.3898
11
122.574
21
-74.392
0
LINE
8
BLACK
6
CONTINUOUS
10
122.574
20
-74.392
11
122.574
21
-74.3921
0
LINE
8
BLACK
6
CONTINUOUS
10
122.574
20
-74.3921
11
122.574
21
-74.3922
0
LINE
8
BLACK
6
CONTINUOUS
10
122.574
20
-74.3922
11
122.569
21
-74.3935
0
LINE
8
BLACK
6
CONTINUOUS
10
122.569
20
-74.3935
11
122.565
21
-74.3948
0
LINE
8
BLACK
6
CONTINUOUS
10
122.565
20
-74.3948
11
122.565
21
-74.3949
0
LINE
8
BLACK
6
CONTINUOUS
10
122.565
20
-74.3949
11
122.564
21
-74.3949
0
LINE
8
BLACK
6
CONTINUOUS
10
122.564
20
-74.3949
11
122.56
21
-74.3953
0
LINE
8
BLACK
6
CONTINUOUS
10
122.56
20
-74.3953
11
122.555
21
-74.3958
0
LINE
8
BLACK
6
CONTINUOUS
10
122.555
20
-74.3958
11
121.92
21
-74.3958
0
LINE
8
BLACK
6
CONTINUOUS
10
121.92
20
-74.3958
11
121.92
21
-74.3958
0
LINE
8
BLACK
6
CONTINUOUS
10
121.92
20
-74.3958
11
121.92
21
-74.3958
0
LINE
8
BLACK
6
CONTINUOUS
10
121.92
20
-74.3958
11
121.92
21
-74.3958
0
LINE
8
BLACK
6
CONTINUOUS
10
121.92
20
-74.3958
11
121.919
21
-74.3958
0
LINE
8
BLACK
6
CONTINUOUS
10
121.919
20
-74.3958
11
121.915
21
-74.3953
0
LINE
8
BLACK
6
CONTINUOUS
10
121.915
20
-74.3953
11
121.91
21
-74.3948
0
LINE
8
BLACK
6
CONTINUOUS
10
121.91
20
-74.3948
11
121.91
21
-74.3947
0
LINE
8
BLACK
6
CONTINUOUS
10
121.91
20
-74.3947
11
121.91
21
-74.3947
0
LINE
8
BLACK
6
CONTINUOUS
10
121.91
20
-74.3947
11
121.905
21
-74.3933
0
LINE
8
BLACK
6
CONTINUOUS
10
121.905
20
-74.3933
11
121.901
21
-74.3919
0
LINE
8
BLACK
6
CONTINUOUS
10
121.901
20
-74.3919
11
121.9
21
-74.3918
0
LINE
8
BLACK
6
CONTINUOUS
10
121.9
20
-74.3918
11
121.9
21
-74.3918
0
LINE
8
BLACK
6
CONTINUOUS
10
121.9
20
-74.3918
11
121.896
21
-74.3895
0
LINE
8
BLACK
6
CONTINUOUS
10
121.896
20
-74.3895
11
121.892
21
-74.3873
0
LINE
8
BLACK
6
CONTINUOUS
10
121.892
20
-74.3873
11
121.892
21
-74.3871
0
LINE
8
BLACK
6
CONTINUOUS
10
121.892
20
-74.3871
11
121.892
21
-74.3871
0
LINE
8
BLACK
6
CONTINUOUS
10
121.892
20
-74.3871
11
121.888
21
-74.3841
0
LINE
8
BLACK
6
CONTINUOUS
10
121.888
20
-74.3841
11
121.885
21
-74.381
0
LINE
8
BLACK
6
CONTINUOUS
10
121.885
20
-74.381
11
121.884
21
-74.3809
0
LINE
8
BLACK
6
CONTINUOUS
10
121.884
20
-74.3809
11
121.884
21
-74.3808
0
LINE
8
BLACK
6
CONTINUOUS
10
121.884
20
-74.3808
11
121.881
21
-74.3772
0
LINE
8
BLACK
6
CONTINUOUS
10
121.881
20
-74.3772
11
121.878
21
-74.3735
0
LINE
8
BLACK
6
CONTINUOUS
10
121.878
20
-74.3735
11
121.878
21
-74.3733
0
LINE
8
BLACK
6
CONTINUOUS
10
121.878
20
-74.3733
11
121.878
21
-74.3732
0
LINE
8
BLACK
6
CONTINUOUS
10
121.878
20
-74.3732
11
121.876
21
-74.3691
0
LINE
8
BLACK
6
CONTINUOUS
10
121.876
20
-74.3691
11
121.874
21
-74.3649
0
LINE
8
BLACK
6
CONTINUOUS
10
121.874
20
-74.3649
11
121.874
21
-74.3647
0
LINE
8
BLACK
6
CONTINUOUS
10
121.874
20
-74.3647
11
121.874
21
-74.3645
0
LINE
8
BLACK
6
CONTINUOUS
10
121.874
20
-74.3645
11
121.872
21
-74.3601
0
LINE
8
BLACK
6
CONTINUOUS
10
121.872
20
-74.3601
11
121.871
21
-74.3555
0
LINE
8
BLACK
6
CONTINUOUS
10
121.871
20
-74.3555
11
121.871
21
-74.3553
0
LINE
8
BLACK
6
CONTINUOUS
10
121.871
20
-74.3553
11
121.871
21
-74.3552
0
LINE
8
BLACK
6
CONTINUOUS
10
121.871
20
-74.3552
11
121.87
21
-74.3505
0
LINE
8
BLACK
6
CONTINUOUS
10
121.87
20
-74.3505
11
121.87
21
-74.3458
0
LINE
8
BLACK
6
CONTINUOUS
10
121.87
20
-74.3458
11
121.87
21
-73.7108
0
LINE
8
BLACK
6
CONTINUOUS
10
121.87
20
-73.7108
11
121.87
21
-73.7105
0
LINE
8
BLACK
6
CONTINUOUS
10
121.87
20
-73.7105
11
121.87
21
-73.7105
0
LINE
8
BLACK
6
CONTINUOUS
10
121.87
20
-73.7105
11
121.87
21
-73.7104
0
LINE
8
BLACK
6
CONTINUOUS
10
121.87
20
-73.7104
11
121.87
21
-73.7101
0
LINE
8
BLACK
6
CONTINUOUS
10
121.87
20
-73.7101
11
121.871
21
-73.7055
0
LINE
8
BLACK
6
CONTINUOUS
10
121.871
20
-73.7055
11
121.871
21
-73.7007
0
LINE
8
BLACK
6
CONTINUOUS
10
121.871
20
-73.7007
11
121.871
21
-73.7006
0
LINE
8
BLACK
6
CONTINUOUS
10
121.871
20
-73.7006
11
121.871
21
-73.7004
0
LINE
8
BLACK
6
CONTINUOUS
10
121.871
20
-73.7004
11
121.873
21
-73.6959
0
LINE
8
BLACK
6
CONTINUOUS
10
121.873
20
-73.6959
11
121.874
21
-73.6914
0
LINE
8
BLACK
6
CONTINUOUS
10
121.874
20
-73.6914
11
121.874
21
-73.6913
0
LINE
8
BLACK
6
CONTINUOUS
10
121.874
20
-73.6913
11
121.874
21
-73.6911
0
LINE
8
BLACK
6
CONTINUOUS
10
121.874
20
-73.6911
11
121.876
21
-73.687
0
LINE
8
BLACK
6
CONTINUOUS
10
121.876
20
-73.687
11
121.879
21
-73.6828
0
LINE
8
BLACK
6
CONTINUOUS
10
121.879
20
-73.6828
11
121.879
21
-73.6827
0
LINE
8
BLACK
6
CONTINUOUS
10
121.879
20
-73.6827
11
121.879
21
-73.6826
0
LINE
8
BLACK
6
CONTINUOUS
10
121.879
20
-73.6826
11
121.882
21
-73.679
0
LINE
8
BLACK
6
CONTINUOUS
10
121.882
20
-73.679
11
121.885
21
-73.6753
0
LINE
8
BLACK
6
CONTINUOUS
10
121.885
20
-73.6753
11
121.885
21
-73.6752
0
LINE
8
BLACK
6
CONTINUOUS
10
121.885
20
-73.6752
11
121.885
21
-73.6751
0
LINE
8
BLACK
6
CONTINUOUS
10
121.885
20
-73.6751
11
121.889
21
-73.6722
0
LINE
8
BLACK
6
CONTINUOUS
10
121.889
20
-73.6722
11
121.892
21
-73.6692
0
LINE
8
BLACK
6
CONTINUOUS
10
121.892
20
-73.6692
11
121.892
21
-73.6691
0
LINE
8
BLACK
6
CONTINUOUS
10
121.892
20
-73.6691
11
121.893
21
-73.669
0
LINE
8
BLACK
6
CONTINUOUS
10
121.893
20
-73.669
11
121.897
21
-73.6668
0
LINE
8
BLACK
6
CONTINUOUS
10
121.897
20
-73.6668
11
121.901
21
-73.6646
0
LINE
8
BLACK
6
CONTINUOUS
10
121.901
20
-73.6646
11
121.901
21
-73.6645
0
LINE
8
BLACK
6
CONTINUOUS
10
121.901
20
-73.6645
11
121.901
21
-73.6644
0
LINE
8
BLACK
6
CONTINUOUS
10
121.901
20
-73.6644
11
121.906
21
-73.6631
0
LINE
8
BLACK
6
CONTINUOUS
10
121.906
20
-73.6631
11
121.91
21
-73.6618
0
LINE
8
BLACK
6
CONTINUOUS
10
121.91
20
-73.6618
11
121.91
21
-73.6617
0
LINE
8
BLACK
6
CONTINUOUS
10
121.91
20
-73.6617
11
121.911
21
-73.6617
0
LINE
8
BLACK
6
CONTINUOUS
10
121.911
20
-73.6617
11
121.915
21
-73.6613
0
LINE
8
BLACK
6
CONTINUOUS
10
121.915
20
-73.6613
11
121.92
21
-73.6608
0
LINE
8
BLACK
6
CONTINUOUS
10
121.92
20
-73.6608
11
122.555
21
-73.6608
0
LINE
8
BLACK
6
CONTINUOUS
10
122.555
20
-73.6608
11
122.555
21
-73.6608
0
LINE
8
BLACK
6
CONTINUOUS
10
118.745
20
-73.6608
11
118.745
21
-73.6608
0
LINE
8
BLACK
6
CONTINUOUS
10
118.745
20
-73.6608
11
118.745
21
-73.6608
0
LINE
8
BLACK
6
CONTINUOUS
10
118.745
20
-73.6608
11
118.746
21
-73.6608
0
LINE
8
BLACK
6
CONTINUOUS
10
118.746
20
-73.6608
11
118.75
21
-73.6613
0
LINE
8
BLACK
6
CONTINUOUS
10
118.75
20
-73.6613
11
118.755
21
-73.6618
0
LINE
8
BLACK
6
CONTINUOUS
10
118.755
20
-73.6618
11
118.755
21
-73.6619
0
LINE
8
BLACK
6
CONTINUOUS
10
118.755
20
-73.6619
11
118.755
21
-73.6619
0
LINE
8
BLACK
6
CONTINUOUS
10
118.755
20
-73.6619
11
118.76
21
-73.6633
0
LINE
8
BLACK
6
CONTINUOUS
10
118.76
20
-73.6633
11
118.764
21
-73.6647
0
LINE
8
BLACK
6
CONTINUOUS
10
118.764
20
-73.6647
11
118.765
21
-73.6648
0
LINE
8
BLACK
6
CONTINUOUS
10
118.765
20
-73.6648
11
118.765
21
-73.6648
0
LINE
8
BLACK
6
CONTINUOUS
10
118.765
20
-73.6648
11
118.769
21
-73.6671
0
LINE
8
BLACK
6
CONTINUOUS
10
118.769
20
-73.6671
11
118.773
21
-73.6693
0
LINE
8
BLACK
6
CONTINUOUS
10
118.773
20
-73.6693
11
118.773
21
-73.6695
0
LINE
8
BLACK
6
CONTINUOUS
10
118.773
20
-73.6695
11
118.773
21
-73.6695
0
LINE
8
BLACK
6
CONTINUOUS
10
118.773
20
-73.6695
11
118.777
21
-73.6725
0
LINE
8
BLACK
6
CONTINUOUS
10
118.777
20
-73.6725
11
118.78
21
-73.6756
0
LINE
8
BLACK
6
CONTINUOUS
10
118.78
20
-73.6756
11
118.781
21
-73.6757
0
LINE
8
BLACK
6
CONTINUOUS
10
118.781
20
-73.6757
11
118.781
21
-73.6758
0
LINE
8
BLACK
6
CONTINUOUS
10
118.781
20
-73.6758
11
118.784
21
-73.6794
0
LINE
8
BLACK
6
CONTINUOUS
10
118.784
20
-73.6794
11
118.787
21
-73.6831
0
LINE
8
BLACK
6
CONTINUOUS
10
118.787
20
-73.6831
11
118.787
21
-73.6833
0
LINE
8
BLACK
6
CONTINUOUS
10
118.787
20
-73.6833
11
118.787
21
-73.6834
0
LINE
8
BLACK
6
CONTINUOUS
10
118.787
20
-73.6834
11
118.789
21
-73.6875
0
LINE
8
BLACK
6
CONTINUOUS
10
118.789
20
-73.6875
11
118.791
21
-73.6917
0
LINE
8
BLACK
6
CONTINUOUS
10
118.791
20
-73.6917
11
118.791
21
-73.6919
0
LINE
8
BLACK
6
CONTINUOUS
10
118.791
20
-73.6919
11
118.791
21
-73.6921
0
LINE
8
BLACK
6
CONTINUOUS
10
118.791
20
-73.6921
11
118.793
21
-73.6965
0
LINE
8
BLACK
6
CONTINUOUS
10
118.793
20
-73.6965
11
118.794
21
-73.7011
0
LINE
8
BLACK
6
CONTINUOUS
10
118.794
20
-73.7011
11
118.794
21
-73.7013
0
LINE
8
BLACK
6
CONTINUOUS
10
118.794
20
-73.7013
11
118.794
21
-73.7014
0
LINE
8
BLACK
6
CONTINUOUS
10
118.794
20
-73.7014
11
118.795
21
-73.7061
0
LINE
8
BLACK
6
CONTINUOUS
10
118.795
20
-73.7061
11
118.795
21
-73.7108
0
LINE
8
BLACK
6
CONTINUOUS
10
118.795
20
-73.7108
11
118.795
21
-74.3458
0
LINE
8
BLACK
6
CONTINUOUS
10
118.795
20
-74.3458
11
118.795
21
-74.3461
0
LINE
8
BLACK
6
CONTINUOUS
10
118.795
20
-74.3461
11
118.795
21
-74.3461
0
LINE
8
BLACK
6
CONTINUOUS
10
118.795
20
-74.3461
11
118.795
21
-74.3462
0
LINE
8
BLACK
6
CONTINUOUS
10
118.795
20
-74.3462
11
118.795
21
-74.3465
0
LINE
8
BLACK
6
CONTINUOUS
10
118.795
20
-74.3465
11
118.794
21
-74.3511
0
LINE
8
BLACK
6
CONTINUOUS
10
118.794
20
-74.3511
11
118.794
21
-74.3559
0
LINE
8
BLACK
6
CONTINUOUS
10
118.794
20
-74.3559
11
118.794
21
-74.356
0
LINE
8
BLACK
6
CONTINUOUS
10
118.794
20
-74.356
11
118.794
21
-74.3562
0
LINE
8
BLACK
6
CONTINUOUS
10
118.794
20
-74.3562
11
118.792
21
-74.3607
0
LINE
8
BLACK
6
CONTINUOUS
10
118.792
20
-74.3607
11
118.791
21
-74.3652
0
LINE
8
BLACK
6
CONTINUOUS
10
118.791
20
-74.3652
11
118.791
21
-74.3653
0
LINE
8
BLACK
6
CONTINUOUS
10
118.791
20
-74.3653
11
118.791
21
-74.3655
0
LINE
8
BLACK
6
CONTINUOUS
10
118.791
20
-74.3655
11
118.789
21
-74.3696
0
LINE
8
BLACK
6
CONTINUOUS
10
118.789
20
-74.3696
11
118.786
21
-74.3738
0
LINE
8
BLACK
6
CONTINUOUS
10
118.786
20
-74.3738
11
118.786
21
-74.3739
0
LINE
8
BLACK
6
CONTINUOUS
10
118.786
20
-74.3739
11
118.786
21
-74.374
0
LINE
8
BLACK
6
CONTINUOUS
10
118.786
20
-74.374
11
118.783
21
-74.3776
0
LINE
8
BLACK
6
CONTINUOUS
10
118.783
20
-74.3776
11
118.78
21
-74.3813
0
LINE
8
BLACK
6
CONTINUOUS
10
118.78
20
-74.3813
11
118.78
21
-74.3814
0
LINE
8
BLACK
6
CONTINUOUS
10
118.78
20
-74.3814
11
118.78
21
-74.3815
0
LINE
8
BLACK
6
CONTINUOUS
10
118.78
20
-74.3815
11
118.776
21
-74.3844
0
LINE
8
BLACK
6
CONTINUOUS
10
118.776
20
-74.3844
11
118.773
21
-74.3874
0
LINE
8
BLACK
6
CONTINUOUS
10
118.773
20
-74.3874
11
118.773
21
-74.3875
0
LINE
8
BLACK
6
CONTINUOUS
10
118.773
20
-74.3875
11
118.772
21
-74.3876
0
LINE
8
BLACK
6
CONTINUOUS
10
118.772
20
-74.3876
11
118.768
21
-74.3898
0
LINE
8
BLACK
6
CONTINUOUS
10
118.768
20
-74.3898
11
118.764
21
-74.392
0
LINE
8
BLACK
6
CONTINUOUS
10
118.764
20
-74.392
11
118.764
21
-74.3921
0
LINE
8
BLACK
6
CONTINUOUS
10
118.764
20
-74.3921
11
118.764
21
-74.3922
0
LINE
8
BLACK
6
CONTINUOUS
10
118.764
20
-74.3922
11
118.759
21
-74.3935
0
LINE
8
BLACK
6
CONTINUOUS
10
118.759
20
-74.3935
11
118.755
21
-74.3948
0
LINE
8
BLACK
6
CONTINUOUS
10
118.755
20
-74.3948
11
118.755
21
-74.3949
0
LINE
8
BLACK
6
CONTINUOUS
10
118.755
20
-74.3949
11
118.754
21
-74.3949
0
LINE
8
BLACK
6
CONTINUOUS
10
118.754
20
-74.3949
11
118.75
21
-74.3953
0
LINE
8
BLACK
6
CONTINUOUS
10
118.75
20
-74.3953
11
118.745
21
-74.3958
0
LINE
8
BLACK
6
CONTINUOUS
10
118.745
20
-74.3958
11
118.11
21
-74.3958
0
LINE
8
BLACK
6
CONTINUOUS
10
118.11
20
-74.3958
11
118.11
21
-74.3958
0
LINE
8
BLACK
6
CONTINUOUS
10
118.11
20
-74.3958
11
118.11
21
-74.3958
0
LINE
8
BLACK
6
CONTINUOUS
10
118.11
20
-74.3958
11
118.11
21
-74.3958
0
LINE
8
BLACK
6
CONTINUOUS
10
118.11
20
-74.3958
11
118.109
21
-74.3958
0
LINE
8
BLACK
6
CONTINUOUS
10
118.109
20
-74.3958
11
118.105
21
-74.3953
0
LINE
8
BLACK
6
CONTINUOUS
10
118.105
20
-74.3953
11
118.1
21
-74.3948
0
LINE
8
BLACK
6
CONTINUOUS
10
118.1
20
-74.3948
11
118.1
21
-74.3947
0
LINE
8
BLACK
6
CONTINUOUS
10
118.1
20
-74.3947
11
118.1
21
-74.3947
0
LINE
8
BLACK
6
CONTINUOUS
10
118.1
20
-74.3947
11
118.095
21
-74.3933
0
LINE
8
BLACK
6
CONTINUOUS
10
118.095
20
-74.3933
11
118.091
21
-74.3919
0
LINE
8
BLACK
6
CONTINUOUS
10
118.091
20
-74.3919
11
118.09
21
-74.3918
0
LINE
8
BLACK
6
CONTINUOUS
10
118.09
20
-74.3918
11
118.09
21
-74.3918
0
LINE
8
BLACK
6
CONTINUOUS
10
118.09
20
-74.3918
11
118.086
21
-74.3895
0
LINE
8
BLACK
6
CONTINUOUS
10
118.086
20
-74.3895
11
118.082
21
-74.3873
0
LINE
8
BLACK
6
CONTINUOUS
10
118.082
20
-74.3873
11
118.082
21
-74.3871
0
LINE
8
BLACK
6
CONTINUOUS
10
118.082
20
-74.3871
11
118.082
21
-74.3871
0
LINE
8
BLACK
6
CONTINUOUS
10
118.082
20
-74.3871
11
118.078
21
-74.3841
0
LINE
8
BLACK
6
CONTINUOUS
10
118.078
20
-74.3841
11
118.075
21
-74.381
0
LINE
8
BLACK
6
CONTINUOUS
10
118.075
20
-74.381
11
118.074
21
-74.3809
0
LINE
8
BLACK
6
CONTINUOUS
10
118.074
20
-74.3809
11
118.074
21
-74.3808
0
LINE
8
BLACK
6
CONTINUOUS
10
118.074
20
-74.3808
11
118.071
21
-74.3772
0
LINE
8
BLACK
6
CONTINUOUS
10
118.071
20
-74.3772
11
118.068
21
-74.3735
0
LINE
8
BLACK
6
CONTINUOUS
10
118.068
20
-74.3735
11
118.068
21
-74.3733
0
LINE
8
BLACK
6
CONTINUOUS
10
118.068
20
-74.3733
11
118.068
21
-74.3732
0
LINE
8
BLACK
6
CONTINUOUS
10
118.068
20
-74.3732
11
118.066
21
-74.3691
0
LINE
8
BLACK
6
CONTINUOUS
10
118.066
20
-74.3691
11
118.064
21
-74.3649
0
LINE
8
BLACK
6
CONTINUOUS
10
118.064
20
-74.3649
11
118.064
21
-74.3647
0
LINE
8
BLACK
6
CONTINUOUS
10
118.064
20
-74.3647
11
118.064
21
-74.3645
0
LINE
8
BLACK
6
CONTINUOUS
10
118.064
20
-74.3645
11
118.062
21
-74.3601
0
LINE
8
BLACK
6
CONTINUOUS
10
118.062
20
-74.3601
11
118.061
21
-74.3555
0
LINE
8
BLACK
6
CONTINUOUS
10
118.061
20
-74.3555
11
118.061
21
-74.3553
0
LINE
8
BLACK
6
CONTINUOUS
10
118.061
20
-74.3553
11
118.061
21
-74.3552
0
LINE
8
BLACK
6
CONTINUOUS
10
118.061
20
-74.3552
11
118.06
21
-74.3505
0
LINE
8
BLACK
6
CONTINUOUS
10
118.06
20
-74.3505
11
118.06
21
-74.3458
0
LINE
8
BLACK
6
CONTINUOUS
10
118.06
20
-74.3458
11
118.06
21
-73.7108
0
LINE
8
BLACK
6
CONTINUOUS
10
118.06
20
-73.7108
11
118.06
21
-73.7105
0
LINE
8
BLACK
6
CONTINUOUS
10
118.06
20
-73.7105
11
118.06
21
-73.7105
0
LINE
8
BLACK
6
CONTINUOUS
10
118.06
20
-73.7105
11
118.06
21
-73.7104
0
LINE
8
BLACK
6
CONTINUOUS
10
118.06
20
-73.7104
11
118.06
21
-73.7101
0
LINE
8
BLACK
6
CONTINUOUS
10
118.06
20
-73.7101
11
118.061
21
-73.7055
0
LINE
8
BLACK
6
CONTINUOUS
10
118.061
20
-73.7055
11
118.061
21
-73.7007
0
LINE
8
BLACK
6
CONTINUOUS
10
118.061
20
-73.7007
11
118.061
21
-73.7006
0
LINE
8
BLACK
6
CONTINUOUS
10
118.061
20
-73.7006
11
118.061
21
-73.7004
0
LINE
8
BLACK
6
CONTINUOUS
10
118.061
20
-73.7004
11
118.063
21
-73.6959
0
LINE
8
BLACK
6
CONTINUOUS
10
118.063
20
-73.6959
11
118.064
21
-73.6914
0
LINE
8
BLACK
6
CONTINUOUS
10
118.064
20
-73.6914
11
118.064
21
-73.6913
0
LINE
8
BLACK
6
CONTINUOUS
10
118.064
20
-73.6913
11
118.064
21
-73.6911
0
LINE
8
BLACK
6
CONTINUOUS
10
118.064
20
-73.6911
11
118.066
21
-73.687
0
LINE
8
BLACK
6
CONTINUOUS
10
118.066
20
-73.687
11
118.069
21
-73.6828
0
LINE
8
BLACK
6
CONTINUOUS
10
118.069
20
-73.6828
11
118.069
21
-73.6827
0
LINE
8
BLACK
6
CONTINUOUS
10
118.069
20
-73.6827
11
118.069
21
-73.6826
0
LINE
8
BLACK
6
CONTINUOUS
10
118.069
20
-73.6826
11
118.072
21
-73.679
0
LINE
8
BLACK
6
CONTINUOUS
10
118.072
20
-73.679
11
118.075
21
-73.6753
0
LINE
8
BLACK
6
CONTINUOUS
10
118.075
20
-73.6753
11
118.075
21
-73.6752
0
LINE
8
BLACK
6
CONTINUOUS
10
118.075
20
-73.6752
11
118.075
21
-73.6751
0
LINE
8
BLACK
6
CONTINUOUS
10
118.075
20
-73.6751
11
118.079
21
-73.6722
0
LINE
8
BLACK
6
CONTINUOUS
10
118.079
20
-73.6722
11
118.082
21
-73.6692
0
LINE
8
BLACK
6
CONTINUOUS
10
118.082
20
-73.6692
11
118.082
21
-73.6691
0
LINE
8
BLACK
6
CONTINUOUS
10
118.082
20
-73.6691
11
118.083
21
-73.669
0
LINE
8
BLACK
6
CONTINUOUS
10
118.083
20
-73.669
11
118.087
21
-73.6668
0
LINE
8
BLACK
6
CONTINUOUS
10
118.087
20
-73.6668
11
118.091
21
-73.6646
0
LINE
8
BLACK
6
CONTINUOUS
10
118.091
20
-73.6646
11
118.091
21
-73.6645
0
LINE
8
BLACK
6
CONTINUOUS
10
118.091
20
-73.6645
11
118.091
21
-73.6644
0
LINE
8
BLACK
6
CONTINUOUS
10
118.091
20
-73.6644
11
118.096
21
-73.6631
0
LINE
8
BLACK
6
CONTINUOUS
10
118.096
20
-73.6631
11
118.1
21
-73.6618
0
LINE
8
BLACK
6
CONTINUOUS
10
118.1
20
-73.6618
11
118.1
21
-73.6617
0
LINE
8
BLACK
6
CONTINUOUS
10
118.1
20
-73.6617
11
118.101
21
-73.6617
0
LINE
8
BLACK
6
CONTINUOUS
10
118.101
20
-73.6617
11
118.105
21
-73.6613
0
LINE
8
BLACK
6
CONTINUOUS
10
118.105
20
-73.6613
11
118.11
21
-73.6608
0
LINE
8
BLACK
6
CONTINUOUS
10
118.11
20
-73.6608
11
118.745
21
-73.6608
0
LINE
8
BLACK
6
CONTINUOUS
10
118.745
20
-73.6608
11
118.745
21
-73.6608
0
LINE
8
BLACK
6
CONTINUOUS
10
118.11
20
-73.1258
11
118.11
21
-73.1258
0
LINE
8
BLACK
6
CONTINUOUS
10
118.11
20
-73.1258
11
118.11
21
-73.1258
0
LINE
8
BLACK
6
CONTINUOUS
10
118.11
20
-73.1258
11
118.109
21
-73.1258
0
LINE
8
BLACK
6
CONTINUOUS
10
118.109
20
-73.1258
11
118.105
21
-73.1253
0
LINE
8
BLACK
6
CONTINUOUS
10
118.105
20
-73.1253
11
118.1
21
-73.1248
0
LINE
8
BLACK
6
CONTINUOUS
10
118.1
20
-73.1248
11
118.1
21
-73.1247
0
LINE
8
BLACK
6
CONTINUOUS
10
118.1
20
-73.1247
11
118.1
21
-73.1247
0
LINE
8
BLACK
6
CONTINUOUS
10
118.1
20
-73.1247
11
118.095
21
-73.1233
0
LINE
8
BLACK
6
CONTINUOUS
10
118.095
20
-73.1233
11
118.091
21
-73.1219
0
LINE
8
BLACK
6
CONTINUOUS
10
118.091
20
-73.1219
11
118.09
21
-73.1218
0
LINE
8
BLACK
6
CONTINUOUS
10
118.09
20
-73.1218
11
118.09
21
-73.1218
0
LINE
8
BLACK
6
CONTINUOUS
10
118.09
20
-73.1218
11
118.086
21
-73.1195
0
LINE
8
BLACK
6
CONTINUOUS
10
118.086
20
-73.1195
11
118.082
21
-73.1173
0
LINE
8
BLACK
6
CONTINUOUS
10
118.082
20
-73.1173
11
118.082
21
-73.1171
0
LINE
8
BLACK
6
CONTINUOUS
10
118.082
20
-73.1171
11
118.082
21
-73.1171
0
LINE
8
BLACK
6
CONTINUOUS
10
118.082
20
-73.1171
11
118.078
21
-73.1141
0
LINE
8
BLACK
6
CONTINUOUS
10
118.078
20
-73.1141
11
118.075
21
-73.111
0
LINE
8
BLACK
6
CONTINUOUS
10
118.075
20
-73.111
11
118.074
21
-73.1109
0
LINE
8
BLACK
6
CONTINUOUS
10
118.074
20
-73.1109
11
118.074
21
-73.1108
0
LINE
8
BLACK
6
CONTINUOUS
10
118.074
20
-73.1108
11
118.071
21
-73.1072
0
LINE
8
BLACK
6
CONTINUOUS
10
118.071
20
-73.1072
11
118.068
21
-73.1035
0
LINE
8
BLACK
6
CONTINUOUS
10
118.068
20
-73.1035
11
118.068
21
-73.1033
0
LINE
8
BLACK
6
CONTINUOUS
10
118.068
20
-73.1033
11
118.068
21
-73.1032
0
LINE
8
BLACK
6
CONTINUOUS
10
118.068
20
-73.1032
11
118.066
21
-73.0991
0
LINE
8
BLACK
6
CONTINUOUS
10
118.066
20
-73.0991
11
118.064
21
-73.0949
0
LINE
8
BLACK
6
CONTINUOUS
10
118.064
20
-73.0949
11
118.064
21
-73.0947
0
LINE
8
BLACK
6
CONTINUOUS
10
118.064
20
-73.0947
11
118.064
21
-73.0945
0
LINE
8
BLACK
6
CONTINUOUS
10
118.064
20
-73.0945
11
118.062
21
-73.0901
0
LINE
8
BLACK
6
CONTINUOUS
10
118.062
20
-73.0901
11
118.061
21
-73.0855
0
LINE
8
BLACK
6
CONTINUOUS
10
118.061
20
-73.0855
11
118.061
21
-73.0853
0
LINE
8
BLACK
6
CONTINUOUS
10
118.061
20
-73.0853
11
118.061
21
-73.0852
0
LINE
8
BLACK
6
CONTINUOUS
10
118.061
20
-73.0852
11
118.06
21
-73.0805
0
LINE
8
BLACK
6
CONTINUOUS
10
118.06
20
-73.0805
11
118.06
21
-73.0758
0
LINE
8
BLACK
6
CONTINUOUS
10
118.06
20
-73.0758
11
118.06
21
-72.4408
0
LINE
8
BLACK
6
CONTINUOUS
10
118.06
20
-72.4408
11
118.06
21
-72.4405
0
LINE
8
BLACK
6
CONTINUOUS
10
118.06
20
-72.4405
11
118.06
21
-72.4405
0
LINE
8
BLACK
6
CONTINUOUS
10
118.06
20
-72.4405
11
118.06
21
-72.4404
0
LINE
8
BLACK
6
CONTINUOUS
10
118.06
20
-72.4404
11
118.06
21
-72.4401
0
LINE
8
BLACK
6
CONTINUOUS
10
118.06
20
-72.4401
11
118.061
21
-72.4355
0
LINE
8
BLACK
6
CONTINUOUS
10
118.061
20
-72.4355
11
118.061
21
-72.4307
0
LINE
8
BLACK
6
CONTINUOUS
10
118.061
20
-72.4307
11
118.061
21
-72.4306
0
LINE
8
BLACK
6
CONTINUOUS
10
118.061
20
-72.4306
11
118.061
21
-72.4304
0
LINE
8
BLACK
6
CONTINUOUS
10
118.061
20
-72.4304
11
118.063
21
-72.4259
0
LINE
8
BLACK
6
CONTINUOUS
10
118.063
20
-72.4259
11
118.064
21
-72.4214
0
LINE
8
BLACK
6
CONTINUOUS
10
118.064
20
-72.4214
11
118.064
21
-72.4213
0
LINE
8
BLACK
6
CONTINUOUS
10
118.064
20
-72.4213
11
118.064
21
-72.4211
0
LINE
8
BLACK
6
CONTINUOUS
10
118.064
20
-72.4211
11
118.066
21
-72.417
0
LINE
8
BLACK
6
CONTINUOUS
10
118.066
20
-72.417
11
118.069
21
-72.4128
0
LINE
8
BLACK
6
CONTINUOUS
10
118.069
20
-72.4128
11
118.069
21
-72.4127
0
LINE
8
BLACK
6
CONTINUOUS
10
118.069
20
-72.4127
11
118.069
21
-72.4126
0
LINE
8
BLACK
6
CONTINUOUS
10
118.069
20
-72.4126
11
118.072
21
-72.409
0
LINE
8
BLACK
6
CONTINUOUS
10
118.072
20
-72.409
11
118.075
21
-72.4053
0
LINE
8
BLACK
6
CONTINUOUS
10
118.075
20
-72.4053
11
118.075
21
-72.4052
0
LINE
8
BLACK
6
CONTINUOUS
10
118.075
20
-72.4052
11
118.075
21
-72.4051
0
LINE
8
BLACK
6
CONTINUOUS
10
118.075
20
-72.4051
11
118.079
21
-72.4022
0
LINE
8
BLACK
6
CONTINUOUS
10
118.079
20
-72.4022
11
118.082
21
-72.3992
0
LINE
8
BLACK
6
CONTINUOUS
10
118.082
20
-72.3992
11
118.082
21
-72.3991
0
LINE
8
BLACK
6
CONTINUOUS
10
118.082
20
-72.3991
11
118.083
21
-72.399
0
LINE
8
BLACK
6
CONTINUOUS
10
118.083
20
-72.399
11
118.087
21
-72.3968
0
LINE
8
BLACK
6
CONTINUOUS
10
118.087
20
-72.3968
11
118.091
21
-72.3946
0
LINE
8
BLACK
6
CONTINUOUS
10
118.091
20
-72.3946
11
118.091
21
-72.3945
0
LINE
8
BLACK
6
CONTINUOUS
10
118.091
20
-72.3945
11
118.091
21
-72.3944
0
LINE
8
BLACK
6
CONTINUOUS
10
118.091
20
-72.3944
11
118.096
21
-72.3931
0
LINE
8
BLACK
6
CONTINUOUS
10
118.096
20
-72.3931
11
118.1
21
-72.3918
0
LINE
8
BLACK
6
CONTINUOUS
10
118.1
20
-72.3918
11
118.1
21
-72.3917
0
LINE
8
BLACK
6
CONTINUOUS
10
118.1
20
-72.3917
11
118.101
21
-72.3917
0
LINE
8
BLACK
6
CONTINUOUS
10
118.101
20
-72.3917
11
118.105
21
-72.3913
0
LINE
8
BLACK
6
CONTINUOUS
10
118.105
20
-72.3913
11
118.11
21
-72.3908
0
LINE
8
BLACK
6
CONTINUOUS
10
118.11
20
-72.3908
11
120.015
21
-72.3908
0
LINE
8
BLACK
6
CONTINUOUS
10
120.015
20
-72.3908
11
120.015
21
-72.3908
0
LINE
8
BLACK
6
CONTINUOUS
10
120.015
20
-72.3908
11
120.015
21
-72.3908
0
LINE
8
BLACK
6
CONTINUOUS
10
120.015
20
-72.3908
11
120.015
21
-72.3908
0
LINE
8
BLACK
6
CONTINUOUS
10
120.015
20
-72.3908
11
120.016
21
-72.3908
0
LINE
8
BLACK
6
CONTINUOUS
10
120.016
20
-72.3908
11
120.02
21
-72.3913
0
LINE
8
BLACK
6
CONTINUOUS
10
120.02
20
-72.3913
11
120.025
21
-72.3918
0
LINE
8
BLACK
6
CONTINUOUS
10
120.025
20
-72.3918
11
120.025
21
-72.3919
0
LINE
8
BLACK
6
CONTINUOUS
10
120.025
20
-72.3919
11
120.025
21
-72.3919
0
LINE
8
BLACK
6
CONTINUOUS
10
120.025
20
-72.3919
11
120.03
21
-72.3933
0
LINE
8
BLACK
6
CONTINUOUS
10
120.03
20
-72.3933
11
120.034
21
-72.3947
0
LINE
8
BLACK
6
CONTINUOUS
10
120.034
20
-72.3947
11
120.035
21
-72.3948
0
LINE
8
BLACK
6
CONTINUOUS
10
120.035
20
-72.3948
11
120.035
21
-72.3948
0
LINE
8
BLACK
6
CONTINUOUS
10
120.035
20
-72.3948
11
120.039
21
-72.3971
0
LINE
8
BLACK
6
CONTINUOUS
10
120.039
20
-72.3971
11
120.043
21
-72.3993
0
LINE
8
BLACK
6
CONTINUOUS
10
120.043
20
-72.3993
11
120.043
21
-72.3995
0
LINE
8
BLACK
6
CONTINUOUS
10
120.043
20
-72.3995
11
120.043
21
-72.3995
0
LINE
8
BLACK
6
CONTINUOUS
10
120.043
20
-72.3995
11
120.047
21
-72.4025
0
LINE
8
BLACK
6
CONTINUOUS
10
120.047
20
-72.4025
11
120.05
21
-72.4056
0
LINE
8
BLACK
6
CONTINUOUS
10
120.05
20
-72.4056
11
120.051
21
-72.4057
0
LINE
8
BLACK
6
CONTINUOUS
10
120.051
20
-72.4057
11
120.051
21
-72.4058
0
LINE
8
BLACK
6
CONTINUOUS
10
120.051
20
-72.4058
11
120.054
21
-72.4094
0
LINE
8
BLACK
6
CONTINUOUS
10
120.054
20
-72.4094
11
120.057
21
-72.4131
0
LINE
8
BLACK
6
CONTINUOUS
10
120.057
20
-72.4131
11
120.057
21
-72.4133
0
LINE
8
BLACK
6
CONTINUOUS
10
120.057
20
-72.4133
11
120.057
21
-72.4134
0
LINE
8
BLACK
6
CONTINUOUS
10
120.057
20
-72.4134
11
120.059
21
-72.4175
0
LINE
8
BLACK
6
CONTINUOUS
10
120.059
20
-72.4175
11
120.061
21
-72.4217
0
LINE
8
BLACK
6
CONTINUOUS
10
120.061
20
-72.4217
11
120.061
21
-72.4219
0
LINE
8
BLACK
6
CONTINUOUS
10
120.061
20
-72.4219
11
120.061
21
-72.4221
0
LINE
8
BLACK
6
CONTINUOUS
10
120.061
20
-72.4221
11
120.063
21
-72.4265
0
LINE
8
BLACK
6
CONTINUOUS
10
120.063
20
-72.4265
11
120.064
21
-72.4311
0
LINE
8
BLACK
6
CONTINUOUS
10
120.064
20
-72.4311
11
120.064
21
-72.4313
0
LINE
8
BLACK
6
CONTINUOUS
10
120.064
20
-72.4313
11
120.064
21
-72.4314
0
LINE
8
BLACK
6
CONTINUOUS
10
120.064
20
-72.4314
11
120.065
21
-72.4361
0
LINE
8
BLACK
6
CONTINUOUS
10
120.065
20
-72.4361
11
120.065
21
-72.4408
0
LINE
8
BLACK
6
CONTINUOUS
10
120.065
20
-72.4408
11
120.065
21
-73.0758
0
LINE
8
BLACK
6
CONTINUOUS
10
120.065
20
-73.0758
11
120.065
21
-73.0761
0
LINE
8
BLACK
6
CONTINUOUS
10
120.065
20
-73.0761
11
120.065
21
-73.0761
0
LINE
8
BLACK
6
CONTINUOUS
10
120.065
20
-73.0761
11
120.065
21
-73.0762
0
LINE
8
BLACK
6
CONTINUOUS
10
120.065
20
-73.0762
11
120.065
21
-73.0765
0
LINE
8
BLACK
6
CONTINUOUS
10
120.065
20
-73.0765
11
120.064
21
-73.0811
0
LINE
8
BLACK
6
CONTINUOUS
10
120.064
20
-73.0811
11
120.064
21
-73.0859
0
LINE
8
BLACK
6
CONTINUOUS
10
120.064
20
-73.0859
11
120.064
21
-73.086
0
LINE
8
BLACK
6
CONTINUOUS
10
120.064
20
-73.086
11
120.064
21
-73.0862
0
LINE
8
BLACK
6
CONTINUOUS
10
120.064
20
-73.0862
11
120.062
21
-73.0907
0
LINE
8
BLACK
6
CONTINUOUS
10
120.062
20
-73.0907
11
120.061
21
-73.0952
0
LINE
8
BLACK
6
CONTINUOUS
10
120.061
20
-73.0952
11
120.061
21
-73.0953
0
LINE
8
BLACK
6
CONTINUOUS
10
120.061
20
-73.0953
11
120.061
21
-73.0955
0
LINE
8
BLACK
6
CONTINUOUS
10
120.061
20
-73.0955
11
120.059
21
-73.0996
0
LINE
8
BLACK
6
CONTINUOUS
10
120.059
20
-73.0996
11
120.056
21
-73.1038
0
LINE
8
BLACK
6
CONTINUOUS
10
120.056
20
-73.1038
11
120.056
21
-73.1039
0
LINE
8
BLACK
6
CONTINUOUS
10
120.056
20
-73.1039
11
120.056
21
-73.104
0
LINE
8
BLACK
6
CONTINUOUS
10
120.056
20
-73.104
11
120.053
21
-73.1076
0
LINE
8
BLACK
6
CONTINUOUS
10
120.053
20
-73.1076
11
120.05
21
-73.1113
0
LINE
8
BLACK
6
CONTINUOUS
10
120.05
20
-73.1113
11
120.05
21
-73.1114
0
LINE
8
BLACK
6
CONTINUOUS
10
120.05
20
-73.1114
11
120.05
21
-73.1115
0
LINE
8
BLACK
6
CONTINUOUS
10
120.05
20
-73.1115
11
120.046
21
-73.1144
0
LINE
8
BLACK
6
CONTINUOUS
10
120.046
20
-73.1144
11
120.043
21
-73.1174
0
LINE
8
BLACK
6
CONTINUOUS
10
120.043
20
-73.1174
11
120.043
21
-73.1175
0
LINE
8
BLACK
6
CONTINUOUS
10
120.043
20
-73.1175
11
120.042
21
-73.1176
0
LINE
8
BLACK
6
CONTINUOUS
10
120.042
20
-73.1176
11
120.038
21
-73.1198
0
LINE
8
BLACK
6
CONTINUOUS
10
120.038
20
-73.1198
11
120.034
21
-73.122
0
LINE
8
BLACK
6
CONTINUOUS
10
120.034
20
-73.122
11
120.034
21
-73.1221
0
LINE
8
BLACK
6
CONTINUOUS
10
120.034
20
-73.1221
11
120.034
21
-73.1222
0
LINE
8
BLACK
6
CONTINUOUS
10
120.034
20
-73.1222
11
120.029
21
-73.1235
0
LINE
8
BLACK
6
CONTINUOUS
10
120.029
20
-73.1235
11
120.025
21
-73.1248
0
LINE
8
BLACK
6
CONTINUOUS
10
120.025
20
-73.1248
11
120.025
21
-73.1249
0
LINE
8
BLACK
6
CONTINUOUS
10
120.025
20
-73.1249
11
120.024
21
-73.1249
0
LINE
8
BLACK
6
CONTINUOUS
10
120.024
20
-73.1249
11
120.02
21
-73.1253
0
LINE
8
BLACK
6
CONTINUOUS
10
120.02
20
-73.1253
11
120.015
21
-73.1258
0
LINE
8
BLACK
6
CONTINUOUS
10
120.015
20
-73.1258
11
118.11
21
-73.1258
0
LINE
8
BLACK
6
CONTINUOUS
10
118.11
20
-73.1258
11
118.11
21
-73.1258
0
LINE
8
BLACK
6
CONTINUOUS
10
121.285
20
-72.3908
11
121.285
21
-72.3908
0
LINE
8
BLACK
6
CONTINUOUS
10
121.285
20
-72.3908
11
121.285
21
-72.3908
0
LINE
8
BLACK
6
CONTINUOUS
10
121.285
20
-72.3908
11
121.286
21
-72.3908
0
LINE
8
BLACK
6
CONTINUOUS
10
121.286
20
-72.3908
11
121.29
21
-72.3913
0
LINE
8
BLACK
6
CONTINUOUS
10
121.29
20
-72.3913
11
121.295
21
-72.3918
0
LINE
8
BLACK
6
CONTINUOUS
10
121.295
20
-72.3918
11
121.295
21
-72.3919
0
LINE
8
BLACK
6
CONTINUOUS
10
121.295
20
-72.3919
11
121.295
21
-72.3919
0
LINE
8
BLACK
6
CONTINUOUS
10
121.295
20
-72.3919
11
121.3
21
-72.3933
0
LINE
8
BLACK
6
CONTINUOUS
10
121.3
20
-72.3933
11
121.304
21
-72.3947
0
LINE
8
BLACK
6
CONTINUOUS
10
121.304
20
-72.3947
11
121.305
21
-72.3948
0
LINE
8
BLACK
6
CONTINUOUS
10
121.305
20
-72.3948
11
121.305
21
-72.3948
0
LINE
8
BLACK
6
CONTINUOUS
10
121.305
20
-72.3948
11
121.309
21
-72.3971
0
LINE
8
BLACK
6
CONTINUOUS
10
121.309
20
-72.3971
11
121.313
21
-72.3993
0
LINE
8
BLACK
6
CONTINUOUS
10
121.313
20
-72.3993
11
121.313
21
-72.3995
0
LINE
8
BLACK
6
CONTINUOUS
10
121.313
20
-72.3995
11
121.313
21
-72.3995
0
LINE
8
BLACK
6
CONTINUOUS
10
121.313
20
-72.3995
11
121.317
21
-72.4025
0
LINE
8
BLACK
6
CONTINUOUS
10
121.317
20
-72.4025
11
121.32
21
-72.4056
0
LINE
8
BLACK
6
CONTINUOUS
10
121.32
20
-72.4056
11
121.321
21
-72.4057
0
LINE
8
BLACK
6
CONTINUOUS
10
121.321
20
-72.4057
11
121.321
21
-72.4058
0
LINE
8
BLACK
6
CONTINUOUS
10
121.321
20
-72.4058
11
121.324
21
-72.4094
0
LINE
8
BLACK
6
CONTINUOUS
10
121.324
20
-72.4094
11
121.327
21
-72.4131
0
LINE
8
BLACK
6
CONTINUOUS
10
121.327
20
-72.4131
11
121.327
21
-72.4133
0
LINE
8
BLACK
6
CONTINUOUS
10
121.327
20
-72.4133
11
121.327
21
-72.4134
0
LINE
8
BLACK
6
CONTINUOUS
10
121.327
20
-72.4134
11
121.329
21
-72.4175
0
LINE
8
BLACK
6
CONTINUOUS
10
121.329
20
-72.4175
11
121.331
21
-72.4217
0
LINE
8
BLACK
6
CONTINUOUS
10
121.331
20
-72.4217
11
121.331
21
-72.4219
0
LINE
8
BLACK
6
CONTINUOUS
10
121.331
20
-72.4219
11
121.331
21
-72.4221
0
LINE
8
BLACK
6
CONTINUOUS
10
121.331
20
-72.4221
11
121.333
21
-72.4265
0
LINE
8
BLACK
6
CONTINUOUS
10
121.333
20
-72.4265
11
121.334
21
-72.4311
0
LINE
8
BLACK
6
CONTINUOUS
10
121.334
20
-72.4311
11
121.334
21
-72.4313
0
LINE
8
BLACK
6
CONTINUOUS
10
121.334
20
-72.4313
11
121.334
21
-72.4314
0
LINE
8
BLACK
6
CONTINUOUS
10
121.334
20
-72.4314
11
121.335
21
-72.4361
0
LINE
8
BLACK
6
CONTINUOUS
10
121.335
20
-72.4361
11
121.335
21
-72.4408
0
LINE
8
BLACK
6
CONTINUOUS
10
121.335
20
-72.4408
11
121.335
21
-73.0758
0
LINE
8
BLACK
6
CONTINUOUS
10
121.335
20
-73.0758
11
121.335
21
-73.0761
0
LINE
8
BLACK
6
CONTINUOUS
10
121.335
20
-73.0761
11
121.335
21
-73.0761
0
LINE
8
BLACK
6
CONTINUOUS
10
121.335
20
-73.0761
11
121.335
21
-73.0762
0
LINE
8
BLACK
6
CONTINUOUS
10
121.335
20
-73.0762
11
121.335
21
-73.0765
0
LINE
8
BLACK
6
CONTINUOUS
10
121.335
20
-73.0765
11
121.334
21
-73.0811
0
LINE
8
BLACK
6
CONTINUOUS
10
121.334
20
-73.0811
11
121.334
21
-73.0859
0
LINE
8
BLACK
6
CONTINUOUS
10
121.334
20
-73.0859
11
121.334
21
-73.086
0
LINE
8
BLACK
6
CONTINUOUS
10
121.334
20
-73.086
11
121.334
21
-73.0862
0
LINE
8
BLACK
6
CONTINUOUS
10
121.334
20
-73.0862
11
121.332
21
-73.0907
0
LINE
8
BLACK
6
CONTINUOUS
10
121.332
20
-73.0907
11
121.331
21
-73.0952
0
LINE
8
BLACK
6
CONTINUOUS
10
121.331
20
-73.0952
11
121.331
21
-73.0953
0
LINE
8
BLACK
6
CONTINUOUS
10
121.331
20
-73.0953
11
121.331
21
-73.0955
0
LINE
8
BLACK
6
CONTINUOUS
10
121.331
20
-73.0955
11
121.329
21
-73.0996
0
LINE
8
BLACK
6
CONTINUOUS
10
121.329
20
-73.0996
11
121.326
21
-73.1038
0
LINE
8
BLACK
6
CONTINUOUS
10
121.326
20
-73.1038
11
121.326
21
-73.1039
0
LINE
8
BLACK
6
CONTINUOUS
10
121.326
20
-73.1039
11
121.326
21
-73.104
0
LINE
8
BLACK
6
CONTINUOUS
10
121.326
20
-73.104
11
121.323
21
-73.1076
0
LINE
8
BLACK
6
CONTINUOUS
10
121.323
20
-73.1076
11
121.32
21
-73.1113
0
LINE
8
BLACK
6
CONTINUOUS
10
121.32
20
-73.1113
11
121.32
21
-73.1114
0
LINE
8
BLACK
6
CONTINUOUS
10
121.32
20
-73.1114
11
121.32
21
-73.1115
0
LINE
8
BLACK
6
CONTINUOUS
10
121.32
20
-73.1115
11
121.316
21
-73.1144
0
LINE
8
BLACK
6
CONTINUOUS
10
121.316
20
-73.1144
11
121.313
21
-73.1174
0
LINE
8
BLACK
6
CONTINUOUS
10
121.313
20
-73.1174
11
121.313
21
-73.1175
0
LINE
8
BLACK
6
CONTINUOUS
10
121.313
20
-73.1175
11
121.312
21
-73.1176
0
LINE
8
BLACK
6
CONTINUOUS
10
121.312
20
-73.1176
11
121.308
21
-73.1198
0
LINE
8
BLACK
6
CONTINUOUS
10
121.308
20
-73.1198
11
121.304
21
-73.122
0
LINE
8
BLACK
6
CONTINUOUS
10
121.304
20
-73.122
11
121.304
21
-73.1221
0
LINE
8
BLACK
6
CONTINUOUS
10
121.304
20
-73.1221
11
121.304
21
-73.1222
0
LINE
8
BLACK
6
CONTINUOUS
10
121.304
20
-73.1222
11
121.299
21
-73.1235
0
LINE
8
BLACK
6
CONTINUOUS
10
121.299
20
-73.1235
11
121.295
21
-73.1248
0
LINE
8
BLACK
6
CONTINUOUS
10
121.295
20
-73.1248
11
121.295
21
-73.1249
0
LINE
8
BLACK
6
CONTINUOUS
10
121.295
20
-73.1249
11
121.294
21
-73.1249
0
LINE
8
BLACK
6
CONTINUOUS
10
121.294
20
-73.1249
11
121.29
21
-73.1253
0
LINE
8
BLACK
6
CONTINUOUS
10
121.29
20
-73.1253
11
121.285
21
-73.1258
0
LINE
8
BLACK
6
CONTINUOUS
10
121.285
20
-73.1258
11
120.65
21
-73.1258
0
LINE
8
BLACK
6
CONTINUOUS
10
120.65
20
-73.1258
11
120.65
21
-73.1258
0
LINE
8
BLACK
6
CONTINUOUS
10
120.65
20
-73.1258
11
120.65
21
-73.1258
0
LINE
8
BLACK
6
CONTINUOUS
10
120.65
20
-73.1258
11
120.65
21
-73.1258
0
LINE
8
BLACK
6
CONTINUOUS
10
120.65
20
-73.1258
11
120.649
21
-73.1258
0
LINE
8
BLACK
6
CONTINUOUS
10
120.649
20
-73.1258
11
120.645
21
-73.1253
0
LINE
8
BLACK
6
CONTINUOUS
10
120.645
20
-73.1253
11
120.64
21
-73.1248
0
LINE
8
BLACK
6
CONTINUOUS
10
120.64
20
-73.1248
11
120.64
21
-73.1247
0
LINE
8
BLACK
6
CONTINUOUS
10
120.64
20
-73.1247
11
120.64
21
-73.1247
0
LINE
8
BLACK
6
CONTINUOUS
10
120.64
20
-73.1247
11
120.635
21
-73.1233
0
LINE
8
BLACK
6
CONTINUOUS
10
120.635
20
-73.1233
11
120.631
21
-73.1219
0
LINE
8
BLACK
6
CONTINUOUS
10
120.631
20
-73.1219
11
120.63
21
-73.1218
0
LINE
8
BLACK
6
CONTINUOUS
10
120.63
20
-73.1218
11
120.63
21
-73.1218
0
LINE
8
BLACK
6
CONTINUOUS
10
120.63
20
-73.1218
11
120.626
21
-73.1195
0
LINE
8
BLACK
6
CONTINUOUS
10
120.626
20
-73.1195
11
120.622
21
-73.1173
0
LINE
8
BLACK
6
CONTINUOUS
10
120.622
20
-73.1173
11
120.622
21
-73.1171
0
LINE
8
BLACK
6
CONTINUOUS
10
120.622
20
-73.1171
11
120.622
21
-73.1171
0
LINE
8
BLACK
6
CONTINUOUS
10
120.622
20
-73.1171
11
120.618
21
-73.1141
0
LINE
8
BLACK
6
CONTINUOUS
10
120.618
20
-73.1141
11
120.615
21
-73.111
0
LINE
8
BLACK
6
CONTINUOUS
10
120.615
20
-73.111
11
120.614
21
-73.1109
0
LINE
8
BLACK
6
CONTINUOUS
10
120.614
20
-73.1109
11
120.614
21
-73.1108
0
LINE
8
BLACK
6
CONTINUOUS
10
120.614
20
-73.1108
11
120.611
21
-73.1072
0
LINE
8
BLACK
6
CONTINUOUS
10
120.611
20
-73.1072
11
120.608
21
-73.1035
0
LINE
8
BLACK
6
CONTINUOUS
10
120.608
20
-73.1035
11
120.608
21
-73.1033
0
LINE
8
BLACK
6
CONTINUOUS
10
120.608
20
-73.1033
11
120.608
21
-73.1032
0
LINE
8
BLACK
6
CONTINUOUS
10
120.608
20
-73.1032
11
120.606
21
-73.0991
0
LINE
8
BLACK
6
CONTINUOUS
10
120.606
20
-73.0991
11
120.604
21
-73.0949
0
LINE
8
BLACK
6
CONTINUOUS
10
120.604
20
-73.0949
11
120.604
21
-73.0947
0
LINE
8
BLACK
6
CONTINUOUS
10
120.604
20
-73.0947
11
120.604
21
-73.0945
0
LINE
8
BLACK
6
CONTINUOUS
10
120.604
20
-73.0945
11
120.602
21
-73.0901
0
LINE
8
BLACK
6
CONTINUOUS
10
120.602
20
-73.0901
11
120.601
21
-73.0855
0
LINE
8
BLACK
6
CONTINUOUS
10
120.601
20
-73.0855
11
120.601
21
-73.0853
0
LINE
8
BLACK
6
CONTINUOUS
10
120.601
20
-73.0853
11
120.601
21
-73.0852
0
LINE
8
BLACK
6
CONTINUOUS
10
120.601
20
-73.0852
11
120.6
21
-73.0805
0
LINE
8
BLACK
6
CONTINUOUS
10
120.6
20
-73.0805
11
120.6
21
-73.0758
0
LINE
8
BLACK
6
CONTINUOUS
10
120.6
20
-73.0758
11
120.6
21
-72.4408
0
LINE
8
BLACK
6
CONTINUOUS
10
120.6
20
-72.4408
11
120.6
21
-72.4405
0
LINE
8
BLACK
6
CONTINUOUS
10
120.6
20
-72.4405
11
120.6
21
-72.4405
0
LINE
8
BLACK
6
CONTINUOUS
10
120.6
20
-72.4405
11
120.6
21
-72.4404
0
LINE
8
BLACK
6
CONTINUOUS
10
120.6
20
-72.4404
11
120.6
21
-72.4401
0
LINE
8
BLACK
6
CONTINUOUS
10
120.6
20
-72.4401
11
120.601
21
-72.4355
0
LINE
8
BLACK
6
CONTINUOUS
10
120.601
20
-72.4355
11
120.601
21
-72.4307
0
LINE
8
BLACK
6
CONTINUOUS
10
120.601
20
-72.4307
11
120.601
21
-72.4306
0
LINE
8
BLACK
6
CONTINUOUS
10
120.601
20
-72.4306
11
120.601
21
-72.4304
0
LINE
8
BLACK
6
CONTINUOUS
10
120.601
20
-72.4304
11
120.603
21
-72.4259
0
LINE
8
BLACK
6
CONTINUOUS
10
120.603
20
-72.4259
11
120.604
21
-72.4214
0
LINE
8
BLACK
6
CONTINUOUS
10
120.604
20
-72.4214
11
120.604
21
-72.4213
0
LINE
8
BLACK
6
CONTINUOUS
10
120.604
20
-72.4213
11
120.604
21
-72.4211
0
LINE
8
BLACK
6
CONTINUOUS
10
120.604
20
-72.4211
11
120.606
21
-72.417
0
LINE
8
BLACK
6
CONTINUOUS
10
120.606
20
-72.417
11
120.609
21
-72.4128
0
LINE
8
BLACK
6
CONTINUOUS
10
120.609
20
-72.4128
11
120.609
21
-72.4127
0
LINE
8
BLACK
6
CONTINUOUS
10
120.609
20
-72.4127
11
120.609
21
-72.4126
0
LINE
8
BLACK
6
CONTINUOUS
10
120.609
20
-72.4126
11
120.612
21
-72.409
0
LINE
8
BLACK
6
CONTINUOUS
10
120.612
20
-72.409
11
120.615
21
-72.4053
0
LINE
8
BLACK
6
CONTINUOUS
10
120.615
20
-72.4053
11
120.615
21
-72.4052
0
LINE
8
BLACK
6
CONTINUOUS
10
120.615
20
-72.4052
11
120.615
21
-72.4051
0
LINE
8
BLACK
6
CONTINUOUS
10
120.615
20
-72.4051
11
120.619
21
-72.4022
0
LINE
8
BLACK
6
CONTINUOUS
10
120.619
20
-72.4022
11
120.622
21
-72.3992
0
LINE
8
BLACK
6
CONTINUOUS
10
120.622
20
-72.3992
11
120.622
21
-72.3991
0
LINE
8
BLACK
6
CONTINUOUS
10
120.622
20
-72.3991
11
120.623
21
-72.399
0
LINE
8
BLACK
6
CONTINUOUS
10
120.623
20
-72.399
11
120.627
21
-72.3968
0
LINE
8
BLACK
6
CONTINUOUS
10
120.627
20
-72.3968
11
120.631
21
-72.3946
0
LINE
8
BLACK
6
CONTINUOUS
10
120.631
20
-72.3946
11
120.631
21
-72.3945
0
LINE
8
BLACK
6
CONTINUOUS
10
120.631
20
-72.3945
11
120.631
21
-72.3944
0
LINE
8
BLACK
6
CONTINUOUS
10
120.631
20
-72.3944
11
120.636
21
-72.3931
0
LINE
8
BLACK
6
CONTINUOUS
10
120.636
20
-72.3931
11
120.64
21
-72.3918
0
LINE
8
BLACK
6
CONTINUOUS
10
120.64
20
-72.3918
11
120.64
21
-72.3917
0
LINE
8
BLACK
6
CONTINUOUS
10
120.64
20
-72.3917
11
120.641
21
-72.3917
0
LINE
8
BLACK
6
CONTINUOUS
10
120.641
20
-72.3917
11
120.645
21
-72.3913
0
LINE
8
BLACK
6
CONTINUOUS
10
120.645
20
-72.3913
11
120.65
21
-72.3908
0
LINE
8
BLACK
6
CONTINUOUS
10
120.65
20
-72.3908
11
121.285
21
-72.3908
0
LINE
8
BLACK
6
CONTINUOUS
10
121.285
20
-72.3908
11
121.285
21
-72.3908
0
LINE
8
BLACK
6
CONTINUOUS
10
121.335
20
-70.5361
11
121.335
21
-70.5361
0
LINE
8
BLACK
6
CONTINUOUS
10
121.335
20
-70.5361
11
121.335
21
-70.5362
0
LINE
8
BLACK
6
CONTINUOUS
10
121.335
20
-70.5362
11
121.335
21
-70.5365
0
LINE
8
BLACK
6
CONTINUOUS
10
121.335
20
-70.5365
11
121.334
21
-70.5411
0
LINE
8
BLACK
6
CONTINUOUS
10
121.334
20
-70.5411
11
121.334
21
-70.5459
0
LINE
8
BLACK
6
CONTINUOUS
10
121.334
20
-70.5459
11
121.334
21
-70.546
0
LINE
8
BLACK
6
CONTINUOUS
10
121.334
20
-70.546
11
121.334
21
-70.5462
0
LINE
8
BLACK
6
CONTINUOUS
10
121.334
20
-70.5462
11
121.332
21
-70.5507
0
LINE
8
BLACK
6
CONTINUOUS
10
121.332
20
-70.5507
11
121.331
21
-70.5552
0
LINE
8
BLACK
6
CONTINUOUS
10
121.331
20
-70.5552
11
121.331
21
-70.5553
0
LINE
8
BLACK
6
CONTINUOUS
10
121.331
20
-70.5553
11
121.331
21
-70.5555
0
LINE
8
BLACK
6
CONTINUOUS
10
121.331
20
-70.5555
11
121.329
21
-70.5596
0
LINE
8
BLACK
6
CONTINUOUS
10
121.329
20
-70.5596
11
121.326
21
-70.5638
0
LINE
8
BLACK
6
CONTINUOUS
10
121.326
20
-70.5638
11
121.326
21
-70.5639
0
LINE
8
BLACK
6
CONTINUOUS
10
121.326
20
-70.5639
11
121.326
21
-70.564
0
LINE
8
BLACK
6
CONTINUOUS
10
121.326
20
-70.564
11
121.323
21
-70.5676
0
LINE
8
BLACK
6
CONTINUOUS
10
121.323
20
-70.5676
11
121.32
21
-70.5713
0
LINE
8
BLACK
6
CONTINUOUS
10
121.32
20
-70.5713
11
121.32
21
-70.5714
0
LINE
8
BLACK
6
CONTINUOUS
10
121.32
20
-70.5714
11
121.32
21
-70.5715
0
LINE
8
BLACK
6
CONTINUOUS
10
121.32
20
-70.5715
11
121.316
21
-70.5744
0
LINE
8
BLACK
6
CONTINUOUS
10
121.316
20
-70.5744
11
121.313
21
-70.5774
0
LINE
8
BLACK
6
CONTINUOUS
10
121.313
20
-70.5774
11
121.313
21
-70.5775
0
LINE
8
BLACK
6
CONTINUOUS
10
121.313
20
-70.5775
11
121.312
21
-70.5776
0
LINE
8
BLACK
6
CONTINUOUS
10
121.312
20
-70.5776
11
121.308
21
-70.5798
0
LINE
8
BLACK
6
CONTINUOUS
10
121.308
20
-70.5798
11
121.304
21
-70.582
0
LINE
8
BLACK
6
CONTINUOUS
10
121.304
20
-70.582
11
121.304
21
-70.5821
0
LINE
8
BLACK
6
CONTINUOUS
10
121.304
20
-70.5821
11
121.304
21
-70.5822
0
LINE
8
BLACK
6
CONTINUOUS
10
121.304
20
-70.5822
11
121.299
21
-70.5835
0
LINE
8
BLACK
6
CONTINUOUS
10
121.299
20
-70.5835
11
121.295
21
-70.5848
0
LINE
8
BLACK
6
CONTINUOUS
10
121.295
20
-70.5848
11
121.295
21
-70.5849
0
LINE
8
BLACK
6
CONTINUOUS
10
121.295
20
-70.5849
11
121.294
21
-70.5849
0
LINE
8
BLACK
6
CONTINUOUS
10
121.294
20
-70.5849
11
121.29
21
-70.5853
0
LINE
8
BLACK
6
CONTINUOUS
10
121.29
20
-70.5853
11
121.285
21
-70.5858
0
LINE
8
BLACK
6
CONTINUOUS
10
121.285
20
-70.5858
11
118.11
21
-70.5858
0
LINE
8
BLACK
6
CONTINUOUS
10
118.11
20
-70.5858
11
118.11
21
-70.5858
0
LINE
8
BLACK
6
CONTINUOUS
10
118.11
20
-70.5858
11
118.11
21
-70.5858
0
LINE
8
BLACK
6
CONTINUOUS
10
118.11
20
-70.5858
11
118.11
21
-70.5858
0
LINE
8
BLACK
6
CONTINUOUS
10
118.11
20
-70.5858
11
118.109
21
-70.5858
0
LINE
8
BLACK
6
CONTINUOUS
10
118.109
20
-70.5858
11
118.105
21
-70.5853
0
LINE
8
BLACK
6
CONTINUOUS
10
118.105
20
-70.5853
11
118.1
21
-70.5848
0
LINE
8
BLACK
6
CONTINUOUS
10
118.1
20
-70.5848
11
118.1
21
-70.5847
0
LINE
8
BLACK
6
CONTINUOUS
10
118.1
20
-70.5847
11
118.1
21
-70.5847
0
LINE
8
BLACK
6
CONTINUOUS
10
118.1
20
-70.5847
11
118.095
21
-70.5833
0
LINE
8
BLACK
6
CONTINUOUS
10
118.095
20
-70.5833
11
118.091
21
-70.5819
0
LINE
8
BLACK
6
CONTINUOUS
10
118.091
20
-70.5819
11
118.09
21
-70.5818
0
LINE
8
BLACK
6
CONTINUOUS
10
118.09
20
-70.5818
11
118.09
21
-70.5818
0
LINE
8
BLACK
6
CONTINUOUS
10
118.09
20
-70.5818
11
118.086
21
-70.5795
0
LINE
8
BLACK
6
CONTINUOUS
10
118.086
20
-70.5795
11
118.082
21
-70.5773
0
LINE
8
BLACK
6
CONTINUOUS
10
118.082
20
-70.5773
11
118.082
21
-70.5771
0
LINE
8
BLACK
6
CONTINUOUS
10
118.082
20
-70.5771
11
118.082
21
-70.5771
0
LINE
8
BLACK
6
CONTINUOUS
10
118.082
20
-70.5771
11
118.078
21
-70.5741
0
LINE
8
BLACK
6
CONTINUOUS
10
118.078
20
-70.5741
11
118.075
21
-70.571
0
LINE
8
BLACK
6
CONTINUOUS
10
118.075
20
-70.571
11
118.074
21
-70.5709
0
LINE
8
BLACK
6
CONTINUOUS
10
118.074
20
-70.5709
11
118.074
21
-70.5708
0
LINE
8
BLACK
6
CONTINUOUS
10
118.074
20
-70.5708
11
118.071
21
-70.5672
0
LINE
8
BLACK
6
CONTINUOUS
10
118.071
20
-70.5672
11
118.068
21
-70.5635
0
LINE
8
BLACK
6
CONTINUOUS
10
118.068
20
-70.5635
11
118.068
21
-70.5633
0
LINE
8
BLACK
6
CONTINUOUS
10
118.068
20
-70.5633
11
118.068
21
-70.5632
0
LINE
8
BLACK
6
CONTINUOUS
10
118.068
20
-70.5632
11
118.066
21
-70.5591
0
LINE
8
BLACK
6
CONTINUOUS
10
118.066
20
-70.5591
11
118.064
21
-70.5549
0
LINE
8
BLACK
6
CONTINUOUS
10
118.064
20
-70.5549
11
118.064
21
-70.5547
0
LINE
8
BLACK
6
CONTINUOUS
10
118.064
20
-70.5547
11
118.064
21
-70.5545
0
LINE
8
BLACK
6
CONTINUOUS
10
118.064
20
-70.5545
11
118.062
21
-70.5501
0
LINE
8
BLACK
6
CONTINUOUS
10
118.062
20
-70.5501
11
118.061
21
-70.5455
0
LINE
8
BLACK
6
CONTINUOUS
10
118.061
20
-70.5455
11
118.061
21
-70.5453
0
LINE
8
BLACK
6
CONTINUOUS
10
118.061
20
-70.5453
11
118.061
21
-70.5452
0
LINE
8
BLACK
6
CONTINUOUS
10
118.061
20
-70.5452
11
118.06
21
-70.5405
0
LINE
8
BLACK
6
CONTINUOUS
10
118.06
20
-70.5405
11
118.06
21
-70.5358
0
LINE
8
BLACK
6
CONTINUOUS
10
118.06
20
-70.5358
11
118.06
21
-69.9008
0
LINE
8
BLACK
6
CONTINUOUS
10
118.06
20
-69.9008
11
118.06
21
-69.9005
0
LINE
8
BLACK
6
CONTINUOUS
10
118.06
20
-69.9005
11
118.06
21
-69.9005
0
LINE
8
BLACK
6
CONTINUOUS
10
118.06
20
-69.9005
11
118.06
21
-69.9004
0
LINE
8
BLACK
6
CONTINUOUS
10
118.06
20
-69.9004
11
118.06
21
-69.9001
0
LINE
8
BLACK
6
CONTINUOUS
10
118.06
20
-69.9001
11
118.061
21
-69.8955
0
LINE
8
BLACK
6
CONTINUOUS
10
118.061
20
-69.8955
11
118.061
21
-69.8907
0
LINE
8
BLACK
6
CONTINUOUS
10
118.061
20
-69.8907
11
118.061
21
-69.8906
0
LINE
8
BLACK
6
CONTINUOUS
10
118.061
20
-69.8906
11
118.061
21
-69.8904
0
LINE
8
BLACK
6
CONTINUOUS
10
118.061
20
-69.8904
11
118.063
21
-69.8859
0
LINE
8
BLACK
6
CONTINUOUS
10
118.063
20
-69.8859
11
118.064
21
-69.8814
0
LINE
8
BLACK
6
CONTINUOUS
10
118.064
20
-69.8814
11
118.064
21
-69.8813
0
LINE
8
BLACK
6
CONTINUOUS
10
118.064
20
-69.8813
11
118.064
21
-69.8811
0
LINE
8
BLACK
6
CONTINUOUS
10
118.064
20
-69.8811
11
118.066
21
-69.877
0
LINE
8
BLACK
6
CONTINUOUS
10
118.066
20
-69.877
11
118.069
21
-69.8728
0
LINE
8
BLACK
6
CONTINUOUS
10
118.069
20
-69.8728
11
118.069
21
-69.8727
0
LINE
8
BLACK
6
CONTINUOUS
10
118.069
20
-69.8727
11
118.069
21
-69.8726
0
LINE
8
BLACK
6
CONTINUOUS
10
118.069
20
-69.8726
11
118.072
21
-69.869
0
LINE
8
BLACK
6
CONTINUOUS
10
118.072
20
-69.869
11
118.075
21
-69.8653
0
LINE
8
BLACK
6
CONTINUOUS
10
118.075
20
-69.8653
11
118.075
21
-69.8652
0
LINE
8
BLACK
6
CONTINUOUS
10
118.075
20
-69.8652
11
118.075
21
-69.8651
0
LINE
8
BLACK
6
CONTINUOUS
10
118.075
20
-69.8651
11
118.079
21
-69.8622
0
LINE
8
BLACK
6
CONTINUOUS
10
118.079
20
-69.8622
11
118.082
21
-69.8592
0
LINE
8
BLACK
6
CONTINUOUS
10
118.082
20
-69.8592
11
118.082
21
-69.8591
0
LINE
8
BLACK
6
CONTINUOUS
10
118.082
20
-69.8591
11
118.083
21
-69.859
0
LINE
8
BLACK
6
CONTINUOUS
10
118.083
20
-69.859
11
118.087
21
-69.8568
0
LINE
8
BLACK
6
CONTINUOUS
10
118.087
20
-69.8568
11
118.091
21
-69.8546
0
LINE
8
BLACK
6
CONTINUOUS
10
118.091
20
-69.8546
11
118.091
21
-69.8545
0
LINE
8
BLACK
6
CONTINUOUS
10
118.091
20
-69.8545
11
118.091
21
-69.8544
0
LINE
8
BLACK
6
CONTINUOUS
10
118.091
20
-69.8544
11
118.096
21
-69.8531
0
LINE
8
BLACK
6
CONTINUOUS
10
118.096
20
-69.8531
11
118.1
21
-69.8518
0
LINE
8
BLACK
6
CONTINUOUS
10
118.1
20
-69.8518
11
118.1
21
-69.8517
0
LINE
8
BLACK
6
CONTINUOUS
10
118.1
20
-69.8517
11
118.101
21
-69.8517
0
LINE
8
BLACK
6
CONTINUOUS
10
118.101
20
-69.8517
11
118.105
21
-69.8513
0
LINE
8
BLACK
6
CONTINUOUS
10
118.105
20
-69.8513
11
118.11
21
-69.8508
0
LINE
8
BLACK
6
CONTINUOUS
10
118.11
20
-69.8508
11
119.33
21
-69.8508
0
LINE
8
BLACK
6
CONTINUOUS
10
119.33
20
-69.8508
11
119.33
21
-69.2658
0
LINE
8
BLACK
6
CONTINUOUS
10
119.33
20
-69.2658
11
119.33
21
-69.2655
0
LINE
8
BLACK
6
CONTINUOUS
10
119.33
20
-69.2655
11
119.33
21
-69.2655
0
LINE
8
BLACK
6
CONTINUOUS
10
119.33
20
-69.2655
11
119.33
21
-69.2654
0
LINE
8
BLACK
6
CONTINUOUS
10
119.33
20
-69.2654
11
119.33
21
-69.2651
0
LINE
8
BLACK
6
CONTINUOUS
10
119.33
20
-69.2651
11
119.331
21
-69.2605
0
LINE
8
BLACK
6
CONTINUOUS
10
119.331
20
-69.2605
11
119.331
21
-69.2557
0
LINE
8
BLACK
6
CONTINUOUS
10
119.331
20
-69.2557
11
119.331
21
-69.2556
0
LINE
8
BLACK
6
CONTINUOUS
10
119.331
20
-69.2556
11
119.331
21
-69.2554
0
LINE
8
BLACK
6
CONTINUOUS
10
119.331
20
-69.2554
11
119.333
21
-69.2509
0
LINE
8
BLACK
6
CONTINUOUS
10
119.333
20
-69.2509
11
119.334
21
-69.2464
0
LINE
8
BLACK
6
CONTINUOUS
10
119.334
20
-69.2464
11
119.334
21
-69.2463
0
LINE
8
BLACK
6
CONTINUOUS
10
119.334
20
-69.2463
11
119.334
21
-69.2461
0
LINE
8
BLACK
6
CONTINUOUS
10
119.334
20
-69.2461
11
119.336
21
-69.242
0
LINE
8
BLACK
6
CONTINUOUS
10
119.336
20
-69.242
11
119.339
21
-69.2378
0
LINE
8
BLACK
6
CONTINUOUS
10
119.339
20
-69.2378
11
119.339
21
-69.2377
0
LINE
8
BLACK
6
CONTINUOUS
10
119.339
20
-69.2377
11
119.339
21
-69.2376
0
LINE
8
BLACK
6
CONTINUOUS
10
119.339
20
-69.2376
11
119.342
21
-69.234
0
LINE
8
BLACK
6
CONTINUOUS
10
119.342
20
-69.234
11
119.345
21
-69.2303
0
LINE
8
BLACK
6
CONTINUOUS
10
119.345
20
-69.2303
11
119.345
21
-69.2302
0
LINE
8
BLACK
6
CONTINUOUS
10
119.345
20
-69.2302
11
119.345
21
-69.2301
0
LINE
8
BLACK
6
CONTINUOUS
10
119.345
20
-69.2301
11
119.349
21
-69.2272
0
LINE
8
BLACK
6
CONTINUOUS
10
119.349
20
-69.2272
11
119.352
21
-69.2242
0
LINE
8
BLACK
6
CONTINUOUS
10
119.352
20
-69.2242
11
119.352
21
-69.2241
0
LINE
8
BLACK
6
CONTINUOUS
10
119.352
20
-69.2241
11
119.353
21
-69.224
0
LINE
8
BLACK
6
CONTINUOUS
10
119.353
20
-69.224
11
119.357
21
-69.2218
0
LINE
8
BLACK
6
CONTINUOUS
10
119.357
20
-69.2218
11
119.361
21
-69.2196
0
LINE
8
BLACK
6
CONTINUOUS
10
119.361
20
-69.2196
11
119.361
21
-69.2195
0
LINE
8
BLACK
6
CONTINUOUS
10
119.361
20
-69.2195
11
119.361
21
-69.2194
0
LINE
8
BLACK
6
CONTINUOUS
10
119.361
20
-69.2194
11
119.366
21
-69.2181
0
LINE
8
BLACK
6
CONTINUOUS
10
119.366
20
-69.2181
11
119.37
21
-69.2168
0
LINE
8
BLACK
6
CONTINUOUS
10
119.37
20
-69.2168
11
119.37
21
-69.2167
0
LINE
8
BLACK
6
CONTINUOUS
10
119.37
20
-69.2167
11
119.371
21
-69.2167
0
LINE
8
BLACK
6
CONTINUOUS
10
119.371
20
-69.2167
11
119.375
21
-69.2163
0
LINE
8
BLACK
6
CONTINUOUS
10
119.375
20
-69.2163
11
119.38
21
-69.2158
0
LINE
8
BLACK
6
CONTINUOUS
10
119.38
20
-69.2158
11
120.015
21
-69.2158
0
LINE
8
BLACK
6
CONTINUOUS
10
120.015
20
-69.2158
11
120.015
21
-69.2158
0
LINE
8
BLACK
6
CONTINUOUS
10
120.015
20
-69.2158
11
120.015
21
-69.2158
0
LINE
8
BLACK
6
CONTINUOUS
10
120.015
20
-69.2158
11
120.015
21
-69.2158
0
LINE
8
BLACK
6
CONTINUOUS
10
120.015
20
-69.2158
11
120.016
21
-69.2158
0
LINE
8
BLACK
6
CONTINUOUS
10
120.016
20
-69.2158
11
120.02
21
-69.2163
0
LINE
8
BLACK
6
CONTINUOUS
10
120.02
20
-69.2163
11
120.025
21
-69.2168
0
LINE
8
BLACK
6
CONTINUOUS
10
120.025
20
-69.2168
11
120.025
21
-69.2169
0
LINE
8
BLACK
6
CONTINUOUS
10
120.025
20
-69.2169
11
120.025
21
-69.2169
0
LINE
8
BLACK
6
CONTINUOUS
10
120.025
20
-69.2169
11
120.03
21
-69.2183
0
LINE
8
BLACK
6
CONTINUOUS
10
120.03
20
-69.2183
11
120.034
21
-69.2197
0
LINE
8
BLACK
6
CONTINUOUS
10
120.034
20
-69.2197
11
120.035
21
-69.2198
0
LINE
8
BLACK
6
CONTINUOUS
10
120.035
20
-69.2198
11
120.035
21
-69.2198
0
LINE
8
BLACK
6
CONTINUOUS
10
120.035
20
-69.2198
11
120.039
21
-69.2221
0
LINE
8
BLACK
6
CONTINUOUS
10
120.039
20
-69.2221
11
120.043
21
-69.2243
0
LINE
8
BLACK
6
CONTINUOUS
10
120.043
20
-69.2243
11
120.043
21
-69.2245
0
LINE
8
BLACK
6
CONTINUOUS
10
120.043
20
-69.2245
11
120.043
21
-69.2245
0
LINE
8
BLACK
6
CONTINUOUS
10
120.043
20
-69.2245
11
120.047
21
-69.2275
0
LINE
8
BLACK
6
CONTINUOUS
10
120.047
20
-69.2275
11
120.05
21
-69.2306
0
LINE
8
BLACK
6
CONTINUOUS
10
120.05
20
-69.2306
11
120.051
21
-69.2307
0
LINE
8
BLACK
6
CONTINUOUS
10
120.051
20
-69.2307
11
120.051
21
-69.2308
0
LINE
8
BLACK
6
CONTINUOUS
10
120.051
20
-69.2308
11
120.054
21
-69.2344
0
LINE
8
BLACK
6
CONTINUOUS
10
120.054
20
-69.2344
11
120.057
21
-69.2381
0
LINE
8
BLACK
6
CONTINUOUS
10
120.057
20
-69.2381
11
120.057
21
-69.2383
0
LINE
8
BLACK
6
CONTINUOUS
10
120.057
20
-69.2383
11
120.057
21
-69.2384
0
LINE
8
BLACK
6
CONTINUOUS
10
120.057
20
-69.2384
11
120.059
21
-69.2425
0
LINE
8
BLACK
6
CONTINUOUS
10
120.059
20
-69.2425
11
120.061
21
-69.2467
0
LINE
8
BLACK
6
CONTINUOUS
10
120.061
20
-69.2467
11
120.061
21
-69.2469
0
LINE
8
BLACK
6
CONTINUOUS
10
120.061
20
-69.2469
11
120.061
21
-69.2471
0
LINE
8
BLACK
6
CONTINUOUS
10
120.061
20
-69.2471
11
120.063
21
-69.2515
0
LINE
8
BLACK
6
CONTINUOUS
10
120.063
20
-69.2515
11
120.064
21
-69.2561
0
LINE
8
BLACK
6
CONTINUOUS
10
120.064
20
-69.2561
11
120.064
21
-69.2563
0
LINE
8
BLACK
6
CONTINUOUS
10
120.064
20
-69.2563
11
120.064
21
-69.2564
0
LINE
8
BLACK
6
CONTINUOUS
10
120.064
20
-69.2564
11
120.065
21
-69.2611
0
LINE
8
BLACK
6
CONTINUOUS
10
120.065
20
-69.2611
11
120.065
21
-69.2658
0
LINE
8
BLACK
6
CONTINUOUS
10
120.065
20
-69.2658
11
120.065
21
-69.8508
0
LINE
8
BLACK
6
CONTINUOUS
10
120.065
20
-69.8508
11
120.6
21
-69.8508
0
LINE
8
BLACK
6
CONTINUOUS
10
120.6
20
-69.8508
11
120.6
21
-69.2658
0
LINE
8
BLACK
6
CONTINUOUS
10
120.6
20
-69.2658
11
120.6
21
-69.2655
0
LINE
8
BLACK
6
CONTINUOUS
10
120.6
20
-69.2655
11
120.6
21
-69.2655
0
LINE
8
BLACK
6
CONTINUOUS
10
120.6
20
-69.2655
11
120.6
21
-69.2654
0
LINE
8
BLACK
6
CONTINUOUS
10
120.6
20
-69.2654
11
120.6
21
-69.2651
0
LINE
8
BLACK
6
CONTINUOUS
10
120.6
20
-69.2651
11
120.601
21
-69.2605
0
LINE
8
BLACK
6
CONTINUOUS
10
120.601
20
-69.2605
11
120.601
21
-69.2557
0
LINE
8
BLACK
6
CONTINUOUS
10
120.601
20
-69.2557
11
120.601
21
-69.2556
0
LINE
8
BLACK
6
CONTINUOUS
10
120.601
20
-69.2556
11
120.601
21
-69.2554
0
LINE
8
BLACK
6
CONTINUOUS
10
120.601
20
-69.2554
11
120.603
21
-69.2509
0
LINE
8
BLACK
6
CONTINUOUS
10
120.603
20
-69.2509
11
120.604
21
-69.2464
0
LINE
8
BLACK
6
CONTINUOUS
10
120.604
20
-69.2464
11
120.604
21
-69.2463
0
LINE
8
BLACK
6
CONTINUOUS
10
120.604
20
-69.2463
11
120.604
21
-69.2461
0
LINE
8
BLACK
6
CONTINUOUS
10
120.604
20
-69.2461
11
120.606
21
-69.242
0
LINE
8
BLACK
6
CONTINUOUS
10
120.606
20
-69.242
11
120.609
21
-69.2378
0
LINE
8
BLACK
6
CONTINUOUS
10
120.609
20
-69.2378
11
120.609
21
-69.2377
0
LINE
8
BLACK
6
CONTINUOUS
10
120.609
20
-69.2377
11
120.609
21
-69.2376
0
LINE
8
BLACK
6
CONTINUOUS
10
120.609
20
-69.2376
11
120.612
21
-69.234
0
LINE
8
BLACK
6
CONTINUOUS
10
120.612
20
-69.234
11
120.615
21
-69.2303
0
LINE
8
BLACK
6
CONTINUOUS
10
120.615
20
-69.2303
11
120.615
21
-69.2302
0
LINE
8
BLACK
6
CONTINUOUS
10
120.615
20
-69.2302
11
120.615
21
-69.2301
0
LINE
8
BLACK
6
CONTINUOUS
10
120.615
20
-69.2301
11
120.619
21
-69.2272
0
LINE
8
BLACK
6
CONTINUOUS
10
120.619
20
-69.2272
11
120.622
21
-69.2242
0
LINE
8
BLACK
6
CONTINUOUS
10
120.622
20
-69.2242
11
120.622
21
-69.2241
0
LINE
8
BLACK
6
CONTINUOUS
10
120.622
20
-69.2241
11
120.623
21
-69.224
0
LINE
8
BLACK
6
CONTINUOUS
10
120.623
20
-69.224
11
120.627
21
-69.2218
0
LINE
8
BLACK
6
CONTINUOUS
10
120.627
20
-69.2218
11
120.631
21
-69.2196
0
LINE
8
BLACK
6
CONTINUOUS
10
120.631
20
-69.2196
11
120.631
21
-69.2195
0
LINE
8
BLACK
6
CONTINUOUS
10
120.631
20
-69.2195
11
120.631
21
-69.2194
0
LINE
8
BLACK
6
CONTINUOUS
10
120.631
20
-69.2194
11
120.636
21
-69.2181
0
LINE
8
BLACK
6
CONTINUOUS
10
120.636
20
-69.2181
11
120.64
21
-69.2168
0
LINE
8
BLACK
6
CONTINUOUS
10
120.64
20
-69.2168
11
120.64
21
-69.2167
0
LINE
8
BLACK
6
CONTINUOUS
10
120.64
20
-69.2167
11
120.641
21
-69.2167
0
LINE
8
BLACK
6
CONTINUOUS
10
120.641
20
-69.2167
11
120.645
21
-69.2163
0
LINE
8
BLACK
6
CONTINUOUS
10
120.645
20
-69.2163
11
120.65
21
-69.2158
0
LINE
8
BLACK
6
CONTINUOUS
10
120.65
20
-69.2158
11
121.285
21
-69.2158
0
LINE
8
BLACK
6
CONTINUOUS
10
121.285
20
-69.2158
11
121.285
21
-69.2158
0
LINE
8
BLACK
6
CONTINUOUS
10
121.285
20
-69.2158
11
121.285
21
-69.2158
0
LINE
8
BLACK
6
CONTINUOUS
10
121.285
20
-69.2158
11
121.285
21
-69.2158
0
LINE
8
BLACK
6
CONTINUOUS
10
121.285
20
-69.2158
11
121.286
21
-69.2158
0
LINE
8
BLACK
6
CONTINUOUS
10
121.286
20
-69.2158
11
121.29
21
-69.2163
0
LINE
8
BLACK
6
CONTINUOUS
10
121.29
20
-69.2163
11
121.295
21
-69.2168
0
LINE
8
BLACK
6
CONTINUOUS
10
121.295
20
-69.2168
11
121.295
21
-69.2169
0
LINE
8
BLACK
6
CONTINUOUS
10
121.295
20
-69.2169
11
121.295
21
-69.2169
0
LINE
8
BLACK
6
CONTINUOUS
10
121.295
20
-69.2169
11
121.3
21
-69.2183
0
LINE
8
BLACK
6
CONTINUOUS
10
121.3
20
-69.2183
11
121.304
21
-69.2197
0
LINE
8
BLACK
6
CONTINUOUS
10
121.304
20
-69.2197
11
121.305
21
-69.2198
0
LINE
8
BLACK
6
CONTINUOUS
10
121.305
20
-69.2198
11
121.305
21
-69.2198
0
LINE
8
BLACK
6
CONTINUOUS
10
121.305
20
-69.2198
11
121.309
21
-69.2221
0
LINE
8
BLACK
6
CONTINUOUS
10
121.309
20
-69.2221
11
121.313
21
-69.2243
0
LINE
8
BLACK
6
CONTINUOUS
10
121.313
20
-69.2243
11
121.313
21
-69.2245
0
LINE
8
BLACK
6
CONTINUOUS
10
121.313
20
-69.2245
11
121.313
21
-69.2245
0
LINE
8
BLACK
6
CONTINUOUS
10
121.313
20
-69.2245
11
121.317
21
-69.2275
0
LINE
8
BLACK
6
CONTINUOUS
10
121.317
20
-69.2275
11
121.32
21
-69.2306
0
LINE
8
BLACK
6
CONTINUOUS
10
121.32
20
-69.2306
11
121.321
21
-69.2307
0
LINE
8
BLACK
6
CONTINUOUS
10
121.321
20
-69.2307
11
121.321
21
-69.2308
0
LINE
8
BLACK
6
CONTINUOUS
10
121.321
20
-69.2308
11
121.324
21
-69.2344
0
LINE
8
BLACK
6
CONTINUOUS
10
121.324
20
-69.2344
11
121.327
21
-69.2381
0
LINE
8
BLACK
6
CONTINUOUS
10
121.327
20
-69.2381
11
121.327
21
-69.2383
0
LINE
8
BLACK
6
CONTINUOUS
10
121.327
20
-69.2383
11
121.327
21
-69.2384
0
LINE
8
BLACK
6
CONTINUOUS
10
121.327
20
-69.2384
11
121.329
21
-69.2425
0
LINE
8
BLACK
6
CONTINUOUS
10
121.329
20
-69.2425
11
121.331
21
-69.2467
0
LINE
8
BLACK
6
CONTINUOUS
10
121.331
20
-69.2467
11
121.331
21
-69.2469
0
LINE
8
BLACK
6
CONTINUOUS
10
121.331
20
-69.2469
11
121.331
21
-69.2471
0
LINE
8
BLACK
6
CONTINUOUS
10
121.331
20
-69.2471
11
121.333
21
-69.2515
0
LINE
8
BLACK
6
CONTINUOUS
10
121.333
20
-69.2515
11
121.334
21
-69.2561
0
LINE
8
BLACK
6
CONTINUOUS
10
121.334
20
-69.2561
11
121.334
21
-69.2563
0
LINE
8
BLACK
6
CONTINUOUS
10
121.334
20
-69.2563
11
121.334
21
-69.2564
0
LINE
8
BLACK
6
CONTINUOUS
10
121.334
20
-69.2564
11
121.335
21
-69.2611
0
LINE
8
BLACK
6
CONTINUOUS
10
121.335
20
-69.2611
11
121.335
21
-69.2658
0
LINE
8
BLACK
6
CONTINUOUS
10
121.335
20
-69.2658
11
121.335
21
-70.5358
0
LINE
8
BLACK
6
CONTINUOUS
10
121.335
20
-70.5358
11
121.335
21
-70.5361
0
LINE
8
BLACK
6
CONTINUOUS
10
122.555
20
-69.8508
11
122.555
21
-69.8508
0
LINE
8
BLACK
6
CONTINUOUS
10
122.555
20
-69.8508
11
122.555
21
-69.8508
0
LINE
8
BLACK
6
CONTINUOUS
10
122.555
20
-69.8508
11
122.556
21
-69.8508
0
LINE
8
BLACK
6
CONTINUOUS
10
122.556
20
-69.8508
11
122.56
21
-69.8513
0
LINE
8
BLACK
6
CONTINUOUS
10
122.56
20
-69.8513
11
122.565
21
-69.8518
0
LINE
8
BLACK
6
CONTINUOUS
10
122.565
20
-69.8518
11
122.565
21
-69.8519
0
LINE
8
BLACK
6
CONTINUOUS
10
122.565
20
-69.8519
11
122.565
21
-69.8519
0
LINE
8
BLACK
6
CONTINUOUS
10
122.565
20
-69.8519
11
122.57
21
-69.8533
0
LINE
8
BLACK
6
CONTINUOUS
10
122.57
20
-69.8533
11
122.574
21
-69.8547
0
LINE
8
BLACK
6
CONTINUOUS
10
122.574
20
-69.8547
11
122.575
21
-69.8548
0
LINE
8
BLACK
6
CONTINUOUS
10
122.575
20
-69.8548
11
122.575
21
-69.8548
0
LINE
8
BLACK
6
CONTINUOUS
10
122.575
20
-69.8548
11
122.579
21
-69.8571
0
LINE
8
BLACK
6
CONTINUOUS
10
122.579
20
-69.8571
11
122.583
21
-69.8593
0
LINE
8
BLACK
6
CONTINUOUS
10
122.583
20
-69.8593
11
122.583
21
-69.8595
0
LINE
8
BLACK
6
CONTINUOUS
10
122.583
20
-69.8595
11
122.583
21
-69.8595
0
LINE
8
BLACK
6
CONTINUOUS
10
122.583
20
-69.8595
11
122.587
21
-69.8625
0
LINE
8
BLACK
6
CONTINUOUS
10
122.587
20
-69.8625
11
122.59
21
-69.8656
0
LINE
8
BLACK
6
CONTINUOUS
10
122.59
20
-69.8656
11
122.591
21
-69.8657
0
LINE
8
BLACK
6
CONTINUOUS
10
122.591
20
-69.8657
11
122.591
21
-69.8658
0
LINE
8
BLACK
6
CONTINUOUS
10
122.591
20
-69.8658
11
122.594
21
-69.8694
0
LINE
8
BLACK
6
CONTINUOUS
10
122.594
20
-69.8694
11
122.597
21
-69.8731
0
LINE
8
BLACK
6
CONTINUOUS
10
122.597
20
-69.8731
11
122.597
21
-69.8733
0
LINE
8
BLACK
6
CONTINUOUS
10
122.597
20
-69.8733
11
122.597
21
-69.8734
0
LINE
8
BLACK
6
CONTINUOUS
10
122.597
20
-69.8734
11
122.599
21
-69.8775
0
LINE
8
BLACK
6
CONTINUOUS
10
122.599
20
-69.8775
11
122.601
21
-69.8817
0
LINE
8
BLACK
6
CONTINUOUS
10
122.601
20
-69.8817
11
122.601
21
-69.8819
0
LINE
8
BLACK
6
CONTINUOUS
10
122.601
20
-69.8819
11
122.601
21
-69.8821
0
LINE
8
BLACK
6
CONTINUOUS
10
122.601
20
-69.8821
11
122.603
21
-69.8865
0
LINE
8
BLACK
6
CONTINUOUS
10
122.603
20
-69.8865
11
122.604
21
-69.8911
0
LINE
8
BLACK
6
CONTINUOUS
10
122.604
20
-69.8911
11
122.604
21
-69.8913
0
LINE
8
BLACK
6
CONTINUOUS
10
122.604
20
-69.8913
11
122.604
21
-69.8914
0
LINE
8
BLACK
6
CONTINUOUS
10
122.604
20
-69.8914
11
122.605
21
-69.8961
0
LINE
8
BLACK
6
CONTINUOUS
10
122.605
20
-69.8961
11
122.605
21
-69.9008
0
LINE
8
BLACK
6
CONTINUOUS
10
122.605
20
-69.9008
11
122.605
21
-70.5358
0
LINE
8
BLACK
6
CONTINUOUS
10
122.605
20
-70.5358
11
122.605
21
-70.5361
0
LINE
8
BLACK
6
CONTINUOUS
10
122.605
20
-70.5361
11
122.605
21
-70.5361
0
LINE
8
BLACK
6
CONTINUOUS
10
122.605
20
-70.5361
11
122.605
21
-70.5362
0
LINE
8
BLACK
6
CONTINUOUS
10
122.605
20
-70.5362
11
122.605
21
-70.5365
0
LINE
8
BLACK
6
CONTINUOUS
10
122.605
20
-70.5365
11
122.604
21
-70.5411
0
LINE
8
BLACK
6
CONTINUOUS
10
122.604
20
-70.5411
11
122.604
21
-70.5459
0
LINE
8
BLACK
6
CONTINUOUS
10
122.604
20
-70.5459
11
122.604
21
-70.546
0
LINE
8
BLACK
6
CONTINUOUS
10
122.604
20
-70.546
11
122.604
21
-70.5462
0
LINE
8
BLACK
6
CONTINUOUS
10
122.604
20
-70.5462
11
122.602
21
-70.5507
0
LINE
8
BLACK
6
CONTINUOUS
10
122.602
20
-70.5507
11
122.601
21
-70.5552
0
LINE
8
BLACK
6
CONTINUOUS
10
122.601
20
-70.5552
11
122.601
21
-70.5553
0
LINE
8
BLACK
6
CONTINUOUS
10
122.601
20
-70.5553
11
122.601
21
-70.5555
0
LINE
8
BLACK
6
CONTINUOUS
10
122.601
20
-70.5555
11
122.599
21
-70.5596
0
LINE
8
BLACK
6
CONTINUOUS
10
122.599
20
-70.5596
11
122.596
21
-70.5638
0
LINE
8
BLACK
6
CONTINUOUS
10
122.596
20
-70.5638
11
122.596
21
-70.5639
0
LINE
8
BLACK
6
CONTINUOUS
10
122.596
20
-70.5639
11
122.596
21
-70.564
0
LINE
8
BLACK
6
CONTINUOUS
10
122.596
20
-70.564
11
122.593
21
-70.5676
0
LINE
8
BLACK
6
CONTINUOUS
10
122.593
20
-70.5676
11
122.59
21
-70.5713
0
LINE
8
BLACK
6
CONTINUOUS
10
122.59
20
-70.5713
11
122.59
21
-70.5714
0
LINE
8
BLACK
6
CONTINUOUS
10
122.59
20
-70.5714
11
122.59
21
-70.5715
0
LINE
8
BLACK
6
CONTINUOUS
10
122.59
20
-70.5715
11
122.586
21
-70.5744
0
LINE
8
BLACK
6
CONTINUOUS
10
122.586
20
-70.5744
11
122.583
21
-70.5774
0
LINE
8
BLACK
6
CONTINUOUS
10
122.583
20
-70.5774
11
122.583
21
-70.5775
0
LINE
8
BLACK
6
CONTINUOUS
10
122.583
20
-70.5775
11
122.582
21
-70.5776
0
LINE
8
BLACK
6
CONTINUOUS
10
122.582
20
-70.5776
11
122.578
21
-70.5798
0
LINE
8
BLACK
6
CONTINUOUS
10
122.578
20
-70.5798
11
122.574
21
-70.582
0
LINE
8
BLACK
6
CONTINUOUS
10
122.574
20
-70.582
11
122.574
21
-70.5821
0
LINE
8
BLACK
6
CONTINUOUS
10
122.574
20
-70.5821
11
122.574
21
-70.5822
0
LINE
8
BLACK
6
CONTINUOUS
10
122.574
20
-70.5822
11
122.569
21
-70.5835
0
LINE
8
BLACK
6
CONTINUOUS
10
122.569
20
-70.5835
11
122.565
21
-70.5848
0
LINE
8
BLACK
6
CONTINUOUS
10
122.565
20
-70.5848
11
122.565
21
-70.5849
0
LINE
8
BLACK
6
CONTINUOUS
10
122.565
20
-70.5849
11
122.564
21
-70.5849
0
LINE
8
BLACK
6
CONTINUOUS
10
122.564
20
-70.5849
11
122.56
21
-70.5853
0
LINE
8
BLACK
6
CONTINUOUS
10
122.56
20
-70.5853
11
122.555
21
-70.5858
0
LINE
8
BLACK
6
CONTINUOUS
10
122.555
20
-70.5858
11
121.92
21
-70.5858
0
LINE
8
BLACK
6
CONTINUOUS
10
121.92
20
-70.5858
11
121.92
21
-70.5858
0
LINE
8
BLACK
6
CONTINUOUS
10
121.92
20
-70.5858
11
121.92
21
-70.5858
0
LINE
8
BLACK
6
CONTINUOUS
10
121.92
20
-70.5858
11
121.92
21
-70.5858
0
LINE
8
BLACK
6
CONTINUOUS
10
121.92
20
-70.5858
11
121.919
21
-70.5858
0
LINE
8
BLACK
6
CONTINUOUS
10
121.919
20
-70.5858
11
121.915
21
-70.5853
0
LINE
8
BLACK
6
CONTINUOUS
10
121.915
20
-70.5853
11
121.91
21
-70.5848
0
LINE
8
BLACK
6
CONTINUOUS
10
121.91
20
-70.5848
11
121.91
21
-70.5847
0
LINE
8
BLACK
6
CONTINUOUS
10
121.91
20
-70.5847
11
121.91
21
-70.5847
0
LINE
8
BLACK
6
CONTINUOUS
10
121.91
20
-70.5847
11
121.905
21
-70.5833
0
LINE
8
BLACK
6
CONTINUOUS
10
121.905
20
-70.5833
11
121.901
21
-70.5819
0
LINE
8
BLACK
6
CONTINUOUS
10
121.901
20
-70.5819
11
121.9
21
-70.5818
0
LINE
8
BLACK
6
CONTINUOUS
10
121.9
20
-70.5818
11
121.9
21
-70.5818
0
LINE
8
BLACK
6
CONTINUOUS
10
121.9
20
-70.5818
11
121.896
21
-70.5795
0
LINE
8
BLACK
6
CONTINUOUS
10
121.896
20
-70.5795
11
121.892
21
-70.5773
0
LINE
8
BLACK
6
CONTINUOUS
10
121.892
20
-70.5773
11
121.892
21
-70.5771
0
LINE
8
BLACK
6
CONTINUOUS
10
121.892
20
-70.5771
11
121.892
21
-70.5771
0
LINE
8
BLACK
6
CONTINUOUS
10
121.892
20
-70.5771
11
121.888
21
-70.5741
0
LINE
8
BLACK
6
CONTINUOUS
10
121.888
20
-70.5741
11
121.885
21
-70.571
0
LINE
8
BLACK
6
CONTINUOUS
10
121.885
20
-70.571
11
121.884
21
-70.5709
0
LINE
8
BLACK
6
CONTINUOUS
10
121.884
20
-70.5709
11
121.884
21
-70.5708
0
LINE
8
BLACK
6
CONTINUOUS
10
121.884
20
-70.5708
11
121.881
21
-70.5672
0
LINE
8
BLACK
6
CONTINUOUS
10
121.881
20
-70.5672
11
121.878
21
-70.5635
0
LINE
8
BLACK
6
CONTINUOUS
10
121.878
20
-70.5635
11
121.878
21
-70.5633
0
LINE
8
BLACK
6
CONTINUOUS
10
121.878
20
-70.5633
11
121.878
21
-70.5632
0
LINE
8
BLACK
6
CONTINUOUS
10
121.878
20
-70.5632
11
121.876
21
-70.5591
0
LINE
8
BLACK
6
CONTINUOUS
10
121.876
20
-70.5591
11
121.874
21
-70.5549
0
LINE
8
BLACK
6
CONTINUOUS
10
121.874
20
-70.5549
11
121.874
21
-70.5547
0
LINE
8
BLACK
6
CONTINUOUS
10
121.874
20
-70.5547
11
121.874
21
-70.5545
0
LINE
8
BLACK
6
CONTINUOUS
10
121.874
20
-70.5545
11
121.872
21
-70.5501
0
LINE
8
BLACK
6
CONTINUOUS
10
121.872
20
-70.5501
11
121.871
21
-70.5455
0
LINE
8
BLACK
6
CONTINUOUS
10
121.871
20
-70.5455
11
121.871
21
-70.5453
0
LINE
8
BLACK
6
CONTINUOUS
10
121.871
20
-70.5453
11
121.871
21
-70.5452
0
LINE
8
BLACK
6
CONTINUOUS
10
121.871
20
-70.5452
11
121.87
21
-70.5405
0
LINE
8
BLACK
6
CONTINUOUS
10
121.87
20
-70.5405
11
121.87
21
-70.5358
0
LINE
8
BLACK
6
CONTINUOUS
10
121.87
20
-70.5358
11
121.87
21
-69.9008
0
LINE
8
BLACK
6
CONTINUOUS
10
121.87
20
-69.9008
11
121.87
21
-69.9005
0
LINE
8
BLACK
6
CONTINUOUS
10
121.87
20
-69.9005
11
121.87
21
-69.9005
0
LINE
8
BLACK
6
CONTINUOUS
10
121.87
20
-69.9005
11
121.87
21
-69.9004
0
LINE
8
BLACK
6
CONTINUOUS
10
121.87
20
-69.9004
11
121.87
21
-69.9001
0
LINE
8
BLACK
6
CONTINUOUS
10
121.87
20
-69.9001
11
121.871
21
-69.8955
0
LINE
8
BLACK
6
CONTINUOUS
10
121.871
20
-69.8955
11
121.871
21
-69.8907
0
LINE
8
BLACK
6
CONTINUOUS
10
121.871
20
-69.8907
11
121.871
21
-69.8906
0
LINE
8
BLACK
6
CONTINUOUS
10
121.871
20
-69.8906
11
121.871
21
-69.8904
0
LINE
8
BLACK
6
CONTINUOUS
10
121.871
20
-69.8904
11
121.873
21
-69.8859
0
LINE
8
BLACK
6
CONTINUOUS
10
121.873
20
-69.8859
11
121.874
21
-69.8814
0
LINE
8
BLACK
6
CONTINUOUS
10
121.874
20
-69.8814
11
121.874
21
-69.8813
0
LINE
8
BLACK
6
CONTINUOUS
10
121.874
20
-69.8813
11
121.874
21
-69.8811
0
LINE
8
BLACK
6
CONTINUOUS
10
121.874
20
-69.8811
11
121.876
21
-69.877
0
LINE
8
BLACK
6
CONTINUOUS
10
121.876
20
-69.877
11
121.879
21
-69.8728
0
LINE
8
BLACK
6
CONTINUOUS
10
121.879
20
-69.8728
11
121.879
21
-69.8727
0
LINE
8
BLACK
6
CONTINUOUS
10
121.879
20
-69.8727
11
121.879
21
-69.8726
0
LINE
8
BLACK
6
CONTINUOUS
10
121.879
20
-69.8726
11
121.882
21
-69.869
0
LINE
8
BLACK
6
CONTINUOUS
10
121.882
20
-69.869
11
121.885
21
-69.8653
0
LINE
8
BLACK
6
CONTINUOUS
10
121.885
20
-69.8653
11
121.885
21
-69.8652
0
LINE
8
BLACK
6
CONTINUOUS
10
121.885
20
-69.8652
11
121.885
21
-69.8651
0
LINE
8
BLACK
6
CONTINUOUS
10
121.885
20
-69.8651
11
121.889
21
-69.8622
0
LINE
8
BLACK
6
CONTINUOUS
10
121.889
20
-69.8622
11
121.892
21
-69.8592
0
LINE
8
BLACK
6
CONTINUOUS
10
121.892
20
-69.8592
11
121.892
21
-69.8591
0
LINE
8
BLACK
6
CONTINUOUS
10
121.892
20
-69.8591
11
121.893
21
-69.859
0
LINE
8
BLACK
6
CONTINUOUS
10
121.893
20
-69.859
11
121.897
21
-69.8568
0
LINE
8
BLACK
6
CONTINUOUS
10
121.897
20
-69.8568
11
121.901
21
-69.8546
0
LINE
8
BLACK
6
CONTINUOUS
10
121.901
20
-69.8546
11
121.901
21
-69.8545
0
LINE
8
BLACK
6
CONTINUOUS
10
121.901
20
-69.8545
11
121.901
21
-69.8544
0
LINE
8
BLACK
6
CONTINUOUS
10
121.901
20
-69.8544
11
121.906
21
-69.8531
0
LINE
8
BLACK
6
CONTINUOUS
10
121.906
20
-69.8531
11
121.91
21
-69.8518
0
LINE
8
BLACK
6
CONTINUOUS
10
121.91
20
-69.8518
11
121.91
21
-69.8517
0
LINE
8
BLACK
6
CONTINUOUS
10
121.91
20
-69.8517
11
121.911
21
-69.8517
0
LINE
8
BLACK
6
CONTINUOUS
10
121.911
20
-69.8517
11
121.915
21
-69.8513
0
LINE
8
BLACK
6
CONTINUOUS
10
121.915
20
-69.8513
11
121.92
21
-69.8508
0
LINE
8
BLACK
6
CONTINUOUS
10
121.92
20
-69.8508
11
122.555
21
-69.8508
0
LINE
8
BLACK
6
CONTINUOUS
10
122.555
20
-69.8508
11
122.555
21
-69.8508
  0
ENDSEC
  0
EOF
