%TF.GenerationSoftware,KiCad,Pcbnew,(5.1.12)-1*%
%TF.CreationDate,2022-02-28T21:35:26+00:00*%
%TF.ProjectId,RGBtoHDMI CDTV v2 - Face Plate - Lite,52474274-6f48-4444-9d49-204344545620,1*%
%TF.SameCoordinates,Original*%
%TF.FileFunction,Soldermask,Top*%
%TF.FilePolarity,Negative*%
%FSLAX46Y46*%
G04 Gerber Fmt 4.6, Leading zero omitted, Abs format (unit mm)*
G04 Created by KiCad (PCBNEW (5.1.12)-1) date 2022-02-28 21:35:26*
%MOMM*%
%LPD*%
G01*
G04 APERTURE LIST*
%ADD10C,0.100000*%
%ADD11C,4.600000*%
%ADD12C,3.500000*%
G04 APERTURE END LIST*
D10*
%TO.C,solarmon*%
G36*
X120650000Y-71170800D02*
G01*
X120015000Y-71170800D01*
X120015000Y-70535800D01*
X120650000Y-70535800D01*
X120650000Y-71170800D01*
G37*
X120650000Y-71170800D02*
X120015000Y-71170800D01*
X120015000Y-70535800D01*
X120650000Y-70535800D01*
X120650000Y-71170800D01*
G36*
X120650000Y-71805800D02*
G01*
X120015000Y-71805800D01*
X120015000Y-71170800D01*
X120650000Y-71170800D01*
X120650000Y-71805800D01*
G37*
X120650000Y-71805800D02*
X120015000Y-71805800D01*
X120015000Y-71170800D01*
X120650000Y-71170800D01*
X120650000Y-71805800D01*
G36*
X121285000Y-71805800D02*
G01*
X120650000Y-71805800D01*
X120650000Y-71170800D01*
X121285000Y-71170800D01*
X121285000Y-71805800D01*
G37*
X121285000Y-71805800D02*
X120650000Y-71805800D01*
X120650000Y-71170800D01*
X121285000Y-71170800D01*
X121285000Y-71805800D01*
G36*
X120015000Y-71805800D02*
G01*
X119380000Y-71805800D01*
X119380000Y-71170800D01*
X120015000Y-71170800D01*
X120015000Y-71805800D01*
G37*
X120015000Y-71805800D02*
X119380000Y-71805800D01*
X119380000Y-71170800D01*
X120015000Y-71170800D01*
X120015000Y-71805800D01*
G36*
X119380000Y-71170800D02*
G01*
X118745000Y-71170800D01*
X118745000Y-70535800D01*
X119380000Y-70535800D01*
X119380000Y-71170800D01*
G37*
X119380000Y-71170800D02*
X118745000Y-71170800D01*
X118745000Y-70535800D01*
X119380000Y-70535800D01*
X119380000Y-71170800D01*
G36*
X122555000Y-70535800D02*
G01*
X121920000Y-70535800D01*
X121920000Y-69900800D01*
X122555000Y-69900800D01*
X122555000Y-70535800D01*
G37*
X122555000Y-70535800D02*
X121920000Y-70535800D01*
X121920000Y-69900800D01*
X122555000Y-69900800D01*
X122555000Y-70535800D01*
G36*
X122555000Y-74345800D02*
G01*
X121920000Y-74345800D01*
X121920000Y-73710800D01*
X122555000Y-73710800D01*
X122555000Y-74345800D01*
G37*
X122555000Y-74345800D02*
X121920000Y-74345800D01*
X121920000Y-73710800D01*
X122555000Y-73710800D01*
X122555000Y-74345800D01*
G36*
X121285000Y-69900800D02*
G01*
X120650000Y-69900800D01*
X120650000Y-69265800D01*
X121285000Y-69265800D01*
X121285000Y-69900800D01*
G37*
X121285000Y-69900800D02*
X120650000Y-69900800D01*
X120650000Y-69265800D01*
X121285000Y-69265800D01*
X121285000Y-69900800D01*
G36*
X121285000Y-70535800D02*
G01*
X120650000Y-70535800D01*
X120650000Y-69900800D01*
X121285000Y-69900800D01*
X121285000Y-70535800D01*
G37*
X121285000Y-70535800D02*
X120650000Y-70535800D01*
X120650000Y-69900800D01*
X121285000Y-69900800D01*
X121285000Y-70535800D01*
G36*
X120650000Y-70535800D02*
G01*
X120015000Y-70535800D01*
X120015000Y-69900800D01*
X120650000Y-69900800D01*
X120650000Y-70535800D01*
G37*
X120650000Y-70535800D02*
X120015000Y-70535800D01*
X120015000Y-69900800D01*
X120650000Y-69900800D01*
X120650000Y-70535800D01*
G36*
X120015000Y-70535800D02*
G01*
X119380000Y-70535800D01*
X119380000Y-69900800D01*
X120015000Y-69900800D01*
X120015000Y-70535800D01*
G37*
X120015000Y-70535800D02*
X119380000Y-70535800D01*
X119380000Y-69900800D01*
X120015000Y-69900800D01*
X120015000Y-70535800D01*
G36*
X120015000Y-69900800D02*
G01*
X119380000Y-69900800D01*
X119380000Y-69265800D01*
X120015000Y-69265800D01*
X120015000Y-69900800D01*
G37*
X120015000Y-69900800D02*
X119380000Y-69900800D01*
X119380000Y-69265800D01*
X120015000Y-69265800D01*
X120015000Y-69900800D01*
G36*
X119380000Y-70535800D02*
G01*
X118745000Y-70535800D01*
X118745000Y-69900800D01*
X119380000Y-69900800D01*
X119380000Y-70535800D01*
G37*
X119380000Y-70535800D02*
X118745000Y-70535800D01*
X118745000Y-69900800D01*
X119380000Y-69900800D01*
X119380000Y-70535800D01*
G36*
X118745000Y-70535800D02*
G01*
X118110000Y-70535800D01*
X118110000Y-69900800D01*
X118745000Y-69900800D01*
X118745000Y-70535800D01*
G37*
X118745000Y-70535800D02*
X118110000Y-70535800D01*
X118110000Y-69900800D01*
X118745000Y-69900800D01*
X118745000Y-70535800D01*
G36*
X118110000Y-73075800D02*
G01*
X117475000Y-73075800D01*
X117475000Y-72440800D01*
X118110000Y-72440800D01*
X118110000Y-73075800D01*
G37*
X118110000Y-73075800D02*
X117475000Y-73075800D01*
X117475000Y-72440800D01*
X118110000Y-72440800D01*
X118110000Y-73075800D01*
G36*
X118745000Y-74345800D02*
G01*
X118110000Y-74345800D01*
X118110000Y-73710800D01*
X118745000Y-73710800D01*
X118745000Y-74345800D01*
G37*
X118745000Y-74345800D02*
X118110000Y-74345800D01*
X118110000Y-73710800D01*
X118745000Y-73710800D01*
X118745000Y-74345800D01*
G36*
X121285000Y-74345800D02*
G01*
X120650000Y-74345800D01*
X120650000Y-73710800D01*
X121285000Y-73710800D01*
X121285000Y-74345800D01*
G37*
X121285000Y-74345800D02*
X120650000Y-74345800D01*
X120650000Y-73710800D01*
X121285000Y-73710800D01*
X121285000Y-74345800D01*
G36*
X122555000Y-72440800D02*
G01*
X121920000Y-72440800D01*
X121920000Y-71805800D01*
X122555000Y-71805800D01*
X122555000Y-72440800D01*
G37*
X122555000Y-72440800D02*
X121920000Y-72440800D01*
X121920000Y-71805800D01*
X122555000Y-71805800D01*
X122555000Y-72440800D01*
%TD*%
D11*
%TO.C,UP*%
X124174000Y-87299800D03*
%TD*%
%TO.C,DOWN*%
X111474000Y-87249000D03*
%TD*%
%TO.C,SELECT*%
X98774000Y-87249000D03*
%TD*%
D12*
%TO.C,REF\u002A\u002A*%
X89509600Y-95135700D03*
%TD*%
%TO.C,REF\u002A\u002A*%
X149479000Y-95173800D03*
%TD*%
M02*
