  0
SECTION
  2
HEADER
  9
$ANGBASE
  50
0.0
  9
$ANGDIR
  70
1
  9
$MEASUREMENT
  70
1
  0
ENDSEC
  0
SECTION
  2
TABLES
  0
TABLE
  2
LTYPE
  70
4
  0
LTYPE
  5
40F
  2
CONTINUOUS
  70
0
  3
Solid line
  72
65
  73
0
  40
0.0
  0
LTYPE
  5
410
  2
DASHDOT
 70
0
  3
Dash Dot ____ _ ____ _
 72
65
 73
4
 40
2.0
 49
1.25
 49
-0.25
 49
0.25
 49
-0.25
  0
LTYPE
  5
411
  2
DASHED
 70
0
  3
Dashed __ __ __ __ __
 72
65
 73
2
 40
0.75
 49
0.5
 49
-0.25
  0
LTYPE
  5
43B
  2
DOTTED
 70
0
  3
Dotted .  .  .  .
 72
65
 73
2
 40
0.2
 49
0.0
 49
-0.2
  0
ENDTAB
  0
TABLE
  2
STYLE
  70
4
  0
STYLE
  2
KICAD
  70
0
  40
0
  41
1
  42
1
  50
0
  71
0
  3
isocp.shx
  0
STYLE
  2
KICADB
  70
0
  40
0
  41
1
  42
1
  50
0
  71
0
  3
isocp.shx
  0
STYLE
  2
KICADI
  70
0
  40
0
  41
1
  42
1
  50
15
  71
0
  3
isocp.shx
  0
STYLE
  2
KICADBI
  70
0
  40
0
  41
1
  42
1
  50
15
  71
0
  3
isocp.shx
  0
ENDTAB
  0
TABLE
  2
LAYER
  70
1
  0
LAYER
  2
BLACK
  70
0
  62
7
  6
CONTINUOUS
  0
ENDTAB
  0
ENDSEC
  0
SECTION
  2
ENTITIES
0
LINE
8
BLACK
6
CONTINUOUS
10
149.989
20
-93.4911
11
150.308
21
-93.623
0
LINE
8
BLACK
6
CONTINUOUS
10
150.308
20
-93.623
11
150.595
21
-93.8145
0
LINE
8
BLACK
6
CONTINUOUS
10
150.595
20
-93.8145
11
150.838
21
-94.0582
0
LINE
8
BLACK
6
CONTINUOUS
10
150.838
20
-94.0582
11
151.03
21
-94.3449
0
LINE
8
BLACK
6
CONTINUOUS
10
151.03
20
-94.3449
11
151.162
21
-94.6633
0
LINE
8
BLACK
6
CONTINUOUS
10
151.162
20
-94.6633
11
151.229
21
-95.0014
0
LINE
8
BLACK
6
CONTINUOUS
10
151.229
20
-95.0014
11
151.229
21
-95.3462
0
LINE
8
BLACK
6
CONTINUOUS
10
151.229
20
-95.3462
11
151.162
21
-95.6843
0
LINE
8
BLACK
6
CONTINUOUS
10
151.162
20
-95.6843
11
151.03
21
-96.0027
0
LINE
8
BLACK
6
CONTINUOUS
10
151.03
20
-96.0027
11
150.838
21
-96.2894
0
LINE
8
BLACK
6
CONTINUOUS
10
150.838
20
-96.2894
11
150.595
21
-96.5331
0
LINE
8
BLACK
6
CONTINUOUS
10
150.595
20
-96.5331
11
150.308
21
-96.7246
0
LINE
8
BLACK
6
CONTINUOUS
10
150.308
20
-96.7246
11
149.989
21
-96.8565
0
LINE
8
BLACK
6
CONTINUOUS
10
149.989
20
-96.8565
11
149.651
21
-96.9238
0
LINE
8
BLACK
6
CONTINUOUS
10
149.651
20
-96.9238
11
149.307
21
-96.9238
0
LINE
8
BLACK
6
CONTINUOUS
10
149.307
20
-96.9238
11
148.969
21
-96.8565
0
LINE
8
BLACK
6
CONTINUOUS
10
148.969
20
-96.8565
11
148.65
21
-96.7246
0
LINE
8
BLACK
6
CONTINUOUS
10
148.65
20
-96.7246
11
148.363
21
-96.5331
0
LINE
8
BLACK
6
CONTINUOUS
10
148.363
20
-96.5331
11
148.12
21
-96.2894
0
LINE
8
BLACK
6
CONTINUOUS
10
148.12
20
-96.2894
11
147.928
21
-96.0027
0
LINE
8
BLACK
6
CONTINUOUS
10
147.928
20
-96.0027
11
147.796
21
-95.6843
0
LINE
8
BLACK
6
CONTINUOUS
10
147.796
20
-95.6843
11
147.729
21
-95.3462
0
LINE
8
BLACK
6
CONTINUOUS
10
147.729
20
-95.3462
11
147.729
21
-95.0014
0
LINE
8
BLACK
6
CONTINUOUS
10
147.729
20
-95.0014
11
147.796
21
-94.6633
0
LINE
8
BLACK
6
CONTINUOUS
10
147.796
20
-94.6633
11
147.928
21
-94.3449
0
LINE
8
BLACK
6
CONTINUOUS
10
147.928
20
-94.3449
11
148.12
21
-94.0582
0
LINE
8
BLACK
6
CONTINUOUS
10
148.12
20
-94.0582
11
148.363
21
-93.8145
0
LINE
8
BLACK
6
CONTINUOUS
10
148.363
20
-93.8145
11
148.65
21
-93.623
0
LINE
8
BLACK
6
CONTINUOUS
10
148.65
20
-93.623
11
148.969
21
-93.4911
0
LINE
8
BLACK
6
CONTINUOUS
10
148.969
20
-93.4911
11
149.307
21
-93.4238
0
LINE
8
BLACK
6
CONTINUOUS
10
149.307
20
-93.4238
11
149.651
21
-93.4238
0
LINE
8
BLACK
6
CONTINUOUS
10
149.651
20
-93.4238
11
149.989
21
-93.4911
0
LINE
8
BLACK
6
CONTINUOUS
10
90.0201
20
-93.453
11
90.3385
21
-93.5849
0
LINE
8
BLACK
6
CONTINUOUS
10
90.3385
20
-93.5849
11
90.6252
21
-93.7764
0
LINE
8
BLACK
6
CONTINUOUS
10
90.6252
20
-93.7764
11
90.8689
21
-94.0201
0
LINE
8
BLACK
6
CONTINUOUS
10
90.8689
20
-94.0201
11
91.0604
21
-94.3068
0
LINE
8
BLACK
6
CONTINUOUS
10
91.0604
20
-94.3068
11
91.1923
21
-94.6252
0
LINE
8
BLACK
6
CONTINUOUS
10
91.1923
20
-94.6252
11
91.2596
21
-94.9633
0
LINE
8
BLACK
6
CONTINUOUS
10
91.2596
20
-94.9633
11
91.2596
21
-95.3081
0
LINE
8
BLACK
6
CONTINUOUS
10
91.2596
20
-95.3081
11
91.1923
21
-95.6462
0
LINE
8
BLACK
6
CONTINUOUS
10
91.1923
20
-95.6462
11
91.0604
21
-95.9646
0
LINE
8
BLACK
6
CONTINUOUS
10
91.0604
20
-95.9646
11
90.8689
21
-96.2513
0
LINE
8
BLACK
6
CONTINUOUS
10
90.8689
20
-96.2513
11
90.6252
21
-96.495
0
LINE
8
BLACK
6
CONTINUOUS
10
90.6252
20
-96.495
11
90.3385
21
-96.6865
0
LINE
8
BLACK
6
CONTINUOUS
10
90.3385
20
-96.6865
11
90.0201
21
-96.8184
0
LINE
8
BLACK
6
CONTINUOUS
10
90.0201
20
-96.8184
11
89.682
21
-96.8857
0
LINE
8
BLACK
6
CONTINUOUS
10
89.682
20
-96.8857
11
89.3372
21
-96.8857
0
LINE
8
BLACK
6
CONTINUOUS
10
89.3372
20
-96.8857
11
88.9991
21
-96.8184
0
LINE
8
BLACK
6
CONTINUOUS
10
88.9991
20
-96.8184
11
88.6807
21
-96.6865
0
LINE
8
BLACK
6
CONTINUOUS
10
88.6807
20
-96.6865
11
88.394
21
-96.495
0
LINE
8
BLACK
6
CONTINUOUS
10
88.394
20
-96.495
11
88.1503
21
-96.2513
0
LINE
8
BLACK
6
CONTINUOUS
10
88.1503
20
-96.2513
11
87.9588
21
-95.9646
0
LINE
8
BLACK
6
CONTINUOUS
10
87.9588
20
-95.9646
11
87.8269
21
-95.6462
0
LINE
8
BLACK
6
CONTINUOUS
10
87.8269
20
-95.6462
11
87.7596
21
-95.3081
0
LINE
8
BLACK
6
CONTINUOUS
10
87.7596
20
-95.3081
11
87.7596
21
-94.9633
0
LINE
8
BLACK
6
CONTINUOUS
10
87.7596
20
-94.9633
11
87.8269
21
-94.6252
0
LINE
8
BLACK
6
CONTINUOUS
10
87.8269
20
-94.6252
11
87.9588
21
-94.3068
0
LINE
8
BLACK
6
CONTINUOUS
10
87.9588
20
-94.3068
11
88.1503
21
-94.0201
0
LINE
8
BLACK
6
CONTINUOUS
10
88.1503
20
-94.0201
11
88.394
21
-93.7764
0
LINE
8
BLACK
6
CONTINUOUS
10
88.394
20
-93.7764
11
88.6807
21
-93.5849
0
LINE
8
BLACK
6
CONTINUOUS
10
88.6807
20
-93.5849
11
88.9991
21
-93.453
0
LINE
8
BLACK
6
CONTINUOUS
10
88.9991
20
-93.453
11
89.3372
21
-93.3857
0
LINE
8
BLACK
6
CONTINUOUS
10
89.3372
20
-93.3857
11
89.682
21
-93.3857
0
LINE
8
BLACK
6
CONTINUOUS
10
89.682
20
-93.3857
11
90.0201
21
-93.453
0
LINE
8
BLACK
6
CONTINUOUS
10
124.845
20
-85.0882
11
125.263
21
-85.2616
0
LINE
8
BLACK
6
CONTINUOUS
10
125.263
20
-85.2616
11
125.64
21
-85.5133
0
LINE
8
BLACK
6
CONTINUOUS
10
125.64
20
-85.5133
11
125.961
21
-85.8336
0
LINE
8
BLACK
6
CONTINUOUS
10
125.961
20
-85.8336
11
126.212
21
-86.2103
0
LINE
8
BLACK
6
CONTINUOUS
10
126.212
20
-86.2103
11
126.386
21
-86.6289
0
LINE
8
BLACK
6
CONTINUOUS
10
126.386
20
-86.6289
11
126.474
21
-87.0733
0
LINE
8
BLACK
6
CONTINUOUS
10
126.474
20
-87.0733
11
126.474
21
-87.5263
0
LINE
8
BLACK
6
CONTINUOUS
10
126.474
20
-87.5263
11
126.386
21
-87.9707
0
LINE
8
BLACK
6
CONTINUOUS
10
126.386
20
-87.9707
11
126.212
21
-88.3893
0
LINE
8
BLACK
6
CONTINUOUS
10
126.212
20
-88.3893
11
125.961
21
-88.766
0
LINE
8
BLACK
6
CONTINUOUS
10
125.961
20
-88.766
11
125.64
21
-89.0863
0
LINE
8
BLACK
6
CONTINUOUS
10
125.64
20
-89.0863
11
125.263
21
-89.338
0
LINE
8
BLACK
6
CONTINUOUS
10
125.263
20
-89.338
11
124.845
21
-89.5114
0
LINE
8
BLACK
6
CONTINUOUS
10
124.845
20
-89.5114
11
124.401
21
-89.5998
0
LINE
8
BLACK
6
CONTINUOUS
10
124.401
20
-89.5998
11
123.947
21
-89.5998
0
LINE
8
BLACK
6
CONTINUOUS
10
123.947
20
-89.5998
11
123.503
21
-89.5114
0
LINE
8
BLACK
6
CONTINUOUS
10
123.503
20
-89.5114
11
123.085
21
-89.338
0
LINE
8
BLACK
6
CONTINUOUS
10
123.085
20
-89.338
11
122.708
21
-89.0863
0
LINE
8
BLACK
6
CONTINUOUS
10
122.708
20
-89.0863
11
122.387
21
-88.766
0
LINE
8
BLACK
6
CONTINUOUS
10
122.387
20
-88.766
11
122.136
21
-88.3893
0
LINE
8
BLACK
6
CONTINUOUS
10
122.136
20
-88.3893
11
121.962
21
-87.9707
0
LINE
8
BLACK
6
CONTINUOUS
10
121.962
20
-87.9707
11
121.874
21
-87.5263
0
LINE
8
BLACK
6
CONTINUOUS
10
121.874
20
-87.5263
11
121.874
21
-87.0733
0
LINE
8
BLACK
6
CONTINUOUS
10
121.874
20
-87.0733
11
121.962
21
-86.6289
0
LINE
8
BLACK
6
CONTINUOUS
10
121.962
20
-86.6289
11
122.136
21
-86.2103
0
LINE
8
BLACK
6
CONTINUOUS
10
122.136
20
-86.2103
11
122.387
21
-85.8336
0
LINE
8
BLACK
6
CONTINUOUS
10
122.387
20
-85.8336
11
122.708
21
-85.5133
0
LINE
8
BLACK
6
CONTINUOUS
10
122.708
20
-85.5133
11
123.085
21
-85.2616
0
LINE
8
BLACK
6
CONTINUOUS
10
123.085
20
-85.2616
11
123.503
21
-85.0882
0
LINE
8
BLACK
6
CONTINUOUS
10
123.503
20
-85.0882
11
123.947
21
-84.9998
0
LINE
8
BLACK
6
CONTINUOUS
10
123.947
20
-84.9998
11
124.401
21
-84.9998
0
LINE
8
BLACK
6
CONTINUOUS
10
124.401
20
-84.9998
11
124.845
21
-85.0882
0
LINE
8
BLACK
6
CONTINUOUS
10
99.4449
20
-85.0374
11
99.8635
21
-85.2108
0
LINE
8
BLACK
6
CONTINUOUS
10
99.8635
20
-85.2108
11
100.24
21
-85.4625
0
LINE
8
BLACK
6
CONTINUOUS
10
100.24
20
-85.4625
11
100.561
21
-85.7828
0
LINE
8
BLACK
6
CONTINUOUS
10
100.561
20
-85.7828
11
100.812
21
-86.1595
0
LINE
8
BLACK
6
CONTINUOUS
10
100.812
20
-86.1595
11
100.986
21
-86.5781
0
LINE
8
BLACK
6
CONTINUOUS
10
100.986
20
-86.5781
11
101.074
21
-87.0225
0
LINE
8
BLACK
6
CONTINUOUS
10
101.074
20
-87.0225
11
101.074
21
-87.4755
0
LINE
8
BLACK
6
CONTINUOUS
10
101.074
20
-87.4755
11
100.986
21
-87.9199
0
LINE
8
BLACK
6
CONTINUOUS
10
100.986
20
-87.9199
11
100.812
21
-88.3385
0
LINE
8
BLACK
6
CONTINUOUS
10
100.812
20
-88.3385
11
100.561
21
-88.7152
0
LINE
8
BLACK
6
CONTINUOUS
10
100.561
20
-88.7152
11
100.24
21
-89.0355
0
LINE
8
BLACK
6
CONTINUOUS
10
100.24
20
-89.0355
11
99.8635
21
-89.2872
0
LINE
8
BLACK
6
CONTINUOUS
10
99.8635
20
-89.2872
11
99.4449
21
-89.4606
0
LINE
8
BLACK
6
CONTINUOUS
10
99.4449
20
-89.4606
11
99.0005
21
-89.549
0
LINE
8
BLACK
6
CONTINUOUS
10
99.0005
20
-89.549
11
98.5475
21
-89.549
0
LINE
8
BLACK
6
CONTINUOUS
10
98.5475
20
-89.549
11
98.1031
21
-89.4606
0
LINE
8
BLACK
6
CONTINUOUS
10
98.1031
20
-89.4606
11
97.6845
21
-89.2872
0
LINE
8
BLACK
6
CONTINUOUS
10
97.6845
20
-89.2872
11
97.3078
21
-89.0355
0
LINE
8
BLACK
6
CONTINUOUS
10
97.3078
20
-89.0355
11
96.9875
21
-88.7152
0
LINE
8
BLACK
6
CONTINUOUS
10
96.9875
20
-88.7152
11
96.7358
21
-88.3385
0
LINE
8
BLACK
6
CONTINUOUS
10
96.7358
20
-88.3385
11
96.5624
21
-87.9199
0
LINE
8
BLACK
6
CONTINUOUS
10
96.5624
20
-87.9199
11
96.474
21
-87.4755
0
LINE
8
BLACK
6
CONTINUOUS
10
96.474
20
-87.4755
11
96.474
21
-87.0225
0
LINE
8
BLACK
6
CONTINUOUS
10
96.474
20
-87.0225
11
96.5624
21
-86.5781
0
LINE
8
BLACK
6
CONTINUOUS
10
96.5624
20
-86.5781
11
96.7358
21
-86.1595
0
LINE
8
BLACK
6
CONTINUOUS
10
96.7358
20
-86.1595
11
96.9875
21
-85.7828
0
LINE
8
BLACK
6
CONTINUOUS
10
96.9875
20
-85.7828
11
97.3078
21
-85.4625
0
LINE
8
BLACK
6
CONTINUOUS
10
97.3078
20
-85.4625
11
97.6845
21
-85.2108
0
LINE
8
BLACK
6
CONTINUOUS
10
97.6845
20
-85.2108
11
98.1031
21
-85.0374
0
LINE
8
BLACK
6
CONTINUOUS
10
98.1031
20
-85.0374
11
98.5475
21
-84.949
0
LINE
8
BLACK
6
CONTINUOUS
10
98.5475
20
-84.949
11
99.0005
21
-84.949
0
LINE
8
BLACK
6
CONTINUOUS
10
99.0005
20
-84.949
11
99.4449
21
-85.0374
0
LINE
8
BLACK
6
CONTINUOUS
10
112.145
20
-85.0374
11
112.563
21
-85.2108
0
LINE
8
BLACK
6
CONTINUOUS
10
112.563
20
-85.2108
11
112.94
21
-85.4625
0
LINE
8
BLACK
6
CONTINUOUS
10
112.94
20
-85.4625
11
113.261
21
-85.7828
0
LINE
8
BLACK
6
CONTINUOUS
10
113.261
20
-85.7828
11
113.512
21
-86.1595
0
LINE
8
BLACK
6
CONTINUOUS
10
113.512
20
-86.1595
11
113.686
21
-86.5781
0
LINE
8
BLACK
6
CONTINUOUS
10
113.686
20
-86.5781
11
113.774
21
-87.0225
0
LINE
8
BLACK
6
CONTINUOUS
10
113.774
20
-87.0225
11
113.774
21
-87.4755
0
LINE
8
BLACK
6
CONTINUOUS
10
113.774
20
-87.4755
11
113.686
21
-87.9199
0
LINE
8
BLACK
6
CONTINUOUS
10
113.686
20
-87.9199
11
113.512
21
-88.3385
0
LINE
8
BLACK
6
CONTINUOUS
10
113.512
20
-88.3385
11
113.261
21
-88.7152
0
LINE
8
BLACK
6
CONTINUOUS
10
113.261
20
-88.7152
11
112.94
21
-89.0355
0
LINE
8
BLACK
6
CONTINUOUS
10
112.94
20
-89.0355
11
112.563
21
-89.2872
0
LINE
8
BLACK
6
CONTINUOUS
10
112.563
20
-89.2872
11
112.145
21
-89.4606
0
LINE
8
BLACK
6
CONTINUOUS
10
112.145
20
-89.4606
11
111.701
21
-89.549
0
LINE
8
BLACK
6
CONTINUOUS
10
111.701
20
-89.549
11
111.247
21
-89.549
0
LINE
8
BLACK
6
CONTINUOUS
10
111.247
20
-89.549
11
110.803
21
-89.4606
0
LINE
8
BLACK
6
CONTINUOUS
10
110.803
20
-89.4606
11
110.385
21
-89.2872
0
LINE
8
BLACK
6
CONTINUOUS
10
110.385
20
-89.2872
11
110.008
21
-89.0355
0
LINE
8
BLACK
6
CONTINUOUS
10
110.008
20
-89.0355
11
109.687
21
-88.7152
0
LINE
8
BLACK
6
CONTINUOUS
10
109.687
20
-88.7152
11
109.436
21
-88.3385
0
LINE
8
BLACK
6
CONTINUOUS
10
109.436
20
-88.3385
11
109.262
21
-87.9199
0
LINE
8
BLACK
6
CONTINUOUS
10
109.262
20
-87.9199
11
109.174
21
-87.4755
0
LINE
8
BLACK
6
CONTINUOUS
10
109.174
20
-87.4755
11
109.174
21
-87.0225
0
LINE
8
BLACK
6
CONTINUOUS
10
109.174
20
-87.0225
11
109.262
21
-86.5781
0
LINE
8
BLACK
6
CONTINUOUS
10
109.262
20
-86.5781
11
109.436
21
-86.1595
0
LINE
8
BLACK
6
CONTINUOUS
10
109.436
20
-86.1595
11
109.687
21
-85.7828
0
LINE
8
BLACK
6
CONTINUOUS
10
109.687
20
-85.7828
11
110.008
21
-85.4625
0
LINE
8
BLACK
6
CONTINUOUS
10
110.008
20
-85.4625
11
110.385
21
-85.2108
0
LINE
8
BLACK
6
CONTINUOUS
10
110.385
20
-85.2108
11
110.803
21
-85.0374
0
LINE
8
BLACK
6
CONTINUOUS
10
110.803
20
-85.0374
11
111.247
21
-84.949
0
LINE
8
BLACK
6
CONTINUOUS
10
111.247
20
-84.949
11
111.701
21
-84.949
0
LINE
8
BLACK
6
CONTINUOUS
10
111.701
20
-84.949
11
112.145
21
-85.0374
0
LINE
8
BLACK
6
CONTINUOUS
10
118.745
20
-73.6608
11
118.745
21
-73.6608
0
LINE
8
BLACK
6
CONTINUOUS
10
118.745
20
-73.6608
11
118.745
21
-73.6608
0
LINE
8
BLACK
6
CONTINUOUS
10
118.745
20
-73.6608
11
118.746
21
-73.6608
0
LINE
8
BLACK
6
CONTINUOUS
10
118.746
20
-73.6608
11
118.75
21
-73.6613
0
LINE
8
BLACK
6
CONTINUOUS
10
118.75
20
-73.6613
11
118.755
21
-73.6618
0
LINE
8
BLACK
6
CONTINUOUS
10
118.755
20
-73.6618
11
118.755
21
-73.6619
0
LINE
8
BLACK
6
CONTINUOUS
10
118.755
20
-73.6619
11
118.755
21
-73.6619
0
LINE
8
BLACK
6
CONTINUOUS
10
118.755
20
-73.6619
11
118.76
21
-73.6633
0
LINE
8
BLACK
6
CONTINUOUS
10
118.76
20
-73.6633
11
118.764
21
-73.6647
0
LINE
8
BLACK
6
CONTINUOUS
10
118.764
20
-73.6647
11
118.765
21
-73.6648
0
LINE
8
BLACK
6
CONTINUOUS
10
118.765
20
-73.6648
11
118.765
21
-73.6648
0
LINE
8
BLACK
6
CONTINUOUS
10
118.765
20
-73.6648
11
118.769
21
-73.6671
0
LINE
8
BLACK
6
CONTINUOUS
10
118.769
20
-73.6671
11
118.773
21
-73.6693
0
LINE
8
BLACK
6
CONTINUOUS
10
118.773
20
-73.6693
11
118.773
21
-73.6695
0
LINE
8
BLACK
6
CONTINUOUS
10
118.773
20
-73.6695
11
118.773
21
-73.6695
0
LINE
8
BLACK
6
CONTINUOUS
10
118.773
20
-73.6695
11
118.777
21
-73.6725
0
LINE
8
BLACK
6
CONTINUOUS
10
118.777
20
-73.6725
11
118.78
21
-73.6756
0
LINE
8
BLACK
6
CONTINUOUS
10
118.78
20
-73.6756
11
118.781
21
-73.6757
0
LINE
8
BLACK
6
CONTINUOUS
10
118.781
20
-73.6757
11
118.781
21
-73.6758
0
LINE
8
BLACK
6
CONTINUOUS
10
118.781
20
-73.6758
11
118.784
21
-73.6794
0
LINE
8
BLACK
6
CONTINUOUS
10
118.784
20
-73.6794
11
118.787
21
-73.6831
0
LINE
8
BLACK
6
CONTINUOUS
10
118.787
20
-73.6831
11
118.787
21
-73.6833
0
LINE
8
BLACK
6
CONTINUOUS
10
118.787
20
-73.6833
11
118.787
21
-73.6834
0
LINE
8
BLACK
6
CONTINUOUS
10
118.787
20
-73.6834
11
118.789
21
-73.6875
0
LINE
8
BLACK
6
CONTINUOUS
10
118.789
20
-73.6875
11
118.791
21
-73.6917
0
LINE
8
BLACK
6
CONTINUOUS
10
118.791
20
-73.6917
11
118.791
21
-73.6919
0
LINE
8
BLACK
6
CONTINUOUS
10
118.791
20
-73.6919
11
118.791
21
-73.6921
0
LINE
8
BLACK
6
CONTINUOUS
10
118.791
20
-73.6921
11
118.793
21
-73.6965
0
LINE
8
BLACK
6
CONTINUOUS
10
118.793
20
-73.6965
11
118.794
21
-73.7011
0
LINE
8
BLACK
6
CONTINUOUS
10
118.794
20
-73.7011
11
118.794
21
-73.7013
0
LINE
8
BLACK
6
CONTINUOUS
10
118.794
20
-73.7013
11
118.794
21
-73.7014
0
LINE
8
BLACK
6
CONTINUOUS
10
118.794
20
-73.7014
11
118.795
21
-73.7061
0
LINE
8
BLACK
6
CONTINUOUS
10
118.795
20
-73.7061
11
118.795
21
-73.7108
0
LINE
8
BLACK
6
CONTINUOUS
10
118.795
20
-73.7108
11
118.795
21
-74.3458
0
LINE
8
BLACK
6
CONTINUOUS
10
118.795
20
-74.3458
11
118.795
21
-74.3461
0
LINE
8
BLACK
6
CONTINUOUS
10
118.795
20
-74.3461
11
118.795
21
-74.3461
0
LINE
8
BLACK
6
CONTINUOUS
10
118.795
20
-74.3461
11
118.795
21
-74.3462
0
LINE
8
BLACK
6
CONTINUOUS
10
118.795
20
-74.3462
11
118.795
21
-74.3465
0
LINE
8
BLACK
6
CONTINUOUS
10
118.795
20
-74.3465
11
118.794
21
-74.3511
0
LINE
8
BLACK
6
CONTINUOUS
10
118.794
20
-74.3511
11
118.794
21
-74.3559
0
LINE
8
BLACK
6
CONTINUOUS
10
118.794
20
-74.3559
11
118.794
21
-74.356
0
LINE
8
BLACK
6
CONTINUOUS
10
118.794
20
-74.356
11
118.794
21
-74.3562
0
LINE
8
BLACK
6
CONTINUOUS
10
118.794
20
-74.3562
11
118.792
21
-74.3607
0
LINE
8
BLACK
6
CONTINUOUS
10
118.792
20
-74.3607
11
118.791
21
-74.3652
0
LINE
8
BLACK
6
CONTINUOUS
10
118.791
20
-74.3652
11
118.791
21
-74.3653
0
LINE
8
BLACK
6
CONTINUOUS
10
118.791
20
-74.3653
11
118.791
21
-74.3655
0
LINE
8
BLACK
6
CONTINUOUS
10
118.791
20
-74.3655
11
118.789
21
-74.3696
0
LINE
8
BLACK
6
CONTINUOUS
10
118.789
20
-74.3696
11
118.786
21
-74.3738
0
LINE
8
BLACK
6
CONTINUOUS
10
118.786
20
-74.3738
11
118.786
21
-74.3739
0
LINE
8
BLACK
6
CONTINUOUS
10
118.786
20
-74.3739
11
118.786
21
-74.374
0
LINE
8
BLACK
6
CONTINUOUS
10
118.786
20
-74.374
11
118.783
21
-74.3776
0
LINE
8
BLACK
6
CONTINUOUS
10
118.783
20
-74.3776
11
118.78
21
-74.3813
0
LINE
8
BLACK
6
CONTINUOUS
10
118.78
20
-74.3813
11
118.78
21
-74.3814
0
LINE
8
BLACK
6
CONTINUOUS
10
118.78
20
-74.3814
11
118.78
21
-74.3815
0
LINE
8
BLACK
6
CONTINUOUS
10
118.78
20
-74.3815
11
118.776
21
-74.3844
0
LINE
8
BLACK
6
CONTINUOUS
10
118.776
20
-74.3844
11
118.773
21
-74.3874
0
LINE
8
BLACK
6
CONTINUOUS
10
118.773
20
-74.3874
11
118.773
21
-74.3875
0
LINE
8
BLACK
6
CONTINUOUS
10
118.773
20
-74.3875
11
118.772
21
-74.3876
0
LINE
8
BLACK
6
CONTINUOUS
10
118.772
20
-74.3876
11
118.768
21
-74.3898
0
LINE
8
BLACK
6
CONTINUOUS
10
118.768
20
-74.3898
11
118.764
21
-74.392
0
LINE
8
BLACK
6
CONTINUOUS
10
118.764
20
-74.392
11
118.764
21
-74.3921
0
LINE
8
BLACK
6
CONTINUOUS
10
118.764
20
-74.3921
11
118.764
21
-74.3922
0
LINE
8
BLACK
6
CONTINUOUS
10
118.764
20
-74.3922
11
118.759
21
-74.3935
0
LINE
8
BLACK
6
CONTINUOUS
10
118.759
20
-74.3935
11
118.755
21
-74.3948
0
LINE
8
BLACK
6
CONTINUOUS
10
118.755
20
-74.3948
11
118.755
21
-74.3949
0
LINE
8
BLACK
6
CONTINUOUS
10
118.755
20
-74.3949
11
118.754
21
-74.3949
0
LINE
8
BLACK
6
CONTINUOUS
10
118.754
20
-74.3949
11
118.75
21
-74.3953
0
LINE
8
BLACK
6
CONTINUOUS
10
118.75
20
-74.3953
11
118.745
21
-74.3958
0
LINE
8
BLACK
6
CONTINUOUS
10
118.745
20
-74.3958
11
118.11
21
-74.3958
0
LINE
8
BLACK
6
CONTINUOUS
10
118.11
20
-74.3958
11
118.11
21
-74.3958
0
LINE
8
BLACK
6
CONTINUOUS
10
118.11
20
-74.3958
11
118.11
21
-74.3958
0
LINE
8
BLACK
6
CONTINUOUS
10
118.11
20
-74.3958
11
118.11
21
-74.3958
0
LINE
8
BLACK
6
CONTINUOUS
10
118.11
20
-74.3958
11
118.109
21
-74.3958
0
LINE
8
BLACK
6
CONTINUOUS
10
118.109
20
-74.3958
11
118.105
21
-74.3953
0
LINE
8
BLACK
6
CONTINUOUS
10
118.105
20
-74.3953
11
118.1
21
-74.3948
0
LINE
8
BLACK
6
CONTINUOUS
10
118.1
20
-74.3948
11
118.1
21
-74.3947
0
LINE
8
BLACK
6
CONTINUOUS
10
118.1
20
-74.3947
11
118.1
21
-74.3947
0
LINE
8
BLACK
6
CONTINUOUS
10
118.1
20
-74.3947
11
118.095
21
-74.3933
0
LINE
8
BLACK
6
CONTINUOUS
10
118.095
20
-74.3933
11
118.091
21
-74.3919
0
LINE
8
BLACK
6
CONTINUOUS
10
118.091
20
-74.3919
11
118.09
21
-74.3918
0
LINE
8
BLACK
6
CONTINUOUS
10
118.09
20
-74.3918
11
118.09
21
-74.3918
0
LINE
8
BLACK
6
CONTINUOUS
10
118.09
20
-74.3918
11
118.086
21
-74.3895
0
LINE
8
BLACK
6
CONTINUOUS
10
118.086
20
-74.3895
11
118.082
21
-74.3873
0
LINE
8
BLACK
6
CONTINUOUS
10
118.082
20
-74.3873
11
118.082
21
-74.3871
0
LINE
8
BLACK
6
CONTINUOUS
10
118.082
20
-74.3871
11
118.082
21
-74.3871
0
LINE
8
BLACK
6
CONTINUOUS
10
118.082
20
-74.3871
11
118.078
21
-74.3841
0
LINE
8
BLACK
6
CONTINUOUS
10
118.078
20
-74.3841
11
118.075
21
-74.381
0
LINE
8
BLACK
6
CONTINUOUS
10
118.075
20
-74.381
11
118.074
21
-74.3809
0
LINE
8
BLACK
6
CONTINUOUS
10
118.074
20
-74.3809
11
118.074
21
-74.3808
0
LINE
8
BLACK
6
CONTINUOUS
10
118.074
20
-74.3808
11
118.071
21
-74.3772
0
LINE
8
BLACK
6
CONTINUOUS
10
118.071
20
-74.3772
11
118.068
21
-74.3735
0
LINE
8
BLACK
6
CONTINUOUS
10
118.068
20
-74.3735
11
118.068
21
-74.3733
0
LINE
8
BLACK
6
CONTINUOUS
10
118.068
20
-74.3733
11
118.068
21
-74.3732
0
LINE
8
BLACK
6
CONTINUOUS
10
118.068
20
-74.3732
11
118.066
21
-74.3691
0
LINE
8
BLACK
6
CONTINUOUS
10
118.066
20
-74.3691
11
118.064
21
-74.3649
0
LINE
8
BLACK
6
CONTINUOUS
10
118.064
20
-74.3649
11
118.064
21
-74.3647
0
LINE
8
BLACK
6
CONTINUOUS
10
118.064
20
-74.3647
11
118.064
21
-74.3645
0
LINE
8
BLACK
6
CONTINUOUS
10
118.064
20
-74.3645
11
118.062
21
-74.3601
0
LINE
8
BLACK
6
CONTINUOUS
10
118.062
20
-74.3601
11
118.061
21
-74.3555
0
LINE
8
BLACK
6
CONTINUOUS
10
118.061
20
-74.3555
11
118.061
21
-74.3553
0
LINE
8
BLACK
6
CONTINUOUS
10
118.061
20
-74.3553
11
118.061
21
-74.3552
0
LINE
8
BLACK
6
CONTINUOUS
10
118.061
20
-74.3552
11
118.06
21
-74.3505
0
LINE
8
BLACK
6
CONTINUOUS
10
118.06
20
-74.3505
11
118.06
21
-74.3458
0
LINE
8
BLACK
6
CONTINUOUS
10
118.06
20
-74.3458
11
118.06
21
-73.7108
0
LINE
8
BLACK
6
CONTINUOUS
10
118.06
20
-73.7108
11
118.06
21
-73.7105
0
LINE
8
BLACK
6
CONTINUOUS
10
118.06
20
-73.7105
11
118.06
21
-73.7105
0
LINE
8
BLACK
6
CONTINUOUS
10
118.06
20
-73.7105
11
118.06
21
-73.7104
0
LINE
8
BLACK
6
CONTINUOUS
10
118.06
20
-73.7104
11
118.06
21
-73.7101
0
LINE
8
BLACK
6
CONTINUOUS
10
118.06
20
-73.7101
11
118.061
21
-73.7055
0
LINE
8
BLACK
6
CONTINUOUS
10
118.061
20
-73.7055
11
118.061
21
-73.7007
0
LINE
8
BLACK
6
CONTINUOUS
10
118.061
20
-73.7007
11
118.061
21
-73.7006
0
LINE
8
BLACK
6
CONTINUOUS
10
118.061
20
-73.7006
11
118.061
21
-73.7004
0
LINE
8
BLACK
6
CONTINUOUS
10
118.061
20
-73.7004
11
118.063
21
-73.6959
0
LINE
8
BLACK
6
CONTINUOUS
10
118.063
20
-73.6959
11
118.064
21
-73.6914
0
LINE
8
BLACK
6
CONTINUOUS
10
118.064
20
-73.6914
11
118.064
21
-73.6913
0
LINE
8
BLACK
6
CONTINUOUS
10
118.064
20
-73.6913
11
118.064
21
-73.6911
0
LINE
8
BLACK
6
CONTINUOUS
10
118.064
20
-73.6911
11
118.066
21
-73.687
0
LINE
8
BLACK
6
CONTINUOUS
10
118.066
20
-73.687
11
118.069
21
-73.6828
0
LINE
8
BLACK
6
CONTINUOUS
10
118.069
20
-73.6828
11
118.069
21
-73.6827
0
LINE
8
BLACK
6
CONTINUOUS
10
118.069
20
-73.6827
11
118.069
21
-73.6826
0
LINE
8
BLACK
6
CONTINUOUS
10
118.069
20
-73.6826
11
118.072
21
-73.679
0
LINE
8
BLACK
6
CONTINUOUS
10
118.072
20
-73.679
11
118.075
21
-73.6753
0
LINE
8
BLACK
6
CONTINUOUS
10
118.075
20
-73.6753
11
118.075
21
-73.6752
0
LINE
8
BLACK
6
CONTINUOUS
10
118.075
20
-73.6752
11
118.075
21
-73.6751
0
LINE
8
BLACK
6
CONTINUOUS
10
118.075
20
-73.6751
11
118.079
21
-73.6722
0
LINE
8
BLACK
6
CONTINUOUS
10
118.079
20
-73.6722
11
118.082
21
-73.6692
0
LINE
8
BLACK
6
CONTINUOUS
10
118.082
20
-73.6692
11
118.082
21
-73.6691
0
LINE
8
BLACK
6
CONTINUOUS
10
118.082
20
-73.6691
11
118.083
21
-73.669
0
LINE
8
BLACK
6
CONTINUOUS
10
118.083
20
-73.669
11
118.087
21
-73.6668
0
LINE
8
BLACK
6
CONTINUOUS
10
118.087
20
-73.6668
11
118.091
21
-73.6646
0
LINE
8
BLACK
6
CONTINUOUS
10
118.091
20
-73.6646
11
118.091
21
-73.6645
0
LINE
8
BLACK
6
CONTINUOUS
10
118.091
20
-73.6645
11
118.091
21
-73.6644
0
LINE
8
BLACK
6
CONTINUOUS
10
118.091
20
-73.6644
11
118.096
21
-73.6631
0
LINE
8
BLACK
6
CONTINUOUS
10
118.096
20
-73.6631
11
118.1
21
-73.6618
0
LINE
8
BLACK
6
CONTINUOUS
10
118.1
20
-73.6618
11
118.1
21
-73.6617
0
LINE
8
BLACK
6
CONTINUOUS
10
118.1
20
-73.6617
11
118.101
21
-73.6617
0
LINE
8
BLACK
6
CONTINUOUS
10
118.101
20
-73.6617
11
118.105
21
-73.6613
0
LINE
8
BLACK
6
CONTINUOUS
10
118.105
20
-73.6613
11
118.11
21
-73.6608
0
LINE
8
BLACK
6
CONTINUOUS
10
118.11
20
-73.6608
11
118.745
21
-73.6608
0
LINE
8
BLACK
6
CONTINUOUS
10
118.745
20
-73.6608
11
118.745
21
-73.6608
0
LINE
8
BLACK
6
CONTINUOUS
10
122.555
20
-73.6608
11
122.555
21
-73.6608
0
LINE
8
BLACK
6
CONTINUOUS
10
122.555
20
-73.6608
11
122.555
21
-73.6608
0
LINE
8
BLACK
6
CONTINUOUS
10
122.555
20
-73.6608
11
122.556
21
-73.6608
0
LINE
8
BLACK
6
CONTINUOUS
10
122.556
20
-73.6608
11
122.56
21
-73.6613
0
LINE
8
BLACK
6
CONTINUOUS
10
122.56
20
-73.6613
11
122.565
21
-73.6618
0
LINE
8
BLACK
6
CONTINUOUS
10
122.565
20
-73.6618
11
122.565
21
-73.6619
0
LINE
8
BLACK
6
CONTINUOUS
10
122.565
20
-73.6619
11
122.565
21
-73.6619
0
LINE
8
BLACK
6
CONTINUOUS
10
122.565
20
-73.6619
11
122.57
21
-73.6633
0
LINE
8
BLACK
6
CONTINUOUS
10
122.57
20
-73.6633
11
122.574
21
-73.6647
0
LINE
8
BLACK
6
CONTINUOUS
10
122.574
20
-73.6647
11
122.575
21
-73.6648
0
LINE
8
BLACK
6
CONTINUOUS
10
122.575
20
-73.6648
11
122.575
21
-73.6648
0
LINE
8
BLACK
6
CONTINUOUS
10
122.575
20
-73.6648
11
122.579
21
-73.6671
0
LINE
8
BLACK
6
CONTINUOUS
10
122.579
20
-73.6671
11
122.583
21
-73.6693
0
LINE
8
BLACK
6
CONTINUOUS
10
122.583
20
-73.6693
11
122.583
21
-73.6695
0
LINE
8
BLACK
6
CONTINUOUS
10
122.583
20
-73.6695
11
122.583
21
-73.6695
0
LINE
8
BLACK
6
CONTINUOUS
10
122.583
20
-73.6695
11
122.587
21
-73.6725
0
LINE
8
BLACK
6
CONTINUOUS
10
122.587
20
-73.6725
11
122.59
21
-73.6756
0
LINE
8
BLACK
6
CONTINUOUS
10
122.59
20
-73.6756
11
122.591
21
-73.6757
0
LINE
8
BLACK
6
CONTINUOUS
10
122.591
20
-73.6757
11
122.591
21
-73.6758
0
LINE
8
BLACK
6
CONTINUOUS
10
122.591
20
-73.6758
11
122.594
21
-73.6794
0
LINE
8
BLACK
6
CONTINUOUS
10
122.594
20
-73.6794
11
122.597
21
-73.6831
0
LINE
8
BLACK
6
CONTINUOUS
10
122.597
20
-73.6831
11
122.597
21
-73.6833
0
LINE
8
BLACK
6
CONTINUOUS
10
122.597
20
-73.6833
11
122.597
21
-73.6834
0
LINE
8
BLACK
6
CONTINUOUS
10
122.597
20
-73.6834
11
122.599
21
-73.6875
0
LINE
8
BLACK
6
CONTINUOUS
10
122.599
20
-73.6875
11
122.601
21
-73.6917
0
LINE
8
BLACK
6
CONTINUOUS
10
122.601
20
-73.6917
11
122.601
21
-73.6919
0
LINE
8
BLACK
6
CONTINUOUS
10
122.601
20
-73.6919
11
122.601
21
-73.6921
0
LINE
8
BLACK
6
CONTINUOUS
10
122.601
20
-73.6921
11
122.603
21
-73.6965
0
LINE
8
BLACK
6
CONTINUOUS
10
122.603
20
-73.6965
11
122.604
21
-73.7011
0
LINE
8
BLACK
6
CONTINUOUS
10
122.604
20
-73.7011
11
122.604
21
-73.7013
0
LINE
8
BLACK
6
CONTINUOUS
10
122.604
20
-73.7013
11
122.604
21
-73.7014
0
LINE
8
BLACK
6
CONTINUOUS
10
122.604
20
-73.7014
11
122.605
21
-73.7061
0
LINE
8
BLACK
6
CONTINUOUS
10
122.605
20
-73.7061
11
122.605
21
-73.7108
0
LINE
8
BLACK
6
CONTINUOUS
10
122.605
20
-73.7108
11
122.605
21
-74.3458
0
LINE
8
BLACK
6
CONTINUOUS
10
122.605
20
-74.3458
11
122.605
21
-74.3461
0
LINE
8
BLACK
6
CONTINUOUS
10
122.605
20
-74.3461
11
122.605
21
-74.3461
0
LINE
8
BLACK
6
CONTINUOUS
10
122.605
20
-74.3461
11
122.605
21
-74.3462
0
LINE
8
BLACK
6
CONTINUOUS
10
122.605
20
-74.3462
11
122.605
21
-74.3465
0
LINE
8
BLACK
6
CONTINUOUS
10
122.605
20
-74.3465
11
122.604
21
-74.3511
0
LINE
8
BLACK
6
CONTINUOUS
10
122.604
20
-74.3511
11
122.604
21
-74.3559
0
LINE
8
BLACK
6
CONTINUOUS
10
122.604
20
-74.3559
11
122.604
21
-74.356
0
LINE
8
BLACK
6
CONTINUOUS
10
122.604
20
-74.356
11
122.604
21
-74.3562
0
LINE
8
BLACK
6
CONTINUOUS
10
122.604
20
-74.3562
11
122.602
21
-74.3607
0
LINE
8
BLACK
6
CONTINUOUS
10
122.602
20
-74.3607
11
122.601
21
-74.3652
0
LINE
8
BLACK
6
CONTINUOUS
10
122.601
20
-74.3652
11
122.601
21
-74.3653
0
LINE
8
BLACK
6
CONTINUOUS
10
122.601
20
-74.3653
11
122.601
21
-74.3655
0
LINE
8
BLACK
6
CONTINUOUS
10
122.601
20
-74.3655
11
122.599
21
-74.3696
0
LINE
8
BLACK
6
CONTINUOUS
10
122.599
20
-74.3696
11
122.596
21
-74.3738
0
LINE
8
BLACK
6
CONTINUOUS
10
122.596
20
-74.3738
11
122.596
21
-74.3739
0
LINE
8
BLACK
6
CONTINUOUS
10
122.596
20
-74.3739
11
122.596
21
-74.374
0
LINE
8
BLACK
6
CONTINUOUS
10
122.596
20
-74.374
11
122.593
21
-74.3776
0
LINE
8
BLACK
6
CONTINUOUS
10
122.593
20
-74.3776
11
122.59
21
-74.3813
0
LINE
8
BLACK
6
CONTINUOUS
10
122.59
20
-74.3813
11
122.59
21
-74.3814
0
LINE
8
BLACK
6
CONTINUOUS
10
122.59
20
-74.3814
11
122.59
21
-74.3815
0
LINE
8
BLACK
6
CONTINUOUS
10
122.59
20
-74.3815
11
122.586
21
-74.3844
0
LINE
8
BLACK
6
CONTINUOUS
10
122.586
20
-74.3844
11
122.583
21
-74.3874
0
LINE
8
BLACK
6
CONTINUOUS
10
122.583
20
-74.3874
11
122.583
21
-74.3875
0
LINE
8
BLACK
6
CONTINUOUS
10
122.583
20
-74.3875
11
122.582
21
-74.3876
0
LINE
8
BLACK
6
CONTINUOUS
10
122.582
20
-74.3876
11
122.578
21
-74.3898
0
LINE
8
BLACK
6
CONTINUOUS
10
122.578
20
-74.3898
11
122.574
21
-74.392
0
LINE
8
BLACK
6
CONTINUOUS
10
122.574
20
-74.392
11
122.574
21
-74.3921
0
LINE
8
BLACK
6
CONTINUOUS
10
122.574
20
-74.3921
11
122.574
21
-74.3922
0
LINE
8
BLACK
6
CONTINUOUS
10
122.574
20
-74.3922
11
122.569
21
-74.3935
0
LINE
8
BLACK
6
CONTINUOUS
10
122.569
20
-74.3935
11
122.565
21
-74.3948
0
LINE
8
BLACK
6
CONTINUOUS
10
122.565
20
-74.3948
11
122.565
21
-74.3949
0
LINE
8
BLACK
6
CONTINUOUS
10
122.565
20
-74.3949
11
122.564
21
-74.3949
0
LINE
8
BLACK
6
CONTINUOUS
10
122.564
20
-74.3949
11
122.56
21
-74.3953
0
LINE
8
BLACK
6
CONTINUOUS
10
122.56
20
-74.3953
11
122.555
21
-74.3958
0
LINE
8
BLACK
6
CONTINUOUS
10
122.555
20
-74.3958
11
121.92
21
-74.3958
0
LINE
8
BLACK
6
CONTINUOUS
10
121.92
20
-74.3958
11
121.92
21
-74.3958
0
LINE
8
BLACK
6
CONTINUOUS
10
121.92
20
-74.3958
11
121.92
21
-74.3958
0
LINE
8
BLACK
6
CONTINUOUS
10
121.92
20
-74.3958
11
121.92
21
-74.3958
0
LINE
8
BLACK
6
CONTINUOUS
10
121.92
20
-74.3958
11
121.919
21
-74.3958
0
LINE
8
BLACK
6
CONTINUOUS
10
121.919
20
-74.3958
11
121.915
21
-74.3953
0
LINE
8
BLACK
6
CONTINUOUS
10
121.915
20
-74.3953
11
121.91
21
-74.3948
0
LINE
8
BLACK
6
CONTINUOUS
10
121.91
20
-74.3948
11
121.91
21
-74.3947
0
LINE
8
BLACK
6
CONTINUOUS
10
121.91
20
-74.3947
11
121.91
21
-74.3947
0
LINE
8
BLACK
6
CONTINUOUS
10
121.91
20
-74.3947
11
121.905
21
-74.3933
0
LINE
8
BLACK
6
CONTINUOUS
10
121.905
20
-74.3933
11
121.901
21
-74.3919
0
LINE
8
BLACK
6
CONTINUOUS
10
121.901
20
-74.3919
11
121.9
21
-74.3918
0
LINE
8
BLACK
6
CONTINUOUS
10
121.9
20
-74.3918
11
121.9
21
-74.3918
0
LINE
8
BLACK
6
CONTINUOUS
10
121.9
20
-74.3918
11
121.896
21
-74.3895
0
LINE
8
BLACK
6
CONTINUOUS
10
121.896
20
-74.3895
11
121.892
21
-74.3873
0
LINE
8
BLACK
6
CONTINUOUS
10
121.892
20
-74.3873
11
121.892
21
-74.3871
0
LINE
8
BLACK
6
CONTINUOUS
10
121.892
20
-74.3871
11
121.892
21
-74.3871
0
LINE
8
BLACK
6
CONTINUOUS
10
121.892
20
-74.3871
11
121.888
21
-74.3841
0
LINE
8
BLACK
6
CONTINUOUS
10
121.888
20
-74.3841
11
121.885
21
-74.381
0
LINE
8
BLACK
6
CONTINUOUS
10
121.885
20
-74.381
11
121.884
21
-74.3809
0
LINE
8
BLACK
6
CONTINUOUS
10
121.884
20
-74.3809
11
121.884
21
-74.3808
0
LINE
8
BLACK
6
CONTINUOUS
10
121.884
20
-74.3808
11
121.881
21
-74.3772
0
LINE
8
BLACK
6
CONTINUOUS
10
121.881
20
-74.3772
11
121.878
21
-74.3735
0
LINE
8
BLACK
6
CONTINUOUS
10
121.878
20
-74.3735
11
121.878
21
-74.3733
0
LINE
8
BLACK
6
CONTINUOUS
10
121.878
20
-74.3733
11
121.878
21
-74.3732
0
LINE
8
BLACK
6
CONTINUOUS
10
121.878
20
-74.3732
11
121.876
21
-74.3691
0
LINE
8
BLACK
6
CONTINUOUS
10
121.876
20
-74.3691
11
121.874
21
-74.3649
0
LINE
8
BLACK
6
CONTINUOUS
10
121.874
20
-74.3649
11
121.874
21
-74.3647
0
LINE
8
BLACK
6
CONTINUOUS
10
121.874
20
-74.3647
11
121.874
21
-74.3645
0
LINE
8
BLACK
6
CONTINUOUS
10
121.874
20
-74.3645
11
121.872
21
-74.3601
0
LINE
8
BLACK
6
CONTINUOUS
10
121.872
20
-74.3601
11
121.871
21
-74.3555
0
LINE
8
BLACK
6
CONTINUOUS
10
121.871
20
-74.3555
11
121.871
21
-74.3553
0
LINE
8
BLACK
6
CONTINUOUS
10
121.871
20
-74.3553
11
121.871
21
-74.3552
0
LINE
8
BLACK
6
CONTINUOUS
10
121.871
20
-74.3552
11
121.87
21
-74.3505
0
LINE
8
BLACK
6
CONTINUOUS
10
121.87
20
-74.3505
11
121.87
21
-74.3458
0
LINE
8
BLACK
6
CONTINUOUS
10
121.87
20
-74.3458
11
121.87
21
-73.7108
0
LINE
8
BLACK
6
CONTINUOUS
10
121.87
20
-73.7108
11
121.87
21
-73.7105
0
LINE
8
BLACK
6
CONTINUOUS
10
121.87
20
-73.7105
11
121.87
21
-73.7105
0
LINE
8
BLACK
6
CONTINUOUS
10
121.87
20
-73.7105
11
121.87
21
-73.7104
0
LINE
8
BLACK
6
CONTINUOUS
10
121.87
20
-73.7104
11
121.87
21
-73.7101
0
LINE
8
BLACK
6
CONTINUOUS
10
121.87
20
-73.7101
11
121.871
21
-73.7055
0
LINE
8
BLACK
6
CONTINUOUS
10
121.871
20
-73.7055
11
121.871
21
-73.7007
0
LINE
8
BLACK
6
CONTINUOUS
10
121.871
20
-73.7007
11
121.871
21
-73.7006
0
LINE
8
BLACK
6
CONTINUOUS
10
121.871
20
-73.7006
11
121.871
21
-73.7004
0
LINE
8
BLACK
6
CONTINUOUS
10
121.871
20
-73.7004
11
121.873
21
-73.6959
0
LINE
8
BLACK
6
CONTINUOUS
10
121.873
20
-73.6959
11
121.874
21
-73.6914
0
LINE
8
BLACK
6
CONTINUOUS
10
121.874
20
-73.6914
11
121.874
21
-73.6913
0
LINE
8
BLACK
6
CONTINUOUS
10
121.874
20
-73.6913
11
121.874
21
-73.6911
0
LINE
8
BLACK
6
CONTINUOUS
10
121.874
20
-73.6911
11
121.876
21
-73.687
0
LINE
8
BLACK
6
CONTINUOUS
10
121.876
20
-73.687
11
121.879
21
-73.6828
0
LINE
8
BLACK
6
CONTINUOUS
10
121.879
20
-73.6828
11
121.879
21
-73.6827
0
LINE
8
BLACK
6
CONTINUOUS
10
121.879
20
-73.6827
11
121.879
21
-73.6826
0
LINE
8
BLACK
6
CONTINUOUS
10
121.879
20
-73.6826
11
121.882
21
-73.679
0
LINE
8
BLACK
6
CONTINUOUS
10
121.882
20
-73.679
11
121.885
21
-73.6753
0
LINE
8
BLACK
6
CONTINUOUS
10
121.885
20
-73.6753
11
121.885
21
-73.6752
0
LINE
8
BLACK
6
CONTINUOUS
10
121.885
20
-73.6752
11
121.885
21
-73.6751
0
LINE
8
BLACK
6
CONTINUOUS
10
121.885
20
-73.6751
11
121.889
21
-73.6722
0
LINE
8
BLACK
6
CONTINUOUS
10
121.889
20
-73.6722
11
121.892
21
-73.6692
0
LINE
8
BLACK
6
CONTINUOUS
10
121.892
20
-73.6692
11
121.892
21
-73.6691
0
LINE
8
BLACK
6
CONTINUOUS
10
121.892
20
-73.6691
11
121.893
21
-73.669
0
LINE
8
BLACK
6
CONTINUOUS
10
121.893
20
-73.669
11
121.897
21
-73.6668
0
LINE
8
BLACK
6
CONTINUOUS
10
121.897
20
-73.6668
11
121.901
21
-73.6646
0
LINE
8
BLACK
6
CONTINUOUS
10
121.901
20
-73.6646
11
121.901
21
-73.6645
0
LINE
8
BLACK
6
CONTINUOUS
10
121.901
20
-73.6645
11
121.901
21
-73.6644
0
LINE
8
BLACK
6
CONTINUOUS
10
121.901
20
-73.6644
11
121.906
21
-73.6631
0
LINE
8
BLACK
6
CONTINUOUS
10
121.906
20
-73.6631
11
121.91
21
-73.6618
0
LINE
8
BLACK
6
CONTINUOUS
10
121.91
20
-73.6618
11
121.91
21
-73.6617
0
LINE
8
BLACK
6
CONTINUOUS
10
121.91
20
-73.6617
11
121.911
21
-73.6617
0
LINE
8
BLACK
6
CONTINUOUS
10
121.911
20
-73.6617
11
121.915
21
-73.6613
0
LINE
8
BLACK
6
CONTINUOUS
10
121.915
20
-73.6613
11
121.92
21
-73.6608
0
LINE
8
BLACK
6
CONTINUOUS
10
121.92
20
-73.6608
11
122.555
21
-73.6608
0
LINE
8
BLACK
6
CONTINUOUS
10
122.555
20
-73.6608
11
122.555
21
-73.6608
0
LINE
8
BLACK
6
CONTINUOUS
10
121.285
20
-73.6608
11
121.285
21
-73.6608
0
LINE
8
BLACK
6
CONTINUOUS
10
121.285
20
-73.6608
11
121.285
21
-73.6608
0
LINE
8
BLACK
6
CONTINUOUS
10
121.285
20
-73.6608
11
121.286
21
-73.6608
0
LINE
8
BLACK
6
CONTINUOUS
10
121.286
20
-73.6608
11
121.29
21
-73.6613
0
LINE
8
BLACK
6
CONTINUOUS
10
121.29
20
-73.6613
11
121.295
21
-73.6618
0
LINE
8
BLACK
6
CONTINUOUS
10
121.295
20
-73.6618
11
121.295
21
-73.6619
0
LINE
8
BLACK
6
CONTINUOUS
10
121.295
20
-73.6619
11
121.295
21
-73.6619
0
LINE
8
BLACK
6
CONTINUOUS
10
121.295
20
-73.6619
11
121.3
21
-73.6633
0
LINE
8
BLACK
6
CONTINUOUS
10
121.3
20
-73.6633
11
121.304
21
-73.6647
0
LINE
8
BLACK
6
CONTINUOUS
10
121.304
20
-73.6647
11
121.305
21
-73.6648
0
LINE
8
BLACK
6
CONTINUOUS
10
121.305
20
-73.6648
11
121.305
21
-73.6648
0
LINE
8
BLACK
6
CONTINUOUS
10
121.305
20
-73.6648
11
121.309
21
-73.6671
0
LINE
8
BLACK
6
CONTINUOUS
10
121.309
20
-73.6671
11
121.313
21
-73.6693
0
LINE
8
BLACK
6
CONTINUOUS
10
121.313
20
-73.6693
11
121.313
21
-73.6695
0
LINE
8
BLACK
6
CONTINUOUS
10
121.313
20
-73.6695
11
121.313
21
-73.6695
0
LINE
8
BLACK
6
CONTINUOUS
10
121.313
20
-73.6695
11
121.317
21
-73.6725
0
LINE
8
BLACK
6
CONTINUOUS
10
121.317
20
-73.6725
11
121.32
21
-73.6756
0
LINE
8
BLACK
6
CONTINUOUS
10
121.32
20
-73.6756
11
121.321
21
-73.6757
0
LINE
8
BLACK
6
CONTINUOUS
10
121.321
20
-73.6757
11
121.321
21
-73.6758
0
LINE
8
BLACK
6
CONTINUOUS
10
121.321
20
-73.6758
11
121.324
21
-73.6794
0
LINE
8
BLACK
6
CONTINUOUS
10
121.324
20
-73.6794
11
121.327
21
-73.6831
0
LINE
8
BLACK
6
CONTINUOUS
10
121.327
20
-73.6831
11
121.327
21
-73.6833
0
LINE
8
BLACK
6
CONTINUOUS
10
121.327
20
-73.6833
11
121.327
21
-73.6834
0
LINE
8
BLACK
6
CONTINUOUS
10
121.327
20
-73.6834
11
121.329
21
-73.6875
0
LINE
8
BLACK
6
CONTINUOUS
10
121.329
20
-73.6875
11
121.331
21
-73.6917
0
LINE
8
BLACK
6
CONTINUOUS
10
121.331
20
-73.6917
11
121.331
21
-73.6919
0
LINE
8
BLACK
6
CONTINUOUS
10
121.331
20
-73.6919
11
121.331
21
-73.6921
0
LINE
8
BLACK
6
CONTINUOUS
10
121.331
20
-73.6921
11
121.333
21
-73.6965
0
LINE
8
BLACK
6
CONTINUOUS
10
121.333
20
-73.6965
11
121.334
21
-73.7011
0
LINE
8
BLACK
6
CONTINUOUS
10
121.334
20
-73.7011
11
121.334
21
-73.7013
0
LINE
8
BLACK
6
CONTINUOUS
10
121.334
20
-73.7013
11
121.334
21
-73.7014
0
LINE
8
BLACK
6
CONTINUOUS
10
121.334
20
-73.7014
11
121.335
21
-73.7061
0
LINE
8
BLACK
6
CONTINUOUS
10
121.335
20
-73.7061
11
121.335
21
-73.7108
0
LINE
8
BLACK
6
CONTINUOUS
10
121.335
20
-73.7108
11
121.335
21
-74.3458
0
LINE
8
BLACK
6
CONTINUOUS
10
121.335
20
-74.3458
11
121.335
21
-74.3461
0
LINE
8
BLACK
6
CONTINUOUS
10
121.335
20
-74.3461
11
121.335
21
-74.3461
0
LINE
8
BLACK
6
CONTINUOUS
10
121.335
20
-74.3461
11
121.335
21
-74.3462
0
LINE
8
BLACK
6
CONTINUOUS
10
121.335
20
-74.3462
11
121.335
21
-74.3465
0
LINE
8
BLACK
6
CONTINUOUS
10
121.335
20
-74.3465
11
121.334
21
-74.3511
0
LINE
8
BLACK
6
CONTINUOUS
10
121.334
20
-74.3511
11
121.334
21
-74.3559
0
LINE
8
BLACK
6
CONTINUOUS
10
121.334
20
-74.3559
11
121.334
21
-74.356
0
LINE
8
BLACK
6
CONTINUOUS
10
121.334
20
-74.356
11
121.334
21
-74.3562
0
LINE
8
BLACK
6
CONTINUOUS
10
121.334
20
-74.3562
11
121.332
21
-74.3607
0
LINE
8
BLACK
6
CONTINUOUS
10
121.332
20
-74.3607
11
121.331
21
-74.3652
0
LINE
8
BLACK
6
CONTINUOUS
10
121.331
20
-74.3652
11
121.331
21
-74.3653
0
LINE
8
BLACK
6
CONTINUOUS
10
121.331
20
-74.3653
11
121.331
21
-74.3655
0
LINE
8
BLACK
6
CONTINUOUS
10
121.331
20
-74.3655
11
121.329
21
-74.3696
0
LINE
8
BLACK
6
CONTINUOUS
10
121.329
20
-74.3696
11
121.326
21
-74.3738
0
LINE
8
BLACK
6
CONTINUOUS
10
121.326
20
-74.3738
11
121.326
21
-74.3739
0
LINE
8
BLACK
6
CONTINUOUS
10
121.326
20
-74.3739
11
121.326
21
-74.374
0
LINE
8
BLACK
6
CONTINUOUS
10
121.326
20
-74.374
11
121.323
21
-74.3776
0
LINE
8
BLACK
6
CONTINUOUS
10
121.323
20
-74.3776
11
121.32
21
-74.3813
0
LINE
8
BLACK
6
CONTINUOUS
10
121.32
20
-74.3813
11
121.32
21
-74.3814
0
LINE
8
BLACK
6
CONTINUOUS
10
121.32
20
-74.3814
11
121.32
21
-74.3815
0
LINE
8
BLACK
6
CONTINUOUS
10
121.32
20
-74.3815
11
121.316
21
-74.3844
0
LINE
8
BLACK
6
CONTINUOUS
10
121.316
20
-74.3844
11
121.313
21
-74.3874
0
LINE
8
BLACK
6
CONTINUOUS
10
121.313
20
-74.3874
11
121.313
21
-74.3875
0
LINE
8
BLACK
6
CONTINUOUS
10
121.313
20
-74.3875
11
121.312
21
-74.3876
0
LINE
8
BLACK
6
CONTINUOUS
10
121.312
20
-74.3876
11
121.308
21
-74.3898
0
LINE
8
BLACK
6
CONTINUOUS
10
121.308
20
-74.3898
11
121.304
21
-74.392
0
LINE
8
BLACK
6
CONTINUOUS
10
121.304
20
-74.392
11
121.304
21
-74.3921
0
LINE
8
BLACK
6
CONTINUOUS
10
121.304
20
-74.3921
11
121.304
21
-74.3922
0
LINE
8
BLACK
6
CONTINUOUS
10
121.304
20
-74.3922
11
121.299
21
-74.3935
0
LINE
8
BLACK
6
CONTINUOUS
10
121.299
20
-74.3935
11
121.295
21
-74.3948
0
LINE
8
BLACK
6
CONTINUOUS
10
121.295
20
-74.3948
11
121.295
21
-74.3949
0
LINE
8
BLACK
6
CONTINUOUS
10
121.295
20
-74.3949
11
121.294
21
-74.3949
0
LINE
8
BLACK
6
CONTINUOUS
10
121.294
20
-74.3949
11
121.29
21
-74.3953
0
LINE
8
BLACK
6
CONTINUOUS
10
121.29
20
-74.3953
11
121.285
21
-74.3958
0
LINE
8
BLACK
6
CONTINUOUS
10
121.285
20
-74.3958
11
120.65
21
-74.3958
0
LINE
8
BLACK
6
CONTINUOUS
10
120.65
20
-74.3958
11
120.65
21
-74.3958
0
LINE
8
BLACK
6
CONTINUOUS
10
120.65
20
-74.3958
11
120.65
21
-74.3958
0
LINE
8
BLACK
6
CONTINUOUS
10
120.65
20
-74.3958
11
120.65
21
-74.3958
0
LINE
8
BLACK
6
CONTINUOUS
10
120.65
20
-74.3958
11
120.649
21
-74.3958
0
LINE
8
BLACK
6
CONTINUOUS
10
120.649
20
-74.3958
11
120.645
21
-74.3953
0
LINE
8
BLACK
6
CONTINUOUS
10
120.645
20
-74.3953
11
120.64
21
-74.3948
0
LINE
8
BLACK
6
CONTINUOUS
10
120.64
20
-74.3948
11
120.64
21
-74.3947
0
LINE
8
BLACK
6
CONTINUOUS
10
120.64
20
-74.3947
11
120.64
21
-74.3947
0
LINE
8
BLACK
6
CONTINUOUS
10
120.64
20
-74.3947
11
120.635
21
-74.3933
0
LINE
8
BLACK
6
CONTINUOUS
10
120.635
20
-74.3933
11
120.631
21
-74.3919
0
LINE
8
BLACK
6
CONTINUOUS
10
120.631
20
-74.3919
11
120.63
21
-74.3918
0
LINE
8
BLACK
6
CONTINUOUS
10
120.63
20
-74.3918
11
120.63
21
-74.3918
0
LINE
8
BLACK
6
CONTINUOUS
10
120.63
20
-74.3918
11
120.626
21
-74.3895
0
LINE
8
BLACK
6
CONTINUOUS
10
120.626
20
-74.3895
11
120.622
21
-74.3873
0
LINE
8
BLACK
6
CONTINUOUS
10
120.622
20
-74.3873
11
120.622
21
-74.3871
0
LINE
8
BLACK
6
CONTINUOUS
10
120.622
20
-74.3871
11
120.622
21
-74.3871
0
LINE
8
BLACK
6
CONTINUOUS
10
120.622
20
-74.3871
11
120.618
21
-74.3841
0
LINE
8
BLACK
6
CONTINUOUS
10
120.618
20
-74.3841
11
120.615
21
-74.381
0
LINE
8
BLACK
6
CONTINUOUS
10
120.615
20
-74.381
11
120.614
21
-74.3809
0
LINE
8
BLACK
6
CONTINUOUS
10
120.614
20
-74.3809
11
120.614
21
-74.3808
0
LINE
8
BLACK
6
CONTINUOUS
10
120.614
20
-74.3808
11
120.611
21
-74.3772
0
LINE
8
BLACK
6
CONTINUOUS
10
120.611
20
-74.3772
11
120.608
21
-74.3735
0
LINE
8
BLACK
6
CONTINUOUS
10
120.608
20
-74.3735
11
120.608
21
-74.3733
0
LINE
8
BLACK
6
CONTINUOUS
10
120.608
20
-74.3733
11
120.608
21
-74.3732
0
LINE
8
BLACK
6
CONTINUOUS
10
120.608
20
-74.3732
11
120.606
21
-74.3691
0
LINE
8
BLACK
6
CONTINUOUS
10
120.606
20
-74.3691
11
120.604
21
-74.3649
0
LINE
8
BLACK
6
CONTINUOUS
10
120.604
20
-74.3649
11
120.604
21
-74.3647
0
LINE
8
BLACK
6
CONTINUOUS
10
120.604
20
-74.3647
11
120.604
21
-74.3645
0
LINE
8
BLACK
6
CONTINUOUS
10
120.604
20
-74.3645
11
120.602
21
-74.3601
0
LINE
8
BLACK
6
CONTINUOUS
10
120.602
20
-74.3601
11
120.601
21
-74.3555
0
LINE
8
BLACK
6
CONTINUOUS
10
120.601
20
-74.3555
11
120.601
21
-74.3553
0
LINE
8
BLACK
6
CONTINUOUS
10
120.601
20
-74.3553
11
120.601
21
-74.3552
0
LINE
8
BLACK
6
CONTINUOUS
10
120.601
20
-74.3552
11
120.6
21
-74.3505
0
LINE
8
BLACK
6
CONTINUOUS
10
120.6
20
-74.3505
11
120.6
21
-74.3458
0
LINE
8
BLACK
6
CONTINUOUS
10
120.6
20
-74.3458
11
120.6
21
-73.7108
0
LINE
8
BLACK
6
CONTINUOUS
10
120.6
20
-73.7108
11
120.6
21
-73.7105
0
LINE
8
BLACK
6
CONTINUOUS
10
120.6
20
-73.7105
11
120.6
21
-73.7105
0
LINE
8
BLACK
6
CONTINUOUS
10
120.6
20
-73.7105
11
120.6
21
-73.7104
0
LINE
8
BLACK
6
CONTINUOUS
10
120.6
20
-73.7104
11
120.6
21
-73.7101
0
LINE
8
BLACK
6
CONTINUOUS
10
120.6
20
-73.7101
11
120.601
21
-73.7055
0
LINE
8
BLACK
6
CONTINUOUS
10
120.601
20
-73.7055
11
120.601
21
-73.7007
0
LINE
8
BLACK
6
CONTINUOUS
10
120.601
20
-73.7007
11
120.601
21
-73.7006
0
LINE
8
BLACK
6
CONTINUOUS
10
120.601
20
-73.7006
11
120.601
21
-73.7004
0
LINE
8
BLACK
6
CONTINUOUS
10
120.601
20
-73.7004
11
120.603
21
-73.6959
0
LINE
8
BLACK
6
CONTINUOUS
10
120.603
20
-73.6959
11
120.604
21
-73.6914
0
LINE
8
BLACK
6
CONTINUOUS
10
120.604
20
-73.6914
11
120.604
21
-73.6913
0
LINE
8
BLACK
6
CONTINUOUS
10
120.604
20
-73.6913
11
120.604
21
-73.6911
0
LINE
8
BLACK
6
CONTINUOUS
10
120.604
20
-73.6911
11
120.606
21
-73.687
0
LINE
8
BLACK
6
CONTINUOUS
10
120.606
20
-73.687
11
120.609
21
-73.6828
0
LINE
8
BLACK
6
CONTINUOUS
10
120.609
20
-73.6828
11
120.609
21
-73.6827
0
LINE
8
BLACK
6
CONTINUOUS
10
120.609
20
-73.6827
11
120.609
21
-73.6826
0
LINE
8
BLACK
6
CONTINUOUS
10
120.609
20
-73.6826
11
120.612
21
-73.679
0
LINE
8
BLACK
6
CONTINUOUS
10
120.612
20
-73.679
11
120.615
21
-73.6753
0
LINE
8
BLACK
6
CONTINUOUS
10
120.615
20
-73.6753
11
120.615
21
-73.6752
0
LINE
8
BLACK
6
CONTINUOUS
10
120.615
20
-73.6752
11
120.615
21
-73.6751
0
LINE
8
BLACK
6
CONTINUOUS
10
120.615
20
-73.6751
11
120.619
21
-73.6722
0
LINE
8
BLACK
6
CONTINUOUS
10
120.619
20
-73.6722
11
120.622
21
-73.6692
0
LINE
8
BLACK
6
CONTINUOUS
10
120.622
20
-73.6692
11
120.622
21
-73.6691
0
LINE
8
BLACK
6
CONTINUOUS
10
120.622
20
-73.6691
11
120.623
21
-73.669
0
LINE
8
BLACK
6
CONTINUOUS
10
120.623
20
-73.669
11
120.627
21
-73.6668
0
LINE
8
BLACK
6
CONTINUOUS
10
120.627
20
-73.6668
11
120.631
21
-73.6646
0
LINE
8
BLACK
6
CONTINUOUS
10
120.631
20
-73.6646
11
120.631
21
-73.6645
0
LINE
8
BLACK
6
CONTINUOUS
10
120.631
20
-73.6645
11
120.631
21
-73.6644
0
LINE
8
BLACK
6
CONTINUOUS
10
120.631
20
-73.6644
11
120.636
21
-73.6631
0
LINE
8
BLACK
6
CONTINUOUS
10
120.636
20
-73.6631
11
120.64
21
-73.6618
0
LINE
8
BLACK
6
CONTINUOUS
10
120.64
20
-73.6618
11
120.64
21
-73.6617
0
LINE
8
BLACK
6
CONTINUOUS
10
120.64
20
-73.6617
11
120.641
21
-73.6617
0
LINE
8
BLACK
6
CONTINUOUS
10
120.641
20
-73.6617
11
120.645
21
-73.6613
0
LINE
8
BLACK
6
CONTINUOUS
10
120.645
20
-73.6613
11
120.65
21
-73.6608
0
LINE
8
BLACK
6
CONTINUOUS
10
120.65
20
-73.6608
11
121.285
21
-73.6608
0
LINE
8
BLACK
6
CONTINUOUS
10
121.285
20
-73.6608
11
121.285
21
-73.6608
0
LINE
8
BLACK
6
CONTINUOUS
10
118.11
20
-72.3908
11
118.11
21
-72.3908
0
LINE
8
BLACK
6
CONTINUOUS
10
118.11
20
-72.3908
11
118.11
21
-72.3908
0
LINE
8
BLACK
6
CONTINUOUS
10
118.11
20
-72.3908
11
118.111
21
-72.3908
0
LINE
8
BLACK
6
CONTINUOUS
10
118.111
20
-72.3908
11
118.115
21
-72.3913
0
LINE
8
BLACK
6
CONTINUOUS
10
118.115
20
-72.3913
11
118.12
21
-72.3918
0
LINE
8
BLACK
6
CONTINUOUS
10
118.12
20
-72.3918
11
118.12
21
-72.3919
0
LINE
8
BLACK
6
CONTINUOUS
10
118.12
20
-72.3919
11
118.12
21
-72.3919
0
LINE
8
BLACK
6
CONTINUOUS
10
118.12
20
-72.3919
11
118.125
21
-72.3933
0
LINE
8
BLACK
6
CONTINUOUS
10
118.125
20
-72.3933
11
118.129
21
-72.3947
0
LINE
8
BLACK
6
CONTINUOUS
10
118.129
20
-72.3947
11
118.13
21
-72.3948
0
LINE
8
BLACK
6
CONTINUOUS
10
118.13
20
-72.3948
11
118.13
21
-72.3948
0
LINE
8
BLACK
6
CONTINUOUS
10
118.13
20
-72.3948
11
118.134
21
-72.3971
0
LINE
8
BLACK
6
CONTINUOUS
10
118.134
20
-72.3971
11
118.138
21
-72.3993
0
LINE
8
BLACK
6
CONTINUOUS
10
118.138
20
-72.3993
11
118.138
21
-72.3995
0
LINE
8
BLACK
6
CONTINUOUS
10
118.138
20
-72.3995
11
118.138
21
-72.3995
0
LINE
8
BLACK
6
CONTINUOUS
10
118.138
20
-72.3995
11
118.142
21
-72.4025
0
LINE
8
BLACK
6
CONTINUOUS
10
118.142
20
-72.4025
11
118.145
21
-72.4056
0
LINE
8
BLACK
6
CONTINUOUS
10
118.145
20
-72.4056
11
118.146
21
-72.4057
0
LINE
8
BLACK
6
CONTINUOUS
10
118.146
20
-72.4057
11
118.146
21
-72.4058
0
LINE
8
BLACK
6
CONTINUOUS
10
118.146
20
-72.4058
11
118.149
21
-72.4094
0
LINE
8
BLACK
6
CONTINUOUS
10
118.149
20
-72.4094
11
118.152
21
-72.4131
0
LINE
8
BLACK
6
CONTINUOUS
10
118.152
20
-72.4131
11
118.152
21
-72.4133
0
LINE
8
BLACK
6
CONTINUOUS
10
118.152
20
-72.4133
11
118.152
21
-72.4134
0
LINE
8
BLACK
6
CONTINUOUS
10
118.152
20
-72.4134
11
118.154
21
-72.4175
0
LINE
8
BLACK
6
CONTINUOUS
10
118.154
20
-72.4175
11
118.156
21
-72.4217
0
LINE
8
BLACK
6
CONTINUOUS
10
118.156
20
-72.4217
11
118.156
21
-72.4219
0
LINE
8
BLACK
6
CONTINUOUS
10
118.156
20
-72.4219
11
118.156
21
-72.4221
0
LINE
8
BLACK
6
CONTINUOUS
10
118.156
20
-72.4221
11
118.158
21
-72.4265
0
LINE
8
BLACK
6
CONTINUOUS
10
118.158
20
-72.4265
11
118.159
21
-72.4311
0
LINE
8
BLACK
6
CONTINUOUS
10
118.159
20
-72.4311
11
118.159
21
-72.4313
0
LINE
8
BLACK
6
CONTINUOUS
10
118.159
20
-72.4313
11
118.159
21
-72.4314
0
LINE
8
BLACK
6
CONTINUOUS
10
118.159
20
-72.4314
11
118.16
21
-72.4361
0
LINE
8
BLACK
6
CONTINUOUS
10
118.16
20
-72.4361
11
118.16
21
-72.4408
0
LINE
8
BLACK
6
CONTINUOUS
10
118.16
20
-72.4408
11
118.16
21
-73.0758
0
LINE
8
BLACK
6
CONTINUOUS
10
118.16
20
-73.0758
11
118.16
21
-73.0761
0
LINE
8
BLACK
6
CONTINUOUS
10
118.16
20
-73.0761
11
118.16
21
-73.0761
0
LINE
8
BLACK
6
CONTINUOUS
10
118.16
20
-73.0761
11
118.16
21
-73.0762
0
LINE
8
BLACK
6
CONTINUOUS
10
118.16
20
-73.0762
11
118.16
21
-73.0765
0
LINE
8
BLACK
6
CONTINUOUS
10
118.16
20
-73.0765
11
118.159
21
-73.0811
0
LINE
8
BLACK
6
CONTINUOUS
10
118.159
20
-73.0811
11
118.159
21
-73.0859
0
LINE
8
BLACK
6
CONTINUOUS
10
118.159
20
-73.0859
11
118.159
21
-73.086
0
LINE
8
BLACK
6
CONTINUOUS
10
118.159
20
-73.086
11
118.159
21
-73.0862
0
LINE
8
BLACK
6
CONTINUOUS
10
118.159
20
-73.0862
11
118.157
21
-73.0907
0
LINE
8
BLACK
6
CONTINUOUS
10
118.157
20
-73.0907
11
118.156
21
-73.0952
0
LINE
8
BLACK
6
CONTINUOUS
10
118.156
20
-73.0952
11
118.156
21
-73.0953
0
LINE
8
BLACK
6
CONTINUOUS
10
118.156
20
-73.0953
11
118.156
21
-73.0955
0
LINE
8
BLACK
6
CONTINUOUS
10
118.156
20
-73.0955
11
118.154
21
-73.0996
0
LINE
8
BLACK
6
CONTINUOUS
10
118.154
20
-73.0996
11
118.151
21
-73.1038
0
LINE
8
BLACK
6
CONTINUOUS
10
118.151
20
-73.1038
11
118.151
21
-73.1039
0
LINE
8
BLACK
6
CONTINUOUS
10
118.151
20
-73.1039
11
118.151
21
-73.104
0
LINE
8
BLACK
6
CONTINUOUS
10
118.151
20
-73.104
11
118.148
21
-73.1076
0
LINE
8
BLACK
6
CONTINUOUS
10
118.148
20
-73.1076
11
118.145
21
-73.1113
0
LINE
8
BLACK
6
CONTINUOUS
10
118.145
20
-73.1113
11
118.145
21
-73.1114
0
LINE
8
BLACK
6
CONTINUOUS
10
118.145
20
-73.1114
11
118.145
21
-73.1115
0
LINE
8
BLACK
6
CONTINUOUS
10
118.145
20
-73.1115
11
118.141
21
-73.1144
0
LINE
8
BLACK
6
CONTINUOUS
10
118.141
20
-73.1144
11
118.138
21
-73.1174
0
LINE
8
BLACK
6
CONTINUOUS
10
118.138
20
-73.1174
11
118.138
21
-73.1175
0
LINE
8
BLACK
6
CONTINUOUS
10
118.138
20
-73.1175
11
118.137
21
-73.1176
0
LINE
8
BLACK
6
CONTINUOUS
10
118.137
20
-73.1176
11
118.133
21
-73.1198
0
LINE
8
BLACK
6
CONTINUOUS
10
118.133
20
-73.1198
11
118.129
21
-73.122
0
LINE
8
BLACK
6
CONTINUOUS
10
118.129
20
-73.122
11
118.129
21
-73.1221
0
LINE
8
BLACK
6
CONTINUOUS
10
118.129
20
-73.1221
11
118.129
21
-73.1222
0
LINE
8
BLACK
6
CONTINUOUS
10
118.129
20
-73.1222
11
118.124
21
-73.1235
0
LINE
8
BLACK
6
CONTINUOUS
10
118.124
20
-73.1235
11
118.12
21
-73.1248
0
LINE
8
BLACK
6
CONTINUOUS
10
118.12
20
-73.1248
11
118.12
21
-73.1249
0
LINE
8
BLACK
6
CONTINUOUS
10
118.12
20
-73.1249
11
118.119
21
-73.1249
0
LINE
8
BLACK
6
CONTINUOUS
10
118.119
20
-73.1249
11
118.115
21
-73.1253
0
LINE
8
BLACK
6
CONTINUOUS
10
118.115
20
-73.1253
11
118.11
21
-73.1258
0
LINE
8
BLACK
6
CONTINUOUS
10
118.11
20
-73.1258
11
117.475
21
-73.1258
0
LINE
8
BLACK
6
CONTINUOUS
10
117.475
20
-73.1258
11
117.475
21
-73.1258
0
LINE
8
BLACK
6
CONTINUOUS
10
117.475
20
-73.1258
11
117.475
21
-73.1258
0
LINE
8
BLACK
6
CONTINUOUS
10
117.475
20
-73.1258
11
117.475
21
-73.1258
0
LINE
8
BLACK
6
CONTINUOUS
10
117.475
20
-73.1258
11
117.474
21
-73.1258
0
LINE
8
BLACK
6
CONTINUOUS
10
117.474
20
-73.1258
11
117.47
21
-73.1253
0
LINE
8
BLACK
6
CONTINUOUS
10
117.47
20
-73.1253
11
117.465
21
-73.1248
0
LINE
8
BLACK
6
CONTINUOUS
10
117.465
20
-73.1248
11
117.465
21
-73.1247
0
LINE
8
BLACK
6
CONTINUOUS
10
117.465
20
-73.1247
11
117.465
21
-73.1247
0
LINE
8
BLACK
6
CONTINUOUS
10
117.465
20
-73.1247
11
117.46
21
-73.1233
0
LINE
8
BLACK
6
CONTINUOUS
10
117.46
20
-73.1233
11
117.456
21
-73.1219
0
LINE
8
BLACK
6
CONTINUOUS
10
117.456
20
-73.1219
11
117.455
21
-73.1218
0
LINE
8
BLACK
6
CONTINUOUS
10
117.455
20
-73.1218
11
117.455
21
-73.1218
0
LINE
8
BLACK
6
CONTINUOUS
10
117.455
20
-73.1218
11
117.451
21
-73.1195
0
LINE
8
BLACK
6
CONTINUOUS
10
117.451
20
-73.1195
11
117.447
21
-73.1173
0
LINE
8
BLACK
6
CONTINUOUS
10
117.447
20
-73.1173
11
117.447
21
-73.1171
0
LINE
8
BLACK
6
CONTINUOUS
10
117.447
20
-73.1171
11
117.447
21
-73.1171
0
LINE
8
BLACK
6
CONTINUOUS
10
117.447
20
-73.1171
11
117.443
21
-73.1141
0
LINE
8
BLACK
6
CONTINUOUS
10
117.443
20
-73.1141
11
117.44
21
-73.111
0
LINE
8
BLACK
6
CONTINUOUS
10
117.44
20
-73.111
11
117.439
21
-73.1109
0
LINE
8
BLACK
6
CONTINUOUS
10
117.439
20
-73.1109
11
117.439
21
-73.1108
0
LINE
8
BLACK
6
CONTINUOUS
10
117.439
20
-73.1108
11
117.436
21
-73.1072
0
LINE
8
BLACK
6
CONTINUOUS
10
117.436
20
-73.1072
11
117.433
21
-73.1035
0
LINE
8
BLACK
6
CONTINUOUS
10
117.433
20
-73.1035
11
117.433
21
-73.1033
0
LINE
8
BLACK
6
CONTINUOUS
10
117.433
20
-73.1033
11
117.433
21
-73.1032
0
LINE
8
BLACK
6
CONTINUOUS
10
117.433
20
-73.1032
11
117.431
21
-73.0991
0
LINE
8
BLACK
6
CONTINUOUS
10
117.431
20
-73.0991
11
117.429
21
-73.0949
0
LINE
8
BLACK
6
CONTINUOUS
10
117.429
20
-73.0949
11
117.429
21
-73.0947
0
LINE
8
BLACK
6
CONTINUOUS
10
117.429
20
-73.0947
11
117.429
21
-73.0945
0
LINE
8
BLACK
6
CONTINUOUS
10
117.429
20
-73.0945
11
117.427
21
-73.0901
0
LINE
8
BLACK
6
CONTINUOUS
10
117.427
20
-73.0901
11
117.426
21
-73.0855
0
LINE
8
BLACK
6
CONTINUOUS
10
117.426
20
-73.0855
11
117.426
21
-73.0853
0
LINE
8
BLACK
6
CONTINUOUS
10
117.426
20
-73.0853
11
117.426
21
-73.0852
0
LINE
8
BLACK
6
CONTINUOUS
10
117.426
20
-73.0852
11
117.425
21
-73.0805
0
LINE
8
BLACK
6
CONTINUOUS
10
117.425
20
-73.0805
11
117.425
21
-73.0758
0
LINE
8
BLACK
6
CONTINUOUS
10
117.425
20
-73.0758
11
117.425
21
-72.4408
0
LINE
8
BLACK
6
CONTINUOUS
10
117.425
20
-72.4408
11
117.425
21
-72.4405
0
LINE
8
BLACK
6
CONTINUOUS
10
117.425
20
-72.4405
11
117.425
21
-72.4405
0
LINE
8
BLACK
6
CONTINUOUS
10
117.425
20
-72.4405
11
117.425
21
-72.4404
0
LINE
8
BLACK
6
CONTINUOUS
10
117.425
20
-72.4404
11
117.425
21
-72.4401
0
LINE
8
BLACK
6
CONTINUOUS
10
117.425
20
-72.4401
11
117.426
21
-72.4355
0
LINE
8
BLACK
6
CONTINUOUS
10
117.426
20
-72.4355
11
117.426
21
-72.4307
0
LINE
8
BLACK
6
CONTINUOUS
10
117.426
20
-72.4307
11
117.426
21
-72.4306
0
LINE
8
BLACK
6
CONTINUOUS
10
117.426
20
-72.4306
11
117.426
21
-72.4304
0
LINE
8
BLACK
6
CONTINUOUS
10
117.426
20
-72.4304
11
117.428
21
-72.4259
0
LINE
8
BLACK
6
CONTINUOUS
10
117.428
20
-72.4259
11
117.429
21
-72.4214
0
LINE
8
BLACK
6
CONTINUOUS
10
117.429
20
-72.4214
11
117.429
21
-72.4213
0
LINE
8
BLACK
6
CONTINUOUS
10
117.429
20
-72.4213
11
117.429
21
-72.4211
0
LINE
8
BLACK
6
CONTINUOUS
10
117.429
20
-72.4211
11
117.431
21
-72.417
0
LINE
8
BLACK
6
CONTINUOUS
10
117.431
20
-72.417
11
117.434
21
-72.4128
0
LINE
8
BLACK
6
CONTINUOUS
10
117.434
20
-72.4128
11
117.434
21
-72.4127
0
LINE
8
BLACK
6
CONTINUOUS
10
117.434
20
-72.4127
11
117.434
21
-72.4126
0
LINE
8
BLACK
6
CONTINUOUS
10
117.434
20
-72.4126
11
117.437
21
-72.409
0
LINE
8
BLACK
6
CONTINUOUS
10
117.437
20
-72.409
11
117.44
21
-72.4053
0
LINE
8
BLACK
6
CONTINUOUS
10
117.44
20
-72.4053
11
117.44
21
-72.4052
0
LINE
8
BLACK
6
CONTINUOUS
10
117.44
20
-72.4052
11
117.44
21
-72.4051
0
LINE
8
BLACK
6
CONTINUOUS
10
117.44
20
-72.4051
11
117.444
21
-72.4022
0
LINE
8
BLACK
6
CONTINUOUS
10
117.444
20
-72.4022
11
117.447
21
-72.3992
0
LINE
8
BLACK
6
CONTINUOUS
10
117.447
20
-72.3992
11
117.447
21
-72.3991
0
LINE
8
BLACK
6
CONTINUOUS
10
117.447
20
-72.3991
11
117.448
21
-72.399
0
LINE
8
BLACK
6
CONTINUOUS
10
117.448
20
-72.399
11
117.452
21
-72.3968
0
LINE
8
BLACK
6
CONTINUOUS
10
117.452
20
-72.3968
11
117.456
21
-72.3946
0
LINE
8
BLACK
6
CONTINUOUS
10
117.456
20
-72.3946
11
117.456
21
-72.3945
0
LINE
8
BLACK
6
CONTINUOUS
10
117.456
20
-72.3945
11
117.456
21
-72.3944
0
LINE
8
BLACK
6
CONTINUOUS
10
117.456
20
-72.3944
11
117.461
21
-72.3931
0
LINE
8
BLACK
6
CONTINUOUS
10
117.461
20
-72.3931
11
117.465
21
-72.3918
0
LINE
8
BLACK
6
CONTINUOUS
10
117.465
20
-72.3918
11
117.465
21
-72.3917
0
LINE
8
BLACK
6
CONTINUOUS
10
117.465
20
-72.3917
11
117.466
21
-72.3917
0
LINE
8
BLACK
6
CONTINUOUS
10
117.466
20
-72.3917
11
117.47
21
-72.3913
0
LINE
8
BLACK
6
CONTINUOUS
10
117.47
20
-72.3913
11
117.475
21
-72.3908
0
LINE
8
BLACK
6
CONTINUOUS
10
117.475
20
-72.3908
11
118.11
21
-72.3908
0
LINE
8
BLACK
6
CONTINUOUS
10
118.11
20
-72.3908
11
118.11
21
-72.3908
0
LINE
8
BLACK
6
CONTINUOUS
10
122.555
20
-71.7558
11
122.555
21
-71.7558
0
LINE
8
BLACK
6
CONTINUOUS
10
122.555
20
-71.7558
11
122.555
21
-71.7558
0
LINE
8
BLACK
6
CONTINUOUS
10
122.555
20
-71.7558
11
122.556
21
-71.7558
0
LINE
8
BLACK
6
CONTINUOUS
10
122.556
20
-71.7558
11
122.56
21
-71.7563
0
LINE
8
BLACK
6
CONTINUOUS
10
122.56
20
-71.7563
11
122.565
21
-71.7568
0
LINE
8
BLACK
6
CONTINUOUS
10
122.565
20
-71.7568
11
122.565
21
-71.7569
0
LINE
8
BLACK
6
CONTINUOUS
10
122.565
20
-71.7569
11
122.565
21
-71.7569
0
LINE
8
BLACK
6
CONTINUOUS
10
122.565
20
-71.7569
11
122.57
21
-71.7583
0
LINE
8
BLACK
6
CONTINUOUS
10
122.57
20
-71.7583
11
122.574
21
-71.7597
0
LINE
8
BLACK
6
CONTINUOUS
10
122.574
20
-71.7597
11
122.575
21
-71.7598
0
LINE
8
BLACK
6
CONTINUOUS
10
122.575
20
-71.7598
11
122.575
21
-71.7598
0
LINE
8
BLACK
6
CONTINUOUS
10
122.575
20
-71.7598
11
122.579
21
-71.7621
0
LINE
8
BLACK
6
CONTINUOUS
10
122.579
20
-71.7621
11
122.583
21
-71.7643
0
LINE
8
BLACK
6
CONTINUOUS
10
122.583
20
-71.7643
11
122.583
21
-71.7645
0
LINE
8
BLACK
6
CONTINUOUS
10
122.583
20
-71.7645
11
122.583
21
-71.7645
0
LINE
8
BLACK
6
CONTINUOUS
10
122.583
20
-71.7645
11
122.587
21
-71.7675
0
LINE
8
BLACK
6
CONTINUOUS
10
122.587
20
-71.7675
11
122.59
21
-71.7706
0
LINE
8
BLACK
6
CONTINUOUS
10
122.59
20
-71.7706
11
122.591
21
-71.7707
0
LINE
8
BLACK
6
CONTINUOUS
10
122.591
20
-71.7707
11
122.591
21
-71.7708
0
LINE
8
BLACK
6
CONTINUOUS
10
122.591
20
-71.7708
11
122.594
21
-71.7744
0
LINE
8
BLACK
6
CONTINUOUS
10
122.594
20
-71.7744
11
122.597
21
-71.7781
0
LINE
8
BLACK
6
CONTINUOUS
10
122.597
20
-71.7781
11
122.597
21
-71.7783
0
LINE
8
BLACK
6
CONTINUOUS
10
122.597
20
-71.7783
11
122.597
21
-71.7784
0
LINE
8
BLACK
6
CONTINUOUS
10
122.597
20
-71.7784
11
122.599
21
-71.7825
0
LINE
8
BLACK
6
CONTINUOUS
10
122.599
20
-71.7825
11
122.601
21
-71.7867
0
LINE
8
BLACK
6
CONTINUOUS
10
122.601
20
-71.7867
11
122.601
21
-71.7869
0
LINE
8
BLACK
6
CONTINUOUS
10
122.601
20
-71.7869
11
122.601
21
-71.7871
0
LINE
8
BLACK
6
CONTINUOUS
10
122.601
20
-71.7871
11
122.603
21
-71.7915
0
LINE
8
BLACK
6
CONTINUOUS
10
122.603
20
-71.7915
11
122.604
21
-71.7961
0
LINE
8
BLACK
6
CONTINUOUS
10
122.604
20
-71.7961
11
122.604
21
-71.7963
0
LINE
8
BLACK
6
CONTINUOUS
10
122.604
20
-71.7963
11
122.604
21
-71.7964
0
LINE
8
BLACK
6
CONTINUOUS
10
122.604
20
-71.7964
11
122.605
21
-71.8011
0
LINE
8
BLACK
6
CONTINUOUS
10
122.605
20
-71.8011
11
122.605
21
-71.8058
0
LINE
8
BLACK
6
CONTINUOUS
10
122.605
20
-71.8058
11
122.605
21
-72.4408
0
LINE
8
BLACK
6
CONTINUOUS
10
122.605
20
-72.4408
11
122.605
21
-72.4411
0
LINE
8
BLACK
6
CONTINUOUS
10
122.605
20
-72.4411
11
122.605
21
-72.4411
0
LINE
8
BLACK
6
CONTINUOUS
10
122.605
20
-72.4411
11
122.605
21
-72.4412
0
LINE
8
BLACK
6
CONTINUOUS
10
122.605
20
-72.4412
11
122.605
21
-72.4415
0
LINE
8
BLACK
6
CONTINUOUS
10
122.605
20
-72.4415
11
122.604
21
-72.4461
0
LINE
8
BLACK
6
CONTINUOUS
10
122.604
20
-72.4461
11
122.604
21
-72.4509
0
LINE
8
BLACK
6
CONTINUOUS
10
122.604
20
-72.4509
11
122.604
21
-72.451
0
LINE
8
BLACK
6
CONTINUOUS
10
122.604
20
-72.451
11
122.604
21
-72.4512
0
LINE
8
BLACK
6
CONTINUOUS
10
122.604
20
-72.4512
11
122.602
21
-72.4557
0
LINE
8
BLACK
6
CONTINUOUS
10
122.602
20
-72.4557
11
122.601
21
-72.4602
0
LINE
8
BLACK
6
CONTINUOUS
10
122.601
20
-72.4602
11
122.601
21
-72.4603
0
LINE
8
BLACK
6
CONTINUOUS
10
122.601
20
-72.4603
11
122.601
21
-72.4605
0
LINE
8
BLACK
6
CONTINUOUS
10
122.601
20
-72.4605
11
122.599
21
-72.4646
0
LINE
8
BLACK
6
CONTINUOUS
10
122.599
20
-72.4646
11
122.596
21
-72.4688
0
LINE
8
BLACK
6
CONTINUOUS
10
122.596
20
-72.4688
11
122.596
21
-72.4689
0
LINE
8
BLACK
6
CONTINUOUS
10
122.596
20
-72.4689
11
122.596
21
-72.469
0
LINE
8
BLACK
6
CONTINUOUS
10
122.596
20
-72.469
11
122.593
21
-72.4726
0
LINE
8
BLACK
6
CONTINUOUS
10
122.593
20
-72.4726
11
122.59
21
-72.4763
0
LINE
8
BLACK
6
CONTINUOUS
10
122.59
20
-72.4763
11
122.59
21
-72.4764
0
LINE
8
BLACK
6
CONTINUOUS
10
122.59
20
-72.4764
11
122.59
21
-72.4765
0
LINE
8
BLACK
6
CONTINUOUS
10
122.59
20
-72.4765
11
122.586
21
-72.4794
0
LINE
8
BLACK
6
CONTINUOUS
10
122.586
20
-72.4794
11
122.583
21
-72.4824
0
LINE
8
BLACK
6
CONTINUOUS
10
122.583
20
-72.4824
11
122.583
21
-72.4825
0
LINE
8
BLACK
6
CONTINUOUS
10
122.583
20
-72.4825
11
122.582
21
-72.4826
0
LINE
8
BLACK
6
CONTINUOUS
10
122.582
20
-72.4826
11
122.578
21
-72.4848
0
LINE
8
BLACK
6
CONTINUOUS
10
122.578
20
-72.4848
11
122.574
21
-72.487
0
LINE
8
BLACK
6
CONTINUOUS
10
122.574
20
-72.487
11
122.574
21
-72.4871
0
LINE
8
BLACK
6
CONTINUOUS
10
122.574
20
-72.4871
11
122.574
21
-72.4872
0
LINE
8
BLACK
6
CONTINUOUS
10
122.574
20
-72.4872
11
122.569
21
-72.4885
0
LINE
8
BLACK
6
CONTINUOUS
10
122.569
20
-72.4885
11
122.565
21
-72.4898
0
LINE
8
BLACK
6
CONTINUOUS
10
122.565
20
-72.4898
11
122.565
21
-72.4899
0
LINE
8
BLACK
6
CONTINUOUS
10
122.565
20
-72.4899
11
122.564
21
-72.4899
0
LINE
8
BLACK
6
CONTINUOUS
10
122.564
20
-72.4899
11
122.56
21
-72.4903
0
LINE
8
BLACK
6
CONTINUOUS
10
122.56
20
-72.4903
11
122.555
21
-72.4908
0
LINE
8
BLACK
6
CONTINUOUS
10
122.555
20
-72.4908
11
121.92
21
-72.4908
0
LINE
8
BLACK
6
CONTINUOUS
10
121.92
20
-72.4908
11
121.92
21
-72.4908
0
LINE
8
BLACK
6
CONTINUOUS
10
121.92
20
-72.4908
11
121.92
21
-72.4908
0
LINE
8
BLACK
6
CONTINUOUS
10
121.92
20
-72.4908
11
121.92
21
-72.4908
0
LINE
8
BLACK
6
CONTINUOUS
10
121.92
20
-72.4908
11
121.919
21
-72.4908
0
LINE
8
BLACK
6
CONTINUOUS
10
121.919
20
-72.4908
11
121.915
21
-72.4903
0
LINE
8
BLACK
6
CONTINUOUS
10
121.915
20
-72.4903
11
121.91
21
-72.4898
0
LINE
8
BLACK
6
CONTINUOUS
10
121.91
20
-72.4898
11
121.91
21
-72.4897
0
LINE
8
BLACK
6
CONTINUOUS
10
121.91
20
-72.4897
11
121.91
21
-72.4897
0
LINE
8
BLACK
6
CONTINUOUS
10
121.91
20
-72.4897
11
121.905
21
-72.4883
0
LINE
8
BLACK
6
CONTINUOUS
10
121.905
20
-72.4883
11
121.901
21
-72.4869
0
LINE
8
BLACK
6
CONTINUOUS
10
121.901
20
-72.4869
11
121.9
21
-72.4868
0
LINE
8
BLACK
6
CONTINUOUS
10
121.9
20
-72.4868
11
121.9
21
-72.4868
0
LINE
8
BLACK
6
CONTINUOUS
10
121.9
20
-72.4868
11
121.896
21
-72.4845
0
LINE
8
BLACK
6
CONTINUOUS
10
121.896
20
-72.4845
11
121.892
21
-72.4823
0
LINE
8
BLACK
6
CONTINUOUS
10
121.892
20
-72.4823
11
121.892
21
-72.4821
0
LINE
8
BLACK
6
CONTINUOUS
10
121.892
20
-72.4821
11
121.892
21
-72.4821
0
LINE
8
BLACK
6
CONTINUOUS
10
121.892
20
-72.4821
11
121.888
21
-72.4791
0
LINE
8
BLACK
6
CONTINUOUS
10
121.888
20
-72.4791
11
121.885
21
-72.476
0
LINE
8
BLACK
6
CONTINUOUS
10
121.885
20
-72.476
11
121.884
21
-72.4759
0
LINE
8
BLACK
6
CONTINUOUS
10
121.884
20
-72.4759
11
121.884
21
-72.4758
0
LINE
8
BLACK
6
CONTINUOUS
10
121.884
20
-72.4758
11
121.881
21
-72.4722
0
LINE
8
BLACK
6
CONTINUOUS
10
121.881
20
-72.4722
11
121.878
21
-72.4685
0
LINE
8
BLACK
6
CONTINUOUS
10
121.878
20
-72.4685
11
121.878
21
-72.4683
0
LINE
8
BLACK
6
CONTINUOUS
10
121.878
20
-72.4683
11
121.878
21
-72.4682
0
LINE
8
BLACK
6
CONTINUOUS
10
121.878
20
-72.4682
11
121.876
21
-72.4641
0
LINE
8
BLACK
6
CONTINUOUS
10
121.876
20
-72.4641
11
121.874
21
-72.4599
0
LINE
8
BLACK
6
CONTINUOUS
10
121.874
20
-72.4599
11
121.874
21
-72.4597
0
LINE
8
BLACK
6
CONTINUOUS
10
121.874
20
-72.4597
11
121.874
21
-72.4595
0
LINE
8
BLACK
6
CONTINUOUS
10
121.874
20
-72.4595
11
121.872
21
-72.4551
0
LINE
8
BLACK
6
CONTINUOUS
10
121.872
20
-72.4551
11
121.871
21
-72.4505
0
LINE
8
BLACK
6
CONTINUOUS
10
121.871
20
-72.4505
11
121.871
21
-72.4503
0
LINE
8
BLACK
6
CONTINUOUS
10
121.871
20
-72.4503
11
121.871
21
-72.4502
0
LINE
8
BLACK
6
CONTINUOUS
10
121.871
20
-72.4502
11
121.87
21
-72.4455
0
LINE
8
BLACK
6
CONTINUOUS
10
121.87
20
-72.4455
11
121.87
21
-72.4408
0
LINE
8
BLACK
6
CONTINUOUS
10
121.87
20
-72.4408
11
121.87
21
-71.8058
0
LINE
8
BLACK
6
CONTINUOUS
10
121.87
20
-71.8058
11
121.87
21
-71.8055
0
LINE
8
BLACK
6
CONTINUOUS
10
121.87
20
-71.8055
11
121.87
21
-71.8055
0
LINE
8
BLACK
6
CONTINUOUS
10
121.87
20
-71.8055
11
121.87
21
-71.8054
0
LINE
8
BLACK
6
CONTINUOUS
10
121.87
20
-71.8054
11
121.87
21
-71.8051
0
LINE
8
BLACK
6
CONTINUOUS
10
121.87
20
-71.8051
11
121.871
21
-71.8005
0
LINE
8
BLACK
6
CONTINUOUS
10
121.871
20
-71.8005
11
121.871
21
-71.7957
0
LINE
8
BLACK
6
CONTINUOUS
10
121.871
20
-71.7957
11
121.871
21
-71.7956
0
LINE
8
BLACK
6
CONTINUOUS
10
121.871
20
-71.7956
11
121.871
21
-71.7954
0
LINE
8
BLACK
6
CONTINUOUS
10
121.871
20
-71.7954
11
121.873
21
-71.7909
0
LINE
8
BLACK
6
CONTINUOUS
10
121.873
20
-71.7909
11
121.874
21
-71.7864
0
LINE
8
BLACK
6
CONTINUOUS
10
121.874
20
-71.7864
11
121.874
21
-71.7863
0
LINE
8
BLACK
6
CONTINUOUS
10
121.874
20
-71.7863
11
121.874
21
-71.7861
0
LINE
8
BLACK
6
CONTINUOUS
10
121.874
20
-71.7861
11
121.876
21
-71.782
0
LINE
8
BLACK
6
CONTINUOUS
10
121.876
20
-71.782
11
121.879
21
-71.7778
0
LINE
8
BLACK
6
CONTINUOUS
10
121.879
20
-71.7778
11
121.879
21
-71.7777
0
LINE
8
BLACK
6
CONTINUOUS
10
121.879
20
-71.7777
11
121.879
21
-71.7776
0
LINE
8
BLACK
6
CONTINUOUS
10
121.879
20
-71.7776
11
121.882
21
-71.774
0
LINE
8
BLACK
6
CONTINUOUS
10
121.882
20
-71.774
11
121.885
21
-71.7703
0
LINE
8
BLACK
6
CONTINUOUS
10
121.885
20
-71.7703
11
121.885
21
-71.7702
0
LINE
8
BLACK
6
CONTINUOUS
10
121.885
20
-71.7702
11
121.885
21
-71.7701
0
LINE
8
BLACK
6
CONTINUOUS
10
121.885
20
-71.7701
11
121.889
21
-71.7672
0
LINE
8
BLACK
6
CONTINUOUS
10
121.889
20
-71.7672
11
121.892
21
-71.7642
0
LINE
8
BLACK
6
CONTINUOUS
10
121.892
20
-71.7642
11
121.892
21
-71.7641
0
LINE
8
BLACK
6
CONTINUOUS
10
121.892
20
-71.7641
11
121.893
21
-71.764
0
LINE
8
BLACK
6
CONTINUOUS
10
121.893
20
-71.764
11
121.897
21
-71.7618
0
LINE
8
BLACK
6
CONTINUOUS
10
121.897
20
-71.7618
11
121.901
21
-71.7596
0
LINE
8
BLACK
6
CONTINUOUS
10
121.901
20
-71.7596
11
121.901
21
-71.7595
0
LINE
8
BLACK
6
CONTINUOUS
10
121.901
20
-71.7595
11
121.901
21
-71.7594
0
LINE
8
BLACK
6
CONTINUOUS
10
121.901
20
-71.7594
11
121.906
21
-71.7581
0
LINE
8
BLACK
6
CONTINUOUS
10
121.906
20
-71.7581
11
121.91
21
-71.7568
0
LINE
8
BLACK
6
CONTINUOUS
10
121.91
20
-71.7568
11
121.91
21
-71.7567
0
LINE
8
BLACK
6
CONTINUOUS
10
121.91
20
-71.7567
11
121.911
21
-71.7567
0
LINE
8
BLACK
6
CONTINUOUS
10
121.911
20
-71.7567
11
121.915
21
-71.7563
0
LINE
8
BLACK
6
CONTINUOUS
10
121.915
20
-71.7563
11
121.92
21
-71.7558
0
LINE
8
BLACK
6
CONTINUOUS
10
121.92
20
-71.7558
11
122.555
21
-71.7558
0
LINE
8
BLACK
6
CONTINUOUS
10
122.555
20
-71.7558
11
122.555
21
-71.7558
0
LINE
8
BLACK
6
CONTINUOUS
10
121.335
20
-70.5361
11
121.335
21
-70.5361
0
LINE
8
BLACK
6
CONTINUOUS
10
121.335
20
-70.5361
11
121.335
21
-70.5362
0
LINE
8
BLACK
6
CONTINUOUS
10
121.335
20
-70.5362
11
121.335
21
-70.5365
0
LINE
8
BLACK
6
CONTINUOUS
10
121.335
20
-70.5365
11
121.334
21
-70.5411
0
LINE
8
BLACK
6
CONTINUOUS
10
121.334
20
-70.5411
11
121.334
21
-70.5459
0
LINE
8
BLACK
6
CONTINUOUS
10
121.334
20
-70.5459
11
121.334
21
-70.546
0
LINE
8
BLACK
6
CONTINUOUS
10
121.334
20
-70.546
11
121.334
21
-70.5462
0
LINE
8
BLACK
6
CONTINUOUS
10
121.334
20
-70.5462
11
121.332
21
-70.5507
0
LINE
8
BLACK
6
CONTINUOUS
10
121.332
20
-70.5507
11
121.331
21
-70.5552
0
LINE
8
BLACK
6
CONTINUOUS
10
121.331
20
-70.5552
11
121.331
21
-70.5553
0
LINE
8
BLACK
6
CONTINUOUS
10
121.331
20
-70.5553
11
121.331
21
-70.5555
0
LINE
8
BLACK
6
CONTINUOUS
10
121.331
20
-70.5555
11
121.329
21
-70.5596
0
LINE
8
BLACK
6
CONTINUOUS
10
121.329
20
-70.5596
11
121.326
21
-70.5638
0
LINE
8
BLACK
6
CONTINUOUS
10
121.326
20
-70.5638
11
121.326
21
-70.5639
0
LINE
8
BLACK
6
CONTINUOUS
10
121.326
20
-70.5639
11
121.326
21
-70.564
0
LINE
8
BLACK
6
CONTINUOUS
10
121.326
20
-70.564
11
121.323
21
-70.5676
0
LINE
8
BLACK
6
CONTINUOUS
10
121.323
20
-70.5676
11
121.32
21
-70.5713
0
LINE
8
BLACK
6
CONTINUOUS
10
121.32
20
-70.5713
11
121.32
21
-70.5714
0
LINE
8
BLACK
6
CONTINUOUS
10
121.32
20
-70.5714
11
121.32
21
-70.5715
0
LINE
8
BLACK
6
CONTINUOUS
10
121.32
20
-70.5715
11
121.316
21
-70.5744
0
LINE
8
BLACK
6
CONTINUOUS
10
121.316
20
-70.5744
11
121.313
21
-70.5774
0
LINE
8
BLACK
6
CONTINUOUS
10
121.313
20
-70.5774
11
121.313
21
-70.5775
0
LINE
8
BLACK
6
CONTINUOUS
10
121.313
20
-70.5775
11
121.312
21
-70.5776
0
LINE
8
BLACK
6
CONTINUOUS
10
121.312
20
-70.5776
11
121.308
21
-70.5798
0
LINE
8
BLACK
6
CONTINUOUS
10
121.308
20
-70.5798
11
121.304
21
-70.582
0
LINE
8
BLACK
6
CONTINUOUS
10
121.304
20
-70.582
11
121.304
21
-70.5821
0
LINE
8
BLACK
6
CONTINUOUS
10
121.304
20
-70.5821
11
121.304
21
-70.5822
0
LINE
8
BLACK
6
CONTINUOUS
10
121.304
20
-70.5822
11
121.299
21
-70.5835
0
LINE
8
BLACK
6
CONTINUOUS
10
121.299
20
-70.5835
11
121.295
21
-70.5848
0
LINE
8
BLACK
6
CONTINUOUS
10
121.295
20
-70.5848
11
121.295
21
-70.5849
0
LINE
8
BLACK
6
CONTINUOUS
10
121.295
20
-70.5849
11
121.294
21
-70.5849
0
LINE
8
BLACK
6
CONTINUOUS
10
121.294
20
-70.5849
11
121.29
21
-70.5853
0
LINE
8
BLACK
6
CONTINUOUS
10
121.29
20
-70.5853
11
121.285
21
-70.5858
0
LINE
8
BLACK
6
CONTINUOUS
10
121.285
20
-70.5858
11
120.7
21
-70.5858
0
LINE
8
BLACK
6
CONTINUOUS
10
120.7
20
-70.5858
11
120.7
21
-71.1208
0
LINE
8
BLACK
6
CONTINUOUS
10
120.7
20
-71.1208
11
121.285
21
-71.1208
0
LINE
8
BLACK
6
CONTINUOUS
10
121.285
20
-71.1208
11
121.285
21
-71.1208
0
LINE
8
BLACK
6
CONTINUOUS
10
121.285
20
-71.1208
11
121.285
21
-71.1208
0
LINE
8
BLACK
6
CONTINUOUS
10
121.285
20
-71.1208
11
121.285
21
-71.1208
0
LINE
8
BLACK
6
CONTINUOUS
10
121.285
20
-71.1208
11
121.286
21
-71.1208
0
LINE
8
BLACK
6
CONTINUOUS
10
121.286
20
-71.1208
11
121.29
21
-71.1213
0
LINE
8
BLACK
6
CONTINUOUS
10
121.29
20
-71.1213
11
121.295
21
-71.1218
0
LINE
8
BLACK
6
CONTINUOUS
10
121.295
20
-71.1218
11
121.295
21
-71.1219
0
LINE
8
BLACK
6
CONTINUOUS
10
121.295
20
-71.1219
11
121.295
21
-71.1219
0
LINE
8
BLACK
6
CONTINUOUS
10
121.295
20
-71.1219
11
121.3
21
-71.1233
0
LINE
8
BLACK
6
CONTINUOUS
10
121.3
20
-71.1233
11
121.304
21
-71.1247
0
LINE
8
BLACK
6
CONTINUOUS
10
121.304
20
-71.1247
11
121.305
21
-71.1248
0
LINE
8
BLACK
6
CONTINUOUS
10
121.305
20
-71.1248
11
121.305
21
-71.1248
0
LINE
8
BLACK
6
CONTINUOUS
10
121.305
20
-71.1248
11
121.309
21
-71.1271
0
LINE
8
BLACK
6
CONTINUOUS
10
121.309
20
-71.1271
11
121.313
21
-71.1293
0
LINE
8
BLACK
6
CONTINUOUS
10
121.313
20
-71.1293
11
121.313
21
-71.1295
0
LINE
8
BLACK
6
CONTINUOUS
10
121.313
20
-71.1295
11
121.313
21
-71.1295
0
LINE
8
BLACK
6
CONTINUOUS
10
121.313
20
-71.1295
11
121.317
21
-71.1325
0
LINE
8
BLACK
6
CONTINUOUS
10
121.317
20
-71.1325
11
121.32
21
-71.1356
0
LINE
8
BLACK
6
CONTINUOUS
10
121.32
20
-71.1356
11
121.321
21
-71.1357
0
LINE
8
BLACK
6
CONTINUOUS
10
121.321
20
-71.1357
11
121.321
21
-71.1358
0
LINE
8
BLACK
6
CONTINUOUS
10
121.321
20
-71.1358
11
121.324
21
-71.1394
0
LINE
8
BLACK
6
CONTINUOUS
10
121.324
20
-71.1394
11
121.327
21
-71.1431
0
LINE
8
BLACK
6
CONTINUOUS
10
121.327
20
-71.1431
11
121.327
21
-71.1433
0
LINE
8
BLACK
6
CONTINUOUS
10
121.327
20
-71.1433
11
121.327
21
-71.1434
0
LINE
8
BLACK
6
CONTINUOUS
10
121.327
20
-71.1434
11
121.329
21
-71.1475
0
LINE
8
BLACK
6
CONTINUOUS
10
121.329
20
-71.1475
11
121.331
21
-71.1517
0
LINE
8
BLACK
6
CONTINUOUS
10
121.331
20
-71.1517
11
121.331
21
-71.1519
0
LINE
8
BLACK
6
CONTINUOUS
10
121.331
20
-71.1519
11
121.331
21
-71.1521
0
LINE
8
BLACK
6
CONTINUOUS
10
121.331
20
-71.1521
11
121.333
21
-71.1565
0
LINE
8
BLACK
6
CONTINUOUS
10
121.333
20
-71.1565
11
121.334
21
-71.1611
0
LINE
8
BLACK
6
CONTINUOUS
10
121.334
20
-71.1611
11
121.334
21
-71.1613
0
LINE
8
BLACK
6
CONTINUOUS
10
121.334
20
-71.1613
11
121.334
21
-71.1614
0
LINE
8
BLACK
6
CONTINUOUS
10
121.334
20
-71.1614
11
121.335
21
-71.1661
0
LINE
8
BLACK
6
CONTINUOUS
10
121.335
20
-71.1661
11
121.335
21
-71.1708
0
LINE
8
BLACK
6
CONTINUOUS
10
121.335
20
-71.1708
11
121.335
21
-71.8058
0
LINE
8
BLACK
6
CONTINUOUS
10
121.335
20
-71.8058
11
121.335
21
-71.8061
0
LINE
8
BLACK
6
CONTINUOUS
10
121.335
20
-71.8061
11
121.335
21
-71.8061
0
LINE
8
BLACK
6
CONTINUOUS
10
121.335
20
-71.8061
11
121.335
21
-71.8062
0
LINE
8
BLACK
6
CONTINUOUS
10
121.335
20
-71.8062
11
121.335
21
-71.8065
0
LINE
8
BLACK
6
CONTINUOUS
10
121.335
20
-71.8065
11
121.334
21
-71.8111
0
LINE
8
BLACK
6
CONTINUOUS
10
121.334
20
-71.8111
11
121.334
21
-71.8159
0
LINE
8
BLACK
6
CONTINUOUS
10
121.334
20
-71.8159
11
121.334
21
-71.816
0
LINE
8
BLACK
6
CONTINUOUS
10
121.334
20
-71.816
11
121.334
21
-71.8162
0
LINE
8
BLACK
6
CONTINUOUS
10
121.334
20
-71.8162
11
121.332
21
-71.8207
0
LINE
8
BLACK
6
CONTINUOUS
10
121.332
20
-71.8207
11
121.331
21
-71.8252
0
LINE
8
BLACK
6
CONTINUOUS
10
121.331
20
-71.8252
11
121.331
21
-71.8253
0
LINE
8
BLACK
6
CONTINUOUS
10
121.331
20
-71.8253
11
121.331
21
-71.8255
0
LINE
8
BLACK
6
CONTINUOUS
10
121.331
20
-71.8255
11
121.329
21
-71.8296
0
LINE
8
BLACK
6
CONTINUOUS
10
121.329
20
-71.8296
11
121.326
21
-71.8338
0
LINE
8
BLACK
6
CONTINUOUS
10
121.326
20
-71.8338
11
121.326
21
-71.8339
0
LINE
8
BLACK
6
CONTINUOUS
10
121.326
20
-71.8339
11
121.326
21
-71.834
0
LINE
8
BLACK
6
CONTINUOUS
10
121.326
20
-71.834
11
121.323
21
-71.8376
0
LINE
8
BLACK
6
CONTINUOUS
10
121.323
20
-71.8376
11
121.32
21
-71.8413
0
LINE
8
BLACK
6
CONTINUOUS
10
121.32
20
-71.8413
11
121.32
21
-71.8414
0
LINE
8
BLACK
6
CONTINUOUS
10
121.32
20
-71.8414
11
121.32
21
-71.8415
0
LINE
8
BLACK
6
CONTINUOUS
10
121.32
20
-71.8415
11
121.316
21
-71.8444
0
LINE
8
BLACK
6
CONTINUOUS
10
121.316
20
-71.8444
11
121.313
21
-71.8474
0
LINE
8
BLACK
6
CONTINUOUS
10
121.313
20
-71.8474
11
121.313
21
-71.8475
0
LINE
8
BLACK
6
CONTINUOUS
10
121.313
20
-71.8475
11
121.312
21
-71.8476
0
LINE
8
BLACK
6
CONTINUOUS
10
121.312
20
-71.8476
11
121.308
21
-71.8498
0
LINE
8
BLACK
6
CONTINUOUS
10
121.308
20
-71.8498
11
121.304
21
-71.852
0
LINE
8
BLACK
6
CONTINUOUS
10
121.304
20
-71.852
11
121.304
21
-71.8521
0
LINE
8
BLACK
6
CONTINUOUS
10
121.304
20
-71.8521
11
121.304
21
-71.8522
0
LINE
8
BLACK
6
CONTINUOUS
10
121.304
20
-71.8522
11
121.299
21
-71.8535
0
LINE
8
BLACK
6
CONTINUOUS
10
121.299
20
-71.8535
11
121.295
21
-71.8548
0
LINE
8
BLACK
6
CONTINUOUS
10
121.295
20
-71.8548
11
121.295
21
-71.8549
0
LINE
8
BLACK
6
CONTINUOUS
10
121.295
20
-71.8549
11
121.294
21
-71.8549
0
LINE
8
BLACK
6
CONTINUOUS
10
121.294
20
-71.8549
11
121.29
21
-71.8553
0
LINE
8
BLACK
6
CONTINUOUS
10
121.29
20
-71.8553
11
121.285
21
-71.8558
0
LINE
8
BLACK
6
CONTINUOUS
10
121.285
20
-71.8558
11
119.38
21
-71.8558
0
LINE
8
BLACK
6
CONTINUOUS
10
119.38
20
-71.8558
11
119.38
21
-71.8558
0
LINE
8
BLACK
6
CONTINUOUS
10
119.38
20
-71.8558
11
119.38
21
-71.8558
0
LINE
8
BLACK
6
CONTINUOUS
10
119.38
20
-71.8558
11
119.38
21
-71.8558
0
LINE
8
BLACK
6
CONTINUOUS
10
119.38
20
-71.8558
11
119.379
21
-71.8558
0
LINE
8
BLACK
6
CONTINUOUS
10
119.379
20
-71.8558
11
119.375
21
-71.8553
0
LINE
8
BLACK
6
CONTINUOUS
10
119.375
20
-71.8553
11
119.37
21
-71.8548
0
LINE
8
BLACK
6
CONTINUOUS
10
119.37
20
-71.8548
11
119.37
21
-71.8547
0
LINE
8
BLACK
6
CONTINUOUS
10
119.37
20
-71.8547
11
119.37
21
-71.8547
0
LINE
8
BLACK
6
CONTINUOUS
10
119.37
20
-71.8547
11
119.365
21
-71.8533
0
LINE
8
BLACK
6
CONTINUOUS
10
119.365
20
-71.8533
11
119.361
21
-71.8519
0
LINE
8
BLACK
6
CONTINUOUS
10
119.361
20
-71.8519
11
119.36
21
-71.8518
0
LINE
8
BLACK
6
CONTINUOUS
10
119.36
20
-71.8518
11
119.36
21
-71.8518
0
LINE
8
BLACK
6
CONTINUOUS
10
119.36
20
-71.8518
11
119.356
21
-71.8495
0
LINE
8
BLACK
6
CONTINUOUS
10
119.356
20
-71.8495
11
119.352
21
-71.8473
0
LINE
8
BLACK
6
CONTINUOUS
10
119.352
20
-71.8473
11
119.352
21
-71.8471
0
LINE
8
BLACK
6
CONTINUOUS
10
119.352
20
-71.8471
11
119.352
21
-71.8471
0
LINE
8
BLACK
6
CONTINUOUS
10
119.352
20
-71.8471
11
119.348
21
-71.8441
0
LINE
8
BLACK
6
CONTINUOUS
10
119.348
20
-71.8441
11
119.345
21
-71.841
0
LINE
8
BLACK
6
CONTINUOUS
10
119.345
20
-71.841
11
119.344
21
-71.8409
0
LINE
8
BLACK
6
CONTINUOUS
10
119.344
20
-71.8409
11
119.344
21
-71.8408
0
LINE
8
BLACK
6
CONTINUOUS
10
119.344
20
-71.8408
11
119.341
21
-71.8372
0
LINE
8
BLACK
6
CONTINUOUS
10
119.341
20
-71.8372
11
119.338
21
-71.8335
0
LINE
8
BLACK
6
CONTINUOUS
10
119.338
20
-71.8335
11
119.338
21
-71.8333
0
LINE
8
BLACK
6
CONTINUOUS
10
119.338
20
-71.8333
11
119.338
21
-71.8332
0
LINE
8
BLACK
6
CONTINUOUS
10
119.338
20
-71.8332
11
119.336
21
-71.8291
0
LINE
8
BLACK
6
CONTINUOUS
10
119.336
20
-71.8291
11
119.334
21
-71.8249
0
LINE
8
BLACK
6
CONTINUOUS
10
119.334
20
-71.8249
11
119.334
21
-71.8247
0
LINE
8
BLACK
6
CONTINUOUS
10
119.334
20
-71.8247
11
119.334
21
-71.8245
0
LINE
8
BLACK
6
CONTINUOUS
10
119.334
20
-71.8245
11
119.332
21
-71.8201
0
LINE
8
BLACK
6
CONTINUOUS
10
119.332
20
-71.8201
11
119.331
21
-71.8155
0
LINE
8
BLACK
6
CONTINUOUS
10
119.331
20
-71.8155
11
119.331
21
-71.8153
0
LINE
8
BLACK
6
CONTINUOUS
10
119.331
20
-71.8153
11
119.331
21
-71.8152
0
LINE
8
BLACK
6
CONTINUOUS
10
119.331
20
-71.8152
11
119.33
21
-71.8105
0
LINE
8
BLACK
6
CONTINUOUS
10
119.33
20
-71.8105
11
119.33
21
-71.8058
0
LINE
8
BLACK
6
CONTINUOUS
10
119.33
20
-71.8058
11
119.33
21
-71.2208
0
LINE
8
BLACK
6
CONTINUOUS
10
119.33
20
-71.2208
11
118.745
21
-71.2208
0
LINE
8
BLACK
6
CONTINUOUS
10
118.745
20
-71.2208
11
118.745
21
-71.2208
0
LINE
8
BLACK
6
CONTINUOUS
10
118.745
20
-71.2208
11
118.745
21
-71.2208
0
LINE
8
BLACK
6
CONTINUOUS
10
118.745
20
-71.2208
11
118.745
21
-71.2208
0
LINE
8
BLACK
6
CONTINUOUS
10
118.745
20
-71.2208
11
118.744
21
-71.2208
0
LINE
8
BLACK
6
CONTINUOUS
10
118.744
20
-71.2208
11
118.74
21
-71.2203
0
LINE
8
BLACK
6
CONTINUOUS
10
118.74
20
-71.2203
11
118.735
21
-71.2198
0
LINE
8
BLACK
6
CONTINUOUS
10
118.735
20
-71.2198
11
118.735
21
-71.2197
0
LINE
8
BLACK
6
CONTINUOUS
10
118.735
20
-71.2197
11
118.735
21
-71.2197
0
LINE
8
BLACK
6
CONTINUOUS
10
118.735
20
-71.2197
11
118.73
21
-71.2183
0
LINE
8
BLACK
6
CONTINUOUS
10
118.73
20
-71.2183
11
118.726
21
-71.2169
0
LINE
8
BLACK
6
CONTINUOUS
10
118.726
20
-71.2169
11
118.725
21
-71.2168
0
LINE
8
BLACK
6
CONTINUOUS
10
118.725
20
-71.2168
11
118.725
21
-71.2168
0
LINE
8
BLACK
6
CONTINUOUS
10
118.725
20
-71.2168
11
118.721
21
-71.2145
0
LINE
8
BLACK
6
CONTINUOUS
10
118.721
20
-71.2145
11
118.717
21
-71.2123
0
LINE
8
BLACK
6
CONTINUOUS
10
118.717
20
-71.2123
11
118.717
21
-71.2121
0
LINE
8
BLACK
6
CONTINUOUS
10
118.717
20
-71.2121
11
118.717
21
-71.2121
0
LINE
8
BLACK
6
CONTINUOUS
10
118.717
20
-71.2121
11
118.713
21
-71.2091
0
LINE
8
BLACK
6
CONTINUOUS
10
118.713
20
-71.2091
11
118.71
21
-71.206
0
LINE
8
BLACK
6
CONTINUOUS
10
118.71
20
-71.206
11
118.709
21
-71.2059
0
LINE
8
BLACK
6
CONTINUOUS
10
118.709
20
-71.2059
11
118.709
21
-71.2058
0
LINE
8
BLACK
6
CONTINUOUS
10
118.709
20
-71.2058
11
118.706
21
-71.2022
0
LINE
8
BLACK
6
CONTINUOUS
10
118.706
20
-71.2022
11
118.703
21
-71.1985
0
LINE
8
BLACK
6
CONTINUOUS
10
118.703
20
-71.1985
11
118.703
21
-71.1983
0
LINE
8
BLACK
6
CONTINUOUS
10
118.703
20
-71.1983
11
118.703
21
-71.1982
0
LINE
8
BLACK
6
CONTINUOUS
10
118.703
20
-71.1982
11
118.701
21
-71.1941
0
LINE
8
BLACK
6
CONTINUOUS
10
118.701
20
-71.1941
11
118.699
21
-71.1899
0
LINE
8
BLACK
6
CONTINUOUS
10
118.699
20
-71.1899
11
118.699
21
-71.1897
0
LINE
8
BLACK
6
CONTINUOUS
10
118.699
20
-71.1897
11
118.699
21
-71.1895
0
LINE
8
BLACK
6
CONTINUOUS
10
118.699
20
-71.1895
11
118.697
21
-71.1851
0
LINE
8
BLACK
6
CONTINUOUS
10
118.697
20
-71.1851
11
118.696
21
-71.1805
0
LINE
8
BLACK
6
CONTINUOUS
10
118.696
20
-71.1805
11
118.696
21
-71.1803
0
LINE
8
BLACK
6
CONTINUOUS
10
118.696
20
-71.1803
11
118.696
21
-71.1802
0
LINE
8
BLACK
6
CONTINUOUS
10
118.696
20
-71.1802
11
118.695
21
-71.1755
0
LINE
8
BLACK
6
CONTINUOUS
10
118.695
20
-71.1755
11
118.695
21
-71.1708
0
LINE
8
BLACK
6
CONTINUOUS
10
118.695
20
-71.1708
11
118.695
21
-70.5858
0
LINE
8
BLACK
6
CONTINUOUS
10
118.695
20
-70.5858
11
118.11
21
-70.5858
0
LINE
8
BLACK
6
CONTINUOUS
10
118.11
20
-70.5858
11
118.11
21
-70.5858
0
LINE
8
BLACK
6
CONTINUOUS
10
118.11
20
-70.5858
11
118.11
21
-70.5858
0
LINE
8
BLACK
6
CONTINUOUS
10
118.11
20
-70.5858
11
118.11
21
-70.5858
0
LINE
8
BLACK
6
CONTINUOUS
10
118.11
20
-70.5858
11
118.109
21
-70.5858
0
LINE
8
BLACK
6
CONTINUOUS
10
118.109
20
-70.5858
11
118.105
21
-70.5853
0
LINE
8
BLACK
6
CONTINUOUS
10
118.105
20
-70.5853
11
118.1
21
-70.5848
0
LINE
8
BLACK
6
CONTINUOUS
10
118.1
20
-70.5848
11
118.1
21
-70.5847
0
LINE
8
BLACK
6
CONTINUOUS
10
118.1
20
-70.5847
11
118.1
21
-70.5847
0
LINE
8
BLACK
6
CONTINUOUS
10
118.1
20
-70.5847
11
118.095
21
-70.5833
0
LINE
8
BLACK
6
CONTINUOUS
10
118.095
20
-70.5833
11
118.091
21
-70.5819
0
LINE
8
BLACK
6
CONTINUOUS
10
118.091
20
-70.5819
11
118.09
21
-70.5818
0
LINE
8
BLACK
6
CONTINUOUS
10
118.09
20
-70.5818
11
118.09
21
-70.5818
0
LINE
8
BLACK
6
CONTINUOUS
10
118.09
20
-70.5818
11
118.086
21
-70.5795
0
LINE
8
BLACK
6
CONTINUOUS
10
118.086
20
-70.5795
11
118.082
21
-70.5773
0
LINE
8
BLACK
6
CONTINUOUS
10
118.082
20
-70.5773
11
118.082
21
-70.5771
0
LINE
8
BLACK
6
CONTINUOUS
10
118.082
20
-70.5771
11
118.082
21
-70.5771
0
LINE
8
BLACK
6
CONTINUOUS
10
118.082
20
-70.5771
11
118.078
21
-70.5741
0
LINE
8
BLACK
6
CONTINUOUS
10
118.078
20
-70.5741
11
118.075
21
-70.571
0
LINE
8
BLACK
6
CONTINUOUS
10
118.075
20
-70.571
11
118.074
21
-70.5709
0
LINE
8
BLACK
6
CONTINUOUS
10
118.074
20
-70.5709
11
118.074
21
-70.5708
0
LINE
8
BLACK
6
CONTINUOUS
10
118.074
20
-70.5708
11
118.071
21
-70.5672
0
LINE
8
BLACK
6
CONTINUOUS
10
118.071
20
-70.5672
11
118.068
21
-70.5635
0
LINE
8
BLACK
6
CONTINUOUS
10
118.068
20
-70.5635
11
118.068
21
-70.5633
0
LINE
8
BLACK
6
CONTINUOUS
10
118.068
20
-70.5633
11
118.068
21
-70.5632
0
LINE
8
BLACK
6
CONTINUOUS
10
118.068
20
-70.5632
11
118.066
21
-70.5591
0
LINE
8
BLACK
6
CONTINUOUS
10
118.066
20
-70.5591
11
118.064
21
-70.5549
0
LINE
8
BLACK
6
CONTINUOUS
10
118.064
20
-70.5549
11
118.064
21
-70.5547
0
LINE
8
BLACK
6
CONTINUOUS
10
118.064
20
-70.5547
11
118.064
21
-70.5545
0
LINE
8
BLACK
6
CONTINUOUS
10
118.064
20
-70.5545
11
118.062
21
-70.5501
0
LINE
8
BLACK
6
CONTINUOUS
10
118.062
20
-70.5501
11
118.061
21
-70.5455
0
LINE
8
BLACK
6
CONTINUOUS
10
118.061
20
-70.5455
11
118.061
21
-70.5453
0
LINE
8
BLACK
6
CONTINUOUS
10
118.061
20
-70.5453
11
118.061
21
-70.5452
0
LINE
8
BLACK
6
CONTINUOUS
10
118.061
20
-70.5452
11
118.06
21
-70.5405
0
LINE
8
BLACK
6
CONTINUOUS
10
118.06
20
-70.5405
11
118.06
21
-70.5358
0
LINE
8
BLACK
6
CONTINUOUS
10
118.06
20
-70.5358
11
118.06
21
-69.9008
0
LINE
8
BLACK
6
CONTINUOUS
10
118.06
20
-69.9008
11
118.06
21
-69.9005
0
LINE
8
BLACK
6
CONTINUOUS
10
118.06
20
-69.9005
11
118.06
21
-69.9005
0
LINE
8
BLACK
6
CONTINUOUS
10
118.06
20
-69.9005
11
118.06
21
-69.9004
0
LINE
8
BLACK
6
CONTINUOUS
10
118.06
20
-69.9004
11
118.06
21
-69.9001
0
LINE
8
BLACK
6
CONTINUOUS
10
118.06
20
-69.9001
11
118.061
21
-69.8955
0
LINE
8
BLACK
6
CONTINUOUS
10
118.061
20
-69.8955
11
118.061
21
-69.8907
0
LINE
8
BLACK
6
CONTINUOUS
10
118.061
20
-69.8907
11
118.061
21
-69.8906
0
LINE
8
BLACK
6
CONTINUOUS
10
118.061
20
-69.8906
11
118.061
21
-69.8904
0
LINE
8
BLACK
6
CONTINUOUS
10
118.061
20
-69.8904
11
118.063
21
-69.8859
0
LINE
8
BLACK
6
CONTINUOUS
10
118.063
20
-69.8859
11
118.064
21
-69.8814
0
LINE
8
BLACK
6
CONTINUOUS
10
118.064
20
-69.8814
11
118.064
21
-69.8813
0
LINE
8
BLACK
6
CONTINUOUS
10
118.064
20
-69.8813
11
118.064
21
-69.8811
0
LINE
8
BLACK
6
CONTINUOUS
10
118.064
20
-69.8811
11
118.066
21
-69.877
0
LINE
8
BLACK
6
CONTINUOUS
10
118.066
20
-69.877
11
118.069
21
-69.8728
0
LINE
8
BLACK
6
CONTINUOUS
10
118.069
20
-69.8728
11
118.069
21
-69.8727
0
LINE
8
BLACK
6
CONTINUOUS
10
118.069
20
-69.8727
11
118.069
21
-69.8726
0
LINE
8
BLACK
6
CONTINUOUS
10
118.069
20
-69.8726
11
118.072
21
-69.869
0
LINE
8
BLACK
6
CONTINUOUS
10
118.072
20
-69.869
11
118.075
21
-69.8653
0
LINE
8
BLACK
6
CONTINUOUS
10
118.075
20
-69.8653
11
118.075
21
-69.8652
0
LINE
8
BLACK
6
CONTINUOUS
10
118.075
20
-69.8652
11
118.075
21
-69.8651
0
LINE
8
BLACK
6
CONTINUOUS
10
118.075
20
-69.8651
11
118.079
21
-69.8622
0
LINE
8
BLACK
6
CONTINUOUS
10
118.079
20
-69.8622
11
118.082
21
-69.8592
0
LINE
8
BLACK
6
CONTINUOUS
10
118.082
20
-69.8592
11
118.082
21
-69.8591
0
LINE
8
BLACK
6
CONTINUOUS
10
118.082
20
-69.8591
11
118.083
21
-69.859
0
LINE
8
BLACK
6
CONTINUOUS
10
118.083
20
-69.859
11
118.087
21
-69.8568
0
LINE
8
BLACK
6
CONTINUOUS
10
118.087
20
-69.8568
11
118.091
21
-69.8546
0
LINE
8
BLACK
6
CONTINUOUS
10
118.091
20
-69.8546
11
118.091
21
-69.8545
0
LINE
8
BLACK
6
CONTINUOUS
10
118.091
20
-69.8545
11
118.091
21
-69.8544
0
LINE
8
BLACK
6
CONTINUOUS
10
118.091
20
-69.8544
11
118.096
21
-69.8531
0
LINE
8
BLACK
6
CONTINUOUS
10
118.096
20
-69.8531
11
118.1
21
-69.8518
0
LINE
8
BLACK
6
CONTINUOUS
10
118.1
20
-69.8518
11
118.1
21
-69.8517
0
LINE
8
BLACK
6
CONTINUOUS
10
118.1
20
-69.8517
11
118.101
21
-69.8517
0
LINE
8
BLACK
6
CONTINUOUS
10
118.101
20
-69.8517
11
118.105
21
-69.8513
0
LINE
8
BLACK
6
CONTINUOUS
10
118.105
20
-69.8513
11
118.11
21
-69.8508
0
LINE
8
BLACK
6
CONTINUOUS
10
118.11
20
-69.8508
11
119.33
21
-69.8508
0
LINE
8
BLACK
6
CONTINUOUS
10
119.33
20
-69.8508
11
119.33
21
-69.2658
0
LINE
8
BLACK
6
CONTINUOUS
10
119.33
20
-69.2658
11
119.33
21
-69.2655
0
LINE
8
BLACK
6
CONTINUOUS
10
119.33
20
-69.2655
11
119.33
21
-69.2655
0
LINE
8
BLACK
6
CONTINUOUS
10
119.33
20
-69.2655
11
119.33
21
-69.2654
0
LINE
8
BLACK
6
CONTINUOUS
10
119.33
20
-69.2654
11
119.33
21
-69.2651
0
LINE
8
BLACK
6
CONTINUOUS
10
119.33
20
-69.2651
11
119.331
21
-69.2605
0
LINE
8
BLACK
6
CONTINUOUS
10
119.331
20
-69.2605
11
119.331
21
-69.2557
0
LINE
8
BLACK
6
CONTINUOUS
10
119.331
20
-69.2557
11
119.331
21
-69.2556
0
LINE
8
BLACK
6
CONTINUOUS
10
119.331
20
-69.2556
11
119.331
21
-69.2554
0
LINE
8
BLACK
6
CONTINUOUS
10
119.331
20
-69.2554
11
119.333
21
-69.2509
0
LINE
8
BLACK
6
CONTINUOUS
10
119.333
20
-69.2509
11
119.334
21
-69.2464
0
LINE
8
BLACK
6
CONTINUOUS
10
119.334
20
-69.2464
11
119.334
21
-69.2463
0
LINE
8
BLACK
6
CONTINUOUS
10
119.334
20
-69.2463
11
119.334
21
-69.2461
0
LINE
8
BLACK
6
CONTINUOUS
10
119.334
20
-69.2461
11
119.336
21
-69.242
0
LINE
8
BLACK
6
CONTINUOUS
10
119.336
20
-69.242
11
119.339
21
-69.2378
0
LINE
8
BLACK
6
CONTINUOUS
10
119.339
20
-69.2378
11
119.339
21
-69.2377
0
LINE
8
BLACK
6
CONTINUOUS
10
119.339
20
-69.2377
11
119.339
21
-69.2376
0
LINE
8
BLACK
6
CONTINUOUS
10
119.339
20
-69.2376
11
119.342
21
-69.234
0
LINE
8
BLACK
6
CONTINUOUS
10
119.342
20
-69.234
11
119.345
21
-69.2303
0
LINE
8
BLACK
6
CONTINUOUS
10
119.345
20
-69.2303
11
119.345
21
-69.2302
0
LINE
8
BLACK
6
CONTINUOUS
10
119.345
20
-69.2302
11
119.345
21
-69.2301
0
LINE
8
BLACK
6
CONTINUOUS
10
119.345
20
-69.2301
11
119.349
21
-69.2272
0
LINE
8
BLACK
6
CONTINUOUS
10
119.349
20
-69.2272
11
119.352
21
-69.2242
0
LINE
8
BLACK
6
CONTINUOUS
10
119.352
20
-69.2242
11
119.352
21
-69.2241
0
LINE
8
BLACK
6
CONTINUOUS
10
119.352
20
-69.2241
11
119.353
21
-69.224
0
LINE
8
BLACK
6
CONTINUOUS
10
119.353
20
-69.224
11
119.357
21
-69.2218
0
LINE
8
BLACK
6
CONTINUOUS
10
119.357
20
-69.2218
11
119.361
21
-69.2196
0
LINE
8
BLACK
6
CONTINUOUS
10
119.361
20
-69.2196
11
119.361
21
-69.2195
0
LINE
8
BLACK
6
CONTINUOUS
10
119.361
20
-69.2195
11
119.361
21
-69.2194
0
LINE
8
BLACK
6
CONTINUOUS
10
119.361
20
-69.2194
11
119.366
21
-69.2181
0
LINE
8
BLACK
6
CONTINUOUS
10
119.366
20
-69.2181
11
119.37
21
-69.2168
0
LINE
8
BLACK
6
CONTINUOUS
10
119.37
20
-69.2168
11
119.37
21
-69.2167
0
LINE
8
BLACK
6
CONTINUOUS
10
119.37
20
-69.2167
11
119.371
21
-69.2167
0
LINE
8
BLACK
6
CONTINUOUS
10
119.371
20
-69.2167
11
119.375
21
-69.2163
0
LINE
8
BLACK
6
CONTINUOUS
10
119.375
20
-69.2163
11
119.38
21
-69.2158
0
LINE
8
BLACK
6
CONTINUOUS
10
119.38
20
-69.2158
11
120.015
21
-69.2158
0
LINE
8
BLACK
6
CONTINUOUS
10
120.015
20
-69.2158
11
120.015
21
-69.2158
0
LINE
8
BLACK
6
CONTINUOUS
10
120.015
20
-69.2158
11
120.015
21
-69.2158
0
LINE
8
BLACK
6
CONTINUOUS
10
120.015
20
-69.2158
11
120.015
21
-69.2158
0
LINE
8
BLACK
6
CONTINUOUS
10
120.015
20
-69.2158
11
120.016
21
-69.2158
0
LINE
8
BLACK
6
CONTINUOUS
10
120.016
20
-69.2158
11
120.02
21
-69.2163
0
LINE
8
BLACK
6
CONTINUOUS
10
120.02
20
-69.2163
11
120.025
21
-69.2168
0
LINE
8
BLACK
6
CONTINUOUS
10
120.025
20
-69.2168
11
120.025
21
-69.2169
0
LINE
8
BLACK
6
CONTINUOUS
10
120.025
20
-69.2169
11
120.025
21
-69.2169
0
LINE
8
BLACK
6
CONTINUOUS
10
120.025
20
-69.2169
11
120.03
21
-69.2183
0
LINE
8
BLACK
6
CONTINUOUS
10
120.03
20
-69.2183
11
120.034
21
-69.2197
0
LINE
8
BLACK
6
CONTINUOUS
10
120.034
20
-69.2197
11
120.035
21
-69.2198
0
LINE
8
BLACK
6
CONTINUOUS
10
120.035
20
-69.2198
11
120.035
21
-69.2198
0
LINE
8
BLACK
6
CONTINUOUS
10
120.035
20
-69.2198
11
120.039
21
-69.2221
0
LINE
8
BLACK
6
CONTINUOUS
10
120.039
20
-69.2221
11
120.043
21
-69.2243
0
LINE
8
BLACK
6
CONTINUOUS
10
120.043
20
-69.2243
11
120.043
21
-69.2245
0
LINE
8
BLACK
6
CONTINUOUS
10
120.043
20
-69.2245
11
120.043
21
-69.2245
0
LINE
8
BLACK
6
CONTINUOUS
10
120.043
20
-69.2245
11
120.047
21
-69.2275
0
LINE
8
BLACK
6
CONTINUOUS
10
120.047
20
-69.2275
11
120.05
21
-69.2306
0
LINE
8
BLACK
6
CONTINUOUS
10
120.05
20
-69.2306
11
120.051
21
-69.2307
0
LINE
8
BLACK
6
CONTINUOUS
10
120.051
20
-69.2307
11
120.051
21
-69.2308
0
LINE
8
BLACK
6
CONTINUOUS
10
120.051
20
-69.2308
11
120.054
21
-69.2344
0
LINE
8
BLACK
6
CONTINUOUS
10
120.054
20
-69.2344
11
120.057
21
-69.2381
0
LINE
8
BLACK
6
CONTINUOUS
10
120.057
20
-69.2381
11
120.057
21
-69.2383
0
LINE
8
BLACK
6
CONTINUOUS
10
120.057
20
-69.2383
11
120.057
21
-69.2384
0
LINE
8
BLACK
6
CONTINUOUS
10
120.057
20
-69.2384
11
120.059
21
-69.2425
0
LINE
8
BLACK
6
CONTINUOUS
10
120.059
20
-69.2425
11
120.061
21
-69.2467
0
LINE
8
BLACK
6
CONTINUOUS
10
120.061
20
-69.2467
11
120.061
21
-69.2469
0
LINE
8
BLACK
6
CONTINUOUS
10
120.061
20
-69.2469
11
120.061
21
-69.2471
0
LINE
8
BLACK
6
CONTINUOUS
10
120.061
20
-69.2471
11
120.063
21
-69.2515
0
LINE
8
BLACK
6
CONTINUOUS
10
120.063
20
-69.2515
11
120.064
21
-69.2561
0
LINE
8
BLACK
6
CONTINUOUS
10
120.064
20
-69.2561
11
120.064
21
-69.2563
0
LINE
8
BLACK
6
CONTINUOUS
10
120.064
20
-69.2563
11
120.064
21
-69.2564
0
LINE
8
BLACK
6
CONTINUOUS
10
120.064
20
-69.2564
11
120.065
21
-69.2611
0
LINE
8
BLACK
6
CONTINUOUS
10
120.065
20
-69.2611
11
120.065
21
-69.2658
0
LINE
8
BLACK
6
CONTINUOUS
10
120.065
20
-69.2658
11
120.065
21
-69.8508
0
LINE
8
BLACK
6
CONTINUOUS
10
120.065
20
-69.8508
11
120.6
21
-69.8508
0
LINE
8
BLACK
6
CONTINUOUS
10
120.6
20
-69.8508
11
120.6
21
-69.2658
0
LINE
8
BLACK
6
CONTINUOUS
10
120.6
20
-69.2658
11
120.6
21
-69.2655
0
LINE
8
BLACK
6
CONTINUOUS
10
120.6
20
-69.2655
11
120.6
21
-69.2655
0
LINE
8
BLACK
6
CONTINUOUS
10
120.6
20
-69.2655
11
120.6
21
-69.2654
0
LINE
8
BLACK
6
CONTINUOUS
10
120.6
20
-69.2654
11
120.6
21
-69.2651
0
LINE
8
BLACK
6
CONTINUOUS
10
120.6
20
-69.2651
11
120.601
21
-69.2605
0
LINE
8
BLACK
6
CONTINUOUS
10
120.601
20
-69.2605
11
120.601
21
-69.2557
0
LINE
8
BLACK
6
CONTINUOUS
10
120.601
20
-69.2557
11
120.601
21
-69.2556
0
LINE
8
BLACK
6
CONTINUOUS
10
120.601
20
-69.2556
11
120.601
21
-69.2554
0
LINE
8
BLACK
6
CONTINUOUS
10
120.601
20
-69.2554
11
120.603
21
-69.2509
0
LINE
8
BLACK
6
CONTINUOUS
10
120.603
20
-69.2509
11
120.604
21
-69.2464
0
LINE
8
BLACK
6
CONTINUOUS
10
120.604
20
-69.2464
11
120.604
21
-69.2463
0
LINE
8
BLACK
6
CONTINUOUS
10
120.604
20
-69.2463
11
120.604
21
-69.2461
0
LINE
8
BLACK
6
CONTINUOUS
10
120.604
20
-69.2461
11
120.606
21
-69.242
0
LINE
8
BLACK
6
CONTINUOUS
10
120.606
20
-69.242
11
120.609
21
-69.2378
0
LINE
8
BLACK
6
CONTINUOUS
10
120.609
20
-69.2378
11
120.609
21
-69.2377
0
LINE
8
BLACK
6
CONTINUOUS
10
120.609
20
-69.2377
11
120.609
21
-69.2376
0
LINE
8
BLACK
6
CONTINUOUS
10
120.609
20
-69.2376
11
120.612
21
-69.234
0
LINE
8
BLACK
6
CONTINUOUS
10
120.612
20
-69.234
11
120.615
21
-69.2303
0
LINE
8
BLACK
6
CONTINUOUS
10
120.615
20
-69.2303
11
120.615
21
-69.2302
0
LINE
8
BLACK
6
CONTINUOUS
10
120.615
20
-69.2302
11
120.615
21
-69.2301
0
LINE
8
BLACK
6
CONTINUOUS
10
120.615
20
-69.2301
11
120.619
21
-69.2272
0
LINE
8
BLACK
6
CONTINUOUS
10
120.619
20
-69.2272
11
120.622
21
-69.2242
0
LINE
8
BLACK
6
CONTINUOUS
10
120.622
20
-69.2242
11
120.622
21
-69.2241
0
LINE
8
BLACK
6
CONTINUOUS
10
120.622
20
-69.2241
11
120.623
21
-69.224
0
LINE
8
BLACK
6
CONTINUOUS
10
120.623
20
-69.224
11
120.627
21
-69.2218
0
LINE
8
BLACK
6
CONTINUOUS
10
120.627
20
-69.2218
11
120.631
21
-69.2196
0
LINE
8
BLACK
6
CONTINUOUS
10
120.631
20
-69.2196
11
120.631
21
-69.2195
0
LINE
8
BLACK
6
CONTINUOUS
10
120.631
20
-69.2195
11
120.631
21
-69.2194
0
LINE
8
BLACK
6
CONTINUOUS
10
120.631
20
-69.2194
11
120.636
21
-69.2181
0
LINE
8
BLACK
6
CONTINUOUS
10
120.636
20
-69.2181
11
120.64
21
-69.2168
0
LINE
8
BLACK
6
CONTINUOUS
10
120.64
20
-69.2168
11
120.64
21
-69.2167
0
LINE
8
BLACK
6
CONTINUOUS
10
120.64
20
-69.2167
11
120.641
21
-69.2167
0
LINE
8
BLACK
6
CONTINUOUS
10
120.641
20
-69.2167
11
120.645
21
-69.2163
0
LINE
8
BLACK
6
CONTINUOUS
10
120.645
20
-69.2163
11
120.65
21
-69.2158
0
LINE
8
BLACK
6
CONTINUOUS
10
120.65
20
-69.2158
11
121.285
21
-69.2158
0
LINE
8
BLACK
6
CONTINUOUS
10
121.285
20
-69.2158
11
121.285
21
-69.2158
0
LINE
8
BLACK
6
CONTINUOUS
10
121.285
20
-69.2158
11
121.285
21
-69.2158
0
LINE
8
BLACK
6
CONTINUOUS
10
121.285
20
-69.2158
11
121.285
21
-69.2158
0
LINE
8
BLACK
6
CONTINUOUS
10
121.285
20
-69.2158
11
121.286
21
-69.2158
0
LINE
8
BLACK
6
CONTINUOUS
10
121.286
20
-69.2158
11
121.29
21
-69.2163
0
LINE
8
BLACK
6
CONTINUOUS
10
121.29
20
-69.2163
11
121.295
21
-69.2168
0
LINE
8
BLACK
6
CONTINUOUS
10
121.295
20
-69.2168
11
121.295
21
-69.2169
0
LINE
8
BLACK
6
CONTINUOUS
10
121.295
20
-69.2169
11
121.295
21
-69.2169
0
LINE
8
BLACK
6
CONTINUOUS
10
121.295
20
-69.2169
11
121.3
21
-69.2183
0
LINE
8
BLACK
6
CONTINUOUS
10
121.3
20
-69.2183
11
121.304
21
-69.2197
0
LINE
8
BLACK
6
CONTINUOUS
10
121.304
20
-69.2197
11
121.305
21
-69.2198
0
LINE
8
BLACK
6
CONTINUOUS
10
121.305
20
-69.2198
11
121.305
21
-69.2198
0
LINE
8
BLACK
6
CONTINUOUS
10
121.305
20
-69.2198
11
121.309
21
-69.2221
0
LINE
8
BLACK
6
CONTINUOUS
10
121.309
20
-69.2221
11
121.313
21
-69.2243
0
LINE
8
BLACK
6
CONTINUOUS
10
121.313
20
-69.2243
11
121.313
21
-69.2245
0
LINE
8
BLACK
6
CONTINUOUS
10
121.313
20
-69.2245
11
121.313
21
-69.2245
0
LINE
8
BLACK
6
CONTINUOUS
10
121.313
20
-69.2245
11
121.317
21
-69.2275
0
LINE
8
BLACK
6
CONTINUOUS
10
121.317
20
-69.2275
11
121.32
21
-69.2306
0
LINE
8
BLACK
6
CONTINUOUS
10
121.32
20
-69.2306
11
121.321
21
-69.2307
0
LINE
8
BLACK
6
CONTINUOUS
10
121.321
20
-69.2307
11
121.321
21
-69.2308
0
LINE
8
BLACK
6
CONTINUOUS
10
121.321
20
-69.2308
11
121.324
21
-69.2344
0
LINE
8
BLACK
6
CONTINUOUS
10
121.324
20
-69.2344
11
121.327
21
-69.2381
0
LINE
8
BLACK
6
CONTINUOUS
10
121.327
20
-69.2381
11
121.327
21
-69.2383
0
LINE
8
BLACK
6
CONTINUOUS
10
121.327
20
-69.2383
11
121.327
21
-69.2384
0
LINE
8
BLACK
6
CONTINUOUS
10
121.327
20
-69.2384
11
121.329
21
-69.2425
0
LINE
8
BLACK
6
CONTINUOUS
10
121.329
20
-69.2425
11
121.331
21
-69.2467
0
LINE
8
BLACK
6
CONTINUOUS
10
121.331
20
-69.2467
11
121.331
21
-69.2469
0
LINE
8
BLACK
6
CONTINUOUS
10
121.331
20
-69.2469
11
121.331
21
-69.2471
0
LINE
8
BLACK
6
CONTINUOUS
10
121.331
20
-69.2471
11
121.333
21
-69.2515
0
LINE
8
BLACK
6
CONTINUOUS
10
121.333
20
-69.2515
11
121.334
21
-69.2561
0
LINE
8
BLACK
6
CONTINUOUS
10
121.334
20
-69.2561
11
121.334
21
-69.2563
0
LINE
8
BLACK
6
CONTINUOUS
10
121.334
20
-69.2563
11
121.334
21
-69.2564
0
LINE
8
BLACK
6
CONTINUOUS
10
121.334
20
-69.2564
11
121.335
21
-69.2611
0
LINE
8
BLACK
6
CONTINUOUS
10
121.335
20
-69.2611
11
121.335
21
-69.2658
0
LINE
8
BLACK
6
CONTINUOUS
10
121.335
20
-69.2658
11
121.335
21
-70.5358
0
LINE
8
BLACK
6
CONTINUOUS
10
121.335
20
-70.5358
11
121.335
21
-70.5361
0
LINE
8
BLACK
6
CONTINUOUS
10
119.43
20
-70.5858
11
119.43
21
-71.1208
0
LINE
8
BLACK
6
CONTINUOUS
10
119.43
20
-71.1208
11
119.965
21
-71.1208
0
LINE
8
BLACK
6
CONTINUOUS
10
119.965
20
-71.1208
11
119.965
21
-70.5858
0
LINE
8
BLACK
6
CONTINUOUS
10
119.965
20
-70.5858
11
119.43
21
-70.5858
0
LINE
8
BLACK
6
CONTINUOUS
10
122.555
20
-69.8508
11
122.555
21
-69.8508
0
LINE
8
BLACK
6
CONTINUOUS
10
122.555
20
-69.8508
11
122.555
21
-69.8508
0
LINE
8
BLACK
6
CONTINUOUS
10
122.555
20
-69.8508
11
122.556
21
-69.8508
0
LINE
8
BLACK
6
CONTINUOUS
10
122.556
20
-69.8508
11
122.56
21
-69.8513
0
LINE
8
BLACK
6
CONTINUOUS
10
122.56
20
-69.8513
11
122.565
21
-69.8518
0
LINE
8
BLACK
6
CONTINUOUS
10
122.565
20
-69.8518
11
122.565
21
-69.8519
0
LINE
8
BLACK
6
CONTINUOUS
10
122.565
20
-69.8519
11
122.565
21
-69.8519
0
LINE
8
BLACK
6
CONTINUOUS
10
122.565
20
-69.8519
11
122.57
21
-69.8533
0
LINE
8
BLACK
6
CONTINUOUS
10
122.57
20
-69.8533
11
122.574
21
-69.8547
0
LINE
8
BLACK
6
CONTINUOUS
10
122.574
20
-69.8547
11
122.575
21
-69.8548
0
LINE
8
BLACK
6
CONTINUOUS
10
122.575
20
-69.8548
11
122.575
21
-69.8548
0
LINE
8
BLACK
6
CONTINUOUS
10
122.575
20
-69.8548
11
122.579
21
-69.8571
0
LINE
8
BLACK
6
CONTINUOUS
10
122.579
20
-69.8571
11
122.583
21
-69.8593
0
LINE
8
BLACK
6
CONTINUOUS
10
122.583
20
-69.8593
11
122.583
21
-69.8595
0
LINE
8
BLACK
6
CONTINUOUS
10
122.583
20
-69.8595
11
122.583
21
-69.8595
0
LINE
8
BLACK
6
CONTINUOUS
10
122.583
20
-69.8595
11
122.587
21
-69.8625
0
LINE
8
BLACK
6
CONTINUOUS
10
122.587
20
-69.8625
11
122.59
21
-69.8656
0
LINE
8
BLACK
6
CONTINUOUS
10
122.59
20
-69.8656
11
122.591
21
-69.8657
0
LINE
8
BLACK
6
CONTINUOUS
10
122.591
20
-69.8657
11
122.591
21
-69.8658
0
LINE
8
BLACK
6
CONTINUOUS
10
122.591
20
-69.8658
11
122.594
21
-69.8694
0
LINE
8
BLACK
6
CONTINUOUS
10
122.594
20
-69.8694
11
122.597
21
-69.8731
0
LINE
8
BLACK
6
CONTINUOUS
10
122.597
20
-69.8731
11
122.597
21
-69.8733
0
LINE
8
BLACK
6
CONTINUOUS
10
122.597
20
-69.8733
11
122.597
21
-69.8734
0
LINE
8
BLACK
6
CONTINUOUS
10
122.597
20
-69.8734
11
122.599
21
-69.8775
0
LINE
8
BLACK
6
CONTINUOUS
10
122.599
20
-69.8775
11
122.601
21
-69.8817
0
LINE
8
BLACK
6
CONTINUOUS
10
122.601
20
-69.8817
11
122.601
21
-69.8819
0
LINE
8
BLACK
6
CONTINUOUS
10
122.601
20
-69.8819
11
122.601
21
-69.8821
0
LINE
8
BLACK
6
CONTINUOUS
10
122.601
20
-69.8821
11
122.603
21
-69.8865
0
LINE
8
BLACK
6
CONTINUOUS
10
122.603
20
-69.8865
11
122.604
21
-69.8911
0
LINE
8
BLACK
6
CONTINUOUS
10
122.604
20
-69.8911
11
122.604
21
-69.8913
0
LINE
8
BLACK
6
CONTINUOUS
10
122.604
20
-69.8913
11
122.604
21
-69.8914
0
LINE
8
BLACK
6
CONTINUOUS
10
122.604
20
-69.8914
11
122.605
21
-69.8961
0
LINE
8
BLACK
6
CONTINUOUS
10
122.605
20
-69.8961
11
122.605
21
-69.9008
0
LINE
8
BLACK
6
CONTINUOUS
10
122.605
20
-69.9008
11
122.605
21
-70.5358
0
LINE
8
BLACK
6
CONTINUOUS
10
122.605
20
-70.5358
11
122.605
21
-70.5361
0
LINE
8
BLACK
6
CONTINUOUS
10
122.605
20
-70.5361
11
122.605
21
-70.5361
0
LINE
8
BLACK
6
CONTINUOUS
10
122.605
20
-70.5361
11
122.605
21
-70.5362
0
LINE
8
BLACK
6
CONTINUOUS
10
122.605
20
-70.5362
11
122.605
21
-70.5365
0
LINE
8
BLACK
6
CONTINUOUS
10
122.605
20
-70.5365
11
122.604
21
-70.5411
0
LINE
8
BLACK
6
CONTINUOUS
10
122.604
20
-70.5411
11
122.604
21
-70.5459
0
LINE
8
BLACK
6
CONTINUOUS
10
122.604
20
-70.5459
11
122.604
21
-70.546
0
LINE
8
BLACK
6
CONTINUOUS
10
122.604
20
-70.546
11
122.604
21
-70.5462
0
LINE
8
BLACK
6
CONTINUOUS
10
122.604
20
-70.5462
11
122.602
21
-70.5507
0
LINE
8
BLACK
6
CONTINUOUS
10
122.602
20
-70.5507
11
122.601
21
-70.5552
0
LINE
8
BLACK
6
CONTINUOUS
10
122.601
20
-70.5552
11
122.601
21
-70.5553
0
LINE
8
BLACK
6
CONTINUOUS
10
122.601
20
-70.5553
11
122.601
21
-70.5555
0
LINE
8
BLACK
6
CONTINUOUS
10
122.601
20
-70.5555
11
122.599
21
-70.5596
0
LINE
8
BLACK
6
CONTINUOUS
10
122.599
20
-70.5596
11
122.596
21
-70.5638
0
LINE
8
BLACK
6
CONTINUOUS
10
122.596
20
-70.5638
11
122.596
21
-70.5639
0
LINE
8
BLACK
6
CONTINUOUS
10
122.596
20
-70.5639
11
122.596
21
-70.564
0
LINE
8
BLACK
6
CONTINUOUS
10
122.596
20
-70.564
11
122.593
21
-70.5676
0
LINE
8
BLACK
6
CONTINUOUS
10
122.593
20
-70.5676
11
122.59
21
-70.5713
0
LINE
8
BLACK
6
CONTINUOUS
10
122.59
20
-70.5713
11
122.59
21
-70.5714
0
LINE
8
BLACK
6
CONTINUOUS
10
122.59
20
-70.5714
11
122.59
21
-70.5715
0
LINE
8
BLACK
6
CONTINUOUS
10
122.59
20
-70.5715
11
122.586
21
-70.5744
0
LINE
8
BLACK
6
CONTINUOUS
10
122.586
20
-70.5744
11
122.583
21
-70.5774
0
LINE
8
BLACK
6
CONTINUOUS
10
122.583
20
-70.5774
11
122.583
21
-70.5775
0
LINE
8
BLACK
6
CONTINUOUS
10
122.583
20
-70.5775
11
122.582
21
-70.5776
0
LINE
8
BLACK
6
CONTINUOUS
10
122.582
20
-70.5776
11
122.578
21
-70.5798
0
LINE
8
BLACK
6
CONTINUOUS
10
122.578
20
-70.5798
11
122.574
21
-70.582
0
LINE
8
BLACK
6
CONTINUOUS
10
122.574
20
-70.582
11
122.574
21
-70.5821
0
LINE
8
BLACK
6
CONTINUOUS
10
122.574
20
-70.5821
11
122.574
21
-70.5822
0
LINE
8
BLACK
6
CONTINUOUS
10
122.574
20
-70.5822
11
122.569
21
-70.5835
0
LINE
8
BLACK
6
CONTINUOUS
10
122.569
20
-70.5835
11
122.565
21
-70.5848
0
LINE
8
BLACK
6
CONTINUOUS
10
122.565
20
-70.5848
11
122.565
21
-70.5849
0
LINE
8
BLACK
6
CONTINUOUS
10
122.565
20
-70.5849
11
122.564
21
-70.5849
0
LINE
8
BLACK
6
CONTINUOUS
10
122.564
20
-70.5849
11
122.56
21
-70.5853
0
LINE
8
BLACK
6
CONTINUOUS
10
122.56
20
-70.5853
11
122.555
21
-70.5858
0
LINE
8
BLACK
6
CONTINUOUS
10
122.555
20
-70.5858
11
121.92
21
-70.5858
0
LINE
8
BLACK
6
CONTINUOUS
10
121.92
20
-70.5858
11
121.92
21
-70.5858
0
LINE
8
BLACK
6
CONTINUOUS
10
121.92
20
-70.5858
11
121.92
21
-70.5858
0
LINE
8
BLACK
6
CONTINUOUS
10
121.92
20
-70.5858
11
121.92
21
-70.5858
0
LINE
8
BLACK
6
CONTINUOUS
10
121.92
20
-70.5858
11
121.919
21
-70.5858
0
LINE
8
BLACK
6
CONTINUOUS
10
121.919
20
-70.5858
11
121.915
21
-70.5853
0
LINE
8
BLACK
6
CONTINUOUS
10
121.915
20
-70.5853
11
121.91
21
-70.5848
0
LINE
8
BLACK
6
CONTINUOUS
10
121.91
20
-70.5848
11
121.91
21
-70.5847
0
LINE
8
BLACK
6
CONTINUOUS
10
121.91
20
-70.5847
11
121.91
21
-70.5847
0
LINE
8
BLACK
6
CONTINUOUS
10
121.91
20
-70.5847
11
121.905
21
-70.5833
0
LINE
8
BLACK
6
CONTINUOUS
10
121.905
20
-70.5833
11
121.901
21
-70.5819
0
LINE
8
BLACK
6
CONTINUOUS
10
121.901
20
-70.5819
11
121.9
21
-70.5818
0
LINE
8
BLACK
6
CONTINUOUS
10
121.9
20
-70.5818
11
121.9
21
-70.5818
0
LINE
8
BLACK
6
CONTINUOUS
10
121.9
20
-70.5818
11
121.896
21
-70.5795
0
LINE
8
BLACK
6
CONTINUOUS
10
121.896
20
-70.5795
11
121.892
21
-70.5773
0
LINE
8
BLACK
6
CONTINUOUS
10
121.892
20
-70.5773
11
121.892
21
-70.5771
0
LINE
8
BLACK
6
CONTINUOUS
10
121.892
20
-70.5771
11
121.892
21
-70.5771
0
LINE
8
BLACK
6
CONTINUOUS
10
121.892
20
-70.5771
11
121.888
21
-70.5741
0
LINE
8
BLACK
6
CONTINUOUS
10
121.888
20
-70.5741
11
121.885
21
-70.571
0
LINE
8
BLACK
6
CONTINUOUS
10
121.885
20
-70.571
11
121.884
21
-70.5709
0
LINE
8
BLACK
6
CONTINUOUS
10
121.884
20
-70.5709
11
121.884
21
-70.5708
0
LINE
8
BLACK
6
CONTINUOUS
10
121.884
20
-70.5708
11
121.881
21
-70.5672
0
LINE
8
BLACK
6
CONTINUOUS
10
121.881
20
-70.5672
11
121.878
21
-70.5635
0
LINE
8
BLACK
6
CONTINUOUS
10
121.878
20
-70.5635
11
121.878
21
-70.5633
0
LINE
8
BLACK
6
CONTINUOUS
10
121.878
20
-70.5633
11
121.878
21
-70.5632
0
LINE
8
BLACK
6
CONTINUOUS
10
121.878
20
-70.5632
11
121.876
21
-70.5591
0
LINE
8
BLACK
6
CONTINUOUS
10
121.876
20
-70.5591
11
121.874
21
-70.5549
0
LINE
8
BLACK
6
CONTINUOUS
10
121.874
20
-70.5549
11
121.874
21
-70.5547
0
LINE
8
BLACK
6
CONTINUOUS
10
121.874
20
-70.5547
11
121.874
21
-70.5545
0
LINE
8
BLACK
6
CONTINUOUS
10
121.874
20
-70.5545
11
121.872
21
-70.5501
0
LINE
8
BLACK
6
CONTINUOUS
10
121.872
20
-70.5501
11
121.871
21
-70.5455
0
LINE
8
BLACK
6
CONTINUOUS
10
121.871
20
-70.5455
11
121.871
21
-70.5453
0
LINE
8
BLACK
6
CONTINUOUS
10
121.871
20
-70.5453
11
121.871
21
-70.5452
0
LINE
8
BLACK
6
CONTINUOUS
10
121.871
20
-70.5452
11
121.87
21
-70.5405
0
LINE
8
BLACK
6
CONTINUOUS
10
121.87
20
-70.5405
11
121.87
21
-70.5358
0
LINE
8
BLACK
6
CONTINUOUS
10
121.87
20
-70.5358
11
121.87
21
-69.9008
0
LINE
8
BLACK
6
CONTINUOUS
10
121.87
20
-69.9008
11
121.87
21
-69.9005
0
LINE
8
BLACK
6
CONTINUOUS
10
121.87
20
-69.9005
11
121.87
21
-69.9005
0
LINE
8
BLACK
6
CONTINUOUS
10
121.87
20
-69.9005
11
121.87
21
-69.9004
0
LINE
8
BLACK
6
CONTINUOUS
10
121.87
20
-69.9004
11
121.87
21
-69.9001
0
LINE
8
BLACK
6
CONTINUOUS
10
121.87
20
-69.9001
11
121.871
21
-69.8955
0
LINE
8
BLACK
6
CONTINUOUS
10
121.871
20
-69.8955
11
121.871
21
-69.8907
0
LINE
8
BLACK
6
CONTINUOUS
10
121.871
20
-69.8907
11
121.871
21
-69.8906
0
LINE
8
BLACK
6
CONTINUOUS
10
121.871
20
-69.8906
11
121.871
21
-69.8904
0
LINE
8
BLACK
6
CONTINUOUS
10
121.871
20
-69.8904
11
121.873
21
-69.8859
0
LINE
8
BLACK
6
CONTINUOUS
10
121.873
20
-69.8859
11
121.874
21
-69.8814
0
LINE
8
BLACK
6
CONTINUOUS
10
121.874
20
-69.8814
11
121.874
21
-69.8813
0
LINE
8
BLACK
6
CONTINUOUS
10
121.874
20
-69.8813
11
121.874
21
-69.8811
0
LINE
8
BLACK
6
CONTINUOUS
10
121.874
20
-69.8811
11
121.876
21
-69.877
0
LINE
8
BLACK
6
CONTINUOUS
10
121.876
20
-69.877
11
121.879
21
-69.8728
0
LINE
8
BLACK
6
CONTINUOUS
10
121.879
20
-69.8728
11
121.879
21
-69.8727
0
LINE
8
BLACK
6
CONTINUOUS
10
121.879
20
-69.8727
11
121.879
21
-69.8726
0
LINE
8
BLACK
6
CONTINUOUS
10
121.879
20
-69.8726
11
121.882
21
-69.869
0
LINE
8
BLACK
6
CONTINUOUS
10
121.882
20
-69.869
11
121.885
21
-69.8653
0
LINE
8
BLACK
6
CONTINUOUS
10
121.885
20
-69.8653
11
121.885
21
-69.8652
0
LINE
8
BLACK
6
CONTINUOUS
10
121.885
20
-69.8652
11
121.885
21
-69.8651
0
LINE
8
BLACK
6
CONTINUOUS
10
121.885
20
-69.8651
11
121.889
21
-69.8622
0
LINE
8
BLACK
6
CONTINUOUS
10
121.889
20
-69.8622
11
121.892
21
-69.8592
0
LINE
8
BLACK
6
CONTINUOUS
10
121.892
20
-69.8592
11
121.892
21
-69.8591
0
LINE
8
BLACK
6
CONTINUOUS
10
121.892
20
-69.8591
11
121.893
21
-69.859
0
LINE
8
BLACK
6
CONTINUOUS
10
121.893
20
-69.859
11
121.897
21
-69.8568
0
LINE
8
BLACK
6
CONTINUOUS
10
121.897
20
-69.8568
11
121.901
21
-69.8546
0
LINE
8
BLACK
6
CONTINUOUS
10
121.901
20
-69.8546
11
121.901
21
-69.8545
0
LINE
8
BLACK
6
CONTINUOUS
10
121.901
20
-69.8545
11
121.901
21
-69.8544
0
LINE
8
BLACK
6
CONTINUOUS
10
121.901
20
-69.8544
11
121.906
21
-69.8531
0
LINE
8
BLACK
6
CONTINUOUS
10
121.906
20
-69.8531
11
121.91
21
-69.8518
0
LINE
8
BLACK
6
CONTINUOUS
10
121.91
20
-69.8518
11
121.91
21
-69.8517
0
LINE
8
BLACK
6
CONTINUOUS
10
121.91
20
-69.8517
11
121.911
21
-69.8517
0
LINE
8
BLACK
6
CONTINUOUS
10
121.911
20
-69.8517
11
121.915
21
-69.8513
0
LINE
8
BLACK
6
CONTINUOUS
10
121.915
20
-69.8513
11
121.92
21
-69.8508
0
LINE
8
BLACK
6
CONTINUOUS
10
121.92
20
-69.8508
11
122.555
21
-69.8508
0
LINE
8
BLACK
6
CONTINUOUS
10
122.555
20
-69.8508
11
122.555
21
-69.8508
  0
ENDSEC
  0
EOF
